# Tiled2Unity generated file. Do not modify by hand.
# Wavefront file for 'GabrielSubd_mesh_0002.obj'

# Vertices (Count = 420)
v -55 -1 0
v -56 -1 0
v -56 0 0
v -55 0 0
v -54 -1 0
v -55 -1 0
v -55 0 0
v -54 0 0
v -53 -1 0
v -54 -1 0
v -54 0 0
v -53 0 0
v -48 -1 0
v -49 -1 0
v -49 0 0
v -48 0 0
v -47 -1 0
v -48 -1 0
v -48 0 0
v -47 0 0
v -46 -1 0
v -47 -1 0
v -47 0 0
v -46 0 0
v -45 -1 0
v -46 -1 0
v -46 0 0
v -45 0 0
v -44 -1 0
v -45 -1 0
v -45 0 0
v -44 0 0
v -43 -1 0
v -44 -1 0
v -44 0 0
v -43 0 0
v -42 -1 0
v -43 -1 0
v -43 0 0
v -42 0 0
v -41 -1 0
v -42 -1 0
v -42 0 0
v -41 0 0
v -40 -1 0
v -41 -1 0
v -41 0 0
v -40 0 0
v -39 -1 0
v -40 -1 0
v -40 0 0
v -39 0 0
v -38 -1 0
v -39 -1 0
v -39 0 0
v -38 0 0
v -37 -1 0
v -38 -1 0
v -38 0 0
v -37 0 0
v -36 -1 0
v -37 -1 0
v -37 0 0
v -36 0 0
v -35 -1 0
v -36 -1 0
v -36 0 0
v -35 0 0
v -34 -1 0
v -35 -1 0
v -35 0 0
v -34 0 0
v -33 -1 0
v -34 -1 0
v -34 0 0
v -33 0 0
v -32 -1 0
v -33 -1 0
v -33 0 0
v -32 0 0
v -31 -1 0
v -32 -1 0
v -32 0 0
v -31 0 0
v -30 -1 0
v -31 -1 0
v -31 0 0
v -30 0 0
v -29 -1 0
v -30 -1 0
v -30 0 0
v -29 0 0
v -28 -1 0
v -29 -1 0
v -29 0 0
v -28 0 0
v -27 -1 0
v -28 -1 0
v -28 0 0
v -27 0 0
v -2 -1 0
v -3 -1 0
v -3 0 0
v -2 0 0
v -1 -1 0
v -2 -1 0
v -2 0 0
v -1 0 0
v 0 -1 0
v -1 -1 0
v -1 0 0
v 0 0 0
v -47 -2 0
v -48 -2 0
v -48 -1 0
v -47 -1 0
v -46 -2 0
v -47 -2 0
v -47 -1 0
v -46 -1 0
v -45 -2 0
v -46 -2 0
v -46 -1 0
v -45 -1 0
v -36 -2 0
v -37 -2 0
v -37 -1 0
v -36 -1 0
v -35 -2 0
v -36 -2 0
v -36 -1 0
v -35 -1 0
v -34 -2 0
v -35 -2 0
v -35 -1 0
v -34 -1 0
v -33 -2 0
v -34 -2 0
v -34 -1 0
v -33 -1 0
v -30 -2 0
v -31 -2 0
v -31 -1 0
v -30 -1 0
v -29 -2 0
v -30 -2 0
v -30 -1 0
v -29 -1 0
v -28 -2 0
v -29 -2 0
v -29 -1 0
v -28 -1 0
v -27 -2 0
v -28 -2 0
v -28 -1 0
v -27 -1 0
v 0 -2 0
v -1 -2 0
v -1 -1 0
v 0 -1 0
v 0 -3 0
v -1 -3 0
v -1 -2 0
v 0 -2 0
v -51 -4 0
v -52 -4 0
v -52 -3 0
v -51 -3 0
v -50 -4 0
v -51 -4 0
v -51 -3 0
v -50 -3 0
v -49 -4 0
v -50 -4 0
v -50 -3 0
v -49 -3 0
v -48 -4 0
v -49 -4 0
v -49 -3 0
v -48 -3 0
v 0 -4 0
v -1 -4 0
v -1 -3 0
v 0 -3 0
v 0 -5 0
v -1 -5 0
v -1 -4 0
v 0 -4 0
v 0 -6 0
v -1 -6 0
v -1 -5 0
v 0 -5 0
v -39 -7 0
v -40 -7 0
v -40 -6 0
v -39 -6 0
v -38 -7 0
v -39 -7 0
v -39 -6 0
v -38 -6 0
v -37 -7 0
v -38 -7 0
v -38 -6 0
v -37 -6 0
v -36 -7 0
v -37 -7 0
v -37 -6 0
v -36 -6 0
v -51 -8 0
v -52 -8 0
v -52 -7 0
v -51 -7 0
v -50 -8 0
v -51 -8 0
v -51 -7 0
v -50 -7 0
v -49 -8 0
v -50 -8 0
v -50 -7 0
v -49 -7 0
v -48 -8 0
v -49 -8 0
v -49 -7 0
v -48 -7 0
v -23 -8 0
v -24 -8 0
v -24 -7 0
v -23 -7 0
v -22 -8 0
v -23 -8 0
v -23 -7 0
v -22 -7 0
v -21 -8 0
v -22 -8 0
v -22 -7 0
v -21 -7 0
v -20 -8 0
v -21 -8 0
v -21 -7 0
v -20 -7 0
v -42 -10 0
v -43 -10 0
v -43 -9 0
v -42 -9 0
v -41 -10 0
v -42 -10 0
v -42 -9 0
v -41 -9 0
v -40 -10 0
v -41 -10 0
v -41 -9 0
v -40 -9 0
v -39 -10 0
v -40 -10 0
v -40 -9 0
v -39 -9 0
v -3 -10 0
v -4 -10 0
v -4 -9 0
v -3 -9 0
v -2 -10 0
v -3 -10 0
v -3 -9 0
v -2 -9 0
v -1 -10 0
v -2 -10 0
v -2 -9 0
v -1 -9 0
v 0 -10 0
v -1 -10 0
v -1 -9 0
v 0 -9 0
v -51 -12 0
v -52 -12 0
v -52 -11 0
v -51 -11 0
v -50 -12 0
v -51 -12 0
v -51 -11 0
v -50 -11 0
v -49 -12 0
v -50 -12 0
v -50 -11 0
v -49 -11 0
v -48 -12 0
v -49 -12 0
v -49 -11 0
v -48 -11 0
v -46 -12 0
v -47 -12 0
v -47 -11 0
v -46 -11 0
v -45 -12 0
v -46 -12 0
v -46 -11 0
v -45 -11 0
v -44 -12 0
v -45 -12 0
v -45 -11 0
v -44 -11 0
v -43 -12 0
v -44 -12 0
v -44 -11 0
v -43 -11 0
v -3 -12 0
v -4 -12 0
v -4 -11 0
v -3 -11 0
v -2 -15 0
v -3 -15 0
v -3 -14 0
v -2 -14 0
v -1 -15 0
v -2 -15 0
v -2 -14 0
v -1 -14 0
v 0 -15 0
v -1 -15 0
v -1 -14 0
v 0 -14 0
v 0 -16 0
v -1 -16 0
v -1 -15 0
v 0 -15 0
v -49 -20 0
v -50 -20 0
v -50 -19 0
v -49 -19 0
v -48 -20 0
v -49 -20 0
v -49 -19 0
v -48 -19 0
v -47 -20 0
v -48 -20 0
v -48 -19 0
v -47 -19 0
v -46 -20 0
v -47 -20 0
v -47 -19 0
v -46 -19 0
v -39 -26 0
v -40 -26 0
v -40 -25 0
v -39 -25 0
v -38 -26 0
v -39 -26 0
v -39 -25 0
v -38 -25 0
v -37 -26 0
v -38 -26 0
v -38 -25 0
v -37 -25 0
v -36 -26 0
v -37 -26 0
v -37 -25 0
v -36 -25 0
v -23 -26 0
v -24 -26 0
v -24 -25 0
v -23 -25 0
v -22 -26 0
v -23 -26 0
v -23 -25 0
v -22 -25 0
v -21 -26 0
v -22 -26 0
v -22 -25 0
v -21 -25 0
v -20 -26 0
v -21 -26 0
v -21 -25 0
v -20 -25 0
v -34 -30 0
v -35 -30 0
v -35 -29 0
v -34 -29 0
v -33 -30 0
v -34 -30 0
v -34 -29 0
v -33 -29 0
v -32 -30 0
v -33 -30 0
v -33 -29 0
v -32 -29 0
v -31 -30 0
v -32 -30 0
v -32 -29 0
v -31 -29 0
v -47 -37 0
v -48 -37 0
v -48 -36 0
v -47 -36 0
v -46 -37 0
v -47 -37 0
v -47 -36 0
v -46 -36 0
v -45 -37 0
v -46 -37 0
v -46 -36 0
v -45 -36 0
v -44 -37 0
v -45 -37 0
v -45 -36 0
v -44 -36 0
v -23 -38 0
v -24 -38 0
v -24 -37 0
v -23 -37 0
v -22 -38 0
v -23 -38 0
v -23 -37 0
v -22 -37 0
v -21 -38 0
v -22 -38 0
v -22 -37 0
v -21 -37 0
v -20 -38 0
v -21 -38 0
v -21 -37 0
v -20 -37 0

# Texture cooridinates (Count = 72)
vt 0.04173455 0.5834554
vt 0.06229666 0.5834554
vt 0.06229666 0.610989
vt 0.04173455 0.610989
vt 0.0625408 0.02789986
vt 0.0831029 0.02789986
vt 0.0831029 0.05543351
vt 0.0625408 0.05543351
vt 0.04173455 0.02789986
vt 0.06229666 0.02789986
vt 0.06229666 0.05543351
vt 0.04173455 0.05543351
vt 0.02092831 0.02789986
vt 0.04149041 0.02789986
vt 0.04149041 0.05543351
vt 0.02092831 0.05543351
vt 0.0001220703 0.02789986
vt 0.02068417 0.02789986
vt 0.02068417 0.05543351
vt 0.0001220703 0.05543351
vt 0.04173455 0.0001220703
vt 0.06229666 0.0001220703
vt 0.06229666 0.02765572
vt 0.04173455 0.02765572
vt 0.02092831 0.0001220703
vt 0.04149041 0.0001220703
vt 0.04149041 0.02765572
vt 0.02092831 0.02765572
vt 0.0001220703 0.0001220703
vt 0.02068417 0.0001220703
vt 0.02068417 0.02765572
vt 0.0001220703 0.02765572
vt 0.0625408 0.0001220703
vt 0.0831029 0.0001220703
vt 0.0831029 0.02765572
vt 0.0625408 0.02765572
vt 0.3538282 0.08345538
vt 0.3743903 0.08345538
vt 0.3743903 0.110989
vt 0.3538282 0.110989
vt 0.3330219 0.08345538
vt 0.3535841 0.08345538
vt 0.3535841 0.110989
vt 0.3330219 0.110989
vt 0.3122157 0.08345538
vt 0.3327778 0.08345538
vt 0.3327778 0.110989
vt 0.3122157 0.110989
vt 0.2914095 0.08345538
vt 0.3119715 0.08345538
vt 0.3119715 0.110989
vt 0.2914095 0.110989
vt 0.9572092 0.4445665
vt 0.9777713 0.4445665
vt 0.9777713 0.4721001
vt 0.9572092 0.4721001
vt 0.936403 0.4445665
vt 0.956965 0.4445665
vt 0.956965 0.4721001
vt 0.936403 0.4721001
vt 0.9155967 0.4445665
vt 0.9361588 0.4445665
vt 0.9361588 0.4721001
vt 0.9155967 0.4721001
vt 0.8947905 0.4445665
vt 0.9153526 0.4445665
vt 0.9153526 0.4721001
vt 0.8947905 0.4721001
vt 0.9572092 0.4723443
vt 0.9777713 0.4723443
vt 0.9777713 0.4998779
vt 0.9572092 0.4998779

# Normal
vn 0 0 -1

# Mesh description
g GabrielSubd_mesh_0002

# Faces
f 1/1/1 2/2/1 3/3/1 4/4/1
f 5/1/1 6/2/1 7/3/1 8/4/1
f 9/1/1 10/2/1 11/3/1 12/4/1
f 13/5/1 14/6/1 15/7/1 16/8/1
f 17/9/1 18/10/1 19/11/1 20/12/1
f 21/13/1 22/14/1 23/15/1 24/16/1
f 25/17/1 26/18/1 27/19/1 28/20/1
f 29/21/1 30/22/1 31/23/1 32/24/1
f 33/25/1 34/26/1 35/27/1 36/28/1
f 37/29/1 38/30/1 39/31/1 40/32/1
f 41/21/1 42/22/1 43/23/1 44/24/1
f 45/25/1 46/26/1 47/27/1 48/28/1
f 49/29/1 50/30/1 51/31/1 52/32/1
f 53/21/1 54/22/1 55/23/1 56/24/1
f 57/25/1 58/26/1 59/27/1 60/28/1
f 61/29/1 62/30/1 63/31/1 64/32/1
f 65/9/1 66/10/1 67/11/1 68/12/1
f 69/13/1 70/14/1 71/15/1 72/16/1
f 73/17/1 74/18/1 75/19/1 76/20/1
f 77/21/1 78/22/1 79/23/1 80/24/1
f 81/25/1 82/26/1 83/27/1 84/28/1
f 85/29/1 86/30/1 87/31/1 88/32/1
f 89/9/1 90/10/1 91/11/1 92/12/1
f 93/13/1 94/14/1 95/15/1 96/16/1
f 97/17/1 98/18/1 99/19/1 100/20/1
f 101/1/1 102/2/1 103/3/1 104/4/1
f 105/1/1 106/2/1 107/3/1 108/4/1
f 109/1/1 110/2/1 111/3/1 112/4/1
f 113/21/1 114/22/1 115/23/1 116/24/1
f 117/25/1 118/26/1 119/27/1 120/28/1
f 121/29/1 122/30/1 123/31/1 124/32/1
f 125/33/1 126/34/1 127/35/1 128/36/1
f 129/21/1 130/22/1 131/23/1 132/24/1
f 133/25/1 134/26/1 135/27/1 136/28/1
f 137/29/1 138/30/1 139/31/1 140/32/1
f 141/33/1 142/34/1 143/35/1 144/36/1
f 145/21/1 146/22/1 147/23/1 148/24/1
f 149/25/1 150/26/1 151/27/1 152/28/1
f 153/29/1 154/30/1 155/31/1 156/32/1
f 157/1/1 158/2/1 159/3/1 160/4/1
f 161/1/1 162/2/1 163/3/1 164/4/1
f 165/33/1 166/34/1 167/35/1 168/36/1
f 169/21/1 170/22/1 171/23/1 172/24/1
f 173/25/1 174/26/1 175/27/1 176/28/1
f 177/29/1 178/30/1 179/31/1 180/32/1
f 181/1/1 182/2/1 183/3/1 184/4/1
f 185/1/1 186/2/1 187/3/1 188/4/1
f 189/1/1 190/2/1 191/3/1 192/4/1
f 193/33/1 194/34/1 195/35/1 196/36/1
f 197/21/1 198/22/1 199/23/1 200/24/1
f 201/25/1 202/26/1 203/27/1 204/28/1
f 205/29/1 206/30/1 207/31/1 208/32/1
f 209/33/1 210/34/1 211/35/1 212/36/1
f 213/21/1 214/22/1 215/23/1 216/24/1
f 217/25/1 218/26/1 219/27/1 220/28/1
f 221/29/1 222/30/1 223/31/1 224/32/1
f 225/37/1 226/38/1 227/39/1 228/40/1
f 229/41/1 230/42/1 231/43/1 232/44/1
f 233/45/1 234/46/1 235/47/1 236/48/1
f 237/49/1 238/50/1 239/51/1 240/52/1
f 241/33/1 242/34/1 243/35/1 244/36/1
f 245/21/1 246/22/1 247/23/1 248/24/1
f 249/25/1 250/26/1 251/27/1 252/28/1
f 253/29/1 254/30/1 255/31/1 256/32/1
f 257/53/1 258/54/1 259/55/1 260/56/1
f 261/57/1 262/58/1 263/59/1 264/60/1
f 265/61/1 266/62/1 267/63/1 268/64/1
f 269/65/1 270/66/1 271/67/1 272/68/1
f 273/33/1 274/34/1 275/35/1 276/36/1
f 277/21/1 278/22/1 279/23/1 280/24/1
f 281/25/1 282/26/1 283/27/1 284/28/1
f 285/29/1 286/30/1 287/31/1 288/32/1
f 289/33/1 290/34/1 291/35/1 292/36/1
f 293/21/1 294/22/1 295/23/1 296/24/1
f 297/25/1 298/26/1 299/27/1 300/28/1
f 301/29/1 302/30/1 303/31/1 304/32/1
f 305/69/1 306/70/1 307/71/1 308/72/1
f 309/53/1 310/54/1 311/55/1 312/56/1
f 313/57/1 314/58/1 315/59/1 316/60/1
f 317/61/1 318/62/1 319/63/1 320/64/1
f 321/1/1 322/2/1 323/3/1 324/4/1
f 325/37/1 326/38/1 327/39/1 328/40/1
f 329/41/1 330/42/1 331/43/1 332/44/1
f 333/45/1 334/46/1 335/47/1 336/48/1
f 337/49/1 338/50/1 339/51/1 340/52/1
f 341/37/1 342/38/1 343/39/1 344/40/1
f 345/41/1 346/42/1 347/43/1 348/44/1
f 349/45/1 350/46/1 351/47/1 352/48/1
f 353/49/1 354/50/1 355/51/1 356/52/1
f 357/37/1 358/38/1 359/39/1 360/40/1
f 361/41/1 362/42/1 363/43/1 364/44/1
f 365/45/1 366/46/1 367/47/1 368/48/1
f 369/49/1 370/50/1 371/51/1 372/52/1
f 373/37/1 374/38/1 375/39/1 376/40/1
f 377/41/1 378/42/1 379/43/1 380/44/1
f 381/45/1 382/46/1 383/47/1 384/48/1
f 385/49/1 386/50/1 387/51/1 388/52/1
f 389/37/1 390/38/1 391/39/1 392/40/1
f 393/41/1 394/42/1 395/43/1 396/44/1
f 397/45/1 398/46/1 399/47/1 400/48/1
f 401/49/1 402/50/1 403/51/1 404/52/1
f 405/37/1 406/38/1 407/39/1 408/40/1
f 409/41/1 410/42/1 411/43/1 412/44/1
f 413/45/1 414/46/1 415/47/1 416/48/1
f 417/49/1 418/50/1 419/51/1 420/52/1

