# Tiled2Unity generated file. Do not modify by hand.
# Wavefront file for 'GabrielSubd_mesh_0007.obj'

# Vertices (Count = 68)
v -31 -48 0
v -32 -48 0
v -32 -47 0
v -31 -47 0
v -30 -48 0
v -31 -48 0
v -31 -47 0
v -30 -47 0
v -29 -48 0
v -30 -48 0
v -30 -47 0
v -29 -47 0
v -28 -48 0
v -29 -48 0
v -29 -47 0
v -28 -47 0
v -27 -48 0
v -28 -48 0
v -28 -47 0
v -27 -47 0
v -26 -48 0
v -27 -48 0
v -27 -47 0
v -26 -47 0
v -6 -48 0
v -7 -48 0
v -7 -47 0
v -6 -47 0
v -5 -48 0
v -6 -48 0
v -6 -47 0
v -5 -47 0
v -4 -48 0
v -5 -48 0
v -5 -47 0
v -4 -47 0
v -3 -48 0
v -4 -48 0
v -4 -47 0
v -3 -47 0
v -2 -48 0
v -3 -48 0
v -3 -47 0
v -2 -47 0
v -1 -48 0
v -2 -48 0
v -2 -47 0
v -1 -47 0
v 0 -48 0
v -1 -48 0
v -1 -47 0
v 0 -47 0
v -50 -49 0
v -51 -49 0
v -51 -48 0
v -50 -48 0
v -49 -49 0
v -50 -49 0
v -50 -48 0
v -49 -48 0
v -48 -49 0
v -49 -49 0
v -49 -48 0
v -48 -48 0
v -47 -49 0
v -48 -49 0
v -48 -48 0
v -47 -48 0

# Texture cooridinates (Count = 68)
vt 0.6035703 0.3159115
vt 0.6205676 0.3159115
vt 0.6205676 0.3419832
vt 0.6035703 0.3419832
vt 0.586329 0.3159115
vt 0.6033262 0.3159115
vt 0.6033262 0.3419832
vt 0.586329 0.3419832
vt 0.5690876 0.3159115
vt 0.5860848 0.3159115
vt 0.5860848 0.3419832
vt 0.5690876 0.3419832
vt 0.5518462 0.3159115
vt 0.5688434 0.3159115
vt 0.5688434 0.3419832
vt 0.5518462 0.3419832
vt 0.5346048 0.3159115
vt 0.5516021 0.3159115
vt 0.5516021 0.3419832
vt 0.5346048 0.3419832
vt 0.5173634 0.3159115
vt 0.5343607 0.3159115
vt 0.5343607 0.3419832
vt 0.5173634 0.3419832
vt 0.3104669 0.8422273
vt 0.3274641 0.8422273
vt 0.3274641 0.868299
vt 0.3104669 0.868299
vt 0.2932255 0.8422273
vt 0.3102227 0.8422273
vt 0.3102227 0.868299
vt 0.2932255 0.868299
vt 0.2759841 0.8422273
vt 0.2929814 0.8422273
vt 0.2929814 0.868299
vt 0.2759841 0.868299
vt 0.2587427 0.8422273
vt 0.27574 0.8422273
vt 0.27574 0.868299
vt 0.2587427 0.868299
vt 0.2415014 0.8422273
vt 0.2584986 0.8422273
vt 0.2584986 0.868299
vt 0.2415014 0.868299
vt 0.22426 0.8422273
vt 0.2412572 0.8422273
vt 0.2412572 0.868299
vt 0.22426 0.868299
vt 0.2070186 0.8422273
vt 0.2240159 0.8422273
vt 0.2240159 0.868299
vt 0.2070186 0.868299
vt 0.7070186 0.7369642
vt 0.7240158 0.7369642
vt 0.7240158 0.7630358
vt 0.7070186 0.7630358
vt 0.6897773 0.7369642
vt 0.7067745 0.7369642
vt 0.7067745 0.7630358
vt 0.6897773 0.7630358
vt 0.6725358 0.7369642
vt 0.6895331 0.7369642
vt 0.6895331 0.7630358
vt 0.6725358 0.7630358
vt 0.6552945 0.7369642
vt 0.6722917 0.7369642
vt 0.6722917 0.7630358
vt 0.6552945 0.7630358

# Normal
vn 0 0 -1

# Mesh description
g GabrielSubd_mesh_0007

# Faces
f 1/1/1 2/2/1 3/3/1 4/4/1
f 5/5/1 6/6/1 7/7/1 8/8/1
f 9/9/1 10/10/1 11/11/1 12/12/1
f 13/13/1 14/14/1 15/15/1 16/16/1
f 17/17/1 18/18/1 19/19/1 20/20/1
f 21/21/1 22/22/1 23/23/1 24/24/1
f 25/25/1 26/26/1 27/27/1 28/28/1
f 29/29/1 30/30/1 31/31/1 32/32/1
f 33/33/1 34/34/1 35/35/1 36/36/1
f 37/37/1 38/38/1 39/39/1 40/40/1
f 41/41/1 42/42/1 43/43/1 44/44/1
f 45/45/1 46/46/1 47/47/1 48/48/1
f 49/49/1 50/50/1 51/51/1 52/52/1
f 53/53/1 54/54/1 55/55/1 56/56/1
f 57/57/1 58/58/1 59/59/1 60/60/1
f 61/61/1 62/62/1 63/63/1 64/64/1
f 65/65/1 66/66/1 67/67/1 68/68/1

