# Tiled2Unity generated file. Do not modify by hand.
# Wavefront file for 'BomboRadyo_mesh_0002.obj'

# Vertices (Count = 636)
v -32 -4 0
v -33 -4 0
v -33 -3 0
v -32 -3 0
v -70 -5 0
v -71 -5 0
v -71 -4 0
v -70 -4 0
v -69 -5 0
v -70 -5 0
v -70 -4 0
v -69 -4 0
v -68 -5 0
v -69 -5 0
v -69 -4 0
v -68 -4 0
v -67 -5 0
v -68 -5 0
v -68 -4 0
v -67 -4 0
v -32 -5 0
v -33 -5 0
v -33 -4 0
v -32 -4 0
v -31 -5 0
v -32 -5 0
v -32 -4 0
v -31 -4 0
v -30 -5 0
v -31 -5 0
v -31 -4 0
v -30 -4 0
v -29 -5 0
v -30 -5 0
v -30 -4 0
v -29 -4 0
v -21 -6 0
v -22 -6 0
v -22 -5 0
v -21 -5 0
v -20 -6 0
v -21 -6 0
v -21 -5 0
v -20 -5 0
v -19 -6 0
v -20 -6 0
v -20 -5 0
v -19 -5 0
v -18 -6 0
v -19 -6 0
v -19 -5 0
v -18 -5 0
v -1 -6 0
v -2 -6 0
v -2 -5 0
v -1 -5 0
v 0 -6 0
v -1 -6 0
v -1 -5 0
v 0 -5 0
v -41 -9 0
v -42 -9 0
v -42 -8 0
v -41 -8 0
v -41 -10 0
v -42 -10 0
v -42 -9 0
v -41 -9 0
v -40 -10 0
v -41 -10 0
v -41 -9 0
v -40 -9 0
v -39 -10 0
v -40 -10 0
v -40 -9 0
v -39 -9 0
v -38 -10 0
v -39 -10 0
v -39 -9 0
v -38 -9 0
v -1 -10 0
v -2 -10 0
v -2 -9 0
v -1 -9 0
v 0 -10 0
v -1 -10 0
v -1 -9 0
v 0 -9 0
v -10 -13 0
v -11 -13 0
v -11 -12 0
v -10 -12 0
v -9 -13 0
v -10 -13 0
v -10 -12 0
v -9 -12 0
v -8 -13 0
v -9 -13 0
v -9 -12 0
v -8 -12 0
v -7 -13 0
v -8 -13 0
v -8 -12 0
v -7 -12 0
v -1 -14 0
v -2 -14 0
v -2 -13 0
v -1 -13 0
v 0 -14 0
v -1 -14 0
v -1 -13 0
v 0 -13 0
v -64 -15 0
v -65 -15 0
v -65 -14 0
v -64 -14 0
v -63 -15 0
v -64 -15 0
v -64 -14 0
v -63 -14 0
v -62 -15 0
v -63 -15 0
v -63 -14 0
v -62 -14 0
v -61 -15 0
v -62 -15 0
v -62 -14 0
v -61 -14 0
v -55 -15 0
v -56 -15 0
v -56 -14 0
v -55 -14 0
v -54 -15 0
v -55 -15 0
v -55 -14 0
v -54 -14 0
v -53 -15 0
v -54 -15 0
v -54 -14 0
v -53 -14 0
v -52 -15 0
v -53 -15 0
v -53 -14 0
v -52 -14 0
v -33 -22 0
v -34 -22 0
v -34 -21 0
v -33 -21 0
v -32 -22 0
v -33 -22 0
v -33 -21 0
v -32 -21 0
v -31 -22 0
v -32 -22 0
v -32 -21 0
v -31 -21 0
v -30 -22 0
v -31 -22 0
v -31 -21 0
v -30 -21 0
v -5 -22 0
v -6 -22 0
v -6 -21 0
v -5 -21 0
v -43 -23 0
v -44 -23 0
v -44 -22 0
v -43 -22 0
v -42 -23 0
v -43 -23 0
v -43 -22 0
v -42 -22 0
v -41 -23 0
v -42 -23 0
v -42 -22 0
v -41 -22 0
v -40 -23 0
v -41 -23 0
v -41 -22 0
v -40 -22 0
v -19 -23 0
v -20 -23 0
v -20 -22 0
v -19 -22 0
v -18 -23 0
v -19 -23 0
v -19 -22 0
v -18 -22 0
v -17 -23 0
v -18 -23 0
v -18 -22 0
v -17 -22 0
v -16 -23 0
v -17 -23 0
v -17 -22 0
v -16 -22 0
v -8 -23 0
v -9 -23 0
v -9 -22 0
v -8 -22 0
v -7 -23 0
v -8 -23 0
v -8 -22 0
v -7 -22 0
v -6 -23 0
v -7 -23 0
v -7 -22 0
v -6 -22 0
v -5 -23 0
v -6 -23 0
v -6 -22 0
v -5 -22 0
v -74 -24 0
v -75 -24 0
v -75 -23 0
v -74 -23 0
v -71 -24 0
v -72 -24 0
v -72 -23 0
v -71 -23 0
v -70 -24 0
v -71 -24 0
v -71 -23 0
v -70 -23 0
v -69 -24 0
v -70 -24 0
v -70 -23 0
v -69 -23 0
v -68 -24 0
v -69 -24 0
v -69 -23 0
v -68 -23 0
v 0 -24 0
v -1 -24 0
v -1 -23 0
v 0 -23 0
v -74 -25 0
v -75 -25 0
v -75 -24 0
v -74 -24 0
v -24 -25 0
v -25 -25 0
v -25 -24 0
v -24 -24 0
v -23 -25 0
v -24 -25 0
v -24 -24 0
v -23 -24 0
v -22 -25 0
v -23 -25 0
v -23 -24 0
v -22 -24 0
v -21 -25 0
v -22 -25 0
v -22 -24 0
v -21 -24 0
v -74 -26 0
v -75 -26 0
v -75 -25 0
v -74 -25 0
v -62 -26 0
v -63 -26 0
v -63 -25 0
v -62 -25 0
v -61 -26 0
v -62 -26 0
v -62 -25 0
v -61 -25 0
v -60 -26 0
v -61 -26 0
v -61 -25 0
v -60 -25 0
v -59 -26 0
v -60 -26 0
v -60 -25 0
v -59 -25 0
v -58 -26 0
v -59 -26 0
v -59 -25 0
v -58 -25 0
v -57 -26 0
v -58 -26 0
v -58 -25 0
v -57 -25 0
v -56 -26 0
v -57 -26 0
v -57 -25 0
v -56 -25 0
v -55 -26 0
v -56 -26 0
v -56 -25 0
v -55 -25 0
v -74 -27 0
v -75 -27 0
v -75 -26 0
v -74 -26 0
v -74 -28 0
v -75 -28 0
v -75 -27 0
v -74 -27 0
v -6 -29 0
v -7 -29 0
v -7 -28 0
v -6 -28 0
v -5 -29 0
v -6 -29 0
v -6 -28 0
v -5 -28 0
v -4 -29 0
v -5 -29 0
v -5 -28 0
v -4 -28 0
v -3 -29 0
v -4 -29 0
v -4 -28 0
v -3 -28 0
v -18 -30 0
v -19 -30 0
v -19 -29 0
v -18 -29 0
v -17 -30 0
v -18 -30 0
v -18 -29 0
v -17 -29 0
v -16 -30 0
v -17 -30 0
v -17 -29 0
v -16 -29 0
v -15 -30 0
v -16 -30 0
v -16 -29 0
v -15 -29 0
v 0 -30 0
v -1 -30 0
v -1 -29 0
v 0 -29 0
v -40 -31 0
v -41 -31 0
v -41 -30 0
v -40 -30 0
v -39 -31 0
v -40 -31 0
v -40 -30 0
v -39 -30 0
v -38 -31 0
v -39 -31 0
v -39 -30 0
v -38 -30 0
v -37 -31 0
v -38 -31 0
v -38 -30 0
v -37 -30 0
v -29 -32 0
v -30 -32 0
v -30 -31 0
v -29 -31 0
v -28 -32 0
v -29 -32 0
v -29 -31 0
v -28 -31 0
v -27 -32 0
v -28 -32 0
v -28 -31 0
v -27 -31 0
v -26 -32 0
v -27 -32 0
v -27 -31 0
v -26 -31 0
v -14 -32 0
v -15 -32 0
v -15 -31 0
v -14 -31 0
v -13 -32 0
v -14 -32 0
v -14 -31 0
v -13 -31 0
v -12 -32 0
v -13 -32 0
v -13 -31 0
v -12 -31 0
v -11 -32 0
v -12 -32 0
v -12 -31 0
v -11 -31 0
v -22 -33 0
v -23 -33 0
v -23 -32 0
v -22 -32 0
v -21 -33 0
v -22 -33 0
v -22 -32 0
v -21 -32 0
v -20 -33 0
v -21 -33 0
v -21 -32 0
v -20 -32 0
v -19 -33 0
v -20 -33 0
v -20 -32 0
v -19 -32 0
v -58 -34 0
v -59 -34 0
v -59 -33 0
v -58 -33 0
v -57 -34 0
v -58 -34 0
v -58 -33 0
v -57 -33 0
v -56 -34 0
v -57 -34 0
v -57 -33 0
v -56 -33 0
v -55 -34 0
v -56 -34 0
v -56 -33 0
v -55 -33 0
v 0 -34 0
v -1 -34 0
v -1 -33 0
v 0 -33 0
v 0 -35 0
v -1 -35 0
v -1 -34 0
v 0 -34 0
v -37 -38 0
v -38 -38 0
v -38 -37 0
v -37 -37 0
v -36 -38 0
v -37 -38 0
v -37 -37 0
v -36 -37 0
v -35 -38 0
v -36 -38 0
v -36 -37 0
v -35 -37 0
v -34 -38 0
v -35 -38 0
v -35 -37 0
v -34 -37 0
v 0 -40 0
v -1 -40 0
v -1 -39 0
v 0 -39 0
v -46 -41 0
v -47 -41 0
v -47 -40 0
v -46 -40 0
v -45 -41 0
v -46 -41 0
v -46 -40 0
v -45 -40 0
v -44 -41 0
v -45 -41 0
v -45 -40 0
v -44 -40 0
v -43 -41 0
v -44 -41 0
v -44 -40 0
v -43 -40 0
v -20 -41 0
v -21 -41 0
v -21 -40 0
v -20 -40 0
v -19 -41 0
v -20 -41 0
v -20 -40 0
v -19 -40 0
v -18 -41 0
v -19 -41 0
v -19 -40 0
v -18 -40 0
v -17 -41 0
v -18 -41 0
v -18 -40 0
v -17 -40 0
v -73 -44 0
v -74 -44 0
v -74 -43 0
v -73 -43 0
v -72 -44 0
v -73 -44 0
v -73 -43 0
v -72 -43 0
v -71 -44 0
v -72 -44 0
v -72 -43 0
v -71 -43 0
v -70 -44 0
v -71 -44 0
v -71 -43 0
v -70 -43 0
v -66 -45 0
v -67 -45 0
v -67 -44 0
v -66 -44 0
v -56 -45 0
v -57 -45 0
v -57 -44 0
v -56 -44 0
v -55 -45 0
v -56 -45 0
v -56 -44 0
v -55 -44 0
v -54 -45 0
v -55 -45 0
v -55 -44 0
v -54 -44 0
v -53 -45 0
v -54 -45 0
v -54 -44 0
v -53 -44 0
v -36 -45 0
v -37 -45 0
v -37 -44 0
v -36 -44 0
v -35 -45 0
v -36 -45 0
v -36 -44 0
v -35 -44 0
v -34 -45 0
v -35 -45 0
v -35 -44 0
v -34 -44 0
v -33 -45 0
v -34 -45 0
v -34 -44 0
v -33 -44 0
v -32 -45 0
v -33 -45 0
v -33 -44 0
v -32 -44 0
v -31 -45 0
v -32 -45 0
v -32 -44 0
v -31 -44 0
v -30 -45 0
v -31 -45 0
v -31 -44 0
v -30 -44 0
v -29 -45 0
v -30 -45 0
v -30 -44 0
v -29 -44 0
v -28 -45 0
v -29 -45 0
v -29 -44 0
v -28 -44 0
v -27 -45 0
v -28 -45 0
v -28 -44 0
v -27 -44 0
v -26 -45 0
v -27 -45 0
v -27 -44 0
v -26 -44 0
v -25 -45 0
v -26 -45 0
v -26 -44 0
v -25 -44 0
v -24 -45 0
v -25 -45 0
v -25 -44 0
v -24 -44 0
v -23 -45 0
v -24 -45 0
v -24 -44 0
v -23 -44 0
v -22 -45 0
v -23 -45 0
v -23 -44 0
v -22 -44 0
v -4 -45 0
v -5 -45 0
v -5 -44 0
v -4 -44 0
v -3 -45 0
v -4 -45 0
v -4 -44 0
v -3 -44 0
v -2 -45 0
v -3 -45 0
v -3 -44 0
v -2 -44 0
v -1 -45 0
v -2 -45 0
v -2 -44 0
v -1 -44 0
v -66 -46 0
v -67 -46 0
v -67 -45 0
v -66 -45 0
v -65 -46 0
v -66 -46 0
v -66 -45 0
v -65 -45 0
v -64 -46 0
v -65 -46 0
v -65 -45 0
v -64 -45 0
v -63 -46 0
v -64 -46 0
v -64 -45 0
v -63 -45 0
v -10 -46 0
v -11 -46 0
v -11 -45 0
v -10 -45 0
v -9 -46 0
v -10 -46 0
v -10 -45 0
v -9 -45 0
v -8 -46 0
v -9 -46 0
v -9 -45 0
v -8 -45 0
v -7 -46 0
v -8 -46 0
v -8 -45 0
v -7 -45 0
v -15 -49 0
v -16 -49 0
v -16 -48 0
v -15 -48 0
v -14 -49 0
v -15 -49 0
v -15 -48 0
v -14 -48 0
v -13 -49 0
v -14 -49 0
v -14 -48 0
v -13 -48 0
v -12 -49 0
v -13 -49 0
v -13 -48 0
v -12 -48 0

# Texture cooridinates (Count = 56)
vt 0.3538282 0.1112332
vt 0.3743903 0.1112332
vt 0.3743903 0.1387668
vt 0.3538282 0.1387668
vt 0.3538282 0.08345538
vt 0.3743903 0.08345538
vt 0.3743903 0.110989
vt 0.3538282 0.110989
vt 0.3330219 0.08345538
vt 0.3535841 0.08345538
vt 0.3535841 0.110989
vt 0.3330219 0.110989
vt 0.3122157 0.08345538
vt 0.3327778 0.08345538
vt 0.3327778 0.110989
vt 0.3122157 0.110989
vt 0.2914095 0.08345538
vt 0.3119715 0.08345538
vt 0.3119715 0.110989
vt 0.2914095 0.110989
vt 0.04173455 0.0001220703
vt 0.06229666 0.0001220703
vt 0.06229666 0.02765572
vt 0.04173455 0.02765572
vt 0.02092831 0.0001220703
vt 0.04149041 0.0001220703
vt 0.04149041 0.02765572
vt 0.02092831 0.02765572
vt 0.0625408 0.0001220703
vt 0.0831029 0.0001220703
vt 0.0831029 0.02765572
vt 0.0625408 0.02765572
vt 0.0001220703 0.0001220703
vt 0.02068417 0.0001220703
vt 0.02068417 0.02765572
vt 0.0001220703 0.02765572
vt 0.2914095 0.1112332
vt 0.3119715 0.1112332
vt 0.3119715 0.1387668
vt 0.2914095 0.1387668
vt 0.04173455 0.5834554
vt 0.06229666 0.5834554
vt 0.06229666 0.610989
vt 0.04173455 0.610989
vt 0.1249595 0.0001220703
vt 0.1455216 0.0001220703
vt 0.1455216 0.02765572
vt 0.1249595 0.02765572
vt 0.1041533 0.0001220703
vt 0.1247154 0.0001220703
vt 0.1247154 0.02765572
vt 0.1041533 0.02765572
vt 0.08334704 0.0001220703
vt 0.1039091 0.0001220703
vt 0.1039091 0.02765572
vt 0.08334704 0.02765572

# Normal
vn 0 0 -1

# Mesh description
g BomboRadyo_mesh_0002

# Faces
f 1/1/1 2/2/1 3/3/1 4/4/1
f 5/5/1 6/6/1 7/7/1 8/8/1
f 9/9/1 10/10/1 11/11/1 12/12/1
f 13/13/1 14/14/1 15/15/1 16/16/1
f 17/17/1 18/18/1 19/19/1 20/20/1
f 21/5/1 22/6/1 23/7/1 24/8/1
f 25/9/1 26/10/1 27/11/1 28/12/1
f 29/13/1 30/14/1 31/15/1 32/16/1
f 33/17/1 34/18/1 35/19/1 36/20/1
f 37/5/1 38/6/1 39/7/1 40/8/1
f 41/9/1 42/10/1 43/11/1 44/12/1
f 45/13/1 46/14/1 47/15/1 48/16/1
f 49/17/1 50/18/1 51/19/1 52/20/1
f 53/21/1 54/22/1 55/23/1 56/24/1
f 57/25/1 58/26/1 59/27/1 60/28/1
f 61/1/1 62/2/1 63/3/1 64/4/1
f 65/5/1 66/6/1 67/7/1 68/8/1
f 69/9/1 70/10/1 71/11/1 72/12/1
f 73/13/1 74/14/1 75/15/1 76/16/1
f 77/17/1 78/18/1 79/19/1 80/20/1
f 81/21/1 82/22/1 83/23/1 84/24/1
f 85/25/1 86/26/1 87/27/1 88/28/1
f 89/29/1 90/30/1 91/31/1 92/32/1
f 93/21/1 94/22/1 95/23/1 96/24/1
f 97/25/1 98/26/1 99/27/1 100/28/1
f 101/33/1 102/34/1 103/35/1 104/36/1
f 105/21/1 106/22/1 107/23/1 108/24/1
f 109/25/1 110/26/1 111/27/1 112/28/1
f 113/29/1 114/30/1 115/31/1 116/32/1
f 117/21/1 118/22/1 119/23/1 120/24/1
f 121/25/1 122/26/1 123/27/1 124/28/1
f 125/33/1 126/34/1 127/35/1 128/36/1
f 129/5/1 130/6/1 131/7/1 132/8/1
f 133/9/1 134/10/1 135/11/1 136/12/1
f 137/13/1 138/14/1 139/15/1 140/16/1
f 141/17/1 142/18/1 143/19/1 144/20/1
f 145/29/1 146/30/1 147/31/1 148/32/1
f 149/21/1 150/22/1 151/23/1 152/24/1
f 153/25/1 154/26/1 155/27/1 156/28/1
f 157/33/1 158/34/1 159/35/1 160/36/1
f 161/37/1 162/38/1 163/39/1 164/40/1
f 165/29/1 166/30/1 167/31/1 168/32/1
f 169/21/1 170/22/1 171/23/1 172/24/1
f 173/25/1 174/26/1 175/27/1 176/28/1
f 177/33/1 178/34/1 179/35/1 180/36/1
f 181/29/1 182/30/1 183/31/1 184/32/1
f 185/21/1 186/22/1 187/23/1 188/24/1
f 189/25/1 190/26/1 191/27/1 192/28/1
f 193/33/1 194/34/1 195/35/1 196/36/1
f 197/5/1 198/6/1 199/7/1 200/8/1
f 201/9/1 202/10/1 203/11/1 204/12/1
f 205/13/1 206/14/1 207/15/1 208/16/1
f 209/17/1 210/18/1 211/19/1 212/20/1
f 213/41/1 214/42/1 215/43/1 216/44/1
f 217/5/1 218/6/1 219/7/1 220/8/1
f 221/9/1 222/10/1 223/11/1 224/12/1
f 225/13/1 226/14/1 227/15/1 228/16/1
f 229/17/1 230/18/1 231/19/1 232/20/1
f 233/17/1 234/18/1 235/19/1 236/20/1
f 237/41/1 238/42/1 239/43/1 240/44/1
f 241/5/1 242/6/1 243/7/1 244/8/1
f 245/9/1 246/10/1 247/11/1 248/12/1
f 249/13/1 250/14/1 251/15/1 252/16/1
f 253/17/1 254/18/1 255/19/1 256/20/1
f 257/41/1 258/42/1 259/43/1 260/44/1
f 261/45/1 262/46/1 263/47/1 264/48/1
f 265/49/1 266/50/1 267/51/1 268/52/1
f 269/49/1 270/50/1 271/51/1 272/52/1
f 273/49/1 274/50/1 275/51/1 276/52/1
f 277/49/1 278/50/1 279/51/1 280/52/1
f 281/49/1 282/50/1 283/51/1 284/52/1
f 285/49/1 286/50/1 287/51/1 288/52/1
f 289/53/1 290/54/1 291/55/1 292/56/1
f 293/41/1 294/42/1 295/43/1 296/44/1
f 297/41/1 298/42/1 299/43/1 300/44/1
f 301/29/1 302/30/1 303/31/1 304/32/1
f 305/21/1 306/22/1 307/23/1 308/24/1
f 309/25/1 310/26/1 311/27/1 312/28/1
f 313/33/1 314/34/1 315/35/1 316/36/1
f 317/5/1 318/6/1 319/7/1 320/8/1
f 321/9/1 322/10/1 323/11/1 324/12/1
f 325/13/1 326/14/1 327/15/1 328/16/1
f 329/17/1 330/18/1 331/19/1 332/20/1
f 333/21/1 334/22/1 335/23/1 336/24/1
f 337/29/1 338/30/1 339/31/1 340/32/1
f 341/21/1 342/22/1 343/23/1 344/24/1
f 345/25/1 346/26/1 347/27/1 348/28/1
f 349/33/1 350/34/1 351/35/1 352/36/1
f 353/5/1 354/6/1 355/7/1 356/8/1
f 357/9/1 358/10/1 359/11/1 360/12/1
f 361/13/1 362/14/1 363/15/1 364/16/1
f 365/17/1 366/18/1 367/19/1 368/20/1
f 369/5/1 370/6/1 371/7/1 372/8/1
f 373/9/1 374/10/1 375/11/1 376/12/1
f 377/13/1 378/14/1 379/15/1 380/16/1
f 381/17/1 382/18/1 383/19/1 384/20/1
f 385/29/1 386/30/1 387/31/1 388/32/1
f 389/21/1 390/22/1 391/23/1 392/24/1
f 393/25/1 394/26/1 395/27/1 396/28/1
f 397/33/1 398/34/1 399/35/1 400/36/1
f 401/29/1 402/30/1 403/31/1 404/32/1
f 405/21/1 406/22/1 407/23/1 408/24/1
f 409/25/1 410/26/1 411/27/1 412/28/1
f 413/33/1 414/34/1 415/35/1 416/36/1
f 417/21/1 418/22/1 419/23/1 420/24/1
f 421/21/1 422/22/1 423/23/1 424/24/1
f 425/29/1 426/30/1 427/31/1 428/32/1
f 429/21/1 430/22/1 431/23/1 432/24/1
f 433/25/1 434/26/1 435/27/1 436/28/1
f 437/33/1 438/34/1 439/35/1 440/36/1
f 441/21/1 442/22/1 443/23/1 444/24/1
f 445/29/1 446/30/1 447/31/1 448/32/1
f 449/21/1 450/22/1 451/23/1 452/24/1
f 453/25/1 454/26/1 455/27/1 456/28/1
f 457/33/1 458/34/1 459/35/1 460/36/1
f 461/29/1 462/30/1 463/31/1 464/32/1
f 465/21/1 466/22/1 467/23/1 468/24/1
f 469/25/1 470/26/1 471/27/1 472/28/1
f 473/33/1 474/34/1 475/35/1 476/36/1
f 477/29/1 478/30/1 479/31/1 480/32/1
f 481/21/1 482/22/1 483/23/1 484/24/1
f 485/25/1 486/26/1 487/27/1 488/28/1
f 489/33/1 490/34/1 491/35/1 492/36/1
f 493/1/1 494/2/1 495/3/1 496/4/1
f 497/29/1 498/30/1 499/31/1 500/32/1
f 501/21/1 502/22/1 503/23/1 504/24/1
f 505/25/1 506/26/1 507/27/1 508/28/1
f 509/33/1 510/34/1 511/35/1 512/36/1
f 513/21/1 514/22/1 515/23/1 516/24/1
f 517/25/1 518/26/1 519/27/1 520/28/1
f 521/21/1 522/22/1 523/23/1 524/24/1
f 525/25/1 526/26/1 527/27/1 528/28/1
f 529/21/1 530/22/1 531/23/1 532/24/1
f 533/25/1 534/26/1 535/27/1 536/28/1
f 537/21/1 538/22/1 539/23/1 540/24/1
f 541/25/1 542/26/1 543/27/1 544/28/1
f 545/21/1 546/22/1 547/23/1 548/24/1
f 549/25/1 550/26/1 551/27/1 552/28/1
f 553/21/1 554/22/1 555/23/1 556/24/1
f 557/25/1 558/26/1 559/27/1 560/28/1
f 561/21/1 562/22/1 563/23/1 564/24/1
f 565/25/1 566/26/1 567/27/1 568/28/1
f 569/33/1 570/34/1 571/35/1 572/36/1
f 573/29/1 574/30/1 575/31/1 576/32/1
f 577/21/1 578/22/1 579/23/1 580/24/1
f 581/25/1 582/26/1 583/27/1 584/28/1
f 585/41/1 586/42/1 587/43/1 588/44/1
f 589/5/1 590/6/1 591/7/1 592/8/1
f 593/9/1 594/10/1 595/11/1 596/12/1
f 597/13/1 598/14/1 599/15/1 600/16/1
f 601/17/1 602/18/1 603/19/1 604/20/1
f 605/5/1 606/6/1 607/7/1 608/8/1
f 609/9/1 610/10/1 611/11/1 612/12/1
f 613/13/1 614/14/1 615/15/1 616/16/1
f 617/17/1 618/18/1 619/19/1 620/20/1
f 621/5/1 622/6/1 623/7/1 624/8/1
f 625/9/1 626/10/1 627/11/1 628/12/1
f 629/13/1 630/14/1 631/15/1 632/16/1
f 633/17/1 634/18/1 635/19/1 636/20/1

