# Tiled2Unity generated file. Do not modify by hand.
# Wavefront file for 'BomboRadyo_mesh_0002.obj'

# Vertices (Count = 792)
v -32 -4 0
v -33 -4 0
v -33 -3 0
v -32 -3 0
v -70 -5 0
v -71 -5 0
v -71 -4 0
v -70 -4 0
v -69 -5 0
v -70 -5 0
v -70 -4 0
v -69 -4 0
v -68 -5 0
v -69 -5 0
v -69 -4 0
v -68 -4 0
v -67 -5 0
v -68 -5 0
v -68 -4 0
v -67 -4 0
v -32 -5 0
v -33 -5 0
v -33 -4 0
v -32 -4 0
v -31 -5 0
v -32 -5 0
v -32 -4 0
v -31 -4 0
v -30 -5 0
v -31 -5 0
v -31 -4 0
v -30 -4 0
v -29 -5 0
v -30 -5 0
v -30 -4 0
v -29 -4 0
v -21 -6 0
v -22 -6 0
v -22 -5 0
v -21 -5 0
v -20 -6 0
v -21 -6 0
v -21 -5 0
v -20 -5 0
v -19 -6 0
v -20 -6 0
v -20 -5 0
v -19 -5 0
v -18 -6 0
v -19 -6 0
v -19 -5 0
v -18 -5 0
v -41 -9 0
v -42 -9 0
v -42 -8 0
v -41 -8 0
v -41 -10 0
v -42 -10 0
v -42 -9 0
v -41 -9 0
v -40 -10 0
v -41 -10 0
v -41 -9 0
v -40 -9 0
v -39 -10 0
v -40 -10 0
v -40 -9 0
v -39 -9 0
v -38 -10 0
v -39 -10 0
v -39 -9 0
v -38 -9 0
v -10 -13 0
v -11 -13 0
v -11 -12 0
v -10 -12 0
v -9 -13 0
v -10 -13 0
v -10 -12 0
v -9 -12 0
v -8 -13 0
v -9 -13 0
v -9 -12 0
v -8 -12 0
v -7 -13 0
v -8 -13 0
v -8 -12 0
v -7 -12 0
v -64 -15 0
v -65 -15 0
v -65 -14 0
v -64 -14 0
v -63 -15 0
v -64 -15 0
v -64 -14 0
v -63 -14 0
v -62 -15 0
v -63 -15 0
v -63 -14 0
v -62 -14 0
v -61 -15 0
v -62 -15 0
v -62 -14 0
v -61 -14 0
v -55 -15 0
v -56 -15 0
v -56 -14 0
v -55 -14 0
v -54 -15 0
v -55 -15 0
v -55 -14 0
v -54 -14 0
v -53 -15 0
v -54 -15 0
v -54 -14 0
v -53 -14 0
v -52 -15 0
v -53 -15 0
v -53 -14 0
v -52 -14 0
v -1 -19 0
v -2 -19 0
v -2 -18 0
v -1 -18 0
v -1 -20 0
v -2 -20 0
v -2 -19 0
v -1 -19 0
v -1 -21 0
v -2 -21 0
v -2 -20 0
v -1 -20 0
v -33 -22 0
v -34 -22 0
v -34 -21 0
v -33 -21 0
v -32 -22 0
v -33 -22 0
v -33 -21 0
v -32 -21 0
v -31 -22 0
v -32 -22 0
v -32 -21 0
v -31 -21 0
v -30 -22 0
v -31 -22 0
v -31 -21 0
v -30 -21 0
v -5 -22 0
v -6 -22 0
v -6 -21 0
v -5 -21 0
v -1 -22 0
v -2 -22 0
v -2 -21 0
v -1 -21 0
v -43 -23 0
v -44 -23 0
v -44 -22 0
v -43 -22 0
v -42 -23 0
v -43 -23 0
v -43 -22 0
v -42 -22 0
v -41 -23 0
v -42 -23 0
v -42 -22 0
v -41 -22 0
v -40 -23 0
v -41 -23 0
v -41 -22 0
v -40 -22 0
v -19 -23 0
v -20 -23 0
v -20 -22 0
v -19 -22 0
v -18 -23 0
v -19 -23 0
v -19 -22 0
v -18 -22 0
v -17 -23 0
v -18 -23 0
v -18 -22 0
v -17 -22 0
v -16 -23 0
v -17 -23 0
v -17 -22 0
v -16 -22 0
v -8 -23 0
v -9 -23 0
v -9 -22 0
v -8 -22 0
v -7 -23 0
v -8 -23 0
v -8 -22 0
v -7 -22 0
v -6 -23 0
v -7 -23 0
v -7 -22 0
v -6 -22 0
v -5 -23 0
v -6 -23 0
v -6 -22 0
v -5 -22 0
v -1 -23 0
v -2 -23 0
v -2 -22 0
v -1 -22 0
v -74 -24 0
v -75 -24 0
v -75 -23 0
v -74 -23 0
v -71 -24 0
v -72 -24 0
v -72 -23 0
v -71 -23 0
v -70 -24 0
v -71 -24 0
v -71 -23 0
v -70 -23 0
v -69 -24 0
v -70 -24 0
v -70 -23 0
v -69 -23 0
v -68 -24 0
v -69 -24 0
v -69 -23 0
v -68 -23 0
v -3 -24 0
v -4 -24 0
v -4 -23 0
v -3 -23 0
v -2 -24 0
v -3 -24 0
v -3 -23 0
v -2 -23 0
v -1 -24 0
v -2 -24 0
v -2 -23 0
v -1 -23 0
v 0 -24 0
v -1 -24 0
v -1 -23 0
v 0 -23 0
v -74 -25 0
v -75 -25 0
v -75 -24 0
v -74 -24 0
v -24 -25 0
v -25 -25 0
v -25 -24 0
v -24 -24 0
v -23 -25 0
v -24 -25 0
v -24 -24 0
v -23 -24 0
v -22 -25 0
v -23 -25 0
v -23 -24 0
v -22 -24 0
v -21 -25 0
v -22 -25 0
v -22 -24 0
v -21 -24 0
v -1 -25 0
v -2 -25 0
v -2 -24 0
v -1 -24 0
v -74 -26 0
v -75 -26 0
v -75 -25 0
v -74 -25 0
v -62 -26 0
v -63 -26 0
v -63 -25 0
v -62 -25 0
v -61 -26 0
v -62 -26 0
v -62 -25 0
v -61 -25 0
v -60 -26 0
v -61 -26 0
v -61 -25 0
v -60 -25 0
v -59 -26 0
v -60 -26 0
v -60 -25 0
v -59 -25 0
v -58 -26 0
v -59 -26 0
v -59 -25 0
v -58 -25 0
v -57 -26 0
v -58 -26 0
v -58 -25 0
v -57 -25 0
v -56 -26 0
v -57 -26 0
v -57 -25 0
v -56 -25 0
v -55 -26 0
v -56 -26 0
v -56 -25 0
v -55 -25 0
v -1 -26 0
v -2 -26 0
v -2 -25 0
v -1 -25 0
v -74 -27 0
v -75 -27 0
v -75 -26 0
v -74 -26 0
v -1 -27 0
v -2 -27 0
v -2 -26 0
v -1 -26 0
v -74 -28 0
v -75 -28 0
v -75 -27 0
v -74 -27 0
v -1 -28 0
v -2 -28 0
v -2 -27 0
v -1 -27 0
v -6 -29 0
v -7 -29 0
v -7 -28 0
v -6 -28 0
v -5 -29 0
v -6 -29 0
v -6 -28 0
v -5 -28 0
v -4 -29 0
v -5 -29 0
v -5 -28 0
v -4 -28 0
v -3 -29 0
v -4 -29 0
v -4 -28 0
v -3 -28 0
v -1 -29 0
v -2 -29 0
v -2 -28 0
v -1 -28 0
v -18 -30 0
v -19 -30 0
v -19 -29 0
v -18 -29 0
v -17 -30 0
v -18 -30 0
v -18 -29 0
v -17 -29 0
v -16 -30 0
v -17 -30 0
v -17 -29 0
v -16 -29 0
v -15 -30 0
v -16 -30 0
v -16 -29 0
v -15 -29 0
v -40 -31 0
v -41 -31 0
v -41 -30 0
v -40 -30 0
v -39 -31 0
v -40 -31 0
v -40 -30 0
v -39 -30 0
v -38 -31 0
v -39 -31 0
v -39 -30 0
v -38 -30 0
v -37 -31 0
v -38 -31 0
v -38 -30 0
v -37 -30 0
v -1 -31 0
v -2 -31 0
v -2 -30 0
v -1 -30 0
v -29 -32 0
v -30 -32 0
v -30 -31 0
v -29 -31 0
v -28 -32 0
v -29 -32 0
v -29 -31 0
v -28 -31 0
v -27 -32 0
v -28 -32 0
v -28 -31 0
v -27 -31 0
v -26 -32 0
v -27 -32 0
v -27 -31 0
v -26 -31 0
v -14 -32 0
v -15 -32 0
v -15 -31 0
v -14 -31 0
v -13 -32 0
v -14 -32 0
v -14 -31 0
v -13 -31 0
v -12 -32 0
v -13 -32 0
v -13 -31 0
v -12 -31 0
v -11 -32 0
v -12 -32 0
v -12 -31 0
v -11 -31 0
v -1 -32 0
v -2 -32 0
v -2 -31 0
v -1 -31 0
v -22 -33 0
v -23 -33 0
v -23 -32 0
v -22 -32 0
v -21 -33 0
v -22 -33 0
v -22 -32 0
v -21 -32 0
v -20 -33 0
v -21 -33 0
v -21 -32 0
v -20 -32 0
v -19 -33 0
v -20 -33 0
v -20 -32 0
v -19 -32 0
v -1 -33 0
v -2 -33 0
v -2 -32 0
v -1 -32 0
v -58 -34 0
v -59 -34 0
v -59 -33 0
v -58 -33 0
v -57 -34 0
v -58 -34 0
v -58 -33 0
v -57 -33 0
v -56 -34 0
v -57 -34 0
v -57 -33 0
v -56 -33 0
v -55 -34 0
v -56 -34 0
v -56 -33 0
v -55 -33 0
v -1 -34 0
v -2 -34 0
v -2 -33 0
v -1 -33 0
v -2 -37 0
v -3 -37 0
v -3 -36 0
v -2 -36 0
v -37 -38 0
v -38 -38 0
v -38 -37 0
v -37 -37 0
v -36 -38 0
v -37 -38 0
v -37 -37 0
v -36 -37 0
v -35 -38 0
v -36 -38 0
v -36 -37 0
v -35 -37 0
v -34 -38 0
v -35 -38 0
v -35 -37 0
v -34 -37 0
v -2 -38 0
v -3 -38 0
v -3 -37 0
v -2 -37 0
v -2 -39 0
v -3 -39 0
v -3 -38 0
v -2 -38 0
v -1 -40 0
v -2 -40 0
v -2 -39 0
v -1 -39 0
v -46 -41 0
v -47 -41 0
v -47 -40 0
v -46 -40 0
v -45 -41 0
v -46 -41 0
v -46 -40 0
v -45 -40 0
v -44 -41 0
v -45 -41 0
v -45 -40 0
v -44 -40 0
v -43 -41 0
v -44 -41 0
v -44 -40 0
v -43 -40 0
v -20 -41 0
v -21 -41 0
v -21 -40 0
v -20 -40 0
v -19 -41 0
v -20 -41 0
v -20 -40 0
v -19 -40 0
v -18 -41 0
v -19 -41 0
v -19 -40 0
v -18 -40 0
v -17 -41 0
v -18 -41 0
v -18 -40 0
v -17 -40 0
v -1 -41 0
v -2 -41 0
v -2 -40 0
v -1 -40 0
v -73 -44 0
v -74 -44 0
v -74 -43 0
v -73 -43 0
v -72 -44 0
v -73 -44 0
v -73 -43 0
v -72 -43 0
v -71 -44 0
v -72 -44 0
v -72 -43 0
v -71 -43 0
v -70 -44 0
v -71 -44 0
v -71 -43 0
v -70 -43 0
v -66 -45 0
v -67 -45 0
v -67 -44 0
v -66 -44 0
v -56 -45 0
v -57 -45 0
v -57 -44 0
v -56 -44 0
v -55 -45 0
v -56 -45 0
v -56 -44 0
v -55 -44 0
v -54 -45 0
v -55 -45 0
v -55 -44 0
v -54 -44 0
v -53 -45 0
v -54 -45 0
v -54 -44 0
v -53 -44 0
v -36 -45 0
v -37 -45 0
v -37 -44 0
v -36 -44 0
v -35 -45 0
v -36 -45 0
v -36 -44 0
v -35 -44 0
v -34 -45 0
v -35 -45 0
v -35 -44 0
v -34 -44 0
v -33 -45 0
v -34 -45 0
v -34 -44 0
v -33 -44 0
v -32 -45 0
v -33 -45 0
v -33 -44 0
v -32 -44 0
v -31 -45 0
v -32 -45 0
v -32 -44 0
v -31 -44 0
v -30 -45 0
v -31 -45 0
v -31 -44 0
v -30 -44 0
v -29 -45 0
v -30 -45 0
v -30 -44 0
v -29 -44 0
v -28 -45 0
v -29 -45 0
v -29 -44 0
v -28 -44 0
v -27 -45 0
v -28 -45 0
v -28 -44 0
v -27 -44 0
v -26 -45 0
v -27 -45 0
v -27 -44 0
v -26 -44 0
v -25 -45 0
v -26 -45 0
v -26 -44 0
v -25 -44 0
v -24 -45 0
v -25 -45 0
v -25 -44 0
v -24 -44 0
v -23 -45 0
v -24 -45 0
v -24 -44 0
v -23 -44 0
v -22 -45 0
v -23 -45 0
v -23 -44 0
v -22 -44 0
v -4 -45 0
v -5 -45 0
v -5 -44 0
v -4 -44 0
v -3 -45 0
v -4 -45 0
v -4 -44 0
v -3 -44 0
v -2 -45 0
v -3 -45 0
v -3 -44 0
v -2 -44 0
v -1 -45 0
v -2 -45 0
v -2 -44 0
v -1 -44 0
v -66 -46 0
v -67 -46 0
v -67 -45 0
v -66 -45 0
v -65 -46 0
v -66 -46 0
v -66 -45 0
v -65 -45 0
v -64 -46 0
v -65 -46 0
v -65 -45 0
v -64 -45 0
v -63 -46 0
v -64 -46 0
v -64 -45 0
v -63 -45 0
v -10 -46 0
v -11 -46 0
v -11 -45 0
v -10 -45 0
v -9 -46 0
v -10 -46 0
v -10 -45 0
v -9 -45 0
v -8 -46 0
v -9 -46 0
v -9 -45 0
v -8 -45 0
v -7 -46 0
v -8 -46 0
v -8 -45 0
v -7 -45 0
v -47 -49 0
v -48 -49 0
v -48 -48 0
v -47 -48 0
v -46 -49 0
v -47 -49 0
v -47 -48 0
v -46 -48 0
v -15 -49 0
v -16 -49 0
v -16 -48 0
v -15 -48 0
v -14 -49 0
v -15 -49 0
v -15 -48 0
v -14 -48 0
v -13 -49 0
v -14 -49 0
v -14 -48 0
v -13 -48 0
v -12 -49 0
v -13 -49 0
v -13 -48 0
v -12 -48 0
v -65 -50 0
v -66 -50 0
v -66 -49 0
v -65 -49 0
v -64 -50 0
v -65 -50 0
v -65 -49 0
v -64 -49 0
v -63 -50 0
v -64 -50 0
v -64 -49 0
v -63 -49 0
v -62 -50 0
v -63 -50 0
v -63 -49 0
v -62 -49 0
v -61 -50 0
v -62 -50 0
v -62 -49 0
v -61 -49 0
v -60 -50 0
v -61 -50 0
v -61 -49 0
v -60 -49 0
v -59 -50 0
v -60 -50 0
v -60 -49 0
v -59 -49 0
v -58 -50 0
v -59 -50 0
v -59 -49 0
v -58 -49 0
v -57 -50 0
v -58 -50 0
v -58 -49 0
v -57 -49 0
v -56 -50 0
v -57 -50 0
v -57 -49 0
v -56 -49 0
v -55 -50 0
v -56 -50 0
v -56 -49 0
v -55 -49 0
v -54 -50 0
v -55 -50 0
v -55 -49 0
v -54 -49 0
v -53 -50 0
v -54 -50 0
v -54 -49 0
v -53 -49 0
v -52 -50 0
v -53 -50 0
v -53 -49 0
v -52 -49 0
v -49 -50 0
v -50 -50 0
v -50 -49 0
v -49 -49 0
v -48 -50 0
v -49 -50 0
v -49 -49 0
v -48 -49 0
v -47 -50 0
v -48 -50 0
v -48 -49 0
v -47 -49 0
v -46 -50 0
v -47 -50 0
v -47 -49 0
v -46 -49 0
v -41 -50 0
v -42 -50 0
v -42 -49 0
v -41 -49 0
v -40 -50 0
v -41 -50 0
v -41 -49 0
v -40 -49 0
v -39 -50 0
v -40 -50 0
v -40 -49 0
v -39 -49 0
v -38 -50 0
v -39 -50 0
v -39 -49 0
v -38 -49 0
v -37 -50 0
v -38 -50 0
v -38 -49 0
v -37 -49 0
v -5 -50 0
v -6 -50 0
v -6 -49 0
v -5 -49 0
v -3 -50 0
v -4 -50 0
v -4 -49 0
v -3 -49 0

# Texture cooridinates (Count = 56)
vt 0.3538282 0.1112332
vt 0.3743903 0.1112332
vt 0.3743903 0.1387668
vt 0.3538282 0.1387668
vt 0.3538282 0.08345538
vt 0.3743903 0.08345538
vt 0.3743903 0.110989
vt 0.3538282 0.110989
vt 0.3330219 0.08345538
vt 0.3535841 0.08345538
vt 0.3535841 0.110989
vt 0.3330219 0.110989
vt 0.3122157 0.08345538
vt 0.3327778 0.08345538
vt 0.3327778 0.110989
vt 0.3122157 0.110989
vt 0.2914095 0.08345538
vt 0.3119715 0.08345538
vt 0.3119715 0.110989
vt 0.2914095 0.110989
vt 0.0625408 0.0001220703
vt 0.0831029 0.0001220703
vt 0.0831029 0.02765572
vt 0.0625408 0.02765572
vt 0.04173455 0.0001220703
vt 0.06229666 0.0001220703
vt 0.06229666 0.02765572
vt 0.04173455 0.02765572
vt 0.02092831 0.0001220703
vt 0.04149041 0.0001220703
vt 0.04149041 0.02765572
vt 0.02092831 0.02765572
vt 0.0001220703 0.0001220703
vt 0.02068417 0.0001220703
vt 0.02068417 0.02765572
vt 0.0001220703 0.02765572
vt 0.04173455 0.5834554
vt 0.06229666 0.5834554
vt 0.06229666 0.610989
vt 0.04173455 0.610989
vt 0.2914095 0.1112332
vt 0.3119715 0.1112332
vt 0.3119715 0.1387668
vt 0.2914095 0.1387668
vt 0.1249595 0.0001220703
vt 0.1455216 0.0001220703
vt 0.1455216 0.02765572
vt 0.1249595 0.02765572
vt 0.1041533 0.0001220703
vt 0.1247154 0.0001220703
vt 0.1247154 0.02765572
vt 0.1041533 0.02765572
vt 0.08334704 0.0001220703
vt 0.1039091 0.0001220703
vt 0.1039091 0.02765572
vt 0.08334704 0.02765572

# Normal
vn 0 0 -1

# Mesh description
g BomboRadyo_mesh_0002

# Faces
f 1/1/1 2/2/1 3/3/1 4/4/1
f 5/5/1 6/6/1 7/7/1 8/8/1
f 9/9/1 10/10/1 11/11/1 12/12/1
f 13/13/1 14/14/1 15/15/1 16/16/1
f 17/17/1 18/18/1 19/19/1 20/20/1
f 21/5/1 22/6/1 23/7/1 24/8/1
f 25/9/1 26/10/1 27/11/1 28/12/1
f 29/13/1 30/14/1 31/15/1 32/16/1
f 33/17/1 34/18/1 35/19/1 36/20/1
f 37/5/1 38/6/1 39/7/1 40/8/1
f 41/9/1 42/10/1 43/11/1 44/12/1
f 45/13/1 46/14/1 47/15/1 48/16/1
f 49/17/1 50/18/1 51/19/1 52/20/1
f 53/1/1 54/2/1 55/3/1 56/4/1
f 57/5/1 58/6/1 59/7/1 60/8/1
f 61/9/1 62/10/1 63/11/1 64/12/1
f 65/13/1 66/14/1 67/15/1 68/16/1
f 69/17/1 70/18/1 71/19/1 72/20/1
f 73/21/1 74/22/1 75/23/1 76/24/1
f 77/25/1 78/26/1 79/27/1 80/28/1
f 81/29/1 82/30/1 83/31/1 84/32/1
f 85/33/1 86/34/1 87/35/1 88/36/1
f 89/21/1 90/22/1 91/23/1 92/24/1
f 93/25/1 94/26/1 95/27/1 96/28/1
f 97/29/1 98/30/1 99/31/1 100/32/1
f 101/33/1 102/34/1 103/35/1 104/36/1
f 105/5/1 106/6/1 107/7/1 108/8/1
f 109/9/1 110/10/1 111/11/1 112/12/1
f 113/13/1 114/14/1 115/15/1 116/16/1
f 117/17/1 118/18/1 119/19/1 120/20/1
f 121/37/1 122/38/1 123/39/1 124/40/1
f 125/37/1 126/38/1 127/39/1 128/40/1
f 129/37/1 130/38/1 131/39/1 132/40/1
f 133/21/1 134/22/1 135/23/1 136/24/1
f 137/25/1 138/26/1 139/27/1 140/28/1
f 141/29/1 142/30/1 143/31/1 144/32/1
f 145/33/1 146/34/1 147/35/1 148/36/1
f 149/41/1 150/42/1 151/43/1 152/44/1
f 153/37/1 154/38/1 155/39/1 156/40/1
f 157/21/1 158/22/1 159/23/1 160/24/1
f 161/25/1 162/26/1 163/27/1 164/28/1
f 165/29/1 166/30/1 167/31/1 168/32/1
f 169/33/1 170/34/1 171/35/1 172/36/1
f 173/21/1 174/22/1 175/23/1 176/24/1
f 177/25/1 178/26/1 179/27/1 180/28/1
f 181/29/1 182/30/1 183/31/1 184/32/1
f 185/33/1 186/34/1 187/35/1 188/36/1
f 189/5/1 190/6/1 191/7/1 192/8/1
f 193/9/1 194/10/1 195/11/1 196/12/1
f 197/13/1 198/14/1 199/15/1 200/16/1
f 201/17/1 202/18/1 203/19/1 204/20/1
f 205/37/1 206/38/1 207/39/1 208/40/1
f 209/37/1 210/38/1 211/39/1 212/40/1
f 213/5/1 214/6/1 215/7/1 216/8/1
f 217/9/1 218/10/1 219/11/1 220/12/1
f 221/13/1 222/14/1 223/15/1 224/16/1
f 225/17/1 226/18/1 227/19/1 228/20/1
f 229/5/1 230/6/1 231/7/1 232/8/1
f 233/9/1 234/10/1 235/11/1 236/12/1
f 237/37/1 238/38/1 239/39/1 240/40/1
f 241/17/1 242/18/1 243/19/1 244/20/1
f 245/37/1 246/38/1 247/39/1 248/40/1
f 249/5/1 250/6/1 251/7/1 252/8/1
f 253/9/1 254/10/1 255/11/1 256/12/1
f 257/13/1 258/14/1 259/15/1 260/16/1
f 261/17/1 262/18/1 263/19/1 264/20/1
f 265/37/1 266/38/1 267/39/1 268/40/1
f 269/37/1 270/38/1 271/39/1 272/40/1
f 273/45/1 274/46/1 275/47/1 276/48/1
f 277/49/1 278/50/1 279/51/1 280/52/1
f 281/49/1 282/50/1 283/51/1 284/52/1
f 285/49/1 286/50/1 287/51/1 288/52/1
f 289/49/1 290/50/1 291/51/1 292/52/1
f 293/49/1 294/50/1 295/51/1 296/52/1
f 297/49/1 298/50/1 299/51/1 300/52/1
f 301/53/1 302/54/1 303/55/1 304/56/1
f 305/37/1 306/38/1 307/39/1 308/40/1
f 309/37/1 310/38/1 311/39/1 312/40/1
f 313/37/1 314/38/1 315/39/1 316/40/1
f 317/37/1 318/38/1 319/39/1 320/40/1
f 321/37/1 322/38/1 323/39/1 324/40/1
f 325/21/1 326/22/1 327/23/1 328/24/1
f 329/25/1 330/26/1 331/27/1 332/28/1
f 333/29/1 334/30/1 335/31/1 336/32/1
f 337/33/1 338/34/1 339/35/1 340/36/1
f 341/37/1 342/38/1 343/39/1 344/40/1
f 345/5/1 346/6/1 347/7/1 348/8/1
f 349/9/1 350/10/1 351/11/1 352/12/1
f 353/13/1 354/14/1 355/15/1 356/16/1
f 357/17/1 358/18/1 359/19/1 360/20/1
f 361/21/1 362/22/1 363/23/1 364/24/1
f 365/25/1 366/26/1 367/27/1 368/28/1
f 369/29/1 370/30/1 371/31/1 372/32/1
f 373/33/1 374/34/1 375/35/1 376/36/1
f 377/37/1 378/38/1 379/39/1 380/40/1
f 381/5/1 382/6/1 383/7/1 384/8/1
f 385/9/1 386/10/1 387/11/1 388/12/1
f 389/13/1 390/14/1 391/15/1 392/16/1
f 393/17/1 394/18/1 395/19/1 396/20/1
f 397/5/1 398/6/1 399/7/1 400/8/1
f 401/9/1 402/10/1 403/11/1 404/12/1
f 405/13/1 406/14/1 407/15/1 408/16/1
f 409/17/1 410/18/1 411/19/1 412/20/1
f 413/37/1 414/38/1 415/39/1 416/40/1
f 417/21/1 418/22/1 419/23/1 420/24/1
f 421/25/1 422/26/1 423/27/1 424/28/1
f 425/29/1 426/30/1 427/31/1 428/32/1
f 429/33/1 430/34/1 431/35/1 432/36/1
f 433/37/1 434/38/1 435/39/1 436/40/1
f 437/21/1 438/22/1 439/23/1 440/24/1
f 441/25/1 442/26/1 443/27/1 444/28/1
f 445/29/1 446/30/1 447/31/1 448/32/1
f 449/33/1 450/34/1 451/35/1 452/36/1
f 453/37/1 454/38/1 455/39/1 456/40/1
f 457/37/1 458/38/1 459/39/1 460/40/1
f 461/21/1 462/22/1 463/23/1 464/24/1
f 465/25/1 466/26/1 467/27/1 468/28/1
f 469/29/1 470/30/1 471/31/1 472/32/1
f 473/33/1 474/34/1 475/35/1 476/36/1
f 477/37/1 478/38/1 479/39/1 480/40/1
f 481/37/1 482/38/1 483/39/1 484/40/1
f 485/37/1 486/38/1 487/39/1 488/40/1
f 489/21/1 490/22/1 491/23/1 492/24/1
f 493/25/1 494/26/1 495/27/1 496/28/1
f 497/29/1 498/30/1 499/31/1 500/32/1
f 501/33/1 502/34/1 503/35/1 504/36/1
f 505/21/1 506/22/1 507/23/1 508/24/1
f 509/25/1 510/26/1 511/27/1 512/28/1
f 513/29/1 514/30/1 515/31/1 516/32/1
f 517/33/1 518/34/1 519/35/1 520/36/1
f 521/37/1 522/38/1 523/39/1 524/40/1
f 525/21/1 526/22/1 527/23/1 528/24/1
f 529/25/1 530/26/1 531/27/1 532/28/1
f 533/29/1 534/30/1 535/31/1 536/32/1
f 537/33/1 538/34/1 539/35/1 540/36/1
f 541/1/1 542/2/1 543/3/1 544/4/1
f 545/21/1 546/22/1 547/23/1 548/24/1
f 549/25/1 550/26/1 551/27/1 552/28/1
f 553/29/1 554/30/1 555/31/1 556/32/1
f 557/33/1 558/34/1 559/35/1 560/36/1
f 561/25/1 562/26/1 563/27/1 564/28/1
f 565/29/1 566/30/1 567/31/1 568/32/1
f 569/25/1 570/26/1 571/27/1 572/28/1
f 573/29/1 574/30/1 575/31/1 576/32/1
f 577/25/1 578/26/1 579/27/1 580/28/1
f 581/29/1 582/30/1 583/31/1 584/32/1
f 585/25/1 586/26/1 587/27/1 588/28/1
f 589/29/1 590/30/1 591/31/1 592/32/1
f 593/25/1 594/26/1 595/27/1 596/28/1
f 597/29/1 598/30/1 599/31/1 600/32/1
f 601/25/1 602/26/1 603/27/1 604/28/1
f 605/29/1 606/30/1 607/31/1 608/32/1
f 609/25/1 610/26/1 611/27/1 612/28/1
f 613/29/1 614/30/1 615/31/1 616/32/1
f 617/33/1 618/34/1 619/35/1 620/36/1
f 621/21/1 622/22/1 623/23/1 624/24/1
f 625/25/1 626/26/1 627/27/1 628/28/1
f 629/29/1 630/30/1 631/31/1 632/32/1
f 633/37/1 634/38/1 635/39/1 636/40/1
f 637/5/1 638/6/1 639/7/1 640/8/1
f 641/9/1 642/10/1 643/11/1 644/12/1
f 645/13/1 646/14/1 647/15/1 648/16/1
f 649/17/1 650/18/1 651/19/1 652/20/1
f 653/5/1 654/6/1 655/7/1 656/8/1
f 657/9/1 658/10/1 659/11/1 660/12/1
f 661/13/1 662/14/1 663/15/1 664/16/1
f 665/17/1 666/18/1 667/19/1 668/20/1
f 669/37/1 670/38/1 671/39/1 672/40/1
f 673/37/1 674/38/1 675/39/1 676/40/1
f 677/5/1 678/6/1 679/7/1 680/8/1
f 681/9/1 682/10/1 683/11/1 684/12/1
f 685/13/1 686/14/1 687/15/1 688/16/1
f 689/17/1 690/18/1 691/19/1 692/20/1
f 693/37/1 694/38/1 695/39/1 696/40/1
f 697/37/1 698/38/1 699/39/1 700/40/1
f 701/37/1 702/38/1 703/39/1 704/40/1
f 705/37/1 706/38/1 707/39/1 708/40/1
f 709/37/1 710/38/1 711/39/1 712/40/1
f 713/37/1 714/38/1 715/39/1 716/40/1
f 717/37/1 718/38/1 719/39/1 720/40/1
f 721/37/1 722/38/1 723/39/1 724/40/1
f 725/37/1 726/38/1 727/39/1 728/40/1
f 729/37/1 730/38/1 731/39/1 732/40/1
f 733/37/1 734/38/1 735/39/1 736/40/1
f 737/37/1 738/38/1 739/39/1 740/40/1
f 741/37/1 742/38/1 743/39/1 744/40/1
f 745/37/1 746/38/1 747/39/1 748/40/1
f 749/37/1 750/38/1 751/39/1 752/40/1
f 753/37/1 754/38/1 755/39/1 756/40/1
f 757/37/1 758/38/1 759/39/1 760/40/1
f 761/37/1 762/38/1 763/39/1 764/40/1
f 765/37/1 766/38/1 767/39/1 768/40/1
f 769/37/1 770/38/1 771/39/1 772/40/1
f 773/37/1 774/38/1 775/39/1 776/40/1
f 777/37/1 778/38/1 779/39/1 780/40/1
f 781/37/1 782/38/1 783/39/1 784/40/1
f 785/37/1 786/38/1 787/39/1 788/40/1
f 789/37/1 790/38/1 791/39/1 792/40/1

