# Tiled2Unity generated file. Do not modify by hand.
# Wavefront file for 'LeftMontilla4_mesh_0003.obj'

# Vertices (Count = 504)
v -44 -1 0
v -45 -1 0
v -45 0 0
v -44 0 0
v -43 -1 0
v -44 -1 0
v -44 0 0
v -43 0 0
v -28 -1 0
v -29 -1 0
v -29 0 0
v -28 0 0
v -27 -1 0
v -28 -1 0
v -28 0 0
v -27 0 0
v -44 -2 0
v -45 -2 0
v -45 -1 0
v -44 -1 0
v -43 -2 0
v -44 -2 0
v -44 -1 0
v -43 -1 0
v -28 -2 0
v -29 -2 0
v -29 -1 0
v -28 -1 0
v -27 -2 0
v -28 -2 0
v -28 -1 0
v -27 -1 0
v -25 -2 0
v -26 -2 0
v -26 -1 0
v -25 -1 0
v -24 -2 0
v -25 -2 0
v -25 -1 0
v -24 -1 0
v -28 -3 0
v -29 -3 0
v -29 -2 0
v -28 -2 0
v -27 -3 0
v -28 -3 0
v -28 -2 0
v -27 -2 0
v -25 -3 0
v -26 -3 0
v -26 -2 0
v -25 -2 0
v -24 -3 0
v -25 -3 0
v -25 -2 0
v -24 -2 0
v -40 -4 0
v -41 -4 0
v -41 -3 0
v -40 -3 0
v -39 -4 0
v -40 -4 0
v -40 -3 0
v -39 -3 0
v -38 -4 0
v -39 -4 0
v -39 -3 0
v -38 -3 0
v -28 -4 0
v -29 -4 0
v -29 -3 0
v -28 -3 0
v -27 -4 0
v -28 -4 0
v -28 -3 0
v -27 -3 0
v -26 -4 0
v -27 -4 0
v -27 -3 0
v -26 -3 0
v -25 -4 0
v -26 -4 0
v -26 -3 0
v -25 -3 0
v -42 -5 0
v -43 -5 0
v -43 -4 0
v -42 -4 0
v -41 -5 0
v -42 -5 0
v -42 -4 0
v -41 -4 0
v -40 -5 0
v -41 -5 0
v -41 -4 0
v -40 -4 0
v -26 -5 0
v -27 -5 0
v -27 -4 0
v -26 -4 0
v -25 -5 0
v -26 -5 0
v -26 -4 0
v -25 -4 0
v -47 -9 0
v -48 -9 0
v -48 -8 0
v -47 -8 0
v -46 -9 0
v -47 -9 0
v -47 -8 0
v -46 -8 0
v -45 -9 0
v -46 -9 0
v -46 -8 0
v -45 -8 0
v -44 -9 0
v -45 -9 0
v -45 -8 0
v -44 -8 0
v -47 -10 0
v -48 -10 0
v -48 -9 0
v -47 -9 0
v -46 -10 0
v -47 -10 0
v -47 -9 0
v -46 -9 0
v -45 -10 0
v -46 -10 0
v -46 -9 0
v -45 -9 0
v -44 -10 0
v -45 -10 0
v -45 -9 0
v -44 -9 0
v -27 -10 0
v -28 -10 0
v -28 -9 0
v -27 -9 0
v -26 -10 0
v -27 -10 0
v -27 -9 0
v -26 -9 0
v -25 -10 0
v -26 -10 0
v -26 -9 0
v -25 -9 0
v -24 -10 0
v -25 -10 0
v -25 -9 0
v -24 -9 0
v -5 -10 0
v -6 -10 0
v -6 -9 0
v -5 -9 0
v -4 -10 0
v -5 -10 0
v -5 -9 0
v -4 -9 0
v -47 -11 0
v -48 -11 0
v -48 -10 0
v -47 -10 0
v -46 -11 0
v -47 -11 0
v -47 -10 0
v -46 -10 0
v -45 -11 0
v -46 -11 0
v -46 -10 0
v -45 -10 0
v -44 -11 0
v -45 -11 0
v -45 -10 0
v -44 -10 0
v -27 -11 0
v -28 -11 0
v -28 -10 0
v -27 -10 0
v -26 -11 0
v -27 -11 0
v -27 -10 0
v -26 -10 0
v -25 -11 0
v -26 -11 0
v -26 -10 0
v -25 -10 0
v -24 -11 0
v -25 -11 0
v -25 -10 0
v -24 -10 0
v -5 -11 0
v -6 -11 0
v -6 -10 0
v -5 -10 0
v -4 -11 0
v -5 -11 0
v -5 -10 0
v -4 -10 0
v -47 -12 0
v -48 -12 0
v -48 -11 0
v -47 -11 0
v -46 -12 0
v -47 -12 0
v -47 -11 0
v -46 -11 0
v -45 -12 0
v -46 -12 0
v -46 -11 0
v -45 -11 0
v -44 -12 0
v -45 -12 0
v -45 -11 0
v -44 -11 0
v -27 -12 0
v -28 -12 0
v -28 -11 0
v -27 -11 0
v -26 -12 0
v -27 -12 0
v -27 -11 0
v -26 -11 0
v -25 -12 0
v -26 -12 0
v -26 -11 0
v -25 -11 0
v -24 -12 0
v -25 -12 0
v -25 -11 0
v -24 -11 0
v -27 -13 0
v -28 -13 0
v -28 -12 0
v -27 -12 0
v -26 -13 0
v -27 -13 0
v -27 -12 0
v -26 -12 0
v -25 -13 0
v -26 -13 0
v -26 -12 0
v -25 -12 0
v -24 -13 0
v -25 -13 0
v -25 -12 0
v -24 -12 0
v -8 -13 0
v -9 -13 0
v -9 -12 0
v -8 -12 0
v -7 -13 0
v -8 -13 0
v -8 -12 0
v -7 -12 0
v -8 -14 0
v -9 -14 0
v -9 -13 0
v -8 -13 0
v -7 -14 0
v -8 -14 0
v -8 -13 0
v -7 -13 0
v -26 -18 0
v -27 -18 0
v -27 -17 0
v -26 -17 0
v -25 -18 0
v -26 -18 0
v -26 -17 0
v -25 -17 0
v -24 -18 0
v -25 -18 0
v -25 -17 0
v -24 -17 0
v -23 -18 0
v -24 -18 0
v -24 -17 0
v -23 -17 0
v -8 -18 0
v -9 -18 0
v -9 -17 0
v -8 -17 0
v -7 -18 0
v -8 -18 0
v -8 -17 0
v -7 -17 0
v -6 -18 0
v -7 -18 0
v -7 -17 0
v -6 -17 0
v -5 -18 0
v -6 -18 0
v -6 -17 0
v -5 -17 0
v -26 -19 0
v -27 -19 0
v -27 -18 0
v -26 -18 0
v -25 -19 0
v -26 -19 0
v -26 -18 0
v -25 -18 0
v -24 -19 0
v -25 -19 0
v -25 -18 0
v -24 -18 0
v -23 -19 0
v -24 -19 0
v -24 -18 0
v -23 -18 0
v -20 -19 0
v -21 -19 0
v -21 -18 0
v -20 -18 0
v -19 -19 0
v -20 -19 0
v -20 -18 0
v -19 -18 0
v -8 -19 0
v -9 -19 0
v -9 -18 0
v -8 -18 0
v -7 -19 0
v -8 -19 0
v -8 -18 0
v -7 -18 0
v -6 -19 0
v -7 -19 0
v -7 -18 0
v -6 -18 0
v -5 -19 0
v -6 -19 0
v -6 -18 0
v -5 -18 0
v -26 -20 0
v -27 -20 0
v -27 -19 0
v -26 -19 0
v -25 -20 0
v -26 -20 0
v -26 -19 0
v -25 -19 0
v -24 -20 0
v -25 -20 0
v -25 -19 0
v -24 -19 0
v -23 -20 0
v -24 -20 0
v -24 -19 0
v -23 -19 0
v -20 -20 0
v -21 -20 0
v -21 -19 0
v -20 -19 0
v -19 -20 0
v -20 -20 0
v -20 -19 0
v -19 -19 0
v -8 -20 0
v -9 -20 0
v -9 -19 0
v -8 -19 0
v -7 -20 0
v -8 -20 0
v -8 -19 0
v -7 -19 0
v -6 -20 0
v -7 -20 0
v -7 -19 0
v -6 -19 0
v -5 -20 0
v -6 -20 0
v -6 -19 0
v -5 -19 0
v -26 -21 0
v -27 -21 0
v -27 -20 0
v -26 -20 0
v -25 -21 0
v -26 -21 0
v -26 -20 0
v -25 -20 0
v -24 -21 0
v -25 -21 0
v -25 -20 0
v -24 -20 0
v -23 -21 0
v -24 -21 0
v -24 -20 0
v -23 -20 0
v -8 -21 0
v -9 -21 0
v -9 -20 0
v -8 -20 0
v -7 -21 0
v -8 -21 0
v -8 -20 0
v -7 -20 0
v -6 -21 0
v -7 -21 0
v -7 -20 0
v -6 -20 0
v -5 -21 0
v -6 -21 0
v -6 -20 0
v -5 -20 0
v -43 -22 0
v -44 -22 0
v -44 -21 0
v -43 -21 0
v -42 -22 0
v -43 -22 0
v -43 -21 0
v -42 -21 0
v -41 -22 0
v -42 -22 0
v -42 -21 0
v -41 -21 0
v -40 -22 0
v -41 -22 0
v -41 -21 0
v -40 -21 0
v -43 -23 0
v -44 -23 0
v -44 -22 0
v -43 -22 0
v -42 -23 0
v -43 -23 0
v -43 -22 0
v -42 -22 0
v -41 -23 0
v -42 -23 0
v -42 -22 0
v -41 -22 0
v -40 -23 0
v -41 -23 0
v -41 -22 0
v -40 -22 0
v -43 -24 0
v -44 -24 0
v -44 -23 0
v -43 -23 0
v -42 -24 0
v -43 -24 0
v -43 -23 0
v -42 -23 0
v -41 -24 0
v -42 -24 0
v -42 -23 0
v -41 -23 0
v -40 -24 0
v -41 -24 0
v -41 -23 0
v -40 -23 0
v -39 -24 0
v -40 -24 0
v -40 -23 0
v -39 -23 0
v -38 -24 0
v -39 -24 0
v -39 -23 0
v -38 -23 0
v -18 -24 0
v -19 -24 0
v -19 -23 0
v -18 -23 0
v -17 -24 0
v -18 -24 0
v -18 -23 0
v -17 -23 0
v -43 -25 0
v -44 -25 0
v -44 -24 0
v -43 -24 0
v -42 -25 0
v -43 -25 0
v -43 -24 0
v -42 -24 0
v -41 -25 0
v -42 -25 0
v -42 -24 0
v -41 -24 0
v -40 -25 0
v -41 -25 0
v -41 -24 0
v -40 -24 0
v -39 -25 0
v -40 -25 0
v -40 -24 0
v -39 -24 0
v -38 -25 0
v -39 -25 0
v -39 -24 0
v -38 -24 0
v -18 -25 0
v -19 -25 0
v -19 -24 0
v -18 -24 0
v -17 -25 0
v -18 -25 0
v -18 -24 0
v -17 -24 0

# Texture cooridinates (Count = 236)
vt 0.1249595 0.5278999
vt 0.1455216 0.5278999
vt 0.1455216 0.5554335
vt 0.1249595 0.5554335
vt 0.1041533 0.5278999
vt 0.1247154 0.5278999
vt 0.1247154 0.5554335
vt 0.1041533 0.5554335
vt 0.1249595 0.5001221
vt 0.1455216 0.5001221
vt 0.1455216 0.5276557
vt 0.1249595 0.5276557
vt 0.1041533 0.5001221
vt 0.1247154 0.5001221
vt 0.1247154 0.5276557
vt 0.1041533 0.5276557
vt 0.1041533 0.8334554
vt 0.1247154 0.8334554
vt 0.1247154 0.860989
vt 0.1041533 0.860989
vt 0.08334704 0.8334554
vt 0.1039091 0.8334554
vt 0.1039091 0.860989
vt 0.08334704 0.860989
vt 0.0625408 0.8334554
vt 0.0831029 0.8334554
vt 0.0831029 0.860989
vt 0.0625408 0.860989
vt 0.853178 0.5278999
vt 0.8737401 0.5278999
vt 0.8737401 0.5554335
vt 0.853178 0.5554335
vt 0.8323718 0.5278999
vt 0.8529338 0.5278999
vt 0.8529338 0.5554335
vt 0.8323718 0.5554335
vt 0.8115655 0.5278999
vt 0.8321276 0.5278999
vt 0.8321276 0.5554335
vt 0.8115655 0.5554335
vt 0.7907593 0.5278999
vt 0.8113214 0.5278999
vt 0.8113214 0.5554335
vt 0.7907593 0.5554335
vt 0.853178 0.5001221
vt 0.8737401 0.5001221
vt 0.8737401 0.5276557
vt 0.853178 0.5276557
vt 0.8323718 0.5001221
vt 0.8529338 0.5001221
vt 0.8529338 0.5276557
vt 0.8323718 0.5276557
vt 0.8115655 0.5001221
vt 0.8321276 0.5001221
vt 0.8321276 0.5276557
vt 0.8115655 0.5276557
vt 0.7907593 0.5001221
vt 0.8113214 0.5001221
vt 0.8113214 0.5276557
vt 0.7907593 0.5276557
vt 0.853178 0.4723443
vt 0.8737401 0.4723443
vt 0.8737401 0.4998779
vt 0.853178 0.4998779
vt 0.8323718 0.4723443
vt 0.8529338 0.4723443
vt 0.8529338 0.4998779
vt 0.8323718 0.4998779
vt 0.8115655 0.4723443
vt 0.8321276 0.4723443
vt 0.8321276 0.4998779
vt 0.8115655 0.4998779
vt 0.7907593 0.4723443
vt 0.8113214 0.4723443
vt 0.8113214 0.4998779
vt 0.7907593 0.4998779
vt 0.853178 0.4445665
vt 0.8737401 0.4445665
vt 0.8737401 0.4721001
vt 0.853178 0.4721001
vt 0.8323718 0.4445665
vt 0.8529338 0.4445665
vt 0.8529338 0.4721001
vt 0.8323718 0.4721001
vt 0.8115655 0.4445665
vt 0.8321276 0.4445665
vt 0.8321276 0.4721001
vt 0.8115655 0.4721001
vt 0.7907593 0.4445665
vt 0.8113214 0.4445665
vt 0.8113214 0.4721001
vt 0.7907593 0.4721001
vt 0.3538282 0.1667888
vt 0.3743903 0.1667888
vt 0.3743903 0.1943223
vt 0.3538282 0.1943223
vt 0.3330219 0.1667888
vt 0.3535841 0.1667888
vt 0.3535841 0.1943223
vt 0.3330219 0.1943223
vt 0.3122157 0.1667888
vt 0.3327778 0.1667888
vt 0.3327778 0.1943223
vt 0.3122157 0.1943223
vt 0.2914095 0.1667888
vt 0.3119715 0.1667888
vt 0.3119715 0.1943223
vt 0.2914095 0.1943223
vt 0.0625408 0.08345538
vt 0.0831029 0.08345538
vt 0.0831029 0.110989
vt 0.0625408 0.110989
vt 0.04173455 0.08345538
vt 0.06229666 0.08345538
vt 0.06229666 0.110989
vt 0.04173455 0.110989
vt 0.02092831 0.08345538
vt 0.04149041 0.08345538
vt 0.04149041 0.110989
vt 0.02092831 0.110989
vt 0.0001220703 0.08345538
vt 0.02068417 0.08345538
vt 0.02068417 0.110989
vt 0.0001220703 0.110989
vt 0.3538282 0.139011
vt 0.3743903 0.139011
vt 0.3743903 0.1665446
vt 0.3538282 0.1665446
vt 0.3330219 0.139011
vt 0.3535841 0.139011
vt 0.3535841 0.1665446
vt 0.3330219 0.1665446
vt 0.3122157 0.139011
vt 0.3327778 0.139011
vt 0.3327778 0.1665446
vt 0.3122157 0.1665446
vt 0.2914095 0.139011
vt 0.3119715 0.139011
vt 0.3119715 0.1665446
vt 0.2914095 0.1665446
vt 0.1041533 0.9445665
vt 0.1247154 0.9445665
vt 0.1247154 0.9721001
vt 0.1041533 0.9721001
vt 0.08334704 0.9445665
vt 0.1039091 0.9445665
vt 0.1039091 0.9721001
vt 0.08334704 0.9721001
vt 0.0625408 0.05567765
vt 0.0831029 0.05567765
vt 0.0831029 0.08321124
vt 0.0625408 0.08321124
vt 0.04173455 0.05567765
vt 0.06229666 0.05567765
vt 0.06229666 0.08321124
vt 0.04173455 0.08321124
vt 0.02092831 0.05567765
vt 0.04149041 0.05567765
vt 0.04149041 0.08321124
vt 0.02092831 0.08321124
vt 0.0001220703 0.05567765
vt 0.02068417 0.05567765
vt 0.02068417 0.08321124
vt 0.0001220703 0.08321124
vt 0.3538282 0.1112332
vt 0.3743903 0.1112332
vt 0.3743903 0.1387668
vt 0.3538282 0.1387668
vt 0.3330219 0.1112332
vt 0.3535841 0.1112332
vt 0.3535841 0.1387668
vt 0.3330219 0.1387668
vt 0.3122157 0.1112332
vt 0.3327778 0.1112332
vt 0.3327778 0.1387668
vt 0.3122157 0.1387668
vt 0.2914095 0.1112332
vt 0.3119715 0.1112332
vt 0.3119715 0.1387668
vt 0.2914095 0.1387668
vt 0.1041533 0.9167888
vt 0.1247154 0.9167888
vt 0.1247154 0.9443223
vt 0.1041533 0.9443223
vt 0.08334704 0.9167888
vt 0.1039091 0.9167888
vt 0.1039091 0.9443223
vt 0.08334704 0.9443223
vt 0.0625408 0.02789986
vt 0.0831029 0.02789986
vt 0.0831029 0.05543351
vt 0.0625408 0.05543351
vt 0.04173455 0.02789986
vt 0.06229666 0.02789986
vt 0.06229666 0.05543351
vt 0.04173455 0.05543351
vt 0.02092831 0.02789986
vt 0.04149041 0.02789986
vt 0.04149041 0.05543351
vt 0.02092831 0.05543351
vt 0.0001220703 0.02789986
vt 0.02068417 0.02789986
vt 0.02068417 0.05543351
vt 0.0001220703 0.05543351
vt 0.3538282 0.08345538
vt 0.3743903 0.08345538
vt 0.3743903 0.110989
vt 0.3538282 0.110989
vt 0.3330219 0.08345538
vt 0.3535841 0.08345538
vt 0.3535841 0.110989
vt 0.3330219 0.110989
vt 0.3122157 0.08345538
vt 0.3327778 0.08345538
vt 0.3327778 0.110989
vt 0.3122157 0.110989
vt 0.2914095 0.08345538
vt 0.3119715 0.08345538
vt 0.3119715 0.110989
vt 0.2914095 0.110989
vt 0.0625408 0.0001220703
vt 0.0831029 0.0001220703
vt 0.0831029 0.02765572
vt 0.0625408 0.02765572
vt 0.04173455 0.0001220703
vt 0.06229666 0.0001220703
vt 0.06229666 0.02765572
vt 0.04173455 0.02765572
vt 0.02092831 0.0001220703
vt 0.04149041 0.0001220703
vt 0.04149041 0.02765572
vt 0.02092831 0.02765572
vt 0.0001220703 0.0001220703
vt 0.02068417 0.0001220703
vt 0.02068417 0.02765572
vt 0.0001220703 0.02765572

# Normal
vn 0 0 -1

# Mesh description
g LeftMontilla4_mesh_0003

# Faces
f 1/1/1 2/2/1 3/3/1 4/4/1
f 5/5/1 6/6/1 7/7/1 8/8/1
f 9/1/1 10/2/1 11/3/1 12/4/1
f 13/5/1 14/6/1 15/7/1 16/8/1
f 17/9/1 18/10/1 19/11/1 20/12/1
f 21/13/1 22/14/1 23/15/1 24/16/1
f 25/9/1 26/10/1 27/11/1 28/12/1
f 29/13/1 30/14/1 31/15/1 32/16/1
f 33/1/1 34/2/1 35/3/1 36/4/1
f 37/5/1 38/6/1 39/7/1 40/8/1
f 41/1/1 42/2/1 43/3/1 44/4/1
f 45/5/1 46/6/1 47/7/1 48/8/1
f 49/9/1 50/10/1 51/11/1 52/12/1
f 53/13/1 54/14/1 55/15/1 56/16/1
f 57/17/1 58/18/1 59/19/1 60/20/1
f 61/21/1 62/22/1 63/23/1 64/24/1
f 65/25/1 66/26/1 67/27/1 68/28/1
f 69/9/1 70/10/1 71/11/1 72/12/1
f 73/13/1 74/14/1 75/15/1 76/16/1
f 77/1/1 78/2/1 79/3/1 80/4/1
f 81/5/1 82/6/1 83/7/1 84/8/1
f 85/17/1 86/18/1 87/19/1 88/20/1
f 89/21/1 90/22/1 91/23/1 92/24/1
f 93/25/1 94/26/1 95/27/1 96/28/1
f 97/9/1 98/10/1 99/11/1 100/12/1
f 101/13/1 102/14/1 103/15/1 104/16/1
f 105/29/1 106/30/1 107/31/1 108/32/1
f 109/33/1 110/34/1 111/35/1 112/36/1
f 113/37/1 114/38/1 115/39/1 116/40/1
f 117/41/1 118/42/1 119/43/1 120/44/1
f 121/45/1 122/46/1 123/47/1 124/48/1
f 125/49/1 126/50/1 127/51/1 128/52/1
f 129/53/1 130/54/1 131/55/1 132/56/1
f 133/57/1 134/58/1 135/59/1 136/60/1
f 137/29/1 138/30/1 139/31/1 140/32/1
f 141/33/1 142/34/1 143/35/1 144/36/1
f 145/37/1 146/38/1 147/39/1 148/40/1
f 149/41/1 150/42/1 151/43/1 152/44/1
f 153/1/1 154/2/1 155/3/1 156/4/1
f 157/5/1 158/6/1 159/7/1 160/8/1
f 161/61/1 162/62/1 163/63/1 164/64/1
f 165/65/1 166/66/1 167/67/1 168/68/1
f 169/69/1 170/70/1 171/71/1 172/72/1
f 173/73/1 174/74/1 175/75/1 176/76/1
f 177/45/1 178/46/1 179/47/1 180/48/1
f 181/49/1 182/50/1 183/51/1 184/52/1
f 185/53/1 186/54/1 187/55/1 188/56/1
f 189/57/1 190/58/1 191/59/1 192/60/1
f 193/9/1 194/10/1 195/11/1 196/12/1
f 197/13/1 198/14/1 199/15/1 200/16/1
f 201/77/1 202/78/1 203/79/1 204/80/1
f 205/81/1 206/82/1 207/83/1 208/84/1
f 209/85/1 210/86/1 211/87/1 212/88/1
f 213/89/1 214/90/1 215/91/1 216/92/1
f 217/61/1 218/62/1 219/63/1 220/64/1
f 221/65/1 222/66/1 223/67/1 224/68/1
f 225/69/1 226/70/1 227/71/1 228/72/1
f 229/73/1 230/74/1 231/75/1 232/76/1
f 233/77/1 234/78/1 235/79/1 236/80/1
f 237/81/1 238/82/1 239/83/1 240/84/1
f 241/85/1 242/86/1 243/87/1 244/88/1
f 245/89/1 246/90/1 247/91/1 248/92/1
f 249/1/1 250/2/1 251/3/1 252/4/1
f 253/5/1 254/6/1 255/7/1 256/8/1
f 257/9/1 258/10/1 259/11/1 260/12/1
f 261/13/1 262/14/1 263/15/1 264/16/1
f 265/93/1 266/94/1 267/95/1 268/96/1
f 269/97/1 270/98/1 271/99/1 272/100/1
f 273/101/1 274/102/1 275/103/1 276/104/1
f 277/105/1 278/106/1 279/107/1 280/108/1
f 281/109/1 282/110/1 283/111/1 284/112/1
f 285/113/1 286/114/1 287/115/1 288/116/1
f 289/117/1 290/118/1 291/119/1 292/120/1
f 293/121/1 294/122/1 295/123/1 296/124/1
f 297/125/1 298/126/1 299/127/1 300/128/1
f 301/129/1 302/130/1 303/131/1 304/132/1
f 305/133/1 306/134/1 307/135/1 308/136/1
f 309/137/1 310/138/1 311/139/1 312/140/1
f 313/141/1 314/142/1 315/143/1 316/144/1
f 317/145/1 318/146/1 319/147/1 320/148/1
f 321/149/1 322/150/1 323/151/1 324/152/1
f 325/153/1 326/154/1 327/155/1 328/156/1
f 329/157/1 330/158/1 331/159/1 332/160/1
f 333/161/1 334/162/1 335/163/1 336/164/1
f 337/165/1 338/166/1 339/167/1 340/168/1
f 341/169/1 342/170/1 343/171/1 344/172/1
f 345/173/1 346/174/1 347/175/1 348/176/1
f 349/177/1 350/178/1 351/179/1 352/180/1
f 353/181/1 354/182/1 355/183/1 356/184/1
f 357/185/1 358/186/1 359/187/1 360/188/1
f 361/189/1 362/190/1 363/191/1 364/192/1
f 365/193/1 366/194/1 367/195/1 368/196/1
f 369/197/1 370/198/1 371/199/1 372/200/1
f 373/201/1 374/202/1 375/203/1 376/204/1
f 377/205/1 378/206/1 379/207/1 380/208/1
f 381/209/1 382/210/1 383/211/1 384/212/1
f 385/213/1 386/214/1 387/215/1 388/216/1
f 389/217/1 390/218/1 391/219/1 392/220/1
f 393/221/1 394/222/1 395/223/1 396/224/1
f 397/225/1 398/226/1 399/227/1 400/228/1
f 401/229/1 402/230/1 403/231/1 404/232/1
f 405/233/1 406/234/1 407/235/1 408/236/1
f 409/93/1 410/94/1 411/95/1 412/96/1
f 413/97/1 414/98/1 415/99/1 416/100/1
f 417/101/1 418/102/1 419/103/1 420/104/1
f 421/105/1 422/106/1 423/107/1 424/108/1
f 425/125/1 426/126/1 427/127/1 428/128/1
f 429/129/1 430/130/1 431/131/1 432/132/1
f 433/133/1 434/134/1 435/135/1 436/136/1
f 437/137/1 438/138/1 439/139/1 440/140/1
f 441/165/1 442/166/1 443/167/1 444/168/1
f 445/169/1 446/170/1 447/171/1 448/172/1
f 449/173/1 450/174/1 451/175/1 452/176/1
f 453/177/1 454/178/1 455/179/1 456/180/1
f 457/141/1 458/142/1 459/143/1 460/144/1
f 461/145/1 462/146/1 463/147/1 464/148/1
f 465/1/1 466/2/1 467/3/1 468/4/1
f 469/5/1 470/6/1 471/7/1 472/8/1
f 473/205/1 474/206/1 475/207/1 476/208/1
f 477/209/1 478/210/1 479/211/1 480/212/1
f 481/213/1 482/214/1 483/215/1 484/216/1
f 485/217/1 486/218/1 487/219/1 488/220/1
f 489/181/1 490/182/1 491/183/1 492/184/1
f 493/185/1 494/186/1 495/187/1 496/188/1
f 497/9/1 498/10/1 499/11/1 500/12/1
f 501/13/1 502/14/1 503/15/1 504/16/1

