# Tiled2Unity generated file. Do not modify by hand.
# Wavefront file for 'Humabon_mesh_0003.obj'

# Vertices (Count = 128)
v -23 -24 0
v -24 -24 0
v -24 -23 0
v -23 -23 0
v -22 -24 0
v -23 -24 0
v -23 -23 0
v -22 -23 0
v -21 -24 0
v -22 -24 0
v -22 -23 0
v -21 -23 0
v -20 -24 0
v -21 -24 0
v -21 -23 0
v -20 -23 0
v -19 -24 0
v -20 -24 0
v -20 -23 0
v -19 -23 0
v -18 -24 0
v -19 -24 0
v -19 -23 0
v -18 -23 0
v -17 -24 0
v -18 -24 0
v -18 -23 0
v -17 -23 0
v -16 -24 0
v -17 -24 0
v -17 -23 0
v -16 -23 0
v -15 -24 0
v -16 -24 0
v -16 -23 0
v -15 -23 0
v -23 -25 0
v -24 -25 0
v -24 -24 0
v -23 -24 0
v -22 -25 0
v -23 -25 0
v -23 -24 0
v -22 -24 0
v -21 -25 0
v -22 -25 0
v -22 -24 0
v -21 -24 0
v -20 -25 0
v -21 -25 0
v -21 -24 0
v -20 -24 0
v -19 -25 0
v -20 -25 0
v -20 -24 0
v -19 -24 0
v -18 -25 0
v -19 -25 0
v -19 -24 0
v -18 -24 0
v -17 -25 0
v -18 -25 0
v -18 -24 0
v -17 -24 0
v -16 -25 0
v -17 -25 0
v -17 -24 0
v -16 -24 0
v -15 -25 0
v -16 -25 0
v -16 -24 0
v -15 -24 0
v -9 -35 0
v -10 -35 0
v -10 -34 0
v -9 -34 0
v -8 -35 0
v -9 -35 0
v -9 -34 0
v -8 -34 0
v -7 -35 0
v -8 -35 0
v -8 -34 0
v -7 -34 0
v -6 -35 0
v -7 -35 0
v -7 -34 0
v -6 -34 0
v -5 -35 0
v -6 -35 0
v -6 -34 0
v -5 -34 0
v -4 -35 0
v -5 -35 0
v -5 -34 0
v -4 -34 0
v -3 -35 0
v -4 -35 0
v -4 -34 0
v -3 -34 0
v -9 -36 0
v -10 -36 0
v -10 -35 0
v -9 -35 0
v -8 -36 0
v -9 -36 0
v -9 -35 0
v -8 -35 0
v -7 -36 0
v -8 -36 0
v -8 -35 0
v -7 -35 0
v -6 -36 0
v -7 -36 0
v -7 -35 0
v -6 -35 0
v -5 -36 0
v -6 -36 0
v -6 -35 0
v -5 -35 0
v -4 -36 0
v -5 -36 0
v -5 -35 0
v -4 -35 0
v -3 -36 0
v -4 -36 0
v -4 -35 0
v -3 -35 0

# Texture cooridinates (Count = 128)
vt 0.1534767 0.1843326
vt 0.170272 0.1843326
vt 0.170272 0.2104042
vt 0.1534767 0.2104042
vt 0.1364373 0.1843326
vt 0.1532326 0.1843326
vt 0.1532326 0.2104042
vt 0.1364373 0.2104042
vt 0.1193979 0.1843326
vt 0.1361932 0.1843326
vt 0.1361932 0.2104042
vt 0.1193979 0.2104042
vt 0.1023585 0.1843326
vt 0.1191538 0.1843326
vt 0.1191538 0.2104042
vt 0.1023585 0.2104042
vt 0.08531909 0.1843326
vt 0.1021143 0.1843326
vt 0.1021143 0.2104042
vt 0.08531909 0.2104042
vt 0.06827968 0.1843326
vt 0.08507495 0.1843326
vt 0.08507495 0.2104042
vt 0.06827968 0.2104042
vt 0.05124028 0.1843326
vt 0.06803554 0.1843326
vt 0.06803554 0.2104042
vt 0.05124028 0.2104042
vt 0.03420088 0.1843326
vt 0.05099614 0.1843326
vt 0.05099614 0.2104042
vt 0.03420088 0.2104042
vt 0.01716147 0.1843326
vt 0.03395674 0.1843326
vt 0.03395674 0.2104042
vt 0.01716147 0.2104042
vt 0.1534767 0.1580168
vt 0.170272 0.1580168
vt 0.170272 0.1840885
vt 0.1534767 0.1840885
vt 0.1364373 0.1580168
vt 0.1532326 0.1580168
vt 0.1532326 0.1840885
vt 0.1364373 0.1840885
vt 0.1193979 0.1580168
vt 0.1361932 0.1580168
vt 0.1361932 0.1840885
vt 0.1193979 0.1840885
vt 0.1023585 0.1580168
vt 0.1191538 0.1580168
vt 0.1191538 0.1840885
vt 0.1023585 0.1840885
vt 0.08531909 0.1580168
vt 0.1021143 0.1580168
vt 0.1021143 0.1840885
vt 0.08531909 0.1840885
vt 0.06827968 0.1580168
vt 0.08507495 0.1580168
vt 0.08507495 0.1840885
vt 0.06827968 0.1840885
vt 0.05124028 0.1580168
vt 0.06803554 0.1580168
vt 0.06803554 0.1840885
vt 0.05124028 0.1840885
vt 0.03420088 0.1580168
vt 0.05099614 0.1580168
vt 0.05099614 0.1840885
vt 0.03420088 0.1840885
vt 0.01716147 0.1580168
vt 0.03395674 0.1580168
vt 0.03395674 0.1840885
vt 0.01716147 0.1840885
vt 0.2727525 0.3159115
vt 0.2895478 0.3159115
vt 0.2895478 0.3419832
vt 0.2727525 0.3419832
vt 0.2557131 0.3159115
vt 0.2725084 0.3159115
vt 0.2725084 0.3419832
vt 0.2557131 0.3419832
vt 0.2386737 0.3159115
vt 0.255469 0.3159115
vt 0.255469 0.3419832
vt 0.2386737 0.3419832
vt 0.2216343 0.3159115
vt 0.2384296 0.3159115
vt 0.2384296 0.3419832
vt 0.2216343 0.3419832
vt 0.2045949 0.3159115
vt 0.2213902 0.3159115
vt 0.2213902 0.3419832
vt 0.2045949 0.3419832
vt 0.1875555 0.3159115
vt 0.2043508 0.3159115
vt 0.2043508 0.3419832
vt 0.1875555 0.3419832
vt 0.1705161 0.3159115
vt 0.1873114 0.3159115
vt 0.1873114 0.3419832
vt 0.1705161 0.3419832
vt 0.2727525 0.2895958
vt 0.2895478 0.2895958
vt 0.2895478 0.3156674
vt 0.2727525 0.3156674
vt 0.2557131 0.2895958
vt 0.2725084 0.2895958
vt 0.2725084 0.3156674
vt 0.2557131 0.3156674
vt 0.2386737 0.2895958
vt 0.255469 0.2895958
vt 0.255469 0.3156674
vt 0.2386737 0.3156674
vt 0.2216343 0.2895958
vt 0.2384296 0.2895958
vt 0.2384296 0.3156674
vt 0.2216343 0.3156674
vt 0.2045949 0.2895958
vt 0.2213902 0.2895958
vt 0.2213902 0.3156674
vt 0.2045949 0.3156674
vt 0.1875555 0.2895958
vt 0.2043508 0.2895958
vt 0.2043508 0.3156674
vt 0.1875555 0.3156674
vt 0.1705161 0.2895958
vt 0.1873114 0.2895958
vt 0.1873114 0.3156674
vt 0.1705161 0.3156674

# Normal
vn 0 0 -1

# Mesh description
g Humabon_mesh_0003

# Faces
f 1/1/1 2/2/1 3/3/1 4/4/1
f 5/5/1 6/6/1 7/7/1 8/8/1
f 9/9/1 10/10/1 11/11/1 12/12/1
f 13/13/1 14/14/1 15/15/1 16/16/1
f 17/17/1 18/18/1 19/19/1 20/20/1
f 21/21/1 22/22/1 23/23/1 24/24/1
f 25/25/1 26/26/1 27/27/1 28/28/1
f 29/29/1 30/30/1 31/31/1 32/32/1
f 33/33/1 34/34/1 35/35/1 36/36/1
f 37/37/1 38/38/1 39/39/1 40/40/1
f 41/41/1 42/42/1 43/43/1 44/44/1
f 45/45/1 46/46/1 47/47/1 48/48/1
f 49/49/1 50/50/1 51/51/1 52/52/1
f 53/53/1 54/54/1 55/55/1 56/56/1
f 57/57/1 58/58/1 59/59/1 60/60/1
f 61/61/1 62/62/1 63/63/1 64/64/1
f 65/65/1 66/66/1 67/67/1 68/68/1
f 69/69/1 70/70/1 71/71/1 72/72/1
f 73/73/1 74/74/1 75/75/1 76/76/1
f 77/77/1 78/78/1 79/79/1 80/80/1
f 81/81/1 82/82/1 83/83/1 84/84/1
f 85/85/1 86/86/1 87/87/1 88/88/1
f 89/89/1 90/90/1 91/91/1 92/92/1
f 93/93/1 94/94/1 95/95/1 96/96/1
f 97/97/1 98/98/1 99/99/1 100/100/1
f 101/101/1 102/102/1 103/103/1 104/104/1
f 105/105/1 106/106/1 107/107/1 108/108/1
f 109/109/1 110/110/1 111/111/1 112/112/1
f 113/113/1 114/114/1 115/115/1 116/116/1
f 117/117/1 118/118/1 119/119/1 120/120/1
f 121/121/1 122/122/1 123/123/1 124/124/1
f 125/125/1 126/126/1 127/127/1 128/128/1

