# Tiled2Unity generated file. Do not modify by hand.
# Wavefront file for 'BalayNiJoel_mesh_0006.obj'

# Vertices (Count = 28)
v -19 -11 0
v -20 -11 0
v -20 -10 0
v -19 -10 0
v -18 -11 0
v -19 -11 0
v -19 -10 0
v -18 -10 0
v -19 -12 0
v -20 -12 0
v -20 -11 0
v -19 -11 0
v -18 -12 0
v -19 -12 0
v -19 -11 0
v -18 -11 0
v -19 -13 0
v -20 -13 0
v -20 -12 0
v -19 -12 0
v -18 -13 0
v -19 -13 0
v -19 -12 0
v -18 -12 0
v -9 -20 0
v -10 -20 0
v -10 -19 0
v -9 -19 0

# Texture cooridinates (Count = 12)
vt 0.5601221 0.4705712
vt 0.599878 0.4705712
vt 0.599878 0.5081521
vt 0.5601221 0.5081521
vt 0.5601221 0.4327462
vt 0.599878 0.4327462
vt 0.599878 0.4703271
vt 0.5601221 0.4703271
vt 0.5601221 0.3949211
vt 0.599878 0.3949211
vt 0.599878 0.432502
vt 0.5601221 0.432502

# Normal
vn 0 0 -1

# Mesh description
g BalayNiJoel_mesh_0006

# Faces
f 1/1/1 2/2/1 3/3/1 4/4/1
f 5/2/1 6/1/1 7/4/1 8/3/1
f 9/5/1 10/6/1 11/7/1 12/8/1
f 13/6/1 14/5/1 15/8/1 16/7/1
f 17/9/1 18/10/1 19/11/1 20/12/1
f 21/10/1 22/9/1 23/12/1 24/11/1
f 25/8/1 26/5/1 27/6/1 28/7/1

