# Tiled2Unity generated file. Do not modify by hand.
# Wavefront file for 'BalayNiJoel_mesh_0002.obj'

# Vertices (Count = 484)
v -25 -1 0
v -26 -1 0
v -26 0 0
v -25 0 0
v -24 -1 0
v -25 -1 0
v -25 0 0
v -24 0 0
v -23 -1 0
v -24 -1 0
v -24 0 0
v -23 0 0
v -29 -2 0
v -30 -2 0
v -30 -1 0
v -29 -1 0
v -28 -2 0
v -29 -2 0
v -29 -1 0
v -28 -1 0
v -25 -2 0
v -26 -2 0
v -26 -1 0
v -25 -1 0
v -24 -2 0
v -25 -2 0
v -25 -1 0
v -24 -1 0
v -23 -2 0
v -24 -2 0
v -24 -1 0
v -23 -1 0
v -16 -2 0
v -17 -2 0
v -17 -1 0
v -16 -1 0
v -15 -2 0
v -16 -2 0
v -16 -1 0
v -15 -1 0
v -14 -2 0
v -15 -2 0
v -15 -1 0
v -14 -1 0
v -13 -2 0
v -14 -2 0
v -14 -1 0
v -13 -1 0
v -12 -2 0
v -13 -2 0
v -13 -1 0
v -12 -1 0
v -11 -2 0
v -12 -2 0
v -12 -1 0
v -11 -1 0
v -10 -2 0
v -11 -2 0
v -11 -1 0
v -10 -1 0
v -9 -2 0
v -10 -2 0
v -10 -1 0
v -9 -1 0
v -8 -2 0
v -9 -2 0
v -9 -1 0
v -8 -1 0
v -7 -2 0
v -8 -2 0
v -8 -1 0
v -7 -1 0
v -6 -2 0
v -7 -2 0
v -7 -1 0
v -6 -1 0
v -5 -2 0
v -6 -2 0
v -6 -1 0
v -5 -1 0
v -4 -2 0
v -5 -2 0
v -5 -1 0
v -4 -1 0
v -3 -2 0
v -4 -2 0
v -4 -1 0
v -3 -1 0
v -2 -2 0
v -3 -2 0
v -3 -1 0
v -2 -1 0
v -31 -3 0
v -32 -3 0
v -32 -2 0
v -31 -2 0
v -30 -3 0
v -31 -3 0
v -31 -2 0
v -30 -2 0
v -29 -3 0
v -30 -3 0
v -30 -2 0
v -29 -2 0
v -28 -3 0
v -29 -3 0
v -29 -2 0
v -28 -2 0
v -25 -3 0
v -26 -3 0
v -26 -2 0
v -25 -2 0
v -24 -3 0
v -25 -3 0
v -25 -2 0
v -24 -2 0
v -23 -3 0
v -24 -3 0
v -24 -2 0
v -23 -2 0
v -21 -3 0
v -22 -3 0
v -22 -2 0
v -21 -2 0
v -20 -3 0
v -21 -3 0
v -21 -2 0
v -20 -2 0
v -19 -3 0
v -20 -3 0
v -20 -2 0
v -19 -2 0
v -18 -3 0
v -19 -3 0
v -19 -2 0
v -18 -2 0
v -17 -3 0
v -18 -3 0
v -18 -2 0
v -17 -2 0
v -16 -3 0
v -17 -3 0
v -17 -2 0
v -16 -2 0
v -15 -3 0
v -16 -3 0
v -16 -2 0
v -15 -2 0
v -14 -3 0
v -15 -3 0
v -15 -2 0
v -14 -2 0
v -13 -3 0
v -14 -3 0
v -14 -2 0
v -13 -2 0
v -12 -3 0
v -13 -3 0
v -13 -2 0
v -12 -2 0
v -11 -3 0
v -12 -3 0
v -12 -2 0
v -11 -2 0
v -10 -3 0
v -11 -3 0
v -11 -2 0
v -10 -2 0
v -9 -3 0
v -10 -3 0
v -10 -2 0
v -9 -2 0
v -8 -3 0
v -9 -3 0
v -9 -2 0
v -8 -2 0
v -7 -3 0
v -8 -3 0
v -8 -2 0
v -7 -2 0
v -6 -3 0
v -7 -3 0
v -7 -2 0
v -6 -2 0
v -5 -3 0
v -6 -3 0
v -6 -2 0
v -5 -2 0
v -4 -3 0
v -5 -3 0
v -5 -2 0
v -4 -2 0
v -3 -3 0
v -4 -3 0
v -4 -2 0
v -3 -2 0
v -2 -3 0
v -3 -3 0
v -3 -2 0
v -2 -2 0
v -1 -3 0
v -2 -3 0
v -2 -2 0
v -1 -2 0
v 0 -3 0
v -1 -3 0
v -1 -2 0
v 0 -2 0
v -29 -4 0
v -30 -4 0
v -30 -3 0
v -29 -3 0
v -28 -4 0
v -29 -4 0
v -29 -3 0
v -28 -3 0
v -21 -4 0
v -22 -4 0
v -22 -3 0
v -21 -3 0
v -13 -4 0
v -14 -4 0
v -14 -3 0
v -13 -3 0
v -12 -4 0
v -13 -4 0
v -13 -3 0
v -12 -3 0
v -11 -4 0
v -12 -4 0
v -12 -3 0
v -11 -3 0
v -10 -4 0
v -11 -4 0
v -11 -3 0
v -10 -3 0
v -9 -4 0
v -10 -4 0
v -10 -3 0
v -9 -3 0
v -8 -4 0
v -9 -4 0
v -9 -3 0
v -8 -3 0
v -7 -4 0
v -8 -4 0
v -8 -3 0
v -7 -3 0
v -6 -4 0
v -7 -4 0
v -7 -3 0
v -6 -3 0
v -5 -4 0
v -6 -4 0
v -6 -3 0
v -5 -3 0
v -13 -5 0
v -14 -5 0
v -14 -4 0
v -13 -4 0
v -12 -5 0
v -13 -5 0
v -13 -4 0
v -12 -4 0
v -10 -5 0
v -11 -5 0
v -11 -4 0
v -10 -4 0
v -9 -5 0
v -10 -5 0
v -10 -4 0
v -9 -4 0
v -8 -5 0
v -9 -5 0
v -9 -4 0
v -8 -4 0
v -5 -5 0
v -6 -5 0
v -6 -4 0
v -5 -4 0
v -27 -6 0
v -28 -6 0
v -28 -5 0
v -27 -5 0
v -26 -6 0
v -27 -6 0
v -27 -5 0
v -26 -5 0
v -25 -6 0
v -26 -6 0
v -26 -5 0
v -25 -5 0
v -24 -6 0
v -25 -6 0
v -25 -5 0
v -24 -5 0
v -23 -6 0
v -24 -6 0
v -24 -5 0
v -23 -5 0
v -29 -7 0
v -30 -7 0
v -30 -6 0
v -29 -6 0
v -28 -7 0
v -29 -7 0
v -29 -6 0
v -28 -6 0
v -27 -7 0
v -28 -7 0
v -28 -6 0
v -27 -6 0
v -26 -7 0
v -27 -7 0
v -27 -6 0
v -26 -6 0
v -25 -7 0
v -26 -7 0
v -26 -6 0
v -25 -6 0
v -24 -7 0
v -25 -7 0
v -25 -6 0
v -24 -6 0
v -23 -7 0
v -24 -7 0
v -24 -6 0
v -23 -6 0
v -29 -8 0
v -30 -8 0
v -30 -7 0
v -29 -7 0
v -28 -8 0
v -29 -8 0
v -29 -7 0
v -28 -7 0
v -27 -8 0
v -28 -8 0
v -28 -7 0
v -27 -7 0
v -26 -8 0
v -27 -8 0
v -27 -7 0
v -26 -7 0
v -25 -8 0
v -26 -8 0
v -26 -7 0
v -25 -7 0
v -24 -8 0
v -25 -8 0
v -25 -7 0
v -24 -7 0
v -23 -8 0
v -24 -8 0
v -24 -7 0
v -23 -7 0
v -11 -8 0
v -12 -8 0
v -12 -7 0
v -11 -7 0
v -10 -8 0
v -11 -8 0
v -11 -7 0
v -10 -7 0
v -9 -8 0
v -10 -8 0
v -10 -7 0
v -9 -7 0
v -8 -8 0
v -9 -8 0
v -9 -7 0
v -8 -7 0
v -7 -8 0
v -8 -8 0
v -8 -7 0
v -7 -7 0
v -26 -9 0
v -27 -9 0
v -27 -8 0
v -26 -8 0
v -25 -9 0
v -26 -9 0
v -26 -8 0
v -25 -8 0
v -24 -9 0
v -25 -9 0
v -25 -8 0
v -24 -8 0
v -23 -9 0
v -24 -9 0
v -24 -8 0
v -23 -8 0
v -20 -11 0
v -21 -11 0
v -21 -10 0
v -20 -10 0
v -17 -11 0
v -18 -11 0
v -18 -10 0
v -17 -10 0
v -20 -12 0
v -21 -12 0
v -21 -11 0
v -20 -11 0
v -17 -12 0
v -18 -12 0
v -18 -11 0
v -17 -11 0
v -20 -13 0
v -21 -13 0
v -21 -12 0
v -20 -12 0
v -17 -13 0
v -18 -13 0
v -18 -12 0
v -17 -12 0
v -31 -14 0
v -32 -14 0
v -32 -13 0
v -31 -13 0
v -30 -14 0
v -31 -14 0
v -31 -13 0
v -30 -13 0
v -20 -14 0
v -21 -14 0
v -21 -13 0
v -20 -13 0
v -19 -14 0
v -20 -14 0
v -20 -13 0
v -19 -13 0
v -18 -17 0
v -19 -17 0
v -19 -16 0
v -18 -16 0
v -17 -17 0
v -18 -17 0
v -18 -16 0
v -17 -16 0
v -10 -17 0
v -11 -17 0
v -11 -16 0
v -10 -16 0
v -9 -17 0
v -10 -17 0
v -10 -16 0
v -9 -16 0
v -8 -17 0
v -9 -17 0
v -9 -16 0
v -8 -16 0
v -1 -17 0
v -2 -17 0
v -2 -16 0
v -1 -16 0
v 0 -17 0
v -1 -17 0
v -1 -16 0
v 0 -16 0
v -10 -18 0
v -11 -18 0
v -11 -17 0
v -10 -17 0
v -9 -18 0
v -10 -18 0
v -10 -17 0
v -9 -17 0
v -8 -18 0
v -9 -18 0
v -9 -17 0
v -8 -17 0
v -10 -19 0
v -11 -19 0
v -11 -18 0
v -10 -18 0
v -9 -19 0
v -10 -19 0
v -10 -18 0
v -9 -18 0
v -8 -19 0
v -9 -19 0
v -9 -18 0
v -8 -18 0

# Texture cooridinates (Count = 260)
vt 0.08012207 0.962297
vt 0.1198779 0.962297
vt 0.1198779 0.9998779
vt 0.08012207 0.9998779
vt 0.04012207 0.962297
vt 0.07987793 0.962297
vt 0.07987793 0.9998779
vt 0.04012207 0.9998779
vt 0.0001220703 0.962297
vt 0.03987793 0.962297
vt 0.03987793 0.9998779
vt 0.0001220703 0.9998779
vt 0.6001221 0.8488218
vt 0.6398779 0.8488218
vt 0.6398779 0.8864027
vt 0.6001221 0.8864027
vt 0.5601221 0.8488218
vt 0.599878 0.8488218
vt 0.599878 0.8864027
vt 0.5601221 0.8864027
vt 0.08012207 0.924472
vt 0.1198779 0.924472
vt 0.1198779 0.9620529
vt 0.08012207 0.9620529
vt 0.04012207 0.924472
vt 0.07987793 0.924472
vt 0.07987793 0.9620529
vt 0.04012207 0.9620529
vt 0.0001220703 0.924472
vt 0.03987793 0.924472
vt 0.03987793 0.9620529
vt 0.0001220703 0.9620529
vt 0.08012207 0.5840464
vt 0.1198779 0.5840464
vt 0.1198779 0.6216273
vt 0.08012207 0.6216273
vt 0.04012207 0.5840464
vt 0.07987793 0.5840464
vt 0.07987793 0.6216273
vt 0.04012207 0.6216273
vt 0.0001220703 0.5840464
vt 0.03987793 0.5840464
vt 0.03987793 0.6216273
vt 0.0001220703 0.6216273
vt 0.7201221 0.962297
vt 0.7598779 0.962297
vt 0.7598779 0.9998779
vt 0.7201221 0.9998779
vt 0.6801221 0.962297
vt 0.719878 0.962297
vt 0.719878 0.9998779
vt 0.6801221 0.9998779
vt 0.6401221 0.962297
vt 0.6798779 0.962297
vt 0.6798779 0.9998779
vt 0.6401221 0.9998779
vt 0.0001220703 0.6596966
vt 0.03987793 0.6596966
vt 0.03987793 0.6972774
vt 0.0001220703 0.6972774
vt 0.3198779 0.962297
vt 0.3198779 0.9998779
vt 0.2801221 0.9998779
vt 0.2801221 0.962297
vt 0.3198779 0.924472
vt 0.3198779 0.9620529
vt 0.2801221 0.9620529
vt 0.2801221 0.924472
vt 0.6001221 0.8109968
vt 0.6398779 0.8109968
vt 0.6398779 0.8485777
vt 0.6001221 0.8485777
vt 0.5601221 0.8109968
vt 0.599878 0.8109968
vt 0.599878 0.8485777
vt 0.5601221 0.8485777
vt 0.08012207 0.8866469
vt 0.1198779 0.8866469
vt 0.1198779 0.9242278
vt 0.08012207 0.9242278
vt 0.04012207 0.8866469
vt 0.07987793 0.8866469
vt 0.07987793 0.9242278
vt 0.04012207 0.9242278
vt 0.0001220703 0.8866469
vt 0.03987793 0.8866469
vt 0.03987793 0.9242278
vt 0.0001220703 0.9242278
vt 0.4001221 0.7731717
vt 0.4398779 0.7731717
vt 0.4398779 0.8107526
vt 0.4001221 0.8107526
vt 0.08012207 0.5462214
vt 0.1198779 0.5462214
vt 0.1198779 0.5838023
vt 0.08012207 0.5838023
vt 0.04012207 0.5462214
vt 0.07987793 0.5462214
vt 0.07987793 0.5838023
vt 0.04012207 0.5838023
vt 0.0001220703 0.5462214
vt 0.03987793 0.5462214
vt 0.03987793 0.5838023
vt 0.0001220703 0.5838023
vt 0.7201221 0.924472
vt 0.7598779 0.924472
vt 0.7598779 0.9620529
vt 0.7201221 0.9620529
vt 0.6801221 0.924472
vt 0.719878 0.924472
vt 0.719878 0.9620529
vt 0.6801221 0.9620529
vt 0.6401221 0.924472
vt 0.6798779 0.924472
vt 0.6798779 0.9620529
vt 0.6401221 0.9620529
vt 0.6001221 0.7731717
vt 0.6398779 0.7731717
vt 0.6398779 0.8107526
vt 0.6001221 0.8107526
vt 0.5601221 0.7731717
vt 0.599878 0.7731717
vt 0.599878 0.8107526
vt 0.5601221 0.8107526
vt 0.7201221 0.8866469
vt 0.7598779 0.8866469
vt 0.7598779 0.9242278
vt 0.7201221 0.9242278
vt 0.6801221 0.8866469
vt 0.719878 0.8866469
vt 0.719878 0.9242278
vt 0.6801221 0.9242278
vt 0.6401221 0.8866469
vt 0.6798779 0.8866469
vt 0.6798779 0.9242278
vt 0.6401221 0.9242278
vt 0.7201221 0.8488218
vt 0.7598779 0.8488218
vt 0.7598779 0.8864027
vt 0.7201221 0.8864027
vt 0.6801221 0.8488218
vt 0.719878 0.8488218
vt 0.719878 0.8864027
vt 0.6801221 0.8864027
vt 0.4801221 0.8109968
vt 0.5198779 0.8109968
vt 0.5198779 0.8485777
vt 0.4801221 0.8485777
vt 0.4401221 0.8109968
vt 0.4798779 0.8109968
vt 0.4798779 0.8485777
vt 0.4401221 0.8485777
vt 0.4001221 0.8109968
vt 0.4398779 0.8109968
vt 0.4398779 0.8485777
vt 0.4001221 0.8485777
vt 0.6401221 0.8488218
vt 0.6798779 0.8488218
vt 0.6798779 0.8864027
vt 0.6401221 0.8864027
vt 0.2401221 0.6218715
vt 0.2798779 0.6218715
vt 0.2798779 0.6594524
vt 0.2401221 0.6594524
vt 0.08012207 0.8109968
vt 0.1198779 0.8109968
vt 0.1198779 0.8485777
vt 0.08012207 0.8485777
vt 0.04012207 0.8109968
vt 0.07987793 0.8109968
vt 0.07987793 0.8485777
vt 0.04012207 0.8485777
vt 0.0001220703 0.8109968
vt 0.03987793 0.8109968
vt 0.03987793 0.8485777
vt 0.0001220703 0.8485777
vt 0.3601221 0.8866469
vt 0.3998779 0.8866469
vt 0.3998779 0.9242278
vt 0.3601221 0.9242278
vt 0.2801221 0.8866469
vt 0.3198779 0.8866469
vt 0.3198779 0.9242278
vt 0.2801221 0.9242278
vt 0.2401221 0.5840464
vt 0.2798779 0.5840464
vt 0.2798779 0.6216273
vt 0.2401221 0.6216273
vt 0.08012207 0.7731717
vt 0.1198779 0.7731717
vt 0.1198779 0.8107526
vt 0.08012207 0.8107526
vt 0.1601221 0.8109968
vt 0.1998779 0.8109968
vt 0.1998779 0.8485777
vt 0.1601221 0.8485777
vt 0.1201221 0.8109968
vt 0.1598779 0.8109968
vt 0.1598779 0.8485777
vt 0.1201221 0.8485777
vt 0.0001220703 0.7731717
vt 0.03987793 0.7731717
vt 0.03987793 0.8107526
vt 0.0001220703 0.8107526
vt 0.3601221 0.8109968
vt 0.3998779 0.8109968
vt 0.3998779 0.8485777
vt 0.3601221 0.8485777
vt 0.2801221 0.8109968
vt 0.3198779 0.8109968
vt 0.3198779 0.8485777
vt 0.2801221 0.8485777
vt 0.2401221 0.5462214
vt 0.2798779 0.5462214
vt 0.2798779 0.5838023
vt 0.2401221 0.5838023
vt 0.1601221 0.7731717
vt 0.1998779 0.7731717
vt 0.1998779 0.8107526
vt 0.1601221 0.8107526
vt 0.1201221 0.7731717
vt 0.1598779 0.7731717
vt 0.1598779 0.8107526
vt 0.1201221 0.8107526
vt 0.7201221 0.7353467
vt 0.7598779 0.7353467
vt 0.7598779 0.7729276
vt 0.7201221 0.7729276
vt 0.6801221 0.7353467
vt 0.719878 0.7353467
vt 0.719878 0.7729276
vt 0.6801221 0.7729276
vt 0.6401221 0.7353467
vt 0.6798779 0.7353467
vt 0.6798779 0.7729276
vt 0.6401221 0.7729276
vt 0.08012207 0.7353467
vt 0.1198779 0.7353467
vt 0.1198779 0.7729276
vt 0.08012207 0.7729276
vt 0.04012207 0.7353467
vt 0.07987793 0.7353467
vt 0.07987793 0.7729276
vt 0.04012207 0.7729276
vt 0.0001220703 0.7353467
vt 0.03987793 0.7353467
vt 0.03987793 0.7729276
vt 0.0001220703 0.7729276
vt 0.6001221 0.4705712
vt 0.6398779 0.4705712
vt 0.6398779 0.5081521
vt 0.6001221 0.5081521
vt 0.6398779 0.432502
vt 0.6001221 0.432502
vt 0.6001221 0.3949211
vt 0.6398779 0.3949211
vt 0.6001221 0.4327462
vt 0.6398779 0.4327462
vt 0.6398779 0.4703271
vt 0.6001221 0.4703271

# Normal
vn 0 0 -1

# Mesh description
g BalayNiJoel_mesh_0002

# Faces
f 1/1/1 2/2/1 3/3/1 4/4/1
f 5/5/1 6/6/1 7/7/1 8/8/1
f 9/9/1 10/10/1 11/11/1 12/12/1
f 13/13/1 14/14/1 15/15/1 16/16/1
f 17/17/1 18/18/1 19/19/1 20/20/1
f 21/21/1 22/22/1 23/23/1 24/24/1
f 25/25/1 26/26/1 27/27/1 28/28/1
f 29/29/1 30/30/1 31/31/1 32/32/1
f 33/33/1 34/34/1 35/35/1 36/36/1
f 37/37/1 38/38/1 39/39/1 40/40/1
f 41/41/1 42/42/1 43/43/1 44/44/1
f 45/45/1 46/46/1 47/47/1 48/48/1
f 49/49/1 50/50/1 51/51/1 52/52/1
f 53/49/1 54/50/1 55/51/1 56/52/1
f 57/49/1 58/50/1 59/51/1 60/52/1
f 61/49/1 62/50/1 63/51/1 64/52/1
f 65/49/1 66/50/1 67/51/1 68/52/1
f 69/49/1 70/50/1 71/51/1 72/52/1
f 73/49/1 74/50/1 75/51/1 76/52/1
f 77/53/1 78/54/1 79/55/1 80/56/1
f 81/33/1 82/34/1 83/35/1 84/36/1
f 85/37/1 86/38/1 87/39/1 88/40/1
f 89/57/1 90/58/1 91/59/1 92/60/1
f 93/61/1 94/62/1 95/63/1 96/64/1
f 97/65/1 98/66/1 99/67/1 100/68/1
f 101/69/1 102/70/1 103/71/1 104/72/1
f 105/73/1 106/74/1 107/75/1 108/76/1
f 109/77/1 110/78/1 111/79/1 112/80/1
f 113/81/1 114/82/1 115/83/1 116/84/1
f 117/85/1 118/86/1 119/87/1 120/88/1
f 121/89/1 122/90/1 123/91/1 124/92/1
f 125/67/1 126/68/1 127/65/1 128/66/1
f 129/63/1 130/64/1 131/61/1 132/62/1
f 133/61/1 134/62/1 135/63/1 136/64/1
f 137/65/1 138/66/1 139/67/1 140/68/1
f 141/93/1 142/94/1 143/95/1 144/96/1
f 145/97/1 146/98/1 147/99/1 148/100/1
f 149/101/1 150/102/1 151/103/1 152/104/1
f 153/105/1 154/106/1 155/107/1 156/108/1
f 157/109/1 158/110/1 159/111/1 160/112/1
f 161/109/1 162/110/1 163/111/1 164/112/1
f 165/109/1 166/110/1 167/111/1 168/112/1
f 169/109/1 170/110/1 171/111/1 172/112/1
f 173/109/1 174/110/1 175/111/1 176/112/1
f 177/109/1 178/110/1 179/111/1 180/112/1
f 181/109/1 182/110/1 183/111/1 184/112/1
f 185/113/1 186/114/1 187/115/1 188/116/1
f 189/93/1 190/94/1 191/95/1 192/96/1
f 193/97/1 194/98/1 195/99/1 196/100/1
f 197/101/1 198/102/1 199/103/1 200/104/1
f 201/67/1 202/68/1 203/65/1 204/66/1
f 205/63/1 206/64/1 207/61/1 208/62/1
f 209/117/1 210/118/1 211/119/1 212/120/1
f 213/121/1 214/122/1 215/123/1 216/124/1
f 217/89/1 218/90/1 219/91/1 220/92/1
f 221/125/1 222/126/1 223/127/1 224/128/1
f 225/129/1 226/130/1 227/131/1 228/132/1
f 229/129/1 230/130/1 231/131/1 232/132/1
f 233/129/1 234/130/1 235/131/1 236/132/1
f 237/129/1 238/130/1 239/131/1 240/132/1
f 241/129/1 242/130/1 243/131/1 244/132/1
f 245/129/1 246/130/1 247/131/1 248/132/1
f 249/129/1 250/130/1 251/131/1 252/132/1
f 253/133/1 254/134/1 255/135/1 256/136/1
f 257/137/1 258/138/1 259/139/1 260/140/1
f 261/141/1 262/142/1 263/143/1 264/144/1
f 265/145/1 266/146/1 267/147/1 268/148/1
f 269/149/1 270/150/1 271/151/1 272/152/1
f 273/153/1 274/154/1 275/155/1 276/156/1
f 277/157/1 278/158/1 279/159/1 280/160/1
f 281/161/1 282/162/1 283/163/1 284/164/1
f 285/165/1 286/166/1 287/167/1 288/168/1
f 289/169/1 290/170/1 291/171/1 292/172/1
f 293/169/1 294/170/1 295/171/1 296/172/1
f 297/173/1 298/174/1 299/175/1 300/176/1
f 301/177/1 302/178/1 303/179/1 304/180/1
f 305/181/1 306/182/1 307/183/1 308/184/1
f 309/185/1 310/186/1 311/187/1 312/188/1
f 313/189/1 314/190/1 315/191/1 316/192/1
f 317/193/1 318/194/1 319/195/1 320/196/1
f 321/197/1 322/198/1 323/199/1 324/200/1
f 325/201/1 326/202/1 327/203/1 328/204/1
f 329/205/1 330/206/1 331/207/1 332/208/1
f 333/209/1 334/210/1 335/211/1 336/212/1
f 337/213/1 338/214/1 339/215/1 340/216/1
f 341/189/1 342/190/1 343/191/1 344/192/1
f 345/217/1 346/218/1 347/219/1 348/220/1
f 349/221/1 350/222/1 351/223/1 352/224/1
f 353/201/1 354/202/1 355/203/1 356/204/1
f 357/225/1 358/226/1 359/227/1 360/228/1
f 361/229/1 362/230/1 363/231/1 364/232/1
f 365/229/1 366/230/1 367/231/1 368/232/1
f 369/229/1 370/230/1 371/231/1 372/232/1
f 373/233/1 374/234/1 375/235/1 376/236/1
f 377/237/1 378/238/1 379/239/1 380/240/1
f 381/241/1 382/242/1 383/243/1 384/244/1
f 385/241/1 386/242/1 387/243/1 388/244/1
f 389/245/1 390/246/1 391/247/1 392/248/1
f 393/249/1 394/250/1 395/251/1 396/252/1
f 397/253/1 398/254/1 399/255/1 400/256/1
f 401/257/1 402/258/1 403/259/1 404/260/1
f 405/259/1 406/260/1 407/257/1 408/258/1
f 409/255/1 410/256/1 411/253/1 412/254/1
f 413/251/1 414/252/1 415/249/1 416/250/1
f 417/61/1 418/62/1 419/63/1 420/64/1
f 421/65/1 422/66/1 423/67/1 424/68/1
f 425/67/1 426/68/1 427/65/1 428/66/1
f 429/63/1 430/64/1 431/61/1 432/62/1
f 433/61/1 434/62/1 435/63/1 436/64/1
f 437/65/1 438/66/1 439/67/1 440/68/1
f 441/165/1 442/166/1 443/167/1 444/168/1
f 445/169/1 446/170/1 447/171/1 448/172/1
f 449/173/1 450/174/1 451/175/1 452/176/1
f 453/67/1 454/68/1 455/65/1 456/66/1
f 457/63/1 458/64/1 459/61/1 460/62/1
f 461/237/1 462/238/1 463/239/1 464/240/1
f 465/241/1 466/242/1 467/243/1 468/244/1
f 469/245/1 470/246/1 471/247/1 472/248/1
f 473/254/1 474/255/1 475/256/1 476/253/1
f 477/260/1 478/257/1 479/258/1 480/259/1
f 481/252/1 482/249/1 483/250/1 484/251/1

