# Tiled2Unity generated file. Do not modify by hand.
# Wavefront file for 'BalayNiJoel_mesh_0003.obj'

# Vertices (Count = 16)
v -27 -2 0
v -28 -2 0
v -28 -1 0
v -27 -1 0
v -26 -2 0
v -27 -2 0
v -27 -1 0
v -26 -1 0
v -27 -3 0
v -28 -3 0
v -28 -2 0
v -27 -2 0
v -26 -3 0
v -27 -3 0
v -27 -2 0
v -26 -2 0

# Texture cooridinates (Count = 8)
vt 0.769953 0.02789986
vt 0.7905151 0.02789986
vt 0.7905151 0.05543351
vt 0.769953 0.05543351
vt 0.769953 0.0001220703
vt 0.7905151 0.0001220703
vt 0.7905151 0.02765572
vt 0.769953 0.02765572

# Normal
vn 0 0 -1

# Mesh description
g BalayNiJoel_mesh_0003

# Faces
f 1/1/1 2/2/1 3/3/1 4/4/1
f 5/1/1 6/2/1 7/3/1 8/4/1
f 9/5/1 10/6/1 11/7/1 12/8/1
f 13/5/1 14/6/1 15/7/1 16/8/1

