# Tiled2Unity generated file. Do not modify by hand.
# Wavefront file for 'GoingtoCelebesOil_mesh_0002.obj'

# Vertices (Count = 904)
v -28 -2 0
v -29 -2 0
v -29 -1 0
v -28 -1 0
v -27 -2 0
v -28 -2 0
v -28 -1 0
v -27 -1 0
v -7 -2 0
v -8 -2 0
v -8 -1 0
v -7 -1 0
v -6 -2 0
v -7 -2 0
v -7 -1 0
v -6 -1 0
v -5 -2 0
v -6 -2 0
v -6 -1 0
v -5 -1 0
v -4 -2 0
v -5 -2 0
v -5 -1 0
v -4 -1 0
v -3 -2 0
v -4 -2 0
v -4 -1 0
v -3 -1 0
v -2 -2 0
v -3 -2 0
v -3 -1 0
v -2 -1 0
v -1 -2 0
v -2 -2 0
v -2 -1 0
v -1 -1 0
v -28 -3 0
v -29 -3 0
v -29 -2 0
v -28 -2 0
v -27 -3 0
v -28 -3 0
v -28 -2 0
v -27 -2 0
v -11 -3 0
v -12 -3 0
v -12 -2 0
v -11 -2 0
v -7 -3 0
v -8 -3 0
v -8 -2 0
v -7 -2 0
v -6 -3 0
v -7 -3 0
v -7 -2 0
v -6 -2 0
v -5 -3 0
v -6 -3 0
v -6 -2 0
v -5 -2 0
v -4 -3 0
v -5 -3 0
v -5 -2 0
v -4 -2 0
v -3 -3 0
v -4 -3 0
v -4 -2 0
v -3 -2 0
v -2 -3 0
v -3 -3 0
v -3 -2 0
v -2 -2 0
v -1 -3 0
v -2 -3 0
v -2 -2 0
v -1 -2 0
v -7 -4 0
v -8 -4 0
v -8 -3 0
v -7 -3 0
v -6 -4 0
v -7 -4 0
v -7 -3 0
v -6 -3 0
v -5 -4 0
v -6 -4 0
v -6 -3 0
v -5 -3 0
v -4 -4 0
v -5 -4 0
v -5 -3 0
v -4 -3 0
v -3 -4 0
v -4 -4 0
v -4 -3 0
v -3 -3 0
v -2 -4 0
v -3 -4 0
v -3 -3 0
v -2 -3 0
v -1 -4 0
v -2 -4 0
v -2 -3 0
v -1 -3 0
v -7 -5 0
v -8 -5 0
v -8 -4 0
v -7 -4 0
v -6 -5 0
v -7 -5 0
v -7 -4 0
v -6 -4 0
v -5 -5 0
v -6 -5 0
v -6 -4 0
v -5 -4 0
v -4 -5 0
v -5 -5 0
v -5 -4 0
v -4 -4 0
v -3 -5 0
v -4 -5 0
v -4 -4 0
v -3 -4 0
v -2 -5 0
v -3 -5 0
v -3 -4 0
v -2 -4 0
v -1 -5 0
v -2 -5 0
v -2 -4 0
v -1 -4 0
v -7 -6 0
v -8 -6 0
v -8 -5 0
v -7 -5 0
v -6 -6 0
v -7 -6 0
v -7 -5 0
v -6 -5 0
v -5 -6 0
v -6 -6 0
v -6 -5 0
v -5 -5 0
v -4 -6 0
v -5 -6 0
v -5 -5 0
v -4 -5 0
v -3 -6 0
v -4 -6 0
v -4 -5 0
v -3 -5 0
v -2 -6 0
v -3 -6 0
v -3 -5 0
v -2 -5 0
v -1 -6 0
v -2 -6 0
v -2 -5 0
v -1 -5 0
v -48 -7 0
v -49 -7 0
v -49 -6 0
v -48 -6 0
v -47 -7 0
v -48 -7 0
v -48 -6 0
v -47 -6 0
v -24 -7 0
v -25 -7 0
v -25 -6 0
v -24 -6 0
v -23 -7 0
v -24 -7 0
v -24 -6 0
v -23 -6 0
v -7 -7 0
v -8 -7 0
v -8 -6 0
v -7 -6 0
v -6 -7 0
v -7 -7 0
v -7 -6 0
v -6 -6 0
v -5 -7 0
v -6 -7 0
v -6 -6 0
v -5 -6 0
v -4 -7 0
v -5 -7 0
v -5 -6 0
v -4 -6 0
v -3 -7 0
v -4 -7 0
v -4 -6 0
v -3 -6 0
v -2 -7 0
v -3 -7 0
v -3 -6 0
v -2 -6 0
v -1 -7 0
v -2 -7 0
v -2 -6 0
v -1 -6 0
v -17 -9 0
v -18 -9 0
v -18 -8 0
v -17 -8 0
v -16 -9 0
v -17 -9 0
v -17 -8 0
v -16 -8 0
v -20 -10 0
v -21 -10 0
v -21 -9 0
v -20 -9 0
v -17 -10 0
v -18 -10 0
v -18 -9 0
v -17 -9 0
v -16 -10 0
v -17 -10 0
v -17 -9 0
v -16 -9 0
v -48 -11 0
v -49 -11 0
v -49 -10 0
v -48 -10 0
v -33 -11 0
v -34 -11 0
v -34 -10 0
v -33 -10 0
v -32 -11 0
v -33 -11 0
v -33 -10 0
v -32 -10 0
v -12 -11 0
v -13 -11 0
v -13 -10 0
v -12 -10 0
v -11 -11 0
v -12 -11 0
v -12 -10 0
v -11 -10 0
v -33 -12 0
v -34 -12 0
v -34 -11 0
v -33 -11 0
v -32 -12 0
v -33 -12 0
v -33 -11 0
v -32 -11 0
v -43 -13 0
v -44 -13 0
v -44 -12 0
v -43 -12 0
v -42 -13 0
v -43 -13 0
v -43 -12 0
v -42 -12 0
v -43 -14 0
v -44 -14 0
v -44 -13 0
v -43 -13 0
v -42 -14 0
v -43 -14 0
v -43 -13 0
v -42 -13 0
v -19 -14 0
v -20 -14 0
v -20 -13 0
v -19 -13 0
v -4 -14 0
v -5 -14 0
v -5 -13 0
v -4 -13 0
v -3 -14 0
v -4 -14 0
v -4 -13 0
v -3 -13 0
v -8 -15 0
v -9 -15 0
v -9 -14 0
v -8 -14 0
v -4 -15 0
v -5 -15 0
v -5 -14 0
v -4 -14 0
v -3 -15 0
v -4 -15 0
v -4 -14 0
v -3 -14 0
v -47 -16 0
v -48 -16 0
v -48 -15 0
v -47 -15 0
v -46 -16 0
v -47 -16 0
v -47 -15 0
v -46 -15 0
v -19 -18 0
v -20 -18 0
v -20 -17 0
v -19 -17 0
v -18 -18 0
v -19 -18 0
v -19 -17 0
v -18 -17 0
v -3 -18 0
v -4 -18 0
v -4 -17 0
v -3 -17 0
v -19 -19 0
v -20 -19 0
v -20 -18 0
v -19 -18 0
v -18 -19 0
v -19 -19 0
v -19 -18 0
v -18 -18 0
v -47 -20 0
v -48 -20 0
v -48 -19 0
v -47 -19 0
v -32 -22 0
v -33 -22 0
v -33 -21 0
v -32 -21 0
v -31 -22 0
v -32 -22 0
v -32 -21 0
v -31 -21 0
v -43 -23 0
v -44 -23 0
v -44 -22 0
v -43 -22 0
v -42 -23 0
v -43 -23 0
v -43 -22 0
v -42 -22 0
v -41 -23 0
v -42 -23 0
v -42 -22 0
v -41 -22 0
v -40 -23 0
v -41 -23 0
v -41 -22 0
v -40 -22 0
v -28 -23 0
v -29 -23 0
v -29 -22 0
v -28 -22 0
v -27 -23 0
v -28 -23 0
v -28 -22 0
v -27 -22 0
v -26 -23 0
v -27 -23 0
v -27 -22 0
v -26 -22 0
v -25 -23 0
v -26 -23 0
v -26 -22 0
v -25 -22 0
v -4 -23 0
v -5 -23 0
v -5 -22 0
v -4 -22 0
v -3 -23 0
v -4 -23 0
v -4 -22 0
v -3 -22 0
v -47 -24 0
v -48 -24 0
v -48 -23 0
v -47 -23 0
v -46 -24 0
v -47 -24 0
v -47 -23 0
v -46 -23 0
v -37 -24 0
v -38 -24 0
v -38 -23 0
v -37 -23 0
v -36 -24 0
v -37 -24 0
v -37 -23 0
v -36 -23 0
v -24 -25 0
v -25 -25 0
v -25 -24 0
v -24 -24 0
v -23 -25 0
v -24 -25 0
v -24 -24 0
v -23 -24 0
v -20 -25 0
v -21 -25 0
v -21 -24 0
v -20 -24 0
v -19 -25 0
v -20 -25 0
v -20 -24 0
v -19 -24 0
v -18 -25 0
v -19 -25 0
v -19 -24 0
v -18 -24 0
v -17 -25 0
v -18 -25 0
v -18 -24 0
v -17 -24 0
v -14 -25 0
v -15 -25 0
v -15 -24 0
v -14 -24 0
v -13 -25 0
v -14 -25 0
v -14 -24 0
v -13 -24 0
v -10 -25 0
v -11 -25 0
v -11 -24 0
v -10 -24 0
v -9 -25 0
v -10 -25 0
v -10 -24 0
v -9 -24 0
v -8 -25 0
v -9 -25 0
v -9 -24 0
v -8 -24 0
v -7 -25 0
v -8 -25 0
v -8 -24 0
v -7 -24 0
v -7 -28 0
v -8 -28 0
v -8 -27 0
v -7 -27 0
v -6 -28 0
v -7 -28 0
v -7 -27 0
v -6 -27 0
v -7 -30 0
v -8 -30 0
v -8 -29 0
v -7 -29 0
v -6 -30 0
v -7 -30 0
v -7 -29 0
v -6 -29 0
v -48 -32 0
v -49 -32 0
v -49 -31 0
v -48 -31 0
v -2 -32 0
v -3 -32 0
v -3 -31 0
v -2 -31 0
v -1 -32 0
v -2 -32 0
v -2 -31 0
v -1 -31 0
v -5 -33 0
v -6 -33 0
v -6 -32 0
v -5 -32 0
v -4 -33 0
v -5 -33 0
v -5 -32 0
v -4 -32 0
v -48 -34 0
v -49 -34 0
v -49 -33 0
v -48 -33 0
v -47 -34 0
v -48 -34 0
v -48 -33 0
v -47 -33 0
v -33 -34 0
v -34 -34 0
v -34 -33 0
v -33 -33 0
v -32 -34 0
v -33 -34 0
v -33 -33 0
v -32 -33 0
v -48 -35 0
v -49 -35 0
v -49 -34 0
v -48 -34 0
v -47 -35 0
v -48 -35 0
v -48 -34 0
v -47 -34 0
v -33 -35 0
v -34 -35 0
v -34 -34 0
v -33 -34 0
v -32 -35 0
v -33 -35 0
v -33 -34 0
v -32 -34 0
v -43 -37 0
v -44 -37 0
v -44 -36 0
v -43 -36 0
v -42 -37 0
v -43 -37 0
v -43 -36 0
v -42 -36 0
v -26 -37 0
v -27 -37 0
v -27 -36 0
v -26 -36 0
v -25 -37 0
v -26 -37 0
v -26 -36 0
v -25 -36 0
v -24 -37 0
v -25 -37 0
v -25 -36 0
v -24 -36 0
v -23 -37 0
v -24 -37 0
v -24 -36 0
v -23 -36 0
v -2 -37 0
v -3 -37 0
v -3 -36 0
v -2 -36 0
v -41 -38 0
v -42 -38 0
v -42 -37 0
v -41 -37 0
v -40 -38 0
v -41 -38 0
v -41 -37 0
v -40 -37 0
v -41 -41 0
v -42 -41 0
v -42 -40 0
v -41 -40 0
v -18 -41 0
v -19 -41 0
v -19 -40 0
v -18 -40 0
v -17 -41 0
v -18 -41 0
v -18 -40 0
v -17 -40 0
v -16 -41 0
v -17 -41 0
v -17 -40 0
v -16 -40 0
v -15 -41 0
v -16 -41 0
v -16 -40 0
v -15 -40 0
v -48 -42 0
v -49 -42 0
v -49 -41 0
v -48 -41 0
v -47 -42 0
v -48 -42 0
v -48 -41 0
v -47 -41 0
v -46 -42 0
v -47 -42 0
v -47 -41 0
v -46 -41 0
v -45 -42 0
v -46 -42 0
v -46 -41 0
v -45 -41 0
v -44 -42 0
v -45 -42 0
v -45 -41 0
v -44 -41 0
v -43 -42 0
v -44 -42 0
v -44 -41 0
v -43 -41 0
v -42 -42 0
v -43 -42 0
v -43 -41 0
v -42 -41 0
v -41 -42 0
v -42 -42 0
v -42 -41 0
v -41 -41 0
v -33 -42 0
v -34 -42 0
v -34 -41 0
v -33 -41 0
v -32 -42 0
v -33 -42 0
v -33 -41 0
v -32 -41 0
v -13 -42 0
v -14 -42 0
v -14 -41 0
v -13 -41 0
v -12 -42 0
v -13 -42 0
v -13 -41 0
v -12 -41 0
v -8 -42 0
v -9 -42 0
v -9 -41 0
v -8 -41 0
v -7 -42 0
v -8 -42 0
v -8 -41 0
v -7 -41 0
v -48 -43 0
v -49 -43 0
v -49 -42 0
v -48 -42 0
v -47 -43 0
v -48 -43 0
v -48 -42 0
v -47 -42 0
v -46 -43 0
v -47 -43 0
v -47 -42 0
v -46 -42 0
v -45 -43 0
v -46 -43 0
v -46 -42 0
v -45 -42 0
v -44 -43 0
v -45 -43 0
v -45 -42 0
v -44 -42 0
v -43 -43 0
v -44 -43 0
v -44 -42 0
v -43 -42 0
v -42 -43 0
v -43 -43 0
v -43 -42 0
v -42 -42 0
v -41 -43 0
v -42 -43 0
v -42 -42 0
v -41 -42 0
v -21 -43 0
v -22 -43 0
v -22 -42 0
v -21 -42 0
v -13 -43 0
v -14 -43 0
v -14 -42 0
v -13 -42 0
v -12 -43 0
v -13 -43 0
v -13 -42 0
v -12 -42 0
v -48 -44 0
v -49 -44 0
v -49 -43 0
v -48 -43 0
v -47 -44 0
v -48 -44 0
v -48 -43 0
v -47 -43 0
v -46 -44 0
v -47 -44 0
v -47 -43 0
v -46 -43 0
v -45 -44 0
v -46 -44 0
v -46 -43 0
v -45 -43 0
v -44 -44 0
v -45 -44 0
v -45 -43 0
v -44 -43 0
v -43 -44 0
v -44 -44 0
v -44 -43 0
v -43 -43 0
v -42 -44 0
v -43 -44 0
v -43 -43 0
v -42 -43 0
v -41 -44 0
v -42 -44 0
v -42 -43 0
v -41 -43 0
v -48 -45 0
v -49 -45 0
v -49 -44 0
v -48 -44 0
v -47 -45 0
v -48 -45 0
v -48 -44 0
v -47 -44 0
v -46 -45 0
v -47 -45 0
v -47 -44 0
v -46 -44 0
v -45 -45 0
v -46 -45 0
v -46 -44 0
v -45 -44 0
v -44 -45 0
v -45 -45 0
v -45 -44 0
v -44 -44 0
v -43 -45 0
v -44 -45 0
v -44 -44 0
v -43 -44 0
v -42 -45 0
v -43 -45 0
v -43 -44 0
v -42 -44 0
v -41 -45 0
v -42 -45 0
v -42 -44 0
v -41 -44 0
v -48 -46 0
v -49 -46 0
v -49 -45 0
v -48 -45 0
v -47 -46 0
v -48 -46 0
v -48 -45 0
v -47 -45 0
v -46 -46 0
v -47 -46 0
v -47 -45 0
v -46 -45 0
v -45 -46 0
v -46 -46 0
v -46 -45 0
v -45 -45 0
v -44 -46 0
v -45 -46 0
v -45 -45 0
v -44 -45 0
v -43 -46 0
v -44 -46 0
v -44 -45 0
v -43 -45 0
v -42 -46 0
v -43 -46 0
v -43 -45 0
v -42 -45 0
v -41 -46 0
v -42 -46 0
v -42 -45 0
v -41 -45 0
v -48 -47 0
v -49 -47 0
v -49 -46 0
v -48 -46 0
v -47 -47 0
v -48 -47 0
v -48 -46 0
v -47 -46 0
v -46 -47 0
v -47 -47 0
v -47 -46 0
v -46 -46 0
v -45 -47 0
v -46 -47 0
v -46 -46 0
v -45 -46 0
v -44 -47 0
v -45 -47 0
v -45 -46 0
v -44 -46 0
v -43 -47 0
v -44 -47 0
v -44 -46 0
v -43 -46 0
v -42 -47 0
v -43 -47 0
v -43 -46 0
v -42 -46 0
v -41 -47 0
v -42 -47 0
v -42 -46 0
v -41 -46 0
v -21 -47 0
v -22 -47 0
v -22 -46 0
v -21 -46 0
v -20 -47 0
v -21 -47 0
v -21 -46 0
v -20 -46 0
v -19 -47 0
v -20 -47 0
v -20 -46 0
v -19 -46 0
v -18 -47 0
v -19 -47 0
v -19 -46 0
v -18 -46 0
v -48 -48 0
v -49 -48 0
v -49 -47 0
v -48 -47 0
v -47 -48 0
v -48 -48 0
v -48 -47 0
v -47 -47 0
v -46 -48 0
v -47 -48 0
v -47 -47 0
v -46 -47 0
v -45 -48 0
v -46 -48 0
v -46 -47 0
v -45 -47 0
v -44 -48 0
v -45 -48 0
v -45 -47 0
v -44 -47 0
v -43 -48 0
v -44 -48 0
v -44 -47 0
v -43 -47 0
v -42 -48 0
v -43 -48 0
v -43 -47 0
v -42 -47 0
v -41 -48 0
v -42 -48 0
v -42 -47 0
v -41 -47 0
v -38 -48 0
v -39 -48 0
v -39 -47 0
v -38 -47 0
v -37 -48 0
v -38 -48 0
v -38 -47 0
v -37 -47 0
v -24 -48 0
v -25 -48 0
v -25 -47 0
v -24 -47 0
v -19 -48 0
v -20 -48 0
v -20 -47 0
v -19 -47 0
v -18 -48 0
v -19 -48 0
v -19 -47 0
v -18 -47 0
v -7 -48 0
v -8 -48 0
v -8 -47 0
v -7 -47 0
v -6 -48 0
v -7 -48 0
v -7 -47 0
v -6 -47 0
v -48 -49 0
v -49 -49 0
v -49 -48 0
v -48 -48 0
v -47 -49 0
v -48 -49 0
v -48 -48 0
v -47 -48 0
v -46 -49 0
v -47 -49 0
v -47 -48 0
v -46 -48 0
v -45 -49 0
v -46 -49 0
v -46 -48 0
v -45 -48 0
v -44 -49 0
v -45 -49 0
v -45 -48 0
v -44 -48 0
v -43 -49 0
v -44 -49 0
v -44 -48 0
v -43 -48 0
v -42 -49 0
v -43 -49 0
v -43 -48 0
v -42 -48 0
v -41 -49 0
v -42 -49 0
v -42 -48 0
v -41 -48 0
v -16 -49 0
v -17 -49 0
v -17 -48 0
v -16 -48 0
v -15 -49 0
v -16 -49 0
v -16 -48 0
v -15 -48 0

# Texture cooridinates (Count = 66)
vt 0.1040312 0.9444444
vt 0.1248375 0.9444444
vt 0.1248375 0.9722222
vt 0.1040312 0.9722222
vt 0.08322497 0.9444444
vt 0.08322497 0.9722222
vt 0.04161248 0.3888889
vt 0.06241873 0.3888889
vt 0.06241873 0.4166667
vt 0.04161248 0.4166667
vt 0.02080624 0.3888889
vt 0.02080624 0.4166667
vt 0 0.3888889
vt 0 0.4166667
vt 0.1040312 0.9166667
vt 0.1248375 0.9166667
vt 0.08322497 0.9166667
vt 0.02080624 0.9722222
vt 0.04161248 0.9722222
vt 0.04161248 1
vt 0.02080624 1
vt 0.04161248 0.3611111
vt 0.06241873 0.3611111
vt 0 0.2222222
vt 0.02080624 0.2222222
vt 0.02080624 0.25
vt 0 0.25
vt 0.04161248 0.25
vt 0.04161248 0.2777778
vt 0.02080624 0.2777778
vt 0.04161248 0.2222222
vt 0 0.3611111
vt 0.02080624 0.3611111
vt 0 0.2777778
vt 0.1248375 0.5
vt 0.1456437 0.5
vt 0.1456437 0.5277778
vt 0.1248375 0.5277778
vt 0.1040312 0.5
vt 0.1040312 0.5277778
vt 0.04161248 0.3333333
vt 0.06241873 0.3333333
vt 0.02080624 0.3333333
vt 0 0.3333333
vt 0.02080624 0.75
vt 0.04161248 0.75
vt 0.04161248 0.7777778
vt 0.02080624 0.7777778
vt 0 0.75
vt 0 0.7777778
vt 0.3537061 0.08333331
vt 0.3745123 0.08333331
vt 0.3745123 0.1111111
vt 0.3537061 0.1111111
vt 0.3328999 0.08333331
vt 0.3328999 0.1111111
vt 0.06241873 0
vt 0.08322497 0
vt 0.08322497 0.02777779
vt 0.06241873 0.02777779
vt 0.04161248 0
vt 0.04161248 0.02777779
vt 0.02080624 0
vt 0.02080624 0.02777779
vt 0 0
vt 0 0.02777779

# Normal
vn 0 0 -1

# Mesh description
g GoingtoCelebesOil_mesh_0002

# Faces
f 1/1/1 2/2/1 3/3/1 4/4/1
f 5/5/1 6/1/1 7/4/1 8/6/1
f 9/7/1 10/8/1 11/9/1 12/10/1
f 13/11/1 14/7/1 15/10/1 16/12/1
f 17/11/1 18/7/1 19/10/1 20/12/1
f 21/11/1 22/7/1 23/10/1 24/12/1
f 25/11/1 26/7/1 27/10/1 28/12/1
f 29/11/1 30/7/1 31/10/1 32/12/1
f 33/13/1 34/11/1 35/12/1 36/14/1
f 37/15/1 38/16/1 39/2/1 40/1/1
f 41/17/1 42/15/1 43/1/1 44/5/1
f 45/18/1 46/19/1 47/20/1 48/21/1
f 49/22/1 50/23/1 51/8/1 52/7/1
f 53/24/1 54/25/1 55/26/1 56/27/1
f 57/26/1 58/28/1 59/29/1 60/30/1
f 61/24/1 62/25/1 63/26/1 64/27/1
f 65/25/1 66/31/1 67/28/1 68/26/1
f 69/26/1 70/28/1 71/29/1 72/30/1
f 73/32/1 74/33/1 75/11/1 76/13/1
f 77/22/1 78/23/1 79/8/1 80/7/1
f 81/27/1 82/26/1 83/30/1 84/34/1
f 85/26/1 86/28/1 87/29/1 88/30/1
f 89/24/1 90/25/1 91/26/1 92/27/1
f 93/24/1 94/25/1 95/26/1 96/27/1
f 97/25/1 98/31/1 99/28/1 100/26/1
f 101/32/1 102/33/1 103/11/1 104/13/1
f 105/22/1 106/23/1 107/8/1 108/7/1
f 109/26/1 110/28/1 111/29/1 112/30/1
f 113/24/1 114/25/1 115/26/1 116/27/1
f 117/24/1 118/25/1 119/26/1 120/27/1
f 121/27/1 122/26/1 123/30/1 124/34/1
f 125/27/1 126/26/1 127/30/1 128/34/1
f 129/32/1 130/33/1 131/11/1 132/13/1
f 133/22/1 134/23/1 135/8/1 136/7/1
f 137/27/1 138/26/1 139/30/1 140/34/1
f 141/25/1 142/31/1 143/28/1 144/26/1
f 145/24/1 146/25/1 147/26/1 148/27/1
f 149/26/1 150/28/1 151/29/1 152/30/1
f 153/27/1 154/26/1 155/30/1 156/34/1
f 157/32/1 158/33/1 159/11/1 160/13/1
f 161/35/1 162/36/1 163/37/1 164/38/1
f 165/39/1 166/35/1 167/38/1 168/40/1
f 169/35/1 170/36/1 171/37/1 172/38/1
f 173/39/1 174/35/1 175/38/1 176/40/1
f 177/41/1 178/42/1 179/23/1 180/22/1
f 181/43/1 182/41/1 183/22/1 184/33/1
f 185/43/1 186/41/1 187/22/1 188/33/1
f 189/43/1 190/41/1 191/22/1 192/33/1
f 193/43/1 194/41/1 195/22/1 196/33/1
f 197/43/1 198/41/1 199/22/1 200/33/1
f 201/44/1 202/43/1 203/33/1 204/32/1
f 205/45/1 206/46/1 207/47/1 208/48/1
f 209/49/1 210/45/1 211/48/1 212/50/1
f 213/18/1 214/19/1 215/20/1 216/21/1
f 217/45/1 218/46/1 219/47/1 220/48/1
f 221/49/1 222/45/1 223/48/1 224/50/1
f 225/18/1 226/19/1 227/20/1 228/21/1
f 229/1/1 230/2/1 231/3/1 232/4/1
f 233/5/1 234/1/1 235/4/1 236/6/1
f 237/35/1 238/36/1 239/37/1 240/38/1
f 241/39/1 242/35/1 243/38/1 244/40/1
f 245/15/1 246/16/1 247/2/1 248/1/1
f 249/17/1 250/15/1 251/1/1 252/5/1
f 253/1/1 254/2/1 255/3/1 256/4/1
f 257/5/1 258/1/1 259/4/1 260/6/1
f 261/15/1 262/16/1 263/2/1 264/1/1
f 265/17/1 266/15/1 267/1/1 268/5/1
f 269/18/1 270/19/1 271/20/1 272/21/1
f 273/1/1 274/2/1 275/3/1 276/4/1
f 277/5/1 278/1/1 279/4/1 280/6/1
f 281/18/1 282/19/1 283/20/1 284/21/1
f 285/15/1 286/16/1 287/2/1 288/1/1
f 289/17/1 290/15/1 291/1/1 292/5/1
f 293/35/1 294/36/1 295/37/1 296/38/1
f 297/39/1 298/35/1 299/38/1 300/40/1
f 301/1/1 302/2/1 303/3/1 304/4/1
f 305/5/1 306/1/1 307/4/1 308/6/1
f 309/18/1 310/19/1 311/20/1 312/21/1
f 313/15/1 314/16/1 315/2/1 316/1/1
f 317/17/1 318/15/1 319/1/1 320/5/1
f 321/18/1 322/19/1 323/20/1 324/21/1
f 325/51/1 326/52/1 327/53/1 328/54/1
f 329/55/1 330/51/1 331/54/1 332/56/1
f 333/57/1 334/58/1 335/59/1 336/60/1
f 337/61/1 338/57/1 339/60/1 340/62/1
f 341/63/1 342/61/1 343/62/1 344/64/1
f 345/65/1 346/63/1 347/64/1 348/66/1
f 349/57/1 350/58/1 351/59/1 352/60/1
f 353/61/1 354/57/1 355/60/1 356/62/1
f 357/63/1 358/61/1 359/62/1 360/64/1
f 361/65/1 362/63/1 363/64/1 364/66/1
f 365/51/1 366/52/1 367/53/1 368/54/1
f 369/55/1 370/51/1 371/54/1 372/56/1
f 373/51/1 374/52/1 375/53/1 376/54/1
f 377/55/1 378/51/1 379/54/1 380/56/1
f 381/51/1 382/52/1 383/53/1 384/54/1
f 385/55/1 386/51/1 387/54/1 388/56/1
f 389/51/1 390/52/1 391/53/1 392/54/1
f 393/55/1 394/51/1 395/54/1 396/56/1
f 397/57/1 398/58/1 399/59/1 400/60/1
f 401/61/1 402/57/1 403/60/1 404/62/1
f 405/63/1 406/61/1 407/62/1 408/64/1
f 409/65/1 410/63/1 411/64/1 412/66/1
f 413/51/1 414/52/1 415/53/1 416/54/1
f 417/55/1 418/51/1 419/54/1 420/56/1
f 421/57/1 422/58/1 423/59/1 424/60/1
f 425/61/1 426/57/1 427/60/1 428/62/1
f 429/63/1 430/61/1 431/62/1 432/64/1
f 433/65/1 434/63/1 435/64/1 436/66/1
f 437/45/1 438/46/1 439/47/1 440/48/1
f 441/49/1 442/45/1 443/48/1 444/50/1
f 445/45/1 446/46/1 447/47/1 448/48/1
f 449/49/1 450/45/1 451/48/1 452/50/1
f 453/18/1 454/19/1 455/20/1 456/21/1
f 457/45/1 458/46/1 459/47/1 460/48/1
f 461/49/1 462/45/1 463/48/1 464/50/1
f 465/45/1 466/46/1 467/47/1 468/48/1
f 469/49/1 470/45/1 471/48/1 472/50/1
f 473/1/1 474/2/1 475/3/1 476/4/1
f 477/5/1 478/1/1 479/4/1 480/6/1
f 481/1/1 482/2/1 483/3/1 484/4/1
f 485/5/1 486/1/1 487/4/1 488/6/1
f 489/15/1 490/16/1 491/2/1 492/1/1
f 493/17/1 494/15/1 495/1/1 496/5/1
f 497/15/1 498/16/1 499/2/1 500/1/1
f 501/17/1 502/15/1 503/1/1 504/5/1
f 505/45/1 506/46/1 507/47/1 508/48/1
f 509/49/1 510/45/1 511/48/1 512/50/1
f 513/57/1 514/58/1 515/59/1 516/60/1
f 517/61/1 518/57/1 519/60/1 520/62/1
f 521/63/1 522/61/1 523/62/1 524/64/1
f 525/65/1 526/63/1 527/64/1 528/66/1
f 529/18/1 530/19/1 531/20/1 532/21/1
f 533/45/1 534/46/1 535/47/1 536/48/1
f 537/49/1 538/45/1 539/48/1 540/50/1
f 541/18/1 542/19/1 543/20/1 544/21/1
f 545/57/1 546/58/1 547/59/1 548/60/1
f 549/61/1 550/57/1 551/60/1 552/62/1
f 553/63/1 554/61/1 555/62/1 556/64/1
f 557/65/1 558/63/1 559/64/1 560/66/1
f 561/7/1 562/8/1 563/9/1 564/10/1
f 565/11/1 566/7/1 567/10/1 568/12/1
f 569/11/1 570/7/1 571/10/1 572/12/1
f 573/11/1 574/7/1 575/10/1 576/12/1
f 577/11/1 578/7/1 579/10/1 580/12/1
f 581/11/1 582/7/1 583/10/1 584/12/1
f 585/11/1 586/7/1 587/10/1 588/12/1
f 589/13/1 590/11/1 591/12/1 592/14/1
f 593/35/1 594/36/1 595/37/1 596/38/1
f 597/39/1 598/35/1 599/38/1 600/40/1
f 601/1/1 602/2/1 603/3/1 604/4/1
f 605/5/1 606/1/1 607/4/1 608/6/1
f 609/35/1 610/36/1 611/37/1 612/38/1
f 613/39/1 614/35/1 615/38/1 616/40/1
f 617/22/1 618/23/1 619/8/1 620/7/1
f 621/26/1 622/28/1 623/29/1 624/30/1
f 625/26/1 626/28/1 627/29/1 628/30/1
f 629/26/1 630/28/1 631/29/1 632/30/1
f 633/25/1 634/31/1 635/28/1 636/26/1
f 637/27/1 638/26/1 639/30/1 640/34/1
f 641/26/1 642/28/1 643/29/1 644/30/1
f 645/32/1 646/33/1 647/11/1 648/13/1
f 649/18/1 650/19/1 651/20/1 652/21/1
f 653/15/1 654/16/1 655/2/1 656/1/1
f 657/17/1 658/15/1 659/1/1 660/5/1
f 661/22/1 662/23/1 663/8/1 664/7/1
f 665/25/1 666/31/1 667/28/1 668/26/1
f 669/27/1 670/26/1 671/30/1 672/34/1
f 673/24/1 674/25/1 675/26/1 676/27/1
f 677/26/1 678/28/1 679/29/1 680/30/1
f 681/24/1 682/25/1 683/26/1 684/27/1
f 685/26/1 686/28/1 687/29/1 688/30/1
f 689/32/1 690/33/1 691/11/1 692/13/1
f 693/22/1 694/23/1 695/8/1 696/7/1
f 697/26/1 698/28/1 699/29/1 700/30/1
f 701/26/1 702/28/1 703/29/1 704/30/1
f 705/26/1 706/28/1 707/29/1 708/30/1
f 709/24/1 710/25/1 711/26/1 712/27/1
f 713/25/1 714/31/1 715/28/1 716/26/1
f 717/27/1 718/26/1 719/30/1 720/34/1
f 721/32/1 722/33/1 723/11/1 724/13/1
f 725/22/1 726/23/1 727/8/1 728/7/1
f 729/27/1 730/26/1 731/30/1 732/34/1
f 733/24/1 734/25/1 735/26/1 736/27/1
f 737/27/1 738/26/1 739/30/1 740/34/1
f 741/27/1 742/26/1 743/30/1 744/34/1
f 745/27/1 746/26/1 747/30/1 748/34/1
f 749/24/1 750/25/1 751/26/1 752/27/1
f 753/32/1 754/33/1 755/11/1 756/13/1
f 757/22/1 758/23/1 759/8/1 760/7/1
f 761/25/1 762/31/1 763/28/1 764/26/1
f 765/27/1 766/26/1 767/30/1 768/34/1
f 769/25/1 770/31/1 771/28/1 772/26/1
f 773/26/1 774/28/1 775/29/1 776/30/1
f 777/26/1 778/28/1 779/29/1 780/30/1
f 781/26/1 782/28/1 783/29/1 784/30/1
f 785/32/1 786/33/1 787/11/1 788/13/1
f 789/45/1 790/46/1 791/47/1 792/48/1
f 793/49/1 794/45/1 795/48/1 796/50/1
f 797/45/1 798/46/1 799/47/1 800/48/1
f 801/49/1 802/45/1 803/48/1 804/50/1
f 805/22/1 806/23/1 807/8/1 808/7/1
f 809/25/1 810/31/1 811/28/1 812/26/1
f 813/24/1 814/25/1 815/26/1 816/27/1
f 817/26/1 818/28/1 819/29/1 820/30/1
f 821/25/1 822/31/1 823/28/1 824/26/1
f 825/26/1 826/28/1 827/29/1 828/30/1
f 829/27/1 830/26/1 831/30/1 832/34/1
f 833/32/1 834/33/1 835/11/1 836/13/1
f 837/51/1 838/52/1 839/53/1 840/54/1
f 841/55/1 842/51/1 843/54/1 844/56/1
f 845/18/1 846/19/1 847/20/1 848/21/1
f 849/45/1 850/46/1 851/47/1 852/48/1
f 853/49/1 854/45/1 855/48/1 856/50/1
f 857/51/1 858/52/1 859/53/1 860/54/1
f 861/55/1 862/51/1 863/54/1 864/56/1
f 865/41/1 866/42/1 867/23/1 868/22/1
f 869/43/1 870/41/1 871/22/1 872/33/1
f 873/43/1 874/41/1 875/22/1 876/33/1
f 877/43/1 878/41/1 879/22/1 880/33/1
f 881/43/1 882/41/1 883/22/1 884/33/1
f 885/43/1 886/41/1 887/22/1 888/33/1
f 889/43/1 890/41/1 891/22/1 892/33/1
f 893/44/1 894/43/1 895/33/1 896/32/1
f 897/35/1 898/36/1 899/37/1 900/38/1
f 901/39/1 902/35/1 903/38/1 904/40/1

