# Tiled2Unity generated file. Do not modify by hand.
# Wavefront file for 'UbosMargies_mesh_0002.obj'

# Vertices (Count = 868)
v -49 -1 0
v -50 -1 0
v -50 0 0
v -49 0 0
v -46 -1 0
v -47 -1 0
v -47 0 0
v -46 0 0
v -45 -1 0
v -46 -1 0
v -46 0 0
v -45 0 0
v -42 -1 0
v -43 -1 0
v -43 0 0
v -42 0 0
v -41 -1 0
v -42 -1 0
v -42 0 0
v -41 0 0
v -40 -1 0
v -41 -1 0
v -41 0 0
v -40 0 0
v -4 -1 0
v -5 -1 0
v -5 0 0
v -4 0 0
v -3 -1 0
v -4 -1 0
v -4 0 0
v -3 0 0
v -2 -1 0
v -3 -1 0
v -3 0 0
v -2 0 0
v 0 -1 0
v -1 -1 0
v -1 0 0
v 0 0 0
v -49 -2 0
v -50 -2 0
v -50 -1 0
v -49 -1 0
v -46 -2 0
v -47 -2 0
v -47 -1 0
v -46 -1 0
v -45 -2 0
v -46 -2 0
v -46 -1 0
v -45 -1 0
v -41 -2 0
v -42 -2 0
v -42 -1 0
v -41 -1 0
v -2 -2 0
v -3 -2 0
v -3 -1 0
v -2 -1 0
v -1 -2 0
v -2 -2 0
v -2 -1 0
v -1 -1 0
v -49 -3 0
v -50 -3 0
v -50 -2 0
v -49 -2 0
v -46 -3 0
v -47 -3 0
v -47 -2 0
v -46 -2 0
v -45 -3 0
v -46 -3 0
v -46 -2 0
v -45 -2 0
v -3 -3 0
v -4 -3 0
v -4 -2 0
v -3 -2 0
v -1 -3 0
v -2 -3 0
v -2 -2 0
v -1 -2 0
v -49 -4 0
v -50 -4 0
v -50 -3 0
v -49 -3 0
v -46 -4 0
v -47 -4 0
v -47 -3 0
v -46 -3 0
v -45 -4 0
v -46 -4 0
v -46 -3 0
v -45 -3 0
v -1 -4 0
v -2 -4 0
v -2 -3 0
v -1 -3 0
v 0 -4 0
v -1 -4 0
v -1 -3 0
v 0 -3 0
v -49 -5 0
v -50 -5 0
v -50 -4 0
v -49 -4 0
v -45 -5 0
v -46 -5 0
v -46 -4 0
v -45 -4 0
v -30 -5 0
v -31 -5 0
v -31 -4 0
v -30 -4 0
v -29 -5 0
v -30 -5 0
v -30 -4 0
v -29 -4 0
v -2 -5 0
v -3 -5 0
v -3 -4 0
v -2 -4 0
v -1 -5 0
v -2 -5 0
v -2 -4 0
v -1 -4 0
v 0 -5 0
v -1 -5 0
v -1 -4 0
v 0 -4 0
v -49 -6 0
v -50 -6 0
v -50 -5 0
v -49 -5 0
v -46 -6 0
v -47 -6 0
v -47 -5 0
v -46 -5 0
v -45 -6 0
v -46 -6 0
v -46 -5 0
v -45 -5 0
v -31 -6 0
v -32 -6 0
v -32 -5 0
v -31 -5 0
v -30 -6 0
v -31 -6 0
v -31 -5 0
v -30 -5 0
v -29 -6 0
v -30 -6 0
v -30 -5 0
v -29 -5 0
v -2 -6 0
v -3 -6 0
v -3 -5 0
v -2 -5 0
v -1 -6 0
v -2 -6 0
v -2 -5 0
v -1 -5 0
v -49 -7 0
v -50 -7 0
v -50 -6 0
v -49 -6 0
v -46 -7 0
v -47 -7 0
v -47 -6 0
v -46 -6 0
v -30 -7 0
v -31 -7 0
v -31 -6 0
v -30 -6 0
v -17 -7 0
v -18 -7 0
v -18 -6 0
v -17 -6 0
v -1 -7 0
v -2 -7 0
v -2 -6 0
v -1 -6 0
v 0 -7 0
v -1 -7 0
v -1 -6 0
v 0 -6 0
v -49 -8 0
v -50 -8 0
v -50 -7 0
v -49 -7 0
v -46 -8 0
v -47 -8 0
v -47 -7 0
v -46 -7 0
v -49 -9 0
v -50 -9 0
v -50 -8 0
v -49 -8 0
v -49 -10 0
v -50 -10 0
v -50 -9 0
v -49 -9 0
v -25 -14 0
v -26 -14 0
v -26 -13 0
v -25 -13 0
v -24 -14 0
v -25 -14 0
v -25 -13 0
v -24 -13 0
v 0 -15 0
v -1 -15 0
v -1 -14 0
v 0 -14 0
v -48 -16 0
v -49 -16 0
v -49 -15 0
v -48 -15 0
v 0 -16 0
v -1 -16 0
v -1 -15 0
v 0 -15 0
v -47 -17 0
v -48 -17 0
v -48 -16 0
v -47 -16 0
v -46 -17 0
v -47 -17 0
v -47 -16 0
v -46 -16 0
v -45 -17 0
v -46 -17 0
v -46 -16 0
v -45 -16 0
v 0 -17 0
v -1 -17 0
v -1 -16 0
v 0 -16 0
v -48 -18 0
v -49 -18 0
v -49 -17 0
v -48 -17 0
v -47 -18 0
v -48 -18 0
v -48 -17 0
v -47 -17 0
v -46 -18 0
v -47 -18 0
v -47 -17 0
v -46 -17 0
v 0 -18 0
v -1 -18 0
v -1 -17 0
v 0 -17 0
v -48 -19 0
v -49 -19 0
v -49 -18 0
v -48 -18 0
v -47 -19 0
v -48 -19 0
v -48 -18 0
v -47 -18 0
v -46 -19 0
v -47 -19 0
v -47 -18 0
v -46 -18 0
v -44 -19 0
v -45 -19 0
v -45 -18 0
v -44 -18 0
v -41 -19 0
v -42 -19 0
v -42 -18 0
v -41 -18 0
v -17 -19 0
v -18 -19 0
v -18 -18 0
v -17 -18 0
v 0 -19 0
v -1 -19 0
v -1 -18 0
v 0 -18 0
v -48 -20 0
v -49 -20 0
v -49 -19 0
v -48 -19 0
v -47 -20 0
v -48 -20 0
v -48 -19 0
v -47 -19 0
v -4 -24 0
v -5 -24 0
v -5 -23 0
v -4 -23 0
v -3 -24 0
v -4 -24 0
v -4 -23 0
v -3 -23 0
v -1 -24 0
v -2 -24 0
v -2 -23 0
v -1 -23 0
v -39 -25 0
v -40 -25 0
v -40 -24 0
v -39 -24 0
v -38 -25 0
v -39 -25 0
v -39 -24 0
v -38 -24 0
v -7 -25 0
v -8 -25 0
v -8 -24 0
v -7 -24 0
v -6 -25 0
v -7 -25 0
v -7 -24 0
v -6 -24 0
v -5 -25 0
v -6 -25 0
v -6 -24 0
v -5 -24 0
v -4 -25 0
v -5 -25 0
v -5 -24 0
v -4 -24 0
v -3 -25 0
v -4 -25 0
v -4 -24 0
v -3 -24 0
v -1 -25 0
v -2 -25 0
v -2 -24 0
v -1 -24 0
v 0 -25 0
v -1 -25 0
v -1 -24 0
v 0 -24 0
v -39 -26 0
v -40 -26 0
v -40 -25 0
v -39 -25 0
v -38 -26 0
v -39 -26 0
v -39 -25 0
v -38 -25 0
v -18 -26 0
v -19 -26 0
v -19 -25 0
v -18 -25 0
v -17 -26 0
v -18 -26 0
v -18 -25 0
v -17 -25 0
v -10 -26 0
v -11 -26 0
v -11 -25 0
v -10 -25 0
v -9 -26 0
v -10 -26 0
v -10 -25 0
v -9 -25 0
v -8 -26 0
v -9 -26 0
v -9 -25 0
v -8 -25 0
v -5 -26 0
v -6 -26 0
v -6 -25 0
v -5 -25 0
v -4 -26 0
v -5 -26 0
v -5 -25 0
v -4 -25 0
v 0 -26 0
v -1 -26 0
v -1 -25 0
v 0 -25 0
v -11 -27 0
v -12 -27 0
v -12 -26 0
v -11 -26 0
v -10 -27 0
v -11 -27 0
v -11 -26 0
v -10 -26 0
v -7 -27 0
v -8 -27 0
v -8 -26 0
v -7 -26 0
v -6 -27 0
v -7 -27 0
v -7 -26 0
v -6 -26 0
v 0 -27 0
v -1 -27 0
v -1 -26 0
v 0 -26 0
v -12 -28 0
v -13 -28 0
v -13 -27 0
v -12 -27 0
v -11 -28 0
v -12 -28 0
v -12 -27 0
v -11 -27 0
v -8 -28 0
v -9 -28 0
v -9 -27 0
v -8 -27 0
v -7 -28 0
v -8 -28 0
v -8 -27 0
v -7 -27 0
v 0 -28 0
v -1 -28 0
v -1 -27 0
v 0 -27 0
v -13 -29 0
v -14 -29 0
v -14 -28 0
v -13 -28 0
v -12 -29 0
v -13 -29 0
v -13 -28 0
v -12 -28 0
v -9 -29 0
v -10 -29 0
v -10 -28 0
v -9 -28 0
v -8 -29 0
v -9 -29 0
v -9 -28 0
v -8 -28 0
v 0 -29 0
v -1 -29 0
v -1 -28 0
v 0 -28 0
v -13 -30 0
v -14 -30 0
v -14 -29 0
v -13 -29 0
v -10 -30 0
v -11 -30 0
v -11 -29 0
v -10 -29 0
v -9 -30 0
v -10 -30 0
v -10 -29 0
v -9 -29 0
v -5 -30 0
v -6 -30 0
v -6 -29 0
v -5 -29 0
v -4 -30 0
v -5 -30 0
v -5 -29 0
v -4 -29 0
v -1 -30 0
v -2 -30 0
v -2 -29 0
v -1 -29 0
v 0 -30 0
v -1 -30 0
v -1 -29 0
v 0 -29 0
v -14 -31 0
v -15 -31 0
v -15 -30 0
v -14 -30 0
v -13 -31 0
v -14 -31 0
v -14 -30 0
v -13 -30 0
v -12 -31 0
v -13 -31 0
v -13 -30 0
v -12 -30 0
v -11 -31 0
v -12 -31 0
v -12 -30 0
v -11 -30 0
v -10 -31 0
v -11 -31 0
v -11 -30 0
v -10 -30 0
v -5 -31 0
v -6 -31 0
v -6 -30 0
v -5 -30 0
v -4 -31 0
v -5 -31 0
v -5 -30 0
v -4 -30 0
v -1 -31 0
v -2 -31 0
v -2 -30 0
v -1 -30 0
v -39 -32 0
v -40 -32 0
v -40 -31 0
v -39 -31 0
v -38 -32 0
v -39 -32 0
v -39 -31 0
v -38 -31 0
v -15 -32 0
v -16 -32 0
v -16 -31 0
v -15 -31 0
v -14 -32 0
v -15 -32 0
v -15 -31 0
v -14 -31 0
v -13 -32 0
v -14 -32 0
v -14 -31 0
v -13 -31 0
v -12 -32 0
v -13 -32 0
v -13 -31 0
v -12 -31 0
v -1 -32 0
v -2 -32 0
v -2 -31 0
v -1 -31 0
v -39 -33 0
v -40 -33 0
v -40 -32 0
v -39 -32 0
v -38 -33 0
v -39 -33 0
v -39 -32 0
v -38 -32 0
v -15 -33 0
v -16 -33 0
v -16 -32 0
v -15 -32 0
v -14 -33 0
v -15 -33 0
v -15 -32 0
v -14 -32 0
v -13 -33 0
v -14 -33 0
v -14 -32 0
v -13 -32 0
v -1 -33 0
v -2 -33 0
v -2 -32 0
v -1 -32 0
v 0 -33 0
v -1 -33 0
v -1 -32 0
v 0 -32 0
v -30 -34 0
v -31 -34 0
v -31 -33 0
v -30 -33 0
v 0 -34 0
v -1 -34 0
v -1 -33 0
v 0 -33 0
v 0 -35 0
v -1 -35 0
v -1 -34 0
v 0 -34 0
v -31 -36 0
v -32 -36 0
v -32 -35 0
v -31 -35 0
v -30 -36 0
v -31 -36 0
v -31 -35 0
v -30 -35 0
v -1 -36 0
v -2 -36 0
v -2 -35 0
v -1 -35 0
v 0 -36 0
v -1 -36 0
v -1 -35 0
v 0 -35 0
v -31 -37 0
v -32 -37 0
v -32 -36 0
v -31 -36 0
v -30 -37 0
v -31 -37 0
v -31 -36 0
v -30 -36 0
v -1 -37 0
v -2 -37 0
v -2 -36 0
v -1 -36 0
v 0 -37 0
v -1 -37 0
v -1 -36 0
v 0 -36 0
v 0 -39 0
v -1 -39 0
v -1 -38 0
v 0 -38 0
v -49 -40 0
v -50 -40 0
v -50 -39 0
v -49 -39 0
v -48 -40 0
v -49 -40 0
v -49 -39 0
v -48 -39 0
v 0 -40 0
v -1 -40 0
v -1 -39 0
v 0 -39 0
v -49 -41 0
v -50 -41 0
v -50 -40 0
v -49 -40 0
v -48 -41 0
v -49 -41 0
v -49 -40 0
v -48 -40 0
v 0 -41 0
v -1 -41 0
v -1 -40 0
v 0 -40 0
v -49 -42 0
v -50 -42 0
v -50 -41 0
v -49 -41 0
v -48 -42 0
v -49 -42 0
v -49 -41 0
v -48 -41 0
v -41 -42 0
v -42 -42 0
v -42 -41 0
v -41 -41 0
v -40 -42 0
v -41 -42 0
v -41 -41 0
v -40 -41 0
v -39 -42 0
v -40 -42 0
v -40 -41 0
v -39 -41 0
v -21 -42 0
v -22 -42 0
v -22 -41 0
v -21 -41 0
v -20 -42 0
v -21 -42 0
v -21 -41 0
v -20 -41 0
v -1 -42 0
v -2 -42 0
v -2 -41 0
v -1 -41 0
v 0 -42 0
v -1 -42 0
v -1 -41 0
v 0 -41 0
v -49 -43 0
v -50 -43 0
v -50 -42 0
v -49 -42 0
v -48 -43 0
v -49 -43 0
v -49 -42 0
v -48 -42 0
v -21 -43 0
v -22 -43 0
v -22 -42 0
v -21 -42 0
v -20 -43 0
v -21 -43 0
v -21 -42 0
v -20 -42 0
v -1 -43 0
v -2 -43 0
v -2 -42 0
v -1 -42 0
v -49 -44 0
v -50 -44 0
v -50 -43 0
v -49 -43 0
v -48 -44 0
v -49 -44 0
v -49 -43 0
v -48 -43 0
v -1 -44 0
v -2 -44 0
v -2 -43 0
v -1 -43 0
v -48 -45 0
v -49 -45 0
v -49 -44 0
v -48 -44 0
v -16 -45 0
v -17 -45 0
v -17 -44 0
v -16 -44 0
v -15 -45 0
v -16 -45 0
v -16 -44 0
v -15 -44 0
v -1 -45 0
v -2 -45 0
v -2 -44 0
v -1 -44 0
v -49 -46 0
v -50 -46 0
v -50 -45 0
v -49 -45 0
v -16 -46 0
v -17 -46 0
v -17 -45 0
v -16 -45 0
v -15 -46 0
v -16 -46 0
v -16 -45 0
v -15 -45 0
v -1 -46 0
v -2 -46 0
v -2 -45 0
v -1 -45 0
v 0 -46 0
v -1 -46 0
v -1 -45 0
v 0 -45 0
v -49 -47 0
v -50 -47 0
v -50 -46 0
v -49 -46 0
v -48 -47 0
v -49 -47 0
v -49 -46 0
v -48 -46 0
v -2 -47 0
v -3 -47 0
v -3 -46 0
v -2 -46 0
v 0 -47 0
v -1 -47 0
v -1 -46 0
v 0 -46 0
v -48 -48 0
v -49 -48 0
v -49 -47 0
v -48 -47 0
v -6 -48 0
v -7 -48 0
v -7 -47 0
v -6 -47 0
v -5 -48 0
v -6 -48 0
v -6 -47 0
v -5 -47 0
v 0 -48 0
v -1 -48 0
v -1 -47 0
v 0 -47 0
v -48 -49 0
v -49 -49 0
v -49 -48 0
v -48 -48 0
v -6 -49 0
v -7 -49 0
v -7 -48 0
v -6 -48 0
v -5 -49 0
v -6 -49 0
v -6 -48 0
v -5 -48 0
v 0 -49 0
v -1 -49 0
v -1 -48 0
v 0 -48 0
v -48 -50 0
v -49 -50 0
v -49 -49 0
v -48 -49 0
v -47 -50 0
v -48 -50 0
v -48 -49 0
v -47 -49 0
v -46 -50 0
v -47 -50 0
v -47 -49 0
v -46 -49 0
v -45 -50 0
v -46 -50 0
v -46 -49 0
v -45 -49 0
v -44 -50 0
v -45 -50 0
v -45 -49 0
v -44 -49 0
v -43 -50 0
v -44 -50 0
v -44 -49 0
v -43 -49 0
v -42 -50 0
v -43 -50 0
v -43 -49 0
v -42 -49 0
v -41 -50 0
v -42 -50 0
v -42 -49 0
v -41 -49 0
v -40 -50 0
v -41 -50 0
v -41 -49 0
v -40 -49 0
v -39 -50 0
v -40 -50 0
v -40 -49 0
v -39 -49 0
v -38 -50 0
v -39 -50 0
v -39 -49 0
v -38 -49 0
v -37 -50 0
v -38 -50 0
v -38 -49 0
v -37 -49 0
v -36 -50 0
v -37 -50 0
v -37 -49 0
v -36 -49 0
v -35 -50 0
v -36 -50 0
v -36 -49 0
v -35 -49 0
v -34 -50 0
v -35 -50 0
v -35 -49 0
v -34 -49 0
v -33 -50 0
v -34 -50 0
v -34 -49 0
v -33 -49 0
v -32 -50 0
v -33 -50 0
v -33 -49 0
v -32 -49 0
v -31 -50 0
v -32 -50 0
v -32 -49 0
v -31 -49 0
v -30 -50 0
v -31 -50 0
v -31 -49 0
v -30 -49 0
v -29 -50 0
v -30 -50 0
v -30 -49 0
v -29 -49 0
v -2 -50 0
v -3 -50 0
v -3 -49 0
v -2 -49 0
v -1 -50 0
v -2 -50 0
v -2 -49 0
v -1 -49 0

# Texture cooridinates (Count = 84)
vt 0.04173455 0.5834554
vt 0.06229666 0.5834554
vt 0.06229666 0.610989
vt 0.04173455 0.610989
vt 0.1457658 0.9723443
vt 0.1663279 0.9723443
vt 0.1663279 0.9998779
vt 0.1457658 0.9998779
vt 0.2081845 0.9723443
vt 0.2287466 0.9723443
vt 0.2287466 0.9998779
vt 0.2081845 0.9998779
vt 0.166572 0.9723443
vt 0.1871341 0.9723443
vt 0.1871341 0.9998779
vt 0.166572 0.9998779
vt 0.1249595 0.9723443
vt 0.1455216 0.9723443
vt 0.1455216 0.9998779
vt 0.1249595 0.9998779
vt 0.2081845 0.6667887
vt 0.2287466 0.6667887
vt 0.2287466 0.6943223
vt 0.2081845 0.6943223
vt 0.1873782 0.6667887
vt 0.2079404 0.6667887
vt 0.2079404 0.6943223
vt 0.1873782 0.6943223
vt 0.2081845 0.639011
vt 0.2287466 0.639011
vt 0.2287466 0.6665446
vt 0.2081845 0.6665446
vt 0.1873782 0.639011
vt 0.2079404 0.639011
vt 0.2079404 0.6665446
vt 0.1873782 0.6665446
vt 0.02092831 0.9723443
vt 0.04149041 0.9723443
vt 0.04149041 0.9998779
vt 0.02092831 0.9998779
vt 0.1041533 0.9167888
vt 0.1247154 0.9167888
vt 0.1247154 0.9443223
vt 0.1041533 0.9443223
vt 0.08334704 0.9167888
vt 0.1039091 0.9167888
vt 0.1039091 0.9443223
vt 0.08334704 0.9443223
vt 0.1041533 0.9445665
vt 0.1247154 0.9445665
vt 0.1247154 0.9721001
vt 0.1041533 0.9721001
vt 0.08334704 0.9445665
vt 0.1039091 0.9445665
vt 0.1039091 0.9721001
vt 0.08334704 0.9721001
vt 0.6659218 0.889011
vt 0.6864839 0.889011
vt 0.6864839 0.9165446
vt 0.6659218 0.9165446
vt 0.6451156 0.889011
vt 0.6656777 0.889011
vt 0.6656777 0.9165446
vt 0.6451156 0.9165446
vt 0.6659218 0.8612332
vt 0.6864839 0.8612332
vt 0.6864839 0.8887668
vt 0.6659218 0.8887668
vt 0.6451156 0.8612332
vt 0.6656777 0.8612332
vt 0.6656777 0.8887668
vt 0.6451156 0.8887668
vt 0.1041533 0.8334554
vt 0.1247154 0.8334554
vt 0.1247154 0.860989
vt 0.1041533 0.860989
vt 0.08334704 0.8334554
vt 0.1039091 0.8334554
vt 0.1039091 0.860989
vt 0.08334704 0.860989
vt 0.0625408 0.8334554
vt 0.0831029 0.8334554
vt 0.0831029 0.860989
vt 0.0625408 0.860989

# Normal
vn 0 0 -1

# Mesh description
g UbosMargies_mesh_0002

# Faces
f 1/1/1 2/2/1 3/3/1 4/4/1
f 5/1/1 6/2/1 7/3/1 8/4/1
f 9/1/1 10/2/1 11/3/1 12/4/1
f 13/1/1 14/2/1 15/3/1 16/4/1
f 17/1/1 18/2/1 19/3/1 20/4/1
f 21/1/1 22/2/1 23/3/1 24/4/1
f 25/5/1 26/6/1 27/7/1 28/8/1
f 29/5/1 30/6/1 31/7/1 32/8/1
f 33/5/1 34/6/1 35/7/1 36/8/1
f 37/9/1 38/10/1 39/11/1 40/12/1
f 41/1/1 42/2/1 43/3/1 44/4/1
f 45/1/1 46/2/1 47/3/1 48/4/1
f 49/1/1 50/2/1 51/3/1 52/4/1
f 53/1/1 54/2/1 55/3/1 56/4/1
f 57/13/1 58/14/1 59/15/1 60/16/1
f 61/5/1 62/6/1 63/7/1 64/8/1
f 65/1/1 66/2/1 67/3/1 68/4/1
f 69/1/1 70/2/1 71/3/1 72/4/1
f 73/1/1 74/2/1 75/3/1 76/4/1
f 77/9/1 78/10/1 79/11/1 80/12/1
f 81/5/1 82/6/1 83/7/1 84/8/1
f 85/1/1 86/2/1 87/3/1 88/4/1
f 89/1/1 90/2/1 91/3/1 92/4/1
f 93/1/1 94/2/1 95/3/1 96/4/1
f 97/5/1 98/6/1 99/7/1 100/8/1
f 101/17/1 102/18/1 103/19/1 104/20/1
f 105/1/1 106/2/1 107/3/1 108/4/1
f 109/1/1 110/2/1 111/3/1 112/4/1
f 113/21/1 114/22/1 115/23/1 116/24/1
f 117/25/1 118/26/1 119/27/1 120/28/1
f 121/5/1 122/6/1 123/7/1 124/8/1
f 125/5/1 126/6/1 127/7/1 128/8/1
f 129/17/1 130/18/1 131/19/1 132/20/1
f 133/1/1 134/2/1 135/3/1 136/4/1
f 137/1/1 138/2/1 139/3/1 140/4/1
f 141/1/1 142/2/1 143/3/1 144/4/1
f 145/13/1 146/14/1 147/15/1 148/16/1
f 149/29/1 150/30/1 151/31/1 152/32/1
f 153/33/1 154/34/1 155/35/1 156/36/1
f 157/5/1 158/6/1 159/7/1 160/8/1
f 161/9/1 162/10/1 163/11/1 164/12/1
f 165/1/1 166/2/1 167/3/1 168/4/1
f 169/1/1 170/2/1 171/3/1 172/4/1
f 173/17/1 174/18/1 175/19/1 176/20/1
f 177/37/1 178/38/1 179/39/1 180/40/1
f 181/9/1 182/10/1 183/11/1 184/12/1
f 185/9/1 186/10/1 187/11/1 188/12/1
f 189/1/1 190/2/1 191/3/1 192/4/1
f 193/1/1 194/2/1 195/3/1 196/4/1
f 197/1/1 198/2/1 199/3/1 200/4/1
f 201/1/1 202/2/1 203/3/1 204/4/1
f 205/41/1 206/42/1 207/43/1 208/44/1
f 209/45/1 210/46/1 211/47/1 212/48/1
f 213/1/1 214/2/1 215/3/1 216/4/1
f 217/17/1 218/18/1 219/19/1 220/20/1
f 221/1/1 222/2/1 223/3/1 224/4/1
f 225/21/1 226/22/1 227/23/1 228/24/1
f 229/25/1 230/26/1 231/27/1 232/28/1
f 233/17/1 234/18/1 235/19/1 236/20/1
f 237/1/1 238/2/1 239/3/1 240/4/1
f 241/9/1 242/10/1 243/11/1 244/12/1
f 245/29/1 246/30/1 247/31/1 248/32/1
f 249/33/1 250/34/1 251/35/1 252/36/1
f 253/1/1 254/2/1 255/3/1 256/4/1
f 257/49/1 258/50/1 259/51/1 260/52/1
f 261/53/1 262/54/1 263/55/1 264/56/1
f 265/13/1 266/14/1 267/15/1 268/16/1
f 269/17/1 270/18/1 271/19/1 272/20/1
f 273/37/1 274/38/1 275/39/1 276/40/1
f 277/37/1 278/38/1 279/39/1 280/40/1
f 281/1/1 282/2/1 283/3/1 284/4/1
f 285/41/1 286/42/1 287/43/1 288/44/1
f 289/45/1 290/46/1 291/47/1 292/48/1
f 293/1/1 294/2/1 295/3/1 296/4/1
f 297/1/1 298/2/1 299/3/1 300/4/1
f 301/1/1 302/2/1 303/3/1 304/4/1
f 305/21/1 306/22/1 307/23/1 308/24/1
f 309/25/1 310/26/1 311/27/1 312/28/1
f 313/1/1 314/2/1 315/3/1 316/4/1
f 317/1/1 318/2/1 319/3/1 320/4/1
f 321/1/1 322/2/1 323/3/1 324/4/1
f 325/1/1 326/2/1 327/3/1 328/4/1
f 329/1/1 330/2/1 331/3/1 332/4/1
f 333/1/1 334/2/1 335/3/1 336/4/1
f 337/1/1 338/2/1 339/3/1 340/4/1
f 341/29/1 342/30/1 343/31/1 344/32/1
f 345/33/1 346/34/1 347/35/1 348/36/1
f 349/41/1 350/42/1 351/43/1 352/44/1
f 353/45/1 354/46/1 355/47/1 356/48/1
f 357/1/1 358/2/1 359/3/1 360/4/1
f 361/1/1 362/2/1 363/3/1 364/4/1
f 365/1/1 366/2/1 367/3/1 368/4/1
f 369/1/1 370/2/1 371/3/1 372/4/1
f 373/1/1 374/2/1 375/3/1 376/4/1
f 377/1/1 378/2/1 379/3/1 380/4/1
f 381/1/1 382/2/1 383/3/1 384/4/1
f 385/1/1 386/2/1 387/3/1 388/4/1
f 389/1/1 390/2/1 391/3/1 392/4/1
f 393/1/1 394/2/1 395/3/1 396/4/1
f 397/1/1 398/2/1 399/3/1 400/4/1
f 401/1/1 402/2/1 403/3/1 404/4/1
f 405/1/1 406/2/1 407/3/1 408/4/1
f 409/1/1 410/2/1 411/3/1 412/4/1
f 413/1/1 414/2/1 415/3/1 416/4/1
f 417/1/1 418/2/1 419/3/1 420/4/1
f 421/1/1 422/2/1 423/3/1 424/4/1
f 425/1/1 426/2/1 427/3/1 428/4/1
f 429/1/1 430/2/1 431/3/1 432/4/1
f 433/1/1 434/2/1 435/3/1 436/4/1
f 437/1/1 438/2/1 439/3/1 440/4/1
f 441/1/1 442/2/1 443/3/1 444/4/1
f 445/1/1 446/2/1 447/3/1 448/4/1
f 449/1/1 450/2/1 451/3/1 452/4/1
f 453/57/1 454/58/1 455/59/1 456/60/1
f 457/61/1 458/62/1 459/63/1 460/64/1
f 461/1/1 462/2/1 463/3/1 464/4/1
f 465/1/1 466/2/1 467/3/1 468/4/1
f 469/1/1 470/2/1 471/3/1 472/4/1
f 473/1/1 474/2/1 475/3/1 476/4/1
f 477/1/1 478/2/1 479/3/1 480/4/1
f 481/1/1 482/2/1 483/3/1 484/4/1
f 485/1/1 486/2/1 487/3/1 488/4/1
f 489/65/1 490/66/1 491/67/1 492/68/1
f 493/69/1 494/70/1 495/71/1 496/72/1
f 497/1/1 498/2/1 499/3/1 500/4/1
f 501/57/1 502/58/1 503/59/1 504/60/1
f 505/61/1 506/62/1 507/63/1 508/64/1
f 509/1/1 510/2/1 511/3/1 512/4/1
f 513/1/1 514/2/1 515/3/1 516/4/1
f 517/1/1 518/2/1 519/3/1 520/4/1
f 521/1/1 522/2/1 523/3/1 524/4/1
f 525/1/1 526/2/1 527/3/1 528/4/1
f 529/65/1 530/66/1 531/67/1 532/68/1
f 533/69/1 534/70/1 535/71/1 536/72/1
f 537/1/1 538/2/1 539/3/1 540/4/1
f 541/1/1 542/2/1 543/3/1 544/4/1
f 545/1/1 546/2/1 547/3/1 548/4/1
f 549/1/1 550/2/1 551/3/1 552/4/1
f 553/1/1 554/2/1 555/3/1 556/4/1
f 557/37/1 558/38/1 559/39/1 560/40/1
f 561/1/1 562/2/1 563/3/1 564/4/1
f 565/1/1 566/2/1 567/3/1 568/4/1
f 569/57/1 570/58/1 571/59/1 572/60/1
f 573/61/1 574/62/1 575/63/1 576/64/1
f 577/21/1 578/22/1 579/23/1 580/24/1
f 581/25/1 582/26/1 583/27/1 584/28/1
f 585/65/1 586/66/1 587/67/1 588/68/1
f 589/69/1 590/70/1 591/71/1 592/72/1
f 593/29/1 594/30/1 595/31/1 596/32/1
f 597/33/1 598/34/1 599/35/1 600/36/1
f 601/1/1 602/2/1 603/3/1 604/4/1
f 605/1/1 606/2/1 607/3/1 608/4/1
f 609/1/1 610/2/1 611/3/1 612/4/1
f 613/1/1 614/2/1 615/3/1 616/4/1
f 617/1/1 618/2/1 619/3/1 620/4/1
f 621/1/1 622/2/1 623/3/1 624/4/1
f 625/1/1 626/2/1 627/3/1 628/4/1
f 629/1/1 630/2/1 631/3/1 632/4/1
f 633/1/1 634/2/1 635/3/1 636/4/1
f 637/73/1 638/74/1 639/75/1 640/76/1
f 641/77/1 642/78/1 643/79/1 644/80/1
f 645/81/1 646/82/1 647/83/1 648/84/1
f 649/21/1 650/22/1 651/23/1 652/24/1
f 653/25/1 654/26/1 655/27/1 656/28/1
f 657/1/1 658/2/1 659/3/1 660/4/1
f 661/1/1 662/2/1 663/3/1 664/4/1
f 665/1/1 666/2/1 667/3/1 668/4/1
f 669/1/1 670/2/1 671/3/1 672/4/1
f 673/29/1 674/30/1 675/31/1 676/32/1
f 677/33/1 678/34/1 679/35/1 680/36/1
f 681/1/1 682/2/1 683/3/1 684/4/1
f 685/1/1 686/2/1 687/3/1 688/4/1
f 689/1/1 690/2/1 691/3/1 692/4/1
f 693/1/1 694/2/1 695/3/1 696/4/1
f 697/1/1 698/2/1 699/3/1 700/4/1
f 701/57/1 702/58/1 703/59/1 704/60/1
f 705/61/1 706/62/1 707/63/1 708/64/1
f 709/1/1 710/2/1 711/3/1 712/4/1
f 713/1/1 714/2/1 715/3/1 716/4/1
f 717/65/1 718/66/1 719/67/1 720/68/1
f 721/69/1 722/70/1 723/71/1 724/72/1
f 725/1/1 726/2/1 727/3/1 728/4/1
f 729/1/1 730/2/1 731/3/1 732/4/1
f 733/1/1 734/2/1 735/3/1 736/4/1
f 737/1/1 738/2/1 739/3/1 740/4/1
f 741/5/1 742/6/1 743/7/1 744/8/1
f 745/1/1 746/2/1 747/3/1 748/4/1
f 749/1/1 750/2/1 751/3/1 752/4/1
f 753/21/1 754/22/1 755/23/1 756/24/1
f 757/25/1 758/26/1 759/27/1 760/28/1
f 761/1/1 762/2/1 763/3/1 764/4/1
f 765/1/1 766/2/1 767/3/1 768/4/1
f 769/29/1 770/30/1 771/31/1 772/32/1
f 773/33/1 774/34/1 775/35/1 776/36/1
f 777/1/1 778/2/1 779/3/1 780/4/1
f 781/1/1 782/2/1 783/3/1 784/4/1
f 785/1/1 786/2/1 787/3/1 788/4/1
f 789/1/1 790/2/1 791/3/1 792/4/1
f 793/1/1 794/2/1 795/3/1 796/4/1
f 797/1/1 798/2/1 799/3/1 800/4/1
f 801/1/1 802/2/1 803/3/1 804/4/1
f 805/1/1 806/2/1 807/3/1 808/4/1
f 809/1/1 810/2/1 811/3/1 812/4/1
f 813/1/1 814/2/1 815/3/1 816/4/1
f 817/1/1 818/2/1 819/3/1 820/4/1
f 821/1/1 822/2/1 823/3/1 824/4/1
f 825/1/1 826/2/1 827/3/1 828/4/1
f 829/1/1 830/2/1 831/3/1 832/4/1
f 833/1/1 834/2/1 835/3/1 836/4/1
f 837/1/1 838/2/1 839/3/1 840/4/1
f 841/1/1 842/2/1 843/3/1 844/4/1
f 845/1/1 846/2/1 847/3/1 848/4/1
f 849/1/1 850/2/1 851/3/1 852/4/1
f 853/1/1 854/2/1 855/3/1 856/4/1
f 857/1/1 858/2/1 859/3/1 860/4/1
f 861/21/1 862/22/1 863/23/1 864/24/1
f 865/25/1 866/26/1 867/27/1 868/28/1

