# Tiled2Unity generated file. Do not modify by hand.
# Wavefront file for 'PhilippineScienceHighSchool_mesh_0003.obj'

# Vertices (Count = 56)
v -41 -22 0
v -42 -22 0
v -42 -21 0
v -41 -21 0
v -42 -22 0
v -43 -22 0
v -43 -21 0
v -42 -21 0
v -43 -22 0
v -44 -22 0
v -44 -21 0
v -43 -21 0
v -44 -22 0
v -45 -22 0
v -45 -21 0
v -44 -21 0
v -45 -22 0
v -46 -22 0
v -46 -21 0
v -45 -21 0
v -46 -22 0
v -47 -22 0
v -47 -21 0
v -46 -21 0
v -47 -22 0
v -48 -22 0
v -48 -21 0
v -47 -21 0
v -41 -23 0
v -42 -23 0
v -42 -22 0
v -41 -22 0
v -42 -23 0
v -43 -23 0
v -43 -22 0
v -42 -22 0
v -43 -23 0
v -44 -23 0
v -44 -22 0
v -43 -22 0
v -44 -23 0
v -45 -23 0
v -45 -22 0
v -44 -22 0
v -45 -23 0
v -46 -23 0
v -46 -22 0
v -45 -22 0
v -46 -23 0
v -47 -23 0
v -47 -22 0
v -46 -22 0
v -47 -23 0
v -48 -23 0
v -48 -22 0
v -47 -22 0

# Texture cooridinates (Count = 24)
vt 0.2068966 0.7631579
vt 0.2241379 0.7631579
vt 0.2241379 0.7894737
vt 0.2068966 0.7894737
vt 0.2413793 0.7631579
vt 0.2413793 0.7894737
vt 0.2586207 0.7631579
vt 0.2586207 0.7894737
vt 0.2758621 0.7631579
vt 0.2758621 0.7894737
vt 0.2931035 0.7631579
vt 0.2931035 0.7894737
vt 0.3103448 0.7631579
vt 0.3103448 0.7894737
vt 0.3275862 0.7631579
vt 0.3275862 0.7894737
vt 0.2068966 0.7368421
vt 0.2241379 0.7368421
vt 0.2413793 0.7368421
vt 0.2586207 0.7368421
vt 0.2758621 0.7368421
vt 0.2931035 0.7368421
vt 0.3103448 0.7368421
vt 0.3275862 0.7368421

# Normal
vn 0 0 -1

# Mesh description
g PhilippineScienceHighSchool_mesh_0003

# Faces
f 1/1/1 2/2/1 3/3/1 4/4/1
f 5/2/1 6/5/1 7/6/1 8/3/1
f 9/5/1 10/7/1 11/8/1 12/6/1
f 13/7/1 14/9/1 15/10/1 16/8/1
f 17/9/1 18/11/1 19/12/1 20/10/1
f 21/11/1 22/13/1 23/14/1 24/12/1
f 25/13/1 26/15/1 27/16/1 28/14/1
f 29/17/1 30/18/1 31/2/1 32/1/1
f 33/18/1 34/19/1 35/5/1 36/2/1
f 37/19/1 38/20/1 39/7/1 40/5/1
f 41/20/1 42/21/1 43/9/1 44/7/1
f 45/21/1 46/22/1 47/11/1 48/9/1
f 49/22/1 50/23/1 51/13/1 52/11/1
f 53/23/1 54/24/1 55/15/1 56/13/1

