# Tiled2Unity generated file. Do not modify by hand.
# Wavefront file for 'Bood_mesh_0009.obj'

# Vertices (Count = 112)
v -34 -2 0
v -35 -2 0
v -35 -1 0
v -34 -1 0
v -33 -2 0
v -34 -2 0
v -34 -1 0
v -33 -1 0
v -32 -2 0
v -33 -2 0
v -33 -1 0
v -32 -1 0
v -31 -2 0
v -32 -2 0
v -32 -1 0
v -31 -1 0
v -30 -2 0
v -31 -2 0
v -31 -1 0
v -30 -1 0
v -29 -2 0
v -30 -2 0
v -30 -1 0
v -29 -1 0
v -28 -2 0
v -29 -2 0
v -29 -1 0
v -28 -1 0
v -10 -18 0
v -11 -18 0
v -11 -17 0
v -10 -17 0
v -9 -18 0
v -10 -18 0
v -10 -17 0
v -9 -17 0
v -8 -18 0
v -9 -18 0
v -9 -17 0
v -8 -17 0
v -7 -18 0
v -8 -18 0
v -8 -17 0
v -7 -17 0
v -6 -18 0
v -7 -18 0
v -7 -17 0
v -6 -17 0
v -5 -18 0
v -6 -18 0
v -6 -17 0
v -5 -17 0
v -4 -18 0
v -5 -18 0
v -5 -17 0
v -4 -17 0
v -43 -20 0
v -44 -20 0
v -44 -19 0
v -43 -19 0
v -42 -20 0
v -43 -20 0
v -43 -19 0
v -42 -19 0
v -41 -20 0
v -42 -20 0
v -42 -19 0
v -41 -19 0
v -40 -20 0
v -41 -20 0
v -41 -19 0
v -40 -19 0
v -39 -20 0
v -40 -20 0
v -40 -19 0
v -39 -19 0
v -17 -25 0
v -18 -25 0
v -18 -24 0
v -17 -24 0
v -16 -25 0
v -17 -25 0
v -17 -24 0
v -16 -24 0
v -15 -25 0
v -16 -25 0
v -16 -24 0
v -15 -24 0
v -14 -25 0
v -15 -25 0
v -15 -24 0
v -14 -24 0
v -13 -25 0
v -14 -25 0
v -14 -24 0
v -13 -24 0
v -4 -42 0
v -5 -42 0
v -5 -41 0
v -4 -41 0
v -3 -42 0
v -4 -42 0
v -4 -41 0
v -3 -41 0
v -2 -42 0
v -3 -42 0
v -3 -41 0
v -2 -41 0
v -1 -42 0
v -2 -42 0
v -2 -41 0
v -1 -41 0

# Texture cooridinates (Count = 64)
vt 0.3104669 0.9738063
vt 0.3274641 0.9738063
vt 0.3274641 0.9998779
vt 0.3104669 0.9998779
vt 0.2932255 0.9738063
vt 0.3102227 0.9738063
vt 0.3102227 0.9998779
vt 0.2932255 0.9998779
vt 0.2759841 0.9738063
vt 0.2929814 0.9738063
vt 0.2929814 0.9998779
vt 0.2759841 0.9998779
vt 0.2587427 0.9738063
vt 0.27574 0.9738063
vt 0.27574 0.9998779
vt 0.2587427 0.9998779
vt 0.2415014 0.9738063
vt 0.2584986 0.9738063
vt 0.2584986 0.9998779
vt 0.2415014 0.9998779
vt 0.22426 0.9738063
vt 0.2412572 0.9738063
vt 0.2412572 0.9998779
vt 0.22426 0.9998779
vt 0.2070186 0.9738063
vt 0.2240159 0.9738063
vt 0.2240159 0.9998779
vt 0.2070186 0.9998779
vt 0.2587427 0.26328
vt 0.27574 0.26328
vt 0.27574 0.2893516
vt 0.2587427 0.2893516
vt 0.2415014 0.26328
vt 0.2584986 0.26328
vt 0.2584986 0.2893516
vt 0.2415014 0.2893516
vt 0.22426 0.26328
vt 0.2412572 0.26328
vt 0.2412572 0.2893516
vt 0.22426 0.2893516
vt 0.2070186 0.26328
vt 0.2240159 0.26328
vt 0.2240159 0.2893516
vt 0.2070186 0.2893516
vt 0.1897772 0.26328
vt 0.2067745 0.26328
vt 0.2067745 0.2893516
vt 0.1897772 0.2893516
vt 0.3794324 0.9738063
vt 0.3964297 0.9738063
vt 0.3964297 0.9998779
vt 0.3794324 0.9998779
vt 0.362191 0.9738063
vt 0.3791883 0.9738063
vt 0.3791883 0.9998779
vt 0.362191 0.9998779
vt 0.3449497 0.9738063
vt 0.3619469 0.9738063
vt 0.3619469 0.9998779
vt 0.3449497 0.9998779
vt 0.3277083 0.9738063
vt 0.3447055 0.9738063
vt 0.3447055 0.9998779
vt 0.3277083 0.9998779

# Normal
vn 0 0 -1

# Mesh description
g Bood_mesh_0009

# Faces
f 1/1/1 2/2/1 3/3/1 4/4/1
f 5/5/1 6/6/1 7/7/1 8/8/1
f 9/9/1 10/10/1 11/11/1 12/12/1
f 13/13/1 14/14/1 15/15/1 16/16/1
f 17/17/1 18/18/1 19/19/1 20/20/1
f 21/21/1 22/22/1 23/23/1 24/24/1
f 25/25/1 26/26/1 27/27/1 28/28/1
f 29/1/1 30/2/1 31/3/1 32/4/1
f 33/5/1 34/6/1 35/7/1 36/8/1
f 37/9/1 38/10/1 39/11/1 40/12/1
f 41/13/1 42/14/1 43/15/1 44/16/1
f 45/17/1 46/18/1 47/19/1 48/20/1
f 49/21/1 50/22/1 51/23/1 52/24/1
f 53/25/1 54/26/1 55/27/1 56/28/1
f 57/29/1 58/30/1 59/31/1 60/32/1
f 61/33/1 62/34/1 63/35/1 64/36/1
f 65/37/1 66/38/1 67/39/1 68/40/1
f 69/41/1 70/42/1 71/43/1 72/44/1
f 73/45/1 74/46/1 75/47/1 76/48/1
f 77/29/1 78/30/1 79/31/1 80/32/1
f 81/33/1 82/34/1 83/35/1 84/36/1
f 85/37/1 86/38/1 87/39/1 88/40/1
f 89/41/1 90/42/1 91/43/1 92/44/1
f 93/45/1 94/46/1 95/47/1 96/48/1
f 97/49/1 98/50/1 99/51/1 100/52/1
f 101/53/1 102/54/1 103/55/1 104/56/1
f 105/57/1 106/58/1 107/59/1 108/60/1
f 109/61/1 110/62/1 111/63/1 112/64/1

