# Tiled2Unity generated file. Do not modify by hand.
# Wavefront file for 'Bood_mesh_0006.obj'

# Vertices (Count = 40)
v -31 -43 0
v -32 -43 0
v -32 -42 0
v -31 -42 0
v -30 -43 0
v -31 -43 0
v -31 -42 0
v -30 -42 0
v -29 -43 0
v -30 -43 0
v -30 -42 0
v -29 -42 0
v -27 -43 0
v -28 -43 0
v -28 -42 0
v -27 -42 0
v -31 -44 0
v -32 -44 0
v -32 -43 0
v -31 -43 0
v -30 -44 0
v -31 -44 0
v -31 -43 0
v -30 -43 0
v -28 -44 0
v -29 -44 0
v -29 -43 0
v -28 -43 0
v -27 -44 0
v -28 -44 0
v -28 -43 0
v -27 -43 0
v -30 -45 0
v -31 -45 0
v -31 -44 0
v -30 -44 0
v -29 -45 0
v -30 -45 0
v -30 -44 0
v -29 -44 0

# Texture cooridinates (Count = 28)
vt 0.1041533 0.9445665
vt 0.1247154 0.9445665
vt 0.1247154 0.9721001
vt 0.1041533 0.9721001
vt 0.08334704 0.9445665
vt 0.1039091 0.9445665
vt 0.1039091 0.9721001
vt 0.08334704 0.9721001
vt 0.1873782 0.9723443
vt 0.2079404 0.9723443
vt 0.2079404 0.9998779
vt 0.1873782 0.9998779
vt 0.1041533 0.9167888
vt 0.1247154 0.9167888
vt 0.1247154 0.9443223
vt 0.1041533 0.9443223
vt 0.08334704 0.9167888
vt 0.1039091 0.9167888
vt 0.1039091 0.9443223
vt 0.08334704 0.9443223
vt 0.166572 0.9723443
vt 0.1871341 0.9723443
vt 0.1871341 0.9998779
vt 0.166572 0.9998779
vt 0.2081845 0.9723443
vt 0.2287466 0.9723443
vt 0.2287466 0.9998779
vt 0.2081845 0.9998779

# Normal
vn 0 0 -1

# Mesh description
g Bood_mesh_0006

# Faces
f 1/1/1 2/2/1 3/3/1 4/4/1
f 5/5/1 6/6/1 7/7/1 8/8/1
f 9/9/1 10/10/1 11/11/1 12/12/1
f 13/9/1 14/10/1 15/11/1 16/12/1
f 17/13/1 18/14/1 19/15/1 20/16/1
f 21/17/1 22/18/1 23/19/1 24/20/1
f 25/21/1 26/22/1 27/23/1 28/24/1
f 29/21/1 30/22/1 31/23/1 32/24/1
f 33/25/1 34/26/1 35/27/1 36/28/1
f 37/21/1 38/22/1 39/23/1 40/24/1

