# Tiled2Unity generated file. Do not modify by hand.
# Wavefront file for 'UpperCityHall_mesh_0003.obj'

# Vertices (Count = 168)
v -10 -9 0
v -11 -9 0
v -11 -8 0
v -10 -8 0
v -9 -9 0
v -10 -9 0
v -10 -8 0
v -9 -8 0
v -8 -9 0
v -9 -9 0
v -9 -8 0
v -8 -8 0
v -10 -10 0
v -11 -10 0
v -11 -9 0
v -10 -9 0
v -9 -10 0
v -10 -10 0
v -10 -9 0
v -9 -9 0
v -8 -10 0
v -9 -10 0
v -9 -9 0
v -8 -9 0
v -10 -11 0
v -11 -11 0
v -11 -10 0
v -10 -10 0
v -9 -11 0
v -10 -11 0
v -10 -10 0
v -9 -10 0
v -8 -11 0
v -9 -11 0
v -9 -10 0
v -8 -10 0
v -38 -23 0
v -39 -23 0
v -39 -22 0
v -38 -22 0
v -37 -23 0
v -38 -23 0
v -38 -22 0
v -37 -22 0
v -36 -23 0
v -37 -23 0
v -37 -22 0
v -36 -22 0
v -35 -23 0
v -36 -23 0
v -36 -22 0
v -35 -22 0
v -34 -23 0
v -35 -23 0
v -35 -22 0
v -34 -22 0
v -33 -23 0
v -34 -23 0
v -34 -22 0
v -33 -22 0
v -32 -23 0
v -33 -23 0
v -33 -22 0
v -32 -22 0
v -31 -23 0
v -32 -23 0
v -32 -22 0
v -31 -22 0
v -30 -23 0
v -31 -23 0
v -31 -22 0
v -30 -22 0
v -29 -23 0
v -30 -23 0
v -30 -22 0
v -29 -22 0
v -46 -36 0
v -47 -36 0
v -47 -35 0
v -46 -35 0
v -45 -36 0
v -46 -36 0
v -46 -35 0
v -45 -35 0
v -44 -36 0
v -45 -36 0
v -45 -35 0
v -44 -35 0
v -46 -37 0
v -47 -37 0
v -47 -36 0
v -46 -36 0
v -45 -37 0
v -46 -37 0
v -46 -36 0
v -45 -36 0
v -44 -37 0
v -45 -37 0
v -45 -36 0
v -44 -36 0
v -46 -38 0
v -47 -38 0
v -47 -37 0
v -46 -37 0
v -45 -38 0
v -46 -38 0
v -46 -37 0
v -45 -37 0
v -44 -38 0
v -45 -38 0
v -45 -37 0
v -44 -37 0
v -32 -44 0
v -33 -44 0
v -33 -43 0
v -32 -43 0
v -31 -44 0
v -32 -44 0
v -32 -43 0
v -31 -43 0
v -30 -44 0
v -31 -44 0
v -31 -43 0
v -30 -43 0
v -29 -44 0
v -30 -44 0
v -30 -43 0
v -29 -43 0
v -28 -44 0
v -29 -44 0
v -29 -43 0
v -28 -43 0
v -27 -44 0
v -28 -44 0
v -28 -43 0
v -27 -43 0
v -26 -44 0
v -27 -44 0
v -27 -43 0
v -26 -43 0
v -32 -45 0
v -33 -45 0
v -33 -44 0
v -32 -44 0
v -31 -45 0
v -32 -45 0
v -32 -44 0
v -31 -44 0
v -30 -45 0
v -31 -45 0
v -31 -44 0
v -30 -44 0
v -29 -45 0
v -30 -45 0
v -30 -44 0
v -29 -44 0
v -28 -45 0
v -29 -45 0
v -29 -44 0
v -28 -44 0
v -27 -45 0
v -28 -45 0
v -28 -44 0
v -27 -44 0
v -26 -45 0
v -27 -45 0
v -27 -44 0
v -26 -44 0

# Texture cooridinates (Count = 132)
vt 0.3579496 0.9474905
vt 0.3747448 0.9474905
vt 0.3747448 0.9735621
vt 0.3579496 0.9735621
vt 0.3409101 0.9474905
vt 0.3577054 0.9474905
vt 0.3577054 0.9735621
vt 0.3409101 0.9735621
vt 0.3238707 0.9474905
vt 0.340666 0.9474905
vt 0.340666 0.9735621
vt 0.3238707 0.9735621
vt 0.3579496 0.9211747
vt 0.3747448 0.9211747
vt 0.3747448 0.9472464
vt 0.3579496 0.9472464
vt 0.3409101 0.9211747
vt 0.3577054 0.9211747
vt 0.3577054 0.9472464
vt 0.3409101 0.9472464
vt 0.3238707 0.9211747
vt 0.340666 0.9211747
vt 0.340666 0.9472464
vt 0.3238707 0.9472464
vt 0.3579496 0.8948589
vt 0.3747448 0.8948589
vt 0.3747448 0.9209306
vt 0.3579496 0.9209306
vt 0.3409101 0.8948589
vt 0.3577054 0.8948589
vt 0.3577054 0.9209306
vt 0.3409101 0.9209306
vt 0.3238707 0.8948589
vt 0.340666 0.8948589
vt 0.340666 0.9209306
vt 0.3238707 0.9209306
vt 0.1534767 0.631701
vt 0.170272 0.631701
vt 0.170272 0.6577727
vt 0.1534767 0.6577727
vt 0.1364373 0.631701
vt 0.1532326 0.631701
vt 0.1532326 0.6577727
vt 0.1364373 0.6577727
vt 0.1193979 0.631701
vt 0.1361932 0.631701
vt 0.1361932 0.6577727
vt 0.1193979 0.6577727
vt 0.1023585 0.631701
vt 0.1191538 0.631701
vt 0.1191538 0.6577727
vt 0.1023585 0.6577727
vt 0.08531909 0.631701
vt 0.1021143 0.631701
vt 0.1021143 0.6577727
vt 0.08531909 0.6577727
vt 0.06827968 0.631701
vt 0.08507495 0.631701
vt 0.08507495 0.6577727
vt 0.06827968 0.6577727
vt 0.05124028 0.631701
vt 0.06803554 0.631701
vt 0.06803554 0.6577727
vt 0.05124028 0.6577727
vt 0.03420088 0.631701
vt 0.05099614 0.631701
vt 0.05099614 0.6577727
vt 0.03420088 0.6577727
vt 0.01716147 0.631701
vt 0.03395674 0.631701
vt 0.03395674 0.6577727
vt 0.01716147 0.6577727
vt 0.0001220703 0.631701
vt 0.01691733 0.631701
vt 0.01691733 0.6577727
vt 0.0001220703 0.6577727
vt 0.3068313 0.8948589
vt 0.3236266 0.8948589
vt 0.3236266 0.9209306
vt 0.3068313 0.9209306
vt 0.2897919 0.8948589
vt 0.3065872 0.8948589
vt 0.3065872 0.9209306
vt 0.2897919 0.9209306
vt 0.2727525 0.8948589
vt 0.2895478 0.8948589
vt 0.2895478 0.9209306
vt 0.2727525 0.9209306
vt 0.2557131 0.8948589
vt 0.2725084 0.8948589
vt 0.2725084 0.9209306
vt 0.2557131 0.9209306
vt 0.2386737 0.8948589
vt 0.255469 0.8948589
vt 0.255469 0.9209306
vt 0.2386737 0.9209306
vt 0.2216343 0.8948589
vt 0.2384296 0.8948589
vt 0.2384296 0.9209306
vt 0.2216343 0.9209306
vt 0.2045949 0.8948589
vt 0.2213902 0.8948589
vt 0.2213902 0.9209306
vt 0.2045949 0.9209306
vt 0.3068313 0.8685431
vt 0.3236266 0.8685431
vt 0.3236266 0.8946148
vt 0.3068313 0.8946148
vt 0.2897919 0.8685431
vt 0.3065872 0.8685431
vt 0.3065872 0.8946148
vt 0.2897919 0.8946148
vt 0.2727525 0.8685431
vt 0.2895478 0.8685431
vt 0.2895478 0.8946148
vt 0.2727525 0.8946148
vt 0.2557131 0.8685431
vt 0.2725084 0.8685431
vt 0.2725084 0.8946148
vt 0.2557131 0.8946148
vt 0.2386737 0.8685431
vt 0.255469 0.8685431
vt 0.255469 0.8946148
vt 0.2386737 0.8946148
vt 0.2216343 0.8685431
vt 0.2384296 0.8685431
vt 0.2384296 0.8946148
vt 0.2216343 0.8946148
vt 0.2045949 0.8685431
vt 0.2213902 0.8685431
vt 0.2213902 0.8946148
vt 0.2045949 0.8946148

# Normal
vn 0 0 -1

# Mesh description
g UpperCityHall_mesh_0003

# Faces
f 1/1/1 2/2/1 3/3/1 4/4/1
f 5/5/1 6/6/1 7/7/1 8/8/1
f 9/9/1 10/10/1 11/11/1 12/12/1
f 13/13/1 14/14/1 15/15/1 16/16/1
f 17/17/1 18/18/1 19/19/1 20/20/1
f 21/21/1 22/22/1 23/23/1 24/24/1
f 25/25/1 26/26/1 27/27/1 28/28/1
f 29/29/1 30/30/1 31/31/1 32/32/1
f 33/33/1 34/34/1 35/35/1 36/36/1
f 37/37/1 38/38/1 39/39/1 40/40/1
f 41/41/1 42/42/1 43/43/1 44/44/1
f 45/45/1 46/46/1 47/47/1 48/48/1
f 49/49/1 50/50/1 51/51/1 52/52/1
f 53/53/1 54/54/1 55/55/1 56/56/1
f 57/57/1 58/58/1 59/59/1 60/60/1
f 61/61/1 62/62/1 63/63/1 64/64/1
f 65/65/1 66/66/1 67/67/1 68/68/1
f 69/69/1 70/70/1 71/71/1 72/72/1
f 73/73/1 74/74/1 75/75/1 76/76/1
f 77/1/1 78/2/1 79/3/1 80/4/1
f 81/5/1 82/6/1 83/7/1 84/8/1
f 85/9/1 86/10/1 87/11/1 88/12/1
f 89/13/1 90/14/1 91/15/1 92/16/1
f 93/17/1 94/18/1 95/19/1 96/20/1
f 97/21/1 98/22/1 99/23/1 100/24/1
f 101/25/1 102/26/1 103/27/1 104/28/1
f 105/29/1 106/30/1 107/31/1 108/32/1
f 109/33/1 110/34/1 111/35/1 112/36/1
f 113/77/1 114/78/1 115/79/1 116/80/1
f 117/81/1 118/82/1 119/83/1 120/84/1
f 121/85/1 122/86/1 123/87/1 124/88/1
f 125/89/1 126/90/1 127/91/1 128/92/1
f 129/93/1 130/94/1 131/95/1 132/96/1
f 133/97/1 134/98/1 135/99/1 136/100/1
f 137/101/1 138/102/1 139/103/1 140/104/1
f 141/105/1 142/106/1 143/107/1 144/108/1
f 145/109/1 146/110/1 147/111/1 148/112/1
f 149/113/1 150/114/1 151/115/1 152/116/1
f 153/117/1 154/118/1 155/119/1 156/120/1
f 157/121/1 158/122/1 159/123/1 160/124/1
f 161/125/1 162/126/1 163/127/1 164/128/1
f 165/129/1 166/130/1 167/131/1 168/132/1

