# Tiled2Unity generated file. Do not modify by hand.
# Wavefront file for 'PanPhHwy_mesh_0004.obj'

# Vertices (Count = 112)
v -39 -33 0
v -40 -33 0
v -40 -32 0
v -39 -32 0
v -39 -35 0
v -40 -35 0
v -40 -34 0
v -39 -34 0
v -38 -35 0
v -39 -35 0
v -39 -34 0
v -38 -34 0
v -37 -35 0
v -38 -35 0
v -38 -34 0
v -37 -34 0
v -36 -35 0
v -37 -35 0
v -37 -34 0
v -36 -34 0
v -35 -35 0
v -36 -35 0
v -36 -34 0
v -35 -34 0
v -34 -35 0
v -35 -35 0
v -35 -34 0
v -34 -34 0
v -33 -35 0
v -34 -35 0
v -34 -34 0
v -33 -34 0
v -32 -35 0
v -33 -35 0
v -33 -34 0
v -32 -34 0
v -31 -35 0
v -32 -35 0
v -32 -34 0
v -31 -34 0
v -39 -36 0
v -40 -36 0
v -40 -35 0
v -39 -35 0
v -38 -36 0
v -39 -36 0
v -39 -35 0
v -38 -35 0
v -37 -36 0
v -38 -36 0
v -38 -35 0
v -37 -35 0
v -36 -36 0
v -37 -36 0
v -37 -35 0
v -36 -35 0
v -35 -36 0
v -36 -36 0
v -36 -35 0
v -35 -35 0
v -34 -36 0
v -35 -36 0
v -35 -35 0
v -34 -35 0
v -33 -36 0
v -34 -36 0
v -34 -35 0
v -33 -35 0
v -32 -36 0
v -33 -36 0
v -33 -35 0
v -32 -35 0
v -31 -36 0
v -32 -36 0
v -32 -35 0
v -31 -35 0
v -39 -37 0
v -40 -37 0
v -40 -36 0
v -39 -36 0
v -38 -37 0
v -39 -37 0
v -39 -36 0
v -38 -36 0
v -37 -37 0
v -38 -37 0
v -38 -36 0
v -37 -36 0
v -36 -37 0
v -37 -37 0
v -37 -36 0
v -36 -36 0
v -35 -37 0
v -36 -37 0
v -36 -36 0
v -35 -36 0
v -34 -37 0
v -35 -37 0
v -35 -36 0
v -34 -36 0
v -33 -37 0
v -34 -37 0
v -34 -36 0
v -33 -36 0
v -32 -37 0
v -33 -37 0
v -33 -36 0
v -32 -36 0
v -31 -37 0
v -32 -37 0
v -32 -36 0
v -31 -36 0

# Texture cooridinates (Count = 112)
vt 0.6552945 0.9474905
vt 0.6722917 0.9474905
vt 0.6722917 0.9735621
vt 0.6552945 0.9735621
vt 0.6552945 0.8948589
vt 0.6722917 0.8948589
vt 0.6722917 0.9209306
vt 0.6552945 0.9209306
vt 0.6380531 0.8948589
vt 0.6550503 0.8948589
vt 0.6550503 0.9209306
vt 0.6380531 0.9209306
vt 0.6208117 0.8948589
vt 0.637809 0.8948589
vt 0.637809 0.9209306
vt 0.6208117 0.9209306
vt 0.6035703 0.8948589
vt 0.6205676 0.8948589
vt 0.6205676 0.9209306
vt 0.6035703 0.9209306
vt 0.586329 0.8948589
vt 0.6033262 0.8948589
vt 0.6033262 0.9209306
vt 0.586329 0.9209306
vt 0.5690876 0.8948589
vt 0.5860848 0.8948589
vt 0.5860848 0.9209306
vt 0.5690876 0.9209306
vt 0.5518462 0.8948589
vt 0.5688434 0.8948589
vt 0.5688434 0.9209306
vt 0.5518462 0.9209306
vt 0.5346048 0.8948589
vt 0.5516021 0.8948589
vt 0.5516021 0.9209306
vt 0.5346048 0.9209306
vt 0.5173634 0.8948589
vt 0.5343607 0.8948589
vt 0.5343607 0.9209306
vt 0.5173634 0.9209306
vt 0.6552945 0.8685431
vt 0.6722917 0.8685431
vt 0.6722917 0.8946148
vt 0.6552945 0.8946148
vt 0.6380531 0.8685431
vt 0.6550503 0.8685431
vt 0.6550503 0.8946148
vt 0.6380531 0.8946148
vt 0.6208117 0.8685431
vt 0.637809 0.8685431
vt 0.637809 0.8946148
vt 0.6208117 0.8946148
vt 0.6035703 0.8685431
vt 0.6205676 0.8685431
vt 0.6205676 0.8946148
vt 0.6035703 0.8946148
vt 0.586329 0.8685431
vt 0.6033262 0.8685431
vt 0.6033262 0.8946148
vt 0.586329 0.8946148
vt 0.5690876 0.8685431
vt 0.5860848 0.8685431
vt 0.5860848 0.8946148
vt 0.5690876 0.8946148
vt 0.5518462 0.8685431
vt 0.5688434 0.8685431
vt 0.5688434 0.8946148
vt 0.5518462 0.8946148
vt 0.5346048 0.8685431
vt 0.5516021 0.8685431
vt 0.5516021 0.8946148
vt 0.5346048 0.8946148
vt 0.5173634 0.8685431
vt 0.5343607 0.8685431
vt 0.5343607 0.8946148
vt 0.5173634 0.8946148
vt 0.6552945 0.8422273
vt 0.6722917 0.8422273
vt 0.6722917 0.868299
vt 0.6552945 0.868299
vt 0.6380531 0.8422273
vt 0.6550503 0.8422273
vt 0.6550503 0.868299
vt 0.6380531 0.868299
vt 0.6208117 0.8422273
vt 0.637809 0.8422273
vt 0.637809 0.868299
vt 0.6208117 0.868299
vt 0.6035703 0.8422273
vt 0.6205676 0.8422273
vt 0.6205676 0.868299
vt 0.6035703 0.868299
vt 0.586329 0.8422273
vt 0.6033262 0.8422273
vt 0.6033262 0.868299
vt 0.586329 0.868299
vt 0.5690876 0.8422273
vt 0.5860848 0.8422273
vt 0.5860848 0.868299
vt 0.5690876 0.868299
vt 0.5518462 0.8422273
vt 0.5688434 0.8422273
vt 0.5688434 0.868299
vt 0.5518462 0.868299
vt 0.5346048 0.8422273
vt 0.5516021 0.8422273
vt 0.5516021 0.868299
vt 0.5346048 0.868299
vt 0.5173634 0.8422273
vt 0.5343607 0.8422273
vt 0.5343607 0.868299
vt 0.5173634 0.868299

# Normal
vn 0 0 -1

# Mesh description
g PanPhHwy_mesh_0004

# Faces
f 1/1/1 2/2/1 3/3/1 4/4/1
f 5/5/1 6/6/1 7/7/1 8/8/1
f 9/9/1 10/10/1 11/11/1 12/12/1
f 13/13/1 14/14/1 15/15/1 16/16/1
f 17/17/1 18/18/1 19/19/1 20/20/1
f 21/21/1 22/22/1 23/23/1 24/24/1
f 25/25/1 26/26/1 27/27/1 28/28/1
f 29/29/1 30/30/1 31/31/1 32/32/1
f 33/33/1 34/34/1 35/35/1 36/36/1
f 37/37/1 38/38/1 39/39/1 40/40/1
f 41/41/1 42/42/1 43/43/1 44/44/1
f 45/45/1 46/46/1 47/47/1 48/48/1
f 49/49/1 50/50/1 51/51/1 52/52/1
f 53/53/1 54/54/1 55/55/1 56/56/1
f 57/57/1 58/58/1 59/59/1 60/60/1
f 61/61/1 62/62/1 63/63/1 64/64/1
f 65/65/1 66/66/1 67/67/1 68/68/1
f 69/69/1 70/70/1 71/71/1 72/72/1
f 73/73/1 74/74/1 75/75/1 76/76/1
f 77/77/1 78/78/1 79/79/1 80/80/1
f 81/81/1 82/82/1 83/83/1 84/84/1
f 85/85/1 86/86/1 87/87/1 88/88/1
f 89/89/1 90/90/1 91/91/1 92/92/1
f 93/93/1 94/94/1 95/95/1 96/96/1
f 97/97/1 98/98/1 99/99/1 100/100/1
f 101/101/1 102/102/1 103/103/1 104/104/1
f 105/105/1 106/106/1 107/107/1 108/108/1
f 109/109/1 110/110/1 111/111/1 112/112/1

