# Tiled2Unity generated file. Do not modify by hand.
# Wavefront file for 'PanPhHwy_mesh_0003.obj'

# Vertices (Count = 348)
v -48 -13 0
v -49 -13 0
v -49 -12 0
v -48 -12 0
v -47 -13 0
v -48 -13 0
v -48 -12 0
v -47 -12 0
v -44 -13 0
v -45 -13 0
v -45 -12 0
v -44 -12 0
v -43 -13 0
v -44 -13 0
v -44 -12 0
v -43 -12 0
v -48 -14 0
v -49 -14 0
v -49 -13 0
v -48 -13 0
v -47 -14 0
v -48 -14 0
v -48 -13 0
v -47 -13 0
v -44 -14 0
v -45 -14 0
v -45 -13 0
v -44 -13 0
v -43 -14 0
v -44 -14 0
v -44 -13 0
v -43 -13 0
v -1 -25 0
v -2 -25 0
v -2 -24 0
v -1 -24 0
v -3 -26 0
v -4 -26 0
v -4 -25 0
v -3 -25 0
v -1 -26 0
v -2 -26 0
v -2 -25 0
v -1 -25 0
v 0 -26 0
v -1 -26 0
v -1 -25 0
v 0 -25 0
v -1 -27 0
v -2 -27 0
v -2 -26 0
v -1 -26 0
v -49 -28 0
v -50 -28 0
v -50 -27 0
v -49 -27 0
v -49 -29 0
v -50 -29 0
v -50 -28 0
v -49 -28 0
v -1 -30 0
v -2 -30 0
v -2 -29 0
v -1 -29 0
v -45 -31 0
v -46 -31 0
v -46 -30 0
v -45 -30 0
v -44 -31 0
v -45 -31 0
v -45 -30 0
v -44 -30 0
v -1 -31 0
v -2 -31 0
v -2 -30 0
v -1 -30 0
v 0 -31 0
v -1 -31 0
v -1 -30 0
v 0 -30 0
v -45 -32 0
v -46 -32 0
v -46 -31 0
v -45 -31 0
v -44 -32 0
v -45 -32 0
v -45 -31 0
v -44 -31 0
v -1 -32 0
v -2 -32 0
v -2 -31 0
v -1 -31 0
v 0 -32 0
v -1 -32 0
v -1 -31 0
v 0 -31 0
v -47 -33 0
v -48 -33 0
v -48 -32 0
v -47 -32 0
v -46 -33 0
v -47 -33 0
v -47 -32 0
v -46 -32 0
v -49 -34 0
v -50 -34 0
v -50 -33 0
v -49 -33 0
v -47 -34 0
v -48 -34 0
v -48 -33 0
v -47 -33 0
v -46 -34 0
v -47 -34 0
v -47 -33 0
v -46 -33 0
v -48 -35 0
v -49 -35 0
v -49 -34 0
v -48 -34 0
v -48 -36 0
v -49 -36 0
v -49 -35 0
v -48 -35 0
v -47 -36 0
v -48 -36 0
v -48 -35 0
v -47 -35 0
v -47 -37 0
v -48 -37 0
v -48 -36 0
v -47 -36 0
v -46 -37 0
v -47 -37 0
v -47 -36 0
v -46 -36 0
v -48 -38 0
v -49 -38 0
v -49 -37 0
v -48 -37 0
v -46 -38 0
v -47 -38 0
v -47 -37 0
v -46 -37 0
v -48 -39 0
v -49 -39 0
v -49 -38 0
v -48 -38 0
v -45 -39 0
v -46 -39 0
v -46 -38 0
v -45 -38 0
v -49 -40 0
v -50 -40 0
v -50 -39 0
v -49 -39 0
v -49 -41 0
v -50 -41 0
v -50 -40 0
v -49 -40 0
v -48 -41 0
v -49 -41 0
v -49 -40 0
v -48 -40 0
v -49 -42 0
v -50 -42 0
v -50 -41 0
v -49 -41 0
v -48 -42 0
v -49 -42 0
v -49 -41 0
v -48 -41 0
v -47 -42 0
v -48 -42 0
v -48 -41 0
v -47 -41 0
v -46 -42 0
v -47 -42 0
v -47 -41 0
v -46 -41 0
v -47 -43 0
v -48 -43 0
v -48 -42 0
v -47 -42 0
v -46 -43 0
v -47 -43 0
v -47 -42 0
v -46 -42 0
v -49 -45 0
v -50 -45 0
v -50 -44 0
v -49 -44 0
v -48 -45 0
v -49 -45 0
v -49 -44 0
v -48 -44 0
v -48 -46 0
v -49 -46 0
v -49 -45 0
v -48 -45 0
v -47 -46 0
v -48 -46 0
v -48 -45 0
v -47 -45 0
v -46 -46 0
v -47 -46 0
v -47 -45 0
v -46 -45 0
v -48 -47 0
v -49 -47 0
v -49 -46 0
v -48 -46 0
v -47 -47 0
v -48 -47 0
v -48 -46 0
v -47 -46 0
v -23 -47 0
v -24 -47 0
v -24 -46 0
v -23 -46 0
v -10 -47 0
v -11 -47 0
v -11 -46 0
v -10 -46 0
v 0 -47 0
v -1 -47 0
v -1 -46 0
v 0 -46 0
v -48 -48 0
v -49 -48 0
v -49 -47 0
v -48 -47 0
v -23 -48 0
v -24 -48 0
v -24 -47 0
v -23 -47 0
v -10 -48 0
v -11 -48 0
v -11 -47 0
v -10 -47 0
v -9 -48 0
v -10 -48 0
v -10 -47 0
v -9 -47 0
v -8 -48 0
v -9 -48 0
v -9 -47 0
v -8 -47 0
v -1 -48 0
v -2 -48 0
v -2 -47 0
v -1 -47 0
v 0 -48 0
v -1 -48 0
v -1 -47 0
v 0 -47 0
v -48 -49 0
v -49 -49 0
v -49 -48 0
v -48 -48 0
v -31 -49 0
v -32 -49 0
v -32 -48 0
v -31 -48 0
v -30 -49 0
v -31 -49 0
v -31 -48 0
v -30 -48 0
v -29 -49 0
v -30 -49 0
v -30 -48 0
v -29 -48 0
v -24 -49 0
v -25 -49 0
v -25 -48 0
v -24 -48 0
v -23 -49 0
v -24 -49 0
v -24 -48 0
v -23 -48 0
v -22 -49 0
v -23 -49 0
v -23 -48 0
v -22 -48 0
v -18 -49 0
v -19 -49 0
v -19 -48 0
v -18 -48 0
v -17 -49 0
v -18 -49 0
v -18 -48 0
v -17 -48 0
v -8 -49 0
v -9 -49 0
v -9 -48 0
v -8 -48 0
v -7 -49 0
v -8 -49 0
v -8 -48 0
v -7 -48 0
v -5 -49 0
v -6 -49 0
v -6 -48 0
v -5 -48 0
v -1 -49 0
v -2 -49 0
v -2 -48 0
v -1 -48 0
v -49 -50 0
v -50 -50 0
v -50 -49 0
v -49 -49 0
v -33 -50 0
v -34 -50 0
v -34 -49 0
v -33 -49 0
v -32 -50 0
v -33 -50 0
v -33 -49 0
v -32 -49 0
v -29 -50 0
v -30 -50 0
v -30 -49 0
v -29 -49 0
v -24 -50 0
v -25 -50 0
v -25 -49 0
v -24 -49 0
v -22 -50 0
v -23 -50 0
v -23 -49 0
v -22 -49 0
v -19 -50 0
v -20 -50 0
v -20 -49 0
v -19 -49 0
v -18 -50 0
v -19 -50 0
v -19 -49 0
v -18 -49 0
v -5 -50 0
v -6 -50 0
v -6 -49 0
v -5 -49 0
v -2 -50 0
v -3 -50 0
v -3 -49 0
v -2 -49 0

# Texture cooridinates (Count = 20)
vt 0.1249595 0.5278999
vt 0.1455216 0.5278999
vt 0.1455216 0.5554335
vt 0.1249595 0.5554335
vt 0.1041533 0.5278999
vt 0.1247154 0.5278999
vt 0.1247154 0.5554335
vt 0.1041533 0.5554335
vt 0.1249595 0.5001221
vt 0.1455216 0.5001221
vt 0.1455216 0.5276557
vt 0.1249595 0.5276557
vt 0.1041533 0.5001221
vt 0.1247154 0.5001221
vt 0.1247154 0.5276557
vt 0.1041533 0.5276557
vt 0.04173455 0.5834554
vt 0.06229666 0.5834554
vt 0.06229666 0.610989
vt 0.04173455 0.610989

# Normal
vn 0 0 -1

# Mesh description
g PanPhHwy_mesh_0003

# Faces
f 1/1/1 2/2/1 3/3/1 4/4/1
f 5/5/1 6/6/1 7/7/1 8/8/1
f 9/1/1 10/2/1 11/3/1 12/4/1
f 13/5/1 14/6/1 15/7/1 16/8/1
f 17/9/1 18/10/1 19/11/1 20/12/1
f 21/13/1 22/14/1 23/15/1 24/16/1
f 25/9/1 26/10/1 27/11/1 28/12/1
f 29/13/1 30/14/1 31/15/1 32/16/1
f 33/17/1 34/18/1 35/19/1 36/20/1
f 37/17/1 38/18/1 39/19/1 40/20/1
f 41/17/1 42/18/1 43/19/1 44/20/1
f 45/17/1 46/18/1 47/19/1 48/20/1
f 49/17/1 50/18/1 51/19/1 52/20/1
f 53/5/1 54/6/1 55/7/1 56/8/1
f 57/13/1 58/14/1 59/15/1 60/16/1
f 61/17/1 62/18/1 63/19/1 64/20/1
f 65/1/1 66/2/1 67/3/1 68/4/1
f 69/5/1 70/6/1 71/7/1 72/8/1
f 73/17/1 74/18/1 75/19/1 76/20/1
f 77/17/1 78/18/1 79/19/1 80/20/1
f 81/9/1 82/10/1 83/11/1 84/12/1
f 85/13/1 86/14/1 87/15/1 88/16/1
f 89/17/1 90/18/1 91/19/1 92/20/1
f 93/17/1 94/18/1 95/19/1 96/20/1
f 97/1/1 98/2/1 99/3/1 100/4/1
f 101/5/1 102/6/1 103/7/1 104/8/1
f 105/17/1 106/18/1 107/19/1 108/20/1
f 109/9/1 110/10/1 111/11/1 112/12/1
f 113/13/1 114/14/1 115/15/1 116/16/1
f 117/17/1 118/18/1 119/19/1 120/20/1
f 121/17/1 122/18/1 123/19/1 124/20/1
f 125/17/1 126/18/1 127/19/1 128/20/1
f 129/17/1 130/18/1 131/19/1 132/20/1
f 133/17/1 134/18/1 135/19/1 136/20/1
f 137/17/1 138/18/1 139/19/1 140/20/1
f 141/17/1 142/18/1 143/19/1 144/20/1
f 145/17/1 146/18/1 147/19/1 148/20/1
f 149/17/1 150/18/1 151/19/1 152/20/1
f 153/17/1 154/18/1 155/19/1 156/20/1
f 157/1/1 158/2/1 159/3/1 160/4/1
f 161/5/1 162/6/1 163/7/1 164/8/1
f 165/9/1 166/10/1 167/11/1 168/12/1
f 169/13/1 170/14/1 171/15/1 172/16/1
f 173/1/1 174/2/1 175/3/1 176/4/1
f 177/5/1 178/6/1 179/7/1 180/8/1
f 181/9/1 182/10/1 183/11/1 184/12/1
f 185/13/1 186/14/1 187/15/1 188/16/1
f 189/17/1 190/18/1 191/19/1 192/20/1
f 193/17/1 194/18/1 195/19/1 196/20/1
f 197/17/1 198/18/1 199/19/1 200/20/1
f 201/17/1 202/18/1 203/19/1 204/20/1
f 205/17/1 206/18/1 207/19/1 208/20/1
f 209/17/1 210/18/1 211/19/1 212/20/1
f 213/17/1 214/18/1 215/19/1 216/20/1
f 217/17/1 218/18/1 219/19/1 220/20/1
f 221/17/1 222/18/1 223/19/1 224/20/1
f 225/17/1 226/18/1 227/19/1 228/20/1
f 229/17/1 230/18/1 231/19/1 232/20/1
f 233/17/1 234/18/1 235/19/1 236/20/1
f 237/17/1 238/18/1 239/19/1 240/20/1
f 241/17/1 242/18/1 243/19/1 244/20/1
f 245/17/1 246/18/1 247/19/1 248/20/1
f 249/17/1 250/18/1 251/19/1 252/20/1
f 253/17/1 254/18/1 255/19/1 256/20/1
f 257/17/1 258/18/1 259/19/1 260/20/1
f 261/17/1 262/18/1 263/19/1 264/20/1
f 265/17/1 266/18/1 267/19/1 268/20/1
f 269/17/1 270/18/1 271/19/1 272/20/1
f 273/17/1 274/18/1 275/19/1 276/20/1
f 277/17/1 278/18/1 279/19/1 280/20/1
f 281/17/1 282/18/1 283/19/1 284/20/1
f 285/17/1 286/18/1 287/19/1 288/20/1
f 289/17/1 290/18/1 291/19/1 292/20/1
f 293/17/1 294/18/1 295/19/1 296/20/1
f 297/17/1 298/18/1 299/19/1 300/20/1
f 301/17/1 302/18/1 303/19/1 304/20/1
f 305/17/1 306/18/1 307/19/1 308/20/1
f 309/17/1 310/18/1 311/19/1 312/20/1
f 313/17/1 314/18/1 315/19/1 316/20/1
f 317/17/1 318/18/1 319/19/1 320/20/1
f 321/17/1 322/18/1 323/19/1 324/20/1
f 325/17/1 326/18/1 327/19/1 328/20/1
f 329/17/1 330/18/1 331/19/1 332/20/1
f 333/17/1 334/18/1 335/19/1 336/20/1
f 337/17/1 338/18/1 339/19/1 340/20/1
f 341/17/1 342/18/1 343/19/1 344/20/1
f 345/17/1 346/18/1 347/19/1 348/20/1

