# Tiled2Unity generated file. Do not modify by hand.
# Wavefront file for 'LeftLangihan_mesh_0005.obj'

# Vertices (Count = 376)
v -34 -22 0
v -35 -22 0
v -35 -21 0
v -34 -21 0
v -33 -22 0
v -34 -22 0
v -34 -21 0
v -33 -21 0
v -32 -22 0
v -33 -22 0
v -33 -21 0
v -32 -21 0
v -31 -22 0
v -32 -22 0
v -32 -21 0
v -31 -21 0
v -34 -23 0
v -35 -23 0
v -35 -22 0
v -34 -22 0
v -33 -23 0
v -34 -23 0
v -34 -22 0
v -33 -22 0
v -32 -23 0
v -33 -23 0
v -33 -22 0
v -32 -22 0
v -31 -23 0
v -32 -23 0
v -32 -22 0
v -31 -22 0
v -30 -23 0
v -31 -23 0
v -31 -22 0
v -30 -22 0
v -29 -23 0
v -30 -23 0
v -30 -22 0
v -29 -22 0
v -28 -23 0
v -29 -23 0
v -29 -22 0
v -28 -22 0
v -27 -23 0
v -28 -23 0
v -28 -22 0
v -27 -22 0
v -34 -24 0
v -35 -24 0
v -35 -23 0
v -34 -23 0
v -33 -24 0
v -34 -24 0
v -34 -23 0
v -33 -23 0
v -32 -24 0
v -33 -24 0
v -33 -23 0
v -32 -23 0
v -31 -24 0
v -32 -24 0
v -32 -23 0
v -31 -23 0
v -30 -24 0
v -31 -24 0
v -31 -23 0
v -30 -23 0
v -29 -24 0
v -30 -24 0
v -30 -23 0
v -29 -23 0
v -28 -24 0
v -29 -24 0
v -29 -23 0
v -28 -23 0
v -27 -24 0
v -28 -24 0
v -28 -23 0
v -27 -23 0
v -15 -24 0
v -16 -24 0
v -16 -23 0
v -15 -23 0
v -14 -24 0
v -15 -24 0
v -15 -23 0
v -14 -23 0
v -2 -24 0
v -3 -24 0
v -3 -23 0
v -2 -23 0
v -1 -24 0
v -2 -24 0
v -2 -23 0
v -1 -23 0
v -34 -25 0
v -35 -25 0
v -35 -24 0
v -34 -24 0
v -31 -25 0
v -32 -25 0
v -32 -24 0
v -31 -24 0
v -30 -25 0
v -31 -25 0
v -31 -24 0
v -30 -24 0
v -29 -25 0
v -30 -25 0
v -30 -24 0
v -29 -24 0
v -28 -25 0
v -29 -25 0
v -29 -24 0
v -28 -24 0
v -27 -25 0
v -28 -25 0
v -28 -24 0
v -27 -24 0
v -24 -25 0
v -25 -25 0
v -25 -24 0
v -24 -24 0
v -23 -25 0
v -24 -25 0
v -24 -24 0
v -23 -24 0
v -30 -26 0
v -31 -26 0
v -31 -25 0
v -30 -25 0
v -27 -26 0
v -28 -26 0
v -28 -25 0
v -27 -25 0
v -16 -26 0
v -17 -26 0
v -17 -25 0
v -16 -25 0
v -15 -26 0
v -16 -26 0
v -16 -25 0
v -15 -25 0
v -3 -26 0
v -4 -26 0
v -4 -25 0
v -3 -25 0
v -2 -26 0
v -3 -26 0
v -3 -25 0
v -2 -25 0
v -16 -38 0
v -17 -38 0
v -17 -37 0
v -16 -37 0
v -15 -38 0
v -16 -38 0
v -16 -37 0
v -15 -37 0
v -14 -38 0
v -15 -38 0
v -15 -37 0
v -14 -37 0
v -13 -38 0
v -14 -38 0
v -14 -37 0
v -13 -37 0
v -16 -39 0
v -17 -39 0
v -17 -38 0
v -16 -38 0
v -15 -39 0
v -16 -39 0
v -16 -38 0
v -15 -38 0
v -14 -39 0
v -15 -39 0
v -15 -38 0
v -14 -38 0
v -13 -39 0
v -14 -39 0
v -14 -38 0
v -13 -38 0
v -48 -40 0
v -49 -40 0
v -49 -39 0
v -48 -39 0
v -47 -40 0
v -48 -40 0
v -48 -39 0
v -47 -39 0
v -16 -40 0
v -17 -40 0
v -17 -39 0
v -16 -39 0
v -15 -40 0
v -16 -40 0
v -16 -39 0
v -15 -39 0
v -14 -40 0
v -15 -40 0
v -15 -39 0
v -14 -39 0
v -13 -40 0
v -14 -40 0
v -14 -39 0
v -13 -39 0
v -45 -41 0
v -46 -41 0
v -46 -40 0
v -45 -40 0
v -44 -41 0
v -45 -41 0
v -45 -40 0
v -44 -40 0
v -24 -41 0
v -25 -41 0
v -25 -40 0
v -24 -40 0
v -23 -41 0
v -24 -41 0
v -24 -40 0
v -23 -40 0
v -21 -41 0
v -22 -41 0
v -22 -40 0
v -21 -40 0
v -20 -41 0
v -21 -41 0
v -21 -40 0
v -20 -40 0
v -16 -41 0
v -17 -41 0
v -17 -40 0
v -16 -40 0
v -13 -41 0
v -14 -41 0
v -14 -40 0
v -13 -40 0
v -49 -43 0
v -50 -43 0
v -50 -42 0
v -49 -42 0
v -48 -43 0
v -49 -43 0
v -49 -42 0
v -48 -42 0
v -16 -43 0
v -17 -43 0
v -17 -42 0
v -16 -42 0
v -15 -43 0
v -16 -43 0
v -16 -42 0
v -15 -42 0
v -14 -43 0
v -15 -43 0
v -15 -42 0
v -14 -42 0
v -13 -43 0
v -14 -43 0
v -14 -42 0
v -13 -42 0
v -22 -44 0
v -23 -44 0
v -23 -43 0
v -22 -43 0
v -21 -44 0
v -22 -44 0
v -22 -43 0
v -21 -43 0
v -16 -44 0
v -17 -44 0
v -17 -43 0
v -16 -43 0
v -15 -44 0
v -16 -44 0
v -16 -43 0
v -15 -43 0
v -14 -44 0
v -15 -44 0
v -15 -43 0
v -14 -43 0
v -13 -44 0
v -14 -44 0
v -14 -43 0
v -13 -43 0
v -16 -45 0
v -17 -45 0
v -17 -44 0
v -16 -44 0
v -15 -45 0
v -16 -45 0
v -16 -44 0
v -15 -44 0
v -14 -45 0
v -15 -45 0
v -15 -44 0
v -14 -44 0
v -13 -45 0
v -14 -45 0
v -14 -44 0
v -13 -44 0
v -48 -46 0
v -49 -46 0
v -49 -45 0
v -48 -45 0
v -47 -46 0
v -48 -46 0
v -48 -45 0
v -47 -45 0
v -16 -46 0
v -17 -46 0
v -17 -45 0
v -16 -45 0
v -13 -46 0
v -14 -46 0
v -14 -45 0
v -13 -45 0
v -31 -47 0
v -32 -47 0
v -32 -46 0
v -31 -46 0
v -30 -47 0
v -31 -47 0
v -31 -46 0
v -30 -46 0
v -29 -47 0
v -30 -47 0
v -30 -46 0
v -29 -46 0
v -28 -47 0
v -29 -47 0
v -29 -46 0
v -28 -46 0
v -31 -48 0
v -32 -48 0
v -32 -47 0
v -31 -47 0
v -30 -48 0
v -31 -48 0
v -31 -47 0
v -30 -47 0
v -29 -48 0
v -30 -48 0
v -30 -47 0
v -29 -47 0
v -28 -48 0
v -29 -48 0
v -29 -47 0
v -28 -47 0
v -31 -49 0
v -32 -49 0
v -32 -48 0
v -31 -48 0
v -30 -49 0
v -31 -49 0
v -31 -48 0
v -30 -48 0
v -29 -49 0
v -30 -49 0
v -30 -48 0
v -29 -48 0
v -28 -49 0
v -29 -49 0
v -29 -48 0
v -28 -48 0
v -31 -50 0
v -32 -50 0
v -32 -49 0
v -31 -49 0
v -28 -50 0
v -29 -50 0
v -29 -49 0
v -28 -49 0

# Texture cooridinates (Count = 64)
vt 0.0625408 0.08345538
vt 0.0831029 0.08345538
vt 0.0831029 0.110989
vt 0.0625408 0.110989
vt 0.04173455 0.08345538
vt 0.06229666 0.08345538
vt 0.06229666 0.110989
vt 0.04173455 0.110989
vt 0.02092831 0.08345538
vt 0.04149041 0.08345538
vt 0.04149041 0.110989
vt 0.02092831 0.110989
vt 0.0001220703 0.08345538
vt 0.02068417 0.08345538
vt 0.02068417 0.110989
vt 0.0001220703 0.110989
vt 0.0625408 0.05567765
vt 0.0831029 0.05567765
vt 0.0831029 0.08321124
vt 0.0625408 0.08321124
vt 0.04173455 0.05567765
vt 0.06229666 0.05567765
vt 0.06229666 0.08321124
vt 0.04173455 0.08321124
vt 0.02092831 0.05567765
vt 0.04149041 0.05567765
vt 0.04149041 0.08321124
vt 0.02092831 0.08321124
vt 0.0001220703 0.05567765
vt 0.02068417 0.05567765
vt 0.02068417 0.08321124
vt 0.0001220703 0.08321124
vt 0.0625408 0.02789986
vt 0.0831029 0.02789986
vt 0.0831029 0.05543351
vt 0.0625408 0.05543351
vt 0.04173455 0.02789986
vt 0.06229666 0.02789986
vt 0.06229666 0.05543351
vt 0.04173455 0.05543351
vt 0.02092831 0.02789986
vt 0.04149041 0.02789986
vt 0.04149041 0.05543351
vt 0.02092831 0.05543351
vt 0.0001220703 0.02789986
vt 0.02068417 0.02789986
vt 0.02068417 0.05543351
vt 0.0001220703 0.05543351
vt 0.1249595 0.5278999
vt 0.1455216 0.5278999
vt 0.1455216 0.5554335
vt 0.1249595 0.5554335
vt 0.1041533 0.5278999
vt 0.1247154 0.5278999
vt 0.1247154 0.5554335
vt 0.1041533 0.5554335
vt 0.0625408 0.0001220703
vt 0.0831029 0.0001220703
vt 0.0831029 0.02765572
vt 0.0625408 0.02765572
vt 0.0001220703 0.0001220703
vt 0.02068417 0.0001220703
vt 0.02068417 0.02765572
vt 0.0001220703 0.02765572

# Normal
vn 0 0 -1

# Mesh description
g LeftLangihan_mesh_0005

# Faces
f 1/1/1 2/2/1 3/3/1 4/4/1
f 5/5/1 6/6/1 7/7/1 8/8/1
f 9/9/1 10/10/1 11/11/1 12/12/1
f 13/13/1 14/14/1 15/15/1 16/16/1
f 17/17/1 18/18/1 19/19/1 20/20/1
f 21/21/1 22/22/1 23/23/1 24/24/1
f 25/25/1 26/26/1 27/27/1 28/28/1
f 29/29/1 30/30/1 31/31/1 32/32/1
f 33/1/1 34/2/1 35/3/1 36/4/1
f 37/5/1 38/6/1 39/7/1 40/8/1
f 41/9/1 42/10/1 43/11/1 44/12/1
f 45/13/1 46/14/1 47/15/1 48/16/1
f 49/33/1 50/34/1 51/35/1 52/36/1
f 53/37/1 54/38/1 55/39/1 56/40/1
f 57/41/1 58/42/1 59/43/1 60/44/1
f 61/45/1 62/46/1 63/47/1 64/48/1
f 65/17/1 66/18/1 67/19/1 68/20/1
f 69/21/1 70/22/1 71/23/1 72/24/1
f 73/25/1 74/26/1 75/27/1 76/28/1
f 77/29/1 78/30/1 79/31/1 80/32/1
f 81/49/1 82/50/1 83/51/1 84/52/1
f 85/53/1 86/54/1 87/55/1 88/56/1
f 89/49/1 90/50/1 91/51/1 92/52/1
f 93/53/1 94/54/1 95/55/1 96/56/1
f 97/57/1 98/58/1 99/59/1 100/60/1
f 101/61/1 102/62/1 103/63/1 104/64/1
f 105/33/1 106/34/1 107/35/1 108/36/1
f 109/37/1 110/38/1 111/39/1 112/40/1
f 113/41/1 114/42/1 115/43/1 116/44/1
f 117/45/1 118/46/1 119/47/1 120/48/1
f 121/49/1 122/50/1 123/51/1 124/52/1
f 125/53/1 126/54/1 127/55/1 128/56/1
f 129/57/1 130/58/1 131/59/1 132/60/1
f 133/61/1 134/62/1 135/63/1 136/64/1
f 137/49/1 138/50/1 139/51/1 140/52/1
f 141/53/1 142/54/1 143/55/1 144/56/1
f 145/49/1 146/50/1 147/51/1 148/52/1
f 149/53/1 150/54/1 151/55/1 152/56/1
f 153/1/1 154/2/1 155/3/1 156/4/1
f 157/5/1 158/6/1 159/7/1 160/8/1
f 161/9/1 162/10/1 163/11/1 164/12/1
f 165/13/1 166/14/1 167/15/1 168/16/1
f 169/17/1 170/18/1 171/19/1 172/20/1
f 173/21/1 174/22/1 175/23/1 176/24/1
f 177/25/1 178/26/1 179/27/1 180/28/1
f 181/29/1 182/30/1 183/31/1 184/32/1
f 185/49/1 186/50/1 187/51/1 188/52/1
f 189/53/1 190/54/1 191/55/1 192/56/1
f 193/33/1 194/34/1 195/35/1 196/36/1
f 197/37/1 198/38/1 199/39/1 200/40/1
f 201/41/1 202/42/1 203/43/1 204/44/1
f 205/45/1 206/46/1 207/47/1 208/48/1
f 209/49/1 210/50/1 211/51/1 212/52/1
f 213/53/1 214/54/1 215/55/1 216/56/1
f 217/49/1 218/50/1 219/51/1 220/52/1
f 221/53/1 222/54/1 223/55/1 224/56/1
f 225/49/1 226/50/1 227/51/1 228/52/1
f 229/53/1 230/54/1 231/55/1 232/56/1
f 233/57/1 234/58/1 235/59/1 236/60/1
f 237/61/1 238/62/1 239/63/1 240/64/1
f 241/49/1 242/50/1 243/51/1 244/52/1
f 245/53/1 246/54/1 247/55/1 248/56/1
f 249/1/1 250/2/1 251/3/1 252/4/1
f 253/5/1 254/6/1 255/7/1 256/8/1
f 257/9/1 258/10/1 259/11/1 260/12/1
f 261/13/1 262/14/1 263/15/1 264/16/1
f 265/49/1 266/50/1 267/51/1 268/52/1
f 269/53/1 270/54/1 271/55/1 272/56/1
f 273/17/1 274/18/1 275/19/1 276/20/1
f 277/21/1 278/22/1 279/23/1 280/24/1
f 281/25/1 282/26/1 283/27/1 284/28/1
f 285/29/1 286/30/1 287/31/1 288/32/1
f 289/33/1 290/34/1 291/35/1 292/36/1
f 293/37/1 294/38/1 295/39/1 296/40/1
f 297/41/1 298/42/1 299/43/1 300/44/1
f 301/45/1 302/46/1 303/47/1 304/48/1
f 305/49/1 306/50/1 307/51/1 308/52/1
f 309/53/1 310/54/1 311/55/1 312/56/1
f 313/57/1 314/58/1 315/59/1 316/60/1
f 317/61/1 318/62/1 319/63/1 320/64/1
f 321/1/1 322/2/1 323/3/1 324/4/1
f 325/5/1 326/6/1 327/7/1 328/8/1
f 329/9/1 330/10/1 331/11/1 332/12/1
f 333/13/1 334/14/1 335/15/1 336/16/1
f 337/17/1 338/18/1 339/19/1 340/20/1
f 341/21/1 342/22/1 343/23/1 344/24/1
f 345/25/1 346/26/1 347/27/1 348/28/1
f 349/29/1 350/30/1 351/31/1 352/32/1
f 353/33/1 354/34/1 355/35/1 356/36/1
f 357/37/1 358/38/1 359/39/1 360/40/1
f 361/41/1 362/42/1 363/43/1 364/44/1
f 365/45/1 366/46/1 367/47/1 368/48/1
f 369/57/1 370/58/1 371/59/1 372/60/1
f 373/61/1 374/62/1 375/63/1 376/64/1

