# Tiled2Unity generated file. Do not modify by hand.
# Wavefront file for 'LeftLangihan_mesh_0003.obj'

# Vertices (Count = 416)
v -44 -4 0
v -45 -4 0
v -45 -3 0
v -44 -3 0
v -43 -4 0
v -44 -4 0
v -44 -3 0
v -43 -3 0
v -42 -4 0
v -43 -4 0
v -43 -3 0
v -42 -3 0
v -41 -4 0
v -42 -4 0
v -42 -3 0
v -41 -3 0
v -44 -5 0
v -45 -5 0
v -45 -4 0
v -44 -4 0
v -43 -5 0
v -44 -5 0
v -44 -4 0
v -43 -4 0
v -42 -5 0
v -43 -5 0
v -43 -4 0
v -42 -4 0
v -41 -5 0
v -42 -5 0
v -42 -4 0
v -41 -4 0
v -16 -9 0
v -17 -9 0
v -17 -8 0
v -16 -8 0
v -15 -9 0
v -16 -9 0
v -16 -8 0
v -15 -8 0
v -14 -9 0
v -15 -9 0
v -15 -8 0
v -14 -8 0
v -13 -9 0
v -14 -9 0
v -14 -8 0
v -13 -8 0
v -12 -9 0
v -13 -9 0
v -13 -8 0
v -12 -8 0
v -11 -9 0
v -12 -9 0
v -12 -8 0
v -11 -8 0
v -10 -9 0
v -11 -9 0
v -11 -8 0
v -10 -8 0
v -16 -10 0
v -17 -10 0
v -17 -9 0
v -16 -9 0
v -15 -10 0
v -16 -10 0
v -16 -9 0
v -15 -9 0
v -14 -10 0
v -15 -10 0
v -15 -9 0
v -14 -9 0
v -13 -10 0
v -14 -10 0
v -14 -9 0
v -13 -9 0
v -12 -10 0
v -13 -10 0
v -13 -9 0
v -12 -9 0
v -11 -10 0
v -12 -10 0
v -12 -9 0
v -11 -9 0
v -10 -10 0
v -11 -10 0
v -11 -9 0
v -10 -9 0
v -16 -11 0
v -17 -11 0
v -17 -10 0
v -16 -10 0
v -15 -11 0
v -16 -11 0
v -16 -10 0
v -15 -10 0
v -14 -11 0
v -15 -11 0
v -15 -10 0
v -14 -10 0
v -13 -11 0
v -14 -11 0
v -14 -10 0
v -13 -10 0
v -12 -11 0
v -13 -11 0
v -13 -10 0
v -12 -10 0
v -11 -11 0
v -12 -11 0
v -12 -10 0
v -11 -10 0
v -10 -11 0
v -11 -11 0
v -11 -10 0
v -10 -10 0
v -34 -15 0
v -35 -15 0
v -35 -14 0
v -34 -14 0
v -33 -15 0
v -34 -15 0
v -34 -14 0
v -33 -14 0
v -32 -15 0
v -33 -15 0
v -33 -14 0
v -32 -14 0
v -31 -15 0
v -32 -15 0
v -32 -14 0
v -31 -14 0
v -30 -15 0
v -31 -15 0
v -31 -14 0
v -30 -14 0
v -29 -15 0
v -30 -15 0
v -30 -14 0
v -29 -14 0
v -28 -15 0
v -29 -15 0
v -29 -14 0
v -28 -14 0
v -34 -16 0
v -35 -16 0
v -35 -15 0
v -34 -15 0
v -33 -16 0
v -34 -16 0
v -34 -15 0
v -33 -15 0
v -32 -16 0
v -33 -16 0
v -33 -15 0
v -32 -15 0
v -31 -16 0
v -32 -16 0
v -32 -15 0
v -31 -15 0
v -30 -16 0
v -31 -16 0
v -31 -15 0
v -30 -15 0
v -29 -16 0
v -30 -16 0
v -30 -15 0
v -29 -15 0
v -28 -16 0
v -29 -16 0
v -29 -15 0
v -28 -15 0
v -34 -17 0
v -35 -17 0
v -35 -16 0
v -34 -16 0
v -33 -17 0
v -34 -17 0
v -34 -16 0
v -33 -16 0
v -32 -17 0
v -33 -17 0
v -33 -16 0
v -32 -16 0
v -31 -17 0
v -32 -17 0
v -32 -16 0
v -31 -16 0
v -30 -17 0
v -31 -17 0
v -31 -16 0
v -30 -16 0
v -29 -17 0
v -30 -17 0
v -30 -16 0
v -29 -16 0
v -28 -17 0
v -29 -17 0
v -29 -16 0
v -28 -16 0
v -22 -18 0
v -23 -18 0
v -23 -17 0
v -22 -17 0
v -21 -18 0
v -22 -18 0
v -22 -17 0
v -21 -17 0
v -20 -18 0
v -21 -18 0
v -21 -17 0
v -20 -17 0
v -19 -18 0
v -20 -18 0
v -20 -17 0
v -19 -17 0
v -18 -18 0
v -19 -18 0
v -19 -17 0
v -18 -17 0
v -17 -18 0
v -18 -18 0
v -18 -17 0
v -17 -17 0
v -16 -18 0
v -17 -18 0
v -17 -17 0
v -16 -17 0
v -22 -19 0
v -23 -19 0
v -23 -18 0
v -22 -18 0
v -21 -19 0
v -22 -19 0
v -22 -18 0
v -21 -18 0
v -20 -19 0
v -21 -19 0
v -21 -18 0
v -20 -18 0
v -19 -19 0
v -20 -19 0
v -20 -18 0
v -19 -18 0
v -18 -19 0
v -19 -19 0
v -19 -18 0
v -18 -18 0
v -17 -19 0
v -18 -19 0
v -18 -18 0
v -17 -18 0
v -16 -19 0
v -17 -19 0
v -17 -18 0
v -16 -18 0
v -20 -34 0
v -21 -34 0
v -21 -33 0
v -20 -33 0
v -19 -34 0
v -20 -34 0
v -20 -33 0
v -19 -33 0
v -18 -34 0
v -19 -34 0
v -19 -33 0
v -18 -33 0
v -17 -34 0
v -18 -34 0
v -18 -33 0
v -17 -33 0
v -20 -35 0
v -21 -35 0
v -21 -34 0
v -20 -34 0
v -19 -35 0
v -20 -35 0
v -20 -34 0
v -19 -34 0
v -18 -35 0
v -19 -35 0
v -19 -34 0
v -18 -34 0
v -17 -35 0
v -18 -35 0
v -18 -34 0
v -17 -34 0
v -49 -36 0
v -50 -36 0
v -50 -35 0
v -49 -35 0
v -48 -36 0
v -49 -36 0
v -49 -35 0
v -48 -35 0
v -47 -36 0
v -48 -36 0
v -48 -35 0
v -47 -35 0
v -46 -36 0
v -47 -36 0
v -47 -35 0
v -46 -35 0
v -49 -37 0
v -50 -37 0
v -50 -36 0
v -49 -36 0
v -48 -37 0
v -49 -37 0
v -49 -36 0
v -48 -36 0
v -47 -37 0
v -48 -37 0
v -48 -36 0
v -47 -36 0
v -46 -37 0
v -47 -37 0
v -47 -36 0
v -46 -36 0
v -3 -39 0
v -4 -39 0
v -4 -38 0
v -3 -38 0
v -2 -39 0
v -3 -39 0
v -3 -38 0
v -2 -38 0
v -1 -39 0
v -2 -39 0
v -2 -38 0
v -1 -38 0
v 0 -39 0
v -1 -39 0
v -1 -38 0
v 0 -38 0
v -3 -40 0
v -4 -40 0
v -4 -39 0
v -3 -39 0
v -2 -40 0
v -3 -40 0
v -3 -39 0
v -2 -39 0
v -1 -40 0
v -2 -40 0
v -2 -39 0
v -1 -39 0
v 0 -40 0
v -1 -40 0
v -1 -39 0
v 0 -39 0
v -32 -41 0
v -33 -41 0
v -33 -40 0
v -32 -40 0
v -31 -41 0
v -32 -41 0
v -32 -40 0
v -31 -40 0
v -30 -41 0
v -31 -41 0
v -31 -40 0
v -30 -40 0
v -29 -41 0
v -30 -41 0
v -30 -40 0
v -29 -40 0
v -32 -42 0
v -33 -42 0
v -33 -41 0
v -32 -41 0
v -31 -42 0
v -32 -42 0
v -32 -41 0
v -31 -41 0
v -30 -42 0
v -31 -42 0
v -31 -41 0
v -30 -41 0
v -29 -42 0
v -30 -42 0
v -30 -41 0
v -29 -41 0
v -46 -46 0
v -47 -46 0
v -47 -45 0
v -46 -45 0
v -45 -46 0
v -46 -46 0
v -46 -45 0
v -45 -45 0
v -44 -46 0
v -45 -46 0
v -45 -45 0
v -44 -45 0
v -43 -46 0
v -44 -46 0
v -44 -45 0
v -43 -45 0
v -46 -47 0
v -47 -47 0
v -47 -46 0
v -46 -46 0
v -45 -47 0
v -46 -47 0
v -46 -46 0
v -45 -46 0
v -44 -47 0
v -45 -47 0
v -45 -46 0
v -44 -46 0
v -43 -47 0
v -44 -47 0
v -44 -46 0
v -43 -46 0

# Texture cooridinates (Count = 204)
vt 0.3749889 0.9211747
vt 0.3917842 0.9211747
vt 0.3917842 0.9472464
vt 0.3749889 0.9472464
vt 0.3579496 0.9211747
vt 0.3747448 0.9211747
vt 0.3747448 0.9472464
vt 0.3579496 0.9472464
vt 0.3409101 0.9211747
vt 0.3577054 0.9211747
vt 0.3577054 0.9472464
vt 0.3409101 0.9472464
vt 0.3238707 0.9211747
vt 0.340666 0.9211747
vt 0.340666 0.9472464
vt 0.3238707 0.9472464
vt 0.3749889 0.8948589
vt 0.3917842 0.8948589
vt 0.3917842 0.9209306
vt 0.3749889 0.9209306
vt 0.3579496 0.8948589
vt 0.3747448 0.8948589
vt 0.3747448 0.9209306
vt 0.3579496 0.9209306
vt 0.3409101 0.8948589
vt 0.3577054 0.8948589
vt 0.3577054 0.9209306
vt 0.3409101 0.9209306
vt 0.3238707 0.8948589
vt 0.340666 0.8948589
vt 0.340666 0.9209306
vt 0.3238707 0.9209306
vt 0.2727525 0.2106484
vt 0.2895478 0.2106484
vt 0.2895478 0.23672
vt 0.2727525 0.23672
vt 0.2557131 0.2106484
vt 0.2725084 0.2106484
vt 0.2725084 0.23672
vt 0.2557131 0.23672
vt 0.2386737 0.2106484
vt 0.255469 0.2106484
vt 0.255469 0.23672
vt 0.2386737 0.23672
vt 0.2216343 0.2106484
vt 0.2384296 0.2106484
vt 0.2384296 0.23672
vt 0.2216343 0.23672
vt 0.2045949 0.2106484
vt 0.2213902 0.2106484
vt 0.2213902 0.23672
vt 0.2045949 0.23672
vt 0.1875555 0.2106484
vt 0.2043508 0.2106484
vt 0.2043508 0.23672
vt 0.1875555 0.23672
vt 0.1705161 0.2106484
vt 0.1873114 0.2106484
vt 0.1873114 0.23672
vt 0.1705161 0.23672
vt 0.2727525 0.1843326
vt 0.2895478 0.1843326
vt 0.2895478 0.2104042
vt 0.2727525 0.2104042
vt 0.2557131 0.1843326
vt 0.2725084 0.1843326
vt 0.2725084 0.2104042
vt 0.2557131 0.2104042
vt 0.2386737 0.1843326
vt 0.255469 0.1843326
vt 0.255469 0.2104042
vt 0.2386737 0.2104042
vt 0.2216343 0.1843326
vt 0.2384296 0.1843326
vt 0.2384296 0.2104042
vt 0.2216343 0.2104042
vt 0.2045949 0.1843326
vt 0.2213902 0.1843326
vt 0.2213902 0.2104042
vt 0.2045949 0.2104042
vt 0.1875555 0.1843326
vt 0.2043508 0.1843326
vt 0.2043508 0.2104042
vt 0.1875555 0.2104042
vt 0.1705161 0.1843326
vt 0.1873114 0.1843326
vt 0.1873114 0.2104042
vt 0.1705161 0.2104042
vt 0.2727525 0.1580168
vt 0.2895478 0.1580168
vt 0.2895478 0.1840885
vt 0.2727525 0.1840885
vt 0.2557131 0.1580168
vt 0.2725084 0.1580168
vt 0.2725084 0.1840885
vt 0.2557131 0.1840885
vt 0.2386737 0.1580168
vt 0.255469 0.1580168
vt 0.255469 0.1840885
vt 0.2386737 0.1840885
vt 0.2216343 0.1580168
vt 0.2384296 0.1580168
vt 0.2384296 0.1840885
vt 0.2216343 0.1840885
vt 0.2045949 0.1580168
vt 0.2213902 0.1580168
vt 0.2213902 0.1840885
vt 0.2045949 0.1840885
vt 0.1875555 0.1580168
vt 0.2043508 0.1580168
vt 0.2043508 0.1840885
vt 0.1875555 0.1840885
vt 0.1705161 0.1580168
vt 0.1873114 0.1580168
vt 0.1873114 0.1840885
vt 0.1705161 0.1840885
vt 0.6135406 0.2106484
vt 0.6303359 0.2106484
vt 0.6303359 0.23672
vt 0.6135406 0.23672
vt 0.5965012 0.2106484
vt 0.6132964 0.2106484
vt 0.6132964 0.23672
vt 0.5965012 0.23672
vt 0.5794618 0.2106484
vt 0.596257 0.2106484
vt 0.596257 0.23672
vt 0.5794618 0.23672
vt 0.5624224 0.2106484
vt 0.5792177 0.2106484
vt 0.5792177 0.23672
vt 0.5624224 0.23672
vt 0.545383 0.2106484
vt 0.5621783 0.2106484
vt 0.5621783 0.23672
vt 0.545383 0.23672
vt 0.5283436 0.2106484
vt 0.5451388 0.2106484
vt 0.5451388 0.23672
vt 0.5283436 0.23672
vt 0.5113042 0.2106484
vt 0.5280994 0.2106484
vt 0.5280994 0.23672
vt 0.5113042 0.23672
vt 0.6135406 0.1843326
vt 0.6303359 0.1843326
vt 0.6303359 0.2104042
vt 0.6135406 0.2104042
vt 0.5965012 0.1843326
vt 0.6132964 0.1843326
vt 0.6132964 0.2104042
vt 0.5965012 0.2104042
vt 0.5794618 0.1843326
vt 0.596257 0.1843326
vt 0.596257 0.2104042
vt 0.5794618 0.2104042
vt 0.5624224 0.1843326
vt 0.5792177 0.1843326
vt 0.5792177 0.2104042
vt 0.5624224 0.2104042
vt 0.545383 0.1843326
vt 0.5621783 0.1843326
vt 0.5621783 0.2104042
vt 0.545383 0.2104042
vt 0.5283436 0.1843326
vt 0.5451388 0.1843326
vt 0.5451388 0.2104042
vt 0.5283436 0.2104042
vt 0.5113042 0.1843326
vt 0.5280994 0.1843326
vt 0.5280994 0.2104042
vt 0.5113042 0.2104042
vt 0.6816982 0.2106484
vt 0.6984935 0.2106484
vt 0.6984935 0.23672
vt 0.6816982 0.23672
vt 0.6646588 0.2106484
vt 0.6814541 0.2106484
vt 0.6814541 0.23672
vt 0.6646588 0.23672
vt 0.6476194 0.2106484
vt 0.6644146 0.2106484
vt 0.6644146 0.23672
vt 0.6476194 0.23672
vt 0.63058 0.2106484
vt 0.6473753 0.2106484
vt 0.6473753 0.23672
vt 0.63058 0.23672
vt 0.6816982 0.1843326
vt 0.6984935 0.1843326
vt 0.6984935 0.2104042
vt 0.6816982 0.2104042
vt 0.6646588 0.1843326
vt 0.6814541 0.1843326
vt 0.6814541 0.2104042
vt 0.6646588 0.2104042
vt 0.6476194 0.1843326
vt 0.6644146 0.1843326
vt 0.6644146 0.2104042
vt 0.6476194 0.2104042
vt 0.63058 0.1843326
vt 0.6473753 0.1843326
vt 0.6473753 0.2104042
vt 0.63058 0.2104042

# Normal
vn 0 0 -1

# Mesh description
g LeftLangihan_mesh_0003

# Faces
f 1/1/1 2/2/1 3/3/1 4/4/1
f 5/5/1 6/6/1 7/7/1 8/8/1
f 9/9/1 10/10/1 11/11/1 12/12/1
f 13/13/1 14/14/1 15/15/1 16/16/1
f 17/17/1 18/18/1 19/19/1 20/20/1
f 21/21/1 22/22/1 23/23/1 24/24/1
f 25/25/1 26/26/1 27/27/1 28/28/1
f 29/29/1 30/30/1 31/31/1 32/32/1
f 33/33/1 34/34/1 35/35/1 36/36/1
f 37/37/1 38/38/1 39/39/1 40/40/1
f 41/41/1 42/42/1 43/43/1 44/44/1
f 45/45/1 46/46/1 47/47/1 48/48/1
f 49/49/1 50/50/1 51/51/1 52/52/1
f 53/53/1 54/54/1 55/55/1 56/56/1
f 57/57/1 58/58/1 59/59/1 60/60/1
f 61/61/1 62/62/1 63/63/1 64/64/1
f 65/65/1 66/66/1 67/67/1 68/68/1
f 69/69/1 70/70/1 71/71/1 72/72/1
f 73/73/1 74/74/1 75/75/1 76/76/1
f 77/77/1 78/78/1 79/79/1 80/80/1
f 81/81/1 82/82/1 83/83/1 84/84/1
f 85/85/1 86/86/1 87/87/1 88/88/1
f 89/89/1 90/90/1 91/91/1 92/92/1
f 93/93/1 94/94/1 95/95/1 96/96/1
f 97/97/1 98/98/1 99/99/1 100/100/1
f 101/101/1 102/102/1 103/103/1 104/104/1
f 105/105/1 106/106/1 107/107/1 108/108/1
f 109/109/1 110/110/1 111/111/1 112/112/1
f 113/113/1 114/114/1 115/115/1 116/116/1
f 117/33/1 118/34/1 119/35/1 120/36/1
f 121/37/1 122/38/1 123/39/1 124/40/1
f 125/41/1 126/42/1 127/43/1 128/44/1
f 129/45/1 130/46/1 131/47/1 132/48/1
f 133/49/1 134/50/1 135/51/1 136/52/1
f 137/53/1 138/54/1 139/55/1 140/56/1
f 141/57/1 142/58/1 143/59/1 144/60/1
f 145/61/1 146/62/1 147/63/1 148/64/1
f 149/65/1 150/66/1 151/67/1 152/68/1
f 153/69/1 154/70/1 155/71/1 156/72/1
f 157/73/1 158/74/1 159/75/1 160/76/1
f 161/77/1 162/78/1 163/79/1 164/80/1
f 165/81/1 166/82/1 167/83/1 168/84/1
f 169/85/1 170/86/1 171/87/1 172/88/1
f 173/89/1 174/90/1 175/91/1 176/92/1
f 177/93/1 178/94/1 179/95/1 180/96/1
f 181/97/1 182/98/1 183/99/1 184/100/1
f 185/101/1 186/102/1 187/103/1 188/104/1
f 189/105/1 190/106/1 191/107/1 192/108/1
f 193/109/1 194/110/1 195/111/1 196/112/1
f 197/113/1 198/114/1 199/115/1 200/116/1
f 201/117/1 202/118/1 203/119/1 204/120/1
f 205/121/1 206/122/1 207/123/1 208/124/1
f 209/125/1 210/126/1 211/127/1 212/128/1
f 213/129/1 214/130/1 215/131/1 216/132/1
f 217/133/1 218/134/1 219/135/1 220/136/1
f 221/137/1 222/138/1 223/139/1 224/140/1
f 225/141/1 226/142/1 227/143/1 228/144/1
f 229/145/1 230/146/1 231/147/1 232/148/1
f 233/149/1 234/150/1 235/151/1 236/152/1
f 237/153/1 238/154/1 239/155/1 240/156/1
f 241/157/1 242/158/1 243/159/1 244/160/1
f 245/161/1 246/162/1 247/163/1 248/164/1
f 249/165/1 250/166/1 251/167/1 252/168/1
f 253/169/1 254/170/1 255/171/1 256/172/1
f 257/173/1 258/174/1 259/175/1 260/176/1
f 261/177/1 262/178/1 263/179/1 264/180/1
f 265/181/1 266/182/1 267/183/1 268/184/1
f 269/185/1 270/186/1 271/187/1 272/188/1
f 273/189/1 274/190/1 275/191/1 276/192/1
f 277/193/1 278/194/1 279/195/1 280/196/1
f 281/197/1 282/198/1 283/199/1 284/200/1
f 285/201/1 286/202/1 287/203/1 288/204/1
f 289/1/1 290/2/1 291/3/1 292/4/1
f 293/5/1 294/6/1 295/7/1 296/8/1
f 297/9/1 298/10/1 299/11/1 300/12/1
f 301/13/1 302/14/1 303/15/1 304/16/1
f 305/17/1 306/18/1 307/19/1 308/20/1
f 309/21/1 310/22/1 311/23/1 312/24/1
f 313/25/1 314/26/1 315/27/1 316/28/1
f 317/29/1 318/30/1 319/31/1 320/32/1
f 321/1/1 322/2/1 323/3/1 324/4/1
f 325/5/1 326/6/1 327/7/1 328/8/1
f 329/9/1 330/10/1 331/11/1 332/12/1
f 333/13/1 334/14/1 335/15/1 336/16/1
f 337/17/1 338/18/1 339/19/1 340/20/1
f 341/21/1 342/22/1 343/23/1 344/24/1
f 345/25/1 346/26/1 347/27/1 348/28/1
f 349/29/1 350/30/1 351/31/1 352/32/1
f 353/1/1 354/2/1 355/3/1 356/4/1
f 357/5/1 358/6/1 359/7/1 360/8/1
f 361/9/1 362/10/1 363/11/1 364/12/1
f 365/13/1 366/14/1 367/15/1 368/16/1
f 369/17/1 370/18/1 371/19/1 372/20/1
f 373/21/1 374/22/1 375/23/1 376/24/1
f 377/25/1 378/26/1 379/27/1 380/28/1
f 381/29/1 382/30/1 383/31/1 384/32/1
f 385/1/1 386/2/1 387/3/1 388/4/1
f 389/5/1 390/6/1 391/7/1 392/8/1
f 393/9/1 394/10/1 395/11/1 396/12/1
f 397/13/1 398/14/1 399/15/1 400/16/1
f 401/17/1 402/18/1 403/19/1 404/20/1
f 405/21/1 406/22/1 407/23/1 408/24/1
f 409/25/1 410/26/1 411/27/1 412/28/1
f 413/29/1 414/30/1 415/31/1 416/32/1

