# Tiled2Unity generated file. Do not modify by hand.
# Wavefront file for 'LeftLangihan_mesh_0002.obj'

# Vertices (Count = 920)
v -23 -1 0
v -24 -1 0
v -24 0 0
v -23 0 0
v -22 -1 0
v -23 -1 0
v -23 0 0
v -22 0 0
v -21 -1 0
v -22 -1 0
v -22 0 0
v -21 0 0
v -20 -1 0
v -21 -1 0
v -21 0 0
v -20 0 0
v -19 -1 0
v -20 -1 0
v -20 0 0
v -19 0 0
v -16 -1 0
v -17 -1 0
v -17 0 0
v -16 0 0
v -15 -1 0
v -16 -1 0
v -16 0 0
v -15 0 0
v -14 -1 0
v -15 -1 0
v -15 0 0
v -14 0 0
v -13 -1 0
v -14 -1 0
v -14 0 0
v -13 0 0
v -12 -1 0
v -13 -1 0
v -13 0 0
v -12 0 0
v -11 -1 0
v -12 -1 0
v -12 0 0
v -11 0 0
v -3 -1 0
v -4 -1 0
v -4 0 0
v -3 0 0
v -23 -2 0
v -24 -2 0
v -24 -1 0
v -23 -1 0
v -22 -2 0
v -23 -2 0
v -23 -1 0
v -22 -1 0
v -21 -2 0
v -22 -2 0
v -22 -1 0
v -21 -1 0
v -20 -2 0
v -21 -2 0
v -21 -1 0
v -20 -1 0
v -18 -2 0
v -19 -2 0
v -19 -1 0
v -18 -1 0
v -17 -2 0
v -18 -2 0
v -18 -1 0
v -17 -1 0
v -16 -2 0
v -17 -2 0
v -17 -1 0
v -16 -1 0
v -15 -2 0
v -16 -2 0
v -16 -1 0
v -15 -1 0
v -14 -2 0
v -15 -2 0
v -15 -1 0
v -14 -1 0
v -13 -2 0
v -14 -2 0
v -14 -1 0
v -13 -1 0
v -12 -2 0
v -13 -2 0
v -13 -1 0
v -12 -1 0
v -11 -2 0
v -12 -2 0
v -12 -1 0
v -11 -1 0
v -4 -2 0
v -5 -2 0
v -5 -1 0
v -4 -1 0
v -3 -2 0
v -4 -2 0
v -4 -1 0
v -3 -1 0
v -23 -3 0
v -24 -3 0
v -24 -2 0
v -23 -2 0
v -22 -3 0
v -23 -3 0
v -23 -2 0
v -22 -2 0
v -19 -3 0
v -20 -3 0
v -20 -2 0
v -19 -2 0
v -9 -3 0
v -10 -3 0
v -10 -2 0
v -9 -2 0
v -8 -3 0
v -9 -3 0
v -9 -2 0
v -8 -2 0
v -4 -3 0
v -5 -3 0
v -5 -2 0
v -4 -2 0
v -3 -3 0
v -4 -3 0
v -4 -2 0
v -3 -2 0
v -19 -4 0
v -20 -4 0
v -20 -3 0
v -19 -3 0
v -18 -4 0
v -19 -4 0
v -19 -3 0
v -18 -3 0
v -4 -4 0
v -5 -4 0
v -5 -3 0
v -4 -3 0
v -3 -4 0
v -4 -4 0
v -4 -3 0
v -3 -3 0
v -19 -5 0
v -20 -5 0
v -20 -4 0
v -19 -4 0
v -18 -5 0
v -19 -5 0
v -19 -4 0
v -18 -4 0
v -14 -5 0
v -15 -5 0
v -15 -4 0
v -14 -4 0
v -13 -5 0
v -14 -5 0
v -14 -4 0
v -13 -4 0
v -4 -5 0
v -5 -5 0
v -5 -4 0
v -4 -4 0
v -3 -5 0
v -4 -5 0
v -4 -4 0
v -3 -4 0
v -4 -6 0
v -5 -6 0
v -5 -5 0
v -4 -5 0
v -2 -6 0
v -3 -6 0
v -3 -5 0
v -2 -5 0
v -10 -7 0
v -11 -7 0
v -11 -6 0
v -10 -6 0
v -9 -7 0
v -10 -7 0
v -10 -6 0
v -9 -6 0
v -4 -7 0
v -5 -7 0
v -5 -6 0
v -4 -6 0
v -2 -7 0
v -3 -7 0
v -3 -6 0
v -2 -6 0
v -4 -8 0
v -5 -8 0
v -5 -7 0
v -4 -7 0
v -3 -8 0
v -4 -8 0
v -4 -7 0
v -3 -7 0
v -2 -8 0
v -3 -8 0
v -3 -7 0
v -2 -7 0
v -28 -9 0
v -29 -9 0
v -29 -8 0
v -28 -8 0
v -27 -9 0
v -28 -9 0
v -28 -8 0
v -27 -8 0
v -3 -9 0
v -4 -9 0
v -4 -8 0
v -3 -8 0
v -2 -9 0
v -3 -9 0
v -3 -8 0
v -2 -8 0
v -1 -9 0
v -2 -9 0
v -2 -8 0
v -1 -8 0
v -28 -10 0
v -29 -10 0
v -29 -9 0
v -28 -9 0
v -27 -10 0
v -28 -10 0
v -28 -9 0
v -27 -9 0
v -1 -10 0
v -2 -10 0
v -2 -9 0
v -1 -9 0
v 0 -10 0
v -1 -10 0
v -1 -9 0
v 0 -9 0
v 0 -11 0
v -1 -11 0
v -1 -10 0
v 0 -10 0
v -45 -13 0
v -46 -13 0
v -46 -12 0
v -45 -12 0
v -44 -13 0
v -45 -13 0
v -45 -12 0
v -44 -12 0
v -45 -14 0
v -46 -14 0
v -46 -13 0
v -45 -13 0
v -44 -14 0
v -45 -14 0
v -45 -13 0
v -44 -13 0
v -45 -15 0
v -46 -15 0
v -46 -14 0
v -45 -14 0
v -44 -15 0
v -45 -15 0
v -45 -14 0
v -44 -14 0
v -1 -15 0
v -2 -15 0
v -2 -14 0
v -1 -14 0
v 0 -15 0
v -1 -15 0
v -1 -14 0
v 0 -14 0
v -45 -16 0
v -46 -16 0
v -46 -15 0
v -45 -15 0
v -44 -16 0
v -45 -16 0
v -45 -15 0
v -44 -15 0
v -1 -16 0
v -2 -16 0
v -2 -15 0
v -1 -15 0
v -44 -17 0
v -45 -17 0
v -45 -16 0
v -44 -16 0
v -42 -17 0
v -43 -17 0
v -43 -16 0
v -42 -16 0
v -41 -17 0
v -42 -17 0
v -42 -16 0
v -41 -16 0
v -1 -17 0
v -2 -17 0
v -2 -16 0
v -1 -16 0
v -44 -18 0
v -45 -18 0
v -45 -17 0
v -44 -17 0
v -43 -18 0
v -44 -18 0
v -44 -17 0
v -43 -17 0
v -42 -18 0
v -43 -18 0
v -43 -17 0
v -42 -17 0
v -2 -18 0
v -3 -18 0
v -3 -17 0
v -2 -17 0
v -1 -18 0
v -2 -18 0
v -2 -17 0
v -1 -17 0
v 0 -18 0
v -1 -18 0
v -1 -17 0
v 0 -17 0
v -44 -19 0
v -45 -19 0
v -45 -18 0
v -44 -18 0
v -43 -19 0
v -44 -19 0
v -44 -18 0
v -43 -18 0
v -42 -19 0
v -43 -19 0
v -43 -18 0
v -42 -18 0
v -2 -19 0
v -3 -19 0
v -3 -18 0
v -2 -18 0
v 0 -19 0
v -1 -19 0
v -1 -18 0
v 0 -18 0
v -44 -20 0
v -45 -20 0
v -45 -19 0
v -44 -19 0
v -43 -20 0
v -44 -20 0
v -44 -19 0
v -43 -19 0
v -42 -20 0
v -43 -20 0
v -43 -19 0
v -42 -19 0
v -2 -20 0
v -3 -20 0
v -3 -19 0
v -2 -19 0
v -1 -20 0
v -2 -20 0
v -2 -19 0
v -1 -19 0
v 0 -20 0
v -1 -20 0
v -1 -19 0
v 0 -19 0
v -44 -21 0
v -45 -21 0
v -45 -20 0
v -44 -20 0
v -43 -21 0
v -44 -21 0
v -44 -20 0
v -43 -20 0
v -42 -21 0
v -43 -21 0
v -43 -20 0
v -42 -20 0
v -4 -23 0
v -5 -23 0
v -5 -22 0
v -4 -22 0
v -3 -23 0
v -4 -23 0
v -4 -22 0
v -3 -22 0
v -2 -23 0
v -3 -23 0
v -3 -22 0
v -2 -22 0
v -1 -23 0
v -2 -23 0
v -2 -22 0
v -1 -22 0
v 0 -23 0
v -1 -23 0
v -1 -22 0
v 0 -22 0
v -8 -24 0
v -9 -24 0
v -9 -23 0
v -8 -23 0
v -7 -24 0
v -8 -24 0
v -8 -23 0
v -7 -23 0
v -4 -24 0
v -5 -24 0
v -5 -23 0
v -4 -23 0
v 0 -24 0
v -1 -24 0
v -1 -23 0
v 0 -23 0
v -33 -25 0
v -34 -25 0
v -34 -24 0
v -33 -24 0
v -32 -25 0
v -33 -25 0
v -33 -24 0
v -32 -24 0
v -15 -25 0
v -16 -25 0
v -16 -24 0
v -15 -24 0
v -14 -25 0
v -15 -25 0
v -15 -24 0
v -14 -24 0
v -8 -25 0
v -9 -25 0
v -9 -24 0
v -8 -24 0
v -7 -25 0
v -8 -25 0
v -8 -24 0
v -7 -24 0
v -4 -25 0
v -5 -25 0
v -5 -24 0
v -4 -24 0
v -2 -25 0
v -3 -25 0
v -3 -24 0
v -2 -24 0
v -1 -25 0
v -2 -25 0
v -2 -24 0
v -1 -24 0
v -29 -26 0
v -30 -26 0
v -30 -25 0
v -29 -25 0
v -28 -26 0
v -29 -26 0
v -29 -25 0
v -28 -25 0
v -24 -26 0
v -25 -26 0
v -25 -25 0
v -24 -25 0
v -23 -26 0
v -24 -26 0
v -24 -25 0
v -23 -25 0
v -4 -26 0
v -5 -26 0
v -5 -25 0
v -4 -25 0
v -38 -27 0
v -39 -27 0
v -39 -26 0
v -38 -26 0
v -37 -27 0
v -38 -27 0
v -38 -26 0
v -37 -26 0
v -16 -27 0
v -17 -27 0
v -17 -26 0
v -16 -26 0
v -15 -27 0
v -16 -27 0
v -16 -26 0
v -15 -26 0
v -4 -27 0
v -5 -27 0
v -5 -26 0
v -4 -26 0
v -3 -27 0
v -4 -27 0
v -4 -26 0
v -3 -26 0
v -2 -27 0
v -3 -27 0
v -3 -26 0
v -2 -26 0
v -1 -27 0
v -2 -27 0
v -2 -26 0
v -1 -26 0
v 0 -27 0
v -1 -27 0
v -1 -26 0
v 0 -26 0
v -35 -28 0
v -36 -28 0
v -36 -27 0
v -35 -27 0
v -34 -28 0
v -35 -28 0
v -35 -27 0
v -34 -27 0
v -31 -28 0
v -32 -28 0
v -32 -27 0
v -31 -27 0
v -30 -28 0
v -31 -28 0
v -31 -27 0
v -30 -27 0
v -4 -28 0
v -5 -28 0
v -5 -27 0
v -4 -27 0
v -1 -28 0
v -2 -28 0
v -2 -27 0
v -1 -27 0
v 0 -28 0
v -1 -28 0
v -1 -27 0
v 0 -27 0
v -35 -29 0
v -36 -29 0
v -36 -28 0
v -35 -28 0
v -34 -29 0
v -35 -29 0
v -35 -28 0
v -34 -28 0
v -4 -29 0
v -5 -29 0
v -5 -28 0
v -4 -28 0
v -2 -29 0
v -3 -29 0
v -3 -28 0
v -2 -28 0
v -1 -29 0
v -2 -29 0
v -2 -28 0
v -1 -28 0
v 0 -29 0
v -1 -29 0
v -1 -28 0
v 0 -28 0
v -44 -30 0
v -45 -30 0
v -45 -29 0
v -44 -29 0
v -43 -30 0
v -44 -30 0
v -44 -29 0
v -43 -29 0
v -4 -30 0
v -5 -30 0
v -5 -29 0
v -4 -29 0
v -3 -30 0
v -4 -30 0
v -4 -29 0
v -3 -29 0
v -2 -30 0
v -3 -30 0
v -3 -29 0
v -2 -29 0
v -1 -30 0
v -2 -30 0
v -2 -29 0
v -1 -29 0
v 0 -30 0
v -1 -30 0
v -1 -29 0
v 0 -29 0
v -44 -31 0
v -45 -31 0
v -45 -30 0
v -44 -30 0
v -43 -31 0
v -44 -31 0
v -44 -30 0
v -43 -30 0
v -40 -31 0
v -41 -31 0
v -41 -30 0
v -40 -30 0
v -39 -31 0
v -40 -31 0
v -40 -30 0
v -39 -30 0
v -1 -31 0
v -2 -31 0
v -2 -30 0
v -1 -30 0
v 0 -31 0
v -1 -31 0
v -1 -30 0
v 0 -30 0
v -47 -32 0
v -48 -32 0
v -48 -31 0
v -47 -31 0
v -46 -32 0
v -47 -32 0
v -47 -31 0
v -46 -31 0
v -1 -32 0
v -2 -32 0
v -2 -31 0
v -1 -31 0
v 0 -32 0
v -1 -32 0
v -1 -31 0
v 0 -31 0
v -1 -33 0
v -2 -33 0
v -2 -32 0
v -1 -32 0
v -9 -34 0
v -10 -34 0
v -10 -33 0
v -9 -33 0
v -8 -34 0
v -9 -34 0
v -9 -33 0
v -8 -33 0
v -1 -34 0
v -2 -34 0
v -2 -33 0
v -1 -33 0
v 0 -34 0
v -1 -34 0
v -1 -33 0
v 0 -33 0
v 0 -35 0
v -1 -35 0
v -1 -34 0
v 0 -34 0
v 0 -36 0
v -1 -36 0
v -1 -35 0
v 0 -35 0
v -11 -38 0
v -12 -38 0
v -12 -37 0
v -11 -37 0
v -10 -38 0
v -11 -38 0
v -11 -37 0
v -10 -37 0
v -8 -40 0
v -9 -40 0
v -9 -39 0
v -8 -39 0
v -7 -40 0
v -8 -40 0
v -8 -39 0
v -7 -39 0
v -48 -41 0
v -49 -41 0
v -49 -40 0
v -48 -40 0
v -47 -41 0
v -48 -41 0
v -48 -40 0
v -47 -40 0
v -15 -41 0
v -16 -41 0
v -16 -40 0
v -15 -40 0
v -14 -41 0
v -15 -41 0
v -15 -40 0
v -14 -40 0
v -8 -41 0
v -9 -41 0
v -9 -40 0
v -8 -40 0
v -7 -41 0
v -8 -41 0
v -8 -40 0
v -7 -40 0
v -45 -42 0
v -46 -42 0
v -46 -41 0
v -45 -41 0
v -44 -42 0
v -45 -42 0
v -45 -41 0
v -44 -41 0
v -24 -42 0
v -25 -42 0
v -25 -41 0
v -24 -41 0
v -23 -42 0
v -24 -42 0
v -24 -41 0
v -23 -41 0
v -21 -42 0
v -22 -42 0
v -22 -41 0
v -21 -41 0
v -20 -42 0
v -21 -42 0
v -21 -41 0
v -20 -41 0
v -18 -42 0
v -19 -42 0
v -19 -41 0
v -18 -41 0
v -17 -42 0
v -18 -42 0
v -18 -41 0
v -17 -41 0
v -18 -43 0
v -19 -43 0
v -19 -42 0
v -18 -42 0
v -17 -43 0
v -18 -43 0
v -18 -42 0
v -17 -42 0
v -49 -44 0
v -50 -44 0
v -50 -43 0
v -49 -43 0
v -48 -44 0
v -49 -44 0
v -49 -43 0
v -48 -43 0
v -31 -44 0
v -32 -44 0
v -32 -43 0
v -31 -43 0
v -30 -44 0
v -31 -44 0
v -31 -43 0
v -30 -43 0
v -38 -45 0
v -39 -45 0
v -39 -44 0
v -38 -44 0
v -37 -45 0
v -38 -45 0
v -38 -44 0
v -37 -44 0
v -31 -45 0
v -32 -45 0
v -32 -44 0
v -31 -44 0
v -30 -45 0
v -31 -45 0
v -31 -44 0
v -30 -44 0
v -22 -45 0
v -23 -45 0
v -23 -44 0
v -22 -44 0
v -21 -45 0
v -22 -45 0
v -22 -44 0
v -21 -44 0
v -15 -46 0
v -16 -46 0
v -16 -45 0
v -15 -45 0
v -14 -46 0
v -15 -46 0
v -15 -45 0
v -14 -45 0
v -48 -47 0
v -49 -47 0
v -49 -46 0
v -48 -46 0
v -47 -47 0
v -48 -47 0
v -48 -46 0
v -47 -46 0
v -40 -48 0
v -41 -48 0
v -41 -47 0
v -40 -47 0
v -39 -48 0
v -40 -48 0
v -40 -47 0
v -39 -47 0
v -38 -48 0
v -39 -48 0
v -39 -47 0
v -38 -47 0
v -37 -48 0
v -38 -48 0
v -38 -47 0
v -37 -47 0
v -36 -48 0
v -37 -48 0
v -37 -47 0
v -36 -47 0
v -35 -48 0
v -36 -48 0
v -36 -47 0
v -35 -47 0
v -34 -48 0
v -35 -48 0
v -35 -47 0
v -34 -47 0
v -46 -49 0
v -47 -49 0
v -47 -48 0
v -46 -48 0
v -45 -49 0
v -46 -49 0
v -46 -48 0
v -45 -48 0
v -44 -49 0
v -45 -49 0
v -45 -48 0
v -44 -48 0
v -43 -49 0
v -44 -49 0
v -44 -48 0
v -43 -48 0
v -42 -49 0
v -43 -49 0
v -43 -48 0
v -42 -48 0
v -41 -49 0
v -42 -49 0
v -42 -48 0
v -41 -48 0
v -40 -49 0
v -41 -49 0
v -41 -48 0
v -40 -48 0
v -39 -49 0
v -40 -49 0
v -40 -48 0
v -39 -48 0
v -38 -49 0
v -39 -49 0
v -39 -48 0
v -38 -48 0
v -37 -49 0
v -38 -49 0
v -38 -48 0
v -37 -48 0
v -36 -49 0
v -37 -49 0
v -37 -48 0
v -36 -48 0
v -35 -49 0
v -36 -49 0
v -36 -48 0
v -35 -48 0
v -46 -50 0
v -47 -50 0
v -47 -49 0
v -46 -49 0
v -45 -50 0
v -46 -50 0
v -46 -49 0
v -45 -49 0
v -44 -50 0
v -45 -50 0
v -45 -49 0
v -44 -49 0
v -43 -50 0
v -44 -50 0
v -44 -49 0
v -43 -49 0
v -42 -50 0
v -43 -50 0
v -43 -49 0
v -42 -49 0
v -41 -50 0
v -42 -50 0
v -42 -49 0
v -41 -49 0
v -40 -50 0
v -41 -50 0
v -41 -49 0
v -40 -49 0
v -39 -50 0
v -40 -50 0
v -40 -49 0
v -39 -49 0
v -34 -50 0
v -35 -50 0
v -35 -49 0
v -34 -49 0
v -30 -50 0
v -31 -50 0
v -31 -49 0
v -30 -49 0
v -29 -50 0
v -30 -50 0
v -30 -49 0
v -29 -49 0

# Texture cooridinates (Count = 80)
vt 0.04173455 0.5834554
vt 0.06229666 0.5834554
vt 0.06229666 0.610989
vt 0.04173455 0.610989
vt 0.04173455 0.0001220703
vt 0.06229666 0.0001220703
vt 0.06229666 0.02765572
vt 0.04173455 0.02765572
vt 0.02092831 0.0001220703
vt 0.04149041 0.0001220703
vt 0.04149041 0.02765572
vt 0.02092831 0.02765572
vt 0.6659218 0.889011
vt 0.6864839 0.889011
vt 0.6864839 0.9165446
vt 0.6659218 0.9165446
vt 0.6451156 0.889011
vt 0.6656777 0.889011
vt 0.6656777 0.9165446
vt 0.6451156 0.9165446
vt 0.6659218 0.8612332
vt 0.6864839 0.8612332
vt 0.6864839 0.8887668
vt 0.6659218 0.8887668
vt 0.6451156 0.8612332
vt 0.6656777 0.8612332
vt 0.6656777 0.8887668
vt 0.6451156 0.8887668
vt 0.1873782 0.5001221
vt 0.2079404 0.5001221
vt 0.2079404 0.5276557
vt 0.1873782 0.5276557
vt 0.1249595 0.7223443
vt 0.1455216 0.7223443
vt 0.1455216 0.7498779
vt 0.1249595 0.7498779
vt 0.1873782 0.4723443
vt 0.2079404 0.4723443
vt 0.2079404 0.4998779
vt 0.1873782 0.4998779
vt 0.1873782 0.4445665
vt 0.2079404 0.4445665
vt 0.2079404 0.4721001
vt 0.1873782 0.4721001
vt 0.1249595 0.6945665
vt 0.1455216 0.6945665
vt 0.1455216 0.7221001
vt 0.1249595 0.7221001
vt 0.1873782 0.4167888
vt 0.2079404 0.4167888
vt 0.2079404 0.4443223
vt 0.1873782 0.4443223
vt 0.1041533 0.6667887
vt 0.1247154 0.6667887
vt 0.1247154 0.6943223
vt 0.1041533 0.6943223
vt 0.0001220703 0.7223443
vt 0.02068417 0.7223443
vt 0.02068417 0.7498779
vt 0.0001220703 0.7498779
vt 0.1041533 0.639011
vt 0.1247154 0.639011
vt 0.1247154 0.6665446
vt 0.1041533 0.6665446
vt 0.1041533 0.6112332
vt 0.1247154 0.6112332
vt 0.1247154 0.6387668
vt 0.1041533 0.6387668
vt 0.1041533 0.5834554
vt 0.1247154 0.5834554
vt 0.1247154 0.610989
vt 0.1041533 0.610989
vt 0.1249595 0.5001221
vt 0.1455216 0.5001221
vt 0.1455216 0.5276557
vt 0.1249595 0.5276557
vt 0.1041533 0.5001221
vt 0.1247154 0.5001221
vt 0.1247154 0.5276557
vt 0.1041533 0.5276557

# Normal
vn 0 0 -1

# Mesh description
g LeftLangihan_mesh_0002

# Faces
f 1/1/1 2/2/1 3/3/1 4/4/1
f 5/1/1 6/2/1 7/3/1 8/4/1
f 9/1/1 10/2/1 11/3/1 12/4/1
f 13/1/1 14/2/1 15/3/1 16/4/1
f 17/1/1 18/2/1 19/3/1 20/4/1
f 21/1/1 22/2/1 23/3/1 24/4/1
f 25/1/1 26/2/1 27/3/1 28/4/1
f 29/1/1 30/2/1 31/3/1 32/4/1
f 33/1/1 34/2/1 35/3/1 36/4/1
f 37/1/1 38/2/1 39/3/1 40/4/1
f 41/1/1 42/2/1 43/3/1 44/4/1
f 45/1/1 46/2/1 47/3/1 48/4/1
f 49/1/1 50/2/1 51/3/1 52/4/1
f 53/1/1 54/2/1 55/3/1 56/4/1
f 57/1/1 58/2/1 59/3/1 60/4/1
f 61/1/1 62/2/1 63/3/1 64/4/1
f 65/1/1 66/2/1 67/3/1 68/4/1
f 69/1/1 70/2/1 71/3/1 72/4/1
f 73/1/1 74/2/1 75/3/1 76/4/1
f 77/1/1 78/2/1 79/3/1 80/4/1
f 81/1/1 82/2/1 83/3/1 84/4/1
f 85/1/1 86/2/1 87/3/1 88/4/1
f 89/1/1 90/2/1 91/3/1 92/4/1
f 93/1/1 94/2/1 95/3/1 96/4/1
f 97/1/1 98/2/1 99/3/1 100/4/1
f 101/1/1 102/2/1 103/3/1 104/4/1
f 105/1/1 106/2/1 107/3/1 108/4/1
f 109/1/1 110/2/1 111/3/1 112/4/1
f 113/1/1 114/2/1 115/3/1 116/4/1
f 117/5/1 118/6/1 119/7/1 120/8/1
f 121/9/1 122/10/1 123/11/1 124/12/1
f 125/1/1 126/2/1 127/3/1 128/4/1
f 129/1/1 130/2/1 131/3/1 132/4/1
f 133/13/1 134/14/1 135/15/1 136/16/1
f 137/17/1 138/18/1 139/19/1 140/20/1
f 141/1/1 142/2/1 143/3/1 144/4/1
f 145/1/1 146/2/1 147/3/1 148/4/1
f 149/21/1 150/22/1 151/23/1 152/24/1
f 153/25/1 154/26/1 155/27/1 156/28/1
f 157/5/1 158/6/1 159/7/1 160/8/1
f 161/9/1 162/10/1 163/11/1 164/12/1
f 165/1/1 166/2/1 167/3/1 168/4/1
f 169/1/1 170/2/1 171/3/1 172/4/1
f 173/1/1 174/2/1 175/3/1 176/4/1
f 177/1/1 178/2/1 179/3/1 180/4/1
f 181/5/1 182/6/1 183/7/1 184/8/1
f 185/9/1 186/10/1 187/11/1 188/12/1
f 189/1/1 190/2/1 191/3/1 192/4/1
f 193/1/1 194/2/1 195/3/1 196/4/1
f 197/1/1 198/2/1 199/3/1 200/4/1
f 201/1/1 202/2/1 203/3/1 204/4/1
f 205/1/1 206/2/1 207/3/1 208/4/1
f 209/13/1 210/14/1 211/15/1 212/16/1
f 213/17/1 214/18/1 215/19/1 216/20/1
f 217/1/1 218/2/1 219/3/1 220/4/1
f 221/1/1 222/2/1 223/3/1 224/4/1
f 225/1/1 226/2/1 227/3/1 228/4/1
f 229/21/1 230/22/1 231/23/1 232/24/1
f 233/25/1 234/26/1 235/27/1 236/28/1
f 237/1/1 238/2/1 239/3/1 240/4/1
f 241/1/1 242/2/1 243/3/1 244/4/1
f 245/1/1 246/2/1 247/3/1 248/4/1
f 249/29/1 250/30/1 251/31/1 252/32/1
f 253/33/1 254/34/1 255/35/1 256/36/1
f 257/37/1 258/38/1 259/39/1 260/40/1
f 261/33/1 262/34/1 263/35/1 264/36/1
f 265/41/1 266/42/1 267/43/1 268/44/1
f 269/45/1 270/46/1 271/47/1 272/48/1
f 273/1/1 274/2/1 275/3/1 276/4/1
f 277/1/1 278/2/1 279/3/1 280/4/1
f 281/49/1 282/50/1 283/51/1 284/52/1
f 285/33/1 286/34/1 287/35/1 288/36/1
f 289/1/1 290/2/1 291/3/1 292/4/1
f 293/45/1 294/46/1 295/47/1 296/48/1
f 297/5/1 298/6/1 299/7/1 300/8/1
f 301/9/1 302/10/1 303/11/1 304/12/1
f 305/1/1 306/2/1 307/3/1 308/4/1
f 309/29/1 310/30/1 311/31/1 312/32/1
f 313/53/1 314/54/1 315/55/1 316/56/1
f 317/57/1 318/58/1 319/59/1 320/60/1
f 321/1/1 322/2/1 323/3/1 324/4/1
f 325/1/1 326/2/1 327/3/1 328/4/1
f 329/1/1 330/2/1 331/3/1 332/4/1
f 333/37/1 334/38/1 335/39/1 336/40/1
f 337/61/1 338/62/1 339/63/1 340/64/1
f 341/33/1 342/34/1 343/35/1 344/36/1
f 345/1/1 346/2/1 347/3/1 348/4/1
f 349/1/1 350/2/1 351/3/1 352/4/1
f 353/41/1 354/42/1 355/43/1 356/44/1
f 357/65/1 358/66/1 359/67/1 360/68/1
f 361/33/1 362/34/1 363/35/1 364/36/1
f 365/1/1 366/2/1 367/3/1 368/4/1
f 369/1/1 370/2/1 371/3/1 372/4/1
f 373/1/1 374/2/1 375/3/1 376/4/1
f 377/49/1 378/50/1 379/51/1 380/52/1
f 381/69/1 382/70/1 383/71/1 384/72/1
f 385/45/1 386/46/1 387/47/1 388/48/1
f 389/1/1 390/2/1 391/3/1 392/4/1
f 393/1/1 394/2/1 395/3/1 396/4/1
f 397/1/1 398/2/1 399/3/1 400/4/1
f 401/1/1 402/2/1 403/3/1 404/4/1
f 405/1/1 406/2/1 407/3/1 408/4/1
f 409/13/1 410/14/1 411/15/1 412/16/1
f 413/17/1 414/18/1 415/19/1 416/20/1
f 417/1/1 418/2/1 419/3/1 420/4/1
f 421/1/1 422/2/1 423/3/1 424/4/1
f 425/5/1 426/6/1 427/7/1 428/8/1
f 429/9/1 430/10/1 431/11/1 432/12/1
f 433/73/1 434/74/1 435/75/1 436/76/1
f 437/77/1 438/78/1 439/79/1 440/80/1
f 441/21/1 442/22/1 443/23/1 444/24/1
f 445/25/1 446/26/1 447/27/1 448/28/1
f 449/1/1 450/2/1 451/3/1 452/4/1
f 453/73/1 454/74/1 455/75/1 456/76/1
f 457/77/1 458/78/1 459/79/1 460/80/1
f 461/5/1 462/6/1 463/7/1 464/8/1
f 465/9/1 466/10/1 467/11/1 468/12/1
f 469/73/1 470/74/1 471/75/1 472/76/1
f 473/77/1 474/78/1 475/79/1 476/80/1
f 477/1/1 478/2/1 479/3/1 480/4/1
f 481/5/1 482/6/1 483/7/1 484/8/1
f 485/9/1 486/10/1 487/11/1 488/12/1
f 489/73/1 490/74/1 491/75/1 492/76/1
f 493/77/1 494/78/1 495/79/1 496/80/1
f 497/1/1 498/2/1 499/3/1 500/4/1
f 501/73/1 502/74/1 503/75/1 504/76/1
f 505/77/1 506/78/1 507/79/1 508/80/1
f 509/1/1 510/2/1 511/3/1 512/4/1
f 513/1/1 514/2/1 515/3/1 516/4/1
f 517/13/1 518/14/1 519/15/1 520/16/1
f 521/17/1 522/18/1 523/19/1 524/20/1
f 525/5/1 526/6/1 527/7/1 528/8/1
f 529/9/1 530/10/1 531/11/1 532/12/1
f 533/1/1 534/2/1 535/3/1 536/4/1
f 537/1/1 538/2/1 539/3/1 540/4/1
f 541/1/1 542/2/1 543/3/1 544/4/1
f 545/21/1 546/22/1 547/23/1 548/24/1
f 549/25/1 550/26/1 551/27/1 552/28/1
f 553/1/1 554/2/1 555/3/1 556/4/1
f 557/1/1 558/2/1 559/3/1 560/4/1
f 561/1/1 562/2/1 563/3/1 564/4/1
f 565/1/1 566/2/1 567/3/1 568/4/1
f 569/13/1 570/14/1 571/15/1 572/16/1
f 573/17/1 574/18/1 575/19/1 576/20/1
f 577/1/1 578/2/1 579/3/1 580/4/1
f 581/1/1 582/2/1 583/3/1 584/4/1
f 585/1/1 586/2/1 587/3/1 588/4/1
f 589/1/1 590/2/1 591/3/1 592/4/1
f 593/1/1 594/2/1 595/3/1 596/4/1
f 597/21/1 598/22/1 599/23/1 600/24/1
f 601/25/1 602/26/1 603/27/1 604/28/1
f 605/5/1 606/6/1 607/7/1 608/8/1
f 609/9/1 610/10/1 611/11/1 612/12/1
f 613/1/1 614/2/1 615/3/1 616/4/1
f 617/1/1 618/2/1 619/3/1 620/4/1
f 621/5/1 622/6/1 623/7/1 624/8/1
f 625/9/1 626/10/1 627/11/1 628/12/1
f 629/1/1 630/2/1 631/3/1 632/4/1
f 633/1/1 634/2/1 635/3/1 636/4/1
f 637/1/1 638/2/1 639/3/1 640/4/1
f 641/5/1 642/6/1 643/7/1 644/8/1
f 645/9/1 646/10/1 647/11/1 648/12/1
f 649/1/1 650/2/1 651/3/1 652/4/1
f 653/1/1 654/2/1 655/3/1 656/4/1
f 657/1/1 658/2/1 659/3/1 660/4/1
f 661/1/1 662/2/1 663/3/1 664/4/1
f 665/5/1 666/6/1 667/7/1 668/8/1
f 669/9/1 670/10/1 671/11/1 672/12/1
f 673/13/1 674/14/1 675/15/1 676/16/1
f 677/17/1 678/18/1 679/19/1 680/20/1
f 681/73/1 682/74/1 683/75/1 684/76/1
f 685/77/1 686/78/1 687/79/1 688/80/1
f 689/5/1 690/6/1 691/7/1 692/8/1
f 693/9/1 694/10/1 695/11/1 696/12/1
f 697/21/1 698/22/1 699/23/1 700/24/1
f 701/25/1 702/26/1 703/27/1 704/28/1
f 705/73/1 706/74/1 707/75/1 708/76/1
f 709/77/1 710/78/1 711/79/1 712/80/1
f 713/73/1 714/74/1 715/75/1 716/76/1
f 717/77/1 718/78/1 719/79/1 720/80/1
f 721/73/1 722/74/1 723/75/1 724/76/1
f 725/77/1 726/78/1 727/79/1 728/80/1
f 729/13/1 730/14/1 731/15/1 732/16/1
f 733/17/1 734/18/1 735/19/1 736/20/1
f 737/21/1 738/22/1 739/23/1 740/24/1
f 741/25/1 742/26/1 743/27/1 744/28/1
f 745/73/1 746/74/1 747/75/1 748/76/1
f 749/77/1 750/78/1 751/79/1 752/80/1
f 753/13/1 754/14/1 755/15/1 756/16/1
f 757/17/1 758/18/1 759/19/1 760/20/1
f 761/5/1 762/6/1 763/7/1 764/8/1
f 765/9/1 766/10/1 767/11/1 768/12/1
f 769/21/1 770/22/1 771/23/1 772/24/1
f 773/25/1 774/26/1 775/27/1 776/28/1
f 777/73/1 778/74/1 779/75/1 780/76/1
f 781/77/1 782/78/1 783/79/1 784/80/1
f 785/5/1 786/6/1 787/7/1 788/8/1
f 789/9/1 790/10/1 791/11/1 792/12/1
f 793/73/1 794/74/1 795/75/1 796/76/1
f 797/77/1 798/78/1 799/79/1 800/80/1
f 801/1/1 802/2/1 803/3/1 804/4/1
f 805/1/1 806/2/1 807/3/1 808/4/1
f 809/1/1 810/2/1 811/3/1 812/4/1
f 813/1/1 814/2/1 815/3/1 816/4/1
f 817/1/1 818/2/1 819/3/1 820/4/1
f 821/5/1 822/6/1 823/7/1 824/8/1
f 825/9/1 826/10/1 827/11/1 828/12/1
f 829/1/1 830/2/1 831/3/1 832/4/1
f 833/1/1 834/2/1 835/3/1 836/4/1
f 837/1/1 838/2/1 839/3/1 840/4/1
f 841/1/1 842/2/1 843/3/1 844/4/1
f 845/1/1 846/2/1 847/3/1 848/4/1
f 849/1/1 850/2/1 851/3/1 852/4/1
f 853/1/1 854/2/1 855/3/1 856/4/1
f 857/1/1 858/2/1 859/3/1 860/4/1
f 861/1/1 862/2/1 863/3/1 864/4/1
f 865/1/1 866/2/1 867/3/1 868/4/1
f 869/1/1 870/2/1 871/3/1 872/4/1
f 873/1/1 874/2/1 875/3/1 876/4/1
f 877/1/1 878/2/1 879/3/1 880/4/1
f 881/1/1 882/2/1 883/3/1 884/4/1
f 885/1/1 886/2/1 887/3/1 888/4/1
f 889/1/1 890/2/1 891/3/1 892/4/1
f 893/1/1 894/2/1 895/3/1 896/4/1
f 897/1/1 898/2/1 899/3/1 900/4/1
f 901/1/1 902/2/1 903/3/1 904/4/1
f 905/1/1 906/2/1 907/3/1 908/4/1
f 909/1/1 910/2/1 911/3/1 912/4/1
f 913/5/1 914/6/1 915/7/1 916/8/1
f 917/9/1 918/10/1 919/11/1 920/12/1

