# Tiled2Unity generated file. Do not modify by hand.
# Wavefront file for 'LeftLangihan_mesh_0006.obj'

# Vertices (Count = 652)
v -10 -1 0
v -11 -1 0
v -11 0 0
v -10 0 0
v -9 -1 0
v -10 -1 0
v -10 0 0
v -9 0 0
v -8 -1 0
v -9 -1 0
v -9 0 0
v -8 0 0
v -7 -1 0
v -8 -1 0
v -8 0 0
v -7 0 0
v -15 -2 0
v -16 -2 0
v -16 -1 0
v -15 -1 0
v -14 -2 0
v -15 -2 0
v -15 -1 0
v -14 -1 0
v -13 -2 0
v -14 -2 0
v -14 -1 0
v -13 -1 0
v -12 -2 0
v -13 -2 0
v -13 -1 0
v -12 -1 0
v -10 -2 0
v -11 -2 0
v -11 -1 0
v -10 -1 0
v -9 -2 0
v -10 -2 0
v -10 -1 0
v -9 -1 0
v -8 -2 0
v -9 -2 0
v -9 -1 0
v -8 -1 0
v -7 -2 0
v -8 -2 0
v -8 -1 0
v -7 -1 0
v -15 -3 0
v -16 -3 0
v -16 -2 0
v -15 -2 0
v -14 -3 0
v -15 -3 0
v -15 -2 0
v -14 -2 0
v -13 -3 0
v -14 -3 0
v -14 -2 0
v -13 -2 0
v -12 -3 0
v -13 -3 0
v -13 -2 0
v -12 -2 0
v -10 -3 0
v -11 -3 0
v -11 -2 0
v -10 -2 0
v -7 -3 0
v -8 -3 0
v -8 -2 0
v -7 -2 0
v -15 -4 0
v -16 -4 0
v -16 -3 0
v -15 -3 0
v -14 -4 0
v -15 -4 0
v -15 -3 0
v -14 -3 0
v -13 -4 0
v -14 -4 0
v -14 -3 0
v -13 -3 0
v -12 -4 0
v -13 -4 0
v -13 -3 0
v -12 -3 0
v -11 -4 0
v -12 -4 0
v -12 -3 0
v -11 -3 0
v -10 -4 0
v -11 -4 0
v -11 -3 0
v -10 -3 0
v -9 -4 0
v -10 -4 0
v -10 -3 0
v -9 -3 0
v -8 -4 0
v -9 -4 0
v -9 -3 0
v -8 -3 0
v -15 -5 0
v -16 -5 0
v -16 -4 0
v -15 -4 0
v -12 -5 0
v -13 -5 0
v -13 -4 0
v -12 -4 0
v -11 -5 0
v -12 -5 0
v -12 -4 0
v -11 -4 0
v -10 -5 0
v -11 -5 0
v -11 -4 0
v -10 -4 0
v -9 -5 0
v -10 -5 0
v -10 -4 0
v -9 -4 0
v -8 -5 0
v -9 -5 0
v -9 -4 0
v -8 -4 0
v -11 -6 0
v -12 -6 0
v -12 -5 0
v -11 -5 0
v -10 -6 0
v -11 -6 0
v -11 -5 0
v -10 -5 0
v -9 -6 0
v -10 -6 0
v -10 -5 0
v -9 -5 0
v -8 -6 0
v -9 -6 0
v -9 -5 0
v -8 -5 0
v -11 -7 0
v -12 -7 0
v -12 -6 0
v -11 -6 0
v -8 -7 0
v -9 -7 0
v -9 -6 0
v -8 -6 0
v -43 -14 0
v -44 -14 0
v -44 -13 0
v -43 -13 0
v -42 -14 0
v -43 -14 0
v -43 -13 0
v -42 -13 0
v -41 -14 0
v -42 -14 0
v -42 -13 0
v -41 -13 0
v -40 -14 0
v -41 -14 0
v -41 -13 0
v -40 -13 0
v -43 -15 0
v -44 -15 0
v -44 -14 0
v -43 -14 0
v -42 -15 0
v -43 -15 0
v -43 -14 0
v -42 -14 0
v -41 -15 0
v -42 -15 0
v -42 -14 0
v -41 -14 0
v -40 -15 0
v -41 -15 0
v -41 -14 0
v -40 -14 0
v -43 -16 0
v -44 -16 0
v -44 -15 0
v -43 -15 0
v -42 -16 0
v -43 -16 0
v -43 -15 0
v -42 -15 0
v -41 -16 0
v -42 -16 0
v -42 -15 0
v -41 -15 0
v -40 -16 0
v -41 -16 0
v -41 -15 0
v -40 -15 0
v -43 -17 0
v -44 -17 0
v -44 -16 0
v -43 -16 0
v -40 -17 0
v -41 -17 0
v -41 -16 0
v -40 -16 0
v -39 -24 0
v -40 -24 0
v -40 -23 0
v -39 -23 0
v -38 -24 0
v -39 -24 0
v -39 -23 0
v -38 -23 0
v -37 -24 0
v -38 -24 0
v -38 -23 0
v -37 -23 0
v -36 -24 0
v -37 -24 0
v -37 -23 0
v -36 -23 0
v -39 -25 0
v -40 -25 0
v -40 -24 0
v -39 -24 0
v -38 -25 0
v -39 -25 0
v -39 -24 0
v -38 -24 0
v -37 -25 0
v -38 -25 0
v -38 -24 0
v -37 -24 0
v -36 -25 0
v -37 -25 0
v -37 -24 0
v -36 -24 0
v -32 -25 0
v -33 -25 0
v -33 -24 0
v -32 -24 0
v -31 -25 0
v -32 -25 0
v -32 -24 0
v -31 -24 0
v -30 -25 0
v -31 -25 0
v -31 -24 0
v -30 -24 0
v -29 -25 0
v -30 -25 0
v -30 -24 0
v -29 -24 0
v -39 -26 0
v -40 -26 0
v -40 -25 0
v -39 -25 0
v -38 -26 0
v -39 -26 0
v -39 -25 0
v -38 -25 0
v -37 -26 0
v -38 -26 0
v -38 -25 0
v -37 -25 0
v -36 -26 0
v -37 -26 0
v -37 -25 0
v -36 -25 0
v -32 -26 0
v -33 -26 0
v -33 -25 0
v -32 -25 0
v -31 -26 0
v -32 -26 0
v -32 -25 0
v -31 -25 0
v -30 -26 0
v -31 -26 0
v -31 -25 0
v -30 -25 0
v -29 -26 0
v -30 -26 0
v -30 -25 0
v -29 -25 0
v -39 -27 0
v -40 -27 0
v -40 -26 0
v -39 -26 0
v -36 -27 0
v -37 -27 0
v -37 -26 0
v -36 -26 0
v -32 -27 0
v -33 -27 0
v -33 -26 0
v -32 -26 0
v -31 -27 0
v -32 -27 0
v -32 -26 0
v -31 -26 0
v -30 -27 0
v -31 -27 0
v -31 -26 0
v -30 -26 0
v -29 -27 0
v -30 -27 0
v -30 -26 0
v -29 -26 0
v -41 -28 0
v -42 -28 0
v -42 -27 0
v -41 -27 0
v -40 -28 0
v -41 -28 0
v -41 -27 0
v -40 -27 0
v -39 -28 0
v -40 -28 0
v -40 -27 0
v -39 -27 0
v -38 -28 0
v -39 -28 0
v -39 -27 0
v -38 -27 0
v -32 -28 0
v -33 -28 0
v -33 -27 0
v -32 -27 0
v -29 -28 0
v -30 -28 0
v -30 -27 0
v -29 -27 0
v -48 -29 0
v -49 -29 0
v -49 -28 0
v -48 -28 0
v -47 -29 0
v -48 -29 0
v -48 -28 0
v -47 -28 0
v -46 -29 0
v -47 -29 0
v -47 -28 0
v -46 -28 0
v -45 -29 0
v -46 -29 0
v -46 -28 0
v -45 -28 0
v -41 -29 0
v -42 -29 0
v -42 -28 0
v -41 -28 0
v -40 -29 0
v -41 -29 0
v -41 -28 0
v -40 -28 0
v -39 -29 0
v -40 -29 0
v -40 -28 0
v -39 -28 0
v -38 -29 0
v -39 -29 0
v -39 -28 0
v -38 -28 0
v -48 -30 0
v -49 -30 0
v -49 -29 0
v -48 -29 0
v -47 -30 0
v -48 -30 0
v -48 -29 0
v -47 -29 0
v -46 -30 0
v -47 -30 0
v -47 -29 0
v -46 -29 0
v -45 -30 0
v -46 -30 0
v -46 -29 0
v -45 -29 0
v -41 -30 0
v -42 -30 0
v -42 -29 0
v -41 -29 0
v -40 -30 0
v -41 -30 0
v -41 -29 0
v -40 -29 0
v -39 -30 0
v -40 -30 0
v -40 -29 0
v -39 -29 0
v -38 -30 0
v -39 -30 0
v -39 -29 0
v -38 -29 0
v -48 -31 0
v -49 -31 0
v -49 -30 0
v -48 -30 0
v -47 -31 0
v -48 -31 0
v -48 -30 0
v -47 -30 0
v -46 -31 0
v -47 -31 0
v -47 -30 0
v -46 -30 0
v -45 -31 0
v -46 -31 0
v -46 -30 0
v -45 -30 0
v -41 -31 0
v -42 -31 0
v -42 -30 0
v -41 -30 0
v -38 -31 0
v -39 -31 0
v -39 -30 0
v -38 -30 0
v -10 -31 0
v -11 -31 0
v -11 -30 0
v -10 -30 0
v -9 -31 0
v -10 -31 0
v -10 -30 0
v -9 -30 0
v -8 -31 0
v -9 -31 0
v -9 -30 0
v -8 -30 0
v -7 -31 0
v -8 -31 0
v -8 -30 0
v -7 -30 0
v -48 -32 0
v -49 -32 0
v -49 -31 0
v -48 -31 0
v -45 -32 0
v -46 -32 0
v -46 -31 0
v -45 -31 0
v -10 -32 0
v -11 -32 0
v -11 -31 0
v -10 -31 0
v -9 -32 0
v -10 -32 0
v -10 -31 0
v -9 -31 0
v -8 -32 0
v -9 -32 0
v -9 -31 0
v -8 -31 0
v -7 -32 0
v -8 -32 0
v -8 -31 0
v -7 -31 0
v -10 -33 0
v -11 -33 0
v -11 -32 0
v -10 -32 0
v -9 -33 0
v -10 -33 0
v -10 -32 0
v -9 -32 0
v -8 -33 0
v -9 -33 0
v -9 -32 0
v -8 -32 0
v -7 -33 0
v -8 -33 0
v -8 -32 0
v -7 -32 0
v -10 -34 0
v -11 -34 0
v -11 -33 0
v -10 -33 0
v -7 -34 0
v -8 -34 0
v -8 -33 0
v -7 -33 0
v -12 -35 0
v -13 -35 0
v -13 -34 0
v -12 -34 0
v -11 -35 0
v -12 -35 0
v -12 -34 0
v -11 -34 0
v -10 -35 0
v -11 -35 0
v -11 -34 0
v -10 -34 0
v -9 -35 0
v -10 -35 0
v -10 -34 0
v -9 -34 0
v -12 -36 0
v -13 -36 0
v -13 -35 0
v -12 -35 0
v -11 -36 0
v -12 -36 0
v -12 -35 0
v -11 -35 0
v -10 -36 0
v -11 -36 0
v -11 -35 0
v -10 -35 0
v -9 -36 0
v -10 -36 0
v -10 -35 0
v -9 -35 0
v -12 -37 0
v -13 -37 0
v -13 -36 0
v -12 -36 0
v -11 -37 0
v -12 -37 0
v -12 -36 0
v -11 -36 0
v -10 -37 0
v -11 -37 0
v -11 -36 0
v -10 -36 0
v -9 -37 0
v -10 -37 0
v -10 -36 0
v -9 -36 0
v -12 -38 0
v -13 -38 0
v -13 -37 0
v -12 -37 0
v -9 -38 0
v -10 -38 0
v -10 -37 0
v -9 -37 0
v -39 -42 0
v -40 -42 0
v -40 -41 0
v -39 -41 0
v -38 -42 0
v -39 -42 0
v -39 -41 0
v -38 -41 0
v -37 -42 0
v -38 -42 0
v -38 -41 0
v -37 -41 0
v -36 -42 0
v -37 -42 0
v -37 -41 0
v -36 -41 0
v -39 -43 0
v -40 -43 0
v -40 -42 0
v -39 -42 0
v -38 -43 0
v -39 -43 0
v -39 -42 0
v -38 -42 0
v -37 -43 0
v -38 -43 0
v -38 -42 0
v -37 -42 0
v -36 -43 0
v -37 -43 0
v -37 -42 0
v -36 -42 0
v -39 -44 0
v -40 -44 0
v -40 -43 0
v -39 -43 0
v -38 -44 0
v -39 -44 0
v -39 -43 0
v -38 -43 0
v -37 -44 0
v -38 -44 0
v -38 -43 0
v -37 -43 0
v -36 -44 0
v -37 -44 0
v -37 -43 0
v -36 -43 0
v -39 -45 0
v -40 -45 0
v -40 -44 0
v -39 -44 0
v -36 -45 0
v -37 -45 0
v -37 -44 0
v -36 -44 0
v -35 -45 0
v -36 -45 0
v -36 -44 0
v -35 -44 0
v -34 -45 0
v -35 -45 0
v -35 -44 0
v -34 -44 0
v -33 -45 0
v -34 -45 0
v -34 -44 0
v -33 -44 0
v -36 -46 0
v -37 -46 0
v -37 -45 0
v -36 -45 0
v -35 -46 0
v -36 -46 0
v -36 -45 0
v -35 -45 0
v -34 -46 0
v -35 -46 0
v -35 -45 0
v -34 -45 0
v -33 -46 0
v -34 -46 0
v -34 -45 0
v -33 -45 0
v -36 -47 0
v -37 -47 0
v -37 -46 0
v -36 -46 0
v -35 -47 0
v -36 -47 0
v -36 -46 0
v -35 -46 0
v -34 -47 0
v -35 -47 0
v -35 -46 0
v -34 -46 0
v -33 -47 0
v -34 -47 0
v -34 -46 0
v -33 -46 0
v -36 -48 0
v -37 -48 0
v -37 -47 0
v -36 -47 0
v -33 -48 0
v -34 -48 0
v -34 -47 0
v -33 -47 0

# Texture cooridinates (Count = 56)
vt 0.0625408 0.05567765
vt 0.0831029 0.05567765
vt 0.0831029 0.08321124
vt 0.0625408 0.08321124
vt 0.04173455 0.05567765
vt 0.06229666 0.05567765
vt 0.06229666 0.08321124
vt 0.04173455 0.08321124
vt 0.02092831 0.05567765
vt 0.04149041 0.05567765
vt 0.04149041 0.08321124
vt 0.02092831 0.08321124
vt 0.0001220703 0.05567765
vt 0.02068417 0.05567765
vt 0.02068417 0.08321124
vt 0.0001220703 0.08321124
vt 0.0625408 0.08345538
vt 0.0831029 0.08345538
vt 0.0831029 0.110989
vt 0.0625408 0.110989
vt 0.04173455 0.08345538
vt 0.06229666 0.08345538
vt 0.06229666 0.110989
vt 0.04173455 0.110989
vt 0.02092831 0.08345538
vt 0.04149041 0.08345538
vt 0.04149041 0.110989
vt 0.02092831 0.110989
vt 0.0001220703 0.08345538
vt 0.02068417 0.08345538
vt 0.02068417 0.110989
vt 0.0001220703 0.110989
vt 0.0625408 0.02789986
vt 0.0831029 0.02789986
vt 0.0831029 0.05543351
vt 0.0625408 0.05543351
vt 0.04173455 0.02789986
vt 0.06229666 0.02789986
vt 0.06229666 0.05543351
vt 0.04173455 0.05543351
vt 0.02092831 0.02789986
vt 0.04149041 0.02789986
vt 0.04149041 0.05543351
vt 0.02092831 0.05543351
vt 0.0001220703 0.02789986
vt 0.02068417 0.02789986
vt 0.02068417 0.05543351
vt 0.0001220703 0.05543351
vt 0.0625408 0.0001220703
vt 0.0831029 0.0001220703
vt 0.0831029 0.02765572
vt 0.0625408 0.02765572
vt 0.0001220703 0.0001220703
vt 0.02068417 0.0001220703
vt 0.02068417 0.02765572
vt 0.0001220703 0.02765572

# Normal
vn 0 0 -1

# Mesh description
g LeftLangihan_mesh_0006

# Faces
f 1/1/1 2/2/1 3/3/1 4/4/1
f 5/5/1 6/6/1 7/7/1 8/8/1
f 9/9/1 10/10/1 11/11/1 12/12/1
f 13/13/1 14/14/1 15/15/1 16/16/1
f 17/17/1 18/18/1 19/19/1 20/20/1
f 21/21/1 22/22/1 23/23/1 24/24/1
f 25/25/1 26/26/1 27/27/1 28/28/1
f 29/29/1 30/30/1 31/31/1 32/32/1
f 33/33/1 34/34/1 35/35/1 36/36/1
f 37/37/1 38/38/1 39/39/1 40/40/1
f 41/41/1 42/42/1 43/43/1 44/44/1
f 45/45/1 46/46/1 47/47/1 48/48/1
f 49/1/1 50/2/1 51/3/1 52/4/1
f 53/5/1 54/6/1 55/7/1 56/8/1
f 57/9/1 58/10/1 59/11/1 60/12/1
f 61/13/1 62/14/1 63/15/1 64/16/1
f 65/49/1 66/50/1 67/51/1 68/52/1
f 69/53/1 70/54/1 71/55/1 72/56/1
f 73/33/1 74/34/1 75/35/1 76/36/1
f 77/37/1 78/38/1 79/39/1 80/40/1
f 81/41/1 82/42/1 83/43/1 84/44/1
f 85/45/1 86/46/1 87/47/1 88/48/1
f 89/17/1 90/18/1 91/19/1 92/20/1
f 93/21/1 94/22/1 95/23/1 96/24/1
f 97/25/1 98/26/1 99/27/1 100/28/1
f 101/29/1 102/30/1 103/31/1 104/32/1
f 105/49/1 106/50/1 107/51/1 108/52/1
f 109/53/1 110/54/1 111/55/1 112/56/1
f 113/1/1 114/2/1 115/3/1 116/4/1
f 117/5/1 118/6/1 119/7/1 120/8/1
f 121/9/1 122/10/1 123/11/1 124/12/1
f 125/13/1 126/14/1 127/15/1 128/16/1
f 129/33/1 130/34/1 131/35/1 132/36/1
f 133/37/1 134/38/1 135/39/1 136/40/1
f 137/41/1 138/42/1 139/43/1 140/44/1
f 141/45/1 142/46/1 143/47/1 144/48/1
f 145/49/1 146/50/1 147/51/1 148/52/1
f 149/53/1 150/54/1 151/55/1 152/56/1
f 153/17/1 154/18/1 155/19/1 156/20/1
f 157/21/1 158/22/1 159/23/1 160/24/1
f 161/25/1 162/26/1 163/27/1 164/28/1
f 165/29/1 166/30/1 167/31/1 168/32/1
f 169/1/1 170/2/1 171/3/1 172/4/1
f 173/5/1 174/6/1 175/7/1 176/8/1
f 177/9/1 178/10/1 179/11/1 180/12/1
f 181/13/1 182/14/1 183/15/1 184/16/1
f 185/33/1 186/34/1 187/35/1 188/36/1
f 189/37/1 190/38/1 191/39/1 192/40/1
f 193/41/1 194/42/1 195/43/1 196/44/1
f 197/45/1 198/46/1 199/47/1 200/48/1
f 201/49/1 202/50/1 203/51/1 204/52/1
f 205/53/1 206/54/1 207/55/1 208/56/1
f 209/17/1 210/18/1 211/19/1 212/20/1
f 213/21/1 214/22/1 215/23/1 216/24/1
f 217/25/1 218/26/1 219/27/1 220/28/1
f 221/29/1 222/30/1 223/31/1 224/32/1
f 225/1/1 226/2/1 227/3/1 228/4/1
f 229/5/1 230/6/1 231/7/1 232/8/1
f 233/9/1 234/10/1 235/11/1 236/12/1
f 237/13/1 238/14/1 239/15/1 240/16/1
f 241/17/1 242/18/1 243/19/1 244/20/1
f 245/21/1 246/22/1 247/23/1 248/24/1
f 249/25/1 250/26/1 251/27/1 252/28/1
f 253/29/1 254/30/1 255/31/1 256/32/1
f 257/33/1 258/34/1 259/35/1 260/36/1
f 261/37/1 262/38/1 263/39/1 264/40/1
f 265/41/1 266/42/1 267/43/1 268/44/1
f 269/45/1 270/46/1 271/47/1 272/48/1
f 273/1/1 274/2/1 275/3/1 276/4/1
f 277/5/1 278/6/1 279/7/1 280/8/1
f 281/9/1 282/10/1 283/11/1 284/12/1
f 285/13/1 286/14/1 287/15/1 288/16/1
f 289/49/1 290/50/1 291/51/1 292/52/1
f 293/53/1 294/54/1 295/55/1 296/56/1
f 297/33/1 298/34/1 299/35/1 300/36/1
f 301/37/1 302/38/1 303/39/1 304/40/1
f 305/41/1 306/42/1 307/43/1 308/44/1
f 309/45/1 310/46/1 311/47/1 312/48/1
f 313/17/1 314/18/1 315/19/1 316/20/1
f 317/21/1 318/22/1 319/23/1 320/24/1
f 321/25/1 322/26/1 323/27/1 324/28/1
f 325/29/1 326/30/1 327/31/1 328/32/1
f 329/49/1 330/50/1 331/51/1 332/52/1
f 333/53/1 334/54/1 335/55/1 336/56/1
f 337/17/1 338/18/1 339/19/1 340/20/1
f 341/21/1 342/22/1 343/23/1 344/24/1
f 345/25/1 346/26/1 347/27/1 348/28/1
f 349/29/1 350/30/1 351/31/1 352/32/1
f 353/1/1 354/2/1 355/3/1 356/4/1
f 357/5/1 358/6/1 359/7/1 360/8/1
f 361/9/1 362/10/1 363/11/1 364/12/1
f 365/13/1 366/14/1 367/15/1 368/16/1
f 369/1/1 370/2/1 371/3/1 372/4/1
f 373/5/1 374/6/1 375/7/1 376/8/1
f 377/9/1 378/10/1 379/11/1 380/12/1
f 381/13/1 382/14/1 383/15/1 384/16/1
f 385/33/1 386/34/1 387/35/1 388/36/1
f 389/37/1 390/38/1 391/39/1 392/40/1
f 393/41/1 394/42/1 395/43/1 396/44/1
f 397/45/1 398/46/1 399/47/1 400/48/1
f 401/33/1 402/34/1 403/35/1 404/36/1
f 405/37/1 406/38/1 407/39/1 408/40/1
f 409/41/1 410/42/1 411/43/1 412/44/1
f 413/45/1 414/46/1 415/47/1 416/48/1
f 417/49/1 418/50/1 419/51/1 420/52/1
f 421/53/1 422/54/1 423/55/1 424/56/1
f 425/17/1 426/18/1 427/19/1 428/20/1
f 429/21/1 430/22/1 431/23/1 432/24/1
f 433/25/1 434/26/1 435/27/1 436/28/1
f 437/29/1 438/30/1 439/31/1 440/32/1
f 441/49/1 442/50/1 443/51/1 444/52/1
f 445/53/1 446/54/1 447/55/1 448/56/1
f 449/1/1 450/2/1 451/3/1 452/4/1
f 453/5/1 454/6/1 455/7/1 456/8/1
f 457/9/1 458/10/1 459/11/1 460/12/1
f 461/13/1 462/14/1 463/15/1 464/16/1
f 465/33/1 466/34/1 467/35/1 468/36/1
f 469/37/1 470/38/1 471/39/1 472/40/1
f 473/41/1 474/42/1 475/43/1 476/44/1
f 477/45/1 478/46/1 479/47/1 480/48/1
f 481/49/1 482/50/1 483/51/1 484/52/1
f 485/53/1 486/54/1 487/55/1 488/56/1
f 489/17/1 490/18/1 491/19/1 492/20/1
f 493/21/1 494/22/1 495/23/1 496/24/1
f 497/25/1 498/26/1 499/27/1 500/28/1
f 501/29/1 502/30/1 503/31/1 504/32/1
f 505/1/1 506/2/1 507/3/1 508/4/1
f 509/5/1 510/6/1 511/7/1 512/8/1
f 513/9/1 514/10/1 515/11/1 516/12/1
f 517/13/1 518/14/1 519/15/1 520/16/1
f 521/33/1 522/34/1 523/35/1 524/36/1
f 525/37/1 526/38/1 527/39/1 528/40/1
f 529/41/1 530/42/1 531/43/1 532/44/1
f 533/45/1 534/46/1 535/47/1 536/48/1
f 537/49/1 538/50/1 539/51/1 540/52/1
f 541/53/1 542/54/1 543/55/1 544/56/1
f 545/17/1 546/18/1 547/19/1 548/20/1
f 549/21/1 550/22/1 551/23/1 552/24/1
f 553/25/1 554/26/1 555/27/1 556/28/1
f 557/29/1 558/30/1 559/31/1 560/32/1
f 561/1/1 562/2/1 563/3/1 564/4/1
f 565/5/1 566/6/1 567/7/1 568/8/1
f 569/9/1 570/10/1 571/11/1 572/12/1
f 573/13/1 574/14/1 575/15/1 576/16/1
f 577/33/1 578/34/1 579/35/1 580/36/1
f 581/37/1 582/38/1 583/39/1 584/40/1
f 585/41/1 586/42/1 587/43/1 588/44/1
f 589/45/1 590/46/1 591/47/1 592/48/1
f 593/49/1 594/50/1 595/51/1 596/52/1
f 597/53/1 598/54/1 599/55/1 600/56/1
f 601/21/1 602/22/1 603/23/1 604/24/1
f 605/25/1 606/26/1 607/27/1 608/28/1
f 609/29/1 610/30/1 611/31/1 612/32/1
f 613/1/1 614/2/1 615/3/1 616/4/1
f 617/5/1 618/6/1 619/7/1 620/8/1
f 621/9/1 622/10/1 623/11/1 624/12/1
f 625/13/1 626/14/1 627/15/1 628/16/1
f 629/33/1 630/34/1 631/35/1 632/36/1
f 633/37/1 634/38/1 635/39/1 636/40/1
f 637/41/1 638/42/1 639/43/1 640/44/1
f 641/45/1 642/46/1 643/47/1 644/48/1
f 645/49/1 646/50/1 647/51/1 648/52/1
f 649/53/1 650/54/1 651/55/1 652/56/1

