# Tiled2Unity generated file. Do not modify by hand.
# Wavefront file for 'DBPkarsadatogmall_mesh_0003.obj'

# Vertices (Count = 696)
v -10 -4 0
v -11 -4 0
v -11 -3 0
v -10 -3 0
v -11 -4 0
v -12 -4 0
v -12 -3 0
v -11 -3 0
v -12 -4 0
v -13 -4 0
v -13 -3 0
v -12 -3 0
v -13 -4 0
v -14 -4 0
v -14 -3 0
v -13 -3 0
v -14 -4 0
v -15 -4 0
v -15 -3 0
v -14 -3 0
v -10 -5 0
v -11 -5 0
v -11 -4 0
v -10 -4 0
v -11 -5 0
v -12 -5 0
v -12 -4 0
v -11 -4 0
v -12 -5 0
v -13 -5 0
v -13 -4 0
v -12 -4 0
v -13 -5 0
v -14 -5 0
v -14 -4 0
v -13 -4 0
v -14 -5 0
v -15 -5 0
v -15 -4 0
v -14 -4 0
v -10 -6 0
v -11 -6 0
v -11 -5 0
v -10 -5 0
v -11 -6 0
v -12 -6 0
v -12 -5 0
v -11 -5 0
v -12 -6 0
v -13 -6 0
v -13 -5 0
v -12 -5 0
v -13 -6 0
v -14 -6 0
v -14 -5 0
v -13 -5 0
v -14 -6 0
v -15 -6 0
v -15 -5 0
v -14 -5 0
v -4 -7 0
v -5 -7 0
v -5 -6 0
v -4 -6 0
v -5 -7 0
v -6 -7 0
v -6 -6 0
v -5 -6 0
v -6 -7 0
v -7 -7 0
v -7 -6 0
v -6 -6 0
v -7 -7 0
v -8 -7 0
v -8 -6 0
v -7 -6 0
v -10 -7 0
v -11 -7 0
v -11 -6 0
v -10 -6 0
v -13 -7 0
v -14 -7 0
v -14 -6 0
v -13 -6 0
v -4 -8 0
v -5 -8 0
v -5 -7 0
v -4 -7 0
v -5 -8 0
v -6 -8 0
v -6 -7 0
v -5 -7 0
v -6 -8 0
v -7 -8 0
v -7 -7 0
v -6 -7 0
v -7 -8 0
v -8 -8 0
v -8 -7 0
v -7 -7 0
v -4 -9 0
v -5 -9 0
v -5 -8 0
v -4 -8 0
v -5 -9 0
v -6 -9 0
v -6 -8 0
v -5 -8 0
v -6 -9 0
v -7 -9 0
v -7 -8 0
v -6 -8 0
v -7 -9 0
v -8 -9 0
v -8 -8 0
v -7 -8 0
v -4 -10 0
v -5 -10 0
v -5 -9 0
v -4 -9 0
v -7 -10 0
v -8 -10 0
v -8 -9 0
v -7 -9 0
v -2 -22 0
v -3 -22 0
v -3 -21 0
v -2 -21 0
v -3 -22 0
v -4 -22 0
v -4 -21 0
v -3 -21 0
v -4 -22 0
v -5 -22 0
v -5 -21 0
v -4 -21 0
v -5 -22 0
v -6 -22 0
v -6 -21 0
v -5 -21 0
v -6 -22 0
v -7 -22 0
v -7 -21 0
v -6 -21 0
v -12 -22 0
v -13 -22 0
v -13 -21 0
v -12 -21 0
v -13 -22 0
v -14 -22 0
v -14 -21 0
v -13 -21 0
v -14 -22 0
v -15 -22 0
v -15 -21 0
v -14 -21 0
v -15 -22 0
v -16 -22 0
v -16 -21 0
v -15 -21 0
v -16 -22 0
v -17 -22 0
v -17 -21 0
v -16 -21 0
v -2 -23 0
v -3 -23 0
v -3 -22 0
v -2 -22 0
v -3 -23 0
v -4 -23 0
v -4 -22 0
v -3 -22 0
v -4 -23 0
v -5 -23 0
v -5 -22 0
v -4 -22 0
v -5 -23 0
v -6 -23 0
v -6 -22 0
v -5 -22 0
v -6 -23 0
v -7 -23 0
v -7 -22 0
v -6 -22 0
v -12 -23 0
v -13 -23 0
v -13 -22 0
v -12 -22 0
v -13 -23 0
v -14 -23 0
v -14 -22 0
v -13 -22 0
v -14 -23 0
v -15 -23 0
v -15 -22 0
v -14 -22 0
v -15 -23 0
v -16 -23 0
v -16 -22 0
v -15 -22 0
v -16 -23 0
v -17 -23 0
v -17 -22 0
v -16 -22 0
v -2 -24 0
v -3 -24 0
v -3 -23 0
v -2 -23 0
v -3 -24 0
v -4 -24 0
v -4 -23 0
v -3 -23 0
v -4 -24 0
v -5 -24 0
v -5 -23 0
v -4 -23 0
v -5 -24 0
v -6 -24 0
v -6 -23 0
v -5 -23 0
v -6 -24 0
v -7 -24 0
v -7 -23 0
v -6 -23 0
v -12 -24 0
v -13 -24 0
v -13 -23 0
v -12 -23 0
v -13 -24 0
v -14 -24 0
v -14 -23 0
v -13 -23 0
v -14 -24 0
v -15 -24 0
v -15 -23 0
v -14 -23 0
v -15 -24 0
v -16 -24 0
v -16 -23 0
v -15 -23 0
v -16 -24 0
v -17 -24 0
v -17 -23 0
v -16 -23 0
v -2 -25 0
v -3 -25 0
v -3 -24 0
v -2 -24 0
v -5 -25 0
v -6 -25 0
v -6 -24 0
v -5 -24 0
v -12 -25 0
v -13 -25 0
v -13 -24 0
v -12 -24 0
v -15 -25 0
v -16 -25 0
v -16 -24 0
v -15 -24 0
v -9 -27 0
v -10 -27 0
v -10 -26 0
v -9 -26 0
v -10 -27 0
v -11 -27 0
v -11 -26 0
v -10 -26 0
v -11 -27 0
v -12 -27 0
v -12 -26 0
v -11 -26 0
v -12 -27 0
v -13 -27 0
v -13 -26 0
v -12 -26 0
v -13 -27 0
v -14 -27 0
v -14 -26 0
v -13 -26 0
v -9 -28 0
v -10 -28 0
v -10 -27 0
v -9 -27 0
v -10 -28 0
v -11 -28 0
v -11 -27 0
v -10 -27 0
v -11 -28 0
v -12 -28 0
v -12 -27 0
v -11 -27 0
v -12 -28 0
v -13 -28 0
v -13 -27 0
v -12 -27 0
v -13 -28 0
v -14 -28 0
v -14 -27 0
v -13 -27 0
v -9 -29 0
v -10 -29 0
v -10 -28 0
v -9 -28 0
v -10 -29 0
v -11 -29 0
v -11 -28 0
v -10 -28 0
v -11 -29 0
v -12 -29 0
v -12 -28 0
v -11 -28 0
v -12 -29 0
v -13 -29 0
v -13 -28 0
v -12 -28 0
v -13 -29 0
v -14 -29 0
v -14 -28 0
v -13 -28 0
v -14 -29 0
v -15 -29 0
v -15 -28 0
v -14 -28 0
v -15 -29 0
v -16 -29 0
v -16 -28 0
v -15 -28 0
v -16 -29 0
v -17 -29 0
v -17 -28 0
v -16 -28 0
v -9 -30 0
v -10 -30 0
v -10 -29 0
v -9 -29 0
v -12 -30 0
v -13 -30 0
v -13 -29 0
v -12 -29 0
v -13 -30 0
v -14 -30 0
v -14 -29 0
v -13 -29 0
v -14 -30 0
v -15 -30 0
v -15 -29 0
v -14 -29 0
v -15 -30 0
v -16 -30 0
v -16 -29 0
v -15 -29 0
v -16 -30 0
v -17 -30 0
v -17 -29 0
v -16 -29 0
v -13 -31 0
v -14 -31 0
v -14 -30 0
v -13 -30 0
v -14 -31 0
v -15 -31 0
v -15 -30 0
v -14 -30 0
v -15 -31 0
v -16 -31 0
v -16 -30 0
v -15 -30 0
v -16 -31 0
v -17 -31 0
v -17 -30 0
v -16 -30 0
v -13 -32 0
v -14 -32 0
v -14 -31 0
v -13 -31 0
v -16 -32 0
v -17 -32 0
v -17 -31 0
v -16 -31 0
v -2 -33 0
v -3 -33 0
v -3 -32 0
v -2 -32 0
v -3 -33 0
v -4 -33 0
v -4 -32 0
v -3 -32 0
v -4 -33 0
v -5 -33 0
v -5 -32 0
v -4 -32 0
v -5 -33 0
v -6 -33 0
v -6 -32 0
v -5 -32 0
v -2 -34 0
v -3 -34 0
v -3 -33 0
v -2 -33 0
v -3 -34 0
v -4 -34 0
v -4 -33 0
v -3 -33 0
v -4 -34 0
v -5 -34 0
v -5 -33 0
v -4 -33 0
v -5 -34 0
v -6 -34 0
v -6 -33 0
v -5 -33 0
v -2 -35 0
v -3 -35 0
v -3 -34 0
v -2 -34 0
v -3 -35 0
v -4 -35 0
v -4 -34 0
v -3 -34 0
v -4 -35 0
v -5 -35 0
v -5 -34 0
v -4 -34 0
v -5 -35 0
v -6 -35 0
v -6 -34 0
v -5 -34 0
v -2 -36 0
v -3 -36 0
v -3 -35 0
v -2 -35 0
v -5 -36 0
v -6 -36 0
v -6 -35 0
v -5 -35 0
v -12 -46 0
v -13 -46 0
v -13 -45 0
v -12 -45 0
v -13 -46 0
v -14 -46 0
v -14 -45 0
v -13 -45 0
v -14 -46 0
v -15 -46 0
v -15 -45 0
v -14 -45 0
v -15 -46 0
v -16 -46 0
v -16 -45 0
v -15 -45 0
v -16 -46 0
v -17 -46 0
v -17 -45 0
v -16 -45 0
v -12 -47 0
v -13 -47 0
v -13 -46 0
v -12 -46 0
v -13 -47 0
v -14 -47 0
v -14 -46 0
v -13 -46 0
v -14 -47 0
v -15 -47 0
v -15 -46 0
v -14 -46 0
v -15 -47 0
v -16 -47 0
v -16 -46 0
v -15 -46 0
v -16 -47 0
v -17 -47 0
v -17 -46 0
v -16 -46 0
v -12 -48 0
v -13 -48 0
v -13 -47 0
v -12 -47 0
v -13 -48 0
v -14 -48 0
v -14 -47 0
v -13 -47 0
v -14 -48 0
v -15 -48 0
v -15 -47 0
v -14 -47 0
v -15 -48 0
v -16 -48 0
v -16 -47 0
v -15 -47 0
v -16 -48 0
v -17 -48 0
v -17 -47 0
v -16 -47 0
v -12 -49 0
v -13 -49 0
v -13 -48 0
v -12 -48 0
v -15 -49 0
v -16 -49 0
v -16 -48 0
v -15 -48 0
v 0 -59 0
v -1 -59 0
v -1 -58 0
v 0 -58 0
v -1 -59 0
v -2 -59 0
v -2 -58 0
v -1 -58 0
v -2 -59 0
v -3 -59 0
v -3 -58 0
v -2 -58 0
v -3 -59 0
v -4 -59 0
v -4 -58 0
v -3 -58 0
v -4 -59 0
v -5 -59 0
v -5 -58 0
v -4 -58 0
v 0 -60 0
v -1 -60 0
v -1 -59 0
v 0 -59 0
v -1 -60 0
v -2 -60 0
v -2 -59 0
v -1 -59 0
v -2 -60 0
v -3 -60 0
v -3 -59 0
v -2 -59 0
v -3 -60 0
v -4 -60 0
v -4 -59 0
v -3 -59 0
v -4 -60 0
v -5 -60 0
v -5 -59 0
v -4 -59 0
v 0 -61 0
v -1 -61 0
v -1 -60 0
v 0 -60 0
v -1 -61 0
v -2 -61 0
v -2 -60 0
v -1 -60 0
v -2 -61 0
v -3 -61 0
v -3 -60 0
v -2 -60 0
v -3 -61 0
v -4 -61 0
v -4 -60 0
v -3 -60 0
v -4 -61 0
v -5 -61 0
v -5 -60 0
v -4 -60 0
v 0 -62 0
v -1 -62 0
v -1 -61 0
v 0 -61 0
v -3 -62 0
v -4 -62 0
v -4 -61 0
v -3 -61 0
v -4 -64 0
v -5 -64 0
v -5 -63 0
v -4 -63 0
v -5 -64 0
v -6 -64 0
v -6 -63 0
v -5 -63 0
v -6 -64 0
v -7 -64 0
v -7 -63 0
v -6 -63 0
v -7 -64 0
v -8 -64 0
v -8 -63 0
v -7 -63 0
v -11 -64 0
v -12 -64 0
v -12 -63 0
v -11 -63 0
v -12 -64 0
v -13 -64 0
v -13 -63 0
v -12 -63 0
v -13 -64 0
v -14 -64 0
v -14 -63 0
v -13 -63 0
v -14 -64 0
v -15 -64 0
v -15 -63 0
v -14 -63 0
v -15 -64 0
v -16 -64 0
v -16 -63 0
v -15 -63 0
v -4 -65 0
v -5 -65 0
v -5 -64 0
v -4 -64 0
v -5 -65 0
v -6 -65 0
v -6 -64 0
v -5 -64 0
v -6 -65 0
v -7 -65 0
v -7 -64 0
v -6 -64 0
v -7 -65 0
v -8 -65 0
v -8 -64 0
v -7 -64 0
v -11 -65 0
v -12 -65 0
v -12 -64 0
v -11 -64 0
v -12 -65 0
v -13 -65 0
v -13 -64 0
v -12 -64 0
v -13 -65 0
v -14 -65 0
v -14 -64 0
v -13 -64 0
v -14 -65 0
v -15 -65 0
v -15 -64 0
v -14 -64 0
v -15 -65 0
v -16 -65 0
v -16 -64 0
v -15 -64 0
v -4 -66 0
v -5 -66 0
v -5 -65 0
v -4 -65 0
v -5 -66 0
v -6 -66 0
v -6 -65 0
v -5 -65 0
v -6 -66 0
v -7 -66 0
v -7 -65 0
v -6 -65 0
v -7 -66 0
v -8 -66 0
v -8 -65 0
v -7 -65 0
v -11 -66 0
v -12 -66 0
v -12 -65 0
v -11 -65 0
v -12 -66 0
v -13 -66 0
v -13 -65 0
v -12 -65 0
v -13 -66 0
v -14 -66 0
v -14 -65 0
v -13 -65 0
v -14 -66 0
v -15 -66 0
v -15 -65 0
v -14 -65 0
v -15 -66 0
v -16 -66 0
v -16 -65 0
v -15 -65 0
v -4 -67 0
v -5 -67 0
v -5 -66 0
v -4 -66 0
v -7 -67 0
v -8 -67 0
v -8 -66 0
v -7 -66 0
v -11 -67 0
v -12 -67 0
v -12 -66 0
v -11 -66 0
v -14 -67 0
v -15 -67 0
v -15 -66 0
v -14 -66 0

# Texture cooridinates (Count = 124)
vt 0.2914095 0.1667888
vt 0.3119715 0.1667888
vt 0.3119715 0.1943223
vt 0.2914095 0.1943223
vt 0.3122157 0.1667888
vt 0.3327778 0.1667888
vt 0.3327778 0.1943223
vt 0.3122157 0.1943223
vt 0.3330219 0.1667888
vt 0.3535841 0.1667888
vt 0.3535841 0.1943223
vt 0.3330219 0.1943223
vt 0.3538282 0.1667888
vt 0.3743903 0.1667888
vt 0.3743903 0.1943223
vt 0.3538282 0.1943223
vt 0.3746344 0.1667888
vt 0.3951965 0.1667888
vt 0.3951965 0.1943223
vt 0.3746344 0.1943223
vt 0.2914095 0.139011
vt 0.3119715 0.139011
vt 0.3119715 0.1665446
vt 0.2914095 0.1665446
vt 0.3122157 0.139011
vt 0.3327778 0.139011
vt 0.3327778 0.1665446
vt 0.3122157 0.1665446
vt 0.3330219 0.139011
vt 0.3535841 0.139011
vt 0.3535841 0.1665446
vt 0.3330219 0.1665446
vt 0.3538282 0.139011
vt 0.3743903 0.139011
vt 0.3743903 0.1665446
vt 0.3538282 0.1665446
vt 0.3746344 0.139011
vt 0.3951965 0.139011
vt 0.3951965 0.1665446
vt 0.3746344 0.1665446
vt 0.2914095 0.1112332
vt 0.3119715 0.1112332
vt 0.3119715 0.1387668
vt 0.2914095 0.1387668
vt 0.3122157 0.1112332
vt 0.3327778 0.1112332
vt 0.3327778 0.1387668
vt 0.3122157 0.1387668
vt 0.3330219 0.1112332
vt 0.3535841 0.1112332
vt 0.3535841 0.1387668
vt 0.3330219 0.1387668
vt 0.3538282 0.1112332
vt 0.3743903 0.1112332
vt 0.3743903 0.1387668
vt 0.3538282 0.1387668
vt 0.3746344 0.1112332
vt 0.3951965 0.1112332
vt 0.3951965 0.1387668
vt 0.3746344 0.1387668
vt 0.0001220703 0.08345538
vt 0.02068417 0.08345538
vt 0.02068417 0.110989
vt 0.0001220703 0.110989
vt 0.02092831 0.08345538
vt 0.04149041 0.08345538
vt 0.04149041 0.110989
vt 0.02092831 0.110989
vt 0.04173455 0.08345538
vt 0.06229666 0.08345538
vt 0.06229666 0.110989
vt 0.04173455 0.110989
vt 0.0625408 0.08345538
vt 0.0831029 0.08345538
vt 0.0831029 0.110989
vt 0.0625408 0.110989
vt 0.2914095 0.08345538
vt 0.3119715 0.08345538
vt 0.3119715 0.110989
vt 0.2914095 0.110989
vt 0.3538282 0.08345538
vt 0.3743903 0.08345538
vt 0.3743903 0.110989
vt 0.3538282 0.110989
vt 0.0001220703 0.05567765
vt 0.02068417 0.05567765
vt 0.02068417 0.08321124
vt 0.0001220703 0.08321124
vt 0.02092831 0.05567765
vt 0.04149041 0.05567765
vt 0.04149041 0.08321124
vt 0.02092831 0.08321124
vt 0.04173455 0.05567765
vt 0.06229666 0.05567765
vt 0.06229666 0.08321124
vt 0.04173455 0.08321124
vt 0.0625408 0.05567765
vt 0.0831029 0.05567765
vt 0.0831029 0.08321124
vt 0.0625408 0.08321124
vt 0.0001220703 0.02789986
vt 0.02068417 0.02789986
vt 0.02068417 0.05543351
vt 0.0001220703 0.05543351
vt 0.02092831 0.02789986
vt 0.04149041 0.02789986
vt 0.04149041 0.05543351
vt 0.02092831 0.05543351
vt 0.04173455 0.02789986
vt 0.06229666 0.02789986
vt 0.06229666 0.05543351
vt 0.04173455 0.05543351
vt 0.0625408 0.02789986
vt 0.0831029 0.02789986
vt 0.0831029 0.05543351
vt 0.0625408 0.05543351
vt 0.0001220703 0.0001220703
vt 0.02068417 0.0001220703
vt 0.02068417 0.02765572
vt 0.0001220703 0.02765572
vt 0.0625408 0.0001220703
vt 0.0831029 0.0001220703
vt 0.0831029 0.02765572
vt 0.0625408 0.02765572

# Normal
vn 0 0 -1

# Mesh description
g DBPkarsadatogmall_mesh_0003

# Faces
f 1/1/1 2/2/1 3/3/1 4/4/1
f 5/5/1 6/6/1 7/7/1 8/8/1
f 9/9/1 10/10/1 11/11/1 12/12/1
f 13/13/1 14/14/1 15/15/1 16/16/1
f 17/17/1 18/18/1 19/19/1 20/20/1
f 21/21/1 22/22/1 23/23/1 24/24/1
f 25/25/1 26/26/1 27/27/1 28/28/1
f 29/29/1 30/30/1 31/31/1 32/32/1
f 33/33/1 34/34/1 35/35/1 36/36/1
f 37/37/1 38/38/1 39/39/1 40/40/1
f 41/41/1 42/42/1 43/43/1 44/44/1
f 45/45/1 46/46/1 47/47/1 48/48/1
f 49/49/1 50/50/1 51/51/1 52/52/1
f 53/53/1 54/54/1 55/55/1 56/56/1
f 57/57/1 58/58/1 59/59/1 60/60/1
f 61/61/1 62/62/1 63/63/1 64/64/1
f 65/65/1 66/66/1 67/67/1 68/68/1
f 69/69/1 70/70/1 71/71/1 72/72/1
f 73/73/1 74/74/1 75/75/1 76/76/1
f 77/77/1 78/78/1 79/79/1 80/80/1
f 81/81/1 82/82/1 83/83/1 84/84/1
f 85/85/1 86/86/1 87/87/1 88/88/1
f 89/89/1 90/90/1 91/91/1 92/92/1
f 93/93/1 94/94/1 95/95/1 96/96/1
f 97/97/1 98/98/1 99/99/1 100/100/1
f 101/101/1 102/102/1 103/103/1 104/104/1
f 105/105/1 106/106/1 107/107/1 108/108/1
f 109/109/1 110/110/1 111/111/1 112/112/1
f 113/113/1 114/114/1 115/115/1 116/116/1
f 117/117/1 118/118/1 119/119/1 120/120/1
f 121/121/1 122/122/1 123/123/1 124/124/1
f 125/1/1 126/2/1 127/3/1 128/4/1
f 129/5/1 130/6/1 131/7/1 132/8/1
f 133/9/1 134/10/1 135/11/1 136/12/1
f 137/13/1 138/14/1 139/15/1 140/16/1
f 141/17/1 142/18/1 143/19/1 144/20/1
f 145/1/1 146/2/1 147/3/1 148/4/1
f 149/5/1 150/6/1 151/7/1 152/8/1
f 153/9/1 154/10/1 155/11/1 156/12/1
f 157/13/1 158/14/1 159/15/1 160/16/1
f 161/17/1 162/18/1 163/19/1 164/20/1
f 165/21/1 166/22/1 167/23/1 168/24/1
f 169/25/1 170/26/1 171/27/1 172/28/1
f 173/29/1 174/30/1 175/31/1 176/32/1
f 177/33/1 178/34/1 179/35/1 180/36/1
f 181/37/1 182/38/1 183/39/1 184/40/1
f 185/21/1 186/22/1 187/23/1 188/24/1
f 189/25/1 190/26/1 191/27/1 192/28/1
f 193/29/1 194/30/1 195/31/1 196/32/1
f 197/33/1 198/34/1 199/35/1 200/36/1
f 201/37/1 202/38/1 203/39/1 204/40/1
f 205/41/1 206/42/1 207/43/1 208/44/1
f 209/45/1 210/46/1 211/47/1 212/48/1
f 213/49/1 214/50/1 215/51/1 216/52/1
f 217/53/1 218/54/1 219/55/1 220/56/1
f 221/57/1 222/58/1 223/59/1 224/60/1
f 225/41/1 226/42/1 227/43/1 228/44/1
f 229/45/1 230/46/1 231/47/1 232/48/1
f 233/49/1 234/50/1 235/51/1 236/52/1
f 237/53/1 238/54/1 239/55/1 240/56/1
f 241/57/1 242/58/1 243/59/1 244/60/1
f 245/77/1 246/78/1 247/79/1 248/80/1
f 249/81/1 250/82/1 251/83/1 252/84/1
f 253/77/1 254/78/1 255/79/1 256/80/1
f 257/81/1 258/82/1 259/83/1 260/84/1
f 261/1/1 262/2/1 263/3/1 264/4/1
f 265/5/1 266/6/1 267/7/1 268/8/1
f 269/9/1 270/10/1 271/11/1 272/12/1
f 273/13/1 274/14/1 275/15/1 276/16/1
f 277/17/1 278/18/1 279/19/1 280/20/1
f 281/21/1 282/22/1 283/23/1 284/24/1
f 285/25/1 286/26/1 287/27/1 288/28/1
f 289/29/1 290/30/1 291/31/1 292/32/1
f 293/33/1 294/34/1 295/35/1 296/36/1
f 297/37/1 298/38/1 299/39/1 300/40/1
f 301/41/1 302/42/1 303/43/1 304/44/1
f 305/45/1 306/46/1 307/47/1 308/48/1
f 309/49/1 310/50/1 311/51/1 312/52/1
f 313/53/1 314/54/1 315/55/1 316/56/1
f 317/61/1 318/62/1 319/63/1 320/64/1
f 321/65/1 322/66/1 323/67/1 324/68/1
f 325/69/1 326/70/1 327/71/1 328/72/1
f 329/73/1 330/74/1 331/75/1 332/76/1
f 333/77/1 334/78/1 335/79/1 336/80/1
f 337/81/1 338/82/1 339/83/1 340/84/1
f 341/85/1 342/86/1 343/87/1 344/88/1
f 345/89/1 346/90/1 347/91/1 348/92/1
f 349/93/1 350/94/1 351/95/1 352/96/1
f 353/97/1 354/98/1 355/99/1 356/100/1
f 357/101/1 358/102/1 359/103/1 360/104/1
f 361/105/1 362/106/1 363/107/1 364/108/1
f 365/109/1 366/110/1 367/111/1 368/112/1
f 369/113/1 370/114/1 371/115/1 372/116/1
f 373/117/1 374/118/1 375/119/1 376/120/1
f 377/121/1 378/122/1 379/123/1 380/124/1
f 381/61/1 382/62/1 383/63/1 384/64/1
f 385/65/1 386/66/1 387/67/1 388/68/1
f 389/69/1 390/70/1 391/71/1 392/72/1
f 393/73/1 394/74/1 395/75/1 396/76/1
f 397/85/1 398/86/1 399/87/1 400/88/1
f 401/89/1 402/90/1 403/91/1 404/92/1
f 405/93/1 406/94/1 407/95/1 408/96/1
f 409/97/1 410/98/1 411/99/1 412/100/1
f 413/101/1 414/102/1 415/103/1 416/104/1
f 417/105/1 418/106/1 419/107/1 420/108/1
f 421/109/1 422/110/1 423/111/1 424/112/1
f 425/113/1 426/114/1 427/115/1 428/116/1
f 429/117/1 430/118/1 431/119/1 432/120/1
f 433/121/1 434/122/1 435/123/1 436/124/1
f 437/1/1 438/2/1 439/3/1 440/4/1
f 441/5/1 442/6/1 443/7/1 444/8/1
f 445/9/1 446/10/1 447/11/1 448/12/1
f 449/13/1 450/14/1 451/15/1 452/16/1
f 453/17/1 454/18/1 455/19/1 456/20/1
f 457/21/1 458/22/1 459/23/1 460/24/1
f 461/25/1 462/26/1 463/27/1 464/28/1
f 465/29/1 466/30/1 467/31/1 468/32/1
f 469/33/1 470/34/1 471/35/1 472/36/1
f 473/37/1 474/38/1 475/39/1 476/40/1
f 477/41/1 478/42/1 479/43/1 480/44/1
f 481/45/1 482/46/1 483/47/1 484/48/1
f 485/49/1 486/50/1 487/51/1 488/52/1
f 489/53/1 490/54/1 491/55/1 492/56/1
f 493/57/1 494/58/1 495/59/1 496/60/1
f 497/77/1 498/78/1 499/79/1 500/80/1
f 501/81/1 502/82/1 503/83/1 504/84/1
f 505/1/1 506/2/1 507/3/1 508/4/1
f 509/5/1 510/6/1 511/7/1 512/8/1
f 513/9/1 514/10/1 515/11/1 516/12/1
f 517/13/1 518/14/1 519/15/1 520/16/1
f 521/17/1 522/18/1 523/19/1 524/20/1
f 525/21/1 526/22/1 527/23/1 528/24/1
f 529/25/1 530/26/1 531/27/1 532/28/1
f 533/29/1 534/30/1 535/31/1 536/32/1
f 537/33/1 538/34/1 539/35/1 540/36/1
f 541/37/1 542/38/1 543/39/1 544/40/1
f 545/41/1 546/42/1 547/43/1 548/44/1
f 549/45/1 550/46/1 551/47/1 552/48/1
f 553/49/1 554/50/1 555/51/1 556/52/1
f 557/53/1 558/54/1 559/55/1 560/56/1
f 561/57/1 562/58/1 563/59/1 564/60/1
f 565/77/1 566/78/1 567/79/1 568/80/1
f 569/81/1 570/82/1 571/83/1 572/84/1
f 573/61/1 574/62/1 575/63/1 576/64/1
f 577/65/1 578/66/1 579/67/1 580/68/1
f 581/69/1 582/70/1 583/71/1 584/72/1
f 585/73/1 586/74/1 587/75/1 588/76/1
f 589/1/1 590/2/1 591/3/1 592/4/1
f 593/5/1 594/6/1 595/7/1 596/8/1
f 597/9/1 598/10/1 599/11/1 600/12/1
f 601/13/1 602/14/1 603/15/1 604/16/1
f 605/17/1 606/18/1 607/19/1 608/20/1
f 609/85/1 610/86/1 611/87/1 612/88/1
f 613/89/1 614/90/1 615/91/1 616/92/1
f 617/93/1 618/94/1 619/95/1 620/96/1
f 621/97/1 622/98/1 623/99/1 624/100/1
f 625/21/1 626/22/1 627/23/1 628/24/1
f 629/25/1 630/26/1 631/27/1 632/28/1
f 633/29/1 634/30/1 635/31/1 636/32/1
f 637/33/1 638/34/1 639/35/1 640/36/1
f 641/37/1 642/38/1 643/39/1 644/40/1
f 645/101/1 646/102/1 647/103/1 648/104/1
f 649/105/1 650/106/1 651/107/1 652/108/1
f 653/109/1 654/110/1 655/111/1 656/112/1
f 657/113/1 658/114/1 659/115/1 660/116/1
f 661/41/1 662/42/1 663/43/1 664/44/1
f 665/45/1 666/46/1 667/47/1 668/48/1
f 669/49/1 670/50/1 671/51/1 672/52/1
f 673/53/1 674/54/1 675/55/1 676/56/1
f 677/57/1 678/58/1 679/59/1 680/60/1
f 681/117/1 682/118/1 683/119/1 684/120/1
f 685/121/1 686/122/1 687/123/1 688/124/1
f 689/77/1 690/78/1 691/79/1 692/80/1
f 693/81/1 694/82/1 695/83/1 696/84/1

