# Tiled2Unity generated file. Do not modify by hand.
# Wavefront file for 'DBPkarsadatogmall_mesh_0003.obj'

# Vertices (Count = 632)
v -160 -64 0
v -176 -64 0
v -176 -48 0
v -160 -48 0
v -176 -64 0
v -192 -64 0
v -192 -48 0
v -176 -48 0
v -192 -64 0
v -208 -64 0
v -208 -48 0
v -192 -48 0
v -208 -64 0
v -224 -64 0
v -224 -48 0
v -208 -48 0
v -224 -64 0
v -240 -64 0
v -240 -48 0
v -224 -48 0
v -160 -80 0
v -176 -80 0
v -176 -64 0
v -160 -64 0
v -176 -80 0
v -192 -80 0
v -192 -64 0
v -176 -64 0
v -192 -80 0
v -208 -80 0
v -208 -64 0
v -192 -64 0
v -208 -80 0
v -224 -80 0
v -224 -64 0
v -208 -64 0
v -224 -80 0
v -240 -80 0
v -240 -64 0
v -224 -64 0
v -160 -96 0
v -176 -96 0
v -176 -80 0
v -160 -80 0
v -176 -96 0
v -192 -96 0
v -192 -80 0
v -176 -80 0
v -192 -96 0
v -208 -96 0
v -208 -80 0
v -192 -80 0
v -208 -96 0
v -224 -96 0
v -224 -80 0
v -208 -80 0
v -224 -96 0
v -240 -96 0
v -240 -80 0
v -224 -80 0
v -64 -112 0
v -80 -112 0
v -80 -96 0
v -64 -96 0
v -80 -112 0
v -96 -112 0
v -96 -96 0
v -80 -96 0
v -96 -112 0
v -112 -112 0
v -112 -96 0
v -96 -96 0
v -112 -112 0
v -128 -112 0
v -128 -96 0
v -112 -96 0
v -160 -112 0
v -176 -112 0
v -176 -96 0
v -160 -96 0
v -208 -112 0
v -224 -112 0
v -224 -96 0
v -208 -96 0
v -64 -128 0
v -80 -128 0
v -80 -112 0
v -64 -112 0
v -80 -128 0
v -96 -128 0
v -96 -112 0
v -80 -112 0
v -96 -128 0
v -112 -128 0
v -112 -112 0
v -96 -112 0
v -112 -128 0
v -128 -128 0
v -128 -112 0
v -112 -112 0
v -64 -160 0
v -80 -160 0
v -80 -144 0
v -64 -144 0
v -112 -160 0
v -128 -160 0
v -128 -144 0
v -112 -144 0
v -32 -352 0
v -48 -352 0
v -48 -336 0
v -32 -336 0
v -48 -352 0
v -64 -352 0
v -64 -336 0
v -48 -336 0
v -64 -352 0
v -80 -352 0
v -80 -336 0
v -64 -336 0
v -80 -352 0
v -96 -352 0
v -96 -336 0
v -80 -336 0
v -96 -352 0
v -112 -352 0
v -112 -336 0
v -96 -336 0
v -192 -352 0
v -208 -352 0
v -208 -336 0
v -192 -336 0
v -208 -352 0
v -224 -352 0
v -224 -336 0
v -208 -336 0
v -224 -352 0
v -240 -352 0
v -240 -336 0
v -224 -336 0
v -240 -352 0
v -256 -352 0
v -256 -336 0
v -240 -336 0
v -256 -352 0
v -272 -352 0
v -272 -336 0
v -256 -336 0
v -32 -368 0
v -48 -368 0
v -48 -352 0
v -32 -352 0
v -48 -368 0
v -64 -368 0
v -64 -352 0
v -48 -352 0
v -64 -368 0
v -80 -368 0
v -80 -352 0
v -64 -352 0
v -80 -368 0
v -96 -368 0
v -96 -352 0
v -80 -352 0
v -96 -368 0
v -112 -368 0
v -112 -352 0
v -96 -352 0
v -192 -368 0
v -208 -368 0
v -208 -352 0
v -192 -352 0
v -208 -368 0
v -224 -368 0
v -224 -352 0
v -208 -352 0
v -224 -368 0
v -240 -368 0
v -240 -352 0
v -224 -352 0
v -240 -368 0
v -256 -368 0
v -256 -352 0
v -240 -352 0
v -256 -368 0
v -272 -368 0
v -272 -352 0
v -256 -352 0
v -32 -384 0
v -48 -384 0
v -48 -368 0
v -32 -368 0
v -48 -384 0
v -64 -384 0
v -64 -368 0
v -48 -368 0
v -64 -384 0
v -80 -384 0
v -80 -368 0
v -64 -368 0
v -80 -384 0
v -96 -384 0
v -96 -368 0
v -80 -368 0
v -96 -384 0
v -112 -384 0
v -112 -368 0
v -96 -368 0
v -192 -384 0
v -208 -384 0
v -208 -368 0
v -192 -368 0
v -208 -384 0
v -224 -384 0
v -224 -368 0
v -208 -368 0
v -224 -384 0
v -240 -384 0
v -240 -368 0
v -224 -368 0
v -240 -384 0
v -256 -384 0
v -256 -368 0
v -240 -368 0
v -256 -384 0
v -272 -384 0
v -272 -368 0
v -256 -368 0
v -32 -400 0
v -48 -400 0
v -48 -384 0
v -32 -384 0
v -80 -400 0
v -96 -400 0
v -96 -384 0
v -80 -384 0
v -192 -400 0
v -208 -400 0
v -208 -384 0
v -192 -384 0
v -240 -400 0
v -256 -400 0
v -256 -384 0
v -240 -384 0
v -144 -432 0
v -160 -432 0
v -160 -416 0
v -144 -416 0
v -160 -432 0
v -176 -432 0
v -176 -416 0
v -160 -416 0
v -176 -432 0
v -192 -432 0
v -192 -416 0
v -176 -416 0
v -192 -432 0
v -208 -432 0
v -208 -416 0
v -192 -416 0
v -208 -432 0
v -224 -432 0
v -224 -416 0
v -208 -416 0
v -144 -448 0
v -160 -448 0
v -160 -432 0
v -144 -432 0
v -160 -448 0
v -176 -448 0
v -176 -432 0
v -160 -432 0
v -176 -448 0
v -192 -448 0
v -192 -432 0
v -176 -432 0
v -192 -448 0
v -208 -448 0
v -208 -432 0
v -192 -432 0
v -208 -448 0
v -224 -448 0
v -224 -432 0
v -208 -432 0
v -144 -464 0
v -160 -464 0
v -160 -448 0
v -144 -448 0
v -160 -464 0
v -176 -464 0
v -176 -448 0
v -160 -448 0
v -176 -464 0
v -192 -464 0
v -192 -448 0
v -176 -448 0
v -192 -464 0
v -208 -464 0
v -208 -448 0
v -192 -448 0
v -208 -464 0
v -224 -464 0
v -224 -448 0
v -208 -448 0
v -224 -464 0
v -240 -464 0
v -240 -448 0
v -224 -448 0
v -240 -464 0
v -256 -464 0
v -256 -448 0
v -240 -448 0
v -256 -464 0
v -272 -464 0
v -272 -448 0
v -256 -448 0
v -144 -480 0
v -160 -480 0
v -160 -464 0
v -144 -464 0
v -192 -480 0
v -208 -480 0
v -208 -464 0
v -192 -464 0
v -208 -480 0
v -224 -480 0
v -224 -464 0
v -208 -464 0
v -224 -480 0
v -240 -480 0
v -240 -464 0
v -224 -464 0
v -240 -480 0
v -256 -480 0
v -256 -464 0
v -240 -464 0
v -256 -480 0
v -272 -480 0
v -272 -464 0
v -256 -464 0
v -208 -512 0
v -224 -512 0
v -224 -496 0
v -208 -496 0
v -256 -512 0
v -272 -512 0
v -272 -496 0
v -256 -496 0
v -32 -528 0
v -48 -528 0
v -48 -512 0
v -32 -512 0
v -48 -528 0
v -64 -528 0
v -64 -512 0
v -48 -512 0
v -64 -528 0
v -80 -528 0
v -80 -512 0
v -64 -512 0
v -80 -528 0
v -96 -528 0
v -96 -512 0
v -80 -512 0
v -32 -544 0
v -48 -544 0
v -48 -528 0
v -32 -528 0
v -48 -544 0
v -64 -544 0
v -64 -528 0
v -48 -528 0
v -64 -544 0
v -80 -544 0
v -80 -528 0
v -64 -528 0
v -80 -544 0
v -96 -544 0
v -96 -528 0
v -80 -528 0
v -32 -576 0
v -48 -576 0
v -48 -560 0
v -32 -560 0
v -80 -576 0
v -96 -576 0
v -96 -560 0
v -80 -560 0
v -192 -736 0
v -208 -736 0
v -208 -720 0
v -192 -720 0
v -208 -736 0
v -224 -736 0
v -224 -720 0
v -208 -720 0
v -224 -736 0
v -240 -736 0
v -240 -720 0
v -224 -720 0
v -240 -736 0
v -256 -736 0
v -256 -720 0
v -240 -720 0
v -256 -736 0
v -272 -736 0
v -272 -720 0
v -256 -720 0
v -192 -752 0
v -208 -752 0
v -208 -736 0
v -192 -736 0
v -208 -752 0
v -224 -752 0
v -224 -736 0
v -208 -736 0
v -224 -752 0
v -240 -752 0
v -240 -736 0
v -224 -736 0
v -240 -752 0
v -256 -752 0
v -256 -736 0
v -240 -736 0
v -256 -752 0
v -272 -752 0
v -272 -736 0
v -256 -736 0
v -192 -768 0
v -208 -768 0
v -208 -752 0
v -192 -752 0
v -208 -768 0
v -224 -768 0
v -224 -752 0
v -208 -752 0
v -224 -768 0
v -240 -768 0
v -240 -752 0
v -224 -752 0
v -240 -768 0
v -256 -768 0
v -256 -752 0
v -240 -752 0
v -256 -768 0
v -272 -768 0
v -272 -752 0
v -256 -752 0
v -192 -784 0
v -208 -784 0
v -208 -768 0
v -192 -768 0
v -240 -784 0
v -256 -784 0
v -256 -768 0
v -240 -768 0
v 0 -944 0
v -16 -944 0
v -16 -928 0
v 0 -928 0
v -16 -944 0
v -32 -944 0
v -32 -928 0
v -16 -928 0
v -32 -944 0
v -48 -944 0
v -48 -928 0
v -32 -928 0
v -48 -944 0
v -64 -944 0
v -64 -928 0
v -48 -928 0
v -64 -944 0
v -80 -944 0
v -80 -928 0
v -64 -928 0
v 0 -960 0
v -16 -960 0
v -16 -944 0
v 0 -944 0
v -16 -960 0
v -32 -960 0
v -32 -944 0
v -16 -944 0
v -32 -960 0
v -48 -960 0
v -48 -944 0
v -32 -944 0
v -48 -960 0
v -64 -960 0
v -64 -944 0
v -48 -944 0
v -64 -960 0
v -80 -960 0
v -80 -944 0
v -64 -944 0
v 0 -976 0
v -16 -976 0
v -16 -960 0
v 0 -960 0
v -16 -976 0
v -32 -976 0
v -32 -960 0
v -16 -960 0
v -32 -976 0
v -48 -976 0
v -48 -960 0
v -32 -960 0
v -48 -976 0
v -64 -976 0
v -64 -960 0
v -48 -960 0
v -64 -976 0
v -80 -976 0
v -80 -960 0
v -64 -960 0
v 0 -992 0
v -16 -992 0
v -16 -976 0
v 0 -976 0
v -48 -992 0
v -64 -992 0
v -64 -976 0
v -48 -976 0
v -64 -1024 0
v -80 -1024 0
v -80 -1008 0
v -64 -1008 0
v -80 -1024 0
v -96 -1024 0
v -96 -1008 0
v -80 -1008 0
v -96 -1024 0
v -112 -1024 0
v -112 -1008 0
v -96 -1008 0
v -112 -1024 0
v -128 -1024 0
v -128 -1008 0
v -112 -1008 0
v -176 -1024 0
v -192 -1024 0
v -192 -1008 0
v -176 -1008 0
v -192 -1024 0
v -208 -1024 0
v -208 -1008 0
v -192 -1008 0
v -208 -1024 0
v -224 -1024 0
v -224 -1008 0
v -208 -1008 0
v -224 -1024 0
v -240 -1024 0
v -240 -1008 0
v -224 -1008 0
v -240 -1024 0
v -256 -1024 0
v -256 -1008 0
v -240 -1008 0
v -64 -1040 0
v -80 -1040 0
v -80 -1024 0
v -64 -1024 0
v -80 -1040 0
v -96 -1040 0
v -96 -1024 0
v -80 -1024 0
v -96 -1040 0
v -112 -1040 0
v -112 -1024 0
v -96 -1024 0
v -112 -1040 0
v -128 -1040 0
v -128 -1024 0
v -112 -1024 0
v -176 -1040 0
v -192 -1040 0
v -192 -1024 0
v -176 -1024 0
v -192 -1040 0
v -208 -1040 0
v -208 -1024 0
v -192 -1024 0
v -208 -1040 0
v -224 -1040 0
v -224 -1024 0
v -208 -1024 0
v -224 -1040 0
v -240 -1040 0
v -240 -1024 0
v -224 -1024 0
v -240 -1040 0
v -256 -1040 0
v -256 -1024 0
v -240 -1024 0
v -176 -1056 0
v -192 -1056 0
v -192 -1040 0
v -176 -1040 0
v -192 -1056 0
v -208 -1056 0
v -208 -1040 0
v -192 -1040 0
v -208 -1056 0
v -224 -1056 0
v -224 -1040 0
v -208 -1040 0
v -224 -1056 0
v -240 -1056 0
v -240 -1040 0
v -224 -1040 0
v -240 -1056 0
v -256 -1056 0
v -256 -1040 0
v -240 -1040 0
v -64 -1072 0
v -80 -1072 0
v -80 -1056 0
v -64 -1056 0
v -112 -1072 0
v -128 -1072 0
v -128 -1056 0
v -112 -1056 0
v -176 -1072 0
v -192 -1072 0
v -192 -1056 0
v -176 -1056 0
v -224 -1072 0
v -240 -1072 0
v -240 -1056 0
v -224 -1056 0

# Texture cooridinates (Count = 108)
vt 0.2914095 0.1667888
vt 0.3119715 0.1667888
vt 0.3119715 0.1943223
vt 0.2914095 0.1943223
vt 0.3122157 0.1667888
vt 0.3327778 0.1667888
vt 0.3327778 0.1943223
vt 0.3122157 0.1943223
vt 0.3330219 0.1667888
vt 0.3535841 0.1667888
vt 0.3535841 0.1943223
vt 0.3330219 0.1943223
vt 0.3538282 0.1667888
vt 0.3743903 0.1667888
vt 0.3743903 0.1943223
vt 0.3538282 0.1943223
vt 0.3746344 0.1667888
vt 0.3951965 0.1667888
vt 0.3951965 0.1943223
vt 0.3746344 0.1943223
vt 0.2914095 0.139011
vt 0.3119715 0.139011
vt 0.3119715 0.1665446
vt 0.2914095 0.1665446
vt 0.3122157 0.139011
vt 0.3327778 0.139011
vt 0.3327778 0.1665446
vt 0.3122157 0.1665446
vt 0.3330219 0.139011
vt 0.3535841 0.139011
vt 0.3535841 0.1665446
vt 0.3330219 0.1665446
vt 0.3538282 0.139011
vt 0.3743903 0.139011
vt 0.3743903 0.1665446
vt 0.3538282 0.1665446
vt 0.3746344 0.139011
vt 0.3951965 0.139011
vt 0.3951965 0.1665446
vt 0.3746344 0.1665446
vt 0.2914095 0.1112332
vt 0.3119715 0.1112332
vt 0.3119715 0.1387668
vt 0.2914095 0.1387668
vt 0.3122157 0.1112332
vt 0.3327778 0.1112332
vt 0.3327778 0.1387668
vt 0.3122157 0.1387668
vt 0.3330219 0.1112332
vt 0.3535841 0.1112332
vt 0.3535841 0.1387668
vt 0.3330219 0.1387668
vt 0.3538282 0.1112332
vt 0.3743903 0.1112332
vt 0.3743903 0.1387668
vt 0.3538282 0.1387668
vt 0.3746344 0.1112332
vt 0.3951965 0.1112332
vt 0.3951965 0.1387668
vt 0.3746344 0.1387668
vt 0.0001220703 0.08345538
vt 0.02068417 0.08345538
vt 0.02068417 0.110989
vt 0.0001220703 0.110989
vt 0.02092831 0.08345538
vt 0.04149041 0.08345538
vt 0.04149041 0.110989
vt 0.02092831 0.110989
vt 0.04173455 0.08345538
vt 0.06229666 0.08345538
vt 0.06229666 0.110989
vt 0.04173455 0.110989
vt 0.0625408 0.08345538
vt 0.0831029 0.08345538
vt 0.0831029 0.110989
vt 0.0625408 0.110989
vt 0.2914095 0.08345538
vt 0.3119715 0.08345538
vt 0.3119715 0.110989
vt 0.2914095 0.110989
vt 0.3538282 0.08345538
vt 0.3743903 0.08345538
vt 0.3743903 0.110989
vt 0.3538282 0.110989
vt 0.0001220703 0.05567765
vt 0.02068417 0.05567765
vt 0.02068417 0.08321124
vt 0.0001220703 0.08321124
vt 0.02092831 0.05567765
vt 0.04149041 0.05567765
vt 0.04149041 0.08321124
vt 0.02092831 0.08321124
vt 0.04173455 0.05567765
vt 0.06229666 0.05567765
vt 0.06229666 0.08321124
vt 0.04173455 0.08321124
vt 0.0625408 0.05567765
vt 0.0831029 0.05567765
vt 0.0831029 0.08321124
vt 0.0625408 0.08321124
vt 0.0001220703 0.0001220703
vt 0.02068417 0.0001220703
vt 0.02068417 0.02765572
vt 0.0001220703 0.02765572
vt 0.0625408 0.0001220703
vt 0.0831029 0.0001220703
vt 0.0831029 0.02765572
vt 0.0625408 0.02765572

# Normal
vn 0 0 -1

# Mesh description
g DBPkarsadatogmall_mesh_0003

# Faces
f 1/1/1 2/2/1 3/3/1 4/4/1
f 5/5/1 6/6/1 7/7/1 8/8/1
f 9/9/1 10/10/1 11/11/1 12/12/1
f 13/13/1 14/14/1 15/15/1 16/16/1
f 17/17/1 18/18/1 19/19/1 20/20/1
f 21/21/1 22/22/1 23/23/1 24/24/1
f 25/25/1 26/26/1 27/27/1 28/28/1
f 29/29/1 30/30/1 31/31/1 32/32/1
f 33/33/1 34/34/1 35/35/1 36/36/1
f 37/37/1 38/38/1 39/39/1 40/40/1
f 41/41/1 42/42/1 43/43/1 44/44/1
f 45/45/1 46/46/1 47/47/1 48/48/1
f 49/49/1 50/50/1 51/51/1 52/52/1
f 53/53/1 54/54/1 55/55/1 56/56/1
f 57/57/1 58/58/1 59/59/1 60/60/1
f 61/61/1 62/62/1 63/63/1 64/64/1
f 65/65/1 66/66/1 67/67/1 68/68/1
f 69/69/1 70/70/1 71/71/1 72/72/1
f 73/73/1 74/74/1 75/75/1 76/76/1
f 77/77/1 78/78/1 79/79/1 80/80/1
f 81/81/1 82/82/1 83/83/1 84/84/1
f 85/85/1 86/86/1 87/87/1 88/88/1
f 89/89/1 90/90/1 91/91/1 92/92/1
f 93/93/1 94/94/1 95/95/1 96/96/1
f 97/97/1 98/98/1 99/99/1 100/100/1
f 101/101/1 102/102/1 103/103/1 104/104/1
f 105/105/1 106/106/1 107/107/1 108/108/1
f 109/1/1 110/2/1 111/3/1 112/4/1
f 113/5/1 114/6/1 115/7/1 116/8/1
f 117/9/1 118/10/1 119/11/1 120/12/1
f 121/13/1 122/14/1 123/15/1 124/16/1
f 125/17/1 126/18/1 127/19/1 128/20/1
f 129/1/1 130/2/1 131/3/1 132/4/1
f 133/5/1 134/6/1 135/7/1 136/8/1
f 137/9/1 138/10/1 139/11/1 140/12/1
f 141/13/1 142/14/1 143/15/1 144/16/1
f 145/17/1 146/18/1 147/19/1 148/20/1
f 149/21/1 150/22/1 151/23/1 152/24/1
f 153/25/1 154/26/1 155/27/1 156/28/1
f 157/29/1 158/30/1 159/31/1 160/32/1
f 161/33/1 162/34/1 163/35/1 164/36/1
f 165/37/1 166/38/1 167/39/1 168/40/1
f 169/21/1 170/22/1 171/23/1 172/24/1
f 173/25/1 174/26/1 175/27/1 176/28/1
f 177/29/1 178/30/1 179/31/1 180/32/1
f 181/33/1 182/34/1 183/35/1 184/36/1
f 185/37/1 186/38/1 187/39/1 188/40/1
f 189/41/1 190/42/1 191/43/1 192/44/1
f 193/45/1 194/46/1 195/47/1 196/48/1
f 197/49/1 198/50/1 199/51/1 200/52/1
f 201/53/1 202/54/1 203/55/1 204/56/1
f 205/57/1 206/58/1 207/59/1 208/60/1
f 209/41/1 210/42/1 211/43/1 212/44/1
f 213/45/1 214/46/1 215/47/1 216/48/1
f 217/49/1 218/50/1 219/51/1 220/52/1
f 221/53/1 222/54/1 223/55/1 224/56/1
f 225/57/1 226/58/1 227/59/1 228/60/1
f 229/77/1 230/78/1 231/79/1 232/80/1
f 233/81/1 234/82/1 235/83/1 236/84/1
f 237/77/1 238/78/1 239/79/1 240/80/1
f 241/81/1 242/82/1 243/83/1 244/84/1
f 245/1/1 246/2/1 247/3/1 248/4/1
f 249/5/1 250/6/1 251/7/1 252/8/1
f 253/9/1 254/10/1 255/11/1 256/12/1
f 257/13/1 258/14/1 259/15/1 260/16/1
f 261/17/1 262/18/1 263/19/1 264/20/1
f 265/21/1 266/22/1 267/23/1 268/24/1
f 269/25/1 270/26/1 271/27/1 272/28/1
f 273/29/1 274/30/1 275/31/1 276/32/1
f 277/33/1 278/34/1 279/35/1 280/36/1
f 281/37/1 282/38/1 283/39/1 284/40/1
f 285/41/1 286/42/1 287/43/1 288/44/1
f 289/45/1 290/46/1 291/47/1 292/48/1
f 293/49/1 294/50/1 295/51/1 296/52/1
f 297/53/1 298/54/1 299/55/1 300/56/1
f 301/61/1 302/62/1 303/63/1 304/64/1
f 305/65/1 306/66/1 307/67/1 308/68/1
f 309/69/1 310/70/1 311/71/1 312/72/1
f 313/73/1 314/74/1 315/75/1 316/76/1
f 317/77/1 318/78/1 319/79/1 320/80/1
f 321/81/1 322/82/1 323/83/1 324/84/1
f 325/85/1 326/86/1 327/87/1 328/88/1
f 329/89/1 330/90/1 331/91/1 332/92/1
f 333/93/1 334/94/1 335/95/1 336/96/1
f 337/97/1 338/98/1 339/99/1 340/100/1
f 341/101/1 342/102/1 343/103/1 344/104/1
f 345/105/1 346/106/1 347/107/1 348/108/1
f 349/61/1 350/62/1 351/63/1 352/64/1
f 353/65/1 354/66/1 355/67/1 356/68/1
f 357/69/1 358/70/1 359/71/1 360/72/1
f 361/73/1 362/74/1 363/75/1 364/76/1
f 365/85/1 366/86/1 367/87/1 368/88/1
f 369/89/1 370/90/1 371/91/1 372/92/1
f 373/93/1 374/94/1 375/95/1 376/96/1
f 377/97/1 378/98/1 379/99/1 380/100/1
f 381/101/1 382/102/1 383/103/1 384/104/1
f 385/105/1 386/106/1 387/107/1 388/108/1
f 389/1/1 390/2/1 391/3/1 392/4/1
f 393/5/1 394/6/1 395/7/1 396/8/1
f 397/9/1 398/10/1 399/11/1 400/12/1
f 401/13/1 402/14/1 403/15/1 404/16/1
f 405/17/1 406/18/1 407/19/1 408/20/1
f 409/21/1 410/22/1 411/23/1 412/24/1
f 413/25/1 414/26/1 415/27/1 416/28/1
f 417/29/1 418/30/1 419/31/1 420/32/1
f 421/33/1 422/34/1 423/35/1 424/36/1
f 425/37/1 426/38/1 427/39/1 428/40/1
f 429/41/1 430/42/1 431/43/1 432/44/1
f 433/45/1 434/46/1 435/47/1 436/48/1
f 437/49/1 438/50/1 439/51/1 440/52/1
f 441/53/1 442/54/1 443/55/1 444/56/1
f 445/57/1 446/58/1 447/59/1 448/60/1
f 449/77/1 450/78/1 451/79/1 452/80/1
f 453/81/1 454/82/1 455/83/1 456/84/1
f 457/1/1 458/2/1 459/3/1 460/4/1
f 461/5/1 462/6/1 463/7/1 464/8/1
f 465/9/1 466/10/1 467/11/1 468/12/1
f 469/13/1 470/14/1 471/15/1 472/16/1
f 473/17/1 474/18/1 475/19/1 476/20/1
f 477/21/1 478/22/1 479/23/1 480/24/1
f 481/25/1 482/26/1 483/27/1 484/28/1
f 485/29/1 486/30/1 487/31/1 488/32/1
f 489/33/1 490/34/1 491/35/1 492/36/1
f 493/37/1 494/38/1 495/39/1 496/40/1
f 497/41/1 498/42/1 499/43/1 500/44/1
f 501/45/1 502/46/1 503/47/1 504/48/1
f 505/49/1 506/50/1 507/51/1 508/52/1
f 509/53/1 510/54/1 511/55/1 512/56/1
f 513/57/1 514/58/1 515/59/1 516/60/1
f 517/77/1 518/78/1 519/79/1 520/80/1
f 521/81/1 522/82/1 523/83/1 524/84/1
f 525/61/1 526/62/1 527/63/1 528/64/1
f 529/65/1 530/66/1 531/67/1 532/68/1
f 533/69/1 534/70/1 535/71/1 536/72/1
f 537/73/1 538/74/1 539/75/1 540/76/1
f 541/1/1 542/2/1 543/3/1 544/4/1
f 545/5/1 546/6/1 547/7/1 548/8/1
f 549/9/1 550/10/1 551/11/1 552/12/1
f 553/13/1 554/14/1 555/15/1 556/16/1
f 557/17/1 558/18/1 559/19/1 560/20/1
f 561/85/1 562/86/1 563/87/1 564/88/1
f 565/89/1 566/90/1 567/91/1 568/92/1
f 569/93/1 570/94/1 571/95/1 572/96/1
f 573/97/1 574/98/1 575/99/1 576/100/1
f 577/21/1 578/22/1 579/23/1 580/24/1
f 581/25/1 582/26/1 583/27/1 584/28/1
f 585/29/1 586/30/1 587/31/1 588/32/1
f 589/33/1 590/34/1 591/35/1 592/36/1
f 593/37/1 594/38/1 595/39/1 596/40/1
f 597/41/1 598/42/1 599/43/1 600/44/1
f 601/45/1 602/46/1 603/47/1 604/48/1
f 605/49/1 606/50/1 607/51/1 608/52/1
f 609/53/1 610/54/1 611/55/1 612/56/1
f 613/57/1 614/58/1 615/59/1 616/60/1
f 617/101/1 618/102/1 619/103/1 620/104/1
f 621/105/1 622/106/1 623/107/1 624/108/1
f 625/77/1 626/78/1 627/79/1 628/80/1
f 629/81/1 630/82/1 631/83/1 632/84/1

