# Tiled2Unity generated file. Do not modify by hand.
# Wavefront file for 'DBPkarsadatogmall_mesh_0002.obj'

# Vertices (Count = 648)
v 0 -1 0
v -1 -1 0
v -1 0 0
v 0 0 0
v -1 -1 0
v -2 -1 0
v -2 0 0
v -1 0 0
v -2 -1 0
v -3 -1 0
v -3 0 0
v -2 0 0
v -5 -1 0
v -6 -1 0
v -6 0 0
v -5 0 0
v -6 -1 0
v -7 -1 0
v -7 0 0
v -6 0 0
v -10 -1 0
v -11 -1 0
v -11 0 0
v -10 0 0
v -11 -1 0
v -12 -1 0
v -12 0 0
v -11 0 0
v -12 -1 0
v -13 -1 0
v -13 0 0
v -12 0 0
v -13 -1 0
v -14 -1 0
v -14 0 0
v -13 0 0
v -14 -1 0
v -15 -1 0
v -15 0 0
v -14 0 0
v -15 -1 0
v -16 -1 0
v -16 0 0
v -15 0 0
v -16 -1 0
v -17 -1 0
v -17 0 0
v -16 0 0
v -17 -1 0
v -18 -1 0
v -18 0 0
v -17 0 0
v 0 -2 0
v -1 -2 0
v -1 -1 0
v 0 -1 0
v -1 -2 0
v -2 -2 0
v -2 -1 0
v -1 -1 0
v -2 -2 0
v -3 -2 0
v -3 -1 0
v -2 -1 0
v -3 -2 0
v -4 -2 0
v -4 -1 0
v -3 -1 0
v -4 -2 0
v -5 -2 0
v -5 -1 0
v -4 -1 0
v -5 -2 0
v -6 -2 0
v -6 -1 0
v -5 -1 0
v -17 -2 0
v -18 -2 0
v -18 -1 0
v -17 -1 0
v 0 -3 0
v -1 -3 0
v -1 -2 0
v 0 -2 0
v -17 -3 0
v -18 -3 0
v -18 -2 0
v -17 -2 0
v 0 -4 0
v -1 -4 0
v -1 -3 0
v 0 -3 0
v -17 -4 0
v -18 -4 0
v -18 -3 0
v -17 -3 0
v 0 -5 0
v -1 -5 0
v -1 -4 0
v 0 -4 0
v -17 -5 0
v -18 -5 0
v -18 -4 0
v -17 -4 0
v 0 -6 0
v -1 -6 0
v -1 -5 0
v 0 -5 0
v -17 -6 0
v -18 -6 0
v -18 -5 0
v -17 -5 0
v 0 -7 0
v -1 -7 0
v -1 -6 0
v 0 -6 0
v -11 -7 0
v -12 -7 0
v -12 -6 0
v -11 -6 0
v -12 -7 0
v -13 -7 0
v -13 -6 0
v -12 -6 0
v -17 -7 0
v -18 -7 0
v -18 -6 0
v -17 -6 0
v 0 -8 0
v -1 -8 0
v -1 -7 0
v 0 -7 0
v -17 -8 0
v -18 -8 0
v -18 -7 0
v -17 -7 0
v 0 -9 0
v -1 -9 0
v -1 -8 0
v 0 -8 0
v -17 -9 0
v -18 -9 0
v -18 -8 0
v -17 -8 0
v -5 -10 0
v -6 -10 0
v -6 -9 0
v -5 -9 0
v -6 -10 0
v -7 -10 0
v -7 -9 0
v -6 -9 0
v -17 -10 0
v -18 -10 0
v -18 -9 0
v -17 -9 0
v -17 -11 0
v -18 -11 0
v -18 -10 0
v -17 -10 0
v -17 -12 0
v -18 -12 0
v -18 -11 0
v -17 -11 0
v 0 -13 0
v -1 -13 0
v -1 -12 0
v 0 -12 0
v -17 -13 0
v -18 -13 0
v -18 -12 0
v -17 -12 0
v 0 -14 0
v -1 -14 0
v -1 -13 0
v 0 -13 0
v 0 -15 0
v -1 -15 0
v -1 -14 0
v 0 -14 0
v 0 -16 0
v -1 -16 0
v -1 -15 0
v 0 -15 0
v 0 -17 0
v -1 -17 0
v -1 -16 0
v 0 -16 0
v 0 -18 0
v -1 -18 0
v -1 -17 0
v 0 -17 0
v -17 -18 0
v -18 -18 0
v -18 -17 0
v -17 -17 0
v 0 -19 0
v -1 -19 0
v -1 -18 0
v 0 -18 0
v -17 -19 0
v -18 -19 0
v -18 -18 0
v -17 -18 0
v 0 -20 0
v -1 -20 0
v -1 -19 0
v 0 -19 0
v -17 -20 0
v -18 -20 0
v -18 -19 0
v -17 -19 0
v 0 -21 0
v -1 -21 0
v -1 -20 0
v 0 -20 0
v -17 -21 0
v -18 -21 0
v -18 -20 0
v -17 -20 0
v 0 -22 0
v -1 -22 0
v -1 -21 0
v 0 -21 0
v -17 -22 0
v -18 -22 0
v -18 -21 0
v -17 -21 0
v 0 -23 0
v -1 -23 0
v -1 -22 0
v 0 -22 0
v -17 -23 0
v -18 -23 0
v -18 -22 0
v -17 -22 0
v 0 -24 0
v -1 -24 0
v -1 -23 0
v 0 -23 0
v -17 -24 0
v -18 -24 0
v -18 -23 0
v -17 -23 0
v 0 -25 0
v -1 -25 0
v -1 -24 0
v 0 -24 0
v -3 -25 0
v -4 -25 0
v -4 -24 0
v -3 -24 0
v -4 -25 0
v -5 -25 0
v -5 -24 0
v -4 -24 0
v -13 -25 0
v -14 -25 0
v -14 -24 0
v -13 -24 0
v -14 -25 0
v -15 -25 0
v -15 -24 0
v -14 -24 0
v -17 -25 0
v -18 -25 0
v -18 -24 0
v -17 -24 0
v 0 -26 0
v -1 -26 0
v -1 -25 0
v 0 -25 0
v -17 -26 0
v -18 -26 0
v -18 -25 0
v -17 -25 0
v -17 -27 0
v -18 -27 0
v -18 -26 0
v -17 -26 0
v -17 -28 0
v -18 -28 0
v -18 -27 0
v -17 -27 0
v -17 -29 0
v -18 -29 0
v -18 -28 0
v -17 -28 0
v 0 -30 0
v -1 -30 0
v -1 -29 0
v 0 -29 0
v -10 -30 0
v -11 -30 0
v -11 -29 0
v -10 -29 0
v -11 -30 0
v -12 -30 0
v -12 -29 0
v -11 -29 0
v -17 -30 0
v -18 -30 0
v -18 -29 0
v -17 -29 0
v 0 -31 0
v -1 -31 0
v -1 -30 0
v 0 -30 0
v -17 -31 0
v -18 -31 0
v -18 -30 0
v -17 -30 0
v 0 -32 0
v -1 -32 0
v -1 -31 0
v 0 -31 0
v -14 -32 0
v -15 -32 0
v -15 -31 0
v -14 -31 0
v -15 -32 0
v -16 -32 0
v -16 -31 0
v -15 -31 0
v -17 -32 0
v -18 -32 0
v -18 -31 0
v -17 -31 0
v 0 -33 0
v -1 -33 0
v -1 -32 0
v 0 -32 0
v 0 -34 0
v -1 -34 0
v -1 -33 0
v 0 -33 0
v 0 -35 0
v -1 -35 0
v -1 -34 0
v 0 -34 0
v 0 -36 0
v -1 -36 0
v -1 -35 0
v 0 -35 0
v -3 -36 0
v -4 -36 0
v -4 -35 0
v -3 -35 0
v -4 -36 0
v -5 -36 0
v -5 -35 0
v -4 -35 0
v 0 -37 0
v -1 -37 0
v -1 -36 0
v 0 -36 0
v 0 -38 0
v -1 -38 0
v -1 -37 0
v 0 -37 0
v -17 -38 0
v -18 -38 0
v -18 -37 0
v -17 -37 0
v 0 -39 0
v -1 -39 0
v -1 -38 0
v 0 -38 0
v -17 -39 0
v -18 -39 0
v -18 -38 0
v -17 -38 0
v 0 -40 0
v -1 -40 0
v -1 -39 0
v 0 -39 0
v -17 -40 0
v -18 -40 0
v -18 -39 0
v -17 -39 0
v 0 -41 0
v -1 -41 0
v -1 -40 0
v 0 -40 0
v 0 -42 0
v -1 -42 0
v -1 -41 0
v 0 -41 0
v 0 -43 0
v -1 -43 0
v -1 -42 0
v 0 -42 0
v -4 -43 0
v -5 -43 0
v -5 -42 0
v -4 -42 0
v -5 -43 0
v -6 -43 0
v -6 -42 0
v -5 -42 0
v -1 -44 0
v -2 -44 0
v -2 -43 0
v -1 -43 0
v -4 -44 0
v -5 -44 0
v -5 -43 0
v -4 -43 0
v -5 -44 0
v -6 -44 0
v -6 -43 0
v -5 -43 0
v -17 -44 0
v -18 -44 0
v -18 -43 0
v -17 -43 0
v -17 -45 0
v -18 -45 0
v -18 -44 0
v -17 -44 0
v -17 -46 0
v -18 -46 0
v -18 -45 0
v -17 -45 0
v -17 -47 0
v -18 -47 0
v -18 -46 0
v -17 -46 0
v -17 -48 0
v -18 -48 0
v -18 -47 0
v -17 -47 0
v -13 -49 0
v -14 -49 0
v -14 -48 0
v -13 -48 0
v -14 -49 0
v -15 -49 0
v -15 -48 0
v -14 -48 0
v -17 -49 0
v -18 -49 0
v -18 -48 0
v -17 -48 0
v 0 -50 0
v -1 -50 0
v -1 -49 0
v 0 -49 0
v -17 -50 0
v -18 -50 0
v -18 -49 0
v -17 -49 0
v 0 -51 0
v -1 -51 0
v -1 -50 0
v 0 -50 0
v 0 -52 0
v -1 -52 0
v -1 -51 0
v 0 -51 0
v 0 -53 0
v -1 -53 0
v -1 -52 0
v 0 -52 0
v 0 -54 0
v -1 -54 0
v -1 -53 0
v 0 -53 0
v -11 -54 0
v -12 -54 0
v -12 -53 0
v -11 -53 0
v -12 -54 0
v -13 -54 0
v -13 -53 0
v -12 -53 0
v 0 -55 0
v -1 -55 0
v -1 -54 0
v 0 -54 0
v -11 -55 0
v -12 -55 0
v -12 -54 0
v -11 -54 0
v -12 -55 0
v -13 -55 0
v -13 -54 0
v -12 -54 0
v 0 -56 0
v -1 -56 0
v -1 -55 0
v 0 -55 0
v 0 -57 0
v -1 -57 0
v -1 -56 0
v 0 -56 0
v 0 -58 0
v -1 -58 0
v -1 -57 0
v 0 -57 0
v -17 -58 0
v -18 -58 0
v -18 -57 0
v -17 -57 0
v 0 -59 0
v -1 -59 0
v -1 -58 0
v 0 -58 0
v -17 -59 0
v -18 -59 0
v -18 -58 0
v -17 -58 0
v 0 -60 0
v -1 -60 0
v -1 -59 0
v 0 -59 0
v -17 -60 0
v -18 -60 0
v -18 -59 0
v -17 -59 0
v 0 -61 0
v -1 -61 0
v -1 -60 0
v 0 -60 0
v -17 -61 0
v -18 -61 0
v -18 -60 0
v -17 -60 0
v 0 -62 0
v -1 -62 0
v -1 -61 0
v 0 -61 0
v -1 -62 0
v -2 -62 0
v -2 -61 0
v -1 -61 0
v -2 -62 0
v -3 -62 0
v -3 -61 0
v -2 -61 0
v -17 -62 0
v -18 -62 0
v -18 -61 0
v -17 -61 0
v 0 -63 0
v -1 -63 0
v -1 -62 0
v 0 -62 0
v -17 -63 0
v -18 -63 0
v -18 -62 0
v -17 -62 0
v 0 -64 0
v -1 -64 0
v -1 -63 0
v 0 -63 0
v 0 -65 0
v -1 -65 0
v -1 -64 0
v 0 -64 0
v 0 -66 0
v -1 -66 0
v -1 -65 0
v 0 -65 0
v 0 -67 0
v -1 -67 0
v -1 -66 0
v 0 -66 0
v -5 -67 0
v -6 -67 0
v -6 -66 0
v -5 -66 0
v -6 -67 0
v -7 -67 0
v -7 -66 0
v -6 -66 0
v -12 -67 0
v -13 -67 0
v -13 -66 0
v -12 -66 0
v -13 -67 0
v -14 -67 0
v -14 -66 0
v -13 -66 0
v 0 -68 0
v -1 -68 0
v -1 -67 0
v 0 -67 0
v 0 -69 0
v -1 -69 0
v -1 -68 0
v 0 -68 0
v -17 -69 0
v -18 -69 0
v -18 -68 0
v -17 -68 0
v 0 -70 0
v -1 -70 0
v -1 -69 0
v 0 -69 0
v -1 -70 0
v -2 -70 0
v -2 -69 0
v -1 -69 0
v -2 -70 0
v -3 -70 0
v -3 -69 0
v -2 -69 0
v -3 -70 0
v -4 -70 0
v -4 -69 0
v -3 -69 0
v -4 -70 0
v -5 -70 0
v -5 -69 0
v -4 -69 0
v -5 -70 0
v -6 -70 0
v -6 -69 0
v -5 -69 0
v -6 -70 0
v -7 -70 0
v -7 -69 0
v -6 -69 0
v -12 -70 0
v -13 -70 0
v -13 -69 0
v -12 -69 0
v -13 -70 0
v -14 -70 0
v -14 -69 0
v -13 -69 0
v -14 -70 0
v -15 -70 0
v -15 -69 0
v -14 -69 0
v -15 -70 0
v -16 -70 0
v -16 -69 0
v -15 -69 0
v -16 -70 0
v -17 -70 0
v -17 -69 0
v -16 -69 0
v -17 -70 0
v -18 -70 0
v -18 -69 0
v -17 -69 0

# Texture cooridinates (Count = 36)
vt 0.04173455 0.5834554
vt 0.06229666 0.5834554
vt 0.06229666 0.610989
vt 0.04173455 0.610989
vt 0.3122157 0.08345538
vt 0.3327778 0.08345538
vt 0.3327778 0.110989
vt 0.3122157 0.110989
vt 0.3330219 0.08345538
vt 0.3535841 0.08345538
vt 0.3535841 0.110989
vt 0.3330219 0.110989
vt 0.02092831 0.0001220703
vt 0.04149041 0.0001220703
vt 0.04149041 0.02765572
vt 0.02092831 0.02765572
vt 0.04173455 0.0001220703
vt 0.06229666 0.0001220703
vt 0.06229666 0.02765572
vt 0.04173455 0.02765572
vt 0.6451156 0.889011
vt 0.6656777 0.889011
vt 0.6656777 0.9165446
vt 0.6451156 0.9165446
vt 0.6659218 0.889011
vt 0.6864839 0.889011
vt 0.6864839 0.9165446
vt 0.6659218 0.9165446
vt 0.6451156 0.8612332
vt 0.6656777 0.8612332
vt 0.6656777 0.8887668
vt 0.6451156 0.8887668
vt 0.6659218 0.8612332
vt 0.6864839 0.8612332
vt 0.6864839 0.8887668
vt 0.6659218 0.8887668

# Normal
vn 0 0 -1

# Mesh description
g DBPkarsadatogmall_mesh_0002

# Faces
f 1/1/1 2/2/1 3/3/1 4/4/1
f 5/1/1 6/2/1 7/3/1 8/4/1
f 9/1/1 10/2/1 11/3/1 12/4/1
f 13/1/1 14/2/1 15/3/1 16/4/1
f 17/1/1 18/2/1 19/3/1 20/4/1
f 21/1/1 22/2/1 23/3/1 24/4/1
f 25/1/1 26/2/1 27/3/1 28/4/1
f 29/1/1 30/2/1 31/3/1 32/4/1
f 33/1/1 34/2/1 35/3/1 36/4/1
f 37/1/1 38/2/1 39/3/1 40/4/1
f 41/1/1 42/2/1 43/3/1 44/4/1
f 45/1/1 46/2/1 47/3/1 48/4/1
f 49/1/1 50/2/1 51/3/1 52/4/1
f 53/1/1 54/2/1 55/3/1 56/4/1
f 57/1/1 58/2/1 59/3/1 60/4/1
f 61/1/1 62/2/1 63/3/1 64/4/1
f 65/1/1 66/2/1 67/3/1 68/4/1
f 69/1/1 70/2/1 71/3/1 72/4/1
f 73/1/1 74/2/1 75/3/1 76/4/1
f 77/1/1 78/2/1 79/3/1 80/4/1
f 81/1/1 82/2/1 83/3/1 84/4/1
f 85/1/1 86/2/1 87/3/1 88/4/1
f 89/1/1 90/2/1 91/3/1 92/4/1
f 93/1/1 94/2/1 95/3/1 96/4/1
f 97/1/1 98/2/1 99/3/1 100/4/1
f 101/1/1 102/2/1 103/3/1 104/4/1
f 105/1/1 106/2/1 107/3/1 108/4/1
f 109/1/1 110/2/1 111/3/1 112/4/1
f 113/1/1 114/2/1 115/3/1 116/4/1
f 117/5/1 118/6/1 119/7/1 120/8/1
f 121/9/1 122/10/1 123/11/1 124/12/1
f 125/1/1 126/2/1 127/3/1 128/4/1
f 129/1/1 130/2/1 131/3/1 132/4/1
f 133/1/1 134/2/1 135/3/1 136/4/1
f 137/1/1 138/2/1 139/3/1 140/4/1
f 141/1/1 142/2/1 143/3/1 144/4/1
f 145/13/1 146/14/1 147/15/1 148/16/1
f 149/17/1 150/18/1 151/19/1 152/20/1
f 153/1/1 154/2/1 155/3/1 156/4/1
f 157/1/1 158/2/1 159/3/1 160/4/1
f 161/1/1 162/2/1 163/3/1 164/4/1
f 165/1/1 166/2/1 167/3/1 168/4/1
f 169/1/1 170/2/1 171/3/1 172/4/1
f 173/1/1 174/2/1 175/3/1 176/4/1
f 177/1/1 178/2/1 179/3/1 180/4/1
f 181/1/1 182/2/1 183/3/1 184/4/1
f 185/1/1 186/2/1 187/3/1 188/4/1
f 189/1/1 190/2/1 191/3/1 192/4/1
f 193/1/1 194/2/1 195/3/1 196/4/1
f 197/1/1 198/2/1 199/3/1 200/4/1
f 201/1/1 202/2/1 203/3/1 204/4/1
f 205/1/1 206/2/1 207/3/1 208/4/1
f 209/1/1 210/2/1 211/3/1 212/4/1
f 213/1/1 214/2/1 215/3/1 216/4/1
f 217/1/1 218/2/1 219/3/1 220/4/1
f 221/1/1 222/2/1 223/3/1 224/4/1
f 225/1/1 226/2/1 227/3/1 228/4/1
f 229/1/1 230/2/1 231/3/1 232/4/1
f 233/1/1 234/2/1 235/3/1 236/4/1
f 237/1/1 238/2/1 239/3/1 240/4/1
f 241/1/1 242/2/1 243/3/1 244/4/1
f 245/1/1 246/2/1 247/3/1 248/4/1
f 249/5/1 250/6/1 251/7/1 252/8/1
f 253/9/1 254/10/1 255/11/1 256/12/1
f 257/5/1 258/6/1 259/7/1 260/8/1
f 261/9/1 262/10/1 263/11/1 264/12/1
f 265/1/1 266/2/1 267/3/1 268/4/1
f 269/1/1 270/2/1 271/3/1 272/4/1
f 273/1/1 274/2/1 275/3/1 276/4/1
f 277/1/1 278/2/1 279/3/1 280/4/1
f 281/1/1 282/2/1 283/3/1 284/4/1
f 285/1/1 286/2/1 287/3/1 288/4/1
f 289/1/1 290/2/1 291/3/1 292/4/1
f 293/5/1 294/6/1 295/7/1 296/8/1
f 297/9/1 298/10/1 299/11/1 300/12/1
f 301/1/1 302/2/1 303/3/1 304/4/1
f 305/1/1 306/2/1 307/3/1 308/4/1
f 309/1/1 310/2/1 311/3/1 312/4/1
f 313/1/1 314/2/1 315/3/1 316/4/1
f 317/13/1 318/14/1 319/15/1 320/16/1
f 321/17/1 322/18/1 323/19/1 324/20/1
f 325/1/1 326/2/1 327/3/1 328/4/1
f 329/1/1 330/2/1 331/3/1 332/4/1
f 333/1/1 334/2/1 335/3/1 336/4/1
f 337/1/1 338/2/1 339/3/1 340/4/1
f 341/1/1 342/2/1 343/3/1 344/4/1
f 345/13/1 346/14/1 347/15/1 348/16/1
f 349/17/1 350/18/1 351/19/1 352/20/1
f 353/1/1 354/2/1 355/3/1 356/4/1
f 357/1/1 358/2/1 359/3/1 360/4/1
f 361/1/1 362/2/1 363/3/1 364/4/1
f 365/1/1 366/2/1 367/3/1 368/4/1
f 369/1/1 370/2/1 371/3/1 372/4/1
f 373/1/1 374/2/1 375/3/1 376/4/1
f 377/1/1 378/2/1 379/3/1 380/4/1
f 381/1/1 382/2/1 383/3/1 384/4/1
f 385/1/1 386/2/1 387/3/1 388/4/1
f 389/1/1 390/2/1 391/3/1 392/4/1
f 393/21/1 394/22/1 395/23/1 396/24/1
f 397/25/1 398/26/1 399/27/1 400/28/1
f 401/1/1 402/2/1 403/3/1 404/4/1
f 405/29/1 406/30/1 407/31/1 408/32/1
f 409/33/1 410/34/1 411/35/1 412/36/1
f 413/1/1 414/2/1 415/3/1 416/4/1
f 417/1/1 418/2/1 419/3/1 420/4/1
f 421/1/1 422/2/1 423/3/1 424/4/1
f 425/1/1 426/2/1 427/3/1 428/4/1
f 429/1/1 430/2/1 431/3/1 432/4/1
f 433/5/1 434/6/1 435/7/1 436/8/1
f 437/9/1 438/10/1 439/11/1 440/12/1
f 441/1/1 442/2/1 443/3/1 444/4/1
f 445/1/1 446/2/1 447/3/1 448/4/1
f 449/1/1 450/2/1 451/3/1 452/4/1
f 453/1/1 454/2/1 455/3/1 456/4/1
f 457/1/1 458/2/1 459/3/1 460/4/1
f 461/1/1 462/2/1 463/3/1 464/4/1
f 465/1/1 466/2/1 467/3/1 468/4/1
f 469/21/1 470/22/1 471/23/1 472/24/1
f 473/25/1 474/26/1 475/27/1 476/28/1
f 477/1/1 478/2/1 479/3/1 480/4/1
f 481/29/1 482/30/1 483/31/1 484/32/1
f 485/33/1 486/34/1 487/35/1 488/36/1
f 489/1/1 490/2/1 491/3/1 492/4/1
f 493/1/1 494/2/1 495/3/1 496/4/1
f 497/1/1 498/2/1 499/3/1 500/4/1
f 501/1/1 502/2/1 503/3/1 504/4/1
f 505/1/1 506/2/1 507/3/1 508/4/1
f 509/1/1 510/2/1 511/3/1 512/4/1
f 513/1/1 514/2/1 515/3/1 516/4/1
f 517/1/1 518/2/1 519/3/1 520/4/1
f 521/1/1 522/2/1 523/3/1 524/4/1
f 525/1/1 526/2/1 527/3/1 528/4/1
f 529/1/1 530/2/1 531/3/1 532/4/1
f 533/5/1 534/6/1 535/7/1 536/8/1
f 537/9/1 538/10/1 539/11/1 540/12/1
f 541/1/1 542/2/1 543/3/1 544/4/1
f 545/1/1 546/2/1 547/3/1 548/4/1
f 549/1/1 550/2/1 551/3/1 552/4/1
f 553/1/1 554/2/1 555/3/1 556/4/1
f 557/1/1 558/2/1 559/3/1 560/4/1
f 561/1/1 562/2/1 563/3/1 564/4/1
f 565/1/1 566/2/1 567/3/1 568/4/1
f 569/13/1 570/14/1 571/15/1 572/16/1
f 573/17/1 574/18/1 575/19/1 576/20/1
f 577/5/1 578/6/1 579/7/1 580/8/1
f 581/9/1 582/10/1 583/11/1 584/12/1
f 585/1/1 586/2/1 587/3/1 588/4/1
f 589/1/1 590/2/1 591/3/1 592/4/1
f 593/1/1 594/2/1 595/3/1 596/4/1
f 597/1/1 598/2/1 599/3/1 600/4/1
f 601/1/1 602/2/1 603/3/1 604/4/1
f 605/1/1 606/2/1 607/3/1 608/4/1
f 609/1/1 610/2/1 611/3/1 612/4/1
f 613/1/1 614/2/1 615/3/1 616/4/1
f 617/1/1 618/2/1 619/3/1 620/4/1
f 621/1/1 622/2/1 623/3/1 624/4/1
f 625/1/1 626/2/1 627/3/1 628/4/1
f 629/1/1 630/2/1 631/3/1 632/4/1
f 633/1/1 634/2/1 635/3/1 636/4/1
f 637/1/1 638/2/1 639/3/1 640/4/1
f 641/1/1 642/2/1 643/3/1 644/4/1
f 645/1/1 646/2/1 647/3/1 648/4/1

