# Tiled2Unity generated file. Do not modify by hand.
# Wavefront file for 'TaasOngYiuRight_mesh_0006.obj'

# Vertices (Count = 968)
v -2 -4 0
v -3 -4 0
v -3 -3 0
v -2 -3 0
v -1 -4 0
v -2 -4 0
v -2 -3 0
v -1 -3 0
v 0 -4 0
v -1 -4 0
v -1 -3 0
v 0 -3 0
v -2 -5 0
v -3 -5 0
v -3 -4 0
v -2 -4 0
v -1 -5 0
v -2 -5 0
v -2 -4 0
v -1 -4 0
v 0 -5 0
v -1 -5 0
v -1 -4 0
v 0 -4 0
v -6 -6 0
v -7 -6 0
v -7 -5 0
v -6 -5 0
v -5 -6 0
v -6 -6 0
v -6 -5 0
v -5 -5 0
v -4 -6 0
v -5 -6 0
v -5 -5 0
v -4 -5 0
v -3 -6 0
v -4 -6 0
v -4 -5 0
v -3 -5 0
v -6 -7 0
v -7 -7 0
v -7 -6 0
v -6 -6 0
v -5 -7 0
v -6 -7 0
v -6 -6 0
v -5 -6 0
v -4 -7 0
v -5 -7 0
v -5 -6 0
v -4 -6 0
v -3 -7 0
v -4 -7 0
v -4 -6 0
v -3 -6 0
v -33 -8 0
v -34 -8 0
v -34 -7 0
v -33 -7 0
v -32 -8 0
v -33 -8 0
v -33 -7 0
v -32 -7 0
v -31 -8 0
v -32 -8 0
v -32 -7 0
v -31 -7 0
v -30 -8 0
v -31 -8 0
v -31 -7 0
v -30 -7 0
v -33 -9 0
v -34 -9 0
v -34 -8 0
v -33 -8 0
v -32 -9 0
v -33 -9 0
v -33 -8 0
v -32 -8 0
v -31 -9 0
v -32 -9 0
v -32 -8 0
v -31 -8 0
v -30 -9 0
v -31 -9 0
v -31 -8 0
v -30 -8 0
v -24 -11 0
v -25 -11 0
v -25 -10 0
v -24 -10 0
v -23 -11 0
v -24 -11 0
v -24 -10 0
v -23 -10 0
v -22 -11 0
v -23 -11 0
v -23 -10 0
v -22 -10 0
v -21 -11 0
v -22 -11 0
v -22 -10 0
v -21 -10 0
v -24 -12 0
v -25 -12 0
v -25 -11 0
v -24 -11 0
v -23 -12 0
v -24 -12 0
v -24 -11 0
v -23 -11 0
v -22 -12 0
v -23 -12 0
v -23 -11 0
v -22 -11 0
v -21 -12 0
v -22 -12 0
v -22 -11 0
v -21 -11 0
v -62 -16 0
v -63 -16 0
v -63 -15 0
v -62 -15 0
v -61 -16 0
v -62 -16 0
v -62 -15 0
v -61 -15 0
v -60 -16 0
v -61 -16 0
v -61 -15 0
v -60 -15 0
v -59 -16 0
v -60 -16 0
v -60 -15 0
v -59 -15 0
v -62 -17 0
v -63 -17 0
v -63 -16 0
v -62 -16 0
v -61 -17 0
v -62 -17 0
v -62 -16 0
v -61 -16 0
v -60 -17 0
v -61 -17 0
v -61 -16 0
v -60 -16 0
v -59 -17 0
v -60 -17 0
v -60 -16 0
v -59 -16 0
v -56 -17 0
v -57 -17 0
v -57 -16 0
v -56 -16 0
v -55 -17 0
v -56 -17 0
v -56 -16 0
v -55 -16 0
v -54 -17 0
v -55 -17 0
v -55 -16 0
v -54 -16 0
v -53 -17 0
v -54 -17 0
v -54 -16 0
v -53 -16 0
v -43 -17 0
v -44 -17 0
v -44 -16 0
v -43 -16 0
v -42 -17 0
v -43 -17 0
v -43 -16 0
v -42 -16 0
v -56 -18 0
v -57 -18 0
v -57 -17 0
v -56 -17 0
v -55 -18 0
v -56 -18 0
v -56 -17 0
v -55 -17 0
v -54 -18 0
v -55 -18 0
v -55 -17 0
v -54 -17 0
v -53 -18 0
v -54 -18 0
v -54 -17 0
v -53 -17 0
v -43 -18 0
v -44 -18 0
v -44 -17 0
v -43 -17 0
v -42 -18 0
v -43 -18 0
v -43 -17 0
v -42 -17 0
v -42 -19 0
v -43 -19 0
v -43 -18 0
v -42 -18 0
v -41 -19 0
v -42 -19 0
v -42 -18 0
v -41 -18 0
v -44 -20 0
v -45 -20 0
v -45 -19 0
v -44 -19 0
v -43 -20 0
v -44 -20 0
v -44 -19 0
v -43 -19 0
v -42 -20 0
v -43 -20 0
v -43 -19 0
v -42 -19 0
v -41 -20 0
v -42 -20 0
v -42 -19 0
v -41 -19 0
v -60 -21 0
v -61 -21 0
v -61 -20 0
v -60 -20 0
v -59 -21 0
v -60 -21 0
v -60 -20 0
v -59 -20 0
v -58 -21 0
v -59 -21 0
v -59 -20 0
v -58 -20 0
v -57 -21 0
v -58 -21 0
v -58 -20 0
v -57 -20 0
v -44 -21 0
v -45 -21 0
v -45 -20 0
v -44 -20 0
v -43 -21 0
v -44 -21 0
v -44 -20 0
v -43 -20 0
v -60 -22 0
v -61 -22 0
v -61 -21 0
v -60 -21 0
v -59 -22 0
v -60 -22 0
v -60 -21 0
v -59 -21 0
v -58 -22 0
v -59 -22 0
v -59 -21 0
v -58 -21 0
v -57 -22 0
v -58 -22 0
v -58 -21 0
v -57 -21 0
v -10 -22 0
v -11 -22 0
v -11 -21 0
v -10 -21 0
v -9 -22 0
v -10 -22 0
v -10 -21 0
v -9 -21 0
v -8 -22 0
v -9 -22 0
v -9 -21 0
v -8 -21 0
v -7 -22 0
v -8 -22 0
v -8 -21 0
v -7 -21 0
v -14 -23 0
v -15 -23 0
v -15 -22 0
v -14 -22 0
v -13 -23 0
v -14 -23 0
v -14 -22 0
v -13 -22 0
v -12 -23 0
v -13 -23 0
v -13 -22 0
v -12 -22 0
v -11 -23 0
v -12 -23 0
v -12 -22 0
v -11 -22 0
v -10 -23 0
v -11 -23 0
v -11 -22 0
v -10 -22 0
v -9 -23 0
v -10 -23 0
v -10 -22 0
v -9 -22 0
v -8 -23 0
v -9 -23 0
v -9 -22 0
v -8 -22 0
v -7 -23 0
v -8 -23 0
v -8 -22 0
v -7 -22 0
v -14 -24 0
v -15 -24 0
v -15 -23 0
v -14 -23 0
v -13 -24 0
v -14 -24 0
v -14 -23 0
v -13 -23 0
v -12 -24 0
v -13 -24 0
v -13 -23 0
v -12 -23 0
v -11 -24 0
v -12 -24 0
v -12 -23 0
v -11 -23 0
v -5 -25 0
v -6 -25 0
v -6 -24 0
v -5 -24 0
v -4 -25 0
v -5 -25 0
v -5 -24 0
v -4 -24 0
v -3 -25 0
v -4 -25 0
v -4 -24 0
v -3 -24 0
v -2 -25 0
v -3 -25 0
v -3 -24 0
v -2 -24 0
v -44 -26 0
v -45 -26 0
v -45 -25 0
v -44 -25 0
v -43 -26 0
v -44 -26 0
v -44 -25 0
v -43 -25 0
v -42 -26 0
v -43 -26 0
v -43 -25 0
v -42 -25 0
v -41 -26 0
v -42 -26 0
v -42 -25 0
v -41 -25 0
v -30 -26 0
v -31 -26 0
v -31 -25 0
v -30 -25 0
v -29 -26 0
v -30 -26 0
v -30 -25 0
v -29 -25 0
v -5 -26 0
v -6 -26 0
v -6 -25 0
v -5 -25 0
v -4 -26 0
v -5 -26 0
v -5 -25 0
v -4 -25 0
v -3 -26 0
v -4 -26 0
v -4 -25 0
v -3 -25 0
v -2 -26 0
v -3 -26 0
v -3 -25 0
v -2 -25 0
v -44 -27 0
v -45 -27 0
v -45 -26 0
v -44 -26 0
v -43 -27 0
v -44 -27 0
v -44 -26 0
v -43 -26 0
v -42 -27 0
v -43 -27 0
v -43 -26 0
v -42 -26 0
v -41 -27 0
v -42 -27 0
v -42 -26 0
v -41 -26 0
v -30 -27 0
v -31 -27 0
v -31 -26 0
v -30 -26 0
v -29 -27 0
v -30 -27 0
v -30 -26 0
v -29 -26 0
v -28 -27 0
v -29 -27 0
v -29 -26 0
v -28 -26 0
v -27 -27 0
v -28 -27 0
v -28 -26 0
v -27 -26 0
v -26 -27 0
v -27 -27 0
v -27 -26 0
v -26 -26 0
v -25 -27 0
v -26 -27 0
v -26 -26 0
v -25 -26 0
v -28 -28 0
v -29 -28 0
v -29 -27 0
v -28 -27 0
v -27 -28 0
v -28 -28 0
v -28 -27 0
v -27 -27 0
v -26 -28 0
v -27 -28 0
v -27 -27 0
v -26 -27 0
v -25 -28 0
v -26 -28 0
v -26 -27 0
v -25 -27 0
v -42 -29 0
v -43 -29 0
v -43 -28 0
v -42 -28 0
v -41 -29 0
v -42 -29 0
v -42 -28 0
v -41 -28 0
v -40 -29 0
v -41 -29 0
v -41 -28 0
v -40 -28 0
v -39 -29 0
v -40 -29 0
v -40 -28 0
v -39 -28 0
v -29 -29 0
v -30 -29 0
v -30 -28 0
v -29 -28 0
v -28 -29 0
v -29 -29 0
v -29 -28 0
v -28 -28 0
v -42 -30 0
v -43 -30 0
v -43 -29 0
v -42 -29 0
v -41 -30 0
v -42 -30 0
v -42 -29 0
v -41 -29 0
v -40 -30 0
v -41 -30 0
v -41 -29 0
v -40 -29 0
v -39 -30 0
v -40 -30 0
v -40 -29 0
v -39 -29 0
v -29 -30 0
v -30 -30 0
v -30 -29 0
v -29 -29 0
v -28 -30 0
v -29 -30 0
v -29 -29 0
v -28 -29 0
v -4 -32 0
v -5 -32 0
v -5 -31 0
v -4 -31 0
v -3 -32 0
v -4 -32 0
v -4 -31 0
v -3 -31 0
v -2 -32 0
v -3 -32 0
v -3 -31 0
v -2 -31 0
v -1 -32 0
v -2 -32 0
v -2 -31 0
v -1 -31 0
v -44 -33 0
v -45 -33 0
v -45 -32 0
v -44 -32 0
v -43 -33 0
v -44 -33 0
v -44 -32 0
v -43 -32 0
v -21 -33 0
v -22 -33 0
v -22 -32 0
v -21 -32 0
v -20 -33 0
v -21 -33 0
v -21 -32 0
v -20 -32 0
v -19 -33 0
v -20 -33 0
v -20 -32 0
v -19 -32 0
v -18 -33 0
v -19 -33 0
v -19 -32 0
v -18 -32 0
v -4 -33 0
v -5 -33 0
v -5 -32 0
v -4 -32 0
v -3 -33 0
v -4 -33 0
v -4 -32 0
v -3 -32 0
v -2 -33 0
v -3 -33 0
v -3 -32 0
v -2 -32 0
v -1 -33 0
v -2 -33 0
v -2 -32 0
v -1 -32 0
v -44 -34 0
v -45 -34 0
v -45 -33 0
v -44 -33 0
v -43 -34 0
v -44 -34 0
v -44 -33 0
v -43 -33 0
v -21 -34 0
v -22 -34 0
v -22 -33 0
v -21 -33 0
v -20 -34 0
v -21 -34 0
v -21 -33 0
v -20 -33 0
v -19 -34 0
v -20 -34 0
v -20 -33 0
v -19 -33 0
v -18 -34 0
v -19 -34 0
v -19 -33 0
v -18 -33 0
v -57 -35 0
v -58 -35 0
v -58 -34 0
v -57 -34 0
v -56 -35 0
v -57 -35 0
v -57 -34 0
v -56 -34 0
v -55 -35 0
v -56 -35 0
v -56 -34 0
v -55 -34 0
v -54 -35 0
v -55 -35 0
v -55 -34 0
v -54 -34 0
v -45 -35 0
v -46 -35 0
v -46 -34 0
v -45 -34 0
v -44 -35 0
v -45 -35 0
v -45 -34 0
v -44 -34 0
v -17 -35 0
v -18 -35 0
v -18 -34 0
v -17 -34 0
v -16 -35 0
v -17 -35 0
v -17 -34 0
v -16 -34 0
v -15 -35 0
v -16 -35 0
v -16 -34 0
v -15 -34 0
v -14 -35 0
v -15 -35 0
v -15 -34 0
v -14 -34 0
v -57 -36 0
v -58 -36 0
v -58 -35 0
v -57 -35 0
v -56 -36 0
v -57 -36 0
v -57 -35 0
v -56 -35 0
v -55 -36 0
v -56 -36 0
v -56 -35 0
v -55 -35 0
v -54 -36 0
v -55 -36 0
v -55 -35 0
v -54 -35 0
v -45 -36 0
v -46 -36 0
v -46 -35 0
v -45 -35 0
v -44 -36 0
v -45 -36 0
v -45 -35 0
v -44 -35 0
v -29 -36 0
v -30 -36 0
v -30 -35 0
v -29 -35 0
v -28 -36 0
v -29 -36 0
v -29 -35 0
v -28 -35 0
v -27 -36 0
v -28 -36 0
v -28 -35 0
v -27 -35 0
v -26 -36 0
v -27 -36 0
v -27 -35 0
v -26 -35 0
v -17 -36 0
v -18 -36 0
v -18 -35 0
v -17 -35 0
v -16 -36 0
v -17 -36 0
v -17 -35 0
v -16 -35 0
v -15 -36 0
v -16 -36 0
v -16 -35 0
v -15 -35 0
v -14 -36 0
v -15 -36 0
v -15 -35 0
v -14 -35 0
v -29 -37 0
v -30 -37 0
v -30 -36 0
v -29 -36 0
v -28 -37 0
v -29 -37 0
v -29 -36 0
v -28 -36 0
v -27 -37 0
v -28 -37 0
v -28 -36 0
v -27 -36 0
v -26 -37 0
v -27 -37 0
v -27 -36 0
v -26 -36 0
v -23 -39 0
v -24 -39 0
v -24 -38 0
v -23 -38 0
v -22 -39 0
v -23 -39 0
v -23 -38 0
v -22 -38 0
v -21 -39 0
v -22 -39 0
v -22 -38 0
v -21 -38 0
v -20 -39 0
v -21 -39 0
v -21 -38 0
v -20 -38 0
v -23 -40 0
v -24 -40 0
v -24 -39 0
v -23 -39 0
v -22 -40 0
v -23 -40 0
v -23 -39 0
v -22 -39 0
v -21 -40 0
v -22 -40 0
v -22 -39 0
v -21 -39 0
v -20 -40 0
v -21 -40 0
v -21 -39 0
v -20 -39 0
v -34 -52 0
v -35 -52 0
v -35 -51 0
v -34 -51 0
v -33 -52 0
v -34 -52 0
v -34 -51 0
v -33 -51 0
v -32 -52 0
v -33 -52 0
v -33 -51 0
v -32 -51 0
v -31 -52 0
v -32 -52 0
v -32 -51 0
v -31 -51 0
v -57 -53 0
v -58 -53 0
v -58 -52 0
v -57 -52 0
v -56 -53 0
v -57 -53 0
v -57 -52 0
v -56 -52 0
v -55 -53 0
v -56 -53 0
v -56 -52 0
v -55 -52 0
v -54 -53 0
v -55 -53 0
v -55 -52 0
v -54 -52 0
v -34 -53 0
v -35 -53 0
v -35 -52 0
v -34 -52 0
v -33 -53 0
v -34 -53 0
v -34 -52 0
v -33 -52 0
v -32 -53 0
v -33 -53 0
v -33 -52 0
v -32 -52 0
v -31 -53 0
v -32 -53 0
v -32 -52 0
v -31 -52 0
v -57 -54 0
v -58 -54 0
v -58 -53 0
v -57 -53 0
v -56 -54 0
v -57 -54 0
v -57 -53 0
v -56 -53 0
v -55 -54 0
v -56 -54 0
v -56 -53 0
v -55 -53 0
v -54 -54 0
v -55 -54 0
v -55 -53 0
v -54 -53 0
v -4 -56 0
v -5 -56 0
v -5 -55 0
v -4 -55 0
v -3 -56 0
v -4 -56 0
v -4 -55 0
v -3 -55 0
v -2 -56 0
v -3 -56 0
v -3 -55 0
v -2 -55 0
v -1 -56 0
v -2 -56 0
v -2 -55 0
v -1 -55 0
v -54 -57 0
v -55 -57 0
v -55 -56 0
v -54 -56 0
v -53 -57 0
v -54 -57 0
v -54 -56 0
v -53 -56 0
v -52 -57 0
v -53 -57 0
v -53 -56 0
v -52 -56 0
v -51 -57 0
v -52 -57 0
v -52 -56 0
v -51 -56 0
v -11 -57 0
v -12 -57 0
v -12 -56 0
v -11 -56 0
v -10 -57 0
v -11 -57 0
v -11 -56 0
v -10 -56 0
v -9 -57 0
v -10 -57 0
v -10 -56 0
v -9 -56 0
v -8 -57 0
v -9 -57 0
v -9 -56 0
v -8 -56 0
v -4 -57 0
v -5 -57 0
v -5 -56 0
v -4 -56 0
v -3 -57 0
v -4 -57 0
v -4 -56 0
v -3 -56 0
v -2 -57 0
v -3 -57 0
v -3 -56 0
v -2 -56 0
v -1 -57 0
v -2 -57 0
v -2 -56 0
v -1 -56 0
v -54 -58 0
v -55 -58 0
v -55 -57 0
v -54 -57 0
v -53 -58 0
v -54 -58 0
v -54 -57 0
v -53 -57 0
v -52 -58 0
v -53 -58 0
v -53 -57 0
v -52 -57 0
v -51 -58 0
v -52 -58 0
v -52 -57 0
v -51 -57 0
v -11 -58 0
v -12 -58 0
v -12 -57 0
v -11 -57 0
v -10 -58 0
v -11 -58 0
v -11 -57 0
v -10 -57 0
v -9 -58 0
v -10 -58 0
v -10 -57 0
v -9 -57 0
v -8 -58 0
v -9 -58 0
v -9 -57 0
v -8 -57 0
v -59 -59 0
v -60 -59 0
v -60 -58 0
v -59 -58 0
v -58 -59 0
v -59 -59 0
v -59 -58 0
v -58 -58 0
v -57 -59 0
v -58 -59 0
v -58 -58 0
v -57 -58 0
v -56 -59 0
v -57 -59 0
v -57 -58 0
v -56 -58 0
v -5 -59 0
v -6 -59 0
v -6 -58 0
v -5 -58 0
v -4 -59 0
v -5 -59 0
v -5 -58 0
v -4 -58 0
v -3 -59 0
v -4 -59 0
v -4 -58 0
v -3 -58 0
v -2 -59 0
v -3 -59 0
v -3 -58 0
v -2 -58 0
v -59 -60 0
v -60 -60 0
v -60 -59 0
v -59 -59 0
v -58 -60 0
v -59 -60 0
v -59 -59 0
v -58 -59 0
v -57 -60 0
v -58 -60 0
v -58 -59 0
v -57 -59 0
v -56 -60 0
v -57 -60 0
v -57 -59 0
v -56 -59 0
v -5 -60 0
v -6 -60 0
v -6 -59 0
v -5 -59 0
v -4 -60 0
v -5 -60 0
v -5 -59 0
v -4 -59 0
v -3 -60 0
v -4 -60 0
v -4 -59 0
v -3 -59 0
v -2 -60 0
v -3 -60 0
v -3 -59 0
v -2 -59 0
v -8 -61 0
v -9 -61 0
v -9 -60 0
v -8 -60 0
v -7 -61 0
v -8 -61 0
v -8 -60 0
v -7 -60 0
v -6 -61 0
v -7 -61 0
v -7 -60 0
v -6 -60 0
v -5 -61 0
v -6 -61 0
v -6 -60 0
v -5 -60 0
v -8 -62 0
v -9 -62 0
v -9 -61 0
v -8 -61 0
v -7 -62 0
v -8 -62 0
v -8 -61 0
v -7 -61 0
v -6 -62 0
v -7 -62 0
v -7 -61 0
v -6 -61 0
v -5 -62 0
v -6 -62 0
v -6 -61 0
v -5 -61 0

# Texture cooridinates (Count = 48)
vt 0.0625408 0.02789986
vt 0.0831029 0.02789986
vt 0.0831029 0.05543351
vt 0.0625408 0.05543351
vt 0.04173455 0.02789986
vt 0.06229666 0.02789986
vt 0.06229666 0.05543351
vt 0.04173455 0.05543351
vt 0.02092831 0.02789986
vt 0.04149041 0.02789986
vt 0.04149041 0.05543351
vt 0.02092831 0.05543351
vt 0.0625408 0.0001220703
vt 0.0831029 0.0001220703
vt 0.0831029 0.02765572
vt 0.0625408 0.02765572
vt 0.04173455 0.0001220703
vt 0.06229666 0.0001220703
vt 0.06229666 0.02765572
vt 0.04173455 0.02765572
vt 0.02092831 0.0001220703
vt 0.04149041 0.0001220703
vt 0.04149041 0.02765572
vt 0.02092831 0.02765572
vt 0.0001220703 0.02789986
vt 0.02068417 0.02789986
vt 0.02068417 0.05543351
vt 0.0001220703 0.05543351
vt 0.0001220703 0.0001220703
vt 0.02068417 0.0001220703
vt 0.02068417 0.02765572
vt 0.0001220703 0.02765572
vt 0.1249595 0.5278999
vt 0.1455216 0.5278999
vt 0.1455216 0.5554335
vt 0.1249595 0.5554335
vt 0.1041533 0.5278999
vt 0.1247154 0.5278999
vt 0.1247154 0.5554335
vt 0.1041533 0.5554335
vt 0.1249595 0.5001221
vt 0.1455216 0.5001221
vt 0.1455216 0.5276557
vt 0.1249595 0.5276557
vt 0.1041533 0.5001221
vt 0.1247154 0.5001221
vt 0.1247154 0.5276557
vt 0.1041533 0.5276557

# Normal
vn 0 0 -1

# Mesh description
g TaasOngYiuRight_mesh_0006

# Faces
f 1/1/1 2/2/1 3/3/1 4/4/1
f 5/5/1 6/6/1 7/7/1 8/8/1
f 9/9/1 10/10/1 11/11/1 12/12/1
f 13/13/1 14/14/1 15/15/1 16/16/1
f 17/17/1 18/18/1 19/19/1 20/20/1
f 21/21/1 22/22/1 23/23/1 24/24/1
f 25/1/1 26/2/1 27/3/1 28/4/1
f 29/5/1 30/6/1 31/7/1 32/8/1
f 33/9/1 34/10/1 35/11/1 36/12/1
f 37/25/1 38/26/1 39/27/1 40/28/1
f 41/13/1 42/14/1 43/15/1 44/16/1
f 45/17/1 46/18/1 47/19/1 48/20/1
f 49/21/1 50/22/1 51/23/1 52/24/1
f 53/29/1 54/30/1 55/31/1 56/32/1
f 57/1/1 58/2/1 59/3/1 60/4/1
f 61/5/1 62/6/1 63/7/1 64/8/1
f 65/9/1 66/10/1 67/11/1 68/12/1
f 69/25/1 70/26/1 71/27/1 72/28/1
f 73/13/1 74/14/1 75/15/1 76/16/1
f 77/17/1 78/18/1 79/19/1 80/20/1
f 81/21/1 82/22/1 83/23/1 84/24/1
f 85/29/1 86/30/1 87/31/1 88/32/1
f 89/1/1 90/2/1 91/3/1 92/4/1
f 93/5/1 94/6/1 95/7/1 96/8/1
f 97/9/1 98/10/1 99/11/1 100/12/1
f 101/25/1 102/26/1 103/27/1 104/28/1
f 105/13/1 106/14/1 107/15/1 108/16/1
f 109/17/1 110/18/1 111/19/1 112/20/1
f 113/21/1 114/22/1 115/23/1 116/24/1
f 117/29/1 118/30/1 119/31/1 120/32/1
f 121/1/1 122/2/1 123/3/1 124/4/1
f 125/5/1 126/6/1 127/7/1 128/8/1
f 129/9/1 130/10/1 131/11/1 132/12/1
f 133/25/1 134/26/1 135/27/1 136/28/1
f 137/13/1 138/14/1 139/15/1 140/16/1
f 141/17/1 142/18/1 143/19/1 144/20/1
f 145/21/1 146/22/1 147/23/1 148/24/1
f 149/29/1 150/30/1 151/31/1 152/32/1
f 153/1/1 154/2/1 155/3/1 156/4/1
f 157/5/1 158/6/1 159/7/1 160/8/1
f 161/9/1 162/10/1 163/11/1 164/12/1
f 165/25/1 166/26/1 167/27/1 168/28/1
f 169/33/1 170/34/1 171/35/1 172/36/1
f 173/37/1 174/38/1 175/39/1 176/40/1
f 177/13/1 178/14/1 179/15/1 180/16/1
f 181/17/1 182/18/1 183/19/1 184/20/1
f 185/21/1 186/22/1 187/23/1 188/24/1
f 189/29/1 190/30/1 191/31/1 192/32/1
f 193/41/1 194/42/1 195/43/1 196/44/1
f 197/45/1 198/46/1 199/47/1 200/48/1
f 201/33/1 202/34/1 203/35/1 204/36/1
f 205/37/1 206/38/1 207/39/1 208/40/1
f 209/33/1 210/34/1 211/35/1 212/36/1
f 213/37/1 214/38/1 215/39/1 216/40/1
f 217/41/1 218/42/1 219/43/1 220/44/1
f 221/45/1 222/46/1 223/47/1 224/48/1
f 225/1/1 226/2/1 227/3/1 228/4/1
f 229/5/1 230/6/1 231/7/1 232/8/1
f 233/9/1 234/10/1 235/11/1 236/12/1
f 237/25/1 238/26/1 239/27/1 240/28/1
f 241/41/1 242/42/1 243/43/1 244/44/1
f 245/45/1 246/46/1 247/47/1 248/48/1
f 249/13/1 250/14/1 251/15/1 252/16/1
f 253/17/1 254/18/1 255/19/1 256/20/1
f 257/21/1 258/22/1 259/23/1 260/24/1
f 261/29/1 262/30/1 263/31/1 264/32/1
f 265/1/1 266/2/1 267/3/1 268/4/1
f 269/5/1 270/6/1 271/7/1 272/8/1
f 273/9/1 274/10/1 275/11/1 276/12/1
f 277/25/1 278/26/1 279/27/1 280/28/1
f 281/1/1 282/2/1 283/3/1 284/4/1
f 285/5/1 286/6/1 287/7/1 288/8/1
f 289/9/1 290/10/1 291/11/1 292/12/1
f 293/25/1 294/26/1 295/27/1 296/28/1
f 297/13/1 298/14/1 299/15/1 300/16/1
f 301/17/1 302/18/1 303/19/1 304/20/1
f 305/21/1 306/22/1 307/23/1 308/24/1
f 309/29/1 310/30/1 311/31/1 312/32/1
f 313/13/1 314/14/1 315/15/1 316/16/1
f 317/17/1 318/18/1 319/19/1 320/20/1
f 321/21/1 322/22/1 323/23/1 324/24/1
f 325/29/1 326/30/1 327/31/1 328/32/1
f 329/1/1 330/2/1 331/3/1 332/4/1
f 333/5/1 334/6/1 335/7/1 336/8/1
f 337/9/1 338/10/1 339/11/1 340/12/1
f 341/25/1 342/26/1 343/27/1 344/28/1
f 345/1/1 346/2/1 347/3/1 348/4/1
f 349/5/1 350/6/1 351/7/1 352/8/1
f 353/9/1 354/10/1 355/11/1 356/12/1
f 357/25/1 358/26/1 359/27/1 360/28/1
f 361/33/1 362/34/1 363/35/1 364/36/1
f 365/37/1 366/38/1 367/39/1 368/40/1
f 369/13/1 370/14/1 371/15/1 372/16/1
f 373/17/1 374/18/1 375/19/1 376/20/1
f 377/21/1 378/22/1 379/23/1 380/24/1
f 381/29/1 382/30/1 383/31/1 384/32/1
f 385/13/1 386/14/1 387/15/1 388/16/1
f 389/17/1 390/18/1 391/19/1 392/20/1
f 393/21/1 394/22/1 395/23/1 396/24/1
f 397/29/1 398/30/1 399/31/1 400/32/1
f 401/41/1 402/42/1 403/43/1 404/44/1
f 405/45/1 406/46/1 407/47/1 408/48/1
f 409/1/1 410/2/1 411/3/1 412/4/1
f 413/5/1 414/6/1 415/7/1 416/8/1
f 417/9/1 418/10/1 419/11/1 420/12/1
f 421/25/1 422/26/1 423/27/1 424/28/1
f 425/13/1 426/14/1 427/15/1 428/16/1
f 429/17/1 430/18/1 431/19/1 432/20/1
f 433/21/1 434/22/1 435/23/1 436/24/1
f 437/29/1 438/30/1 439/31/1 440/32/1
f 441/1/1 442/2/1 443/3/1 444/4/1
f 445/5/1 446/6/1 447/7/1 448/8/1
f 449/9/1 450/10/1 451/11/1 452/12/1
f 453/25/1 454/26/1 455/27/1 456/28/1
f 457/33/1 458/34/1 459/35/1 460/36/1
f 461/37/1 462/38/1 463/39/1 464/40/1
f 465/13/1 466/14/1 467/15/1 468/16/1
f 469/17/1 470/18/1 471/19/1 472/20/1
f 473/21/1 474/22/1 475/23/1 476/24/1
f 477/29/1 478/30/1 479/31/1 480/32/1
f 481/41/1 482/42/1 483/43/1 484/44/1
f 485/45/1 486/46/1 487/47/1 488/48/1
f 489/1/1 490/2/1 491/3/1 492/4/1
f 493/5/1 494/6/1 495/7/1 496/8/1
f 497/9/1 498/10/1 499/11/1 500/12/1
f 501/25/1 502/26/1 503/27/1 504/28/1
f 505/33/1 506/34/1 507/35/1 508/36/1
f 509/37/1 510/38/1 511/39/1 512/40/1
f 513/1/1 514/2/1 515/3/1 516/4/1
f 517/5/1 518/6/1 519/7/1 520/8/1
f 521/9/1 522/10/1 523/11/1 524/12/1
f 525/25/1 526/26/1 527/27/1 528/28/1
f 529/13/1 530/14/1 531/15/1 532/16/1
f 533/17/1 534/18/1 535/19/1 536/20/1
f 537/21/1 538/22/1 539/23/1 540/24/1
f 541/29/1 542/30/1 543/31/1 544/32/1
f 545/41/1 546/42/1 547/43/1 548/44/1
f 549/45/1 550/46/1 551/47/1 552/48/1
f 553/13/1 554/14/1 555/15/1 556/16/1
f 557/17/1 558/18/1 559/19/1 560/20/1
f 561/21/1 562/22/1 563/23/1 564/24/1
f 565/29/1 566/30/1 567/31/1 568/32/1
f 569/1/1 570/2/1 571/3/1 572/4/1
f 573/5/1 574/6/1 575/7/1 576/8/1
f 577/9/1 578/10/1 579/11/1 580/12/1
f 581/25/1 582/26/1 583/27/1 584/28/1
f 585/33/1 586/34/1 587/35/1 588/36/1
f 589/37/1 590/38/1 591/39/1 592/40/1
f 593/1/1 594/2/1 595/3/1 596/4/1
f 597/5/1 598/6/1 599/7/1 600/8/1
f 601/9/1 602/10/1 603/11/1 604/12/1
f 605/25/1 606/26/1 607/27/1 608/28/1
f 609/13/1 610/14/1 611/15/1 612/16/1
f 613/17/1 614/18/1 615/19/1 616/20/1
f 617/21/1 618/22/1 619/23/1 620/24/1
f 621/29/1 622/30/1 623/31/1 624/32/1
f 625/41/1 626/42/1 627/43/1 628/44/1
f 629/45/1 630/46/1 631/47/1 632/48/1
f 633/1/1 634/2/1 635/3/1 636/4/1
f 637/5/1 638/6/1 639/7/1 640/8/1
f 641/9/1 642/10/1 643/11/1 644/12/1
f 645/25/1 646/26/1 647/27/1 648/28/1
f 649/13/1 650/14/1 651/15/1 652/16/1
f 653/17/1 654/18/1 655/19/1 656/20/1
f 657/21/1 658/22/1 659/23/1 660/24/1
f 661/29/1 662/30/1 663/31/1 664/32/1
f 665/13/1 666/14/1 667/15/1 668/16/1
f 669/17/1 670/18/1 671/19/1 672/20/1
f 673/21/1 674/22/1 675/23/1 676/24/1
f 677/29/1 678/30/1 679/31/1 680/32/1
f 681/1/1 682/2/1 683/3/1 684/4/1
f 685/5/1 686/6/1 687/7/1 688/8/1
f 689/9/1 690/10/1 691/11/1 692/12/1
f 693/25/1 694/26/1 695/27/1 696/28/1
f 697/13/1 698/14/1 699/15/1 700/16/1
f 701/17/1 702/18/1 703/19/1 704/20/1
f 705/21/1 706/22/1 707/23/1 708/24/1
f 709/29/1 710/30/1 711/31/1 712/32/1
f 713/1/1 714/2/1 715/3/1 716/4/1
f 717/5/1 718/6/1 719/7/1 720/8/1
f 721/9/1 722/10/1 723/11/1 724/12/1
f 725/25/1 726/26/1 727/27/1 728/28/1
f 729/1/1 730/2/1 731/3/1 732/4/1
f 733/5/1 734/6/1 735/7/1 736/8/1
f 737/9/1 738/10/1 739/11/1 740/12/1
f 741/25/1 742/26/1 743/27/1 744/28/1
f 745/13/1 746/14/1 747/15/1 748/16/1
f 749/17/1 750/18/1 751/19/1 752/20/1
f 753/21/1 754/22/1 755/23/1 756/24/1
f 757/29/1 758/30/1 759/31/1 760/32/1
f 761/13/1 762/14/1 763/15/1 764/16/1
f 765/17/1 766/18/1 767/19/1 768/20/1
f 769/21/1 770/22/1 771/23/1 772/24/1
f 773/29/1 774/30/1 775/31/1 776/32/1
f 777/1/1 778/2/1 779/3/1 780/4/1
f 781/5/1 782/6/1 783/7/1 784/8/1
f 785/9/1 786/10/1 787/11/1 788/12/1
f 789/25/1 790/26/1 791/27/1 792/28/1
f 793/1/1 794/2/1 795/3/1 796/4/1
f 797/5/1 798/6/1 799/7/1 800/8/1
f 801/9/1 802/10/1 803/11/1 804/12/1
f 805/25/1 806/26/1 807/27/1 808/28/1
f 809/1/1 810/2/1 811/3/1 812/4/1
f 813/5/1 814/6/1 815/7/1 816/8/1
f 817/9/1 818/10/1 819/11/1 820/12/1
f 821/25/1 822/26/1 823/27/1 824/28/1
f 825/13/1 826/14/1 827/15/1 828/16/1
f 829/17/1 830/18/1 831/19/1 832/20/1
f 833/21/1 834/22/1 835/23/1 836/24/1
f 837/29/1 838/30/1 839/31/1 840/32/1
f 841/13/1 842/14/1 843/15/1 844/16/1
f 845/17/1 846/18/1 847/19/1 848/20/1
f 849/21/1 850/22/1 851/23/1 852/24/1
f 853/29/1 854/30/1 855/31/1 856/32/1
f 857/13/1 858/14/1 859/15/1 860/16/1
f 861/17/1 862/18/1 863/19/1 864/20/1
f 865/21/1 866/22/1 867/23/1 868/24/1
f 869/29/1 870/30/1 871/31/1 872/32/1
f 873/1/1 874/2/1 875/3/1 876/4/1
f 877/5/1 878/6/1 879/7/1 880/8/1
f 881/9/1 882/10/1 883/11/1 884/12/1
f 885/25/1 886/26/1 887/27/1 888/28/1
f 889/1/1 890/2/1 891/3/1 892/4/1
f 893/5/1 894/6/1 895/7/1 896/8/1
f 897/9/1 898/10/1 899/11/1 900/12/1
f 901/25/1 902/26/1 903/27/1 904/28/1
f 905/13/1 906/14/1 907/15/1 908/16/1
f 909/17/1 910/18/1 911/19/1 912/20/1
f 913/21/1 914/22/1 915/23/1 916/24/1
f 917/29/1 918/30/1 919/31/1 920/32/1
f 921/13/1 922/14/1 923/15/1 924/16/1
f 925/17/1 926/18/1 927/19/1 928/20/1
f 929/21/1 930/22/1 931/23/1 932/24/1
f 933/29/1 934/30/1 935/31/1 936/32/1
f 937/1/1 938/2/1 939/3/1 940/4/1
f 941/5/1 942/6/1 943/7/1 944/8/1
f 945/9/1 946/10/1 947/11/1 948/12/1
f 949/25/1 950/26/1 951/27/1 952/28/1
f 953/13/1 954/14/1 955/15/1 956/16/1
f 957/17/1 958/18/1 959/19/1 960/20/1
f 961/21/1 962/22/1 963/23/1 964/24/1
f 965/29/1 966/30/1 967/31/1 968/32/1

