# Tiled2Unity generated file. Do not modify by hand.
# Wavefront file for 'TaasOngYiuRight_mesh_0010.obj'

# Vertices (Count = 856)
v -2 -2 0
v -3 -2 0
v -3 -1 0
v -2 -1 0
v -1 -2 0
v -2 -2 0
v -2 -1 0
v -1 -1 0
v 0 -2 0
v -1 -2 0
v -1 -1 0
v 0 -1 0
v -2 -3 0
v -3 -3 0
v -3 -2 0
v -2 -2 0
v -1 -3 0
v -2 -3 0
v -2 -2 0
v -1 -2 0
v 0 -3 0
v -1 -3 0
v -1 -2 0
v 0 -2 0
v -6 -4 0
v -7 -4 0
v -7 -3 0
v -6 -3 0
v -5 -4 0
v -6 -4 0
v -6 -3 0
v -5 -3 0
v -4 -4 0
v -5 -4 0
v -5 -3 0
v -4 -3 0
v -3 -4 0
v -4 -4 0
v -4 -3 0
v -3 -3 0
v -6 -5 0
v -7 -5 0
v -7 -4 0
v -6 -4 0
v -5 -5 0
v -6 -5 0
v -6 -4 0
v -5 -4 0
v -4 -5 0
v -5 -5 0
v -5 -4 0
v -4 -4 0
v -3 -5 0
v -4 -5 0
v -4 -4 0
v -3 -4 0
v -33 -6 0
v -34 -6 0
v -34 -5 0
v -33 -5 0
v -32 -6 0
v -33 -6 0
v -33 -5 0
v -32 -5 0
v -31 -6 0
v -32 -6 0
v -32 -5 0
v -31 -5 0
v -30 -6 0
v -31 -6 0
v -31 -5 0
v -30 -5 0
v -33 -7 0
v -34 -7 0
v -34 -6 0
v -33 -6 0
v -32 -7 0
v -33 -7 0
v -33 -6 0
v -32 -6 0
v -31 -7 0
v -32 -7 0
v -32 -6 0
v -31 -6 0
v -30 -7 0
v -31 -7 0
v -31 -6 0
v -30 -6 0
v -24 -9 0
v -25 -9 0
v -25 -8 0
v -24 -8 0
v -23 -9 0
v -24 -9 0
v -24 -8 0
v -23 -8 0
v -22 -9 0
v -23 -9 0
v -23 -8 0
v -22 -8 0
v -21 -9 0
v -22 -9 0
v -22 -8 0
v -21 -8 0
v -24 -10 0
v -25 -10 0
v -25 -9 0
v -24 -9 0
v -23 -10 0
v -24 -10 0
v -24 -9 0
v -23 -9 0
v -22 -10 0
v -23 -10 0
v -23 -9 0
v -22 -9 0
v -21 -10 0
v -22 -10 0
v -22 -9 0
v -21 -9 0
v -62 -14 0
v -63 -14 0
v -63 -13 0
v -62 -13 0
v -61 -14 0
v -62 -14 0
v -62 -13 0
v -61 -13 0
v -60 -14 0
v -61 -14 0
v -61 -13 0
v -60 -13 0
v -59 -14 0
v -60 -14 0
v -60 -13 0
v -59 -13 0
v -62 -15 0
v -63 -15 0
v -63 -14 0
v -62 -14 0
v -61 -15 0
v -62 -15 0
v -62 -14 0
v -61 -14 0
v -60 -15 0
v -61 -15 0
v -61 -14 0
v -60 -14 0
v -59 -15 0
v -60 -15 0
v -60 -14 0
v -59 -14 0
v -56 -15 0
v -57 -15 0
v -57 -14 0
v -56 -14 0
v -55 -15 0
v -56 -15 0
v -56 -14 0
v -55 -14 0
v -54 -15 0
v -55 -15 0
v -55 -14 0
v -54 -14 0
v -53 -15 0
v -54 -15 0
v -54 -14 0
v -53 -14 0
v -56 -16 0
v -57 -16 0
v -57 -15 0
v -56 -15 0
v -55 -16 0
v -56 -16 0
v -56 -15 0
v -55 -15 0
v -54 -16 0
v -55 -16 0
v -55 -15 0
v -54 -15 0
v -53 -16 0
v -54 -16 0
v -54 -15 0
v -53 -15 0
v -60 -19 0
v -61 -19 0
v -61 -18 0
v -60 -18 0
v -59 -19 0
v -60 -19 0
v -60 -18 0
v -59 -18 0
v -58 -19 0
v -59 -19 0
v -59 -18 0
v -58 -18 0
v -57 -19 0
v -58 -19 0
v -58 -18 0
v -57 -18 0
v -60 -20 0
v -61 -20 0
v -61 -19 0
v -60 -19 0
v -59 -20 0
v -60 -20 0
v -60 -19 0
v -59 -19 0
v -58 -20 0
v -59 -20 0
v -59 -19 0
v -58 -19 0
v -57 -20 0
v -58 -20 0
v -58 -19 0
v -57 -19 0
v -10 -20 0
v -11 -20 0
v -11 -19 0
v -10 -19 0
v -9 -20 0
v -10 -20 0
v -10 -19 0
v -9 -19 0
v -8 -20 0
v -9 -20 0
v -9 -19 0
v -8 -19 0
v -7 -20 0
v -8 -20 0
v -8 -19 0
v -7 -19 0
v -14 -21 0
v -15 -21 0
v -15 -20 0
v -14 -20 0
v -13 -21 0
v -14 -21 0
v -14 -20 0
v -13 -20 0
v -12 -21 0
v -13 -21 0
v -13 -20 0
v -12 -20 0
v -11 -21 0
v -12 -21 0
v -12 -20 0
v -11 -20 0
v -10 -21 0
v -11 -21 0
v -11 -20 0
v -10 -20 0
v -9 -21 0
v -10 -21 0
v -10 -20 0
v -9 -20 0
v -8 -21 0
v -9 -21 0
v -9 -20 0
v -8 -20 0
v -7 -21 0
v -8 -21 0
v -8 -20 0
v -7 -20 0
v -14 -22 0
v -15 -22 0
v -15 -21 0
v -14 -21 0
v -13 -22 0
v -14 -22 0
v -14 -21 0
v -13 -21 0
v -12 -22 0
v -13 -22 0
v -13 -21 0
v -12 -21 0
v -11 -22 0
v -12 -22 0
v -12 -21 0
v -11 -21 0
v -5 -23 0
v -6 -23 0
v -6 -22 0
v -5 -22 0
v -4 -23 0
v -5 -23 0
v -5 -22 0
v -4 -22 0
v -3 -23 0
v -4 -23 0
v -4 -22 0
v -3 -22 0
v -2 -23 0
v -3 -23 0
v -3 -22 0
v -2 -22 0
v -44 -24 0
v -45 -24 0
v -45 -23 0
v -44 -23 0
v -43 -24 0
v -44 -24 0
v -44 -23 0
v -43 -23 0
v -42 -24 0
v -43 -24 0
v -43 -23 0
v -42 -23 0
v -41 -24 0
v -42 -24 0
v -42 -23 0
v -41 -23 0
v -5 -24 0
v -6 -24 0
v -6 -23 0
v -5 -23 0
v -4 -24 0
v -5 -24 0
v -5 -23 0
v -4 -23 0
v -3 -24 0
v -4 -24 0
v -4 -23 0
v -3 -23 0
v -2 -24 0
v -3 -24 0
v -3 -23 0
v -2 -23 0
v -44 -25 0
v -45 -25 0
v -45 -24 0
v -44 -24 0
v -43 -25 0
v -44 -25 0
v -44 -24 0
v -43 -24 0
v -42 -25 0
v -43 -25 0
v -43 -24 0
v -42 -24 0
v -41 -25 0
v -42 -25 0
v -42 -24 0
v -41 -24 0
v -28 -25 0
v -29 -25 0
v -29 -24 0
v -28 -24 0
v -27 -25 0
v -28 -25 0
v -28 -24 0
v -27 -24 0
v -26 -25 0
v -27 -25 0
v -27 -24 0
v -26 -24 0
v -25 -25 0
v -26 -25 0
v -26 -24 0
v -25 -24 0
v -28 -26 0
v -29 -26 0
v -29 -25 0
v -28 -25 0
v -27 -26 0
v -28 -26 0
v -28 -25 0
v -27 -25 0
v -26 -26 0
v -27 -26 0
v -27 -25 0
v -26 -25 0
v -25 -26 0
v -26 -26 0
v -26 -25 0
v -25 -25 0
v -42 -27 0
v -43 -27 0
v -43 -26 0
v -42 -26 0
v -41 -27 0
v -42 -27 0
v -42 -26 0
v -41 -26 0
v -40 -27 0
v -41 -27 0
v -41 -26 0
v -40 -26 0
v -39 -27 0
v -40 -27 0
v -40 -26 0
v -39 -26 0
v -42 -28 0
v -43 -28 0
v -43 -27 0
v -42 -27 0
v -41 -28 0
v -42 -28 0
v -42 -27 0
v -41 -27 0
v -40 -28 0
v -41 -28 0
v -41 -27 0
v -40 -27 0
v -39 -28 0
v -40 -28 0
v -40 -27 0
v -39 -27 0
v -4 -30 0
v -5 -30 0
v -5 -29 0
v -4 -29 0
v -3 -30 0
v -4 -30 0
v -4 -29 0
v -3 -29 0
v -2 -30 0
v -3 -30 0
v -3 -29 0
v -2 -29 0
v -1 -30 0
v -2 -30 0
v -2 -29 0
v -1 -29 0
v -21 -31 0
v -22 -31 0
v -22 -30 0
v -21 -30 0
v -20 -31 0
v -21 -31 0
v -21 -30 0
v -20 -30 0
v -19 -31 0
v -20 -31 0
v -20 -30 0
v -19 -30 0
v -18 -31 0
v -19 -31 0
v -19 -30 0
v -18 -30 0
v -4 -31 0
v -5 -31 0
v -5 -30 0
v -4 -30 0
v -3 -31 0
v -4 -31 0
v -4 -30 0
v -3 -30 0
v -2 -31 0
v -3 -31 0
v -3 -30 0
v -2 -30 0
v -1 -31 0
v -2 -31 0
v -2 -30 0
v -1 -30 0
v -21 -32 0
v -22 -32 0
v -22 -31 0
v -21 -31 0
v -20 -32 0
v -21 -32 0
v -21 -31 0
v -20 -31 0
v -19 -32 0
v -20 -32 0
v -20 -31 0
v -19 -31 0
v -18 -32 0
v -19 -32 0
v -19 -31 0
v -18 -31 0
v -57 -33 0
v -58 -33 0
v -58 -32 0
v -57 -32 0
v -56 -33 0
v -57 -33 0
v -57 -32 0
v -56 -32 0
v -55 -33 0
v -56 -33 0
v -56 -32 0
v -55 -32 0
v -54 -33 0
v -55 -33 0
v -55 -32 0
v -54 -32 0
v -17 -33 0
v -18 -33 0
v -18 -32 0
v -17 -32 0
v -16 -33 0
v -17 -33 0
v -17 -32 0
v -16 -32 0
v -15 -33 0
v -16 -33 0
v -16 -32 0
v -15 -32 0
v -14 -33 0
v -15 -33 0
v -15 -32 0
v -14 -32 0
v -57 -34 0
v -58 -34 0
v -58 -33 0
v -57 -33 0
v -56 -34 0
v -57 -34 0
v -57 -33 0
v -56 -33 0
v -55 -34 0
v -56 -34 0
v -56 -33 0
v -55 -33 0
v -54 -34 0
v -55 -34 0
v -55 -33 0
v -54 -33 0
v -29 -34 0
v -30 -34 0
v -30 -33 0
v -29 -33 0
v -28 -34 0
v -29 -34 0
v -29 -33 0
v -28 -33 0
v -27 -34 0
v -28 -34 0
v -28 -33 0
v -27 -33 0
v -26 -34 0
v -27 -34 0
v -27 -33 0
v -26 -33 0
v -17 -34 0
v -18 -34 0
v -18 -33 0
v -17 -33 0
v -16 -34 0
v -17 -34 0
v -17 -33 0
v -16 -33 0
v -15 -34 0
v -16 -34 0
v -16 -33 0
v -15 -33 0
v -14 -34 0
v -15 -34 0
v -15 -33 0
v -14 -33 0
v -29 -35 0
v -30 -35 0
v -30 -34 0
v -29 -34 0
v -28 -35 0
v -29 -35 0
v -29 -34 0
v -28 -34 0
v -27 -35 0
v -28 -35 0
v -28 -34 0
v -27 -34 0
v -26 -35 0
v -27 -35 0
v -27 -34 0
v -26 -34 0
v -23 -37 0
v -24 -37 0
v -24 -36 0
v -23 -36 0
v -22 -37 0
v -23 -37 0
v -23 -36 0
v -22 -36 0
v -21 -37 0
v -22 -37 0
v -22 -36 0
v -21 -36 0
v -20 -37 0
v -21 -37 0
v -21 -36 0
v -20 -36 0
v -23 -38 0
v -24 -38 0
v -24 -37 0
v -23 -37 0
v -22 -38 0
v -23 -38 0
v -23 -37 0
v -22 -37 0
v -21 -38 0
v -22 -38 0
v -22 -37 0
v -21 -37 0
v -20 -38 0
v -21 -38 0
v -21 -37 0
v -20 -37 0
v -34 -50 0
v -35 -50 0
v -35 -49 0
v -34 -49 0
v -33 -50 0
v -34 -50 0
v -34 -49 0
v -33 -49 0
v -32 -50 0
v -33 -50 0
v -33 -49 0
v -32 -49 0
v -31 -50 0
v -32 -50 0
v -32 -49 0
v -31 -49 0
v -57 -51 0
v -58 -51 0
v -58 -50 0
v -57 -50 0
v -56 -51 0
v -57 -51 0
v -57 -50 0
v -56 -50 0
v -55 -51 0
v -56 -51 0
v -56 -50 0
v -55 -50 0
v -54 -51 0
v -55 -51 0
v -55 -50 0
v -54 -50 0
v -34 -51 0
v -35 -51 0
v -35 -50 0
v -34 -50 0
v -33 -51 0
v -34 -51 0
v -34 -50 0
v -33 -50 0
v -32 -51 0
v -33 -51 0
v -33 -50 0
v -32 -50 0
v -31 -51 0
v -32 -51 0
v -32 -50 0
v -31 -50 0
v -57 -52 0
v -58 -52 0
v -58 -51 0
v -57 -51 0
v -56 -52 0
v -57 -52 0
v -57 -51 0
v -56 -51 0
v -55 -52 0
v -56 -52 0
v -56 -51 0
v -55 -51 0
v -54 -52 0
v -55 -52 0
v -55 -51 0
v -54 -51 0
v -4 -54 0
v -5 -54 0
v -5 -53 0
v -4 -53 0
v -3 -54 0
v -4 -54 0
v -4 -53 0
v -3 -53 0
v -2 -54 0
v -3 -54 0
v -3 -53 0
v -2 -53 0
v -1 -54 0
v -2 -54 0
v -2 -53 0
v -1 -53 0
v -54 -55 0
v -55 -55 0
v -55 -54 0
v -54 -54 0
v -53 -55 0
v -54 -55 0
v -54 -54 0
v -53 -54 0
v -52 -55 0
v -53 -55 0
v -53 -54 0
v -52 -54 0
v -51 -55 0
v -52 -55 0
v -52 -54 0
v -51 -54 0
v -11 -55 0
v -12 -55 0
v -12 -54 0
v -11 -54 0
v -10 -55 0
v -11 -55 0
v -11 -54 0
v -10 -54 0
v -9 -55 0
v -10 -55 0
v -10 -54 0
v -9 -54 0
v -8 -55 0
v -9 -55 0
v -9 -54 0
v -8 -54 0
v -4 -55 0
v -5 -55 0
v -5 -54 0
v -4 -54 0
v -3 -55 0
v -4 -55 0
v -4 -54 0
v -3 -54 0
v -2 -55 0
v -3 -55 0
v -3 -54 0
v -2 -54 0
v -1 -55 0
v -2 -55 0
v -2 -54 0
v -1 -54 0
v -54 -56 0
v -55 -56 0
v -55 -55 0
v -54 -55 0
v -53 -56 0
v -54 -56 0
v -54 -55 0
v -53 -55 0
v -52 -56 0
v -53 -56 0
v -53 -55 0
v -52 -55 0
v -51 -56 0
v -52 -56 0
v -52 -55 0
v -51 -55 0
v -11 -56 0
v -12 -56 0
v -12 -55 0
v -11 -55 0
v -10 -56 0
v -11 -56 0
v -11 -55 0
v -10 -55 0
v -9 -56 0
v -10 -56 0
v -10 -55 0
v -9 -55 0
v -8 -56 0
v -9 -56 0
v -9 -55 0
v -8 -55 0
v -59 -57 0
v -60 -57 0
v -60 -56 0
v -59 -56 0
v -58 -57 0
v -59 -57 0
v -59 -56 0
v -58 -56 0
v -57 -57 0
v -58 -57 0
v -58 -56 0
v -57 -56 0
v -56 -57 0
v -57 -57 0
v -57 -56 0
v -56 -56 0
v -5 -57 0
v -6 -57 0
v -6 -56 0
v -5 -56 0
v -4 -57 0
v -5 -57 0
v -5 -56 0
v -4 -56 0
v -3 -57 0
v -4 -57 0
v -4 -56 0
v -3 -56 0
v -2 -57 0
v -3 -57 0
v -3 -56 0
v -2 -56 0
v -59 -58 0
v -60 -58 0
v -60 -57 0
v -59 -57 0
v -58 -58 0
v -59 -58 0
v -59 -57 0
v -58 -57 0
v -57 -58 0
v -58 -58 0
v -58 -57 0
v -57 -57 0
v -56 -58 0
v -57 -58 0
v -57 -57 0
v -56 -57 0
v -5 -58 0
v -6 -58 0
v -6 -57 0
v -5 -57 0
v -4 -58 0
v -5 -58 0
v -5 -57 0
v -4 -57 0
v -3 -58 0
v -4 -58 0
v -4 -57 0
v -3 -57 0
v -2 -58 0
v -3 -58 0
v -3 -57 0
v -2 -57 0
v -8 -59 0
v -9 -59 0
v -9 -58 0
v -8 -58 0
v -7 -59 0
v -8 -59 0
v -8 -58 0
v -7 -58 0
v -6 -59 0
v -7 -59 0
v -7 -58 0
v -6 -58 0
v -5 -59 0
v -6 -59 0
v -6 -58 0
v -5 -58 0
v -8 -60 0
v -9 -60 0
v -9 -59 0
v -8 -59 0
v -7 -60 0
v -8 -60 0
v -8 -59 0
v -7 -59 0
v -6 -60 0
v -7 -60 0
v -7 -59 0
v -6 -59 0
v -5 -60 0
v -6 -60 0
v -6 -59 0
v -5 -59 0

# Texture cooridinates (Count = 32)
vt 0.0625408 0.08345538
vt 0.0831029 0.08345538
vt 0.0831029 0.110989
vt 0.0625408 0.110989
vt 0.04173455 0.08345538
vt 0.06229666 0.08345538
vt 0.06229666 0.110989
vt 0.04173455 0.110989
vt 0.02092831 0.08345538
vt 0.04149041 0.08345538
vt 0.04149041 0.110989
vt 0.02092831 0.110989
vt 0.0625408 0.05567765
vt 0.0831029 0.05567765
vt 0.0831029 0.08321124
vt 0.0625408 0.08321124
vt 0.04173455 0.05567765
vt 0.06229666 0.05567765
vt 0.06229666 0.08321124
vt 0.04173455 0.08321124
vt 0.02092831 0.05567765
vt 0.04149041 0.05567765
vt 0.04149041 0.08321124
vt 0.02092831 0.08321124
vt 0.0001220703 0.08345538
vt 0.02068417 0.08345538
vt 0.02068417 0.110989
vt 0.0001220703 0.110989
vt 0.0001220703 0.05567765
vt 0.02068417 0.05567765
vt 0.02068417 0.08321124
vt 0.0001220703 0.08321124

# Normal
vn 0 0 -1

# Mesh description
g TaasOngYiuRight_mesh_0010

# Faces
f 1/1/1 2/2/1 3/3/1 4/4/1
f 5/5/1 6/6/1 7/7/1 8/8/1
f 9/9/1 10/10/1 11/11/1 12/12/1
f 13/13/1 14/14/1 15/15/1 16/16/1
f 17/17/1 18/18/1 19/19/1 20/20/1
f 21/21/1 22/22/1 23/23/1 24/24/1
f 25/1/1 26/2/1 27/3/1 28/4/1
f 29/5/1 30/6/1 31/7/1 32/8/1
f 33/9/1 34/10/1 35/11/1 36/12/1
f 37/25/1 38/26/1 39/27/1 40/28/1
f 41/13/1 42/14/1 43/15/1 44/16/1
f 45/17/1 46/18/1 47/19/1 48/20/1
f 49/21/1 50/22/1 51/23/1 52/24/1
f 53/29/1 54/30/1 55/31/1 56/32/1
f 57/1/1 58/2/1 59/3/1 60/4/1
f 61/5/1 62/6/1 63/7/1 64/8/1
f 65/9/1 66/10/1 67/11/1 68/12/1
f 69/25/1 70/26/1 71/27/1 72/28/1
f 73/13/1 74/14/1 75/15/1 76/16/1
f 77/17/1 78/18/1 79/19/1 80/20/1
f 81/21/1 82/22/1 83/23/1 84/24/1
f 85/29/1 86/30/1 87/31/1 88/32/1
f 89/1/1 90/2/1 91/3/1 92/4/1
f 93/5/1 94/6/1 95/7/1 96/8/1
f 97/9/1 98/10/1 99/11/1 100/12/1
f 101/25/1 102/26/1 103/27/1 104/28/1
f 105/13/1 106/14/1 107/15/1 108/16/1
f 109/17/1 110/18/1 111/19/1 112/20/1
f 113/21/1 114/22/1 115/23/1 116/24/1
f 117/29/1 118/30/1 119/31/1 120/32/1
f 121/1/1 122/2/1 123/3/1 124/4/1
f 125/5/1 126/6/1 127/7/1 128/8/1
f 129/9/1 130/10/1 131/11/1 132/12/1
f 133/25/1 134/26/1 135/27/1 136/28/1
f 137/13/1 138/14/1 139/15/1 140/16/1
f 141/17/1 142/18/1 143/19/1 144/20/1
f 145/21/1 146/22/1 147/23/1 148/24/1
f 149/29/1 150/30/1 151/31/1 152/32/1
f 153/1/1 154/2/1 155/3/1 156/4/1
f 157/5/1 158/6/1 159/7/1 160/8/1
f 161/9/1 162/10/1 163/11/1 164/12/1
f 165/25/1 166/26/1 167/27/1 168/28/1
f 169/13/1 170/14/1 171/15/1 172/16/1
f 173/17/1 174/18/1 175/19/1 176/20/1
f 177/21/1 178/22/1 179/23/1 180/24/1
f 181/29/1 182/30/1 183/31/1 184/32/1
f 185/1/1 186/2/1 187/3/1 188/4/1
f 189/5/1 190/6/1 191/7/1 192/8/1
f 193/9/1 194/10/1 195/11/1 196/12/1
f 197/25/1 198/26/1 199/27/1 200/28/1
f 201/13/1 202/14/1 203/15/1 204/16/1
f 205/17/1 206/18/1 207/19/1 208/20/1
f 209/21/1 210/22/1 211/23/1 212/24/1
f 213/29/1 214/30/1 215/31/1 216/32/1
f 217/1/1 218/2/1 219/3/1 220/4/1
f 221/5/1 222/6/1 223/7/1 224/8/1
f 225/9/1 226/10/1 227/11/1 228/12/1
f 229/25/1 230/26/1 231/27/1 232/28/1
f 233/1/1 234/2/1 235/3/1 236/4/1
f 237/5/1 238/6/1 239/7/1 240/8/1
f 241/9/1 242/10/1 243/11/1 244/12/1
f 245/25/1 246/26/1 247/27/1 248/28/1
f 249/13/1 250/14/1 251/15/1 252/16/1
f 253/17/1 254/18/1 255/19/1 256/20/1
f 257/21/1 258/22/1 259/23/1 260/24/1
f 261/29/1 262/30/1 263/31/1 264/32/1
f 265/13/1 266/14/1 267/15/1 268/16/1
f 269/17/1 270/18/1 271/19/1 272/20/1
f 273/21/1 274/22/1 275/23/1 276/24/1
f 277/29/1 278/30/1 279/31/1 280/32/1
f 281/1/1 282/2/1 283/3/1 284/4/1
f 285/5/1 286/6/1 287/7/1 288/8/1
f 289/9/1 290/10/1 291/11/1 292/12/1
f 293/25/1 294/26/1 295/27/1 296/28/1
f 297/1/1 298/2/1 299/3/1 300/4/1
f 301/5/1 302/6/1 303/7/1 304/8/1
f 305/9/1 306/10/1 307/11/1 308/12/1
f 309/25/1 310/26/1 311/27/1 312/28/1
f 313/13/1 314/14/1 315/15/1 316/16/1
f 317/17/1 318/18/1 319/19/1 320/20/1
f 321/21/1 322/22/1 323/23/1 324/24/1
f 325/29/1 326/30/1 327/31/1 328/32/1
f 329/13/1 330/14/1 331/15/1 332/16/1
f 333/17/1 334/18/1 335/19/1 336/20/1
f 337/21/1 338/22/1 339/23/1 340/24/1
f 341/29/1 342/30/1 343/31/1 344/32/1
f 345/1/1 346/2/1 347/3/1 348/4/1
f 349/5/1 350/6/1 351/7/1 352/8/1
f 353/9/1 354/10/1 355/11/1 356/12/1
f 357/25/1 358/26/1 359/27/1 360/28/1
f 361/13/1 362/14/1 363/15/1 364/16/1
f 365/17/1 366/18/1 367/19/1 368/20/1
f 369/21/1 370/22/1 371/23/1 372/24/1
f 373/29/1 374/30/1 375/31/1 376/32/1
f 377/1/1 378/2/1 379/3/1 380/4/1
f 381/5/1 382/6/1 383/7/1 384/8/1
f 385/9/1 386/10/1 387/11/1 388/12/1
f 389/25/1 390/26/1 391/27/1 392/28/1
f 393/13/1 394/14/1 395/15/1 396/16/1
f 397/17/1 398/18/1 399/19/1 400/20/1
f 401/21/1 402/22/1 403/23/1 404/24/1
f 405/29/1 406/30/1 407/31/1 408/32/1
f 409/1/1 410/2/1 411/3/1 412/4/1
f 413/5/1 414/6/1 415/7/1 416/8/1
f 417/9/1 418/10/1 419/11/1 420/12/1
f 421/25/1 422/26/1 423/27/1 424/28/1
f 425/1/1 426/2/1 427/3/1 428/4/1
f 429/5/1 430/6/1 431/7/1 432/8/1
f 433/9/1 434/10/1 435/11/1 436/12/1
f 437/25/1 438/26/1 439/27/1 440/28/1
f 441/13/1 442/14/1 443/15/1 444/16/1
f 445/17/1 446/18/1 447/19/1 448/20/1
f 449/21/1 450/22/1 451/23/1 452/24/1
f 453/29/1 454/30/1 455/31/1 456/32/1
f 457/13/1 458/14/1 459/15/1 460/16/1
f 461/17/1 462/18/1 463/19/1 464/20/1
f 465/21/1 466/22/1 467/23/1 468/24/1
f 469/29/1 470/30/1 471/31/1 472/32/1
f 473/1/1 474/2/1 475/3/1 476/4/1
f 477/5/1 478/6/1 479/7/1 480/8/1
f 481/9/1 482/10/1 483/11/1 484/12/1
f 485/25/1 486/26/1 487/27/1 488/28/1
f 489/1/1 490/2/1 491/3/1 492/4/1
f 493/5/1 494/6/1 495/7/1 496/8/1
f 497/9/1 498/10/1 499/11/1 500/12/1
f 501/25/1 502/26/1 503/27/1 504/28/1
f 505/13/1 506/14/1 507/15/1 508/16/1
f 509/17/1 510/18/1 511/19/1 512/20/1
f 513/21/1 514/22/1 515/23/1 516/24/1
f 517/29/1 518/30/1 519/31/1 520/32/1
f 521/1/1 522/2/1 523/3/1 524/4/1
f 525/5/1 526/6/1 527/7/1 528/8/1
f 529/9/1 530/10/1 531/11/1 532/12/1
f 533/25/1 534/26/1 535/27/1 536/28/1
f 537/13/1 538/14/1 539/15/1 540/16/1
f 541/17/1 542/18/1 543/19/1 544/20/1
f 545/21/1 546/22/1 547/23/1 548/24/1
f 549/29/1 550/30/1 551/31/1 552/32/1
f 553/13/1 554/14/1 555/15/1 556/16/1
f 557/17/1 558/18/1 559/19/1 560/20/1
f 561/21/1 562/22/1 563/23/1 564/24/1
f 565/29/1 566/30/1 567/31/1 568/32/1
f 569/1/1 570/2/1 571/3/1 572/4/1
f 573/5/1 574/6/1 575/7/1 576/8/1
f 577/9/1 578/10/1 579/11/1 580/12/1
f 581/25/1 582/26/1 583/27/1 584/28/1
f 585/13/1 586/14/1 587/15/1 588/16/1
f 589/17/1 590/18/1 591/19/1 592/20/1
f 593/21/1 594/22/1 595/23/1 596/24/1
f 597/29/1 598/30/1 599/31/1 600/32/1
f 601/1/1 602/2/1 603/3/1 604/4/1
f 605/5/1 606/6/1 607/7/1 608/8/1
f 609/9/1 610/10/1 611/11/1 612/12/1
f 613/25/1 614/26/1 615/27/1 616/28/1
f 617/1/1 618/2/1 619/3/1 620/4/1
f 621/5/1 622/6/1 623/7/1 624/8/1
f 625/9/1 626/10/1 627/11/1 628/12/1
f 629/25/1 630/26/1 631/27/1 632/28/1
f 633/13/1 634/14/1 635/15/1 636/16/1
f 637/17/1 638/18/1 639/19/1 640/20/1
f 641/21/1 642/22/1 643/23/1 644/24/1
f 645/29/1 646/30/1 647/31/1 648/32/1
f 649/13/1 650/14/1 651/15/1 652/16/1
f 653/17/1 654/18/1 655/19/1 656/20/1
f 657/21/1 658/22/1 659/23/1 660/24/1
f 661/29/1 662/30/1 663/31/1 664/32/1
f 665/1/1 666/2/1 667/3/1 668/4/1
f 669/5/1 670/6/1 671/7/1 672/8/1
f 673/9/1 674/10/1 675/11/1 676/12/1
f 677/25/1 678/26/1 679/27/1 680/28/1
f 681/1/1 682/2/1 683/3/1 684/4/1
f 685/5/1 686/6/1 687/7/1 688/8/1
f 689/9/1 690/10/1 691/11/1 692/12/1
f 693/25/1 694/26/1 695/27/1 696/28/1
f 697/1/1 698/2/1 699/3/1 700/4/1
f 701/5/1 702/6/1 703/7/1 704/8/1
f 705/9/1 706/10/1 707/11/1 708/12/1
f 709/25/1 710/26/1 711/27/1 712/28/1
f 713/13/1 714/14/1 715/15/1 716/16/1
f 717/17/1 718/18/1 719/19/1 720/20/1
f 721/21/1 722/22/1 723/23/1 724/24/1
f 725/29/1 726/30/1 727/31/1 728/32/1
f 729/13/1 730/14/1 731/15/1 732/16/1
f 733/17/1 734/18/1 735/19/1 736/20/1
f 737/21/1 738/22/1 739/23/1 740/24/1
f 741/29/1 742/30/1 743/31/1 744/32/1
f 745/13/1 746/14/1 747/15/1 748/16/1
f 749/17/1 750/18/1 751/19/1 752/20/1
f 753/21/1 754/22/1 755/23/1 756/24/1
f 757/29/1 758/30/1 759/31/1 760/32/1
f 761/1/1 762/2/1 763/3/1 764/4/1
f 765/5/1 766/6/1 767/7/1 768/8/1
f 769/9/1 770/10/1 771/11/1 772/12/1
f 773/25/1 774/26/1 775/27/1 776/28/1
f 777/1/1 778/2/1 779/3/1 780/4/1
f 781/5/1 782/6/1 783/7/1 784/8/1
f 785/9/1 786/10/1 787/11/1 788/12/1
f 789/25/1 790/26/1 791/27/1 792/28/1
f 793/13/1 794/14/1 795/15/1 796/16/1
f 797/17/1 798/18/1 799/19/1 800/20/1
f 801/21/1 802/22/1 803/23/1 804/24/1
f 805/29/1 806/30/1 807/31/1 808/32/1
f 809/13/1 810/14/1 811/15/1 812/16/1
f 813/17/1 814/18/1 815/19/1 816/20/1
f 817/21/1 818/22/1 819/23/1 820/24/1
f 821/29/1 822/30/1 823/31/1 824/32/1
f 825/1/1 826/2/1 827/3/1 828/4/1
f 829/5/1 830/6/1 831/7/1 832/8/1
f 833/9/1 834/10/1 835/11/1 836/12/1
f 837/25/1 838/26/1 839/27/1 840/28/1
f 841/13/1 842/14/1 843/15/1 844/16/1
f 845/17/1 846/18/1 847/19/1 848/20/1
f 849/21/1 850/22/1 851/23/1 852/24/1
f 853/29/1 854/30/1 855/31/1 856/32/1

