# Tiled2Unity generated file. Do not modify by hand.
# Wavefront file for 'TaasOngYiuRight_mesh_0007.obj'

# Vertices (Count = 292)
v -54 -5 0
v -55 -5 0
v -55 -4 0
v -54 -4 0
v -53 -5 0
v -54 -5 0
v -54 -4 0
v -53 -4 0
v -52 -5 0
v -53 -5 0
v -53 -4 0
v -52 -4 0
v -54 -6 0
v -55 -6 0
v -55 -5 0
v -54 -5 0
v -53 -6 0
v -54 -6 0
v -54 -5 0
v -53 -5 0
v -52 -6 0
v -53 -6 0
v -53 -5 0
v -52 -5 0
v -54 -7 0
v -55 -7 0
v -55 -6 0
v -54 -6 0
v -53 -7 0
v -54 -7 0
v -54 -6 0
v -53 -6 0
v -52 -7 0
v -53 -7 0
v -53 -6 0
v -52 -6 0
v -24 -17 0
v -25 -17 0
v -25 -16 0
v -24 -16 0
v -23 -17 0
v -24 -17 0
v -24 -16 0
v -23 -16 0
v -22 -17 0
v -23 -17 0
v -23 -16 0
v -22 -16 0
v -21 -17 0
v -22 -17 0
v -22 -16 0
v -21 -16 0
v -20 -17 0
v -21 -17 0
v -21 -16 0
v -20 -16 0
v -19 -17 0
v -20 -17 0
v -20 -16 0
v -19 -16 0
v -18 -17 0
v -19 -17 0
v -19 -16 0
v -18 -16 0
v -24 -18 0
v -25 -18 0
v -25 -17 0
v -24 -17 0
v -23 -18 0
v -24 -18 0
v -24 -17 0
v -23 -17 0
v -22 -18 0
v -23 -18 0
v -23 -17 0
v -22 -17 0
v -21 -18 0
v -22 -18 0
v -22 -17 0
v -21 -17 0
v -20 -18 0
v -21 -18 0
v -21 -17 0
v -20 -17 0
v -19 -18 0
v -20 -18 0
v -20 -17 0
v -19 -17 0
v -18 -18 0
v -19 -18 0
v -19 -17 0
v -18 -17 0
v -24 -19 0
v -25 -19 0
v -25 -18 0
v -24 -18 0
v -23 -19 0
v -24 -19 0
v -24 -18 0
v -23 -18 0
v -22 -19 0
v -23 -19 0
v -23 -18 0
v -22 -18 0
v -21 -19 0
v -22 -19 0
v -22 -18 0
v -21 -18 0
v -20 -19 0
v -21 -19 0
v -21 -18 0
v -20 -18 0
v -19 -19 0
v -20 -19 0
v -20 -18 0
v -19 -18 0
v -18 -19 0
v -19 -19 0
v -19 -18 0
v -18 -18 0
v -24 -20 0
v -25 -20 0
v -25 -19 0
v -24 -19 0
v -23 -20 0
v -24 -20 0
v -24 -19 0
v -23 -19 0
v -22 -20 0
v -23 -20 0
v -23 -19 0
v -22 -19 0
v -21 -20 0
v -22 -20 0
v -22 -19 0
v -21 -19 0
v -20 -20 0
v -21 -20 0
v -21 -19 0
v -20 -19 0
v -19 -20 0
v -20 -20 0
v -20 -19 0
v -19 -19 0
v -18 -20 0
v -19 -20 0
v -19 -19 0
v -18 -19 0
v -27 -52 0
v -28 -52 0
v -28 -51 0
v -27 -51 0
v -26 -52 0
v -27 -52 0
v -27 -51 0
v -26 -51 0
v -25 -52 0
v -26 -52 0
v -26 -51 0
v -25 -51 0
v -24 -52 0
v -25 -52 0
v -25 -51 0
v -24 -51 0
v -23 -52 0
v -24 -52 0
v -24 -51 0
v -23 -51 0
v -22 -52 0
v -23 -52 0
v -23 -51 0
v -22 -51 0
v -21 -52 0
v -22 -52 0
v -22 -51 0
v -21 -51 0
v -20 -52 0
v -21 -52 0
v -21 -51 0
v -20 -51 0
v -19 -52 0
v -20 -52 0
v -20 -51 0
v -19 -51 0
v -27 -53 0
v -28 -53 0
v -28 -52 0
v -27 -52 0
v -26 -53 0
v -27 -53 0
v -27 -52 0
v -26 -52 0
v -25 -53 0
v -26 -53 0
v -26 -52 0
v -25 -52 0
v -24 -53 0
v -25 -53 0
v -25 -52 0
v -24 -52 0
v -23 -53 0
v -24 -53 0
v -24 -52 0
v -23 -52 0
v -22 -53 0
v -23 -53 0
v -23 -52 0
v -22 -52 0
v -21 -53 0
v -22 -53 0
v -22 -52 0
v -21 -52 0
v -20 -53 0
v -21 -53 0
v -21 -52 0
v -20 -52 0
v -19 -53 0
v -20 -53 0
v -20 -52 0
v -19 -52 0
v -27 -54 0
v -28 -54 0
v -28 -53 0
v -27 -53 0
v -26 -54 0
v -27 -54 0
v -27 -53 0
v -26 -53 0
v -25 -54 0
v -26 -54 0
v -26 -53 0
v -25 -53 0
v -24 -54 0
v -25 -54 0
v -25 -53 0
v -24 -53 0
v -23 -54 0
v -24 -54 0
v -24 -53 0
v -23 -53 0
v -22 -54 0
v -23 -54 0
v -23 -53 0
v -22 -53 0
v -21 -54 0
v -22 -54 0
v -22 -53 0
v -21 -53 0
v -20 -54 0
v -21 -54 0
v -21 -53 0
v -20 -53 0
v -19 -54 0
v -20 -54 0
v -20 -53 0
v -19 -53 0
v -27 -55 0
v -28 -55 0
v -28 -54 0
v -27 -54 0
v -26 -55 0
v -27 -55 0
v -27 -54 0
v -26 -54 0
v -25 -55 0
v -26 -55 0
v -26 -54 0
v -25 -54 0
v -24 -55 0
v -25 -55 0
v -25 -54 0
v -24 -54 0
v -23 -55 0
v -24 -55 0
v -24 -54 0
v -23 -54 0
v -22 -55 0
v -23 -55 0
v -23 -54 0
v -22 -54 0
v -21 -55 0
v -22 -55 0
v -22 -54 0
v -21 -54 0
v -20 -55 0
v -21 -55 0
v -21 -54 0
v -20 -54 0
v -19 -55 0
v -20 -55 0
v -20 -54 0
v -19 -54 0

# Texture cooridinates (Count = 292)
vt 0.3579496 0.9474905
vt 0.3747448 0.9474905
vt 0.3747448 0.9735621
vt 0.3579496 0.9735621
vt 0.3409101 0.9474905
vt 0.3577054 0.9474905
vt 0.3577054 0.9735621
vt 0.3409101 0.9735621
vt 0.3238707 0.9474905
vt 0.340666 0.9474905
vt 0.340666 0.9735621
vt 0.3238707 0.9735621
vt 0.3579496 0.9211747
vt 0.3747448 0.9211747
vt 0.3747448 0.9472464
vt 0.3579496 0.9472464
vt 0.3409101 0.9211747
vt 0.3577054 0.9211747
vt 0.3577054 0.9472464
vt 0.3409101 0.9472464
vt 0.3238707 0.9211747
vt 0.340666 0.9211747
vt 0.340666 0.9472464
vt 0.3238707 0.9472464
vt 0.3579496 0.8948589
vt 0.3747448 0.8948589
vt 0.3747448 0.9209306
vt 0.3579496 0.9209306
vt 0.3409101 0.8948589
vt 0.3577054 0.8948589
vt 0.3577054 0.9209306
vt 0.3409101 0.9209306
vt 0.3238707 0.8948589
vt 0.340666 0.8948589
vt 0.340666 0.9209306
vt 0.3238707 0.9209306
vt 0.5113042 0.1053852
vt 0.5280994 0.1053852
vt 0.5280994 0.1314569
vt 0.5113042 0.1314569
vt 0.4942648 0.1053852
vt 0.5110601 0.1053852
vt 0.5110601 0.1314569
vt 0.4942648 0.1314569
vt 0.4772254 0.1053852
vt 0.4940206 0.1053852
vt 0.4940206 0.1314569
vt 0.4772254 0.1314569
vt 0.460186 0.1053852
vt 0.4769812 0.1053852
vt 0.4769812 0.1314569
vt 0.460186 0.1314569
vt 0.4431466 0.1053852
vt 0.4599418 0.1053852
vt 0.4599418 0.1314569
vt 0.4431466 0.1314569
vt 0.4261072 0.1053852
vt 0.4429024 0.1053852
vt 0.4429024 0.1314569
vt 0.4261072 0.1314569
vt 0.4090677 0.1053852
vt 0.425863 0.1053852
vt 0.425863 0.1314569
vt 0.4090677 0.1314569
vt 0.5113042 0.07906944
vt 0.5280994 0.07906944
vt 0.5280994 0.1051411
vt 0.5113042 0.1051411
vt 0.4942648 0.07906944
vt 0.5110601 0.07906944
vt 0.5110601 0.1051411
vt 0.4942648 0.1051411
vt 0.4772254 0.07906944
vt 0.4940206 0.07906944
vt 0.4940206 0.1051411
vt 0.4772254 0.1051411
vt 0.460186 0.07906944
vt 0.4769812 0.07906944
vt 0.4769812 0.1051411
vt 0.460186 0.1051411
vt 0.4431466 0.07906944
vt 0.4599418 0.07906944
vt 0.4599418 0.1051411
vt 0.4431466 0.1051411
vt 0.4261072 0.07906944
vt 0.4429024 0.07906944
vt 0.4429024 0.1051411
vt 0.4261072 0.1051411
vt 0.4090677 0.07906944
vt 0.425863 0.07906944
vt 0.425863 0.1051411
vt 0.4090677 0.1051411
vt 0.5113042 0.05275363
vt 0.5280994 0.05275363
vt 0.5280994 0.07882529
vt 0.5113042 0.07882529
vt 0.4942648 0.05275363
vt 0.5110601 0.05275363
vt 0.5110601 0.07882529
vt 0.4942648 0.07882529
vt 0.4772254 0.05275363
vt 0.4940206 0.05275363
vt 0.4940206 0.07882529
vt 0.4772254 0.07882529
vt 0.460186 0.05275363
vt 0.4769812 0.05275363
vt 0.4769812 0.07882529
vt 0.460186 0.07882529
vt 0.4431466 0.05275363
vt 0.4599418 0.05275363
vt 0.4599418 0.07882529
vt 0.4431466 0.07882529
vt 0.4261072 0.05275363
vt 0.4429024 0.05275363
vt 0.4429024 0.07882529
vt 0.4261072 0.07882529
vt 0.4090677 0.05275363
vt 0.425863 0.05275363
vt 0.425863 0.07882529
vt 0.4090677 0.07882529
vt 0.5113042 0.02643788
vt 0.5280994 0.02643788
vt 0.5280994 0.05250949
vt 0.5113042 0.05250949
vt 0.4942648 0.02643788
vt 0.5110601 0.02643788
vt 0.5110601 0.05250949
vt 0.4942648 0.05250949
vt 0.4772254 0.02643788
vt 0.4940206 0.02643788
vt 0.4940206 0.05250949
vt 0.4772254 0.05250949
vt 0.460186 0.02643788
vt 0.4769812 0.02643788
vt 0.4769812 0.05250949
vt 0.460186 0.05250949
vt 0.4431466 0.02643788
vt 0.4599418 0.02643788
vt 0.4599418 0.05250949
vt 0.4431466 0.05250949
vt 0.4261072 0.02643788
vt 0.4429024 0.02643788
vt 0.4429024 0.05250949
vt 0.4261072 0.05250949
vt 0.4090677 0.02643788
vt 0.425863 0.02643788
vt 0.425863 0.05250949
vt 0.4090677 0.05250949
vt 0.1534767 0.3685431
vt 0.170272 0.3685431
vt 0.170272 0.3946148
vt 0.1534767 0.3946148
vt 0.1364373 0.3685431
vt 0.1532326 0.3685431
vt 0.1532326 0.3946148
vt 0.1364373 0.3946148
vt 0.1193979 0.3685431
vt 0.1361932 0.3685431
vt 0.1361932 0.3946148
vt 0.1193979 0.3946148
vt 0.1023585 0.3685431
vt 0.1191538 0.3685431
vt 0.1191538 0.3946148
vt 0.1023585 0.3946148
vt 0.08531909 0.3685431
vt 0.1021143 0.3685431
vt 0.1021143 0.3946148
vt 0.08531909 0.3946148
vt 0.06827968 0.3685431
vt 0.08507495 0.3685431
vt 0.08507495 0.3946148
vt 0.06827968 0.3946148
vt 0.05124028 0.3685431
vt 0.06803554 0.3685431
vt 0.06803554 0.3946148
vt 0.05124028 0.3946148
vt 0.03420088 0.3685431
vt 0.05099614 0.3685431
vt 0.05099614 0.3946148
vt 0.03420088 0.3946148
vt 0.01716147 0.3685431
vt 0.03395674 0.3685431
vt 0.03395674 0.3946148
vt 0.01716147 0.3946148
vt 0.1534767 0.3422273
vt 0.170272 0.3422273
vt 0.170272 0.368299
vt 0.1534767 0.368299
vt 0.1364373 0.3422273
vt 0.1532326 0.3422273
vt 0.1532326 0.368299
vt 0.1364373 0.368299
vt 0.1193979 0.3422273
vt 0.1361932 0.3422273
vt 0.1361932 0.368299
vt 0.1193979 0.368299
vt 0.1023585 0.3422273
vt 0.1191538 0.3422273
vt 0.1191538 0.368299
vt 0.1023585 0.368299
vt 0.08531909 0.3422273
vt 0.1021143 0.3422273
vt 0.1021143 0.368299
vt 0.08531909 0.368299
vt 0.06827968 0.3422273
vt 0.08507495 0.3422273
vt 0.08507495 0.368299
vt 0.06827968 0.368299
vt 0.05124028 0.3422273
vt 0.06803554 0.3422273
vt 0.06803554 0.368299
vt 0.05124028 0.368299
vt 0.03420088 0.3422273
vt 0.05099614 0.3422273
vt 0.05099614 0.368299
vt 0.03420088 0.368299
vt 0.01716147 0.3422273
vt 0.03395674 0.3422273
vt 0.03395674 0.368299
vt 0.01716147 0.368299
vt 0.1534767 0.3159115
vt 0.170272 0.3159115
vt 0.170272 0.3419832
vt 0.1534767 0.3419832
vt 0.1364373 0.3159115
vt 0.1532326 0.3159115
vt 0.1532326 0.3419832
vt 0.1364373 0.3419832
vt 0.1193979 0.3159115
vt 0.1361932 0.3159115
vt 0.1361932 0.3419832
vt 0.1193979 0.3419832
vt 0.1023585 0.3159115
vt 0.1191538 0.3159115
vt 0.1191538 0.3419832
vt 0.1023585 0.3419832
vt 0.08531909 0.3159115
vt 0.1021143 0.3159115
vt 0.1021143 0.3419832
vt 0.08531909 0.3419832
vt 0.06827968 0.3159115
vt 0.08507495 0.3159115
vt 0.08507495 0.3419832
vt 0.06827968 0.3419832
vt 0.05124028 0.3159115
vt 0.06803554 0.3159115
vt 0.06803554 0.3419832
vt 0.05124028 0.3419832
vt 0.03420088 0.3159115
vt 0.05099614 0.3159115
vt 0.05099614 0.3419832
vt 0.03420088 0.3419832
vt 0.01716147 0.3159115
vt 0.03395674 0.3159115
vt 0.03395674 0.3419832
vt 0.01716147 0.3419832
vt 0.1534767 0.2895958
vt 0.170272 0.2895958
vt 0.170272 0.3156674
vt 0.1534767 0.3156674
vt 0.1364373 0.2895958
vt 0.1532326 0.2895958
vt 0.1532326 0.3156674
vt 0.1364373 0.3156674
vt 0.1193979 0.2895958
vt 0.1361932 0.2895958
vt 0.1361932 0.3156674
vt 0.1193979 0.3156674
vt 0.1023585 0.2895958
vt 0.1191538 0.2895958
vt 0.1191538 0.3156674
vt 0.1023585 0.3156674
vt 0.08531909 0.2895958
vt 0.1021143 0.2895958
vt 0.1021143 0.3156674
vt 0.08531909 0.3156674
vt 0.06827968 0.2895958
vt 0.08507495 0.2895958
vt 0.08507495 0.3156674
vt 0.06827968 0.3156674
vt 0.05124028 0.2895958
vt 0.06803554 0.2895958
vt 0.06803554 0.3156674
vt 0.05124028 0.3156674
vt 0.03420088 0.2895958
vt 0.05099614 0.2895958
vt 0.05099614 0.3156674
vt 0.03420088 0.3156674
vt 0.01716147 0.2895958
vt 0.03395674 0.2895958
vt 0.03395674 0.3156674
vt 0.01716147 0.3156674

# Normal
vn 0 0 -1

# Mesh description
g TaasOngYiuRight_mesh_0007

# Faces
f 1/1/1 2/2/1 3/3/1 4/4/1
f 5/5/1 6/6/1 7/7/1 8/8/1
f 9/9/1 10/10/1 11/11/1 12/12/1
f 13/13/1 14/14/1 15/15/1 16/16/1
f 17/17/1 18/18/1 19/19/1 20/20/1
f 21/21/1 22/22/1 23/23/1 24/24/1
f 25/25/1 26/26/1 27/27/1 28/28/1
f 29/29/1 30/30/1 31/31/1 32/32/1
f 33/33/1 34/34/1 35/35/1 36/36/1
f 37/37/1 38/38/1 39/39/1 40/40/1
f 41/41/1 42/42/1 43/43/1 44/44/1
f 45/45/1 46/46/1 47/47/1 48/48/1
f 49/49/1 50/50/1 51/51/1 52/52/1
f 53/53/1 54/54/1 55/55/1 56/56/1
f 57/57/1 58/58/1 59/59/1 60/60/1
f 61/61/1 62/62/1 63/63/1 64/64/1
f 65/65/1 66/66/1 67/67/1 68/68/1
f 69/69/1 70/70/1 71/71/1 72/72/1
f 73/73/1 74/74/1 75/75/1 76/76/1
f 77/77/1 78/78/1 79/79/1 80/80/1
f 81/81/1 82/82/1 83/83/1 84/84/1
f 85/85/1 86/86/1 87/87/1 88/88/1
f 89/89/1 90/90/1 91/91/1 92/92/1
f 93/93/1 94/94/1 95/95/1 96/96/1
f 97/97/1 98/98/1 99/99/1 100/100/1
f 101/101/1 102/102/1 103/103/1 104/104/1
f 105/105/1 106/106/1 107/107/1 108/108/1
f 109/109/1 110/110/1 111/111/1 112/112/1
f 113/113/1 114/114/1 115/115/1 116/116/1
f 117/117/1 118/118/1 119/119/1 120/120/1
f 121/121/1 122/122/1 123/123/1 124/124/1
f 125/125/1 126/126/1 127/127/1 128/128/1
f 129/129/1 130/130/1 131/131/1 132/132/1
f 133/133/1 134/134/1 135/135/1 136/136/1
f 137/137/1 138/138/1 139/139/1 140/140/1
f 141/141/1 142/142/1 143/143/1 144/144/1
f 145/145/1 146/146/1 147/147/1 148/148/1
f 149/149/1 150/150/1 151/151/1 152/152/1
f 153/153/1 154/154/1 155/155/1 156/156/1
f 157/157/1 158/158/1 159/159/1 160/160/1
f 161/161/1 162/162/1 163/163/1 164/164/1
f 165/165/1 166/166/1 167/167/1 168/168/1
f 169/169/1 170/170/1 171/171/1 172/172/1
f 173/173/1 174/174/1 175/175/1 176/176/1
f 177/177/1 178/178/1 179/179/1 180/180/1
f 181/181/1 182/182/1 183/183/1 184/184/1
f 185/185/1 186/186/1 187/187/1 188/188/1
f 189/189/1 190/190/1 191/191/1 192/192/1
f 193/193/1 194/194/1 195/195/1 196/196/1
f 197/197/1 198/198/1 199/199/1 200/200/1
f 201/201/1 202/202/1 203/203/1 204/204/1
f 205/205/1 206/206/1 207/207/1 208/208/1
f 209/209/1 210/210/1 211/211/1 212/212/1
f 213/213/1 214/214/1 215/215/1 216/216/1
f 217/217/1 218/218/1 219/219/1 220/220/1
f 221/221/1 222/222/1 223/223/1 224/224/1
f 225/225/1 226/226/1 227/227/1 228/228/1
f 229/229/1 230/230/1 231/231/1 232/232/1
f 233/233/1 234/234/1 235/235/1 236/236/1
f 237/237/1 238/238/1 239/239/1 240/240/1
f 241/241/1 242/242/1 243/243/1 244/244/1
f 245/245/1 246/246/1 247/247/1 248/248/1
f 249/249/1 250/250/1 251/251/1 252/252/1
f 253/253/1 254/254/1 255/255/1 256/256/1
f 257/257/1 258/258/1 259/259/1 260/260/1
f 261/261/1 262/262/1 263/263/1 264/264/1
f 265/265/1 266/266/1 267/267/1 268/268/1
f 269/269/1 270/270/1 271/271/1 272/272/1
f 273/273/1 274/274/1 275/275/1 276/276/1
f 277/277/1 278/278/1 279/279/1 280/280/1
f 281/281/1 282/282/1 283/283/1 284/284/1
f 285/285/1 286/286/1 287/287/1 288/288/1
f 289/289/1 290/290/1 291/291/1 292/292/1

