# Tiled2Unity generated file. Do not modify by hand.
# Wavefront file for 'DiegoSilangLower_mesh_0009.obj'

# Vertices (Count = 720)
v -48 -1 0
v -49 -1 0
v -49 0 0
v -48 0 0
v -47 -1 0
v -48 -1 0
v -48 0 0
v -47 0 0
v -46 -1 0
v -47 -1 0
v -47 0 0
v -46 0 0
v -45 -1 0
v -46 -1 0
v -46 0 0
v -45 0 0
v -48 -2 0
v -49 -2 0
v -49 -1 0
v -48 -1 0
v -47 -2 0
v -48 -2 0
v -48 -1 0
v -47 -1 0
v -46 -2 0
v -47 -2 0
v -47 -1 0
v -46 -1 0
v -45 -2 0
v -46 -2 0
v -46 -1 0
v -45 -1 0
v -16 -2 0
v -17 -2 0
v -17 -1 0
v -16 -1 0
v -15 -2 0
v -16 -2 0
v -16 -1 0
v -15 -1 0
v -14 -2 0
v -15 -2 0
v -15 -1 0
v -14 -1 0
v -13 -2 0
v -14 -2 0
v -14 -1 0
v -13 -1 0
v -51 -3 0
v -52 -3 0
v -52 -2 0
v -51 -2 0
v -50 -3 0
v -51 -3 0
v -51 -2 0
v -50 -2 0
v -49 -3 0
v -50 -3 0
v -50 -2 0
v -49 -2 0
v -48 -3 0
v -49 -3 0
v -49 -2 0
v -48 -2 0
v -47 -3 0
v -48 -3 0
v -48 -2 0
v -47 -2 0
v -46 -3 0
v -47 -3 0
v -47 -2 0
v -46 -2 0
v -45 -3 0
v -46 -3 0
v -46 -2 0
v -45 -2 0
v -16 -3 0
v -17 -3 0
v -17 -2 0
v -16 -2 0
v -15 -3 0
v -16 -3 0
v -16 -2 0
v -15 -2 0
v -14 -3 0
v -15 -3 0
v -15 -2 0
v -14 -2 0
v -13 -3 0
v -14 -3 0
v -14 -2 0
v -13 -2 0
v -51 -4 0
v -52 -4 0
v -52 -3 0
v -51 -3 0
v -50 -4 0
v -51 -4 0
v -51 -3 0
v -50 -3 0
v -49 -4 0
v -50 -4 0
v -50 -3 0
v -49 -3 0
v -48 -4 0
v -49 -4 0
v -49 -3 0
v -48 -3 0
v -16 -4 0
v -17 -4 0
v -17 -3 0
v -16 -3 0
v -15 -4 0
v -16 -4 0
v -16 -3 0
v -15 -3 0
v -14 -4 0
v -15 -4 0
v -15 -3 0
v -14 -3 0
v -13 -4 0
v -14 -4 0
v -14 -3 0
v -13 -3 0
v -51 -5 0
v -52 -5 0
v -52 -4 0
v -51 -4 0
v -50 -5 0
v -51 -5 0
v -51 -4 0
v -50 -4 0
v -49 -5 0
v -50 -5 0
v -50 -4 0
v -49 -4 0
v -48 -5 0
v -49 -5 0
v -49 -4 0
v -48 -4 0
v -24 -5 0
v -25 -5 0
v -25 -4 0
v -24 -4 0
v -23 -5 0
v -24 -5 0
v -24 -4 0
v -23 -4 0
v -15 -6 0
v -16 -6 0
v -16 -5 0
v -15 -5 0
v -14 -6 0
v -15 -6 0
v -15 -5 0
v -14 -5 0
v -5 -6 0
v -6 -6 0
v -6 -5 0
v -5 -5 0
v -4 -6 0
v -5 -6 0
v -5 -5 0
v -4 -5 0
v -3 -6 0
v -4 -6 0
v -4 -5 0
v -3 -5 0
v -2 -6 0
v -3 -6 0
v -3 -5 0
v -2 -5 0
v -1 -6 0
v -2 -6 0
v -2 -5 0
v -1 -5 0
v -4 -7 0
v -5 -7 0
v -5 -6 0
v -4 -6 0
v -3 -7 0
v -4 -7 0
v -4 -6 0
v -3 -6 0
v -2 -7 0
v -3 -7 0
v -3 -6 0
v -2 -6 0
v -1 -7 0
v -2 -7 0
v -2 -6 0
v -1 -6 0
v -4 -8 0
v -5 -8 0
v -5 -7 0
v -4 -7 0
v -3 -8 0
v -4 -8 0
v -4 -7 0
v -3 -7 0
v -2 -8 0
v -3 -8 0
v -3 -7 0
v -2 -7 0
v -1 -8 0
v -2 -8 0
v -2 -7 0
v -1 -7 0
v -31 -9 0
v -32 -9 0
v -32 -8 0
v -31 -8 0
v -30 -9 0
v -31 -9 0
v -31 -8 0
v -30 -8 0
v -29 -9 0
v -30 -9 0
v -30 -8 0
v -29 -8 0
v -21 -9 0
v -22 -9 0
v -22 -8 0
v -21 -8 0
v -20 -9 0
v -21 -9 0
v -21 -8 0
v -20 -8 0
v -19 -9 0
v -20 -9 0
v -20 -8 0
v -19 -8 0
v -18 -9 0
v -19 -9 0
v -19 -8 0
v -18 -8 0
v -17 -9 0
v -18 -9 0
v -18 -8 0
v -17 -8 0
v -7 -9 0
v -8 -9 0
v -8 -8 0
v -7 -8 0
v -6 -9 0
v -7 -9 0
v -7 -8 0
v -6 -8 0
v -31 -10 0
v -32 -10 0
v -32 -9 0
v -31 -9 0
v -30 -10 0
v -31 -10 0
v -31 -9 0
v -30 -9 0
v -29 -10 0
v -30 -10 0
v -30 -9 0
v -29 -9 0
v -28 -10 0
v -29 -10 0
v -29 -9 0
v -28 -9 0
v -21 -10 0
v -22 -10 0
v -22 -9 0
v -21 -9 0
v -20 -10 0
v -21 -10 0
v -21 -9 0
v -20 -9 0
v -19 -10 0
v -20 -10 0
v -20 -9 0
v -19 -9 0
v -18 -10 0
v -19 -10 0
v -19 -9 0
v -18 -9 0
v -31 -11 0
v -32 -11 0
v -32 -10 0
v -31 -10 0
v -30 -11 0
v -31 -11 0
v -31 -10 0
v -30 -10 0
v -29 -11 0
v -30 -11 0
v -30 -10 0
v -29 -10 0
v -28 -11 0
v -29 -11 0
v -29 -10 0
v -28 -10 0
v -21 -11 0
v -22 -11 0
v -22 -10 0
v -21 -10 0
v -20 -11 0
v -21 -11 0
v -21 -10 0
v -20 -10 0
v -19 -11 0
v -20 -11 0
v -20 -10 0
v -19 -10 0
v -18 -11 0
v -19 -11 0
v -19 -10 0
v -18 -10 0
v -10 -11 0
v -11 -11 0
v -11 -10 0
v -10 -10 0
v -9 -11 0
v -10 -11 0
v -10 -10 0
v -9 -10 0
v -8 -11 0
v -9 -11 0
v -9 -10 0
v -8 -10 0
v -7 -11 0
v -8 -11 0
v -8 -10 0
v -7 -10 0
v -10 -12 0
v -11 -12 0
v -11 -11 0
v -10 -11 0
v -9 -12 0
v -10 -12 0
v -10 -11 0
v -9 -11 0
v -8 -12 0
v -9 -12 0
v -9 -11 0
v -8 -11 0
v -7 -12 0
v -8 -12 0
v -8 -11 0
v -7 -11 0
v -6 -12 0
v -7 -12 0
v -7 -11 0
v -6 -11 0
v -10 -13 0
v -11 -13 0
v -11 -12 0
v -10 -12 0
v -9 -13 0
v -10 -13 0
v -10 -12 0
v -9 -12 0
v -8 -13 0
v -9 -13 0
v -9 -12 0
v -8 -12 0
v -7 -13 0
v -8 -13 0
v -8 -12 0
v -7 -12 0
v -19 -16 0
v -20 -16 0
v -20 -15 0
v -19 -15 0
v -18 -16 0
v -19 -16 0
v -19 -15 0
v -18 -15 0
v -51 -19 0
v -52 -19 0
v -52 -18 0
v -51 -18 0
v -50 -19 0
v -51 -19 0
v -51 -18 0
v -50 -18 0
v -49 -19 0
v -50 -19 0
v -50 -18 0
v -49 -18 0
v -48 -19 0
v -49 -19 0
v -49 -18 0
v -48 -18 0
v -36 -19 0
v -37 -19 0
v -37 -18 0
v -36 -18 0
v -35 -19 0
v -36 -19 0
v -36 -18 0
v -35 -18 0
v -34 -19 0
v -35 -19 0
v -35 -18 0
v -34 -18 0
v -33 -19 0
v -34 -19 0
v -34 -18 0
v -33 -18 0
v -51 -20 0
v -52 -20 0
v -52 -19 0
v -51 -19 0
v -50 -20 0
v -51 -20 0
v -51 -19 0
v -50 -19 0
v -49 -20 0
v -50 -20 0
v -50 -19 0
v -49 -19 0
v -48 -20 0
v -49 -20 0
v -49 -19 0
v -48 -19 0
v -36 -20 0
v -37 -20 0
v -37 -19 0
v -36 -19 0
v -35 -20 0
v -36 -20 0
v -36 -19 0
v -35 -19 0
v -34 -20 0
v -35 -20 0
v -35 -19 0
v -34 -19 0
v -33 -20 0
v -34 -20 0
v -34 -19 0
v -33 -19 0
v -51 -21 0
v -52 -21 0
v -52 -20 0
v -51 -20 0
v -50 -21 0
v -51 -21 0
v -51 -20 0
v -50 -20 0
v -49 -21 0
v -50 -21 0
v -50 -20 0
v -49 -20 0
v -48 -21 0
v -49 -21 0
v -49 -20 0
v -48 -20 0
v -36 -21 0
v -37 -21 0
v -37 -20 0
v -36 -20 0
v -35 -21 0
v -36 -21 0
v -36 -20 0
v -35 -20 0
v -34 -21 0
v -35 -21 0
v -35 -20 0
v -34 -20 0
v -33 -21 0
v -34 -21 0
v -34 -20 0
v -33 -20 0
v -52 -22 0
v -53 -22 0
v -53 -21 0
v -52 -21 0
v -51 -22 0
v -52 -22 0
v -52 -21 0
v -51 -21 0
v -50 -22 0
v -51 -22 0
v -51 -21 0
v -50 -21 0
v -49 -22 0
v -50 -22 0
v -50 -21 0
v -49 -21 0
v -48 -22 0
v -49 -22 0
v -49 -21 0
v -48 -21 0
v -47 -22 0
v -48 -22 0
v -48 -21 0
v -47 -21 0
v -46 -22 0
v -47 -22 0
v -47 -21 0
v -46 -21 0
v -42 -22 0
v -43 -22 0
v -43 -21 0
v -42 -21 0
v -41 -22 0
v -42 -22 0
v -42 -21 0
v -41 -21 0
v -40 -22 0
v -41 -22 0
v -41 -21 0
v -40 -21 0
v -52 -23 0
v -53 -23 0
v -53 -22 0
v -52 -22 0
v -51 -23 0
v -52 -23 0
v -52 -22 0
v -51 -22 0
v -50 -23 0
v -51 -23 0
v -51 -22 0
v -50 -22 0
v -49 -23 0
v -50 -23 0
v -50 -22 0
v -49 -22 0
v -52 -24 0
v -53 -24 0
v -53 -23 0
v -52 -23 0
v -51 -24 0
v -52 -24 0
v -52 -23 0
v -51 -23 0
v -50 -24 0
v -51 -24 0
v -51 -23 0
v -50 -23 0
v -49 -24 0
v -50 -24 0
v -50 -23 0
v -49 -23 0
v -35 -26 0
v -36 -26 0
v -36 -25 0
v -35 -25 0
v -34 -26 0
v -35 -26 0
v -35 -25 0
v -34 -25 0
v -33 -26 0
v -34 -26 0
v -34 -25 0
v -33 -25 0
v -32 -26 0
v -33 -26 0
v -33 -25 0
v -32 -25 0
v -35 -27 0
v -36 -27 0
v -36 -26 0
v -35 -26 0
v -34 -27 0
v -35 -27 0
v -35 -26 0
v -34 -26 0
v -33 -27 0
v -34 -27 0
v -34 -26 0
v -33 -26 0
v -32 -27 0
v -33 -27 0
v -33 -26 0
v -32 -26 0
v -35 -28 0
v -36 -28 0
v -36 -27 0
v -35 -27 0
v -34 -28 0
v -35 -28 0
v -35 -27 0
v -34 -27 0
v -33 -28 0
v -34 -28 0
v -34 -27 0
v -33 -27 0
v -32 -28 0
v -33 -28 0
v -33 -27 0
v -32 -27 0
v -20 -28 0
v -21 -28 0
v -21 -27 0
v -20 -27 0
v -19 -28 0
v -20 -28 0
v -20 -27 0
v -19 -27 0
v -18 -28 0
v -19 -28 0
v -19 -27 0
v -18 -27 0
v -17 -28 0
v -18 -28 0
v -18 -27 0
v -17 -27 0
v -20 -29 0
v -21 -29 0
v -21 -28 0
v -20 -28 0
v -19 -29 0
v -20 -29 0
v -20 -28 0
v -19 -28 0
v -18 -29 0
v -19 -29 0
v -19 -28 0
v -18 -28 0
v -17 -29 0
v -18 -29 0
v -18 -28 0
v -17 -28 0
v -43 -30 0
v -44 -30 0
v -44 -29 0
v -43 -29 0
v -42 -30 0
v -43 -30 0
v -43 -29 0
v -42 -29 0
v -41 -30 0
v -42 -30 0
v -42 -29 0
v -41 -29 0
v -40 -30 0
v -41 -30 0
v -41 -29 0
v -40 -29 0
v -39 -30 0
v -40 -30 0
v -40 -29 0
v -39 -29 0
v -20 -30 0
v -21 -30 0
v -21 -29 0
v -20 -29 0
v -19 -30 0
v -20 -30 0
v -20 -29 0
v -19 -29 0
v -18 -30 0
v -19 -30 0
v -19 -29 0
v -18 -29 0
v -17 -30 0
v -18 -30 0
v -18 -29 0
v -17 -29 0
v -42 -31 0
v -43 -31 0
v -43 -30 0
v -42 -30 0
v -41 -31 0
v -42 -31 0
v -42 -30 0
v -41 -30 0
v -40 -31 0
v -41 -31 0
v -41 -30 0
v -40 -30 0
v -39 -31 0
v -40 -31 0
v -40 -30 0
v -39 -30 0
v -42 -32 0
v -43 -32 0
v -43 -31 0
v -42 -31 0
v -41 -32 0
v -42 -32 0
v -42 -31 0
v -41 -31 0
v -40 -32 0
v -41 -32 0
v -41 -31 0
v -40 -31 0
v -39 -32 0
v -40 -32 0
v -40 -31 0
v -39 -31 0
v -15 -32 0
v -16 -32 0
v -16 -31 0
v -15 -31 0
v -14 -32 0
v -15 -32 0
v -15 -31 0
v -14 -31 0
v -45 -33 0
v -46 -33 0
v -46 -32 0
v -45 -32 0
v -44 -33 0
v -45 -33 0
v -45 -32 0
v -44 -32 0
v -19 -34 0
v -20 -34 0
v -20 -33 0
v -19 -33 0
v -18 -34 0
v -19 -34 0
v -19 -33 0
v -18 -33 0
v -21 -35 0
v -22 -35 0
v -22 -34 0
v -21 -34 0
v -20 -35 0
v -21 -35 0
v -21 -34 0
v -20 -34 0

# Texture cooridinates (Count = 124)
vt 0.0625408 0.08345538
vt 0.0831029 0.08345538
vt 0.0831029 0.110989
vt 0.0625408 0.110989
vt 0.04173455 0.08345538
vt 0.06229666 0.08345538
vt 0.06229666 0.110989
vt 0.04173455 0.110989
vt 0.02092831 0.08345538
vt 0.04149041 0.08345538
vt 0.04149041 0.110989
vt 0.02092831 0.110989
vt 0.0001220703 0.08345538
vt 0.02068417 0.08345538
vt 0.02068417 0.110989
vt 0.0001220703 0.110989
vt 0.0625408 0.05567765
vt 0.0831029 0.05567765
vt 0.0831029 0.08321124
vt 0.0625408 0.08321124
vt 0.04173455 0.05567765
vt 0.06229666 0.05567765
vt 0.06229666 0.08321124
vt 0.04173455 0.08321124
vt 0.02092831 0.05567765
vt 0.04149041 0.05567765
vt 0.04149041 0.08321124
vt 0.02092831 0.08321124
vt 0.0001220703 0.05567765
vt 0.02068417 0.05567765
vt 0.02068417 0.08321124
vt 0.0001220703 0.08321124
vt 0.0625408 0.02789986
vt 0.0831029 0.02789986
vt 0.0831029 0.05543351
vt 0.0625408 0.05543351
vt 0.04173455 0.02789986
vt 0.06229666 0.02789986
vt 0.06229666 0.05543351
vt 0.04173455 0.05543351
vt 0.02092831 0.02789986
vt 0.04149041 0.02789986
vt 0.04149041 0.05543351
vt 0.02092831 0.05543351
vt 0.0001220703 0.02789986
vt 0.02068417 0.02789986
vt 0.02068417 0.05543351
vt 0.0001220703 0.05543351
vt 0.1249595 0.5278999
vt 0.1455216 0.5278999
vt 0.1455216 0.5554335
vt 0.1249595 0.5554335
vt 0.1041533 0.5278999
vt 0.1247154 0.5278999
vt 0.1247154 0.5554335
vt 0.1041533 0.5554335
vt 0.3330219 0.1667888
vt 0.3535841 0.1667888
vt 0.3535841 0.1943223
vt 0.3330219 0.1943223
vt 0.3122157 0.1667888
vt 0.3327778 0.1667888
vt 0.3327778 0.1943223
vt 0.3122157 0.1943223
vt 0.2914095 0.1667888
vt 0.3119715 0.1667888
vt 0.3119715 0.1943223
vt 0.2914095 0.1943223
vt 0.3538282 0.139011
vt 0.3743903 0.139011
vt 0.3743903 0.1665446
vt 0.3538282 0.1665446
vt 0.3330219 0.139011
vt 0.3535841 0.139011
vt 0.3535841 0.1665446
vt 0.3330219 0.1665446
vt 0.3122157 0.139011
vt 0.3327778 0.139011
vt 0.3327778 0.1665446
vt 0.3122157 0.1665446
vt 0.2914095 0.139011
vt 0.3119715 0.139011
vt 0.3119715 0.1665446
vt 0.2914095 0.1665446
vt 0.3538282 0.1112332
vt 0.3743903 0.1112332
vt 0.3743903 0.1387668
vt 0.3538282 0.1387668
vt 0.3330219 0.1112332
vt 0.3535841 0.1112332
vt 0.3535841 0.1387668
vt 0.3330219 0.1387668
vt 0.3122157 0.1112332
vt 0.3327778 0.1112332
vt 0.3327778 0.1387668
vt 0.3122157 0.1387668
vt 0.2914095 0.1112332
vt 0.3119715 0.1112332
vt 0.3119715 0.1387668
vt 0.2914095 0.1387668
vt 0.3538282 0.1667888
vt 0.3743903 0.1667888
vt 0.3743903 0.1943223
vt 0.3538282 0.1943223
vt 0.2706032 0.9167888
vt 0.2911653 0.9167888
vt 0.2911653 0.9443223
vt 0.2706032 0.9443223
vt 0.249797 0.9167888
vt 0.2703591 0.9167888
vt 0.2703591 0.9443223
vt 0.249797 0.9443223
vt 0.6243093 0.8056777
vt 0.6448714 0.8056777
vt 0.6448714 0.8332112
vt 0.6243093 0.8332112
vt 0.6035031 0.8056777
vt 0.6240652 0.8056777
vt 0.6240652 0.8332112
vt 0.6035031 0.8332112
vt 0.5826969 0.8056777
vt 0.603259 0.8056777
vt 0.603259 0.8332112
vt 0.5826969 0.8332112

# Normal
vn 0 0 -1

# Mesh description
g DiegoSilangLower_mesh_0009

# Faces
f 1/1/1 2/2/1 3/3/1 4/4/1
f 5/5/1 6/6/1 7/7/1 8/8/1
f 9/9/1 10/10/1 11/11/1 12/12/1
f 13/13/1 14/14/1 15/15/1 16/16/1
f 17/17/1 18/18/1 19/19/1 20/20/1
f 21/21/1 22/22/1 23/23/1 24/24/1
f 25/25/1 26/26/1 27/27/1 28/28/1
f 29/29/1 30/30/1 31/31/1 32/32/1
f 33/1/1 34/2/1 35/3/1 36/4/1
f 37/5/1 38/6/1 39/7/1 40/8/1
f 41/9/1 42/10/1 43/11/1 44/12/1
f 45/13/1 46/14/1 47/15/1 48/16/1
f 49/1/1 50/2/1 51/3/1 52/4/1
f 53/5/1 54/6/1 55/7/1 56/8/1
f 57/9/1 58/10/1 59/11/1 60/12/1
f 61/33/1 62/34/1 63/35/1 64/36/1
f 65/37/1 66/38/1 67/39/1 68/40/1
f 69/41/1 70/42/1 71/43/1 72/44/1
f 73/45/1 74/46/1 75/47/1 76/48/1
f 77/17/1 78/18/1 79/19/1 80/20/1
f 81/21/1 82/22/1 83/23/1 84/24/1
f 85/25/1 86/26/1 87/27/1 88/28/1
f 89/29/1 90/30/1 91/31/1 92/32/1
f 93/17/1 94/18/1 95/19/1 96/20/1
f 97/21/1 98/22/1 99/23/1 100/24/1
f 101/25/1 102/26/1 103/27/1 104/28/1
f 105/29/1 106/30/1 107/31/1 108/32/1
f 109/33/1 110/34/1 111/35/1 112/36/1
f 113/37/1 114/38/1 115/39/1 116/40/1
f 117/41/1 118/42/1 119/43/1 120/44/1
f 121/45/1 122/46/1 123/47/1 124/48/1
f 125/33/1 126/34/1 127/35/1 128/36/1
f 129/37/1 130/38/1 131/39/1 132/40/1
f 133/41/1 134/42/1 135/43/1 136/44/1
f 137/45/1 138/46/1 139/47/1 140/48/1
f 141/49/1 142/50/1 143/51/1 144/52/1
f 145/53/1 146/54/1 147/55/1 148/56/1
f 149/49/1 150/50/1 151/51/1 152/52/1
f 153/53/1 154/54/1 155/55/1 156/56/1
f 157/49/1 158/50/1 159/51/1 160/52/1
f 161/53/1 162/54/1 163/55/1 164/56/1
f 165/57/1 166/58/1 167/59/1 168/60/1
f 169/61/1 170/62/1 171/63/1 172/64/1
f 173/65/1 174/66/1 175/67/1 176/68/1
f 177/69/1 178/70/1 179/71/1 180/72/1
f 181/73/1 182/74/1 183/75/1 184/76/1
f 185/77/1 186/78/1 187/79/1 188/80/1
f 189/81/1 190/82/1 191/83/1 192/84/1
f 193/85/1 194/86/1 195/87/1 196/88/1
f 197/89/1 198/90/1 199/91/1 200/92/1
f 201/93/1 202/94/1 203/95/1 204/96/1
f 205/97/1 206/98/1 207/99/1 208/100/1
f 209/101/1 210/102/1 211/103/1 212/104/1
f 213/57/1 214/58/1 215/59/1 216/60/1
f 217/61/1 218/62/1 219/63/1 220/64/1
f 221/1/1 222/2/1 223/3/1 224/4/1
f 225/5/1 226/6/1 227/7/1 228/8/1
f 229/9/1 230/10/1 231/11/1 232/12/1
f 233/49/1 234/50/1 235/51/1 236/52/1
f 237/53/1 238/54/1 239/55/1 240/56/1
f 241/49/1 242/50/1 243/51/1 244/52/1
f 245/53/1 246/54/1 247/55/1 248/56/1
f 249/69/1 250/70/1 251/71/1 252/72/1
f 253/73/1 254/74/1 255/75/1 256/76/1
f 257/77/1 258/78/1 259/79/1 260/80/1
f 261/81/1 262/82/1 263/83/1 264/84/1
f 265/17/1 266/18/1 267/19/1 268/20/1
f 269/21/1 270/22/1 271/23/1 272/24/1
f 273/25/1 274/26/1 275/27/1 276/28/1
f 277/29/1 278/30/1 279/31/1 280/32/1
f 281/85/1 282/86/1 283/87/1 284/88/1
f 285/89/1 286/90/1 287/91/1 288/92/1
f 289/93/1 290/94/1 291/95/1 292/96/1
f 293/97/1 294/98/1 295/99/1 296/100/1
f 297/33/1 298/34/1 299/35/1 300/36/1
f 301/37/1 302/38/1 303/39/1 304/40/1
f 305/41/1 306/42/1 307/43/1 308/44/1
f 309/45/1 310/46/1 311/47/1 312/48/1
f 313/101/1 314/102/1 315/103/1 316/104/1
f 317/57/1 318/58/1 319/59/1 320/60/1
f 321/61/1 322/62/1 323/63/1 324/64/1
f 325/65/1 326/66/1 327/67/1 328/68/1
f 329/69/1 330/70/1 331/71/1 332/72/1
f 333/73/1 334/74/1 335/75/1 336/76/1
f 337/77/1 338/78/1 339/79/1 340/80/1
f 341/49/1 342/50/1 343/51/1 344/52/1
f 345/53/1 346/54/1 347/55/1 348/56/1
f 349/85/1 350/86/1 351/87/1 352/88/1
f 353/89/1 354/90/1 355/91/1 356/92/1
f 357/93/1 358/94/1 359/95/1 360/96/1
f 361/97/1 362/98/1 363/99/1 364/100/1
f 365/105/1 366/106/1 367/107/1 368/108/1
f 369/109/1 370/110/1 371/111/1 372/112/1
f 373/101/1 374/102/1 375/103/1 376/104/1
f 377/57/1 378/58/1 379/59/1 380/60/1
f 381/61/1 382/62/1 383/63/1 384/64/1
f 385/65/1 386/66/1 387/67/1 388/68/1
f 389/101/1 390/102/1 391/103/1 392/104/1
f 393/57/1 394/58/1 395/59/1 396/60/1
f 397/61/1 398/62/1 399/63/1 400/64/1
f 401/65/1 402/66/1 403/67/1 404/68/1
f 405/69/1 406/70/1 407/71/1 408/72/1
f 409/73/1 410/74/1 411/75/1 412/76/1
f 413/77/1 414/78/1 415/79/1 416/80/1
f 417/81/1 418/82/1 419/83/1 420/84/1
f 421/69/1 422/70/1 423/71/1 424/72/1
f 425/73/1 426/74/1 427/75/1 428/76/1
f 429/77/1 430/78/1 431/79/1 432/80/1
f 433/81/1 434/82/1 435/83/1 436/84/1
f 437/85/1 438/86/1 439/87/1 440/88/1
f 441/89/1 442/90/1 443/91/1 444/92/1
f 445/93/1 446/94/1 447/95/1 448/96/1
f 449/97/1 450/98/1 451/99/1 452/100/1
f 453/85/1 454/86/1 455/87/1 456/88/1
f 457/89/1 458/90/1 459/91/1 460/92/1
f 461/93/1 462/94/1 463/95/1 464/96/1
f 465/97/1 466/98/1 467/99/1 468/100/1
f 469/1/1 470/2/1 471/3/1 472/4/1
f 473/5/1 474/6/1 475/7/1 476/8/1
f 477/9/1 478/10/1 479/11/1 480/12/1
f 481/13/1 482/14/1 483/15/1 484/16/1
f 485/113/1 486/114/1 487/115/1 488/116/1
f 489/117/1 490/118/1 491/119/1 492/120/1
f 493/121/1 494/122/1 495/123/1 496/124/1
f 497/113/1 498/114/1 499/115/1 500/116/1
f 501/117/1 502/118/1 503/119/1 504/120/1
f 505/121/1 506/122/1 507/123/1 508/124/1
f 509/17/1 510/18/1 511/19/1 512/20/1
f 513/21/1 514/22/1 515/23/1 516/24/1
f 517/25/1 518/26/1 519/27/1 520/28/1
f 521/29/1 522/30/1 523/31/1 524/32/1
f 525/33/1 526/34/1 527/35/1 528/36/1
f 529/37/1 530/38/1 531/39/1 532/40/1
f 533/41/1 534/42/1 535/43/1 536/44/1
f 537/45/1 538/46/1 539/47/1 540/48/1
f 541/101/1 542/102/1 543/103/1 544/104/1
f 545/57/1 546/58/1 547/59/1 548/60/1
f 549/61/1 550/62/1 551/63/1 552/64/1
f 553/65/1 554/66/1 555/67/1 556/68/1
f 557/69/1 558/70/1 559/71/1 560/72/1
f 561/73/1 562/74/1 563/75/1 564/76/1
f 565/77/1 566/78/1 567/79/1 568/80/1
f 569/81/1 570/82/1 571/83/1 572/84/1
f 573/85/1 574/86/1 575/87/1 576/88/1
f 577/89/1 578/90/1 579/91/1 580/92/1
f 581/93/1 582/94/1 583/95/1 584/96/1
f 585/97/1 586/98/1 587/99/1 588/100/1
f 589/1/1 590/2/1 591/3/1 592/4/1
f 593/5/1 594/6/1 595/7/1 596/8/1
f 597/9/1 598/10/1 599/11/1 600/12/1
f 601/13/1 602/14/1 603/15/1 604/16/1
f 605/17/1 606/18/1 607/19/1 608/20/1
f 609/21/1 610/22/1 611/23/1 612/24/1
f 613/25/1 614/26/1 615/27/1 616/28/1
f 617/29/1 618/30/1 619/31/1 620/32/1
f 621/49/1 622/50/1 623/51/1 624/52/1
f 625/53/1 626/54/1 627/55/1 628/56/1
f 629/5/1 630/6/1 631/7/1 632/8/1
f 633/9/1 634/10/1 635/11/1 636/12/1
f 637/13/1 638/14/1 639/15/1 640/16/1
f 641/33/1 642/34/1 643/35/1 644/36/1
f 645/37/1 646/38/1 647/39/1 648/40/1
f 649/41/1 650/42/1 651/43/1 652/44/1
f 653/45/1 654/46/1 655/47/1 656/48/1
f 657/17/1 658/18/1 659/19/1 660/20/1
f 661/21/1 662/22/1 663/23/1 664/24/1
f 665/25/1 666/26/1 667/27/1 668/28/1
f 669/29/1 670/30/1 671/31/1 672/32/1
f 673/33/1 674/34/1 675/35/1 676/36/1
f 677/37/1 678/38/1 679/39/1 680/40/1
f 681/41/1 682/42/1 683/43/1 684/44/1
f 685/45/1 686/46/1 687/47/1 688/48/1
f 689/49/1 690/50/1 691/51/1 692/52/1
f 693/53/1 694/54/1 695/55/1 696/56/1
f 697/49/1 698/50/1 699/51/1 700/52/1
f 701/53/1 702/54/1 703/55/1 704/56/1
f 705/49/1 706/50/1 707/51/1 708/52/1
f 709/53/1 710/54/1 711/55/1 712/56/1
f 713/49/1 714/50/1 715/51/1 716/52/1
f 717/53/1 718/54/1 719/55/1 720/56/1

