# Tiled2Unity generated file. Do not modify by hand.
# Wavefront file for 'RandomHouse5_mesh_0004.obj'

# Vertices (Count = 60)
v -7 -1 0
v -8 -1 0
v -8 0 0
v -7 0 0
v -6 -1 0
v -7 -1 0
v -7 0 0
v -6 0 0
v -5 -1 0
v -6 -1 0
v -6 0 0
v -5 0 0
v -4 -1 0
v -5 -1 0
v -5 0 0
v -4 0 0
v -3 -1 0
v -4 -1 0
v -4 0 0
v -3 0 0
v -2 -1 0
v -3 -1 0
v -3 0 0
v -2 0 0
v -12 -8 0
v -13 -8 0
v -13 -7 0
v -12 -7 0
v -12 -9 0
v -13 -9 0
v -13 -8 0
v -12 -8 0
v -12 -10 0
v -13 -10 0
v -13 -9 0
v -12 -9 0
v -10 -15 0
v -11 -15 0
v -11 -14 0
v -10 -14 0
v -9 -15 0
v -10 -15 0
v -10 -14 0
v -9 -14 0
v -8 -15 0
v -9 -15 0
v -9 -14 0
v -8 -14 0
v -10 -16 0
v -11 -16 0
v -11 -15 0
v -10 -15 0
v -9 -16 0
v -10 -16 0
v -10 -15 0
v -9 -15 0
v -8 -16 0
v -9 -16 0
v -9 -15 0
v -8 -15 0

# Texture cooridinates (Count = 48)
vt 0.08012207 0.6975216
vt 0.1198779 0.6975216
vt 0.1198779 0.7351025
vt 0.08012207 0.7351025
vt 0.04012207 0.6975216
vt 0.07987793 0.6975216
vt 0.07987793 0.7351025
vt 0.04012207 0.7351025
vt 0.0001220703 0.6975216
vt 0.03987793 0.6975216
vt 0.03987793 0.7351025
vt 0.0001220703 0.7351025
vt 0.2801221 0.6218715
vt 0.3198779 0.6218715
vt 0.3198779 0.6594524
vt 0.2801221 0.6594524
vt 0.2801221 0.5840464
vt 0.3198779 0.5840464
vt 0.3198779 0.6216273
vt 0.2801221 0.6216273
vt 0.2801221 0.5462214
vt 0.3198779 0.5462214
vt 0.3198779 0.5838023
vt 0.2801221 0.5838023
vt 0.08012207 0.8109968
vt 0.1198779 0.8109968
vt 0.1198779 0.8485777
vt 0.08012207 0.8485777
vt 0.04012207 0.8109968
vt 0.07987793 0.8109968
vt 0.07987793 0.8485777
vt 0.04012207 0.8485777
vt 0.0001220703 0.8109968
vt 0.03987793 0.8109968
vt 0.03987793 0.8485777
vt 0.0001220703 0.8485777
vt 0.08012207 0.7353467
vt 0.1198779 0.7353467
vt 0.1198779 0.7729276
vt 0.08012207 0.7729276
vt 0.04012207 0.7353467
vt 0.07987793 0.7353467
vt 0.07987793 0.7729276
vt 0.04012207 0.7729276
vt 0.0001220703 0.7353467
vt 0.03987793 0.7353467
vt 0.03987793 0.7729276
vt 0.0001220703 0.7729276

# Normal
vn 0 0 -1

# Mesh description
g RandomHouse5_mesh_0004

# Faces
f 1/1/1 2/2/1 3/3/1 4/4/1
f 5/5/1 6/6/1 7/7/1 8/8/1
f 9/9/1 10/10/1 11/11/1 12/12/1
f 13/1/1 14/2/1 15/3/1 16/4/1
f 17/5/1 18/6/1 19/7/1 20/8/1
f 21/9/1 22/10/1 23/11/1 24/12/1
f 25/13/1 26/14/1 27/15/1 28/16/1
f 29/17/1 30/18/1 31/19/1 32/20/1
f 33/21/1 34/22/1 35/23/1 36/24/1
f 37/25/1 38/26/1 39/27/1 40/28/1
f 41/29/1 42/30/1 43/31/1 44/32/1
f 45/33/1 46/34/1 47/35/1 48/36/1
f 49/37/1 50/38/1 51/39/1 52/40/1
f 53/41/1 54/42/1 55/43/1 56/44/1
f 57/45/1 58/46/1 59/47/1 60/48/1

