# Tiled2Unity generated file. Do not modify by hand.
# Wavefront file for 'RandomHouse5_mesh_0005.obj'

# Vertices (Count = 72)
v -17 -4 0
v -18 -4 0
v -18 -3 0
v -17 -3 0
v -16 -4 0
v -17 -4 0
v -17 -3 0
v -16 -3 0
v -1 -4 0
v -2 -4 0
v -2 -3 0
v -1 -3 0
v 0 -4 0
v -1 -4 0
v -1 -3 0
v 0 -3 0
v -15 -7 0
v -16 -7 0
v -16 -6 0
v -15 -6 0
v -15 -10 0
v -16 -10 0
v -16 -9 0
v -15 -9 0
v -14 -10 0
v -15 -10 0
v -15 -9 0
v -14 -9 0
v -13 -10 0
v -14 -10 0
v -14 -9 0
v -13 -9 0
v -12 -10 0
v -13 -10 0
v -13 -9 0
v -12 -9 0
v -11 -10 0
v -12 -10 0
v -12 -9 0
v -11 -9 0
v -10 -10 0
v -11 -10 0
v -11 -9 0
v -10 -9 0
v -17 -15 0
v -18 -15 0
v -18 -14 0
v -17 -14 0
v -16 -15 0
v -17 -15 0
v -17 -14 0
v -16 -14 0
v -1 -15 0
v -2 -15 0
v -2 -14 0
v -1 -14 0
v 0 -15 0
v -1 -15 0
v -1 -14 0
v 0 -14 0
v -10 -18 0
v -11 -18 0
v -11 -17 0
v -10 -17 0
v -9 -18 0
v -10 -18 0
v -10 -17 0
v -9 -17 0
v -8 -18 0
v -9 -18 0
v -9 -17 0
v -8 -17 0

# Texture cooridinates (Count = 36)
vt 0.3198779 0.962297
vt 0.3198779 0.9998779
vt 0.2801221 0.9998779
vt 0.2801221 0.962297
vt 0.3198779 0.924472
vt 0.3198779 0.9620529
vt 0.2801221 0.9620529
vt 0.2801221 0.924472
vt 0.3201221 0.6218715
vt 0.3598779 0.6218715
vt 0.3598779 0.6594524
vt 0.3201221 0.6594524
vt 0.08012207 0.962297
vt 0.1198779 0.962297
vt 0.1198779 0.9998779
vt 0.08012207 0.9998779
vt 0.04012207 0.962297
vt 0.07987793 0.962297
vt 0.07987793 0.9998779
vt 0.04012207 0.9998779
vt 0.0001220703 0.962297
vt 0.03987793 0.962297
vt 0.03987793 0.9998779
vt 0.0001220703 0.9998779
vt 0.5601221 0.432502
vt 0.5601221 0.3949211
vt 0.599878 0.3949211
vt 0.599878 0.432502
vt 0.5601221 0.4703271
vt 0.5601221 0.4327462
vt 0.599878 0.4327462
vt 0.599878 0.4703271
vt 0.5601221 0.5081521
vt 0.5601221 0.4705712
vt 0.599878 0.4705712
vt 0.599878 0.5081521

# Normal
vn 0 0 -1

# Mesh description
g RandomHouse5_mesh_0005

# Faces
f 1/1/1 2/2/1 3/3/1 4/4/1
f 5/5/1 6/6/1 7/7/1 8/8/1
f 9/7/1 10/8/1 11/5/1 12/6/1
f 13/3/1 14/4/1 15/1/1 16/2/1
f 17/9/1 18/10/1 19/11/1 20/12/1
f 21/13/1 22/14/1 23/15/1 24/16/1
f 25/17/1 26/18/1 27/19/1 28/20/1
f 29/21/1 30/22/1 31/23/1 32/24/1
f 33/13/1 34/14/1 35/15/1 36/16/1
f 37/17/1 38/18/1 39/19/1 40/20/1
f 41/21/1 42/22/1 43/23/1 44/24/1
f 45/1/1 46/2/1 47/3/1 48/4/1
f 49/5/1 50/6/1 51/7/1 52/8/1
f 53/7/1 54/8/1 55/5/1 56/6/1
f 57/3/1 58/4/1 59/1/1 60/2/1
f 61/25/1 62/26/1 63/27/1 64/28/1
f 65/29/1 66/30/1 67/31/1 68/32/1
f 69/33/1 70/34/1 71/35/1 72/36/1

