# Tiled2Unity generated file. Do not modify by hand.
# Wavefront file for 'RandomHouse5_mesh_0002.obj'

# Vertices (Count = 320)
v -8 -1 0
v -9 -1 0
v -9 0 0
v -8 0 0
v -15 -2 0
v -16 -2 0
v -16 -1 0
v -15 -1 0
v -14 -2 0
v -15 -2 0
v -15 -1 0
v -14 -1 0
v -11 -2 0
v -12 -2 0
v -12 -1 0
v -11 -1 0
v -10 -2 0
v -11 -2 0
v -11 -1 0
v -10 -1 0
v -8 -2 0
v -9 -2 0
v -9 -1 0
v -8 -1 0
v -7 -2 0
v -8 -2 0
v -8 -1 0
v -7 -1 0
v -6 -2 0
v -7 -2 0
v -7 -1 0
v -6 -1 0
v -5 -2 0
v -6 -2 0
v -6 -1 0
v -5 -1 0
v -4 -2 0
v -5 -2 0
v -5 -1 0
v -4 -1 0
v -3 -2 0
v -4 -2 0
v -4 -1 0
v -3 -1 0
v -2 -2 0
v -3 -2 0
v -3 -1 0
v -2 -1 0
v -15 -3 0
v -16 -3 0
v -16 -2 0
v -15 -2 0
v -14 -3 0
v -15 -3 0
v -15 -2 0
v -14 -2 0
v -11 -3 0
v -12 -3 0
v -12 -2 0
v -11 -2 0
v -10 -3 0
v -11 -3 0
v -11 -2 0
v -10 -2 0
v -8 -3 0
v -9 -3 0
v -9 -2 0
v -8 -2 0
v -7 -3 0
v -8 -3 0
v -8 -2 0
v -7 -2 0
v -6 -3 0
v -7 -3 0
v -7 -2 0
v -6 -2 0
v -5 -3 0
v -6 -3 0
v -6 -2 0
v -5 -2 0
v -4 -3 0
v -5 -3 0
v -5 -2 0
v -4 -2 0
v -3 -3 0
v -4 -3 0
v -4 -2 0
v -3 -2 0
v -2 -3 0
v -3 -3 0
v -3 -2 0
v -2 -2 0
v -17 -4 0
v -18 -4 0
v -18 -3 0
v -17 -3 0
v -16 -4 0
v -17 -4 0
v -17 -3 0
v -16 -3 0
v -15 -4 0
v -16 -4 0
v -16 -3 0
v -15 -3 0
v -14 -4 0
v -15 -4 0
v -15 -3 0
v -14 -3 0
v -11 -4 0
v -12 -4 0
v -12 -3 0
v -11 -3 0
v -10 -4 0
v -11 -4 0
v -11 -3 0
v -10 -3 0
v -8 -4 0
v -9 -4 0
v -9 -3 0
v -8 -3 0
v -1 -4 0
v -2 -4 0
v -2 -3 0
v -1 -3 0
v 0 -4 0
v -1 -4 0
v -1 -3 0
v 0 -3 0
v -17 -5 0
v -18 -5 0
v -18 -4 0
v -17 -4 0
v -16 -5 0
v -17 -5 0
v -17 -4 0
v -16 -4 0
v -8 -5 0
v -9 -5 0
v -9 -4 0
v -8 -4 0
v -1 -5 0
v -2 -5 0
v -2 -4 0
v -1 -4 0
v 0 -5 0
v -1 -5 0
v -1 -4 0
v 0 -4 0
v -17 -6 0
v -18 -6 0
v -18 -5 0
v -17 -5 0
v -16 -6 0
v -17 -6 0
v -17 -5 0
v -16 -5 0
v -8 -6 0
v -9 -6 0
v -9 -5 0
v -8 -5 0
v -1 -6 0
v -2 -6 0
v -2 -5 0
v -1 -5 0
v 0 -6 0
v -1 -6 0
v -1 -5 0
v 0 -5 0
v -13 -7 0
v -14 -7 0
v -14 -6 0
v -13 -6 0
v -12 -7 0
v -13 -7 0
v -13 -6 0
v -12 -6 0
v -11 -7 0
v -12 -7 0
v -12 -6 0
v -11 -6 0
v -15 -8 0
v -16 -8 0
v -16 -7 0
v -15 -7 0
v -13 -8 0
v -14 -8 0
v -14 -7 0
v -13 -7 0
v -12 -8 0
v -13 -8 0
v -13 -7 0
v -12 -7 0
v -11 -8 0
v -12 -8 0
v -12 -7 0
v -11 -7 0
v -15 -9 0
v -16 -9 0
v -16 -8 0
v -15 -8 0
v -13 -9 0
v -14 -9 0
v -14 -8 0
v -13 -8 0
v -12 -9 0
v -13 -9 0
v -13 -8 0
v -12 -8 0
v -11 -9 0
v -12 -9 0
v -12 -8 0
v -11 -8 0
v -15 -11 0
v -16 -11 0
v -16 -10 0
v -15 -10 0
v -14 -11 0
v -15 -11 0
v -15 -10 0
v -14 -10 0
v -13 -11 0
v -14 -11 0
v -14 -10 0
v -13 -10 0
v -12 -11 0
v -13 -11 0
v -13 -10 0
v -12 -10 0
v -11 -11 0
v -12 -11 0
v -12 -10 0
v -11 -10 0
v -10 -11 0
v -11 -11 0
v -11 -10 0
v -10 -10 0
v -15 -12 0
v -16 -12 0
v -16 -11 0
v -15 -11 0
v -14 -12 0
v -15 -12 0
v -15 -11 0
v -14 -11 0
v -13 -12 0
v -14 -12 0
v -14 -11 0
v -13 -11 0
v -12 -12 0
v -13 -12 0
v -13 -11 0
v -12 -11 0
v -11 -12 0
v -12 -12 0
v -12 -11 0
v -11 -11 0
v -10 -12 0
v -11 -12 0
v -11 -11 0
v -10 -11 0
v -17 -13 0
v -18 -13 0
v -18 -12 0
v -17 -12 0
v -16 -13 0
v -17 -13 0
v -17 -12 0
v -16 -12 0
v -1 -13 0
v -2 -13 0
v -2 -12 0
v -1 -12 0
v 0 -13 0
v -1 -13 0
v -1 -12 0
v 0 -12 0
v -17 -14 0
v -18 -14 0
v -18 -13 0
v -17 -13 0
v -16 -14 0
v -17 -14 0
v -17 -13 0
v -16 -13 0
v -1 -14 0
v -2 -14 0
v -2 -13 0
v -1 -13 0
v 0 -14 0
v -1 -14 0
v -1 -13 0
v 0 -13 0
v -17 -15 0
v -18 -15 0
v -18 -14 0
v -17 -14 0
v -16 -15 0
v -17 -15 0
v -17 -14 0
v -16 -14 0
v -1 -15 0
v -2 -15 0
v -2 -14 0
v -1 -14 0
v 0 -15 0
v -1 -15 0
v -1 -14 0
v 0 -14 0
v -10 -17 0
v -11 -17 0
v -11 -16 0
v -10 -16 0
v -9 -17 0
v -10 -17 0
v -10 -16 0
v -9 -16 0
v -8 -17 0
v -9 -17 0
v -9 -16 0
v -8 -16 0

# Texture cooridinates (Count = 168)
vt 0.1201221 0.6218715
vt 0.1598779 0.6218715
vt 0.1598779 0.6594524
vt 0.1201221 0.6594524
vt 0.6001221 0.8488218
vt 0.6398779 0.8488218
vt 0.6398779 0.8864027
vt 0.6001221 0.8864027
vt 0.5601221 0.8488218
vt 0.599878 0.8488218
vt 0.599878 0.8864027
vt 0.5601221 0.8864027
vt 0.1201221 0.5840464
vt 0.1598779 0.5840464
vt 0.1598779 0.6216273
vt 0.1201221 0.6216273
vt 0.08012207 0.5840464
vt 0.1198779 0.5840464
vt 0.1198779 0.6216273
vt 0.08012207 0.6216273
vt 0.04012207 0.5840464
vt 0.07987793 0.5840464
vt 0.07987793 0.6216273
vt 0.04012207 0.6216273
vt 0.0001220703 0.5840464
vt 0.03987793 0.5840464
vt 0.03987793 0.6216273
vt 0.0001220703 0.6216273
vt 0.6001221 0.8109968
vt 0.6398779 0.8109968
vt 0.6398779 0.8485777
vt 0.6001221 0.8485777
vt 0.5601221 0.8109968
vt 0.599878 0.8109968
vt 0.599878 0.8485777
vt 0.5601221 0.8485777
vt 0.08012207 0.5462214
vt 0.1198779 0.5462214
vt 0.1198779 0.5838023
vt 0.08012207 0.5838023
vt 0.04012207 0.5462214
vt 0.07987793 0.5462214
vt 0.07987793 0.5838023
vt 0.04012207 0.5838023
vt 0.0001220703 0.5462214
vt 0.03987793 0.5462214
vt 0.03987793 0.5838023
vt 0.0001220703 0.5838023
vt 0.6398779 0.5840464
vt 0.6398779 0.6216273
vt 0.6001221 0.6216273
vt 0.6001221 0.5840464
vt 0.6398779 0.5462214
vt 0.6398779 0.5838023
vt 0.6001221 0.5838023
vt 0.6001221 0.5462214
vt 0.6001221 0.7731717
vt 0.6398779 0.7731717
vt 0.6398779 0.8107526
vt 0.6001221 0.8107526
vt 0.5601221 0.7731717
vt 0.599878 0.7731717
vt 0.599878 0.8107526
vt 0.5601221 0.8107526
vt 0.6801221 0.5838023
vt 0.6801221 0.5462214
vt 0.719878 0.5462214
vt 0.719878 0.5838023
vt 0.6801221 0.6216273
vt 0.6801221 0.5840464
vt 0.719878 0.5840464
vt 0.719878 0.6216273
vt 0.6798779 0.5840464
vt 0.6798779 0.6216273
vt 0.6401221 0.6216273
vt 0.6401221 0.5840464
vt 0.6798779 0.5462214
vt 0.6798779 0.5838023
vt 0.6401221 0.5838023
vt 0.6401221 0.5462214
vt 0.1201221 0.5462214
vt 0.1598779 0.5462214
vt 0.1598779 0.5838023
vt 0.1201221 0.5838023
vt 0.1201221 0.5083963
vt 0.1598779 0.5083963
vt 0.1598779 0.5459772
vt 0.1201221 0.5459772
vt 0.3601221 0.8866469
vt 0.3998779 0.8866469
vt 0.3998779 0.9242278
vt 0.3601221 0.9242278
vt 0.3201221 0.8866469
vt 0.3598779 0.8866469
vt 0.3598779 0.9242278
vt 0.3201221 0.9242278
vt 0.2801221 0.8866469
vt 0.3198779 0.8866469
vt 0.3198779 0.9242278
vt 0.2801221 0.9242278
vt 0.3201221 0.5840464
vt 0.3598779 0.5840464
vt 0.3598779 0.6216273
vt 0.3201221 0.6216273
vt 0.3601221 0.8488218
vt 0.3998779 0.8488218
vt 0.3998779 0.8864027
vt 0.3601221 0.8864027
vt 0.3201221 0.8488218
vt 0.3598779 0.8488218
vt 0.3598779 0.8864027
vt 0.3201221 0.8864027
vt 0.2801221 0.8488218
vt 0.3198779 0.8488218
vt 0.3198779 0.8864027
vt 0.2801221 0.8864027
vt 0.3201221 0.5462214
vt 0.3598779 0.5462214
vt 0.3598779 0.5838023
vt 0.3201221 0.5838023
vt 0.3601221 0.8109968
vt 0.3998779 0.8109968
vt 0.3998779 0.8485777
vt 0.3601221 0.8485777
vt 0.3201221 0.8109968
vt 0.3598779 0.8109968
vt 0.3598779 0.8485777
vt 0.3201221 0.8485777
vt 0.2801221 0.8109968
vt 0.3198779 0.8109968
vt 0.3198779 0.8485777
vt 0.2801221 0.8485777
vt 0.08012207 0.924472
vt 0.1198779 0.924472
vt 0.1198779 0.9620529
vt 0.08012207 0.9620529
vt 0.04012207 0.924472
vt 0.07987793 0.924472
vt 0.07987793 0.9620529
vt 0.04012207 0.9620529
vt 0.0001220703 0.924472
vt 0.03987793 0.924472
vt 0.03987793 0.9620529
vt 0.0001220703 0.9620529
vt 0.08012207 0.8866469
vt 0.1198779 0.8866469
vt 0.1198779 0.9242278
vt 0.08012207 0.9242278
vt 0.04012207 0.8866469
vt 0.07987793 0.8866469
vt 0.07987793 0.9242278
vt 0.04012207 0.9242278
vt 0.0001220703 0.8866469
vt 0.03987793 0.8866469
vt 0.03987793 0.9242278
vt 0.0001220703 0.9242278
vt 0.6001221 0.432502
vt 0.6001221 0.3949211
vt 0.6398779 0.3949211
vt 0.6398779 0.432502
vt 0.6001221 0.4703271
vt 0.6001221 0.4327462
vt 0.6398779 0.4327462
vt 0.6398779 0.4703271
vt 0.6001221 0.5081521
vt 0.6001221 0.4705712
vt 0.6398779 0.4705712
vt 0.6398779 0.5081521

# Normal
vn 0 0 -1

# Mesh description
g RandomHouse5_mesh_0002

# Faces
f 1/1/1 2/2/1 3/3/1 4/4/1
f 5/5/1 6/6/1 7/7/1 8/8/1
f 9/9/1 10/10/1 11/11/1 12/12/1
f 13/5/1 14/6/1 15/7/1 16/8/1
f 17/9/1 18/10/1 19/11/1 20/12/1
f 21/13/1 22/14/1 23/15/1 24/16/1
f 25/17/1 26/18/1 27/19/1 28/20/1
f 29/21/1 30/22/1 31/23/1 32/24/1
f 33/25/1 34/26/1 35/27/1 36/28/1
f 37/17/1 38/18/1 39/19/1 40/20/1
f 41/21/1 42/22/1 43/23/1 44/24/1
f 45/25/1 46/26/1 47/27/1 48/28/1
f 49/29/1 50/30/1 51/31/1 52/32/1
f 53/33/1 54/34/1 55/35/1 56/36/1
f 57/29/1 58/30/1 59/31/1 60/32/1
f 61/33/1 62/34/1 63/35/1 64/36/1
f 65/13/1 66/14/1 67/15/1 68/16/1
f 69/37/1 70/38/1 71/39/1 72/40/1
f 73/41/1 74/42/1 75/43/1 76/44/1
f 77/45/1 78/46/1 79/47/1 80/48/1
f 81/37/1 82/38/1 83/39/1 84/40/1
f 85/41/1 86/42/1 87/43/1 88/44/1
f 89/45/1 90/46/1 91/47/1 92/48/1
f 93/49/1 94/50/1 95/51/1 96/52/1
f 97/53/1 98/54/1 99/55/1 100/56/1
f 101/57/1 102/58/1 103/59/1 104/60/1
f 105/61/1 106/62/1 107/63/1 108/64/1
f 109/57/1 110/58/1 111/59/1 112/60/1
f 113/61/1 114/62/1 115/63/1 116/64/1
f 117/13/1 118/14/1 119/15/1 120/16/1
f 121/65/1 122/66/1 123/67/1 124/68/1
f 125/69/1 126/70/1 127/71/1 128/72/1
f 129/73/1 130/74/1 131/75/1 132/76/1
f 133/77/1 134/78/1 135/79/1 136/80/1
f 137/81/1 138/82/1 139/83/1 140/84/1
f 141/79/1 142/80/1 143/77/1 144/78/1
f 145/75/1 146/76/1 147/73/1 148/74/1
f 149/71/1 150/72/1 151/69/1 152/70/1
f 153/67/1 154/68/1 155/65/1 156/66/1
f 157/85/1 158/86/1 159/87/1 160/88/1
f 161/55/1 162/56/1 163/53/1 164/54/1
f 165/51/1 166/52/1 167/49/1 168/50/1
f 169/89/1 170/90/1 171/91/1 172/92/1
f 173/93/1 174/94/1 175/95/1 176/96/1
f 177/97/1 178/98/1 179/99/1 180/100/1
f 181/101/1 182/102/1 183/103/1 184/104/1
f 185/105/1 186/106/1 187/107/1 188/108/1
f 189/109/1 190/110/1 191/111/1 192/112/1
f 193/113/1 194/114/1 195/115/1 196/116/1
f 197/117/1 198/118/1 199/119/1 200/120/1
f 201/121/1 202/122/1 203/123/1 204/124/1
f 205/125/1 206/126/1 207/127/1 208/128/1
f 209/129/1 210/130/1 211/131/1 212/132/1
f 213/133/1 214/134/1 215/135/1 216/136/1
f 217/137/1 218/138/1 219/139/1 220/140/1
f 221/141/1 222/142/1 223/143/1 224/144/1
f 225/133/1 226/134/1 227/135/1 228/136/1
f 229/137/1 230/138/1 231/139/1 232/140/1
f 233/141/1 234/142/1 235/143/1 236/144/1
f 237/145/1 238/146/1 239/147/1 240/148/1
f 241/149/1 242/150/1 243/151/1 244/152/1
f 245/153/1 246/154/1 247/155/1 248/156/1
f 249/145/1 250/146/1 251/147/1 252/148/1
f 253/149/1 254/150/1 255/151/1 256/152/1
f 257/153/1 258/154/1 259/155/1 260/156/1
f 261/49/1 262/50/1 263/51/1 264/52/1
f 265/53/1 266/54/1 267/55/1 268/56/1
f 269/65/1 270/66/1 271/67/1 272/68/1
f 273/69/1 274/70/1 275/71/1 276/72/1
f 277/73/1 278/74/1 279/75/1 280/76/1
f 281/77/1 282/78/1 283/79/1 284/80/1
f 285/79/1 286/80/1 287/77/1 288/78/1
f 289/75/1 290/76/1 291/73/1 292/74/1
f 293/71/1 294/72/1 295/69/1 296/70/1
f 297/67/1 298/68/1 299/65/1 300/66/1
f 301/55/1 302/56/1 303/53/1 304/54/1
f 305/51/1 306/52/1 307/49/1 308/50/1
f 309/157/1 310/158/1 311/159/1 312/160/1
f 313/161/1 314/162/1 315/163/1 316/164/1
f 317/165/1 318/166/1 319/167/1 320/168/1

