# Tiled2Unity generated file. Do not modify by hand.
# Wavefront file for 'Silad_mesh_0004.obj'

# Vertices (Count = 700)
v -24 -2 0
v -25 -2 0
v -25 -1 0
v -24 -1 0
v -25 -2 0
v -26 -2 0
v -26 -1 0
v -25 -1 0
v -35 -3 0
v -36 -3 0
v -36 -2 0
v -35 -2 0
v -36 -3 0
v -37 -3 0
v -37 -2 0
v -36 -2 0
v -37 -3 0
v -38 -3 0
v -38 -2 0
v -37 -2 0
v -38 -3 0
v -39 -3 0
v -39 -2 0
v -38 -2 0
v -6 -4 0
v -7 -4 0
v -7 -3 0
v -6 -3 0
v -7 -4 0
v -8 -4 0
v -8 -3 0
v -7 -3 0
v -35 -4 0
v -36 -4 0
v -36 -3 0
v -35 -3 0
v -36 -4 0
v -37 -4 0
v -37 -3 0
v -36 -3 0
v -37 -4 0
v -38 -4 0
v -38 -3 0
v -37 -3 0
v -38 -4 0
v -39 -4 0
v -39 -3 0
v -38 -3 0
v -35 -5 0
v -36 -5 0
v -36 -4 0
v -35 -4 0
v -36 -5 0
v -37 -5 0
v -37 -4 0
v -36 -4 0
v -37 -5 0
v -38 -5 0
v -38 -4 0
v -37 -4 0
v -38 -5 0
v -39 -5 0
v -39 -4 0
v -38 -4 0
v -43 -5 0
v -44 -5 0
v -44 -4 0
v -43 -4 0
v -44 -5 0
v -45 -5 0
v -45 -4 0
v -44 -4 0
v -31 -8 0
v -32 -8 0
v -32 -7 0
v -31 -7 0
v -32 -8 0
v -33 -8 0
v -33 -7 0
v -32 -7 0
v -33 -8 0
v -34 -8 0
v -34 -7 0
v -33 -7 0
v -34 -8 0
v -35 -8 0
v -35 -7 0
v -34 -7 0
v -21 -9 0
v -22 -9 0
v -22 -8 0
v -21 -8 0
v -22 -9 0
v -23 -9 0
v -23 -8 0
v -22 -8 0
v -23 -9 0
v -24 -9 0
v -24 -8 0
v -23 -8 0
v -31 -9 0
v -32 -9 0
v -32 -8 0
v -31 -8 0
v -32 -9 0
v -33 -9 0
v -33 -8 0
v -32 -8 0
v -33 -9 0
v -34 -9 0
v -34 -8 0
v -33 -8 0
v -34 -9 0
v -35 -9 0
v -35 -8 0
v -34 -8 0
v -27 -10 0
v -28 -10 0
v -28 -9 0
v -27 -9 0
v -28 -10 0
v -29 -10 0
v -29 -9 0
v -28 -9 0
v -31 -10 0
v -32 -10 0
v -32 -9 0
v -31 -9 0
v -32 -10 0
v -33 -10 0
v -33 -9 0
v -32 -9 0
v -33 -10 0
v -34 -10 0
v -34 -9 0
v -33 -9 0
v -34 -10 0
v -35 -10 0
v -35 -9 0
v -34 -9 0
v -45 -10 0
v -46 -10 0
v -46 -9 0
v -45 -9 0
v -46 -10 0
v -47 -10 0
v -47 -9 0
v -46 -9 0
v -47 -10 0
v -48 -10 0
v -48 -9 0
v -47 -9 0
v -48 -10 0
v -49 -10 0
v -49 -9 0
v -48 -9 0
v -2 -11 0
v -3 -11 0
v -3 -10 0
v -2 -10 0
v -3 -11 0
v -4 -11 0
v -4 -10 0
v -3 -10 0
v -18 -11 0
v -19 -11 0
v -19 -10 0
v -18 -10 0
v -19 -11 0
v -20 -11 0
v -20 -10 0
v -19 -10 0
v -27 -11 0
v -28 -11 0
v -28 -10 0
v -27 -10 0
v -28 -11 0
v -29 -11 0
v -29 -10 0
v -28 -10 0
v -31 -11 0
v -32 -11 0
v -32 -10 0
v -31 -10 0
v -32 -11 0
v -33 -11 0
v -33 -10 0
v -32 -10 0
v -45 -11 0
v -46 -11 0
v -46 -10 0
v -45 -10 0
v -46 -11 0
v -47 -11 0
v -47 -10 0
v -46 -10 0
v -47 -11 0
v -48 -11 0
v -48 -10 0
v -47 -10 0
v -48 -11 0
v -49 -11 0
v -49 -10 0
v -48 -10 0
v -7 -12 0
v -8 -12 0
v -8 -11 0
v -7 -11 0
v -8 -12 0
v -9 -12 0
v -9 -11 0
v -8 -11 0
v -9 -12 0
v -10 -12 0
v -10 -11 0
v -9 -11 0
v -10 -12 0
v -11 -12 0
v -11 -11 0
v -10 -11 0
v -45 -12 0
v -46 -12 0
v -46 -11 0
v -45 -11 0
v -46 -12 0
v -47 -12 0
v -47 -11 0
v -46 -11 0
v -47 -12 0
v -48 -12 0
v -48 -11 0
v -47 -11 0
v -48 -12 0
v -49 -12 0
v -49 -11 0
v -48 -11 0
v -7 -13 0
v -8 -13 0
v -8 -12 0
v -7 -12 0
v -8 -13 0
v -9 -13 0
v -9 -12 0
v -8 -12 0
v -9 -13 0
v -10 -13 0
v -10 -12 0
v -9 -12 0
v -10 -13 0
v -11 -13 0
v -11 -12 0
v -10 -12 0
v -7 -14 0
v -8 -14 0
v -8 -13 0
v -7 -13 0
v -8 -14 0
v -9 -14 0
v -9 -13 0
v -8 -13 0
v -9 -14 0
v -10 -14 0
v -10 -13 0
v -9 -13 0
v -10 -14 0
v -11 -14 0
v -11 -13 0
v -10 -13 0
v -7 -15 0
v -8 -15 0
v -8 -14 0
v -7 -14 0
v -8 -15 0
v -9 -15 0
v -9 -14 0
v -8 -14 0
v -23 -15 0
v -24 -15 0
v -24 -14 0
v -23 -14 0
v -24 -15 0
v -25 -15 0
v -25 -14 0
v -24 -14 0
v -25 -15 0
v -26 -15 0
v -26 -14 0
v -25 -14 0
v -37 -15 0
v -38 -15 0
v -38 -14 0
v -37 -14 0
v -38 -15 0
v -39 -15 0
v -39 -14 0
v -38 -14 0
v -39 -15 0
v -40 -15 0
v -40 -14 0
v -39 -14 0
v -40 -15 0
v -41 -15 0
v -41 -14 0
v -40 -14 0
v -37 -16 0
v -38 -16 0
v -38 -15 0
v -37 -15 0
v -38 -16 0
v -39 -16 0
v -39 -15 0
v -38 -15 0
v -39 -16 0
v -40 -16 0
v -40 -15 0
v -39 -15 0
v -40 -16 0
v -41 -16 0
v -41 -15 0
v -40 -15 0
v -37 -17 0
v -38 -17 0
v -38 -16 0
v -37 -16 0
v -38 -17 0
v -39 -17 0
v -39 -16 0
v -38 -16 0
v -39 -17 0
v -40 -17 0
v -40 -16 0
v -39 -16 0
v -40 -17 0
v -41 -17 0
v -41 -16 0
v -40 -16 0
v -37 -18 0
v -38 -18 0
v -38 -17 0
v -37 -17 0
v -38 -18 0
v -39 -18 0
v -39 -17 0
v -38 -17 0
v -5 -22 0
v -6 -22 0
v -6 -21 0
v -5 -21 0
v -6 -22 0
v -7 -22 0
v -7 -21 0
v -6 -21 0
v -5 -23 0
v -6 -23 0
v -6 -22 0
v -5 -22 0
v -6 -23 0
v -7 -23 0
v -7 -22 0
v -6 -22 0
v -23 -24 0
v -24 -24 0
v -24 -23 0
v -23 -23 0
v -24 -24 0
v -25 -24 0
v -25 -23 0
v -24 -23 0
v -46 -24 0
v -47 -24 0
v -47 -23 0
v -46 -23 0
v -47 -24 0
v -48 -24 0
v -48 -23 0
v -47 -23 0
v -43 -29 0
v -44 -29 0
v -44 -28 0
v -43 -28 0
v -44 -29 0
v -45 -29 0
v -45 -28 0
v -44 -28 0
v -29 -30 0
v -30 -30 0
v -30 -29 0
v -29 -29 0
v -30 -30 0
v -31 -30 0
v -31 -29 0
v -30 -29 0
v -31 -30 0
v -32 -30 0
v -32 -29 0
v -31 -29 0
v -43 -30 0
v -44 -30 0
v -44 -29 0
v -43 -29 0
v -44 -30 0
v -45 -30 0
v -45 -29 0
v -44 -29 0
v -3 -31 0
v -4 -31 0
v -4 -30 0
v -3 -30 0
v -4 -31 0
v -5 -31 0
v -5 -30 0
v -4 -30 0
v -5 -31 0
v -6 -31 0
v -6 -30 0
v -5 -30 0
v -6 -31 0
v -7 -31 0
v -7 -30 0
v -6 -30 0
v -3 -32 0
v -4 -32 0
v -4 -31 0
v -3 -31 0
v -4 -32 0
v -5 -32 0
v -5 -31 0
v -4 -31 0
v -5 -32 0
v -6 -32 0
v -6 -31 0
v -5 -31 0
v -6 -32 0
v -7 -32 0
v -7 -31 0
v -6 -31 0
v -10 -32 0
v -11 -32 0
v -11 -31 0
v -10 -31 0
v -11 -32 0
v -12 -32 0
v -12 -31 0
v -11 -31 0
v -12 -32 0
v -13 -32 0
v -13 -31 0
v -12 -31 0
v -13 -32 0
v -14 -32 0
v -14 -31 0
v -13 -31 0
v -3 -33 0
v -4 -33 0
v -4 -32 0
v -3 -32 0
v -4 -33 0
v -5 -33 0
v -5 -32 0
v -4 -32 0
v -5 -33 0
v -6 -33 0
v -6 -32 0
v -5 -32 0
v -6 -33 0
v -7 -33 0
v -7 -32 0
v -6 -32 0
v -10 -33 0
v -11 -33 0
v -11 -32 0
v -10 -32 0
v -11 -33 0
v -12 -33 0
v -12 -32 0
v -11 -32 0
v -12 -33 0
v -13 -33 0
v -13 -32 0
v -12 -32 0
v -13 -33 0
v -14 -33 0
v -14 -32 0
v -13 -32 0
v -3 -34 0
v -4 -34 0
v -4 -33 0
v -3 -33 0
v -4 -34 0
v -5 -34 0
v -5 -33 0
v -4 -33 0
v -10 -34 0
v -11 -34 0
v -11 -33 0
v -10 -33 0
v -11 -34 0
v -12 -34 0
v -12 -33 0
v -11 -33 0
v -12 -34 0
v -13 -34 0
v -13 -33 0
v -12 -33 0
v -13 -34 0
v -14 -34 0
v -14 -33 0
v -13 -33 0
v -10 -35 0
v -11 -35 0
v -11 -34 0
v -10 -34 0
v -11 -35 0
v -12 -35 0
v -12 -34 0
v -11 -34 0
v -2 -36 0
v -3 -36 0
v -3 -35 0
v -2 -35 0
v -3 -36 0
v -4 -36 0
v -4 -35 0
v -3 -35 0
v -2 -41 0
v -3 -41 0
v -3 -40 0
v -2 -40 0
v -3 -41 0
v -4 -41 0
v -4 -40 0
v -3 -40 0
v -4 -41 0
v -5 -41 0
v -5 -40 0
v -4 -40 0
v -7 -41 0
v -8 -41 0
v -8 -40 0
v -7 -40 0
v -8 -41 0
v -9 -41 0
v -9 -40 0
v -8 -40 0
v -7 -42 0
v -8 -42 0
v -8 -41 0
v -7 -41 0
v -8 -42 0
v -9 -42 0
v -9 -41 0
v -8 -41 0
v -46 -42 0
v -47 -42 0
v -47 -41 0
v -46 -41 0
v -46 -43 0
v -47 -43 0
v -47 -42 0
v -46 -42 0
v -46 -44 0
v -47 -44 0
v -47 -43 0
v -46 -43 0
v -21 -46 0
v -22 -46 0
v -22 -45 0
v -21 -45 0
v -22 -46 0
v -23 -46 0
v -23 -45 0
v -22 -45 0
v -23 -46 0
v -24 -46 0
v -24 -45 0
v -23 -45 0
v -24 -46 0
v -25 -46 0
v -25 -45 0
v -24 -45 0
v -31 -46 0
v -32 -46 0
v -32 -45 0
v -31 -45 0
v -32 -46 0
v -33 -46 0
v -33 -45 0
v -32 -45 0
v -33 -46 0
v -34 -46 0
v -34 -45 0
v -33 -45 0
v -34 -46 0
v -35 -46 0
v -35 -45 0
v -34 -45 0
v -21 -47 0
v -22 -47 0
v -22 -46 0
v -21 -46 0
v -22 -47 0
v -23 -47 0
v -23 -46 0
v -22 -46 0
v -23 -47 0
v -24 -47 0
v -24 -46 0
v -23 -46 0
v -24 -47 0
v -25 -47 0
v -25 -46 0
v -24 -46 0
v -31 -47 0
v -32 -47 0
v -32 -46 0
v -31 -46 0
v -32 -47 0
v -33 -47 0
v -33 -46 0
v -32 -46 0
v -33 -47 0
v -34 -47 0
v -34 -46 0
v -33 -46 0
v -34 -47 0
v -35 -47 0
v -35 -46 0
v -34 -46 0
v -15 -48 0
v -16 -48 0
v -16 -47 0
v -15 -47 0
v -16 -48 0
v -17 -48 0
v -17 -47 0
v -16 -47 0
v -21 -48 0
v -22 -48 0
v -22 -47 0
v -21 -47 0
v -22 -48 0
v -23 -48 0
v -23 -47 0
v -22 -47 0
v -23 -48 0
v -24 -48 0
v -24 -47 0
v -23 -47 0
v -24 -48 0
v -25 -48 0
v -25 -47 0
v -24 -47 0
v -31 -48 0
v -32 -48 0
v -32 -47 0
v -31 -47 0
v -32 -48 0
v -33 -48 0
v -33 -47 0
v -32 -47 0
v -33 -48 0
v -34 -48 0
v -34 -47 0
v -33 -47 0
v -34 -48 0
v -35 -48 0
v -35 -47 0
v -34 -47 0
v -38 -48 0
v -39 -48 0
v -39 -47 0
v -38 -47 0
v -39 -48 0
v -40 -48 0
v -40 -47 0
v -39 -47 0
v -46 -48 0
v -47 -48 0
v -47 -47 0
v -46 -47 0
v -47 -48 0
v -48 -48 0
v -48 -47 0
v -47 -47 0
v -21 -49 0
v -22 -49 0
v -22 -48 0
v -21 -48 0
v -22 -49 0
v -23 -49 0
v -23 -48 0
v -22 -48 0
v -31 -49 0
v -32 -49 0
v -32 -48 0
v -31 -48 0
v -32 -49 0
v -33 -49 0
v -33 -48 0
v -32 -48 0

# Texture cooridinates (Count = 66)
vt 0.1040312 0.5277778
vt 0.1248375 0.5277778
vt 0.1248375 0.5555556
vt 0.1040312 0.5555556
vt 0.1456437 0.5277778
vt 0.1456437 0.5555556
vt 0 0.08333331
vt 0.02080624 0.08333331
vt 0.02080624 0.1111111
vt 0 0.1111111
vt 0.04161248 0.08333331
vt 0.04161248 0.1111111
vt 0.06241873 0.08333331
vt 0.06241873 0.1111111
vt 0.08322497 0.08333331
vt 0.08322497 0.1111111
vt 0 0.05555558
vt 0.02080624 0.05555558
vt 0.04161248 0.05555558
vt 0.06241873 0.05555558
vt 0.08322497 0.05555558
vt 0 0.02777779
vt 0.02080624 0.02777779
vt 0.04161248 0.02777779
vt 0.06241873 0.02777779
vt 0.08322497 0.02777779
vt 0.2912874 0.1666667
vt 0.3120936 0.1666667
vt 0.3120936 0.1944444
vt 0.2912874 0.1944444
vt 0.3328999 0.1666667
vt 0.3328999 0.1944444
vt 0.3537061 0.1666667
vt 0.3537061 0.1944444
vt 0.3745123 0.1666667
vt 0.3745123 0.1944444
vt 0.06241873 0.8333333
vt 0.08322497 0.8333333
vt 0.08322497 0.8611111
vt 0.06241873 0.8611111
vt 0.1040312 0.8333333
vt 0.1040312 0.8611111
vt 0.1248375 0.8333333
vt 0.1248375 0.8611111
vt 0.2912874 0.1388889
vt 0.3120936 0.1388889
vt 0.3328999 0.1388889
vt 0.3537061 0.1388889
vt 0.3745123 0.1388889
vt 0.08322497 0.9444444
vt 0.1040312 0.9444444
vt 0.1040312 0.9722222
vt 0.08322497 0.9722222
vt 0.1248375 0.9444444
vt 0.1248375 0.9722222
vt 0.2912874 0.1111111
vt 0.3120936 0.1111111
vt 0.3328999 0.1111111
vt 0.3537061 0.1111111
vt 0.3745123 0.1111111
vt 0.08322497 0.9166667
vt 0.1040312 0.9166667
vt 0.1248375 0.9166667
vt 0.2912874 0.08333331
vt 0.3120936 0.08333331
vt 0.3328999 0.08333331

# Normal
vn 0 0 -1

# Mesh description
g Silad_mesh_0004

# Faces
f 1/1/1 2/2/1 3/3/1 4/4/1
f 5/2/1 6/5/1 7/6/1 8/3/1
f 9/7/1 10/8/1 11/9/1 12/10/1
f 13/8/1 14/11/1 15/12/1 16/9/1
f 17/11/1 18/13/1 19/14/1 20/12/1
f 21/13/1 22/15/1 23/16/1 24/14/1
f 25/1/1 26/2/1 27/3/1 28/4/1
f 29/2/1 30/5/1 31/6/1 32/3/1
f 33/17/1 34/18/1 35/8/1 36/7/1
f 37/18/1 38/19/1 39/11/1 40/8/1
f 41/19/1 42/20/1 43/13/1 44/11/1
f 45/20/1 46/21/1 47/15/1 48/13/1
f 49/22/1 50/23/1 51/18/1 52/17/1
f 53/23/1 54/24/1 55/19/1 56/18/1
f 57/24/1 58/25/1 59/20/1 60/19/1
f 61/25/1 62/26/1 63/21/1 64/20/1
f 65/1/1 66/2/1 67/3/1 68/4/1
f 69/2/1 70/5/1 71/6/1 72/3/1
f 73/27/1 74/28/1 75/29/1 76/30/1
f 77/28/1 78/31/1 79/32/1 80/29/1
f 81/31/1 82/33/1 83/34/1 84/32/1
f 85/33/1 86/35/1 87/36/1 88/34/1
f 89/37/1 90/38/1 91/39/1 92/40/1
f 93/38/1 94/41/1 95/42/1 96/39/1
f 97/41/1 98/43/1 99/44/1 100/42/1
f 101/45/1 102/46/1 103/28/1 104/27/1
f 105/46/1 106/47/1 107/31/1 108/28/1
f 109/47/1 110/48/1 111/33/1 112/31/1
f 113/48/1 114/49/1 115/35/1 116/33/1
f 117/50/1 118/51/1 119/52/1 120/53/1
f 121/51/1 122/54/1 123/55/1 124/52/1
f 125/56/1 126/57/1 127/46/1 128/45/1
f 129/57/1 130/58/1 131/47/1 132/46/1
f 133/58/1 134/59/1 135/48/1 136/47/1
f 137/59/1 138/60/1 139/49/1 140/48/1
f 141/7/1 142/8/1 143/9/1 144/10/1
f 145/8/1 146/11/1 147/12/1 148/9/1
f 149/11/1 150/13/1 151/14/1 152/12/1
f 153/13/1 154/15/1 155/16/1 156/14/1
f 157/1/1 158/2/1 159/3/1 160/4/1
f 161/2/1 162/5/1 163/6/1 164/3/1
f 165/1/1 166/2/1 167/3/1 168/4/1
f 169/2/1 170/5/1 171/6/1 172/3/1
f 173/61/1 174/62/1 175/51/1 176/50/1
f 177/62/1 178/63/1 179/54/1 180/51/1
f 181/64/1 182/65/1 183/57/1 184/56/1
f 185/65/1 186/66/1 187/58/1 188/57/1
f 189/17/1 190/18/1 191/8/1 192/7/1
f 193/18/1 194/19/1 195/11/1 196/8/1
f 197/19/1 198/20/1 199/13/1 200/11/1
f 201/20/1 202/21/1 203/15/1 204/13/1
f 205/27/1 206/28/1 207/29/1 208/30/1
f 209/28/1 210/31/1 211/32/1 212/29/1
f 213/31/1 214/33/1 215/34/1 216/32/1
f 217/33/1 218/35/1 219/36/1 220/34/1
f 221/22/1 222/23/1 223/18/1 224/17/1
f 225/23/1 226/24/1 227/19/1 228/18/1
f 229/24/1 230/25/1 231/20/1 232/19/1
f 233/25/1 234/26/1 235/21/1 236/20/1
f 237/45/1 238/46/1 239/28/1 240/27/1
f 241/46/1 242/47/1 243/31/1 244/28/1
f 245/47/1 246/48/1 247/33/1 248/31/1
f 249/48/1 250/49/1 251/35/1 252/33/1
f 253/56/1 254/57/1 255/46/1 256/45/1
f 257/57/1 258/58/1 259/47/1 260/46/1
f 261/58/1 262/59/1 263/48/1 264/47/1
f 265/59/1 266/60/1 267/49/1 268/48/1
f 269/64/1 270/65/1 271/57/1 272/56/1
f 273/65/1 274/66/1 275/58/1 276/57/1
f 277/37/1 278/38/1 279/39/1 280/40/1
f 281/38/1 282/41/1 283/42/1 284/39/1
f 285/41/1 286/43/1 287/44/1 288/42/1
f 289/27/1 290/28/1 291/29/1 292/30/1
f 293/28/1 294/31/1 295/32/1 296/29/1
f 297/31/1 298/33/1 299/34/1 300/32/1
f 301/33/1 302/35/1 303/36/1 304/34/1
f 305/45/1 306/46/1 307/28/1 308/27/1
f 309/46/1 310/47/1 311/31/1 312/28/1
f 313/47/1 314/48/1 315/33/1 316/31/1
f 317/48/1 318/49/1 319/35/1 320/33/1
f 321/56/1 322/57/1 323/46/1 324/45/1
f 325/57/1 326/58/1 327/47/1 328/46/1
f 329/58/1 330/59/1 331/48/1 332/47/1
f 333/59/1 334/60/1 335/49/1 336/48/1
f 337/64/1 338/65/1 339/57/1 340/56/1
f 341/65/1 342/66/1 343/58/1 344/57/1
f 345/50/1 346/51/1 347/52/1 348/53/1
f 349/51/1 350/54/1 351/55/1 352/52/1
f 353/61/1 354/62/1 355/51/1 356/50/1
f 357/62/1 358/63/1 359/54/1 360/51/1
f 361/1/1 362/2/1 363/3/1 364/4/1
f 365/2/1 366/5/1 367/6/1 368/3/1
f 369/1/1 370/2/1 371/3/1 372/4/1
f 373/2/1 374/5/1 375/6/1 376/3/1
f 377/50/1 378/51/1 379/52/1 380/53/1
f 381/51/1 382/54/1 383/55/1 384/52/1
f 385/37/1 386/38/1 387/39/1 388/40/1
f 389/38/1 390/41/1 391/42/1 392/39/1
f 393/41/1 394/43/1 395/44/1 396/42/1
f 397/61/1 398/62/1 399/51/1 400/50/1
f 401/62/1 402/63/1 403/54/1 404/51/1
f 405/27/1 406/28/1 407/29/1 408/30/1
f 409/28/1 410/31/1 411/32/1 412/29/1
f 413/31/1 414/33/1 415/34/1 416/32/1
f 417/33/1 418/35/1 419/36/1 420/34/1
f 421/45/1 422/46/1 423/28/1 424/27/1
f 425/46/1 426/47/1 427/31/1 428/28/1
f 429/47/1 430/48/1 431/33/1 432/31/1
f 433/48/1 434/49/1 435/35/1 436/33/1
f 437/27/1 438/28/1 439/29/1 440/30/1
f 441/28/1 442/31/1 443/32/1 444/29/1
f 445/31/1 446/33/1 447/34/1 448/32/1
f 449/33/1 450/35/1 451/36/1 452/34/1
f 453/56/1 454/57/1 455/46/1 456/45/1
f 457/57/1 458/58/1 459/47/1 460/46/1
f 461/58/1 462/59/1 463/48/1 464/47/1
f 465/59/1 466/60/1 467/49/1 468/48/1
f 469/45/1 470/46/1 471/28/1 472/27/1
f 473/46/1 474/47/1 475/31/1 476/28/1
f 477/47/1 478/48/1 479/33/1 480/31/1
f 481/48/1 482/49/1 483/35/1 484/33/1
f 485/64/1 486/65/1 487/57/1 488/56/1
f 489/65/1 490/66/1 491/58/1 492/57/1
f 493/56/1 494/57/1 495/46/1 496/45/1
f 497/57/1 498/58/1 499/47/1 500/46/1
f 501/58/1 502/59/1 503/48/1 504/47/1
f 505/59/1 506/60/1 507/49/1 508/48/1
f 509/64/1 510/65/1 511/57/1 512/56/1
f 513/65/1 514/66/1 515/58/1 516/57/1
f 517/1/1 518/2/1 519/3/1 520/4/1
f 521/2/1 522/5/1 523/6/1 524/3/1
f 525/37/1 526/38/1 527/39/1 528/40/1
f 529/38/1 530/41/1 531/42/1 532/39/1
f 533/41/1 534/43/1 535/44/1 536/42/1
f 537/50/1 538/51/1 539/52/1 540/53/1
f 541/51/1 542/54/1 543/55/1 544/52/1
f 545/61/1 546/62/1 547/51/1 548/50/1
f 549/62/1 550/63/1 551/54/1 552/51/1
f 553/38/1 554/39/1 555/40/1 556/37/1
f 557/41/1 558/42/1 559/39/1 560/38/1
f 561/43/1 562/44/1 563/42/1 564/41/1
f 565/27/1 566/28/1 567/29/1 568/30/1
f 569/28/1 570/31/1 571/32/1 572/29/1
f 573/31/1 574/33/1 575/34/1 576/32/1
f 577/33/1 578/35/1 579/36/1 580/34/1
f 581/27/1 582/28/1 583/29/1 584/30/1
f 585/28/1 586/31/1 587/32/1 588/29/1
f 589/31/1 590/33/1 591/34/1 592/32/1
f 593/33/1 594/35/1 595/36/1 596/34/1
f 597/45/1 598/46/1 599/28/1 600/27/1
f 601/46/1 602/47/1 603/31/1 604/28/1
f 605/47/1 606/48/1 607/33/1 608/31/1
f 609/48/1 610/49/1 611/35/1 612/33/1
f 613/45/1 614/46/1 615/28/1 616/27/1
f 617/46/1 618/47/1 619/31/1 620/28/1
f 621/47/1 622/48/1 623/33/1 624/31/1
f 625/48/1 626/49/1 627/35/1 628/33/1
f 629/1/1 630/2/1 631/3/1 632/4/1
f 633/2/1 634/5/1 635/6/1 636/3/1
f 637/56/1 638/57/1 639/46/1 640/45/1
f 641/57/1 642/58/1 643/47/1 644/46/1
f 645/58/1 646/59/1 647/48/1 648/47/1
f 649/59/1 650/60/1 651/49/1 652/48/1
f 653/56/1 654/57/1 655/46/1 656/45/1
f 657/57/1 658/58/1 659/47/1 660/46/1
f 661/58/1 662/59/1 663/48/1 664/47/1
f 665/59/1 666/60/1 667/49/1 668/48/1
f 669/1/1 670/2/1 671/3/1 672/4/1
f 673/2/1 674/5/1 675/6/1 676/3/1
f 677/1/1 678/2/1 679/3/1 680/4/1
f 681/2/1 682/5/1 683/6/1 684/3/1
f 685/64/1 686/65/1 687/57/1 688/56/1
f 689/65/1 690/66/1 691/58/1 692/57/1
f 693/64/1 694/65/1 695/57/1 696/56/1
f 697/65/1 698/66/1 699/58/1 700/57/1

