# Tiled2Unity generated file. Do not modify by hand.
# Wavefront file for 'Silad_mesh_0005.obj'

# Vertices (Count = 168)
v -12 -27 0
v -13 -27 0
v -13 -26 0
v -12 -26 0
v -13 -27 0
v -14 -27 0
v -14 -26 0
v -13 -26 0
v -14 -27 0
v -15 -27 0
v -15 -26 0
v -14 -26 0
v -15 -27 0
v -16 -27 0
v -16 -26 0
v -15 -26 0
v -16 -27 0
v -17 -27 0
v -17 -26 0
v -16 -26 0
v -17 -27 0
v -18 -27 0
v -18 -26 0
v -17 -26 0
v -18 -27 0
v -19 -27 0
v -19 -26 0
v -18 -26 0
v -12 -28 0
v -13 -28 0
v -13 -27 0
v -12 -27 0
v -13 -28 0
v -14 -28 0
v -14 -27 0
v -13 -27 0
v -14 -28 0
v -15 -28 0
v -15 -27 0
v -14 -27 0
v -15 -28 0
v -16 -28 0
v -16 -27 0
v -15 -27 0
v -16 -28 0
v -17 -28 0
v -17 -27 0
v -16 -27 0
v -17 -28 0
v -18 -28 0
v -18 -27 0
v -17 -27 0
v -18 -28 0
v -19 -28 0
v -19 -27 0
v -18 -27 0
v -12 -29 0
v -13 -29 0
v -13 -28 0
v -12 -28 0
v -13 -29 0
v -14 -29 0
v -14 -28 0
v -13 -28 0
v -14 -29 0
v -15 -29 0
v -15 -28 0
v -14 -28 0
v -15 -29 0
v -16 -29 0
v -16 -28 0
v -15 -28 0
v -16 -29 0
v -17 -29 0
v -17 -28 0
v -16 -28 0
v -17 -29 0
v -18 -29 0
v -18 -28 0
v -17 -28 0
v -18 -29 0
v -19 -29 0
v -19 -28 0
v -18 -28 0
v -34 -40 0
v -35 -40 0
v -35 -39 0
v -34 -39 0
v -35 -40 0
v -36 -40 0
v -36 -39 0
v -35 -39 0
v -36 -40 0
v -37 -40 0
v -37 -39 0
v -36 -39 0
v -37 -40 0
v -38 -40 0
v -38 -39 0
v -37 -39 0
v -38 -40 0
v -39 -40 0
v -39 -39 0
v -38 -39 0
v -39 -40 0
v -40 -40 0
v -40 -39 0
v -39 -39 0
v -40 -40 0
v -41 -40 0
v -41 -39 0
v -40 -39 0
v -34 -41 0
v -35 -41 0
v -35 -40 0
v -34 -40 0
v -35 -41 0
v -36 -41 0
v -36 -40 0
v -35 -40 0
v -36 -41 0
v -37 -41 0
v -37 -40 0
v -36 -40 0
v -37 -41 0
v -38 -41 0
v -38 -40 0
v -37 -40 0
v -38 -41 0
v -39 -41 0
v -39 -40 0
v -38 -40 0
v -39 -41 0
v -40 -41 0
v -40 -40 0
v -39 -40 0
v -40 -41 0
v -41 -41 0
v -41 -40 0
v -40 -40 0
v -34 -42 0
v -35 -42 0
v -35 -41 0
v -34 -41 0
v -35 -42 0
v -36 -42 0
v -36 -41 0
v -35 -41 0
v -36 -42 0
v -37 -42 0
v -37 -41 0
v -36 -41 0
v -37 -42 0
v -38 -42 0
v -38 -41 0
v -37 -41 0
v -38 -42 0
v -39 -42 0
v -39 -41 0
v -38 -41 0
v -39 -42 0
v -40 -42 0
v -40 -41 0
v -39 -41 0
v -40 -42 0
v -41 -42 0
v -41 -41 0
v -40 -41 0

# Texture cooridinates (Count = 60)
vt 0.1724138 0.3947368
vt 0.1896552 0.3947368
vt 0.1896552 0.4210526
vt 0.1724138 0.4210526
vt 0.2068966 0.3947368
vt 0.2068966 0.4210526
vt 0.2241379 0.3947368
vt 0.2241379 0.4210526
vt 0.2413793 0.3947368
vt 0.2413793 0.4210526
vt 0.2586207 0.3947368
vt 0.2586207 0.4210526
vt 0.2758621 0.3947368
vt 0.2758621 0.4210526
vt 0.2931035 0.3947368
vt 0.2931035 0.4210526
vt 0.1724138 0.3684211
vt 0.1896552 0.3684211
vt 0.2068966 0.3684211
vt 0.2241379 0.3684211
vt 0.2413793 0.3684211
vt 0.2586207 0.3684211
vt 0.2758621 0.3684211
vt 0.2931035 0.3684211
vt 0.1724138 0.3421053
vt 0.1896552 0.3421053
vt 0.2068966 0.3421053
vt 0.2241379 0.3421053
vt 0.2413793 0.3421053
vt 0.2586207 0.3421053
vt 0.2758621 0.3421053
vt 0.2931035 0.3421053
vt 0.3103448 0.3947368
vt 0.3103448 0.4210526
vt 0.3275862 0.3947368
vt 0.3275862 0.4210526
vt 0.3448276 0.3947368
vt 0.3448276 0.4210526
vt 0.362069 0.3947368
vt 0.362069 0.4210526
vt 0.3793103 0.3947368
vt 0.3793103 0.4210526
vt 0.3965517 0.3947368
vt 0.3965517 0.4210526
vt 0.4137931 0.3947368
vt 0.4137931 0.4210526
vt 0.3103448 0.3684211
vt 0.3275862 0.3684211
vt 0.3448276 0.3684211
vt 0.362069 0.3684211
vt 0.3793103 0.3684211
vt 0.3965517 0.3684211
vt 0.4137931 0.3684211
vt 0.3103448 0.3421053
vt 0.3275862 0.3421053
vt 0.3448276 0.3421053
vt 0.362069 0.3421053
vt 0.3793103 0.3421053
vt 0.3965517 0.3421053
vt 0.4137931 0.3421053

# Normal
vn 0 0 -1

# Mesh description
g Silad_mesh_0005

# Faces
f 1/1/1 2/2/1 3/3/1 4/4/1
f 5/2/1 6/5/1 7/6/1 8/3/1
f 9/5/1 10/7/1 11/8/1 12/6/1
f 13/7/1 14/9/1 15/10/1 16/8/1
f 17/9/1 18/11/1 19/12/1 20/10/1
f 21/11/1 22/13/1 23/14/1 24/12/1
f 25/13/1 26/15/1 27/16/1 28/14/1
f 29/17/1 30/18/1 31/2/1 32/1/1
f 33/18/1 34/19/1 35/5/1 36/2/1
f 37/19/1 38/20/1 39/7/1 40/5/1
f 41/20/1 42/21/1 43/9/1 44/7/1
f 45/21/1 46/22/1 47/11/1 48/9/1
f 49/22/1 50/23/1 51/13/1 52/11/1
f 53/23/1 54/24/1 55/15/1 56/13/1
f 57/25/1 58/26/1 59/18/1 60/17/1
f 61/26/1 62/27/1 63/19/1 64/18/1
f 65/27/1 66/28/1 67/20/1 68/19/1
f 69/28/1 70/29/1 71/21/1 72/20/1
f 73/29/1 74/30/1 75/22/1 76/21/1
f 77/30/1 78/31/1 79/23/1 80/22/1
f 81/31/1 82/32/1 83/24/1 84/23/1
f 85/15/1 86/33/1 87/34/1 88/16/1
f 89/33/1 90/35/1 91/36/1 92/34/1
f 93/35/1 94/37/1 95/38/1 96/36/1
f 97/37/1 98/39/1 99/40/1 100/38/1
f 101/39/1 102/41/1 103/42/1 104/40/1
f 105/41/1 106/43/1 107/44/1 108/42/1
f 109/43/1 110/45/1 111/46/1 112/44/1
f 113/24/1 114/47/1 115/33/1 116/15/1
f 117/47/1 118/48/1 119/35/1 120/33/1
f 121/48/1 122/49/1 123/37/1 124/35/1
f 125/49/1 126/50/1 127/39/1 128/37/1
f 129/50/1 130/51/1 131/41/1 132/39/1
f 133/51/1 134/52/1 135/43/1 136/41/1
f 137/52/1 138/53/1 139/45/1 140/43/1
f 141/32/1 142/54/1 143/47/1 144/24/1
f 145/54/1 146/55/1 147/48/1 148/47/1
f 149/55/1 150/56/1 151/49/1 152/48/1
f 153/56/1 154/57/1 155/50/1 156/49/1
f 157/57/1 158/58/1 159/51/1 160/50/1
f 161/58/1 162/59/1 163/52/1 164/51/1
f 165/59/1 166/60/1 167/53/1 168/52/1

