# Tiled2Unity generated file. Do not modify by hand.
# Wavefront file for 'KilidPhoenix_mesh_0003.obj'

# Vertices (Count = 16)
v -23 -33 0
v -24 -33 0
v -24 -32 0
v -23 -32 0
v -17 -33 0
v -18 -33 0
v -18 -32 0
v -17 -32 0
v -17 -39 0
v -18 -39 0
v -18 -38 0
v -17 -38 0
v -17 -40 0
v -18 -40 0
v -18 -39 0
v -17 -39 0

# Texture cooridinates (Count = 16)
vt 0.586329 0.5790694
vt 0.6033262 0.5790694
vt 0.6033262 0.605141
vt 0.586329 0.605141
vt 0.4828807 0.5790694
vt 0.4998779 0.5790694
vt 0.4998779 0.605141
vt 0.4828807 0.605141
vt 0.2932255 0.1843326
vt 0.3102227 0.1843326
vt 0.3102227 0.2104042
vt 0.2932255 0.2104042
vt 0.2932255 0.1580168
vt 0.3102227 0.1580168
vt 0.3102227 0.1840885
vt 0.2932255 0.1840885

# Normal
vn 0 0 -1

# Mesh description
g KilidPhoenix_mesh_0003

# Faces
f 1/1/1 2/2/1 3/3/1 4/4/1
f 5/5/1 6/6/1 7/7/1 8/8/1
f 9/9/1 10/10/1 11/11/1 12/12/1
f 13/13/1 14/14/1 15/15/1 16/16/1

