# Tiled2Unity generated file. Do not modify by hand.
# Wavefront file for 'EntranceToBanza_mesh_0003.obj'

# Vertices (Count = 128)
v -35 -41 0
v -36 -41 0
v -36 -40 0
v -35 -40 0
v -36 -41 0
v -37 -41 0
v -37 -40 0
v -36 -40 0
v -37 -41 0
v -38 -41 0
v -38 -40 0
v -37 -40 0
v -38 -41 0
v -39 -41 0
v -39 -40 0
v -38 -40 0
v -39 -41 0
v -40 -41 0
v -40 -40 0
v -39 -40 0
v -40 -41 0
v -41 -41 0
v -41 -40 0
v -40 -40 0
v -41 -41 0
v -42 -41 0
v -42 -40 0
v -41 -40 0
v -42 -41 0
v -43 -41 0
v -43 -40 0
v -42 -40 0
v -43 -41 0
v -44 -41 0
v -44 -40 0
v -43 -40 0
v -35 -42 0
v -36 -42 0
v -36 -41 0
v -35 -41 0
v -36 -42 0
v -37 -42 0
v -37 -41 0
v -36 -41 0
v -37 -42 0
v -38 -42 0
v -38 -41 0
v -37 -41 0
v -38 -42 0
v -39 -42 0
v -39 -41 0
v -38 -41 0
v -39 -42 0
v -40 -42 0
v -40 -41 0
v -39 -41 0
v -40 -42 0
v -41 -42 0
v -41 -41 0
v -40 -41 0
v -41 -42 0
v -42 -42 0
v -42 -41 0
v -41 -41 0
v -42 -42 0
v -43 -42 0
v -43 -41 0
v -42 -41 0
v -43 -42 0
v -44 -42 0
v -44 -41 0
v -43 -41 0
v -8 -47 0
v -9 -47 0
v -9 -46 0
v -8 -46 0
v -9 -47 0
v -10 -47 0
v -10 -46 0
v -9 -46 0
v -10 -47 0
v -11 -47 0
v -11 -46 0
v -10 -46 0
v -11 -47 0
v -12 -47 0
v -12 -46 0
v -11 -46 0
v -12 -47 0
v -13 -47 0
v -13 -46 0
v -12 -46 0
v -13 -47 0
v -14 -47 0
v -14 -46 0
v -13 -46 0
v -14 -47 0
v -15 -47 0
v -15 -46 0
v -14 -46 0
v -8 -48 0
v -9 -48 0
v -9 -47 0
v -8 -47 0
v -9 -48 0
v -10 -48 0
v -10 -47 0
v -9 -47 0
v -10 -48 0
v -11 -48 0
v -11 -47 0
v -10 -47 0
v -11 -48 0
v -12 -48 0
v -12 -47 0
v -11 -47 0
v -12 -48 0
v -13 -48 0
v -13 -47 0
v -12 -47 0
v -13 -48 0
v -14 -48 0
v -14 -47 0
v -13 -47 0
v -14 -48 0
v -15 -48 0
v -15 -47 0
v -14 -47 0

# Texture cooridinates (Count = 54)
vt 0.01724138 0.1842105
vt 0.03448276 0.1842105
vt 0.03448276 0.2105263
vt 0.01724138 0.2105263
vt 0.05172414 0.1842105
vt 0.05172414 0.2105263
vt 0.06896552 0.1842105
vt 0.06896552 0.2105263
vt 0.0862069 0.1842105
vt 0.0862069 0.2105263
vt 0.1034483 0.1842105
vt 0.1034483 0.2105263
vt 0.1206897 0.1842105
vt 0.1206897 0.2105263
vt 0.137931 0.1842105
vt 0.137931 0.2105263
vt 0.1551724 0.1842105
vt 0.1551724 0.2105263
vt 0.1724138 0.1842105
vt 0.1724138 0.2105263
vt 0.01724138 0.1578947
vt 0.03448276 0.1578947
vt 0.05172414 0.1578947
vt 0.06896552 0.1578947
vt 0.0862069 0.1578947
vt 0.1034483 0.1578947
vt 0.1206897 0.1578947
vt 0.137931 0.1578947
vt 0.1551724 0.1578947
vt 0.1724138 0.1578947
vt 0.2931035 0.3157895
vt 0.3103448 0.3157895
vt 0.3103448 0.3421053
vt 0.2931035 0.3421053
vt 0.3275862 0.3157895
vt 0.3275862 0.3421053
vt 0.3448276 0.3157895
vt 0.3448276 0.3421053
vt 0.362069 0.3157895
vt 0.362069 0.3421053
vt 0.3793103 0.3157895
vt 0.3793103 0.3421053
vt 0.3965517 0.3157895
vt 0.3965517 0.3421053
vt 0.4137931 0.3157895
vt 0.4137931 0.3421053
vt 0.2931035 0.2894737
vt 0.3103448 0.2894737
vt 0.3275862 0.2894737
vt 0.3448276 0.2894737
vt 0.362069 0.2894737
vt 0.3793103 0.2894737
vt 0.3965517 0.2894737
vt 0.4137931 0.2894737

# Normal
vn 0 0 -1

# Mesh description
g EntranceToBanza_mesh_0003

# Faces
f 1/1/1 2/2/1 3/3/1 4/4/1
f 5/2/1 6/5/1 7/6/1 8/3/1
f 9/5/1 10/7/1 11/8/1 12/6/1
f 13/7/1 14/9/1 15/10/1 16/8/1
f 17/9/1 18/11/1 19/12/1 20/10/1
f 21/11/1 22/13/1 23/14/1 24/12/1
f 25/13/1 26/15/1 27/16/1 28/14/1
f 29/15/1 30/17/1 31/18/1 32/16/1
f 33/17/1 34/19/1 35/20/1 36/18/1
f 37/21/1 38/22/1 39/2/1 40/1/1
f 41/22/1 42/23/1 43/5/1 44/2/1
f 45/23/1 46/24/1 47/7/1 48/5/1
f 49/24/1 50/25/1 51/9/1 52/7/1
f 53/25/1 54/26/1 55/11/1 56/9/1
f 57/26/1 58/27/1 59/13/1 60/11/1
f 61/27/1 62/28/1 63/15/1 64/13/1
f 65/28/1 66/29/1 67/17/1 68/15/1
f 69/29/1 70/30/1 71/19/1 72/17/1
f 73/31/1 74/32/1 75/33/1 76/34/1
f 77/32/1 78/35/1 79/36/1 80/33/1
f 81/35/1 82/37/1 83/38/1 84/36/1
f 85/37/1 86/39/1 87/40/1 88/38/1
f 89/39/1 90/41/1 91/42/1 92/40/1
f 93/41/1 94/43/1 95/44/1 96/42/1
f 97/43/1 98/45/1 99/46/1 100/44/1
f 101/47/1 102/48/1 103/32/1 104/31/1
f 105/48/1 106/49/1 107/35/1 108/32/1
f 109/49/1 110/50/1 111/37/1 112/35/1
f 113/50/1 114/51/1 115/39/1 116/37/1
f 117/51/1 118/52/1 119/41/1 120/39/1
f 121/52/1 122/53/1 123/43/1 124/41/1
f 125/53/1 126/54/1 127/45/1 128/43/1

