# Tiled2Unity generated file. Do not modify by hand.
# Wavefront file for 'TiniwisanHighway_mesh_0004.obj'

# Vertices (Count = 756)
v -3 -1 0
v -4 -1 0
v -4 0 0
v -3 0 0
v -4 -1 0
v -5 -1 0
v -5 0 0
v -4 0 0
v -5 -1 0
v -6 -1 0
v -6 0 0
v -5 0 0
v -6 -1 0
v -7 -1 0
v -7 0 0
v -6 0 0
v -8 -1 0
v -9 -1 0
v -9 0 0
v -8 0 0
v -9 -1 0
v -10 -1 0
v -10 0 0
v -9 0 0
v -10 -1 0
v -11 -1 0
v -11 0 0
v -10 0 0
v -11 -1 0
v -12 -1 0
v -12 0 0
v -11 0 0
v -3 -2 0
v -4 -2 0
v -4 -1 0
v -3 -1 0
v -4 -2 0
v -5 -2 0
v -5 -1 0
v -4 -1 0
v -5 -2 0
v -6 -2 0
v -6 -1 0
v -5 -1 0
v -6 -2 0
v -7 -2 0
v -7 -1 0
v -6 -1 0
v -8 -2 0
v -9 -2 0
v -9 -1 0
v -8 -1 0
v -9 -2 0
v -10 -2 0
v -10 -1 0
v -9 -1 0
v -10 -2 0
v -11 -2 0
v -11 -1 0
v -10 -1 0
v -11 -2 0
v -12 -2 0
v -12 -1 0
v -11 -1 0
v -3 -3 0
v -4 -3 0
v -4 -2 0
v -3 -2 0
v -4 -3 0
v -5 -3 0
v -5 -2 0
v -4 -2 0
v -5 -3 0
v -6 -3 0
v -6 -2 0
v -5 -2 0
v -6 -3 0
v -7 -3 0
v -7 -2 0
v -6 -2 0
v -8 -3 0
v -9 -3 0
v -9 -2 0
v -8 -2 0
v -9 -3 0
v -10 -3 0
v -10 -2 0
v -9 -2 0
v -10 -3 0
v -11 -3 0
v -11 -2 0
v -10 -2 0
v -11 -3 0
v -12 -3 0
v -12 -2 0
v -11 -2 0
v -23 -4 0
v -24 -4 0
v -24 -3 0
v -23 -3 0
v -24 -4 0
v -25 -4 0
v -25 -3 0
v -24 -3 0
v -25 -4 0
v -26 -4 0
v -26 -3 0
v -25 -3 0
v -26 -4 0
v -27 -4 0
v -27 -3 0
v -26 -3 0
v -1 -5 0
v -2 -5 0
v -2 -4 0
v -1 -4 0
v -2 -5 0
v -3 -5 0
v -3 -4 0
v -2 -4 0
v -3 -5 0
v -4 -5 0
v -4 -4 0
v -3 -4 0
v -4 -5 0
v -5 -5 0
v -5 -4 0
v -4 -4 0
v -23 -5 0
v -24 -5 0
v -24 -4 0
v -23 -4 0
v -24 -5 0
v -25 -5 0
v -25 -4 0
v -24 -4 0
v -25 -5 0
v -26 -5 0
v -26 -4 0
v -25 -4 0
v -26 -5 0
v -27 -5 0
v -27 -4 0
v -26 -4 0
v -43 -5 0
v -44 -5 0
v -44 -4 0
v -43 -4 0
v -44 -5 0
v -45 -5 0
v -45 -4 0
v -44 -4 0
v -45 -5 0
v -46 -5 0
v -46 -4 0
v -45 -4 0
v -46 -5 0
v -47 -5 0
v -47 -4 0
v -46 -4 0
v -1 -6 0
v -2 -6 0
v -2 -5 0
v -1 -5 0
v -2 -6 0
v -3 -6 0
v -3 -5 0
v -2 -5 0
v -3 -6 0
v -4 -6 0
v -4 -5 0
v -3 -5 0
v -4 -6 0
v -5 -6 0
v -5 -5 0
v -4 -5 0
v -23 -6 0
v -24 -6 0
v -24 -5 0
v -23 -5 0
v -24 -6 0
v -25 -6 0
v -25 -5 0
v -24 -5 0
v -25 -6 0
v -26 -6 0
v -26 -5 0
v -25 -5 0
v -26 -6 0
v -27 -6 0
v -27 -5 0
v -26 -5 0
v -43 -6 0
v -44 -6 0
v -44 -5 0
v -43 -5 0
v -44 -6 0
v -45 -6 0
v -45 -5 0
v -44 -5 0
v -45 -6 0
v -46 -6 0
v -46 -5 0
v -45 -5 0
v -46 -6 0
v -47 -6 0
v -47 -5 0
v -46 -5 0
v -1 -7 0
v -2 -7 0
v -2 -6 0
v -1 -6 0
v -2 -7 0
v -3 -7 0
v -3 -6 0
v -2 -6 0
v -3 -7 0
v -4 -7 0
v -4 -6 0
v -3 -6 0
v -4 -7 0
v -5 -7 0
v -5 -6 0
v -4 -6 0
v -43 -7 0
v -44 -7 0
v -44 -6 0
v -43 -6 0
v -44 -7 0
v -45 -7 0
v -45 -6 0
v -44 -6 0
v -45 -7 0
v -46 -7 0
v -46 -6 0
v -45 -6 0
v -46 -7 0
v -47 -7 0
v -47 -6 0
v -46 -6 0
v -1 -8 0
v -2 -8 0
v -2 -7 0
v -1 -7 0
v -2 -8 0
v -3 -8 0
v -3 -7 0
v -2 -7 0
v -43 -8 0
v -44 -8 0
v -44 -7 0
v -43 -7 0
v -44 -8 0
v -45 -8 0
v -45 -7 0
v -44 -7 0
v -43 -14 0
v -44 -14 0
v -44 -13 0
v -43 -13 0
v -44 -14 0
v -45 -14 0
v -45 -13 0
v -44 -13 0
v -45 -14 0
v -46 -14 0
v -46 -13 0
v -45 -13 0
v -43 -15 0
v -44 -15 0
v -44 -14 0
v -43 -14 0
v -44 -15 0
v -45 -15 0
v -45 -14 0
v -44 -14 0
v -45 -15 0
v -46 -15 0
v -46 -14 0
v -45 -14 0
v -6 -19 0
v -7 -19 0
v -7 -18 0
v -6 -18 0
v -7 -19 0
v -8 -19 0
v -8 -18 0
v -7 -18 0
v -46 -23 0
v -47 -23 0
v -47 -22 0
v -46 -22 0
v -47 -23 0
v -48 -23 0
v -48 -22 0
v -47 -22 0
v -36 -24 0
v -37 -24 0
v -37 -23 0
v -36 -23 0
v -37 -24 0
v -38 -24 0
v -38 -23 0
v -37 -23 0
v -21 -27 0
v -22 -27 0
v -22 -26 0
v -21 -26 0
v -22 -27 0
v -23 -27 0
v -23 -26 0
v -22 -26 0
v -11 -28 0
v -12 -28 0
v -12 -27 0
v -11 -27 0
v -12 -28 0
v -13 -28 0
v -13 -27 0
v -12 -27 0
v -13 -28 0
v -14 -28 0
v -14 -27 0
v -13 -27 0
v -14 -28 0
v -15 -28 0
v -15 -27 0
v -14 -27 0
v -11 -29 0
v -12 -29 0
v -12 -28 0
v -11 -28 0
v -12 -29 0
v -13 -29 0
v -13 -28 0
v -12 -28 0
v -13 -29 0
v -14 -29 0
v -14 -28 0
v -13 -28 0
v -14 -29 0
v -15 -29 0
v -15 -28 0
v -14 -28 0
v -11 -30 0
v -12 -30 0
v -12 -29 0
v -11 -29 0
v -12 -30 0
v -13 -30 0
v -13 -29 0
v -12 -29 0
v -13 -30 0
v -14 -30 0
v -14 -29 0
v -13 -29 0
v -14 -30 0
v -15 -30 0
v -15 -29 0
v -14 -29 0
v -39 -31 0
v -40 -31 0
v -40 -30 0
v -39 -30 0
v -40 -31 0
v -41 -31 0
v -41 -30 0
v -40 -30 0
v -41 -31 0
v -42 -31 0
v -42 -30 0
v -41 -30 0
v -42 -31 0
v -43 -31 0
v -43 -30 0
v -42 -30 0
v -44 -31 0
v -45 -31 0
v -45 -30 0
v -44 -30 0
v -45 -31 0
v -46 -31 0
v -46 -30 0
v -45 -30 0
v -46 -31 0
v -47 -31 0
v -47 -30 0
v -46 -30 0
v -47 -31 0
v -48 -31 0
v -48 -30 0
v -47 -30 0
v -5 -32 0
v -6 -32 0
v -6 -31 0
v -5 -31 0
v -6 -32 0
v -7 -32 0
v -7 -31 0
v -6 -31 0
v -7 -32 0
v -8 -32 0
v -8 -31 0
v -7 -31 0
v -8 -32 0
v -9 -32 0
v -9 -31 0
v -8 -31 0
v -39 -32 0
v -40 -32 0
v -40 -31 0
v -39 -31 0
v -40 -32 0
v -41 -32 0
v -41 -31 0
v -40 -31 0
v -41 -32 0
v -42 -32 0
v -42 -31 0
v -41 -31 0
v -42 -32 0
v -43 -32 0
v -43 -31 0
v -42 -31 0
v -44 -32 0
v -45 -32 0
v -45 -31 0
v -44 -31 0
v -45 -32 0
v -46 -32 0
v -46 -31 0
v -45 -31 0
v -46 -32 0
v -47 -32 0
v -47 -31 0
v -46 -31 0
v -47 -32 0
v -48 -32 0
v -48 -31 0
v -47 -31 0
v -5 -33 0
v -6 -33 0
v -6 -32 0
v -5 -32 0
v -6 -33 0
v -7 -33 0
v -7 -32 0
v -6 -32 0
v -7 -33 0
v -8 -33 0
v -8 -32 0
v -7 -32 0
v -8 -33 0
v -9 -33 0
v -9 -32 0
v -8 -32 0
v -42 -33 0
v -43 -33 0
v -43 -32 0
v -42 -32 0
v -44 -33 0
v -45 -33 0
v -45 -32 0
v -44 -32 0
v -5 -34 0
v -6 -34 0
v -6 -33 0
v -5 -33 0
v -6 -34 0
v -7 -34 0
v -7 -33 0
v -6 -33 0
v -7 -34 0
v -8 -34 0
v -8 -33 0
v -7 -33 0
v -8 -34 0
v -9 -34 0
v -9 -33 0
v -8 -33 0
v -42 -34 0
v -43 -34 0
v -43 -33 0
v -42 -33 0
v -44 -34 0
v -45 -34 0
v -45 -33 0
v -44 -33 0
v -36 -35 0
v -37 -35 0
v -37 -34 0
v -36 -34 0
v -37 -35 0
v -38 -35 0
v -38 -34 0
v -37 -34 0
v 0 -40 0
v -1 -40 0
v -1 -39 0
v 0 -39 0
v -1 -40 0
v -2 -40 0
v -2 -39 0
v -1 -39 0
v -2 -40 0
v -3 -40 0
v -3 -39 0
v -2 -39 0
v -3 -40 0
v -4 -40 0
v -4 -39 0
v -3 -39 0
v -23 -40 0
v -24 -40 0
v -24 -39 0
v -23 -39 0
v -24 -40 0
v -25 -40 0
v -25 -39 0
v -24 -39 0
v -25 -40 0
v -26 -40 0
v -26 -39 0
v -25 -39 0
v -26 -40 0
v -27 -40 0
v -27 -39 0
v -26 -39 0
v -31 -40 0
v -32 -40 0
v -32 -39 0
v -31 -39 0
v -32 -40 0
v -33 -40 0
v -33 -39 0
v -32 -39 0
v 0 -41 0
v -1 -41 0
v -1 -40 0
v 0 -40 0
v -1 -41 0
v -2 -41 0
v -2 -40 0
v -1 -40 0
v -2 -41 0
v -3 -41 0
v -3 -40 0
v -2 -40 0
v -3 -41 0
v -4 -41 0
v -4 -40 0
v -3 -40 0
v -23 -41 0
v -24 -41 0
v -24 -40 0
v -23 -40 0
v -24 -41 0
v -25 -41 0
v -25 -40 0
v -24 -40 0
v -25 -41 0
v -26 -41 0
v -26 -40 0
v -25 -40 0
v -26 -41 0
v -27 -41 0
v -27 -40 0
v -26 -40 0
v 0 -42 0
v -1 -42 0
v -1 -41 0
v 0 -41 0
v -1 -42 0
v -2 -42 0
v -2 -41 0
v -1 -41 0
v -2 -42 0
v -3 -42 0
v -3 -41 0
v -2 -41 0
v -3 -42 0
v -4 -42 0
v -4 -41 0
v -3 -41 0
v -23 -42 0
v -24 -42 0
v -24 -41 0
v -23 -41 0
v -24 -42 0
v -25 -42 0
v -25 -41 0
v -24 -41 0
v -25 -42 0
v -26 -42 0
v -26 -41 0
v -25 -41 0
v -26 -42 0
v -27 -42 0
v -27 -41 0
v -26 -41 0
v 0 -43 0
v -1 -43 0
v -1 -42 0
v 0 -42 0
v -1 -43 0
v -2 -43 0
v -2 -42 0
v -1 -42 0
v -36 -44 0
v -37 -44 0
v -37 -43 0
v -36 -43 0
v -37 -44 0
v -38 -44 0
v -38 -43 0
v -37 -43 0
v -38 -44 0
v -39 -44 0
v -39 -43 0
v -38 -43 0
v -41 -44 0
v -42 -44 0
v -42 -43 0
v -41 -43 0
v -42 -44 0
v -43 -44 0
v -43 -43 0
v -42 -43 0
v -43 -44 0
v -44 -44 0
v -44 -43 0
v -43 -43 0
v -44 -44 0
v -45 -44 0
v -45 -43 0
v -44 -43 0
v -34 -45 0
v -35 -45 0
v -35 -44 0
v -34 -44 0
v -35 -45 0
v -36 -45 0
v -36 -44 0
v -35 -44 0
v -36 -45 0
v -37 -45 0
v -37 -44 0
v -36 -44 0
v -41 -45 0
v -42 -45 0
v -42 -44 0
v -41 -44 0
v -42 -45 0
v -43 -45 0
v -43 -44 0
v -42 -44 0
v -43 -45 0
v -44 -45 0
v -44 -44 0
v -43 -44 0
v -44 -45 0
v -45 -45 0
v -45 -44 0
v -44 -44 0
v -9 -46 0
v -10 -46 0
v -10 -45 0
v -9 -45 0
v -10 -46 0
v -11 -46 0
v -11 -45 0
v -10 -45 0
v -11 -46 0
v -12 -46 0
v -12 -45 0
v -11 -45 0
v -12 -46 0
v -13 -46 0
v -13 -45 0
v -12 -45 0
v -31 -46 0
v -32 -46 0
v -32 -45 0
v -31 -45 0
v -32 -46 0
v -33 -46 0
v -33 -45 0
v -32 -45 0
v -33 -46 0
v -34 -46 0
v -34 -45 0
v -33 -45 0
v -41 -46 0
v -42 -46 0
v -42 -45 0
v -41 -45 0
v -42 -46 0
v -43 -46 0
v -43 -45 0
v -42 -45 0
v -43 -46 0
v -44 -46 0
v -44 -45 0
v -43 -45 0
v -44 -46 0
v -45 -46 0
v -45 -45 0
v -44 -45 0
v -9 -47 0
v -10 -47 0
v -10 -46 0
v -9 -46 0
v -10 -47 0
v -11 -47 0
v -11 -46 0
v -10 -46 0
v -11 -47 0
v -12 -47 0
v -12 -46 0
v -11 -46 0
v -12 -47 0
v -13 -47 0
v -13 -46 0
v -12 -46 0
v -41 -47 0
v -42 -47 0
v -42 -46 0
v -41 -46 0
v -42 -47 0
v -43 -47 0
v -43 -46 0
v -42 -46 0
v -9 -48 0
v -10 -48 0
v -10 -47 0
v -9 -47 0
v -10 -48 0
v -11 -48 0
v -11 -47 0
v -10 -47 0
v -11 -48 0
v -12 -48 0
v -12 -47 0
v -11 -47 0
v -12 -48 0
v -13 -48 0
v -13 -47 0
v -12 -47 0
v -9 -49 0
v -10 -49 0
v -10 -48 0
v -9 -48 0
v -10 -49 0
v -11 -49 0
v -11 -48 0
v -10 -48 0

# Texture cooridinates (Count = 93)
vt 0 0.08333331
vt 0.02080624 0.08333331
vt 0.02080624 0.1111111
vt 0 0.1111111
vt 0.04161248 0.08333331
vt 0.04161248 0.1111111
vt 0.06241873 0.08333331
vt 0.06241873 0.1111111
vt 0.08322497 0.08333331
vt 0.08322497 0.1111111
vt 0 0.05555558
vt 0.02080624 0.05555558
vt 0.04161248 0.05555558
vt 0.06241873 0.05555558
vt 0.08322497 0.05555558
vt 0 0.02777779
vt 0.02080624 0.02777779
vt 0.04161248 0.02777779
vt 0.06241873 0.02777779
vt 0.08322497 0.02777779
vt 0.2912874 0.1666667
vt 0.3120936 0.1666667
vt 0.3120936 0.1944444
vt 0.2912874 0.1944444
vt 0.3328999 0.1666667
vt 0.3328999 0.1944444
vt 0.3537061 0.1666667
vt 0.3537061 0.1944444
vt 0.3745123 0.1666667
vt 0.3745123 0.1944444
vt 0.2912874 0.1388889
vt 0.3120936 0.1388889
vt 0.3328999 0.1388889
vt 0.3537061 0.1388889
vt 0.3745123 0.1388889
vt 0.2912874 0.1111111
vt 0.3120936 0.1111111
vt 0.3328999 0.1111111
vt 0.3537061 0.1111111
vt 0.3745123 0.1111111
vt 0.2912874 0.08333331
vt 0.3120936 0.08333331
vt 0.3328999 0.08333331
vt 0.5825748 0.8611111
vt 0.603381 0.8611111
vt 0.603381 0.8888889
vt 0.5825748 0.8888889
vt 0.6241872 0.8611111
vt 0.6241872 0.8888889
vt 0.6449935 0.8611111
vt 0.6449935 0.8888889
vt 0.5825748 0.8333333
vt 0.603381 0.8333333
vt 0.6241872 0.8333333
vt 0.6449935 0.8333333
vt 0.1040312 0.5277778
vt 0.1248375 0.5277778
vt 0.1248375 0.5555556
vt 0.1040312 0.5555556
vt 0.1456437 0.5277778
vt 0.1456437 0.5555556
vt 0.7282184 0.6944444
vt 0.7490247 0.6944444
vt 0.7490247 0.7222222
vt 0.7282184 0.7222222
vt 0.7698309 0.6944444
vt 0.7698309 0.7222222
vt 0.7906372 0.6944444
vt 0.7906372 0.7222222
vt 0.5617685 0.8611111
vt 0.5617685 0.8888889
vt 0.5409623 0.8611111
vt 0.5409623 0.8888889
vt 0.7282184 0.6666666
vt 0.7490247 0.6666666
vt 0.7698309 0.6666666
vt 0.7906372 0.6666666
vt 0.5617685 0.8333333
vt 0.5409623 0.8333333
vt 0.5617685 0.8055556
vt 0.5825748 0.8055556
vt 0.5409623 0.8055556
vt 0.5617685 0.7777778
vt 0.5825748 0.7777778
vt 0.5409623 0.7777778
vt 0.06241873 0.8333333
vt 0.08322497 0.8333333
vt 0.08322497 0.8611111
vt 0.06241873 0.8611111
vt 0.1040312 0.8333333
vt 0.1040312 0.8611111
vt 0.1248375 0.8333333
vt 0.1248375 0.8611111

# Normal
vn 0 0 -1

# Mesh description
g TiniwisanHighway_mesh_0004

# Faces
f 1/1/1 2/2/1 3/3/1 4/4/1
f 5/2/1 6/5/1 7/6/1 8/3/1
f 9/5/1 10/7/1 11/8/1 12/6/1
f 13/7/1 14/9/1 15/10/1 16/8/1
f 17/1/1 18/2/1 19/3/1 20/4/1
f 21/2/1 22/5/1 23/6/1 24/3/1
f 25/5/1 26/7/1 27/8/1 28/6/1
f 29/7/1 30/9/1 31/10/1 32/8/1
f 33/11/1 34/12/1 35/2/1 36/1/1
f 37/12/1 38/13/1 39/5/1 40/2/1
f 41/13/1 42/14/1 43/7/1 44/5/1
f 45/14/1 46/15/1 47/9/1 48/7/1
f 49/11/1 50/12/1 51/2/1 52/1/1
f 53/12/1 54/13/1 55/5/1 56/2/1
f 57/13/1 58/14/1 59/7/1 60/5/1
f 61/14/1 62/15/1 63/9/1 64/7/1
f 65/16/1 66/17/1 67/12/1 68/11/1
f 69/17/1 70/18/1 71/13/1 72/12/1
f 73/18/1 74/19/1 75/14/1 76/13/1
f 77/19/1 78/20/1 79/15/1 80/14/1
f 81/16/1 82/17/1 83/12/1 84/11/1
f 85/17/1 86/18/1 87/13/1 88/12/1
f 89/18/1 90/19/1 91/14/1 92/13/1
f 93/19/1 94/20/1 95/15/1 96/14/1
f 97/1/1 98/2/1 99/3/1 100/4/1
f 101/2/1 102/5/1 103/6/1 104/3/1
f 105/5/1 106/7/1 107/8/1 108/6/1
f 109/7/1 110/9/1 111/10/1 112/8/1
f 113/21/1 114/22/1 115/23/1 116/24/1
f 117/22/1 118/25/1 119/26/1 120/23/1
f 121/25/1 122/27/1 123/28/1 124/26/1
f 125/27/1 126/29/1 127/30/1 128/28/1
f 129/11/1 130/12/1 131/2/1 132/1/1
f 133/12/1 134/13/1 135/5/1 136/2/1
f 137/13/1 138/14/1 139/7/1 140/5/1
f 141/14/1 142/15/1 143/9/1 144/7/1
f 145/21/1 146/22/1 147/23/1 148/24/1
f 149/22/1 150/25/1 151/26/1 152/23/1
f 153/25/1 154/27/1 155/28/1 156/26/1
f 157/27/1 158/29/1 159/30/1 160/28/1
f 161/31/1 162/32/1 163/22/1 164/21/1
f 165/32/1 166/33/1 167/25/1 168/22/1
f 169/33/1 170/34/1 171/27/1 172/25/1
f 173/34/1 174/35/1 175/29/1 176/27/1
f 177/16/1 178/17/1 179/12/1 180/11/1
f 181/17/1 182/18/1 183/13/1 184/12/1
f 185/18/1 186/19/1 187/14/1 188/13/1
f 189/19/1 190/20/1 191/15/1 192/14/1
f 193/31/1 194/32/1 195/22/1 196/21/1
f 197/32/1 198/33/1 199/25/1 200/22/1
f 201/33/1 202/34/1 203/27/1 204/25/1
f 205/34/1 206/35/1 207/29/1 208/27/1
f 209/36/1 210/37/1 211/32/1 212/31/1
f 213/37/1 214/38/1 215/33/1 216/32/1
f 217/38/1 218/39/1 219/34/1 220/33/1
f 221/39/1 222/40/1 223/35/1 224/34/1
f 225/36/1 226/37/1 227/32/1 228/31/1
f 229/37/1 230/38/1 231/33/1 232/32/1
f 233/38/1 234/39/1 235/34/1 236/33/1
f 237/39/1 238/40/1 239/35/1 240/34/1
f 241/41/1 242/42/1 243/37/1 244/36/1
f 245/42/1 246/43/1 247/38/1 248/37/1
f 249/41/1 250/42/1 251/37/1 252/36/1
f 253/42/1 254/43/1 255/38/1 256/37/1
f 257/44/1 258/45/1 259/46/1 260/47/1
f 261/45/1 262/48/1 263/49/1 264/46/1
f 265/48/1 266/50/1 267/51/1 268/49/1
f 269/52/1 270/53/1 271/45/1 272/44/1
f 273/53/1 274/54/1 275/48/1 276/45/1
f 277/54/1 278/55/1 279/50/1 280/48/1
f 281/56/1 282/57/1 283/58/1 284/59/1
f 285/57/1 286/60/1 287/61/1 288/58/1
f 289/56/1 290/57/1 291/58/1 292/59/1
f 293/57/1 294/60/1 295/61/1 296/58/1
f 297/56/1 298/57/1 299/58/1 300/59/1
f 301/57/1 302/60/1 303/61/1 304/58/1
f 305/56/1 306/57/1 307/58/1 308/59/1
f 309/57/1 310/60/1 311/61/1 312/58/1
f 313/1/1 314/2/1 315/3/1 316/4/1
f 317/2/1 318/5/1 319/6/1 320/3/1
f 321/5/1 322/7/1 323/8/1 324/6/1
f 325/7/1 326/9/1 327/10/1 328/8/1
f 329/11/1 330/12/1 331/2/1 332/1/1
f 333/12/1 334/13/1 335/5/1 336/2/1
f 337/13/1 338/14/1 339/7/1 340/5/1
f 341/14/1 342/15/1 343/9/1 344/7/1
f 345/16/1 346/17/1 347/12/1 348/11/1
f 349/17/1 350/18/1 351/13/1 352/12/1
f 353/18/1 354/19/1 355/14/1 356/13/1
f 357/19/1 358/20/1 359/15/1 360/14/1
f 361/62/1 362/63/1 363/64/1 364/65/1
f 365/63/1 366/66/1 367/67/1 368/64/1
f 369/66/1 370/68/1 371/69/1 372/67/1
f 373/70/1 374/44/1 375/47/1 376/71/1
f 377/72/1 378/70/1 379/71/1 380/73/1
f 381/62/1 382/63/1 383/64/1 384/65/1
f 385/63/1 386/66/1 387/67/1 388/64/1
f 389/66/1 390/68/1 391/69/1 392/67/1
f 393/1/1 394/2/1 395/3/1 396/4/1
f 397/2/1 398/5/1 399/6/1 400/3/1
f 401/5/1 402/7/1 403/8/1 404/6/1
f 405/7/1 406/9/1 407/10/1 408/8/1
f 409/74/1 410/75/1 411/63/1 412/62/1
f 413/75/1 414/76/1 415/66/1 416/63/1
f 417/76/1 418/77/1 419/68/1 420/66/1
f 421/78/1 422/52/1 423/44/1 424/70/1
f 425/79/1 426/78/1 427/70/1 428/72/1
f 429/74/1 430/75/1 431/63/1 432/62/1
f 433/75/1 434/76/1 435/66/1 436/63/1
f 437/76/1 438/77/1 439/68/1 440/66/1
f 441/11/1 442/12/1 443/2/1 444/1/1
f 445/12/1 446/13/1 447/5/1 448/2/1
f 449/13/1 450/14/1 451/7/1 452/5/1
f 453/14/1 454/15/1 455/9/1 456/7/1
f 457/80/1 458/81/1 459/52/1 460/78/1
f 461/82/1 462/80/1 463/78/1 464/79/1
f 465/16/1 466/17/1 467/12/1 468/11/1
f 469/17/1 470/18/1 471/13/1 472/12/1
f 473/18/1 474/19/1 475/14/1 476/13/1
f 477/19/1 478/20/1 479/15/1 480/14/1
f 481/83/1 482/84/1 483/81/1 484/80/1
f 485/85/1 486/83/1 487/80/1 488/82/1
f 489/56/1 490/57/1 491/58/1 492/59/1
f 493/57/1 494/60/1 495/61/1 496/58/1
f 497/21/1 498/22/1 499/23/1 500/24/1
f 501/22/1 502/25/1 503/26/1 504/23/1
f 505/25/1 506/27/1 507/28/1 508/26/1
f 509/27/1 510/29/1 511/30/1 512/28/1
f 513/1/1 514/2/1 515/3/1 516/4/1
f 517/2/1 518/5/1 519/6/1 520/3/1
f 521/5/1 522/7/1 523/8/1 524/6/1
f 525/7/1 526/9/1 527/10/1 528/8/1
f 529/56/1 530/57/1 531/58/1 532/59/1
f 533/57/1 534/60/1 535/61/1 536/58/1
f 537/31/1 538/32/1 539/22/1 540/21/1
f 541/32/1 542/33/1 543/25/1 544/22/1
f 545/33/1 546/34/1 547/27/1 548/25/1
f 549/34/1 550/35/1 551/29/1 552/27/1
f 553/11/1 554/12/1 555/2/1 556/1/1
f 557/12/1 558/13/1 559/5/1 560/2/1
f 561/13/1 562/14/1 563/7/1 564/5/1
f 565/14/1 566/15/1 567/9/1 568/7/1
f 569/36/1 570/37/1 571/32/1 572/31/1
f 573/37/1 574/38/1 575/33/1 576/32/1
f 577/38/1 578/39/1 579/34/1 580/33/1
f 581/39/1 582/40/1 583/35/1 584/34/1
f 585/16/1 586/17/1 587/12/1 588/11/1
f 589/17/1 590/18/1 591/13/1 592/12/1
f 593/18/1 594/19/1 595/14/1 596/13/1
f 597/19/1 598/20/1 599/15/1 600/14/1
f 601/41/1 602/42/1 603/37/1 604/36/1
f 605/42/1 606/43/1 607/38/1 608/37/1
f 609/86/1 610/87/1 611/88/1 612/89/1
f 613/87/1 614/90/1 615/91/1 616/88/1
f 617/90/1 618/92/1 619/93/1 620/91/1
f 621/21/1 622/22/1 623/23/1 624/24/1
f 625/22/1 626/25/1 627/26/1 628/23/1
f 629/25/1 630/27/1 631/28/1 632/26/1
f 633/27/1 634/29/1 635/30/1 636/28/1
f 637/86/1 638/87/1 639/88/1 640/89/1
f 641/87/1 642/90/1 643/91/1 644/88/1
f 645/90/1 646/92/1 647/93/1 648/91/1
f 649/31/1 650/32/1 651/22/1 652/21/1
f 653/32/1 654/33/1 655/25/1 656/22/1
f 657/33/1 658/34/1 659/27/1 660/25/1
f 661/34/1 662/35/1 663/29/1 664/27/1
f 665/21/1 666/22/1 667/23/1 668/24/1
f 669/22/1 670/25/1 671/26/1 672/23/1
f 673/25/1 674/27/1 675/28/1 676/26/1
f 677/27/1 678/29/1 679/30/1 680/28/1
f 681/86/1 682/87/1 683/88/1 684/89/1
f 685/87/1 686/90/1 687/91/1 688/88/1
f 689/90/1 690/92/1 691/93/1 692/91/1
f 693/36/1 694/37/1 695/32/1 696/31/1
f 697/37/1 698/38/1 699/33/1 700/32/1
f 701/38/1 702/39/1 703/34/1 704/33/1
f 705/39/1 706/40/1 707/35/1 708/34/1
f 709/31/1 710/32/1 711/22/1 712/21/1
f 713/32/1 714/33/1 715/25/1 716/22/1
f 717/33/1 718/34/1 719/27/1 720/25/1
f 721/34/1 722/35/1 723/29/1 724/27/1
f 725/41/1 726/42/1 727/37/1 728/36/1
f 729/42/1 730/43/1 731/38/1 732/37/1
f 733/36/1 734/37/1 735/32/1 736/31/1
f 737/37/1 738/38/1 739/33/1 740/32/1
f 741/38/1 742/39/1 743/34/1 744/33/1
f 745/39/1 746/40/1 747/35/1 748/34/1
f 749/41/1 750/42/1 751/37/1 752/36/1
f 753/42/1 754/43/1 755/38/1 756/37/1

