# Tiled2Unity generated file. Do not modify by hand.
# Wavefront file for 'Urduja_mesh_0003.obj'

# Vertices (Count = 96)
v -87 -36 0
v -88 -36 0
v -88 -35 0
v -87 -35 0
v -86 -36 0
v -87 -36 0
v -87 -35 0
v -86 -35 0
v -87 -37 0
v -88 -37 0
v -88 -36 0
v -87 -36 0
v -86 -37 0
v -87 -37 0
v -87 -36 0
v -86 -36 0
v -87 -38 0
v -88 -38 0
v -88 -37 0
v -87 -37 0
v -86 -38 0
v -87 -38 0
v -87 -37 0
v -86 -37 0
v -86 -46 0
v -87 -46 0
v -87 -45 0
v -86 -45 0
v -85 -46 0
v -86 -46 0
v -86 -45 0
v -85 -45 0
v -86 -47 0
v -87 -47 0
v -87 -46 0
v -86 -46 0
v -85 -47 0
v -86 -47 0
v -86 -46 0
v -85 -46 0
v -86 -48 0
v -87 -48 0
v -87 -47 0
v -86 -47 0
v -85 -48 0
v -86 -48 0
v -86 -47 0
v -85 -47 0
v -85 -49 0
v -86 -49 0
v -86 -48 0
v -85 -48 0
v -84 -49 0
v -85 -49 0
v -85 -48 0
v -84 -48 0
v -85 -50 0
v -86 -50 0
v -86 -49 0
v -85 -49 0
v -84 -50 0
v -85 -50 0
v -85 -49 0
v -84 -49 0
v -85 -51 0
v -86 -51 0
v -86 -50 0
v -85 -50 0
v -84 -51 0
v -85 -51 0
v -85 -50 0
v -84 -50 0
v -84 -52 0
v -85 -52 0
v -85 -51 0
v -84 -51 0
v -83 -52 0
v -84 -52 0
v -84 -51 0
v -83 -51 0
v -84 -53 0
v -85 -53 0
v -85 -52 0
v -84 -52 0
v -83 -53 0
v -84 -53 0
v -84 -52 0
v -83 -52 0
v -84 -54 0
v -85 -54 0
v -85 -53 0
v -84 -53 0
v -83 -54 0
v -84 -54 0
v -84 -53 0
v -83 -53 0

# Texture cooridinates (Count = 32)
vt 0.1873782 0.5001221
vt 0.2079404 0.5001221
vt 0.2079404 0.5276557
vt 0.1873782 0.5276557
vt 0.0001220703 0.7223443
vt 0.02068417 0.7223443
vt 0.02068417 0.7498779
vt 0.0001220703 0.7498779
vt 0.1873782 0.4723443
vt 0.2079404 0.4723443
vt 0.2079404 0.4998779
vt 0.1873782 0.4998779
vt 0.1249595 0.7223443
vt 0.1455216 0.7223443
vt 0.1455216 0.7498779
vt 0.1249595 0.7498779
vt 0.1249595 0.4445665
vt 0.1455216 0.4445665
vt 0.1455216 0.4721001
vt 0.1249595 0.4721001
vt 0.1249595 0.6945665
vt 0.1455216 0.6945665
vt 0.1455216 0.7221001
vt 0.1249595 0.7221001
vt 0.1041533 0.4167888
vt 0.1247154 0.4167888
vt 0.1247154 0.4443223
vt 0.1041533 0.4443223
vt 0.1873782 0.4445665
vt 0.2079404 0.4445665
vt 0.2079404 0.4721001
vt 0.1873782 0.4721001

# Normal
vn 0 0 -1

# Mesh description
g Urduja_mesh_0003

# Faces
f 1/1/1 2/2/1 3/3/1 4/4/1
f 5/5/1 6/6/1 7/7/1 8/8/1
f 9/9/1 10/10/1 11/11/1 12/12/1
f 13/13/1 14/14/1 15/15/1 16/16/1
f 17/17/1 18/18/1 19/19/1 20/20/1
f 21/21/1 22/22/1 23/23/1 24/24/1
f 25/1/1 26/2/1 27/3/1 28/4/1
f 29/5/1 30/6/1 31/7/1 32/8/1
f 33/9/1 34/10/1 35/11/1 36/12/1
f 37/13/1 38/14/1 39/15/1 40/16/1
f 41/25/1 42/26/1 43/27/1 44/28/1
f 45/21/1 46/22/1 47/23/1 48/24/1
f 49/1/1 50/2/1 51/3/1 52/4/1
f 53/5/1 54/6/1 55/7/1 56/8/1
f 57/29/1 58/30/1 59/31/1 60/32/1
f 61/13/1 62/14/1 63/15/1 64/16/1
f 65/25/1 66/26/1 67/27/1 68/28/1
f 69/21/1 70/22/1 71/23/1 72/24/1
f 73/1/1 74/2/1 75/3/1 76/4/1
f 77/5/1 78/6/1 79/7/1 80/8/1
f 81/29/1 82/30/1 83/31/1 84/32/1
f 85/13/1 86/14/1 87/15/1 88/16/1
f 89/25/1 90/26/1 91/27/1 92/28/1
f 93/13/1 94/14/1 95/15/1 96/16/1

