# Tiled2Unity generated file. Do not modify by hand.
# Wavefront file for 'UpperRightSaLibrary_mesh_0004.obj'

# Vertices (Count = 392)
v -66 -13 0
v -67 -13 0
v -67 -12 0
v -66 -12 0
v -65 -13 0
v -66 -13 0
v -66 -12 0
v -65 -12 0
v -64 -13 0
v -65 -13 0
v -65 -12 0
v -64 -12 0
v -63 -13 0
v -64 -13 0
v -64 -12 0
v -63 -12 0
v -62 -13 0
v -63 -13 0
v -63 -12 0
v -62 -12 0
v -61 -13 0
v -62 -13 0
v -62 -12 0
v -61 -12 0
v -60 -13 0
v -61 -13 0
v -61 -12 0
v -60 -12 0
v -66 -14 0
v -67 -14 0
v -67 -13 0
v -66 -13 0
v -65 -14 0
v -66 -14 0
v -66 -13 0
v -65 -13 0
v -64 -14 0
v -65 -14 0
v -65 -13 0
v -64 -13 0
v -63 -14 0
v -64 -14 0
v -64 -13 0
v -63 -13 0
v -62 -14 0
v -63 -14 0
v -63 -13 0
v -62 -13 0
v -61 -14 0
v -62 -14 0
v -62 -13 0
v -61 -13 0
v -60 -14 0
v -61 -14 0
v -61 -13 0
v -60 -13 0
v -66 -15 0
v -67 -15 0
v -67 -14 0
v -66 -14 0
v -65 -15 0
v -66 -15 0
v -66 -14 0
v -65 -14 0
v -64 -15 0
v -65 -15 0
v -65 -14 0
v -64 -14 0
v -63 -15 0
v -64 -15 0
v -64 -14 0
v -63 -14 0
v -62 -15 0
v -63 -15 0
v -63 -14 0
v -62 -14 0
v -61 -15 0
v -62 -15 0
v -62 -14 0
v -61 -14 0
v -60 -15 0
v -61 -15 0
v -61 -14 0
v -60 -14 0
v -66 -16 0
v -67 -16 0
v -67 -15 0
v -66 -15 0
v -65 -16 0
v -66 -16 0
v -66 -15 0
v -65 -15 0
v -64 -16 0
v -65 -16 0
v -65 -15 0
v -64 -15 0
v -63 -16 0
v -64 -16 0
v -64 -15 0
v -63 -15 0
v -62 -16 0
v -63 -16 0
v -63 -15 0
v -62 -15 0
v -61 -16 0
v -62 -16 0
v -62 -15 0
v -61 -15 0
v -60 -16 0
v -61 -16 0
v -61 -15 0
v -60 -15 0
v -36 -19 0
v -37 -19 0
v -37 -18 0
v -36 -18 0
v -35 -19 0
v -36 -19 0
v -36 -18 0
v -35 -18 0
v -34 -19 0
v -35 -19 0
v -35 -18 0
v -34 -18 0
v -33 -19 0
v -34 -19 0
v -34 -18 0
v -33 -18 0
v -32 -19 0
v -33 -19 0
v -33 -18 0
v -32 -18 0
v -31 -19 0
v -32 -19 0
v -32 -18 0
v -31 -18 0
v -30 -19 0
v -31 -19 0
v -31 -18 0
v -30 -18 0
v -36 -20 0
v -37 -20 0
v -37 -19 0
v -36 -19 0
v -35 -20 0
v -36 -20 0
v -36 -19 0
v -35 -19 0
v -34 -20 0
v -35 -20 0
v -35 -19 0
v -34 -19 0
v -33 -20 0
v -34 -20 0
v -34 -19 0
v -33 -19 0
v -32 -20 0
v -33 -20 0
v -33 -19 0
v -32 -19 0
v -31 -20 0
v -32 -20 0
v -32 -19 0
v -31 -19 0
v -30 -20 0
v -31 -20 0
v -31 -19 0
v -30 -19 0
v -36 -21 0
v -37 -21 0
v -37 -20 0
v -36 -20 0
v -35 -21 0
v -36 -21 0
v -36 -20 0
v -35 -20 0
v -34 -21 0
v -35 -21 0
v -35 -20 0
v -34 -20 0
v -33 -21 0
v -34 -21 0
v -34 -20 0
v -33 -20 0
v -32 -21 0
v -33 -21 0
v -33 -20 0
v -32 -20 0
v -31 -21 0
v -32 -21 0
v -32 -20 0
v -31 -20 0
v -30 -21 0
v -31 -21 0
v -31 -20 0
v -30 -20 0
v -36 -22 0
v -37 -22 0
v -37 -21 0
v -36 -21 0
v -35 -22 0
v -36 -22 0
v -36 -21 0
v -35 -21 0
v -34 -22 0
v -35 -22 0
v -35 -21 0
v -34 -21 0
v -33 -22 0
v -34 -22 0
v -34 -21 0
v -33 -21 0
v -32 -22 0
v -33 -22 0
v -33 -21 0
v -32 -21 0
v -31 -22 0
v -32 -22 0
v -32 -21 0
v -31 -21 0
v -30 -22 0
v -31 -22 0
v -31 -21 0
v -30 -21 0
v -80 -41 0
v -81 -41 0
v -81 -40 0
v -80 -40 0
v -79 -41 0
v -80 -41 0
v -80 -40 0
v -79 -40 0
v -78 -41 0
v -79 -41 0
v -79 -40 0
v -78 -40 0
v -77 -41 0
v -78 -41 0
v -78 -40 0
v -77 -40 0
v -76 -41 0
v -77 -41 0
v -77 -40 0
v -76 -40 0
v -75 -41 0
v -76 -41 0
v -76 -40 0
v -75 -40 0
v -74 -41 0
v -75 -41 0
v -75 -40 0
v -74 -40 0
v -80 -42 0
v -81 -42 0
v -81 -41 0
v -80 -41 0
v -79 -42 0
v -80 -42 0
v -80 -41 0
v -79 -41 0
v -78 -42 0
v -79 -42 0
v -79 -41 0
v -78 -41 0
v -77 -42 0
v -78 -42 0
v -78 -41 0
v -77 -41 0
v -76 -42 0
v -77 -42 0
v -77 -41 0
v -76 -41 0
v -75 -42 0
v -76 -42 0
v -76 -41 0
v -75 -41 0
v -74 -42 0
v -75 -42 0
v -75 -41 0
v -74 -41 0
v -80 -43 0
v -81 -43 0
v -81 -42 0
v -80 -42 0
v -79 -43 0
v -80 -43 0
v -80 -42 0
v -79 -42 0
v -78 -43 0
v -79 -43 0
v -79 -42 0
v -78 -42 0
v -77 -43 0
v -78 -43 0
v -78 -42 0
v -77 -42 0
v -76 -43 0
v -77 -43 0
v -77 -42 0
v -76 -42 0
v -75 -43 0
v -76 -43 0
v -76 -42 0
v -75 -42 0
v -74 -43 0
v -75 -43 0
v -75 -42 0
v -74 -42 0
v -18 -55 0
v -19 -55 0
v -19 -54 0
v -18 -54 0
v -17 -55 0
v -18 -55 0
v -18 -54 0
v -17 -54 0
v -16 -55 0
v -17 -55 0
v -17 -54 0
v -16 -54 0
v -15 -55 0
v -16 -55 0
v -16 -54 0
v -15 -54 0
v -14 -55 0
v -15 -55 0
v -15 -54 0
v -14 -54 0
v -13 -55 0
v -14 -55 0
v -14 -54 0
v -13 -54 0
v -12 -55 0
v -13 -55 0
v -13 -54 0
v -12 -54 0
v -18 -56 0
v -19 -56 0
v -19 -55 0
v -18 -55 0
v -17 -56 0
v -18 -56 0
v -18 -55 0
v -17 -55 0
v -16 -56 0
v -17 -56 0
v -17 -55 0
v -16 -55 0
v -15 -56 0
v -16 -56 0
v -16 -55 0
v -15 -55 0
v -14 -56 0
v -15 -56 0
v -15 -55 0
v -14 -55 0
v -13 -56 0
v -14 -56 0
v -14 -55 0
v -13 -55 0
v -12 -56 0
v -13 -56 0
v -13 -55 0
v -12 -55 0
v -18 -57 0
v -19 -57 0
v -19 -56 0
v -18 -56 0
v -17 -57 0
v -18 -57 0
v -18 -56 0
v -17 -56 0
v -16 -57 0
v -17 -57 0
v -17 -56 0
v -16 -56 0
v -15 -57 0
v -16 -57 0
v -16 -56 0
v -15 -56 0
v -14 -57 0
v -15 -57 0
v -15 -56 0
v -14 -56 0
v -13 -57 0
v -14 -57 0
v -14 -56 0
v -13 -56 0
v -12 -57 0
v -13 -57 0
v -13 -56 0
v -12 -56 0

# Texture cooridinates (Count = 196)
vt 0.4097221 0.2369642
vt 0.4350779 0.2369642
vt 0.4350779 0.2630358
vt 0.4097221 0.2630358
vt 0.3841221 0.2369642
vt 0.4094779 0.2369642
vt 0.4094779 0.2630358
vt 0.3841221 0.2630358
vt 0.3585221 0.2369642
vt 0.3838779 0.2369642
vt 0.3838779 0.2630358
vt 0.3585221 0.2630358
vt 0.3329221 0.2369642
vt 0.3582779 0.2369642
vt 0.3582779 0.2630358
vt 0.3329221 0.2630358
vt 0.3073221 0.2369642
vt 0.3326779 0.2369642
vt 0.3326779 0.2630358
vt 0.3073221 0.2630358
vt 0.2817221 0.2369642
vt 0.3070779 0.2369642
vt 0.3070779 0.2630358
vt 0.2817221 0.2630358
vt 0.2561221 0.2369642
vt 0.2814779 0.2369642
vt 0.2814779 0.2630358
vt 0.2561221 0.2630358
vt 0.4097221 0.2106484
vt 0.4350779 0.2106484
vt 0.4350779 0.23672
vt 0.4097221 0.23672
vt 0.3841221 0.2106484
vt 0.4094779 0.2106484
vt 0.4094779 0.23672
vt 0.3841221 0.23672
vt 0.3585221 0.2106484
vt 0.3838779 0.2106484
vt 0.3838779 0.23672
vt 0.3585221 0.23672
vt 0.3329221 0.2106484
vt 0.3582779 0.2106484
vt 0.3582779 0.23672
vt 0.3329221 0.23672
vt 0.3073221 0.2106484
vt 0.3326779 0.2106484
vt 0.3326779 0.23672
vt 0.3073221 0.23672
vt 0.2817221 0.2106484
vt 0.3070779 0.2106484
vt 0.3070779 0.23672
vt 0.2817221 0.23672
vt 0.2561221 0.2106484
vt 0.2814779 0.2106484
vt 0.2814779 0.23672
vt 0.2561221 0.23672
vt 0.4097221 0.1843326
vt 0.4350779 0.1843326
vt 0.4350779 0.2104042
vt 0.4097221 0.2104042
vt 0.3841221 0.1843326
vt 0.4094779 0.1843326
vt 0.4094779 0.2104042
vt 0.3841221 0.2104042
vt 0.3585221 0.1843326
vt 0.3838779 0.1843326
vt 0.3838779 0.2104042
vt 0.3585221 0.2104042
vt 0.3329221 0.1843326
vt 0.3582779 0.1843326
vt 0.3582779 0.2104042
vt 0.3329221 0.2104042
vt 0.3073221 0.1843326
vt 0.3326779 0.1843326
vt 0.3326779 0.2104042
vt 0.3073221 0.2104042
vt 0.2817221 0.1843326
vt 0.3070779 0.1843326
vt 0.3070779 0.2104042
vt 0.2817221 0.2104042
vt 0.2561221 0.1843326
vt 0.2814779 0.1843326
vt 0.2814779 0.2104042
vt 0.2561221 0.2104042
vt 0.4097221 0.1580168
vt 0.4350779 0.1580168
vt 0.4350779 0.1840885
vt 0.4097221 0.1840885
vt 0.3841221 0.1580168
vt 0.4094779 0.1580168
vt 0.4094779 0.1840885
vt 0.3841221 0.1840885
vt 0.3585221 0.1580168
vt 0.3838779 0.1580168
vt 0.3838779 0.1840885
vt 0.3585221 0.1840885
vt 0.3329221 0.1580168
vt 0.3582779 0.1580168
vt 0.3582779 0.1840885
vt 0.3329221 0.1840885
vt 0.3073221 0.1580168
vt 0.3326779 0.1580168
vt 0.3326779 0.1840885
vt 0.3073221 0.1840885
vt 0.2817221 0.1580168
vt 0.3070779 0.1580168
vt 0.3070779 0.1840885
vt 0.2817221 0.1840885
vt 0.2561221 0.1580168
vt 0.2814779 0.1580168
vt 0.2814779 0.1840885
vt 0.2561221 0.1840885
vt 0.4097221 0.3685431
vt 0.4350779 0.3685431
vt 0.4350779 0.3946148
vt 0.4097221 0.3946148
vt 0.3841221 0.3685431
vt 0.4094779 0.3685431
vt 0.4094779 0.3946148
vt 0.3841221 0.3946148
vt 0.3585221 0.3685431
vt 0.3838779 0.3685431
vt 0.3838779 0.3946148
vt 0.3585221 0.3946148
vt 0.3329221 0.3685431
vt 0.3582779 0.3685431
vt 0.3582779 0.3946148
vt 0.3329221 0.3946148
vt 0.3073221 0.3685431
vt 0.3326779 0.3685431
vt 0.3326779 0.3946148
vt 0.3073221 0.3946148
vt 0.2817221 0.3685431
vt 0.3070779 0.3685431
vt 0.3070779 0.3946148
vt 0.2817221 0.3946148
vt 0.2561221 0.3685431
vt 0.2814779 0.3685431
vt 0.2814779 0.3946148
vt 0.2561221 0.3946148
vt 0.4097221 0.3422273
vt 0.4350779 0.3422273
vt 0.4350779 0.368299
vt 0.4097221 0.368299
vt 0.3841221 0.3422273
vt 0.4094779 0.3422273
vt 0.4094779 0.368299
vt 0.3841221 0.368299
vt 0.3585221 0.3422273
vt 0.3838779 0.3422273
vt 0.3838779 0.368299
vt 0.3585221 0.368299
vt 0.3329221 0.3422273
vt 0.3582779 0.3422273
vt 0.3582779 0.368299
vt 0.3329221 0.368299
vt 0.3073221 0.3422273
vt 0.3326779 0.3422273
vt 0.3326779 0.368299
vt 0.3073221 0.368299
vt 0.2817221 0.3422273
vt 0.3070779 0.3422273
vt 0.3070779 0.368299
vt 0.2817221 0.368299
vt 0.2561221 0.3422273
vt 0.2814779 0.3422273
vt 0.2814779 0.368299
vt 0.2561221 0.368299
vt 0.4097221 0.3159115
vt 0.4350779 0.3159115
vt 0.4350779 0.3419832
vt 0.4097221 0.3419832
vt 0.3841221 0.3159115
vt 0.4094779 0.3159115
vt 0.4094779 0.3419832
vt 0.3841221 0.3419832
vt 0.3585221 0.3159115
vt 0.3838779 0.3159115
vt 0.3838779 0.3419832
vt 0.3585221 0.3419832
vt 0.3329221 0.3159115
vt 0.3582779 0.3159115
vt 0.3582779 0.3419832
vt 0.3329221 0.3419832
vt 0.3073221 0.3159115
vt 0.3326779 0.3159115
vt 0.3326779 0.3419832
vt 0.3073221 0.3419832
vt 0.2817221 0.3159115
vt 0.3070779 0.3159115
vt 0.3070779 0.3419832
vt 0.2817221 0.3419832
vt 0.2561221 0.3159115
vt 0.2814779 0.3159115
vt 0.2814779 0.3419832
vt 0.2561221 0.3419832

# Normal
vn 0 0 -1

# Mesh description
g UpperRightSaLibrary_mesh_0004

# Faces
f 1/1/1 2/2/1 3/3/1 4/4/1
f 5/5/1 6/6/1 7/7/1 8/8/1
f 9/9/1 10/10/1 11/11/1 12/12/1
f 13/13/1 14/14/1 15/15/1 16/16/1
f 17/17/1 18/18/1 19/19/1 20/20/1
f 21/21/1 22/22/1 23/23/1 24/24/1
f 25/25/1 26/26/1 27/27/1 28/28/1
f 29/29/1 30/30/1 31/31/1 32/32/1
f 33/33/1 34/34/1 35/35/1 36/36/1
f 37/37/1 38/38/1 39/39/1 40/40/1
f 41/41/1 42/42/1 43/43/1 44/44/1
f 45/45/1 46/46/1 47/47/1 48/48/1
f 49/49/1 50/50/1 51/51/1 52/52/1
f 53/53/1 54/54/1 55/55/1 56/56/1
f 57/57/1 58/58/1 59/59/1 60/60/1
f 61/61/1 62/62/1 63/63/1 64/64/1
f 65/65/1 66/66/1 67/67/1 68/68/1
f 69/69/1 70/70/1 71/71/1 72/72/1
f 73/73/1 74/74/1 75/75/1 76/76/1
f 77/77/1 78/78/1 79/79/1 80/80/1
f 81/81/1 82/82/1 83/83/1 84/84/1
f 85/85/1 86/86/1 87/87/1 88/88/1
f 89/89/1 90/90/1 91/91/1 92/92/1
f 93/93/1 94/94/1 95/95/1 96/96/1
f 97/97/1 98/98/1 99/99/1 100/100/1
f 101/101/1 102/102/1 103/103/1 104/104/1
f 105/105/1 106/106/1 107/107/1 108/108/1
f 109/109/1 110/110/1 111/111/1 112/112/1
f 113/1/1 114/2/1 115/3/1 116/4/1
f 117/5/1 118/6/1 119/7/1 120/8/1
f 121/9/1 122/10/1 123/11/1 124/12/1
f 125/13/1 126/14/1 127/15/1 128/16/1
f 129/17/1 130/18/1 131/19/1 132/20/1
f 133/21/1 134/22/1 135/23/1 136/24/1
f 137/25/1 138/26/1 139/27/1 140/28/1
f 141/29/1 142/30/1 143/31/1 144/32/1
f 145/33/1 146/34/1 147/35/1 148/36/1
f 149/37/1 150/38/1 151/39/1 152/40/1
f 153/41/1 154/42/1 155/43/1 156/44/1
f 157/45/1 158/46/1 159/47/1 160/48/1
f 161/49/1 162/50/1 163/51/1 164/52/1
f 165/53/1 166/54/1 167/55/1 168/56/1
f 169/57/1 170/58/1 171/59/1 172/60/1
f 173/61/1 174/62/1 175/63/1 176/64/1
f 177/65/1 178/66/1 179/67/1 180/68/1
f 181/69/1 182/70/1 183/71/1 184/72/1
f 185/73/1 186/74/1 187/75/1 188/76/1
f 189/77/1 190/78/1 191/79/1 192/80/1
f 193/81/1 194/82/1 195/83/1 196/84/1
f 197/85/1 198/86/1 199/87/1 200/88/1
f 201/89/1 202/90/1 203/91/1 204/92/1
f 205/93/1 206/94/1 207/95/1 208/96/1
f 209/97/1 210/98/1 211/99/1 212/100/1
f 213/101/1 214/102/1 215/103/1 216/104/1
f 217/105/1 218/106/1 219/107/1 220/108/1
f 221/109/1 222/110/1 223/111/1 224/112/1
f 225/113/1 226/114/1 227/115/1 228/116/1
f 229/117/1 230/118/1 231/119/1 232/120/1
f 233/121/1 234/122/1 235/123/1 236/124/1
f 237/125/1 238/126/1 239/127/1 240/128/1
f 241/129/1 242/130/1 243/131/1 244/132/1
f 245/133/1 246/134/1 247/135/1 248/136/1
f 249/137/1 250/138/1 251/139/1 252/140/1
f 253/141/1 254/142/1 255/143/1 256/144/1
f 257/145/1 258/146/1 259/147/1 260/148/1
f 261/149/1 262/150/1 263/151/1 264/152/1
f 265/153/1 266/154/1 267/155/1 268/156/1
f 269/157/1 270/158/1 271/159/1 272/160/1
f 273/161/1 274/162/1 275/163/1 276/164/1
f 277/165/1 278/166/1 279/167/1 280/168/1
f 281/169/1 282/170/1 283/171/1 284/172/1
f 285/173/1 286/174/1 287/175/1 288/176/1
f 289/177/1 290/178/1 291/179/1 292/180/1
f 293/181/1 294/182/1 295/183/1 296/184/1
f 297/185/1 298/186/1 299/187/1 300/188/1
f 301/189/1 302/190/1 303/191/1 304/192/1
f 305/193/1 306/194/1 307/195/1 308/196/1
f 309/113/1 310/114/1 311/115/1 312/116/1
f 313/117/1 314/118/1 315/119/1 316/120/1
f 317/121/1 318/122/1 319/123/1 320/124/1
f 321/125/1 322/126/1 323/127/1 324/128/1
f 325/129/1 326/130/1 327/131/1 328/132/1
f 329/133/1 330/134/1 331/135/1 332/136/1
f 333/137/1 334/138/1 335/139/1 336/140/1
f 337/141/1 338/142/1 339/143/1 340/144/1
f 341/145/1 342/146/1 343/147/1 344/148/1
f 345/149/1 346/150/1 347/151/1 348/152/1
f 349/153/1 350/154/1 351/155/1 352/156/1
f 353/157/1 354/158/1 355/159/1 356/160/1
f 357/161/1 358/162/1 359/163/1 360/164/1
f 361/165/1 362/166/1 363/167/1 364/168/1
f 365/169/1 366/170/1 367/171/1 368/172/1
f 369/173/1 370/174/1 371/175/1 372/176/1
f 373/177/1 374/178/1 375/179/1 376/180/1
f 377/181/1 378/182/1 379/183/1 380/184/1
f 381/185/1 382/186/1 383/187/1 384/188/1
f 385/189/1 386/190/1 387/191/1 388/192/1
f 389/193/1 390/194/1 391/195/1 392/196/1

