# Tiled2Unity generated file. Do not modify by hand.
# Wavefront file for 'UpperBankSentral1_mesh_0006.obj'

# Vertices (Count = 1036)
v -40 -5 0
v -41 -5 0
v -41 -4 0
v -40 -4 0
v -39 -5 0
v -40 -5 0
v -40 -4 0
v -39 -4 0
v -38 -5 0
v -39 -5 0
v -39 -4 0
v -38 -4 0
v -37 -5 0
v -38 -5 0
v -38 -4 0
v -37 -4 0
v -44 -6 0
v -45 -6 0
v -45 -5 0
v -44 -5 0
v -43 -6 0
v -44 -6 0
v -44 -5 0
v -43 -5 0
v -42 -6 0
v -43 -6 0
v -43 -5 0
v -42 -5 0
v -41 -6 0
v -42 -6 0
v -42 -5 0
v -41 -5 0
v -40 -6 0
v -41 -6 0
v -41 -5 0
v -40 -5 0
v -39 -6 0
v -40 -6 0
v -40 -5 0
v -39 -5 0
v -38 -6 0
v -39 -6 0
v -39 -5 0
v -38 -5 0
v -37 -6 0
v -38 -6 0
v -38 -5 0
v -37 -5 0
v -44 -7 0
v -45 -7 0
v -45 -6 0
v -44 -6 0
v -43 -7 0
v -44 -7 0
v -44 -6 0
v -43 -6 0
v -42 -7 0
v -43 -7 0
v -43 -6 0
v -42 -6 0
v -41 -7 0
v -42 -7 0
v -42 -6 0
v -41 -6 0
v -40 -7 0
v -41 -7 0
v -41 -6 0
v -40 -6 0
v -39 -7 0
v -40 -7 0
v -40 -6 0
v -39 -6 0
v -38 -7 0
v -39 -7 0
v -39 -6 0
v -38 -6 0
v -37 -7 0
v -38 -7 0
v -38 -6 0
v -37 -6 0
v -44 -8 0
v -45 -8 0
v -45 -7 0
v -44 -7 0
v -43 -8 0
v -44 -8 0
v -44 -7 0
v -43 -7 0
v -42 -8 0
v -43 -8 0
v -43 -7 0
v -42 -7 0
v -41 -8 0
v -42 -8 0
v -42 -7 0
v -41 -7 0
v -44 -10 0
v -45 -10 0
v -45 -9 0
v -44 -9 0
v -43 -10 0
v -44 -10 0
v -44 -9 0
v -43 -9 0
v -42 -10 0
v -43 -10 0
v -43 -9 0
v -42 -9 0
v -41 -10 0
v -42 -10 0
v -42 -9 0
v -41 -9 0
v -40 -10 0
v -41 -10 0
v -41 -9 0
v -40 -9 0
v -39 -10 0
v -40 -10 0
v -40 -9 0
v -39 -9 0
v -38 -10 0
v -39 -10 0
v -39 -9 0
v -38 -9 0
v -37 -10 0
v -38 -10 0
v -38 -9 0
v -37 -9 0
v -44 -11 0
v -45 -11 0
v -45 -10 0
v -44 -10 0
v -43 -11 0
v -44 -11 0
v -44 -10 0
v -43 -10 0
v -42 -11 0
v -43 -11 0
v -43 -10 0
v -42 -10 0
v -41 -11 0
v -42 -11 0
v -42 -10 0
v -41 -10 0
v -40 -11 0
v -41 -11 0
v -41 -10 0
v -40 -10 0
v -39 -11 0
v -40 -11 0
v -40 -10 0
v -39 -10 0
v -38 -11 0
v -39 -11 0
v -39 -10 0
v -38 -10 0
v -37 -11 0
v -38 -11 0
v -38 -10 0
v -37 -10 0
v -44 -12 0
v -45 -12 0
v -45 -11 0
v -44 -11 0
v -43 -12 0
v -44 -12 0
v -44 -11 0
v -43 -11 0
v -42 -12 0
v -43 -12 0
v -43 -11 0
v -42 -11 0
v -41 -12 0
v -42 -12 0
v -42 -11 0
v -41 -11 0
v -40 -12 0
v -41 -12 0
v -41 -11 0
v -40 -11 0
v -39 -12 0
v -40 -12 0
v -40 -11 0
v -39 -11 0
v -38 -12 0
v -39 -12 0
v -39 -11 0
v -38 -11 0
v -37 -12 0
v -38 -12 0
v -38 -11 0
v -37 -11 0
v -44 -14 0
v -45 -14 0
v -45 -13 0
v -44 -13 0
v -43 -14 0
v -44 -14 0
v -44 -13 0
v -43 -13 0
v -42 -14 0
v -43 -14 0
v -43 -13 0
v -42 -13 0
v -41 -14 0
v -42 -14 0
v -42 -13 0
v -41 -13 0
v -40 -14 0
v -41 -14 0
v -41 -13 0
v -40 -13 0
v -39 -14 0
v -40 -14 0
v -40 -13 0
v -39 -13 0
v -38 -14 0
v -39 -14 0
v -39 -13 0
v -38 -13 0
v -37 -14 0
v -38 -14 0
v -38 -13 0
v -37 -13 0
v -44 -15 0
v -45 -15 0
v -45 -14 0
v -44 -14 0
v -43 -15 0
v -44 -15 0
v -44 -14 0
v -43 -14 0
v -42 -15 0
v -43 -15 0
v -43 -14 0
v -42 -14 0
v -41 -15 0
v -42 -15 0
v -42 -14 0
v -41 -14 0
v -40 -15 0
v -41 -15 0
v -41 -14 0
v -40 -14 0
v -39 -15 0
v -40 -15 0
v -40 -14 0
v -39 -14 0
v -38 -15 0
v -39 -15 0
v -39 -14 0
v -38 -14 0
v -37 -15 0
v -38 -15 0
v -38 -14 0
v -37 -14 0
v -21 -15 0
v -22 -15 0
v -22 -14 0
v -21 -14 0
v -20 -15 0
v -21 -15 0
v -21 -14 0
v -20 -14 0
v -19 -15 0
v -20 -15 0
v -20 -14 0
v -19 -14 0
v -18 -15 0
v -19 -15 0
v -19 -14 0
v -18 -14 0
v -44 -16 0
v -45 -16 0
v -45 -15 0
v -44 -15 0
v -43 -16 0
v -44 -16 0
v -44 -15 0
v -43 -15 0
v -42 -16 0
v -43 -16 0
v -43 -15 0
v -42 -15 0
v -41 -16 0
v -42 -16 0
v -42 -15 0
v -41 -15 0
v -40 -16 0
v -41 -16 0
v -41 -15 0
v -40 -15 0
v -39 -16 0
v -40 -16 0
v -40 -15 0
v -39 -15 0
v -38 -16 0
v -39 -16 0
v -39 -15 0
v -38 -15 0
v -37 -16 0
v -38 -16 0
v -38 -15 0
v -37 -15 0
v -28 -16 0
v -29 -16 0
v -29 -15 0
v -28 -15 0
v -27 -16 0
v -28 -16 0
v -28 -15 0
v -27 -15 0
v -26 -16 0
v -27 -16 0
v -27 -15 0
v -26 -15 0
v -25 -16 0
v -26 -16 0
v -26 -15 0
v -25 -15 0
v -21 -16 0
v -22 -16 0
v -22 -15 0
v -21 -15 0
v -20 -16 0
v -21 -16 0
v -21 -15 0
v -20 -15 0
v -19 -16 0
v -20 -16 0
v -20 -15 0
v -19 -15 0
v -18 -16 0
v -19 -16 0
v -19 -15 0
v -18 -15 0
v -13 -16 0
v -14 -16 0
v -14 -15 0
v -13 -15 0
v -12 -16 0
v -13 -16 0
v -13 -15 0
v -12 -15 0
v -11 -16 0
v -12 -16 0
v -12 -15 0
v -11 -15 0
v -10 -16 0
v -11 -16 0
v -11 -15 0
v -10 -15 0
v -28 -17 0
v -29 -17 0
v -29 -16 0
v -28 -16 0
v -27 -17 0
v -28 -17 0
v -28 -16 0
v -27 -16 0
v -26 -17 0
v -27 -17 0
v -27 -16 0
v -26 -16 0
v -25 -17 0
v -26 -17 0
v -26 -16 0
v -25 -16 0
v -21 -17 0
v -22 -17 0
v -22 -16 0
v -21 -16 0
v -20 -17 0
v -21 -17 0
v -21 -16 0
v -20 -16 0
v -19 -17 0
v -20 -17 0
v -20 -16 0
v -19 -16 0
v -18 -17 0
v -19 -17 0
v -19 -16 0
v -18 -16 0
v -13 -17 0
v -14 -17 0
v -14 -16 0
v -13 -16 0
v -12 -17 0
v -13 -17 0
v -13 -16 0
v -12 -16 0
v -11 -17 0
v -12 -17 0
v -12 -16 0
v -11 -16 0
v -10 -17 0
v -11 -17 0
v -11 -16 0
v -10 -16 0
v -44 -18 0
v -45 -18 0
v -45 -17 0
v -44 -17 0
v -43 -18 0
v -44 -18 0
v -44 -17 0
v -43 -17 0
v -42 -18 0
v -43 -18 0
v -43 -17 0
v -42 -17 0
v -41 -18 0
v -42 -18 0
v -42 -17 0
v -41 -17 0
v -40 -18 0
v -41 -18 0
v -41 -17 0
v -40 -17 0
v -39 -18 0
v -40 -18 0
v -40 -17 0
v -39 -17 0
v -38 -18 0
v -39 -18 0
v -39 -17 0
v -38 -17 0
v -37 -18 0
v -38 -18 0
v -38 -17 0
v -37 -17 0
v -28 -18 0
v -29 -18 0
v -29 -17 0
v -28 -17 0
v -27 -18 0
v -28 -18 0
v -28 -17 0
v -27 -17 0
v -26 -18 0
v -27 -18 0
v -27 -17 0
v -26 -17 0
v -25 -18 0
v -26 -18 0
v -26 -17 0
v -25 -17 0
v -13 -18 0
v -14 -18 0
v -14 -17 0
v -13 -17 0
v -12 -18 0
v -13 -18 0
v -13 -17 0
v -12 -17 0
v -11 -18 0
v -12 -18 0
v -12 -17 0
v -11 -17 0
v -10 -18 0
v -11 -18 0
v -11 -17 0
v -10 -17 0
v -44 -19 0
v -45 -19 0
v -45 -18 0
v -44 -18 0
v -43 -19 0
v -44 -19 0
v -44 -18 0
v -43 -18 0
v -42 -19 0
v -43 -19 0
v -43 -18 0
v -42 -18 0
v -41 -19 0
v -42 -19 0
v -42 -18 0
v -41 -18 0
v -40 -19 0
v -41 -19 0
v -41 -18 0
v -40 -18 0
v -39 -19 0
v -40 -19 0
v -40 -18 0
v -39 -18 0
v -38 -19 0
v -39 -19 0
v -39 -18 0
v -38 -18 0
v -37 -19 0
v -38 -19 0
v -38 -18 0
v -37 -18 0
v -17 -19 0
v -18 -19 0
v -18 -18 0
v -17 -18 0
v -16 -19 0
v -17 -19 0
v -17 -18 0
v -16 -18 0
v -15 -19 0
v -16 -19 0
v -16 -18 0
v -15 -18 0
v -14 -19 0
v -15 -19 0
v -15 -18 0
v -14 -18 0
v -44 -20 0
v -45 -20 0
v -45 -19 0
v -44 -19 0
v -43 -20 0
v -44 -20 0
v -44 -19 0
v -43 -19 0
v -42 -20 0
v -43 -20 0
v -43 -19 0
v -42 -19 0
v -41 -20 0
v -42 -20 0
v -42 -19 0
v -41 -19 0
v -40 -20 0
v -41 -20 0
v -41 -19 0
v -40 -19 0
v -39 -20 0
v -40 -20 0
v -40 -19 0
v -39 -19 0
v -38 -20 0
v -39 -20 0
v -39 -19 0
v -38 -19 0
v -37 -20 0
v -38 -20 0
v -38 -19 0
v -37 -19 0
v -17 -20 0
v -18 -20 0
v -18 -19 0
v -17 -19 0
v -16 -20 0
v -17 -20 0
v -17 -19 0
v -16 -19 0
v -15 -20 0
v -16 -20 0
v -16 -19 0
v -15 -19 0
v -14 -20 0
v -15 -20 0
v -15 -19 0
v -14 -19 0
v -33 -21 0
v -34 -21 0
v -34 -20 0
v -33 -20 0
v -32 -21 0
v -33 -21 0
v -33 -20 0
v -32 -20 0
v -17 -21 0
v -18 -21 0
v -18 -20 0
v -17 -20 0
v -16 -21 0
v -17 -21 0
v -17 -20 0
v -16 -20 0
v -15 -21 0
v -16 -21 0
v -16 -20 0
v -15 -20 0
v -14 -21 0
v -15 -21 0
v -15 -20 0
v -14 -20 0
v -8 -21 0
v -9 -21 0
v -9 -20 0
v -8 -20 0
v -7 -21 0
v -8 -21 0
v -8 -20 0
v -7 -20 0
v -12 -22 0
v -13 -22 0
v -13 -21 0
v -12 -21 0
v -11 -22 0
v -12 -22 0
v -12 -21 0
v -11 -21 0
v -30 -23 0
v -31 -23 0
v -31 -22 0
v -30 -22 0
v -29 -23 0
v -30 -23 0
v -30 -22 0
v -29 -22 0
v -5 -23 0
v -6 -23 0
v -6 -22 0
v -5 -22 0
v -4 -23 0
v -5 -23 0
v -5 -22 0
v -4 -22 0
v -44 -24 0
v -45 -24 0
v -45 -23 0
v -44 -23 0
v -43 -24 0
v -44 -24 0
v -44 -23 0
v -43 -23 0
v -42 -24 0
v -43 -24 0
v -43 -23 0
v -42 -23 0
v -41 -24 0
v -42 -24 0
v -42 -23 0
v -41 -23 0
v -40 -24 0
v -41 -24 0
v -41 -23 0
v -40 -23 0
v -39 -24 0
v -40 -24 0
v -40 -23 0
v -39 -23 0
v -38 -24 0
v -39 -24 0
v -39 -23 0
v -38 -23 0
v -37 -24 0
v -38 -24 0
v -38 -23 0
v -37 -23 0
v -35 -24 0
v -36 -24 0
v -36 -23 0
v -35 -23 0
v -34 -24 0
v -35 -24 0
v -35 -23 0
v -34 -23 0
v -44 -25 0
v -45 -25 0
v -45 -24 0
v -44 -24 0
v -43 -25 0
v -44 -25 0
v -44 -24 0
v -43 -24 0
v -42 -25 0
v -43 -25 0
v -43 -24 0
v -42 -24 0
v -41 -25 0
v -42 -25 0
v -42 -24 0
v -41 -24 0
v -40 -25 0
v -41 -25 0
v -41 -24 0
v -40 -24 0
v -39 -25 0
v -40 -25 0
v -40 -24 0
v -39 -24 0
v -38 -25 0
v -39 -25 0
v -39 -24 0
v -38 -24 0
v -37 -25 0
v -38 -25 0
v -38 -24 0
v -37 -24 0
v -44 -26 0
v -45 -26 0
v -45 -25 0
v -44 -25 0
v -43 -26 0
v -44 -26 0
v -44 -25 0
v -43 -25 0
v -42 -26 0
v -43 -26 0
v -43 -25 0
v -42 -25 0
v -41 -26 0
v -42 -26 0
v -42 -25 0
v -41 -25 0
v -40 -26 0
v -41 -26 0
v -41 -25 0
v -40 -25 0
v -39 -26 0
v -40 -26 0
v -40 -25 0
v -39 -25 0
v -38 -26 0
v -39 -26 0
v -39 -25 0
v -38 -25 0
v -37 -26 0
v -38 -26 0
v -38 -25 0
v -37 -25 0
v -17 -27 0
v -18 -27 0
v -18 -26 0
v -17 -26 0
v -16 -27 0
v -17 -27 0
v -17 -26 0
v -16 -26 0
v -44 -28 0
v -45 -28 0
v -45 -27 0
v -44 -27 0
v -43 -28 0
v -44 -28 0
v -44 -27 0
v -43 -27 0
v -42 -28 0
v -43 -28 0
v -43 -27 0
v -42 -27 0
v -41 -28 0
v -42 -28 0
v -42 -27 0
v -41 -27 0
v -40 -28 0
v -41 -28 0
v -41 -27 0
v -40 -27 0
v -39 -28 0
v -40 -28 0
v -40 -27 0
v -39 -27 0
v -38 -28 0
v -39 -28 0
v -39 -27 0
v -38 -27 0
v -37 -28 0
v -38 -28 0
v -38 -27 0
v -37 -27 0
v -27 -28 0
v -28 -28 0
v -28 -27 0
v -27 -27 0
v -26 -28 0
v -27 -28 0
v -27 -27 0
v -26 -27 0
v -25 -28 0
v -26 -28 0
v -26 -27 0
v -25 -27 0
v -24 -28 0
v -25 -28 0
v -25 -27 0
v -24 -27 0
v -19 -28 0
v -20 -28 0
v -20 -27 0
v -19 -27 0
v -44 -29 0
v -45 -29 0
v -45 -28 0
v -44 -28 0
v -43 -29 0
v -44 -29 0
v -44 -28 0
v -43 -28 0
v -42 -29 0
v -43 -29 0
v -43 -28 0
v -42 -28 0
v -41 -29 0
v -42 -29 0
v -42 -28 0
v -41 -28 0
v -40 -29 0
v -41 -29 0
v -41 -28 0
v -40 -28 0
v -39 -29 0
v -40 -29 0
v -40 -28 0
v -39 -28 0
v -38 -29 0
v -39 -29 0
v -39 -28 0
v -38 -28 0
v -37 -29 0
v -38 -29 0
v -38 -28 0
v -37 -28 0
v -27 -29 0
v -28 -29 0
v -28 -28 0
v -27 -28 0
v -26 -29 0
v -27 -29 0
v -27 -28 0
v -26 -28 0
v -25 -29 0
v -26 -29 0
v -26 -28 0
v -25 -28 0
v -24 -29 0
v -25 -29 0
v -25 -28 0
v -24 -28 0
v -23 -29 0
v -24 -29 0
v -24 -28 0
v -23 -28 0
v -22 -29 0
v -23 -29 0
v -23 -28 0
v -22 -28 0
v -21 -29 0
v -22 -29 0
v -22 -28 0
v -21 -28 0
v -20 -29 0
v -21 -29 0
v -21 -28 0
v -20 -28 0
v -19 -29 0
v -20 -29 0
v -20 -28 0
v -19 -28 0
v -18 -29 0
v -19 -29 0
v -19 -28 0
v -18 -28 0
v -17 -29 0
v -18 -29 0
v -18 -28 0
v -17 -28 0
v -16 -29 0
v -17 -29 0
v -17 -28 0
v -16 -28 0
v -44 -30 0
v -45 -30 0
v -45 -29 0
v -44 -29 0
v -43 -30 0
v -44 -30 0
v -44 -29 0
v -43 -29 0
v -42 -30 0
v -43 -30 0
v -43 -29 0
v -42 -29 0
v -41 -30 0
v -42 -30 0
v -42 -29 0
v -41 -29 0
v -40 -30 0
v -41 -30 0
v -41 -29 0
v -40 -29 0
v -39 -30 0
v -40 -30 0
v -40 -29 0
v -39 -29 0
v -38 -30 0
v -39 -30 0
v -39 -29 0
v -38 -29 0
v -37 -30 0
v -38 -30 0
v -38 -29 0
v -37 -29 0
v -27 -30 0
v -28 -30 0
v -28 -29 0
v -27 -29 0
v -26 -30 0
v -27 -30 0
v -27 -29 0
v -26 -29 0
v -25 -30 0
v -26 -30 0
v -26 -29 0
v -25 -29 0
v -24 -30 0
v -25 -30 0
v -25 -29 0
v -24 -29 0
v -23 -30 0
v -24 -30 0
v -24 -29 0
v -23 -29 0
v -22 -30 0
v -23 -30 0
v -23 -29 0
v -22 -29 0
v -21 -30 0
v -22 -30 0
v -22 -29 0
v -21 -29 0
v -20 -30 0
v -21 -30 0
v -21 -29 0
v -20 -29 0
v -23 -31 0
v -24 -31 0
v -24 -30 0
v -23 -30 0
v -22 -31 0
v -23 -31 0
v -23 -30 0
v -22 -30 0
v -21 -31 0
v -22 -31 0
v -22 -30 0
v -21 -30 0
v -20 -31 0
v -21 -31 0
v -21 -30 0
v -20 -30 0
v -44 -32 0
v -45 -32 0
v -45 -31 0
v -44 -31 0
v -43 -32 0
v -44 -32 0
v -44 -31 0
v -43 -31 0
v -42 -32 0
v -43 -32 0
v -43 -31 0
v -42 -31 0
v -41 -32 0
v -42 -32 0
v -42 -31 0
v -41 -31 0
v -40 -32 0
v -41 -32 0
v -41 -31 0
v -40 -31 0
v -39 -32 0
v -40 -32 0
v -40 -31 0
v -39 -31 0
v -38 -32 0
v -39 -32 0
v -39 -31 0
v -38 -31 0
v -37 -32 0
v -38 -32 0
v -38 -31 0
v -37 -31 0
v -44 -33 0
v -45 -33 0
v -45 -32 0
v -44 -32 0
v -43 -33 0
v -44 -33 0
v -44 -32 0
v -43 -32 0
v -42 -33 0
v -43 -33 0
v -43 -32 0
v -42 -32 0
v -41 -33 0
v -42 -33 0
v -42 -32 0
v -41 -32 0
v -40 -33 0
v -41 -33 0
v -41 -32 0
v -40 -32 0
v -39 -33 0
v -40 -33 0
v -40 -32 0
v -39 -32 0
v -38 -33 0
v -39 -33 0
v -39 -32 0
v -38 -32 0
v -37 -33 0
v -38 -33 0
v -38 -32 0
v -37 -32 0
v -44 -34 0
v -45 -34 0
v -45 -33 0
v -44 -33 0
v -43 -34 0
v -44 -34 0
v -44 -33 0
v -43 -33 0
v -42 -34 0
v -43 -34 0
v -43 -33 0
v -42 -33 0
v -41 -34 0
v -42 -34 0
v -42 -33 0
v -41 -33 0
v -40 -34 0
v -41 -34 0
v -41 -33 0
v -40 -33 0
v -39 -34 0
v -40 -34 0
v -40 -33 0
v -39 -33 0
v -38 -34 0
v -39 -34 0
v -39 -33 0
v -38 -33 0
v -37 -34 0
v -38 -34 0
v -38 -33 0
v -37 -33 0

# Texture cooridinates (Count = 104)
vt 0.3538282 0.1667888
vt 0.3743903 0.1667888
vt 0.3743903 0.1943223
vt 0.3538282 0.1943223
vt 0.3330219 0.1667888
vt 0.3535841 0.1667888
vt 0.3535841 0.1943223
vt 0.3330219 0.1943223
vt 0.3122157 0.1667888
vt 0.3327778 0.1667888
vt 0.3327778 0.1943223
vt 0.3122157 0.1943223
vt 0.2914095 0.1667888
vt 0.3119715 0.1667888
vt 0.3119715 0.1943223
vt 0.2914095 0.1943223
vt 0.3538282 0.139011
vt 0.3743903 0.139011
vt 0.3743903 0.1665446
vt 0.3538282 0.1665446
vt 0.3330219 0.139011
vt 0.3535841 0.139011
vt 0.3535841 0.1665446
vt 0.3330219 0.1665446
vt 0.3122157 0.139011
vt 0.3327778 0.139011
vt 0.3327778 0.1665446
vt 0.3122157 0.1665446
vt 0.2914095 0.139011
vt 0.3119715 0.139011
vt 0.3119715 0.1665446
vt 0.2914095 0.1665446
vt 0.3538282 0.1112332
vt 0.3743903 0.1112332
vt 0.3743903 0.1387668
vt 0.3538282 0.1387668
vt 0.3330219 0.1112332
vt 0.3535841 0.1112332
vt 0.3535841 0.1387668
vt 0.3330219 0.1387668
vt 0.3122157 0.1112332
vt 0.3327778 0.1112332
vt 0.3327778 0.1387668
vt 0.3122157 0.1387668
vt 0.2914095 0.1112332
vt 0.3119715 0.1112332
vt 0.3119715 0.1387668
vt 0.2914095 0.1387668
vt 0.1249595 0.5278999
vt 0.1455216 0.5278999
vt 0.1455216 0.5554335
vt 0.1249595 0.5554335
vt 0.1041533 0.5278999
vt 0.1247154 0.5278999
vt 0.1247154 0.5554335
vt 0.1041533 0.5554335
vt 0.02092831 0.08345538
vt 0.04149041 0.08345538
vt 0.04149041 0.110989
vt 0.02092831 0.110989
vt 0.0001220703 0.08345538
vt 0.02068417 0.08345538
vt 0.02068417 0.110989
vt 0.0001220703 0.110989
vt 0.0625408 0.08345538
vt 0.0831029 0.08345538
vt 0.0831029 0.110989
vt 0.0625408 0.110989
vt 0.04173455 0.08345538
vt 0.06229666 0.08345538
vt 0.06229666 0.110989
vt 0.04173455 0.110989
vt 0.0625408 0.05567765
vt 0.0831029 0.05567765
vt 0.0831029 0.08321124
vt 0.0625408 0.08321124
vt 0.04173455 0.05567765
vt 0.06229666 0.05567765
vt 0.06229666 0.08321124
vt 0.04173455 0.08321124
vt 0.02092831 0.05567765
vt 0.04149041 0.05567765
vt 0.04149041 0.08321124
vt 0.02092831 0.08321124
vt 0.0001220703 0.05567765
vt 0.02068417 0.05567765
vt 0.02068417 0.08321124
vt 0.0001220703 0.08321124
vt 0.0625408 0.02789986
vt 0.0831029 0.02789986
vt 0.0831029 0.05543351
vt 0.0625408 0.05543351
vt 0.04173455 0.02789986
vt 0.06229666 0.02789986
vt 0.06229666 0.05543351
vt 0.04173455 0.05543351
vt 0.02092831 0.02789986
vt 0.04149041 0.02789986
vt 0.04149041 0.05543351
vt 0.02092831 0.05543351
vt 0.0001220703 0.02789986
vt 0.02068417 0.02789986
vt 0.02068417 0.05543351
vt 0.0001220703 0.05543351

# Normal
vn 0 0 -1

# Mesh description
g UpperBankSentral1_mesh_0006

# Faces
f 1/1/1 2/2/1 3/3/1 4/4/1
f 5/5/1 6/6/1 7/7/1 8/8/1
f 9/9/1 10/10/1 11/11/1 12/12/1
f 13/13/1 14/14/1 15/15/1 16/16/1
f 17/1/1 18/2/1 19/3/1 20/4/1
f 21/5/1 22/6/1 23/7/1 24/8/1
f 25/9/1 26/10/1 27/11/1 28/12/1
f 29/13/1 30/14/1 31/15/1 32/16/1
f 33/17/1 34/18/1 35/19/1 36/20/1
f 37/21/1 38/22/1 39/23/1 40/24/1
f 41/25/1 42/26/1 43/27/1 44/28/1
f 45/29/1 46/30/1 47/31/1 48/32/1
f 49/17/1 50/18/1 51/19/1 52/20/1
f 53/21/1 54/22/1 55/23/1 56/24/1
f 57/25/1 58/26/1 59/27/1 60/28/1
f 61/29/1 62/30/1 63/31/1 64/32/1
f 65/33/1 66/34/1 67/35/1 68/36/1
f 69/37/1 70/38/1 71/39/1 72/40/1
f 73/41/1 74/42/1 75/43/1 76/44/1
f 77/45/1 78/46/1 79/47/1 80/48/1
f 81/33/1 82/34/1 83/35/1 84/36/1
f 85/37/1 86/38/1 87/39/1 88/40/1
f 89/41/1 90/42/1 91/43/1 92/44/1
f 93/45/1 94/46/1 95/47/1 96/48/1
f 97/1/1 98/2/1 99/3/1 100/4/1
f 101/5/1 102/6/1 103/7/1 104/8/1
f 105/9/1 106/10/1 107/11/1 108/12/1
f 109/13/1 110/14/1 111/15/1 112/16/1
f 113/1/1 114/2/1 115/3/1 116/4/1
f 117/5/1 118/6/1 119/7/1 120/8/1
f 121/9/1 122/10/1 123/11/1 124/12/1
f 125/13/1 126/14/1 127/15/1 128/16/1
f 129/17/1 130/18/1 131/19/1 132/20/1
f 133/21/1 134/22/1 135/23/1 136/24/1
f 137/25/1 138/26/1 139/27/1 140/28/1
f 141/29/1 142/30/1 143/31/1 144/32/1
f 145/17/1 146/18/1 147/19/1 148/20/1
f 149/21/1 150/22/1 151/23/1 152/24/1
f 153/25/1 154/26/1 155/27/1 156/28/1
f 157/29/1 158/30/1 159/31/1 160/32/1
f 161/33/1 162/34/1 163/35/1 164/36/1
f 165/37/1 166/38/1 167/39/1 168/40/1
f 169/41/1 170/42/1 171/43/1 172/44/1
f 173/45/1 174/46/1 175/47/1 176/48/1
f 177/33/1 178/34/1 179/35/1 180/36/1
f 181/37/1 182/38/1 183/39/1 184/40/1
f 185/41/1 186/42/1 187/43/1 188/44/1
f 189/45/1 190/46/1 191/47/1 192/48/1
f 193/1/1 194/2/1 195/3/1 196/4/1
f 197/5/1 198/6/1 199/7/1 200/8/1
f 201/9/1 202/10/1 203/11/1 204/12/1
f 205/13/1 206/14/1 207/15/1 208/16/1
f 209/1/1 210/2/1 211/3/1 212/4/1
f 213/5/1 214/6/1 215/7/1 216/8/1
f 217/9/1 218/10/1 219/11/1 220/12/1
f 221/13/1 222/14/1 223/15/1 224/16/1
f 225/17/1 226/18/1 227/19/1 228/20/1
f 229/21/1 230/22/1 231/23/1 232/24/1
f 233/25/1 234/26/1 235/27/1 236/28/1
f 237/29/1 238/30/1 239/31/1 240/32/1
f 241/17/1 242/18/1 243/19/1 244/20/1
f 245/21/1 246/22/1 247/23/1 248/24/1
f 249/25/1 250/26/1 251/27/1 252/28/1
f 253/29/1 254/30/1 255/31/1 256/32/1
f 257/1/1 258/2/1 259/3/1 260/4/1
f 261/5/1 262/6/1 263/7/1 264/8/1
f 265/9/1 266/10/1 267/11/1 268/12/1
f 269/13/1 270/14/1 271/15/1 272/16/1
f 273/33/1 274/34/1 275/35/1 276/36/1
f 277/37/1 278/38/1 279/39/1 280/40/1
f 281/41/1 282/42/1 283/43/1 284/44/1
f 285/45/1 286/46/1 287/47/1 288/48/1
f 289/33/1 290/34/1 291/35/1 292/36/1
f 293/37/1 294/38/1 295/39/1 296/40/1
f 297/41/1 298/42/1 299/43/1 300/44/1
f 301/45/1 302/46/1 303/47/1 304/48/1
f 305/1/1 306/2/1 307/3/1 308/4/1
f 309/5/1 310/6/1 311/7/1 312/8/1
f 313/9/1 314/10/1 315/11/1 316/12/1
f 317/13/1 318/14/1 319/15/1 320/16/1
f 321/17/1 322/18/1 323/19/1 324/20/1
f 325/21/1 326/22/1 327/23/1 328/24/1
f 329/25/1 330/26/1 331/27/1 332/28/1
f 333/29/1 334/30/1 335/31/1 336/32/1
f 337/1/1 338/2/1 339/3/1 340/4/1
f 341/5/1 342/6/1 343/7/1 344/8/1
f 345/9/1 346/10/1 347/11/1 348/12/1
f 349/13/1 350/14/1 351/15/1 352/16/1
f 353/17/1 354/18/1 355/19/1 356/20/1
f 357/21/1 358/22/1 359/23/1 360/24/1
f 361/25/1 362/26/1 363/27/1 364/28/1
f 365/29/1 366/30/1 367/31/1 368/32/1
f 369/33/1 370/34/1 371/35/1 372/36/1
f 373/37/1 374/38/1 375/39/1 376/40/1
f 377/41/1 378/42/1 379/43/1 380/44/1
f 381/45/1 382/46/1 383/47/1 384/48/1
f 385/17/1 386/18/1 387/19/1 388/20/1
f 389/21/1 390/22/1 391/23/1 392/24/1
f 393/25/1 394/26/1 395/27/1 396/28/1
f 397/29/1 398/30/1 399/31/1 400/32/1
f 401/1/1 402/2/1 403/3/1 404/4/1
f 405/5/1 406/6/1 407/7/1 408/8/1
f 409/9/1 410/10/1 411/11/1 412/12/1
f 413/13/1 414/14/1 415/15/1 416/16/1
f 417/1/1 418/2/1 419/3/1 420/4/1
f 421/5/1 422/6/1 423/7/1 424/8/1
f 425/9/1 426/10/1 427/11/1 428/12/1
f 429/13/1 430/14/1 431/15/1 432/16/1
f 433/33/1 434/34/1 435/35/1 436/36/1
f 437/37/1 438/38/1 439/39/1 440/40/1
f 441/41/1 442/42/1 443/43/1 444/44/1
f 445/45/1 446/46/1 447/47/1 448/48/1
f 449/33/1 450/34/1 451/35/1 452/36/1
f 453/37/1 454/38/1 455/39/1 456/40/1
f 457/41/1 458/42/1 459/43/1 460/44/1
f 461/45/1 462/46/1 463/47/1 464/48/1
f 465/17/1 466/18/1 467/19/1 468/20/1
f 469/21/1 470/22/1 471/23/1 472/24/1
f 473/25/1 474/26/1 475/27/1 476/28/1
f 477/29/1 478/30/1 479/31/1 480/32/1
f 481/17/1 482/18/1 483/19/1 484/20/1
f 485/21/1 486/22/1 487/23/1 488/24/1
f 489/25/1 490/26/1 491/27/1 492/28/1
f 493/29/1 494/30/1 495/31/1 496/32/1
f 497/1/1 498/2/1 499/3/1 500/4/1
f 501/5/1 502/6/1 503/7/1 504/8/1
f 505/9/1 506/10/1 507/11/1 508/12/1
f 509/13/1 510/14/1 511/15/1 512/16/1
f 513/33/1 514/34/1 515/35/1 516/36/1
f 517/37/1 518/38/1 519/39/1 520/40/1
f 521/41/1 522/42/1 523/43/1 524/44/1
f 525/45/1 526/46/1 527/47/1 528/48/1
f 529/33/1 530/34/1 531/35/1 532/36/1
f 533/37/1 534/38/1 535/39/1 536/40/1
f 537/41/1 538/42/1 539/43/1 540/44/1
f 541/45/1 542/46/1 543/47/1 544/48/1
f 545/17/1 546/18/1 547/19/1 548/20/1
f 549/21/1 550/22/1 551/23/1 552/24/1
f 553/25/1 554/26/1 555/27/1 556/28/1
f 557/29/1 558/30/1 559/31/1 560/32/1
f 561/49/1 562/50/1 563/51/1 564/52/1
f 565/53/1 566/54/1 567/55/1 568/56/1
f 569/33/1 570/34/1 571/35/1 572/36/1
f 573/37/1 574/38/1 575/39/1 576/40/1
f 577/41/1 578/42/1 579/43/1 580/44/1
f 581/45/1 582/46/1 583/47/1 584/48/1
f 585/49/1 586/50/1 587/51/1 588/52/1
f 589/53/1 590/54/1 591/55/1 592/56/1
f 593/49/1 594/50/1 595/51/1 596/52/1
f 597/53/1 598/54/1 599/55/1 600/56/1
f 601/49/1 602/50/1 603/51/1 604/52/1
f 605/53/1 606/54/1 607/55/1 608/56/1
f 609/49/1 610/50/1 611/51/1 612/52/1
f 613/53/1 614/54/1 615/55/1 616/56/1
f 617/1/1 618/2/1 619/3/1 620/4/1
f 621/5/1 622/6/1 623/7/1 624/8/1
f 625/9/1 626/10/1 627/11/1 628/12/1
f 629/13/1 630/14/1 631/15/1 632/16/1
f 633/1/1 634/2/1 635/3/1 636/4/1
f 637/5/1 638/6/1 639/7/1 640/8/1
f 641/9/1 642/10/1 643/11/1 644/12/1
f 645/13/1 646/14/1 647/15/1 648/16/1
f 649/49/1 650/50/1 651/51/1 652/52/1
f 653/53/1 654/54/1 655/55/1 656/56/1
f 657/17/1 658/18/1 659/19/1 660/20/1
f 661/21/1 662/22/1 663/23/1 664/24/1
f 665/25/1 666/26/1 667/27/1 668/28/1
f 669/29/1 670/30/1 671/31/1 672/32/1
f 673/17/1 674/18/1 675/19/1 676/20/1
f 677/21/1 678/22/1 679/23/1 680/24/1
f 681/25/1 682/26/1 683/27/1 684/28/1
f 685/29/1 686/30/1 687/31/1 688/32/1
f 689/33/1 690/34/1 691/35/1 692/36/1
f 693/37/1 694/38/1 695/39/1 696/40/1
f 697/41/1 698/42/1 699/43/1 700/44/1
f 701/45/1 702/46/1 703/47/1 704/48/1
f 705/33/1 706/34/1 707/35/1 708/36/1
f 709/37/1 710/38/1 711/39/1 712/40/1
f 713/41/1 714/42/1 715/43/1 716/44/1
f 717/45/1 718/46/1 719/47/1 720/48/1
f 721/57/1 722/58/1 723/59/1 724/60/1
f 725/61/1 726/62/1 727/63/1 728/64/1
f 729/1/1 730/2/1 731/3/1 732/4/1
f 733/5/1 734/6/1 735/7/1 736/8/1
f 737/9/1 738/10/1 739/11/1 740/12/1
f 741/13/1 742/14/1 743/15/1 744/16/1
f 745/1/1 746/2/1 747/3/1 748/4/1
f 749/5/1 750/6/1 751/7/1 752/8/1
f 753/9/1 754/10/1 755/11/1 756/12/1
f 757/13/1 758/14/1 759/15/1 760/16/1
f 761/65/1 762/66/1 763/67/1 764/68/1
f 765/69/1 766/70/1 767/71/1 768/72/1
f 769/57/1 770/58/1 771/59/1 772/60/1
f 773/61/1 774/62/1 775/63/1 776/64/1
f 777/73/1 778/74/1 779/75/1 780/76/1
f 781/17/1 782/18/1 783/19/1 784/20/1
f 785/21/1 786/22/1 787/23/1 788/24/1
f 789/25/1 790/26/1 791/27/1 792/28/1
f 793/29/1 794/30/1 795/31/1 796/32/1
f 797/17/1 798/18/1 799/19/1 800/20/1
f 801/21/1 802/22/1 803/23/1 804/24/1
f 805/25/1 806/26/1 807/27/1 808/28/1
f 809/29/1 810/30/1 811/31/1 812/32/1
f 813/73/1 814/74/1 815/75/1 816/76/1
f 817/77/1 818/78/1 819/79/1 820/80/1
f 821/81/1 822/82/1 823/83/1 824/84/1
f 825/85/1 826/86/1 827/87/1 828/88/1
f 829/65/1 830/66/1 831/67/1 832/68/1
f 833/69/1 834/70/1 835/71/1 836/72/1
f 837/57/1 838/58/1 839/59/1 840/60/1
f 841/61/1 842/62/1 843/63/1 844/64/1
f 845/89/1 846/90/1 847/91/1 848/92/1
f 849/93/1 850/94/1 851/95/1 852/96/1
f 853/97/1 854/98/1 855/99/1 856/100/1
f 857/101/1 858/102/1 859/103/1 860/104/1
f 861/33/1 862/34/1 863/35/1 864/36/1
f 865/37/1 866/38/1 867/39/1 868/40/1
f 869/41/1 870/42/1 871/43/1 872/44/1
f 873/45/1 874/46/1 875/47/1 876/48/1
f 877/33/1 878/34/1 879/35/1 880/36/1
f 881/37/1 882/38/1 883/39/1 884/40/1
f 885/41/1 886/42/1 887/43/1 888/44/1
f 889/45/1 890/46/1 891/47/1 892/48/1
f 893/89/1 894/90/1 895/91/1 896/92/1
f 897/93/1 898/94/1 899/95/1 900/96/1
f 901/97/1 902/98/1 903/99/1 904/100/1
f 905/101/1 906/102/1 907/103/1 908/104/1
f 909/73/1 910/74/1 911/75/1 912/76/1
f 913/77/1 914/78/1 915/79/1 916/80/1
f 917/81/1 918/82/1 919/83/1 920/84/1
f 921/85/1 922/86/1 923/87/1 924/88/1
f 925/89/1 926/90/1 927/91/1 928/92/1
f 929/93/1 930/94/1 931/95/1 932/96/1
f 933/97/1 934/98/1 935/99/1 936/100/1
f 937/101/1 938/102/1 939/103/1 940/104/1
f 941/1/1 942/2/1 943/3/1 944/4/1
f 945/5/1 946/6/1 947/7/1 948/8/1
f 949/9/1 950/10/1 951/11/1 952/12/1
f 953/13/1 954/14/1 955/15/1 956/16/1
f 957/1/1 958/2/1 959/3/1 960/4/1
f 961/5/1 962/6/1 963/7/1 964/8/1
f 965/9/1 966/10/1 967/11/1 968/12/1
f 969/13/1 970/14/1 971/15/1 972/16/1
f 973/17/1 974/18/1 975/19/1 976/20/1
f 977/21/1 978/22/1 979/23/1 980/24/1
f 981/25/1 982/26/1 983/27/1 984/28/1
f 985/29/1 986/30/1 987/31/1 988/32/1
f 989/17/1 990/18/1 991/19/1 992/20/1
f 993/21/1 994/22/1 995/23/1 996/24/1
f 997/25/1 998/26/1 999/27/1 1000/28/1
f 1001/29/1 1002/30/1 1003/31/1 1004/32/1
f 1005/33/1 1006/34/1 1007/35/1 1008/36/1
f 1009/37/1 1010/38/1 1011/39/1 1012/40/1
f 1013/41/1 1014/42/1 1015/43/1 1016/44/1
f 1017/45/1 1018/46/1 1019/47/1 1020/48/1
f 1021/33/1 1022/34/1 1023/35/1 1024/36/1
f 1025/37/1 1026/38/1 1027/39/1 1028/40/1
f 1029/41/1 1030/42/1 1031/43/1 1032/44/1
f 1033/45/1 1034/46/1 1035/47/1 1036/48/1

