# Tiled2Unity generated file. Do not modify by hand.
# Wavefront file for 'Police_RO_mesh_0003.obj'

# Vertices (Count = 716)
v -50 -5 0
v -51 -5 0
v -51 -4 0
v -50 -4 0
v -49 -5 0
v -50 -5 0
v -50 -4 0
v -49 -4 0
v -48 -5 0
v -49 -5 0
v -49 -4 0
v -48 -4 0
v -47 -5 0
v -48 -5 0
v -48 -4 0
v -47 -4 0
v -46 -5 0
v -47 -5 0
v -47 -4 0
v -46 -4 0
v -50 -6 0
v -51 -6 0
v -51 -5 0
v -50 -5 0
v -49 -6 0
v -50 -6 0
v -50 -5 0
v -49 -5 0
v -48 -6 0
v -49 -6 0
v -49 -5 0
v -48 -5 0
v -47 -6 0
v -48 -6 0
v -48 -5 0
v -47 -5 0
v -46 -6 0
v -47 -6 0
v -47 -5 0
v -46 -5 0
v -50 -7 0
v -51 -7 0
v -51 -6 0
v -50 -6 0
v -49 -7 0
v -50 -7 0
v -50 -6 0
v -49 -6 0
v -48 -7 0
v -49 -7 0
v -49 -6 0
v -48 -6 0
v -47 -7 0
v -48 -7 0
v -48 -6 0
v -47 -6 0
v -46 -7 0
v -47 -7 0
v -47 -6 0
v -46 -6 0
v -50 -8 0
v -51 -8 0
v -51 -7 0
v -50 -7 0
v -49 -8 0
v -50 -8 0
v -50 -7 0
v -49 -7 0
v -48 -8 0
v -49 -8 0
v -49 -7 0
v -48 -7 0
v -47 -8 0
v -48 -8 0
v -48 -7 0
v -47 -7 0
v -46 -8 0
v -47 -8 0
v -47 -7 0
v -46 -7 0
v -50 -9 0
v -51 -9 0
v -51 -8 0
v -50 -8 0
v -49 -9 0
v -50 -9 0
v -50 -8 0
v -49 -8 0
v -48 -9 0
v -49 -9 0
v -49 -8 0
v -48 -8 0
v -47 -9 0
v -48 -9 0
v -48 -8 0
v -47 -8 0
v -46 -9 0
v -47 -9 0
v -47 -8 0
v -46 -8 0
v -50 -10 0
v -51 -10 0
v -51 -9 0
v -50 -9 0
v -49 -10 0
v -50 -10 0
v -50 -9 0
v -49 -9 0
v -48 -10 0
v -49 -10 0
v -49 -9 0
v -48 -9 0
v -47 -10 0
v -48 -10 0
v -48 -9 0
v -47 -9 0
v -46 -10 0
v -47 -10 0
v -47 -9 0
v -46 -9 0
v -18 -13 0
v -19 -13 0
v -19 -12 0
v -18 -12 0
v -17 -13 0
v -18 -13 0
v -18 -12 0
v -17 -12 0
v -16 -13 0
v -17 -13 0
v -17 -12 0
v -16 -12 0
v -15 -13 0
v -16 -13 0
v -16 -12 0
v -15 -12 0
v -14 -13 0
v -15 -13 0
v -15 -12 0
v -14 -12 0
v -13 -13 0
v -14 -13 0
v -14 -12 0
v -13 -12 0
v -12 -13 0
v -13 -13 0
v -13 -12 0
v -12 -12 0
v -18 -14 0
v -19 -14 0
v -19 -13 0
v -18 -13 0
v -17 -14 0
v -18 -14 0
v -18 -13 0
v -17 -13 0
v -16 -14 0
v -17 -14 0
v -17 -13 0
v -16 -13 0
v -15 -14 0
v -16 -14 0
v -16 -13 0
v -15 -13 0
v -14 -14 0
v -15 -14 0
v -15 -13 0
v -14 -13 0
v -13 -14 0
v -14 -14 0
v -14 -13 0
v -13 -13 0
v -12 -14 0
v -13 -14 0
v -13 -13 0
v -12 -13 0
v -18 -15 0
v -19 -15 0
v -19 -14 0
v -18 -14 0
v -17 -15 0
v -18 -15 0
v -18 -14 0
v -17 -14 0
v -16 -15 0
v -17 -15 0
v -17 -14 0
v -16 -14 0
v -15 -15 0
v -16 -15 0
v -16 -14 0
v -15 -14 0
v -14 -15 0
v -15 -15 0
v -15 -14 0
v -14 -14 0
v -13 -15 0
v -14 -15 0
v -14 -14 0
v -13 -14 0
v -12 -15 0
v -13 -15 0
v -13 -14 0
v -12 -14 0
v -18 -16 0
v -19 -16 0
v -19 -15 0
v -18 -15 0
v -17 -16 0
v -18 -16 0
v -18 -15 0
v -17 -15 0
v -16 -16 0
v -17 -16 0
v -17 -15 0
v -16 -15 0
v -15 -16 0
v -16 -16 0
v -16 -15 0
v -15 -15 0
v -14 -16 0
v -15 -16 0
v -15 -15 0
v -14 -15 0
v -13 -16 0
v -14 -16 0
v -14 -15 0
v -13 -15 0
v -12 -16 0
v -13 -16 0
v -13 -15 0
v -12 -15 0
v -18 -17 0
v -19 -17 0
v -19 -16 0
v -18 -16 0
v -17 -17 0
v -18 -17 0
v -18 -16 0
v -17 -16 0
v -16 -17 0
v -17 -17 0
v -17 -16 0
v -16 -16 0
v -15 -17 0
v -16 -17 0
v -16 -16 0
v -15 -16 0
v -14 -17 0
v -15 -17 0
v -15 -16 0
v -14 -16 0
v -13 -17 0
v -14 -17 0
v -14 -16 0
v -13 -16 0
v -12 -17 0
v -13 -17 0
v -13 -16 0
v -12 -16 0
v -46 -19 0
v -47 -19 0
v -47 -18 0
v -46 -18 0
v -45 -19 0
v -46 -19 0
v -46 -18 0
v -45 -18 0
v -44 -19 0
v -45 -19 0
v -45 -18 0
v -44 -18 0
v -43 -19 0
v -44 -19 0
v -44 -18 0
v -43 -18 0
v -42 -19 0
v -43 -19 0
v -43 -18 0
v -42 -18 0
v -41 -19 0
v -42 -19 0
v -42 -18 0
v -41 -18 0
v -40 -19 0
v -41 -19 0
v -41 -18 0
v -40 -18 0
v -46 -20 0
v -47 -20 0
v -47 -19 0
v -46 -19 0
v -45 -20 0
v -46 -20 0
v -46 -19 0
v -45 -19 0
v -44 -20 0
v -45 -20 0
v -45 -19 0
v -44 -19 0
v -43 -20 0
v -44 -20 0
v -44 -19 0
v -43 -19 0
v -42 -20 0
v -43 -20 0
v -43 -19 0
v -42 -19 0
v -41 -20 0
v -42 -20 0
v -42 -19 0
v -41 -19 0
v -40 -20 0
v -41 -20 0
v -41 -19 0
v -40 -19 0
v -46 -21 0
v -47 -21 0
v -47 -20 0
v -46 -20 0
v -45 -21 0
v -46 -21 0
v -46 -20 0
v -45 -20 0
v -44 -21 0
v -45 -21 0
v -45 -20 0
v -44 -20 0
v -43 -21 0
v -44 -21 0
v -44 -20 0
v -43 -20 0
v -42 -21 0
v -43 -21 0
v -43 -20 0
v -42 -20 0
v -41 -21 0
v -42 -21 0
v -42 -20 0
v -41 -20 0
v -40 -21 0
v -41 -21 0
v -41 -20 0
v -40 -20 0
v -46 -22 0
v -47 -22 0
v -47 -21 0
v -46 -21 0
v -45 -22 0
v -46 -22 0
v -46 -21 0
v -45 -21 0
v -44 -22 0
v -45 -22 0
v -45 -21 0
v -44 -21 0
v -43 -22 0
v -44 -22 0
v -44 -21 0
v -43 -21 0
v -42 -22 0
v -43 -22 0
v -43 -21 0
v -42 -21 0
v -41 -22 0
v -42 -22 0
v -42 -21 0
v -41 -21 0
v -40 -22 0
v -41 -22 0
v -41 -21 0
v -40 -21 0
v -46 -23 0
v -47 -23 0
v -47 -22 0
v -46 -22 0
v -45 -23 0
v -46 -23 0
v -46 -22 0
v -45 -22 0
v -44 -23 0
v -45 -23 0
v -45 -22 0
v -44 -22 0
v -43 -23 0
v -44 -23 0
v -44 -22 0
v -43 -22 0
v -42 -23 0
v -43 -23 0
v -43 -22 0
v -42 -22 0
v -41 -23 0
v -42 -23 0
v -42 -22 0
v -41 -22 0
v -40 -23 0
v -41 -23 0
v -41 -22 0
v -40 -22 0
v -34 -26 0
v -35 -26 0
v -35 -25 0
v -34 -25 0
v -33 -26 0
v -34 -26 0
v -34 -25 0
v -33 -25 0
v -32 -26 0
v -33 -26 0
v -33 -25 0
v -32 -25 0
v -31 -26 0
v -32 -26 0
v -32 -25 0
v -31 -25 0
v -30 -26 0
v -31 -26 0
v -31 -25 0
v -30 -25 0
v -29 -26 0
v -30 -26 0
v -30 -25 0
v -29 -25 0
v -28 -26 0
v -29 -26 0
v -29 -25 0
v -28 -25 0
v -39 -27 0
v -40 -27 0
v -40 -26 0
v -39 -26 0
v -38 -27 0
v -39 -27 0
v -39 -26 0
v -38 -26 0
v -37 -27 0
v -38 -27 0
v -38 -26 0
v -37 -26 0
v -34 -27 0
v -35 -27 0
v -35 -26 0
v -34 -26 0
v -33 -27 0
v -34 -27 0
v -34 -26 0
v -33 -26 0
v -32 -27 0
v -33 -27 0
v -33 -26 0
v -32 -26 0
v -31 -27 0
v -32 -27 0
v -32 -26 0
v -31 -26 0
v -30 -27 0
v -31 -27 0
v -31 -26 0
v -30 -26 0
v -29 -27 0
v -30 -27 0
v -30 -26 0
v -29 -26 0
v -28 -27 0
v -29 -27 0
v -29 -26 0
v -28 -26 0
v -39 -28 0
v -40 -28 0
v -40 -27 0
v -39 -27 0
v -38 -28 0
v -39 -28 0
v -39 -27 0
v -38 -27 0
v -37 -28 0
v -38 -28 0
v -38 -27 0
v -37 -27 0
v -34 -28 0
v -35 -28 0
v -35 -27 0
v -34 -27 0
v -33 -28 0
v -34 -28 0
v -34 -27 0
v -33 -27 0
v -32 -28 0
v -33 -28 0
v -33 -27 0
v -32 -27 0
v -31 -28 0
v -32 -28 0
v -32 -27 0
v -31 -27 0
v -30 -28 0
v -31 -28 0
v -31 -27 0
v -30 -27 0
v -29 -28 0
v -30 -28 0
v -30 -27 0
v -29 -27 0
v -28 -28 0
v -29 -28 0
v -29 -27 0
v -28 -27 0
v -39 -29 0
v -40 -29 0
v -40 -28 0
v -39 -28 0
v -38 -29 0
v -39 -29 0
v -39 -28 0
v -38 -28 0
v -37 -29 0
v -38 -29 0
v -38 -28 0
v -37 -28 0
v -34 -29 0
v -35 -29 0
v -35 -28 0
v -34 -28 0
v -33 -29 0
v -34 -29 0
v -34 -28 0
v -33 -28 0
v -32 -29 0
v -33 -29 0
v -33 -28 0
v -32 -28 0
v -31 -29 0
v -32 -29 0
v -32 -28 0
v -31 -28 0
v -30 -29 0
v -31 -29 0
v -31 -28 0
v -30 -28 0
v -29 -29 0
v -30 -29 0
v -30 -28 0
v -29 -28 0
v -28 -29 0
v -29 -29 0
v -29 -28 0
v -28 -28 0
v -34 -30 0
v -35 -30 0
v -35 -29 0
v -34 -29 0
v -33 -30 0
v -34 -30 0
v -34 -29 0
v -33 -29 0
v -32 -30 0
v -33 -30 0
v -33 -29 0
v -32 -29 0
v -31 -30 0
v -32 -30 0
v -32 -29 0
v -31 -29 0
v -30 -30 0
v -31 -30 0
v -31 -29 0
v -30 -29 0
v -29 -30 0
v -30 -30 0
v -30 -29 0
v -29 -29 0
v -28 -30 0
v -29 -30 0
v -29 -29 0
v -28 -29 0
v -21 -33 0
v -22 -33 0
v -22 -32 0
v -21 -32 0
v -20 -33 0
v -21 -33 0
v -21 -32 0
v -20 -32 0
v -19 -33 0
v -20 -33 0
v -20 -32 0
v -19 -32 0
v -18 -33 0
v -19 -33 0
v -19 -32 0
v -18 -32 0
v -17 -33 0
v -18 -33 0
v -18 -32 0
v -17 -32 0
v -16 -33 0
v -17 -33 0
v -17 -32 0
v -16 -32 0
v -15 -33 0
v -16 -33 0
v -16 -32 0
v -15 -32 0
v -21 -34 0
v -22 -34 0
v -22 -33 0
v -21 -33 0
v -20 -34 0
v -21 -34 0
v -21 -33 0
v -20 -33 0
v -19 -34 0
v -20 -34 0
v -20 -33 0
v -19 -33 0
v -18 -34 0
v -19 -34 0
v -19 -33 0
v -18 -33 0
v -17 -34 0
v -18 -34 0
v -18 -33 0
v -17 -33 0
v -16 -34 0
v -17 -34 0
v -17 -33 0
v -16 -33 0
v -15 -34 0
v -16 -34 0
v -16 -33 0
v -15 -33 0
v -21 -35 0
v -22 -35 0
v -22 -34 0
v -21 -34 0
v -20 -35 0
v -21 -35 0
v -21 -34 0
v -20 -34 0
v -19 -35 0
v -20 -35 0
v -20 -34 0
v -19 -34 0
v -18 -35 0
v -19 -35 0
v -19 -34 0
v -18 -34 0
v -17 -35 0
v -18 -35 0
v -18 -34 0
v -17 -34 0
v -16 -35 0
v -17 -35 0
v -17 -34 0
v -16 -34 0
v -15 -35 0
v -16 -35 0
v -16 -34 0
v -15 -34 0
v -21 -36 0
v -22 -36 0
v -22 -35 0
v -21 -35 0
v -20 -36 0
v -21 -36 0
v -21 -35 0
v -20 -35 0
v -19 -36 0
v -20 -36 0
v -20 -35 0
v -19 -35 0
v -18 -36 0
v -19 -36 0
v -19 -35 0
v -18 -35 0
v -17 -36 0
v -18 -36 0
v -18 -35 0
v -17 -35 0
v -16 -36 0
v -17 -36 0
v -17 -35 0
v -16 -35 0
v -15 -36 0
v -16 -36 0
v -16 -35 0
v -15 -35 0
v -21 -37 0
v -22 -37 0
v -22 -36 0
v -21 -36 0
v -20 -37 0
v -21 -37 0
v -21 -36 0
v -20 -36 0
v -19 -37 0
v -20 -37 0
v -20 -36 0
v -19 -36 0
v -18 -37 0
v -19 -37 0
v -19 -36 0
v -18 -36 0
v -17 -37 0
v -18 -37 0
v -18 -36 0
v -17 -36 0
v -16 -37 0
v -17 -37 0
v -17 -36 0
v -16 -36 0
v -15 -37 0
v -16 -37 0
v -16 -36 0
v -15 -36 0

# Texture cooridinates (Count = 296)
vt 0.3920284 0.8685431
vt 0.4088236 0.8685431
vt 0.4088236 0.8946148
vt 0.3920284 0.8946148
vt 0.3749889 0.8685431
vt 0.3917842 0.8685431
vt 0.3917842 0.8946148
vt 0.3749889 0.8946148
vt 0.3579496 0.8685431
vt 0.3747448 0.8685431
vt 0.3747448 0.8946148
vt 0.3579496 0.8946148
vt 0.3409101 0.8685431
vt 0.3577054 0.8685431
vt 0.3577054 0.8946148
vt 0.3409101 0.8946148
vt 0.3238707 0.8685431
vt 0.340666 0.8685431
vt 0.340666 0.8946148
vt 0.3238707 0.8946148
vt 0.3920284 0.8422273
vt 0.4088236 0.8422273
vt 0.4088236 0.868299
vt 0.3920284 0.868299
vt 0.3749889 0.8422273
vt 0.3917842 0.8422273
vt 0.3917842 0.868299
vt 0.3749889 0.868299
vt 0.3579496 0.8422273
vt 0.3747448 0.8422273
vt 0.3747448 0.868299
vt 0.3579496 0.868299
vt 0.3409101 0.8422273
vt 0.3577054 0.8422273
vt 0.3577054 0.868299
vt 0.3409101 0.868299
vt 0.3238707 0.8422273
vt 0.340666 0.8422273
vt 0.340666 0.868299
vt 0.3238707 0.868299
vt 0.3920284 0.8159115
vt 0.4088236 0.8159115
vt 0.4088236 0.8419832
vt 0.3920284 0.8419832
vt 0.3749889 0.8159115
vt 0.3917842 0.8159115
vt 0.3917842 0.8419832
vt 0.3749889 0.8419832
vt 0.3579496 0.8159115
vt 0.3747448 0.8159115
vt 0.3747448 0.8419832
vt 0.3579496 0.8419832
vt 0.3409101 0.8159115
vt 0.3577054 0.8159115
vt 0.3577054 0.8419832
vt 0.3409101 0.8419832
vt 0.3238707 0.8159115
vt 0.340666 0.8159115
vt 0.340666 0.8419832
vt 0.3238707 0.8419832
vt 0.3920284 0.7895957
vt 0.4088236 0.7895957
vt 0.4088236 0.8156674
vt 0.3920284 0.8156674
vt 0.3749889 0.7895957
vt 0.3917842 0.7895957
vt 0.3917842 0.8156674
vt 0.3749889 0.8156674
vt 0.3579496 0.7895957
vt 0.3747448 0.7895957
vt 0.3747448 0.8156674
vt 0.3579496 0.8156674
vt 0.3409101 0.7895957
vt 0.3577054 0.7895957
vt 0.3577054 0.8156674
vt 0.3409101 0.8156674
vt 0.3238707 0.7895957
vt 0.340666 0.7895957
vt 0.340666 0.8156674
vt 0.3238707 0.8156674
vt 0.3920284 0.76328
vt 0.4088236 0.76328
vt 0.4088236 0.7893516
vt 0.3920284 0.7893516
vt 0.3749889 0.76328
vt 0.3917842 0.76328
vt 0.3917842 0.7893516
vt 0.3749889 0.7893516
vt 0.3579496 0.76328
vt 0.3747448 0.76328
vt 0.3747448 0.7893516
vt 0.3579496 0.7893516
vt 0.3409101 0.76328
vt 0.3577054 0.76328
vt 0.3577054 0.7893516
vt 0.3409101 0.7893516
vt 0.3238707 0.76328
vt 0.340666 0.76328
vt 0.340666 0.7893516
vt 0.3238707 0.7893516
vt 0.3920284 0.7369642
vt 0.4088236 0.7369642
vt 0.4088236 0.7630358
vt 0.3920284 0.7630358
vt 0.3749889 0.7369642
vt 0.3917842 0.7369642
vt 0.3917842 0.7630358
vt 0.3749889 0.7630358
vt 0.3579496 0.7369642
vt 0.3747448 0.7369642
vt 0.3747448 0.7630358
vt 0.3579496 0.7630358
vt 0.3409101 0.7369642
vt 0.3577054 0.7369642
vt 0.3577054 0.7630358
vt 0.3409101 0.7630358
vt 0.3238707 0.7369642
vt 0.340666 0.7369642
vt 0.340666 0.7630358
vt 0.3238707 0.7630358
vt 0.63058 0.8159115
vt 0.6473753 0.8159115
vt 0.6473753 0.8419832
vt 0.63058 0.8419832
vt 0.6135406 0.8159115
vt 0.6303359 0.8159115
vt 0.6303359 0.8419832
vt 0.6135406 0.8419832
vt 0.5965012 0.8159115
vt 0.6132964 0.8159115
vt 0.6132964 0.8419832
vt 0.5965012 0.8419832
vt 0.5794618 0.8159115
vt 0.596257 0.8159115
vt 0.596257 0.8419832
vt 0.5794618 0.8419832
vt 0.5624224 0.8159115
vt 0.5792177 0.8159115
vt 0.5792177 0.8419832
vt 0.5624224 0.8419832
vt 0.545383 0.8159115
vt 0.5621783 0.8159115
vt 0.5621783 0.8419832
vt 0.545383 0.8419832
vt 0.5283436 0.8159115
vt 0.5451388 0.8159115
vt 0.5451388 0.8419832
vt 0.5283436 0.8419832
vt 0.63058 0.7895957
vt 0.6473753 0.7895957
vt 0.6473753 0.8156674
vt 0.63058 0.8156674
vt 0.6135406 0.7895957
vt 0.6303359 0.7895957
vt 0.6303359 0.8156674
vt 0.6135406 0.8156674
vt 0.5965012 0.7895957
vt 0.6132964 0.7895957
vt 0.6132964 0.8156674
vt 0.5965012 0.8156674
vt 0.5794618 0.7895957
vt 0.596257 0.7895957
vt 0.596257 0.8156674
vt 0.5794618 0.8156674
vt 0.5624224 0.7895957
vt 0.5792177 0.7895957
vt 0.5792177 0.8156674
vt 0.5624224 0.8156674
vt 0.545383 0.7895957
vt 0.5621783 0.7895957
vt 0.5621783 0.8156674
vt 0.545383 0.8156674
vt 0.5283436 0.7895957
vt 0.5451388 0.7895957
vt 0.5451388 0.8156674
vt 0.5283436 0.8156674
vt 0.63058 0.76328
vt 0.6473753 0.76328
vt 0.6473753 0.7893516
vt 0.63058 0.7893516
vt 0.6135406 0.76328
vt 0.6303359 0.76328
vt 0.6303359 0.7893516
vt 0.6135406 0.7893516
vt 0.5965012 0.76328
vt 0.6132964 0.76328
vt 0.6132964 0.7893516
vt 0.5965012 0.7893516
vt 0.5794618 0.76328
vt 0.596257 0.76328
vt 0.596257 0.7893516
vt 0.5794618 0.7893516
vt 0.5624224 0.76328
vt 0.5792177 0.76328
vt 0.5792177 0.7893516
vt 0.5624224 0.7893516
vt 0.545383 0.76328
vt 0.5621783 0.76328
vt 0.5621783 0.7893516
vt 0.545383 0.7893516
vt 0.5283436 0.76328
vt 0.5451388 0.76328
vt 0.5451388 0.7893516
vt 0.5283436 0.7893516
vt 0.63058 0.7369642
vt 0.6473753 0.7369642
vt 0.6473753 0.7630358
vt 0.63058 0.7630358
vt 0.6135406 0.7369642
vt 0.6303359 0.7369642
vt 0.6303359 0.7630358
vt 0.6135406 0.7630358
vt 0.5965012 0.7369642
vt 0.6132964 0.7369642
vt 0.6132964 0.7630358
vt 0.5965012 0.7630358
vt 0.5794618 0.7369642
vt 0.596257 0.7369642
vt 0.596257 0.7630358
vt 0.5794618 0.7630358
vt 0.5624224 0.7369642
vt 0.5792177 0.7369642
vt 0.5792177 0.7630358
vt 0.5624224 0.7630358
vt 0.545383 0.7369642
vt 0.5621783 0.7369642
vt 0.5621783 0.7630358
vt 0.545383 0.7630358
vt 0.5283436 0.7369642
vt 0.5451388 0.7369642
vt 0.5451388 0.7630358
vt 0.5283436 0.7630358
vt 0.63058 0.7106484
vt 0.6473753 0.7106484
vt 0.6473753 0.73672
vt 0.63058 0.73672
vt 0.6135406 0.7106484
vt 0.6303359 0.7106484
vt 0.6303359 0.73672
vt 0.6135406 0.73672
vt 0.5965012 0.7106484
vt 0.6132964 0.7106484
vt 0.6132964 0.73672
vt 0.5965012 0.73672
vt 0.5794618 0.7106484
vt 0.596257 0.7106484
vt 0.596257 0.73672
vt 0.5794618 0.73672
vt 0.5624224 0.7106484
vt 0.5792177 0.7106484
vt 0.5792177 0.73672
vt 0.5624224 0.73672
vt 0.545383 0.7106484
vt 0.5621783 0.7106484
vt 0.5621783 0.73672
vt 0.545383 0.73672
vt 0.5283436 0.7106484
vt 0.5451388 0.7106484
vt 0.5451388 0.73672
vt 0.5283436 0.73672
vt 0.886171 0.8422273
vt 0.9029663 0.8422273
vt 0.9029663 0.868299
vt 0.886171 0.868299
vt 0.8691317 0.8422273
vt 0.8859269 0.8422273
vt 0.8859269 0.868299
vt 0.8691317 0.868299
vt 0.8520923 0.8422273
vt 0.8688875 0.8422273
vt 0.8688875 0.868299
vt 0.8520923 0.868299
vt 0.886171 0.8159115
vt 0.9029663 0.8159115
vt 0.9029663 0.8419832
vt 0.886171 0.8419832
vt 0.8691317 0.8159115
vt 0.8859269 0.8159115
vt 0.8859269 0.8419832
vt 0.8691317 0.8419832
vt 0.8520923 0.8159115
vt 0.8688875 0.8159115
vt 0.8688875 0.8419832
vt 0.8520923 0.8419832
vt 0.886171 0.7895957
vt 0.9029663 0.7895957
vt 0.9029663 0.8156674
vt 0.886171 0.8156674
vt 0.8691317 0.7895957
vt 0.8859269 0.7895957
vt 0.8859269 0.8156674
vt 0.8691317 0.8156674
vt 0.8520923 0.7895957
vt 0.8688875 0.7895957
vt 0.8688875 0.8156674
vt 0.8520923 0.8156674

# Normal
vn 0 0 -1

# Mesh description
g Police_RO_mesh_0003

# Faces
f 1/1/1 2/2/1 3/3/1 4/4/1
f 5/5/1 6/6/1 7/7/1 8/8/1
f 9/9/1 10/10/1 11/11/1 12/12/1
f 13/13/1 14/14/1 15/15/1 16/16/1
f 17/17/1 18/18/1 19/19/1 20/20/1
f 21/21/1 22/22/1 23/23/1 24/24/1
f 25/25/1 26/26/1 27/27/1 28/28/1
f 29/29/1 30/30/1 31/31/1 32/32/1
f 33/33/1 34/34/1 35/35/1 36/36/1
f 37/37/1 38/38/1 39/39/1 40/40/1
f 41/41/1 42/42/1 43/43/1 44/44/1
f 45/45/1 46/46/1 47/47/1 48/48/1
f 49/49/1 50/50/1 51/51/1 52/52/1
f 53/53/1 54/54/1 55/55/1 56/56/1
f 57/57/1 58/58/1 59/59/1 60/60/1
f 61/61/1 62/62/1 63/63/1 64/64/1
f 65/65/1 66/66/1 67/67/1 68/68/1
f 69/69/1 70/70/1 71/71/1 72/72/1
f 73/73/1 74/74/1 75/75/1 76/76/1
f 77/77/1 78/78/1 79/79/1 80/80/1
f 81/81/1 82/82/1 83/83/1 84/84/1
f 85/85/1 86/86/1 87/87/1 88/88/1
f 89/89/1 90/90/1 91/91/1 92/92/1
f 93/93/1 94/94/1 95/95/1 96/96/1
f 97/97/1 98/98/1 99/99/1 100/100/1
f 101/101/1 102/102/1 103/103/1 104/104/1
f 105/105/1 106/106/1 107/107/1 108/108/1
f 109/109/1 110/110/1 111/111/1 112/112/1
f 113/113/1 114/114/1 115/115/1 116/116/1
f 117/117/1 118/118/1 119/119/1 120/120/1
f 121/121/1 122/122/1 123/123/1 124/124/1
f 125/125/1 126/126/1 127/127/1 128/128/1
f 129/129/1 130/130/1 131/131/1 132/132/1
f 133/133/1 134/134/1 135/135/1 136/136/1
f 137/137/1 138/138/1 139/139/1 140/140/1
f 141/141/1 142/142/1 143/143/1 144/144/1
f 145/145/1 146/146/1 147/147/1 148/148/1
f 149/149/1 150/150/1 151/151/1 152/152/1
f 153/153/1 154/154/1 155/155/1 156/156/1
f 157/157/1 158/158/1 159/159/1 160/160/1
f 161/161/1 162/162/1 163/163/1 164/164/1
f 165/165/1 166/166/1 167/167/1 168/168/1
f 169/169/1 170/170/1 171/171/1 172/172/1
f 173/173/1 174/174/1 175/175/1 176/176/1
f 177/177/1 178/178/1 179/179/1 180/180/1
f 181/181/1 182/182/1 183/183/1 184/184/1
f 185/185/1 186/186/1 187/187/1 188/188/1
f 189/189/1 190/190/1 191/191/1 192/192/1
f 193/193/1 194/194/1 195/195/1 196/196/1
f 197/197/1 198/198/1 199/199/1 200/200/1
f 201/201/1 202/202/1 203/203/1 204/204/1
f 205/205/1 206/206/1 207/207/1 208/208/1
f 209/209/1 210/210/1 211/211/1 212/212/1
f 213/213/1 214/214/1 215/215/1 216/216/1
f 217/217/1 218/218/1 219/219/1 220/220/1
f 221/221/1 222/222/1 223/223/1 224/224/1
f 225/225/1 226/226/1 227/227/1 228/228/1
f 229/229/1 230/230/1 231/231/1 232/232/1
f 233/233/1 234/234/1 235/235/1 236/236/1
f 237/237/1 238/238/1 239/239/1 240/240/1
f 241/241/1 242/242/1 243/243/1 244/244/1
f 245/245/1 246/246/1 247/247/1 248/248/1
f 249/249/1 250/250/1 251/251/1 252/252/1
f 253/253/1 254/254/1 255/255/1 256/256/1
f 257/257/1 258/258/1 259/259/1 260/260/1
f 261/121/1 262/122/1 263/123/1 264/124/1
f 265/125/1 266/126/1 267/127/1 268/128/1
f 269/129/1 270/130/1 271/131/1 272/132/1
f 273/133/1 274/134/1 275/135/1 276/136/1
f 277/137/1 278/138/1 279/139/1 280/140/1
f 281/141/1 282/142/1 283/143/1 284/144/1
f 285/145/1 286/146/1 287/147/1 288/148/1
f 289/149/1 290/150/1 291/151/1 292/152/1
f 293/153/1 294/154/1 295/155/1 296/156/1
f 297/157/1 298/158/1 299/159/1 300/160/1
f 301/161/1 302/162/1 303/163/1 304/164/1
f 305/165/1 306/166/1 307/167/1 308/168/1
f 309/169/1 310/170/1 311/171/1 312/172/1
f 313/173/1 314/174/1 315/175/1 316/176/1
f 317/177/1 318/178/1 319/179/1 320/180/1
f 321/181/1 322/182/1 323/183/1 324/184/1
f 325/185/1 326/186/1 327/187/1 328/188/1
f 329/189/1 330/190/1 331/191/1 332/192/1
f 333/193/1 334/194/1 335/195/1 336/196/1
f 337/197/1 338/198/1 339/199/1 340/200/1
f 341/201/1 342/202/1 343/203/1 344/204/1
f 345/205/1 346/206/1 347/207/1 348/208/1
f 349/209/1 350/210/1 351/211/1 352/212/1
f 353/213/1 354/214/1 355/215/1 356/216/1
f 357/217/1 358/218/1 359/219/1 360/220/1
f 361/221/1 362/222/1 363/223/1 364/224/1
f 365/225/1 366/226/1 367/227/1 368/228/1
f 369/229/1 370/230/1 371/231/1 372/232/1
f 373/233/1 374/234/1 375/235/1 376/236/1
f 377/237/1 378/238/1 379/239/1 380/240/1
f 381/241/1 382/242/1 383/243/1 384/244/1
f 385/245/1 386/246/1 387/247/1 388/248/1
f 389/249/1 390/250/1 391/251/1 392/252/1
f 393/253/1 394/254/1 395/255/1 396/256/1
f 397/257/1 398/258/1 399/259/1 400/260/1
f 401/121/1 402/122/1 403/123/1 404/124/1
f 405/125/1 406/126/1 407/127/1 408/128/1
f 409/129/1 410/130/1 411/131/1 412/132/1
f 413/133/1 414/134/1 415/135/1 416/136/1
f 417/137/1 418/138/1 419/139/1 420/140/1
f 421/141/1 422/142/1 423/143/1 424/144/1
f 425/145/1 426/146/1 427/147/1 428/148/1
f 429/261/1 430/262/1 431/263/1 432/264/1
f 433/265/1 434/266/1 435/267/1 436/268/1
f 437/269/1 438/270/1 439/271/1 440/272/1
f 441/149/1 442/150/1 443/151/1 444/152/1
f 445/153/1 446/154/1 447/155/1 448/156/1
f 449/157/1 450/158/1 451/159/1 452/160/1
f 453/161/1 454/162/1 455/163/1 456/164/1
f 457/165/1 458/166/1 459/167/1 460/168/1
f 461/169/1 462/170/1 463/171/1 464/172/1
f 465/173/1 466/174/1 467/175/1 468/176/1
f 469/273/1 470/274/1 471/275/1 472/276/1
f 473/277/1 474/278/1 475/279/1 476/280/1
f 477/281/1 478/282/1 479/283/1 480/284/1
f 481/177/1 482/178/1 483/179/1 484/180/1
f 485/181/1 486/182/1 487/183/1 488/184/1
f 489/185/1 490/186/1 491/187/1 492/188/1
f 493/189/1 494/190/1 495/191/1 496/192/1
f 497/193/1 498/194/1 499/195/1 500/196/1
f 501/197/1 502/198/1 503/199/1 504/200/1
f 505/201/1 506/202/1 507/203/1 508/204/1
f 509/285/1 510/286/1 511/287/1 512/288/1
f 513/289/1 514/290/1 515/291/1 516/292/1
f 517/293/1 518/294/1 519/295/1 520/296/1
f 521/205/1 522/206/1 523/207/1 524/208/1
f 525/209/1 526/210/1 527/211/1 528/212/1
f 529/213/1 530/214/1 531/215/1 532/216/1
f 533/217/1 534/218/1 535/219/1 536/220/1
f 537/221/1 538/222/1 539/223/1 540/224/1
f 541/225/1 542/226/1 543/227/1 544/228/1
f 545/229/1 546/230/1 547/231/1 548/232/1
f 549/233/1 550/234/1 551/235/1 552/236/1
f 553/237/1 554/238/1 555/239/1 556/240/1
f 557/241/1 558/242/1 559/243/1 560/244/1
f 561/245/1 562/246/1 563/247/1 564/248/1
f 565/249/1 566/250/1 567/251/1 568/252/1
f 569/253/1 570/254/1 571/255/1 572/256/1
f 573/257/1 574/258/1 575/259/1 576/260/1
f 577/121/1 578/122/1 579/123/1 580/124/1
f 581/125/1 582/126/1 583/127/1 584/128/1
f 585/129/1 586/130/1 587/131/1 588/132/1
f 589/133/1 590/134/1 591/135/1 592/136/1
f 593/137/1 594/138/1 595/139/1 596/140/1
f 597/141/1 598/142/1 599/143/1 600/144/1
f 601/145/1 602/146/1 603/147/1 604/148/1
f 605/149/1 606/150/1 607/151/1 608/152/1
f 609/153/1 610/154/1 611/155/1 612/156/1
f 613/157/1 614/158/1 615/159/1 616/160/1
f 617/161/1 618/162/1 619/163/1 620/164/1
f 621/165/1 622/166/1 623/167/1 624/168/1
f 625/169/1 626/170/1 627/171/1 628/172/1
f 629/173/1 630/174/1 631/175/1 632/176/1
f 633/177/1 634/178/1 635/179/1 636/180/1
f 637/181/1 638/182/1 639/183/1 640/184/1
f 641/185/1 642/186/1 643/187/1 644/188/1
f 645/189/1 646/190/1 647/191/1 648/192/1
f 649/193/1 650/194/1 651/195/1 652/196/1
f 653/197/1 654/198/1 655/199/1 656/200/1
f 657/201/1 658/202/1 659/203/1 660/204/1
f 661/205/1 662/206/1 663/207/1 664/208/1
f 665/209/1 666/210/1 667/211/1 668/212/1
f 669/213/1 670/214/1 671/215/1 672/216/1
f 673/217/1 674/218/1 675/219/1 676/220/1
f 677/221/1 678/222/1 679/223/1 680/224/1
f 681/225/1 682/226/1 683/227/1 684/228/1
f 685/229/1 686/230/1 687/231/1 688/232/1
f 689/233/1 690/234/1 691/235/1 692/236/1
f 693/237/1 694/238/1 695/239/1 696/240/1
f 697/241/1 698/242/1 699/243/1 700/244/1
f 701/245/1 702/246/1 703/247/1 704/248/1
f 705/249/1 706/250/1 707/251/1 708/252/1
f 709/253/1 710/254/1 711/255/1 712/256/1
f 713/257/1 714/258/1 715/259/1 716/260/1

