# Tiled2Unity generated file. Do not modify by hand.
# Wavefront file for 'Police_RO_mesh_0002.obj'

# Vertices (Count = 240)
v -29 -27 0
v -30 -27 0
v -30 -26 0
v -29 -26 0
v -29 -28 0
v -30 -28 0
v -30 -27 0
v -29 -27 0
v -19 -28 0
v -20 -28 0
v -20 -27 0
v -19 -27 0
v -29 -29 0
v -30 -29 0
v -30 -28 0
v -29 -28 0
v -28 -29 0
v -29 -29 0
v -29 -28 0
v -28 -28 0
v -20 -29 0
v -21 -29 0
v -21 -28 0
v -20 -28 0
v -19 -29 0
v -20 -29 0
v -20 -28 0
v -19 -28 0
v -29 -30 0
v -30 -30 0
v -30 -29 0
v -29 -29 0
v -28 -30 0
v -29 -30 0
v -29 -29 0
v -28 -29 0
v -22 -30 0
v -23 -30 0
v -23 -29 0
v -22 -29 0
v -21 -30 0
v -22 -30 0
v -22 -29 0
v -21 -29 0
v -20 -30 0
v -21 -30 0
v -21 -29 0
v -20 -29 0
v -19 -30 0
v -20 -30 0
v -20 -29 0
v -19 -29 0
v -29 -31 0
v -30 -31 0
v -30 -30 0
v -29 -30 0
v -28 -31 0
v -29 -31 0
v -29 -30 0
v -28 -30 0
v -22 -31 0
v -23 -31 0
v -23 -30 0
v -22 -30 0
v -21 -31 0
v -22 -31 0
v -22 -30 0
v -21 -30 0
v -20 -31 0
v -21 -31 0
v -21 -30 0
v -20 -30 0
v -19 -31 0
v -20 -31 0
v -20 -30 0
v -19 -30 0
v -29 -32 0
v -30 -32 0
v -30 -31 0
v -29 -31 0
v -28 -32 0
v -29 -32 0
v -29 -31 0
v -28 -31 0
v -27 -32 0
v -28 -32 0
v -28 -31 0
v -27 -31 0
v -23 -32 0
v -24 -32 0
v -24 -31 0
v -23 -31 0
v -22 -32 0
v -23 -32 0
v -23 -31 0
v -22 -31 0
v -21 -32 0
v -22 -32 0
v -22 -31 0
v -21 -31 0
v -20 -32 0
v -21 -32 0
v -21 -31 0
v -20 -31 0
v -19 -32 0
v -20 -32 0
v -20 -31 0
v -19 -31 0
v -28 -33 0
v -29 -33 0
v -29 -32 0
v -28 -32 0
v -27 -33 0
v -28 -33 0
v -28 -32 0
v -27 -32 0
v -23 -33 0
v -24 -33 0
v -24 -32 0
v -23 -32 0
v -22 -33 0
v -23 -33 0
v -23 -32 0
v -22 -32 0
v -21 -33 0
v -22 -33 0
v -22 -32 0
v -21 -32 0
v -20 -33 0
v -21 -33 0
v -21 -32 0
v -20 -32 0
v -28 -34 0
v -29 -34 0
v -29 -33 0
v -28 -33 0
v -27 -34 0
v -28 -34 0
v -28 -33 0
v -27 -33 0
v -26 -34 0
v -27 -34 0
v -27 -33 0
v -26 -33 0
v -25 -34 0
v -26 -34 0
v -26 -33 0
v -25 -33 0
v -24 -34 0
v -25 -34 0
v -25 -33 0
v -24 -33 0
v -23 -34 0
v -24 -34 0
v -24 -33 0
v -23 -33 0
v -22 -34 0
v -23 -34 0
v -23 -33 0
v -22 -33 0
v -21 -34 0
v -22 -34 0
v -22 -33 0
v -21 -33 0
v -27 -35 0
v -28 -35 0
v -28 -34 0
v -27 -34 0
v -26 -35 0
v -27 -35 0
v -27 -34 0
v -26 -34 0
v -25 -35 0
v -26 -35 0
v -26 -34 0
v -25 -34 0
v -24 -35 0
v -25 -35 0
v -25 -34 0
v -24 -34 0
v -23 -35 0
v -24 -35 0
v -24 -34 0
v -23 -34 0
v -22 -35 0
v -23 -35 0
v -23 -34 0
v -22 -34 0
v -27 -36 0
v -28 -36 0
v -28 -35 0
v -27 -35 0
v -26 -36 0
v -27 -36 0
v -27 -35 0
v -26 -35 0
v -25 -36 0
v -26 -36 0
v -26 -35 0
v -25 -35 0
v -24 -36 0
v -25 -36 0
v -25 -35 0
v -24 -35 0
v -23 -36 0
v -24 -36 0
v -24 -35 0
v -23 -35 0
v -27 -37 0
v -28 -37 0
v -28 -36 0
v -27 -36 0
v -26 -37 0
v -27 -37 0
v -27 -36 0
v -26 -36 0
v -25 -37 0
v -26 -37 0
v -26 -36 0
v -25 -36 0
v -24 -37 0
v -25 -37 0
v -25 -36 0
v -24 -36 0
v -23 -37 0
v -24 -37 0
v -24 -36 0
v -23 -36 0
v -26 -38 0
v -27 -38 0
v -27 -37 0
v -26 -37 0
v -25 -38 0
v -26 -38 0
v -26 -37 0
v -25 -37 0
v -24 -38 0
v -25 -38 0
v -25 -37 0
v -24 -37 0

# Texture cooridinates (Count = 72)
vt 0.1249595 0.7223443
vt 0.1455216 0.7223443
vt 0.1455216 0.7498779
vt 0.1249595 0.7498779
vt 0.1249595 0.6945665
vt 0.1455216 0.6945665
vt 0.1455216 0.7221001
vt 0.1249595 0.7221001
vt 0.08334704 0.6667887
vt 0.1039091 0.6667887
vt 0.1039091 0.6943223
vt 0.08334704 0.6943223
vt 0.1249595 0.6667887
vt 0.1455216 0.6667887
vt 0.1455216 0.6943223
vt 0.1249595 0.6943223
vt 0.08334704 0.639011
vt 0.1039091 0.639011
vt 0.1039091 0.6665446
vt 0.08334704 0.6665446
vt 0.1249595 0.639011
vt 0.1455216 0.639011
vt 0.1455216 0.6665446
vt 0.1249595 0.6665446
vt 0.08334704 0.7223443
vt 0.1039091 0.7223443
vt 0.1039091 0.7498779
vt 0.08334704 0.7498779
vt 0.08334704 0.6112332
vt 0.1039091 0.6112332
vt 0.1039091 0.6387668
vt 0.08334704 0.6387668
vt 0.1249595 0.6112332
vt 0.1455216 0.6112332
vt 0.1455216 0.6387668
vt 0.1249595 0.6387668
vt 0.08334704 0.6945665
vt 0.1039091 0.6945665
vt 0.1039091 0.7221001
vt 0.08334704 0.7221001
vt 0.08334704 0.5834554
vt 0.1039091 0.5834554
vt 0.1039091 0.610989
vt 0.08334704 0.610989
vt 0.1249595 0.5834554
vt 0.1455216 0.5834554
vt 0.1455216 0.610989
vt 0.1249595 0.610989
vt 0.08334704 0.5556777
vt 0.1039091 0.5556777
vt 0.1039091 0.5832113
vt 0.08334704 0.5832113
vt 0.1041533 0.6667887
vt 0.1247154 0.6667887
vt 0.1247154 0.6943223
vt 0.1041533 0.6943223
vt 0.1041533 0.639011
vt 0.1247154 0.639011
vt 0.1247154 0.6665446
vt 0.1041533 0.6665446
vt 0.1041533 0.6112332
vt 0.1247154 0.6112332
vt 0.1247154 0.6387668
vt 0.1041533 0.6387668
vt 0.1041533 0.5834554
vt 0.1247154 0.5834554
vt 0.1247154 0.610989
vt 0.1041533 0.610989
vt 0.1041533 0.5556777
vt 0.1247154 0.5556777
vt 0.1247154 0.5832113
vt 0.1041533 0.5832113

# Normal
vn 0 0 -1

# Mesh description
g Police_RO_mesh_0002

# Faces
f 1/1/1 2/2/1 3/3/1 4/4/1
f 5/5/1 6/6/1 7/7/1 8/8/1
f 9/9/1 10/10/1 11/11/1 12/12/1
f 13/13/1 14/14/1 15/15/1 16/16/1
f 17/1/1 18/2/1 19/3/1 20/4/1
f 21/9/1 22/10/1 23/11/1 24/12/1
f 25/17/1 26/18/1 27/19/1 28/20/1
f 29/21/1 30/22/1 31/23/1 32/24/1
f 33/5/1 34/6/1 35/7/1 36/8/1
f 37/25/1 38/26/1 39/27/1 40/28/1
f 41/9/1 42/10/1 43/11/1 44/12/1
f 45/17/1 46/18/1 47/19/1 48/20/1
f 49/29/1 50/30/1 51/31/1 52/32/1
f 53/33/1 54/34/1 55/35/1 56/36/1
f 57/13/1 58/14/1 59/15/1 60/16/1
f 61/37/1 62/38/1 63/39/1 64/40/1
f 65/17/1 66/18/1 67/19/1 68/20/1
f 69/29/1 70/30/1 71/31/1 72/32/1
f 73/41/1 74/42/1 75/43/1 76/44/1
f 77/45/1 78/46/1 79/47/1 80/48/1
f 81/21/1 82/22/1 83/23/1 84/24/1
f 85/1/1 86/2/1 87/3/1 88/4/1
f 89/25/1 90/26/1 91/27/1 92/28/1
f 93/9/1 94/10/1 95/11/1 96/12/1
f 97/29/1 98/30/1 99/31/1 100/32/1
f 101/41/1 102/42/1 103/43/1 104/44/1
f 105/49/1 106/50/1 107/51/1 108/52/1
f 109/33/1 110/34/1 111/35/1 112/36/1
f 113/5/1 114/6/1 115/7/1 116/8/1
f 117/37/1 118/38/1 119/39/1 120/40/1
f 121/17/1 122/18/1 123/19/1 124/20/1
f 125/41/1 126/42/1 127/43/1 128/44/1
f 129/49/1 130/50/1 131/51/1 132/52/1
f 133/45/1 134/46/1 135/47/1 136/48/1
f 137/13/1 138/14/1 139/15/1 140/16/1
f 141/53/1 142/54/1 143/55/1 144/56/1
f 145/53/1 146/54/1 147/55/1 148/56/1
f 149/53/1 150/54/1 151/55/1 152/56/1
f 153/9/1 154/10/1 155/11/1 156/12/1
f 157/29/1 158/30/1 159/31/1 160/32/1
f 161/49/1 162/50/1 163/51/1 164/52/1
f 165/21/1 166/22/1 167/23/1 168/24/1
f 169/57/1 170/58/1 171/59/1 172/60/1
f 173/57/1 174/58/1 175/59/1 176/60/1
f 177/57/1 178/58/1 179/59/1 180/60/1
f 181/17/1 182/18/1 183/19/1 184/20/1
f 185/41/1 186/42/1 187/43/1 188/44/1
f 189/33/1 190/34/1 191/35/1 192/36/1
f 193/61/1 194/62/1 195/63/1 196/64/1
f 197/61/1 198/62/1 199/63/1 200/64/1
f 201/61/1 202/62/1 203/63/1 204/64/1
f 205/29/1 206/30/1 207/31/1 208/32/1
f 209/45/1 210/46/1 211/47/1 212/48/1
f 213/65/1 214/66/1 215/67/1 216/68/1
f 217/65/1 218/66/1 219/67/1 220/68/1
f 221/65/1 222/66/1 223/67/1 224/68/1
f 225/41/1 226/42/1 227/43/1 228/44/1
f 229/69/1 230/70/1 231/71/1 232/72/1
f 233/69/1 234/70/1 235/71/1 236/72/1
f 237/69/1 238/70/1 239/71/1 240/72/1

