# Tiled2Unity generated file. Do not modify by hand.
# Wavefront file for 'RightCityHall_mesh_0006.obj'

# Vertices (Count = 144)
v -23 -58 0
v -24 -58 0
v -24 -57 0
v -23 -57 0
v -22 -58 0
v -23 -58 0
v -23 -57 0
v -22 -57 0
v -21 -58 0
v -22 -58 0
v -22 -57 0
v -21 -57 0
v -20 -58 0
v -21 -58 0
v -21 -57 0
v -20 -57 0
v -19 -58 0
v -20 -58 0
v -20 -57 0
v -19 -57 0
v -18 -58 0
v -19 -58 0
v -19 -57 0
v -18 -57 0
v -17 -58 0
v -18 -58 0
v -18 -57 0
v -17 -57 0
v -16 -58 0
v -17 -58 0
v -17 -57 0
v -16 -57 0
v -15 -58 0
v -16 -58 0
v -16 -57 0
v -15 -57 0
v -23 -59 0
v -24 -59 0
v -24 -58 0
v -23 -58 0
v -22 -59 0
v -23 -59 0
v -23 -58 0
v -22 -58 0
v -21 -59 0
v -22 -59 0
v -22 -58 0
v -21 -58 0
v -20 -59 0
v -21 -59 0
v -21 -58 0
v -20 -58 0
v -19 -59 0
v -20 -59 0
v -20 -58 0
v -19 -58 0
v -18 -59 0
v -19 -59 0
v -19 -58 0
v -18 -58 0
v -17 -59 0
v -18 -59 0
v -18 -58 0
v -17 -58 0
v -16 -59 0
v -17 -59 0
v -17 -58 0
v -16 -58 0
v -15 -59 0
v -16 -59 0
v -16 -58 0
v -15 -58 0
v -23 -60 0
v -24 -60 0
v -24 -59 0
v -23 -59 0
v -22 -60 0
v -23 -60 0
v -23 -59 0
v -22 -59 0
v -21 -60 0
v -22 -60 0
v -22 -59 0
v -21 -59 0
v -20 -60 0
v -21 -60 0
v -21 -59 0
v -20 -59 0
v -19 -60 0
v -20 -60 0
v -20 -59 0
v -19 -59 0
v -18 -60 0
v -19 -60 0
v -19 -59 0
v -18 -59 0
v -17 -60 0
v -18 -60 0
v -18 -59 0
v -17 -59 0
v -16 -60 0
v -17 -60 0
v -17 -59 0
v -16 -59 0
v -15 -60 0
v -16 -60 0
v -16 -59 0
v -15 -59 0
v -23 -61 0
v -24 -61 0
v -24 -60 0
v -23 -60 0
v -22 -61 0
v -23 -61 0
v -23 -60 0
v -22 -60 0
v -21 -61 0
v -22 -61 0
v -22 -60 0
v -21 -60 0
v -20 -61 0
v -21 -61 0
v -21 -60 0
v -20 -60 0
v -19 -61 0
v -20 -61 0
v -20 -60 0
v -19 -60 0
v -18 -61 0
v -19 -61 0
v -19 -60 0
v -18 -60 0
v -17 -61 0
v -18 -61 0
v -18 -60 0
v -17 -60 0
v -16 -61 0
v -17 -61 0
v -17 -60 0
v -16 -60 0
v -15 -61 0
v -16 -61 0
v -16 -60 0
v -15 -60 0

# Texture cooridinates (Count = 144)
vt 0.1534767 0.3685431
vt 0.170272 0.3685431
vt 0.170272 0.3946148
vt 0.1534767 0.3946148
vt 0.1364373 0.3685431
vt 0.1532326 0.3685431
vt 0.1532326 0.3946148
vt 0.1364373 0.3946148
vt 0.1193979 0.3685431
vt 0.1361932 0.3685431
vt 0.1361932 0.3946148
vt 0.1193979 0.3946148
vt 0.1023585 0.3685431
vt 0.1191538 0.3685431
vt 0.1191538 0.3946148
vt 0.1023585 0.3946148
vt 0.08531909 0.3685431
vt 0.1021143 0.3685431
vt 0.1021143 0.3946148
vt 0.08531909 0.3946148
vt 0.06827968 0.3685431
vt 0.08507495 0.3685431
vt 0.08507495 0.3946148
vt 0.06827968 0.3946148
vt 0.05124028 0.3685431
vt 0.06803554 0.3685431
vt 0.06803554 0.3946148
vt 0.05124028 0.3946148
vt 0.03420088 0.3685431
vt 0.05099614 0.3685431
vt 0.05099614 0.3946148
vt 0.03420088 0.3946148
vt 0.01716147 0.3685431
vt 0.03395674 0.3685431
vt 0.03395674 0.3946148
vt 0.01716147 0.3946148
vt 0.1534767 0.3422273
vt 0.170272 0.3422273
vt 0.170272 0.368299
vt 0.1534767 0.368299
vt 0.1364373 0.3422273
vt 0.1532326 0.3422273
vt 0.1532326 0.368299
vt 0.1364373 0.368299
vt 0.1193979 0.3422273
vt 0.1361932 0.3422273
vt 0.1361932 0.368299
vt 0.1193979 0.368299
vt 0.1023585 0.3422273
vt 0.1191538 0.3422273
vt 0.1191538 0.368299
vt 0.1023585 0.368299
vt 0.08531909 0.3422273
vt 0.1021143 0.3422273
vt 0.1021143 0.368299
vt 0.08531909 0.368299
vt 0.06827968 0.3422273
vt 0.08507495 0.3422273
vt 0.08507495 0.368299
vt 0.06827968 0.368299
vt 0.05124028 0.3422273
vt 0.06803554 0.3422273
vt 0.06803554 0.368299
vt 0.05124028 0.368299
vt 0.03420088 0.3422273
vt 0.05099614 0.3422273
vt 0.05099614 0.368299
vt 0.03420088 0.368299
vt 0.01716147 0.3422273
vt 0.03395674 0.3422273
vt 0.03395674 0.368299
vt 0.01716147 0.368299
vt 0.1534767 0.3159115
vt 0.170272 0.3159115
vt 0.170272 0.3419832
vt 0.1534767 0.3419832
vt 0.1364373 0.3159115
vt 0.1532326 0.3159115
vt 0.1532326 0.3419832
vt 0.1364373 0.3419832
vt 0.1193979 0.3159115
vt 0.1361932 0.3159115
vt 0.1361932 0.3419832
vt 0.1193979 0.3419832
vt 0.1023585 0.3159115
vt 0.1191538 0.3159115
vt 0.1191538 0.3419832
vt 0.1023585 0.3419832
vt 0.08531909 0.3159115
vt 0.1021143 0.3159115
vt 0.1021143 0.3419832
vt 0.08531909 0.3419832
vt 0.06827968 0.3159115
vt 0.08507495 0.3159115
vt 0.08507495 0.3419832
vt 0.06827968 0.3419832
vt 0.05124028 0.3159115
vt 0.06803554 0.3159115
vt 0.06803554 0.3419832
vt 0.05124028 0.3419832
vt 0.03420088 0.3159115
vt 0.05099614 0.3159115
vt 0.05099614 0.3419832
vt 0.03420088 0.3419832
vt 0.01716147 0.3159115
vt 0.03395674 0.3159115
vt 0.03395674 0.3419832
vt 0.01716147 0.3419832
vt 0.1534767 0.2895958
vt 0.170272 0.2895958
vt 0.170272 0.3156674
vt 0.1534767 0.3156674
vt 0.1364373 0.2895958
vt 0.1532326 0.2895958
vt 0.1532326 0.3156674
vt 0.1364373 0.3156674
vt 0.1193979 0.2895958
vt 0.1361932 0.2895958
vt 0.1361932 0.3156674
vt 0.1193979 0.3156674
vt 0.1023585 0.2895958
vt 0.1191538 0.2895958
vt 0.1191538 0.3156674
vt 0.1023585 0.3156674
vt 0.08531909 0.2895958
vt 0.1021143 0.2895958
vt 0.1021143 0.3156674
vt 0.08531909 0.3156674
vt 0.06827968 0.2895958
vt 0.08507495 0.2895958
vt 0.08507495 0.3156674
vt 0.06827968 0.3156674
vt 0.05124028 0.2895958
vt 0.06803554 0.2895958
vt 0.06803554 0.3156674
vt 0.05124028 0.3156674
vt 0.03420088 0.2895958
vt 0.05099614 0.2895958
vt 0.05099614 0.3156674
vt 0.03420088 0.3156674
vt 0.01716147 0.2895958
vt 0.03395674 0.2895958
vt 0.03395674 0.3156674
vt 0.01716147 0.3156674

# Normal
vn 0 0 -1

# Mesh description
g RightCityHall_mesh_0006

# Faces
f 1/1/1 2/2/1 3/3/1 4/4/1
f 5/5/1 6/6/1 7/7/1 8/8/1
f 9/9/1 10/10/1 11/11/1 12/12/1
f 13/13/1 14/14/1 15/15/1 16/16/1
f 17/17/1 18/18/1 19/19/1 20/20/1
f 21/21/1 22/22/1 23/23/1 24/24/1
f 25/25/1 26/26/1 27/27/1 28/28/1
f 29/29/1 30/30/1 31/31/1 32/32/1
f 33/33/1 34/34/1 35/35/1 36/36/1
f 37/37/1 38/38/1 39/39/1 40/40/1
f 41/41/1 42/42/1 43/43/1 44/44/1
f 45/45/1 46/46/1 47/47/1 48/48/1
f 49/49/1 50/50/1 51/51/1 52/52/1
f 53/53/1 54/54/1 55/55/1 56/56/1
f 57/57/1 58/58/1 59/59/1 60/60/1
f 61/61/1 62/62/1 63/63/1 64/64/1
f 65/65/1 66/66/1 67/67/1 68/68/1
f 69/69/1 70/70/1 71/71/1 72/72/1
f 73/73/1 74/74/1 75/75/1 76/76/1
f 77/77/1 78/78/1 79/79/1 80/80/1
f 81/81/1 82/82/1 83/83/1 84/84/1
f 85/85/1 86/86/1 87/87/1 88/88/1
f 89/89/1 90/90/1 91/91/1 92/92/1
f 93/93/1 94/94/1 95/95/1 96/96/1
f 97/97/1 98/98/1 99/99/1 100/100/1
f 101/101/1 102/102/1 103/103/1 104/104/1
f 105/105/1 106/106/1 107/107/1 108/108/1
f 109/109/1 110/110/1 111/111/1 112/112/1
f 113/113/1 114/114/1 115/115/1 116/116/1
f 117/117/1 118/118/1 119/119/1 120/120/1
f 121/121/1 122/122/1 123/123/1 124/124/1
f 125/125/1 126/126/1 127/127/1 128/128/1
f 129/129/1 130/130/1 131/131/1 132/132/1
f 133/133/1 134/134/1 135/135/1 136/136/1
f 137/137/1 138/138/1 139/139/1 140/140/1
f 141/141/1 142/142/1 143/143/1 144/144/1

