# Tiled2Unity generated file. Do not modify by hand.
# Wavefront file for 'RightCityHall_mesh_0003.obj'

# Vertices (Count = 240)
v -41 -11 0
v -42 -11 0
v -42 -10 0
v -41 -10 0
v -40 -11 0
v -41 -11 0
v -41 -10 0
v -40 -10 0
v -41 -12 0
v -42 -12 0
v -42 -11 0
v -41 -11 0
v -40 -12 0
v -41 -12 0
v -41 -11 0
v -40 -11 0
v -30 -19 0
v -31 -19 0
v -31 -18 0
v -30 -18 0
v -29 -19 0
v -30 -19 0
v -30 -18 0
v -29 -18 0
v -28 -19 0
v -29 -19 0
v -29 -18 0
v -28 -18 0
v -44 -20 0
v -45 -20 0
v -45 -19 0
v -44 -19 0
v -43 -20 0
v -44 -20 0
v -44 -19 0
v -43 -19 0
v -42 -20 0
v -43 -20 0
v -43 -19 0
v -42 -19 0
v -41 -20 0
v -42 -20 0
v -42 -19 0
v -41 -19 0
v -40 -20 0
v -41 -20 0
v -41 -19 0
v -40 -19 0
v -39 -20 0
v -40 -20 0
v -40 -19 0
v -39 -19 0
v -38 -20 0
v -39 -20 0
v -39 -19 0
v -38 -19 0
v -37 -20 0
v -38 -20 0
v -38 -19 0
v -37 -19 0
v -36 -20 0
v -37 -20 0
v -37 -19 0
v -36 -19 0
v -35 -20 0
v -36 -20 0
v -36 -19 0
v -35 -19 0
v -44 -21 0
v -45 -21 0
v -45 -20 0
v -44 -20 0
v -35 -21 0
v -36 -21 0
v -36 -20 0
v -35 -20 0
v -44 -22 0
v -45 -22 0
v -45 -21 0
v -44 -21 0
v -35 -22 0
v -36 -22 0
v -36 -21 0
v -35 -21 0
v -44 -23 0
v -45 -23 0
v -45 -22 0
v -44 -22 0
v -35 -23 0
v -36 -23 0
v -36 -22 0
v -35 -22 0
v -44 -24 0
v -45 -24 0
v -45 -23 0
v -44 -23 0
v -35 -24 0
v -36 -24 0
v -36 -23 0
v -35 -23 0
v -44 -25 0
v -45 -25 0
v -45 -24 0
v -44 -24 0
v -35 -25 0
v -36 -25 0
v -36 -24 0
v -35 -24 0
v -34 -25 0
v -35 -25 0
v -35 -24 0
v -34 -24 0
v -33 -25 0
v -34 -25 0
v -34 -24 0
v -33 -24 0
v -32 -25 0
v -33 -25 0
v -33 -24 0
v -32 -24 0
v -31 -25 0
v -32 -25 0
v -32 -24 0
v -31 -24 0
v -30 -25 0
v -31 -25 0
v -31 -24 0
v -30 -24 0
v -44 -26 0
v -45 -26 0
v -45 -25 0
v -44 -25 0
v -43 -26 0
v -44 -26 0
v -44 -25 0
v -43 -25 0
v -42 -26 0
v -43 -26 0
v -43 -25 0
v -42 -25 0
v -41 -26 0
v -42 -26 0
v -42 -25 0
v -41 -25 0
v -38 -26 0
v -39 -26 0
v -39 -25 0
v -38 -25 0
v -37 -26 0
v -38 -26 0
v -38 -25 0
v -37 -25 0
v -36 -26 0
v -37 -26 0
v -37 -25 0
v -36 -25 0
v -35 -26 0
v -36 -26 0
v -36 -25 0
v -35 -25 0
v -30 -26 0
v -31 -26 0
v -31 -25 0
v -30 -25 0
v -2 -40 0
v -3 -40 0
v -3 -39 0
v -2 -39 0
v -1 -40 0
v -2 -40 0
v -2 -39 0
v -1 -39 0
v -2 -41 0
v -3 -41 0
v -3 -40 0
v -2 -40 0
v -1 -41 0
v -2 -41 0
v -2 -40 0
v -1 -40 0
v -9 -47 0
v -10 -47 0
v -10 -46 0
v -9 -46 0
v -8 -47 0
v -9 -47 0
v -9 -46 0
v -8 -46 0
v -7 -47 0
v -8 -47 0
v -8 -46 0
v -7 -46 0
v -5 -47 0
v -6 -47 0
v -6 -46 0
v -5 -46 0
v -8 -48 0
v -9 -48 0
v -9 -47 0
v -8 -47 0
v -6 -49 0
v -7 -49 0
v -7 -48 0
v -6 -48 0
v -20 -52 0
v -21 -52 0
v -21 -51 0
v -20 -51 0
v -19 -52 0
v -20 -52 0
v -20 -51 0
v -19 -51 0
v -18 -52 0
v -19 -52 0
v -19 -51 0
v -18 -51 0
v -34 -59 0
v -35 -59 0
v -35 -58 0
v -34 -58 0
v -33 -59 0
v -34 -59 0
v -34 -58 0
v -33 -58 0
v -36 -60 0
v -37 -60 0
v -37 -59 0
v -36 -59 0
v -34 -60 0
v -35 -60 0
v -35 -59 0
v -34 -59 0
v -33 -60 0
v -34 -60 0
v -34 -59 0
v -33 -59 0
v -38 -64 0
v -39 -64 0
v -39 -63 0
v -38 -63 0

# Texture cooridinates (Count = 76)
vt 0.1041533 0.9445665
vt 0.1247154 0.9445665
vt 0.1247154 0.9721001
vt 0.1041533 0.9721001
vt 0.08334704 0.9445665
vt 0.1039091 0.9445665
vt 0.1039091 0.9721001
vt 0.08334704 0.9721001
vt 0.1041533 0.9167888
vt 0.1247154 0.9167888
vt 0.1247154 0.9443223
vt 0.1041533 0.9443223
vt 0.08334704 0.9167888
vt 0.1039091 0.9167888
vt 0.1039091 0.9443223
vt 0.08334704 0.9443223
vt 0.1041533 0.8334554
vt 0.1247154 0.8334554
vt 0.1247154 0.860989
vt 0.1041533 0.860989
vt 0.08334704 0.8334554
vt 0.1039091 0.8334554
vt 0.1039091 0.860989
vt 0.08334704 0.860989
vt 0.0625408 0.8334554
vt 0.0831029 0.8334554
vt 0.0831029 0.860989
vt 0.0625408 0.860989
vt 0.0625408 0.5001221
vt 0.0831029 0.5001221
vt 0.0831029 0.5276557
vt 0.0625408 0.5276557
vt 0.02092831 0.5001221
vt 0.04149041 0.5001221
vt 0.04149041 0.5276557
vt 0.02092831 0.5276557
vt 0.04173455 0.5001221
vt 0.06229666 0.5001221
vt 0.06229666 0.5276557
vt 0.04173455 0.5276557
vt 0.02092831 0.4723443
vt 0.04149041 0.4723443
vt 0.04149041 0.4998779
vt 0.02092831 0.4998779
vt 0.04173455 0.5834554
vt 0.06229666 0.5834554
vt 0.06229666 0.610989
vt 0.04173455 0.610989
vt 0.0625408 0.4723443
vt 0.0831029 0.4723443
vt 0.0831029 0.4998779
vt 0.0625408 0.4998779
vt 0.0001220703 0.4445665
vt 0.02068417 0.4445665
vt 0.02068417 0.4721001
vt 0.0001220703 0.4721001
vt 0.02092831 0.4445665
vt 0.04149041 0.4445665
vt 0.04149041 0.4721001
vt 0.02092831 0.4721001
vt 0.04173455 0.4723443
vt 0.06229666 0.4723443
vt 0.06229666 0.4998779
vt 0.04173455 0.4998779
vt 0.1457658 0.9723443
vt 0.1663279 0.9723443
vt 0.1663279 0.9998779
vt 0.1457658 0.9998779
vt 0.1249595 0.9723443
vt 0.1455216 0.9723443
vt 0.1455216 0.9998779
vt 0.1249595 0.9998779
vt 0.1873782 0.9723443
vt 0.2079404 0.9723443
vt 0.2079404 0.9998779
vt 0.1873782 0.9998779

# Normal
vn 0 0 -1

# Mesh description
g RightCityHall_mesh_0003

# Faces
f 1/1/1 2/2/1 3/3/1 4/4/1
f 5/5/1 6/6/1 7/7/1 8/8/1
f 9/9/1 10/10/1 11/11/1 12/12/1
f 13/13/1 14/14/1 15/15/1 16/16/1
f 17/17/1 18/18/1 19/19/1 20/20/1
f 21/21/1 22/22/1 23/23/1 24/24/1
f 25/25/1 26/26/1 27/27/1 28/28/1
f 29/29/1 30/30/1 31/31/1 32/32/1
f 33/33/1 34/34/1 35/35/1 36/36/1
f 37/33/1 38/34/1 39/35/1 40/36/1
f 41/33/1 42/34/1 43/35/1 44/36/1
f 45/33/1 46/34/1 47/35/1 48/36/1
f 49/33/1 50/34/1 51/35/1 52/36/1
f 53/33/1 54/34/1 55/35/1 56/36/1
f 57/33/1 58/34/1 59/35/1 60/36/1
f 61/33/1 62/34/1 63/35/1 64/36/1
f 65/37/1 66/38/1 67/39/1 68/40/1
f 69/41/1 70/42/1 71/43/1 72/44/1
f 73/41/1 74/42/1 75/43/1 76/44/1
f 77/41/1 78/42/1 79/43/1 80/44/1
f 81/41/1 82/42/1 83/43/1 84/44/1
f 85/41/1 86/42/1 87/43/1 88/44/1
f 89/41/1 90/42/1 91/43/1 92/44/1
f 93/41/1 94/42/1 95/43/1 96/44/1
f 97/41/1 98/42/1 99/43/1 100/44/1
f 101/41/1 102/42/1 103/43/1 104/44/1
f 105/41/1 106/42/1 107/43/1 108/44/1
f 109/45/1 110/46/1 111/47/1 112/48/1
f 113/45/1 114/46/1 115/47/1 116/48/1
f 117/45/1 118/46/1 119/47/1 120/48/1
f 121/45/1 122/46/1 123/47/1 124/48/1
f 125/45/1 126/46/1 127/47/1 128/48/1
f 129/49/1 130/50/1 131/51/1 132/52/1
f 133/33/1 134/34/1 135/35/1 136/36/1
f 137/33/1 138/34/1 139/35/1 140/36/1
f 141/53/1 142/54/1 143/55/1 144/56/1
f 145/57/1 146/58/1 147/59/1 148/60/1
f 149/33/1 150/34/1 151/35/1 152/36/1
f 153/33/1 154/34/1 155/35/1 156/36/1
f 157/61/1 158/62/1 159/63/1 160/64/1
f 161/45/1 162/46/1 163/47/1 164/48/1
f 165/1/1 166/2/1 167/3/1 168/4/1
f 169/5/1 170/6/1 171/7/1 172/8/1
f 173/9/1 174/10/1 175/11/1 176/12/1
f 177/13/1 178/14/1 179/15/1 180/16/1
f 181/65/1 182/66/1 183/67/1 184/68/1
f 185/69/1 186/70/1 187/71/1 188/72/1
f 189/69/1 190/70/1 191/71/1 192/72/1
f 193/73/1 194/74/1 195/75/1 196/76/1
f 197/69/1 198/70/1 199/71/1 200/72/1
f 201/65/1 202/66/1 203/67/1 204/68/1
f 205/17/1 206/18/1 207/19/1 208/20/1
f 209/21/1 210/22/1 211/23/1 212/24/1
f 213/25/1 214/26/1 215/27/1 216/28/1
f 217/1/1 218/2/1 219/3/1 220/4/1
f 221/5/1 222/6/1 223/7/1 224/8/1
f 225/65/1 226/66/1 227/67/1 228/68/1
f 229/9/1 230/10/1 231/11/1 232/12/1
f 233/13/1 234/14/1 235/15/1 236/16/1
f 237/65/1 238/66/1 239/67/1 240/68/1

