# Tiled2Unity generated file. Do not modify by hand.
# Wavefront file for 'RightCityHall_mesh_0010.obj'

# Vertices (Count = 96)
v -42 -20 0
v -43 -20 0
v -43 -19 0
v -42 -19 0
v -41 -20 0
v -42 -20 0
v -42 -19 0
v -41 -19 0
v -40 -20 0
v -41 -20 0
v -41 -19 0
v -40 -19 0
v -39 -20 0
v -40 -20 0
v -40 -19 0
v -39 -19 0
v -38 -20 0
v -39 -20 0
v -39 -19 0
v -38 -19 0
v -8 -50 0
v -9 -50 0
v -9 -49 0
v -8 -49 0
v -7 -50 0
v -8 -50 0
v -8 -49 0
v -7 -49 0
v -6 -50 0
v -7 -50 0
v -7 -49 0
v -6 -49 0
v -5 -50 0
v -6 -50 0
v -6 -49 0
v -5 -49 0
v -4 -50 0
v -5 -50 0
v -5 -49 0
v -4 -49 0
v -27 -55 0
v -28 -55 0
v -28 -54 0
v -27 -54 0
v -26 -55 0
v -27 -55 0
v -27 -54 0
v -26 -54 0
v -25 -55 0
v -26 -55 0
v -26 -54 0
v -25 -54 0
v -24 -55 0
v -25 -55 0
v -25 -54 0
v -24 -54 0
v -23 -55 0
v -24 -55 0
v -24 -54 0
v -23 -54 0
v -23 -57 0
v -24 -57 0
v -24 -56 0
v -23 -56 0
v -22 -57 0
v -23 -57 0
v -23 -56 0
v -22 -56 0
v -21 -57 0
v -22 -57 0
v -22 -56 0
v -21 -56 0
v -20 -57 0
v -21 -57 0
v -21 -56 0
v -20 -56 0
v -19 -57 0
v -20 -57 0
v -20 -56 0
v -19 -56 0
v -18 -57 0
v -19 -57 0
v -19 -56 0
v -18 -56 0
v -17 -57 0
v -18 -57 0
v -18 -56 0
v -17 -56 0
v -16 -57 0
v -17 -57 0
v -17 -56 0
v -16 -56 0
v -15 -57 0
v -16 -57 0
v -16 -56 0
v -15 -56 0

# Texture cooridinates (Count = 56)
vt 0.2587427 0.26328
vt 0.27574 0.26328
vt 0.27574 0.2893516
vt 0.2587427 0.2893516
vt 0.2415014 0.26328
vt 0.2584986 0.26328
vt 0.2584986 0.2893516
vt 0.2415014 0.2893516
vt 0.22426 0.26328
vt 0.2412572 0.26328
vt 0.2412572 0.2893516
vt 0.22426 0.2893516
vt 0.2070186 0.26328
vt 0.2240159 0.26328
vt 0.2240159 0.2893516
vt 0.2070186 0.2893516
vt 0.1897772 0.26328
vt 0.2067745 0.26328
vt 0.2067745 0.2893516
vt 0.1897772 0.2893516
vt 0.1552945 0.3948589
vt 0.1722917 0.3948589
vt 0.1722917 0.4209306
vt 0.1552945 0.4209306
vt 0.1380531 0.3948589
vt 0.1550503 0.3948589
vt 0.1550503 0.4209306
vt 0.1380531 0.4209306
vt 0.1208117 0.3948589
vt 0.137809 0.3948589
vt 0.137809 0.4209306
vt 0.1208117 0.4209306
vt 0.1035703 0.3948589
vt 0.1205676 0.3948589
vt 0.1205676 0.4209306
vt 0.1035703 0.4209306
vt 0.08632897 0.3948589
vt 0.1033262 0.3948589
vt 0.1033262 0.4209306
vt 0.08632897 0.4209306
vt 0.06908759 0.3948589
vt 0.08608483 0.3948589
vt 0.08608483 0.4209306
vt 0.06908759 0.4209306
vt 0.05184621 0.3948589
vt 0.06884345 0.3948589
vt 0.06884345 0.4209306
vt 0.05184621 0.4209306
vt 0.03460483 0.3948589
vt 0.05160207 0.3948589
vt 0.05160207 0.4209306
vt 0.03460483 0.4209306
vt 0.01736345 0.3948589
vt 0.03436069 0.3948589
vt 0.03436069 0.4209306
vt 0.01736345 0.4209306

# Normal
vn 0 0 -1

# Mesh description
g RightCityHall_mesh_0010

# Faces
f 1/1/1 2/2/1 3/3/1 4/4/1
f 5/5/1 6/6/1 7/7/1 8/8/1
f 9/9/1 10/10/1 11/11/1 12/12/1
f 13/13/1 14/14/1 15/15/1 16/16/1
f 17/17/1 18/18/1 19/19/1 20/20/1
f 21/1/1 22/2/1 23/3/1 24/4/1
f 25/5/1 26/6/1 27/7/1 28/8/1
f 29/9/1 30/10/1 31/11/1 32/12/1
f 33/13/1 34/14/1 35/15/1 36/16/1
f 37/17/1 38/18/1 39/19/1 40/20/1
f 41/1/1 42/2/1 43/3/1 44/4/1
f 45/5/1 46/6/1 47/7/1 48/8/1
f 49/9/1 50/10/1 51/11/1 52/12/1
f 53/13/1 54/14/1 55/15/1 56/16/1
f 57/17/1 58/18/1 59/19/1 60/20/1
f 61/21/1 62/22/1 63/23/1 64/24/1
f 65/25/1 66/26/1 67/27/1 68/28/1
f 69/29/1 70/30/1 71/31/1 72/32/1
f 73/33/1 74/34/1 75/35/1 76/36/1
f 77/37/1 78/38/1 79/39/1 80/40/1
f 81/41/1 82/42/1 83/43/1 84/44/1
f 85/45/1 86/46/1 87/47/1 88/48/1
f 89/49/1 90/50/1 91/51/1 92/52/1
f 93/53/1 94/54/1 95/55/1 96/56/1

