# Tiled2Unity generated file. Do not modify by hand.
# Wavefront file for 'UpperRightCityHall_mesh_0006.obj'

# Vertices (Count = 224)
v -22 -17 0
v -23 -17 0
v -23 -16 0
v -22 -16 0
v -21 -17 0
v -22 -17 0
v -22 -16 0
v -21 -16 0
v -20 -17 0
v -21 -17 0
v -21 -16 0
v -20 -16 0
v -19 -17 0
v -20 -17 0
v -20 -16 0
v -19 -16 0
v -18 -17 0
v -19 -17 0
v -19 -16 0
v -18 -16 0
v -17 -17 0
v -18 -17 0
v -18 -16 0
v -17 -16 0
v -16 -17 0
v -17 -17 0
v -17 -16 0
v -16 -16 0
v -22 -18 0
v -23 -18 0
v -23 -17 0
v -22 -17 0
v -21 -18 0
v -22 -18 0
v -22 -17 0
v -21 -17 0
v -20 -18 0
v -21 -18 0
v -21 -17 0
v -20 -17 0
v -19 -18 0
v -20 -18 0
v -20 -17 0
v -19 -17 0
v -18 -18 0
v -19 -18 0
v -19 -17 0
v -18 -17 0
v -17 -18 0
v -18 -18 0
v -18 -17 0
v -17 -17 0
v -16 -18 0
v -17 -18 0
v -17 -17 0
v -16 -17 0
v -22 -19 0
v -23 -19 0
v -23 -18 0
v -22 -18 0
v -21 -19 0
v -22 -19 0
v -22 -18 0
v -21 -18 0
v -20 -19 0
v -21 -19 0
v -21 -18 0
v -20 -18 0
v -19 -19 0
v -20 -19 0
v -20 -18 0
v -19 -18 0
v -18 -19 0
v -19 -19 0
v -19 -18 0
v -18 -18 0
v -17 -19 0
v -18 -19 0
v -18 -18 0
v -17 -18 0
v -16 -19 0
v -17 -19 0
v -17 -18 0
v -16 -18 0
v -22 -20 0
v -23 -20 0
v -23 -19 0
v -22 -19 0
v -21 -20 0
v -22 -20 0
v -22 -19 0
v -21 -19 0
v -20 -20 0
v -21 -20 0
v -21 -19 0
v -20 -19 0
v -19 -20 0
v -20 -20 0
v -20 -19 0
v -19 -19 0
v -18 -20 0
v -19 -20 0
v -19 -19 0
v -18 -19 0
v -17 -20 0
v -18 -20 0
v -18 -19 0
v -17 -19 0
v -16 -20 0
v -17 -20 0
v -17 -19 0
v -16 -19 0
v -44 -29 0
v -45 -29 0
v -45 -28 0
v -44 -28 0
v -43 -29 0
v -44 -29 0
v -44 -28 0
v -43 -28 0
v -42 -29 0
v -43 -29 0
v -43 -28 0
v -42 -28 0
v -41 -29 0
v -42 -29 0
v -42 -28 0
v -41 -28 0
v -40 -29 0
v -41 -29 0
v -41 -28 0
v -40 -28 0
v -39 -29 0
v -40 -29 0
v -40 -28 0
v -39 -28 0
v -38 -29 0
v -39 -29 0
v -39 -28 0
v -38 -28 0
v -44 -30 0
v -45 -30 0
v -45 -29 0
v -44 -29 0
v -43 -30 0
v -44 -30 0
v -44 -29 0
v -43 -29 0
v -42 -30 0
v -43 -30 0
v -43 -29 0
v -42 -29 0
v -41 -30 0
v -42 -30 0
v -42 -29 0
v -41 -29 0
v -40 -30 0
v -41 -30 0
v -41 -29 0
v -40 -29 0
v -39 -30 0
v -40 -30 0
v -40 -29 0
v -39 -29 0
v -38 -30 0
v -39 -30 0
v -39 -29 0
v -38 -29 0
v -44 -31 0
v -45 -31 0
v -45 -30 0
v -44 -30 0
v -43 -31 0
v -44 -31 0
v -44 -30 0
v -43 -30 0
v -42 -31 0
v -43 -31 0
v -43 -30 0
v -42 -30 0
v -41 -31 0
v -42 -31 0
v -42 -30 0
v -41 -30 0
v -40 -31 0
v -41 -31 0
v -41 -30 0
v -40 -30 0
v -39 -31 0
v -40 -31 0
v -40 -30 0
v -39 -30 0
v -38 -31 0
v -39 -31 0
v -39 -30 0
v -38 -30 0
v -44 -32 0
v -45 -32 0
v -45 -31 0
v -44 -31 0
v -43 -32 0
v -44 -32 0
v -44 -31 0
v -43 -31 0
v -42 -32 0
v -43 -32 0
v -43 -31 0
v -42 -31 0
v -41 -32 0
v -42 -32 0
v -42 -31 0
v -41 -31 0
v -40 -32 0
v -41 -32 0
v -41 -31 0
v -40 -31 0
v -39 -32 0
v -40 -32 0
v -40 -31 0
v -39 -31 0
v -38 -32 0
v -39 -32 0
v -39 -31 0
v -38 -31 0

# Texture cooridinates (Count = 112)
vt 0.2727525 0.2369642
vt 0.2895478 0.2369642
vt 0.2895478 0.2630358
vt 0.2727525 0.2630358
vt 0.2557131 0.2369642
vt 0.2725084 0.2369642
vt 0.2725084 0.2630358
vt 0.2557131 0.2630358
vt 0.2386737 0.2369642
vt 0.255469 0.2369642
vt 0.255469 0.2630358
vt 0.2386737 0.2630358
vt 0.2216343 0.2369642
vt 0.2384296 0.2369642
vt 0.2384296 0.2630358
vt 0.2216343 0.2630358
vt 0.2045949 0.2369642
vt 0.2213902 0.2369642
vt 0.2213902 0.2630358
vt 0.2045949 0.2630358
vt 0.1875555 0.2369642
vt 0.2043508 0.2369642
vt 0.2043508 0.2630358
vt 0.1875555 0.2630358
vt 0.1705161 0.2369642
vt 0.1873114 0.2369642
vt 0.1873114 0.2630358
vt 0.1705161 0.2630358
vt 0.2727525 0.2106484
vt 0.2895478 0.2106484
vt 0.2895478 0.23672
vt 0.2727525 0.23672
vt 0.2557131 0.2106484
vt 0.2725084 0.2106484
vt 0.2725084 0.23672
vt 0.2557131 0.23672
vt 0.2386737 0.2106484
vt 0.255469 0.2106484
vt 0.255469 0.23672
vt 0.2386737 0.23672
vt 0.2216343 0.2106484
vt 0.2384296 0.2106484
vt 0.2384296 0.23672
vt 0.2216343 0.23672
vt 0.2045949 0.2106484
vt 0.2213902 0.2106484
vt 0.2213902 0.23672
vt 0.2045949 0.23672
vt 0.1875555 0.2106484
vt 0.2043508 0.2106484
vt 0.2043508 0.23672
vt 0.1875555 0.23672
vt 0.1705161 0.2106484
vt 0.1873114 0.2106484
vt 0.1873114 0.23672
vt 0.1705161 0.23672
vt 0.2727525 0.1843326
vt 0.2895478 0.1843326
vt 0.2895478 0.2104042
vt 0.2727525 0.2104042
vt 0.2557131 0.1843326
vt 0.2725084 0.1843326
vt 0.2725084 0.2104042
vt 0.2557131 0.2104042
vt 0.2386737 0.1843326
vt 0.255469 0.1843326
vt 0.255469 0.2104042
vt 0.2386737 0.2104042
vt 0.2216343 0.1843326
vt 0.2384296 0.1843326
vt 0.2384296 0.2104042
vt 0.2216343 0.2104042
vt 0.2045949 0.1843326
vt 0.2213902 0.1843326
vt 0.2213902 0.2104042
vt 0.2045949 0.2104042
vt 0.1875555 0.1843326
vt 0.2043508 0.1843326
vt 0.2043508 0.2104042
vt 0.1875555 0.2104042
vt 0.1705161 0.1843326
vt 0.1873114 0.1843326
vt 0.1873114 0.2104042
vt 0.1705161 0.2104042
vt 0.2727525 0.1580168
vt 0.2895478 0.1580168
vt 0.2895478 0.1840885
vt 0.2727525 0.1840885
vt 0.2557131 0.1580168
vt 0.2725084 0.1580168
vt 0.2725084 0.1840885
vt 0.2557131 0.1840885
vt 0.2386737 0.1580168
vt 0.255469 0.1580168
vt 0.255469 0.1840885
vt 0.2386737 0.1840885
vt 0.2216343 0.1580168
vt 0.2384296 0.1580168
vt 0.2384296 0.1840885
vt 0.2216343 0.1840885
vt 0.2045949 0.1580168
vt 0.2213902 0.1580168
vt 0.2213902 0.1840885
vt 0.2045949 0.1840885
vt 0.1875555 0.1580168
vt 0.2043508 0.1580168
vt 0.2043508 0.1840885
vt 0.1875555 0.1840885
vt 0.1705161 0.1580168
vt 0.1873114 0.1580168
vt 0.1873114 0.1840885
vt 0.1705161 0.1840885

# Normal
vn 0 0 -1

# Mesh description
g UpperRightCityHall_mesh_0006

# Faces
f 1/1/1 2/2/1 3/3/1 4/4/1
f 5/5/1 6/6/1 7/7/1 8/8/1
f 9/9/1 10/10/1 11/11/1 12/12/1
f 13/13/1 14/14/1 15/15/1 16/16/1
f 17/17/1 18/18/1 19/19/1 20/20/1
f 21/21/1 22/22/1 23/23/1 24/24/1
f 25/25/1 26/26/1 27/27/1 28/28/1
f 29/29/1 30/30/1 31/31/1 32/32/1
f 33/33/1 34/34/1 35/35/1 36/36/1
f 37/37/1 38/38/1 39/39/1 40/40/1
f 41/41/1 42/42/1 43/43/1 44/44/1
f 45/45/1 46/46/1 47/47/1 48/48/1
f 49/49/1 50/50/1 51/51/1 52/52/1
f 53/53/1 54/54/1 55/55/1 56/56/1
f 57/57/1 58/58/1 59/59/1 60/60/1
f 61/61/1 62/62/1 63/63/1 64/64/1
f 65/65/1 66/66/1 67/67/1 68/68/1
f 69/69/1 70/70/1 71/71/1 72/72/1
f 73/73/1 74/74/1 75/75/1 76/76/1
f 77/77/1 78/78/1 79/79/1 80/80/1
f 81/81/1 82/82/1 83/83/1 84/84/1
f 85/85/1 86/86/1 87/87/1 88/88/1
f 89/89/1 90/90/1 91/91/1 92/92/1
f 93/93/1 94/94/1 95/95/1 96/96/1
f 97/97/1 98/98/1 99/99/1 100/100/1
f 101/101/1 102/102/1 103/103/1 104/104/1
f 105/105/1 106/106/1 107/107/1 108/108/1
f 109/109/1 110/110/1 111/111/1 112/112/1
f 113/1/1 114/2/1 115/3/1 116/4/1
f 117/5/1 118/6/1 119/7/1 120/8/1
f 121/9/1 122/10/1 123/11/1 124/12/1
f 125/13/1 126/14/1 127/15/1 128/16/1
f 129/17/1 130/18/1 131/19/1 132/20/1
f 133/21/1 134/22/1 135/23/1 136/24/1
f 137/25/1 138/26/1 139/27/1 140/28/1
f 141/29/1 142/30/1 143/31/1 144/32/1
f 145/33/1 146/34/1 147/35/1 148/36/1
f 149/37/1 150/38/1 151/39/1 152/40/1
f 153/41/1 154/42/1 155/43/1 156/44/1
f 157/45/1 158/46/1 159/47/1 160/48/1
f 161/49/1 162/50/1 163/51/1 164/52/1
f 165/53/1 166/54/1 167/55/1 168/56/1
f 169/57/1 170/58/1 171/59/1 172/60/1
f 173/61/1 174/62/1 175/63/1 176/64/1
f 177/65/1 178/66/1 179/67/1 180/68/1
f 181/69/1 182/70/1 183/71/1 184/72/1
f 185/73/1 186/74/1 187/75/1 188/76/1
f 189/77/1 190/78/1 191/79/1 192/80/1
f 193/81/1 194/82/1 195/83/1 196/84/1
f 197/85/1 198/86/1 199/87/1 200/88/1
f 201/89/1 202/90/1 203/91/1 204/92/1
f 205/93/1 206/94/1 207/95/1 208/96/1
f 209/97/1 210/98/1 211/99/1 212/100/1
f 213/101/1 214/102/1 215/103/1 216/104/1
f 217/105/1 218/106/1 219/107/1 220/108/1
f 221/109/1 222/110/1 223/111/1 224/112/1

