# Tiled2Unity generated file. Do not modify by hand.
# Wavefront file for 'UpperRightCityHall_mesh_0009.obj'

# Vertices (Count = 48)
v -21 -16 0
v -22 -16 0
v -22 -15 0
v -21 -15 0
v -20 -16 0
v -21 -16 0
v -21 -15 0
v -20 -15 0
v -19 -16 0
v -20 -16 0
v -20 -15 0
v -19 -15 0
v -18 -16 0
v -19 -16 0
v -19 -15 0
v -18 -15 0
v -17 -16 0
v -18 -16 0
v -18 -15 0
v -17 -15 0
v -16 -16 0
v -17 -16 0
v -17 -15 0
v -16 -15 0
v -43 -28 0
v -44 -28 0
v -44 -27 0
v -43 -27 0
v -42 -28 0
v -43 -28 0
v -43 -27 0
v -42 -27 0
v -41 -28 0
v -42 -28 0
v -42 -27 0
v -41 -27 0
v -40 -28 0
v -41 -28 0
v -41 -27 0
v -40 -27 0
v -39 -28 0
v -40 -28 0
v -40 -27 0
v -39 -27 0
v -38 -28 0
v -39 -28 0
v -39 -27 0
v -38 -27 0

# Texture cooridinates (Count = 24)
vt 0.2557131 0.26328
vt 0.2725084 0.26328
vt 0.2725084 0.2893516
vt 0.2557131 0.2893516
vt 0.2386737 0.26328
vt 0.255469 0.26328
vt 0.255469 0.2893516
vt 0.2386737 0.2893516
vt 0.2216343 0.26328
vt 0.2384296 0.26328
vt 0.2384296 0.2893516
vt 0.2216343 0.2893516
vt 0.2045949 0.26328
vt 0.2213902 0.26328
vt 0.2213902 0.2893516
vt 0.2045949 0.2893516
vt 0.1875555 0.26328
vt 0.2043508 0.26328
vt 0.2043508 0.2893516
vt 0.1875555 0.2893516
vt 0.1705161 0.26328
vt 0.1873114 0.26328
vt 0.1873114 0.2893516
vt 0.1705161 0.2893516

# Normal
vn 0 0 -1

# Mesh description
g UpperRightCityHall_mesh_0009

# Faces
f 1/1/1 2/2/1 3/3/1 4/4/1
f 5/5/1 6/6/1 7/7/1 8/8/1
f 9/9/1 10/10/1 11/11/1 12/12/1
f 13/13/1 14/14/1 15/15/1 16/16/1
f 17/17/1 18/18/1 19/19/1 20/20/1
f 21/21/1 22/22/1 23/23/1 24/24/1
f 25/1/1 26/2/1 27/3/1 28/4/1
f 29/5/1 30/6/1 31/7/1 32/8/1
f 33/9/1 34/10/1 35/11/1 36/12/1
f 37/13/1 38/14/1 39/15/1 40/16/1
f 41/17/1 42/18/1 43/19/1 44/20/1
f 45/21/1 46/22/1 47/23/1 48/24/1

