# Tiled2Unity generated file. Do not modify by hand.
# Wavefront file for 'UpperRightCityHall_mesh_0005.obj'

# Vertices (Count = 668)
v -24 -1 0
v -25 -1 0
v -25 0 0
v -24 0 0
v -23 -1 0
v -24 -1 0
v -24 0 0
v -23 0 0
v -24 -2 0
v -25 -2 0
v -25 -1 0
v -24 -1 0
v -23 -2 0
v -24 -2 0
v -24 -1 0
v -23 -1 0
v -45 -3 0
v -46 -3 0
v -46 -2 0
v -45 -2 0
v -44 -3 0
v -45 -3 0
v -45 -2 0
v -44 -2 0
v -43 -3 0
v -44 -3 0
v -44 -2 0
v -43 -2 0
v -42 -3 0
v -43 -3 0
v -43 -2 0
v -42 -2 0
v -23 -3 0
v -24 -3 0
v -24 -2 0
v -23 -2 0
v -22 -3 0
v -23 -3 0
v -23 -2 0
v -22 -2 0
v -21 -3 0
v -22 -3 0
v -22 -2 0
v -21 -2 0
v -20 -3 0
v -21 -3 0
v -21 -2 0
v -20 -2 0
v -45 -4 0
v -46 -4 0
v -46 -3 0
v -45 -3 0
v -44 -4 0
v -45 -4 0
v -45 -3 0
v -44 -3 0
v -43 -4 0
v -44 -4 0
v -44 -3 0
v -43 -3 0
v -42 -4 0
v -43 -4 0
v -43 -3 0
v -42 -3 0
v -23 -4 0
v -24 -4 0
v -24 -3 0
v -23 -3 0
v -22 -4 0
v -23 -4 0
v -23 -3 0
v -22 -3 0
v -21 -4 0
v -22 -4 0
v -22 -3 0
v -21 -3 0
v -20 -4 0
v -21 -4 0
v -21 -3 0
v -20 -3 0
v -25 -6 0
v -26 -6 0
v -26 -5 0
v -25 -5 0
v -24 -6 0
v -25 -6 0
v -25 -5 0
v -24 -5 0
v -56 -8 0
v -57 -8 0
v -57 -7 0
v -56 -7 0
v -55 -8 0
v -56 -8 0
v -56 -7 0
v -55 -7 0
v -54 -8 0
v -55 -8 0
v -55 -7 0
v -54 -7 0
v -53 -8 0
v -54 -8 0
v -54 -7 0
v -53 -7 0
v -7 -8 0
v -8 -8 0
v -8 -7 0
v -7 -7 0
v -6 -8 0
v -7 -8 0
v -7 -7 0
v -6 -7 0
v -5 -8 0
v -6 -8 0
v -6 -7 0
v -5 -7 0
v -4 -8 0
v -5 -8 0
v -5 -7 0
v -4 -7 0
v -56 -9 0
v -57 -9 0
v -57 -8 0
v -56 -8 0
v -55 -9 0
v -56 -9 0
v -56 -8 0
v -55 -8 0
v -54 -9 0
v -55 -9 0
v -55 -8 0
v -54 -8 0
v -53 -9 0
v -54 -9 0
v -54 -8 0
v -53 -8 0
v -32 -9 0
v -33 -9 0
v -33 -8 0
v -32 -8 0
v -31 -9 0
v -32 -9 0
v -32 -8 0
v -31 -8 0
v -30 -9 0
v -31 -9 0
v -31 -8 0
v -30 -8 0
v -29 -9 0
v -30 -9 0
v -30 -8 0
v -29 -8 0
v -7 -9 0
v -8 -9 0
v -8 -8 0
v -7 -8 0
v -6 -9 0
v -7 -9 0
v -7 -8 0
v -6 -8 0
v -5 -9 0
v -6 -9 0
v -6 -8 0
v -5 -8 0
v -4 -9 0
v -5 -9 0
v -5 -8 0
v -4 -8 0
v -33 -11 0
v -34 -11 0
v -34 -10 0
v -33 -10 0
v -32 -11 0
v -33 -11 0
v -33 -10 0
v -32 -10 0
v -52 -12 0
v -53 -12 0
v -53 -11 0
v -52 -11 0
v -51 -12 0
v -52 -12 0
v -52 -11 0
v -51 -11 0
v -50 -12 0
v -51 -12 0
v -51 -11 0
v -50 -11 0
v -30 -13 0
v -31 -13 0
v -31 -12 0
v -30 -12 0
v -29 -13 0
v -30 -13 0
v -30 -12 0
v -29 -12 0
v -36 -15 0
v -37 -15 0
v -37 -14 0
v -36 -14 0
v -35 -15 0
v -36 -15 0
v -36 -14 0
v -35 -14 0
v -34 -15 0
v -35 -15 0
v -35 -14 0
v -34 -14 0
v -33 -15 0
v -34 -15 0
v -34 -14 0
v -33 -14 0
v -32 -15 0
v -33 -15 0
v -33 -14 0
v -32 -14 0
v -31 -15 0
v -32 -15 0
v -32 -14 0
v -31 -14 0
v -2 -17 0
v -3 -17 0
v -3 -16 0
v -2 -16 0
v -1 -17 0
v -2 -17 0
v -2 -16 0
v -1 -16 0
v -9 -19 0
v -10 -19 0
v -10 -18 0
v -9 -18 0
v -8 -19 0
v -9 -19 0
v -9 -18 0
v -8 -18 0
v -59 -20 0
v -60 -20 0
v -60 -19 0
v -59 -19 0
v -58 -20 0
v -59 -20 0
v -59 -19 0
v -58 -19 0
v -57 -20 0
v -58 -20 0
v -58 -19 0
v -57 -19 0
v -56 -20 0
v -57 -20 0
v -57 -19 0
v -56 -19 0
v -25 -20 0
v -26 -20 0
v -26 -19 0
v -25 -19 0
v -24 -20 0
v -25 -20 0
v -25 -19 0
v -24 -19 0
v -6 -20 0
v -7 -20 0
v -7 -19 0
v -6 -19 0
v -5 -20 0
v -6 -20 0
v -6 -19 0
v -5 -19 0
v -4 -20 0
v -5 -20 0
v -5 -19 0
v -4 -19 0
v -3 -20 0
v -4 -20 0
v -4 -19 0
v -3 -19 0
v -1 -22 0
v -2 -22 0
v -2 -21 0
v -1 -21 0
v 0 -22 0
v -1 -22 0
v -1 -21 0
v 0 -21 0
v -27 -23 0
v -28 -23 0
v -28 -22 0
v -27 -22 0
v -26 -23 0
v -27 -23 0
v -27 -22 0
v -26 -22 0
v -25 -23 0
v -26 -23 0
v -26 -22 0
v -25 -22 0
v -24 -23 0
v -25 -23 0
v -25 -22 0
v -24 -22 0
v -14 -23 0
v -15 -23 0
v -15 -22 0
v -14 -22 0
v -13 -23 0
v -14 -23 0
v -14 -22 0
v -13 -22 0
v -10 -23 0
v -11 -23 0
v -11 -22 0
v -10 -22 0
v -9 -23 0
v -10 -23 0
v -10 -22 0
v -9 -22 0
v -8 -23 0
v -9 -23 0
v -9 -22 0
v -8 -22 0
v -7 -23 0
v -8 -23 0
v -8 -22 0
v -7 -22 0
v -5 -23 0
v -6 -23 0
v -6 -22 0
v -5 -22 0
v -4 -23 0
v -5 -23 0
v -5 -22 0
v -4 -22 0
v -3 -23 0
v -4 -23 0
v -4 -22 0
v -3 -22 0
v -2 -23 0
v -3 -23 0
v -3 -22 0
v -2 -22 0
v -1 -23 0
v -2 -23 0
v -2 -22 0
v -1 -22 0
v 0 -23 0
v -1 -23 0
v -1 -22 0
v 0 -22 0
v -18 -24 0
v -19 -24 0
v -19 -23 0
v -18 -23 0
v -17 -24 0
v -18 -24 0
v -18 -23 0
v -17 -23 0
v -5 -24 0
v -6 -24 0
v -6 -23 0
v -5 -23 0
v -4 -24 0
v -5 -24 0
v -5 -23 0
v -4 -23 0
v -3 -24 0
v -4 -24 0
v -4 -23 0
v -3 -23 0
v -2 -24 0
v -3 -24 0
v -3 -23 0
v -2 -23 0
v -11 -25 0
v -12 -25 0
v -12 -24 0
v -11 -24 0
v -10 -25 0
v -11 -25 0
v -11 -24 0
v -10 -24 0
v -16 -26 0
v -17 -26 0
v -17 -25 0
v -16 -25 0
v -15 -26 0
v -16 -26 0
v -16 -25 0
v -15 -25 0
v -14 -26 0
v -15 -26 0
v -15 -25 0
v -14 -25 0
v -13 -26 0
v -14 -26 0
v -14 -25 0
v -13 -25 0
v -7 -27 0
v -8 -27 0
v -8 -26 0
v -7 -26 0
v -6 -27 0
v -7 -27 0
v -7 -26 0
v -6 -26 0
v -5 -27 0
v -6 -27 0
v -6 -26 0
v -5 -26 0
v -4 -27 0
v -5 -27 0
v -5 -26 0
v -4 -26 0
v -3 -27 0
v -4 -27 0
v -4 -26 0
v -3 -26 0
v -17 -28 0
v -18 -28 0
v -18 -27 0
v -17 -27 0
v -16 -28 0
v -17 -28 0
v -17 -27 0
v -16 -27 0
v -9 -28 0
v -10 -28 0
v -10 -27 0
v -9 -27 0
v -8 -28 0
v -9 -28 0
v -9 -27 0
v -8 -27 0
v -7 -30 0
v -8 -30 0
v -8 -29 0
v -7 -29 0
v -6 -30 0
v -7 -30 0
v -7 -29 0
v -6 -29 0
v -4 -30 0
v -5 -30 0
v -5 -29 0
v -4 -29 0
v -3 -30 0
v -4 -30 0
v -4 -29 0
v -3 -29 0
v -14 -32 0
v -15 -32 0
v -15 -31 0
v -14 -31 0
v -13 -32 0
v -14 -32 0
v -14 -31 0
v -13 -31 0
v -12 -32 0
v -13 -32 0
v -13 -31 0
v -12 -31 0
v -11 -32 0
v -12 -32 0
v -12 -31 0
v -11 -31 0
v -10 -32 0
v -11 -32 0
v -11 -31 0
v -10 -31 0
v -9 -32 0
v -10 -32 0
v -10 -31 0
v -9 -31 0
v -8 -32 0
v -9 -32 0
v -9 -31 0
v -8 -31 0
v -7 -32 0
v -8 -32 0
v -8 -31 0
v -7 -31 0
v -49 -34 0
v -50 -34 0
v -50 -33 0
v -49 -33 0
v -48 -34 0
v -49 -34 0
v -49 -33 0
v -48 -33 0
v -47 -34 0
v -48 -34 0
v -48 -33 0
v -47 -33 0
v -46 -34 0
v -47 -34 0
v -47 -33 0
v -46 -33 0
v -56 -35 0
v -57 -35 0
v -57 -34 0
v -56 -34 0
v -55 -35 0
v -56 -35 0
v -56 -34 0
v -55 -34 0
v -55 -38 0
v -56 -38 0
v -56 -37 0
v -55 -37 0
v -54 -38 0
v -55 -38 0
v -55 -37 0
v -54 -37 0
v -21 -38 0
v -22 -38 0
v -22 -37 0
v -21 -37 0
v -20 -38 0
v -21 -38 0
v -21 -37 0
v -20 -37 0
v -19 -38 0
v -20 -38 0
v -20 -37 0
v -19 -37 0
v -18 -38 0
v -19 -38 0
v -19 -37 0
v -18 -37 0
v -53 -39 0
v -54 -39 0
v -54 -38 0
v -53 -38 0
v -52 -39 0
v -53 -39 0
v -53 -38 0
v -52 -38 0
v -51 -39 0
v -52 -39 0
v -52 -38 0
v -51 -38 0
v -50 -39 0
v -51 -39 0
v -51 -38 0
v -50 -38 0
v -22 -40 0
v -23 -40 0
v -23 -39 0
v -22 -39 0
v -21 -40 0
v -22 -40 0
v -22 -39 0
v -21 -39 0
v -4 -41 0
v -5 -41 0
v -5 -40 0
v -4 -40 0
v -3 -41 0
v -4 -41 0
v -4 -40 0
v -3 -40 0
v -26 -42 0
v -27 -42 0
v -27 -41 0
v -26 -41 0
v -25 -42 0
v -26 -42 0
v -26 -41 0
v -25 -41 0
v -24 -42 0
v -25 -42 0
v -25 -41 0
v -24 -41 0
v -23 -42 0
v -24 -42 0
v -24 -41 0
v -23 -41 0
v -13 -42 0
v -14 -42 0
v -14 -41 0
v -13 -41 0
v -12 -42 0
v -13 -42 0
v -13 -41 0
v -12 -41 0
v -54 -43 0
v -55 -43 0
v -55 -42 0
v -54 -42 0
v -53 -43 0
v -54 -43 0
v -54 -42 0
v -53 -42 0
v -56 -44 0
v -57 -44 0
v -57 -43 0
v -56 -43 0
v -55 -44 0
v -56 -44 0
v -56 -43 0
v -55 -43 0
v -52 -45 0
v -53 -45 0
v -53 -44 0
v -52 -44 0
v -51 -45 0
v -52 -45 0
v -52 -44 0
v -51 -44 0
v -23 -45 0
v -24 -45 0
v -24 -44 0
v -23 -44 0
v -22 -45 0
v -23 -45 0
v -23 -44 0
v -22 -44 0
v -21 -45 0
v -22 -45 0
v -22 -44 0
v -21 -44 0
v -20 -46 0
v -21 -46 0
v -21 -45 0
v -20 -45 0
v -19 -46 0
v -20 -46 0
v -20 -45 0
v -19 -45 0
v -57 -47 0
v -58 -47 0
v -58 -46 0
v -57 -46 0
v -56 -47 0
v -57 -47 0
v -57 -46 0
v -56 -46 0
v -55 -47 0
v -56 -47 0
v -56 -46 0
v -55 -46 0
v -54 -47 0
v -55 -47 0
v -55 -46 0
v -54 -46 0
v -23 -47 0
v -24 -47 0
v -24 -46 0
v -23 -46 0
v -22 -47 0
v -23 -47 0
v -23 -46 0
v -22 -46 0
v -54 -49 0
v -55 -49 0
v -55 -48 0
v -54 -48 0
v -53 -49 0
v -54 -49 0
v -54 -48 0
v -53 -48 0
v -52 -49 0
v -53 -49 0
v -53 -48 0
v -52 -48 0
v -51 -49 0
v -52 -49 0
v -52 -48 0
v -51 -48 0

# Texture cooridinates (Count = 48)
vt 0.1249595 0.5278999
vt 0.1455216 0.5278999
vt 0.1455216 0.5554335
vt 0.1249595 0.5554335
vt 0.1041533 0.5278999
vt 0.1247154 0.5278999
vt 0.1247154 0.5554335
vt 0.1041533 0.5554335
vt 0.1249595 0.5001221
vt 0.1455216 0.5001221
vt 0.1455216 0.5276557
vt 0.1249595 0.5276557
vt 0.1041533 0.5001221
vt 0.1247154 0.5001221
vt 0.1247154 0.5276557
vt 0.1041533 0.5276557
vt 0.0625408 0.02789986
vt 0.0831029 0.02789986
vt 0.0831029 0.05543351
vt 0.0625408 0.05543351
vt 0.04173455 0.02789986
vt 0.06229666 0.02789986
vt 0.06229666 0.05543351
vt 0.04173455 0.05543351
vt 0.02092831 0.02789986
vt 0.04149041 0.02789986
vt 0.04149041 0.05543351
vt 0.02092831 0.05543351
vt 0.0001220703 0.02789986
vt 0.02068417 0.02789986
vt 0.02068417 0.05543351
vt 0.0001220703 0.05543351
vt 0.0625408 0.0001220703
vt 0.0831029 0.0001220703
vt 0.0831029 0.02765572
vt 0.0625408 0.02765572
vt 0.04173455 0.0001220703
vt 0.06229666 0.0001220703
vt 0.06229666 0.02765572
vt 0.04173455 0.02765572
vt 0.02092831 0.0001220703
vt 0.04149041 0.0001220703
vt 0.04149041 0.02765572
vt 0.02092831 0.02765572
vt 0.0001220703 0.0001220703
vt 0.02068417 0.0001220703
vt 0.02068417 0.02765572
vt 0.0001220703 0.02765572

# Normal
vn 0 0 -1

# Mesh description
g UpperRightCityHall_mesh_0005

# Faces
f 1/1/1 2/2/1 3/3/1 4/4/1
f 5/5/1 6/6/1 7/7/1 8/8/1
f 9/9/1 10/10/1 11/11/1 12/12/1
f 13/13/1 14/14/1 15/15/1 16/16/1
f 17/17/1 18/18/1 19/19/1 20/20/1
f 21/21/1 22/22/1 23/23/1 24/24/1
f 25/25/1 26/26/1 27/27/1 28/28/1
f 29/29/1 30/30/1 31/31/1 32/32/1
f 33/17/1 34/18/1 35/19/1 36/20/1
f 37/21/1 38/22/1 39/23/1 40/24/1
f 41/25/1 42/26/1 43/27/1 44/28/1
f 45/29/1 46/30/1 47/31/1 48/32/1
f 49/33/1 50/34/1 51/35/1 52/36/1
f 53/37/1 54/38/1 55/39/1 56/40/1
f 57/41/1 58/42/1 59/43/1 60/44/1
f 61/45/1 62/46/1 63/47/1 64/48/1
f 65/33/1 66/34/1 67/35/1 68/36/1
f 69/37/1 70/38/1 71/39/1 72/40/1
f 73/41/1 74/42/1 75/43/1 76/44/1
f 77/45/1 78/46/1 79/47/1 80/48/1
f 81/9/1 82/10/1 83/11/1 84/12/1
f 85/13/1 86/14/1 87/15/1 88/16/1
f 89/17/1 90/18/1 91/19/1 92/20/1
f 93/21/1 94/22/1 95/23/1 96/24/1
f 97/25/1 98/26/1 99/27/1 100/28/1
f 101/29/1 102/30/1 103/31/1 104/32/1
f 105/17/1 106/18/1 107/19/1 108/20/1
f 109/21/1 110/22/1 111/23/1 112/24/1
f 113/25/1 114/26/1 115/27/1 116/28/1
f 117/29/1 118/30/1 119/31/1 120/32/1
f 121/33/1 122/34/1 123/35/1 124/36/1
f 125/37/1 126/38/1 127/39/1 128/40/1
f 129/41/1 130/42/1 131/43/1 132/44/1
f 133/45/1 134/46/1 135/47/1 136/48/1
f 137/33/1 138/34/1 139/35/1 140/36/1
f 141/37/1 142/38/1 143/39/1 144/40/1
f 145/41/1 146/42/1 147/43/1 148/44/1
f 149/45/1 150/46/1 151/47/1 152/48/1
f 153/33/1 154/34/1 155/35/1 156/36/1
f 157/37/1 158/38/1 159/39/1 160/40/1
f 161/41/1 162/42/1 163/43/1 164/44/1
f 165/45/1 166/46/1 167/47/1 168/48/1
f 169/9/1 170/10/1 171/11/1 172/12/1
f 173/13/1 174/14/1 175/15/1 176/16/1
f 177/33/1 178/34/1 179/35/1 180/36/1
f 181/37/1 182/38/1 183/39/1 184/40/1
f 185/41/1 186/42/1 187/43/1 188/44/1
f 189/9/1 190/10/1 191/11/1 192/12/1
f 193/13/1 194/14/1 195/15/1 196/16/1
f 197/9/1 198/10/1 199/11/1 200/12/1
f 201/13/1 202/14/1 203/15/1 204/16/1
f 205/33/1 206/34/1 207/35/1 208/36/1
f 209/37/1 210/38/1 211/39/1 212/40/1
f 213/41/1 214/42/1 215/43/1 216/44/1
f 217/45/1 218/46/1 219/47/1 220/48/1
f 221/9/1 222/10/1 223/11/1 224/12/1
f 225/13/1 226/14/1 227/15/1 228/16/1
f 229/9/1 230/10/1 231/11/1 232/12/1
f 233/13/1 234/14/1 235/15/1 236/16/1
f 237/33/1 238/34/1 239/35/1 240/36/1
f 241/37/1 242/38/1 243/39/1 244/40/1
f 245/41/1 246/42/1 247/43/1 248/44/1
f 249/45/1 250/46/1 251/47/1 252/48/1
f 253/9/1 254/10/1 255/11/1 256/12/1
f 257/13/1 258/14/1 259/15/1 260/16/1
f 261/33/1 262/34/1 263/35/1 264/36/1
f 265/37/1 266/38/1 267/39/1 268/40/1
f 269/41/1 270/42/1 271/43/1 272/44/1
f 273/45/1 274/46/1 275/47/1 276/48/1
f 277/1/1 278/2/1 279/3/1 280/4/1
f 281/5/1 282/6/1 283/7/1 284/8/1
f 285/33/1 286/34/1 287/35/1 288/36/1
f 289/37/1 290/38/1 291/39/1 292/40/1
f 293/41/1 294/42/1 295/43/1 296/44/1
f 297/45/1 298/46/1 299/47/1 300/48/1
f 301/9/1 302/10/1 303/11/1 304/12/1
f 305/13/1 306/14/1 307/15/1 308/16/1
f 309/33/1 310/34/1 311/35/1 312/36/1
f 313/37/1 314/38/1 315/39/1 316/40/1
f 317/41/1 318/42/1 319/43/1 320/44/1
f 321/45/1 322/46/1 323/47/1 324/48/1
f 325/17/1 326/18/1 327/19/1 328/20/1
f 329/21/1 330/22/1 331/23/1 332/24/1
f 333/25/1 334/26/1 335/27/1 336/28/1
f 337/29/1 338/30/1 339/31/1 340/32/1
f 341/9/1 342/10/1 343/11/1 344/12/1
f 345/13/1 346/14/1 347/15/1 348/16/1
f 349/9/1 350/10/1 351/11/1 352/12/1
f 353/13/1 354/14/1 355/15/1 356/16/1
f 357/33/1 358/34/1 359/35/1 360/36/1
f 361/37/1 362/38/1 363/39/1 364/40/1
f 365/41/1 366/42/1 367/43/1 368/44/1
f 369/45/1 370/46/1 371/47/1 372/48/1
f 373/9/1 374/10/1 375/11/1 376/12/1
f 377/13/1 378/14/1 379/15/1 380/16/1
f 381/33/1 382/34/1 383/35/1 384/36/1
f 385/37/1 386/38/1 387/39/1 388/40/1
f 389/41/1 390/42/1 391/43/1 392/44/1
f 393/45/1 394/46/1 395/47/1 396/48/1
f 397/37/1 398/38/1 399/39/1 400/40/1
f 401/41/1 402/42/1 403/43/1 404/44/1
f 405/45/1 406/46/1 407/47/1 408/48/1
f 409/9/1 410/10/1 411/11/1 412/12/1
f 413/13/1 414/14/1 415/15/1 416/16/1
f 417/9/1 418/10/1 419/11/1 420/12/1
f 421/13/1 422/14/1 423/15/1 424/16/1
f 425/9/1 426/10/1 427/11/1 428/12/1
f 429/13/1 430/14/1 431/15/1 432/16/1
f 433/9/1 434/10/1 435/11/1 436/12/1
f 437/13/1 438/14/1 439/15/1 440/16/1
f 441/9/1 442/10/1 443/11/1 444/12/1
f 445/13/1 446/14/1 447/15/1 448/16/1
f 449/33/1 450/34/1 451/35/1 452/36/1
f 453/37/1 454/38/1 455/39/1 456/40/1
f 457/41/1 458/42/1 459/43/1 460/44/1
f 461/45/1 462/46/1 463/47/1 464/48/1
f 465/33/1 466/34/1 467/35/1 468/36/1
f 469/37/1 470/38/1 471/39/1 472/40/1
f 473/41/1 474/42/1 475/43/1 476/44/1
f 477/45/1 478/46/1 479/47/1 480/48/1
f 481/33/1 482/34/1 483/35/1 484/36/1
f 485/37/1 486/38/1 487/39/1 488/40/1
f 489/41/1 490/42/1 491/43/1 492/44/1
f 493/45/1 494/46/1 495/47/1 496/48/1
f 497/9/1 498/10/1 499/11/1 500/12/1
f 501/13/1 502/14/1 503/15/1 504/16/1
f 505/9/1 506/10/1 507/11/1 508/12/1
f 509/13/1 510/14/1 511/15/1 512/16/1
f 513/33/1 514/34/1 515/35/1 516/36/1
f 517/37/1 518/38/1 519/39/1 520/40/1
f 521/41/1 522/42/1 523/43/1 524/44/1
f 525/45/1 526/46/1 527/47/1 528/48/1
f 529/33/1 530/34/1 531/35/1 532/36/1
f 533/37/1 534/38/1 535/39/1 536/40/1
f 537/41/1 538/42/1 539/43/1 540/44/1
f 541/45/1 542/46/1 543/47/1 544/48/1
f 545/9/1 546/10/1 547/11/1 548/12/1
f 549/13/1 550/14/1 551/15/1 552/16/1
f 553/9/1 554/10/1 555/11/1 556/12/1
f 557/13/1 558/14/1 559/15/1 560/16/1
f 561/33/1 562/34/1 563/35/1 564/36/1
f 565/37/1 566/38/1 567/39/1 568/40/1
f 569/41/1 570/42/1 571/43/1 572/44/1
f 573/45/1 574/46/1 575/47/1 576/48/1
f 577/9/1 578/10/1 579/11/1 580/12/1
f 581/13/1 582/14/1 583/15/1 584/16/1
f 585/9/1 586/10/1 587/11/1 588/12/1
f 589/13/1 590/14/1 591/15/1 592/16/1
f 593/9/1 594/10/1 595/11/1 596/12/1
f 597/13/1 598/14/1 599/15/1 600/16/1
f 601/9/1 602/10/1 603/11/1 604/12/1
f 605/13/1 606/14/1 607/15/1 608/16/1
f 609/33/1 610/34/1 611/35/1 612/36/1
f 613/37/1 614/38/1 615/39/1 616/40/1
f 617/41/1 618/42/1 619/43/1 620/44/1
f 621/9/1 622/10/1 623/11/1 624/12/1
f 625/13/1 626/14/1 627/15/1 628/16/1
f 629/33/1 630/34/1 631/35/1 632/36/1
f 633/37/1 634/38/1 635/39/1 636/40/1
f 637/41/1 638/42/1 639/43/1 640/44/1
f 641/45/1 642/46/1 643/47/1 644/48/1
f 645/9/1 646/10/1 647/11/1 648/12/1
f 649/13/1 650/14/1 651/15/1 652/16/1
f 653/33/1 654/34/1 655/35/1 656/36/1
f 657/37/1 658/38/1 659/39/1 660/40/1
f 661/41/1 662/42/1 663/43/1 664/44/1
f 665/45/1 666/46/1 667/47/1 668/48/1

