# Tiled2Unity generated file. Do not modify by hand.
# Wavefront file for 'UpperRightCityHall_mesh_0003.obj'

# Vertices (Count = 264)
v -17 -41 0
v -18 -41 0
v -18 -40 0
v -17 -40 0
v -18 -42 0
v -19 -42 0
v -19 -41 0
v -18 -41 0
v -17 -42 0
v -18 -42 0
v -18 -41 0
v -17 -41 0
v -16 -42 0
v -17 -42 0
v -17 -41 0
v -16 -41 0
v -3 -42 0
v -4 -42 0
v -4 -41 0
v -3 -41 0
v -18 -43 0
v -19 -43 0
v -19 -42 0
v -18 -42 0
v -17 -43 0
v -18 -43 0
v -18 -42 0
v -17 -42 0
v -16 -43 0
v -17 -43 0
v -17 -42 0
v -16 -42 0
v -15 -43 0
v -16 -43 0
v -16 -42 0
v -15 -42 0
v -4 -43 0
v -5 -43 0
v -5 -42 0
v -4 -42 0
v -3 -43 0
v -4 -43 0
v -4 -42 0
v -3 -42 0
v -18 -44 0
v -19 -44 0
v -19 -43 0
v -18 -43 0
v -17 -44 0
v -18 -44 0
v -18 -43 0
v -17 -43 0
v -16 -44 0
v -17 -44 0
v -17 -43 0
v -16 -43 0
v -15 -44 0
v -16 -44 0
v -16 -43 0
v -15 -43 0
v -14 -44 0
v -15 -44 0
v -15 -43 0
v -14 -43 0
v -13 -44 0
v -14 -44 0
v -14 -43 0
v -13 -43 0
v -12 -44 0
v -13 -44 0
v -13 -43 0
v -12 -43 0
v -11 -44 0
v -12 -44 0
v -12 -43 0
v -11 -43 0
v -10 -44 0
v -11 -44 0
v -11 -43 0
v -10 -43 0
v -9 -44 0
v -10 -44 0
v -10 -43 0
v -9 -43 0
v -8 -44 0
v -9 -44 0
v -9 -43 0
v -8 -43 0
v -7 -44 0
v -8 -44 0
v -8 -43 0
v -7 -43 0
v -6 -44 0
v -7 -44 0
v -7 -43 0
v -6 -43 0
v -5 -44 0
v -6 -44 0
v -6 -43 0
v -5 -43 0
v -4 -44 0
v -5 -44 0
v -5 -43 0
v -4 -43 0
v -3 -44 0
v -4 -44 0
v -4 -43 0
v -3 -43 0
v -17 -45 0
v -18 -45 0
v -18 -44 0
v -17 -44 0
v -16 -45 0
v -17 -45 0
v -17 -44 0
v -16 -44 0
v -15 -45 0
v -16 -45 0
v -16 -44 0
v -15 -44 0
v -14 -45 0
v -15 -45 0
v -15 -44 0
v -14 -44 0
v -13 -45 0
v -14 -45 0
v -14 -44 0
v -13 -44 0
v -12 -45 0
v -13 -45 0
v -13 -44 0
v -12 -44 0
v -11 -45 0
v -12 -45 0
v -12 -44 0
v -11 -44 0
v -10 -45 0
v -11 -45 0
v -11 -44 0
v -10 -44 0
v -9 -45 0
v -10 -45 0
v -10 -44 0
v -9 -44 0
v -8 -45 0
v -9 -45 0
v -9 -44 0
v -8 -44 0
v -7 -45 0
v -8 -45 0
v -8 -44 0
v -7 -44 0
v -6 -45 0
v -7 -45 0
v -7 -44 0
v -6 -44 0
v -5 -45 0
v -6 -45 0
v -6 -44 0
v -5 -44 0
v -4 -45 0
v -5 -45 0
v -5 -44 0
v -4 -44 0
v -3 -45 0
v -4 -45 0
v -4 -44 0
v -3 -44 0
v -16 -46 0
v -17 -46 0
v -17 -45 0
v -16 -45 0
v -15 -46 0
v -16 -46 0
v -16 -45 0
v -15 -45 0
v -14 -46 0
v -15 -46 0
v -15 -45 0
v -14 -45 0
v -13 -46 0
v -14 -46 0
v -14 -45 0
v -13 -45 0
v -12 -46 0
v -13 -46 0
v -13 -45 0
v -12 -45 0
v -11 -46 0
v -12 -46 0
v -12 -45 0
v -11 -45 0
v -10 -46 0
v -11 -46 0
v -11 -45 0
v -10 -45 0
v -9 -46 0
v -10 -46 0
v -10 -45 0
v -9 -45 0
v -8 -46 0
v -9 -46 0
v -9 -45 0
v -8 -45 0
v -7 -46 0
v -8 -46 0
v -8 -45 0
v -7 -45 0
v -6 -46 0
v -7 -46 0
v -7 -45 0
v -6 -45 0
v -5 -46 0
v -6 -46 0
v -6 -45 0
v -5 -45 0
v -4 -46 0
v -5 -46 0
v -5 -45 0
v -4 -45 0
v -15 -47 0
v -16 -47 0
v -16 -46 0
v -15 -46 0
v -14 -47 0
v -15 -47 0
v -15 -46 0
v -14 -46 0
v -13 -47 0
v -14 -47 0
v -14 -46 0
v -13 -46 0
v -12 -47 0
v -13 -47 0
v -13 -46 0
v -12 -46 0
v -11 -47 0
v -12 -47 0
v -12 -46 0
v -11 -46 0
v -10 -47 0
v -11 -47 0
v -11 -46 0
v -10 -46 0
v -9 -47 0
v -10 -47 0
v -10 -46 0
v -9 -46 0
v -8 -47 0
v -9 -47 0
v -9 -46 0
v -8 -46 0
v -7 -47 0
v -8 -47 0
v -8 -46 0
v -7 -46 0
v -6 -47 0
v -7 -47 0
v -7 -46 0
v -6 -46 0
v -5 -47 0
v -6 -47 0
v -6 -46 0
v -5 -46 0

# Texture cooridinates (Count = 60)
vt 0.1249595 0.6667887
vt 0.1455216 0.6667887
vt 0.1455216 0.6943223
vt 0.1249595 0.6943223
vt 0.1457658 0.6112332
vt 0.1663279 0.6112332
vt 0.1663279 0.6387668
vt 0.1457658 0.6387668
vt 0.1249595 0.6112332
vt 0.1455216 0.6112332
vt 0.1455216 0.6387668
vt 0.1249595 0.6387668
vt 0.08334704 0.6667887
vt 0.1039091 0.6667887
vt 0.1039091 0.6943223
vt 0.08334704 0.6943223
vt 0.1457658 0.5834554
vt 0.1663279 0.5834554
vt 0.1663279 0.610989
vt 0.1457658 0.610989
vt 0.1249595 0.5834554
vt 0.1455216 0.5834554
vt 0.1455216 0.610989
vt 0.1249595 0.610989
vt 0.08334704 0.6112332
vt 0.1039091 0.6112332
vt 0.1039091 0.6387668
vt 0.08334704 0.6387668
vt 0.1457658 0.5556777
vt 0.1663279 0.5556777
vt 0.1663279 0.5832113
vt 0.1457658 0.5832113
vt 0.1041533 0.6667887
vt 0.1247154 0.6667887
vt 0.1247154 0.6943223
vt 0.1041533 0.6943223
vt 0.08334704 0.5834554
vt 0.1039091 0.5834554
vt 0.1039091 0.610989
vt 0.08334704 0.610989
vt 0.1041533 0.6112332
vt 0.1247154 0.6112332
vt 0.1247154 0.6387668
vt 0.1041533 0.6387668
vt 0.08334704 0.5556777
vt 0.1039091 0.5556777
vt 0.1039091 0.5832113
vt 0.08334704 0.5832113
vt 0.1041533 0.5834554
vt 0.1247154 0.5834554
vt 0.1247154 0.610989
vt 0.1041533 0.610989
vt 0.1249595 0.5556777
vt 0.1455216 0.5556777
vt 0.1455216 0.5832113
vt 0.1249595 0.5832113
vt 0.1041533 0.5556777
vt 0.1247154 0.5556777
vt 0.1247154 0.5832113
vt 0.1041533 0.5832113

# Normal
vn 0 0 -1

# Mesh description
g UpperRightCityHall_mesh_0003

# Faces
f 1/1/1 2/2/1 3/3/1 4/4/1
f 5/5/1 6/6/1 7/7/1 8/8/1
f 9/9/1 10/10/1 11/11/1 12/12/1
f 13/1/1 14/2/1 15/3/1 16/4/1
f 17/13/1 18/14/1 19/15/1 20/16/1
f 21/17/1 22/18/1 23/19/1 24/20/1
f 25/21/1 26/22/1 27/23/1 28/24/1
f 29/9/1 30/10/1 31/11/1 32/12/1
f 33/1/1 34/2/1 35/3/1 36/4/1
f 37/13/1 38/14/1 39/15/1 40/16/1
f 41/25/1 42/26/1 43/27/1 44/28/1
f 45/29/1 46/30/1 47/31/1 48/32/1
f 49/17/1 50/18/1 51/19/1 52/20/1
f 53/21/1 54/22/1 55/23/1 56/24/1
f 57/9/1 58/10/1 59/11/1 60/12/1
f 61/1/1 62/2/1 63/3/1 64/4/1
f 65/33/1 66/34/1 67/35/1 68/36/1
f 69/33/1 70/34/1 71/35/1 72/36/1
f 73/33/1 74/34/1 75/35/1 76/36/1
f 77/33/1 78/34/1 79/35/1 80/36/1
f 81/33/1 82/34/1 83/35/1 84/36/1
f 85/33/1 86/34/1 87/35/1 88/36/1
f 89/33/1 90/34/1 91/35/1 92/36/1
f 93/33/1 94/34/1 95/35/1 96/36/1
f 97/13/1 98/14/1 99/15/1 100/16/1
f 101/25/1 102/26/1 103/27/1 104/28/1
f 105/37/1 106/38/1 107/39/1 108/40/1
f 109/29/1 110/30/1 111/31/1 112/32/1
f 113/17/1 114/18/1 115/19/1 116/20/1
f 117/21/1 118/22/1 119/23/1 120/24/1
f 121/9/1 122/10/1 123/11/1 124/12/1
f 125/41/1 126/42/1 127/43/1 128/44/1
f 129/41/1 130/42/1 131/43/1 132/44/1
f 133/41/1 134/42/1 135/43/1 136/44/1
f 137/41/1 138/42/1 139/43/1 140/44/1
f 141/41/1 142/42/1 143/43/1 144/44/1
f 145/41/1 146/42/1 147/43/1 148/44/1
f 149/41/1 150/42/1 151/43/1 152/44/1
f 153/41/1 154/42/1 155/43/1 156/44/1
f 157/25/1 158/26/1 159/27/1 160/28/1
f 161/37/1 162/38/1 163/39/1 164/40/1
f 165/45/1 166/46/1 167/47/1 168/48/1
f 169/29/1 170/30/1 171/31/1 172/32/1
f 173/17/1 174/18/1 175/19/1 176/20/1
f 177/21/1 178/22/1 179/23/1 180/24/1
f 181/49/1 182/50/1 183/51/1 184/52/1
f 185/49/1 186/50/1 187/51/1 188/52/1
f 189/49/1 190/50/1 191/51/1 192/52/1
f 193/49/1 194/50/1 195/51/1 196/52/1
f 197/49/1 198/50/1 199/51/1 200/52/1
f 201/49/1 202/50/1 203/51/1 204/52/1
f 205/49/1 206/50/1 207/51/1 208/52/1
f 209/49/1 210/50/1 211/51/1 212/52/1
f 213/37/1 214/38/1 215/39/1 216/40/1
f 217/45/1 218/46/1 219/47/1 220/48/1
f 221/29/1 222/30/1 223/31/1 224/32/1
f 225/53/1 226/54/1 227/55/1 228/56/1
f 229/57/1 230/58/1 231/59/1 232/60/1
f 233/57/1 234/58/1 235/59/1 236/60/1
f 237/57/1 238/58/1 239/59/1 240/60/1
f 241/57/1 242/58/1 243/59/1 244/60/1
f 245/57/1 246/58/1 247/59/1 248/60/1
f 249/57/1 250/58/1 251/59/1 252/60/1
f 253/57/1 254/58/1 255/59/1 256/60/1
f 257/57/1 258/58/1 259/59/1 260/60/1
f 261/45/1 262/46/1 263/47/1 264/48/1

