# Tiled2Unity generated file. Do not modify by hand.
# Wavefront file for 'ampayonelem_mesh_0002.obj'

# Vertices (Count = 152)
v -31 -5 0
v -32 -5 0
v -32 -4 0
v -31 -4 0
v -30 -5 0
v -31 -5 0
v -31 -4 0
v -30 -4 0
v -31 -6 0
v -32 -6 0
v -32 -5 0
v -31 -5 0
v -30 -6 0
v -31 -6 0
v -31 -5 0
v -30 -5 0
v -21 -6 0
v -22 -6 0
v -22 -5 0
v -21 -5 0
v -20 -6 0
v -21 -6 0
v -21 -5 0
v -20 -5 0
v -21 -7 0
v -22 -7 0
v -22 -6 0
v -21 -6 0
v -20 -7 0
v -21 -7 0
v -21 -6 0
v -20 -6 0
v -6 -9 0
v -7 -9 0
v -7 -8 0
v -6 -8 0
v -5 -9 0
v -6 -9 0
v -6 -8 0
v -5 -8 0
v -6 -10 0
v -7 -10 0
v -7 -9 0
v -6 -9 0
v -5 -10 0
v -6 -10 0
v -6 -9 0
v -5 -9 0
v -35 -15 0
v -36 -15 0
v -36 -14 0
v -35 -14 0
v -34 -15 0
v -35 -15 0
v -35 -14 0
v -34 -14 0
v -35 -16 0
v -36 -16 0
v -36 -15 0
v -35 -15 0
v -34 -16 0
v -35 -16 0
v -35 -15 0
v -34 -15 0
v -8 -20 0
v -9 -20 0
v -9 -19 0
v -8 -19 0
v -7 -20 0
v -8 -20 0
v -8 -19 0
v -7 -19 0
v -8 -21 0
v -9 -21 0
v -9 -20 0
v -8 -20 0
v -7 -21 0
v -8 -21 0
v -8 -20 0
v -7 -20 0
v -47 -29 0
v -48 -29 0
v -48 -28 0
v -47 -28 0
v -46 -29 0
v -47 -29 0
v -47 -28 0
v -46 -28 0
v -45 -29 0
v -46 -29 0
v -46 -28 0
v -45 -28 0
v -46 -30 0
v -47 -30 0
v -47 -29 0
v -46 -29 0
v -45 -30 0
v -46 -30 0
v -46 -29 0
v -45 -29 0
v -44 -30 0
v -45 -30 0
v -45 -29 0
v -44 -29 0
v -48 -31 0
v -49 -31 0
v -49 -30 0
v -48 -30 0
v -47 -31 0
v -48 -31 0
v -48 -30 0
v -47 -30 0
v -48 -32 0
v -49 -32 0
v -49 -31 0
v -48 -31 0
v -47 -32 0
v -48 -32 0
v -48 -31 0
v -47 -31 0
v -39 -37 0
v -40 -37 0
v -40 -36 0
v -39 -36 0
v -38 -37 0
v -39 -37 0
v -39 -36 0
v -38 -36 0
v -39 -38 0
v -40 -38 0
v -40 -37 0
v -39 -37 0
v -38 -38 0
v -39 -38 0
v -39 -37 0
v -38 -37 0
v -44 -49 0
v -45 -49 0
v -45 -48 0
v -44 -48 0
v -43 -49 0
v -44 -49 0
v -44 -48 0
v -43 -48 0
v -44 -50 0
v -45 -50 0
v -45 -49 0
v -44 -49 0
v -43 -50 0
v -44 -50 0
v -44 -49 0
v -43 -49 0

# Texture cooridinates (Count = 35)
vt 0.2080624 0.6666666
vt 0.2288687 0.6666666
vt 0.2288687 0.6944444
vt 0.2080624 0.6944444
vt 0.1872562 0.6666666
vt 0.1872562 0.6944444
vt 0.2080624 0.6388889
vt 0.2288687 0.6388889
vt 0.1872562 0.6388889
vt 0.1040312 0.9444444
vt 0.1248375 0.9444444
vt 0.1248375 0.9722222
vt 0.1040312 0.9722222
vt 0.08322497 0.9444444
vt 0.08322497 0.9722222
vt 0.1040312 0.9166667
vt 0.1248375 0.9166667
vt 0.08322497 0.9166667
vt 0.1040312 0.8333333
vt 0.1248375 0.8333333
vt 0.1248375 0.8611111
vt 0.1040312 0.8611111
vt 0.08322497 0.8333333
vt 0.08322497 0.8611111
vt 0.06241873 0.8333333
vt 0.06241873 0.8611111
vt 0.6657997 0.8888889
vt 0.686606 0.8888889
vt 0.686606 0.9166667
vt 0.6657997 0.9166667
vt 0.6449935 0.8888889
vt 0.6449935 0.9166667
vt 0.6657997 0.8611111
vt 0.686606 0.8611111
vt 0.6449935 0.8611111

# Normal
vn 0 0 -1

# Mesh description
g ampayonelem_mesh_0002

# Faces
f 1/1/1 2/2/1 3/3/1 4/4/1
f 5/5/1 6/1/1 7/4/1 8/6/1
f 9/7/1 10/8/1 11/2/1 12/1/1
f 13/9/1 14/7/1 15/1/1 16/5/1
f 17/1/1 18/2/1 19/3/1 20/4/1
f 21/5/1 22/1/1 23/4/1 24/6/1
f 25/7/1 26/8/1 27/2/1 28/1/1
f 29/9/1 30/7/1 31/1/1 32/5/1
f 33/1/1 34/2/1 35/3/1 36/4/1
f 37/5/1 38/1/1 39/4/1 40/6/1
f 41/7/1 42/8/1 43/2/1 44/1/1
f 45/9/1 46/7/1 47/1/1 48/5/1
f 49/10/1 50/11/1 51/12/1 52/13/1
f 53/14/1 54/10/1 55/13/1 56/15/1
f 57/16/1 58/17/1 59/11/1 60/10/1
f 61/18/1 62/16/1 63/10/1 64/14/1
f 65/10/1 66/11/1 67/12/1 68/13/1
f 69/14/1 70/10/1 71/13/1 72/15/1
f 73/16/1 74/17/1 75/11/1 76/10/1
f 77/18/1 78/16/1 79/10/1 80/14/1
f 81/19/1 82/20/1 83/21/1 84/22/1
f 85/23/1 86/19/1 87/22/1 88/24/1
f 89/25/1 90/23/1 91/24/1 92/26/1
f 93/19/1 94/20/1 95/21/1 96/22/1
f 97/23/1 98/19/1 99/22/1 100/24/1
f 101/25/1 102/23/1 103/24/1 104/26/1
f 105/27/1 106/28/1 107/29/1 108/30/1
f 109/31/1 110/27/1 111/30/1 112/32/1
f 113/33/1 114/34/1 115/28/1 116/27/1
f 117/35/1 118/33/1 119/27/1 120/31/1
f 121/1/1 122/2/1 123/3/1 124/4/1
f 125/5/1 126/1/1 127/4/1 128/6/1
f 129/7/1 130/8/1 131/2/1 132/1/1
f 133/9/1 134/7/1 135/1/1 136/5/1
f 137/1/1 138/2/1 139/3/1 140/4/1
f 141/5/1 142/1/1 143/4/1 144/6/1
f 145/7/1 146/8/1 147/2/1 148/1/1
f 149/9/1 150/7/1 151/1/1 152/5/1

