# Tiled2Unity generated file. Do not modify by hand.
# Wavefront file for 'RandomHouse7_mesh_0002.obj'

# Vertices (Count = 16)
v -8 -2 0
v -9 -2 0
v -9 -1 0
v -8 -1 0
v -7 -2 0
v -8 -2 0
v -8 -1 0
v -7 -1 0
v -8 -3 0
v -9 -3 0
v -9 -2 0
v -8 -2 0
v -7 -3 0
v -8 -3 0
v -8 -2 0
v -7 -2 0

# Texture cooridinates (Count = 16)
vt 0.6243093 0.9723443
vt 0.6448714 0.9723443
vt 0.6448714 0.9998779
vt 0.6243093 0.9998779
vt 0.769953 0.7501221
vt 0.7905151 0.7501221
vt 0.7905151 0.7776557
vt 0.769953 0.7776557
vt 0.6243093 0.9445665
vt 0.6448714 0.9445665
vt 0.6448714 0.9721001
vt 0.6243093 0.9721001
vt 0.769953 0.7223443
vt 0.7905151 0.7223443
vt 0.7905151 0.7498779
vt 0.769953 0.7498779

# Normal
vn 0 0 -1

# Mesh description
g RandomHouse7_mesh_0002

# Faces
f 1/1/1 2/2/1 3/3/1 4/4/1
f 5/5/1 6/6/1 7/7/1 8/8/1
f 9/9/1 10/10/1 11/11/1 12/12/1
f 13/13/1 14/14/1 15/15/1 16/16/1

