# Tiled2Unity generated file. Do not modify by hand.
# Wavefront file for 'RandomHouse7_mesh_0005.obj'

# Vertices (Count = 8)
v -13 -4 0
v -14 -4 0
v -14 -3 0
v -13 -3 0
v -13 -5 0
v -14 -5 0
v -14 -4 0
v -13 -4 0

# Texture cooridinates (Count = 8)
vt 0.7907593 0.02789986
vt 0.8113214 0.02789986
vt 0.8113214 0.05543351
vt 0.7907593 0.05543351
vt 0.7907593 0.0001220703
vt 0.8113214 0.0001220703
vt 0.8113214 0.02765572
vt 0.7907593 0.02765572

# Normal
vn 0 0 -1

# Mesh description
g RandomHouse7_mesh_0005

# Faces
f 1/1/1 2/2/1 3/3/1 4/4/1
f 5/5/1 6/6/1 7/7/1 8/8/1

