# Tiled2Unity generated file. Do not modify by hand.
# Wavefront file for 'RandomHouse7_mesh_0006.obj'

# Vertices (Count = 20)
v -4 -2 0
v -5 -2 0
v -5 -1 0
v -4 -1 0
v -2 -5 0
v -3 -5 0
v -3 -4 0
v -2 -4 0
v -9 -16 0
v -10 -16 0
v -10 -15 0
v -9 -15 0
v -8 -16 0
v -9 -16 0
v -9 -15 0
v -8 -15 0
v -7 -16 0
v -8 -16 0
v -8 -15 0
v -7 -15 0

# Texture cooridinates (Count = 20)
vt 0.2001221 0.6218715
vt 0.2398779 0.6218715
vt 0.2398779 0.6594524
vt 0.2001221 0.6594524
vt 0.2401221 0.6218715
vt 0.2798779 0.6218715
vt 0.2798779 0.6594524
vt 0.2401221 0.6594524
vt 0.5601221 0.432502
vt 0.5601221 0.3949211
vt 0.599878 0.3949211
vt 0.599878 0.432502
vt 0.5601221 0.4703271
vt 0.5601221 0.4327462
vt 0.599878 0.4327462
vt 0.599878 0.4703271
vt 0.5601221 0.5081521
vt 0.5601221 0.4705712
vt 0.599878 0.4705712
vt 0.599878 0.5081521

# Normal
vn 0 0 -1

# Mesh description
g RandomHouse7_mesh_0006

# Faces
f 1/1/1 2/2/1 3/3/1 4/4/1
f 5/5/1 6/6/1 7/7/1 8/8/1
f 9/9/1 10/10/1 11/11/1 12/12/1
f 13/13/1 14/14/1 15/15/1 16/16/1
f 17/17/1 18/18/1 19/19/1 20/20/1

