# Tiled2Unity generated file. Do not modify by hand.
# Wavefront file for 'AtbangMargies_mesh_0004.obj'

# Vertices (Count = 144)
v -9 -5 0
v -10 -5 0
v -10 -4 0
v -9 -4 0
v -8 -5 0
v -9 -5 0
v -9 -4 0
v -8 -4 0
v -32 -8 0
v -33 -8 0
v -33 -7 0
v -32 -7 0
v -31 -8 0
v -32 -8 0
v -32 -7 0
v -31 -7 0
v -50 -11 0
v -51 -11 0
v -51 -10 0
v -50 -10 0
v -49 -11 0
v -50 -11 0
v -50 -10 0
v -49 -10 0
v -4 -12 0
v -5 -12 0
v -5 -11 0
v -4 -11 0
v -3 -12 0
v -4 -12 0
v -4 -11 0
v -3 -11 0
v -13 -14 0
v -14 -14 0
v -14 -13 0
v -13 -13 0
v -12 -14 0
v -13 -14 0
v -13 -13 0
v -12 -13 0
v -28 -17 0
v -29 -17 0
v -29 -16 0
v -28 -16 0
v -27 -17 0
v -28 -17 0
v -28 -16 0
v -27 -16 0
v -40 -20 0
v -41 -20 0
v -41 -19 0
v -40 -19 0
v -39 -20 0
v -40 -20 0
v -40 -19 0
v -39 -19 0
v -23 -20 0
v -24 -20 0
v -24 -19 0
v -23 -19 0
v -22 -20 0
v -23 -20 0
v -23 -19 0
v -22 -19 0
v -18 -23 0
v -19 -23 0
v -19 -22 0
v -18 -22 0
v -17 -23 0
v -18 -23 0
v -18 -22 0
v -17 -22 0
v -45 -24 0
v -46 -24 0
v -46 -23 0
v -45 -23 0
v -44 -24 0
v -45 -24 0
v -45 -23 0
v -44 -23 0
v -50 -27 0
v -51 -27 0
v -51 -26 0
v -50 -26 0
v -49 -27 0
v -50 -27 0
v -50 -26 0
v -49 -26 0
v -19 -28 0
v -20 -28 0
v -20 -27 0
v -19 -27 0
v -18 -28 0
v -19 -28 0
v -19 -27 0
v -18 -27 0
v -7 -29 0
v -8 -29 0
v -8 -28 0
v -7 -28 0
v -6 -29 0
v -7 -29 0
v -7 -28 0
v -6 -28 0
v -41 -31 0
v -42 -31 0
v -42 -30 0
v -41 -30 0
v -40 -31 0
v -41 -31 0
v -41 -30 0
v -40 -30 0
v -20 -33 0
v -21 -33 0
v -21 -32 0
v -20 -32 0
v -19 -33 0
v -20 -33 0
v -20 -32 0
v -19 -32 0
v -4 -33 0
v -5 -33 0
v -5 -32 0
v -4 -32 0
v -3 -33 0
v -4 -33 0
v -4 -32 0
v -3 -32 0
v -37 -34 0
v -38 -34 0
v -38 -33 0
v -37 -33 0
v -36 -34 0
v -37 -34 0
v -37 -33 0
v -36 -33 0
v -4 -38 0
v -5 -38 0
v -5 -37 0
v -4 -37 0
v -3 -38 0
v -4 -38 0
v -4 -37 0
v -3 -37 0

# Texture cooridinates (Count = 16)
vt 0.3330219 0.08345538
vt 0.3535841 0.08345538
vt 0.3535841 0.110989
vt 0.3330219 0.110989
vt 0.3122157 0.08345538
vt 0.3327778 0.08345538
vt 0.3327778 0.110989
vt 0.3122157 0.110989
vt 0.04173455 0.0001220703
vt 0.06229666 0.0001220703
vt 0.06229666 0.02765572
vt 0.04173455 0.02765572
vt 0.02092831 0.0001220703
vt 0.04149041 0.0001220703
vt 0.04149041 0.02765572
vt 0.02092831 0.02765572

# Normal
vn 0 0 -1

# Mesh description
g AtbangMargies_mesh_0004

# Faces
f 1/1/1 2/2/1 3/3/1 4/4/1
f 5/5/1 6/6/1 7/7/1 8/8/1
f 9/1/1 10/2/1 11/3/1 12/4/1
f 13/5/1 14/6/1 15/7/1 16/8/1
f 17/9/1 18/10/1 19/11/1 20/12/1
f 21/13/1 22/14/1 23/15/1 24/16/1
f 25/1/1 26/2/1 27/3/1 28/4/1
f 29/5/1 30/6/1 31/7/1 32/8/1
f 33/1/1 34/2/1 35/3/1 36/4/1
f 37/5/1 38/6/1 39/7/1 40/8/1
f 41/1/1 42/2/1 43/3/1 44/4/1
f 45/5/1 46/6/1 47/7/1 48/8/1
f 49/9/1 50/10/1 51/11/1 52/12/1
f 53/13/1 54/14/1 55/15/1 56/16/1
f 57/1/1 58/2/1 59/3/1 60/4/1
f 61/5/1 62/6/1 63/7/1 64/8/1
f 65/9/1 66/10/1 67/11/1 68/12/1
f 69/13/1 70/14/1 71/15/1 72/16/1
f 73/1/1 74/2/1 75/3/1 76/4/1
f 77/5/1 78/6/1 79/7/1 80/8/1
f 81/1/1 82/2/1 83/3/1 84/4/1
f 85/5/1 86/6/1 87/7/1 88/8/1
f 89/9/1 90/10/1 91/11/1 92/12/1
f 93/13/1 94/14/1 95/15/1 96/16/1
f 97/9/1 98/10/1 99/11/1 100/12/1
f 101/13/1 102/14/1 103/15/1 104/16/1
f 105/1/1 106/2/1 107/3/1 108/4/1
f 109/5/1 110/6/1 111/7/1 112/8/1
f 113/9/1 114/10/1 115/11/1 116/12/1
f 117/13/1 118/14/1 119/15/1 120/16/1
f 121/9/1 122/10/1 123/11/1 124/12/1
f 125/13/1 126/14/1 127/15/1 128/16/1
f 129/9/1 130/10/1 131/11/1 132/12/1
f 133/13/1 134/14/1 135/15/1 136/16/1
f 137/9/1 138/10/1 139/11/1 140/12/1
f 141/13/1 142/14/1 143/15/1 144/16/1

