# Tiled2Unity generated file. Do not modify by hand.
# Wavefront file for 'AtbangMargies_mesh_0007.obj'

# Vertices (Count = 60)
v -30 -33 0
v -31 -33 0
v -31 -32 0
v -30 -32 0
v -29 -33 0
v -30 -33 0
v -30 -32 0
v -29 -32 0
v -28 -33 0
v -29 -33 0
v -29 -32 0
v -28 -32 0
v -27 -33 0
v -28 -33 0
v -28 -32 0
v -27 -32 0
v -26 -33 0
v -27 -33 0
v -27 -32 0
v -26 -32 0
v -25 -33 0
v -26 -33 0
v -26 -32 0
v -25 -32 0
v -24 -33 0
v -25 -33 0
v -25 -32 0
v -24 -32 0
v -23 -33 0
v -24 -33 0
v -24 -32 0
v -23 -32 0
v -22 -33 0
v -23 -33 0
v -23 -32 0
v -22 -32 0
v -21 -33 0
v -22 -33 0
v -22 -32 0
v -21 -32 0
v -52 -36 0
v -53 -36 0
v -53 -35 0
v -52 -35 0
v -51 -36 0
v -52 -36 0
v -52 -35 0
v -51 -35 0
v -50 -36 0
v -51 -36 0
v -51 -35 0
v -50 -35 0
v -49 -36 0
v -50 -36 0
v -50 -35 0
v -49 -35 0
v -48 -36 0
v -49 -36 0
v -49 -35 0
v -48 -35 0

# Texture cooridinates (Count = 60)
vt 0.1552945 0.7106484
vt 0.1722917 0.7106484
vt 0.1722917 0.73672
vt 0.1552945 0.73672
vt 0.1380531 0.7106484
vt 0.1550503 0.7106484
vt 0.1550503 0.73672
vt 0.1380531 0.73672
vt 0.1208117 0.7106484
vt 0.137809 0.7106484
vt 0.137809 0.73672
vt 0.1208117 0.73672
vt 0.1035703 0.7106484
vt 0.1205676 0.7106484
vt 0.1205676 0.73672
vt 0.1035703 0.73672
vt 0.08632897 0.7106484
vt 0.1033262 0.7106484
vt 0.1033262 0.73672
vt 0.08632897 0.73672
vt 0.06908759 0.7106484
vt 0.08608483 0.7106484
vt 0.08608483 0.73672
vt 0.06908759 0.73672
vt 0.05184621 0.7106484
vt 0.06884345 0.7106484
vt 0.06884345 0.73672
vt 0.05184621 0.73672
vt 0.03460483 0.7106484
vt 0.05160207 0.7106484
vt 0.05160207 0.73672
vt 0.03460483 0.73672
vt 0.01736345 0.7106484
vt 0.03436069 0.7106484
vt 0.03436069 0.73672
vt 0.01736345 0.73672
vt 0.0001220703 0.7106484
vt 0.01711931 0.7106484
vt 0.01711931 0.73672
vt 0.0001220703 0.73672
vt 0.2587427 0.26328
vt 0.27574 0.26328
vt 0.27574 0.2893516
vt 0.2587427 0.2893516
vt 0.2415014 0.26328
vt 0.2584986 0.26328
vt 0.2584986 0.2893516
vt 0.2415014 0.2893516
vt 0.22426 0.26328
vt 0.2412572 0.26328
vt 0.2412572 0.2893516
vt 0.22426 0.2893516
vt 0.2070186 0.26328
vt 0.2240159 0.26328
vt 0.2240159 0.2893516
vt 0.2070186 0.2893516
vt 0.1897772 0.26328
vt 0.2067745 0.26328
vt 0.2067745 0.2893516
vt 0.1897772 0.2893516

# Normal
vn 0 0 -1

# Mesh description
g AtbangMargies_mesh_0007

# Faces
f 1/1/1 2/2/1 3/3/1 4/4/1
f 5/5/1 6/6/1 7/7/1 8/8/1
f 9/9/1 10/10/1 11/11/1 12/12/1
f 13/13/1 14/14/1 15/15/1 16/16/1
f 17/17/1 18/18/1 19/19/1 20/20/1
f 21/21/1 22/22/1 23/23/1 24/24/1
f 25/25/1 26/26/1 27/27/1 28/28/1
f 29/29/1 30/30/1 31/31/1 32/32/1
f 33/33/1 34/34/1 35/35/1 36/36/1
f 37/37/1 38/38/1 39/39/1 40/40/1
f 41/41/1 42/42/1 43/43/1 44/44/1
f 45/45/1 46/46/1 47/47/1 48/48/1
f 49/49/1 50/50/1 51/51/1 52/52/1
f 53/53/1 54/54/1 55/55/1 56/56/1
f 57/57/1 58/58/1 59/59/1 60/60/1

