# Tiled2Unity generated file. Do not modify by hand.
# Wavefront file for 'BankoSentral_mesh_0002.obj'

# Vertices (Count = 848)
v -49 -1 0
v -50 -1 0
v -50 0 0
v -49 0 0
v -48 -1 0
v -49 -1 0
v -49 0 0
v -48 0 0
v -47 -1 0
v -48 -1 0
v -48 0 0
v -47 0 0
v -46 -1 0
v -47 -1 0
v -47 0 0
v -46 0 0
v -45 -1 0
v -46 -1 0
v -46 0 0
v -45 0 0
v -44 -1 0
v -45 -1 0
v -45 0 0
v -44 0 0
v -43 -1 0
v -44 -1 0
v -44 0 0
v -43 0 0
v -42 -1 0
v -43 -1 0
v -43 0 0
v -42 0 0
v -41 -1 0
v -42 -1 0
v -42 0 0
v -41 0 0
v -40 -1 0
v -41 -1 0
v -41 0 0
v -40 0 0
v -39 -1 0
v -40 -1 0
v -40 0 0
v -39 0 0
v -38 -1 0
v -39 -1 0
v -39 0 0
v -38 0 0
v -37 -1 0
v -38 -1 0
v -38 0 0
v -37 0 0
v -36 -1 0
v -37 -1 0
v -37 0 0
v -36 0 0
v -35 -1 0
v -36 -1 0
v -36 0 0
v -35 0 0
v -34 -1 0
v -35 -1 0
v -35 0 0
v -34 0 0
v -33 -1 0
v -34 -1 0
v -34 0 0
v -33 0 0
v -32 -1 0
v -33 -1 0
v -33 0 0
v -32 0 0
v -31 -1 0
v -32 -1 0
v -32 0 0
v -31 0 0
v -30 -1 0
v -31 -1 0
v -31 0 0
v -30 0 0
v -29 -1 0
v -30 -1 0
v -30 0 0
v -29 0 0
v -28 -1 0
v -29 -1 0
v -29 0 0
v -28 0 0
v -27 -1 0
v -28 -1 0
v -28 0 0
v -27 0 0
v -26 -1 0
v -27 -1 0
v -27 0 0
v -26 0 0
v -25 -1 0
v -26 -1 0
v -26 0 0
v -25 0 0
v -24 -1 0
v -25 -1 0
v -25 0 0
v -24 0 0
v -23 -1 0
v -24 -1 0
v -24 0 0
v -23 0 0
v -22 -1 0
v -23 -1 0
v -23 0 0
v -22 0 0
v -21 -1 0
v -22 -1 0
v -22 0 0
v -21 0 0
v -20 -1 0
v -21 -1 0
v -21 0 0
v -20 0 0
v -19 -1 0
v -20 -1 0
v -20 0 0
v -19 0 0
v -18 -1 0
v -19 -1 0
v -19 0 0
v -18 0 0
v -17 -1 0
v -18 -1 0
v -18 0 0
v -17 0 0
v -16 -1 0
v -17 -1 0
v -17 0 0
v -16 0 0
v -15 -1 0
v -16 -1 0
v -16 0 0
v -15 0 0
v -14 -1 0
v -15 -1 0
v -15 0 0
v -14 0 0
v -13 -1 0
v -14 -1 0
v -14 0 0
v -13 0 0
v -12 -1 0
v -13 -1 0
v -13 0 0
v -12 0 0
v -11 -1 0
v -12 -1 0
v -12 0 0
v -11 0 0
v -10 -1 0
v -11 -1 0
v -11 0 0
v -10 0 0
v -9 -1 0
v -10 -1 0
v -10 0 0
v -9 0 0
v -8 -1 0
v -9 -1 0
v -9 0 0
v -8 0 0
v -7 -1 0
v -8 -1 0
v -8 0 0
v -7 0 0
v -6 -1 0
v -7 -1 0
v -7 0 0
v -6 0 0
v -5 -1 0
v -6 -1 0
v -6 0 0
v -5 0 0
v -4 -1 0
v -5 -1 0
v -5 0 0
v -4 0 0
v -3 -1 0
v -4 -1 0
v -4 0 0
v -3 0 0
v -2 -1 0
v -3 -1 0
v -3 0 0
v -2 0 0
v -1 -1 0
v -2 -1 0
v -2 0 0
v -1 0 0
v 0 -1 0
v -1 -1 0
v -1 0 0
v 0 0 0
v -49 -2 0
v -50 -2 0
v -50 -1 0
v -49 -1 0
v 0 -2 0
v -1 -2 0
v -1 -1 0
v 0 -1 0
v -49 -3 0
v -50 -3 0
v -50 -2 0
v -49 -2 0
v -47 -3 0
v -48 -3 0
v -48 -2 0
v -47 -2 0
v -34 -3 0
v -35 -3 0
v -35 -2 0
v -34 -2 0
v -33 -3 0
v -34 -3 0
v -34 -2 0
v -33 -2 0
v -32 -3 0
v -33 -3 0
v -33 -2 0
v -32 -2 0
v -31 -3 0
v -32 -3 0
v -32 -2 0
v -31 -2 0
v -29 -3 0
v -30 -3 0
v -30 -2 0
v -29 -2 0
v -28 -3 0
v -29 -3 0
v -29 -2 0
v -28 -2 0
v -27 -3 0
v -28 -3 0
v -28 -2 0
v -27 -2 0
v -19 -3 0
v -20 -3 0
v -20 -2 0
v -19 -2 0
v -18 -3 0
v -19 -3 0
v -19 -2 0
v -18 -2 0
v -17 -3 0
v -18 -3 0
v -18 -2 0
v -17 -2 0
v -16 -3 0
v -17 -3 0
v -17 -2 0
v -16 -2 0
v -13 -3 0
v -14 -3 0
v -14 -2 0
v -13 -2 0
v -12 -3 0
v -13 -3 0
v -13 -2 0
v -12 -2 0
v -11 -3 0
v -12 -3 0
v -12 -2 0
v -11 -2 0
v -10 -3 0
v -11 -3 0
v -11 -2 0
v -10 -2 0
v 0 -3 0
v -1 -3 0
v -1 -2 0
v 0 -2 0
v -49 -4 0
v -50 -4 0
v -50 -3 0
v -49 -3 0
v -29 -4 0
v -30 -4 0
v -30 -3 0
v -29 -3 0
v -28 -4 0
v -29 -4 0
v -29 -3 0
v -28 -3 0
v -27 -4 0
v -28 -4 0
v -28 -3 0
v -27 -3 0
v -26 -4 0
v -27 -4 0
v -27 -3 0
v -26 -3 0
v 0 -4 0
v -1 -4 0
v -1 -3 0
v 0 -3 0
v -43 -5 0
v -44 -5 0
v -44 -4 0
v -43 -4 0
v -42 -5 0
v -43 -5 0
v -43 -4 0
v -42 -4 0
v -41 -5 0
v -42 -5 0
v -42 -4 0
v -41 -4 0
v -40 -5 0
v -41 -5 0
v -41 -4 0
v -40 -4 0
v -29 -5 0
v -30 -5 0
v -30 -4 0
v -29 -4 0
v -28 -5 0
v -29 -5 0
v -29 -4 0
v -28 -4 0
v -27 -5 0
v -28 -5 0
v -28 -4 0
v -27 -4 0
v -26 -5 0
v -27 -5 0
v -27 -4 0
v -26 -4 0
v 0 -5 0
v -1 -5 0
v -1 -4 0
v 0 -4 0
v -1 -6 0
v -2 -6 0
v -2 -5 0
v -1 -5 0
v 0 -6 0
v -1 -6 0
v -1 -5 0
v 0 -5 0
v -17 -7 0
v -18 -7 0
v -18 -6 0
v -17 -6 0
v -16 -7 0
v -17 -7 0
v -17 -6 0
v -16 -6 0
v -15 -7 0
v -16 -7 0
v -16 -6 0
v -15 -6 0
v -14 -7 0
v -15 -7 0
v -15 -6 0
v -14 -6 0
v -10 -8 0
v -11 -8 0
v -11 -7 0
v -10 -7 0
v -9 -8 0
v -10 -8 0
v -10 -7 0
v -9 -7 0
v -8 -8 0
v -9 -8 0
v -9 -7 0
v -8 -7 0
v -7 -8 0
v -8 -8 0
v -8 -7 0
v -7 -7 0
v -10 -9 0
v -11 -9 0
v -11 -8 0
v -10 -8 0
v -9 -9 0
v -10 -9 0
v -10 -8 0
v -9 -8 0
v -8 -9 0
v -9 -9 0
v -9 -8 0
v -8 -8 0
v -7 -9 0
v -8 -9 0
v -8 -8 0
v -7 -8 0
v -10 -10 0
v -11 -10 0
v -11 -9 0
v -10 -9 0
v -9 -10 0
v -10 -10 0
v -10 -9 0
v -9 -9 0
v -8 -10 0
v -9 -10 0
v -9 -9 0
v -8 -9 0
v -7 -10 0
v -8 -10 0
v -8 -9 0
v -7 -9 0
v -22 -11 0
v -23 -11 0
v -23 -10 0
v -22 -10 0
v -21 -11 0
v -22 -11 0
v -22 -10 0
v -21 -10 0
v -20 -11 0
v -21 -11 0
v -21 -10 0
v -20 -10 0
v -19 -11 0
v -20 -11 0
v -20 -10 0
v -19 -10 0
v -36 -12 0
v -37 -12 0
v -37 -11 0
v -36 -11 0
v -35 -12 0
v -36 -12 0
v -36 -11 0
v -35 -11 0
v -34 -12 0
v -35 -12 0
v -35 -11 0
v -34 -11 0
v -33 -12 0
v -34 -12 0
v -34 -11 0
v -33 -11 0
v -49 -13 0
v -50 -13 0
v -50 -12 0
v -49 -12 0
v -48 -13 0
v -49 -13 0
v -49 -12 0
v -48 -12 0
v -47 -13 0
v -48 -13 0
v -48 -12 0
v -47 -12 0
v -46 -13 0
v -47 -13 0
v -47 -12 0
v -46 -12 0
v -49 -14 0
v -50 -14 0
v -50 -13 0
v -49 -13 0
v -25 -14 0
v -26 -14 0
v -26 -13 0
v -25 -13 0
v -24 -14 0
v -25 -14 0
v -25 -13 0
v -24 -13 0
v -23 -14 0
v -24 -14 0
v -24 -13 0
v -23 -13 0
v -22 -14 0
v -23 -14 0
v -23 -13 0
v -22 -13 0
v -49 -15 0
v -50 -15 0
v -50 -14 0
v -49 -14 0
v -43 -15 0
v -44 -15 0
v -44 -14 0
v -43 -14 0
v -42 -15 0
v -43 -15 0
v -43 -14 0
v -42 -14 0
v -41 -15 0
v -42 -15 0
v -42 -14 0
v -41 -14 0
v -40 -15 0
v -41 -15 0
v -41 -14 0
v -40 -14 0
v -25 -15 0
v -26 -15 0
v -26 -14 0
v -25 -14 0
v -24 -15 0
v -25 -15 0
v -25 -14 0
v -24 -14 0
v -23 -15 0
v -24 -15 0
v -24 -14 0
v -23 -14 0
v -22 -15 0
v -23 -15 0
v -23 -14 0
v -22 -14 0
v -49 -16 0
v -50 -16 0
v -50 -15 0
v -49 -15 0
v -43 -16 0
v -44 -16 0
v -44 -15 0
v -43 -15 0
v -42 -16 0
v -43 -16 0
v -43 -15 0
v -42 -15 0
v -41 -16 0
v -42 -16 0
v -42 -15 0
v -41 -15 0
v -40 -16 0
v -41 -16 0
v -41 -15 0
v -40 -15 0
v -25 -16 0
v -26 -16 0
v -26 -15 0
v -25 -15 0
v -24 -16 0
v -25 -16 0
v -25 -15 0
v -24 -15 0
v -23 -16 0
v -24 -16 0
v -24 -15 0
v -23 -15 0
v -22 -16 0
v -23 -16 0
v -23 -15 0
v -22 -15 0
v -15 -16 0
v -16 -16 0
v -16 -15 0
v -15 -15 0
v -14 -16 0
v -15 -16 0
v -15 -15 0
v -14 -15 0
v -13 -16 0
v -14 -16 0
v -14 -15 0
v -13 -15 0
v -12 -16 0
v -13 -16 0
v -13 -15 0
v -12 -15 0
v -49 -17 0
v -50 -17 0
v -50 -16 0
v -49 -16 0
v -43 -17 0
v -44 -17 0
v -44 -16 0
v -43 -16 0
v -42 -17 0
v -43 -17 0
v -43 -16 0
v -42 -16 0
v -41 -17 0
v -42 -17 0
v -42 -16 0
v -41 -16 0
v -40 -17 0
v -41 -17 0
v -41 -16 0
v -40 -16 0
v -6 -17 0
v -7 -17 0
v -7 -16 0
v -6 -16 0
v -5 -17 0
v -6 -17 0
v -6 -16 0
v -5 -16 0
v -4 -17 0
v -5 -17 0
v -5 -16 0
v -4 -16 0
v -3 -17 0
v -4 -17 0
v -4 -16 0
v -3 -16 0
v -49 -18 0
v -50 -18 0
v -50 -17 0
v -49 -17 0
v -24 -18 0
v -25 -18 0
v -25 -17 0
v -24 -17 0
v -23 -18 0
v -24 -18 0
v -24 -17 0
v -23 -17 0
v -22 -18 0
v -23 -18 0
v -23 -17 0
v -22 -17 0
v -21 -18 0
v -22 -18 0
v -22 -17 0
v -21 -17 0
v -6 -18 0
v -7 -18 0
v -7 -17 0
v -6 -17 0
v -5 -18 0
v -6 -18 0
v -6 -17 0
v -5 -17 0
v -4 -18 0
v -5 -18 0
v -5 -17 0
v -4 -17 0
v -3 -18 0
v -4 -18 0
v -4 -17 0
v -3 -17 0
v -49 -19 0
v -50 -19 0
v -50 -18 0
v -49 -18 0
v -24 -19 0
v -25 -19 0
v -25 -18 0
v -24 -18 0
v -23 -19 0
v -24 -19 0
v -24 -18 0
v -23 -18 0
v -22 -19 0
v -23 -19 0
v -23 -18 0
v -22 -18 0
v -21 -19 0
v -22 -19 0
v -22 -18 0
v -21 -18 0
v -49 -20 0
v -50 -20 0
v -50 -19 0
v -49 -19 0
v -24 -20 0
v -25 -20 0
v -25 -19 0
v -24 -19 0
v -23 -20 0
v -24 -20 0
v -24 -19 0
v -23 -19 0
v -22 -20 0
v -23 -20 0
v -23 -19 0
v -22 -19 0
v -21 -20 0
v -22 -20 0
v -22 -19 0
v -21 -19 0
v -49 -21 0
v -50 -21 0
v -50 -20 0
v -49 -20 0
v -49 -22 0
v -50 -22 0
v -50 -21 0
v -49 -21 0
v -49 -23 0
v -50 -23 0
v -50 -22 0
v -49 -22 0
v -49 -24 0
v -50 -24 0
v -50 -23 0
v -49 -23 0
v -24 -24 0
v -25 -24 0
v -25 -23 0
v -24 -23 0
v -23 -24 0
v -24 -24 0
v -24 -23 0
v -23 -23 0
v -22 -24 0
v -23 -24 0
v -23 -23 0
v -22 -23 0
v -21 -24 0
v -22 -24 0
v -22 -23 0
v -21 -23 0
v -49 -25 0
v -50 -25 0
v -50 -24 0
v -49 -24 0
v -49 -26 0
v -50 -26 0
v -50 -25 0
v -49 -25 0
v -49 -27 0
v -50 -27 0
v -50 -26 0
v -49 -26 0
v -6 -27 0
v -7 -27 0
v -7 -26 0
v -6 -26 0
v -5 -27 0
v -6 -27 0
v -6 -26 0
v -5 -26 0
v -4 -27 0
v -5 -27 0
v -5 -26 0
v -4 -26 0
v -3 -27 0
v -4 -27 0
v -4 -26 0
v -3 -26 0
v -6 -28 0
v -7 -28 0
v -7 -27 0
v -6 -27 0
v -5 -28 0
v -6 -28 0
v -6 -27 0
v -5 -27 0
v -4 -28 0
v -5 -28 0
v -5 -27 0
v -4 -27 0
v -3 -28 0
v -4 -28 0
v -4 -27 0
v -3 -27 0
v -49 -29 0
v -50 -29 0
v -50 -28 0
v -49 -28 0
v -42 -29 0
v -43 -29 0
v -43 -28 0
v -42 -28 0
v -41 -29 0
v -42 -29 0
v -42 -28 0
v -41 -28 0
v -40 -29 0
v -41 -29 0
v -41 -28 0
v -40 -28 0
v -39 -29 0
v -40 -29 0
v -40 -28 0
v -39 -28 0
v -49 -30 0
v -50 -30 0
v -50 -29 0
v -49 -29 0
v -19 -30 0
v -20 -30 0
v -20 -29 0
v -19 -29 0
v -18 -30 0
v -19 -30 0
v -19 -29 0
v -18 -29 0
v -17 -30 0
v -18 -30 0
v -18 -29 0
v -17 -29 0
v -16 -30 0
v -17 -30 0
v -17 -29 0
v -16 -29 0
v -49 -31 0
v -50 -31 0
v -50 -30 0
v -49 -30 0
v -49 -32 0
v -50 -32 0
v -50 -31 0
v -49 -31 0
v -49 -33 0
v -50 -33 0
v -50 -32 0
v -49 -32 0
v -34 -33 0
v -35 -33 0
v -35 -32 0
v -34 -32 0
v -33 -33 0
v -34 -33 0
v -34 -32 0
v -33 -32 0
v -32 -33 0
v -33 -33 0
v -33 -32 0
v -32 -32 0
v -31 -33 0
v -32 -33 0
v -32 -32 0
v -31 -32 0
v -49 -34 0
v -50 -34 0
v -50 -33 0
v -49 -33 0
v -49 -35 0
v -50 -35 0
v -50 -34 0
v -49 -34 0
v -16 -40 0
v -17 -40 0
v -17 -39 0
v -16 -39 0
v -15 -40 0
v -16 -40 0
v -16 -39 0
v -15 -39 0
v -14 -40 0
v -15 -40 0
v -15 -39 0
v -14 -39 0
v -13 -40 0
v -14 -40 0
v -14 -39 0
v -13 -39 0

# Texture cooridinates (Count = 100)
vt 0.04173455 0.5834554
vt 0.06229666 0.5834554
vt 0.06229666 0.610989
vt 0.04173455 0.610989
vt 0.0625408 0.0001220703
vt 0.0831029 0.0001220703
vt 0.0831029 0.02765572
vt 0.0625408 0.02765572
vt 0.04173455 0.0001220703
vt 0.06229666 0.0001220703
vt 0.06229666 0.02765572
vt 0.04173455 0.02765572
vt 0.02092831 0.0001220703
vt 0.04149041 0.0001220703
vt 0.04149041 0.02765572
vt 0.02092831 0.02765572
vt 0.0001220703 0.0001220703
vt 0.02068417 0.0001220703
vt 0.02068417 0.02765572
vt 0.0001220703 0.02765572
vt 0.3538282 0.139011
vt 0.3743903 0.139011
vt 0.3743903 0.1665446
vt 0.3538282 0.1665446
vt 0.3330219 0.139011
vt 0.3535841 0.139011
vt 0.3535841 0.1665446
vt 0.3330219 0.1665446
vt 0.3122157 0.139011
vt 0.3327778 0.139011
vt 0.3327778 0.1665446
vt 0.3122157 0.1665446
vt 0.3538282 0.1112332
vt 0.3743903 0.1112332
vt 0.3743903 0.1387668
vt 0.3538282 0.1387668
vt 0.3330219 0.1112332
vt 0.3535841 0.1112332
vt 0.3535841 0.1387668
vt 0.3330219 0.1387668
vt 0.3122157 0.1112332
vt 0.3327778 0.1112332
vt 0.3327778 0.1387668
vt 0.3122157 0.1387668
vt 0.2914095 0.1112332
vt 0.3119715 0.1112332
vt 0.3119715 0.1387668
vt 0.2914095 0.1387668
vt 0.3538282 0.08345538
vt 0.3743903 0.08345538
vt 0.3743903 0.110989
vt 0.3538282 0.110989
vt 0.3330219 0.08345538
vt 0.3535841 0.08345538
vt 0.3535841 0.110989
vt 0.3330219 0.110989
vt 0.3122157 0.08345538
vt 0.3327778 0.08345538
vt 0.3327778 0.110989
vt 0.3122157 0.110989
vt 0.2914095 0.08345538
vt 0.3119715 0.08345538
vt 0.3119715 0.110989
vt 0.2914095 0.110989
vt 0.2914095 0.139011
vt 0.3119715 0.139011
vt 0.3119715 0.1665446
vt 0.2914095 0.1665446
vt 0.0625408 0.05567765
vt 0.0831029 0.05567765
vt 0.0831029 0.08321124
vt 0.0625408 0.08321124
vt 0.04173455 0.05567765
vt 0.06229666 0.05567765
vt 0.06229666 0.08321124
vt 0.04173455 0.08321124
vt 0.02092831 0.05567765
vt 0.04149041 0.05567765
vt 0.04149041 0.08321124
vt 0.02092831 0.08321124
vt 0.0001220703 0.05567765
vt 0.02068417 0.05567765
vt 0.02068417 0.08321124
vt 0.0001220703 0.08321124
vt 0.0625408 0.02789986
vt 0.0831029 0.02789986
vt 0.0831029 0.05543351
vt 0.0625408 0.05543351
vt 0.04173455 0.02789986
vt 0.06229666 0.02789986
vt 0.06229666 0.05543351
vt 0.04173455 0.05543351
vt 0.02092831 0.02789986
vt 0.04149041 0.02789986
vt 0.04149041 0.05543351
vt 0.02092831 0.05543351
vt 0.0001220703 0.02789986
vt 0.02068417 0.02789986
vt 0.02068417 0.05543351
vt 0.0001220703 0.05543351

# Normal
vn 0 0 -1

# Mesh description
g BankoSentral_mesh_0002

# Faces
f 1/1/1 2/2/1 3/3/1 4/4/1
f 5/1/1 6/2/1 7/3/1 8/4/1
f 9/1/1 10/2/1 11/3/1 12/4/1
f 13/1/1 14/2/1 15/3/1 16/4/1
f 17/1/1 18/2/1 19/3/1 20/4/1
f 21/1/1 22/2/1 23/3/1 24/4/1
f 25/1/1 26/2/1 27/3/1 28/4/1
f 29/1/1 30/2/1 31/3/1 32/4/1
f 33/1/1 34/2/1 35/3/1 36/4/1
f 37/1/1 38/2/1 39/3/1 40/4/1
f 41/1/1 42/2/1 43/3/1 44/4/1
f 45/1/1 46/2/1 47/3/1 48/4/1
f 49/1/1 50/2/1 51/3/1 52/4/1
f 53/1/1 54/2/1 55/3/1 56/4/1
f 57/1/1 58/2/1 59/3/1 60/4/1
f 61/1/1 62/2/1 63/3/1 64/4/1
f 65/1/1 66/2/1 67/3/1 68/4/1
f 69/1/1 70/2/1 71/3/1 72/4/1
f 73/1/1 74/2/1 75/3/1 76/4/1
f 77/1/1 78/2/1 79/3/1 80/4/1
f 81/1/1 82/2/1 83/3/1 84/4/1
f 85/1/1 86/2/1 87/3/1 88/4/1
f 89/1/1 90/2/1 91/3/1 92/4/1
f 93/1/1 94/2/1 95/3/1 96/4/1
f 97/1/1 98/2/1 99/3/1 100/4/1
f 101/1/1 102/2/1 103/3/1 104/4/1
f 105/1/1 106/2/1 107/3/1 108/4/1
f 109/1/1 110/2/1 111/3/1 112/4/1
f 113/1/1 114/2/1 115/3/1 116/4/1
f 117/1/1 118/2/1 119/3/1 120/4/1
f 121/1/1 122/2/1 123/3/1 124/4/1
f 125/1/1 126/2/1 127/3/1 128/4/1
f 129/1/1 130/2/1 131/3/1 132/4/1
f 133/1/1 134/2/1 135/3/1 136/4/1
f 137/1/1 138/2/1 139/3/1 140/4/1
f 141/1/1 142/2/1 143/3/1 144/4/1
f 145/1/1 146/2/1 147/3/1 148/4/1
f 149/1/1 150/2/1 151/3/1 152/4/1
f 153/1/1 154/2/1 155/3/1 156/4/1
f 157/1/1 158/2/1 159/3/1 160/4/1
f 161/1/1 162/2/1 163/3/1 164/4/1
f 165/1/1 166/2/1 167/3/1 168/4/1
f 169/1/1 170/2/1 171/3/1 172/4/1
f 173/1/1 174/2/1 175/3/1 176/4/1
f 177/1/1 178/2/1 179/3/1 180/4/1
f 181/1/1 182/2/1 183/3/1 184/4/1
f 185/1/1 186/2/1 187/3/1 188/4/1
f 189/1/1 190/2/1 191/3/1 192/4/1
f 193/1/1 194/2/1 195/3/1 196/4/1
f 197/1/1 198/2/1 199/3/1 200/4/1
f 201/1/1 202/2/1 203/3/1 204/4/1
f 205/1/1 206/2/1 207/3/1 208/4/1
f 209/1/1 210/2/1 211/3/1 212/4/1
f 213/5/1 214/6/1 215/7/1 216/8/1
f 217/5/1 218/6/1 219/7/1 220/8/1
f 221/9/1 222/10/1 223/11/1 224/12/1
f 225/13/1 226/14/1 227/15/1 228/16/1
f 229/17/1 230/18/1 231/19/1 232/20/1
f 233/21/1 234/22/1 235/23/1 236/24/1
f 237/25/1 238/26/1 239/27/1 240/28/1
f 241/29/1 242/30/1 243/31/1 244/32/1
f 245/5/1 246/6/1 247/7/1 248/8/1
f 249/9/1 250/10/1 251/11/1 252/12/1
f 253/13/1 254/14/1 255/15/1 256/16/1
f 257/17/1 258/18/1 259/19/1 260/20/1
f 261/5/1 262/6/1 263/7/1 264/8/1
f 265/9/1 266/10/1 267/11/1 268/12/1
f 269/13/1 270/14/1 271/15/1 272/16/1
f 273/17/1 274/18/1 275/19/1 276/20/1
f 277/1/1 278/2/1 279/3/1 280/4/1
f 281/1/1 282/2/1 283/3/1 284/4/1
f 285/33/1 286/34/1 287/35/1 288/36/1
f 289/37/1 290/38/1 291/39/1 292/40/1
f 293/41/1 294/42/1 295/43/1 296/44/1
f 297/45/1 298/46/1 299/47/1 300/48/1
f 301/1/1 302/2/1 303/3/1 304/4/1
f 305/5/1 306/6/1 307/7/1 308/8/1
f 309/9/1 310/10/1 311/11/1 312/12/1
f 313/13/1 314/14/1 315/15/1 316/16/1
f 317/17/1 318/18/1 319/19/1 320/20/1
f 321/49/1 322/50/1 323/51/1 324/52/1
f 325/53/1 326/54/1 327/55/1 328/56/1
f 329/57/1 330/58/1 331/59/1 332/60/1
f 333/61/1 334/62/1 335/63/1 336/64/1
f 337/1/1 338/2/1 339/3/1 340/4/1
f 341/5/1 342/6/1 343/7/1 344/8/1
f 345/9/1 346/10/1 347/11/1 348/12/1
f 349/5/1 350/6/1 351/7/1 352/8/1
f 353/9/1 354/10/1 355/11/1 356/12/1
f 357/13/1 358/14/1 359/15/1 360/16/1
f 361/17/1 362/18/1 363/19/1 364/20/1
f 365/21/1 366/22/1 367/23/1 368/24/1
f 369/25/1 370/26/1 371/27/1 372/28/1
f 373/29/1 374/30/1 375/31/1 376/32/1
f 377/65/1 378/66/1 379/67/1 380/68/1
f 381/33/1 382/34/1 383/35/1 384/36/1
f 385/37/1 386/38/1 387/39/1 388/40/1
f 389/41/1 390/42/1 391/43/1 392/44/1
f 393/45/1 394/46/1 395/47/1 396/48/1
f 397/49/1 398/50/1 399/51/1 400/52/1
f 401/53/1 402/54/1 403/55/1 404/56/1
f 405/57/1 406/58/1 407/59/1 408/60/1
f 409/61/1 410/62/1 411/63/1 412/64/1
f 413/5/1 414/6/1 415/7/1 416/8/1
f 417/9/1 418/10/1 419/11/1 420/12/1
f 421/13/1 422/14/1 423/15/1 424/16/1
f 425/17/1 426/18/1 427/19/1 428/20/1
f 429/5/1 430/6/1 431/7/1 432/8/1
f 433/9/1 434/10/1 435/11/1 436/12/1
f 437/13/1 438/14/1 439/15/1 440/16/1
f 441/17/1 442/18/1 443/19/1 444/20/1
f 445/1/1 446/2/1 447/3/1 448/4/1
f 449/9/1 450/10/1 451/11/1 452/12/1
f 453/13/1 454/14/1 455/15/1 456/16/1
f 457/17/1 458/18/1 459/19/1 460/20/1
f 461/1/1 462/2/1 463/3/1 464/4/1
f 465/69/1 466/70/1 467/71/1 468/72/1
f 469/73/1 470/74/1 471/75/1 472/76/1
f 473/77/1 474/78/1 475/79/1 476/80/1
f 477/81/1 478/82/1 479/83/1 480/84/1
f 481/1/1 482/2/1 483/3/1 484/4/1
f 485/21/1 486/22/1 487/23/1 488/24/1
f 489/25/1 490/26/1 491/27/1 492/28/1
f 493/29/1 494/30/1 495/31/1 496/32/1
f 497/65/1 498/66/1 499/67/1 500/68/1
f 501/85/1 502/86/1 503/87/1 504/88/1
f 505/89/1 506/90/1 507/91/1 508/92/1
f 509/93/1 510/94/1 511/95/1 512/96/1
f 513/97/1 514/98/1 515/99/1 516/100/1
f 517/1/1 518/2/1 519/3/1 520/4/1
f 521/33/1 522/34/1 523/35/1 524/36/1
f 525/37/1 526/38/1 527/39/1 528/40/1
f 529/41/1 530/42/1 531/43/1 532/44/1
f 533/45/1 534/46/1 535/47/1 536/48/1
f 537/5/1 538/6/1 539/7/1 540/8/1
f 541/9/1 542/10/1 543/11/1 544/12/1
f 545/13/1 546/14/1 547/15/1 548/16/1
f 549/17/1 550/18/1 551/19/1 552/20/1
f 553/5/1 554/6/1 555/7/1 556/8/1
f 557/9/1 558/10/1 559/11/1 560/12/1
f 561/13/1 562/14/1 563/15/1 564/16/1
f 565/17/1 566/18/1 567/19/1 568/20/1
f 569/1/1 570/2/1 571/3/1 572/4/1
f 573/49/1 574/50/1 575/51/1 576/52/1
f 577/53/1 578/54/1 579/55/1 580/56/1
f 581/57/1 582/58/1 583/59/1 584/60/1
f 585/61/1 586/62/1 587/63/1 588/64/1
f 589/69/1 590/70/1 591/71/1 592/72/1
f 593/73/1 594/74/1 595/75/1 596/76/1
f 597/77/1 598/78/1 599/79/1 600/80/1
f 601/81/1 602/82/1 603/83/1 604/84/1
f 605/1/1 606/2/1 607/3/1 608/4/1
f 609/21/1 610/22/1 611/23/1 612/24/1
f 613/25/1 614/26/1 615/27/1 616/28/1
f 617/29/1 618/30/1 619/31/1 620/32/1
f 621/65/1 622/66/1 623/67/1 624/68/1
f 625/85/1 626/86/1 627/87/1 628/88/1
f 629/89/1 630/90/1 631/91/1 632/92/1
f 633/93/1 634/94/1 635/95/1 636/96/1
f 637/97/1 638/98/1 639/99/1 640/100/1
f 641/1/1 642/2/1 643/3/1 644/4/1
f 645/33/1 646/34/1 647/35/1 648/36/1
f 649/37/1 650/38/1 651/39/1 652/40/1
f 653/41/1 654/42/1 655/43/1 656/44/1
f 657/45/1 658/46/1 659/47/1 660/48/1
f 661/1/1 662/2/1 663/3/1 664/4/1
f 665/49/1 666/50/1 667/51/1 668/52/1
f 669/53/1 670/54/1 671/55/1 672/56/1
f 673/57/1 674/58/1 675/59/1 676/60/1
f 677/61/1 678/62/1 679/63/1 680/64/1
f 681/1/1 682/2/1 683/3/1 684/4/1
f 685/1/1 686/2/1 687/3/1 688/4/1
f 689/1/1 690/2/1 691/3/1 692/4/1
f 693/1/1 694/2/1 695/3/1 696/4/1
f 697/5/1 698/6/1 699/7/1 700/8/1
f 701/9/1 702/10/1 703/11/1 704/12/1
f 705/13/1 706/14/1 707/15/1 708/16/1
f 709/17/1 710/18/1 711/19/1 712/20/1
f 713/1/1 714/2/1 715/3/1 716/4/1
f 717/1/1 718/2/1 719/3/1 720/4/1
f 721/1/1 722/2/1 723/3/1 724/4/1
f 725/69/1 726/70/1 727/71/1 728/72/1
f 729/73/1 730/74/1 731/75/1 732/76/1
f 733/77/1 734/78/1 735/79/1 736/80/1
f 737/81/1 738/82/1 739/83/1 740/84/1
f 741/85/1 742/86/1 743/87/1 744/88/1
f 745/89/1 746/90/1 747/91/1 748/92/1
f 749/93/1 750/94/1 751/95/1 752/96/1
f 753/97/1 754/98/1 755/99/1 756/100/1
f 757/81/1 758/82/1 759/83/1 760/84/1
f 761/5/1 762/6/1 763/7/1 764/8/1
f 765/9/1 766/10/1 767/11/1 768/12/1
f 769/13/1 770/14/1 771/15/1 772/16/1
f 773/17/1 774/18/1 775/19/1 776/20/1
f 777/97/1 778/98/1 779/99/1 780/100/1
f 781/5/1 782/6/1 783/7/1 784/8/1
f 785/9/1 786/10/1 787/11/1 788/12/1
f 789/13/1 790/14/1 791/15/1 792/16/1
f 793/17/1 794/18/1 795/19/1 796/20/1
f 797/1/1 798/2/1 799/3/1 800/4/1
f 801/1/1 802/2/1 803/3/1 804/4/1
f 805/81/1 806/82/1 807/83/1 808/84/1
f 809/5/1 810/6/1 811/7/1 812/8/1
f 813/9/1 814/10/1 815/11/1 816/12/1
f 817/13/1 818/14/1 819/15/1 820/16/1
f 821/17/1 822/18/1 823/19/1 824/20/1
f 825/97/1 826/98/1 827/99/1 828/100/1
f 829/17/1 830/18/1 831/19/1 832/20/1
f 833/1/1 834/2/1 835/3/1 836/4/1
f 837/53/1 838/54/1 839/55/1 840/56/1
f 841/57/1 842/58/1 843/59/1 844/60/1
f 845/61/1 846/62/1 847/63/1 848/64/1

