# Tiled2Unity generated file. Do not modify by hand.
# Wavefront file for 'BankoSentral_mesh_0006.obj'

# Vertices (Count = 908)
v -34 -1 0
v -35 -1 0
v -35 0 0
v -34 0 0
v -33 -1 0
v -34 -1 0
v -34 0 0
v -33 0 0
v -32 -1 0
v -33 -1 0
v -33 0 0
v -32 0 0
v -31 -1 0
v -32 -1 0
v -32 0 0
v -31 0 0
v -23 -1 0
v -24 -1 0
v -24 0 0
v -23 0 0
v -22 -1 0
v -23 -1 0
v -23 0 0
v -22 0 0
v -21 -1 0
v -22 -1 0
v -22 0 0
v -21 0 0
v -20 -1 0
v -21 -1 0
v -21 0 0
v -20 0 0
v -19 -1 0
v -20 -1 0
v -20 0 0
v -19 0 0
v -18 -1 0
v -19 -1 0
v -19 0 0
v -18 0 0
v -17 -1 0
v -18 -1 0
v -18 0 0
v -17 0 0
v -16 -1 0
v -17 -1 0
v -17 0 0
v -16 0 0
v -13 -1 0
v -14 -1 0
v -14 0 0
v -13 0 0
v -12 -1 0
v -13 -1 0
v -13 0 0
v -12 0 0
v -11 -1 0
v -12 -1 0
v -12 0 0
v -11 0 0
v -10 -1 0
v -11 -1 0
v -11 0 0
v -10 0 0
v -43 -2 0
v -44 -2 0
v -44 -1 0
v -43 -1 0
v -42 -2 0
v -43 -2 0
v -43 -1 0
v -42 -1 0
v -41 -2 0
v -42 -2 0
v -42 -1 0
v -41 -1 0
v -40 -2 0
v -41 -2 0
v -41 -1 0
v -40 -1 0
v -34 -2 0
v -35 -2 0
v -35 -1 0
v -34 -1 0
v -33 -2 0
v -34 -2 0
v -34 -1 0
v -33 -1 0
v -32 -2 0
v -33 -2 0
v -33 -1 0
v -32 -1 0
v -31 -2 0
v -32 -2 0
v -32 -1 0
v -31 -1 0
v -23 -2 0
v -24 -2 0
v -24 -1 0
v -23 -1 0
v -22 -2 0
v -23 -2 0
v -23 -1 0
v -22 -1 0
v -21 -2 0
v -22 -2 0
v -22 -1 0
v -21 -1 0
v -20 -2 0
v -21 -2 0
v -21 -1 0
v -20 -1 0
v -19 -2 0
v -20 -2 0
v -20 -1 0
v -19 -1 0
v -18 -2 0
v -19 -2 0
v -19 -1 0
v -18 -1 0
v -17 -2 0
v -18 -2 0
v -18 -1 0
v -17 -1 0
v -16 -2 0
v -17 -2 0
v -17 -1 0
v -16 -1 0
v -13 -2 0
v -14 -2 0
v -14 -1 0
v -13 -1 0
v -12 -2 0
v -13 -2 0
v -13 -1 0
v -12 -1 0
v -11 -2 0
v -12 -2 0
v -12 -1 0
v -11 -1 0
v -10 -2 0
v -11 -2 0
v -11 -1 0
v -10 -1 0
v -43 -3 0
v -44 -3 0
v -44 -2 0
v -43 -2 0
v -42 -3 0
v -43 -3 0
v -43 -2 0
v -42 -2 0
v -41 -3 0
v -42 -3 0
v -42 -2 0
v -41 -2 0
v -40 -3 0
v -41 -3 0
v -41 -2 0
v -40 -2 0
v -23 -3 0
v -24 -3 0
v -24 -2 0
v -23 -2 0
v -22 -3 0
v -23 -3 0
v -23 -2 0
v -22 -2 0
v -21 -3 0
v -22 -3 0
v -22 -2 0
v -21 -2 0
v -20 -3 0
v -21 -3 0
v -21 -2 0
v -20 -2 0
v -43 -4 0
v -44 -4 0
v -44 -3 0
v -43 -3 0
v -42 -4 0
v -43 -4 0
v -43 -3 0
v -42 -3 0
v -41 -4 0
v -42 -4 0
v -42 -3 0
v -41 -3 0
v -40 -4 0
v -41 -4 0
v -41 -3 0
v -40 -3 0
v -17 -4 0
v -18 -4 0
v -18 -3 0
v -17 -3 0
v -16 -4 0
v -17 -4 0
v -17 -3 0
v -16 -3 0
v -15 -4 0
v -16 -4 0
v -16 -3 0
v -15 -3 0
v -14 -4 0
v -15 -4 0
v -15 -3 0
v -14 -3 0
v -17 -5 0
v -18 -5 0
v -18 -4 0
v -17 -4 0
v -16 -5 0
v -17 -5 0
v -17 -4 0
v -16 -4 0
v -15 -5 0
v -16 -5 0
v -16 -4 0
v -15 -4 0
v -14 -5 0
v -15 -5 0
v -15 -4 0
v -14 -4 0
v -17 -6 0
v -18 -6 0
v -18 -5 0
v -17 -5 0
v -16 -6 0
v -17 -6 0
v -17 -5 0
v -16 -5 0
v -15 -6 0
v -16 -6 0
v -16 -5 0
v -15 -5 0
v -14 -6 0
v -15 -6 0
v -15 -5 0
v -14 -5 0
v -22 -8 0
v -23 -8 0
v -23 -7 0
v -22 -7 0
v -21 -8 0
v -22 -8 0
v -22 -7 0
v -21 -7 0
v -20 -8 0
v -21 -8 0
v -21 -7 0
v -20 -7 0
v -19 -8 0
v -20 -8 0
v -20 -7 0
v -19 -7 0
v -36 -9 0
v -37 -9 0
v -37 -8 0
v -36 -8 0
v -35 -9 0
v -36 -9 0
v -36 -8 0
v -35 -8 0
v -34 -9 0
v -35 -9 0
v -35 -8 0
v -34 -8 0
v -33 -9 0
v -34 -9 0
v -34 -8 0
v -33 -8 0
v -22 -9 0
v -23 -9 0
v -23 -8 0
v -22 -8 0
v -21 -9 0
v -22 -9 0
v -22 -8 0
v -21 -8 0
v -20 -9 0
v -21 -9 0
v -21 -8 0
v -20 -8 0
v -19 -9 0
v -20 -9 0
v -20 -8 0
v -19 -8 0
v -49 -10 0
v -50 -10 0
v -50 -9 0
v -49 -9 0
v -48 -10 0
v -49 -10 0
v -49 -9 0
v -48 -9 0
v -47 -10 0
v -48 -10 0
v -48 -9 0
v -47 -9 0
v -46 -10 0
v -47 -10 0
v -47 -9 0
v -46 -9 0
v -36 -10 0
v -37 -10 0
v -37 -9 0
v -36 -9 0
v -35 -10 0
v -36 -10 0
v -36 -9 0
v -35 -9 0
v -34 -10 0
v -35 -10 0
v -35 -9 0
v -34 -9 0
v -33 -10 0
v -34 -10 0
v -34 -9 0
v -33 -9 0
v -32 -10 0
v -33 -10 0
v -33 -9 0
v -32 -9 0
v -31 -10 0
v -32 -10 0
v -32 -9 0
v -31 -9 0
v -30 -10 0
v -31 -10 0
v -31 -9 0
v -30 -9 0
v -22 -10 0
v -23 -10 0
v -23 -9 0
v -22 -9 0
v -21 -10 0
v -22 -10 0
v -22 -9 0
v -21 -9 0
v -20 -10 0
v -21 -10 0
v -21 -9 0
v -20 -9 0
v -19 -10 0
v -20 -10 0
v -20 -9 0
v -19 -9 0
v -49 -11 0
v -50 -11 0
v -50 -10 0
v -49 -10 0
v -48 -11 0
v -49 -11 0
v -49 -10 0
v -48 -10 0
v -47 -11 0
v -48 -11 0
v -48 -10 0
v -47 -10 0
v -46 -11 0
v -47 -11 0
v -47 -10 0
v -46 -10 0
v -36 -11 0
v -37 -11 0
v -37 -10 0
v -36 -10 0
v -35 -11 0
v -36 -11 0
v -36 -10 0
v -35 -10 0
v -34 -11 0
v -35 -11 0
v -35 -10 0
v -34 -10 0
v -33 -11 0
v -34 -11 0
v -34 -10 0
v -33 -10 0
v -49 -12 0
v -50 -12 0
v -50 -11 0
v -49 -11 0
v -48 -12 0
v -49 -12 0
v -49 -11 0
v -48 -11 0
v -47 -12 0
v -48 -12 0
v -48 -11 0
v -47 -11 0
v -46 -12 0
v -47 -12 0
v -47 -11 0
v -46 -11 0
v -25 -13 0
v -26 -13 0
v -26 -12 0
v -25 -12 0
v -24 -13 0
v -25 -13 0
v -25 -12 0
v -24 -12 0
v -23 -13 0
v -24 -13 0
v -24 -12 0
v -23 -12 0
v -22 -13 0
v -23 -13 0
v -23 -12 0
v -22 -12 0
v -15 -13 0
v -16 -13 0
v -16 -12 0
v -15 -12 0
v -14 -13 0
v -15 -13 0
v -15 -12 0
v -14 -12 0
v -13 -13 0
v -14 -13 0
v -14 -12 0
v -13 -12 0
v -12 -13 0
v -13 -13 0
v -13 -12 0
v -12 -12 0
v -15 -14 0
v -16 -14 0
v -16 -13 0
v -15 -13 0
v -14 -14 0
v -15 -14 0
v -15 -13 0
v -14 -13 0
v -13 -14 0
v -14 -14 0
v -14 -13 0
v -13 -13 0
v -12 -14 0
v -13 -14 0
v -13 -13 0
v -12 -13 0
v -15 -15 0
v -16 -15 0
v -16 -14 0
v -15 -14 0
v -14 -15 0
v -15 -15 0
v -15 -14 0
v -14 -14 0
v -13 -15 0
v -14 -15 0
v -14 -14 0
v -13 -14 0
v -12 -15 0
v -13 -15 0
v -13 -14 0
v -12 -14 0
v -6 -16 0
v -7 -16 0
v -7 -15 0
v -6 -15 0
v -5 -16 0
v -6 -16 0
v -6 -15 0
v -5 -15 0
v -4 -16 0
v -5 -16 0
v -5 -15 0
v -4 -15 0
v -3 -16 0
v -4 -16 0
v -4 -15 0
v -3 -15 0
v -45 -18 0
v -46 -18 0
v -46 -17 0
v -45 -17 0
v -44 -18 0
v -45 -18 0
v -45 -17 0
v -44 -17 0
v -27 -18 0
v -28 -18 0
v -28 -17 0
v -27 -17 0
v -26 -18 0
v -27 -18 0
v -27 -17 0
v -26 -17 0
v -8 -20 0
v -9 -20 0
v -9 -19 0
v -8 -19 0
v -7 -20 0
v -8 -20 0
v -8 -19 0
v -7 -19 0
v 0 -20 0
v -1 -20 0
v -1 -19 0
v 0 -19 0
v -24 -21 0
v -25 -21 0
v -25 -20 0
v -24 -20 0
v -23 -21 0
v -24 -21 0
v -24 -20 0
v -23 -20 0
v -22 -21 0
v -23 -21 0
v -23 -20 0
v -22 -20 0
v -21 -21 0
v -22 -21 0
v -22 -20 0
v -21 -20 0
v 0 -21 0
v -1 -21 0
v -1 -20 0
v 0 -20 0
v -24 -22 0
v -25 -22 0
v -25 -21 0
v -24 -21 0
v -23 -22 0
v -24 -22 0
v -24 -21 0
v -23 -21 0
v -22 -22 0
v -23 -22 0
v -23 -21 0
v -22 -21 0
v -21 -22 0
v -22 -22 0
v -22 -21 0
v -21 -21 0
v 0 -22 0
v -1 -22 0
v -1 -21 0
v 0 -21 0
v -24 -23 0
v -25 -23 0
v -25 -22 0
v -24 -22 0
v -23 -23 0
v -24 -23 0
v -24 -22 0
v -23 -22 0
v -22 -23 0
v -23 -23 0
v -23 -22 0
v -22 -22 0
v -21 -23 0
v -22 -23 0
v -22 -22 0
v -21 -22 0
v 0 -23 0
v -1 -23 0
v -1 -22 0
v 0 -22 0
v 0 -24 0
v -1 -24 0
v -1 -23 0
v 0 -23 0
v 0 -25 0
v -1 -25 0
v -1 -24 0
v 0 -24 0
v -42 -26 0
v -43 -26 0
v -43 -25 0
v -42 -25 0
v -41 -26 0
v -42 -26 0
v -42 -25 0
v -41 -25 0
v -40 -26 0
v -41 -26 0
v -41 -25 0
v -40 -25 0
v -39 -26 0
v -40 -26 0
v -40 -25 0
v -39 -25 0
v -6 -26 0
v -7 -26 0
v -7 -25 0
v -6 -25 0
v -5 -26 0
v -6 -26 0
v -6 -25 0
v -5 -25 0
v -4 -26 0
v -5 -26 0
v -5 -25 0
v -4 -25 0
v -3 -26 0
v -4 -26 0
v -4 -25 0
v -3 -25 0
v 0 -26 0
v -1 -26 0
v -1 -25 0
v 0 -25 0
v -42 -27 0
v -43 -27 0
v -43 -26 0
v -42 -26 0
v -41 -27 0
v -42 -27 0
v -42 -26 0
v -41 -26 0
v -40 -27 0
v -41 -27 0
v -41 -26 0
v -40 -26 0
v -39 -27 0
v -40 -27 0
v -40 -26 0
v -39 -26 0
v -19 -27 0
v -20 -27 0
v -20 -26 0
v -19 -26 0
v -18 -27 0
v -19 -27 0
v -19 -26 0
v -18 -26 0
v -17 -27 0
v -18 -27 0
v -18 -26 0
v -17 -26 0
v -16 -27 0
v -17 -27 0
v -17 -26 0
v -16 -26 0
v 0 -27 0
v -1 -27 0
v -1 -26 0
v 0 -26 0
v -49 -28 0
v -50 -28 0
v -50 -27 0
v -49 -27 0
v -42 -28 0
v -43 -28 0
v -43 -27 0
v -42 -27 0
v -41 -28 0
v -42 -28 0
v -42 -27 0
v -41 -27 0
v -40 -28 0
v -41 -28 0
v -41 -27 0
v -40 -27 0
v -39 -28 0
v -40 -28 0
v -40 -27 0
v -39 -27 0
v -19 -28 0
v -20 -28 0
v -20 -27 0
v -19 -27 0
v -18 -28 0
v -19 -28 0
v -19 -27 0
v -18 -27 0
v -17 -28 0
v -18 -28 0
v -18 -27 0
v -17 -27 0
v -16 -28 0
v -17 -28 0
v -17 -27 0
v -16 -27 0
v -14 -28 0
v -15 -28 0
v -15 -27 0
v -14 -27 0
v -13 -28 0
v -14 -28 0
v -14 -27 0
v -13 -27 0
v 0 -28 0
v -1 -28 0
v -1 -27 0
v 0 -27 0
v -49 -29 0
v -50 -29 0
v -50 -28 0
v -49 -28 0
v -19 -29 0
v -20 -29 0
v -20 -28 0
v -19 -28 0
v -18 -29 0
v -19 -29 0
v -19 -28 0
v -18 -28 0
v -17 -29 0
v -18 -29 0
v -18 -28 0
v -17 -28 0
v -16 -29 0
v -17 -29 0
v -17 -28 0
v -16 -28 0
v 0 -29 0
v -1 -29 0
v -1 -28 0
v 0 -28 0
v -49 -30 0
v -50 -30 0
v -50 -29 0
v -49 -29 0
v -34 -30 0
v -35 -30 0
v -35 -29 0
v -34 -29 0
v -33 -30 0
v -34 -30 0
v -34 -29 0
v -33 -29 0
v -32 -30 0
v -33 -30 0
v -33 -29 0
v -32 -29 0
v -31 -30 0
v -32 -30 0
v -32 -29 0
v -31 -29 0
v 0 -30 0
v -1 -30 0
v -1 -29 0
v 0 -29 0
v -49 -31 0
v -50 -31 0
v -50 -30 0
v -49 -30 0
v -34 -31 0
v -35 -31 0
v -35 -30 0
v -34 -30 0
v -33 -31 0
v -34 -31 0
v -34 -30 0
v -33 -30 0
v -32 -31 0
v -33 -31 0
v -33 -30 0
v -32 -30 0
v -31 -31 0
v -32 -31 0
v -32 -30 0
v -31 -30 0
v 0 -31 0
v -1 -31 0
v -1 -30 0
v 0 -30 0
v -49 -32 0
v -50 -32 0
v -50 -31 0
v -49 -31 0
v -34 -32 0
v -35 -32 0
v -35 -31 0
v -34 -31 0
v -33 -32 0
v -34 -32 0
v -34 -31 0
v -33 -31 0
v -32 -32 0
v -33 -32 0
v -33 -31 0
v -32 -31 0
v -31 -32 0
v -32 -32 0
v -32 -31 0
v -31 -31 0
v 0 -32 0
v -1 -32 0
v -1 -31 0
v 0 -31 0
v -49 -33 0
v -50 -33 0
v -50 -32 0
v -49 -32 0
v 0 -33 0
v -1 -33 0
v -1 -32 0
v 0 -32 0
v -49 -34 0
v -50 -34 0
v -50 -33 0
v -49 -33 0
v 0 -34 0
v -1 -34 0
v -1 -33 0
v 0 -33 0
v -49 -35 0
v -50 -35 0
v -50 -34 0
v -49 -34 0
v -41 -35 0
v -42 -35 0
v -42 -34 0
v -41 -34 0
v -40 -35 0
v -41 -35 0
v -41 -34 0
v -40 -34 0
v 0 -35 0
v -1 -35 0
v -1 -34 0
v 0 -34 0
v -49 -36 0
v -50 -36 0
v -50 -35 0
v -49 -35 0
v 0 -36 0
v -1 -36 0
v -1 -35 0
v 0 -35 0
v -49 -37 0
v -50 -37 0
v -50 -36 0
v -49 -36 0
v -15 -37 0
v -16 -37 0
v -16 -36 0
v -15 -36 0
v -14 -37 0
v -15 -37 0
v -15 -36 0
v -14 -36 0
v 0 -37 0
v -1 -37 0
v -1 -36 0
v 0 -36 0
v -49 -38 0
v -50 -38 0
v -50 -37 0
v -49 -37 0
v -23 -38 0
v -24 -38 0
v -24 -37 0
v -23 -37 0
v -22 -38 0
v -23 -38 0
v -23 -37 0
v -22 -37 0
v -16 -38 0
v -17 -38 0
v -17 -37 0
v -16 -37 0
v -15 -38 0
v -16 -38 0
v -16 -37 0
v -15 -37 0
v -14 -38 0
v -15 -38 0
v -15 -37 0
v -14 -37 0
v -13 -38 0
v -14 -38 0
v -14 -37 0
v -13 -37 0
v 0 -38 0
v -1 -38 0
v -1 -37 0
v 0 -37 0
v -49 -39 0
v -50 -39 0
v -50 -38 0
v -49 -38 0
v -16 -39 0
v -17 -39 0
v -17 -38 0
v -16 -38 0
v -15 -39 0
v -16 -39 0
v -16 -38 0
v -15 -38 0
v -14 -39 0
v -15 -39 0
v -15 -38 0
v -14 -38 0
v -13 -39 0
v -14 -39 0
v -14 -38 0
v -13 -38 0
v 0 -39 0
v -1 -39 0
v -1 -38 0
v 0 -38 0
v -13 -40 0
v -14 -40 0
v -14 -39 0
v -13 -39 0
v 0 -40 0
v -1 -40 0
v -1 -39 0
v 0 -39 0

# Texture cooridinates (Count = 100)
vt 0.0625408 0.05567765
vt 0.0831029 0.05567765
vt 0.0831029 0.08321124
vt 0.0625408 0.08321124
vt 0.04173455 0.05567765
vt 0.06229666 0.05567765
vt 0.06229666 0.08321124
vt 0.04173455 0.08321124
vt 0.02092831 0.05567765
vt 0.04149041 0.05567765
vt 0.04149041 0.08321124
vt 0.02092831 0.08321124
vt 0.0001220703 0.05567765
vt 0.02068417 0.05567765
vt 0.02068417 0.08321124
vt 0.0001220703 0.08321124
vt 0.0625408 0.08345538
vt 0.0831029 0.08345538
vt 0.0831029 0.110989
vt 0.0625408 0.110989
vt 0.04173455 0.08345538
vt 0.06229666 0.08345538
vt 0.06229666 0.110989
vt 0.04173455 0.110989
vt 0.02092831 0.08345538
vt 0.04149041 0.08345538
vt 0.04149041 0.110989
vt 0.02092831 0.110989
vt 0.0001220703 0.08345538
vt 0.02068417 0.08345538
vt 0.02068417 0.110989
vt 0.0001220703 0.110989
vt 0.0625408 0.02789986
vt 0.0831029 0.02789986
vt 0.0831029 0.05543351
vt 0.0625408 0.05543351
vt 0.04173455 0.02789986
vt 0.06229666 0.02789986
vt 0.06229666 0.05543351
vt 0.04173455 0.05543351
vt 0.02092831 0.02789986
vt 0.04149041 0.02789986
vt 0.04149041 0.05543351
vt 0.02092831 0.05543351
vt 0.0001220703 0.02789986
vt 0.02068417 0.02789986
vt 0.02068417 0.05543351
vt 0.0001220703 0.05543351
vt 0.2081845 0.6667887
vt 0.2287466 0.6667887
vt 0.2287466 0.6943223
vt 0.2081845 0.6943223
vt 0.1873782 0.6667887
vt 0.2079404 0.6667887
vt 0.2079404 0.6943223
vt 0.1873782 0.6943223
vt 0.04173455 0.5834554
vt 0.06229666 0.5834554
vt 0.06229666 0.610989
vt 0.04173455 0.610989
vt 0.3330219 0.1667888
vt 0.3535841 0.1667888
vt 0.3535841 0.1943223
vt 0.3330219 0.1943223
vt 0.3122157 0.1667888
vt 0.3327778 0.1667888
vt 0.3327778 0.1943223
vt 0.3122157 0.1943223
vt 0.3538282 0.139011
vt 0.3743903 0.139011
vt 0.3743903 0.1665446
vt 0.3538282 0.1665446
vt 0.3330219 0.139011
vt 0.3535841 0.139011
vt 0.3535841 0.1665446
vt 0.3330219 0.1665446
vt 0.3122157 0.139011
vt 0.3327778 0.139011
vt 0.3327778 0.1665446
vt 0.3122157 0.1665446
vt 0.2914095 0.139011
vt 0.3119715 0.139011
vt 0.3119715 0.1665446
vt 0.2914095 0.1665446
vt 0.3538282 0.1112332
vt 0.3743903 0.1112332
vt 0.3743903 0.1387668
vt 0.3538282 0.1387668
vt 0.3330219 0.1112332
vt 0.3535841 0.1112332
vt 0.3535841 0.1387668
vt 0.3330219 0.1387668
vt 0.3122157 0.1112332
vt 0.3327778 0.1112332
vt 0.3327778 0.1387668
vt 0.3122157 0.1387668
vt 0.2914095 0.1112332
vt 0.3119715 0.1112332
vt 0.3119715 0.1387668
vt 0.2914095 0.1387668

# Normal
vn 0 0 -1

# Mesh description
g BankoSentral_mesh_0006

# Faces
f 1/1/1 2/2/1 3/3/1 4/4/1
f 5/5/1 6/6/1 7/7/1 8/8/1
f 9/9/1 10/10/1 11/11/1 12/12/1
f 13/13/1 14/14/1 15/15/1 16/16/1
f 17/17/1 18/18/1 19/19/1 20/20/1
f 21/21/1 22/22/1 23/23/1 24/24/1
f 25/25/1 26/26/1 27/27/1 28/28/1
f 29/29/1 30/30/1 31/31/1 32/32/1
f 33/1/1 34/2/1 35/3/1 36/4/1
f 37/5/1 38/6/1 39/7/1 40/8/1
f 41/9/1 42/10/1 43/11/1 44/12/1
f 45/13/1 46/14/1 47/15/1 48/16/1
f 49/1/1 50/2/1 51/3/1 52/4/1
f 53/5/1 54/6/1 55/7/1 56/8/1
f 57/9/1 58/10/1 59/11/1 60/12/1
f 61/13/1 62/14/1 63/15/1 64/16/1
f 65/17/1 66/18/1 67/19/1 68/20/1
f 69/21/1 70/22/1 71/23/1 72/24/1
f 73/25/1 74/26/1 75/27/1 76/28/1
f 77/29/1 78/30/1 79/31/1 80/32/1
f 81/33/1 82/34/1 83/35/1 84/36/1
f 85/37/1 86/38/1 87/39/1 88/40/1
f 89/41/1 90/42/1 91/43/1 92/44/1
f 93/45/1 94/46/1 95/47/1 96/48/1
f 97/1/1 98/2/1 99/3/1 100/4/1
f 101/5/1 102/6/1 103/7/1 104/8/1
f 105/9/1 106/10/1 107/11/1 108/12/1
f 109/13/1 110/14/1 111/15/1 112/16/1
f 113/33/1 114/34/1 115/35/1 116/36/1
f 117/37/1 118/38/1 119/39/1 120/40/1
f 121/41/1 122/42/1 123/43/1 124/44/1
f 125/45/1 126/46/1 127/47/1 128/48/1
f 129/33/1 130/34/1 131/35/1 132/36/1
f 133/37/1 134/38/1 135/39/1 136/40/1
f 137/41/1 138/42/1 139/43/1 140/44/1
f 141/45/1 142/46/1 143/47/1 144/48/1
f 145/1/1 146/2/1 147/3/1 148/4/1
f 149/5/1 150/6/1 151/7/1 152/8/1
f 153/9/1 154/10/1 155/11/1 156/12/1
f 157/13/1 158/14/1 159/15/1 160/16/1
f 161/33/1 162/34/1 163/35/1 164/36/1
f 165/37/1 166/38/1 167/39/1 168/40/1
f 169/41/1 170/42/1 171/43/1 172/44/1
f 173/45/1 174/46/1 175/47/1 176/48/1
f 177/33/1 178/34/1 179/35/1 180/36/1
f 181/37/1 182/38/1 183/39/1 184/40/1
f 185/41/1 186/42/1 187/43/1 188/44/1
f 189/45/1 190/46/1 191/47/1 192/48/1
f 193/17/1 194/18/1 195/19/1 196/20/1
f 197/21/1 198/22/1 199/23/1 200/24/1
f 201/25/1 202/26/1 203/27/1 204/28/1
f 205/29/1 206/30/1 207/31/1 208/32/1
f 209/1/1 210/2/1 211/3/1 212/4/1
f 213/5/1 214/6/1 215/7/1 216/8/1
f 217/9/1 218/10/1 219/11/1 220/12/1
f 221/13/1 222/14/1 223/15/1 224/16/1
f 225/33/1 226/34/1 227/35/1 228/36/1
f 229/37/1 230/38/1 231/39/1 232/40/1
f 233/41/1 234/42/1 235/43/1 236/44/1
f 237/45/1 238/46/1 239/47/1 240/48/1
f 241/17/1 242/18/1 243/19/1 244/20/1
f 245/21/1 246/22/1 247/23/1 248/24/1
f 249/25/1 250/26/1 251/27/1 252/28/1
f 253/29/1 254/30/1 255/31/1 256/32/1
f 257/17/1 258/18/1 259/19/1 260/20/1
f 261/21/1 262/22/1 263/23/1 264/24/1
f 265/25/1 266/26/1 267/27/1 268/28/1
f 269/29/1 270/30/1 271/31/1 272/32/1
f 273/1/1 274/2/1 275/3/1 276/4/1
f 277/5/1 278/6/1 279/7/1 280/8/1
f 281/9/1 282/10/1 283/11/1 284/12/1
f 285/13/1 286/14/1 287/15/1 288/16/1
f 289/17/1 290/18/1 291/19/1 292/20/1
f 293/21/1 294/22/1 295/23/1 296/24/1
f 297/25/1 298/26/1 299/27/1 300/28/1
f 301/29/1 302/30/1 303/31/1 304/32/1
f 305/1/1 306/2/1 307/3/1 308/4/1
f 309/5/1 310/6/1 311/7/1 312/8/1
f 313/9/1 314/10/1 315/11/1 316/12/1
f 317/13/1 318/14/1 319/15/1 320/16/1
f 321/21/1 322/22/1 323/23/1 324/24/1
f 325/25/1 326/26/1 327/27/1 328/28/1
f 329/29/1 330/30/1 331/31/1 332/32/1
f 333/33/1 334/34/1 335/35/1 336/36/1
f 337/37/1 338/38/1 339/39/1 340/40/1
f 341/41/1 342/42/1 343/43/1 344/44/1
f 345/45/1 346/46/1 347/47/1 348/48/1
f 349/1/1 350/2/1 351/3/1 352/4/1
f 353/5/1 354/6/1 355/7/1 356/8/1
f 357/9/1 358/10/1 359/11/1 360/12/1
f 361/13/1 362/14/1 363/15/1 364/16/1
f 365/33/1 366/34/1 367/35/1 368/36/1
f 369/37/1 370/38/1 371/39/1 372/40/1
f 373/41/1 374/42/1 375/43/1 376/44/1
f 377/45/1 378/46/1 379/47/1 380/48/1
f 381/33/1 382/34/1 383/35/1 384/36/1
f 385/37/1 386/38/1 387/39/1 388/40/1
f 389/41/1 390/42/1 391/43/1 392/44/1
f 393/45/1 394/46/1 395/47/1 396/48/1
f 397/17/1 398/18/1 399/19/1 400/20/1
f 401/21/1 402/22/1 403/23/1 404/24/1
f 405/25/1 406/26/1 407/27/1 408/28/1
f 409/29/1 410/30/1 411/31/1 412/32/1
f 413/17/1 414/18/1 415/19/1 416/20/1
f 417/21/1 418/22/1 419/23/1 420/24/1
f 421/25/1 422/26/1 423/27/1 424/28/1
f 425/29/1 426/30/1 427/31/1 428/32/1
f 429/1/1 430/2/1 431/3/1 432/4/1
f 433/5/1 434/6/1 435/7/1 436/8/1
f 437/9/1 438/10/1 439/11/1 440/12/1
f 441/13/1 442/14/1 443/15/1 444/16/1
f 445/33/1 446/34/1 447/35/1 448/36/1
f 449/37/1 450/38/1 451/39/1 452/40/1
f 453/41/1 454/42/1 455/43/1 456/44/1
f 457/45/1 458/46/1 459/47/1 460/48/1
f 461/17/1 462/18/1 463/19/1 464/20/1
f 465/21/1 466/22/1 467/23/1 468/24/1
f 469/25/1 470/26/1 471/27/1 472/28/1
f 473/29/1 474/30/1 475/31/1 476/32/1
f 477/49/1 478/50/1 479/51/1 480/52/1
f 481/53/1 482/54/1 483/55/1 484/56/1
f 485/49/1 486/50/1 487/51/1 488/52/1
f 489/53/1 490/54/1 491/55/1 492/56/1
f 493/49/1 494/50/1 495/51/1 496/52/1
f 497/53/1 498/54/1 499/55/1 500/56/1
f 501/57/1 502/58/1 503/59/1 504/60/1
f 505/17/1 506/18/1 507/19/1 508/20/1
f 509/21/1 510/22/1 511/23/1 512/24/1
f 513/25/1 514/26/1 515/27/1 516/28/1
f 517/29/1 518/30/1 519/31/1 520/32/1
f 521/57/1 522/58/1 523/59/1 524/60/1
f 525/1/1 526/2/1 527/3/1 528/4/1
f 529/5/1 530/6/1 531/7/1 532/8/1
f 533/9/1 534/10/1 535/11/1 536/12/1
f 537/13/1 538/14/1 539/15/1 540/16/1
f 541/57/1 542/58/1 543/59/1 544/60/1
f 545/33/1 546/34/1 547/35/1 548/36/1
f 549/37/1 550/38/1 551/39/1 552/40/1
f 553/41/1 554/42/1 555/43/1 556/44/1
f 557/45/1 558/46/1 559/47/1 560/48/1
f 561/57/1 562/58/1 563/59/1 564/60/1
f 565/57/1 566/58/1 567/59/1 568/60/1
f 569/57/1 570/58/1 571/59/1 572/60/1
f 573/17/1 574/18/1 575/19/1 576/20/1
f 577/21/1 578/22/1 579/23/1 580/24/1
f 581/25/1 582/26/1 583/27/1 584/28/1
f 585/29/1 586/30/1 587/31/1 588/32/1
f 589/17/1 590/18/1 591/19/1 592/20/1
f 593/21/1 594/22/1 595/23/1 596/24/1
f 597/25/1 598/26/1 599/27/1 600/28/1
f 601/29/1 602/30/1 603/31/1 604/32/1
f 605/57/1 606/58/1 607/59/1 608/60/1
f 609/1/1 610/2/1 611/3/1 612/4/1
f 613/5/1 614/6/1 615/7/1 616/8/1
f 617/9/1 618/10/1 619/11/1 620/12/1
f 621/13/1 622/14/1 623/15/1 624/16/1
f 625/17/1 626/18/1 627/19/1 628/20/1
f 629/21/1 630/22/1 631/23/1 632/24/1
f 633/25/1 634/26/1 635/27/1 636/28/1
f 637/29/1 638/30/1 639/31/1 640/32/1
f 641/57/1 642/58/1 643/59/1 644/60/1
f 645/57/1 646/58/1 647/59/1 648/60/1
f 649/33/1 650/34/1 651/35/1 652/36/1
f 653/37/1 654/38/1 655/39/1 656/40/1
f 657/41/1 658/42/1 659/43/1 660/44/1
f 661/45/1 662/46/1 663/47/1 664/48/1
f 665/1/1 666/2/1 667/3/1 668/4/1
f 669/5/1 670/6/1 671/7/1 672/8/1
f 673/9/1 674/10/1 675/11/1 676/12/1
f 677/13/1 678/14/1 679/15/1 680/16/1
f 681/49/1 682/50/1 683/51/1 684/52/1
f 685/53/1 686/54/1 687/55/1 688/56/1
f 689/57/1 690/58/1 691/59/1 692/60/1
f 693/57/1 694/58/1 695/59/1 696/60/1
f 697/33/1 698/34/1 699/35/1 700/36/1
f 701/37/1 702/38/1 703/39/1 704/40/1
f 705/41/1 706/42/1 707/43/1 708/44/1
f 709/45/1 710/46/1 711/47/1 712/48/1
f 713/57/1 714/58/1 715/59/1 716/60/1
f 717/57/1 718/58/1 719/59/1 720/60/1
f 721/17/1 722/18/1 723/19/1 724/20/1
f 725/21/1 726/22/1 727/23/1 728/24/1
f 729/25/1 730/26/1 731/27/1 732/28/1
f 733/29/1 734/30/1 735/31/1 736/32/1
f 737/57/1 738/58/1 739/59/1 740/60/1
f 741/57/1 742/58/1 743/59/1 744/60/1
f 745/1/1 746/2/1 747/3/1 748/4/1
f 749/5/1 750/6/1 751/7/1 752/8/1
f 753/9/1 754/10/1 755/11/1 756/12/1
f 757/13/1 758/14/1 759/15/1 760/16/1
f 761/57/1 762/58/1 763/59/1 764/60/1
f 765/57/1 766/58/1 767/59/1 768/60/1
f 769/33/1 770/34/1 771/35/1 772/36/1
f 773/37/1 774/38/1 775/39/1 776/40/1
f 777/41/1 778/42/1 779/43/1 780/44/1
f 781/45/1 782/46/1 783/47/1 784/48/1
f 785/57/1 786/58/1 787/59/1 788/60/1
f 789/57/1 790/58/1 791/59/1 792/60/1
f 793/57/1 794/58/1 795/59/1 796/60/1
f 797/57/1 798/58/1 799/59/1 800/60/1
f 801/57/1 802/58/1 803/59/1 804/60/1
f 805/57/1 806/58/1 807/59/1 808/60/1
f 809/49/1 810/50/1 811/51/1 812/52/1
f 813/53/1 814/54/1 815/55/1 816/56/1
f 817/57/1 818/58/1 819/59/1 820/60/1
f 821/57/1 822/58/1 823/59/1 824/60/1
f 825/57/1 826/58/1 827/59/1 828/60/1
f 829/57/1 830/58/1 831/59/1 832/60/1
f 833/61/1 834/62/1 835/63/1 836/64/1
f 837/65/1 838/66/1 839/67/1 840/68/1
f 841/57/1 842/58/1 843/59/1 844/60/1
f 845/57/1 846/58/1 847/59/1 848/60/1
f 849/49/1 850/50/1 851/51/1 852/52/1
f 853/53/1 854/54/1 855/55/1 856/56/1
f 857/69/1 858/70/1 859/71/1 860/72/1
f 861/73/1 862/74/1 863/75/1 864/76/1
f 865/77/1 866/78/1 867/79/1 868/80/1
f 869/81/1 870/82/1 871/83/1 872/84/1
f 873/57/1 874/58/1 875/59/1 876/60/1
f 877/57/1 878/58/1 879/59/1 880/60/1
f 881/85/1 882/86/1 883/87/1 884/88/1
f 885/89/1 886/90/1 887/91/1 888/92/1
f 889/93/1 890/94/1 891/95/1 892/96/1
f 893/97/1 894/98/1 895/99/1 896/100/1
f 897/57/1 898/58/1 899/59/1 900/60/1
f 901/57/1 902/58/1 903/59/1 904/60/1
f 905/57/1 906/58/1 907/59/1 908/60/1

