# Tiled2Unity generated file. Do not modify by hand.
# Wavefront file for 'BankoSentral_mesh_0002.obj'

# Vertices (Count = 812)
v -34 -5 0
v -35 -5 0
v -35 -4 0
v -34 -4 0
v -33 -5 0
v -34 -5 0
v -34 -4 0
v -33 -4 0
v -32 -5 0
v -33 -5 0
v -33 -4 0
v -32 -4 0
v -31 -5 0
v -32 -5 0
v -32 -4 0
v -31 -4 0
v -34 -6 0
v -35 -6 0
v -35 -5 0
v -34 -5 0
v -33 -6 0
v -34 -6 0
v -34 -5 0
v -33 -5 0
v -32 -6 0
v -33 -6 0
v -33 -5 0
v -32 -5 0
v -31 -6 0
v -32 -6 0
v -32 -5 0
v -31 -5 0
v -18 -6 0
v -19 -6 0
v -19 -5 0
v -18 -5 0
v -17 -6 0
v -18 -6 0
v -18 -5 0
v -17 -5 0
v -16 -6 0
v -17 -6 0
v -17 -5 0
v -16 -5 0
v -15 -6 0
v -16 -6 0
v -16 -5 0
v -15 -5 0
v -34 -7 0
v -35 -7 0
v -35 -6 0
v -34 -6 0
v -33 -7 0
v -34 -7 0
v -34 -6 0
v -33 -6 0
v -32 -7 0
v -33 -7 0
v -33 -6 0
v -32 -6 0
v -31 -7 0
v -32 -7 0
v -32 -6 0
v -31 -6 0
v -18 -7 0
v -19 -7 0
v -19 -6 0
v -18 -6 0
v -17 -7 0
v -18 -7 0
v -18 -6 0
v -17 -6 0
v -16 -7 0
v -17 -7 0
v -17 -6 0
v -16 -6 0
v -15 -7 0
v -16 -7 0
v -16 -6 0
v -15 -6 0
v -5 -7 0
v -6 -7 0
v -6 -6 0
v -5 -6 0
v -4 -7 0
v -5 -7 0
v -5 -6 0
v -4 -6 0
v -3 -7 0
v -4 -7 0
v -4 -6 0
v -3 -6 0
v -2 -7 0
v -3 -7 0
v -3 -6 0
v -2 -6 0
v -34 -8 0
v -35 -8 0
v -35 -7 0
v -34 -7 0
v -33 -8 0
v -34 -8 0
v -34 -7 0
v -33 -7 0
v -32 -8 0
v -33 -8 0
v -33 -7 0
v -32 -7 0
v -31 -8 0
v -32 -8 0
v -32 -7 0
v -31 -7 0
v -18 -8 0
v -19 -8 0
v -19 -7 0
v -18 -7 0
v -17 -8 0
v -18 -8 0
v -18 -7 0
v -17 -7 0
v -16 -8 0
v -17 -8 0
v -17 -7 0
v -16 -7 0
v -15 -8 0
v -16 -8 0
v -16 -7 0
v -15 -7 0
v -5 -8 0
v -6 -8 0
v -6 -7 0
v -5 -7 0
v -4 -8 0
v -5 -8 0
v -5 -7 0
v -4 -7 0
v -3 -8 0
v -4 -8 0
v -4 -7 0
v -3 -7 0
v -2 -8 0
v -3 -8 0
v -3 -7 0
v -2 -7 0
v -18 -9 0
v -19 -9 0
v -19 -8 0
v -18 -8 0
v -17 -9 0
v -18 -9 0
v -18 -8 0
v -17 -8 0
v -16 -9 0
v -17 -9 0
v -17 -8 0
v -16 -8 0
v -15 -9 0
v -16 -9 0
v -16 -8 0
v -15 -8 0
v -5 -9 0
v -6 -9 0
v -6 -8 0
v -5 -8 0
v -4 -9 0
v -5 -9 0
v -5 -8 0
v -4 -8 0
v -3 -9 0
v -4 -9 0
v -4 -8 0
v -3 -8 0
v -2 -9 0
v -3 -9 0
v -3 -8 0
v -2 -8 0
v -37 -10 0
v -38 -10 0
v -38 -9 0
v -37 -9 0
v -36 -10 0
v -37 -10 0
v -37 -9 0
v -36 -9 0
v -35 -10 0
v -36 -10 0
v -36 -9 0
v -35 -9 0
v -34 -10 0
v -35 -10 0
v -35 -9 0
v -34 -9 0
v -5 -10 0
v -6 -10 0
v -6 -9 0
v -5 -9 0
v -4 -10 0
v -5 -10 0
v -5 -9 0
v -4 -9 0
v -3 -10 0
v -4 -10 0
v -4 -9 0
v -3 -9 0
v -2 -10 0
v -3 -10 0
v -3 -9 0
v -2 -9 0
v -37 -11 0
v -38 -11 0
v -38 -10 0
v -37 -10 0
v -36 -11 0
v -37 -11 0
v -37 -10 0
v -36 -10 0
v -35 -11 0
v -36 -11 0
v -36 -10 0
v -35 -10 0
v -34 -11 0
v -35 -11 0
v -35 -10 0
v -34 -10 0
v -37 -12 0
v -38 -12 0
v -38 -11 0
v -37 -11 0
v -36 -12 0
v -37 -12 0
v -37 -11 0
v -36 -11 0
v -35 -12 0
v -36 -12 0
v -36 -11 0
v -35 -11 0
v -34 -12 0
v -35 -12 0
v -35 -11 0
v -34 -11 0
v -37 -13 0
v -38 -13 0
v -38 -12 0
v -37 -12 0
v -36 -13 0
v -37 -13 0
v -37 -12 0
v -36 -12 0
v -35 -13 0
v -36 -13 0
v -36 -12 0
v -35 -12 0
v -34 -13 0
v -35 -13 0
v -35 -12 0
v -34 -12 0
v -33 -13 0
v -34 -13 0
v -34 -12 0
v -33 -12 0
v -14 -13 0
v -15 -13 0
v -15 -12 0
v -14 -12 0
v -13 -13 0
v -14 -13 0
v -14 -12 0
v -13 -12 0
v -34 -14 0
v -35 -14 0
v -35 -13 0
v -34 -13 0
v -33 -14 0
v -34 -14 0
v -34 -13 0
v -33 -13 0
v -32 -14 0
v -33 -14 0
v -33 -13 0
v -32 -13 0
v -31 -14 0
v -32 -14 0
v -32 -13 0
v -31 -13 0
v -16 -14 0
v -17 -14 0
v -17 -13 0
v -16 -13 0
v -15 -14 0
v -16 -14 0
v -16 -13 0
v -15 -13 0
v -14 -14 0
v -15 -14 0
v -15 -13 0
v -14 -13 0
v -13 -14 0
v -14 -14 0
v -14 -13 0
v -13 -13 0
v -34 -15 0
v -35 -15 0
v -35 -14 0
v -34 -14 0
v -33 -15 0
v -34 -15 0
v -34 -14 0
v -33 -14 0
v -32 -15 0
v -33 -15 0
v -33 -14 0
v -32 -14 0
v -31 -15 0
v -32 -15 0
v -32 -14 0
v -31 -14 0
v -16 -15 0
v -17 -15 0
v -17 -14 0
v -16 -14 0
v -15 -15 0
v -16 -15 0
v -16 -14 0
v -15 -14 0
v -34 -16 0
v -35 -16 0
v -35 -15 0
v -34 -15 0
v -33 -16 0
v -34 -16 0
v -34 -15 0
v -33 -15 0
v -48 -21 0
v -49 -21 0
v -49 -20 0
v -48 -20 0
v -47 -21 0
v -48 -21 0
v -48 -20 0
v -47 -20 0
v -46 -21 0
v -47 -21 0
v -47 -20 0
v -46 -20 0
v -45 -21 0
v -46 -21 0
v -46 -20 0
v -45 -20 0
v -48 -22 0
v -49 -22 0
v -49 -21 0
v -48 -21 0
v -47 -22 0
v -48 -22 0
v -48 -21 0
v -47 -21 0
v -46 -22 0
v -47 -22 0
v -47 -21 0
v -46 -21 0
v -45 -22 0
v -46 -22 0
v -46 -21 0
v -45 -21 0
v -48 -23 0
v -49 -23 0
v -49 -22 0
v -48 -22 0
v -47 -23 0
v -48 -23 0
v -48 -22 0
v -47 -22 0
v -46 -23 0
v -47 -23 0
v -47 -22 0
v -46 -22 0
v -45 -23 0
v -46 -23 0
v -46 -22 0
v -45 -22 0
v -18 -23 0
v -19 -23 0
v -19 -22 0
v -18 -22 0
v -17 -23 0
v -18 -23 0
v -18 -22 0
v -17 -22 0
v -16 -23 0
v -17 -23 0
v -17 -22 0
v -16 -22 0
v -15 -23 0
v -16 -23 0
v -16 -22 0
v -15 -22 0
v -48 -24 0
v -49 -24 0
v -49 -23 0
v -48 -23 0
v -47 -24 0
v -48 -24 0
v -48 -23 0
v -47 -23 0
v -46 -24 0
v -47 -24 0
v -47 -23 0
v -46 -23 0
v -45 -24 0
v -46 -24 0
v -46 -23 0
v -45 -23 0
v -18 -24 0
v -19 -24 0
v -19 -23 0
v -18 -23 0
v -17 -24 0
v -18 -24 0
v -18 -23 0
v -17 -23 0
v -16 -24 0
v -17 -24 0
v -17 -23 0
v -16 -23 0
v -15 -24 0
v -16 -24 0
v -16 -23 0
v -15 -23 0
v -8 -24 0
v -9 -24 0
v -9 -23 0
v -8 -23 0
v -7 -24 0
v -8 -24 0
v -8 -23 0
v -7 -23 0
v -6 -24 0
v -7 -24 0
v -7 -23 0
v -6 -23 0
v -5 -24 0
v -6 -24 0
v -6 -23 0
v -5 -23 0
v -18 -25 0
v -19 -25 0
v -19 -24 0
v -18 -24 0
v -17 -25 0
v -18 -25 0
v -18 -24 0
v -17 -24 0
v -16 -25 0
v -17 -25 0
v -17 -24 0
v -16 -24 0
v -15 -25 0
v -16 -25 0
v -16 -24 0
v -15 -24 0
v -8 -25 0
v -9 -25 0
v -9 -24 0
v -8 -24 0
v -7 -25 0
v -8 -25 0
v -8 -24 0
v -7 -24 0
v -6 -25 0
v -7 -25 0
v -7 -24 0
v -6 -24 0
v -5 -25 0
v -6 -25 0
v -6 -24 0
v -5 -24 0
v -18 -26 0
v -19 -26 0
v -19 -25 0
v -18 -25 0
v -17 -26 0
v -18 -26 0
v -18 -25 0
v -17 -25 0
v -16 -26 0
v -17 -26 0
v -17 -25 0
v -16 -25 0
v -15 -26 0
v -16 -26 0
v -16 -25 0
v -15 -25 0
v -8 -26 0
v -9 -26 0
v -9 -25 0
v -8 -25 0
v -7 -26 0
v -8 -26 0
v -8 -25 0
v -7 -25 0
v -6 -26 0
v -7 -26 0
v -7 -25 0
v -6 -25 0
v -5 -26 0
v -6 -26 0
v -6 -25 0
v -5 -25 0
v -43 -27 0
v -44 -27 0
v -44 -26 0
v -43 -26 0
v -42 -27 0
v -43 -27 0
v -43 -26 0
v -42 -26 0
v -8 -27 0
v -9 -27 0
v -9 -26 0
v -8 -26 0
v -7 -27 0
v -8 -27 0
v -8 -26 0
v -7 -26 0
v -6 -27 0
v -7 -27 0
v -7 -26 0
v -6 -26 0
v -5 -27 0
v -6 -27 0
v -6 -26 0
v -5 -26 0
v -43 -28 0
v -44 -28 0
v -44 -27 0
v -43 -27 0
v -42 -28 0
v -43 -28 0
v -43 -27 0
v -42 -27 0
v -45 -29 0
v -46 -29 0
v -46 -28 0
v -45 -28 0
v -44 -29 0
v -45 -29 0
v -45 -28 0
v -44 -28 0
v -45 -30 0
v -46 -30 0
v -46 -29 0
v -45 -29 0
v -44 -30 0
v -45 -30 0
v -45 -29 0
v -44 -29 0
v -15 -30 0
v -16 -30 0
v -16 -29 0
v -15 -29 0
v -14 -30 0
v -15 -30 0
v -15 -29 0
v -14 -29 0
v -27 -31 0
v -28 -31 0
v -28 -30 0
v -27 -30 0
v -26 -31 0
v -27 -31 0
v -27 -30 0
v -26 -30 0
v -25 -31 0
v -26 -31 0
v -26 -30 0
v -25 -30 0
v -24 -31 0
v -25 -31 0
v -25 -30 0
v -24 -30 0
v -17 -31 0
v -18 -31 0
v -18 -30 0
v -17 -30 0
v -16 -31 0
v -17 -31 0
v -17 -30 0
v -16 -30 0
v -15 -31 0
v -16 -31 0
v -16 -30 0
v -15 -30 0
v -14 -31 0
v -15 -31 0
v -15 -30 0
v -14 -30 0
v -35 -32 0
v -36 -32 0
v -36 -31 0
v -35 -31 0
v -34 -32 0
v -35 -32 0
v -35 -31 0
v -34 -31 0
v -27 -32 0
v -28 -32 0
v -28 -31 0
v -27 -31 0
v -26 -32 0
v -27 -32 0
v -27 -31 0
v -26 -31 0
v -25 -32 0
v -26 -32 0
v -26 -31 0
v -25 -31 0
v -24 -32 0
v -25 -32 0
v -25 -31 0
v -24 -31 0
v -17 -32 0
v -18 -32 0
v -18 -31 0
v -17 -31 0
v -16 -32 0
v -17 -32 0
v -17 -31 0
v -16 -31 0
v -35 -33 0
v -36 -33 0
v -36 -32 0
v -35 -32 0
v -34 -33 0
v -35 -33 0
v -35 -32 0
v -34 -32 0
v -33 -33 0
v -34 -33 0
v -34 -32 0
v -33 -32 0
v -32 -33 0
v -33 -33 0
v -33 -32 0
v -32 -32 0
v -27 -33 0
v -28 -33 0
v -28 -32 0
v -27 -32 0
v -26 -33 0
v -27 -33 0
v -27 -32 0
v -26 -32 0
v -25 -33 0
v -26 -33 0
v -26 -32 0
v -25 -32 0
v -24 -33 0
v -25 -33 0
v -25 -32 0
v -24 -32 0
v -33 -34 0
v -34 -34 0
v -34 -33 0
v -33 -33 0
v -32 -34 0
v -33 -34 0
v -33 -33 0
v -32 -33 0
v -29 -34 0
v -30 -34 0
v -30 -33 0
v -29 -33 0
v -28 -34 0
v -29 -34 0
v -29 -33 0
v -28 -33 0
v -27 -34 0
v -28 -34 0
v -28 -33 0
v -27 -33 0
v -26 -34 0
v -27 -34 0
v -27 -33 0
v -26 -33 0
v -25 -34 0
v -26 -34 0
v -26 -33 0
v -25 -33 0
v -24 -34 0
v -25 -34 0
v -25 -33 0
v -24 -33 0
v -36 -35 0
v -37 -35 0
v -37 -34 0
v -36 -34 0
v -35 -35 0
v -36 -35 0
v -36 -34 0
v -35 -34 0
v -34 -35 0
v -35 -35 0
v -35 -34 0
v -34 -34 0
v -33 -35 0
v -34 -35 0
v -34 -34 0
v -33 -34 0
v -29 -35 0
v -30 -35 0
v -30 -34 0
v -29 -34 0
v -28 -35 0
v -29 -35 0
v -29 -34 0
v -28 -34 0
v -24 -35 0
v -25 -35 0
v -25 -34 0
v -24 -34 0
v -23 -35 0
v -24 -35 0
v -24 -34 0
v -23 -34 0
v -36 -36 0
v -37 -36 0
v -37 -35 0
v -36 -35 0
v -35 -36 0
v -36 -36 0
v -36 -35 0
v -35 -35 0
v -34 -36 0
v -35 -36 0
v -35 -35 0
v -34 -35 0
v -33 -36 0
v -34 -36 0
v -34 -35 0
v -33 -35 0
v -24 -36 0
v -25 -36 0
v -25 -35 0
v -24 -35 0
v -23 -36 0
v -24 -36 0
v -24 -35 0
v -23 -35 0
v -36 -37 0
v -37 -37 0
v -37 -36 0
v -36 -36 0
v -35 -37 0
v -36 -37 0
v -36 -36 0
v -35 -36 0
v -34 -37 0
v -35 -37 0
v -35 -36 0
v -34 -36 0
v -33 -37 0
v -34 -37 0
v -34 -36 0
v -33 -36 0
v -25 -37 0
v -26 -37 0
v -26 -36 0
v -25 -36 0
v -24 -37 0
v -25 -37 0
v -25 -36 0
v -24 -36 0
v -36 -38 0
v -37 -38 0
v -37 -37 0
v -36 -37 0
v -35 -38 0
v -36 -38 0
v -36 -37 0
v -35 -37 0
v -34 -38 0
v -35 -38 0
v -35 -37 0
v -34 -37 0
v -33 -38 0
v -34 -38 0
v -34 -37 0
v -33 -37 0
v -27 -38 0
v -28 -38 0
v -28 -37 0
v -27 -37 0
v -26 -38 0
v -27 -38 0
v -27 -37 0
v -26 -37 0
v -25 -38 0
v -26 -38 0
v -26 -37 0
v -25 -37 0
v -24 -38 0
v -25 -38 0
v -25 -37 0
v -24 -37 0
v -27 -39 0
v -28 -39 0
v -28 -38 0
v -27 -38 0
v -26 -39 0
v -27 -39 0
v -27 -38 0
v -26 -38 0

# Texture cooridinates (Count = 80)
vt 0.0625408 0.08345538
vt 0.0831029 0.08345538
vt 0.0831029 0.110989
vt 0.0625408 0.110989
vt 0.04173455 0.08345538
vt 0.06229666 0.08345538
vt 0.06229666 0.110989
vt 0.04173455 0.110989
vt 0.02092831 0.08345538
vt 0.04149041 0.08345538
vt 0.04149041 0.110989
vt 0.02092831 0.110989
vt 0.0001220703 0.08345538
vt 0.02068417 0.08345538
vt 0.02068417 0.110989
vt 0.0001220703 0.110989
vt 0.0625408 0.05567765
vt 0.0831029 0.05567765
vt 0.0831029 0.08321124
vt 0.0625408 0.08321124
vt 0.04173455 0.05567765
vt 0.06229666 0.05567765
vt 0.06229666 0.08321124
vt 0.04173455 0.08321124
vt 0.02092831 0.05567765
vt 0.04149041 0.05567765
vt 0.04149041 0.08321124
vt 0.02092831 0.08321124
vt 0.0001220703 0.05567765
vt 0.02068417 0.05567765
vt 0.02068417 0.08321124
vt 0.0001220703 0.08321124
vt 0.0625408 0.02789986
vt 0.0831029 0.02789986
vt 0.0831029 0.05543351
vt 0.0625408 0.05543351
vt 0.04173455 0.02789986
vt 0.06229666 0.02789986
vt 0.06229666 0.05543351
vt 0.04173455 0.05543351
vt 0.02092831 0.02789986
vt 0.04149041 0.02789986
vt 0.04149041 0.05543351
vt 0.02092831 0.05543351
vt 0.0001220703 0.02789986
vt 0.02068417 0.02789986
vt 0.02068417 0.05543351
vt 0.0001220703 0.05543351
vt 0.0625408 0.0001220703
vt 0.0831029 0.0001220703
vt 0.0831029 0.02765572
vt 0.0625408 0.02765572
vt 0.04173455 0.0001220703
vt 0.06229666 0.0001220703
vt 0.06229666 0.02765572
vt 0.04173455 0.02765572
vt 0.02092831 0.0001220703
vt 0.04149041 0.0001220703
vt 0.04149041 0.02765572
vt 0.02092831 0.02765572
vt 0.0001220703 0.0001220703
vt 0.02068417 0.0001220703
vt 0.02068417 0.02765572
vt 0.0001220703 0.02765572
vt 0.1249595 0.5278999
vt 0.1455216 0.5278999
vt 0.1455216 0.5554335
vt 0.1249595 0.5554335
vt 0.1041533 0.5278999
vt 0.1247154 0.5278999
vt 0.1247154 0.5554335
vt 0.1041533 0.5554335
vt 0.1249595 0.5001221
vt 0.1455216 0.5001221
vt 0.1455216 0.5276557
vt 0.1249595 0.5276557
vt 0.1041533 0.5001221
vt 0.1247154 0.5001221
vt 0.1247154 0.5276557
vt 0.1041533 0.5276557

# Normal
vn 0 0 -1

# Mesh description
g BankoSentral_mesh_0002

# Faces
f 1/1/1 2/2/1 3/3/1 4/4/1
f 5/5/1 6/6/1 7/7/1 8/8/1
f 9/9/1 10/10/1 11/11/1 12/12/1
f 13/13/1 14/14/1 15/15/1 16/16/1
f 17/17/1 18/18/1 19/19/1 20/20/1
f 21/21/1 22/22/1 23/23/1 24/24/1
f 25/25/1 26/26/1 27/27/1 28/28/1
f 29/29/1 30/30/1 31/31/1 32/32/1
f 33/1/1 34/2/1 35/3/1 36/4/1
f 37/5/1 38/6/1 39/7/1 40/8/1
f 41/9/1 42/10/1 43/11/1 44/12/1
f 45/13/1 46/14/1 47/15/1 48/16/1
f 49/33/1 50/34/1 51/35/1 52/36/1
f 53/37/1 54/38/1 55/39/1 56/40/1
f 57/41/1 58/42/1 59/43/1 60/44/1
f 61/45/1 62/46/1 63/47/1 64/48/1
f 65/17/1 66/18/1 67/19/1 68/20/1
f 69/21/1 70/22/1 71/23/1 72/24/1
f 73/25/1 74/26/1 75/27/1 76/28/1
f 77/29/1 78/30/1 79/31/1 80/32/1
f 81/1/1 82/2/1 83/3/1 84/4/1
f 85/5/1 86/6/1 87/7/1 88/8/1
f 89/9/1 90/10/1 91/11/1 92/12/1
f 93/13/1 94/14/1 95/15/1 96/16/1
f 97/49/1 98/50/1 99/51/1 100/52/1
f 101/53/1 102/54/1 103/55/1 104/56/1
f 105/57/1 106/58/1 107/59/1 108/60/1
f 109/61/1 110/62/1 111/63/1 112/64/1
f 113/33/1 114/34/1 115/35/1 116/36/1
f 117/37/1 118/38/1 119/39/1 120/40/1
f 121/41/1 122/42/1 123/43/1 124/44/1
f 125/45/1 126/46/1 127/47/1 128/48/1
f 129/17/1 130/18/1 131/19/1 132/20/1
f 133/21/1 134/22/1 135/23/1 136/24/1
f 137/25/1 138/26/1 139/27/1 140/28/1
f 141/29/1 142/30/1 143/31/1 144/32/1
f 145/49/1 146/50/1 147/51/1 148/52/1
f 149/53/1 150/54/1 151/55/1 152/56/1
f 153/57/1 154/58/1 155/59/1 156/60/1
f 157/61/1 158/62/1 159/63/1 160/64/1
f 161/33/1 162/34/1 163/35/1 164/36/1
f 165/37/1 166/38/1 167/39/1 168/40/1
f 169/41/1 170/42/1 171/43/1 172/44/1
f 173/45/1 174/46/1 175/47/1 176/48/1
f 177/1/1 178/2/1 179/3/1 180/4/1
f 181/5/1 182/6/1 183/7/1 184/8/1
f 185/9/1 186/10/1 187/11/1 188/12/1
f 189/13/1 190/14/1 191/15/1 192/16/1
f 193/49/1 194/50/1 195/51/1 196/52/1
f 197/53/1 198/54/1 199/55/1 200/56/1
f 201/57/1 202/58/1 203/59/1 204/60/1
f 205/61/1 206/62/1 207/63/1 208/64/1
f 209/17/1 210/18/1 211/19/1 212/20/1
f 213/21/1 214/22/1 215/23/1 216/24/1
f 217/25/1 218/26/1 219/27/1 220/28/1
f 221/29/1 222/30/1 223/31/1 224/32/1
f 225/33/1 226/34/1 227/35/1 228/36/1
f 229/37/1 230/38/1 231/39/1 232/40/1
f 233/41/1 234/42/1 235/43/1 236/44/1
f 237/45/1 238/46/1 239/47/1 240/48/1
f 241/49/1 242/50/1 243/51/1 244/52/1
f 245/53/1 246/54/1 247/55/1 248/56/1
f 249/57/1 250/58/1 251/59/1 252/60/1
f 253/65/1 254/66/1 255/67/1 256/68/1
f 257/69/1 258/70/1 259/71/1 260/72/1
f 261/65/1 262/66/1 263/67/1 264/68/1
f 265/69/1 266/70/1 267/71/1 268/72/1
f 269/73/1 270/74/1 271/75/1 272/76/1
f 273/77/1 274/78/1 275/79/1 276/80/1
f 277/65/1 278/66/1 279/67/1 280/68/1
f 281/69/1 282/70/1 283/71/1 284/72/1
f 285/65/1 286/66/1 287/67/1 288/68/1
f 289/69/1 290/70/1 291/71/1 292/72/1
f 293/73/1 294/74/1 295/75/1 296/76/1
f 297/77/1 298/78/1 299/79/1 300/80/1
f 301/65/1 302/66/1 303/67/1 304/68/1
f 305/69/1 306/70/1 307/71/1 308/72/1
f 309/73/1 310/74/1 311/75/1 312/76/1
f 313/77/1 314/78/1 315/79/1 316/80/1
f 317/73/1 318/74/1 319/75/1 320/76/1
f 321/77/1 322/78/1 323/79/1 324/80/1
f 325/73/1 326/74/1 327/75/1 328/76/1
f 329/77/1 330/78/1 331/79/1 332/80/1
f 333/1/1 334/2/1 335/3/1 336/4/1
f 337/5/1 338/6/1 339/7/1 340/8/1
f 341/9/1 342/10/1 343/11/1 344/12/1
f 345/13/1 346/14/1 347/15/1 348/16/1
f 349/17/1 350/18/1 351/19/1 352/20/1
f 353/21/1 354/22/1 355/23/1 356/24/1
f 357/25/1 358/26/1 359/27/1 360/28/1
f 361/29/1 362/30/1 363/31/1 364/32/1
f 365/33/1 366/34/1 367/35/1 368/36/1
f 369/37/1 370/38/1 371/39/1 372/40/1
f 373/41/1 374/42/1 375/43/1 376/44/1
f 377/45/1 378/46/1 379/47/1 380/48/1
f 381/1/1 382/2/1 383/3/1 384/4/1
f 385/5/1 386/6/1 387/7/1 388/8/1
f 389/9/1 390/10/1 391/11/1 392/12/1
f 393/13/1 394/14/1 395/15/1 396/16/1
f 397/49/1 398/50/1 399/51/1 400/52/1
f 401/53/1 402/54/1 403/55/1 404/56/1
f 405/57/1 406/58/1 407/59/1 408/60/1
f 409/61/1 410/62/1 411/63/1 412/64/1
f 413/17/1 414/18/1 415/19/1 416/20/1
f 417/21/1 418/22/1 419/23/1 420/24/1
f 421/25/1 422/26/1 423/27/1 424/28/1
f 425/29/1 426/30/1 427/31/1 428/32/1
f 429/1/1 430/2/1 431/3/1 432/4/1
f 433/5/1 434/6/1 435/7/1 436/8/1
f 437/9/1 438/10/1 439/11/1 440/12/1
f 441/13/1 442/14/1 443/15/1 444/16/1
f 445/33/1 446/34/1 447/35/1 448/36/1
f 449/37/1 450/38/1 451/39/1 452/40/1
f 453/41/1 454/42/1 455/43/1 456/44/1
f 457/45/1 458/46/1 459/47/1 460/48/1
f 461/17/1 462/18/1 463/19/1 464/20/1
f 465/21/1 466/22/1 467/23/1 468/24/1
f 469/25/1 470/26/1 471/27/1 472/28/1
f 473/29/1 474/30/1 475/31/1 476/32/1
f 477/49/1 478/50/1 479/51/1 480/52/1
f 481/53/1 482/54/1 483/55/1 484/56/1
f 485/57/1 486/58/1 487/59/1 488/60/1
f 489/61/1 490/62/1 491/63/1 492/64/1
f 493/33/1 494/34/1 495/35/1 496/36/1
f 497/37/1 498/38/1 499/39/1 500/40/1
f 501/41/1 502/42/1 503/43/1 504/44/1
f 505/45/1 506/46/1 507/47/1 508/48/1
f 509/65/1 510/66/1 511/67/1 512/68/1
f 513/69/1 514/70/1 515/71/1 516/72/1
f 517/49/1 518/50/1 519/51/1 520/52/1
f 521/53/1 522/54/1 523/55/1 524/56/1
f 525/57/1 526/58/1 527/59/1 528/60/1
f 529/61/1 530/62/1 531/63/1 532/64/1
f 533/73/1 534/74/1 535/75/1 536/76/1
f 537/77/1 538/78/1 539/79/1 540/80/1
f 541/65/1 542/66/1 543/67/1 544/68/1
f 545/69/1 546/70/1 547/71/1 548/72/1
f 549/73/1 550/74/1 551/75/1 552/76/1
f 553/77/1 554/78/1 555/79/1 556/80/1
f 557/65/1 558/66/1 559/67/1 560/68/1
f 561/69/1 562/70/1 563/71/1 564/72/1
f 565/1/1 566/2/1 567/3/1 568/4/1
f 569/5/1 570/6/1 571/7/1 572/8/1
f 573/9/1 574/10/1 575/11/1 576/12/1
f 577/13/1 578/14/1 579/15/1 580/16/1
f 581/65/1 582/66/1 583/67/1 584/68/1
f 585/69/1 586/70/1 587/71/1 588/72/1
f 589/73/1 590/74/1 591/75/1 592/76/1
f 593/77/1 594/78/1 595/79/1 596/80/1
f 597/65/1 598/66/1 599/67/1 600/68/1
f 601/69/1 602/70/1 603/71/1 604/72/1
f 605/17/1 606/18/1 607/19/1 608/20/1
f 609/21/1 610/22/1 611/23/1 612/24/1
f 613/25/1 614/26/1 615/27/1 616/28/1
f 617/29/1 618/30/1 619/31/1 620/32/1
f 621/73/1 622/74/1 623/75/1 624/76/1
f 625/77/1 626/78/1 627/79/1 628/80/1
f 629/73/1 630/74/1 631/75/1 632/76/1
f 633/77/1 634/78/1 635/79/1 636/80/1
f 637/65/1 638/66/1 639/67/1 640/68/1
f 641/69/1 642/70/1 643/71/1 644/72/1
f 645/33/1 646/34/1 647/35/1 648/36/1
f 649/37/1 650/38/1 651/39/1 652/40/1
f 653/41/1 654/42/1 655/43/1 656/44/1
f 657/45/1 658/46/1 659/47/1 660/48/1
f 661/73/1 662/74/1 663/75/1 664/76/1
f 665/77/1 666/78/1 667/79/1 668/80/1
f 669/65/1 670/66/1 671/67/1 672/68/1
f 673/69/1 674/70/1 675/71/1 676/72/1
f 677/49/1 678/50/1 679/51/1 680/52/1
f 681/53/1 682/54/1 683/55/1 684/56/1
f 685/57/1 686/58/1 687/59/1 688/60/1
f 689/61/1 690/62/1 691/63/1 692/64/1
f 693/1/1 694/2/1 695/3/1 696/4/1
f 697/5/1 698/6/1 699/7/1 700/8/1
f 701/9/1 702/10/1 703/11/1 704/12/1
f 705/13/1 706/14/1 707/15/1 708/16/1
f 709/73/1 710/74/1 711/75/1 712/76/1
f 713/77/1 714/78/1 715/79/1 716/80/1
f 717/65/1 718/66/1 719/67/1 720/68/1
f 721/69/1 722/70/1 723/71/1 724/72/1
f 725/17/1 726/18/1 727/19/1 728/20/1
f 729/21/1 730/22/1 731/23/1 732/24/1
f 733/25/1 734/26/1 735/27/1 736/28/1
f 737/29/1 738/30/1 739/31/1 740/32/1
f 741/73/1 742/74/1 743/75/1 744/76/1
f 745/77/1 746/78/1 747/79/1 748/80/1
f 749/33/1 750/34/1 751/35/1 752/36/1
f 753/37/1 754/38/1 755/39/1 756/40/1
f 757/41/1 758/42/1 759/43/1 760/44/1
f 761/45/1 762/46/1 763/47/1 764/48/1
f 765/65/1 766/66/1 767/67/1 768/68/1
f 769/69/1 770/70/1 771/71/1 772/72/1
f 773/49/1 774/50/1 775/51/1 776/52/1
f 777/53/1 778/54/1 779/55/1 780/56/1
f 781/57/1 782/58/1 783/59/1 784/60/1
f 785/61/1 786/62/1 787/63/1 788/64/1
f 789/65/1 790/66/1 791/67/1 792/68/1
f 793/69/1 794/70/1 795/71/1 796/72/1
f 797/73/1 798/74/1 799/75/1 800/76/1
f 801/77/1 802/78/1 803/79/1 804/80/1
f 805/73/1 806/74/1 807/75/1 808/76/1
f 809/77/1 810/78/1 811/79/1 812/80/1

