# Tiled2Unity generated file. Do not modify by hand.
# Wavefront file for 'BankoSentral_mesh_0002.obj'

# Vertices (Count = 776)
v -49 -1 0
v -50 -1 0
v -50 0 0
v -49 0 0
v -48 -1 0
v -49 -1 0
v -49 0 0
v -48 0 0
v -47 -1 0
v -48 -1 0
v -48 0 0
v -47 0 0
v -46 -1 0
v -47 -1 0
v -47 0 0
v -46 0 0
v -45 -1 0
v -46 -1 0
v -46 0 0
v -45 0 0
v -44 -1 0
v -45 -1 0
v -45 0 0
v -44 0 0
v -43 -1 0
v -44 -1 0
v -44 0 0
v -43 0 0
v -42 -1 0
v -43 -1 0
v -43 0 0
v -42 0 0
v -41 -1 0
v -42 -1 0
v -42 0 0
v -41 0 0
v -40 -1 0
v -41 -1 0
v -41 0 0
v -40 0 0
v -39 -1 0
v -40 -1 0
v -40 0 0
v -39 0 0
v -38 -1 0
v -39 -1 0
v -39 0 0
v -38 0 0
v -37 -1 0
v -38 -1 0
v -38 0 0
v -37 0 0
v -36 -1 0
v -37 -1 0
v -37 0 0
v -36 0 0
v -35 -1 0
v -36 -1 0
v -36 0 0
v -35 0 0
v -34 -1 0
v -35 -1 0
v -35 0 0
v -34 0 0
v -33 -1 0
v -34 -1 0
v -34 0 0
v -33 0 0
v -32 -1 0
v -33 -1 0
v -33 0 0
v -32 0 0
v -31 -1 0
v -32 -1 0
v -32 0 0
v -31 0 0
v -30 -1 0
v -31 -1 0
v -31 0 0
v -30 0 0
v -29 -1 0
v -30 -1 0
v -30 0 0
v -29 0 0
v -28 -1 0
v -29 -1 0
v -29 0 0
v -28 0 0
v -27 -1 0
v -28 -1 0
v -28 0 0
v -27 0 0
v -26 -1 0
v -27 -1 0
v -27 0 0
v -26 0 0
v -25 -1 0
v -26 -1 0
v -26 0 0
v -25 0 0
v -24 -1 0
v -25 -1 0
v -25 0 0
v -24 0 0
v -23 -1 0
v -24 -1 0
v -24 0 0
v -23 0 0
v -22 -1 0
v -23 -1 0
v -23 0 0
v -22 0 0
v -21 -1 0
v -22 -1 0
v -22 0 0
v -21 0 0
v -20 -1 0
v -21 -1 0
v -21 0 0
v -20 0 0
v -19 -1 0
v -20 -1 0
v -20 0 0
v -19 0 0
v -18 -1 0
v -19 -1 0
v -19 0 0
v -18 0 0
v -17 -1 0
v -18 -1 0
v -18 0 0
v -17 0 0
v -16 -1 0
v -17 -1 0
v -17 0 0
v -16 0 0
v -15 -1 0
v -16 -1 0
v -16 0 0
v -15 0 0
v -14 -1 0
v -15 -1 0
v -15 0 0
v -14 0 0
v -13 -1 0
v -14 -1 0
v -14 0 0
v -13 0 0
v -12 -1 0
v -13 -1 0
v -13 0 0
v -12 0 0
v -11 -1 0
v -12 -1 0
v -12 0 0
v -11 0 0
v -10 -1 0
v -11 -1 0
v -11 0 0
v -10 0 0
v -9 -1 0
v -10 -1 0
v -10 0 0
v -9 0 0
v -8 -1 0
v -9 -1 0
v -9 0 0
v -8 0 0
v -7 -1 0
v -8 -1 0
v -8 0 0
v -7 0 0
v -6 -1 0
v -7 -1 0
v -7 0 0
v -6 0 0
v -5 -1 0
v -6 -1 0
v -6 0 0
v -5 0 0
v -4 -1 0
v -5 -1 0
v -5 0 0
v -4 0 0
v -3 -1 0
v -4 -1 0
v -4 0 0
v -3 0 0
v -2 -1 0
v -3 -1 0
v -3 0 0
v -2 0 0
v -1 -1 0
v -2 -1 0
v -2 0 0
v -1 0 0
v 0 -1 0
v -1 -1 0
v -1 0 0
v 0 0 0
v -49 -2 0
v -50 -2 0
v -50 -1 0
v -49 -1 0
v 0 -2 0
v -1 -2 0
v -1 -1 0
v 0 -1 0
v -49 -3 0
v -50 -3 0
v -50 -2 0
v -49 -2 0
v -47 -3 0
v -48 -3 0
v -48 -2 0
v -47 -2 0
v -34 -3 0
v -35 -3 0
v -35 -2 0
v -34 -2 0
v -33 -3 0
v -34 -3 0
v -34 -2 0
v -33 -2 0
v -32 -3 0
v -33 -3 0
v -33 -2 0
v -32 -2 0
v -19 -3 0
v -20 -3 0
v -20 -2 0
v -19 -2 0
v -18 -3 0
v -19 -3 0
v -19 -2 0
v -18 -2 0
v -17 -3 0
v -18 -3 0
v -18 -2 0
v -17 -2 0
v -16 -3 0
v -17 -3 0
v -17 -2 0
v -16 -2 0
v -13 -3 0
v -14 -3 0
v -14 -2 0
v -13 -2 0
v -12 -3 0
v -13 -3 0
v -13 -2 0
v -12 -2 0
v -11 -3 0
v -12 -3 0
v -12 -2 0
v -11 -2 0
v -10 -3 0
v -11 -3 0
v -11 -2 0
v -10 -2 0
v 0 -3 0
v -1 -3 0
v -1 -2 0
v 0 -2 0
v -49 -4 0
v -50 -4 0
v -50 -3 0
v -49 -3 0
v -22 -4 0
v -23 -4 0
v -23 -3 0
v -22 -3 0
v -21 -4 0
v -22 -4 0
v -22 -3 0
v -21 -3 0
v 0 -4 0
v -1 -4 0
v -1 -3 0
v 0 -3 0
v -43 -5 0
v -44 -5 0
v -44 -4 0
v -43 -4 0
v -42 -5 0
v -43 -5 0
v -43 -4 0
v -42 -4 0
v -41 -5 0
v -42 -5 0
v -42 -4 0
v -41 -4 0
v -40 -5 0
v -41 -5 0
v -41 -4 0
v -40 -4 0
v -29 -5 0
v -30 -5 0
v -30 -4 0
v -29 -4 0
v -28 -5 0
v -29 -5 0
v -29 -4 0
v -28 -4 0
v -27 -5 0
v -28 -5 0
v -28 -4 0
v -27 -4 0
v -26 -5 0
v -27 -5 0
v -27 -4 0
v -26 -4 0
v 0 -5 0
v -1 -5 0
v -1 -4 0
v 0 -4 0
v -1 -6 0
v -2 -6 0
v -2 -5 0
v -1 -5 0
v 0 -6 0
v -1 -6 0
v -1 -5 0
v 0 -5 0
v -17 -7 0
v -18 -7 0
v -18 -6 0
v -17 -6 0
v -16 -7 0
v -17 -7 0
v -17 -6 0
v -16 -6 0
v -15 -7 0
v -16 -7 0
v -16 -6 0
v -15 -6 0
v -14 -7 0
v -15 -7 0
v -15 -6 0
v -14 -6 0
v -10 -8 0
v -11 -8 0
v -11 -7 0
v -10 -7 0
v -9 -8 0
v -10 -8 0
v -10 -7 0
v -9 -7 0
v -8 -8 0
v -9 -8 0
v -9 -7 0
v -8 -7 0
v -7 -8 0
v -8 -8 0
v -8 -7 0
v -7 -7 0
v -10 -9 0
v -11 -9 0
v -11 -8 0
v -10 -8 0
v -9 -9 0
v -10 -9 0
v -10 -8 0
v -9 -8 0
v -8 -9 0
v -9 -9 0
v -9 -8 0
v -8 -8 0
v -7 -9 0
v -8 -9 0
v -8 -8 0
v -7 -8 0
v -10 -10 0
v -11 -10 0
v -11 -9 0
v -10 -9 0
v -9 -10 0
v -10 -10 0
v -10 -9 0
v -9 -9 0
v -8 -10 0
v -9 -10 0
v -9 -9 0
v -8 -9 0
v -7 -10 0
v -8 -10 0
v -8 -9 0
v -7 -9 0
v -22 -11 0
v -23 -11 0
v -23 -10 0
v -22 -10 0
v -21 -11 0
v -22 -11 0
v -22 -10 0
v -21 -10 0
v -20 -11 0
v -21 -11 0
v -21 -10 0
v -20 -10 0
v -19 -11 0
v -20 -11 0
v -20 -10 0
v -19 -10 0
v -36 -12 0
v -37 -12 0
v -37 -11 0
v -36 -11 0
v -35 -12 0
v -36 -12 0
v -36 -11 0
v -35 -11 0
v -34 -12 0
v -35 -12 0
v -35 -11 0
v -34 -11 0
v -33 -12 0
v -34 -12 0
v -34 -11 0
v -33 -11 0
v -49 -13 0
v -50 -13 0
v -50 -12 0
v -49 -12 0
v -48 -13 0
v -49 -13 0
v -49 -12 0
v -48 -12 0
v -47 -13 0
v -48 -13 0
v -48 -12 0
v -47 -12 0
v -46 -13 0
v -47 -13 0
v -47 -12 0
v -46 -12 0
v -49 -14 0
v -50 -14 0
v -50 -13 0
v -49 -13 0
v -25 -14 0
v -26 -14 0
v -26 -13 0
v -25 -13 0
v -24 -14 0
v -25 -14 0
v -25 -13 0
v -24 -13 0
v -23 -14 0
v -24 -14 0
v -24 -13 0
v -23 -13 0
v -22 -14 0
v -23 -14 0
v -23 -13 0
v -22 -13 0
v -49 -15 0
v -50 -15 0
v -50 -14 0
v -49 -14 0
v -25 -15 0
v -26 -15 0
v -26 -14 0
v -25 -14 0
v -24 -15 0
v -25 -15 0
v -25 -14 0
v -24 -14 0
v -23 -15 0
v -24 -15 0
v -24 -14 0
v -23 -14 0
v -22 -15 0
v -23 -15 0
v -23 -14 0
v -22 -14 0
v -49 -16 0
v -50 -16 0
v -50 -15 0
v -49 -15 0
v -25 -16 0
v -26 -16 0
v -26 -15 0
v -25 -15 0
v -24 -16 0
v -25 -16 0
v -25 -15 0
v -24 -15 0
v -23 -16 0
v -24 -16 0
v -24 -15 0
v -23 -15 0
v -22 -16 0
v -23 -16 0
v -23 -15 0
v -22 -15 0
v -15 -16 0
v -16 -16 0
v -16 -15 0
v -15 -15 0
v -14 -16 0
v -15 -16 0
v -15 -15 0
v -14 -15 0
v -13 -16 0
v -14 -16 0
v -14 -15 0
v -13 -15 0
v -12 -16 0
v -13 -16 0
v -13 -15 0
v -12 -15 0
v -49 -17 0
v -50 -17 0
v -50 -16 0
v -49 -16 0
v -43 -17 0
v -44 -17 0
v -44 -16 0
v -43 -16 0
v -42 -17 0
v -43 -17 0
v -43 -16 0
v -42 -16 0
v -41 -17 0
v -42 -17 0
v -42 -16 0
v -41 -16 0
v -40 -17 0
v -41 -17 0
v -41 -16 0
v -40 -16 0
v -6 -17 0
v -7 -17 0
v -7 -16 0
v -6 -16 0
v -5 -17 0
v -6 -17 0
v -6 -16 0
v -5 -16 0
v -4 -17 0
v -5 -17 0
v -5 -16 0
v -4 -16 0
v -3 -17 0
v -4 -17 0
v -4 -16 0
v -3 -16 0
v -49 -18 0
v -50 -18 0
v -50 -17 0
v -49 -17 0
v -6 -18 0
v -7 -18 0
v -7 -17 0
v -6 -17 0
v -5 -18 0
v -6 -18 0
v -6 -17 0
v -5 -17 0
v -4 -18 0
v -5 -18 0
v -5 -17 0
v -4 -17 0
v -3 -18 0
v -4 -18 0
v -4 -17 0
v -3 -17 0
v -49 -19 0
v -50 -19 0
v -50 -18 0
v -49 -18 0
v -5 -19 0
v -6 -19 0
v -6 -18 0
v -5 -18 0
v -4 -19 0
v -5 -19 0
v -5 -18 0
v -4 -18 0
v -49 -20 0
v -50 -20 0
v -50 -19 0
v -49 -19 0
v -24 -20 0
v -25 -20 0
v -25 -19 0
v -24 -19 0
v -23 -20 0
v -24 -20 0
v -24 -19 0
v -23 -19 0
v -22 -20 0
v -23 -20 0
v -23 -19 0
v -22 -19 0
v -21 -20 0
v -22 -20 0
v -22 -19 0
v -21 -19 0
v -49 -21 0
v -50 -21 0
v -50 -20 0
v -49 -20 0
v -49 -22 0
v -50 -22 0
v -50 -21 0
v -49 -21 0
v -49 -23 0
v -50 -23 0
v -50 -22 0
v -49 -22 0
v -49 -24 0
v -50 -24 0
v -50 -23 0
v -49 -23 0
v -24 -24 0
v -25 -24 0
v -25 -23 0
v -24 -23 0
v -23 -24 0
v -24 -24 0
v -24 -23 0
v -23 -23 0
v -22 -24 0
v -23 -24 0
v -23 -23 0
v -22 -23 0
v -21 -24 0
v -22 -24 0
v -22 -23 0
v -21 -23 0
v -49 -25 0
v -50 -25 0
v -50 -24 0
v -49 -24 0
v -49 -26 0
v -50 -26 0
v -50 -25 0
v -49 -25 0
v -49 -27 0
v -50 -27 0
v -50 -26 0
v -49 -26 0
v -6 -27 0
v -7 -27 0
v -7 -26 0
v -6 -26 0
v -5 -27 0
v -6 -27 0
v -6 -26 0
v -5 -26 0
v -4 -27 0
v -5 -27 0
v -5 -26 0
v -4 -26 0
v -3 -27 0
v -4 -27 0
v -4 -26 0
v -3 -26 0
v -6 -28 0
v -7 -28 0
v -7 -27 0
v -6 -27 0
v -5 -28 0
v -6 -28 0
v -6 -27 0
v -5 -27 0
v -4 -28 0
v -5 -28 0
v -5 -27 0
v -4 -27 0
v -3 -28 0
v -4 -28 0
v -4 -27 0
v -3 -27 0
v -49 -29 0
v -50 -29 0
v -50 -28 0
v -49 -28 0
v -42 -29 0
v -43 -29 0
v -43 -28 0
v -42 -28 0
v -41 -29 0
v -42 -29 0
v -42 -28 0
v -41 -28 0
v -40 -29 0
v -41 -29 0
v -41 -28 0
v -40 -28 0
v -39 -29 0
v -40 -29 0
v -40 -28 0
v -39 -28 0
v -5 -29 0
v -6 -29 0
v -6 -28 0
v -5 -28 0
v -4 -29 0
v -5 -29 0
v -5 -28 0
v -4 -28 0
v -49 -30 0
v -50 -30 0
v -50 -29 0
v -49 -29 0
v -19 -30 0
v -20 -30 0
v -20 -29 0
v -19 -29 0
v -18 -30 0
v -19 -30 0
v -19 -29 0
v -18 -29 0
v -17 -30 0
v -18 -30 0
v -18 -29 0
v -17 -29 0
v -16 -30 0
v -17 -30 0
v -17 -29 0
v -16 -29 0
v -49 -31 0
v -50 -31 0
v -50 -30 0
v -49 -30 0
v -49 -32 0
v -50 -32 0
v -50 -31 0
v -49 -31 0
v -49 -33 0
v -50 -33 0
v -50 -32 0
v -49 -32 0
v -34 -33 0
v -35 -33 0
v -35 -32 0
v -34 -32 0
v -33 -33 0
v -34 -33 0
v -34 -32 0
v -33 -32 0
v -32 -33 0
v -33 -33 0
v -33 -32 0
v -32 -32 0
v -31 -33 0
v -32 -33 0
v -32 -32 0
v -31 -32 0
v -49 -34 0
v -50 -34 0
v -50 -33 0
v -49 -33 0
v -49 -35 0
v -50 -35 0
v -50 -34 0
v -49 -34 0
v -16 -40 0
v -17 -40 0
v -17 -39 0
v -16 -39 0
v -15 -40 0
v -16 -40 0
v -16 -39 0
v -15 -39 0
v -14 -40 0
v -15 -40 0
v -15 -39 0
v -14 -39 0
v -13 -40 0
v -14 -40 0
v -14 -39 0
v -13 -39 0

# Texture cooridinates (Count = 100)
vt 0.04173455 0.5834554
vt 0.06229666 0.5834554
vt 0.06229666 0.610989
vt 0.04173455 0.610989
vt 0.0625408 0.0001220703
vt 0.0831029 0.0001220703
vt 0.0831029 0.02765572
vt 0.0625408 0.02765572
vt 0.04173455 0.0001220703
vt 0.06229666 0.0001220703
vt 0.06229666 0.02765572
vt 0.04173455 0.02765572
vt 0.02092831 0.0001220703
vt 0.04149041 0.0001220703
vt 0.04149041 0.02765572
vt 0.02092831 0.02765572
vt 0.0001220703 0.0001220703
vt 0.02068417 0.0001220703
vt 0.02068417 0.02765572
vt 0.0001220703 0.02765572
vt 0.3538282 0.08345538
vt 0.3743903 0.08345538
vt 0.3743903 0.110989
vt 0.3538282 0.110989
vt 0.3330219 0.08345538
vt 0.3535841 0.08345538
vt 0.3535841 0.110989
vt 0.3330219 0.110989
vt 0.3122157 0.08345538
vt 0.3327778 0.08345538
vt 0.3327778 0.110989
vt 0.3122157 0.110989
vt 0.2914095 0.08345538
vt 0.3119715 0.08345538
vt 0.3119715 0.110989
vt 0.2914095 0.110989
vt 0.3538282 0.139011
vt 0.3743903 0.139011
vt 0.3743903 0.1665446
vt 0.3538282 0.1665446
vt 0.3330219 0.139011
vt 0.3535841 0.139011
vt 0.3535841 0.1665446
vt 0.3330219 0.1665446
vt 0.3122157 0.139011
vt 0.3327778 0.139011
vt 0.3327778 0.1665446
vt 0.3122157 0.1665446
vt 0.2914095 0.139011
vt 0.3119715 0.139011
vt 0.3119715 0.1665446
vt 0.2914095 0.1665446
vt 0.3538282 0.1112332
vt 0.3743903 0.1112332
vt 0.3743903 0.1387668
vt 0.3538282 0.1387668
vt 0.3330219 0.1112332
vt 0.3535841 0.1112332
vt 0.3535841 0.1387668
vt 0.3330219 0.1387668
vt 0.3122157 0.1112332
vt 0.3327778 0.1112332
vt 0.3327778 0.1387668
vt 0.3122157 0.1387668
vt 0.2914095 0.1112332
vt 0.3119715 0.1112332
vt 0.3119715 0.1387668
vt 0.2914095 0.1387668
vt 0.0625408 0.05567765
vt 0.0831029 0.05567765
vt 0.0831029 0.08321124
vt 0.0625408 0.08321124
vt 0.04173455 0.05567765
vt 0.06229666 0.05567765
vt 0.06229666 0.08321124
vt 0.04173455 0.08321124
vt 0.02092831 0.05567765
vt 0.04149041 0.05567765
vt 0.04149041 0.08321124
vt 0.02092831 0.08321124
vt 0.0001220703 0.05567765
vt 0.02068417 0.05567765
vt 0.02068417 0.08321124
vt 0.0001220703 0.08321124
vt 0.0625408 0.02789986
vt 0.0831029 0.02789986
vt 0.0831029 0.05543351
vt 0.0625408 0.05543351
vt 0.04173455 0.02789986
vt 0.06229666 0.02789986
vt 0.06229666 0.05543351
vt 0.04173455 0.05543351
vt 0.02092831 0.02789986
vt 0.04149041 0.02789986
vt 0.04149041 0.05543351
vt 0.02092831 0.05543351
vt 0.0001220703 0.02789986
vt 0.02068417 0.02789986
vt 0.02068417 0.05543351
vt 0.0001220703 0.05543351

# Normal
vn 0 0 -1

# Mesh description
g BankoSentral_mesh_0002

# Faces
f 1/1/1 2/2/1 3/3/1 4/4/1
f 5/1/1 6/2/1 7/3/1 8/4/1
f 9/1/1 10/2/1 11/3/1 12/4/1
f 13/1/1 14/2/1 15/3/1 16/4/1
f 17/1/1 18/2/1 19/3/1 20/4/1
f 21/1/1 22/2/1 23/3/1 24/4/1
f 25/1/1 26/2/1 27/3/1 28/4/1
f 29/1/1 30/2/1 31/3/1 32/4/1
f 33/1/1 34/2/1 35/3/1 36/4/1
f 37/1/1 38/2/1 39/3/1 40/4/1
f 41/1/1 42/2/1 43/3/1 44/4/1
f 45/1/1 46/2/1 47/3/1 48/4/1
f 49/1/1 50/2/1 51/3/1 52/4/1
f 53/1/1 54/2/1 55/3/1 56/4/1
f 57/1/1 58/2/1 59/3/1 60/4/1
f 61/1/1 62/2/1 63/3/1 64/4/1
f 65/1/1 66/2/1 67/3/1 68/4/1
f 69/1/1 70/2/1 71/3/1 72/4/1
f 73/1/1 74/2/1 75/3/1 76/4/1
f 77/1/1 78/2/1 79/3/1 80/4/1
f 81/1/1 82/2/1 83/3/1 84/4/1
f 85/1/1 86/2/1 87/3/1 88/4/1
f 89/1/1 90/2/1 91/3/1 92/4/1
f 93/1/1 94/2/1 95/3/1 96/4/1
f 97/1/1 98/2/1 99/3/1 100/4/1
f 101/1/1 102/2/1 103/3/1 104/4/1
f 105/1/1 106/2/1 107/3/1 108/4/1
f 109/1/1 110/2/1 111/3/1 112/4/1
f 113/1/1 114/2/1 115/3/1 116/4/1
f 117/1/1 118/2/1 119/3/1 120/4/1
f 121/1/1 122/2/1 123/3/1 124/4/1
f 125/1/1 126/2/1 127/3/1 128/4/1
f 129/1/1 130/2/1 131/3/1 132/4/1
f 133/1/1 134/2/1 135/3/1 136/4/1
f 137/1/1 138/2/1 139/3/1 140/4/1
f 141/1/1 142/2/1 143/3/1 144/4/1
f 145/1/1 146/2/1 147/3/1 148/4/1
f 149/1/1 150/2/1 151/3/1 152/4/1
f 153/1/1 154/2/1 155/3/1 156/4/1
f 157/1/1 158/2/1 159/3/1 160/4/1
f 161/1/1 162/2/1 163/3/1 164/4/1
f 165/1/1 166/2/1 167/3/1 168/4/1
f 169/1/1 170/2/1 171/3/1 172/4/1
f 173/1/1 174/2/1 175/3/1 176/4/1
f 177/1/1 178/2/1 179/3/1 180/4/1
f 181/1/1 182/2/1 183/3/1 184/4/1
f 185/1/1 186/2/1 187/3/1 188/4/1
f 189/1/1 190/2/1 191/3/1 192/4/1
f 193/1/1 194/2/1 195/3/1 196/4/1
f 197/1/1 198/2/1 199/3/1 200/4/1
f 201/1/1 202/2/1 203/3/1 204/4/1
f 205/1/1 206/2/1 207/3/1 208/4/1
f 209/1/1 210/2/1 211/3/1 212/4/1
f 213/5/1 214/6/1 215/7/1 216/8/1
f 217/5/1 218/6/1 219/7/1 220/8/1
f 221/9/1 222/10/1 223/11/1 224/12/1
f 225/13/1 226/14/1 227/15/1 228/16/1
f 229/5/1 230/6/1 231/7/1 232/8/1
f 233/9/1 234/10/1 235/11/1 236/12/1
f 237/13/1 238/14/1 239/15/1 240/16/1
f 241/17/1 242/18/1 243/19/1 244/20/1
f 245/5/1 246/6/1 247/7/1 248/8/1
f 249/9/1 250/10/1 251/11/1 252/12/1
f 253/13/1 254/14/1 255/15/1 256/16/1
f 257/17/1 258/18/1 259/19/1 260/20/1
f 261/1/1 262/2/1 263/3/1 264/4/1
f 265/1/1 266/2/1 267/3/1 268/4/1
f 269/9/1 270/10/1 271/11/1 272/12/1
f 273/13/1 274/14/1 275/15/1 276/16/1
f 277/1/1 278/2/1 279/3/1 280/4/1
f 281/5/1 282/6/1 283/7/1 284/8/1
f 285/9/1 286/10/1 287/11/1 288/12/1
f 289/13/1 290/14/1 291/15/1 292/16/1
f 293/17/1 294/18/1 295/19/1 296/20/1
f 297/21/1 298/22/1 299/23/1 300/24/1
f 301/25/1 302/26/1 303/27/1 304/28/1
f 305/29/1 306/30/1 307/31/1 308/32/1
f 309/33/1 310/34/1 311/35/1 312/36/1
f 313/1/1 314/2/1 315/3/1 316/4/1
f 317/5/1 318/6/1 319/7/1 320/8/1
f 321/9/1 322/10/1 323/11/1 324/12/1
f 325/5/1 326/6/1 327/7/1 328/8/1
f 329/9/1 330/10/1 331/11/1 332/12/1
f 333/13/1 334/14/1 335/15/1 336/16/1
f 337/17/1 338/18/1 339/19/1 340/20/1
f 341/37/1 342/38/1 343/39/1 344/40/1
f 345/41/1 346/42/1 347/43/1 348/44/1
f 349/45/1 350/46/1 351/47/1 352/48/1
f 353/49/1 354/50/1 355/51/1 356/52/1
f 357/53/1 358/54/1 359/55/1 360/56/1
f 361/57/1 362/58/1 363/59/1 364/60/1
f 365/61/1 366/62/1 367/63/1 368/64/1
f 369/65/1 370/66/1 371/67/1 372/68/1
f 373/21/1 374/22/1 375/23/1 376/24/1
f 377/25/1 378/26/1 379/27/1 380/28/1
f 381/29/1 382/30/1 383/31/1 384/32/1
f 385/33/1 386/34/1 387/35/1 388/36/1
f 389/5/1 390/6/1 391/7/1 392/8/1
f 393/9/1 394/10/1 395/11/1 396/12/1
f 397/13/1 398/14/1 399/15/1 400/16/1
f 401/17/1 402/18/1 403/19/1 404/20/1
f 405/5/1 406/6/1 407/7/1 408/8/1
f 409/9/1 410/10/1 411/11/1 412/12/1
f 413/13/1 414/14/1 415/15/1 416/16/1
f 417/17/1 418/18/1 419/19/1 420/20/1
f 421/1/1 422/2/1 423/3/1 424/4/1
f 425/9/1 426/10/1 427/11/1 428/12/1
f 429/13/1 430/14/1 431/15/1 432/16/1
f 433/17/1 434/18/1 435/19/1 436/20/1
f 437/1/1 438/2/1 439/3/1 440/4/1
f 441/69/1 442/70/1 443/71/1 444/72/1
f 445/73/1 446/74/1 447/75/1 448/76/1
f 449/77/1 450/78/1 451/79/1 452/80/1
f 453/81/1 454/82/1 455/83/1 456/84/1
f 457/1/1 458/2/1 459/3/1 460/4/1
f 461/85/1 462/86/1 463/87/1 464/88/1
f 465/89/1 466/90/1 467/91/1 468/92/1
f 469/93/1 470/94/1 471/95/1 472/96/1
f 473/97/1 474/98/1 475/99/1 476/100/1
f 477/1/1 478/2/1 479/3/1 480/4/1
f 481/5/1 482/6/1 483/7/1 484/8/1
f 485/9/1 486/10/1 487/11/1 488/12/1
f 489/13/1 490/14/1 491/15/1 492/16/1
f 493/17/1 494/18/1 495/19/1 496/20/1
f 497/5/1 498/6/1 499/7/1 500/8/1
f 501/9/1 502/10/1 503/11/1 504/12/1
f 505/13/1 506/14/1 507/15/1 508/16/1
f 509/17/1 510/18/1 511/19/1 512/20/1
f 513/1/1 514/2/1 515/3/1 516/4/1
f 517/21/1 518/22/1 519/23/1 520/24/1
f 521/25/1 522/26/1 523/27/1 524/28/1
f 525/29/1 526/30/1 527/31/1 528/32/1
f 529/33/1 530/34/1 531/35/1 532/36/1
f 533/69/1 534/70/1 535/71/1 536/72/1
f 537/73/1 538/74/1 539/75/1 540/76/1
f 541/77/1 542/78/1 543/79/1 544/80/1
f 545/81/1 546/82/1 547/83/1 548/84/1
f 549/1/1 550/2/1 551/3/1 552/4/1
f 553/85/1 554/86/1 555/87/1 556/88/1
f 557/89/1 558/90/1 559/91/1 560/92/1
f 561/93/1 562/94/1 563/95/1 564/96/1
f 565/97/1 566/98/1 567/99/1 568/100/1
f 569/1/1 570/2/1 571/3/1 572/4/1
f 573/9/1 574/10/1 575/11/1 576/12/1
f 577/13/1 578/14/1 579/15/1 580/16/1
f 581/1/1 582/2/1 583/3/1 584/4/1
f 585/21/1 586/22/1 587/23/1 588/24/1
f 589/25/1 590/26/1 591/27/1 592/28/1
f 593/29/1 594/30/1 595/31/1 596/32/1
f 597/33/1 598/34/1 599/35/1 600/36/1
f 601/1/1 602/2/1 603/3/1 604/4/1
f 605/1/1 606/2/1 607/3/1 608/4/1
f 609/1/1 610/2/1 611/3/1 612/4/1
f 613/1/1 614/2/1 615/3/1 616/4/1
f 617/5/1 618/6/1 619/7/1 620/8/1
f 621/9/1 622/10/1 623/11/1 624/12/1
f 625/13/1 626/14/1 627/15/1 628/16/1
f 629/17/1 630/18/1 631/19/1 632/20/1
f 633/1/1 634/2/1 635/3/1 636/4/1
f 637/1/1 638/2/1 639/3/1 640/4/1
f 641/1/1 642/2/1 643/3/1 644/4/1
f 645/69/1 646/70/1 647/71/1 648/72/1
f 649/73/1 650/74/1 651/75/1 652/76/1
f 653/77/1 654/78/1 655/79/1 656/80/1
f 657/81/1 658/82/1 659/83/1 660/84/1
f 661/85/1 662/86/1 663/87/1 664/88/1
f 665/89/1 666/90/1 667/91/1 668/92/1
f 669/93/1 670/94/1 671/95/1 672/96/1
f 673/97/1 674/98/1 675/99/1 676/100/1
f 677/81/1 678/82/1 679/83/1 680/84/1
f 681/5/1 682/6/1 683/7/1 684/8/1
f 685/9/1 686/10/1 687/11/1 688/12/1
f 689/13/1 690/14/1 691/15/1 692/16/1
f 693/17/1 694/18/1 695/19/1 696/20/1
f 697/9/1 698/10/1 699/11/1 700/12/1
f 701/13/1 702/14/1 703/15/1 704/16/1
f 705/97/1 706/98/1 707/99/1 708/100/1
f 709/5/1 710/6/1 711/7/1 712/8/1
f 713/9/1 714/10/1 715/11/1 716/12/1
f 717/13/1 718/14/1 719/15/1 720/16/1
f 721/17/1 722/18/1 723/19/1 724/20/1
f 725/1/1 726/2/1 727/3/1 728/4/1
f 729/1/1 730/2/1 731/3/1 732/4/1
f 733/81/1 734/82/1 735/83/1 736/84/1
f 737/5/1 738/6/1 739/7/1 740/8/1
f 741/9/1 742/10/1 743/11/1 744/12/1
f 745/13/1 746/14/1 747/15/1 748/16/1
f 749/17/1 750/18/1 751/19/1 752/20/1
f 753/97/1 754/98/1 755/99/1 756/100/1
f 757/17/1 758/18/1 759/19/1 760/20/1
f 761/1/1 762/2/1 763/3/1 764/4/1
f 765/25/1 766/26/1 767/27/1 768/28/1
f 769/29/1 770/30/1 771/31/1 772/32/1
f 773/33/1 774/34/1 775/35/1 776/36/1

