# Tiled2Unity generated file. Do not modify by hand.
# Wavefront file for 'BankoSentral_mesh_0003.obj'

# Vertices (Count = 704)
v -36 -1 0
v -37 -1 0
v -37 0 0
v -36 0 0
v -35 -1 0
v -36 -1 0
v -36 0 0
v -35 0 0
v -34 -1 0
v -35 -1 0
v -35 0 0
v -34 0 0
v -33 -1 0
v -34 -1 0
v -34 0 0
v -33 0 0
v -36 -2 0
v -37 -2 0
v -37 -1 0
v -36 -1 0
v -35 -2 0
v -36 -2 0
v -36 -1 0
v -35 -1 0
v -34 -2 0
v -35 -2 0
v -35 -1 0
v -34 -1 0
v -33 -2 0
v -34 -2 0
v -34 -1 0
v -33 -1 0
v -26 -2 0
v -27 -2 0
v -27 -1 0
v -26 -1 0
v -25 -2 0
v -26 -2 0
v -26 -1 0
v -25 -1 0
v -24 -2 0
v -25 -2 0
v -25 -1 0
v -24 -1 0
v -23 -2 0
v -24 -2 0
v -24 -1 0
v -23 -1 0
v -36 -3 0
v -37 -3 0
v -37 -2 0
v -36 -2 0
v -35 -3 0
v -36 -3 0
v -36 -2 0
v -35 -2 0
v -34 -3 0
v -35 -3 0
v -35 -2 0
v -34 -2 0
v -33 -3 0
v -34 -3 0
v -34 -2 0
v -33 -2 0
v -26 -3 0
v -27 -3 0
v -27 -2 0
v -26 -2 0
v -25 -3 0
v -26 -3 0
v -26 -2 0
v -25 -2 0
v -24 -3 0
v -25 -3 0
v -25 -2 0
v -24 -2 0
v -23 -3 0
v -24 -3 0
v -24 -2 0
v -23 -2 0
v -7 -3 0
v -8 -3 0
v -8 -2 0
v -7 -2 0
v -6 -3 0
v -7 -3 0
v -7 -2 0
v -6 -2 0
v -5 -3 0
v -6 -3 0
v -6 -2 0
v -5 -2 0
v -4 -3 0
v -5 -3 0
v -5 -2 0
v -4 -2 0
v -36 -4 0
v -37 -4 0
v -37 -3 0
v -36 -3 0
v -35 -4 0
v -36 -4 0
v -36 -3 0
v -35 -3 0
v -34 -4 0
v -35 -4 0
v -35 -3 0
v -34 -3 0
v -33 -4 0
v -34 -4 0
v -34 -3 0
v -33 -3 0
v -26 -4 0
v -27 -4 0
v -27 -3 0
v -26 -3 0
v -25 -4 0
v -26 -4 0
v -26 -3 0
v -25 -3 0
v -24 -4 0
v -25 -4 0
v -25 -3 0
v -24 -3 0
v -23 -4 0
v -24 -4 0
v -24 -3 0
v -23 -3 0
v -7 -4 0
v -8 -4 0
v -8 -3 0
v -7 -3 0
v -6 -4 0
v -7 -4 0
v -7 -3 0
v -6 -3 0
v -5 -4 0
v -6 -4 0
v -6 -3 0
v -5 -3 0
v -4 -4 0
v -5 -4 0
v -5 -3 0
v -4 -3 0
v -26 -5 0
v -27 -5 0
v -27 -4 0
v -26 -4 0
v -25 -5 0
v -26 -5 0
v -26 -4 0
v -25 -4 0
v -24 -5 0
v -25 -5 0
v -25 -4 0
v -24 -4 0
v -23 -5 0
v -24 -5 0
v -24 -4 0
v -23 -4 0
v -7 -5 0
v -8 -5 0
v -8 -4 0
v -7 -4 0
v -6 -5 0
v -7 -5 0
v -7 -4 0
v -6 -4 0
v -5 -5 0
v -6 -5 0
v -6 -4 0
v -5 -4 0
v -4 -5 0
v -5 -5 0
v -5 -4 0
v -4 -4 0
v -7 -6 0
v -8 -6 0
v -8 -5 0
v -7 -5 0
v -6 -6 0
v -7 -6 0
v -7 -5 0
v -6 -5 0
v -5 -6 0
v -6 -6 0
v -6 -5 0
v -5 -5 0
v -4 -6 0
v -5 -6 0
v -5 -5 0
v -4 -5 0
v -30 -8 0
v -31 -8 0
v -31 -7 0
v -30 -7 0
v -29 -8 0
v -30 -8 0
v -30 -7 0
v -29 -7 0
v -28 -8 0
v -29 -8 0
v -29 -7 0
v -28 -7 0
v -27 -8 0
v -28 -8 0
v -28 -7 0
v -27 -7 0
v -47 -9 0
v -48 -9 0
v -48 -8 0
v -47 -8 0
v -46 -9 0
v -47 -9 0
v -47 -8 0
v -46 -8 0
v -30 -9 0
v -31 -9 0
v -31 -8 0
v -30 -8 0
v -29 -9 0
v -30 -9 0
v -30 -8 0
v -29 -8 0
v -28 -9 0
v -29 -9 0
v -29 -8 0
v -28 -8 0
v -27 -9 0
v -28 -9 0
v -28 -8 0
v -27 -8 0
v -23 -9 0
v -24 -9 0
v -24 -8 0
v -23 -8 0
v -22 -9 0
v -23 -9 0
v -23 -8 0
v -22 -8 0
v -21 -9 0
v -22 -9 0
v -22 -8 0
v -21 -8 0
v -47 -10 0
v -48 -10 0
v -48 -9 0
v -47 -9 0
v -46 -10 0
v -47 -10 0
v -47 -9 0
v -46 -9 0
v -30 -10 0
v -31 -10 0
v -31 -9 0
v -30 -9 0
v -29 -10 0
v -30 -10 0
v -30 -9 0
v -29 -9 0
v -28 -10 0
v -29 -10 0
v -29 -9 0
v -28 -9 0
v -27 -10 0
v -28 -10 0
v -28 -9 0
v -27 -9 0
v -26 -10 0
v -27 -10 0
v -27 -9 0
v -26 -9 0
v -25 -10 0
v -26 -10 0
v -26 -9 0
v -25 -9 0
v -23 -10 0
v -24 -10 0
v -24 -9 0
v -23 -9 0
v -22 -10 0
v -23 -10 0
v -23 -9 0
v -22 -9 0
v -21 -10 0
v -22 -10 0
v -22 -9 0
v -21 -9 0
v -47 -11 0
v -48 -11 0
v -48 -10 0
v -47 -10 0
v -45 -11 0
v -46 -11 0
v -46 -10 0
v -45 -10 0
v -30 -11 0
v -31 -11 0
v -31 -10 0
v -30 -10 0
v -29 -11 0
v -30 -11 0
v -30 -10 0
v -29 -10 0
v -28 -11 0
v -29 -11 0
v -29 -10 0
v -28 -10 0
v -27 -11 0
v -28 -11 0
v -28 -10 0
v -27 -10 0
v -23 -11 0
v -24 -11 0
v -24 -10 0
v -23 -10 0
v -22 -11 0
v -23 -11 0
v -23 -10 0
v -22 -10 0
v -24 -12 0
v -25 -12 0
v -25 -11 0
v -24 -11 0
v -23 -12 0
v -24 -12 0
v -24 -11 0
v -23 -11 0
v -6 -12 0
v -7 -12 0
v -7 -11 0
v -6 -11 0
v -7 -13 0
v -8 -13 0
v -8 -12 0
v -7 -12 0
v -6 -13 0
v -7 -13 0
v -7 -12 0
v -6 -12 0
v -43 -15 0
v -44 -15 0
v -44 -14 0
v -43 -14 0
v -42 -15 0
v -43 -15 0
v -43 -14 0
v -42 -14 0
v -41 -15 0
v -42 -15 0
v -42 -14 0
v -41 -14 0
v -40 -15 0
v -41 -15 0
v -41 -14 0
v -40 -14 0
v -39 -15 0
v -40 -15 0
v -40 -14 0
v -39 -14 0
v -43 -16 0
v -44 -16 0
v -44 -15 0
v -43 -15 0
v -42 -16 0
v -43 -16 0
v -43 -15 0
v -42 -15 0
v -42 -17 0
v -43 -17 0
v -43 -16 0
v -42 -16 0
v -43 -18 0
v -44 -18 0
v -44 -17 0
v -43 -17 0
v -42 -18 0
v -43 -18 0
v -43 -17 0
v -42 -17 0
v -10 -18 0
v -11 -18 0
v -11 -17 0
v -10 -17 0
v -9 -18 0
v -10 -18 0
v -10 -17 0
v -9 -17 0
v -8 -18 0
v -9 -18 0
v -9 -17 0
v -8 -17 0
v -7 -18 0
v -8 -18 0
v -8 -17 0
v -7 -17 0
v -10 -19 0
v -11 -19 0
v -11 -18 0
v -10 -18 0
v -9 -19 0
v -10 -19 0
v -10 -18 0
v -9 -18 0
v -8 -19 0
v -9 -19 0
v -9 -18 0
v -8 -18 0
v -7 -19 0
v -8 -19 0
v -8 -18 0
v -7 -18 0
v -10 -20 0
v -11 -20 0
v -11 -19 0
v -10 -19 0
v -9 -20 0
v -10 -20 0
v -10 -19 0
v -9 -19 0
v -8 -20 0
v -9 -20 0
v -9 -19 0
v -8 -19 0
v -7 -20 0
v -8 -20 0
v -8 -19 0
v -7 -19 0
v -10 -21 0
v -11 -21 0
v -11 -20 0
v -10 -20 0
v -9 -21 0
v -10 -21 0
v -10 -20 0
v -9 -20 0
v -8 -21 0
v -9 -21 0
v -9 -20 0
v -8 -20 0
v -7 -21 0
v -8 -21 0
v -8 -20 0
v -7 -20 0
v -35 -22 0
v -36 -22 0
v -36 -21 0
v -35 -21 0
v -34 -22 0
v -35 -22 0
v -35 -21 0
v -34 -21 0
v -33 -22 0
v -34 -22 0
v -34 -21 0
v -33 -21 0
v -32 -22 0
v -33 -22 0
v -33 -21 0
v -32 -21 0
v -35 -23 0
v -36 -23 0
v -36 -22 0
v -35 -22 0
v -34 -23 0
v -35 -23 0
v -35 -22 0
v -34 -22 0
v -33 -23 0
v -34 -23 0
v -34 -22 0
v -33 -22 0
v -32 -23 0
v -33 -23 0
v -33 -22 0
v -32 -22 0
v -35 -24 0
v -36 -24 0
v -36 -23 0
v -35 -23 0
v -34 -24 0
v -35 -24 0
v -35 -23 0
v -34 -23 0
v -33 -24 0
v -34 -24 0
v -34 -23 0
v -33 -23 0
v -32 -24 0
v -33 -24 0
v -33 -23 0
v -32 -23 0
v -24 -24 0
v -25 -24 0
v -25 -23 0
v -24 -23 0
v -23 -24 0
v -24 -24 0
v -24 -23 0
v -23 -23 0
v -35 -25 0
v -36 -25 0
v -36 -24 0
v -35 -24 0
v -34 -25 0
v -35 -25 0
v -35 -24 0
v -34 -24 0
v -33 -25 0
v -34 -25 0
v -34 -24 0
v -33 -24 0
v -32 -25 0
v -33 -25 0
v -33 -24 0
v -32 -24 0
v -27 -25 0
v -28 -25 0
v -28 -24 0
v -27 -24 0
v -25 -25 0
v -26 -25 0
v -26 -24 0
v -25 -24 0
v -26 -26 0
v -27 -26 0
v -27 -25 0
v -26 -25 0
v -25 -26 0
v -26 -26 0
v -26 -25 0
v -25 -25 0
v -36 -28 0
v -37 -28 0
v -37 -27 0
v -36 -27 0
v -35 -28 0
v -36 -28 0
v -36 -27 0
v -35 -27 0
v -34 -28 0
v -35 -28 0
v -35 -27 0
v -34 -27 0
v -37 -29 0
v -38 -29 0
v -38 -28 0
v -37 -28 0
v -36 -29 0
v -37 -29 0
v -37 -28 0
v -36 -28 0
v -6 -32 0
v -7 -32 0
v -7 -31 0
v -6 -31 0
v -8 -33 0
v -9 -33 0
v -9 -32 0
v -8 -32 0
v -7 -33 0
v -8 -33 0
v -8 -32 0
v -7 -32 0
v -9 -34 0
v -10 -34 0
v -10 -33 0
v -9 -33 0
v -3 -36 0
v -4 -36 0
v -4 -35 0
v -3 -35 0
v -17 -37 0
v -18 -37 0
v -18 -36 0
v -17 -36 0
v -16 -37 0
v -17 -37 0
v -17 -36 0
v -16 -36 0
v -15 -37 0
v -16 -37 0
v -16 -36 0
v -15 -36 0
v -5 -37 0
v -6 -37 0
v -6 -36 0
v -5 -36 0
v -4 -37 0
v -5 -37 0
v -5 -36 0
v -4 -36 0
v -17 -38 0
v -18 -38 0
v -18 -37 0
v -17 -37 0
v -16 -38 0
v -17 -38 0
v -17 -37 0
v -16 -37 0
v -15 -38 0
v -16 -38 0
v -16 -37 0
v -15 -37 0
v -9 -38 0
v -10 -38 0
v -10 -37 0
v -9 -37 0
v -8 -38 0
v -9 -38 0
v -9 -37 0
v -8 -37 0
v -7 -38 0
v -8 -38 0
v -8 -37 0
v -7 -37 0
v -6 -38 0
v -7 -38 0
v -7 -37 0
v -6 -37 0
v -4 -38 0
v -5 -38 0
v -5 -37 0
v -4 -37 0
v -37 -39 0
v -38 -39 0
v -38 -38 0
v -37 -38 0
v -33 -39 0
v -34 -39 0
v -34 -38 0
v -33 -38 0
v -32 -39 0
v -33 -39 0
v -33 -38 0
v -32 -38 0
v -23 -39 0
v -24 -39 0
v -24 -38 0
v -23 -38 0
v -22 -39 0
v -23 -39 0
v -23 -38 0
v -22 -38 0
v -21 -39 0
v -22 -39 0
v -22 -38 0
v -21 -38 0
v -13 -39 0
v -14 -39 0
v -14 -38 0
v -13 -38 0
v -12 -39 0
v -13 -39 0
v -13 -38 0
v -12 -38 0
v -9 -39 0
v -10 -39 0
v -10 -38 0
v -9 -38 0
v -6 -39 0
v -7 -39 0
v -7 -38 0
v -6 -38 0
v -5 -39 0
v -6 -39 0
v -6 -38 0
v -5 -38 0
v -4 -39 0
v -5 -39 0
v -5 -38 0
v -4 -38 0
v -37 -40 0
v -38 -40 0
v -38 -39 0
v -37 -39 0
v -34 -40 0
v -35 -40 0
v -35 -39 0
v -34 -39 0
v -33 -40 0
v -34 -40 0
v -34 -39 0
v -33 -39 0
v -23 -40 0
v -24 -40 0
v -24 -39 0
v -23 -39 0
v -14 -40 0
v -15 -40 0
v -15 -39 0
v -14 -39 0
v -13 -40 0
v -14 -40 0
v -14 -39 0
v -13 -39 0
v -10 -40 0
v -11 -40 0
v -11 -39 0
v -10 -39 0
v -9 -40 0
v -10 -40 0
v -10 -39 0
v -9 -39 0

# Texture cooridinates (Count = 68)
vt 0.3538282 0.1667888
vt 0.3743903 0.1667888
vt 0.3743903 0.1943223
vt 0.3538282 0.1943223
vt 0.3330219 0.1667888
vt 0.3535841 0.1667888
vt 0.3535841 0.1943223
vt 0.3330219 0.1943223
vt 0.3122157 0.1667888
vt 0.3327778 0.1667888
vt 0.3327778 0.1943223
vt 0.3122157 0.1943223
vt 0.2914095 0.1667888
vt 0.3119715 0.1667888
vt 0.3119715 0.1943223
vt 0.2914095 0.1943223
vt 0.3538282 0.139011
vt 0.3743903 0.139011
vt 0.3743903 0.1665446
vt 0.3538282 0.1665446
vt 0.3330219 0.139011
vt 0.3535841 0.139011
vt 0.3535841 0.1665446
vt 0.3330219 0.1665446
vt 0.3122157 0.139011
vt 0.3327778 0.139011
vt 0.3327778 0.1665446
vt 0.3122157 0.1665446
vt 0.2914095 0.139011
vt 0.3119715 0.139011
vt 0.3119715 0.1665446
vt 0.2914095 0.1665446
vt 0.3538282 0.1112332
vt 0.3743903 0.1112332
vt 0.3743903 0.1387668
vt 0.3538282 0.1387668
vt 0.3330219 0.1112332
vt 0.3535841 0.1112332
vt 0.3535841 0.1387668
vt 0.3330219 0.1387668
vt 0.3122157 0.1112332
vt 0.3327778 0.1112332
vt 0.3327778 0.1387668
vt 0.3122157 0.1387668
vt 0.2914095 0.1112332
vt 0.3119715 0.1112332
vt 0.3119715 0.1387668
vt 0.2914095 0.1387668
vt 0.3538282 0.08345538
vt 0.3743903 0.08345538
vt 0.3743903 0.110989
vt 0.3538282 0.110989
vt 0.3330219 0.08345538
vt 0.3535841 0.08345538
vt 0.3535841 0.110989
vt 0.3330219 0.110989
vt 0.3122157 0.08345538
vt 0.3327778 0.08345538
vt 0.3327778 0.110989
vt 0.3122157 0.110989
vt 0.2914095 0.08345538
vt 0.3119715 0.08345538
vt 0.3119715 0.110989
vt 0.2914095 0.110989
vt 0.04173455 0.5834554
vt 0.06229666 0.5834554
vt 0.06229666 0.610989
vt 0.04173455 0.610989

# Normal
vn 0 0 -1

# Mesh description
g BankoSentral_mesh_0003

# Faces
f 1/1/1 2/2/1 3/3/1 4/4/1
f 5/5/1 6/6/1 7/7/1 8/8/1
f 9/9/1 10/10/1 11/11/1 12/12/1
f 13/13/1 14/14/1 15/15/1 16/16/1
f 17/17/1 18/18/1 19/19/1 20/20/1
f 21/21/1 22/22/1 23/23/1 24/24/1
f 25/25/1 26/26/1 27/27/1 28/28/1
f 29/29/1 30/30/1 31/31/1 32/32/1
f 33/1/1 34/2/1 35/3/1 36/4/1
f 37/5/1 38/6/1 39/7/1 40/8/1
f 41/9/1 42/10/1 43/11/1 44/12/1
f 45/13/1 46/14/1 47/15/1 48/16/1
f 49/33/1 50/34/1 51/35/1 52/36/1
f 53/37/1 54/38/1 55/39/1 56/40/1
f 57/41/1 58/42/1 59/43/1 60/44/1
f 61/45/1 62/46/1 63/47/1 64/48/1
f 65/17/1 66/18/1 67/19/1 68/20/1
f 69/21/1 70/22/1 71/23/1 72/24/1
f 73/25/1 74/26/1 75/27/1 76/28/1
f 77/29/1 78/30/1 79/31/1 80/32/1
f 81/1/1 82/2/1 83/3/1 84/4/1
f 85/5/1 86/6/1 87/7/1 88/8/1
f 89/9/1 90/10/1 91/11/1 92/12/1
f 93/13/1 94/14/1 95/15/1 96/16/1
f 97/49/1 98/50/1 99/51/1 100/52/1
f 101/53/1 102/54/1 103/55/1 104/56/1
f 105/57/1 106/58/1 107/59/1 108/60/1
f 109/61/1 110/62/1 111/63/1 112/64/1
f 113/33/1 114/34/1 115/35/1 116/36/1
f 117/37/1 118/38/1 119/39/1 120/40/1
f 121/41/1 122/42/1 123/43/1 124/44/1
f 125/45/1 126/46/1 127/47/1 128/48/1
f 129/17/1 130/18/1 131/19/1 132/20/1
f 133/21/1 134/22/1 135/23/1 136/24/1
f 137/25/1 138/26/1 139/27/1 140/28/1
f 141/29/1 142/30/1 143/31/1 144/32/1
f 145/49/1 146/50/1 147/51/1 148/52/1
f 149/53/1 150/54/1 151/55/1 152/56/1
f 153/57/1 154/58/1 155/59/1 156/60/1
f 157/61/1 158/62/1 159/63/1 160/64/1
f 161/33/1 162/34/1 163/35/1 164/36/1
f 165/37/1 166/38/1 167/39/1 168/40/1
f 169/41/1 170/42/1 171/43/1 172/44/1
f 173/45/1 174/46/1 175/47/1 176/48/1
f 177/49/1 178/50/1 179/51/1 180/52/1
f 181/53/1 182/54/1 183/55/1 184/56/1
f 185/57/1 186/58/1 187/59/1 188/60/1
f 189/61/1 190/62/1 191/63/1 192/64/1
f 193/1/1 194/2/1 195/3/1 196/4/1
f 197/5/1 198/6/1 199/7/1 200/8/1
f 201/9/1 202/10/1 203/11/1 204/12/1
f 205/13/1 206/14/1 207/15/1 208/16/1
f 209/65/1 210/66/1 211/67/1 212/68/1
f 213/65/1 214/66/1 215/67/1 216/68/1
f 217/17/1 218/18/1 219/19/1 220/20/1
f 221/21/1 222/22/1 223/23/1 224/24/1
f 225/25/1 226/26/1 227/27/1 228/28/1
f 229/29/1 230/30/1 231/31/1 232/32/1
f 233/65/1 234/66/1 235/67/1 236/68/1
f 237/65/1 238/66/1 239/67/1 240/68/1
f 241/65/1 242/66/1 243/67/1 244/68/1
f 245/65/1 246/66/1 247/67/1 248/68/1
f 249/65/1 250/66/1 251/67/1 252/68/1
f 253/33/1 254/34/1 255/35/1 256/36/1
f 257/37/1 258/38/1 259/39/1 260/40/1
f 261/41/1 262/42/1 263/43/1 264/44/1
f 265/45/1 266/46/1 267/47/1 268/48/1
f 269/65/1 270/66/1 271/67/1 272/68/1
f 273/65/1 274/66/1 275/67/1 276/68/1
f 277/65/1 278/66/1 279/67/1 280/68/1
f 281/65/1 282/66/1 283/67/1 284/68/1
f 285/65/1 286/66/1 287/67/1 288/68/1
f 289/65/1 290/66/1 291/67/1 292/68/1
f 293/65/1 294/66/1 295/67/1 296/68/1
f 297/49/1 298/50/1 299/51/1 300/52/1
f 301/53/1 302/54/1 303/55/1 304/56/1
f 305/57/1 306/58/1 307/59/1 308/60/1
f 309/61/1 310/62/1 311/63/1 312/64/1
f 313/65/1 314/66/1 315/67/1 316/68/1
f 317/65/1 318/66/1 319/67/1 320/68/1
f 321/65/1 322/66/1 323/67/1 324/68/1
f 325/65/1 326/66/1 327/67/1 328/68/1
f 329/65/1 330/66/1 331/67/1 332/68/1
f 333/65/1 334/66/1 335/67/1 336/68/1
f 337/65/1 338/66/1 339/67/1 340/68/1
f 341/65/1 342/66/1 343/67/1 344/68/1
f 345/65/1 346/66/1 347/67/1 348/68/1
f 349/65/1 350/66/1 351/67/1 352/68/1
f 353/65/1 354/66/1 355/67/1 356/68/1
f 357/65/1 358/66/1 359/67/1 360/68/1
f 361/65/1 362/66/1 363/67/1 364/68/1
f 365/65/1 366/66/1 367/67/1 368/68/1
f 369/65/1 370/66/1 371/67/1 372/68/1
f 373/65/1 374/66/1 375/67/1 376/68/1
f 377/65/1 378/66/1 379/67/1 380/68/1
f 381/1/1 382/2/1 383/3/1 384/4/1
f 385/5/1 386/6/1 387/7/1 388/8/1
f 389/9/1 390/10/1 391/11/1 392/12/1
f 393/13/1 394/14/1 395/15/1 396/16/1
f 397/17/1 398/18/1 399/19/1 400/20/1
f 401/21/1 402/22/1 403/23/1 404/24/1
f 405/25/1 406/26/1 407/27/1 408/28/1
f 409/29/1 410/30/1 411/31/1 412/32/1
f 413/33/1 414/34/1 415/35/1 416/36/1
f 417/37/1 418/38/1 419/39/1 420/40/1
f 421/41/1 422/42/1 423/43/1 424/44/1
f 425/45/1 426/46/1 427/47/1 428/48/1
f 429/49/1 430/50/1 431/51/1 432/52/1
f 433/53/1 434/54/1 435/55/1 436/56/1
f 437/57/1 438/58/1 439/59/1 440/60/1
f 441/61/1 442/62/1 443/63/1 444/64/1
f 445/1/1 446/2/1 447/3/1 448/4/1
f 449/5/1 450/6/1 451/7/1 452/8/1
f 453/9/1 454/10/1 455/11/1 456/12/1
f 457/13/1 458/14/1 459/15/1 460/16/1
f 461/17/1 462/18/1 463/19/1 464/20/1
f 465/21/1 466/22/1 467/23/1 468/24/1
f 469/25/1 470/26/1 471/27/1 472/28/1
f 473/29/1 474/30/1 475/31/1 476/32/1
f 477/33/1 478/34/1 479/35/1 480/36/1
f 481/37/1 482/38/1 483/39/1 484/40/1
f 485/41/1 486/42/1 487/43/1 488/44/1
f 489/45/1 490/46/1 491/47/1 492/48/1
f 493/65/1 494/66/1 495/67/1 496/68/1
f 497/65/1 498/66/1 499/67/1 500/68/1
f 501/49/1 502/50/1 503/51/1 504/52/1
f 505/53/1 506/54/1 507/55/1 508/56/1
f 509/57/1 510/58/1 511/59/1 512/60/1
f 513/61/1 514/62/1 515/63/1 516/64/1
f 517/65/1 518/66/1 519/67/1 520/68/1
f 521/65/1 522/66/1 523/67/1 524/68/1
f 525/65/1 526/66/1 527/67/1 528/68/1
f 529/65/1 530/66/1 531/67/1 532/68/1
f 533/65/1 534/66/1 535/67/1 536/68/1
f 537/65/1 538/66/1 539/67/1 540/68/1
f 541/65/1 542/66/1 543/67/1 544/68/1
f 545/65/1 546/66/1 547/67/1 548/68/1
f 549/65/1 550/66/1 551/67/1 552/68/1
f 553/65/1 554/66/1 555/67/1 556/68/1
f 557/65/1 558/66/1 559/67/1 560/68/1
f 561/65/1 562/66/1 563/67/1 564/68/1
f 565/65/1 566/66/1 567/67/1 568/68/1
f 569/65/1 570/66/1 571/67/1 572/68/1
f 573/65/1 574/66/1 575/67/1 576/68/1
f 577/65/1 578/66/1 579/67/1 580/68/1
f 581/65/1 582/66/1 583/67/1 584/68/1
f 585/65/1 586/66/1 587/67/1 588/68/1
f 589/65/1 590/66/1 591/67/1 592/68/1
f 593/65/1 594/66/1 595/67/1 596/68/1
f 597/65/1 598/66/1 599/67/1 600/68/1
f 601/65/1 602/66/1 603/67/1 604/68/1
f 605/65/1 606/66/1 607/67/1 608/68/1
f 609/65/1 610/66/1 611/67/1 612/68/1
f 613/65/1 614/66/1 615/67/1 616/68/1
f 617/65/1 618/66/1 619/67/1 620/68/1
f 621/65/1 622/66/1 623/67/1 624/68/1
f 625/65/1 626/66/1 627/67/1 628/68/1
f 629/65/1 630/66/1 631/67/1 632/68/1
f 633/65/1 634/66/1 635/67/1 636/68/1
f 637/65/1 638/66/1 639/67/1 640/68/1
f 641/65/1 642/66/1 643/67/1 644/68/1
f 645/65/1 646/66/1 647/67/1 648/68/1
f 649/65/1 650/66/1 651/67/1 652/68/1
f 653/65/1 654/66/1 655/67/1 656/68/1
f 657/65/1 658/66/1 659/67/1 660/68/1
f 661/65/1 662/66/1 663/67/1 664/68/1
f 665/65/1 666/66/1 667/67/1 668/68/1
f 669/65/1 670/66/1 671/67/1 672/68/1
f 673/65/1 674/66/1 675/67/1 676/68/1
f 677/65/1 678/66/1 679/67/1 680/68/1
f 681/65/1 682/66/1 683/67/1 684/68/1
f 685/65/1 686/66/1 687/67/1 688/68/1
f 689/65/1 690/66/1 691/67/1 692/68/1
f 693/65/1 694/66/1 695/67/1 696/68/1
f 697/65/1 698/66/1 699/67/1 700/68/1
f 701/65/1 702/66/1 703/67/1 704/68/1

