# Tiled2Unity generated file. Do not modify by hand.
# Wavefront file for 'JewelryStore_mesh_0002.obj'

# Vertices (Count = 348)
v -17 -1 0
v -18 -1 0
v -18 0 0
v -17 0 0
v -15 -1 0
v -16 -1 0
v -16 0 0
v -15 0 0
v -14 -1 0
v -15 -1 0
v -15 0 0
v -14 0 0
v -13 -1 0
v -14 -1 0
v -14 0 0
v -13 0 0
v -12 -1 0
v -13 -1 0
v -13 0 0
v -12 0 0
v -11 -1 0
v -12 -1 0
v -12 0 0
v -11 0 0
v -10 -1 0
v -11 -1 0
v -11 0 0
v -10 0 0
v -9 -1 0
v -10 -1 0
v -10 0 0
v -9 0 0
v -8 -1 0
v -9 -1 0
v -9 0 0
v -8 0 0
v -7 -1 0
v -8 -1 0
v -8 0 0
v -7 0 0
v -6 -1 0
v -7 -1 0
v -7 0 0
v -6 0 0
v -5 -1 0
v -6 -1 0
v -6 0 0
v -5 0 0
v -4 -1 0
v -5 -1 0
v -5 0 0
v -4 0 0
v -2 -1 0
v -3 -1 0
v -3 0 0
v -2 0 0
v -17 -2 0
v -18 -2 0
v -18 -1 0
v -17 -1 0
v -15 -2 0
v -16 -2 0
v -16 -1 0
v -15 -1 0
v -14 -2 0
v -15 -2 0
v -15 -1 0
v -14 -1 0
v -13 -2 0
v -14 -2 0
v -14 -1 0
v -13 -1 0
v -12 -2 0
v -13 -2 0
v -13 -1 0
v -12 -1 0
v -11 -2 0
v -12 -2 0
v -12 -1 0
v -11 -1 0
v -10 -2 0
v -11 -2 0
v -11 -1 0
v -10 -1 0
v -9 -2 0
v -10 -2 0
v -10 -1 0
v -9 -1 0
v -8 -2 0
v -9 -2 0
v -9 -1 0
v -8 -1 0
v -7 -2 0
v -8 -2 0
v -8 -1 0
v -7 -1 0
v -6 -2 0
v -7 -2 0
v -7 -1 0
v -6 -1 0
v -5 -2 0
v -6 -2 0
v -6 -1 0
v -5 -1 0
v -4 -2 0
v -5 -2 0
v -5 -1 0
v -4 -1 0
v -2 -2 0
v -3 -2 0
v -3 -1 0
v -2 -1 0
v -15 -3 0
v -16 -3 0
v -16 -2 0
v -15 -2 0
v -14 -3 0
v -15 -3 0
v -15 -2 0
v -14 -2 0
v -13 -3 0
v -14 -3 0
v -14 -2 0
v -13 -2 0
v -12 -3 0
v -13 -3 0
v -13 -2 0
v -12 -2 0
v -11 -3 0
v -12 -3 0
v -12 -2 0
v -11 -2 0
v -10 -3 0
v -11 -3 0
v -11 -2 0
v -10 -2 0
v -9 -3 0
v -10 -3 0
v -10 -2 0
v -9 -2 0
v -8 -3 0
v -9 -3 0
v -9 -2 0
v -8 -2 0
v -7 -3 0
v -8 -3 0
v -8 -2 0
v -7 -2 0
v -6 -3 0
v -7 -3 0
v -7 -2 0
v -6 -2 0
v -5 -3 0
v -6 -3 0
v -6 -2 0
v -5 -2 0
v -4 -3 0
v -5 -3 0
v -5 -2 0
v -4 -2 0
v -15 -6 0
v -16 -6 0
v -16 -5 0
v -15 -5 0
v -14 -6 0
v -15 -6 0
v -15 -5 0
v -14 -5 0
v -13 -6 0
v -14 -6 0
v -14 -5 0
v -13 -5 0
v -12 -6 0
v -13 -6 0
v -13 -5 0
v -12 -5 0
v -11 -6 0
v -12 -6 0
v -12 -5 0
v -11 -5 0
v -10 -6 0
v -11 -6 0
v -11 -5 0
v -10 -5 0
v -9 -6 0
v -10 -6 0
v -10 -5 0
v -9 -5 0
v -8 -6 0
v -9 -6 0
v -9 -5 0
v -8 -5 0
v -7 -6 0
v -8 -6 0
v -8 -5 0
v -7 -5 0
v -6 -6 0
v -7 -6 0
v -7 -5 0
v -6 -5 0
v -5 -6 0
v -6 -6 0
v -6 -5 0
v -5 -5 0
v -4 -6 0
v -5 -6 0
v -5 -5 0
v -4 -5 0
v -15 -7 0
v -16 -7 0
v -16 -6 0
v -15 -6 0
v -14 -7 0
v -15 -7 0
v -15 -6 0
v -14 -6 0
v -13 -7 0
v -14 -7 0
v -14 -6 0
v -13 -6 0
v -12 -7 0
v -13 -7 0
v -13 -6 0
v -12 -6 0
v -11 -7 0
v -12 -7 0
v -12 -6 0
v -11 -6 0
v -10 -7 0
v -11 -7 0
v -11 -6 0
v -10 -6 0
v -9 -7 0
v -10 -7 0
v -10 -6 0
v -9 -6 0
v -8 -7 0
v -9 -7 0
v -9 -6 0
v -8 -6 0
v -7 -7 0
v -8 -7 0
v -8 -6 0
v -7 -6 0
v -6 -7 0
v -7 -7 0
v -7 -6 0
v -6 -6 0
v -5 -7 0
v -6 -7 0
v -6 -6 0
v -5 -6 0
v -4 -7 0
v -5 -7 0
v -5 -6 0
v -4 -6 0
v -11 -9 0
v -12 -9 0
v -12 -8 0
v -11 -8 0
v -10 -9 0
v -11 -9 0
v -11 -8 0
v -10 -8 0
v -9 -9 0
v -10 -9 0
v -10 -8 0
v -9 -8 0
v -8 -9 0
v -9 -9 0
v -9 -8 0
v -8 -8 0
v -11 -10 0
v -12 -10 0
v -12 -9 0
v -11 -9 0
v -10 -10 0
v -11 -10 0
v -11 -9 0
v -10 -9 0
v -9 -10 0
v -10 -10 0
v -10 -9 0
v -9 -9 0
v -8 -10 0
v -9 -10 0
v -9 -9 0
v -8 -9 0
v -11 -11 0
v -12 -11 0
v -12 -10 0
v -11 -10 0
v -10 -11 0
v -11 -11 0
v -11 -10 0
v -10 -10 0
v -9 -11 0
v -10 -11 0
v -10 -10 0
v -9 -10 0
v -8 -11 0
v -9 -11 0
v -9 -10 0
v -8 -10 0
v -11 -12 0
v -12 -12 0
v -12 -11 0
v -11 -11 0
v -10 -12 0
v -11 -12 0
v -11 -11 0
v -10 -11 0
v -9 -12 0
v -10 -12 0
v -10 -11 0
v -9 -11 0
v -8 -12 0
v -9 -12 0
v -9 -11 0
v -8 -11 0
v -17 -19 0
v -18 -19 0
v -18 -18 0
v -17 -18 0
v -10 -19 0
v -11 -19 0
v -11 -18 0
v -10 -18 0
v -9 -19 0
v -10 -19 0
v -10 -18 0
v -9 -18 0
v -8 -19 0
v -9 -19 0
v -9 -18 0
v -8 -18 0
v -2 -19 0
v -3 -19 0
v -3 -18 0
v -2 -18 0
v -17 -20 0
v -18 -20 0
v -18 -19 0
v -17 -19 0
v -2 -20 0
v -3 -20 0
v -3 -19 0
v -2 -19 0

# Texture cooridinates (Count = 188)
vt 0.2801221 0.962297
vt 0.3198779 0.962297
vt 0.3198779 0.9998779
vt 0.2801221 0.9998779
vt 0.2001221 0.1301457
vt 0.2398779 0.1301457
vt 0.2398779 0.1677266
vt 0.2001221 0.1677266
vt 0.1601221 0.1301457
vt 0.1998779 0.1301457
vt 0.1998779 0.1677266
vt 0.1601221 0.1677266
vt 0.1201221 0.1301457
vt 0.1598779 0.1301457
vt 0.1598779 0.1677266
vt 0.1201221 0.1677266
vt 0.08012207 0.1301457
vt 0.1198779 0.1301457
vt 0.1198779 0.1677266
vt 0.08012207 0.1677266
vt 0.04012207 0.1301457
vt 0.07987793 0.1301457
vt 0.07987793 0.1677266
vt 0.04012207 0.1677266
vt 0.0001220703 0.1301457
vt 0.03987793 0.1301457
vt 0.03987793 0.1677266
vt 0.0001220703 0.1677266
vt 0.2801221 0.924472
vt 0.3198779 0.924472
vt 0.3198779 0.9620529
vt 0.2801221 0.9620529
vt 0.2001221 0.09232068
vt 0.2398779 0.09232068
vt 0.2398779 0.1299016
vt 0.2001221 0.1299016
vt 0.1601221 0.09232068
vt 0.1998779 0.09232068
vt 0.1998779 0.1299016
vt 0.1601221 0.1299016
vt 0.1201221 0.09232068
vt 0.1598779 0.09232068
vt 0.1598779 0.1299016
vt 0.1201221 0.1299016
vt 0.08012207 0.09232068
vt 0.1198779 0.09232068
vt 0.1198779 0.1299016
vt 0.08012207 0.1299016
vt 0.04012207 0.09232068
vt 0.07987793 0.09232068
vt 0.07987793 0.1299016
vt 0.04012207 0.1299016
vt 0.0001220703 0.09232068
vt 0.03987793 0.09232068
vt 0.03987793 0.1299016
vt 0.0001220703 0.1299016
vt 0.2001221 0.05449557
vt 0.2398779 0.05449557
vt 0.2398779 0.09207654
vt 0.2001221 0.09207654
vt 0.1601221 0.05449557
vt 0.1998779 0.05449557
vt 0.1998779 0.09207654
vt 0.1601221 0.09207654
vt 0.1201221 0.05449557
vt 0.1598779 0.05449557
vt 0.1598779 0.09207654
vt 0.1201221 0.09207654
vt 0.08012207 0.05449557
vt 0.1198779 0.05449557
vt 0.1198779 0.09207654
vt 0.08012207 0.09207654
vt 0.04012207 0.05449557
vt 0.07987793 0.05449557
vt 0.07987793 0.09207654
vt 0.04012207 0.09207654
vt 0.0001220703 0.05449557
vt 0.03987793 0.05449557
vt 0.03987793 0.09207654
vt 0.0001220703 0.09207654
vt 0.6001221 0.2057958
vt 0.6398779 0.2057958
vt 0.6398779 0.2433767
vt 0.6001221 0.2433767
vt 0.5601221 0.2057958
vt 0.599878 0.2057958
vt 0.599878 0.2433767
vt 0.5601221 0.2433767
vt 0.5201221 0.2057958
vt 0.5598779 0.2057958
vt 0.5598779 0.2433767
vt 0.5201221 0.2433767
vt 0.4801221 0.2057958
vt 0.5198779 0.2057958
vt 0.5198779 0.2433767
vt 0.4801221 0.2433767
vt 0.4401221 0.2057958
vt 0.4798779 0.2057958
vt 0.4798779 0.2433767
vt 0.4401221 0.2433767
vt 0.4001221 0.2057958
vt 0.4398779 0.2057958
vt 0.4398779 0.2433767
vt 0.4001221 0.2433767
vt 0.6001221 0.1679708
vt 0.6398779 0.1679708
vt 0.6398779 0.2055517
vt 0.6001221 0.2055517
vt 0.5601221 0.1679708
vt 0.599878 0.1679708
vt 0.599878 0.2055517
vt 0.5601221 0.2055517
vt 0.5201221 0.1679708
vt 0.5598779 0.1679708
vt 0.5598779 0.2055517
vt 0.5201221 0.2055517
vt 0.4801221 0.1679708
vt 0.5198779 0.1679708
vt 0.5198779 0.2055517
vt 0.4801221 0.2055517
vt 0.4401221 0.1679708
vt 0.4798779 0.1679708
vt 0.4798779 0.2055517
vt 0.4401221 0.2055517
vt 0.4001221 0.1679708
vt 0.4398779 0.1679708
vt 0.4398779 0.2055517
vt 0.4001221 0.2055517
vt 0.6801221 0.3570961
vt 0.719878 0.3570961
vt 0.719878 0.394677
vt 0.6801221 0.394677
vt 0.6401221 0.3570961
vt 0.6798779 0.3570961
vt 0.6798779 0.394677
vt 0.6401221 0.394677
vt 0.6001221 0.3570961
vt 0.6398779 0.3570961
vt 0.6398779 0.394677
vt 0.6001221 0.394677
vt 0.6801221 0.319271
vt 0.719878 0.319271
vt 0.719878 0.3568519
vt 0.6801221 0.3568519
vt 0.7601221 0.3570961
vt 0.7998779 0.3570961
vt 0.7998779 0.394677
vt 0.7601221 0.394677
vt 0.7201221 0.3570961
vt 0.7598779 0.3570961
vt 0.7598779 0.394677
vt 0.7201221 0.394677
vt 0.6001221 0.319271
vt 0.6398779 0.319271
vt 0.6398779 0.3568519
vt 0.6001221 0.3568519
vt 0.7601221 0.319271
vt 0.7998779 0.319271
vt 0.7998779 0.3568519
vt 0.7601221 0.3568519
vt 0.7201221 0.319271
vt 0.7598779 0.319271
vt 0.7598779 0.3568519
vt 0.7201221 0.3568519
vt 0.6801221 0.2814459
vt 0.719878 0.2814459
vt 0.719878 0.3190269
vt 0.6801221 0.3190269
vt 0.6401221 0.2814459
vt 0.6798779 0.2814459
vt 0.6798779 0.3190269
vt 0.6401221 0.3190269
vt 0.6001221 0.2814459
vt 0.6398779 0.2814459
vt 0.6398779 0.3190269
vt 0.6001221 0.3190269
vt 0.6001221 0.432502
vt 0.6001221 0.3949211
vt 0.6398779 0.3949211
vt 0.6398779 0.432502
vt 0.6001221 0.4703271
vt 0.6001221 0.4327462
vt 0.6398779 0.4327462
vt 0.6398779 0.4703271
vt 0.6001221 0.5081521
vt 0.6001221 0.4705712
vt 0.6398779 0.4705712
vt 0.6398779 0.5081521

# Normal
vn 0 0 -1

# Mesh description
g JewelryStore_mesh_0002

# Faces
f 1/1/1 2/2/1 3/3/1 4/4/1
f 5/5/1 6/6/1 7/7/1 8/8/1
f 9/9/1 10/10/1 11/11/1 12/12/1
f 13/13/1 14/14/1 15/15/1 16/16/1
f 17/17/1 18/18/1 19/19/1 20/20/1
f 21/21/1 22/22/1 23/23/1 24/24/1
f 25/25/1 26/26/1 27/27/1 28/28/1
f 29/5/1 30/6/1 31/7/1 32/8/1
f 33/9/1 34/10/1 35/11/1 36/12/1
f 37/13/1 38/14/1 39/15/1 40/16/1
f 41/17/1 42/18/1 43/19/1 44/20/1
f 45/21/1 46/22/1 47/23/1 48/24/1
f 49/25/1 50/26/1 51/27/1 52/28/1
f 53/1/1 54/2/1 55/3/1 56/4/1
f 57/29/1 58/30/1 59/31/1 60/32/1
f 61/33/1 62/34/1 63/35/1 64/36/1
f 65/37/1 66/38/1 67/39/1 68/40/1
f 69/41/1 70/42/1 71/43/1 72/44/1
f 73/45/1 74/46/1 75/47/1 76/48/1
f 77/49/1 78/50/1 79/51/1 80/52/1
f 81/53/1 82/54/1 83/55/1 84/56/1
f 85/33/1 86/34/1 87/35/1 88/36/1
f 89/37/1 90/38/1 91/39/1 92/40/1
f 93/41/1 94/42/1 95/43/1 96/44/1
f 97/45/1 98/46/1 99/47/1 100/48/1
f 101/49/1 102/50/1 103/51/1 104/52/1
f 105/53/1 106/54/1 107/55/1 108/56/1
f 109/29/1 110/30/1 111/31/1 112/32/1
f 113/57/1 114/58/1 115/59/1 116/60/1
f 117/61/1 118/62/1 119/63/1 120/64/1
f 121/65/1 122/66/1 123/67/1 124/68/1
f 125/69/1 126/70/1 127/71/1 128/72/1
f 129/73/1 130/74/1 131/75/1 132/76/1
f 133/77/1 134/78/1 135/79/1 136/80/1
f 137/57/1 138/58/1 139/59/1 140/60/1
f 141/61/1 142/62/1 143/63/1 144/64/1
f 145/65/1 146/66/1 147/67/1 148/68/1
f 149/69/1 150/70/1 151/71/1 152/72/1
f 153/73/1 154/74/1 155/75/1 156/76/1
f 157/77/1 158/78/1 159/79/1 160/80/1
f 161/81/1 162/82/1 163/83/1 164/84/1
f 165/85/1 166/86/1 167/87/1 168/88/1
f 169/89/1 170/90/1 171/91/1 172/92/1
f 173/93/1 174/94/1 175/95/1 176/96/1
f 177/97/1 178/98/1 179/99/1 180/100/1
f 181/101/1 182/102/1 183/103/1 184/104/1
f 185/81/1 186/82/1 187/83/1 188/84/1
f 189/85/1 190/86/1 191/87/1 192/88/1
f 193/89/1 194/90/1 195/91/1 196/92/1
f 197/93/1 198/94/1 199/95/1 200/96/1
f 201/97/1 202/98/1 203/99/1 204/100/1
f 205/101/1 206/102/1 207/103/1 208/104/1
f 209/105/1 210/106/1 211/107/1 212/108/1
f 213/109/1 214/110/1 215/111/1 216/112/1
f 217/113/1 218/114/1 219/115/1 220/116/1
f 221/117/1 222/118/1 223/119/1 224/120/1
f 225/121/1 226/122/1 227/123/1 228/124/1
f 229/125/1 230/126/1 231/127/1 232/128/1
f 233/105/1 234/106/1 235/107/1 236/108/1
f 237/109/1 238/110/1 239/111/1 240/112/1
f 241/113/1 242/114/1 243/115/1 244/116/1
f 245/117/1 246/118/1 247/119/1 248/120/1
f 249/121/1 250/122/1 251/123/1 252/124/1
f 253/125/1 254/126/1 255/127/1 256/128/1
f 257/129/1 258/130/1 259/131/1 260/132/1
f 261/133/1 262/134/1 263/135/1 264/136/1
f 265/133/1 266/134/1 267/135/1 268/136/1
f 269/137/1 270/138/1 271/139/1 272/140/1
f 273/141/1 274/142/1 275/143/1 276/144/1
f 277/145/1 278/146/1 279/147/1 280/148/1
f 281/149/1 282/150/1 283/151/1 284/152/1
f 285/153/1 286/154/1 287/155/1 288/156/1
f 289/141/1 290/142/1 291/143/1 292/144/1
f 293/157/1 294/158/1 295/159/1 296/160/1
f 297/161/1 298/162/1 299/163/1 300/164/1
f 301/153/1 302/154/1 303/155/1 304/156/1
f 305/165/1 306/166/1 307/167/1 308/168/1
f 309/169/1 310/170/1 311/171/1 312/172/1
f 313/169/1 314/170/1 315/171/1 316/172/1
f 317/173/1 318/174/1 319/175/1 320/176/1
f 321/31/1 322/32/1 323/29/1 324/30/1
f 325/177/1 326/178/1 327/179/1 328/180/1
f 329/181/1 330/182/1 331/183/1 332/184/1
f 333/185/1 334/186/1 335/187/1 336/188/1
f 337/31/1 338/32/1 339/29/1 340/30/1
f 341/3/1 342/4/1 343/1/1 344/2/1
f 345/3/1 346/4/1 347/1/1 348/2/1

