# Tiled2Unity generated file. Do not modify by hand.
# Wavefront file for 'T-CaloExt_mesh_0008.obj'

# Vertices (Count = 172)
v -41 -10 0
v -42 -10 0
v -42 -9 0
v -41 -9 0
v -40 -10 0
v -41 -10 0
v -41 -9 0
v -40 -9 0
v -39 -10 0
v -40 -10 0
v -40 -9 0
v -39 -9 0
v -38 -10 0
v -39 -10 0
v -39 -9 0
v -38 -9 0
v -37 -10 0
v -38 -10 0
v -38 -9 0
v -37 -9 0
v -36 -10 0
v -37 -10 0
v -37 -9 0
v -36 -9 0
v -41 -11 0
v -42 -11 0
v -42 -10 0
v -41 -10 0
v -40 -11 0
v -41 -11 0
v -41 -10 0
v -40 -10 0
v -39 -11 0
v -40 -11 0
v -40 -10 0
v -39 -10 0
v -38 -11 0
v -39 -11 0
v -39 -10 0
v -38 -10 0
v -37 -11 0
v -38 -11 0
v -38 -10 0
v -37 -10 0
v -36 -11 0
v -37 -11 0
v -37 -10 0
v -36 -10 0
v -41 -12 0
v -42 -12 0
v -42 -11 0
v -41 -11 0
v -40 -12 0
v -41 -12 0
v -41 -11 0
v -40 -11 0
v -39 -12 0
v -40 -12 0
v -40 -11 0
v -39 -11 0
v -38 -12 0
v -39 -12 0
v -39 -11 0
v -38 -11 0
v -37 -12 0
v -38 -12 0
v -38 -11 0
v -37 -11 0
v -36 -12 0
v -37 -12 0
v -37 -11 0
v -36 -11 0
v -28 -12 0
v -29 -12 0
v -29 -11 0
v -28 -11 0
v -27 -12 0
v -28 -12 0
v -28 -11 0
v -27 -11 0
v -26 -12 0
v -27 -12 0
v -27 -11 0
v -26 -11 0
v -25 -12 0
v -26 -12 0
v -26 -11 0
v -25 -11 0
v -24 -12 0
v -25 -12 0
v -25 -11 0
v -24 -11 0
v -23 -12 0
v -24 -12 0
v -24 -11 0
v -23 -11 0
v -22 -12 0
v -23 -12 0
v -23 -11 0
v -22 -11 0
v -21 -12 0
v -22 -12 0
v -22 -11 0
v -21 -11 0
v -20 -12 0
v -21 -12 0
v -21 -11 0
v -20 -11 0
v -41 -13 0
v -42 -13 0
v -42 -12 0
v -41 -12 0
v -40 -13 0
v -41 -13 0
v -41 -12 0
v -40 -12 0
v -39 -13 0
v -40 -13 0
v -40 -12 0
v -39 -12 0
v -38 -13 0
v -39 -13 0
v -39 -12 0
v -38 -12 0
v -37 -13 0
v -38 -13 0
v -38 -12 0
v -37 -12 0
v -36 -13 0
v -37 -13 0
v -37 -12 0
v -36 -12 0
v -16 -22 0
v -17 -22 0
v -17 -21 0
v -16 -21 0
v -15 -22 0
v -16 -22 0
v -16 -21 0
v -15 -21 0
v -14 -22 0
v -15 -22 0
v -15 -21 0
v -14 -21 0
v -13 -22 0
v -14 -22 0
v -14 -21 0
v -13 -21 0
v -12 -22 0
v -13 -22 0
v -13 -21 0
v -12 -21 0
v -11 -22 0
v -12 -22 0
v -12 -21 0
v -11 -21 0
v -10 -46 0
v -11 -46 0
v -11 -45 0
v -10 -45 0
v -9 -46 0
v -10 -46 0
v -10 -45 0
v -9 -45 0
v -8 -46 0
v -9 -46 0
v -9 -45 0
v -8 -45 0
v -7 -46 0
v -8 -46 0
v -8 -45 0
v -7 -45 0

# Texture cooridinates (Count = 172)
vt 0.5690876 0.5527537
vt 0.5860848 0.5527537
vt 0.5860848 0.5788253
vt 0.5690876 0.5788253
vt 0.5518462 0.5527537
vt 0.5688434 0.5527537
vt 0.5688434 0.5788253
vt 0.5518462 0.5788253
vt 0.5346048 0.5527537
vt 0.5516021 0.5527537
vt 0.5516021 0.5788253
vt 0.5346048 0.5788253
vt 0.5173634 0.5527537
vt 0.5343607 0.5527537
vt 0.5343607 0.5788253
vt 0.5173634 0.5788253
vt 0.5001221 0.5527537
vt 0.5171193 0.5527537
vt 0.5171193 0.5788253
vt 0.5001221 0.5788253
vt 0.4828807 0.5527537
vt 0.4998779 0.5527537
vt 0.4998779 0.5788253
vt 0.4828807 0.5788253
vt 0.5690876 0.5264379
vt 0.5860848 0.5264379
vt 0.5860848 0.5525095
vt 0.5690876 0.5525095
vt 0.5518462 0.5264379
vt 0.5688434 0.5264379
vt 0.5688434 0.5525095
vt 0.5518462 0.5525095
vt 0.5346048 0.5264379
vt 0.5516021 0.5264379
vt 0.5516021 0.5525095
vt 0.5346048 0.5525095
vt 0.5173634 0.5264379
vt 0.5343607 0.5264379
vt 0.5343607 0.5525095
vt 0.5173634 0.5525095
vt 0.5001221 0.5264379
vt 0.5171193 0.5264379
vt 0.5171193 0.5525095
vt 0.5001221 0.5525095
vt 0.4828807 0.5264379
vt 0.4998779 0.5264379
vt 0.4998779 0.5525095
vt 0.4828807 0.5525095
vt 0.5690876 0.5001221
vt 0.5860848 0.5001221
vt 0.5860848 0.5261937
vt 0.5690876 0.5261937
vt 0.5518462 0.5001221
vt 0.5688434 0.5001221
vt 0.5688434 0.5261937
vt 0.5518462 0.5261937
vt 0.5346048 0.5001221
vt 0.5516021 0.5001221
vt 0.5516021 0.5261937
vt 0.5346048 0.5261937
vt 0.5173634 0.5001221
vt 0.5343607 0.5001221
vt 0.5343607 0.5261937
vt 0.5173634 0.5261937
vt 0.5001221 0.5001221
vt 0.5171193 0.5001221
vt 0.5171193 0.5261937
vt 0.5001221 0.5261937
vt 0.4828807 0.5001221
vt 0.4998779 0.5001221
vt 0.4998779 0.5261937
vt 0.4828807 0.5261937
vt 0.1552945 0.3948589
vt 0.1722917 0.3948589
vt 0.1722917 0.4209306
vt 0.1552945 0.4209306
vt 0.1380531 0.3948589
vt 0.1550503 0.3948589
vt 0.1550503 0.4209306
vt 0.1380531 0.4209306
vt 0.1208117 0.3948589
vt 0.137809 0.3948589
vt 0.137809 0.4209306
vt 0.1208117 0.4209306
vt 0.1035703 0.3948589
vt 0.1205676 0.3948589
vt 0.1205676 0.4209306
vt 0.1035703 0.4209306
vt 0.08632897 0.3948589
vt 0.1033262 0.3948589
vt 0.1033262 0.4209306
vt 0.08632897 0.4209306
vt 0.06908759 0.3948589
vt 0.08608483 0.3948589
vt 0.08608483 0.4209306
vt 0.06908759 0.4209306
vt 0.05184621 0.3948589
vt 0.06884345 0.3948589
vt 0.06884345 0.4209306
vt 0.05184621 0.4209306
vt 0.03460483 0.3948589
vt 0.05160207 0.3948589
vt 0.05160207 0.4209306
vt 0.03460483 0.4209306
vt 0.01736345 0.3948589
vt 0.03436069 0.3948589
vt 0.03436069 0.4209306
vt 0.01736345 0.4209306
vt 0.5690876 0.4738063
vt 0.5860848 0.4738063
vt 0.5860848 0.4998779
vt 0.5690876 0.4998779
vt 0.5518462 0.4738063
vt 0.5688434 0.4738063
vt 0.5688434 0.4998779
vt 0.5518462 0.4998779
vt 0.5346048 0.4738063
vt 0.5516021 0.4738063
vt 0.5516021 0.4998779
vt 0.5346048 0.4998779
vt 0.5173634 0.4738063
vt 0.5343607 0.4738063
vt 0.5343607 0.4998779
vt 0.5173634 0.4998779
vt 0.5001221 0.4738063
vt 0.5171193 0.4738063
vt 0.5171193 0.4998779
vt 0.5001221 0.4998779
vt 0.4828807 0.4738063
vt 0.4998779 0.4738063
vt 0.4998779 0.4998779
vt 0.4828807 0.4998779
vt 0.2759841 0.26328
vt 0.2929814 0.26328
vt 0.2929814 0.2893516
vt 0.2759841 0.2893516
vt 0.2587427 0.26328
vt 0.27574 0.26328
vt 0.27574 0.2893516
vt 0.2587427 0.2893516
vt 0.2415014 0.26328
vt 0.2584986 0.26328
vt 0.2584986 0.2893516
vt 0.2415014 0.2893516
vt 0.22426 0.26328
vt 0.2412572 0.26328
vt 0.2412572 0.2893516
vt 0.22426 0.2893516
vt 0.2070186 0.26328
vt 0.2240159 0.26328
vt 0.2240159 0.2893516
vt 0.2070186 0.2893516
vt 0.1897772 0.26328
vt 0.2067745 0.26328
vt 0.2067745 0.2893516
vt 0.1897772 0.2893516
vt 0.3794324 0.9738063
vt 0.3964297 0.9738063
vt 0.3964297 0.9998779
vt 0.3794324 0.9998779
vt 0.362191 0.9738063
vt 0.3791883 0.9738063
vt 0.3791883 0.9998779
vt 0.362191 0.9998779
vt 0.3449497 0.9738063
vt 0.3619469 0.9738063
vt 0.3619469 0.9998779
vt 0.3449497 0.9998779
vt 0.3277083 0.9738063
vt 0.3447055 0.9738063
vt 0.3447055 0.9998779
vt 0.3277083 0.9998779

# Normal
vn 0 0 -1

# Mesh description
g T-CaloExt_mesh_0008

# Faces
f 1/1/1 2/2/1 3/3/1 4/4/1
f 5/5/1 6/6/1 7/7/1 8/8/1
f 9/9/1 10/10/1 11/11/1 12/12/1
f 13/13/1 14/14/1 15/15/1 16/16/1
f 17/17/1 18/18/1 19/19/1 20/20/1
f 21/21/1 22/22/1 23/23/1 24/24/1
f 25/25/1 26/26/1 27/27/1 28/28/1
f 29/29/1 30/30/1 31/31/1 32/32/1
f 33/33/1 34/34/1 35/35/1 36/36/1
f 37/37/1 38/38/1 39/39/1 40/40/1
f 41/41/1 42/42/1 43/43/1 44/44/1
f 45/45/1 46/46/1 47/47/1 48/48/1
f 49/49/1 50/50/1 51/51/1 52/52/1
f 53/53/1 54/54/1 55/55/1 56/56/1
f 57/57/1 58/58/1 59/59/1 60/60/1
f 61/61/1 62/62/1 63/63/1 64/64/1
f 65/65/1 66/66/1 67/67/1 68/68/1
f 69/69/1 70/70/1 71/71/1 72/72/1
f 73/73/1 74/74/1 75/75/1 76/76/1
f 77/77/1 78/78/1 79/79/1 80/80/1
f 81/81/1 82/82/1 83/83/1 84/84/1
f 85/85/1 86/86/1 87/87/1 88/88/1
f 89/89/1 90/90/1 91/91/1 92/92/1
f 93/93/1 94/94/1 95/95/1 96/96/1
f 97/97/1 98/98/1 99/99/1 100/100/1
f 101/101/1 102/102/1 103/103/1 104/104/1
f 105/105/1 106/106/1 107/107/1 108/108/1
f 109/109/1 110/110/1 111/111/1 112/112/1
f 113/113/1 114/114/1 115/115/1 116/116/1
f 117/117/1 118/118/1 119/119/1 120/120/1
f 121/121/1 122/122/1 123/123/1 124/124/1
f 125/125/1 126/126/1 127/127/1 128/128/1
f 129/129/1 130/130/1 131/131/1 132/132/1
f 133/133/1 134/134/1 135/135/1 136/136/1
f 137/137/1 138/138/1 139/139/1 140/140/1
f 141/141/1 142/142/1 143/143/1 144/144/1
f 145/145/1 146/146/1 147/147/1 148/148/1
f 149/149/1 150/150/1 151/151/1 152/152/1
f 153/153/1 154/154/1 155/155/1 156/156/1
f 157/157/1 158/158/1 159/159/1 160/160/1
f 161/161/1 162/162/1 163/163/1 164/164/1
f 165/165/1 166/166/1 167/167/1 168/168/1
f 169/169/1 170/170/1 171/171/1 172/172/1

