# Tiled2Unity generated file. Do not modify by hand.
# Wavefront file for 'T-CaloExt_mesh_0002.obj'

# Vertices (Count = 140)
v -40 -40 0
v -41 -40 0
v -41 -39 0
v -40 -39 0
v -48 -43 0
v -49 -43 0
v -49 -42 0
v -48 -42 0
v -33 -46 0
v -34 -46 0
v -34 -45 0
v -33 -45 0
v -39 -49 0
v -40 -49 0
v -40 -48 0
v -39 -48 0
v -20 -50 0
v -21 -50 0
v -21 -49 0
v -20 -49 0
v -47 -51 0
v -48 -51 0
v -48 -50 0
v -47 -50 0
v -46 -51 0
v -47 -51 0
v -47 -50 0
v -46 -50 0
v -45 -51 0
v -46 -51 0
v -46 -50 0
v -45 -50 0
v -48 -52 0
v -49 -52 0
v -49 -51 0
v -48 -51 0
v -47 -52 0
v -48 -52 0
v -48 -51 0
v -47 -51 0
v -46 -52 0
v -47 -52 0
v -47 -51 0
v -46 -51 0
v -45 -52 0
v -46 -52 0
v -46 -51 0
v -45 -51 0
v -44 -52 0
v -45 -52 0
v -45 -51 0
v -44 -51 0
v -48 -53 0
v -49 -53 0
v -49 -52 0
v -48 -52 0
v -47 -53 0
v -48 -53 0
v -48 -52 0
v -47 -52 0
v -46 -53 0
v -47 -53 0
v -47 -52 0
v -46 -52 0
v -45 -53 0
v -46 -53 0
v -46 -52 0
v -45 -52 0
v -44 -53 0
v -45 -53 0
v -45 -52 0
v -44 -52 0
v -47 -54 0
v -48 -54 0
v -48 -53 0
v -47 -53 0
v -46 -54 0
v -47 -54 0
v -47 -53 0
v -46 -53 0
v -45 -54 0
v -46 -54 0
v -46 -53 0
v -45 -53 0
v -44 -54 0
v -45 -54 0
v -45 -53 0
v -44 -53 0
v -43 -54 0
v -44 -54 0
v -44 -53 0
v -43 -53 0
v -42 -54 0
v -43 -54 0
v -43 -53 0
v -42 -53 0
v -41 -54 0
v -42 -54 0
v -42 -53 0
v -41 -53 0
v -40 -54 0
v -41 -54 0
v -41 -53 0
v -40 -53 0
v -39 -54 0
v -40 -54 0
v -40 -53 0
v -39 -53 0
v -46 -55 0
v -47 -55 0
v -47 -54 0
v -46 -54 0
v -45 -55 0
v -46 -55 0
v -46 -54 0
v -45 -54 0
v -44 -55 0
v -45 -55 0
v -45 -54 0
v -44 -54 0
v -43 -55 0
v -44 -55 0
v -44 -54 0
v -43 -54 0
v -42 -55 0
v -43 -55 0
v -43 -54 0
v -42 -54 0
v -41 -55 0
v -42 -55 0
v -42 -54 0
v -41 -54 0
v -40 -55 0
v -41 -55 0
v -41 -54 0
v -40 -54 0
v -39 -55 0
v -40 -55 0
v -40 -54 0
v -39 -54 0

# Texture cooridinates (Count = 44)
vt 0.02092831 0.9723443
vt 0.04149041 0.9723443
vt 0.04149041 0.9998779
vt 0.02092831 0.9998779
vt 0.1249595 0.6667887
vt 0.1455216 0.6667887
vt 0.1455216 0.6943223
vt 0.1249595 0.6943223
vt 0.04173455 0.5834554
vt 0.06229666 0.5834554
vt 0.06229666 0.610989
vt 0.04173455 0.610989
vt 0.1457658 0.5834554
vt 0.1663279 0.5834554
vt 0.1663279 0.610989
vt 0.1457658 0.610989
vt 0.1249595 0.5834554
vt 0.1455216 0.5834554
vt 0.1455216 0.610989
vt 0.1249595 0.610989
vt 0.1457658 0.5556777
vt 0.1663279 0.5556777
vt 0.1663279 0.5832113
vt 0.1457658 0.5832113
vt 0.1041533 0.5834554
vt 0.1247154 0.5834554
vt 0.1247154 0.610989
vt 0.1041533 0.610989
vt 0.1041533 0.6667887
vt 0.1247154 0.6667887
vt 0.1247154 0.6943223
vt 0.1041533 0.6943223
vt 0.08334704 0.6667887
vt 0.1039091 0.6667887
vt 0.1039091 0.6943223
vt 0.08334704 0.6943223
vt 0.1249595 0.5556777
vt 0.1455216 0.5556777
vt 0.1455216 0.5832113
vt 0.1249595 0.5832113
vt 0.1041533 0.5556777
vt 0.1247154 0.5556777
vt 0.1247154 0.5832113
vt 0.1041533 0.5832113

# Normal
vn 0 0 -1

# Mesh description
g T-CaloExt_mesh_0002

# Faces
f 1/1/1 2/2/1 3/3/1 4/4/1
f 5/1/1 6/2/1 7/3/1 8/4/1
f 9/1/1 10/2/1 11/3/1 12/4/1
f 13/1/1 14/2/1 15/3/1 16/4/1
f 17/1/1 18/2/1 19/3/1 20/4/1
f 21/5/1 22/6/1 23/7/1 24/8/1
f 25/9/1 26/10/1 27/11/1 28/12/1
f 29/9/1 30/10/1 31/11/1 32/12/1
f 33/13/1 34/14/1 35/15/1 36/16/1
f 37/17/1 38/18/1 39/19/1 40/20/1
f 41/5/1 42/6/1 43/7/1 44/8/1
f 45/9/1 46/10/1 47/11/1 48/12/1
f 49/9/1 50/10/1 51/11/1 52/12/1
f 53/21/1 54/22/1 55/23/1 56/24/1
f 57/13/1 58/14/1 59/15/1 60/16/1
f 61/17/1 62/18/1 63/19/1 64/20/1
f 65/5/1 66/6/1 67/7/1 68/8/1
f 69/9/1 70/10/1 71/11/1 72/12/1
f 73/21/1 74/22/1 75/23/1 76/24/1
f 77/13/1 78/14/1 79/15/1 80/16/1
f 81/17/1 82/18/1 83/19/1 84/20/1
f 85/25/1 86/26/1 87/27/1 88/28/1
f 89/25/1 90/26/1 91/27/1 92/28/1
f 93/25/1 94/26/1 95/27/1 96/28/1
f 97/5/1 98/6/1 99/7/1 100/8/1
f 101/29/1 102/30/1 103/31/1 104/32/1
f 105/33/1 106/34/1 107/35/1 108/36/1
f 109/21/1 110/22/1 111/23/1 112/24/1
f 113/37/1 114/38/1 115/39/1 116/40/1
f 117/41/1 118/42/1 119/43/1 120/44/1
f 121/41/1 122/42/1 123/43/1 124/44/1
f 125/13/1 126/14/1 127/15/1 128/16/1
f 129/17/1 130/18/1 131/19/1 132/20/1
f 133/25/1 134/26/1 135/27/1 136/28/1
f 137/25/1 138/26/1 139/27/1 140/28/1

