# Tiled2Unity generated file. Do not modify by hand.
# Wavefront file for 'GoingtoTiniwisan_mesh_0005.obj'

# Vertices (Count = 168)
v -21 -12 0
v -22 -12 0
v -22 -11 0
v -21 -11 0
v -22 -12 0
v -23 -12 0
v -23 -11 0
v -22 -11 0
v -23 -12 0
v -24 -12 0
v -24 -11 0
v -23 -11 0
v -24 -12 0
v -25 -12 0
v -25 -11 0
v -24 -11 0
v -25 -12 0
v -26 -12 0
v -26 -11 0
v -25 -11 0
v -26 -12 0
v -27 -12 0
v -27 -11 0
v -26 -11 0
v -27 -12 0
v -28 -12 0
v -28 -11 0
v -27 -11 0
v -21 -13 0
v -22 -13 0
v -22 -12 0
v -21 -12 0
v -22 -13 0
v -23 -13 0
v -23 -12 0
v -22 -12 0
v -23 -13 0
v -24 -13 0
v -24 -12 0
v -23 -12 0
v -24 -13 0
v -25 -13 0
v -25 -12 0
v -24 -12 0
v -25 -13 0
v -26 -13 0
v -26 -12 0
v -25 -12 0
v -26 -13 0
v -27 -13 0
v -27 -12 0
v -26 -12 0
v -27 -13 0
v -28 -13 0
v -28 -12 0
v -27 -12 0
v -21 -14 0
v -22 -14 0
v -22 -13 0
v -21 -13 0
v -22 -14 0
v -23 -14 0
v -23 -13 0
v -22 -13 0
v -23 -14 0
v -24 -14 0
v -24 -13 0
v -23 -13 0
v -24 -14 0
v -25 -14 0
v -25 -13 0
v -24 -13 0
v -25 -14 0
v -26 -14 0
v -26 -13 0
v -25 -13 0
v -26 -14 0
v -27 -14 0
v -27 -13 0
v -26 -13 0
v -27 -14 0
v -28 -14 0
v -28 -13 0
v -27 -13 0
v -34 -32 0
v -35 -32 0
v -35 -31 0
v -34 -31 0
v -35 -32 0
v -36 -32 0
v -36 -31 0
v -35 -31 0
v -36 -32 0
v -37 -32 0
v -37 -31 0
v -36 -31 0
v -37 -32 0
v -38 -32 0
v -38 -31 0
v -37 -31 0
v -38 -32 0
v -39 -32 0
v -39 -31 0
v -38 -31 0
v -39 -32 0
v -40 -32 0
v -40 -31 0
v -39 -31 0
v -40 -32 0
v -41 -32 0
v -41 -31 0
v -40 -31 0
v -34 -33 0
v -35 -33 0
v -35 -32 0
v -34 -32 0
v -35 -33 0
v -36 -33 0
v -36 -32 0
v -35 -32 0
v -36 -33 0
v -37 -33 0
v -37 -32 0
v -36 -32 0
v -37 -33 0
v -38 -33 0
v -38 -32 0
v -37 -32 0
v -38 -33 0
v -39 -33 0
v -39 -32 0
v -38 -32 0
v -39 -33 0
v -40 -33 0
v -40 -32 0
v -39 -32 0
v -40 -33 0
v -41 -33 0
v -41 -32 0
v -40 -32 0
v -34 -34 0
v -35 -34 0
v -35 -33 0
v -34 -33 0
v -35 -34 0
v -36 -34 0
v -36 -33 0
v -35 -33 0
v -36 -34 0
v -37 -34 0
v -37 -33 0
v -36 -33 0
v -37 -34 0
v -38 -34 0
v -38 -33 0
v -37 -33 0
v -38 -34 0
v -39 -34 0
v -39 -33 0
v -38 -33 0
v -39 -34 0
v -40 -34 0
v -40 -33 0
v -39 -33 0
v -40 -34 0
v -41 -34 0
v -41 -33 0
v -40 -33 0

# Texture cooridinates (Count = 64)
vt 0.1724138 0.3947368
vt 0.1896552 0.3947368
vt 0.1896552 0.4210526
vt 0.1724138 0.4210526
vt 0.2068966 0.3947368
vt 0.2068966 0.4210526
vt 0.2241379 0.3947368
vt 0.2241379 0.4210526
vt 0.2413793 0.3947368
vt 0.2413793 0.4210526
vt 0.2586207 0.3947368
vt 0.2586207 0.4210526
vt 0.2758621 0.3947368
vt 0.2758621 0.4210526
vt 0.2931035 0.3947368
vt 0.2931035 0.4210526
vt 0.1724138 0.3684211
vt 0.1896552 0.3684211
vt 0.2068966 0.3684211
vt 0.2241379 0.3684211
vt 0.2413793 0.3684211
vt 0.2586207 0.3684211
vt 0.2758621 0.3684211
vt 0.2931035 0.3684211
vt 0.1724138 0.3421053
vt 0.1896552 0.3421053
vt 0.2068966 0.3421053
vt 0.2241379 0.3421053
vt 0.2413793 0.3421053
vt 0.2586207 0.3421053
vt 0.2758621 0.3421053
vt 0.2931035 0.3421053
vt 0.2931035 0.2631579
vt 0.3103448 0.2631579
vt 0.3103448 0.2894737
vt 0.2931035 0.2894737
vt 0.3275862 0.2631579
vt 0.3275862 0.2894737
vt 0.3448276 0.2631579
vt 0.3448276 0.2894737
vt 0.362069 0.2631579
vt 0.362069 0.2894737
vt 0.3793103 0.2631579
vt 0.3793103 0.2894737
vt 0.3965517 0.2631579
vt 0.3965517 0.2894737
vt 0.4137931 0.2631579
vt 0.4137931 0.2894737
vt 0.2931035 0.2368421
vt 0.3103448 0.2368421
vt 0.3275862 0.2368421
vt 0.3448276 0.2368421
vt 0.362069 0.2368421
vt 0.3793103 0.2368421
vt 0.3965517 0.2368421
vt 0.4137931 0.2368421
vt 0.2931035 0.2105263
vt 0.3103448 0.2105263
vt 0.3275862 0.2105263
vt 0.3448276 0.2105263
vt 0.362069 0.2105263
vt 0.3793103 0.2105263
vt 0.3965517 0.2105263
vt 0.4137931 0.2105263

# Normal
vn 0 0 -1

# Mesh description
g GoingtoTiniwisan_mesh_0005

# Faces
f 1/1/1 2/2/1 3/3/1 4/4/1
f 5/2/1 6/5/1 7/6/1 8/3/1
f 9/5/1 10/7/1 11/8/1 12/6/1
f 13/7/1 14/9/1 15/10/1 16/8/1
f 17/9/1 18/11/1 19/12/1 20/10/1
f 21/11/1 22/13/1 23/14/1 24/12/1
f 25/13/1 26/15/1 27/16/1 28/14/1
f 29/17/1 30/18/1 31/2/1 32/1/1
f 33/18/1 34/19/1 35/5/1 36/2/1
f 37/19/1 38/20/1 39/7/1 40/5/1
f 41/20/1 42/21/1 43/9/1 44/7/1
f 45/21/1 46/22/1 47/11/1 48/9/1
f 49/22/1 50/23/1 51/13/1 52/11/1
f 53/23/1 54/24/1 55/15/1 56/13/1
f 57/25/1 58/26/1 59/18/1 60/17/1
f 61/26/1 62/27/1 63/19/1 64/18/1
f 65/27/1 66/28/1 67/20/1 68/19/1
f 69/28/1 70/29/1 71/21/1 72/20/1
f 73/29/1 74/30/1 75/22/1 76/21/1
f 77/30/1 78/31/1 79/23/1 80/22/1
f 81/31/1 82/32/1 83/24/1 84/23/1
f 85/33/1 86/34/1 87/35/1 88/36/1
f 89/34/1 90/37/1 91/38/1 92/35/1
f 93/37/1 94/39/1 95/40/1 96/38/1
f 97/39/1 98/41/1 99/42/1 100/40/1
f 101/41/1 102/43/1 103/44/1 104/42/1
f 105/43/1 106/45/1 107/46/1 108/44/1
f 109/45/1 110/47/1 111/48/1 112/46/1
f 113/49/1 114/50/1 115/34/1 116/33/1
f 117/50/1 118/51/1 119/37/1 120/34/1
f 121/51/1 122/52/1 123/39/1 124/37/1
f 125/52/1 126/53/1 127/41/1 128/39/1
f 129/53/1 130/54/1 131/43/1 132/41/1
f 133/54/1 134/55/1 135/45/1 136/43/1
f 137/55/1 138/56/1 139/47/1 140/45/1
f 141/57/1 142/58/1 143/50/1 144/49/1
f 145/58/1 146/59/1 147/51/1 148/50/1
f 149/59/1 150/60/1 151/52/1 152/51/1
f 153/60/1 154/61/1 155/53/1 156/52/1
f 157/61/1 158/62/1 159/54/1 160/53/1
f 161/62/1 162/63/1 163/55/1 164/54/1
f 165/63/1 166/64/1 167/56/1 168/55/1

