# Tiled2Unity generated file. Do not modify by hand.
# Wavefront file for 'UbosDoongan_mesh_0007.obj'

# Vertices (Count = 252)
v -42 -16 0
v -43 -16 0
v -43 -15 0
v -42 -15 0
v -41 -16 0
v -42 -16 0
v -42 -15 0
v -41 -15 0
v -40 -16 0
v -41 -16 0
v -41 -15 0
v -40 -15 0
v -39 -16 0
v -40 -16 0
v -40 -15 0
v -39 -15 0
v -38 -16 0
v -39 -16 0
v -39 -15 0
v -38 -15 0
v -37 -16 0
v -38 -16 0
v -38 -15 0
v -37 -15 0
v -36 -16 0
v -37 -16 0
v -37 -15 0
v -36 -15 0
v -42 -17 0
v -43 -17 0
v -43 -16 0
v -42 -16 0
v -41 -17 0
v -42 -17 0
v -42 -16 0
v -41 -16 0
v -40 -17 0
v -41 -17 0
v -41 -16 0
v -40 -16 0
v -39 -17 0
v -40 -17 0
v -40 -16 0
v -39 -16 0
v -38 -17 0
v -39 -17 0
v -39 -16 0
v -38 -16 0
v -37 -17 0
v -38 -17 0
v -38 -16 0
v -37 -16 0
v -36 -17 0
v -37 -17 0
v -37 -16 0
v -36 -16 0
v -42 -18 0
v -43 -18 0
v -43 -17 0
v -42 -17 0
v -41 -18 0
v -42 -18 0
v -42 -17 0
v -41 -17 0
v -40 -18 0
v -41 -18 0
v -41 -17 0
v -40 -17 0
v -39 -18 0
v -40 -18 0
v -40 -17 0
v -39 -17 0
v -38 -18 0
v -39 -18 0
v -39 -17 0
v -38 -17 0
v -37 -18 0
v -38 -18 0
v -38 -17 0
v -37 -17 0
v -36 -18 0
v -37 -18 0
v -37 -17 0
v -36 -17 0
v -12 -23 0
v -13 -23 0
v -13 -22 0
v -12 -22 0
v -11 -23 0
v -12 -23 0
v -12 -22 0
v -11 -22 0
v -10 -23 0
v -11 -23 0
v -11 -22 0
v -10 -22 0
v -9 -23 0
v -10 -23 0
v -10 -22 0
v -9 -22 0
v -8 -23 0
v -9 -23 0
v -9 -22 0
v -8 -22 0
v -7 -23 0
v -8 -23 0
v -8 -22 0
v -7 -22 0
v -6 -23 0
v -7 -23 0
v -7 -22 0
v -6 -22 0
v -12 -24 0
v -13 -24 0
v -13 -23 0
v -12 -23 0
v -11 -24 0
v -12 -24 0
v -12 -23 0
v -11 -23 0
v -10 -24 0
v -11 -24 0
v -11 -23 0
v -10 -23 0
v -9 -24 0
v -10 -24 0
v -10 -23 0
v -9 -23 0
v -8 -24 0
v -9 -24 0
v -9 -23 0
v -8 -23 0
v -7 -24 0
v -8 -24 0
v -8 -23 0
v -7 -23 0
v -6 -24 0
v -7 -24 0
v -7 -23 0
v -6 -23 0
v -12 -25 0
v -13 -25 0
v -13 -24 0
v -12 -24 0
v -11 -25 0
v -12 -25 0
v -12 -24 0
v -11 -24 0
v -10 -25 0
v -11 -25 0
v -11 -24 0
v -10 -24 0
v -9 -25 0
v -10 -25 0
v -10 -24 0
v -9 -24 0
v -8 -25 0
v -9 -25 0
v -9 -24 0
v -8 -24 0
v -7 -25 0
v -8 -25 0
v -8 -24 0
v -7 -24 0
v -6 -25 0
v -7 -25 0
v -7 -24 0
v -6 -24 0
v -42 -41 0
v -43 -41 0
v -43 -40 0
v -42 -40 0
v -41 -41 0
v -42 -41 0
v -42 -40 0
v -41 -40 0
v -40 -41 0
v -41 -41 0
v -41 -40 0
v -40 -40 0
v -39 -41 0
v -40 -41 0
v -40 -40 0
v -39 -40 0
v -38 -41 0
v -39 -41 0
v -39 -40 0
v -38 -40 0
v -37 -41 0
v -38 -41 0
v -38 -40 0
v -37 -40 0
v -36 -41 0
v -37 -41 0
v -37 -40 0
v -36 -40 0
v -42 -42 0
v -43 -42 0
v -43 -41 0
v -42 -41 0
v -41 -42 0
v -42 -42 0
v -42 -41 0
v -41 -41 0
v -40 -42 0
v -41 -42 0
v -41 -41 0
v -40 -41 0
v -39 -42 0
v -40 -42 0
v -40 -41 0
v -39 -41 0
v -38 -42 0
v -39 -42 0
v -39 -41 0
v -38 -41 0
v -37 -42 0
v -38 -42 0
v -38 -41 0
v -37 -41 0
v -36 -42 0
v -37 -42 0
v -37 -41 0
v -36 -41 0
v -42 -43 0
v -43 -43 0
v -43 -42 0
v -42 -42 0
v -41 -43 0
v -42 -43 0
v -42 -42 0
v -41 -42 0
v -40 -43 0
v -41 -43 0
v -41 -42 0
v -40 -42 0
v -39 -43 0
v -40 -43 0
v -40 -42 0
v -39 -42 0
v -38 -43 0
v -39 -43 0
v -39 -42 0
v -38 -42 0
v -37 -43 0
v -38 -43 0
v -38 -42 0
v -37 -42 0
v -36 -43 0
v -37 -43 0
v -37 -42 0
v -36 -42 0

# Texture cooridinates (Count = 168)
vt 0.2759841 0.26328
vt 0.2929814 0.26328
vt 0.2929814 0.2893516
vt 0.2759841 0.2893516
vt 0.2587427 0.26328
vt 0.27574 0.26328
vt 0.27574 0.2893516
vt 0.2587427 0.2893516
vt 0.2415014 0.26328
vt 0.2584986 0.26328
vt 0.2584986 0.2893516
vt 0.2415014 0.2893516
vt 0.22426 0.26328
vt 0.2412572 0.26328
vt 0.2412572 0.2893516
vt 0.22426 0.2893516
vt 0.2070186 0.26328
vt 0.2240159 0.26328
vt 0.2240159 0.2893516
vt 0.2070186 0.2893516
vt 0.1897772 0.26328
vt 0.2067745 0.26328
vt 0.2067745 0.2893516
vt 0.1897772 0.2893516
vt 0.1725359 0.26328
vt 0.1895331 0.26328
vt 0.1895331 0.2893516
vt 0.1725359 0.2893516
vt 0.2759841 0.2369642
vt 0.2929814 0.2369642
vt 0.2929814 0.2630358
vt 0.2759841 0.2630358
vt 0.2587427 0.2369642
vt 0.27574 0.2369642
vt 0.27574 0.2630358
vt 0.2587427 0.2630358
vt 0.2415014 0.2369642
vt 0.2584986 0.2369642
vt 0.2584986 0.2630358
vt 0.2415014 0.2630358
vt 0.22426 0.2369642
vt 0.2412572 0.2369642
vt 0.2412572 0.2630358
vt 0.22426 0.2630358
vt 0.2070186 0.2369642
vt 0.2240159 0.2369642
vt 0.2240159 0.2630358
vt 0.2070186 0.2630358
vt 0.1897772 0.2369642
vt 0.2067745 0.2369642
vt 0.2067745 0.2630358
vt 0.1897772 0.2630358
vt 0.1725359 0.2369642
vt 0.1895331 0.2369642
vt 0.1895331 0.2630358
vt 0.1725359 0.2630358
vt 0.2759841 0.2106484
vt 0.2929814 0.2106484
vt 0.2929814 0.23672
vt 0.2759841 0.23672
vt 0.2587427 0.2106484
vt 0.27574 0.2106484
vt 0.27574 0.23672
vt 0.2587427 0.23672
vt 0.2415014 0.2106484
vt 0.2584986 0.2106484
vt 0.2584986 0.23672
vt 0.2415014 0.23672
vt 0.22426 0.2106484
vt 0.2412572 0.2106484
vt 0.2412572 0.23672
vt 0.22426 0.23672
vt 0.2070186 0.2106484
vt 0.2240159 0.2106484
vt 0.2240159 0.23672
vt 0.2070186 0.23672
vt 0.1897772 0.2106484
vt 0.2067745 0.2106484
vt 0.2067745 0.23672
vt 0.1897772 0.23672
vt 0.1725359 0.2106484
vt 0.1895331 0.2106484
vt 0.1895331 0.23672
vt 0.1725359 0.23672
vt 0.3966738 0.3948589
vt 0.413671 0.3948589
vt 0.413671 0.4209306
vt 0.3966738 0.4209306
vt 0.3794324 0.3948589
vt 0.3964297 0.3948589
vt 0.3964297 0.4209306
vt 0.3794324 0.4209306
vt 0.362191 0.3948589
vt 0.3791883 0.3948589
vt 0.3791883 0.4209306
vt 0.362191 0.4209306
vt 0.3449497 0.3948589
vt 0.3619469 0.3948589
vt 0.3619469 0.4209306
vt 0.3449497 0.4209306
vt 0.3277083 0.3948589
vt 0.3447055 0.3948589
vt 0.3447055 0.4209306
vt 0.3277083 0.4209306
vt 0.3104669 0.3948589
vt 0.3274641 0.3948589
vt 0.3274641 0.4209306
vt 0.3104669 0.4209306
vt 0.2932255 0.3948589
vt 0.3102227 0.3948589
vt 0.3102227 0.4209306
vt 0.2932255 0.4209306
vt 0.3966738 0.3685431
vt 0.413671 0.3685431
vt 0.413671 0.3946148
vt 0.3966738 0.3946148
vt 0.3794324 0.3685431
vt 0.3964297 0.3685431
vt 0.3964297 0.3946148
vt 0.3794324 0.3946148
vt 0.362191 0.3685431
vt 0.3791883 0.3685431
vt 0.3791883 0.3946148
vt 0.362191 0.3946148
vt 0.3449497 0.3685431
vt 0.3619469 0.3685431
vt 0.3619469 0.3946148
vt 0.3449497 0.3946148
vt 0.3277083 0.3685431
vt 0.3447055 0.3685431
vt 0.3447055 0.3946148
vt 0.3277083 0.3946148
vt 0.3104669 0.3685431
vt 0.3274641 0.3685431
vt 0.3274641 0.3946148
vt 0.3104669 0.3946148
vt 0.2932255 0.3685431
vt 0.3102227 0.3685431
vt 0.3102227 0.3946148
vt 0.2932255 0.3946148
vt 0.3966738 0.3422273
vt 0.413671 0.3422273
vt 0.413671 0.368299
vt 0.3966738 0.368299
vt 0.3794324 0.3422273
vt 0.3964297 0.3422273
vt 0.3964297 0.368299
vt 0.3794324 0.368299
vt 0.362191 0.3422273
vt 0.3791883 0.3422273
vt 0.3791883 0.368299
vt 0.362191 0.368299
vt 0.3449497 0.3422273
vt 0.3619469 0.3422273
vt 0.3619469 0.368299
vt 0.3449497 0.368299
vt 0.3277083 0.3422273
vt 0.3447055 0.3422273
vt 0.3447055 0.368299
vt 0.3277083 0.368299
vt 0.3104669 0.3422273
vt 0.3274641 0.3422273
vt 0.3274641 0.368299
vt 0.3104669 0.368299
vt 0.2932255 0.3422273
vt 0.3102227 0.3422273
vt 0.3102227 0.368299
vt 0.2932255 0.368299

# Normal
vn 0 0 -1

# Mesh description
g UbosDoongan_mesh_0007

# Faces
f 1/1/1 2/2/1 3/3/1 4/4/1
f 5/5/1 6/6/1 7/7/1 8/8/1
f 9/9/1 10/10/1 11/11/1 12/12/1
f 13/13/1 14/14/1 15/15/1 16/16/1
f 17/17/1 18/18/1 19/19/1 20/20/1
f 21/21/1 22/22/1 23/23/1 24/24/1
f 25/25/1 26/26/1 27/27/1 28/28/1
f 29/29/1 30/30/1 31/31/1 32/32/1
f 33/33/1 34/34/1 35/35/1 36/36/1
f 37/37/1 38/38/1 39/39/1 40/40/1
f 41/41/1 42/42/1 43/43/1 44/44/1
f 45/45/1 46/46/1 47/47/1 48/48/1
f 49/49/1 50/50/1 51/51/1 52/52/1
f 53/53/1 54/54/1 55/55/1 56/56/1
f 57/57/1 58/58/1 59/59/1 60/60/1
f 61/61/1 62/62/1 63/63/1 64/64/1
f 65/65/1 66/66/1 67/67/1 68/68/1
f 69/69/1 70/70/1 71/71/1 72/72/1
f 73/73/1 74/74/1 75/75/1 76/76/1
f 77/77/1 78/78/1 79/79/1 80/80/1
f 81/81/1 82/82/1 83/83/1 84/84/1
f 85/1/1 86/2/1 87/3/1 88/4/1
f 89/5/1 90/6/1 91/7/1 92/8/1
f 93/9/1 94/10/1 95/11/1 96/12/1
f 97/13/1 98/14/1 99/15/1 100/16/1
f 101/17/1 102/18/1 103/19/1 104/20/1
f 105/21/1 106/22/1 107/23/1 108/24/1
f 109/25/1 110/26/1 111/27/1 112/28/1
f 113/29/1 114/30/1 115/31/1 116/32/1
f 117/33/1 118/34/1 119/35/1 120/36/1
f 121/37/1 122/38/1 123/39/1 124/40/1
f 125/41/1 126/42/1 127/43/1 128/44/1
f 129/45/1 130/46/1 131/47/1 132/48/1
f 133/49/1 134/50/1 135/51/1 136/52/1
f 137/53/1 138/54/1 139/55/1 140/56/1
f 141/57/1 142/58/1 143/59/1 144/60/1
f 145/61/1 146/62/1 147/63/1 148/64/1
f 149/65/1 150/66/1 151/67/1 152/68/1
f 153/69/1 154/70/1 155/71/1 156/72/1
f 157/73/1 158/74/1 159/75/1 160/76/1
f 161/77/1 162/78/1 163/79/1 164/80/1
f 165/81/1 166/82/1 167/83/1 168/84/1
f 169/85/1 170/86/1 171/87/1 172/88/1
f 173/89/1 174/90/1 175/91/1 176/92/1
f 177/93/1 178/94/1 179/95/1 180/96/1
f 181/97/1 182/98/1 183/99/1 184/100/1
f 185/101/1 186/102/1 187/103/1 188/104/1
f 189/105/1 190/106/1 191/107/1 192/108/1
f 193/109/1 194/110/1 195/111/1 196/112/1
f 197/113/1 198/114/1 199/115/1 200/116/1
f 201/117/1 202/118/1 203/119/1 204/120/1
f 205/121/1 206/122/1 207/123/1 208/124/1
f 209/125/1 210/126/1 211/127/1 212/128/1
f 213/129/1 214/130/1 215/131/1 216/132/1
f 217/133/1 218/134/1 219/135/1 220/136/1
f 221/137/1 222/138/1 223/139/1 224/140/1
f 225/141/1 226/142/1 227/143/1 228/144/1
f 229/145/1 230/146/1 231/147/1 232/148/1
f 233/149/1 234/150/1 235/151/1 236/152/1
f 237/153/1 238/154/1 239/155/1 240/156/1
f 241/157/1 242/158/1 243/159/1 244/160/1
f 245/161/1 246/162/1 247/163/1 248/164/1
f 249/165/1 250/166/1 251/167/1 252/168/1

