# Tiled2Unity generated file. Do not modify by hand.
# Wavefront file for 'UbosDoongan_mesh_0003.obj'

# Vertices (Count = 428)
v -13 -5 0
v -14 -5 0
v -14 -4 0
v -13 -4 0
v -12 -5 0
v -13 -5 0
v -13 -4 0
v -12 -4 0
v -11 -5 0
v -12 -5 0
v -12 -4 0
v -11 -4 0
v -7 -5 0
v -8 -5 0
v -8 -4 0
v -7 -4 0
v -6 -5 0
v -7 -5 0
v -7 -4 0
v -6 -4 0
v -25 -6 0
v -26 -6 0
v -26 -5 0
v -25 -5 0
v -24 -6 0
v -25 -6 0
v -25 -5 0
v -24 -5 0
v -23 -6 0
v -24 -6 0
v -24 -5 0
v -23 -5 0
v -7 -6 0
v -8 -6 0
v -8 -5 0
v -7 -5 0
v -6 -6 0
v -7 -6 0
v -7 -5 0
v -6 -5 0
v -15 -9 0
v -16 -9 0
v -16 -8 0
v -15 -8 0
v -13 -9 0
v -14 -9 0
v -14 -8 0
v -13 -8 0
v -46 -10 0
v -47 -10 0
v -47 -9 0
v -46 -9 0
v -45 -10 0
v -46 -10 0
v -46 -9 0
v -45 -9 0
v -44 -10 0
v -45 -10 0
v -45 -9 0
v -44 -9 0
v -13 -10 0
v -14 -10 0
v -14 -9 0
v -13 -9 0
v -12 -10 0
v -13 -10 0
v -13 -9 0
v -12 -9 0
v -5 -10 0
v -6 -10 0
v -6 -9 0
v -5 -9 0
v -38 -11 0
v -39 -11 0
v -39 -10 0
v -38 -10 0
v -37 -11 0
v -38 -11 0
v -38 -10 0
v -37 -10 0
v -13 -11 0
v -14 -11 0
v -14 -10 0
v -13 -10 0
v -12 -11 0
v -13 -11 0
v -13 -10 0
v -12 -10 0
v -38 -12 0
v -39 -12 0
v -39 -11 0
v -38 -11 0
v -37 -12 0
v -38 -12 0
v -38 -11 0
v -37 -11 0
v -35 -12 0
v -36 -12 0
v -36 -11 0
v -35 -11 0
v -34 -12 0
v -35 -12 0
v -35 -11 0
v -34 -11 0
v -7 -12 0
v -8 -12 0
v -8 -11 0
v -7 -11 0
v -6 -12 0
v -7 -12 0
v -7 -11 0
v -6 -11 0
v -36 -13 0
v -37 -13 0
v -37 -12 0
v -36 -12 0
v -35 -13 0
v -36 -13 0
v -36 -12 0
v -35 -12 0
v -34 -13 0
v -35 -13 0
v -35 -12 0
v -34 -12 0
v -9 -13 0
v -10 -13 0
v -10 -12 0
v -9 -12 0
v -8 -13 0
v -9 -13 0
v -9 -12 0
v -8 -12 0
v -4 -13 0
v -5 -13 0
v -5 -12 0
v -4 -12 0
v -3 -13 0
v -4 -13 0
v -4 -12 0
v -3 -12 0
v -13 -18 0
v -14 -18 0
v -14 -17 0
v -13 -17 0
v -24 -19 0
v -25 -19 0
v -25 -18 0
v -24 -18 0
v -15 -19 0
v -16 -19 0
v -16 -18 0
v -15 -18 0
v -14 -19 0
v -15 -19 0
v -15 -18 0
v -14 -18 0
v -13 -19 0
v -14 -19 0
v -14 -18 0
v -13 -18 0
v -18 -20 0
v -19 -20 0
v -19 -19 0
v -18 -19 0
v -14 -20 0
v -15 -20 0
v -15 -19 0
v -14 -19 0
v -13 -20 0
v -14 -20 0
v -14 -19 0
v -13 -19 0
v -15 -21 0
v -16 -21 0
v -16 -20 0
v -15 -20 0
v -18 -22 0
v -19 -22 0
v -19 -21 0
v -18 -21 0
v -14 -22 0
v -15 -22 0
v -15 -21 0
v -14 -21 0
v -17 -23 0
v -18 -23 0
v -18 -22 0
v -17 -22 0
v -32 -24 0
v -33 -24 0
v -33 -23 0
v -32 -23 0
v -31 -24 0
v -32 -24 0
v -32 -23 0
v -31 -23 0
v -22 -24 0
v -23 -24 0
v -23 -23 0
v -22 -23 0
v -18 -24 0
v -19 -24 0
v -19 -23 0
v -18 -23 0
v -32 -25 0
v -33 -25 0
v -33 -24 0
v -32 -24 0
v -31 -25 0
v -32 -25 0
v -32 -24 0
v -31 -24 0
v -20 -25 0
v -21 -25 0
v -21 -24 0
v -20 -24 0
v -19 -26 0
v -20 -26 0
v -20 -25 0
v -19 -25 0
v -17 -26 0
v -18 -26 0
v -18 -25 0
v -17 -25 0
v -21 -27 0
v -22 -27 0
v -22 -26 0
v -21 -26 0
v -20 -27 0
v -21 -27 0
v -21 -26 0
v -20 -26 0
v -5 -27 0
v -6 -27 0
v -6 -26 0
v -5 -26 0
v -4 -27 0
v -5 -27 0
v -5 -26 0
v -4 -26 0
v -26 -28 0
v -27 -28 0
v -27 -27 0
v -26 -27 0
v -19 -28 0
v -20 -28 0
v -20 -27 0
v -19 -27 0
v -34 -29 0
v -35 -29 0
v -35 -28 0
v -34 -28 0
v -27 -29 0
v -28 -29 0
v -28 -28 0
v -27 -28 0
v -21 -29 0
v -22 -29 0
v -22 -28 0
v -21 -28 0
v -20 -29 0
v -21 -29 0
v -21 -28 0
v -20 -28 0
v -19 -29 0
v -20 -29 0
v -20 -28 0
v -19 -28 0
v -18 -29 0
v -19 -29 0
v -19 -28 0
v -18 -28 0
v -3 -29 0
v -4 -29 0
v -4 -28 0
v -3 -28 0
v -2 -29 0
v -3 -29 0
v -3 -28 0
v -2 -28 0
v -28 -30 0
v -29 -30 0
v -29 -29 0
v -28 -29 0
v -22 -30 0
v -23 -30 0
v -23 -29 0
v -22 -29 0
v -27 -31 0
v -28 -31 0
v -28 -30 0
v -27 -30 0
v -21 -31 0
v -22 -31 0
v -22 -30 0
v -21 -30 0
v -19 -31 0
v -20 -31 0
v -20 -30 0
v -19 -30 0
v -28 -32 0
v -29 -32 0
v -29 -31 0
v -28 -31 0
v -23 -32 0
v -24 -32 0
v -24 -31 0
v -23 -31 0
v -21 -32 0
v -22 -32 0
v -22 -31 0
v -21 -31 0
v -14 -32 0
v -15 -32 0
v -15 -31 0
v -14 -31 0
v -28 -33 0
v -29 -33 0
v -29 -32 0
v -28 -32 0
v -24 -33 0
v -25 -33 0
v -25 -32 0
v -24 -32 0
v -22 -33 0
v -23 -33 0
v -23 -32 0
v -22 -32 0
v -15 -33 0
v -16 -33 0
v -16 -32 0
v -15 -32 0
v -14 -33 0
v -15 -33 0
v -15 -32 0
v -14 -32 0
v -28 -34 0
v -29 -34 0
v -29 -33 0
v -28 -33 0
v -27 -34 0
v -28 -34 0
v -28 -33 0
v -27 -33 0
v -26 -34 0
v -27 -34 0
v -27 -33 0
v -26 -33 0
v -24 -34 0
v -25 -34 0
v -25 -33 0
v -24 -33 0
v -21 -34 0
v -22 -34 0
v -22 -33 0
v -21 -33 0
v -15 -34 0
v -16 -34 0
v -16 -33 0
v -15 -33 0
v -14 -34 0
v -15 -34 0
v -15 -33 0
v -14 -33 0
v -21 -37 0
v -22 -37 0
v -22 -36 0
v -21 -36 0
v -20 -37 0
v -21 -37 0
v -21 -36 0
v -20 -36 0
v -21 -38 0
v -22 -38 0
v -22 -37 0
v -21 -37 0
v -20 -38 0
v -21 -38 0
v -21 -37 0
v -20 -37 0
v -25 -39 0
v -26 -39 0
v -26 -38 0
v -25 -38 0
v -24 -39 0
v -25 -39 0
v -25 -38 0
v -24 -38 0
v -8 -39 0
v -9 -39 0
v -9 -38 0
v -8 -38 0
v -7 -39 0
v -8 -39 0
v -8 -38 0
v -7 -38 0
v -6 -39 0
v -7 -39 0
v -7 -38 0
v -6 -38 0
v -45 -40 0
v -46 -40 0
v -46 -39 0
v -45 -39 0
v -44 -40 0
v -45 -40 0
v -45 -39 0
v -44 -39 0
v -43 -40 0
v -44 -40 0
v -44 -39 0
v -43 -39 0
v -23 -41 0
v -24 -41 0
v -24 -40 0
v -23 -40 0
v -22 -41 0
v -23 -41 0
v -23 -40 0
v -22 -40 0
v -27 -43 0
v -28 -43 0
v -28 -42 0
v -27 -42 0
v -26 -43 0
v -27 -43 0
v -27 -42 0
v -26 -42 0

# Texture cooridinates (Count = 88)
vt 0.1041533 0.8334554
vt 0.1247154 0.8334554
vt 0.1247154 0.860989
vt 0.1041533 0.860989
vt 0.08334704 0.8334554
vt 0.1039091 0.8334554
vt 0.1039091 0.860989
vt 0.08334704 0.860989
vt 0.0625408 0.8334554
vt 0.0831029 0.8334554
vt 0.0831029 0.860989
vt 0.0625408 0.860989
vt 0.6659218 0.889011
vt 0.6864839 0.889011
vt 0.6864839 0.9165446
vt 0.6659218 0.9165446
vt 0.6451156 0.889011
vt 0.6656777 0.889011
vt 0.6656777 0.9165446
vt 0.6451156 0.9165446
vt 0.6659218 0.8612332
vt 0.6864839 0.8612332
vt 0.6864839 0.8887668
vt 0.6659218 0.8887668
vt 0.6451156 0.8612332
vt 0.6656777 0.8612332
vt 0.6656777 0.8887668
vt 0.6451156 0.8887668
vt 0.1457658 0.9723443
vt 0.1663279 0.9723443
vt 0.1663279 0.9998779
vt 0.1457658 0.9998779
vt 0.2081845 0.9723443
vt 0.2287466 0.9723443
vt 0.2287466 0.9998779
vt 0.2081845 0.9998779
vt 0.2081845 0.6667887
vt 0.2287466 0.6667887
vt 0.2287466 0.6943223
vt 0.2081845 0.6943223
vt 0.1873782 0.6667887
vt 0.2079404 0.6667887
vt 0.2079404 0.6943223
vt 0.1873782 0.6943223
vt 0.2081845 0.639011
vt 0.2287466 0.639011
vt 0.2287466 0.6665446
vt 0.2081845 0.6665446
vt 0.1873782 0.639011
vt 0.2079404 0.639011
vt 0.2079404 0.6665446
vt 0.1873782 0.6665446
vt 0.1249595 0.5001221
vt 0.1455216 0.5001221
vt 0.1455216 0.5276557
vt 0.1249595 0.5276557
vt 0.1041533 0.5001221
vt 0.1247154 0.5001221
vt 0.1247154 0.5276557
vt 0.1041533 0.5276557
vt 0.1873782 0.9723443
vt 0.2079404 0.9723443
vt 0.2079404 0.9998779
vt 0.1873782 0.9998779
vt 0.02092831 0.9723443
vt 0.04149041 0.9723443
vt 0.04149041 0.9998779
vt 0.02092831 0.9998779
vt 0.02092831 0.7501221
vt 0.04149041 0.7501221
vt 0.04149041 0.7776557
vt 0.02092831 0.7776557
vt 0.0625408 0.639011
vt 0.0831029 0.639011
vt 0.0831029 0.6665446
vt 0.0625408 0.6665446
vt 0.0625408 0.6667887
vt 0.0831029 0.6667887
vt 0.0831029 0.6943223
vt 0.0625408 0.6943223
vt 0.04173455 0.639011
vt 0.06229666 0.639011
vt 0.06229666 0.6665446
vt 0.04173455 0.6665446
vt 0.0001220703 0.7501221
vt 0.02068417 0.7501221
vt 0.02068417 0.7776557
vt 0.0001220703 0.7776557

# Normal
vn 0 0 -1

# Mesh description
g UbosDoongan_mesh_0003

# Faces
f 1/1/1 2/2/1 3/3/1 4/4/1
f 5/5/1 6/6/1 7/7/1 8/8/1
f 9/9/1 10/10/1 11/11/1 12/12/1
f 13/13/1 14/14/1 15/15/1 16/16/1
f 17/17/1 18/18/1 19/19/1 20/20/1
f 21/1/1 22/2/1 23/3/1 24/4/1
f 25/5/1 26/6/1 27/7/1 28/8/1
f 29/9/1 30/10/1 31/11/1 32/12/1
f 33/21/1 34/22/1 35/23/1 36/24/1
f 37/25/1 38/26/1 39/27/1 40/28/1
f 41/29/1 42/30/1 43/31/1 44/32/1
f 45/33/1 46/34/1 47/35/1 48/36/1
f 49/1/1 50/2/1 51/3/1 52/4/1
f 53/5/1 54/6/1 55/7/1 56/8/1
f 57/9/1 58/10/1 59/11/1 60/12/1
f 61/37/1 62/38/1 63/39/1 64/40/1
f 65/41/1 66/42/1 67/43/1 68/44/1
f 69/29/1 70/30/1 71/31/1 72/32/1
f 73/13/1 74/14/1 75/15/1 76/16/1
f 77/17/1 78/18/1 79/19/1 80/20/1
f 81/45/1 82/46/1 83/47/1 84/48/1
f 85/49/1 86/50/1 87/51/1 88/52/1
f 89/21/1 90/22/1 91/23/1 92/24/1
f 93/25/1 94/26/1 95/27/1 96/28/1
f 97/37/1 98/38/1 99/39/1 100/40/1
f 101/41/1 102/42/1 103/43/1 104/44/1
f 105/53/1 106/54/1 107/55/1 108/56/1
f 109/57/1 110/58/1 111/59/1 112/60/1
f 113/33/1 114/34/1 115/35/1 116/36/1
f 117/45/1 118/46/1 119/47/1 120/48/1
f 121/49/1 122/50/1 123/51/1 124/52/1
f 125/53/1 126/54/1 127/55/1 128/56/1
f 129/57/1 130/58/1 131/59/1 132/60/1
f 133/53/1 134/54/1 135/55/1 136/56/1
f 137/57/1 138/58/1 139/59/1 140/60/1
f 141/61/1 142/62/1 143/63/1 144/64/1
f 145/65/1 146/66/1 147/67/1 148/68/1
f 149/29/1 150/30/1 151/31/1 152/32/1
f 153/37/1 154/38/1 155/39/1 156/40/1
f 157/41/1 158/42/1 159/43/1 160/44/1
f 161/69/1 162/70/1 163/71/1 164/72/1
f 165/45/1 166/46/1 167/47/1 168/48/1
f 169/49/1 170/50/1 171/51/1 172/52/1
f 173/29/1 174/30/1 175/31/1 176/32/1
f 177/69/1 178/70/1 179/71/1 180/72/1
f 181/29/1 182/30/1 183/31/1 184/32/1
f 185/73/1 186/74/1 187/75/1 188/76/1
f 189/13/1 190/14/1 191/15/1 192/16/1
f 193/17/1 194/18/1 195/19/1 196/20/1
f 197/69/1 198/70/1 199/71/1 200/72/1
f 201/69/1 202/70/1 203/71/1 204/72/1
f 205/21/1 206/22/1 207/23/1 208/24/1
f 209/25/1 210/26/1 211/27/1 212/28/1
f 213/77/1 214/78/1 215/79/1 216/80/1
f 217/69/1 218/70/1 219/71/1 220/72/1
f 221/65/1 222/66/1 223/67/1 224/68/1
f 225/69/1 226/70/1 227/71/1 228/72/1
f 229/77/1 230/78/1 231/79/1 232/80/1
f 233/53/1 234/54/1 235/55/1 236/56/1
f 237/57/1 238/58/1 239/59/1 240/60/1
f 241/65/1 242/66/1 243/67/1 244/68/1
f 245/81/1 246/82/1 247/83/1 248/84/1
f 249/65/1 250/66/1 251/67/1 252/68/1
f 253/69/1 254/70/1 255/71/1 256/72/1
f 257/81/1 258/82/1 259/83/1 260/84/1
f 261/69/1 262/70/1 263/71/1 264/72/1
f 265/69/1 266/70/1 267/71/1 268/72/1
f 269/85/1 270/86/1 271/87/1 272/88/1
f 273/53/1 274/54/1 275/55/1 276/56/1
f 277/57/1 278/58/1 279/59/1 280/60/1
f 281/81/1 282/82/1 283/83/1 284/84/1
f 285/85/1 286/86/1 287/87/1 288/88/1
f 289/73/1 290/74/1 291/75/1 292/76/1
f 293/81/1 294/82/1 295/83/1 296/84/1
f 297/69/1 298/70/1 299/71/1 300/72/1
f 301/81/1 302/82/1 303/83/1 304/84/1
f 305/81/1 306/82/1 307/83/1 308/84/1
f 309/69/1 310/70/1 311/71/1 312/72/1
f 313/65/1 314/66/1 315/67/1 316/68/1
f 317/69/1 318/70/1 319/71/1 320/72/1
f 321/69/1 322/70/1 323/71/1 324/72/1
f 325/77/1 326/78/1 327/79/1 328/80/1
f 329/13/1 330/14/1 331/15/1 332/16/1
f 333/17/1 334/18/1 335/19/1 336/20/1
f 337/65/1 338/66/1 339/67/1 340/68/1
f 341/85/1 342/86/1 343/87/1 344/88/1
f 345/69/1 346/70/1 347/71/1 348/72/1
f 349/69/1 350/70/1 351/71/1 352/72/1
f 353/85/1 354/86/1 355/87/1 356/88/1
f 357/21/1 358/22/1 359/23/1 360/24/1
f 361/25/1 362/26/1 363/27/1 364/28/1
f 365/13/1 366/14/1 367/15/1 368/16/1
f 369/17/1 370/18/1 371/19/1 372/20/1
f 373/21/1 374/22/1 375/23/1 376/24/1
f 377/25/1 378/26/1 379/27/1 380/28/1
f 381/53/1 382/54/1 383/55/1 384/56/1
f 385/57/1 386/58/1 387/59/1 388/60/1
f 389/1/1 390/2/1 391/3/1 392/4/1
f 393/5/1 394/6/1 395/7/1 396/8/1
f 397/9/1 398/10/1 399/11/1 400/12/1
f 401/1/1 402/2/1 403/3/1 404/4/1
f 405/5/1 406/6/1 407/7/1 408/8/1
f 409/9/1 410/10/1 411/11/1 412/12/1
f 413/53/1 414/54/1 415/55/1 416/56/1
f 417/57/1 418/58/1 419/59/1 420/60/1
f 421/53/1 422/54/1 423/55/1 424/56/1
f 425/57/1 426/58/1 427/59/1 428/60/1

