# Tiled2Unity generated file. Do not modify by hand.
# Wavefront file for 'SportsComples_mesh_0007.obj'

# Vertices (Count = 752)
v -25 -1 0
v -26 -1 0
v -26 0 0
v -25 0 0
v -24 -1 0
v -25 -1 0
v -25 0 0
v -24 0 0
v -23 -1 0
v -24 -1 0
v -24 0 0
v -23 0 0
v -22 -1 0
v -23 -1 0
v -23 0 0
v -22 0 0
v -20 -1 0
v -21 -1 0
v -21 0 0
v -20 0 0
v -19 -1 0
v -20 -1 0
v -20 0 0
v -19 0 0
v -18 -1 0
v -19 -1 0
v -19 0 0
v -18 0 0
v -17 -1 0
v -18 -1 0
v -18 0 0
v -17 0 0
v -37 -2 0
v -38 -2 0
v -38 -1 0
v -37 -1 0
v -36 -2 0
v -37 -2 0
v -37 -1 0
v -36 -1 0
v -35 -2 0
v -36 -2 0
v -36 -1 0
v -35 -1 0
v -20 -2 0
v -21 -2 0
v -21 -1 0
v -20 -1 0
v -19 -2 0
v -20 -2 0
v -20 -1 0
v -19 -1 0
v -18 -2 0
v -19 -2 0
v -19 -1 0
v -18 -1 0
v -17 -2 0
v -18 -2 0
v -18 -1 0
v -17 -1 0
v -9 -2 0
v -10 -2 0
v -10 -1 0
v -9 -1 0
v -8 -2 0
v -9 -2 0
v -9 -1 0
v -8 -1 0
v -7 -2 0
v -8 -2 0
v -8 -1 0
v -7 -1 0
v -6 -2 0
v -7 -2 0
v -7 -1 0
v -6 -1 0
v -37 -3 0
v -38 -3 0
v -38 -2 0
v -37 -2 0
v -36 -3 0
v -37 -3 0
v -37 -2 0
v -36 -2 0
v -35 -3 0
v -36 -3 0
v -36 -2 0
v -35 -2 0
v -9 -3 0
v -10 -3 0
v -10 -2 0
v -9 -2 0
v -8 -3 0
v -9 -3 0
v -9 -2 0
v -8 -2 0
v -7 -3 0
v -8 -3 0
v -8 -2 0
v -7 -2 0
v -6 -3 0
v -7 -3 0
v -7 -2 0
v -6 -2 0
v -51 -5 0
v -52 -5 0
v -52 -4 0
v -51 -4 0
v -50 -5 0
v -51 -5 0
v -51 -4 0
v -50 -4 0
v -49 -5 0
v -50 -5 0
v -50 -4 0
v -49 -4 0
v -48 -5 0
v -49 -5 0
v -49 -4 0
v -48 -4 0
v -28 -5 0
v -29 -5 0
v -29 -4 0
v -28 -4 0
v -27 -5 0
v -28 -5 0
v -28 -4 0
v -27 -4 0
v -26 -5 0
v -27 -5 0
v -27 -4 0
v -26 -4 0
v -25 -5 0
v -26 -5 0
v -26 -4 0
v -25 -4 0
v -51 -6 0
v -52 -6 0
v -52 -5 0
v -51 -5 0
v -50 -6 0
v -51 -6 0
v -51 -5 0
v -50 -5 0
v -49 -6 0
v -50 -6 0
v -50 -5 0
v -49 -5 0
v -48 -6 0
v -49 -6 0
v -49 -5 0
v -48 -5 0
v -42 -6 0
v -43 -6 0
v -43 -5 0
v -42 -5 0
v -41 -6 0
v -42 -6 0
v -42 -5 0
v -41 -5 0
v -40 -6 0
v -41 -6 0
v -41 -5 0
v -40 -5 0
v -36 -6 0
v -37 -6 0
v -37 -5 0
v -36 -5 0
v -35 -6 0
v -36 -6 0
v -36 -5 0
v -35 -5 0
v -28 -6 0
v -29 -6 0
v -29 -5 0
v -28 -5 0
v -27 -6 0
v -28 -6 0
v -28 -5 0
v -27 -5 0
v -26 -6 0
v -27 -6 0
v -27 -5 0
v -26 -5 0
v -25 -6 0
v -26 -6 0
v -26 -5 0
v -25 -5 0
v -42 -7 0
v -43 -7 0
v -43 -6 0
v -42 -6 0
v -41 -7 0
v -42 -7 0
v -42 -6 0
v -41 -6 0
v -40 -7 0
v -41 -7 0
v -41 -6 0
v -40 -6 0
v -36 -7 0
v -37 -7 0
v -37 -6 0
v -36 -6 0
v -35 -7 0
v -36 -7 0
v -36 -6 0
v -35 -6 0
v -10 -7 0
v -11 -7 0
v -11 -6 0
v -10 -6 0
v -9 -7 0
v -10 -7 0
v -10 -6 0
v -9 -6 0
v -8 -7 0
v -9 -7 0
v -9 -6 0
v -8 -6 0
v -7 -7 0
v -8 -7 0
v -8 -6 0
v -7 -6 0
v -33 -8 0
v -34 -8 0
v -34 -7 0
v -33 -7 0
v -32 -8 0
v -33 -8 0
v -33 -7 0
v -32 -7 0
v -31 -8 0
v -32 -8 0
v -32 -7 0
v -31 -7 0
v -30 -8 0
v -31 -8 0
v -31 -7 0
v -30 -7 0
v -10 -8 0
v -11 -8 0
v -11 -7 0
v -10 -7 0
v -9 -8 0
v -10 -8 0
v -10 -7 0
v -9 -7 0
v -8 -8 0
v -9 -8 0
v -9 -7 0
v -8 -7 0
v -7 -8 0
v -8 -8 0
v -8 -7 0
v -7 -7 0
v -33 -9 0
v -34 -9 0
v -34 -8 0
v -33 -8 0
v -32 -9 0
v -33 -9 0
v -33 -8 0
v -32 -8 0
v -31 -9 0
v -32 -9 0
v -32 -8 0
v -31 -8 0
v -30 -9 0
v -31 -9 0
v -31 -8 0
v -30 -8 0
v -28 -9 0
v -29 -9 0
v -29 -8 0
v -28 -8 0
v -27 -9 0
v -28 -9 0
v -28 -8 0
v -27 -8 0
v -26 -9 0
v -27 -9 0
v -27 -8 0
v -26 -8 0
v -25 -9 0
v -26 -9 0
v -26 -8 0
v -25 -8 0
v -28 -10 0
v -29 -10 0
v -29 -9 0
v -28 -9 0
v -27 -10 0
v -28 -10 0
v -28 -9 0
v -27 -9 0
v -26 -10 0
v -27 -10 0
v -27 -9 0
v -26 -9 0
v -25 -10 0
v -26 -10 0
v -26 -9 0
v -25 -9 0
v -43 -12 0
v -44 -12 0
v -44 -11 0
v -43 -11 0
v -42 -12 0
v -43 -12 0
v -43 -11 0
v -42 -11 0
v -41 -12 0
v -42 -12 0
v -42 -11 0
v -41 -11 0
v -40 -12 0
v -41 -12 0
v -41 -11 0
v -40 -11 0
v -9 -12 0
v -10 -12 0
v -10 -11 0
v -9 -11 0
v -8 -12 0
v -9 -12 0
v -9 -11 0
v -8 -11 0
v -7 -12 0
v -8 -12 0
v -8 -11 0
v -7 -11 0
v -6 -12 0
v -7 -12 0
v -7 -11 0
v -6 -11 0
v -57 -13 0
v -58 -13 0
v -58 -12 0
v -57 -12 0
v -56 -13 0
v -57 -13 0
v -57 -12 0
v -56 -12 0
v -55 -13 0
v -56 -13 0
v -56 -12 0
v -55 -12 0
v -54 -13 0
v -55 -13 0
v -55 -12 0
v -54 -12 0
v -43 -13 0
v -44 -13 0
v -44 -12 0
v -43 -12 0
v -42 -13 0
v -43 -13 0
v -43 -12 0
v -42 -12 0
v -41 -13 0
v -42 -13 0
v -42 -12 0
v -41 -12 0
v -40 -13 0
v -41 -13 0
v -41 -12 0
v -40 -12 0
v -9 -13 0
v -10 -13 0
v -10 -12 0
v -9 -12 0
v -8 -13 0
v -9 -13 0
v -9 -12 0
v -8 -12 0
v -7 -13 0
v -8 -13 0
v -8 -12 0
v -7 -12 0
v -6 -13 0
v -7 -13 0
v -7 -12 0
v -6 -12 0
v -57 -14 0
v -58 -14 0
v -58 -13 0
v -57 -13 0
v -56 -14 0
v -57 -14 0
v -57 -13 0
v -56 -13 0
v -55 -14 0
v -56 -14 0
v -56 -13 0
v -55 -13 0
v -54 -14 0
v -55 -14 0
v -55 -13 0
v -54 -13 0
v -36 -15 0
v -37 -15 0
v -37 -14 0
v -36 -14 0
v -35 -15 0
v -36 -15 0
v -36 -14 0
v -35 -14 0
v -34 -15 0
v -35 -15 0
v -35 -14 0
v -34 -14 0
v -33 -15 0
v -34 -15 0
v -34 -14 0
v -33 -14 0
v -36 -16 0
v -37 -16 0
v -37 -15 0
v -36 -15 0
v -35 -16 0
v -36 -16 0
v -36 -15 0
v -35 -15 0
v -34 -16 0
v -35 -16 0
v -35 -15 0
v -34 -15 0
v -33 -16 0
v -34 -16 0
v -34 -15 0
v -33 -15 0
v -10 -16 0
v -11 -16 0
v -11 -15 0
v -10 -15 0
v -9 -16 0
v -10 -16 0
v -10 -15 0
v -9 -15 0
v -8 -16 0
v -9 -16 0
v -9 -15 0
v -8 -15 0
v -7 -16 0
v -8 -16 0
v -8 -15 0
v -7 -15 0
v -51 -17 0
v -52 -17 0
v -52 -16 0
v -51 -16 0
v -50 -17 0
v -51 -17 0
v -51 -16 0
v -50 -16 0
v -49 -17 0
v -50 -17 0
v -50 -16 0
v -49 -16 0
v -48 -17 0
v -49 -17 0
v -49 -16 0
v -48 -16 0
v -40 -17 0
v -41 -17 0
v -41 -16 0
v -40 -16 0
v -39 -17 0
v -40 -17 0
v -40 -16 0
v -39 -16 0
v -38 -17 0
v -39 -17 0
v -39 -16 0
v -38 -16 0
v -37 -17 0
v -38 -17 0
v -38 -16 0
v -37 -16 0
v -10 -17 0
v -11 -17 0
v -11 -16 0
v -10 -16 0
v -9 -17 0
v -10 -17 0
v -10 -16 0
v -9 -16 0
v -8 -17 0
v -9 -17 0
v -9 -16 0
v -8 -16 0
v -7 -17 0
v -8 -17 0
v -8 -16 0
v -7 -16 0
v -51 -18 0
v -52 -18 0
v -52 -17 0
v -51 -17 0
v -50 -18 0
v -51 -18 0
v -51 -17 0
v -50 -17 0
v -49 -18 0
v -50 -18 0
v -50 -17 0
v -49 -17 0
v -48 -18 0
v -49 -18 0
v -49 -17 0
v -48 -17 0
v -40 -18 0
v -41 -18 0
v -41 -17 0
v -40 -17 0
v -39 -18 0
v -40 -18 0
v -40 -17 0
v -39 -17 0
v -38 -18 0
v -39 -18 0
v -39 -17 0
v -38 -17 0
v -37 -18 0
v -38 -18 0
v -38 -17 0
v -37 -17 0
v -56 -19 0
v -57 -19 0
v -57 -18 0
v -56 -18 0
v -55 -19 0
v -56 -19 0
v -56 -18 0
v -55 -18 0
v -54 -19 0
v -55 -19 0
v -55 -18 0
v -54 -18 0
v -53 -19 0
v -54 -19 0
v -54 -18 0
v -53 -18 0
v -36 -19 0
v -37 -19 0
v -37 -18 0
v -36 -18 0
v -35 -19 0
v -36 -19 0
v -36 -18 0
v -35 -18 0
v -34 -19 0
v -35 -19 0
v -35 -18 0
v -34 -18 0
v -33 -19 0
v -34 -19 0
v -34 -18 0
v -33 -18 0
v -56 -20 0
v -57 -20 0
v -57 -19 0
v -56 -19 0
v -55 -20 0
v -56 -20 0
v -56 -19 0
v -55 -19 0
v -54 -20 0
v -55 -20 0
v -55 -19 0
v -54 -19 0
v -53 -20 0
v -54 -20 0
v -54 -19 0
v -53 -19 0
v -36 -20 0
v -37 -20 0
v -37 -19 0
v -36 -19 0
v -35 -20 0
v -36 -20 0
v -36 -19 0
v -35 -19 0
v -34 -20 0
v -35 -20 0
v -35 -19 0
v -34 -19 0
v -33 -20 0
v -34 -20 0
v -34 -19 0
v -33 -19 0
v -10 -21 0
v -11 -21 0
v -11 -20 0
v -10 -20 0
v -9 -21 0
v -10 -21 0
v -10 -20 0
v -9 -20 0
v -8 -21 0
v -9 -21 0
v -9 -20 0
v -8 -20 0
v -7 -21 0
v -8 -21 0
v -8 -20 0
v -7 -20 0
v -10 -22 0
v -11 -22 0
v -11 -21 0
v -10 -21 0
v -9 -22 0
v -10 -22 0
v -10 -21 0
v -9 -21 0
v -8 -22 0
v -9 -22 0
v -9 -21 0
v -8 -21 0
v -7 -22 0
v -8 -22 0
v -8 -21 0
v -7 -21 0
v -49 -27 0
v -50 -27 0
v -50 -26 0
v -49 -26 0
v -48 -27 0
v -49 -27 0
v -49 -26 0
v -48 -26 0
v -47 -27 0
v -48 -27 0
v -48 -26 0
v -47 -26 0
v -46 -27 0
v -47 -27 0
v -47 -26 0
v -46 -26 0
v -49 -28 0
v -50 -28 0
v -50 -27 0
v -49 -27 0
v -48 -28 0
v -49 -28 0
v -49 -27 0
v -48 -27 0
v -47 -28 0
v -48 -28 0
v -48 -27 0
v -47 -27 0
v -46 -28 0
v -47 -28 0
v -47 -27 0
v -46 -27 0
v -10 -28 0
v -11 -28 0
v -11 -27 0
v -10 -27 0
v -9 -28 0
v -10 -28 0
v -10 -27 0
v -9 -27 0
v -8 -28 0
v -9 -28 0
v -9 -27 0
v -8 -27 0
v -7 -28 0
v -8 -28 0
v -8 -27 0
v -7 -27 0
v -10 -29 0
v -11 -29 0
v -11 -28 0
v -10 -28 0
v -9 -29 0
v -10 -29 0
v -10 -28 0
v -9 -28 0
v -8 -29 0
v -9 -29 0
v -9 -28 0
v -8 -28 0
v -7 -29 0
v -8 -29 0
v -8 -28 0
v -7 -28 0
v -3 -33 0
v -4 -33 0
v -4 -32 0
v -3 -32 0
v -2 -33 0
v -3 -33 0
v -3 -32 0
v -2 -32 0
v -1 -33 0
v -2 -33 0
v -2 -32 0
v -1 -32 0
v 0 -33 0
v -1 -33 0
v -1 -32 0
v 0 -32 0
v -3 -34 0
v -4 -34 0
v -4 -33 0
v -3 -33 0
v -2 -34 0
v -3 -34 0
v -3 -33 0
v -2 -33 0
v -1 -34 0
v -2 -34 0
v -2 -33 0
v -1 -33 0
v 0 -34 0
v -1 -34 0
v -1 -33 0
v 0 -33 0
v -45 -39 0
v -46 -39 0
v -46 -38 0
v -45 -38 0
v -44 -39 0
v -45 -39 0
v -45 -38 0
v -44 -38 0
v -43 -39 0
v -44 -39 0
v -44 -38 0
v -43 -38 0
v -42 -39 0
v -43 -39 0
v -43 -38 0
v -42 -38 0
v -45 -40 0
v -46 -40 0
v -46 -39 0
v -45 -39 0
v -44 -40 0
v -45 -40 0
v -45 -39 0
v -44 -39 0
v -43 -40 0
v -44 -40 0
v -44 -39 0
v -43 -39 0
v -42 -40 0
v -43 -40 0
v -43 -39 0
v -42 -39 0

# Texture cooridinates (Count = 72)
vt 0.0625408 0.05567765
vt 0.0831029 0.05567765
vt 0.0831029 0.08321124
vt 0.0625408 0.08321124
vt 0.04173455 0.05567765
vt 0.06229666 0.05567765
vt 0.06229666 0.08321124
vt 0.04173455 0.08321124
vt 0.02092831 0.05567765
vt 0.04149041 0.05567765
vt 0.04149041 0.08321124
vt 0.02092831 0.08321124
vt 0.0001220703 0.05567765
vt 0.02068417 0.05567765
vt 0.02068417 0.08321124
vt 0.0001220703 0.08321124
vt 0.0625408 0.08345538
vt 0.0831029 0.08345538
vt 0.0831029 0.110989
vt 0.0625408 0.110989
vt 0.04173455 0.08345538
vt 0.06229666 0.08345538
vt 0.06229666 0.110989
vt 0.04173455 0.110989
vt 0.02092831 0.08345538
vt 0.04149041 0.08345538
vt 0.04149041 0.110989
vt 0.02092831 0.110989
vt 0.0001220703 0.08345538
vt 0.02068417 0.08345538
vt 0.02068417 0.110989
vt 0.0001220703 0.110989
vt 0.1249595 0.08345538
vt 0.1455216 0.08345538
vt 0.1455216 0.110989
vt 0.1249595 0.110989
vt 0.1041533 0.08345538
vt 0.1247154 0.08345538
vt 0.1247154 0.110989
vt 0.1041533 0.110989
vt 0.08334704 0.08345538
vt 0.1039091 0.08345538
vt 0.1039091 0.110989
vt 0.08334704 0.110989
vt 0.1249595 0.05567765
vt 0.1455216 0.05567765
vt 0.1455216 0.08321124
vt 0.1249595 0.08321124
vt 0.1041533 0.05567765
vt 0.1247154 0.05567765
vt 0.1247154 0.08321124
vt 0.1041533 0.08321124
vt 0.08334704 0.05567765
vt 0.1039091 0.05567765
vt 0.1039091 0.08321124
vt 0.08334704 0.08321124
vt 0.2914095 0.7501221
vt 0.3119715 0.7501221
vt 0.3119715 0.7776557
vt 0.2914095 0.7776557
vt 0.2706032 0.7501221
vt 0.2911653 0.7501221
vt 0.2911653 0.7776557
vt 0.2706032 0.7776557
vt 0.2914095 0.7223443
vt 0.3119715 0.7223443
vt 0.3119715 0.7498779
vt 0.2914095 0.7498779
vt 0.2706032 0.7223443
vt 0.2911653 0.7223443
vt 0.2911653 0.7498779
vt 0.2706032 0.7498779

# Normal
vn 0 0 -1

# Mesh description
g SportsComples_mesh_0007

# Faces
f 1/1/1 2/2/1 3/3/1 4/4/1
f 5/5/1 6/6/1 7/7/1 8/8/1
f 9/9/1 10/10/1 11/11/1 12/12/1
f 13/13/1 14/14/1 15/15/1 16/16/1
f 17/17/1 18/18/1 19/19/1 20/20/1
f 21/21/1 22/22/1 23/23/1 24/24/1
f 25/25/1 26/26/1 27/27/1 28/28/1
f 29/29/1 30/30/1 31/31/1 32/32/1
f 33/33/1 34/34/1 35/35/1 36/36/1
f 37/37/1 38/38/1 39/39/1 40/40/1
f 41/41/1 42/42/1 43/43/1 44/44/1
f 45/1/1 46/2/1 47/3/1 48/4/1
f 49/5/1 50/6/1 51/7/1 52/8/1
f 53/9/1 54/10/1 55/11/1 56/12/1
f 57/13/1 58/14/1 59/15/1 60/16/1
f 61/17/1 62/18/1 63/19/1 64/20/1
f 65/21/1 66/22/1 67/23/1 68/24/1
f 69/25/1 70/26/1 71/27/1 72/28/1
f 73/29/1 74/30/1 75/31/1 76/32/1
f 77/45/1 78/46/1 79/47/1 80/48/1
f 81/49/1 82/50/1 83/51/1 84/52/1
f 85/53/1 86/54/1 87/55/1 88/56/1
f 89/1/1 90/2/1 91/3/1 92/4/1
f 93/5/1 94/6/1 95/7/1 96/8/1
f 97/9/1 98/10/1 99/11/1 100/12/1
f 101/13/1 102/14/1 103/15/1 104/16/1
f 105/17/1 106/18/1 107/19/1 108/20/1
f 109/21/1 110/22/1 111/23/1 112/24/1
f 113/25/1 114/26/1 115/27/1 116/28/1
f 117/29/1 118/30/1 119/31/1 120/32/1
f 121/17/1 122/18/1 123/19/1 124/20/1
f 125/21/1 126/22/1 127/23/1 128/24/1
f 129/25/1 130/26/1 131/27/1 132/28/1
f 133/29/1 134/30/1 135/31/1 136/32/1
f 137/1/1 138/2/1 139/3/1 140/4/1
f 141/5/1 142/6/1 143/7/1 144/8/1
f 145/9/1 146/10/1 147/11/1 148/12/1
f 149/13/1 150/14/1 151/15/1 152/16/1
f 153/33/1 154/34/1 155/35/1 156/36/1
f 157/37/1 158/38/1 159/39/1 160/40/1
f 161/41/1 162/42/1 163/43/1 164/44/1
f 165/57/1 166/58/1 167/59/1 168/60/1
f 169/61/1 170/62/1 171/63/1 172/64/1
f 173/1/1 174/2/1 175/3/1 176/4/1
f 177/5/1 178/6/1 179/7/1 180/8/1
f 181/9/1 182/10/1 183/11/1 184/12/1
f 185/13/1 186/14/1 187/15/1 188/16/1
f 189/45/1 190/46/1 191/47/1 192/48/1
f 193/49/1 194/50/1 195/51/1 196/52/1
f 197/53/1 198/54/1 199/55/1 200/56/1
f 201/65/1 202/66/1 203/67/1 204/68/1
f 205/69/1 206/70/1 207/71/1 208/72/1
f 209/17/1 210/18/1 211/19/1 212/20/1
f 213/21/1 214/22/1 215/23/1 216/24/1
f 217/25/1 218/26/1 219/27/1 220/28/1
f 221/29/1 222/30/1 223/31/1 224/32/1
f 225/17/1 226/18/1 227/19/1 228/20/1
f 229/21/1 230/22/1 231/23/1 232/24/1
f 233/25/1 234/26/1 235/27/1 236/28/1
f 237/29/1 238/30/1 239/31/1 240/32/1
f 241/1/1 242/2/1 243/3/1 244/4/1
f 245/5/1 246/6/1 247/7/1 248/8/1
f 249/9/1 250/10/1 251/11/1 252/12/1
f 253/13/1 254/14/1 255/15/1 256/16/1
f 257/1/1 258/2/1 259/3/1 260/4/1
f 261/5/1 262/6/1 263/7/1 264/8/1
f 265/9/1 266/10/1 267/11/1 268/12/1
f 269/13/1 270/14/1 271/15/1 272/16/1
f 273/17/1 274/18/1 275/19/1 276/20/1
f 277/21/1 278/22/1 279/23/1 280/24/1
f 281/25/1 282/26/1 283/27/1 284/28/1
f 285/29/1 286/30/1 287/31/1 288/32/1
f 289/1/1 290/2/1 291/3/1 292/4/1
f 293/5/1 294/6/1 295/7/1 296/8/1
f 297/9/1 298/10/1 299/11/1 300/12/1
f 301/13/1 302/14/1 303/15/1 304/16/1
f 305/17/1 306/18/1 307/19/1 308/20/1
f 309/21/1 310/22/1 311/23/1 312/24/1
f 313/25/1 314/26/1 315/27/1 316/28/1
f 317/29/1 318/30/1 319/31/1 320/32/1
f 321/17/1 322/18/1 323/19/1 324/20/1
f 325/21/1 326/22/1 327/23/1 328/24/1
f 329/25/1 330/26/1 331/27/1 332/28/1
f 333/29/1 334/30/1 335/31/1 336/32/1
f 337/17/1 338/18/1 339/19/1 340/20/1
f 341/21/1 342/22/1 343/23/1 344/24/1
f 345/25/1 346/26/1 347/27/1 348/28/1
f 349/29/1 350/30/1 351/31/1 352/32/1
f 353/1/1 354/2/1 355/3/1 356/4/1
f 357/5/1 358/6/1 359/7/1 360/8/1
f 361/9/1 362/10/1 363/11/1 364/12/1
f 365/13/1 366/14/1 367/15/1 368/16/1
f 369/1/1 370/2/1 371/3/1 372/4/1
f 373/5/1 374/6/1 375/7/1 376/8/1
f 377/9/1 378/10/1 379/11/1 380/12/1
f 381/13/1 382/14/1 383/15/1 384/16/1
f 385/1/1 386/2/1 387/3/1 388/4/1
f 389/5/1 390/6/1 391/7/1 392/8/1
f 393/9/1 394/10/1 395/11/1 396/12/1
f 397/13/1 398/14/1 399/15/1 400/16/1
f 401/17/1 402/18/1 403/19/1 404/20/1
f 405/21/1 406/22/1 407/23/1 408/24/1
f 409/25/1 410/26/1 411/27/1 412/28/1
f 413/29/1 414/30/1 415/31/1 416/32/1
f 417/1/1 418/2/1 419/3/1 420/4/1
f 421/5/1 422/6/1 423/7/1 424/8/1
f 425/9/1 426/10/1 427/11/1 428/12/1
f 429/13/1 430/14/1 431/15/1 432/16/1
f 433/17/1 434/18/1 435/19/1 436/20/1
f 437/21/1 438/22/1 439/23/1 440/24/1
f 441/25/1 442/26/1 443/27/1 444/28/1
f 445/29/1 446/30/1 447/31/1 448/32/1
f 449/17/1 450/18/1 451/19/1 452/20/1
f 453/21/1 454/22/1 455/23/1 456/24/1
f 457/25/1 458/26/1 459/27/1 460/28/1
f 461/29/1 462/30/1 463/31/1 464/32/1
f 465/17/1 466/18/1 467/19/1 468/20/1
f 469/21/1 470/22/1 471/23/1 472/24/1
f 473/25/1 474/26/1 475/27/1 476/28/1
f 477/29/1 478/30/1 479/31/1 480/32/1
f 481/1/1 482/2/1 483/3/1 484/4/1
f 485/5/1 486/6/1 487/7/1 488/8/1
f 489/9/1 490/10/1 491/11/1 492/12/1
f 493/13/1 494/14/1 495/15/1 496/16/1
f 497/1/1 498/2/1 499/3/1 500/4/1
f 501/5/1 502/6/1 503/7/1 504/8/1
f 505/9/1 506/10/1 507/11/1 508/12/1
f 509/13/1 510/14/1 511/15/1 512/16/1
f 513/1/1 514/2/1 515/3/1 516/4/1
f 517/5/1 518/6/1 519/7/1 520/8/1
f 521/9/1 522/10/1 523/11/1 524/12/1
f 525/13/1 526/14/1 527/15/1 528/16/1
f 529/17/1 530/18/1 531/19/1 532/20/1
f 533/21/1 534/22/1 535/23/1 536/24/1
f 537/25/1 538/26/1 539/27/1 540/28/1
f 541/29/1 542/30/1 543/31/1 544/32/1
f 545/17/1 546/18/1 547/19/1 548/20/1
f 549/21/1 550/22/1 551/23/1 552/24/1
f 553/25/1 554/26/1 555/27/1 556/28/1
f 557/29/1 558/30/1 559/31/1 560/32/1
f 561/1/1 562/2/1 563/3/1 564/4/1
f 565/5/1 566/6/1 567/7/1 568/8/1
f 569/9/1 570/10/1 571/11/1 572/12/1
f 573/13/1 574/14/1 575/15/1 576/16/1
f 577/1/1 578/2/1 579/3/1 580/4/1
f 581/5/1 582/6/1 583/7/1 584/8/1
f 585/9/1 586/10/1 587/11/1 588/12/1
f 589/13/1 590/14/1 591/15/1 592/16/1
f 593/17/1 594/18/1 595/19/1 596/20/1
f 597/21/1 598/22/1 599/23/1 600/24/1
f 601/25/1 602/26/1 603/27/1 604/28/1
f 605/29/1 606/30/1 607/31/1 608/32/1
f 609/1/1 610/2/1 611/3/1 612/4/1
f 613/5/1 614/6/1 615/7/1 616/8/1
f 617/9/1 618/10/1 619/11/1 620/12/1
f 621/13/1 622/14/1 623/15/1 624/16/1
f 625/17/1 626/18/1 627/19/1 628/20/1
f 629/21/1 630/22/1 631/23/1 632/24/1
f 633/25/1 634/26/1 635/27/1 636/28/1
f 637/29/1 638/30/1 639/31/1 640/32/1
f 641/1/1 642/2/1 643/3/1 644/4/1
f 645/5/1 646/6/1 647/7/1 648/8/1
f 649/9/1 650/10/1 651/11/1 652/12/1
f 653/13/1 654/14/1 655/15/1 656/16/1
f 657/17/1 658/18/1 659/19/1 660/20/1
f 661/21/1 662/22/1 663/23/1 664/24/1
f 665/25/1 666/26/1 667/27/1 668/28/1
f 669/29/1 670/30/1 671/31/1 672/32/1
f 673/1/1 674/2/1 675/3/1 676/4/1
f 677/5/1 678/6/1 679/7/1 680/8/1
f 681/9/1 682/10/1 683/11/1 684/12/1
f 685/13/1 686/14/1 687/15/1 688/16/1
f 689/17/1 690/18/1 691/19/1 692/20/1
f 693/21/1 694/22/1 695/23/1 696/24/1
f 697/25/1 698/26/1 699/27/1 700/28/1
f 701/29/1 702/30/1 703/31/1 704/32/1
f 705/1/1 706/2/1 707/3/1 708/4/1
f 709/5/1 710/6/1 711/7/1 712/8/1
f 713/9/1 714/10/1 715/11/1 716/12/1
f 717/13/1 718/14/1 719/15/1 720/16/1
f 721/17/1 722/18/1 723/19/1 724/20/1
f 725/21/1 726/22/1 727/23/1 728/24/1
f 729/25/1 730/26/1 731/27/1 732/28/1
f 733/29/1 734/30/1 735/31/1 736/32/1
f 737/1/1 738/2/1 739/3/1 740/4/1
f 741/5/1 742/6/1 743/7/1 744/8/1
f 745/9/1 746/10/1 747/11/1 748/12/1
f 749/13/1 750/14/1 751/15/1 752/16/1

