# Tiled2Unity generated file. Do not modify by hand.
# Wavefront file for 'BoodEco-Park_mesh_0003.obj'

# Vertices (Count = 100)
v -27 -22 0
v -28 -22 0
v -28 -21 0
v -27 -21 0
v -26 -22 0
v -27 -22 0
v -27 -21 0
v -26 -21 0
v -25 -22 0
v -26 -22 0
v -26 -21 0
v -25 -21 0
v -24 -22 0
v -25 -22 0
v -25 -21 0
v -24 -21 0
v -23 -22 0
v -24 -22 0
v -24 -21 0
v -23 -21 0
v -27 -23 0
v -28 -23 0
v -28 -22 0
v -27 -22 0
v -26 -23 0
v -27 -23 0
v -27 -22 0
v -26 -22 0
v -25 -23 0
v -26 -23 0
v -26 -22 0
v -25 -22 0
v -24 -23 0
v -25 -23 0
v -25 -22 0
v -24 -22 0
v -23 -23 0
v -24 -23 0
v -24 -22 0
v -23 -22 0
v -27 -24 0
v -28 -24 0
v -28 -23 0
v -27 -23 0
v -26 -24 0
v -27 -24 0
v -27 -23 0
v -26 -23 0
v -25 -24 0
v -26 -24 0
v -26 -23 0
v -25 -23 0
v -24 -24 0
v -25 -24 0
v -25 -23 0
v -24 -23 0
v -23 -24 0
v -24 -24 0
v -24 -23 0
v -23 -23 0
v -27 -25 0
v -28 -25 0
v -28 -24 0
v -27 -24 0
v -26 -25 0
v -27 -25 0
v -27 -24 0
v -26 -24 0
v -25 -25 0
v -26 -25 0
v -26 -24 0
v -25 -24 0
v -24 -25 0
v -25 -25 0
v -25 -24 0
v -24 -24 0
v -23 -25 0
v -24 -25 0
v -24 -24 0
v -23 -24 0
v -27 -26 0
v -28 -26 0
v -28 -25 0
v -27 -25 0
v -26 -26 0
v -27 -26 0
v -27 -25 0
v -26 -25 0
v -25 -26 0
v -26 -26 0
v -26 -25 0
v -25 -25 0
v -24 -26 0
v -25 -26 0
v -25 -25 0
v -24 -25 0
v -23 -26 0
v -24 -26 0
v -24 -25 0
v -23 -25 0

# Texture cooridinates (Count = 100)
vt 0.8104669 0.7369642
vt 0.8274642 0.7369642
vt 0.8274642 0.7630358
vt 0.8104669 0.7630358
vt 0.7932255 0.7369642
vt 0.8102227 0.7369642
vt 0.8102227 0.7630358
vt 0.7932255 0.7630358
vt 0.7759842 0.7369642
vt 0.7929814 0.7369642
vt 0.7929814 0.7630358
vt 0.7759842 0.7630358
vt 0.7587427 0.7369642
vt 0.77574 0.7369642
vt 0.77574 0.7630358
vt 0.7587427 0.7630358
vt 0.7415014 0.7369642
vt 0.7584986 0.7369642
vt 0.7584986 0.7630358
vt 0.7415014 0.7630358
vt 0.8104669 0.7106484
vt 0.8274642 0.7106484
vt 0.8274642 0.73672
vt 0.8104669 0.73672
vt 0.7932255 0.7106484
vt 0.8102227 0.7106484
vt 0.8102227 0.73672
vt 0.7932255 0.73672
vt 0.7759842 0.7106484
vt 0.7929814 0.7106484
vt 0.7929814 0.73672
vt 0.7759842 0.73672
vt 0.7587427 0.7106484
vt 0.77574 0.7106484
vt 0.77574 0.73672
vt 0.7587427 0.73672
vt 0.7415014 0.7106484
vt 0.7584986 0.7106484
vt 0.7584986 0.73672
vt 0.7415014 0.73672
vt 0.8104669 0.6843326
vt 0.8274642 0.6843326
vt 0.8274642 0.7104043
vt 0.8104669 0.7104043
vt 0.7932255 0.6843326
vt 0.8102227 0.6843326
vt 0.8102227 0.7104043
vt 0.7932255 0.7104043
vt 0.7759842 0.6843326
vt 0.7929814 0.6843326
vt 0.7929814 0.7104043
vt 0.7759842 0.7104043
vt 0.7587427 0.6843326
vt 0.77574 0.6843326
vt 0.77574 0.7104043
vt 0.7587427 0.7104043
vt 0.7415014 0.6843326
vt 0.7584986 0.6843326
vt 0.7584986 0.7104043
vt 0.7415014 0.7104043
vt 0.8104669 0.6580168
vt 0.8274642 0.6580168
vt 0.8274642 0.6840885
vt 0.8104669 0.6840885
vt 0.7932255 0.6580168
vt 0.8102227 0.6580168
vt 0.8102227 0.6840885
vt 0.7932255 0.6840885
vt 0.7759842 0.6580168
vt 0.7929814 0.6580168
vt 0.7929814 0.6840885
vt 0.7759842 0.6840885
vt 0.7587427 0.6580168
vt 0.77574 0.6580168
vt 0.77574 0.6840885
vt 0.7587427 0.6840885
vt 0.7415014 0.6580168
vt 0.7584986 0.6580168
vt 0.7584986 0.6840885
vt 0.7415014 0.6840885
vt 0.8104669 0.631701
vt 0.8274642 0.631701
vt 0.8274642 0.6577727
vt 0.8104669 0.6577727
vt 0.7932255 0.631701
vt 0.8102227 0.631701
vt 0.8102227 0.6577727
vt 0.7932255 0.6577727
vt 0.7759842 0.631701
vt 0.7929814 0.631701
vt 0.7929814 0.6577727
vt 0.7759842 0.6577727
vt 0.7587427 0.631701
vt 0.77574 0.631701
vt 0.77574 0.6577727
vt 0.7587427 0.6577727
vt 0.7415014 0.631701
vt 0.7584986 0.631701
vt 0.7584986 0.6577727
vt 0.7415014 0.6577727

# Normal
vn 0 0 -1

# Mesh description
g BoodEco-Park_mesh_0003

# Faces
f 1/1/1 2/2/1 3/3/1 4/4/1
f 5/5/1 6/6/1 7/7/1 8/8/1
f 9/9/1 10/10/1 11/11/1 12/12/1
f 13/13/1 14/14/1 15/15/1 16/16/1
f 17/17/1 18/18/1 19/19/1 20/20/1
f 21/21/1 22/22/1 23/23/1 24/24/1
f 25/25/1 26/26/1 27/27/1 28/28/1
f 29/29/1 30/30/1 31/31/1 32/32/1
f 33/33/1 34/34/1 35/35/1 36/36/1
f 37/37/1 38/38/1 39/39/1 40/40/1
f 41/41/1 42/42/1 43/43/1 44/44/1
f 45/45/1 46/46/1 47/47/1 48/48/1
f 49/49/1 50/50/1 51/51/1 52/52/1
f 53/53/1 54/54/1 55/55/1 56/56/1
f 57/57/1 58/58/1 59/59/1 60/60/1
f 61/61/1 62/62/1 63/63/1 64/64/1
f 65/65/1 66/66/1 67/67/1 68/68/1
f 69/69/1 70/70/1 71/71/1 72/72/1
f 73/73/1 74/74/1 75/75/1 76/76/1
f 77/77/1 78/78/1 79/79/1 80/80/1
f 81/81/1 82/82/1 83/83/1 84/84/1
f 85/85/1 86/86/1 87/87/1 88/88/1
f 89/89/1 90/90/1 91/91/1 92/92/1
f 93/93/1 94/94/1 95/95/1 96/96/1
f 97/97/1 98/98/1 99/99/1 100/100/1

