# Tiled2Unity generated file. Do not modify by hand.
# Wavefront file for 'BoodEco-Park_mesh_0007.obj'

# Vertices (Count = 12)
v -26 -21 0
v -27 -21 0
v -27 -20 0
v -26 -20 0
v -25 -21 0
v -26 -21 0
v -26 -20 0
v -25 -20 0
v -24 -21 0
v -25 -21 0
v -25 -20 0
v -24 -20 0

# Texture cooridinates (Count = 12)
vt 0.7932255 0.76328
vt 0.8102227 0.76328
vt 0.8102227 0.7893516
vt 0.7932255 0.7893516
vt 0.7759842 0.76328
vt 0.7929814 0.76328
vt 0.7929814 0.7893516
vt 0.7759842 0.7893516
vt 0.7587427 0.76328
vt 0.77574 0.76328
vt 0.77574 0.7893516
vt 0.7587427 0.7893516

# Normal
vn 0 0 -1

# Mesh description
g BoodEco-Park_mesh_0007

# Faces
f 1/1/1 2/2/1 3/3/1 4/4/1
f 5/5/1 6/6/1 7/7/1 8/8/1
f 9/9/1 10/10/1 11/11/1 12/12/1

