# Tiled2Unity generated file. Do not modify by hand.
# Wavefront file for 'BoodEco-Park_mesh_0004.obj'

# Vertices (Count = 780)
v -53 -8 0
v -54 -8 0
v -54 -7 0
v -53 -7 0
v -52 -8 0
v -53 -8 0
v -53 -7 0
v -52 -7 0
v -51 -8 0
v -52 -8 0
v -52 -7 0
v -51 -7 0
v -50 -8 0
v -51 -8 0
v -51 -7 0
v -50 -7 0
v -53 -13 0
v -54 -13 0
v -54 -12 0
v -53 -12 0
v -52 -13 0
v -53 -13 0
v -53 -12 0
v -52 -12 0
v -51 -13 0
v -52 -13 0
v -52 -12 0
v -51 -12 0
v -50 -13 0
v -51 -13 0
v -51 -12 0
v -50 -12 0
v -5 -16 0
v -6 -16 0
v -6 -15 0
v -5 -15 0
v -4 -16 0
v -5 -16 0
v -5 -15 0
v -4 -15 0
v -3 -16 0
v -4 -16 0
v -4 -15 0
v -3 -15 0
v -2 -16 0
v -3 -16 0
v -3 -15 0
v -2 -15 0
v -40 -18 0
v -41 -18 0
v -41 -17 0
v -40 -17 0
v -39 -18 0
v -40 -18 0
v -40 -17 0
v -39 -17 0
v -38 -18 0
v -39 -18 0
v -39 -17 0
v -38 -17 0
v -37 -18 0
v -38 -18 0
v -38 -17 0
v -37 -17 0
v -54 -19 0
v -55 -19 0
v -55 -18 0
v -54 -18 0
v -53 -19 0
v -54 -19 0
v -54 -18 0
v -53 -18 0
v -52 -19 0
v -53 -19 0
v -53 -18 0
v -52 -18 0
v -51 -19 0
v -52 -19 0
v -52 -18 0
v -51 -18 0
v -40 -22 0
v -41 -22 0
v -41 -21 0
v -40 -21 0
v -39 -22 0
v -40 -22 0
v -40 -21 0
v -39 -21 0
v -38 -22 0
v -39 -22 0
v -39 -21 0
v -38 -21 0
v -37 -22 0
v -38 -22 0
v -38 -21 0
v -37 -21 0
v -6 -23 0
v -7 -23 0
v -7 -22 0
v -6 -22 0
v -5 -23 0
v -6 -23 0
v -6 -22 0
v -5 -22 0
v -4 -23 0
v -5 -23 0
v -5 -22 0
v -4 -22 0
v -3 -23 0
v -4 -23 0
v -4 -22 0
v -3 -22 0
v -54 -25 0
v -55 -25 0
v -55 -24 0
v -54 -24 0
v -54 -26 0
v -55 -26 0
v -55 -25 0
v -54 -25 0
v -53 -26 0
v -54 -26 0
v -54 -25 0
v -53 -25 0
v -52 -26 0
v -53 -26 0
v -53 -25 0
v -52 -25 0
v -51 -26 0
v -52 -26 0
v -52 -25 0
v -51 -25 0
v -9 -27 0
v -10 -27 0
v -10 -26 0
v -9 -26 0
v -8 -27 0
v -9 -27 0
v -9 -26 0
v -8 -26 0
v -7 -27 0
v -8 -27 0
v -8 -26 0
v -7 -26 0
v -6 -27 0
v -7 -27 0
v -7 -26 0
v -6 -26 0
v -14 -28 0
v -15 -28 0
v -15 -27 0
v -14 -27 0
v -13 -28 0
v -14 -28 0
v -14 -27 0
v -13 -27 0
v -12 -28 0
v -13 -28 0
v -13 -27 0
v -12 -27 0
v -11 -28 0
v -12 -28 0
v -12 -27 0
v -11 -27 0
v -53 -29 0
v -54 -29 0
v -54 -28 0
v -53 -28 0
v -53 -30 0
v -54 -30 0
v -54 -29 0
v -53 -29 0
v -52 -30 0
v -53 -30 0
v -53 -29 0
v -52 -29 0
v -51 -30 0
v -52 -30 0
v -52 -29 0
v -51 -29 0
v -50 -30 0
v -51 -30 0
v -51 -29 0
v -50 -29 0
v -53 -32 0
v -54 -32 0
v -54 -31 0
v -53 -31 0
v -50 -32 0
v -51 -32 0
v -51 -31 0
v -50 -31 0
v -11 -32 0
v -12 -32 0
v -12 -31 0
v -11 -31 0
v -10 -32 0
v -11 -32 0
v -11 -31 0
v -10 -31 0
v -9 -32 0
v -10 -32 0
v -10 -31 0
v -9 -31 0
v -8 -32 0
v -9 -32 0
v -9 -31 0
v -8 -31 0
v -53 -33 0
v -54 -33 0
v -54 -32 0
v -53 -32 0
v -52 -33 0
v -53 -33 0
v -53 -32 0
v -52 -32 0
v -51 -33 0
v -52 -33 0
v -52 -32 0
v -51 -32 0
v -50 -33 0
v -51 -33 0
v -51 -32 0
v -50 -32 0
v -44 -33 0
v -45 -33 0
v -45 -32 0
v -44 -32 0
v -43 -33 0
v -44 -33 0
v -44 -32 0
v -43 -32 0
v -42 -33 0
v -43 -33 0
v -43 -32 0
v -42 -32 0
v -41 -33 0
v -42 -33 0
v -42 -32 0
v -41 -32 0
v -15 -35 0
v -16 -35 0
v -16 -34 0
v -15 -34 0
v -14 -35 0
v -15 -35 0
v -15 -34 0
v -14 -34 0
v -13 -35 0
v -14 -35 0
v -14 -34 0
v -13 -34 0
v -12 -35 0
v -13 -35 0
v -13 -34 0
v -12 -34 0
v -44 -37 0
v -45 -37 0
v -45 -36 0
v -44 -36 0
v -43 -37 0
v -44 -37 0
v -44 -36 0
v -43 -36 0
v -42 -37 0
v -43 -37 0
v -43 -36 0
v -42 -36 0
v -41 -37 0
v -42 -37 0
v -42 -36 0
v -41 -36 0
v -52 -38 0
v -53 -38 0
v -53 -37 0
v -52 -37 0
v -51 -38 0
v -52 -38 0
v -52 -37 0
v -51 -37 0
v -50 -38 0
v -51 -38 0
v -51 -37 0
v -50 -37 0
v -49 -38 0
v -50 -38 0
v -50 -37 0
v -49 -37 0
v -5 -38 0
v -6 -38 0
v -6 -37 0
v -5 -37 0
v -4 -38 0
v -5 -38 0
v -5 -37 0
v -4 -37 0
v -3 -38 0
v -4 -38 0
v -4 -37 0
v -3 -37 0
v -2 -38 0
v -3 -38 0
v -3 -37 0
v -2 -37 0
v -44 -41 0
v -45 -41 0
v -45 -40 0
v -44 -40 0
v -43 -41 0
v -44 -41 0
v -44 -40 0
v -43 -40 0
v -42 -41 0
v -43 -41 0
v -43 -40 0
v -42 -40 0
v -41 -41 0
v -42 -41 0
v -42 -40 0
v -41 -40 0
v -52 -42 0
v -53 -42 0
v -53 -41 0
v -52 -41 0
v -51 -42 0
v -52 -42 0
v -52 -41 0
v -51 -41 0
v -50 -42 0
v -51 -42 0
v -51 -41 0
v -50 -41 0
v -49 -42 0
v -50 -42 0
v -50 -41 0
v -49 -41 0
v -5 -43 0
v -6 -43 0
v -6 -42 0
v -5 -42 0
v -4 -43 0
v -5 -43 0
v -5 -42 0
v -4 -42 0
v -3 -43 0
v -4 -43 0
v -4 -42 0
v -3 -42 0
v -2 -43 0
v -3 -43 0
v -3 -42 0
v -2 -42 0
v -45 -45 0
v -46 -45 0
v -46 -44 0
v -45 -44 0
v -44 -45 0
v -45 -45 0
v -45 -44 0
v -44 -44 0
v -43 -45 0
v -44 -45 0
v -44 -44 0
v -43 -44 0
v -42 -45 0
v -43 -45 0
v -43 -44 0
v -42 -44 0
v -19 -45 0
v -20 -45 0
v -20 -44 0
v -19 -44 0
v -18 -45 0
v -19 -45 0
v -19 -44 0
v -18 -44 0
v -17 -45 0
v -18 -45 0
v -18 -44 0
v -17 -44 0
v -16 -45 0
v -17 -45 0
v -17 -44 0
v -16 -44 0
v -53 -46 0
v -54 -46 0
v -54 -45 0
v -53 -45 0
v -52 -46 0
v -53 -46 0
v -53 -45 0
v -52 -45 0
v -51 -46 0
v -52 -46 0
v -52 -45 0
v -51 -45 0
v -50 -46 0
v -51 -46 0
v -51 -45 0
v -50 -45 0
v -36 -46 0
v -37 -46 0
v -37 -45 0
v -36 -45 0
v -35 -46 0
v -36 -46 0
v -36 -45 0
v -35 -45 0
v -34 -46 0
v -35 -46 0
v -35 -45 0
v -34 -45 0
v -10 -46 0
v -11 -46 0
v -11 -45 0
v -10 -45 0
v -9 -46 0
v -10 -46 0
v -10 -45 0
v -9 -45 0
v -8 -46 0
v -9 -46 0
v -9 -45 0
v -8 -45 0
v -7 -46 0
v -8 -46 0
v -8 -45 0
v -7 -45 0
v -33 -47 0
v -34 -47 0
v -34 -46 0
v -33 -46 0
v -33 -48 0
v -34 -48 0
v -34 -47 0
v -33 -47 0
v -32 -48 0
v -33 -48 0
v -33 -47 0
v -32 -47 0
v -31 -48 0
v -32 -48 0
v -32 -47 0
v -31 -47 0
v -30 -48 0
v -31 -48 0
v -31 -47 0
v -30 -47 0
v -22 -48 0
v -23 -48 0
v -23 -47 0
v -22 -47 0
v -21 -48 0
v -22 -48 0
v -22 -47 0
v -21 -47 0
v -20 -48 0
v -21 -48 0
v -21 -47 0
v -20 -47 0
v -19 -48 0
v -20 -48 0
v -20 -47 0
v -19 -47 0
v -54 -49 0
v -55 -49 0
v -55 -48 0
v -54 -48 0
v -53 -49 0
v -54 -49 0
v -54 -48 0
v -53 -48 0
v -52 -49 0
v -53 -49 0
v -53 -48 0
v -52 -48 0
v -51 -49 0
v -52 -49 0
v -52 -48 0
v -51 -48 0
v -46 -49 0
v -47 -49 0
v -47 -48 0
v -46 -48 0
v -45 -49 0
v -46 -49 0
v -46 -48 0
v -45 -48 0
v -44 -49 0
v -45 -49 0
v -45 -48 0
v -44 -48 0
v -43 -49 0
v -44 -49 0
v -44 -48 0
v -43 -48 0
v -30 -49 0
v -31 -49 0
v -31 -48 0
v -30 -48 0
v -30 -50 0
v -31 -50 0
v -31 -49 0
v -30 -49 0
v -29 -50 0
v -30 -50 0
v -30 -49 0
v -29 -49 0
v -28 -50 0
v -29 -50 0
v -29 -49 0
v -28 -49 0
v -27 -50 0
v -28 -50 0
v -28 -49 0
v -27 -49 0
v -5 -51 0
v -6 -51 0
v -6 -50 0
v -5 -50 0
v -4 -51 0
v -5 -51 0
v -5 -50 0
v -4 -50 0
v -3 -51 0
v -4 -51 0
v -4 -50 0
v -3 -50 0
v -2 -51 0
v -3 -51 0
v -3 -50 0
v -2 -50 0
v -23 -52 0
v -24 -52 0
v -24 -51 0
v -23 -51 0
v -22 -52 0
v -23 -52 0
v -23 -51 0
v -22 -51 0
v -21 -52 0
v -22 -52 0
v -22 -51 0
v -21 -51 0
v -20 -52 0
v -21 -52 0
v -21 -51 0
v -20 -51 0
v -14 -52 0
v -15 -52 0
v -15 -51 0
v -14 -51 0
v -13 -52 0
v -14 -52 0
v -14 -51 0
v -13 -51 0
v -12 -52 0
v -13 -52 0
v -13 -51 0
v -12 -51 0
v -11 -52 0
v -12 -52 0
v -12 -51 0
v -11 -51 0
v -47 -53 0
v -48 -53 0
v -48 -52 0
v -47 -52 0
v -46 -53 0
v -47 -53 0
v -47 -52 0
v -46 -52 0
v -45 -53 0
v -46 -53 0
v -46 -52 0
v -45 -52 0
v -44 -53 0
v -45 -53 0
v -45 -52 0
v -44 -52 0
v -39 -53 0
v -40 -53 0
v -40 -52 0
v -39 -52 0
v -38 -53 0
v -39 -53 0
v -39 -52 0
v -38 -52 0
v -37 -53 0
v -38 -53 0
v -38 -52 0
v -37 -52 0
v -36 -53 0
v -37 -53 0
v -37 -52 0
v -36 -52 0
v -27 -53 0
v -28 -53 0
v -28 -52 0
v -27 -52 0
v -26 -53 0
v -27 -53 0
v -27 -52 0
v -26 -52 0
v -25 -53 0
v -26 -53 0
v -26 -52 0
v -25 -52 0
v -24 -53 0
v -25 -53 0
v -25 -52 0
v -24 -52 0
v -9 -54 0
v -10 -54 0
v -10 -53 0
v -9 -53 0
v -8 -54 0
v -9 -54 0
v -9 -53 0
v -8 -53 0
v -7 -54 0
v -8 -54 0
v -8 -53 0
v -7 -53 0
v -6 -54 0
v -7 -54 0
v -7 -53 0
v -6 -53 0
v -35 -56 0
v -36 -56 0
v -36 -55 0
v -35 -55 0
v -34 -56 0
v -35 -56 0
v -35 -55 0
v -34 -55 0
v -33 -56 0
v -34 -56 0
v -34 -55 0
v -33 -55 0
v -32 -56 0
v -33 -56 0
v -33 -55 0
v -32 -55 0
v -24 -56 0
v -25 -56 0
v -25 -55 0
v -24 -55 0
v -52 -57 0
v -53 -57 0
v -53 -56 0
v -52 -56 0
v -46 -57 0
v -47 -57 0
v -47 -56 0
v -46 -56 0
v -45 -57 0
v -46 -57 0
v -46 -56 0
v -45 -56 0
v -44 -57 0
v -45 -57 0
v -45 -56 0
v -44 -56 0
v -43 -57 0
v -44 -57 0
v -44 -56 0
v -43 -56 0
v -24 -57 0
v -25 -57 0
v -25 -56 0
v -24 -56 0
v -23 -57 0
v -24 -57 0
v -24 -56 0
v -23 -56 0
v -22 -57 0
v -23 -57 0
v -23 -56 0
v -22 -56 0
v -21 -57 0
v -22 -57 0
v -22 -56 0
v -21 -56 0
v -32 -59 0
v -33 -59 0
v -33 -58 0
v -32 -58 0
v -31 -59 0
v -32 -59 0
v -32 -58 0
v -31 -58 0
v -30 -59 0
v -31 -59 0
v -31 -58 0
v -30 -58 0
v -29 -59 0
v -30 -59 0
v -30 -58 0
v -29 -58 0
v -54 -60 0
v -55 -60 0
v -55 -59 0
v -54 -59 0
v -53 -60 0
v -54 -60 0
v -54 -59 0
v -53 -59 0
v -52 -60 0
v -53 -60 0
v -53 -59 0
v -52 -59 0
v -51 -60 0
v -52 -60 0
v -52 -59 0
v -51 -59 0
v -45 -60 0
v -46 -60 0
v -46 -59 0
v -45 -59 0
v -44 -60 0
v -45 -60 0
v -45 -59 0
v -44 -59 0
v -43 -60 0
v -44 -60 0
v -44 -59 0
v -43 -59 0
v -42 -60 0
v -43 -60 0
v -43 -59 0
v -42 -59 0
v -30 -62 0
v -31 -62 0
v -31 -61 0
v -30 -61 0
v -29 -62 0
v -30 -62 0
v -30 -61 0
v -29 -61 0
v -28 -62 0
v -29 -62 0
v -29 -61 0
v -28 -61 0
v -27 -62 0
v -28 -62 0
v -28 -61 0
v -27 -61 0
v -53 -63 0
v -54 -63 0
v -54 -62 0
v -53 -62 0
v -52 -63 0
v -53 -63 0
v -53 -62 0
v -52 -62 0
v -51 -63 0
v -52 -63 0
v -52 -62 0
v -51 -62 0
v -50 -63 0
v -51 -63 0
v -51 -62 0
v -50 -62 0
v -44 -63 0
v -45 -63 0
v -45 -62 0
v -44 -62 0
v -43 -63 0
v -44 -63 0
v -44 -62 0
v -43 -62 0
v -42 -63 0
v -43 -63 0
v -43 -62 0
v -42 -62 0
v -41 -63 0
v -42 -63 0
v -42 -62 0
v -41 -62 0

# Texture cooridinates (Count = 76)
vt 0.9572092 0.4445665
vt 0.9777713 0.4445665
vt 0.9777713 0.4721001
vt 0.9572092 0.4721001
vt 0.936403 0.4445665
vt 0.956965 0.4445665
vt 0.956965 0.4721001
vt 0.936403 0.4721001
vt 0.9155967 0.4445665
vt 0.9361588 0.4445665
vt 0.9361588 0.4721001
vt 0.9155967 0.4721001
vt 0.8947905 0.4445665
vt 0.9153526 0.4445665
vt 0.9153526 0.4721001
vt 0.8947905 0.4721001
vt 0.0625408 0.0001220703
vt 0.0831029 0.0001220703
vt 0.0831029 0.02765572
vt 0.0625408 0.02765572
vt 0.04173455 0.0001220703
vt 0.06229666 0.0001220703
vt 0.06229666 0.02765572
vt 0.04173455 0.02765572
vt 0.02092831 0.0001220703
vt 0.04149041 0.0001220703
vt 0.04149041 0.02765572
vt 0.02092831 0.02765572
vt 0.0001220703 0.0001220703
vt 0.02068417 0.0001220703
vt 0.02068417 0.02765572
vt 0.0001220703 0.02765572
vt 0.9572092 0.4723443
vt 0.9777713 0.4723443
vt 0.9777713 0.4998779
vt 0.9572092 0.4998779
vt 0.8947905 0.4723443
vt 0.9153526 0.4723443
vt 0.9153526 0.4998779
vt 0.8947905 0.4998779
vt 0.853178 0.4445665
vt 0.8737401 0.4445665
vt 0.8737401 0.4721001
vt 0.853178 0.4721001
vt 0.8323718 0.4445665
vt 0.8529338 0.4445665
vt 0.8529338 0.4721001
vt 0.8323718 0.4721001
vt 0.8115655 0.4445665
vt 0.8321276 0.4445665
vt 0.8321276 0.4721001
vt 0.8115655 0.4721001
vt 0.7907593 0.4445665
vt 0.8113214 0.4445665
vt 0.8113214 0.4721001
vt 0.7907593 0.4721001
vt 0.3538282 0.08345538
vt 0.3743903 0.08345538
vt 0.3743903 0.110989
vt 0.3538282 0.110989
vt 0.3330219 0.08345538
vt 0.3535841 0.08345538
vt 0.3535841 0.110989
vt 0.3330219 0.110989
vt 0.3122157 0.08345538
vt 0.3327778 0.08345538
vt 0.3327778 0.110989
vt 0.3122157 0.110989
vt 0.2914095 0.08345538
vt 0.3119715 0.08345538
vt 0.3119715 0.110989
vt 0.2914095 0.110989
vt 0.3538282 0.1112332
vt 0.3743903 0.1112332
vt 0.3743903 0.1387668
vt 0.3538282 0.1387668

# Normal
vn 0 0 -1

# Mesh description
g BoodEco-Park_mesh_0004

# Faces
f 1/1/1 2/2/1 3/3/1 4/4/1
f 5/5/1 6/6/1 7/7/1 8/8/1
f 9/9/1 10/10/1 11/11/1 12/12/1
f 13/13/1 14/14/1 15/15/1 16/16/1
f 17/1/1 18/2/1 19/3/1 20/4/1
f 21/5/1 22/6/1 23/7/1 24/8/1
f 25/9/1 26/10/1 27/11/1 28/12/1
f 29/13/1 30/14/1 31/15/1 32/16/1
f 33/17/1 34/18/1 35/19/1 36/20/1
f 37/21/1 38/22/1 39/23/1 40/24/1
f 41/25/1 42/26/1 43/27/1 44/28/1
f 45/29/1 46/30/1 47/31/1 48/32/1
f 49/17/1 50/18/1 51/19/1 52/20/1
f 53/21/1 54/22/1 55/23/1 56/24/1
f 57/25/1 58/26/1 59/27/1 60/28/1
f 61/29/1 62/30/1 63/31/1 64/32/1
f 65/1/1 66/2/1 67/3/1 68/4/1
f 69/5/1 70/6/1 71/7/1 72/8/1
f 73/9/1 74/10/1 75/11/1 76/12/1
f 77/13/1 78/14/1 79/15/1 80/16/1
f 81/17/1 82/18/1 83/19/1 84/20/1
f 85/21/1 86/22/1 87/23/1 88/24/1
f 89/25/1 90/26/1 91/27/1 92/28/1
f 93/29/1 94/30/1 95/31/1 96/32/1
f 97/17/1 98/18/1 99/19/1 100/20/1
f 101/21/1 102/22/1 103/23/1 104/24/1
f 105/25/1 106/26/1 107/27/1 108/28/1
f 109/29/1 110/30/1 111/31/1 112/32/1
f 113/33/1 114/34/1 115/35/1 116/36/1
f 117/1/1 118/2/1 119/3/1 120/4/1
f 121/5/1 122/6/1 123/7/1 124/8/1
f 125/9/1 126/10/1 127/11/1 128/12/1
f 129/13/1 130/14/1 131/15/1 132/16/1
f 133/17/1 134/18/1 135/19/1 136/20/1
f 137/21/1 138/22/1 139/23/1 140/24/1
f 141/25/1 142/26/1 143/27/1 144/28/1
f 145/29/1 146/30/1 147/31/1 148/32/1
f 149/17/1 150/18/1 151/19/1 152/20/1
f 153/21/1 154/22/1 155/23/1 156/24/1
f 157/25/1 158/26/1 159/27/1 160/28/1
f 161/29/1 162/30/1 163/31/1 164/32/1
f 165/33/1 166/34/1 167/35/1 168/36/1
f 169/1/1 170/2/1 171/3/1 172/4/1
f 173/5/1 174/6/1 175/7/1 176/8/1
f 177/9/1 178/10/1 179/11/1 180/12/1
f 181/13/1 182/14/1 183/15/1 184/16/1
f 185/33/1 186/34/1 187/35/1 188/36/1
f 189/37/1 190/38/1 191/39/1 192/40/1
f 193/17/1 194/18/1 195/19/1 196/20/1
f 197/21/1 198/22/1 199/23/1 200/24/1
f 201/25/1 202/26/1 203/27/1 204/28/1
f 205/29/1 206/30/1 207/31/1 208/32/1
f 209/1/1 210/2/1 211/3/1 212/4/1
f 213/5/1 214/6/1 215/7/1 216/8/1
f 217/9/1 218/10/1 219/11/1 220/12/1
f 221/13/1 222/14/1 223/15/1 224/16/1
f 225/41/1 226/42/1 227/43/1 228/44/1
f 229/45/1 230/46/1 231/47/1 232/48/1
f 233/49/1 234/50/1 235/51/1 236/52/1
f 237/53/1 238/54/1 239/55/1 240/56/1
f 241/17/1 242/18/1 243/19/1 244/20/1
f 245/21/1 246/22/1 247/23/1 248/24/1
f 249/25/1 250/26/1 251/27/1 252/28/1
f 253/29/1 254/30/1 255/31/1 256/32/1
f 257/41/1 258/42/1 259/43/1 260/44/1
f 261/45/1 262/46/1 263/47/1 264/48/1
f 265/49/1 266/50/1 267/51/1 268/52/1
f 269/53/1 270/54/1 271/55/1 272/56/1
f 273/41/1 274/42/1 275/43/1 276/44/1
f 277/45/1 278/46/1 279/47/1 280/48/1
f 281/49/1 282/50/1 283/51/1 284/52/1
f 285/53/1 286/54/1 287/55/1 288/56/1
f 289/17/1 290/18/1 291/19/1 292/20/1
f 293/21/1 294/22/1 295/23/1 296/24/1
f 297/25/1 298/26/1 299/27/1 300/28/1
f 301/29/1 302/30/1 303/31/1 304/32/1
f 305/41/1 306/42/1 307/43/1 308/44/1
f 309/45/1 310/46/1 311/47/1 312/48/1
f 313/49/1 314/50/1 315/51/1 316/52/1
f 317/53/1 318/54/1 319/55/1 320/56/1
f 321/41/1 322/42/1 323/43/1 324/44/1
f 325/45/1 326/46/1 327/47/1 328/48/1
f 329/49/1 330/50/1 331/51/1 332/52/1
f 333/53/1 334/54/1 335/55/1 336/56/1
f 337/17/1 338/18/1 339/19/1 340/20/1
f 341/21/1 342/22/1 343/23/1 344/24/1
f 345/25/1 346/26/1 347/27/1 348/28/1
f 349/29/1 350/30/1 351/31/1 352/32/1
f 353/41/1 354/42/1 355/43/1 356/44/1
f 357/45/1 358/46/1 359/47/1 360/48/1
f 361/49/1 362/50/1 363/51/1 364/52/1
f 365/53/1 366/54/1 367/55/1 368/56/1
f 369/57/1 370/58/1 371/59/1 372/60/1
f 373/61/1 374/62/1 375/63/1 376/64/1
f 377/65/1 378/66/1 379/67/1 380/68/1
f 381/69/1 382/70/1 383/71/1 384/72/1
f 385/41/1 386/42/1 387/43/1 388/44/1
f 389/45/1 390/46/1 391/47/1 392/48/1
f 393/49/1 394/50/1 395/51/1 396/52/1
f 397/53/1 398/54/1 399/55/1 400/56/1
f 401/57/1 402/58/1 403/59/1 404/60/1
f 405/61/1 406/62/1 407/63/1 408/64/1
f 409/65/1 410/66/1 411/67/1 412/68/1
f 413/17/1 414/18/1 415/19/1 416/20/1
f 417/21/1 418/22/1 419/23/1 420/24/1
f 421/25/1 422/26/1 423/27/1 424/28/1
f 425/29/1 426/30/1 427/31/1 428/32/1
f 429/73/1 430/74/1 431/75/1 432/76/1
f 433/57/1 434/58/1 435/59/1 436/60/1
f 437/61/1 438/62/1 439/63/1 440/64/1
f 441/65/1 442/66/1 443/67/1 444/68/1
f 445/69/1 446/70/1 447/71/1 448/72/1
f 449/57/1 450/58/1 451/59/1 452/60/1
f 453/61/1 454/62/1 455/63/1 456/64/1
f 457/65/1 458/66/1 459/67/1 460/68/1
f 461/69/1 462/70/1 463/71/1 464/72/1
f 465/41/1 466/42/1 467/43/1 468/44/1
f 469/45/1 470/46/1 471/47/1 472/48/1
f 473/49/1 474/50/1 475/51/1 476/52/1
f 477/53/1 478/54/1 479/55/1 480/56/1
f 481/41/1 482/42/1 483/43/1 484/44/1
f 485/45/1 486/46/1 487/47/1 488/48/1
f 489/49/1 490/50/1 491/51/1 492/52/1
f 493/53/1 494/54/1 495/55/1 496/56/1
f 497/73/1 498/74/1 499/75/1 500/76/1
f 501/57/1 502/58/1 503/59/1 504/60/1
f 505/61/1 506/62/1 507/63/1 508/64/1
f 509/65/1 510/66/1 511/67/1 512/68/1
f 513/69/1 514/70/1 515/71/1 516/72/1
f 517/17/1 518/18/1 519/19/1 520/20/1
f 521/21/1 522/22/1 523/23/1 524/24/1
f 525/25/1 526/26/1 527/27/1 528/28/1
f 529/29/1 530/30/1 531/31/1 532/32/1
f 533/57/1 534/58/1 535/59/1 536/60/1
f 537/61/1 538/62/1 539/63/1 540/64/1
f 541/65/1 542/66/1 543/67/1 544/68/1
f 545/69/1 546/70/1 547/71/1 548/72/1
f 549/17/1 550/18/1 551/19/1 552/20/1
f 553/21/1 554/22/1 555/23/1 556/24/1
f 557/25/1 558/26/1 559/27/1 560/28/1
f 561/29/1 562/30/1 563/31/1 564/32/1
f 565/41/1 566/42/1 567/43/1 568/44/1
f 569/45/1 570/46/1 571/47/1 572/48/1
f 573/49/1 574/50/1 575/51/1 576/52/1
f 577/53/1 578/54/1 579/55/1 580/56/1
f 581/41/1 582/42/1 583/43/1 584/44/1
f 585/45/1 586/46/1 587/47/1 588/48/1
f 589/49/1 590/50/1 591/51/1 592/52/1
f 593/53/1 594/54/1 595/55/1 596/56/1
f 597/57/1 598/58/1 599/59/1 600/60/1
f 601/61/1 602/62/1 603/63/1 604/64/1
f 605/65/1 606/66/1 607/67/1 608/68/1
f 609/69/1 610/70/1 611/71/1 612/72/1
f 613/17/1 614/18/1 615/19/1 616/20/1
f 617/21/1 618/22/1 619/23/1 620/24/1
f 621/25/1 622/26/1 623/27/1 624/28/1
f 625/29/1 626/30/1 627/31/1 628/32/1
f 629/41/1 630/42/1 631/43/1 632/44/1
f 633/45/1 634/46/1 635/47/1 636/48/1
f 637/49/1 638/50/1 639/51/1 640/52/1
f 641/53/1 642/54/1 643/55/1 644/56/1
f 645/73/1 646/74/1 647/75/1 648/76/1
f 649/53/1 650/54/1 651/55/1 652/56/1
f 653/41/1 654/42/1 655/43/1 656/44/1
f 657/45/1 658/46/1 659/47/1 660/48/1
f 661/49/1 662/50/1 663/51/1 664/52/1
f 665/53/1 666/54/1 667/55/1 668/56/1
f 669/57/1 670/58/1 671/59/1 672/60/1
f 673/61/1 674/62/1 675/63/1 676/64/1
f 677/65/1 678/66/1 679/67/1 680/68/1
f 681/69/1 682/70/1 683/71/1 684/72/1
f 685/41/1 686/42/1 687/43/1 688/44/1
f 689/45/1 690/46/1 691/47/1 692/48/1
f 693/49/1 694/50/1 695/51/1 696/52/1
f 697/53/1 698/54/1 699/55/1 700/56/1
f 701/41/1 702/42/1 703/43/1 704/44/1
f 705/45/1 706/46/1 707/47/1 708/48/1
f 709/49/1 710/50/1 711/51/1 712/52/1
f 713/53/1 714/54/1 715/55/1 716/56/1
f 717/41/1 718/42/1 719/43/1 720/44/1
f 721/45/1 722/46/1 723/47/1 724/48/1
f 725/49/1 726/50/1 727/51/1 728/52/1
f 729/53/1 730/54/1 731/55/1 732/56/1
f 733/41/1 734/42/1 735/43/1 736/44/1
f 737/45/1 738/46/1 739/47/1 740/48/1
f 741/49/1 742/50/1 743/51/1 744/52/1
f 745/53/1 746/54/1 747/55/1 748/56/1
f 749/41/1 750/42/1 751/43/1 752/44/1
f 753/45/1 754/46/1 755/47/1 756/48/1
f 757/49/1 758/50/1 759/51/1 760/52/1
f 761/53/1 762/54/1 763/55/1 764/56/1
f 765/41/1 766/42/1 767/43/1 768/44/1
f 769/45/1 770/46/1 771/47/1 772/48/1
f 773/49/1 774/50/1 775/51/1 776/52/1
f 777/53/1 778/54/1 779/55/1 780/56/1

