# Tiled2Unity generated file. Do not modify by hand.
# Wavefront file for 'UpperSaHumabon_mesh_0003.obj'

# Vertices (Count = 352)
v -13 -5 0
v -14 -5 0
v -14 -4 0
v -13 -4 0
v -15 -6 0
v -16 -6 0
v -16 -5 0
v -15 -5 0
v -13 -6 0
v -14 -6 0
v -14 -5 0
v -13 -5 0
v -8 -6 0
v -9 -6 0
v -9 -5 0
v -8 -5 0
v -7 -6 0
v -8 -6 0
v -8 -5 0
v -7 -5 0
v -13 -7 0
v -14 -7 0
v -14 -6 0
v -13 -6 0
v -8 -7 0
v -9 -7 0
v -9 -6 0
v -8 -6 0
v -7 -7 0
v -8 -7 0
v -8 -6 0
v -7 -6 0
v -16 -10 0
v -17 -10 0
v -17 -9 0
v -16 -9 0
v -16 -11 0
v -17 -11 0
v -17 -10 0
v -16 -10 0
v -14 -11 0
v -15 -11 0
v -15 -10 0
v -14 -10 0
v -4 -11 0
v -5 -11 0
v -5 -10 0
v -4 -10 0
v -3 -11 0
v -4 -11 0
v -4 -10 0
v -3 -10 0
v -16 -12 0
v -17 -12 0
v -17 -11 0
v -16 -11 0
v -14 -12 0
v -15 -12 0
v -15 -11 0
v -14 -11 0
v -13 -12 0
v -14 -12 0
v -14 -11 0
v -13 -11 0
v -12 -12 0
v -13 -12 0
v -13 -11 0
v -12 -11 0
v -4 -12 0
v -5 -12 0
v -5 -11 0
v -4 -11 0
v -3 -12 0
v -4 -12 0
v -4 -11 0
v -3 -11 0
v -16 -13 0
v -17 -13 0
v -17 -12 0
v -16 -12 0
v -15 -13 0
v -16 -13 0
v -16 -12 0
v -15 -12 0
v -13 -13 0
v -14 -13 0
v -14 -12 0
v -13 -12 0
v -12 -13 0
v -13 -13 0
v -13 -12 0
v -12 -12 0
v -7 -13 0
v -8 -13 0
v -8 -12 0
v -7 -12 0
v -6 -13 0
v -7 -13 0
v -7 -12 0
v -6 -12 0
v -12 -14 0
v -13 -14 0
v -13 -13 0
v -12 -13 0
v -11 -14 0
v -12 -14 0
v -12 -13 0
v -11 -13 0
v -7 -14 0
v -8 -14 0
v -8 -13 0
v -7 -13 0
v -6 -14 0
v -7 -14 0
v -7 -13 0
v -6 -13 0
v -12 -15 0
v -13 -15 0
v -13 -14 0
v -12 -14 0
v -11 -15 0
v -12 -15 0
v -12 -14 0
v -11 -14 0
v -7 -17 0
v -8 -17 0
v -8 -16 0
v -7 -16 0
v -6 -17 0
v -7 -17 0
v -7 -16 0
v -6 -16 0
v -7 -18 0
v -8 -18 0
v -8 -17 0
v -7 -17 0
v -6 -18 0
v -7 -18 0
v -7 -17 0
v -6 -17 0
v -16 -21 0
v -17 -21 0
v -17 -20 0
v -16 -20 0
v -15 -21 0
v -16 -21 0
v -16 -20 0
v -15 -20 0
v -16 -22 0
v -17 -22 0
v -17 -21 0
v -16 -21 0
v -15 -22 0
v -16 -22 0
v -16 -21 0
v -15 -21 0
v -16 -23 0
v -17 -23 0
v -17 -22 0
v -16 -22 0
v -15 -23 0
v -16 -23 0
v -16 -22 0
v -15 -22 0
v -3 -23 0
v -4 -23 0
v -4 -22 0
v -3 -22 0
v -2 -23 0
v -3 -23 0
v -3 -22 0
v -2 -22 0
v -16 -24 0
v -17 -24 0
v -17 -23 0
v -16 -23 0
v -15 -24 0
v -16 -24 0
v -16 -23 0
v -15 -23 0
v -3 -24 0
v -4 -24 0
v -4 -23 0
v -3 -23 0
v -2 -24 0
v -3 -24 0
v -3 -23 0
v -2 -23 0
v -15 -25 0
v -16 -25 0
v -16 -24 0
v -15 -24 0
v -5 -25 0
v -6 -25 0
v -6 -24 0
v -5 -24 0
v -16 -26 0
v -17 -26 0
v -17 -25 0
v -16 -25 0
v -7 -26 0
v -8 -26 0
v -8 -25 0
v -7 -25 0
v -6 -26 0
v -7 -26 0
v -7 -25 0
v -6 -25 0
v -5 -26 0
v -6 -26 0
v -6 -25 0
v -5 -25 0
v -4 -26 0
v -5 -26 0
v -5 -25 0
v -4 -25 0
v -7 -27 0
v -8 -27 0
v -8 -26 0
v -7 -26 0
v -6 -27 0
v -7 -27 0
v -7 -26 0
v -6 -26 0
v -4 -27 0
v -5 -27 0
v -5 -26 0
v -4 -26 0
v -13 -28 0
v -14 -28 0
v -14 -27 0
v -13 -27 0
v -12 -29 0
v -13 -29 0
v -13 -28 0
v -12 -28 0
v -11 -29 0
v -12 -29 0
v -12 -28 0
v -11 -28 0
v -15 -30 0
v -16 -30 0
v -16 -29 0
v -15 -29 0
v -14 -30 0
v -15 -30 0
v -15 -29 0
v -14 -29 0
v -11 -30 0
v -12 -30 0
v -12 -29 0
v -11 -29 0
v -10 -30 0
v -11 -30 0
v -11 -29 0
v -10 -29 0
v -15 -31 0
v -16 -31 0
v -16 -30 0
v -15 -30 0
v -14 -31 0
v -15 -31 0
v -15 -30 0
v -14 -30 0
v -10 -31 0
v -11 -31 0
v -11 -30 0
v -10 -30 0
v -8 -31 0
v -9 -31 0
v -9 -30 0
v -8 -30 0
v -12 -32 0
v -13 -32 0
v -13 -31 0
v -12 -31 0
v -11 -32 0
v -12 -32 0
v -12 -31 0
v -11 -31 0
v -8 -32 0
v -9 -32 0
v -9 -31 0
v -8 -31 0
v -7 -32 0
v -8 -32 0
v -8 -31 0
v -7 -31 0
v -7 -33 0
v -8 -33 0
v -8 -32 0
v -7 -32 0
v -16 -38 0
v -17 -38 0
v -17 -37 0
v -16 -37 0
v -15 -38 0
v -16 -38 0
v -16 -37 0
v -15 -37 0
v -16 -39 0
v -17 -39 0
v -17 -38 0
v -16 -38 0
v -15 -39 0
v -16 -39 0
v -16 -38 0
v -15 -38 0
v -16 -45 0
v -17 -45 0
v -17 -44 0
v -16 -44 0
v -15 -45 0
v -16 -45 0
v -16 -44 0
v -15 -44 0
v -16 -46 0
v -17 -46 0
v -17 -45 0
v -16 -45 0
v -8 -46 0
v -9 -46 0
v -9 -45 0
v -8 -45 0
v -7 -46 0
v -8 -46 0
v -8 -45 0
v -7 -45 0
v -8 -47 0
v -9 -47 0
v -9 -46 0
v -8 -46 0
v -7 -47 0
v -8 -47 0
v -8 -46 0
v -7 -46 0
v -6 -48 0
v -7 -48 0
v -7 -47 0
v -6 -47 0
v -5 -48 0
v -6 -48 0
v -6 -47 0
v -5 -47 0
v -6 -49 0
v -7 -49 0
v -7 -48 0
v -6 -48 0
v -5 -49 0
v -6 -49 0
v -6 -48 0
v -5 -48 0

# Texture cooridinates (Count = 28)
vt 0.04173455 0.5834554
vt 0.06229666 0.5834554
vt 0.06229666 0.610989
vt 0.04173455 0.610989
vt 0.1249595 0.5278999
vt 0.1455216 0.5278999
vt 0.1455216 0.5554335
vt 0.1249595 0.5554335
vt 0.1041533 0.5278999
vt 0.1247154 0.5278999
vt 0.1247154 0.5554335
vt 0.1041533 0.5554335
vt 0.1249595 0.5001221
vt 0.1455216 0.5001221
vt 0.1455216 0.5276557
vt 0.1249595 0.5276557
vt 0.1041533 0.5001221
vt 0.1247154 0.5001221
vt 0.1247154 0.5276557
vt 0.1041533 0.5276557
vt 0.0001220703 0.5834554
vt 0.02068417 0.5834554
vt 0.02068417 0.610989
vt 0.0001220703 0.610989
vt 0.0001220703 0.5556777
vt 0.02068417 0.5556777
vt 0.02068417 0.5832113
vt 0.0001220703 0.5832113

# Normal
vn 0 0 -1

# Mesh description
g UpperSaHumabon_mesh_0003

# Faces
f 1/1/1 2/2/1 3/3/1 4/4/1
f 5/1/1 6/2/1 7/3/1 8/4/1
f 9/1/1 10/2/1 11/3/1 12/4/1
f 13/5/1 14/6/1 15/7/1 16/8/1
f 17/9/1 18/10/1 19/11/1 20/12/1
f 21/1/1 22/2/1 23/3/1 24/4/1
f 25/13/1 26/14/1 27/15/1 28/16/1
f 29/17/1 30/18/1 31/19/1 32/20/1
f 33/1/1 34/2/1 35/3/1 36/4/1
f 37/1/1 38/2/1 39/3/1 40/4/1
f 41/1/1 42/2/1 43/3/1 44/4/1
f 45/5/1 46/6/1 47/7/1 48/8/1
f 49/9/1 50/10/1 51/11/1 52/12/1
f 53/1/1 54/2/1 55/3/1 56/4/1
f 57/1/1 58/2/1 59/3/1 60/4/1
f 61/5/1 62/6/1 63/7/1 64/8/1
f 65/9/1 66/10/1 67/11/1 68/12/1
f 69/13/1 70/14/1 71/15/1 72/16/1
f 73/17/1 74/18/1 75/19/1 76/20/1
f 77/1/1 78/2/1 79/3/1 80/4/1
f 81/1/1 82/2/1 83/3/1 84/4/1
f 85/13/1 86/14/1 87/15/1 88/16/1
f 89/17/1 90/18/1 91/19/1 92/20/1
f 93/5/1 94/6/1 95/7/1 96/8/1
f 97/9/1 98/10/1 99/11/1 100/12/1
f 101/5/1 102/6/1 103/7/1 104/8/1
f 105/9/1 106/10/1 107/11/1 108/12/1
f 109/13/1 110/14/1 111/15/1 112/16/1
f 113/17/1 114/18/1 115/19/1 116/20/1
f 117/13/1 118/14/1 119/15/1 120/16/1
f 121/17/1 122/18/1 123/19/1 124/20/1
f 125/5/1 126/6/1 127/7/1 128/8/1
f 129/9/1 130/10/1 131/11/1 132/12/1
f 133/13/1 134/14/1 135/15/1 136/16/1
f 137/17/1 138/18/1 139/19/1 140/20/1
f 141/5/1 142/6/1 143/7/1 144/8/1
f 145/9/1 146/10/1 147/11/1 148/12/1
f 149/13/1 150/14/1 151/15/1 152/16/1
f 153/17/1 154/18/1 155/19/1 156/20/1
f 157/1/1 158/2/1 159/3/1 160/4/1
f 161/1/1 162/2/1 163/3/1 164/4/1
f 165/5/1 166/6/1 167/7/1 168/8/1
f 169/9/1 170/10/1 171/11/1 172/12/1
f 173/1/1 174/2/1 175/3/1 176/4/1
f 177/1/1 178/2/1 179/3/1 180/4/1
f 181/13/1 182/14/1 183/15/1 184/16/1
f 185/17/1 186/18/1 187/19/1 188/20/1
f 189/1/1 190/2/1 191/3/1 192/4/1
f 193/21/1 194/22/1 195/23/1 196/24/1
f 197/1/1 198/2/1 199/3/1 200/4/1
f 201/5/1 202/6/1 203/7/1 204/8/1
f 205/9/1 206/10/1 207/11/1 208/12/1
f 209/25/1 210/26/1 211/27/1 212/28/1
f 213/21/1 214/22/1 215/23/1 216/24/1
f 217/13/1 218/14/1 219/15/1 220/16/1
f 221/17/1 222/18/1 223/19/1 224/20/1
f 225/25/1 226/26/1 227/27/1 228/28/1
f 229/1/1 230/2/1 231/3/1 232/4/1
f 233/1/1 234/2/1 235/3/1 236/4/1
f 237/1/1 238/2/1 239/3/1 240/4/1
f 241/5/1 242/6/1 243/7/1 244/8/1
f 245/9/1 246/10/1 247/11/1 248/12/1
f 249/1/1 250/2/1 251/3/1 252/4/1
f 253/1/1 254/2/1 255/3/1 256/4/1
f 257/13/1 258/14/1 259/15/1 260/16/1
f 261/17/1 262/18/1 263/19/1 264/20/1
f 265/1/1 266/2/1 267/3/1 268/4/1
f 269/21/1 270/22/1 271/23/1 272/24/1
f 273/1/1 274/2/1 275/3/1 276/4/1
f 277/1/1 278/2/1 279/3/1 280/4/1
f 281/25/1 282/26/1 283/27/1 284/28/1
f 285/21/1 286/22/1 287/23/1 288/24/1
f 289/25/1 290/26/1 291/27/1 292/28/1
f 293/1/1 294/2/1 295/3/1 296/4/1
f 297/1/1 298/2/1 299/3/1 300/4/1
f 301/1/1 302/2/1 303/3/1 304/4/1
f 305/1/1 306/2/1 307/3/1 308/4/1
f 309/1/1 310/2/1 311/3/1 312/4/1
f 313/1/1 314/2/1 315/3/1 316/4/1
f 317/1/1 318/2/1 319/3/1 320/4/1
f 321/5/1 322/6/1 323/7/1 324/8/1
f 325/9/1 326/10/1 327/11/1 328/12/1
f 329/13/1 330/14/1 331/15/1 332/16/1
f 333/17/1 334/18/1 335/19/1 336/20/1
f 337/5/1 338/6/1 339/7/1 340/8/1
f 341/9/1 342/10/1 343/11/1 344/12/1
f 345/13/1 346/14/1 347/15/1 348/16/1
f 349/17/1 350/18/1 351/19/1 352/20/1

