# Tiled2Unity generated file. Do not modify by hand.
# Wavefront file for 'DoulMasao_mesh_0004.obj'

# Vertices (Count = 272)
v -32 -2 0
v -33 -2 0
v -33 -1 0
v -32 -1 0
v -31 -2 0
v -32 -2 0
v -32 -1 0
v -31 -1 0
v -18 -2 0
v -19 -2 0
v -19 -1 0
v -18 -1 0
v -17 -2 0
v -18 -2 0
v -18 -1 0
v -17 -1 0
v -7 -2 0
v -8 -2 0
v -8 -1 0
v -7 -1 0
v -6 -2 0
v -7 -2 0
v -7 -1 0
v -6 -1 0
v -38 -3 0
v -39 -3 0
v -39 -2 0
v -38 -2 0
v -37 -3 0
v -38 -3 0
v -38 -2 0
v -37 -2 0
v -13 -3 0
v -14 -3 0
v -14 -2 0
v -13 -2 0
v -12 -3 0
v -13 -3 0
v -13 -2 0
v -12 -2 0
v -3 -3 0
v -4 -3 0
v -4 -2 0
v -3 -2 0
v -2 -3 0
v -3 -3 0
v -3 -2 0
v -2 -2 0
v -35 -5 0
v -36 -5 0
v -36 -4 0
v -35 -4 0
v -34 -5 0
v -35 -5 0
v -35 -4 0
v -34 -4 0
v -38 -8 0
v -39 -8 0
v -39 -7 0
v -38 -7 0
v -37 -8 0
v -38 -8 0
v -38 -7 0
v -37 -7 0
v -10 -10 0
v -11 -10 0
v -11 -9 0
v -10 -9 0
v -9 -10 0
v -10 -10 0
v -10 -9 0
v -9 -9 0
v -13 -12 0
v -14 -12 0
v -14 -11 0
v -13 -11 0
v -12 -12 0
v -13 -12 0
v -13 -11 0
v -12 -11 0
v -7 -13 0
v -8 -13 0
v -8 -12 0
v -7 -12 0
v -6 -13 0
v -7 -13 0
v -7 -12 0
v -6 -12 0
v -11 -15 0
v -12 -15 0
v -12 -14 0
v -11 -14 0
v -10 -15 0
v -11 -15 0
v -11 -14 0
v -10 -14 0
v -5 -16 0
v -6 -16 0
v -6 -15 0
v -5 -15 0
v -4 -16 0
v -5 -16 0
v -5 -15 0
v -4 -15 0
v -23 -32 0
v -24 -32 0
v -24 -31 0
v -23 -31 0
v -22 -32 0
v -23 -32 0
v -23 -31 0
v -22 -31 0
v -19 -33 0
v -20 -33 0
v -20 -32 0
v -19 -32 0
v -18 -33 0
v -19 -33 0
v -19 -32 0
v -18 -32 0
v -3 -36 0
v -4 -36 0
v -4 -35 0
v -3 -35 0
v -2 -36 0
v -3 -36 0
v -3 -35 0
v -2 -35 0
v -37 -37 0
v -38 -37 0
v -38 -36 0
v -37 -36 0
v -36 -37 0
v -37 -37 0
v -37 -36 0
v -36 -36 0
v -5 -38 0
v -6 -38 0
v -6 -37 0
v -5 -37 0
v -4 -38 0
v -5 -38 0
v -5 -37 0
v -4 -37 0
v -36 -42 0
v -37 -42 0
v -37 -41 0
v -36 -41 0
v -35 -42 0
v -36 -42 0
v -36 -41 0
v -35 -41 0
v -4 -42 0
v -5 -42 0
v -5 -41 0
v -4 -41 0
v -3 -42 0
v -4 -42 0
v -4 -41 0
v -3 -41 0
v -32 -43 0
v -33 -43 0
v -33 -42 0
v -32 -42 0
v -31 -43 0
v -32 -43 0
v -32 -42 0
v -31 -42 0
v -8 -44 0
v -9 -44 0
v -9 -43 0
v -8 -43 0
v -7 -44 0
v -8 -44 0
v -8 -43 0
v -7 -43 0
v -3 -44 0
v -4 -44 0
v -4 -43 0
v -3 -43 0
v -2 -44 0
v -3 -44 0
v -3 -43 0
v -2 -43 0
v -29 -45 0
v -30 -45 0
v -30 -44 0
v -29 -44 0
v -28 -45 0
v -29 -45 0
v -29 -44 0
v -28 -44 0
v -12 -45 0
v -13 -45 0
v -13 -44 0
v -12 -44 0
v -11 -45 0
v -12 -45 0
v -12 -44 0
v -11 -44 0
v -7 -46 0
v -8 -46 0
v -8 -45 0
v -7 -45 0
v -6 -46 0
v -7 -46 0
v -7 -45 0
v -6 -45 0
v -37 -47 0
v -38 -47 0
v -38 -46 0
v -37 -46 0
v -36 -47 0
v -37 -47 0
v -37 -46 0
v -36 -46 0
v -17 -48 0
v -18 -48 0
v -18 -47 0
v -17 -47 0
v -16 -48 0
v -17 -48 0
v -17 -47 0
v -16 -47 0
v -35 -49 0
v -36 -49 0
v -36 -48 0
v -35 -48 0
v -34 -49 0
v -35 -49 0
v -35 -48 0
v -34 -48 0
v -31 -49 0
v -32 -49 0
v -32 -48 0
v -31 -48 0
v -30 -49 0
v -31 -49 0
v -31 -48 0
v -30 -48 0
v -20 -49 0
v -21 -49 0
v -21 -48 0
v -20 -48 0
v -19 -49 0
v -20 -49 0
v -20 -48 0
v -19 -48 0
v -13 -49 0
v -14 -49 0
v -14 -48 0
v -13 -48 0
v -12 -49 0
v -13 -49 0
v -13 -48 0
v -12 -48 0
v -10 -49 0
v -11 -49 0
v -11 -48 0
v -10 -48 0
v -9 -49 0
v -10 -49 0
v -10 -48 0
v -9 -48 0
v -4 -49 0
v -5 -49 0
v -5 -48 0
v -4 -48 0
v -3 -49 0
v -4 -49 0
v -4 -48 0
v -3 -48 0

# Texture cooridinates (Count = 24)
vt 0.04173455 0.0001220703
vt 0.06229666 0.0001220703
vt 0.06229666 0.02765572
vt 0.04173455 0.02765572
vt 0.02092831 0.0001220703
vt 0.04149041 0.0001220703
vt 0.04149041 0.02765572
vt 0.02092831 0.02765572
vt 0.3330219 0.08345538
vt 0.3535841 0.08345538
vt 0.3535841 0.110989
vt 0.3330219 0.110989
vt 0.3122157 0.08345538
vt 0.3327778 0.08345538
vt 0.3327778 0.110989
vt 0.3122157 0.110989
vt 0.1249595 0.5001221
vt 0.1455216 0.5001221
vt 0.1455216 0.5276557
vt 0.1249595 0.5276557
vt 0.1041533 0.5001221
vt 0.1247154 0.5001221
vt 0.1247154 0.5276557
vt 0.1041533 0.5276557

# Normal
vn 0 0 -1

# Mesh description
g DoulMasao_mesh_0004

# Faces
f 1/1/1 2/2/1 3/3/1 4/4/1
f 5/5/1 6/6/1 7/7/1 8/8/1
f 9/1/1 10/2/1 11/3/1 12/4/1
f 13/5/1 14/6/1 15/7/1 16/8/1
f 17/1/1 18/2/1 19/3/1 20/4/1
f 21/5/1 22/6/1 23/7/1 24/8/1
f 25/1/1 26/2/1 27/3/1 28/4/1
f 29/5/1 30/6/1 31/7/1 32/8/1
f 33/1/1 34/2/1 35/3/1 36/4/1
f 37/5/1 38/6/1 39/7/1 40/8/1
f 41/1/1 42/2/1 43/3/1 44/4/1
f 45/5/1 46/6/1 47/7/1 48/8/1
f 49/1/1 50/2/1 51/3/1 52/4/1
f 53/5/1 54/6/1 55/7/1 56/8/1
f 57/1/1 58/2/1 59/3/1 60/4/1
f 61/5/1 62/6/1 63/7/1 64/8/1
f 65/9/1 66/10/1 67/11/1 68/12/1
f 69/13/1 70/14/1 71/15/1 72/16/1
f 73/9/1 74/10/1 75/11/1 76/12/1
f 77/13/1 78/14/1 79/15/1 80/16/1
f 81/9/1 82/10/1 83/11/1 84/12/1
f 85/13/1 86/14/1 87/15/1 88/16/1
f 89/9/1 90/10/1 91/11/1 92/12/1
f 93/13/1 94/14/1 95/15/1 96/16/1
f 97/9/1 98/10/1 99/11/1 100/12/1
f 101/13/1 102/14/1 103/15/1 104/16/1
f 105/17/1 106/18/1 107/19/1 108/20/1
f 109/21/1 110/22/1 111/23/1 112/24/1
f 113/17/1 114/18/1 115/19/1 116/20/1
f 117/21/1 118/22/1 119/23/1 120/24/1
f 121/9/1 122/10/1 123/11/1 124/12/1
f 125/13/1 126/14/1 127/15/1 128/16/1
f 129/9/1 130/10/1 131/11/1 132/12/1
f 133/13/1 134/14/1 135/15/1 136/16/1
f 137/17/1 138/18/1 139/19/1 140/20/1
f 141/21/1 142/22/1 143/23/1 144/24/1
f 145/1/1 146/2/1 147/3/1 148/4/1
f 149/5/1 150/6/1 151/7/1 152/8/1
f 153/1/1 154/2/1 155/3/1 156/4/1
f 157/5/1 158/6/1 159/7/1 160/8/1
f 161/9/1 162/10/1 163/11/1 164/12/1
f 165/13/1 166/14/1 167/15/1 168/16/1
f 169/9/1 170/10/1 171/11/1 172/12/1
f 173/13/1 174/14/1 175/15/1 176/16/1
f 177/17/1 178/18/1 179/19/1 180/20/1
f 181/21/1 182/22/1 183/23/1 184/24/1
f 185/17/1 186/18/1 187/19/1 188/20/1
f 189/21/1 190/22/1 191/23/1 192/24/1
f 193/9/1 194/10/1 195/11/1 196/12/1
f 197/13/1 198/14/1 199/15/1 200/16/1
f 201/17/1 202/18/1 203/19/1 204/20/1
f 205/21/1 206/22/1 207/23/1 208/24/1
f 209/1/1 210/2/1 211/3/1 212/4/1
f 213/5/1 214/6/1 215/7/1 216/8/1
f 217/1/1 218/2/1 219/3/1 220/4/1
f 221/5/1 222/6/1 223/7/1 224/8/1
f 225/17/1 226/18/1 227/19/1 228/20/1
f 229/21/1 230/22/1 231/23/1 232/24/1
f 233/1/1 234/2/1 235/3/1 236/4/1
f 237/5/1 238/6/1 239/7/1 240/8/1
f 241/17/1 242/18/1 243/19/1 244/20/1
f 245/21/1 246/22/1 247/23/1 248/24/1
f 249/17/1 250/18/1 251/19/1 252/20/1
f 253/21/1 254/22/1 255/23/1 256/24/1
f 257/1/1 258/2/1 259/3/1 260/4/1
f 261/5/1 262/6/1 263/7/1 264/8/1
f 265/1/1 266/2/1 267/3/1 268/4/1
f 269/5/1 270/6/1 271/7/1 272/8/1

