# Tiled2Unity generated file. Do not modify by hand.
# Wavefront file for 'DoulMasao_mesh_0002.obj'

# Vertices (Count = 144)
v -27 -4 0
v -28 -4 0
v -28 -3 0
v -27 -3 0
v -26 -4 0
v -27 -4 0
v -27 -3 0
v -26 -3 0
v -25 -4 0
v -26 -4 0
v -26 -3 0
v -25 -3 0
v -24 -4 0
v -25 -4 0
v -25 -3 0
v -24 -3 0
v -27 -5 0
v -28 -5 0
v -28 -4 0
v -27 -4 0
v -26 -5 0
v -27 -5 0
v -27 -4 0
v -26 -4 0
v -25 -5 0
v -26 -5 0
v -26 -4 0
v -25 -4 0
v -24 -5 0
v -25 -5 0
v -25 -4 0
v -24 -4 0
v -27 -6 0
v -28 -6 0
v -28 -5 0
v -27 -5 0
v -26 -6 0
v -27 -6 0
v -27 -5 0
v -26 -5 0
v -25 -6 0
v -26 -6 0
v -26 -5 0
v -25 -5 0
v -24 -6 0
v -25 -6 0
v -25 -5 0
v -24 -5 0
v -27 -7 0
v -28 -7 0
v -28 -6 0
v -27 -6 0
v -26 -7 0
v -27 -7 0
v -27 -6 0
v -26 -6 0
v -25 -7 0
v -26 -7 0
v -26 -6 0
v -25 -6 0
v -24 -7 0
v -25 -7 0
v -25 -6 0
v -24 -6 0
v -27 -8 0
v -28 -8 0
v -28 -7 0
v -27 -7 0
v -26 -8 0
v -27 -8 0
v -27 -7 0
v -26 -7 0
v -25 -8 0
v -26 -8 0
v -26 -7 0
v -25 -7 0
v -24 -8 0
v -25 -8 0
v -25 -7 0
v -24 -7 0
v -27 -9 0
v -28 -9 0
v -28 -8 0
v -27 -8 0
v -26 -9 0
v -27 -9 0
v -27 -8 0
v -26 -8 0
v -25 -9 0
v -26 -9 0
v -26 -8 0
v -25 -8 0
v -24 -9 0
v -25 -9 0
v -25 -8 0
v -24 -8 0
v -27 -10 0
v -28 -10 0
v -28 -9 0
v -27 -9 0
v -26 -10 0
v -27 -10 0
v -27 -9 0
v -26 -9 0
v -25 -10 0
v -26 -10 0
v -26 -9 0
v -25 -9 0
v -24 -10 0
v -25 -10 0
v -25 -9 0
v -24 -9 0
v -27 -11 0
v -28 -11 0
v -28 -10 0
v -27 -10 0
v -26 -11 0
v -27 -11 0
v -27 -10 0
v -26 -10 0
v -25 -11 0
v -26 -11 0
v -26 -10 0
v -25 -10 0
v -24 -11 0
v -25 -11 0
v -25 -10 0
v -24 -10 0
v -27 -12 0
v -28 -12 0
v -28 -11 0
v -27 -11 0
v -26 -12 0
v -27 -12 0
v -27 -11 0
v -26 -11 0
v -25 -12 0
v -26 -12 0
v -26 -11 0
v -25 -11 0
v -24 -12 0
v -25 -12 0
v -25 -11 0
v -24 -11 0

# Texture cooridinates (Count = 48)
vt 0.7283405 0.05543351
vt 0.7283405 0.02789986
vt 0.7489026 0.02789986
vt 0.7489026 0.05543351
vt 0.7283405 0.08321124
vt 0.7283405 0.05567765
vt 0.7489026 0.05567765
vt 0.7489026 0.08321124
vt 0.7283405 0.110989
vt 0.7283405 0.08345538
vt 0.7489026 0.08345538
vt 0.7489026 0.110989
vt 0.7283405 0.1387668
vt 0.7283405 0.1112332
vt 0.7489026 0.1112332
vt 0.7489026 0.1387668
vt 0.7280964 0.1112332
vt 0.7280964 0.1387668
vt 0.7075343 0.1387668
vt 0.7075343 0.1112332
vt 0.7280964 0.08345538
vt 0.7280964 0.110989
vt 0.7075343 0.110989
vt 0.7075343 0.08345538
vt 0.7280964 0.05567765
vt 0.7280964 0.08321124
vt 0.7075343 0.08321124
vt 0.7075343 0.05567765
vt 0.7280964 0.02789986
vt 0.7280964 0.05543351
vt 0.7075343 0.05543351
vt 0.7075343 0.02789986
vt 0.6867281 0.05543351
vt 0.6867281 0.02789986
vt 0.7072902 0.02789986
vt 0.7072902 0.05543351
vt 0.6867281 0.08321124
vt 0.6867281 0.05567765
vt 0.7072902 0.05567765
vt 0.7072902 0.08321124
vt 0.6867281 0.110989
vt 0.6867281 0.08345538
vt 0.7072902 0.08345538
vt 0.7072902 0.110989
vt 0.6867281 0.1387668
vt 0.6867281 0.1112332
vt 0.7072902 0.1112332
vt 0.7072902 0.1387668

# Normal
vn 0 0 -1

# Mesh description
g DoulMasao_mesh_0002

# Faces
f 1/1/1 2/2/1 3/3/1 4/4/1
f 5/5/1 6/6/1 7/7/1 8/8/1
f 9/9/1 10/10/1 11/11/1 12/12/1
f 13/13/1 14/14/1 15/15/1 16/16/1
f 17/17/1 18/18/1 19/19/1 20/20/1
f 21/21/1 22/22/1 23/23/1 24/24/1
f 25/25/1 26/26/1 27/27/1 28/28/1
f 29/29/1 30/30/1 31/31/1 32/32/1
f 33/17/1 34/18/1 35/19/1 36/20/1
f 37/21/1 38/22/1 39/23/1 40/24/1
f 41/25/1 42/26/1 43/27/1 44/28/1
f 45/29/1 46/30/1 47/31/1 48/32/1
f 49/17/1 50/18/1 51/19/1 52/20/1
f 53/21/1 54/22/1 55/23/1 56/24/1
f 57/25/1 58/26/1 59/27/1 60/28/1
f 61/29/1 62/30/1 63/31/1 64/32/1
f 65/17/1 66/18/1 67/19/1 68/20/1
f 69/21/1 70/22/1 71/23/1 72/24/1
f 73/25/1 74/26/1 75/27/1 76/28/1
f 77/29/1 78/30/1 79/31/1 80/32/1
f 81/17/1 82/18/1 83/19/1 84/20/1
f 85/21/1 86/22/1 87/23/1 88/24/1
f 89/25/1 90/26/1 91/27/1 92/28/1
f 93/29/1 94/30/1 95/31/1 96/32/1
f 97/17/1 98/18/1 99/19/1 100/20/1
f 101/21/1 102/22/1 103/23/1 104/24/1
f 105/25/1 106/26/1 107/27/1 108/28/1
f 109/29/1 110/30/1 111/31/1 112/32/1
f 113/17/1 114/18/1 115/19/1 116/20/1
f 117/21/1 118/22/1 119/23/1 120/24/1
f 121/25/1 122/26/1 123/27/1 124/28/1
f 125/29/1 126/30/1 127/31/1 128/32/1
f 129/33/1 130/34/1 131/35/1 132/36/1
f 133/37/1 134/38/1 135/39/1 136/40/1
f 137/41/1 138/42/1 139/43/1 140/44/1
f 141/45/1 142/46/1 143/47/1 144/48/1

