# Tiled2Unity generated file. Do not modify by hand.
# Wavefront file for 'BanzaChurchRuins_mesh_0004.obj'

# Vertices (Count = 704)
v -2 -1 0
v -3 -1 0
v -3 0 0
v -2 0 0
v -3 -1 0
v -4 -1 0
v -4 0 0
v -3 0 0
v -4 -1 0
v -5 -1 0
v -5 0 0
v -4 0 0
v -5 -1 0
v -6 -1 0
v -6 0 0
v -5 0 0
v -6 -1 0
v -7 -1 0
v -7 0 0
v -6 0 0
v -7 -1 0
v -8 -1 0
v -8 0 0
v -7 0 0
v -8 -1 0
v -9 -1 0
v -9 0 0
v -8 0 0
v -9 -1 0
v -10 -1 0
v -10 0 0
v -9 0 0
v -10 -1 0
v -11 -1 0
v -11 0 0
v -10 0 0
v -11 -1 0
v -12 -1 0
v -12 0 0
v -11 0 0
v -12 -1 0
v -13 -1 0
v -13 0 0
v -12 0 0
v -13 -1 0
v -14 -1 0
v -14 0 0
v -13 0 0
v -14 -1 0
v -15 -1 0
v -15 0 0
v -14 0 0
v -15 -1 0
v -16 -1 0
v -16 0 0
v -15 0 0
v -16 -1 0
v -17 -1 0
v -17 0 0
v -16 0 0
v -17 -1 0
v -18 -1 0
v -18 0 0
v -17 0 0
v -18 -1 0
v -19 -1 0
v -19 0 0
v -18 0 0
v -19 -1 0
v -20 -1 0
v -20 0 0
v -19 0 0
v -20 -1 0
v -21 -1 0
v -21 0 0
v -20 0 0
v -21 -1 0
v -22 -1 0
v -22 0 0
v -21 0 0
v -22 -1 0
v -23 -1 0
v -23 0 0
v -22 0 0
v -23 -1 0
v -24 -1 0
v -24 0 0
v -23 0 0
v -24 -1 0
v -25 -1 0
v -25 0 0
v -24 0 0
v -25 -1 0
v -26 -1 0
v -26 0 0
v -25 0 0
v -26 -1 0
v -27 -1 0
v -27 0 0
v -26 0 0
v -27 -1 0
v -28 -1 0
v -28 0 0
v -27 0 0
v -28 -1 0
v -29 -1 0
v -29 0 0
v -28 0 0
v -29 -1 0
v -30 -1 0
v -30 0 0
v -29 0 0
v -2 -2 0
v -3 -2 0
v -3 -1 0
v -2 -1 0
v -6 -2 0
v -7 -2 0
v -7 -1 0
v -6 -1 0
v -14 -2 0
v -15 -2 0
v -15 -1 0
v -14 -1 0
v -15 -2 0
v -16 -2 0
v -16 -1 0
v -15 -1 0
v -23 -2 0
v -24 -2 0
v -24 -1 0
v -23 -1 0
v -24 -2 0
v -25 -2 0
v -25 -1 0
v -24 -1 0
v -29 -2 0
v -30 -2 0
v -30 -1 0
v -29 -1 0
v -2 -3 0
v -3 -3 0
v -3 -2 0
v -2 -2 0
v -25 -3 0
v -26 -3 0
v -26 -2 0
v -25 -2 0
v -26 -3 0
v -27 -3 0
v -27 -2 0
v -26 -2 0
v -27 -3 0
v -28 -3 0
v -28 -2 0
v -27 -2 0
v -28 -3 0
v -29 -3 0
v -29 -2 0
v -28 -2 0
v -29 -3 0
v -30 -3 0
v -30 -2 0
v -29 -2 0
v -2 -4 0
v -3 -4 0
v -3 -3 0
v -2 -3 0
v -25 -4 0
v -26 -4 0
v -26 -3 0
v -25 -3 0
v -26 -4 0
v -27 -4 0
v -27 -3 0
v -26 -3 0
v -27 -4 0
v -28 -4 0
v -28 -3 0
v -27 -3 0
v -28 -4 0
v -29 -4 0
v -29 -3 0
v -28 -3 0
v -29 -4 0
v -30 -4 0
v -30 -3 0
v -29 -3 0
v -2 -5 0
v -3 -5 0
v -3 -4 0
v -2 -4 0
v -4 -5 0
v -5 -5 0
v -5 -4 0
v -4 -4 0
v -5 -5 0
v -6 -5 0
v -6 -4 0
v -5 -4 0
v -6 -5 0
v -7 -5 0
v -7 -4 0
v -6 -4 0
v -7 -5 0
v -8 -5 0
v -8 -4 0
v -7 -4 0
v -25 -5 0
v -26 -5 0
v -26 -4 0
v -25 -4 0
v -26 -5 0
v -27 -5 0
v -27 -4 0
v -26 -4 0
v -27 -5 0
v -28 -5 0
v -28 -4 0
v -27 -4 0
v -28 -5 0
v -29 -5 0
v -29 -4 0
v -28 -4 0
v -29 -5 0
v -30 -5 0
v -30 -4 0
v -29 -4 0
v -2 -6 0
v -3 -6 0
v -3 -5 0
v -2 -5 0
v -4 -6 0
v -5 -6 0
v -5 -5 0
v -4 -5 0
v -5 -6 0
v -6 -6 0
v -6 -5 0
v -5 -5 0
v -6 -6 0
v -7 -6 0
v -7 -5 0
v -6 -5 0
v -7 -6 0
v -8 -6 0
v -8 -5 0
v -7 -5 0
v -21 -6 0
v -22 -6 0
v -22 -5 0
v -21 -5 0
v -25 -6 0
v -26 -6 0
v -26 -5 0
v -25 -5 0
v -26 -6 0
v -27 -6 0
v -27 -5 0
v -26 -5 0
v -29 -6 0
v -30 -6 0
v -30 -5 0
v -29 -5 0
v -2 -7 0
v -3 -7 0
v -3 -6 0
v -2 -6 0
v -4 -7 0
v -5 -7 0
v -5 -6 0
v -4 -6 0
v -5 -7 0
v -6 -7 0
v -6 -6 0
v -5 -6 0
v -6 -7 0
v -7 -7 0
v -7 -6 0
v -6 -6 0
v -7 -7 0
v -8 -7 0
v -8 -6 0
v -7 -6 0
v -29 -7 0
v -30 -7 0
v -30 -6 0
v -29 -6 0
v -1 -8 0
v -2 -8 0
v -2 -7 0
v -1 -7 0
v -2 -8 0
v -3 -8 0
v -3 -7 0
v -2 -7 0
v -29 -8 0
v -30 -8 0
v -30 -7 0
v -29 -7 0
v -1 -9 0
v -2 -9 0
v -2 -8 0
v -1 -8 0
v -29 -9 0
v -30 -9 0
v -30 -8 0
v -29 -8 0
v -1 -10 0
v -2 -10 0
v -2 -9 0
v -1 -9 0
v -29 -10 0
v -30 -10 0
v -30 -9 0
v -29 -9 0
v -1 -11 0
v -2 -11 0
v -2 -10 0
v -1 -10 0
v -27 -11 0
v -28 -11 0
v -28 -10 0
v -27 -10 0
v -28 -11 0
v -29 -11 0
v -29 -10 0
v -28 -10 0
v -29 -11 0
v -30 -11 0
v -30 -10 0
v -29 -10 0
v -1 -12 0
v -2 -12 0
v -2 -11 0
v -1 -11 0
v -2 -12 0
v -3 -12 0
v -3 -11 0
v -2 -11 0
v -29 -12 0
v -30 -12 0
v -30 -11 0
v -29 -11 0
v -2 -13 0
v -3 -13 0
v -3 -12 0
v -2 -12 0
v -29 -13 0
v -30 -13 0
v -30 -12 0
v -29 -12 0
v -2 -14 0
v -3 -14 0
v -3 -13 0
v -2 -13 0
v -29 -14 0
v -30 -14 0
v -30 -13 0
v -29 -13 0
v -2 -15 0
v -3 -15 0
v -3 -14 0
v -2 -14 0
v -27 -15 0
v -28 -15 0
v -28 -14 0
v -27 -14 0
v -28 -15 0
v -29 -15 0
v -29 -14 0
v -28 -14 0
v -29 -15 0
v -30 -15 0
v -30 -14 0
v -29 -14 0
v -2 -16 0
v -3 -16 0
v -3 -15 0
v -2 -15 0
v -29 -16 0
v -30 -16 0
v -30 -15 0
v -29 -15 0
v -2 -17 0
v -3 -17 0
v -3 -16 0
v -2 -16 0
v -29 -17 0
v -30 -17 0
v -30 -16 0
v -29 -16 0
v -2 -18 0
v -3 -18 0
v -3 -17 0
v -2 -17 0
v -22 -18 0
v -23 -18 0
v -23 -17 0
v -22 -17 0
v -29 -18 0
v -30 -18 0
v -30 -17 0
v -29 -17 0
v -2 -19 0
v -3 -19 0
v -3 -18 0
v -2 -18 0
v -29 -19 0
v -30 -19 0
v -30 -18 0
v -29 -18 0
v -2 -20 0
v -3 -20 0
v -3 -19 0
v -2 -19 0
v -29 -20 0
v -30 -20 0
v -30 -19 0
v -29 -19 0
v -2 -21 0
v -3 -21 0
v -3 -20 0
v -2 -20 0
v -3 -21 0
v -4 -21 0
v -4 -20 0
v -3 -20 0
v -29 -21 0
v -30 -21 0
v -30 -20 0
v -29 -20 0
v -1 -22 0
v -2 -22 0
v -2 -21 0
v -1 -21 0
v -2 -22 0
v -3 -22 0
v -3 -21 0
v -2 -21 0
v -3 -22 0
v -4 -22 0
v -4 -21 0
v -3 -21 0
v -4 -22 0
v -5 -22 0
v -5 -21 0
v -4 -21 0
v -5 -22 0
v -6 -22 0
v -6 -21 0
v -5 -21 0
v -29 -22 0
v -30 -22 0
v -30 -21 0
v -29 -21 0
v -1 -23 0
v -2 -23 0
v -2 -22 0
v -1 -22 0
v -2 -23 0
v -3 -23 0
v -3 -22 0
v -2 -22 0
v -3 -23 0
v -4 -23 0
v -4 -22 0
v -3 -22 0
v -4 -23 0
v -5 -23 0
v -5 -22 0
v -4 -22 0
v -5 -23 0
v -6 -23 0
v -6 -22 0
v -5 -22 0
v -28 -23 0
v -29 -23 0
v -29 -22 0
v -28 -22 0
v -29 -23 0
v -30 -23 0
v -30 -22 0
v -29 -22 0
v -1 -24 0
v -2 -24 0
v -2 -23 0
v -1 -23 0
v -2 -24 0
v -3 -24 0
v -3 -23 0
v -2 -23 0
v -3 -24 0
v -4 -24 0
v -4 -23 0
v -3 -23 0
v -29 -24 0
v -30 -24 0
v -30 -23 0
v -29 -23 0
v -1 -25 0
v -2 -25 0
v -2 -24 0
v -1 -24 0
v -12 -25 0
v -13 -25 0
v -13 -24 0
v -12 -24 0
v -29 -25 0
v -30 -25 0
v -30 -24 0
v -29 -24 0
v -1 -26 0
v -2 -26 0
v -2 -25 0
v -1 -25 0
v -26 -26 0
v -27 -26 0
v -27 -25 0
v -26 -25 0
v -27 -26 0
v -28 -26 0
v -28 -25 0
v -27 -25 0
v -28 -26 0
v -29 -26 0
v -29 -25 0
v -28 -25 0
v -29 -26 0
v -30 -26 0
v -30 -25 0
v -29 -25 0
v -1 -27 0
v -2 -27 0
v -2 -26 0
v -1 -26 0
v -26 -27 0
v -27 -27 0
v -27 -26 0
v -26 -26 0
v -27 -27 0
v -28 -27 0
v -28 -26 0
v -27 -26 0
v -28 -27 0
v -29 -27 0
v -29 -26 0
v -28 -26 0
v -29 -27 0
v -30 -27 0
v -30 -26 0
v -29 -26 0
v -1 -28 0
v -2 -28 0
v -2 -27 0
v -1 -27 0
v -8 -28 0
v -9 -28 0
v -9 -27 0
v -8 -27 0
v -9 -28 0
v -10 -28 0
v -10 -27 0
v -9 -27 0
v -26 -28 0
v -27 -28 0
v -27 -27 0
v -26 -27 0
v -27 -28 0
v -28 -28 0
v -28 -27 0
v -27 -27 0
v -28 -28 0
v -29 -28 0
v -29 -27 0
v -28 -27 0
v -29 -28 0
v -30 -28 0
v -30 -27 0
v -29 -27 0
v -1 -29 0
v -2 -29 0
v -2 -28 0
v -1 -28 0
v -27 -29 0
v -28 -29 0
v -28 -28 0
v -27 -28 0
v -29 -29 0
v -30 -29 0
v -30 -28 0
v -29 -28 0
v -1 -30 0
v -2 -30 0
v -2 -29 0
v -1 -29 0
v -2 -30 0
v -3 -30 0
v -3 -29 0
v -2 -29 0
v -3 -30 0
v -4 -30 0
v -4 -29 0
v -3 -29 0
v -4 -30 0
v -5 -30 0
v -5 -29 0
v -4 -29 0
v -5 -30 0
v -6 -30 0
v -6 -29 0
v -5 -29 0
v -6 -30 0
v -7 -30 0
v -7 -29 0
v -6 -29 0
v -7 -30 0
v -8 -30 0
v -8 -29 0
v -7 -29 0
v -8 -30 0
v -9 -30 0
v -9 -29 0
v -8 -29 0
v -9 -30 0
v -10 -30 0
v -10 -29 0
v -9 -29 0
v -10 -30 0
v -11 -30 0
v -11 -29 0
v -10 -29 0
v -11 -30 0
v -12 -30 0
v -12 -29 0
v -11 -29 0
v -12 -30 0
v -13 -30 0
v -13 -29 0
v -12 -29 0
v -13 -30 0
v -14 -30 0
v -14 -29 0
v -13 -29 0
v -14 -30 0
v -15 -30 0
v -15 -29 0
v -14 -29 0
v -15 -30 0
v -16 -30 0
v -16 -29 0
v -15 -29 0
v -17 -30 0
v -18 -30 0
v -18 -29 0
v -17 -29 0
v -18 -30 0
v -19 -30 0
v -19 -29 0
v -18 -29 0
v -19 -30 0
v -20 -30 0
v -20 -29 0
v -19 -29 0
v -20 -30 0
v -21 -30 0
v -21 -29 0
v -20 -29 0
v -21 -30 0
v -22 -30 0
v -22 -29 0
v -21 -29 0
v -22 -30 0
v -23 -30 0
v -23 -29 0
v -22 -29 0
v -23 -30 0
v -24 -30 0
v -24 -29 0
v -23 -29 0
v -24 -30 0
v -25 -30 0
v -25 -29 0
v -24 -29 0
v -25 -30 0
v -26 -30 0
v -26 -29 0
v -25 -29 0
v -26 -30 0
v -27 -30 0
v -27 -29 0
v -26 -29 0
v -27 -30 0
v -28 -30 0
v -28 -29 0
v -27 -29 0
v -28 -30 0
v -29 -30 0
v -29 -29 0
v -28 -29 0
v -29 -30 0
v -30 -30 0
v -30 -29 0
v -29 -29 0

# Texture cooridinates (Count = 75)
vt 0.04161248 0.5833334
vt 0.06241873 0.5833334
vt 0.06241873 0.6111111
vt 0.04161248 0.6111111
vt 0.1456437 0.9722222
vt 0.1664499 0.9722222
vt 0.1664499 1
vt 0.1456437 1
vt 0.1040312 0.5277778
vt 0.1248375 0.5277778
vt 0.1248375 0.5555556
vt 0.1040312 0.5555556
vt 0.1456437 0.5277778
vt 0.1456437 0.5555556
vt 0.2912874 0.1666667
vt 0.3120936 0.1666667
vt 0.3120936 0.1944444
vt 0.2912874 0.1944444
vt 0.3328999 0.1666667
vt 0.3328999 0.1944444
vt 0.3537061 0.1666667
vt 0.3537061 0.1944444
vt 0.3745123 0.1666667
vt 0.3745123 0.1944444
vt 0.2912874 0.1388889
vt 0.3120936 0.1388889
vt 0.3328999 0.1388889
vt 0.3537061 0.1388889
vt 0.3745123 0.1388889
vt 0.7906372 0.5277778
vt 0.8114434 0.5277778
vt 0.8114434 0.5555556
vt 0.7906372 0.5555556
vt 0.8322497 0.5277778
vt 0.8322497 0.5555556
vt 0.8530559 0.5277778
vt 0.8530559 0.5555556
vt 0.8738621 0.5277778
vt 0.8738621 0.5555556
vt 0.2912874 0.1111111
vt 0.3120936 0.1111111
vt 0.3328999 0.1111111
vt 0.3537061 0.1111111
vt 0.3745123 0.1111111
vt 0.7906372 0.5
vt 0.8114434 0.5
vt 0.8322497 0.5
vt 0.8530559 0.5
vt 0.8738621 0.5
vt 0.2912874 0.08333331
vt 0.3120936 0.08333331
vt 0.3328999 0.08333331
vt 0.7906372 0.4722222
vt 0.8114434 0.4722222
vt 0.8322497 0.4722222
vt 0.8530559 0.4722222
vt 0.8738621 0.4722222
vt 0.08322497 0.08333331
vt 0.1040312 0.08333331
vt 0.1040312 0.1111111
vt 0.08322497 0.1111111
vt 0.1248375 0.08333331
vt 0.1248375 0.1111111
vt 0.1456437 0.08333331
vt 0.1456437 0.1111111
vt 0.08322497 0.05555558
vt 0.1040312 0.05555558
vt 0.1248375 0.05555558
vt 0.1456437 0.05555558
vt 0.08322497 0.02777779
vt 0.1040312 0.02777779
vt 0.1248375 0.02777779
vt 0.1456437 0.02777779
vt 0.1040312 0
vt 0.1248375 0

# Normal
vn 0 0 -1

# Mesh description
g BanzaChurchRuins_mesh_0004

# Faces
f 1/1/1 2/2/1 3/3/1 4/4/1
f 5/1/1 6/2/1 7/3/1 8/4/1
f 9/1/1 10/2/1 11/3/1 12/4/1
f 13/1/1 14/2/1 15/3/1 16/4/1
f 17/1/1 18/2/1 19/3/1 20/4/1
f 21/1/1 22/2/1 23/3/1 24/4/1
f 25/1/1 26/2/1 27/3/1 28/4/1
f 29/1/1 30/2/1 31/3/1 32/4/1
f 33/1/1 34/2/1 35/3/1 36/4/1
f 37/1/1 38/2/1 39/3/1 40/4/1
f 41/1/1 42/2/1 43/3/1 44/4/1
f 45/1/1 46/2/1 47/3/1 48/4/1
f 49/1/1 50/2/1 51/3/1 52/4/1
f 53/1/1 54/2/1 55/3/1 56/4/1
f 57/1/1 58/2/1 59/3/1 60/4/1
f 61/1/1 62/2/1 63/3/1 64/4/1
f 65/1/1 66/2/1 67/3/1 68/4/1
f 69/1/1 70/2/1 71/3/1 72/4/1
f 73/1/1 74/2/1 75/3/1 76/4/1
f 77/1/1 78/2/1 79/3/1 80/4/1
f 81/1/1 82/2/1 83/3/1 84/4/1
f 85/1/1 86/2/1 87/3/1 88/4/1
f 89/1/1 90/2/1 91/3/1 92/4/1
f 93/1/1 94/2/1 95/3/1 96/4/1
f 97/1/1 98/2/1 99/3/1 100/4/1
f 101/1/1 102/2/1 103/3/1 104/4/1
f 105/1/1 106/2/1 107/3/1 108/4/1
f 109/1/1 110/2/1 111/3/1 112/4/1
f 113/1/1 114/2/1 115/3/1 116/4/1
f 117/5/1 118/6/1 119/7/1 120/8/1
f 121/9/1 122/10/1 123/11/1 124/12/1
f 125/10/1 126/13/1 127/14/1 128/11/1
f 129/9/1 130/10/1 131/11/1 132/12/1
f 133/10/1 134/13/1 135/14/1 136/11/1
f 137/1/1 138/2/1 139/3/1 140/4/1
f 141/1/1 142/2/1 143/3/1 144/4/1
f 145/15/1 146/16/1 147/17/1 148/18/1
f 149/16/1 150/19/1 151/20/1 152/17/1
f 153/19/1 154/21/1 155/22/1 156/20/1
f 157/21/1 158/23/1 159/24/1 160/22/1
f 161/1/1 162/2/1 163/3/1 164/4/1
f 165/1/1 166/2/1 167/3/1 168/4/1
f 169/25/1 170/26/1 171/16/1 172/15/1
f 173/26/1 174/27/1 175/19/1 176/16/1
f 177/27/1 178/28/1 179/21/1 180/19/1
f 181/28/1 182/29/1 183/23/1 184/21/1
f 185/1/1 186/2/1 187/3/1 188/4/1
f 189/1/1 190/2/1 191/3/1 192/4/1
f 193/30/1 194/31/1 195/32/1 196/33/1
f 197/31/1 198/34/1 199/35/1 200/32/1
f 201/34/1 202/36/1 203/37/1 204/35/1
f 205/36/1 206/38/1 207/39/1 208/37/1
f 209/40/1 210/41/1 211/26/1 212/25/1
f 213/41/1 214/42/1 215/27/1 216/26/1
f 217/42/1 218/43/1 219/28/1 220/27/1
f 221/43/1 222/44/1 223/29/1 224/28/1
f 225/1/1 226/2/1 227/3/1 228/4/1
f 229/1/1 230/2/1 231/3/1 232/4/1
f 233/45/1 234/46/1 235/31/1 236/30/1
f 237/46/1 238/47/1 239/34/1 240/31/1
f 241/47/1 242/48/1 243/36/1 244/34/1
f 245/48/1 246/49/1 247/38/1 248/36/1
f 249/5/1 250/6/1 251/7/1 252/8/1
f 253/50/1 254/51/1 255/41/1 256/40/1
f 257/51/1 258/52/1 259/42/1 260/41/1
f 261/1/1 262/2/1 263/3/1 264/4/1
f 265/1/1 266/2/1 267/3/1 268/4/1
f 269/53/1 270/54/1 271/46/1 272/45/1
f 273/54/1 274/55/1 275/47/1 276/46/1
f 277/55/1 278/56/1 279/48/1 280/47/1
f 281/56/1 282/57/1 283/49/1 284/48/1
f 285/1/1 286/2/1 287/3/1 288/4/1
f 289/1/1 290/2/1 291/3/1 292/4/1
f 293/1/1 294/2/1 295/3/1 296/4/1
f 297/1/1 298/2/1 299/3/1 300/4/1
f 301/1/1 302/2/1 303/3/1 304/4/1
f 305/1/1 306/2/1 307/3/1 308/4/1
f 309/1/1 310/2/1 311/3/1 312/4/1
f 313/1/1 314/2/1 315/3/1 316/4/1
f 317/1/1 318/2/1 319/3/1 320/4/1
f 321/9/1 322/10/1 323/11/1 324/12/1
f 325/10/1 326/13/1 327/14/1 328/11/1
f 329/1/1 330/2/1 331/3/1 332/4/1
f 333/1/1 334/2/1 335/3/1 336/4/1
f 337/1/1 338/2/1 339/3/1 340/4/1
f 341/1/1 342/2/1 343/3/1 344/4/1
f 345/1/1 346/2/1 347/3/1 348/4/1
f 349/1/1 350/2/1 351/3/1 352/4/1
f 353/1/1 354/2/1 355/3/1 356/4/1
f 357/1/1 358/2/1 359/3/1 360/4/1
f 361/1/1 362/2/1 363/3/1 364/4/1
f 365/9/1 366/10/1 367/11/1 368/12/1
f 369/10/1 370/13/1 371/14/1 372/11/1
f 373/1/1 374/2/1 375/3/1 376/4/1
f 377/1/1 378/2/1 379/3/1 380/4/1
f 381/1/1 382/2/1 383/3/1 384/4/1
f 385/1/1 386/2/1 387/3/1 388/4/1
f 389/1/1 390/2/1 391/3/1 392/4/1
f 393/1/1 394/2/1 395/3/1 396/4/1
f 397/5/1 398/6/1 399/7/1 400/8/1
f 401/1/1 402/2/1 403/3/1 404/4/1
f 405/1/1 406/2/1 407/3/1 408/4/1
f 409/1/1 410/2/1 411/3/1 412/4/1
f 413/1/1 414/2/1 415/3/1 416/4/1
f 417/1/1 418/2/1 419/3/1 420/4/1
f 421/1/1 422/2/1 423/3/1 424/4/1
f 425/16/1 426/19/1 427/20/1 428/17/1
f 429/1/1 430/2/1 431/3/1 432/4/1
f 433/1/1 434/2/1 435/3/1 436/4/1
f 437/1/1 438/2/1 439/3/1 440/4/1
f 441/26/1 442/27/1 443/19/1 444/16/1
f 445/27/1 446/28/1 447/21/1 448/19/1
f 449/28/1 450/29/1 451/23/1 452/21/1
f 453/1/1 454/2/1 455/3/1 456/4/1
f 457/1/1 458/2/1 459/3/1 460/4/1
f 461/40/1 462/41/1 463/26/1 464/25/1
f 465/41/1 466/42/1 467/27/1 468/26/1
f 469/42/1 470/43/1 471/28/1 472/27/1
f 473/43/1 474/44/1 475/29/1 476/28/1
f 477/5/1 478/6/1 479/7/1 480/8/1
f 481/1/1 482/2/1 483/3/1 484/4/1
f 485/1/1 486/2/1 487/3/1 488/4/1
f 489/50/1 490/51/1 491/41/1 492/40/1
f 493/51/1 494/52/1 495/42/1 496/41/1
f 497/1/1 498/2/1 499/3/1 500/4/1
f 501/1/1 502/2/1 503/3/1 504/4/1
f 505/5/1 506/6/1 507/7/1 508/8/1
f 509/1/1 510/2/1 511/3/1 512/4/1
f 513/1/1 514/2/1 515/3/1 516/4/1
f 517/58/1 518/59/1 519/60/1 520/61/1
f 521/59/1 522/62/1 523/63/1 524/60/1
f 525/62/1 526/64/1 527/65/1 528/63/1
f 529/1/1 530/2/1 531/3/1 532/4/1
f 533/1/1 534/2/1 535/3/1 536/4/1
f 537/66/1 538/67/1 539/59/1 540/58/1
f 541/67/1 542/68/1 543/62/1 544/59/1
f 545/68/1 546/69/1 547/64/1 548/62/1
f 549/1/1 550/2/1 551/3/1 552/4/1
f 553/1/1 554/2/1 555/3/1 556/4/1
f 557/9/1 558/10/1 559/11/1 560/12/1
f 561/10/1 562/13/1 563/14/1 564/11/1
f 565/70/1 566/71/1 567/67/1 568/66/1
f 569/71/1 570/72/1 571/68/1 572/67/1
f 573/72/1 574/73/1 575/69/1 576/68/1
f 577/1/1 578/2/1 579/3/1 580/4/1
f 581/1/1 582/2/1 583/3/1 584/4/1
f 585/74/1 586/75/1 587/72/1 588/71/1
f 589/1/1 590/2/1 591/3/1 592/4/1
f 593/1/1 594/2/1 595/3/1 596/4/1
f 597/1/1 598/2/1 599/3/1 600/4/1
f 601/1/1 602/2/1 603/3/1 604/4/1
f 605/1/1 606/2/1 607/3/1 608/4/1
f 609/1/1 610/2/1 611/3/1 612/4/1
f 613/1/1 614/2/1 615/3/1 616/4/1
f 617/1/1 618/2/1 619/3/1 620/4/1
f 621/1/1 622/2/1 623/3/1 624/4/1
f 625/1/1 626/2/1 627/3/1 628/4/1
f 629/1/1 630/2/1 631/3/1 632/4/1
f 633/1/1 634/2/1 635/3/1 636/4/1
f 637/1/1 638/2/1 639/3/1 640/4/1
f 641/1/1 642/2/1 643/3/1 644/4/1
f 645/1/1 646/2/1 647/3/1 648/4/1
f 649/1/1 650/2/1 651/3/1 652/4/1
f 653/1/1 654/2/1 655/3/1 656/4/1
f 657/1/1 658/2/1 659/3/1 660/4/1
f 661/1/1 662/2/1 663/3/1 664/4/1
f 665/1/1 666/2/1 667/3/1 668/4/1
f 669/1/1 670/2/1 671/3/1 672/4/1
f 673/1/1 674/2/1 675/3/1 676/4/1
f 677/1/1 678/2/1 679/3/1 680/4/1
f 681/1/1 682/2/1 683/3/1 684/4/1
f 685/1/1 686/2/1 687/3/1 688/4/1
f 689/1/1 690/2/1 691/3/1 692/4/1
f 693/1/1 694/2/1 695/3/1 696/4/1
f 697/1/1 698/2/1 699/3/1 700/4/1
f 701/1/1 702/2/1 703/3/1 704/4/1

