# Tiled2Unity generated file. Do not modify by hand.
# Wavefront file for 'BanzaChurchRuins_mesh_0007.obj'

# Vertices (Count = 848)
v -30 -2 0
v -31 -2 0
v -31 -1 0
v -30 -1 0
v -29 -2 0
v -30 -2 0
v -30 -1 0
v -29 -1 0
v -28 -2 0
v -29 -2 0
v -29 -1 0
v -28 -1 0
v -27 -2 0
v -28 -2 0
v -28 -1 0
v -27 -1 0
v -8 -2 0
v -9 -2 0
v -9 -1 0
v -8 -1 0
v -7 -2 0
v -8 -2 0
v -8 -1 0
v -7 -1 0
v -6 -2 0
v -7 -2 0
v -7 -1 0
v -6 -1 0
v -5 -2 0
v -6 -2 0
v -6 -1 0
v -5 -1 0
v -64 -3 0
v -65 -3 0
v -65 -2 0
v -64 -2 0
v -63 -3 0
v -64 -3 0
v -64 -2 0
v -63 -2 0
v -62 -3 0
v -63 -3 0
v -63 -2 0
v -62 -2 0
v -61 -3 0
v -62 -3 0
v -62 -2 0
v -61 -2 0
v -30 -3 0
v -31 -3 0
v -31 -2 0
v -30 -2 0
v -29 -3 0
v -30 -3 0
v -30 -2 0
v -29 -2 0
v -28 -3 0
v -29 -3 0
v -29 -2 0
v -28 -2 0
v -27 -3 0
v -28 -3 0
v -28 -2 0
v -27 -2 0
v -25 -3 0
v -26 -3 0
v -26 -2 0
v -25 -2 0
v -24 -3 0
v -25 -3 0
v -25 -2 0
v -24 -2 0
v -23 -3 0
v -24 -3 0
v -24 -2 0
v -23 -2 0
v -22 -3 0
v -23 -3 0
v -23 -2 0
v -22 -2 0
v -8 -3 0
v -9 -3 0
v -9 -2 0
v -8 -2 0
v -7 -3 0
v -8 -3 0
v -8 -2 0
v -7 -2 0
v -6 -3 0
v -7 -3 0
v -7 -2 0
v -6 -2 0
v -5 -3 0
v -6 -3 0
v -6 -2 0
v -5 -2 0
v -3 -3 0
v -4 -3 0
v -4 -2 0
v -3 -2 0
v -2 -3 0
v -3 -3 0
v -3 -2 0
v -2 -2 0
v -1 -3 0
v -2 -3 0
v -2 -2 0
v -1 -2 0
v 0 -3 0
v -1 -3 0
v -1 -2 0
v 0 -2 0
v -64 -4 0
v -65 -4 0
v -65 -3 0
v -64 -3 0
v -63 -4 0
v -64 -4 0
v -64 -3 0
v -63 -3 0
v -62 -4 0
v -63 -4 0
v -63 -3 0
v -62 -3 0
v -61 -4 0
v -62 -4 0
v -62 -3 0
v -61 -3 0
v -25 -4 0
v -26 -4 0
v -26 -3 0
v -25 -3 0
v -24 -4 0
v -25 -4 0
v -25 -3 0
v -24 -3 0
v -23 -4 0
v -24 -4 0
v -24 -3 0
v -23 -3 0
v -22 -4 0
v -23 -4 0
v -23 -3 0
v -22 -3 0
v -3 -4 0
v -4 -4 0
v -4 -3 0
v -3 -3 0
v -2 -4 0
v -3 -4 0
v -3 -3 0
v -2 -3 0
v -1 -4 0
v -2 -4 0
v -2 -3 0
v -1 -3 0
v 0 -4 0
v -1 -4 0
v -1 -3 0
v 0 -3 0
v -40 -5 0
v -41 -5 0
v -41 -4 0
v -40 -4 0
v -39 -5 0
v -40 -5 0
v -40 -4 0
v -39 -4 0
v -38 -5 0
v -39 -5 0
v -39 -4 0
v -38 -4 0
v -37 -5 0
v -38 -5 0
v -38 -4 0
v -37 -4 0
v -49 -6 0
v -50 -6 0
v -50 -5 0
v -49 -5 0
v -48 -6 0
v -49 -6 0
v -49 -5 0
v -48 -5 0
v -47 -6 0
v -48 -6 0
v -48 -5 0
v -47 -5 0
v -46 -6 0
v -47 -6 0
v -47 -5 0
v -46 -5 0
v -40 -6 0
v -41 -6 0
v -41 -5 0
v -40 -5 0
v -39 -6 0
v -40 -6 0
v -40 -5 0
v -39 -5 0
v -38 -6 0
v -39 -6 0
v -39 -5 0
v -38 -5 0
v -37 -6 0
v -38 -6 0
v -38 -5 0
v -37 -5 0
v -60 -7 0
v -61 -7 0
v -61 -6 0
v -60 -6 0
v -59 -7 0
v -60 -7 0
v -60 -6 0
v -59 -6 0
v -58 -7 0
v -59 -7 0
v -59 -6 0
v -58 -6 0
v -57 -7 0
v -58 -7 0
v -58 -6 0
v -57 -6 0
v -49 -7 0
v -50 -7 0
v -50 -6 0
v -49 -6 0
v -48 -7 0
v -49 -7 0
v -49 -6 0
v -48 -6 0
v -47 -7 0
v -48 -7 0
v -48 -6 0
v -47 -6 0
v -46 -7 0
v -47 -7 0
v -47 -6 0
v -46 -6 0
v -65 -8 0
v -66 -8 0
v -66 -7 0
v -65 -7 0
v -64 -8 0
v -65 -8 0
v -65 -7 0
v -64 -7 0
v -63 -8 0
v -64 -8 0
v -64 -7 0
v -63 -7 0
v -62 -8 0
v -63 -8 0
v -63 -7 0
v -62 -7 0
v -60 -8 0
v -61 -8 0
v -61 -7 0
v -60 -7 0
v -59 -8 0
v -60 -8 0
v -60 -7 0
v -59 -7 0
v -58 -8 0
v -59 -8 0
v -59 -7 0
v -58 -7 0
v -57 -8 0
v -58 -8 0
v -58 -7 0
v -57 -7 0
v -65 -9 0
v -66 -9 0
v -66 -8 0
v -65 -8 0
v -64 -9 0
v -65 -9 0
v -65 -8 0
v -64 -8 0
v -63 -9 0
v -64 -9 0
v -64 -8 0
v -63 -8 0
v -62 -9 0
v -63 -9 0
v -63 -8 0
v -62 -8 0
v -27 -9 0
v -28 -9 0
v -28 -8 0
v -27 -8 0
v -26 -9 0
v -27 -9 0
v -27 -8 0
v -26 -8 0
v -25 -9 0
v -26 -9 0
v -26 -8 0
v -25 -8 0
v -24 -9 0
v -25 -9 0
v -25 -8 0
v -24 -8 0
v -3 -9 0
v -4 -9 0
v -4 -8 0
v -3 -8 0
v -2 -9 0
v -3 -9 0
v -3 -8 0
v -2 -8 0
v -1 -9 0
v -2 -9 0
v -2 -8 0
v -1 -8 0
v 0 -9 0
v -1 -9 0
v -1 -8 0
v 0 -8 0
v -27 -10 0
v -28 -10 0
v -28 -9 0
v -27 -9 0
v -26 -10 0
v -27 -10 0
v -27 -9 0
v -26 -9 0
v -25 -10 0
v -26 -10 0
v -26 -9 0
v -25 -9 0
v -24 -10 0
v -25 -10 0
v -25 -9 0
v -24 -9 0
v -3 -10 0
v -4 -10 0
v -4 -9 0
v -3 -9 0
v -2 -10 0
v -3 -10 0
v -3 -9 0
v -2 -9 0
v -1 -10 0
v -2 -10 0
v -2 -9 0
v -1 -9 0
v 0 -10 0
v -1 -10 0
v -1 -9 0
v 0 -9 0
v -38 -20 0
v -39 -20 0
v -39 -19 0
v -38 -19 0
v -37 -20 0
v -38 -20 0
v -38 -19 0
v -37 -19 0
v -36 -20 0
v -37 -20 0
v -37 -19 0
v -36 -19 0
v -35 -20 0
v -36 -20 0
v -36 -19 0
v -35 -19 0
v -38 -21 0
v -39 -21 0
v -39 -20 0
v -38 -20 0
v -37 -21 0
v -38 -21 0
v -38 -20 0
v -37 -20 0
v -36 -21 0
v -37 -21 0
v -37 -20 0
v -36 -20 0
v -35 -21 0
v -36 -21 0
v -36 -20 0
v -35 -20 0
v -33 -21 0
v -34 -21 0
v -34 -20 0
v -33 -20 0
v -32 -21 0
v -33 -21 0
v -33 -20 0
v -32 -20 0
v -31 -21 0
v -32 -21 0
v -32 -20 0
v -31 -20 0
v -30 -21 0
v -31 -21 0
v -31 -20 0
v -30 -20 0
v -33 -22 0
v -34 -22 0
v -34 -21 0
v -33 -21 0
v -32 -22 0
v -33 -22 0
v -33 -21 0
v -32 -21 0
v -31 -22 0
v -32 -22 0
v -32 -21 0
v -31 -21 0
v -30 -22 0
v -31 -22 0
v -31 -21 0
v -30 -21 0
v -42 -23 0
v -43 -23 0
v -43 -22 0
v -42 -22 0
v -41 -23 0
v -42 -23 0
v -42 -22 0
v -41 -22 0
v -40 -23 0
v -41 -23 0
v -41 -22 0
v -40 -22 0
v -39 -23 0
v -40 -23 0
v -40 -22 0
v -39 -22 0
v -16 -23 0
v -17 -23 0
v -17 -22 0
v -16 -22 0
v -15 -23 0
v -16 -23 0
v -16 -22 0
v -15 -22 0
v -14 -23 0
v -15 -23 0
v -15 -22 0
v -14 -22 0
v -13 -23 0
v -14 -23 0
v -14 -22 0
v -13 -22 0
v -42 -24 0
v -43 -24 0
v -43 -23 0
v -42 -23 0
v -41 -24 0
v -42 -24 0
v -42 -23 0
v -41 -23 0
v -40 -24 0
v -41 -24 0
v -41 -23 0
v -40 -23 0
v -39 -24 0
v -40 -24 0
v -40 -23 0
v -39 -23 0
v -16 -24 0
v -17 -24 0
v -17 -23 0
v -16 -23 0
v -15 -24 0
v -16 -24 0
v -16 -23 0
v -15 -23 0
v -14 -24 0
v -15 -24 0
v -15 -23 0
v -14 -23 0
v -13 -24 0
v -14 -24 0
v -14 -23 0
v -13 -23 0
v -11 -24 0
v -12 -24 0
v -12 -23 0
v -11 -23 0
v -10 -24 0
v -11 -24 0
v -11 -23 0
v -10 -23 0
v -9 -24 0
v -10 -24 0
v -10 -23 0
v -9 -23 0
v -8 -24 0
v -9 -24 0
v -9 -23 0
v -8 -23 0
v -11 -25 0
v -12 -25 0
v -12 -24 0
v -11 -24 0
v -10 -25 0
v -11 -25 0
v -11 -24 0
v -10 -24 0
v -9 -25 0
v -10 -25 0
v -10 -24 0
v -9 -24 0
v -8 -25 0
v -9 -25 0
v -9 -24 0
v -8 -24 0
v -11 -26 0
v -12 -26 0
v -12 -25 0
v -11 -25 0
v -10 -26 0
v -11 -26 0
v -11 -25 0
v -10 -25 0
v -9 -26 0
v -10 -26 0
v -10 -25 0
v -9 -25 0
v -8 -26 0
v -9 -26 0
v -9 -25 0
v -8 -25 0
v -12 -28 0
v -13 -28 0
v -13 -27 0
v -12 -27 0
v -11 -28 0
v -12 -28 0
v -12 -27 0
v -11 -27 0
v -10 -28 0
v -11 -28 0
v -11 -27 0
v -10 -27 0
v -9 -28 0
v -10 -28 0
v -10 -27 0
v -9 -27 0
v -64 -29 0
v -65 -29 0
v -65 -28 0
v -64 -28 0
v -63 -29 0
v -64 -29 0
v -64 -28 0
v -63 -28 0
v -62 -29 0
v -63 -29 0
v -63 -28 0
v -62 -28 0
v -61 -29 0
v -62 -29 0
v -62 -28 0
v -61 -28 0
v -17 -29 0
v -18 -29 0
v -18 -28 0
v -17 -28 0
v -16 -29 0
v -17 -29 0
v -17 -28 0
v -16 -28 0
v -15 -29 0
v -16 -29 0
v -16 -28 0
v -15 -28 0
v -14 -29 0
v -15 -29 0
v -15 -28 0
v -14 -28 0
v -12 -29 0
v -13 -29 0
v -13 -28 0
v -12 -28 0
v -11 -29 0
v -12 -29 0
v -12 -28 0
v -11 -28 0
v -10 -29 0
v -11 -29 0
v -11 -28 0
v -10 -28 0
v -9 -29 0
v -10 -29 0
v -10 -28 0
v -9 -28 0
v -64 -30 0
v -65 -30 0
v -65 -29 0
v -64 -29 0
v -63 -30 0
v -64 -30 0
v -64 -29 0
v -63 -29 0
v -62 -30 0
v -63 -30 0
v -63 -29 0
v -62 -29 0
v -61 -30 0
v -62 -30 0
v -62 -29 0
v -61 -29 0
v -17 -30 0
v -18 -30 0
v -18 -29 0
v -17 -29 0
v -16 -30 0
v -17 -30 0
v -17 -29 0
v -16 -29 0
v -15 -30 0
v -16 -30 0
v -16 -29 0
v -15 -29 0
v -14 -30 0
v -15 -30 0
v -15 -29 0
v -14 -29 0
v -58 -31 0
v -59 -31 0
v -59 -30 0
v -58 -30 0
v -57 -31 0
v -58 -31 0
v -58 -30 0
v -57 -30 0
v -56 -31 0
v -57 -31 0
v -57 -30 0
v -56 -30 0
v -55 -31 0
v -56 -31 0
v -56 -30 0
v -55 -30 0
v -17 -31 0
v -18 -31 0
v -18 -30 0
v -17 -30 0
v -16 -31 0
v -17 -31 0
v -17 -30 0
v -16 -30 0
v -15 -31 0
v -16 -31 0
v -16 -30 0
v -15 -30 0
v -14 -31 0
v -15 -31 0
v -15 -30 0
v -14 -30 0
v -8 -31 0
v -9 -31 0
v -9 -30 0
v -8 -30 0
v -7 -31 0
v -8 -31 0
v -8 -30 0
v -7 -30 0
v -6 -31 0
v -7 -31 0
v -7 -30 0
v -6 -30 0
v -5 -31 0
v -6 -31 0
v -6 -30 0
v -5 -30 0
v -58 -32 0
v -59 -32 0
v -59 -31 0
v -58 -31 0
v -57 -32 0
v -58 -32 0
v -58 -31 0
v -57 -31 0
v -56 -32 0
v -57 -32 0
v -57 -31 0
v -56 -31 0
v -55 -32 0
v -56 -32 0
v -56 -31 0
v -55 -31 0
v -8 -32 0
v -9 -32 0
v -9 -31 0
v -8 -31 0
v -7 -32 0
v -8 -32 0
v -8 -31 0
v -7 -31 0
v -6 -32 0
v -7 -32 0
v -7 -31 0
v -6 -31 0
v -5 -32 0
v -6 -32 0
v -6 -31 0
v -5 -31 0
v -62 -33 0
v -63 -33 0
v -63 -32 0
v -62 -32 0
v -61 -33 0
v -62 -33 0
v -62 -32 0
v -61 -32 0
v -60 -33 0
v -61 -33 0
v -61 -32 0
v -60 -32 0
v -59 -33 0
v -60 -33 0
v -60 -32 0
v -59 -32 0
v -8 -33 0
v -9 -33 0
v -9 -32 0
v -8 -32 0
v -7 -33 0
v -8 -33 0
v -8 -32 0
v -7 -32 0
v -6 -33 0
v -7 -33 0
v -7 -32 0
v -6 -32 0
v -5 -33 0
v -6 -33 0
v -6 -32 0
v -5 -32 0
v -62 -34 0
v -63 -34 0
v -63 -33 0
v -62 -33 0
v -61 -34 0
v -62 -34 0
v -62 -33 0
v -61 -33 0
v -60 -34 0
v -61 -34 0
v -61 -33 0
v -60 -33 0
v -59 -34 0
v -60 -34 0
v -60 -33 0
v -59 -33 0
v -13 -36 0
v -14 -36 0
v -14 -35 0
v -13 -35 0
v -12 -36 0
v -13 -36 0
v -13 -35 0
v -12 -35 0
v -11 -36 0
v -12 -36 0
v -12 -35 0
v -11 -35 0
v -10 -36 0
v -11 -36 0
v -11 -35 0
v -10 -35 0
v -13 -37 0
v -14 -37 0
v -14 -36 0
v -13 -36 0
v -12 -37 0
v -13 -37 0
v -13 -36 0
v -12 -36 0
v -11 -37 0
v -12 -37 0
v -12 -36 0
v -11 -36 0
v -10 -37 0
v -11 -37 0
v -11 -36 0
v -10 -36 0
v -13 -38 0
v -14 -38 0
v -14 -37 0
v -13 -37 0
v -12 -38 0
v -13 -38 0
v -13 -37 0
v -12 -37 0
v -11 -38 0
v -12 -38 0
v -12 -37 0
v -11 -37 0
v -10 -38 0
v -11 -38 0
v -11 -37 0
v -10 -37 0
v -19 -43 0
v -20 -43 0
v -20 -42 0
v -19 -42 0
v -18 -43 0
v -19 -43 0
v -19 -42 0
v -18 -42 0
v -17 -43 0
v -18 -43 0
v -18 -42 0
v -17 -42 0
v -16 -43 0
v -17 -43 0
v -17 -42 0
v -16 -42 0
v -19 -44 0
v -20 -44 0
v -20 -43 0
v -19 -43 0
v -18 -44 0
v -19 -44 0
v -19 -43 0
v -18 -43 0
v -17 -44 0
v -18 -44 0
v -18 -43 0
v -17 -43 0
v -16 -44 0
v -17 -44 0
v -17 -43 0
v -16 -43 0
v -19 -45 0
v -20 -45 0
v -20 -44 0
v -19 -44 0
v -18 -45 0
v -19 -45 0
v -19 -44 0
v -18 -44 0
v -17 -45 0
v -18 -45 0
v -18 -44 0
v -17 -44 0
v -16 -45 0
v -17 -45 0
v -17 -44 0
v -16 -44 0

# Texture cooridinates (Count = 80)
vt 0.0625408 0.08345538
vt 0.0831029 0.08345538
vt 0.0831029 0.110989
vt 0.0625408 0.110989
vt 0.04173455 0.08345538
vt 0.06229666 0.08345538
vt 0.06229666 0.110989
vt 0.04173455 0.110989
vt 0.02092831 0.08345538
vt 0.04149041 0.08345538
vt 0.04149041 0.110989
vt 0.02092831 0.110989
vt 0.0001220703 0.08345538
vt 0.02068417 0.08345538
vt 0.02068417 0.110989
vt 0.0001220703 0.110989
vt 0.0625408 0.05567765
vt 0.0831029 0.05567765
vt 0.0831029 0.08321124
vt 0.0625408 0.08321124
vt 0.04173455 0.05567765
vt 0.06229666 0.05567765
vt 0.06229666 0.08321124
vt 0.04173455 0.08321124
vt 0.02092831 0.05567765
vt 0.04149041 0.05567765
vt 0.04149041 0.08321124
vt 0.02092831 0.08321124
vt 0.0001220703 0.05567765
vt 0.02068417 0.05567765
vt 0.02068417 0.08321124
vt 0.0001220703 0.08321124
vt 0.3538282 0.1667888
vt 0.3743903 0.1667888
vt 0.3743903 0.1943223
vt 0.3538282 0.1943223
vt 0.3330219 0.1667888
vt 0.3535841 0.1667888
vt 0.3535841 0.1943223
vt 0.3330219 0.1943223
vt 0.3122157 0.1667888
vt 0.3327778 0.1667888
vt 0.3327778 0.1943223
vt 0.3122157 0.1943223
vt 0.2914095 0.1667888
vt 0.3119715 0.1667888
vt 0.3119715 0.1943223
vt 0.2914095 0.1943223
vt 0.3538282 0.139011
vt 0.3743903 0.139011
vt 0.3743903 0.1665446
vt 0.3538282 0.1665446
vt 0.3330219 0.139011
vt 0.3535841 0.139011
vt 0.3535841 0.1665446
vt 0.3330219 0.1665446
vt 0.3122157 0.139011
vt 0.3327778 0.139011
vt 0.3327778 0.1665446
vt 0.3122157 0.1665446
vt 0.2914095 0.139011
vt 0.3119715 0.139011
vt 0.3119715 0.1665446
vt 0.2914095 0.1665446
vt 0.3538282 0.1112332
vt 0.3743903 0.1112332
vt 0.3743903 0.1387668
vt 0.3538282 0.1387668
vt 0.3330219 0.1112332
vt 0.3535841 0.1112332
vt 0.3535841 0.1387668
vt 0.3330219 0.1387668
vt 0.3122157 0.1112332
vt 0.3327778 0.1112332
vt 0.3327778 0.1387668
vt 0.3122157 0.1387668
vt 0.2914095 0.1112332
vt 0.3119715 0.1112332
vt 0.3119715 0.1387668
vt 0.2914095 0.1387668

# Normal
vn 0 0 -1

# Mesh description
g BanzaChurchRuins_mesh_0007

# Faces
f 1/1/1 2/2/1 3/3/1 4/4/1
f 5/5/1 6/6/1 7/7/1 8/8/1
f 9/9/1 10/10/1 11/11/1 12/12/1
f 13/13/1 14/14/1 15/15/1 16/16/1
f 17/1/1 18/2/1 19/3/1 20/4/1
f 21/5/1 22/6/1 23/7/1 24/8/1
f 25/9/1 26/10/1 27/11/1 28/12/1
f 29/13/1 30/14/1 31/15/1 32/16/1
f 33/1/1 34/2/1 35/3/1 36/4/1
f 37/5/1 38/6/1 39/7/1 40/8/1
f 41/9/1 42/10/1 43/11/1 44/12/1
f 45/13/1 46/14/1 47/15/1 48/16/1
f 49/17/1 50/18/1 51/19/1 52/20/1
f 53/21/1 54/22/1 55/23/1 56/24/1
f 57/25/1 58/26/1 59/27/1 60/28/1
f 61/29/1 62/30/1 63/31/1 64/32/1
f 65/1/1 66/2/1 67/3/1 68/4/1
f 69/5/1 70/6/1 71/7/1 72/8/1
f 73/9/1 74/10/1 75/11/1 76/12/1
f 77/13/1 78/14/1 79/15/1 80/16/1
f 81/17/1 82/18/1 83/19/1 84/20/1
f 85/21/1 86/22/1 87/23/1 88/24/1
f 89/25/1 90/26/1 91/27/1 92/28/1
f 93/29/1 94/30/1 95/31/1 96/32/1
f 97/1/1 98/2/1 99/3/1 100/4/1
f 101/5/1 102/6/1 103/7/1 104/8/1
f 105/9/1 106/10/1 107/11/1 108/12/1
f 109/13/1 110/14/1 111/15/1 112/16/1
f 113/17/1 114/18/1 115/19/1 116/20/1
f 117/21/1 118/22/1 119/23/1 120/24/1
f 121/25/1 122/26/1 123/27/1 124/28/1
f 125/29/1 126/30/1 127/31/1 128/32/1
f 129/17/1 130/18/1 131/19/1 132/20/1
f 133/21/1 134/22/1 135/23/1 136/24/1
f 137/25/1 138/26/1 139/27/1 140/28/1
f 141/29/1 142/30/1 143/31/1 144/32/1
f 145/17/1 146/18/1 147/19/1 148/20/1
f 149/21/1 150/22/1 151/23/1 152/24/1
f 153/25/1 154/26/1 155/27/1 156/28/1
f 157/29/1 158/30/1 159/31/1 160/32/1
f 161/1/1 162/2/1 163/3/1 164/4/1
f 165/5/1 166/6/1 167/7/1 168/8/1
f 169/9/1 170/10/1 171/11/1 172/12/1
f 173/13/1 174/14/1 175/15/1 176/16/1
f 177/1/1 178/2/1 179/3/1 180/4/1
f 181/5/1 182/6/1 183/7/1 184/8/1
f 185/9/1 186/10/1 187/11/1 188/12/1
f 189/13/1 190/14/1 191/15/1 192/16/1
f 193/17/1 194/18/1 195/19/1 196/20/1
f 197/21/1 198/22/1 199/23/1 200/24/1
f 201/25/1 202/26/1 203/27/1 204/28/1
f 205/29/1 206/30/1 207/31/1 208/32/1
f 209/1/1 210/2/1 211/3/1 212/4/1
f 213/5/1 214/6/1 215/7/1 216/8/1
f 217/9/1 218/10/1 219/11/1 220/12/1
f 221/13/1 222/14/1 223/15/1 224/16/1
f 225/17/1 226/18/1 227/19/1 228/20/1
f 229/21/1 230/22/1 231/23/1 232/24/1
f 233/25/1 234/26/1 235/27/1 236/28/1
f 237/29/1 238/30/1 239/31/1 240/32/1
f 241/1/1 242/2/1 243/3/1 244/4/1
f 245/5/1 246/6/1 247/7/1 248/8/1
f 249/9/1 250/10/1 251/11/1 252/12/1
f 253/13/1 254/14/1 255/15/1 256/16/1
f 257/17/1 258/18/1 259/19/1 260/20/1
f 261/21/1 262/22/1 263/23/1 264/24/1
f 265/25/1 266/26/1 267/27/1 268/28/1
f 269/29/1 270/30/1 271/31/1 272/32/1
f 273/17/1 274/18/1 275/19/1 276/20/1
f 277/21/1 278/22/1 279/23/1 280/24/1
f 281/25/1 282/26/1 283/27/1 284/28/1
f 285/29/1 286/30/1 287/31/1 288/32/1
f 289/1/1 290/2/1 291/3/1 292/4/1
f 293/5/1 294/6/1 295/7/1 296/8/1
f 297/9/1 298/10/1 299/11/1 300/12/1
f 301/13/1 302/14/1 303/15/1 304/16/1
f 305/1/1 306/2/1 307/3/1 308/4/1
f 309/5/1 310/6/1 311/7/1 312/8/1
f 313/9/1 314/10/1 315/11/1 316/12/1
f 317/13/1 318/14/1 319/15/1 320/16/1
f 321/17/1 322/18/1 323/19/1 324/20/1
f 325/21/1 326/22/1 327/23/1 328/24/1
f 329/25/1 330/26/1 331/27/1 332/28/1
f 333/29/1 334/30/1 335/31/1 336/32/1
f 337/17/1 338/18/1 339/19/1 340/20/1
f 341/21/1 342/22/1 343/23/1 344/24/1
f 345/25/1 346/26/1 347/27/1 348/28/1
f 349/29/1 350/30/1 351/31/1 352/32/1
f 353/1/1 354/2/1 355/3/1 356/4/1
f 357/5/1 358/6/1 359/7/1 360/8/1
f 361/9/1 362/10/1 363/11/1 364/12/1
f 365/13/1 366/14/1 367/15/1 368/16/1
f 369/17/1 370/18/1 371/19/1 372/20/1
f 373/21/1 374/22/1 375/23/1 376/24/1
f 377/25/1 378/26/1 379/27/1 380/28/1
f 381/29/1 382/30/1 383/31/1 384/32/1
f 385/1/1 386/2/1 387/3/1 388/4/1
f 389/5/1 390/6/1 391/7/1 392/8/1
f 393/9/1 394/10/1 395/11/1 396/12/1
f 397/13/1 398/14/1 399/15/1 400/16/1
f 401/17/1 402/18/1 403/19/1 404/20/1
f 405/21/1 406/22/1 407/23/1 408/24/1
f 409/25/1 410/26/1 411/27/1 412/28/1
f 413/29/1 414/30/1 415/31/1 416/32/1
f 417/1/1 418/2/1 419/3/1 420/4/1
f 421/5/1 422/6/1 423/7/1 424/8/1
f 425/9/1 426/10/1 427/11/1 428/12/1
f 429/13/1 430/14/1 431/15/1 432/16/1
f 433/1/1 434/2/1 435/3/1 436/4/1
f 437/5/1 438/6/1 439/7/1 440/8/1
f 441/9/1 442/10/1 443/11/1 444/12/1
f 445/13/1 446/14/1 447/15/1 448/16/1
f 449/17/1 450/18/1 451/19/1 452/20/1
f 453/21/1 454/22/1 455/23/1 456/24/1
f 457/25/1 458/26/1 459/27/1 460/28/1
f 461/29/1 462/30/1 463/31/1 464/32/1
f 465/17/1 466/18/1 467/19/1 468/20/1
f 469/21/1 470/22/1 471/23/1 472/24/1
f 473/25/1 474/26/1 475/27/1 476/28/1
f 477/29/1 478/30/1 479/31/1 480/32/1
f 481/33/1 482/34/1 483/35/1 484/36/1
f 485/37/1 486/38/1 487/39/1 488/40/1
f 489/41/1 490/42/1 491/43/1 492/44/1
f 493/45/1 494/46/1 495/47/1 496/48/1
f 497/49/1 498/50/1 499/51/1 500/52/1
f 501/53/1 502/54/1 503/55/1 504/56/1
f 505/57/1 506/58/1 507/59/1 508/60/1
f 509/61/1 510/62/1 511/63/1 512/64/1
f 513/65/1 514/66/1 515/67/1 516/68/1
f 517/69/1 518/70/1 519/71/1 520/72/1
f 521/73/1 522/74/1 523/75/1 524/76/1
f 525/77/1 526/78/1 527/79/1 528/80/1
f 529/1/1 530/2/1 531/3/1 532/4/1
f 533/5/1 534/6/1 535/7/1 536/8/1
f 537/9/1 538/10/1 539/11/1 540/12/1
f 541/13/1 542/14/1 543/15/1 544/16/1
f 545/1/1 546/2/1 547/3/1 548/4/1
f 549/5/1 550/6/1 551/7/1 552/8/1
f 553/9/1 554/10/1 555/11/1 556/12/1
f 557/13/1 558/14/1 559/15/1 560/16/1
f 561/33/1 562/34/1 563/35/1 564/36/1
f 565/37/1 566/38/1 567/39/1 568/40/1
f 569/41/1 570/42/1 571/43/1 572/44/1
f 573/45/1 574/46/1 575/47/1 576/48/1
f 577/17/1 578/18/1 579/19/1 580/20/1
f 581/21/1 582/22/1 583/23/1 584/24/1
f 585/25/1 586/26/1 587/27/1 588/28/1
f 589/29/1 590/30/1 591/31/1 592/32/1
f 593/17/1 594/18/1 595/19/1 596/20/1
f 597/21/1 598/22/1 599/23/1 600/24/1
f 601/25/1 602/26/1 603/27/1 604/28/1
f 605/29/1 606/30/1 607/31/1 608/32/1
f 609/49/1 610/50/1 611/51/1 612/52/1
f 613/53/1 614/54/1 615/55/1 616/56/1
f 617/57/1 618/58/1 619/59/1 620/60/1
f 621/61/1 622/62/1 623/63/1 624/64/1
f 625/1/1 626/2/1 627/3/1 628/4/1
f 629/5/1 630/6/1 631/7/1 632/8/1
f 633/9/1 634/10/1 635/11/1 636/12/1
f 637/13/1 638/14/1 639/15/1 640/16/1
f 641/65/1 642/66/1 643/67/1 644/68/1
f 645/69/1 646/70/1 647/71/1 648/72/1
f 649/73/1 650/74/1 651/75/1 652/76/1
f 653/77/1 654/78/1 655/79/1 656/80/1
f 657/33/1 658/34/1 659/35/1 660/36/1
f 661/37/1 662/38/1 663/39/1 664/40/1
f 665/41/1 666/42/1 667/43/1 668/44/1
f 669/45/1 670/46/1 671/47/1 672/48/1
f 673/17/1 674/18/1 675/19/1 676/20/1
f 677/21/1 678/22/1 679/23/1 680/24/1
f 681/25/1 682/26/1 683/27/1 684/28/1
f 685/29/1 686/30/1 687/31/1 688/32/1
f 689/49/1 690/50/1 691/51/1 692/52/1
f 693/53/1 694/54/1 695/55/1 696/56/1
f 697/57/1 698/58/1 699/59/1 700/60/1
f 701/61/1 702/62/1 703/63/1 704/64/1
f 705/1/1 706/2/1 707/3/1 708/4/1
f 709/5/1 710/6/1 711/7/1 712/8/1
f 713/9/1 714/10/1 715/11/1 716/12/1
f 717/13/1 718/14/1 719/15/1 720/16/1
f 721/65/1 722/66/1 723/67/1 724/68/1
f 725/69/1 726/70/1 727/71/1 728/72/1
f 729/73/1 730/74/1 731/75/1 732/76/1
f 733/77/1 734/78/1 735/79/1 736/80/1
f 737/17/1 738/18/1 739/19/1 740/20/1
f 741/21/1 742/22/1 743/23/1 744/24/1
f 745/25/1 746/26/1 747/27/1 748/28/1
f 749/29/1 750/30/1 751/31/1 752/32/1
f 753/33/1 754/34/1 755/35/1 756/36/1
f 757/37/1 758/38/1 759/39/1 760/40/1
f 761/41/1 762/42/1 763/43/1 764/44/1
f 765/45/1 766/46/1 767/47/1 768/48/1
f 769/49/1 770/50/1 771/51/1 772/52/1
f 773/53/1 774/54/1 775/55/1 776/56/1
f 777/57/1 778/58/1 779/59/1 780/60/1
f 781/61/1 782/62/1 783/63/1 784/64/1
f 785/65/1 786/66/1 787/67/1 788/68/1
f 789/69/1 790/70/1 791/71/1 792/72/1
f 793/73/1 794/74/1 795/75/1 796/76/1
f 797/77/1 798/78/1 799/79/1 800/80/1
f 801/33/1 802/34/1 803/35/1 804/36/1
f 805/37/1 806/38/1 807/39/1 808/40/1
f 809/41/1 810/42/1 811/43/1 812/44/1
f 813/45/1 814/46/1 815/47/1 816/48/1
f 817/49/1 818/50/1 819/51/1 820/52/1
f 821/53/1 822/54/1 823/55/1 824/56/1
f 825/57/1 826/58/1 827/59/1 828/60/1
f 829/61/1 830/62/1 831/63/1 832/64/1
f 833/65/1 834/66/1 835/67/1 836/68/1
f 837/69/1 838/70/1 839/71/1 840/72/1
f 841/73/1 842/74/1 843/75/1 844/76/1
f 845/77/1 846/78/1 847/79/1 848/80/1

