# Tiled2Unity generated file. Do not modify by hand.
# Wavefront file for 'Agao-DatuSilongan_mesh_0004.obj'

# Vertices (Count = 136)
v -33 -3 0
v -34 -3 0
v -34 -2 0
v -33 -2 0
v -32 -3 0
v -33 -3 0
v -33 -2 0
v -32 -2 0
v -33 -4 0
v -34 -4 0
v -34 -3 0
v -33 -3 0
v -32 -4 0
v -33 -4 0
v -33 -3 0
v -32 -3 0
v -15 -9 0
v -16 -9 0
v -16 -8 0
v -15 -8 0
v -14 -9 0
v -15 -9 0
v -15 -8 0
v -14 -8 0
v -30 -10 0
v -31 -10 0
v -31 -9 0
v -30 -9 0
v -29 -10 0
v -30 -10 0
v -30 -9 0
v -29 -9 0
v -16 -10 0
v -17 -10 0
v -17 -9 0
v -16 -9 0
v -15 -10 0
v -16 -10 0
v -16 -9 0
v -15 -9 0
v -14 -10 0
v -15 -10 0
v -15 -9 0
v -14 -9 0
v -13 -10 0
v -14 -10 0
v -14 -9 0
v -13 -9 0
v -30 -11 0
v -31 -11 0
v -31 -10 0
v -30 -10 0
v -29 -11 0
v -30 -11 0
v -30 -10 0
v -29 -10 0
v -16 -11 0
v -17 -11 0
v -17 -10 0
v -16 -10 0
v -15 -11 0
v -16 -11 0
v -16 -10 0
v -15 -10 0
v -14 -11 0
v -15 -11 0
v -15 -10 0
v -14 -10 0
v -13 -11 0
v -14 -11 0
v -14 -10 0
v -13 -10 0
v -11 -11 0
v -12 -11 0
v -12 -10 0
v -11 -10 0
v -38 -12 0
v -39 -12 0
v -39 -11 0
v -38 -11 0
v -37 -12 0
v -38 -12 0
v -38 -11 0
v -37 -11 0
v -29 -12 0
v -30 -12 0
v -30 -11 0
v -29 -11 0
v -16 -12 0
v -17 -12 0
v -17 -11 0
v -16 -11 0
v -15 -12 0
v -16 -12 0
v -16 -11 0
v -15 -11 0
v -14 -12 0
v -15 -12 0
v -15 -11 0
v -14 -11 0
v -13 -12 0
v -14 -12 0
v -14 -11 0
v -13 -11 0
v -12 -12 0
v -13 -12 0
v -13 -11 0
v -12 -11 0
v -38 -13 0
v -39 -13 0
v -39 -12 0
v -38 -12 0
v -37 -13 0
v -38 -13 0
v -38 -12 0
v -37 -12 0
v -14 -14 0
v -15 -14 0
v -15 -13 0
v -14 -13 0
v -1 -16 0
v -2 -16 0
v -2 -15 0
v -1 -15 0
v 0 -16 0
v -1 -16 0
v -1 -15 0
v 0 -15 0
v -1 -17 0
v -2 -17 0
v -2 -16 0
v -1 -16 0
v 0 -17 0
v -1 -17 0
v -1 -16 0
v 0 -16 0

# Texture cooridinates (Count = 64)
vt 0.2081845 0.6667887
vt 0.2287466 0.6667887
vt 0.2287466 0.6943223
vt 0.2081845 0.6943223
vt 0.1873782 0.6667887
vt 0.2079404 0.6667887
vt 0.2079404 0.6943223
vt 0.1873782 0.6943223
vt 0.2081845 0.639011
vt 0.2287466 0.639011
vt 0.2287466 0.6665446
vt 0.2081845 0.6665446
vt 0.1873782 0.639011
vt 0.2079404 0.639011
vt 0.2079404 0.6665446
vt 0.1873782 0.6665446
vt 0.1041533 0.9445665
vt 0.1247154 0.9445665
vt 0.1247154 0.9721001
vt 0.1041533 0.9721001
vt 0.08334704 0.9445665
vt 0.1039091 0.9445665
vt 0.1039091 0.9721001
vt 0.08334704 0.9721001
vt 0.1873782 0.9723443
vt 0.2079404 0.9723443
vt 0.2079404 0.9998779
vt 0.1873782 0.9998779
vt 0.2289907 0.6667887
vt 0.2495528 0.6667887
vt 0.2495528 0.6943223
vt 0.2289907 0.6943223
vt 0.1041533 0.9167888
vt 0.1247154 0.9167888
vt 0.1247154 0.9443223
vt 0.1041533 0.9443223
vt 0.08334704 0.9167888
vt 0.1039091 0.9167888
vt 0.1039091 0.9443223
vt 0.08334704 0.9443223
vt 0.249797 0.6667887
vt 0.2703591 0.6667887
vt 0.2703591 0.6943223
vt 0.249797 0.6943223
vt 0.2289907 0.639011
vt 0.2495528 0.639011
vt 0.2495528 0.6665446
vt 0.2289907 0.6665446
vt 0.1249595 0.9723443
vt 0.1455216 0.9723443
vt 0.1455216 0.9998779
vt 0.1249595 0.9998779
vt 0.166572 0.9723443
vt 0.1871341 0.9723443
vt 0.1871341 0.9998779
vt 0.166572 0.9998779
vt 0.249797 0.639011
vt 0.2703591 0.639011
vt 0.2703591 0.6665446
vt 0.249797 0.6665446
vt 0.1457658 0.9723443
vt 0.1663279 0.9723443
vt 0.1663279 0.9998779
vt 0.1457658 0.9998779

# Normal
vn 0 0 -1

# Mesh description
g Agao-DatuSilongan_mesh_0004

# Faces
f 1/1/1 2/2/1 3/3/1 4/4/1
f 5/5/1 6/6/1 7/7/1 8/8/1
f 9/9/1 10/10/1 11/11/1 12/12/1
f 13/13/1 14/14/1 15/15/1 16/16/1
f 17/1/1 18/2/1 19/3/1 20/4/1
f 21/5/1 22/6/1 23/7/1 24/8/1
f 25/17/1 26/18/1 27/19/1 28/20/1
f 29/21/1 30/22/1 31/23/1 32/24/1
f 33/25/1 34/26/1 35/27/1 36/28/1
f 37/9/1 38/10/1 39/11/1 40/12/1
f 41/29/1 42/30/1 43/31/1 44/32/1
f 45/5/1 46/6/1 47/7/1 48/8/1
f 49/33/1 50/34/1 51/35/1 52/36/1
f 53/37/1 54/38/1 55/39/1 56/40/1
f 57/1/1 58/2/1 59/3/1 60/4/1
f 61/41/1 62/42/1 63/43/1 64/44/1
f 65/45/1 66/46/1 67/47/1 68/48/1
f 69/13/1 70/14/1 71/15/1 72/16/1
f 73/49/1 74/50/1 75/51/1 76/52/1
f 77/17/1 78/18/1 79/19/1 80/20/1
f 81/21/1 82/22/1 83/23/1 84/24/1
f 85/53/1 86/54/1 87/55/1 88/56/1
f 89/9/1 90/10/1 91/11/1 92/12/1
f 93/57/1 94/58/1 95/59/1 96/60/1
f 97/13/1 98/14/1 99/15/1 100/16/1
f 101/61/1 102/62/1 103/63/1 104/64/1
f 105/25/1 106/26/1 107/27/1 108/28/1
f 109/33/1 110/34/1 111/35/1 112/36/1
f 113/37/1 114/38/1 115/39/1 116/40/1
f 117/61/1 118/62/1 119/63/1 120/64/1
f 121/1/1 122/2/1 123/3/1 124/4/1
f 125/5/1 126/6/1 127/7/1 128/8/1
f 129/9/1 130/10/1 131/11/1 132/12/1
f 133/13/1 134/14/1 135/15/1 136/16/1

