# Tiled2Unity generated file. Do not modify by hand.
# Wavefront file for 'MistubishiMotors_mesh_0002.obj'

# Vertices (Count = 956)
v -33 -1 0
v -34 -1 0
v -34 0 0
v -33 0 0
v -32 -1 0
v -33 -1 0
v -33 0 0
v -32 0 0
v -31 -1 0
v -32 -1 0
v -32 0 0
v -31 0 0
v -30 -1 0
v -31 -1 0
v -31 0 0
v -30 0 0
v -29 -1 0
v -30 -1 0
v -30 0 0
v -29 0 0
v -27 -1 0
v -28 -1 0
v -28 0 0
v -27 0 0
v -26 -1 0
v -27 -1 0
v -27 0 0
v -26 0 0
v -25 -1 0
v -26 -1 0
v -26 0 0
v -25 0 0
v -23 -1 0
v -24 -1 0
v -24 0 0
v -23 0 0
v -22 -1 0
v -23 -1 0
v -23 0 0
v -22 0 0
v -19 -1 0
v -20 -1 0
v -20 0 0
v -19 0 0
v -18 -1 0
v -19 -1 0
v -19 0 0
v -18 0 0
v -17 -1 0
v -18 -1 0
v -18 0 0
v -17 0 0
v -15 -1 0
v -16 -1 0
v -16 0 0
v -15 0 0
v -14 -1 0
v -15 -1 0
v -15 0 0
v -14 0 0
v -13 -1 0
v -14 -1 0
v -14 0 0
v -13 0 0
v -12 -1 0
v -13 -1 0
v -13 0 0
v -12 0 0
v -11 -1 0
v -12 -1 0
v -12 0 0
v -11 0 0
v -9 -1 0
v -10 -1 0
v -10 0 0
v -9 0 0
v -8 -1 0
v -9 -1 0
v -9 0 0
v -8 0 0
v -4 -1 0
v -5 -1 0
v -5 0 0
v -4 0 0
v -1 -1 0
v -2 -1 0
v -2 0 0
v -1 0 0
v 0 -1 0
v -1 -1 0
v -1 0 0
v 0 0 0
v -34 -2 0
v -35 -2 0
v -35 -1 0
v -34 -1 0
v -33 -2 0
v -34 -2 0
v -34 -1 0
v -33 -1 0
v -31 -2 0
v -32 -2 0
v -32 -1 0
v -31 -1 0
v -30 -2 0
v -31 -2 0
v -31 -1 0
v -30 -1 0
v -27 -2 0
v -28 -2 0
v -28 -1 0
v -27 -1 0
v -26 -2 0
v -27 -2 0
v -27 -1 0
v -26 -1 0
v -25 -2 0
v -26 -2 0
v -26 -1 0
v -25 -1 0
v -24 -2 0
v -25 -2 0
v -25 -1 0
v -24 -1 0
v -23 -2 0
v -24 -2 0
v -24 -1 0
v -23 -1 0
v -18 -2 0
v -19 -2 0
v -19 -1 0
v -18 -1 0
v -17 -2 0
v -18 -2 0
v -18 -1 0
v -17 -1 0
v -16 -2 0
v -17 -2 0
v -17 -1 0
v -16 -1 0
v -15 -2 0
v -16 -2 0
v -16 -1 0
v -15 -1 0
v -14 -2 0
v -15 -2 0
v -15 -1 0
v -14 -1 0
v -8 -2 0
v -9 -2 0
v -9 -1 0
v -8 -1 0
v -7 -2 0
v -8 -2 0
v -8 -1 0
v -7 -1 0
v -4 -2 0
v -5 -2 0
v -5 -1 0
v -4 -1 0
v -3 -2 0
v -4 -2 0
v -4 -1 0
v -3 -1 0
v -2 -2 0
v -3 -2 0
v -3 -1 0
v -2 -1 0
v -1 -2 0
v -2 -2 0
v -2 -1 0
v -1 -1 0
v 0 -2 0
v -1 -2 0
v -1 -1 0
v 0 -1 0
v -34 -3 0
v -35 -3 0
v -35 -2 0
v -34 -2 0
v -29 -3 0
v -30 -3 0
v -30 -2 0
v -29 -2 0
v -28 -3 0
v -29 -3 0
v -29 -2 0
v -28 -2 0
v -2 -3 0
v -3 -3 0
v -3 -2 0
v -2 -2 0
v -1 -3 0
v -2 -3 0
v -2 -2 0
v -1 -2 0
v -34 -4 0
v -35 -4 0
v -35 -3 0
v -34 -3 0
v -33 -4 0
v -34 -4 0
v -34 -3 0
v -33 -3 0
v -29 -4 0
v -30 -4 0
v -30 -3 0
v -29 -3 0
v -28 -4 0
v -29 -4 0
v -29 -3 0
v -28 -3 0
v -34 -5 0
v -35 -5 0
v -35 -4 0
v -34 -4 0
v -33 -5 0
v -34 -5 0
v -34 -4 0
v -33 -4 0
v -2 -6 0
v -3 -6 0
v -3 -5 0
v -2 -5 0
v -1 -6 0
v -2 -6 0
v -2 -5 0
v -1 -5 0
v 0 -6 0
v -1 -6 0
v -1 -5 0
v 0 -5 0
v -2 -7 0
v -3 -7 0
v -3 -6 0
v -2 -6 0
v -2 -8 0
v -3 -8 0
v -3 -7 0
v -2 -7 0
v -1 -8 0
v -2 -8 0
v -2 -7 0
v -1 -7 0
v 0 -8 0
v -1 -8 0
v -1 -7 0
v 0 -7 0
v 0 -9 0
v -1 -9 0
v -1 -8 0
v 0 -8 0
v -33 -10 0
v -34 -10 0
v -34 -9 0
v -33 -9 0
v -32 -10 0
v -33 -10 0
v -33 -9 0
v -32 -9 0
v -1 -10 0
v -2 -10 0
v -2 -9 0
v -1 -9 0
v 0 -10 0
v -1 -10 0
v -1 -9 0
v 0 -9 0
v -33 -11 0
v -34 -11 0
v -34 -10 0
v -33 -10 0
v -32 -11 0
v -33 -11 0
v -33 -10 0
v -32 -10 0
v -1 -11 0
v -2 -11 0
v -2 -10 0
v -1 -10 0
v 0 -11 0
v -1 -11 0
v -1 -10 0
v 0 -10 0
v -34 -12 0
v -35 -12 0
v -35 -11 0
v -34 -11 0
v -1 -15 0
v -2 -15 0
v -2 -14 0
v -1 -14 0
v 0 -15 0
v -1 -15 0
v -1 -14 0
v 0 -14 0
v -1 -16 0
v -2 -16 0
v -2 -15 0
v -1 -15 0
v 0 -18 0
v -1 -18 0
v -1 -17 0
v 0 -17 0
v -1 -19 0
v -2 -19 0
v -2 -18 0
v -1 -18 0
v 0 -19 0
v -1 -19 0
v -1 -18 0
v 0 -18 0
v -1 -20 0
v -2 -20 0
v -2 -19 0
v -1 -19 0
v 0 -20 0
v -1 -20 0
v -1 -19 0
v 0 -19 0
v -3 -21 0
v -4 -21 0
v -4 -20 0
v -3 -20 0
v 0 -21 0
v -1 -21 0
v -1 -20 0
v 0 -20 0
v -4 -22 0
v -5 -22 0
v -5 -21 0
v -4 -21 0
v 0 -22 0
v -1 -22 0
v -1 -21 0
v 0 -21 0
v -1 -23 0
v -2 -23 0
v -2 -22 0
v -1 -22 0
v -1 -24 0
v -2 -24 0
v -2 -23 0
v -1 -23 0
v -1 -25 0
v -2 -25 0
v -2 -24 0
v -1 -24 0
v 0 -25 0
v -1 -25 0
v -1 -24 0
v 0 -24 0
v -1 -26 0
v -2 -26 0
v -2 -25 0
v -1 -25 0
v -34 -30 0
v -35 -30 0
v -35 -29 0
v -34 -29 0
v -33 -30 0
v -34 -30 0
v -34 -29 0
v -33 -29 0
v -34 -31 0
v -35 -31 0
v -35 -30 0
v -34 -30 0
v -33 -31 0
v -34 -31 0
v -34 -30 0
v -33 -30 0
v -32 -31 0
v -33 -31 0
v -33 -30 0
v -32 -30 0
v -31 -31 0
v -32 -31 0
v -32 -30 0
v -31 -30 0
v -1 -31 0
v -2 -31 0
v -2 -30 0
v -1 -30 0
v 0 -31 0
v -1 -31 0
v -1 -30 0
v 0 -30 0
v -34 -32 0
v -35 -32 0
v -35 -31 0
v -34 -31 0
v -33 -32 0
v -34 -32 0
v -34 -31 0
v -33 -31 0
v -32 -32 0
v -33 -32 0
v -33 -31 0
v -32 -31 0
v -31 -32 0
v -32 -32 0
v -32 -31 0
v -31 -31 0
v -1 -32 0
v -2 -32 0
v -2 -31 0
v -1 -31 0
v 0 -32 0
v -1 -32 0
v -1 -31 0
v 0 -31 0
v -34 -33 0
v -35 -33 0
v -35 -32 0
v -34 -32 0
v -33 -33 0
v -34 -33 0
v -34 -32 0
v -33 -32 0
v -3 -33 0
v -4 -33 0
v -4 -32 0
v -3 -32 0
v -2 -33 0
v -3 -33 0
v -3 -32 0
v -2 -32 0
v -3 -34 0
v -4 -34 0
v -4 -33 0
v -3 -33 0
v -2 -34 0
v -3 -34 0
v -3 -33 0
v -2 -33 0
v -1 -34 0
v -2 -34 0
v -2 -33 0
v -1 -33 0
v 0 -34 0
v -1 -34 0
v -1 -33 0
v 0 -33 0
v -1 -35 0
v -2 -35 0
v -2 -34 0
v -1 -34 0
v 0 -35 0
v -1 -35 0
v -1 -34 0
v 0 -34 0
v -34 -36 0
v -35 -36 0
v -35 -35 0
v -34 -35 0
v -1 -36 0
v -2 -36 0
v -2 -35 0
v -1 -35 0
v -33 -37 0
v -34 -37 0
v -34 -36 0
v -33 -36 0
v -1 -37 0
v -2 -37 0
v -2 -36 0
v -1 -36 0
v 0 -37 0
v -1 -37 0
v -1 -36 0
v 0 -36 0
v -33 -38 0
v -34 -38 0
v -34 -37 0
v -33 -37 0
v -32 -38 0
v -33 -38 0
v -33 -37 0
v -32 -37 0
v 0 -38 0
v -1 -38 0
v -1 -37 0
v 0 -37 0
v -32 -39 0
v -33 -39 0
v -33 -38 0
v -32 -38 0
v -31 -40 0
v -32 -40 0
v -32 -39 0
v -31 -39 0
v -2 -40 0
v -3 -40 0
v -3 -39 0
v -2 -39 0
v -32 -41 0
v -33 -41 0
v -33 -40 0
v -32 -40 0
v -31 -41 0
v -32 -41 0
v -32 -40 0
v -31 -40 0
v -2 -41 0
v -3 -41 0
v -3 -40 0
v -2 -40 0
v -1 -41 0
v -2 -41 0
v -2 -40 0
v -1 -40 0
v 0 -41 0
v -1 -41 0
v -1 -40 0
v 0 -40 0
v -32 -42 0
v -33 -42 0
v -33 -41 0
v -32 -41 0
v -1 -42 0
v -2 -42 0
v -2 -41 0
v -1 -41 0
v 0 -42 0
v -1 -42 0
v -1 -41 0
v 0 -41 0
v -32 -43 0
v -33 -43 0
v -33 -42 0
v -32 -42 0
v -2 -43 0
v -3 -43 0
v -3 -42 0
v -2 -42 0
v -1 -43 0
v -2 -43 0
v -2 -42 0
v -1 -42 0
v -1 -44 0
v -2 -44 0
v -2 -43 0
v -1 -43 0
v 0 -44 0
v -1 -44 0
v -1 -43 0
v 0 -43 0
v -2 -45 0
v -3 -45 0
v -3 -44 0
v -2 -44 0
v -1 -45 0
v -2 -45 0
v -2 -44 0
v -1 -44 0
v 0 -45 0
v -1 -45 0
v -1 -44 0
v 0 -44 0
v -34 -46 0
v -35 -46 0
v -35 -45 0
v -34 -45 0
v -3 -46 0
v -4 -46 0
v -4 -45 0
v -3 -45 0
v -2 -46 0
v -3 -46 0
v -3 -45 0
v -2 -45 0
v -34 -47 0
v -35 -47 0
v -35 -46 0
v -34 -46 0
v -33 -47 0
v -34 -47 0
v -34 -46 0
v -33 -46 0
v -32 -47 0
v -33 -47 0
v -33 -46 0
v -32 -46 0
v -3 -47 0
v -4 -47 0
v -4 -46 0
v -3 -46 0
v -2 -47 0
v -3 -47 0
v -3 -46 0
v -2 -46 0
v -33 -48 0
v -34 -48 0
v -34 -47 0
v -33 -47 0
v -32 -48 0
v -33 -48 0
v -33 -47 0
v -32 -47 0
v -3 -48 0
v -4 -48 0
v -4 -47 0
v -3 -47 0
v -2 -48 0
v -3 -48 0
v -3 -47 0
v -2 -47 0
v -1 -48 0
v -2 -48 0
v -2 -47 0
v -1 -47 0
v 0 -48 0
v -1 -48 0
v -1 -47 0
v 0 -47 0
v -32 -49 0
v -33 -49 0
v -33 -48 0
v -32 -48 0
v -31 -49 0
v -32 -49 0
v -32 -48 0
v -31 -48 0
v -3 -49 0
v -4 -49 0
v -4 -48 0
v -3 -48 0
v 0 -49 0
v -1 -49 0
v -1 -48 0
v 0 -48 0
v -32 -50 0
v -33 -50 0
v -33 -49 0
v -32 -49 0
v -31 -50 0
v -32 -50 0
v -32 -49 0
v -31 -49 0
v 0 -50 0
v -1 -50 0
v -1 -49 0
v 0 -49 0
v -1 -52 0
v -2 -52 0
v -2 -51 0
v -1 -51 0
v 0 -52 0
v -1 -52 0
v -1 -51 0
v 0 -51 0
v -3 -53 0
v -4 -53 0
v -4 -52 0
v -3 -52 0
v -1 -53 0
v -2 -53 0
v -2 -52 0
v -1 -52 0
v 0 -53 0
v -1 -53 0
v -1 -52 0
v 0 -52 0
v -3 -54 0
v -4 -54 0
v -4 -53 0
v -3 -53 0
v 0 -54 0
v -1 -54 0
v -1 -53 0
v 0 -53 0
v -34 -55 0
v -35 -55 0
v -35 -54 0
v -34 -54 0
v -33 -55 0
v -34 -55 0
v -34 -54 0
v -33 -54 0
v -1 -55 0
v -2 -55 0
v -2 -54 0
v -1 -54 0
v -34 -56 0
v -35 -56 0
v -35 -55 0
v -34 -55 0
v -33 -56 0
v -34 -56 0
v -34 -55 0
v -33 -55 0
v -32 -56 0
v -33 -56 0
v -33 -55 0
v -32 -55 0
v -31 -56 0
v -32 -56 0
v -32 -55 0
v -31 -55 0
v -33 -57 0
v -34 -57 0
v -34 -56 0
v -33 -56 0
v -32 -57 0
v -33 -57 0
v -33 -56 0
v -32 -56 0
v -17 -57 0
v -18 -57 0
v -18 -56 0
v -17 -56 0
v -11 -57 0
v -12 -57 0
v -12 -56 0
v -11 -56 0
v -4 -57 0
v -5 -57 0
v -5 -56 0
v -4 -56 0
v -3 -57 0
v -4 -57 0
v -4 -56 0
v -3 -56 0
v -1 -57 0
v -2 -57 0
v -2 -56 0
v -1 -56 0
v 0 -57 0
v -1 -57 0
v -1 -56 0
v 0 -56 0
v -34 -58 0
v -35 -58 0
v -35 -57 0
v -34 -57 0
v -33 -58 0
v -34 -58 0
v -34 -57 0
v -33 -57 0
v -32 -58 0
v -33 -58 0
v -33 -57 0
v -32 -57 0
v -31 -58 0
v -32 -58 0
v -32 -57 0
v -31 -57 0
v -28 -58 0
v -29 -58 0
v -29 -57 0
v -28 -57 0
v -27 -58 0
v -28 -58 0
v -28 -57 0
v -27 -57 0
v -22 -58 0
v -23 -58 0
v -23 -57 0
v -22 -57 0
v -16 -58 0
v -17 -58 0
v -17 -57 0
v -16 -57 0
v -11 -58 0
v -12 -58 0
v -12 -57 0
v -11 -57 0
v -7 -58 0
v -8 -58 0
v -8 -57 0
v -7 -57 0
v -2 -58 0
v -3 -58 0
v -3 -57 0
v -2 -57 0
v -1 -58 0
v -2 -58 0
v -2 -57 0
v -1 -57 0
v 0 -58 0
v -1 -58 0
v -1 -57 0
v 0 -57 0
v -34 -59 0
v -35 -59 0
v -35 -58 0
v -34 -58 0
v -33 -59 0
v -34 -59 0
v -34 -58 0
v -33 -58 0
v -32 -59 0
v -33 -59 0
v -33 -58 0
v -32 -58 0
v -31 -59 0
v -32 -59 0
v -32 -58 0
v -31 -58 0
v -28 -59 0
v -29 -59 0
v -29 -58 0
v -28 -58 0
v -27 -59 0
v -28 -59 0
v -28 -58 0
v -27 -58 0
v -26 -59 0
v -27 -59 0
v -27 -58 0
v -26 -58 0
v -25 -59 0
v -26 -59 0
v -26 -58 0
v -25 -58 0
v -23 -59 0
v -24 -59 0
v -24 -58 0
v -23 -58 0
v -22 -59 0
v -23 -59 0
v -23 -58 0
v -22 -58 0
v -21 -59 0
v -22 -59 0
v -22 -58 0
v -21 -58 0
v -20 -59 0
v -21 -59 0
v -21 -58 0
v -20 -58 0
v -16 -59 0
v -17 -59 0
v -17 -58 0
v -16 -58 0
v -12 -59 0
v -13 -59 0
v -13 -58 0
v -12 -58 0
v -11 -59 0
v -12 -59 0
v -12 -58 0
v -11 -58 0
v -10 -59 0
v -11 -59 0
v -11 -58 0
v -10 -58 0
v -8 -59 0
v -9 -59 0
v -9 -58 0
v -8 -58 0
v -7 -59 0
v -8 -59 0
v -8 -58 0
v -7 -58 0
v -6 -59 0
v -7 -59 0
v -7 -58 0
v -6 -58 0
v -3 -59 0
v -4 -59 0
v -4 -58 0
v -3 -58 0
v -2 -59 0
v -3 -59 0
v -3 -58 0
v -2 -58 0
v -1 -59 0
v -2 -59 0
v -2 -58 0
v -1 -58 0
v 0 -59 0
v -1 -59 0
v -1 -58 0
v 0 -58 0
v -34 -60 0
v -35 -60 0
v -35 -59 0
v -34 -59 0
v -33 -60 0
v -34 -60 0
v -34 -59 0
v -33 -59 0
v -29 -60 0
v -30 -60 0
v -30 -59 0
v -29 -59 0
v -28 -60 0
v -29 -60 0
v -29 -59 0
v -28 -59 0
v -26 -60 0
v -27 -60 0
v -27 -59 0
v -26 -59 0
v -23 -60 0
v -24 -60 0
v -24 -59 0
v -23 -59 0
v -22 -60 0
v -23 -60 0
v -23 -59 0
v -22 -59 0
v -20 -60 0
v -21 -60 0
v -21 -59 0
v -20 -59 0
v -19 -60 0
v -20 -60 0
v -20 -59 0
v -19 -59 0
v -17 -60 0
v -18 -60 0
v -18 -59 0
v -17 -59 0
v -16 -60 0
v -17 -60 0
v -17 -59 0
v -16 -59 0
v -15 -60 0
v -16 -60 0
v -16 -59 0
v -15 -59 0
v -12 -60 0
v -13 -60 0
v -13 -59 0
v -12 -59 0
v -11 -60 0
v -12 -60 0
v -12 -59 0
v -11 -59 0
v -9 -60 0
v -10 -60 0
v -10 -59 0
v -9 -59 0
v -8 -60 0
v -9 -60 0
v -9 -59 0
v -8 -59 0
v -3 -60 0
v -4 -60 0
v -4 -59 0
v -3 -59 0
v -2 -60 0
v -3 -60 0
v -3 -59 0
v -2 -59 0
v -1 -60 0
v -2 -60 0
v -2 -59 0
v -1 -59 0
v 0 -60 0
v -1 -60 0
v -1 -59 0
v 0 -59 0

# Texture cooridinates (Count = 64)
vt 0.04173455 0.5834554
vt 0.06229666 0.5834554
vt 0.06229666 0.610989
vt 0.04173455 0.610989
vt 0.1249595 0.5278999
vt 0.1455216 0.5278999
vt 0.1455216 0.5554335
vt 0.1249595 0.5554335
vt 0.1041533 0.5278999
vt 0.1247154 0.5278999
vt 0.1247154 0.5554335
vt 0.1041533 0.5554335
vt 0.02092831 0.5278999
vt 0.04149041 0.5278999
vt 0.04149041 0.5554335
vt 0.02092831 0.5554335
vt 0.0001220703 0.5278999
vt 0.02068417 0.5278999
vt 0.02068417 0.5554335
vt 0.0001220703 0.5554335
vt 0.1249595 0.5001221
vt 0.1455216 0.5001221
vt 0.1455216 0.5276557
vt 0.1249595 0.5276557
vt 0.1041533 0.5001221
vt 0.1247154 0.5001221
vt 0.1247154 0.5276557
vt 0.1041533 0.5276557
vt 0.0625408 0.6112332
vt 0.0831029 0.6112332
vt 0.0831029 0.6387668
vt 0.0625408 0.6387668
vt 0.0625408 0.5834554
vt 0.0831029 0.5834554
vt 0.0831029 0.610989
vt 0.0625408 0.610989
vt 0.0625408 0.5556777
vt 0.0831029 0.5556777
vt 0.0831029 0.5832113
vt 0.0625408 0.5832113
vt 0.0001220703 0.5834554
vt 0.02068417 0.5834554
vt 0.02068417 0.610989
vt 0.0001220703 0.610989
vt 0.0001220703 0.5556777
vt 0.02068417 0.5556777
vt 0.02068417 0.5832113
vt 0.0001220703 0.5832113
vt 0.2081845 0.6667887
vt 0.2287466 0.6667887
vt 0.2287466 0.6943223
vt 0.2081845 0.6943223
vt 0.1873782 0.6667887
vt 0.2079404 0.6667887
vt 0.2079404 0.6943223
vt 0.1873782 0.6943223
vt 0.2081845 0.639011
vt 0.2287466 0.639011
vt 0.2287466 0.6665446
vt 0.2081845 0.6665446
vt 0.1873782 0.639011
vt 0.2079404 0.639011
vt 0.2079404 0.6665446
vt 0.1873782 0.6665446

# Normal
vn 0 0 -1

# Mesh description
g MistubishiMotors_mesh_0002

# Faces
f 1/1/1 2/2/1 3/3/1 4/4/1
f 5/1/1 6/2/1 7/3/1 8/4/1
f 9/5/1 10/6/1 11/7/1 12/8/1
f 13/9/1 14/10/1 15/11/1 16/12/1
f 17/1/1 18/2/1 19/3/1 20/4/1
f 21/1/1 22/2/1 23/3/1 24/4/1
f 25/5/1 26/6/1 27/7/1 28/8/1
f 29/9/1 30/10/1 31/11/1 32/12/1
f 33/1/1 34/2/1 35/3/1 36/4/1
f 37/1/1 38/2/1 39/3/1 40/4/1
f 41/1/1 42/2/1 43/3/1 44/4/1
f 45/1/1 46/2/1 47/3/1 48/4/1
f 49/1/1 50/2/1 51/3/1 52/4/1
f 53/5/1 54/6/1 55/7/1 56/8/1
f 57/9/1 58/10/1 59/11/1 60/12/1
f 61/1/1 62/2/1 63/3/1 64/4/1
f 65/1/1 66/2/1 67/3/1 68/4/1
f 69/1/1 70/2/1 71/3/1 72/4/1
f 73/13/1 74/14/1 75/15/1 76/16/1
f 77/17/1 78/18/1 79/19/1 80/20/1
f 81/1/1 82/2/1 83/3/1 84/4/1
f 85/5/1 86/6/1 87/7/1 88/8/1
f 89/9/1 90/10/1 91/11/1 92/12/1
f 93/1/1 94/2/1 95/3/1 96/4/1
f 97/1/1 98/2/1 99/3/1 100/4/1
f 101/21/1 102/22/1 103/23/1 104/24/1
f 105/25/1 106/26/1 107/27/1 108/28/1
f 109/1/1 110/2/1 111/3/1 112/4/1
f 113/21/1 114/22/1 115/23/1 116/24/1
f 117/25/1 118/26/1 119/27/1 120/28/1
f 121/1/1 122/2/1 123/3/1 124/4/1
f 125/1/1 126/2/1 127/3/1 128/4/1
f 129/1/1 130/2/1 131/3/1 132/4/1
f 133/1/1 134/2/1 135/3/1 136/4/1
f 137/1/1 138/2/1 139/3/1 140/4/1
f 141/21/1 142/22/1 143/23/1 144/24/1
f 145/25/1 146/26/1 147/27/1 148/28/1
f 149/13/1 150/14/1 151/15/1 152/16/1
f 153/17/1 154/18/1 155/19/1 156/20/1
f 157/1/1 158/2/1 159/3/1 160/4/1
f 161/1/1 162/2/1 163/3/1 164/4/1
f 165/1/1 166/2/1 167/3/1 168/4/1
f 169/21/1 170/22/1 171/23/1 172/24/1
f 173/25/1 174/26/1 175/27/1 176/28/1
f 177/1/1 178/2/1 179/3/1 180/4/1
f 181/5/1 182/6/1 183/7/1 184/8/1
f 185/9/1 186/10/1 187/11/1 188/12/1
f 189/1/1 190/2/1 191/3/1 192/4/1
f 193/1/1 194/2/1 195/3/1 196/4/1
f 197/5/1 198/6/1 199/7/1 200/8/1
f 201/9/1 202/10/1 203/11/1 204/12/1
f 205/21/1 206/22/1 207/23/1 208/24/1
f 209/25/1 210/26/1 211/27/1 212/28/1
f 213/21/1 214/22/1 215/23/1 216/24/1
f 217/25/1 218/26/1 219/27/1 220/28/1
f 221/1/1 222/2/1 223/3/1 224/4/1
f 225/1/1 226/2/1 227/3/1 228/4/1
f 229/1/1 230/2/1 231/3/1 232/4/1
f 233/1/1 234/2/1 235/3/1 236/4/1
f 237/1/1 238/2/1 239/3/1 240/4/1
f 241/1/1 242/2/1 243/3/1 244/4/1
f 245/1/1 246/2/1 247/3/1 248/4/1
f 249/1/1 250/2/1 251/3/1 252/4/1
f 253/5/1 254/6/1 255/7/1 256/8/1
f 257/9/1 258/10/1 259/11/1 260/12/1
f 261/1/1 262/2/1 263/3/1 264/4/1
f 265/1/1 266/2/1 267/3/1 268/4/1
f 269/21/1 270/22/1 271/23/1 272/24/1
f 273/25/1 274/26/1 275/27/1 276/28/1
f 277/1/1 278/2/1 279/3/1 280/4/1
f 281/1/1 282/2/1 283/3/1 284/4/1
f 285/1/1 286/2/1 287/3/1 288/4/1
f 289/1/1 290/2/1 291/3/1 292/4/1
f 293/1/1 294/2/1 295/3/1 296/4/1
f 297/1/1 298/2/1 299/3/1 300/4/1
f 301/29/1 302/30/1 303/31/1 304/32/1
f 305/1/1 306/2/1 307/3/1 308/4/1
f 309/33/1 310/34/1 311/35/1 312/36/1
f 313/1/1 314/2/1 315/3/1 316/4/1
f 317/37/1 318/38/1 319/39/1 320/40/1
f 321/1/1 322/2/1 323/3/1 324/4/1
f 325/41/1 326/42/1 327/43/1 328/44/1
f 329/1/1 330/2/1 331/3/1 332/4/1
f 333/45/1 334/46/1 335/47/1 336/48/1
f 337/41/1 338/42/1 339/43/1 340/44/1
f 341/45/1 342/46/1 343/47/1 344/48/1
f 345/1/1 346/2/1 347/3/1 348/4/1
f 349/1/1 350/2/1 351/3/1 352/4/1
f 353/1/1 354/2/1 355/3/1 356/4/1
f 357/5/1 358/6/1 359/7/1 360/8/1
f 361/9/1 362/10/1 363/11/1 364/12/1
f 365/21/1 366/22/1 367/23/1 368/24/1
f 369/25/1 370/26/1 371/27/1 372/28/1
f 373/5/1 374/6/1 375/7/1 376/8/1
f 377/9/1 378/10/1 379/11/1 380/12/1
f 381/5/1 382/6/1 383/7/1 384/8/1
f 385/9/1 386/10/1 387/11/1 388/12/1
f 389/5/1 390/6/1 391/7/1 392/8/1
f 393/9/1 394/10/1 395/11/1 396/12/1
f 397/21/1 398/22/1 399/23/1 400/24/1
f 401/25/1 402/26/1 403/27/1 404/28/1
f 405/21/1 406/22/1 407/23/1 408/24/1
f 409/25/1 410/26/1 411/27/1 412/28/1
f 413/21/1 414/22/1 415/23/1 416/24/1
f 417/25/1 418/26/1 419/27/1 420/28/1
f 421/5/1 422/6/1 423/7/1 424/8/1
f 425/9/1 426/10/1 427/11/1 428/12/1
f 429/21/1 430/22/1 431/23/1 432/24/1
f 433/25/1 434/26/1 435/27/1 436/28/1
f 437/5/1 438/6/1 439/7/1 440/8/1
f 441/9/1 442/10/1 443/11/1 444/12/1
f 445/21/1 446/22/1 447/23/1 448/24/1
f 449/25/1 450/26/1 451/27/1 452/28/1
f 453/1/1 454/2/1 455/3/1 456/4/1
f 457/1/1 458/2/1 459/3/1 460/4/1
f 461/1/1 462/2/1 463/3/1 464/4/1
f 465/1/1 466/2/1 467/3/1 468/4/1
f 469/1/1 470/2/1 471/3/1 472/4/1
f 473/1/1 474/2/1 475/3/1 476/4/1
f 477/1/1 478/2/1 479/3/1 480/4/1
f 481/1/1 482/2/1 483/3/1 484/4/1
f 485/1/1 486/2/1 487/3/1 488/4/1
f 489/1/1 490/2/1 491/3/1 492/4/1
f 493/1/1 494/2/1 495/3/1 496/4/1
f 497/1/1 498/2/1 499/3/1 500/4/1
f 501/1/1 502/2/1 503/3/1 504/4/1
f 505/1/1 506/2/1 507/3/1 508/4/1
f 509/5/1 510/6/1 511/7/1 512/8/1
f 513/9/1 514/10/1 515/11/1 516/12/1
f 517/1/1 518/2/1 519/3/1 520/4/1
f 521/21/1 522/22/1 523/23/1 524/24/1
f 525/25/1 526/26/1 527/27/1 528/28/1
f 529/1/1 530/2/1 531/3/1 532/4/1
f 533/1/1 534/2/1 535/3/1 536/4/1
f 537/1/1 538/2/1 539/3/1 540/4/1
f 541/5/1 542/6/1 543/7/1 544/8/1
f 545/9/1 546/10/1 547/11/1 548/12/1
f 549/1/1 550/2/1 551/3/1 552/4/1
f 553/21/1 554/22/1 555/23/1 556/24/1
f 557/25/1 558/26/1 559/27/1 560/28/1
f 561/1/1 562/2/1 563/3/1 564/4/1
f 565/5/1 566/6/1 567/7/1 568/8/1
f 569/9/1 570/10/1 571/11/1 572/12/1
f 573/1/1 574/2/1 575/3/1 576/4/1
f 577/5/1 578/6/1 579/7/1 580/8/1
f 581/9/1 582/10/1 583/11/1 584/12/1
f 585/21/1 586/22/1 587/23/1 588/24/1
f 589/25/1 590/26/1 591/27/1 592/28/1
f 593/21/1 594/22/1 595/23/1 596/24/1
f 597/25/1 598/26/1 599/27/1 600/28/1
f 601/1/1 602/2/1 603/3/1 604/4/1
f 605/1/1 606/2/1 607/3/1 608/4/1
f 609/1/1 610/2/1 611/3/1 612/4/1
f 613/1/1 614/2/1 615/3/1 616/4/1
f 617/5/1 618/6/1 619/7/1 620/8/1
f 621/9/1 622/10/1 623/11/1 624/12/1
f 625/1/1 626/2/1 627/3/1 628/4/1
f 629/1/1 630/2/1 631/3/1 632/4/1
f 633/21/1 634/22/1 635/23/1 636/24/1
f 637/25/1 638/26/1 639/27/1 640/28/1
f 641/1/1 642/2/1 643/3/1 644/4/1
f 645/41/1 646/42/1 647/43/1 648/44/1
f 649/1/1 650/2/1 651/3/1 652/4/1
f 653/41/1 654/42/1 655/43/1 656/44/1
f 657/45/1 658/46/1 659/47/1 660/48/1
f 661/1/1 662/2/1 663/3/1 664/4/1
f 665/45/1 666/46/1 667/47/1 668/48/1
f 669/1/1 670/2/1 671/3/1 672/4/1
f 673/5/1 674/6/1 675/7/1 676/8/1
f 677/9/1 678/10/1 679/11/1 680/12/1
f 681/1/1 682/2/1 683/3/1 684/4/1
f 685/21/1 686/22/1 687/23/1 688/24/1
f 689/25/1 690/26/1 691/27/1 692/28/1
f 693/1/1 694/2/1 695/3/1 696/4/1
f 697/1/1 698/2/1 699/3/1 700/4/1
f 701/1/1 702/2/1 703/3/1 704/4/1
f 705/1/1 706/2/1 707/3/1 708/4/1
f 709/1/1 710/2/1 711/3/1 712/4/1
f 713/1/1 714/2/1 715/3/1 716/4/1
f 717/1/1 718/2/1 719/3/1 720/4/1
f 721/1/1 722/2/1 723/3/1 724/4/1
f 725/5/1 726/6/1 727/7/1 728/8/1
f 729/9/1 730/10/1 731/11/1 732/12/1
f 733/1/1 734/2/1 735/3/1 736/4/1
f 737/1/1 738/2/1 739/3/1 740/4/1
f 741/5/1 742/6/1 743/7/1 744/8/1
f 745/9/1 746/10/1 747/11/1 748/12/1
f 749/5/1 750/6/1 751/7/1 752/8/1
f 753/9/1 754/10/1 755/11/1 756/12/1
f 757/1/1 758/2/1 759/3/1 760/4/1
f 761/1/1 762/2/1 763/3/1 764/4/1
f 765/1/1 766/2/1 767/3/1 768/4/1
f 769/1/1 770/2/1 771/3/1 772/4/1
f 773/1/1 774/2/1 775/3/1 776/4/1
f 777/21/1 778/22/1 779/23/1 780/24/1
f 781/25/1 782/26/1 783/27/1 784/28/1
f 785/5/1 786/6/1 787/7/1 788/8/1
f 789/9/1 790/10/1 791/11/1 792/12/1
f 793/21/1 794/22/1 795/23/1 796/24/1
f 797/25/1 798/26/1 799/27/1 800/28/1
f 801/21/1 802/22/1 803/23/1 804/24/1
f 805/25/1 806/26/1 807/27/1 808/28/1
f 809/13/1 810/14/1 811/15/1 812/16/1
f 813/17/1 814/18/1 815/19/1 816/20/1
f 817/5/1 818/6/1 819/7/1 820/8/1
f 821/9/1 822/10/1 823/11/1 824/12/1
f 825/1/1 826/2/1 827/3/1 828/4/1
f 829/1/1 830/2/1 831/3/1 832/4/1
f 833/1/1 834/2/1 835/3/1 836/4/1
f 837/1/1 838/2/1 839/3/1 840/4/1
f 841/1/1 842/2/1 843/3/1 844/4/1
f 845/1/1 846/2/1 847/3/1 848/4/1
f 849/1/1 850/2/1 851/3/1 852/4/1
f 853/1/1 854/2/1 855/3/1 856/4/1
f 857/1/1 858/2/1 859/3/1 860/4/1
f 861/5/1 862/6/1 863/7/1 864/8/1
f 865/9/1 866/10/1 867/11/1 868/12/1
f 869/49/1 870/50/1 871/51/1 872/52/1
f 873/53/1 874/54/1 875/55/1 876/56/1
f 877/21/1 878/22/1 879/23/1 880/24/1
f 881/25/1 882/26/1 883/27/1 884/28/1
f 885/13/1 886/14/1 887/15/1 888/16/1
f 889/17/1 890/18/1 891/19/1 892/20/1
f 893/1/1 894/2/1 895/3/1 896/4/1
f 897/21/1 898/22/1 899/23/1 900/24/1
f 901/25/1 902/26/1 903/27/1 904/28/1
f 905/5/1 906/6/1 907/7/1 908/8/1
f 909/9/1 910/10/1 911/11/1 912/12/1
f 913/1/1 914/2/1 915/3/1 916/4/1
f 917/1/1 918/2/1 919/3/1 920/4/1
f 921/1/1 922/2/1 923/3/1 924/4/1
f 925/1/1 926/2/1 927/3/1 928/4/1
f 929/1/1 930/2/1 931/3/1 932/4/1
f 933/1/1 934/2/1 935/3/1 936/4/1
f 937/1/1 938/2/1 939/3/1 940/4/1
f 941/21/1 942/22/1 943/23/1 944/24/1
f 945/25/1 946/26/1 947/27/1 948/28/1
f 949/57/1 950/58/1 951/59/1 952/60/1
f 953/61/1 954/62/1 955/63/1 956/64/1

