# Tiled2Unity generated file. Do not modify by hand.
# Wavefront file for 'EstherStore_mesh_0004.obj'

# Vertices (Count = 160)
v -5 -60 0
v -6 -60 0
v -6 -59 0
v -5 -59 0
v -4 -60 0
v -5 -60 0
v -5 -59 0
v -4 -59 0
v -3 -60 0
v -4 -60 0
v -4 -59 0
v -3 -59 0
v -2 -60 0
v -3 -60 0
v -3 -59 0
v -2 -59 0
v -1 -60 0
v -2 -60 0
v -2 -59 0
v -1 -59 0
v 0 -60 0
v -1 -60 0
v -1 -59 0
v 0 -59 0
v -5 -61 0
v -6 -61 0
v -6 -60 0
v -5 -60 0
v -4 -61 0
v -5 -61 0
v -5 -60 0
v -4 -60 0
v -3 -61 0
v -4 -61 0
v -4 -60 0
v -3 -60 0
v -2 -61 0
v -3 -61 0
v -3 -60 0
v -2 -60 0
v -1 -61 0
v -2 -61 0
v -2 -60 0
v -1 -60 0
v 0 -61 0
v -1 -61 0
v -1 -60 0
v 0 -60 0
v -6 -72 0
v -7 -72 0
v -7 -71 0
v -6 -71 0
v -5 -72 0
v -6 -72 0
v -6 -71 0
v -5 -71 0
v -4 -72 0
v -5 -72 0
v -5 -71 0
v -4 -71 0
v -3 -72 0
v -4 -72 0
v -4 -71 0
v -3 -71 0
v -2 -72 0
v -3 -72 0
v -3 -71 0
v -2 -71 0
v -1 -72 0
v -2 -72 0
v -2 -71 0
v -1 -71 0
v 0 -72 0
v -1 -72 0
v -1 -71 0
v 0 -71 0
v -6 -73 0
v -7 -73 0
v -7 -72 0
v -6 -72 0
v -5 -73 0
v -6 -73 0
v -6 -72 0
v -5 -72 0
v -4 -73 0
v -5 -73 0
v -5 -72 0
v -4 -72 0
v -3 -73 0
v -4 -73 0
v -4 -72 0
v -3 -72 0
v -2 -73 0
v -3 -73 0
v -3 -72 0
v -2 -72 0
v -1 -73 0
v -2 -73 0
v -2 -72 0
v -1 -72 0
v 0 -73 0
v -1 -73 0
v -1 -72 0
v 0 -72 0
v -6 -74 0
v -7 -74 0
v -7 -73 0
v -6 -73 0
v -5 -74 0
v -6 -74 0
v -6 -73 0
v -5 -73 0
v -4 -74 0
v -5 -74 0
v -5 -73 0
v -4 -73 0
v -3 -74 0
v -4 -74 0
v -4 -73 0
v -3 -73 0
v -2 -74 0
v -3 -74 0
v -3 -73 0
v -2 -73 0
v -1 -74 0
v -2 -74 0
v -2 -73 0
v -1 -73 0
v 0 -74 0
v -1 -74 0
v -1 -73 0
v 0 -73 0
v -6 -75 0
v -7 -75 0
v -7 -74 0
v -6 -74 0
v -5 -75 0
v -6 -75 0
v -6 -74 0
v -5 -74 0
v -4 -75 0
v -5 -75 0
v -5 -74 0
v -4 -74 0
v -3 -75 0
v -4 -75 0
v -4 -74 0
v -3 -74 0
v -2 -75 0
v -3 -75 0
v -3 -74 0
v -2 -74 0
v -1 -75 0
v -2 -75 0
v -2 -74 0
v -1 -74 0
v 0 -75 0
v -1 -75 0
v -1 -74 0
v 0 -74 0

# Texture cooridinates (Count = 48)
vt 0.2081845 0.8056777
vt 0.2287466 0.8056777
vt 0.2287466 0.8332112
vt 0.2081845 0.8332112
vt 0.1873782 0.8056777
vt 0.2079404 0.8056777
vt 0.2079404 0.8332112
vt 0.1873782 0.8332112
vt 0.2081845 0.7778999
vt 0.2287466 0.7778999
vt 0.2287466 0.8054335
vt 0.2081845 0.8054335
vt 0.1873782 0.7778999
vt 0.2079404 0.7778999
vt 0.2079404 0.8054335
vt 0.1873782 0.8054335
vt 0.7283405 0.1112332
vt 0.7489026 0.1112332
vt 0.7489026 0.1387668
vt 0.7283405 0.1387668
vt 0.7075343 0.1112332
vt 0.7280964 0.1112332
vt 0.7280964 0.1387668
vt 0.7075343 0.1387668
vt 0.7283405 0.08345538
vt 0.7489026 0.08345538
vt 0.7489026 0.110989
vt 0.7283405 0.110989
vt 0.7075343 0.08345538
vt 0.7280964 0.08345538
vt 0.7280964 0.110989
vt 0.7075343 0.110989
vt 0.7283405 0.05567765
vt 0.7489026 0.05567765
vt 0.7489026 0.08321124
vt 0.7283405 0.08321124
vt 0.7075343 0.05567765
vt 0.7280964 0.05567765
vt 0.7280964 0.08321124
vt 0.7075343 0.08321124
vt 0.7283405 0.02789986
vt 0.7489026 0.02789986
vt 0.7489026 0.05543351
vt 0.7283405 0.05543351
vt 0.7075343 0.02789986
vt 0.7280964 0.02789986
vt 0.7280964 0.05543351
vt 0.7075343 0.05543351

# Normal
vn 0 0 -1

# Mesh description
g EstherStore_mesh_0004

# Faces
f 1/1/1 2/2/1 3/3/1 4/4/1
f 5/5/1 6/6/1 7/7/1 8/8/1
f 9/5/1 10/6/1 11/7/1 12/8/1
f 13/5/1 14/6/1 15/7/1 16/8/1
f 17/5/1 18/6/1 19/7/1 20/8/1
f 21/5/1 22/6/1 23/7/1 24/8/1
f 25/9/1 26/10/1 27/11/1 28/12/1
f 29/13/1 30/14/1 31/15/1 32/16/1
f 33/13/1 34/14/1 35/15/1 36/16/1
f 37/13/1 38/14/1 39/15/1 40/16/1
f 41/13/1 42/14/1 43/15/1 44/16/1
f 45/13/1 46/14/1 47/15/1 48/16/1
f 49/17/1 50/18/1 51/19/1 52/20/1
f 53/21/1 54/22/1 55/23/1 56/24/1
f 57/21/1 58/22/1 59/23/1 60/24/1
f 61/21/1 62/22/1 63/23/1 64/24/1
f 65/21/1 66/22/1 67/23/1 68/24/1
f 69/21/1 70/22/1 71/23/1 72/24/1
f 73/21/1 74/22/1 75/23/1 76/24/1
f 77/25/1 78/26/1 79/27/1 80/28/1
f 81/29/1 82/30/1 83/31/1 84/32/1
f 85/29/1 86/30/1 87/31/1 88/32/1
f 89/29/1 90/30/1 91/31/1 92/32/1
f 93/29/1 94/30/1 95/31/1 96/32/1
f 97/29/1 98/30/1 99/31/1 100/32/1
f 101/29/1 102/30/1 103/31/1 104/32/1
f 105/33/1 106/34/1 107/35/1 108/36/1
f 109/37/1 110/38/1 111/39/1 112/40/1
f 113/37/1 114/38/1 115/39/1 116/40/1
f 117/37/1 118/38/1 119/39/1 120/40/1
f 121/37/1 122/38/1 123/39/1 124/40/1
f 125/37/1 126/38/1 127/39/1 128/40/1
f 129/37/1 130/38/1 131/39/1 132/40/1
f 133/41/1 134/42/1 135/43/1 136/44/1
f 137/45/1 138/46/1 139/47/1 140/48/1
f 141/45/1 142/46/1 143/47/1 144/48/1
f 145/45/1 146/46/1 147/47/1 148/48/1
f 149/45/1 150/46/1 151/47/1 152/48/1
f 153/45/1 154/46/1 155/47/1 156/48/1
f 157/45/1 158/46/1 159/47/1 160/48/1

