# Tiled2Unity generated file. Do not modify by hand.
# Wavefront file for 'DBP_mesh_0012.obj'

# Vertices (Count = 292)
v -8 -5 0
v -9 -5 0
v -9 -4 0
v -8 -4 0
v -7 -5 0
v -8 -5 0
v -8 -4 0
v -7 -4 0
v -6 -5 0
v -7 -5 0
v -7 -4 0
v -6 -4 0
v -5 -5 0
v -6 -5 0
v -6 -4 0
v -5 -4 0
v -37 -15 0
v -38 -15 0
v -38 -14 0
v -37 -14 0
v -36 -15 0
v -37 -15 0
v -37 -14 0
v -36 -14 0
v -35 -15 0
v -36 -15 0
v -36 -14 0
v -35 -14 0
v -34 -15 0
v -35 -15 0
v -35 -14 0
v -34 -14 0
v -33 -15 0
v -34 -15 0
v -34 -14 0
v -33 -14 0
v -32 -15 0
v -33 -15 0
v -33 -14 0
v -32 -14 0
v -31 -15 0
v -32 -15 0
v -32 -14 0
v -31 -14 0
v -30 -15 0
v -31 -15 0
v -31 -14 0
v -30 -14 0
v -29 -15 0
v -30 -15 0
v -30 -14 0
v -29 -14 0
v -28 -15 0
v -29 -15 0
v -29 -14 0
v -28 -14 0
v -27 -15 0
v -28 -15 0
v -28 -14 0
v -27 -14 0
v -37 -16 0
v -38 -16 0
v -38 -15 0
v -37 -15 0
v -36 -16 0
v -37 -16 0
v -37 -15 0
v -36 -15 0
v -35 -16 0
v -36 -16 0
v -36 -15 0
v -35 -15 0
v -34 -16 0
v -35 -16 0
v -35 -15 0
v -34 -15 0
v -33 -16 0
v -34 -16 0
v -34 -15 0
v -33 -15 0
v -32 -16 0
v -33 -16 0
v -33 -15 0
v -32 -15 0
v -31 -16 0
v -32 -16 0
v -32 -15 0
v -31 -15 0
v -30 -16 0
v -31 -16 0
v -31 -15 0
v -30 -15 0
v -29 -16 0
v -30 -16 0
v -30 -15 0
v -29 -15 0
v -28 -16 0
v -29 -16 0
v -29 -15 0
v -28 -15 0
v -27 -16 0
v -28 -16 0
v -28 -15 0
v -27 -15 0
v -15 -22 0
v -16 -22 0
v -16 -21 0
v -15 -21 0
v -14 -22 0
v -15 -22 0
v -15 -21 0
v -14 -21 0
v -13 -22 0
v -14 -22 0
v -14 -21 0
v -13 -21 0
v -12 -22 0
v -13 -22 0
v -13 -21 0
v -12 -21 0
v -11 -22 0
v -12 -22 0
v -12 -21 0
v -11 -21 0
v -10 -22 0
v -11 -22 0
v -11 -21 0
v -10 -21 0
v -20 -24 0
v -21 -24 0
v -21 -23 0
v -20 -23 0
v -19 -24 0
v -20 -24 0
v -20 -23 0
v -19 -23 0
v -18 -24 0
v -19 -24 0
v -19 -23 0
v -18 -23 0
v -17 -24 0
v -18 -24 0
v -18 -23 0
v -17 -23 0
v -16 -24 0
v -17 -24 0
v -17 -23 0
v -16 -23 0
v -15 -24 0
v -16 -24 0
v -16 -23 0
v -15 -23 0
v -40 -38 0
v -41 -38 0
v -41 -37 0
v -40 -37 0
v -39 -38 0
v -40 -38 0
v -40 -37 0
v -39 -37 0
v -38 -38 0
v -39 -38 0
v -39 -37 0
v -38 -37 0
v -37 -38 0
v -38 -38 0
v -38 -37 0
v -37 -37 0
v -36 -38 0
v -37 -38 0
v -37 -37 0
v -36 -37 0
v -35 -38 0
v -36 -38 0
v -36 -37 0
v -35 -37 0
v -44 -52 0
v -45 -52 0
v -45 -51 0
v -44 -51 0
v -43 -52 0
v -44 -52 0
v -44 -51 0
v -43 -51 0
v -42 -52 0
v -43 -52 0
v -43 -51 0
v -42 -51 0
v -41 -52 0
v -42 -52 0
v -42 -51 0
v -41 -51 0
v -40 -52 0
v -41 -52 0
v -41 -51 0
v -40 -51 0
v -39 -52 0
v -40 -52 0
v -40 -51 0
v -39 -51 0
v -38 -52 0
v -39 -52 0
v -39 -51 0
v -38 -51 0
v -37 -52 0
v -38 -52 0
v -38 -51 0
v -37 -51 0
v -36 -52 0
v -37 -52 0
v -37 -51 0
v -36 -51 0
v -35 -52 0
v -36 -52 0
v -36 -51 0
v -35 -51 0
v -32 -53 0
v -33 -53 0
v -33 -52 0
v -32 -52 0
v -31 -53 0
v -32 -53 0
v -32 -52 0
v -31 -52 0
v -30 -53 0
v -31 -53 0
v -31 -52 0
v -30 -52 0
v -29 -53 0
v -30 -53 0
v -30 -52 0
v -29 -52 0
v -28 -53 0
v -29 -53 0
v -29 -52 0
v -28 -52 0
v -6 -63 0
v -7 -63 0
v -7 -62 0
v -6 -62 0
v -5 -63 0
v -6 -63 0
v -6 -62 0
v -5 -62 0
v -4 -63 0
v -5 -63 0
v -5 -62 0
v -4 -62 0
v -3 -63 0
v -4 -63 0
v -4 -62 0
v -3 -62 0
v -48 -80 0
v -49 -80 0
v -49 -79 0
v -48 -79 0
v -47 -80 0
v -48 -80 0
v -48 -79 0
v -47 -79 0
v -46 -80 0
v -47 -80 0
v -47 -79 0
v -46 -79 0
v -45 -80 0
v -46 -80 0
v -46 -79 0
v -45 -79 0
v -44 -80 0
v -45 -80 0
v -45 -79 0
v -44 -79 0
v -43 -80 0
v -44 -80 0
v -44 -79 0
v -43 -79 0
v -42 -80 0
v -43 -80 0
v -43 -79 0
v -42 -79 0
v -41 -80 0
v -42 -80 0
v -42 -79 0
v -41 -79 0
v -40 -80 0
v -41 -80 0
v -41 -79 0
v -40 -79 0
v -39 -80 0
v -40 -80 0
v -40 -79 0
v -39 -79 0

# Texture cooridinates (Count = 276)
vt 0.3794324 0.9738063
vt 0.3964297 0.9738063
vt 0.3964297 0.9998779
vt 0.3794324 0.9998779
vt 0.362191 0.9738063
vt 0.3791883 0.9738063
vt 0.3791883 0.9998779
vt 0.362191 0.9998779
vt 0.3449497 0.9738063
vt 0.3619469 0.9738063
vt 0.3619469 0.9998779
vt 0.3449497 0.9998779
vt 0.3277083 0.9738063
vt 0.3447055 0.9738063
vt 0.3447055 0.9998779
vt 0.3277083 0.9998779
vt 0.4656393 0.5790694
vt 0.4826365 0.5790694
vt 0.4826365 0.605141
vt 0.4656393 0.605141
vt 0.4483979 0.5790694
vt 0.4653952 0.5790694
vt 0.4653952 0.605141
vt 0.4483979 0.605141
vt 0.4311565 0.5790694
vt 0.4481538 0.5790694
vt 0.4481538 0.605141
vt 0.4311565 0.605141
vt 0.4139152 0.5790694
vt 0.4309124 0.5790694
vt 0.4309124 0.605141
vt 0.4139152 0.605141
vt 0.3966738 0.5790694
vt 0.413671 0.5790694
vt 0.413671 0.605141
vt 0.3966738 0.605141
vt 0.3794324 0.5790694
vt 0.3964297 0.5790694
vt 0.3964297 0.605141
vt 0.3794324 0.605141
vt 0.362191 0.5790694
vt 0.3791883 0.5790694
vt 0.3791883 0.605141
vt 0.362191 0.605141
vt 0.3449497 0.5790694
vt 0.3619469 0.5790694
vt 0.3619469 0.605141
vt 0.3449497 0.605141
vt 0.3277083 0.5790694
vt 0.3447055 0.5790694
vt 0.3447055 0.605141
vt 0.3277083 0.605141
vt 0.3104669 0.5790694
vt 0.3274641 0.5790694
vt 0.3274641 0.605141
vt 0.3104669 0.605141
vt 0.2932255 0.5790694
vt 0.3102227 0.5790694
vt 0.3102227 0.605141
vt 0.2932255 0.605141
vt 0.4656393 0.5527537
vt 0.4826365 0.5527537
vt 0.4826365 0.5788253
vt 0.4656393 0.5788253
vt 0.4483979 0.5527537
vt 0.4653952 0.5527537
vt 0.4653952 0.5788253
vt 0.4483979 0.5788253
vt 0.4311565 0.5527537
vt 0.4481538 0.5527537
vt 0.4481538 0.5788253
vt 0.4311565 0.5788253
vt 0.4139152 0.5527537
vt 0.4309124 0.5527537
vt 0.4309124 0.5788253
vt 0.4139152 0.5788253
vt 0.3966738 0.5527537
vt 0.413671 0.5527537
vt 0.413671 0.5788253
vt 0.3966738 0.5788253
vt 0.3794324 0.5527537
vt 0.3964297 0.5527537
vt 0.3964297 0.5788253
vt 0.3794324 0.5788253
vt 0.362191 0.5527537
vt 0.3791883 0.5527537
vt 0.3791883 0.5788253
vt 0.362191 0.5788253
vt 0.3449497 0.5527537
vt 0.3619469 0.5527537
vt 0.3619469 0.5788253
vt 0.3449497 0.5788253
vt 0.3277083 0.5527537
vt 0.3447055 0.5527537
vt 0.3447055 0.5788253
vt 0.3277083 0.5788253
vt 0.3104669 0.5527537
vt 0.3274641 0.5527537
vt 0.3274641 0.5788253
vt 0.3104669 0.5788253
vt 0.2932255 0.5527537
vt 0.3102227 0.5527537
vt 0.3102227 0.5788253
vt 0.2932255 0.5788253
vt 0.5001221 0.2895958
vt 0.5171193 0.2895958
vt 0.5171193 0.3156674
vt 0.5001221 0.3156674
vt 0.4828807 0.2895958
vt 0.4998779 0.2895958
vt 0.4998779 0.3156674
vt 0.4828807 0.3156674
vt 0.4656393 0.2895958
vt 0.4826365 0.2895958
vt 0.4826365 0.3156674
vt 0.4656393 0.3156674
vt 0.4483979 0.2895958
vt 0.4653952 0.2895958
vt 0.4653952 0.3156674
vt 0.4483979 0.3156674
vt 0.4311565 0.2895958
vt 0.4481538 0.2895958
vt 0.4481538 0.3156674
vt 0.4311565 0.3156674
vt 0.4139152 0.2895958
vt 0.4309124 0.2895958
vt 0.4309124 0.3156674
vt 0.4139152 0.3156674
vt 0.5001221 0.131701
vt 0.5171193 0.131701
vt 0.5171193 0.1577727
vt 0.5001221 0.1577727
vt 0.4828807 0.131701
vt 0.4998779 0.131701
vt 0.4998779 0.1577727
vt 0.4828807 0.1577727
vt 0.4656393 0.131701
vt 0.4826365 0.131701
vt 0.4826365 0.1577727
vt 0.4656393 0.1577727
vt 0.4483979 0.131701
vt 0.4653952 0.131701
vt 0.4653952 0.1577727
vt 0.4483979 0.1577727
vt 0.4311565 0.131701
vt 0.4481538 0.131701
vt 0.4481538 0.1577727
vt 0.4311565 0.1577727
vt 0.4139152 0.131701
vt 0.4309124 0.131701
vt 0.4309124 0.1577727
vt 0.4139152 0.1577727
vt 0.5690876 0.5527537
vt 0.5860848 0.5527537
vt 0.5860848 0.5788253
vt 0.5690876 0.5788253
vt 0.5518462 0.5527537
vt 0.5688434 0.5527537
vt 0.5688434 0.5788253
vt 0.5518462 0.5788253
vt 0.5346048 0.5527537
vt 0.5516021 0.5527537
vt 0.5516021 0.5788253
vt 0.5346048 0.5788253
vt 0.5173634 0.5527537
vt 0.5343607 0.5527537
vt 0.5343607 0.5788253
vt 0.5173634 0.5788253
vt 0.5001221 0.5527537
vt 0.5171193 0.5527537
vt 0.5171193 0.5788253
vt 0.5001221 0.5788253
vt 0.4828807 0.5527537
vt 0.4998779 0.5527537
vt 0.4998779 0.5788253
vt 0.4828807 0.5788253
vt 0.3277083 0.7106484
vt 0.3447055 0.7106484
vt 0.3447055 0.73672
vt 0.3277083 0.73672
vt 0.3104669 0.7106484
vt 0.3274641 0.7106484
vt 0.3274641 0.73672
vt 0.3104669 0.73672
vt 0.2932255 0.7106484
vt 0.3102227 0.7106484
vt 0.3102227 0.73672
vt 0.2932255 0.73672
vt 0.2759841 0.7106484
vt 0.2929814 0.7106484
vt 0.2929814 0.73672
vt 0.2759841 0.73672
vt 0.2587427 0.7106484
vt 0.27574 0.7106484
vt 0.27574 0.73672
vt 0.2587427 0.73672
vt 0.2415014 0.7106484
vt 0.2584986 0.7106484
vt 0.2584986 0.73672
vt 0.2415014 0.73672
vt 0.22426 0.7106484
vt 0.2412572 0.7106484
vt 0.2412572 0.73672
vt 0.22426 0.73672
vt 0.2070186 0.7106484
vt 0.2240159 0.7106484
vt 0.2240159 0.73672
vt 0.2070186 0.73672
vt 0.1897772 0.7106484
vt 0.2067745 0.7106484
vt 0.2067745 0.73672
vt 0.1897772 0.73672
vt 0.1725359 0.7106484
vt 0.1895331 0.7106484
vt 0.1895331 0.73672
vt 0.1725359 0.73672
vt 0.2932255 0.8422273
vt 0.3102227 0.8422273
vt 0.3102227 0.868299
vt 0.2932255 0.868299
vt 0.2759841 0.8422273
vt 0.2929814 0.8422273
vt 0.2929814 0.868299
vt 0.2759841 0.868299
vt 0.2587427 0.8422273
vt 0.27574 0.8422273
vt 0.27574 0.868299
vt 0.2587427 0.868299
vt 0.2415014 0.8422273
vt 0.2584986 0.8422273
vt 0.2584986 0.868299
vt 0.2415014 0.868299
vt 0.22426 0.8422273
vt 0.2412572 0.8422273
vt 0.2412572 0.868299
vt 0.22426 0.868299
vt 0.1552945 0.7106484
vt 0.1722917 0.7106484
vt 0.1722917 0.73672
vt 0.1552945 0.73672
vt 0.1380531 0.7106484
vt 0.1550503 0.7106484
vt 0.1550503 0.73672
vt 0.1380531 0.73672
vt 0.1208117 0.7106484
vt 0.137809 0.7106484
vt 0.137809 0.73672
vt 0.1208117 0.73672
vt 0.1035703 0.7106484
vt 0.1205676 0.7106484
vt 0.1205676 0.73672
vt 0.1035703 0.73672
vt 0.08632897 0.7106484
vt 0.1033262 0.7106484
vt 0.1033262 0.73672
vt 0.08632897 0.73672
vt 0.06908759 0.7106484
vt 0.08608483 0.7106484
vt 0.08608483 0.73672
vt 0.06908759 0.73672
vt 0.05184621 0.7106484
vt 0.06884345 0.7106484
vt 0.06884345 0.73672
vt 0.05184621 0.73672
vt 0.03460483 0.7106484
vt 0.05160207 0.7106484
vt 0.05160207 0.73672
vt 0.03460483 0.73672
vt 0.01736345 0.7106484
vt 0.03436069 0.7106484
vt 0.03436069 0.73672
vt 0.01736345 0.73672
vt 0.0001220703 0.7106484
vt 0.01711931 0.7106484
vt 0.01711931 0.73672
vt 0.0001220703 0.73672

# Normal
vn 0 0 -1

# Mesh description
g DBP_mesh_0012

# Faces
f 1/1/1 2/2/1 3/3/1 4/4/1
f 5/5/1 6/6/1 7/7/1 8/8/1
f 9/9/1 10/10/1 11/11/1 12/12/1
f 13/13/1 14/14/1 15/15/1 16/16/1
f 17/17/1 18/18/1 19/19/1 20/20/1
f 21/21/1 22/22/1 23/23/1 24/24/1
f 25/25/1 26/26/1 27/27/1 28/28/1
f 29/29/1 30/30/1 31/31/1 32/32/1
f 33/33/1 34/34/1 35/35/1 36/36/1
f 37/37/1 38/38/1 39/39/1 40/40/1
f 41/41/1 42/42/1 43/43/1 44/44/1
f 45/45/1 46/46/1 47/47/1 48/48/1
f 49/49/1 50/50/1 51/51/1 52/52/1
f 53/53/1 54/54/1 55/55/1 56/56/1
f 57/57/1 58/58/1 59/59/1 60/60/1
f 61/61/1 62/62/1 63/63/1 64/64/1
f 65/65/1 66/66/1 67/67/1 68/68/1
f 69/69/1 70/70/1 71/71/1 72/72/1
f 73/73/1 74/74/1 75/75/1 76/76/1
f 77/77/1 78/78/1 79/79/1 80/80/1
f 81/81/1 82/82/1 83/83/1 84/84/1
f 85/85/1 86/86/1 87/87/1 88/88/1
f 89/89/1 90/90/1 91/91/1 92/92/1
f 93/93/1 94/94/1 95/95/1 96/96/1
f 97/97/1 98/98/1 99/99/1 100/100/1
f 101/101/1 102/102/1 103/103/1 104/104/1
f 105/105/1 106/106/1 107/107/1 108/108/1
f 109/109/1 110/110/1 111/111/1 112/112/1
f 113/113/1 114/114/1 115/115/1 116/116/1
f 117/117/1 118/118/1 119/119/1 120/120/1
f 121/121/1 122/122/1 123/123/1 124/124/1
f 125/125/1 126/126/1 127/127/1 128/128/1
f 129/129/1 130/130/1 131/131/1 132/132/1
f 133/133/1 134/134/1 135/135/1 136/136/1
f 137/137/1 138/138/1 139/139/1 140/140/1
f 141/141/1 142/142/1 143/143/1 144/144/1
f 145/145/1 146/146/1 147/147/1 148/148/1
f 149/149/1 150/150/1 151/151/1 152/152/1
f 153/153/1 154/154/1 155/155/1 156/156/1
f 157/157/1 158/158/1 159/159/1 160/160/1
f 161/161/1 162/162/1 163/163/1 164/164/1
f 165/165/1 166/166/1 167/167/1 168/168/1
f 169/169/1 170/170/1 171/171/1 172/172/1
f 173/173/1 174/174/1 175/175/1 176/176/1
f 177/177/1 178/178/1 179/179/1 180/180/1
f 181/181/1 182/182/1 183/183/1 184/184/1
f 185/185/1 186/186/1 187/187/1 188/188/1
f 189/189/1 190/190/1 191/191/1 192/192/1
f 193/193/1 194/194/1 195/195/1 196/196/1
f 197/197/1 198/198/1 199/199/1 200/200/1
f 201/201/1 202/202/1 203/203/1 204/204/1
f 205/205/1 206/206/1 207/207/1 208/208/1
f 209/209/1 210/210/1 211/211/1 212/212/1
f 213/213/1 214/214/1 215/215/1 216/216/1
f 217/217/1 218/218/1 219/219/1 220/220/1
f 221/221/1 222/222/1 223/223/1 224/224/1
f 225/225/1 226/226/1 227/227/1 228/228/1
f 229/229/1 230/230/1 231/231/1 232/232/1
f 233/233/1 234/234/1 235/235/1 236/236/1
f 237/1/1 238/2/1 239/3/1 240/4/1
f 241/5/1 242/6/1 243/7/1 244/8/1
f 245/9/1 246/10/1 247/11/1 248/12/1
f 249/13/1 250/14/1 251/15/1 252/16/1
f 253/237/1 254/238/1 255/239/1 256/240/1
f 257/241/1 258/242/1 259/243/1 260/244/1
f 261/245/1 262/246/1 263/247/1 264/248/1
f 265/249/1 266/250/1 267/251/1 268/252/1
f 269/253/1 270/254/1 271/255/1 272/256/1
f 273/257/1 274/258/1 275/259/1 276/260/1
f 277/261/1 278/262/1 279/263/1 280/264/1
f 281/265/1 282/266/1 283/267/1 284/268/1
f 285/269/1 286/270/1 287/271/1 288/272/1
f 289/273/1 290/274/1 291/275/1 292/276/1

