# Tiled2Unity generated file. Do not modify by hand.
# Wavefront file for 'DBP_mesh_0004.obj'

# Vertices (Count = 472)
v -31 -76 0
v -32 -76 0
v -32 -75 0
v -31 -75 0
v -31 -77 0
v -32 -77 0
v -32 -76 0
v -31 -76 0
v -30 -77 0
v -31 -77 0
v -31 -76 0
v -30 -76 0
v -31 -78 0
v -32 -78 0
v -32 -77 0
v -31 -77 0
v -30 -78 0
v -31 -78 0
v -31 -77 0
v -30 -77 0
v -29 -78 0
v -30 -78 0
v -30 -77 0
v -29 -77 0
v -14 -78 0
v -15 -78 0
v -15 -77 0
v -14 -77 0
v -32 -79 0
v -33 -79 0
v -33 -78 0
v -32 -78 0
v -31 -79 0
v -32 -79 0
v -32 -78 0
v -31 -78 0
v -30 -79 0
v -31 -79 0
v -31 -78 0
v -30 -78 0
v -29 -79 0
v -30 -79 0
v -30 -78 0
v -29 -78 0
v -28 -79 0
v -29 -79 0
v -29 -78 0
v -28 -78 0
v -21 -79 0
v -22 -79 0
v -22 -78 0
v -21 -78 0
v -14 -79 0
v -15 -79 0
v -15 -78 0
v -14 -78 0
v -13 -79 0
v -14 -79 0
v -14 -78 0
v -13 -78 0
v -32 -80 0
v -33 -80 0
v -33 -79 0
v -32 -79 0
v -31 -80 0
v -32 -80 0
v -32 -79 0
v -31 -79 0
v -30 -80 0
v -31 -80 0
v -31 -79 0
v -30 -79 0
v -29 -80 0
v -30 -80 0
v -30 -79 0
v -29 -79 0
v -28 -80 0
v -29 -80 0
v -29 -79 0
v -28 -79 0
v -27 -80 0
v -28 -80 0
v -28 -79 0
v -27 -79 0
v -22 -80 0
v -23 -80 0
v -23 -79 0
v -22 -79 0
v -21 -80 0
v -22 -80 0
v -22 -79 0
v -21 -79 0
v -14 -80 0
v -15 -80 0
v -15 -79 0
v -14 -79 0
v -13 -80 0
v -14 -80 0
v -14 -79 0
v -13 -79 0
v -12 -80 0
v -13 -80 0
v -13 -79 0
v -12 -79 0
v -31 -81 0
v -32 -81 0
v -32 -80 0
v -31 -80 0
v -30 -81 0
v -31 -81 0
v -31 -80 0
v -30 -80 0
v -29 -81 0
v -30 -81 0
v -30 -80 0
v -29 -80 0
v -28 -81 0
v -29 -81 0
v -29 -80 0
v -28 -80 0
v -27 -81 0
v -28 -81 0
v -28 -80 0
v -27 -80 0
v -26 -81 0
v -27 -81 0
v -27 -80 0
v -26 -80 0
v -23 -81 0
v -24 -81 0
v -24 -80 0
v -23 -80 0
v -22 -81 0
v -23 -81 0
v -23 -80 0
v -22 -80 0
v -21 -81 0
v -22 -81 0
v -22 -80 0
v -21 -80 0
v -15 -81 0
v -16 -81 0
v -16 -80 0
v -15 -80 0
v -14 -81 0
v -15 -81 0
v -15 -80 0
v -14 -80 0
v -13 -81 0
v -14 -81 0
v -14 -80 0
v -13 -80 0
v -12 -81 0
v -13 -81 0
v -13 -80 0
v -12 -80 0
v -11 -81 0
v -12 -81 0
v -12 -80 0
v -11 -80 0
v -30 -82 0
v -31 -82 0
v -31 -81 0
v -30 -81 0
v -29 -82 0
v -30 -82 0
v -30 -81 0
v -29 -81 0
v -28 -82 0
v -29 -82 0
v -29 -81 0
v -28 -81 0
v -27 -82 0
v -28 -82 0
v -28 -81 0
v -27 -81 0
v -26 -82 0
v -27 -82 0
v -27 -81 0
v -26 -81 0
v -25 -82 0
v -26 -82 0
v -26 -81 0
v -25 -81 0
v -24 -82 0
v -25 -82 0
v -25 -81 0
v -24 -81 0
v -23 -82 0
v -24 -82 0
v -24 -81 0
v -23 -81 0
v -22 -82 0
v -23 -82 0
v -23 -81 0
v -22 -81 0
v -21 -82 0
v -22 -82 0
v -22 -81 0
v -21 -81 0
v -15 -82 0
v -16 -82 0
v -16 -81 0
v -15 -81 0
v -14 -82 0
v -15 -82 0
v -15 -81 0
v -14 -81 0
v -13 -82 0
v -14 -82 0
v -14 -81 0
v -13 -81 0
v -12 -82 0
v -13 -82 0
v -13 -81 0
v -12 -81 0
v -11 -82 0
v -12 -82 0
v -12 -81 0
v -11 -81 0
v -10 -82 0
v -11 -82 0
v -11 -81 0
v -10 -81 0
v -9 -82 0
v -10 -82 0
v -10 -81 0
v -9 -81 0
v -8 -82 0
v -9 -82 0
v -9 -81 0
v -8 -81 0
v -7 -82 0
v -8 -82 0
v -8 -81 0
v -7 -81 0
v -29 -83 0
v -30 -83 0
v -30 -82 0
v -29 -82 0
v -28 -83 0
v -29 -83 0
v -29 -82 0
v -28 -82 0
v -27 -83 0
v -28 -83 0
v -28 -82 0
v -27 -82 0
v -26 -83 0
v -27 -83 0
v -27 -82 0
v -26 -82 0
v -25 -83 0
v -26 -83 0
v -26 -82 0
v -25 -82 0
v -24 -83 0
v -25 -83 0
v -25 -82 0
v -24 -82 0
v -23 -83 0
v -24 -83 0
v -24 -82 0
v -23 -82 0
v -22 -83 0
v -23 -83 0
v -23 -82 0
v -22 -82 0
v -21 -83 0
v -22 -83 0
v -22 -82 0
v -21 -82 0
v -14 -83 0
v -15 -83 0
v -15 -82 0
v -14 -82 0
v -13 -83 0
v -14 -83 0
v -14 -82 0
v -13 -82 0
v -12 -83 0
v -13 -83 0
v -13 -82 0
v -12 -82 0
v -11 -83 0
v -12 -83 0
v -12 -82 0
v -11 -82 0
v -10 -83 0
v -11 -83 0
v -11 -82 0
v -10 -82 0
v -9 -83 0
v -10 -83 0
v -10 -82 0
v -9 -82 0
v -8 -83 0
v -9 -83 0
v -9 -82 0
v -8 -82 0
v -7 -83 0
v -8 -83 0
v -8 -82 0
v -7 -82 0
v -6 -83 0
v -7 -83 0
v -7 -82 0
v -6 -82 0
v -28 -84 0
v -29 -84 0
v -29 -83 0
v -28 -83 0
v -27 -84 0
v -28 -84 0
v -28 -83 0
v -27 -83 0
v -26 -84 0
v -27 -84 0
v -27 -83 0
v -26 -83 0
v -25 -84 0
v -26 -84 0
v -26 -83 0
v -25 -83 0
v -24 -84 0
v -25 -84 0
v -25 -83 0
v -24 -83 0
v -23 -84 0
v -24 -84 0
v -24 -83 0
v -23 -83 0
v -22 -84 0
v -23 -84 0
v -23 -83 0
v -22 -83 0
v -13 -84 0
v -14 -84 0
v -14 -83 0
v -13 -83 0
v -12 -84 0
v -13 -84 0
v -13 -83 0
v -12 -83 0
v -11 -84 0
v -12 -84 0
v -12 -83 0
v -11 -83 0
v -10 -84 0
v -11 -84 0
v -11 -83 0
v -10 -83 0
v -9 -84 0
v -10 -84 0
v -10 -83 0
v -9 -83 0
v -8 -84 0
v -9 -84 0
v -9 -83 0
v -8 -83 0
v -7 -84 0
v -8 -84 0
v -8 -83 0
v -7 -83 0
v -6 -84 0
v -7 -84 0
v -7 -83 0
v -6 -83 0
v -5 -84 0
v -6 -84 0
v -6 -83 0
v -5 -83 0
v -4 -84 0
v -5 -84 0
v -5 -83 0
v -4 -83 0
v -27 -85 0
v -28 -85 0
v -28 -84 0
v -27 -84 0
v -26 -85 0
v -27 -85 0
v -27 -84 0
v -26 -84 0
v -25 -85 0
v -26 -85 0
v -26 -84 0
v -25 -84 0
v -24 -85 0
v -25 -85 0
v -25 -84 0
v -24 -84 0
v -23 -85 0
v -24 -85 0
v -24 -84 0
v -23 -84 0
v -12 -85 0
v -13 -85 0
v -13 -84 0
v -12 -84 0
v -11 -85 0
v -12 -85 0
v -12 -84 0
v -11 -84 0
v -10 -85 0
v -11 -85 0
v -11 -84 0
v -10 -84 0
v -9 -85 0
v -10 -85 0
v -10 -84 0
v -9 -84 0
v -8 -85 0
v -9 -85 0
v -9 -84 0
v -8 -84 0
v -7 -85 0
v -8 -85 0
v -8 -84 0
v -7 -84 0
v -6 -85 0
v -7 -85 0
v -7 -84 0
v -6 -84 0
v -5 -85 0
v -6 -85 0
v -6 -84 0
v -5 -84 0
v -4 -85 0
v -5 -85 0
v -5 -84 0
v -4 -84 0
v -26 -86 0
v -27 -86 0
v -27 -85 0
v -26 -85 0
v -25 -86 0
v -26 -86 0
v -26 -85 0
v -25 -85 0
v -24 -86 0
v -25 -86 0
v -25 -85 0
v -24 -85 0
v -7 -86 0
v -8 -86 0
v -8 -85 0
v -7 -85 0
v -6 -86 0
v -7 -86 0
v -7 -85 0
v -6 -85 0
v -5 -86 0
v -6 -86 0
v -6 -85 0
v -5 -85 0
v -4 -86 0
v -5 -86 0
v -5 -85 0
v -4 -85 0
v -6 -87 0
v -7 -87 0
v -7 -86 0
v -6 -86 0
v -5 -87 0
v -6 -87 0
v -6 -86 0
v -5 -86 0
v -4 -87 0
v -5 -87 0
v -5 -86 0
v -4 -86 0

# Texture cooridinates (Count = 72)
vt 0.04173455 0.6667887
vt 0.06229666 0.6667887
vt 0.06229666 0.6943223
vt 0.04173455 0.6943223
vt 0.1249595 0.6667887
vt 0.1455216 0.6667887
vt 0.1455216 0.6943223
vt 0.1249595 0.6943223
vt 0.0001220703 0.7223443
vt 0.02068417 0.7223443
vt 0.02068417 0.7498779
vt 0.0001220703 0.7498779
vt 0.1249595 0.639011
vt 0.1455216 0.639011
vt 0.1455216 0.6665446
vt 0.1249595 0.6665446
vt 0.1457658 0.5834554
vt 0.1663279 0.5834554
vt 0.1663279 0.610989
vt 0.1457658 0.610989
vt 0.1249595 0.5834554
vt 0.1455216 0.5834554
vt 0.1455216 0.610989
vt 0.1249595 0.610989
vt 0.0001220703 0.6667887
vt 0.02068417 0.6667887
vt 0.02068417 0.6943223
vt 0.0001220703 0.6943223
vt 0.1457658 0.5556777
vt 0.1663279 0.5556777
vt 0.1663279 0.5832113
vt 0.1457658 0.5832113
vt 0.02092831 0.7223443
vt 0.04149041 0.7223443
vt 0.04149041 0.7498779
vt 0.02092831 0.7498779
vt 0.08334704 0.6667887
vt 0.1039091 0.6667887
vt 0.1039091 0.6943223
vt 0.08334704 0.6943223
vt 0.08334704 0.639011
vt 0.1039091 0.639011
vt 0.1039091 0.6665446
vt 0.08334704 0.6665446
vt 0.08334704 0.5834554
vt 0.1039091 0.5834554
vt 0.1039091 0.610989
vt 0.08334704 0.610989
vt 0.1041533 0.6667887
vt 0.1247154 0.6667887
vt 0.1247154 0.6943223
vt 0.1041533 0.6943223
vt 0.08334704 0.5556777
vt 0.1039091 0.5556777
vt 0.1039091 0.5832113
vt 0.08334704 0.5832113
vt 0.1041533 0.639011
vt 0.1247154 0.639011
vt 0.1247154 0.6665446
vt 0.1041533 0.6665446
vt 0.1041533 0.5834554
vt 0.1247154 0.5834554
vt 0.1247154 0.610989
vt 0.1041533 0.610989
vt 0.1249595 0.5556777
vt 0.1455216 0.5556777
vt 0.1455216 0.5832113
vt 0.1249595 0.5832113
vt 0.1041533 0.5556777
vt 0.1247154 0.5556777
vt 0.1247154 0.5832113
vt 0.1041533 0.5832113

# Normal
vn 0 0 -1

# Mesh description
g DBP_mesh_0004

# Faces
f 1/1/1 2/2/1 3/3/1 4/4/1
f 5/5/1 6/6/1 7/7/1 8/8/1
f 9/9/1 10/10/1 11/11/1 12/12/1
f 13/13/1 14/14/1 15/15/1 16/16/1
f 17/5/1 18/6/1 19/7/1 20/8/1
f 21/9/1 22/10/1 23/11/1 24/12/1
f 25/1/1 26/2/1 27/3/1 28/4/1
f 29/17/1 30/18/1 31/19/1 32/20/1
f 33/21/1 34/22/1 35/23/1 36/24/1
f 37/13/1 38/14/1 39/15/1 40/16/1
f 41/5/1 42/6/1 43/7/1 44/8/1
f 45/9/1 46/10/1 47/11/1 48/12/1
f 49/25/1 50/26/1 51/27/1 52/28/1
f 53/5/1 54/6/1 55/7/1 56/8/1
f 57/9/1 58/10/1 59/11/1 60/12/1
f 61/29/1 62/30/1 63/31/1 64/32/1
f 65/17/1 66/18/1 67/19/1 68/20/1
f 69/21/1 70/22/1 71/23/1 72/24/1
f 73/13/1 74/14/1 75/15/1 76/16/1
f 77/5/1 78/6/1 79/7/1 80/8/1
f 81/9/1 82/10/1 83/11/1 84/12/1
f 85/33/1 86/34/1 87/35/1 88/36/1
f 89/37/1 90/38/1 91/39/1 92/40/1
f 93/13/1 94/14/1 95/15/1 96/16/1
f 97/5/1 98/6/1 99/7/1 100/8/1
f 101/9/1 102/10/1 103/11/1 104/12/1
f 105/29/1 106/30/1 107/31/1 108/32/1
f 109/17/1 110/18/1 111/19/1 112/20/1
f 113/21/1 114/22/1 115/23/1 116/24/1
f 117/13/1 118/14/1 119/15/1 120/16/1
f 121/5/1 122/6/1 123/7/1 124/8/1
f 125/9/1 126/10/1 127/11/1 128/12/1
f 129/33/1 130/34/1 131/35/1 132/36/1
f 133/37/1 134/38/1 135/39/1 136/40/1
f 137/41/1 138/42/1 139/43/1 140/44/1
f 141/17/1 142/18/1 143/19/1 144/20/1
f 145/21/1 146/22/1 147/23/1 148/24/1
f 149/13/1 150/14/1 151/15/1 152/16/1
f 153/5/1 154/6/1 155/7/1 156/8/1
f 157/9/1 158/10/1 159/11/1 160/12/1
f 161/29/1 162/30/1 163/31/1 164/32/1
f 165/17/1 166/18/1 167/19/1 168/20/1
f 169/21/1 170/22/1 171/23/1 172/24/1
f 173/13/1 174/14/1 175/15/1 176/16/1
f 177/5/1 178/6/1 179/7/1 180/8/1
f 181/9/1 182/10/1 183/11/1 184/12/1
f 185/33/1 186/34/1 187/35/1 188/36/1
f 189/37/1 190/38/1 191/39/1 192/40/1
f 193/41/1 194/42/1 195/43/1 196/44/1
f 197/45/1 198/46/1 199/47/1 200/48/1
f 201/29/1 202/30/1 203/31/1 204/32/1
f 205/17/1 206/18/1 207/19/1 208/20/1
f 209/21/1 210/22/1 211/23/1 212/24/1
f 213/13/1 214/14/1 215/15/1 216/16/1
f 217/5/1 218/6/1 219/7/1 220/8/1
f 221/49/1 222/50/1 223/51/1 224/52/1
f 225/49/1 226/50/1 227/51/1 228/52/1
f 229/49/1 230/50/1 231/51/1 232/52/1
f 233/49/1 234/50/1 235/51/1 236/52/1
f 237/29/1 238/30/1 239/31/1 240/32/1
f 241/17/1 242/18/1 243/19/1 244/20/1
f 245/21/1 246/22/1 247/23/1 248/24/1
f 249/13/1 250/14/1 251/15/1 252/16/1
f 253/5/1 254/6/1 255/7/1 256/8/1
f 257/37/1 258/38/1 259/39/1 260/40/1
f 261/41/1 262/42/1 263/43/1 264/44/1
f 265/45/1 266/46/1 267/47/1 268/48/1
f 269/53/1 270/54/1 271/55/1 272/56/1
f 273/29/1 274/30/1 275/31/1 276/32/1
f 277/17/1 278/18/1 279/19/1 280/20/1
f 281/21/1 282/22/1 283/23/1 284/24/1
f 285/13/1 286/14/1 287/15/1 288/16/1
f 289/57/1 290/58/1 291/59/1 292/60/1
f 293/57/1 294/58/1 295/59/1 296/60/1
f 297/57/1 298/58/1 299/59/1 300/60/1
f 301/57/1 302/58/1 303/59/1 304/60/1
f 305/5/1 306/6/1 307/7/1 308/8/1
f 309/29/1 310/30/1 311/31/1 312/32/1
f 313/17/1 314/18/1 315/19/1 316/20/1
f 317/21/1 318/22/1 319/23/1 320/24/1
f 321/13/1 322/14/1 323/15/1 324/16/1
f 325/41/1 326/42/1 327/43/1 328/44/1
f 329/45/1 330/46/1 331/47/1 332/48/1
f 333/53/1 334/54/1 335/55/1 336/56/1
f 337/29/1 338/30/1 339/31/1 340/32/1
f 341/17/1 342/18/1 343/19/1 344/20/1
f 345/21/1 346/22/1 347/23/1 348/24/1
f 349/61/1 350/62/1 351/63/1 352/64/1
f 353/61/1 354/62/1 355/63/1 356/64/1
f 357/61/1 358/62/1 359/63/1 360/64/1
f 361/61/1 362/62/1 363/63/1 364/64/1
f 365/13/1 366/14/1 367/15/1 368/16/1
f 369/5/1 370/6/1 371/7/1 372/8/1
f 373/37/1 374/38/1 375/39/1 376/40/1
f 377/29/1 378/30/1 379/31/1 380/32/1
f 381/17/1 382/18/1 383/19/1 384/20/1
f 385/21/1 386/22/1 387/23/1 388/24/1
f 389/45/1 390/46/1 391/47/1 392/48/1
f 393/53/1 394/54/1 395/55/1 396/56/1
f 397/29/1 398/30/1 399/31/1 400/32/1
f 401/65/1 402/66/1 403/67/1 404/68/1
f 405/69/1 406/70/1 407/71/1 408/72/1
f 409/69/1 410/70/1 411/71/1 412/72/1
f 413/69/1 414/70/1 415/71/1 416/72/1
f 417/69/1 418/70/1 419/71/1 420/72/1
f 421/21/1 422/22/1 423/23/1 424/24/1
f 425/13/1 426/14/1 427/15/1 428/16/1
f 429/41/1 430/42/1 431/43/1 432/44/1
f 433/29/1 434/30/1 435/31/1 436/32/1
f 437/65/1 438/66/1 439/67/1 440/68/1
f 441/53/1 442/54/1 443/55/1 444/56/1
f 445/29/1 446/30/1 447/31/1 448/32/1
f 449/17/1 450/18/1 451/19/1 452/20/1
f 453/21/1 454/22/1 455/23/1 456/24/1
f 457/45/1 458/46/1 459/47/1 460/48/1
f 461/29/1 462/30/1 463/31/1 464/32/1
f 465/65/1 466/66/1 467/67/1 468/68/1
f 469/53/1 470/54/1 471/55/1 472/56/1

