# Tiled2Unity generated file. Do not modify by hand.
# Wavefront file for 'DBP_mesh_0009.obj'

# Vertices (Count = 112)
v -21 -25 0
v -22 -25 0
v -22 -24 0
v -21 -24 0
v -20 -25 0
v -21 -25 0
v -21 -24 0
v -20 -24 0
v -19 -25 0
v -20 -25 0
v -20 -24 0
v -19 -24 0
v -18 -25 0
v -19 -25 0
v -19 -24 0
v -18 -24 0
v -17 -25 0
v -18 -25 0
v -18 -24 0
v -17 -24 0
v -16 -25 0
v -17 -25 0
v -17 -24 0
v -16 -24 0
v -15 -25 0
v -16 -25 0
v -16 -24 0
v -15 -24 0
v -21 -26 0
v -22 -26 0
v -22 -25 0
v -21 -25 0
v -20 -26 0
v -21 -26 0
v -21 -25 0
v -20 -25 0
v -19 -26 0
v -20 -26 0
v -20 -25 0
v -19 -25 0
v -18 -26 0
v -19 -26 0
v -19 -25 0
v -18 -25 0
v -17 -26 0
v -18 -26 0
v -18 -25 0
v -17 -25 0
v -16 -26 0
v -17 -26 0
v -17 -25 0
v -16 -25 0
v -15 -26 0
v -16 -26 0
v -16 -25 0
v -15 -25 0
v -21 -27 0
v -22 -27 0
v -22 -26 0
v -21 -26 0
v -20 -27 0
v -21 -27 0
v -21 -26 0
v -20 -26 0
v -19 -27 0
v -20 -27 0
v -20 -26 0
v -19 -26 0
v -18 -27 0
v -19 -27 0
v -19 -26 0
v -18 -26 0
v -17 -27 0
v -18 -27 0
v -18 -26 0
v -17 -26 0
v -16 -27 0
v -17 -27 0
v -17 -26 0
v -16 -26 0
v -15 -27 0
v -16 -27 0
v -16 -26 0
v -15 -26 0
v -21 -28 0
v -22 -28 0
v -22 -27 0
v -21 -27 0
v -20 -28 0
v -21 -28 0
v -21 -27 0
v -20 -27 0
v -19 -28 0
v -20 -28 0
v -20 -27 0
v -19 -27 0
v -18 -28 0
v -19 -28 0
v -19 -27 0
v -18 -27 0
v -17 -28 0
v -18 -28 0
v -18 -27 0
v -17 -27 0
v -16 -28 0
v -17 -28 0
v -17 -27 0
v -16 -27 0
v -15 -28 0
v -16 -28 0
v -16 -27 0
v -15 -27 0

# Texture cooridinates (Count = 112)
vt 0.5113042 0.1053852
vt 0.5280994 0.1053852
vt 0.5280994 0.1314569
vt 0.5113042 0.1314569
vt 0.4942648 0.1053852
vt 0.5110601 0.1053852
vt 0.5110601 0.1314569
vt 0.4942648 0.1314569
vt 0.4772254 0.1053852
vt 0.4940206 0.1053852
vt 0.4940206 0.1314569
vt 0.4772254 0.1314569
vt 0.460186 0.1053852
vt 0.4769812 0.1053852
vt 0.4769812 0.1314569
vt 0.460186 0.1314569
vt 0.4431466 0.1053852
vt 0.4599418 0.1053852
vt 0.4599418 0.1314569
vt 0.4431466 0.1314569
vt 0.4261072 0.1053852
vt 0.4429024 0.1053852
vt 0.4429024 0.1314569
vt 0.4261072 0.1314569
vt 0.4090677 0.1053852
vt 0.425863 0.1053852
vt 0.425863 0.1314569
vt 0.4090677 0.1314569
vt 0.5113042 0.07906944
vt 0.5280994 0.07906944
vt 0.5280994 0.1051411
vt 0.5113042 0.1051411
vt 0.4942648 0.07906944
vt 0.5110601 0.07906944
vt 0.5110601 0.1051411
vt 0.4942648 0.1051411
vt 0.4772254 0.07906944
vt 0.4940206 0.07906944
vt 0.4940206 0.1051411
vt 0.4772254 0.1051411
vt 0.460186 0.07906944
vt 0.4769812 0.07906944
vt 0.4769812 0.1051411
vt 0.460186 0.1051411
vt 0.4431466 0.07906944
vt 0.4599418 0.07906944
vt 0.4599418 0.1051411
vt 0.4431466 0.1051411
vt 0.4261072 0.07906944
vt 0.4429024 0.07906944
vt 0.4429024 0.1051411
vt 0.4261072 0.1051411
vt 0.4090677 0.07906944
vt 0.425863 0.07906944
vt 0.425863 0.1051411
vt 0.4090677 0.1051411
vt 0.5113042 0.05275363
vt 0.5280994 0.05275363
vt 0.5280994 0.07882529
vt 0.5113042 0.07882529
vt 0.4942648 0.05275363
vt 0.5110601 0.05275363
vt 0.5110601 0.07882529
vt 0.4942648 0.07882529
vt 0.4772254 0.05275363
vt 0.4940206 0.05275363
vt 0.4940206 0.07882529
vt 0.4772254 0.07882529
vt 0.460186 0.05275363
vt 0.4769812 0.05275363
vt 0.4769812 0.07882529
vt 0.460186 0.07882529
vt 0.4431466 0.05275363
vt 0.4599418 0.05275363
vt 0.4599418 0.07882529
vt 0.4431466 0.07882529
vt 0.4261072 0.05275363
vt 0.4429024 0.05275363
vt 0.4429024 0.07882529
vt 0.4261072 0.07882529
vt 0.4090677 0.05275363
vt 0.425863 0.05275363
vt 0.425863 0.07882529
vt 0.4090677 0.07882529
vt 0.5113042 0.02643788
vt 0.5280994 0.02643788
vt 0.5280994 0.05250949
vt 0.5113042 0.05250949
vt 0.4942648 0.02643788
vt 0.5110601 0.02643788
vt 0.5110601 0.05250949
vt 0.4942648 0.05250949
vt 0.4772254 0.02643788
vt 0.4940206 0.02643788
vt 0.4940206 0.05250949
vt 0.4772254 0.05250949
vt 0.460186 0.02643788
vt 0.4769812 0.02643788
vt 0.4769812 0.05250949
vt 0.460186 0.05250949
vt 0.4431466 0.02643788
vt 0.4599418 0.02643788
vt 0.4599418 0.05250949
vt 0.4431466 0.05250949
vt 0.4261072 0.02643788
vt 0.4429024 0.02643788
vt 0.4429024 0.05250949
vt 0.4261072 0.05250949
vt 0.4090677 0.02643788
vt 0.425863 0.02643788
vt 0.425863 0.05250949
vt 0.4090677 0.05250949

# Normal
vn 0 0 -1

# Mesh description
g DBP_mesh_0009

# Faces
f 1/1/1 2/2/1 3/3/1 4/4/1
f 5/5/1 6/6/1 7/7/1 8/8/1
f 9/9/1 10/10/1 11/11/1 12/12/1
f 13/13/1 14/14/1 15/15/1 16/16/1
f 17/17/1 18/18/1 19/19/1 20/20/1
f 21/21/1 22/22/1 23/23/1 24/24/1
f 25/25/1 26/26/1 27/27/1 28/28/1
f 29/29/1 30/30/1 31/31/1 32/32/1
f 33/33/1 34/34/1 35/35/1 36/36/1
f 37/37/1 38/38/1 39/39/1 40/40/1
f 41/41/1 42/42/1 43/43/1 44/44/1
f 45/45/1 46/46/1 47/47/1 48/48/1
f 49/49/1 50/50/1 51/51/1 52/52/1
f 53/53/1 54/54/1 55/55/1 56/56/1
f 57/57/1 58/58/1 59/59/1 60/60/1
f 61/61/1 62/62/1 63/63/1 64/64/1
f 65/65/1 66/66/1 67/67/1 68/68/1
f 69/69/1 70/70/1 71/71/1 72/72/1
f 73/73/1 74/74/1 75/75/1 76/76/1
f 77/77/1 78/78/1 79/79/1 80/80/1
f 81/81/1 82/82/1 83/83/1 84/84/1
f 85/85/1 86/86/1 87/87/1 88/88/1
f 89/89/1 90/90/1 91/91/1 92/92/1
f 93/93/1 94/94/1 95/95/1 96/96/1
f 97/97/1 98/98/1 99/99/1 100/100/1
f 101/101/1 102/102/1 103/103/1 104/104/1
f 105/105/1 106/106/1 107/107/1 108/108/1
f 109/109/1 110/110/1 111/111/1 112/112/1

