# Tiled2Unity generated file. Do not modify by hand.
# Wavefront file for 'LibertadPublicMarket-Detailed_mesh_0009.obj'

# Vertices (Count = 80)
v -24 -4 0
v -25 -4 0
v -25 -3 0
v -24 -3 0
v -23 -4 0
v -24 -4 0
v -24 -3 0
v -23 -3 0
v -22 -4 0
v -23 -4 0
v -23 -3 0
v -22 -3 0
v -21 -4 0
v -22 -4 0
v -22 -3 0
v -21 -3 0
v -20 -4 0
v -21 -4 0
v -21 -3 0
v -20 -3 0
v -19 -4 0
v -20 -4 0
v -20 -3 0
v -19 -3 0
v -18 -4 0
v -19 -4 0
v -19 -3 0
v -18 -3 0
v -17 -4 0
v -18 -4 0
v -18 -3 0
v -17 -3 0
v -16 -4 0
v -17 -4 0
v -17 -3 0
v -16 -3 0
v -15 -4 0
v -16 -4 0
v -16 -3 0
v -15 -3 0
v -14 -4 0
v -15 -4 0
v -15 -3 0
v -14 -3 0
v -23 -12 0
v -24 -12 0
v -24 -11 0
v -23 -11 0
v -22 -12 0
v -23 -12 0
v -23 -11 0
v -22 -11 0
v -21 -12 0
v -22 -12 0
v -22 -11 0
v -21 -11 0
v -20 -12 0
v -21 -12 0
v -21 -11 0
v -20 -11 0
v -19 -12 0
v -20 -12 0
v -20 -11 0
v -19 -11 0
v -18 -12 0
v -19 -12 0
v -19 -11 0
v -18 -11 0
v -17 -12 0
v -18 -12 0
v -18 -11 0
v -17 -11 0
v -16 -12 0
v -17 -12 0
v -17 -11 0
v -16 -11 0
v -15 -12 0
v -16 -12 0
v -16 -11 0
v -15 -11 0

# Texture cooridinates (Count = 80)
vt 0.8350528 0.9211747
vt 0.8518481 0.9211747
vt 0.8518481 0.9472464
vt 0.8350528 0.9472464
vt 0.8180134 0.9211747
vt 0.8348087 0.9211747
vt 0.8348087 0.9472464
vt 0.8180134 0.9472464
vt 0.800974 0.9211747
vt 0.8177693 0.9211747
vt 0.8177693 0.9472464
vt 0.800974 0.9472464
vt 0.7839347 0.9211747
vt 0.8007299 0.9211747
vt 0.8007299 0.9472464
vt 0.7839347 0.9472464
vt 0.7668952 0.9211747
vt 0.7836905 0.9211747
vt 0.7836905 0.9472464
vt 0.7668952 0.9472464
vt 0.7498558 0.9211747
vt 0.7666511 0.9211747
vt 0.7666511 0.9472464
vt 0.7498558 0.9472464
vt 0.7328164 0.9211747
vt 0.7496117 0.9211747
vt 0.7496117 0.9472464
vt 0.7328164 0.9472464
vt 0.715777 0.9211747
vt 0.7325723 0.9211747
vt 0.7325723 0.9472464
vt 0.715777 0.9472464
vt 0.6987376 0.9211747
vt 0.7155329 0.9211747
vt 0.7155329 0.9472464
vt 0.6987376 0.9472464
vt 0.6816982 0.9211747
vt 0.6984935 0.9211747
vt 0.6984935 0.9472464
vt 0.6816982 0.9472464
vt 0.6646588 0.9211747
vt 0.6814541 0.9211747
vt 0.6814541 0.9472464
vt 0.6646588 0.9472464
vt 0.8180134 0.4211747
vt 0.8348087 0.4211747
vt 0.8348087 0.4472464
vt 0.8180134 0.4472464
vt 0.800974 0.4211747
vt 0.8177693 0.4211747
vt 0.8177693 0.4472464
vt 0.800974 0.4472464
vt 0.7839347 0.4211747
vt 0.8007299 0.4211747
vt 0.8007299 0.4472464
vt 0.7839347 0.4472464
vt 0.7668952 0.4211747
vt 0.7836905 0.4211747
vt 0.7836905 0.4472464
vt 0.7668952 0.4472464
vt 0.7498558 0.4211747
vt 0.7666511 0.4211747
vt 0.7666511 0.4472464
vt 0.7498558 0.4472464
vt 0.7328164 0.4211747
vt 0.7496117 0.4211747
vt 0.7496117 0.4472464
vt 0.7328164 0.4472464
vt 0.715777 0.4211747
vt 0.7325723 0.4211747
vt 0.7325723 0.4472464
vt 0.715777 0.4472464
vt 0.6987376 0.4211747
vt 0.7155329 0.4211747
vt 0.7155329 0.4472464
vt 0.6987376 0.4472464
vt 0.6816982 0.4211747
vt 0.6984935 0.4211747
vt 0.6984935 0.4472464
vt 0.6816982 0.4472464

# Normal
vn 0 0 -1

# Mesh description
g LibertadPublicMarket-Detailed_mesh_0009

# Faces
f 1/1/1 2/2/1 3/3/1 4/4/1
f 5/5/1 6/6/1 7/7/1 8/8/1
f 9/9/1 10/10/1 11/11/1 12/12/1
f 13/13/1 14/14/1 15/15/1 16/16/1
f 17/17/1 18/18/1 19/19/1 20/20/1
f 21/21/1 22/22/1 23/23/1 24/24/1
f 25/25/1 26/26/1 27/27/1 28/28/1
f 29/29/1 30/30/1 31/31/1 32/32/1
f 33/33/1 34/34/1 35/35/1 36/36/1
f 37/37/1 38/38/1 39/39/1 40/40/1
f 41/41/1 42/42/1 43/43/1 44/44/1
f 45/45/1 46/46/1 47/47/1 48/48/1
f 49/49/1 50/50/1 51/51/1 52/52/1
f 53/53/1 54/54/1 55/55/1 56/56/1
f 57/57/1 58/58/1 59/59/1 60/60/1
f 61/61/1 62/62/1 63/63/1 64/64/1
f 65/65/1 66/66/1 67/67/1 68/68/1
f 69/69/1 70/70/1 71/71/1 72/72/1
f 73/73/1 74/74/1 75/75/1 76/76/1
f 77/77/1 78/78/1 79/79/1 80/80/1

