# Tiled2Unity generated file. Do not modify by hand.
# Wavefront file for 'RightMontillaBelowAgao_mesh_0005.obj'

# Vertices (Count = 168)
v -25 -9 0
v -26 -9 0
v -26 -8 0
v -25 -8 0
v -24 -9 0
v -25 -9 0
v -25 -8 0
v -24 -8 0
v -23 -9 0
v -24 -9 0
v -24 -8 0
v -23 -8 0
v -22 -9 0
v -23 -9 0
v -23 -8 0
v -22 -8 0
v -21 -9 0
v -22 -9 0
v -22 -8 0
v -21 -8 0
v -20 -9 0
v -21 -9 0
v -21 -8 0
v -20 -8 0
v -19 -9 0
v -20 -9 0
v -20 -8 0
v -19 -8 0
v -25 -10 0
v -26 -10 0
v -26 -9 0
v -25 -9 0
v -24 -10 0
v -25 -10 0
v -25 -9 0
v -24 -9 0
v -23 -10 0
v -24 -10 0
v -24 -9 0
v -23 -9 0
v -22 -10 0
v -23 -10 0
v -23 -9 0
v -22 -9 0
v -21 -10 0
v -22 -10 0
v -22 -9 0
v -21 -9 0
v -20 -10 0
v -21 -10 0
v -21 -9 0
v -20 -9 0
v -19 -10 0
v -20 -10 0
v -20 -9 0
v -19 -9 0
v -25 -11 0
v -26 -11 0
v -26 -10 0
v -25 -10 0
v -24 -11 0
v -25 -11 0
v -25 -10 0
v -24 -10 0
v -23 -11 0
v -24 -11 0
v -24 -10 0
v -23 -10 0
v -22 -11 0
v -23 -11 0
v -23 -10 0
v -22 -10 0
v -21 -11 0
v -22 -11 0
v -22 -10 0
v -21 -10 0
v -20 -11 0
v -21 -11 0
v -21 -10 0
v -20 -10 0
v -19 -11 0
v -20 -11 0
v -20 -10 0
v -19 -10 0
v -14 -35 0
v -15 -35 0
v -15 -34 0
v -14 -34 0
v -13 -35 0
v -14 -35 0
v -14 -34 0
v -13 -34 0
v -12 -35 0
v -13 -35 0
v -13 -34 0
v -12 -34 0
v -11 -35 0
v -12 -35 0
v -12 -34 0
v -11 -34 0
v -10 -35 0
v -11 -35 0
v -11 -34 0
v -10 -34 0
v -9 -35 0
v -10 -35 0
v -10 -34 0
v -9 -34 0
v -8 -35 0
v -9 -35 0
v -9 -34 0
v -8 -34 0
v -14 -36 0
v -15 -36 0
v -15 -35 0
v -14 -35 0
v -13 -36 0
v -14 -36 0
v -14 -35 0
v -13 -35 0
v -12 -36 0
v -13 -36 0
v -13 -35 0
v -12 -35 0
v -11 -36 0
v -12 -36 0
v -12 -35 0
v -11 -35 0
v -10 -36 0
v -11 -36 0
v -11 -35 0
v -10 -35 0
v -9 -36 0
v -10 -36 0
v -10 -35 0
v -9 -35 0
v -8 -36 0
v -9 -36 0
v -9 -35 0
v -8 -35 0
v -14 -37 0
v -15 -37 0
v -15 -36 0
v -14 -36 0
v -13 -37 0
v -14 -37 0
v -14 -36 0
v -13 -36 0
v -12 -37 0
v -13 -37 0
v -13 -36 0
v -12 -36 0
v -11 -37 0
v -12 -37 0
v -12 -36 0
v -11 -36 0
v -10 -37 0
v -11 -37 0
v -11 -36 0
v -10 -36 0
v -9 -37 0
v -10 -37 0
v -10 -36 0
v -9 -36 0
v -8 -37 0
v -9 -37 0
v -9 -36 0
v -8 -36 0

# Texture cooridinates (Count = 84)
vt 0.3104669 0.8422273
vt 0.3274641 0.8422273
vt 0.3274641 0.868299
vt 0.3104669 0.868299
vt 0.2932255 0.8422273
vt 0.3102227 0.8422273
vt 0.3102227 0.868299
vt 0.2932255 0.868299
vt 0.2759841 0.8422273
vt 0.2929814 0.8422273
vt 0.2929814 0.868299
vt 0.2759841 0.868299
vt 0.2587427 0.8422273
vt 0.27574 0.8422273
vt 0.27574 0.868299
vt 0.2587427 0.868299
vt 0.2415014 0.8422273
vt 0.2584986 0.8422273
vt 0.2584986 0.868299
vt 0.2415014 0.868299
vt 0.22426 0.8422273
vt 0.2412572 0.8422273
vt 0.2412572 0.868299
vt 0.22426 0.868299
vt 0.2070186 0.8422273
vt 0.2240159 0.8422273
vt 0.2240159 0.868299
vt 0.2070186 0.868299
vt 0.3104669 0.8159115
vt 0.3274641 0.8159115
vt 0.3274641 0.8419832
vt 0.3104669 0.8419832
vt 0.2932255 0.8159115
vt 0.3102227 0.8159115
vt 0.3102227 0.8419832
vt 0.2932255 0.8419832
vt 0.2759841 0.8159115
vt 0.2929814 0.8159115
vt 0.2929814 0.8419832
vt 0.2759841 0.8419832
vt 0.2587427 0.8159115
vt 0.27574 0.8159115
vt 0.27574 0.8419832
vt 0.2587427 0.8419832
vt 0.2415014 0.8159115
vt 0.2584986 0.8159115
vt 0.2584986 0.8419832
vt 0.2415014 0.8419832
vt 0.22426 0.8159115
vt 0.2412572 0.8159115
vt 0.2412572 0.8419832
vt 0.22426 0.8419832
vt 0.2070186 0.8159115
vt 0.2240159 0.8159115
vt 0.2240159 0.8419832
vt 0.2070186 0.8419832
vt 0.3104669 0.7895957
vt 0.3274641 0.7895957
vt 0.3274641 0.8156674
vt 0.3104669 0.8156674
vt 0.2932255 0.7895957
vt 0.3102227 0.7895957
vt 0.3102227 0.8156674
vt 0.2932255 0.8156674
vt 0.2759841 0.7895957
vt 0.2929814 0.7895957
vt 0.2929814 0.8156674
vt 0.2759841 0.8156674
vt 0.2587427 0.7895957
vt 0.27574 0.7895957
vt 0.27574 0.8156674
vt 0.2587427 0.8156674
vt 0.2415014 0.7895957
vt 0.2584986 0.7895957
vt 0.2584986 0.8156674
vt 0.2415014 0.8156674
vt 0.22426 0.7895957
vt 0.2412572 0.7895957
vt 0.2412572 0.8156674
vt 0.22426 0.8156674
vt 0.2070186 0.7895957
vt 0.2240159 0.7895957
vt 0.2240159 0.8156674
vt 0.2070186 0.8156674

# Normal
vn 0 0 -1

# Mesh description
g RightMontillaBelowAgao_mesh_0005

# Faces
f 1/1/1 2/2/1 3/3/1 4/4/1
f 5/5/1 6/6/1 7/7/1 8/8/1
f 9/9/1 10/10/1 11/11/1 12/12/1
f 13/13/1 14/14/1 15/15/1 16/16/1
f 17/17/1 18/18/1 19/19/1 20/20/1
f 21/21/1 22/22/1 23/23/1 24/24/1
f 25/25/1 26/26/1 27/27/1 28/28/1
f 29/29/1 30/30/1 31/31/1 32/32/1
f 33/33/1 34/34/1 35/35/1 36/36/1
f 37/37/1 38/38/1 39/39/1 40/40/1
f 41/41/1 42/42/1 43/43/1 44/44/1
f 45/45/1 46/46/1 47/47/1 48/48/1
f 49/49/1 50/50/1 51/51/1 52/52/1
f 53/53/1 54/54/1 55/55/1 56/56/1
f 57/57/1 58/58/1 59/59/1 60/60/1
f 61/61/1 62/62/1 63/63/1 64/64/1
f 65/65/1 66/66/1 67/67/1 68/68/1
f 69/69/1 70/70/1 71/71/1 72/72/1
f 73/73/1 74/74/1 75/75/1 76/76/1
f 77/77/1 78/78/1 79/79/1 80/80/1
f 81/81/1 82/82/1 83/83/1 84/84/1
f 85/1/1 86/2/1 87/3/1 88/4/1
f 89/5/1 90/6/1 91/7/1 92/8/1
f 93/9/1 94/10/1 95/11/1 96/12/1
f 97/13/1 98/14/1 99/15/1 100/16/1
f 101/17/1 102/18/1 103/19/1 104/20/1
f 105/21/1 106/22/1 107/23/1 108/24/1
f 109/25/1 110/26/1 111/27/1 112/28/1
f 113/29/1 114/30/1 115/31/1 116/32/1
f 117/33/1 118/34/1 119/35/1 120/36/1
f 121/37/1 122/38/1 123/39/1 124/40/1
f 125/41/1 126/42/1 127/43/1 128/44/1
f 129/45/1 130/46/1 131/47/1 132/48/1
f 133/49/1 134/50/1 135/51/1 136/52/1
f 137/53/1 138/54/1 139/55/1 140/56/1
f 141/57/1 142/58/1 143/59/1 144/60/1
f 145/61/1 146/62/1 147/63/1 148/64/1
f 149/65/1 150/66/1 151/67/1 152/68/1
f 153/69/1 154/70/1 155/71/1 156/72/1
f 157/73/1 158/74/1 159/75/1 160/76/1
f 161/77/1 162/78/1 163/79/1 164/80/1
f 165/81/1 166/82/1 167/83/1 168/84/1

