# Tiled2Unity generated file. Do not modify by hand.
# Wavefront file for 'Gaisano_mesh_0002.obj'

# Vertices (Count = 100)
v -45 -7 0
v -46 -7 0
v -46 -6 0
v -45 -6 0
v -45 -8 0
v -46 -8 0
v -46 -7 0
v -45 -7 0
v -45 -9 0
v -46 -9 0
v -46 -8 0
v -45 -8 0
v -45 -10 0
v -46 -10 0
v -46 -9 0
v -45 -9 0
v -45 -11 0
v -46 -11 0
v -46 -10 0
v -45 -10 0
v -45 -12 0
v -46 -12 0
v -46 -11 0
v -45 -11 0
v -45 -15 0
v -46 -15 0
v -46 -14 0
v -45 -14 0
v -45 -16 0
v -46 -16 0
v -46 -15 0
v -45 -15 0
v -45 -17 0
v -46 -17 0
v -46 -16 0
v -45 -16 0
v -45 -18 0
v -46 -18 0
v -46 -17 0
v -45 -17 0
v -45 -19 0
v -46 -19 0
v -46 -18 0
v -45 -18 0
v -45 -20 0
v -46 -20 0
v -46 -19 0
v -45 -19 0
v -5 -20 0
v -6 -20 0
v -6 -19 0
v -5 -19 0
v -4 -20 0
v -5 -20 0
v -5 -19 0
v -4 -19 0
v -45 -21 0
v -46 -21 0
v -46 -20 0
v -45 -20 0
v -5 -21 0
v -6 -21 0
v -6 -20 0
v -5 -20 0
v -4 -21 0
v -5 -21 0
v -5 -20 0
v -4 -20 0
v -45 -23 0
v -46 -23 0
v -46 -22 0
v -45 -22 0
v -45 -24 0
v -46 -24 0
v -46 -23 0
v -45 -23 0
v -45 -25 0
v -46 -25 0
v -46 -24 0
v -45 -24 0
v -45 -26 0
v -46 -26 0
v -46 -25 0
v -45 -25 0
v -45 -27 0
v -46 -27 0
v -46 -26 0
v -45 -26 0
v -45 -28 0
v -46 -28 0
v -46 -27 0
v -45 -27 0
v -45 -29 0
v -46 -29 0
v -46 -28 0
v -45 -28 0
v -45 -30 0
v -46 -30 0
v -46 -29 0
v -45 -29 0

# Texture cooridinates (Count = 32)
vt 0.0001220703 0.5834554
vt 0.02068417 0.5834554
vt 0.02068417 0.610989
vt 0.0001220703 0.610989
vt 0.0625408 0.5834554
vt 0.0831029 0.5834554
vt 0.0831029 0.610989
vt 0.0625408 0.610989
vt 0.0001220703 0.5556777
vt 0.02068417 0.5556777
vt 0.02068417 0.5832113
vt 0.0001220703 0.5832113
vt 0.02092831 0.5834554
vt 0.04149041 0.5834554
vt 0.04149041 0.610989
vt 0.02092831 0.610989
vt 0.6659218 0.889011
vt 0.6864839 0.889011
vt 0.6864839 0.9165446
vt 0.6659218 0.9165446
vt 0.6451156 0.889011
vt 0.6656777 0.889011
vt 0.6656777 0.9165446
vt 0.6451156 0.9165446
vt 0.6659218 0.8612332
vt 0.6864839 0.8612332
vt 0.6864839 0.8887668
vt 0.6659218 0.8887668
vt 0.6451156 0.8612332
vt 0.6656777 0.8612332
vt 0.6656777 0.8887668
vt 0.6451156 0.8887668

# Normal
vn 0 0 -1

# Mesh description
g Gaisano_mesh_0002

# Faces
f 1/1/1 2/2/1 3/3/1 4/4/1
f 5/5/1 6/6/1 7/7/1 8/8/1
f 9/5/1 10/6/1 11/7/1 12/8/1
f 13/5/1 14/6/1 15/7/1 16/8/1
f 17/5/1 18/6/1 19/7/1 20/8/1
f 21/9/1 22/10/1 23/11/1 24/12/1
f 25/1/1 26/2/1 27/3/1 28/4/1
f 29/13/1 30/14/1 31/15/1 32/16/1
f 33/13/1 34/14/1 35/15/1 36/16/1
f 37/13/1 38/14/1 39/15/1 40/16/1
f 41/13/1 42/14/1 43/15/1 44/16/1
f 45/13/1 46/14/1 47/15/1 48/16/1
f 49/17/1 50/18/1 51/19/1 52/20/1
f 53/21/1 54/22/1 55/23/1 56/24/1
f 57/9/1 58/10/1 59/11/1 60/12/1
f 61/25/1 62/26/1 63/27/1 64/28/1
f 65/29/1 66/30/1 67/31/1 68/32/1
f 69/1/1 70/2/1 71/3/1 72/4/1
f 73/13/1 74/14/1 75/15/1 76/16/1
f 77/13/1 78/14/1 79/15/1 80/16/1
f 81/13/1 82/14/1 83/15/1 84/16/1
f 85/13/1 86/14/1 87/15/1 88/16/1
f 89/13/1 90/14/1 91/15/1 92/16/1
f 93/13/1 94/14/1 95/15/1 96/16/1
f 97/9/1 98/10/1 99/11/1 100/12/1

