# Tiled2Unity generated file. Do not modify by hand.
# Wavefront file for 'Gaisano_mesh_0006.obj'

# Vertices (Count = 88)
v -23 -8 0
v -24 -8 0
v -24 -7 0
v -23 -7 0
v -22 -8 0
v -23 -8 0
v -23 -7 0
v -22 -7 0
v -40 -16 0
v -41 -16 0
v -41 -15 0
v -40 -15 0
v -39 -16 0
v -40 -16 0
v -40 -15 0
v -39 -15 0
v -40 -17 0
v -41 -17 0
v -41 -16 0
v -40 -16 0
v -39 -17 0
v -40 -17 0
v -40 -16 0
v -39 -16 0
v -21 -22 0
v -22 -22 0
v -22 -21 0
v -21 -21 0
v -20 -22 0
v -21 -22 0
v -21 -21 0
v -20 -21 0
v -21 -23 0
v -22 -23 0
v -22 -22 0
v -21 -22 0
v -20 -23 0
v -21 -23 0
v -21 -22 0
v -20 -22 0
v -27 -28 0
v -28 -28 0
v -28 -27 0
v -27 -27 0
v -26 -28 0
v -27 -28 0
v -27 -27 0
v -26 -27 0
v -3 -30 0
v -4 -30 0
v -4 -29 0
v -3 -29 0
v -2 -30 0
v -3 -30 0
v -3 -29 0
v -2 -29 0
v -16 -33 0
v -17 -33 0
v -17 -32 0
v -16 -32 0
v -15 -33 0
v -16 -33 0
v -16 -32 0
v -15 -32 0
v -21 -35 0
v -22 -35 0
v -22 -34 0
v -21 -34 0
v -20 -35 0
v -21 -35 0
v -21 -34 0
v -20 -34 0
v -21 -36 0
v -22 -36 0
v -22 -35 0
v -21 -35 0
v -20 -36 0
v -21 -36 0
v -21 -35 0
v -20 -35 0
v -51 -43 0
v -52 -43 0
v -52 -42 0
v -51 -42 0
v -50 -43 0
v -51 -43 0
v -51 -42 0
v -50 -42 0

# Texture cooridinates (Count = 24)
vt 0.1249595 0.5001221
vt 0.1455216 0.5001221
vt 0.1455216 0.5276557
vt 0.1249595 0.5276557
vt 0.1041533 0.5001221
vt 0.1247154 0.5001221
vt 0.1247154 0.5276557
vt 0.1041533 0.5276557
vt 0.6659218 0.889011
vt 0.6864839 0.889011
vt 0.6864839 0.9165446
vt 0.6659218 0.9165446
vt 0.6451156 0.889011
vt 0.6656777 0.889011
vt 0.6656777 0.9165446
vt 0.6451156 0.9165446
vt 0.6659218 0.8612332
vt 0.6864839 0.8612332
vt 0.6864839 0.8887668
vt 0.6659218 0.8887668
vt 0.6451156 0.8612332
vt 0.6656777 0.8612332
vt 0.6656777 0.8887668
vt 0.6451156 0.8887668

# Normal
vn 0 0 -1

# Mesh description
g Gaisano_mesh_0006

# Faces
f 1/1/1 2/2/1 3/3/1 4/4/1
f 5/5/1 6/6/1 7/7/1 8/8/1
f 9/9/1 10/10/1 11/11/1 12/12/1
f 13/13/1 14/14/1 15/15/1 16/16/1
f 17/17/1 18/18/1 19/19/1 20/20/1
f 21/21/1 22/22/1 23/23/1 24/24/1
f 25/9/1 26/10/1 27/11/1 28/12/1
f 29/13/1 30/14/1 31/15/1 32/16/1
f 33/17/1 34/18/1 35/19/1 36/20/1
f 37/21/1 38/22/1 39/23/1 40/24/1
f 41/1/1 42/2/1 43/3/1 44/4/1
f 45/5/1 46/6/1 47/7/1 48/8/1
f 49/1/1 50/2/1 51/3/1 52/4/1
f 53/5/1 54/6/1 55/7/1 56/8/1
f 57/1/1 58/2/1 59/3/1 60/4/1
f 61/5/1 62/6/1 63/7/1 64/8/1
f 65/9/1 66/10/1 67/11/1 68/12/1
f 69/13/1 70/14/1 71/15/1 72/16/1
f 73/17/1 74/18/1 75/19/1 76/20/1
f 77/21/1 78/22/1 79/23/1 80/24/1
f 81/1/1 82/2/1 83/3/1 84/4/1
f 85/5/1 86/6/1 87/7/1 88/8/1

