# Tiled2Unity generated file. Do not modify by hand.
# Wavefront file for 'Gaisano_mesh_0008.obj'

# Vertices (Count = 152)
v -35 -1 0
v -36 -1 0
v -36 0 0
v -35 0 0
v -34 -1 0
v -35 -1 0
v -35 0 0
v -34 0 0
v -33 -1 0
v -34 -1 0
v -34 0 0
v -33 0 0
v -32 -1 0
v -33 -1 0
v -33 0 0
v -32 0 0
v -31 -1 0
v -32 -1 0
v -32 0 0
v -31 0 0
v -30 -1 0
v -31 -1 0
v -31 0 0
v -30 0 0
v -29 -1 0
v -30 -1 0
v -30 0 0
v -29 0 0
v -18 -1 0
v -19 -1 0
v -19 0 0
v -18 0 0
v -17 -1 0
v -18 -1 0
v -18 0 0
v -17 0 0
v -16 -1 0
v -17 -1 0
v -17 0 0
v -16 0 0
v -15 -1 0
v -16 -1 0
v -16 0 0
v -15 0 0
v -13 -2 0
v -14 -2 0
v -14 -1 0
v -13 -1 0
v -12 -2 0
v -13 -2 0
v -13 -1 0
v -12 -1 0
v -11 -2 0
v -12 -2 0
v -12 -1 0
v -11 -1 0
v -10 -2 0
v -11 -2 0
v -11 -1 0
v -10 -1 0
v -9 -2 0
v -10 -2 0
v -10 -1 0
v -9 -1 0
v -8 -2 0
v -9 -2 0
v -9 -1 0
v -8 -1 0
v -7 -2 0
v -8 -2 0
v -8 -1 0
v -7 -1 0
v -38 -10 0
v -39 -10 0
v -39 -9 0
v -38 -9 0
v -37 -10 0
v -38 -10 0
v -38 -9 0
v -37 -9 0
v -36 -10 0
v -37 -10 0
v -37 -9 0
v -36 -9 0
v -35 -10 0
v -36 -10 0
v -36 -9 0
v -35 -9 0
v -34 -10 0
v -35 -10 0
v -35 -9 0
v -34 -9 0
v -53 -21 0
v -54 -21 0
v -54 -20 0
v -53 -20 0
v -52 -21 0
v -53 -21 0
v -53 -20 0
v -52 -20 0
v -51 -21 0
v -52 -21 0
v -52 -20 0
v -51 -20 0
v -40 -22 0
v -41 -22 0
v -41 -21 0
v -40 -21 0
v -39 -22 0
v -40 -22 0
v -40 -21 0
v -39 -21 0
v -38 -22 0
v -39 -22 0
v -39 -21 0
v -38 -21 0
v -53 -27 0
v -54 -27 0
v -54 -26 0
v -53 -26 0
v -52 -27 0
v -53 -27 0
v -53 -26 0
v -52 -26 0
v -51 -27 0
v -52 -27 0
v -52 -26 0
v -51 -26 0
v -50 -27 0
v -51 -27 0
v -51 -26 0
v -50 -26 0
v -53 -35 0
v -54 -35 0
v -54 -34 0
v -53 -34 0
v -52 -35 0
v -53 -35 0
v -53 -34 0
v -52 -34 0
v -51 -35 0
v -52 -35 0
v -52 -34 0
v -51 -34 0
v -50 -35 0
v -51 -35 0
v -51 -34 0
v -50 -34 0
v -49 -35 0
v -50 -35 0
v -50 -34 0
v -49 -34 0

# Texture cooridinates (Count = 124)
vt 0.3966738 0.131701
vt 0.413671 0.131701
vt 0.413671 0.1577727
vt 0.3966738 0.1577727
vt 0.3794324 0.131701
vt 0.3964297 0.131701
vt 0.3964297 0.1577727
vt 0.3794324 0.1577727
vt 0.362191 0.131701
vt 0.3791883 0.131701
vt 0.3791883 0.1577727
vt 0.362191 0.1577727
vt 0.3449497 0.131701
vt 0.3619469 0.131701
vt 0.3619469 0.1577727
vt 0.3449497 0.1577727
vt 0.3277083 0.131701
vt 0.3447055 0.131701
vt 0.3447055 0.1577727
vt 0.3277083 0.1577727
vt 0.3104669 0.131701
vt 0.3274641 0.131701
vt 0.3274641 0.1577727
vt 0.3104669 0.1577727
vt 0.2932255 0.131701
vt 0.3102227 0.131701
vt 0.3102227 0.1577727
vt 0.2932255 0.1577727
vt 0.7070186 0.7369642
vt 0.7240158 0.7369642
vt 0.7240158 0.7630358
vt 0.7070186 0.7630358
vt 0.6897773 0.7369642
vt 0.7067745 0.7369642
vt 0.7067745 0.7630358
vt 0.6897773 0.7630358
vt 0.6725358 0.7369642
vt 0.6895331 0.7369642
vt 0.6895331 0.7630358
vt 0.6725358 0.7630358
vt 0.6552945 0.7369642
vt 0.6722917 0.7369642
vt 0.6722917 0.7630358
vt 0.6552945 0.7630358
vt 0.586329 0.6843326
vt 0.6033262 0.6843326
vt 0.6033262 0.7104043
vt 0.586329 0.7104043
vt 0.5690876 0.6843326
vt 0.5860848 0.6843326
vt 0.5860848 0.7104043
vt 0.5690876 0.7104043
vt 0.5518462 0.6843326
vt 0.5688434 0.6843326
vt 0.5688434 0.7104043
vt 0.5518462 0.7104043
vt 0.5346048 0.6843326
vt 0.5516021 0.6843326
vt 0.5516021 0.7104043
vt 0.5346048 0.7104043
vt 0.5173634 0.6843326
vt 0.5343607 0.6843326
vt 0.5343607 0.7104043
vt 0.5173634 0.7104043
vt 0.5001221 0.6843326
vt 0.5171193 0.6843326
vt 0.5171193 0.7104043
vt 0.5001221 0.7104043
vt 0.4828807 0.6843326
vt 0.4998779 0.6843326
vt 0.4998779 0.7104043
vt 0.4828807 0.7104043
vt 0.3966738 0.8685431
vt 0.413671 0.8685431
vt 0.413671 0.8946148
vt 0.3966738 0.8946148
vt 0.3794324 0.8685431
vt 0.3964297 0.8685431
vt 0.3964297 0.8946148
vt 0.3794324 0.8946148
vt 0.362191 0.8685431
vt 0.3791883 0.8685431
vt 0.3791883 0.8946148
vt 0.362191 0.8946148
vt 0.3449497 0.8685431
vt 0.3619469 0.8685431
vt 0.3619469 0.8946148
vt 0.3449497 0.8946148
vt 0.3277083 0.8685431
vt 0.3447055 0.8685431
vt 0.3447055 0.8946148
vt 0.3277083 0.8946148
vt 0.362191 0.9738063
vt 0.3791883 0.9738063
vt 0.3791883 0.9998779
vt 0.362191 0.9998779
vt 0.3449497 0.9738063
vt 0.3619469 0.9738063
vt 0.3619469 0.9998779
vt 0.3449497 0.9998779
vt 0.3277083 0.9738063
vt 0.3447055 0.9738063
vt 0.3447055 0.9998779
vt 0.3277083 0.9998779
vt 0.2587427 0.5790694
vt 0.27574 0.5790694
vt 0.27574 0.605141
vt 0.2587427 0.605141
vt 0.2415014 0.5790694
vt 0.2584986 0.5790694
vt 0.2584986 0.605141
vt 0.2415014 0.605141
vt 0.22426 0.5790694
vt 0.2412572 0.5790694
vt 0.2412572 0.605141
vt 0.22426 0.605141
vt 0.2070186 0.5790694
vt 0.2240159 0.5790694
vt 0.2240159 0.605141
vt 0.2070186 0.605141
vt 0.1897772 0.5790694
vt 0.2067745 0.5790694
vt 0.2067745 0.605141
vt 0.1897772 0.605141

# Normal
vn 0 0 -1

# Mesh description
g Gaisano_mesh_0008

# Faces
f 1/1/1 2/2/1 3/3/1 4/4/1
f 5/5/1 6/6/1 7/7/1 8/8/1
f 9/9/1 10/10/1 11/11/1 12/12/1
f 13/13/1 14/14/1 15/15/1 16/16/1
f 17/17/1 18/18/1 19/19/1 20/20/1
f 21/21/1 22/22/1 23/23/1 24/24/1
f 25/25/1 26/26/1 27/27/1 28/28/1
f 29/29/1 30/30/1 31/31/1 32/32/1
f 33/33/1 34/34/1 35/35/1 36/36/1
f 37/37/1 38/38/1 39/39/1 40/40/1
f 41/41/1 42/42/1 43/43/1 44/44/1
f 45/45/1 46/46/1 47/47/1 48/48/1
f 49/49/1 50/50/1 51/51/1 52/52/1
f 53/53/1 54/54/1 55/55/1 56/56/1
f 57/57/1 58/58/1 59/59/1 60/60/1
f 61/61/1 62/62/1 63/63/1 64/64/1
f 65/65/1 66/66/1 67/67/1 68/68/1
f 69/69/1 70/70/1 71/71/1 72/72/1
f 73/73/1 74/74/1 75/75/1 76/76/1
f 77/77/1 78/78/1 79/79/1 80/80/1
f 81/81/1 82/82/1 83/83/1 84/84/1
f 85/85/1 86/86/1 87/87/1 88/88/1
f 89/89/1 90/90/1 91/91/1 92/92/1
f 93/93/1 94/94/1 95/95/1 96/96/1
f 97/97/1 98/98/1 99/99/1 100/100/1
f 101/101/1 102/102/1 103/103/1 104/104/1
f 105/93/1 106/94/1 107/95/1 108/96/1
f 109/97/1 110/98/1 111/99/1 112/100/1
f 113/101/1 114/102/1 115/103/1 116/104/1
f 117/29/1 118/30/1 119/31/1 120/32/1
f 121/33/1 122/34/1 123/35/1 124/36/1
f 125/37/1 126/38/1 127/39/1 128/40/1
f 129/41/1 130/42/1 131/43/1 132/44/1
f 133/105/1 134/106/1 135/107/1 136/108/1
f 137/109/1 138/110/1 139/111/1 140/112/1
f 141/113/1 142/114/1 143/115/1 144/116/1
f 145/117/1 146/118/1 147/119/1 148/120/1
f 149/121/1 150/122/1 151/123/1 152/124/1

