# Tiled2Unity generated file. Do not modify by hand.
# Wavefront file for 'Gaisano_mesh_0003.obj'

# Vertices (Count = 720)
v -45 -6 0
v -46 -6 0
v -46 -5 0
v -45 -5 0
v -44 -6 0
v -45 -6 0
v -45 -5 0
v -44 -5 0
v -43 -6 0
v -44 -6 0
v -44 -5 0
v -43 -5 0
v -42 -6 0
v -43 -6 0
v -43 -5 0
v -42 -5 0
v -12 -7 0
v -13 -7 0
v -13 -6 0
v -12 -6 0
v -11 -7 0
v -12 -7 0
v -12 -6 0
v -11 -6 0
v -10 -7 0
v -11 -7 0
v -11 -6 0
v -10 -6 0
v -9 -7 0
v -10 -7 0
v -10 -6 0
v -9 -6 0
v -6 -9 0
v -7 -9 0
v -7 -8 0
v -6 -8 0
v -5 -9 0
v -6 -9 0
v -6 -8 0
v -5 -8 0
v -4 -9 0
v -5 -9 0
v -5 -8 0
v -4 -8 0
v -3 -9 0
v -4 -9 0
v -4 -8 0
v -3 -8 0
v -11 -10 0
v -12 -10 0
v -12 -9 0
v -11 -9 0
v -10 -10 0
v -11 -10 0
v -11 -9 0
v -10 -9 0
v -9 -10 0
v -10 -10 0
v -10 -9 0
v -9 -9 0
v -11 -19 0
v -12 -19 0
v -12 -18 0
v -11 -18 0
v -10 -19 0
v -11 -19 0
v -11 -18 0
v -10 -18 0
v -9 -19 0
v -10 -19 0
v -10 -18 0
v -9 -18 0
v -8 -19 0
v -9 -19 0
v -9 -18 0
v -8 -18 0
v -21 -20 0
v -22 -20 0
v -22 -19 0
v -21 -19 0
v -20 -20 0
v -21 -20 0
v -21 -19 0
v -20 -19 0
v -19 -20 0
v -20 -20 0
v -20 -19 0
v -19 -19 0
v -18 -20 0
v -19 -20 0
v -19 -19 0
v -18 -19 0
v -28 -23 0
v -29 -23 0
v -29 -22 0
v -28 -22 0
v -27 -23 0
v -28 -23 0
v -28 -22 0
v -27 -22 0
v -26 -23 0
v -27 -23 0
v -27 -22 0
v -26 -22 0
v -25 -23 0
v -26 -23 0
v -26 -22 0
v -25 -22 0
v -9 -24 0
v -10 -24 0
v -10 -23 0
v -9 -23 0
v -8 -24 0
v -9 -24 0
v -9 -23 0
v -8 -23 0
v -7 -24 0
v -8 -24 0
v -8 -23 0
v -7 -23 0
v -6 -24 0
v -7 -24 0
v -7 -23 0
v -6 -23 0
v -17 -26 0
v -18 -26 0
v -18 -25 0
v -17 -25 0
v -16 -26 0
v -17 -26 0
v -17 -25 0
v -16 -25 0
v -15 -26 0
v -16 -26 0
v -16 -25 0
v -15 -25 0
v -14 -26 0
v -15 -26 0
v -15 -25 0
v -14 -25 0
v -21 -32 0
v -22 -32 0
v -22 -31 0
v -21 -31 0
v -20 -32 0
v -21 -32 0
v -21 -31 0
v -20 -31 0
v -19 -32 0
v -20 -32 0
v -20 -31 0
v -19 -31 0
v -18 -32 0
v -19 -32 0
v -19 -31 0
v -18 -31 0
v -30 -33 0
v -31 -33 0
v -31 -32 0
v -30 -32 0
v -29 -33 0
v -30 -33 0
v -30 -32 0
v -29 -32 0
v -28 -33 0
v -29 -33 0
v -29 -32 0
v -28 -32 0
v -27 -33 0
v -28 -33 0
v -28 -32 0
v -27 -32 0
v -8 -33 0
v -9 -33 0
v -9 -32 0
v -8 -32 0
v -7 -33 0
v -8 -33 0
v -8 -32 0
v -7 -32 0
v -6 -33 0
v -7 -33 0
v -7 -32 0
v -6 -32 0
v -5 -33 0
v -6 -33 0
v -6 -32 0
v -5 -32 0
v -25 -35 0
v -26 -35 0
v -26 -34 0
v -25 -34 0
v -24 -35 0
v -25 -35 0
v -25 -34 0
v -24 -34 0
v -23 -35 0
v -24 -35 0
v -24 -34 0
v -23 -34 0
v -22 -35 0
v -23 -35 0
v -23 -34 0
v -22 -34 0
v -20 -36 0
v -21 -36 0
v -21 -35 0
v -20 -35 0
v -19 -36 0
v -20 -36 0
v -20 -35 0
v -19 -35 0
v -18 -36 0
v -19 -36 0
v -19 -35 0
v -18 -35 0
v -17 -36 0
v -18 -36 0
v -18 -35 0
v -17 -35 0
v -47 -37 0
v -48 -37 0
v -48 -36 0
v -47 -36 0
v -46 -37 0
v -47 -37 0
v -47 -36 0
v -46 -36 0
v -45 -37 0
v -46 -37 0
v -46 -36 0
v -45 -36 0
v -44 -37 0
v -45 -37 0
v -45 -36 0
v -44 -36 0
v -38 -37 0
v -39 -37 0
v -39 -36 0
v -38 -36 0
v -29 -37 0
v -30 -37 0
v -30 -36 0
v -29 -36 0
v -28 -37 0
v -29 -37 0
v -29 -36 0
v -28 -36 0
v -27 -37 0
v -28 -37 0
v -28 -36 0
v -27 -36 0
v -26 -37 0
v -27 -37 0
v -27 -36 0
v -26 -36 0
v -39 -38 0
v -40 -38 0
v -40 -37 0
v -39 -37 0
v -38 -38 0
v -39 -38 0
v -39 -37 0
v -38 -37 0
v -9 -38 0
v -10 -38 0
v -10 -37 0
v -9 -37 0
v -8 -38 0
v -9 -38 0
v -9 -37 0
v -8 -37 0
v -7 -38 0
v -8 -38 0
v -8 -37 0
v -7 -37 0
v -6 -38 0
v -7 -38 0
v -7 -37 0
v -6 -37 0
v -39 -39 0
v -40 -39 0
v -40 -38 0
v -39 -38 0
v -44 -40 0
v -45 -40 0
v -45 -39 0
v -44 -39 0
v -43 -40 0
v -44 -40 0
v -44 -39 0
v -43 -39 0
v -42 -40 0
v -43 -40 0
v -43 -39 0
v -42 -39 0
v -39 -40 0
v -40 -40 0
v -40 -39 0
v -39 -39 0
v -39 -41 0
v -40 -41 0
v -40 -40 0
v -39 -40 0
v -40 -42 0
v -41 -42 0
v -41 -41 0
v -40 -41 0
v -39 -42 0
v -40 -42 0
v -40 -41 0
v -39 -41 0
v -41 -43 0
v -42 -43 0
v -42 -42 0
v -41 -42 0
v -40 -43 0
v -41 -43 0
v -41 -42 0
v -40 -42 0
v -13 -48 0
v -14 -48 0
v -14 -47 0
v -13 -47 0
v -12 -48 0
v -13 -48 0
v -13 -47 0
v -12 -47 0
v -11 -48 0
v -12 -48 0
v -12 -47 0
v -11 -47 0
v -10 -48 0
v -11 -48 0
v -11 -47 0
v -10 -47 0
v -9 -49 0
v -10 -49 0
v -10 -48 0
v -9 -48 0
v -8 -49 0
v -9 -49 0
v -9 -48 0
v -8 -48 0
v -7 -49 0
v -8 -49 0
v -8 -48 0
v -7 -48 0
v -6 -49 0
v -7 -49 0
v -7 -48 0
v -6 -48 0
v -17 -50 0
v -18 -50 0
v -18 -49 0
v -17 -49 0
v -16 -50 0
v -17 -50 0
v -17 -49 0
v -16 -49 0
v -15 -50 0
v -16 -50 0
v -16 -49 0
v -15 -49 0
v -14 -50 0
v -15 -50 0
v -15 -49 0
v -14 -49 0
v -22 -52 0
v -23 -52 0
v -23 -51 0
v -22 -51 0
v -21 -52 0
v -22 -52 0
v -22 -51 0
v -21 -51 0
v -20 -52 0
v -21 -52 0
v -21 -51 0
v -20 -51 0
v -19 -52 0
v -20 -52 0
v -20 -51 0
v -19 -51 0
v -48 -54 0
v -49 -54 0
v -49 -53 0
v -48 -53 0
v -47 -54 0
v -48 -54 0
v -48 -53 0
v -47 -53 0
v -46 -54 0
v -47 -54 0
v -47 -53 0
v -46 -53 0
v -45 -54 0
v -46 -54 0
v -46 -53 0
v -45 -53 0
v -15 -55 0
v -16 -55 0
v -16 -54 0
v -15 -54 0
v -14 -55 0
v -15 -55 0
v -15 -54 0
v -14 -54 0
v -13 -55 0
v -14 -55 0
v -14 -54 0
v -13 -54 0
v -12 -55 0
v -13 -55 0
v -13 -54 0
v -12 -54 0
v -37 -59 0
v -38 -59 0
v -38 -58 0
v -37 -58 0
v -36 -59 0
v -37 -59 0
v -37 -58 0
v -36 -58 0
v -35 -59 0
v -36 -59 0
v -36 -58 0
v -35 -58 0
v -34 -59 0
v -35 -59 0
v -35 -58 0
v -34 -58 0
v -33 -61 0
v -34 -61 0
v -34 -60 0
v -33 -60 0
v -32 -61 0
v -33 -61 0
v -33 -60 0
v -32 -60 0
v -31 -61 0
v -32 -61 0
v -32 -60 0
v -31 -60 0
v -30 -61 0
v -31 -61 0
v -31 -60 0
v -30 -60 0
v -40 -68 0
v -41 -68 0
v -41 -67 0
v -40 -67 0
v -39 -68 0
v -40 -68 0
v -40 -67 0
v -39 -67 0
v -38 -68 0
v -39 -68 0
v -39 -67 0
v -38 -67 0
v -37 -68 0
v -38 -68 0
v -38 -67 0
v -37 -67 0
v -11 -68 0
v -12 -68 0
v -12 -67 0
v -11 -67 0
v -10 -68 0
v -11 -68 0
v -11 -67 0
v -10 -67 0
v -9 -68 0
v -10 -68 0
v -10 -67 0
v -9 -67 0
v -8 -68 0
v -9 -68 0
v -9 -67 0
v -8 -67 0
v -7 -68 0
v -8 -68 0
v -8 -67 0
v -7 -67 0
v -6 -68 0
v -7 -68 0
v -7 -67 0
v -6 -67 0
v -12 -69 0
v -13 -69 0
v -13 -68 0
v -12 -68 0
v -11 -69 0
v -12 -69 0
v -12 -68 0
v -11 -68 0
v -7 -69 0
v -8 -69 0
v -8 -68 0
v -7 -68 0
v -6 -69 0
v -7 -69 0
v -7 -68 0
v -6 -68 0
v -33 -70 0
v -34 -70 0
v -34 -69 0
v -33 -69 0
v -32 -70 0
v -33 -70 0
v -33 -69 0
v -32 -69 0
v -31 -70 0
v -32 -70 0
v -32 -69 0
v -31 -69 0
v -30 -70 0
v -31 -70 0
v -31 -69 0
v -30 -69 0
v -13 -70 0
v -14 -70 0
v -14 -69 0
v -13 -69 0
v -12 -70 0
v -13 -70 0
v -13 -69 0
v -12 -69 0
v -7 -70 0
v -8 -70 0
v -8 -69 0
v -7 -69 0
v -47 -71 0
v -48 -71 0
v -48 -70 0
v -47 -70 0
v -46 -71 0
v -47 -71 0
v -47 -70 0
v -46 -70 0
v -45 -71 0
v -46 -71 0
v -46 -70 0
v -45 -70 0
v -44 -71 0
v -45 -71 0
v -45 -70 0
v -44 -70 0
v -13 -71 0
v -14 -71 0
v -14 -70 0
v -13 -70 0
v -7 -71 0
v -8 -71 0
v -8 -70 0
v -7 -70 0
v -6 -71 0
v -7 -71 0
v -7 -70 0
v -6 -70 0
v -13 -72 0
v -14 -72 0
v -14 -71 0
v -13 -71 0
v -12 -72 0
v -13 -72 0
v -13 -71 0
v -12 -71 0
v -6 -72 0
v -7 -72 0
v -7 -71 0
v -6 -71 0
v -5 -72 0
v -6 -72 0
v -6 -71 0
v -5 -71 0
v -12 -73 0
v -13 -73 0
v -13 -72 0
v -12 -72 0
v -11 -73 0
v -12 -73 0
v -12 -72 0
v -11 -72 0
v -10 -73 0
v -11 -73 0
v -11 -72 0
v -10 -72 0
v -7 -73 0
v -8 -73 0
v -8 -72 0
v -7 -72 0
v -6 -73 0
v -7 -73 0
v -7 -72 0
v -6 -72 0
v -5 -73 0
v -6 -73 0
v -6 -72 0
v -5 -72 0
v -44 -74 0
v -45 -74 0
v -45 -73 0
v -44 -73 0
v -43 -74 0
v -44 -74 0
v -44 -73 0
v -43 -73 0
v -42 -74 0
v -43 -74 0
v -43 -73 0
v -42 -73 0
v -41 -74 0
v -42 -74 0
v -42 -73 0
v -41 -73 0
v -12 -74 0
v -13 -74 0
v -13 -73 0
v -12 -73 0
v -11 -74 0
v -12 -74 0
v -12 -73 0
v -11 -73 0
v -10 -74 0
v -11 -74 0
v -11 -73 0
v -10 -73 0
v -9 -74 0
v -10 -74 0
v -10 -73 0
v -9 -73 0
v -8 -74 0
v -9 -74 0
v -9 -73 0
v -8 -73 0
v -7 -74 0
v -8 -74 0
v -8 -73 0
v -7 -73 0
v -6 -74 0
v -7 -74 0
v -7 -73 0
v -6 -73 0
v -5 -74 0
v -6 -74 0
v -6 -73 0
v -5 -73 0
v -39 -75 0
v -40 -75 0
v -40 -74 0
v -39 -74 0
v -38 -75 0
v -39 -75 0
v -39 -74 0
v -38 -74 0
v -37 -75 0
v -38 -75 0
v -38 -74 0
v -37 -74 0
v -36 -75 0
v -37 -75 0
v -37 -74 0
v -36 -74 0
v -12 -75 0
v -13 -75 0
v -13 -74 0
v -12 -74 0
v -11 -75 0
v -12 -75 0
v -12 -74 0
v -11 -74 0
v -10 -75 0
v -11 -75 0
v -11 -74 0
v -10 -74 0
v -9 -75 0
v -10 -75 0
v -10 -74 0
v -9 -74 0
v -8 -75 0
v -9 -75 0
v -9 -74 0
v -8 -74 0
v -7 -75 0
v -8 -75 0
v -8 -74 0
v -7 -74 0
v -6 -75 0
v -7 -75 0
v -7 -74 0
v -6 -74 0
v -11 -76 0
v -12 -76 0
v -12 -75 0
v -11 -75 0
v -10 -76 0
v -11 -76 0
v -11 -75 0
v -10 -75 0
v -9 -76 0
v -10 -76 0
v -10 -75 0
v -9 -75 0
v -26 -77 0
v -27 -77 0
v -27 -76 0
v -26 -76 0
v -25 -77 0
v -26 -77 0
v -26 -76 0
v -25 -76 0
v -24 -77 0
v -25 -77 0
v -25 -76 0
v -24 -76 0
v -23 -77 0
v -24 -77 0
v -24 -76 0
v -23 -76 0

# Texture cooridinates (Count = 36)
vt 0.3538282 0.08345538
vt 0.3743903 0.08345538
vt 0.3743903 0.110989
vt 0.3538282 0.110989
vt 0.3330219 0.08345538
vt 0.3535841 0.08345538
vt 0.3535841 0.110989
vt 0.3330219 0.110989
vt 0.3122157 0.08345538
vt 0.3327778 0.08345538
vt 0.3327778 0.110989
vt 0.3122157 0.110989
vt 0.2914095 0.08345538
vt 0.3119715 0.08345538
vt 0.3119715 0.110989
vt 0.2914095 0.110989
vt 0.0625408 0.0001220703
vt 0.0831029 0.0001220703
vt 0.0831029 0.02765572
vt 0.0625408 0.02765572
vt 0.04173455 0.0001220703
vt 0.06229666 0.0001220703
vt 0.06229666 0.02765572
vt 0.04173455 0.02765572
vt 0.02092831 0.0001220703
vt 0.04149041 0.0001220703
vt 0.04149041 0.02765572
vt 0.02092831 0.02765572
vt 0.0001220703 0.0001220703
vt 0.02068417 0.0001220703
vt 0.02068417 0.02765572
vt 0.0001220703 0.02765572
vt 0.04173455 0.5834554
vt 0.06229666 0.5834554
vt 0.06229666 0.610989
vt 0.04173455 0.610989

# Normal
vn 0 0 -1

# Mesh description
g Gaisano_mesh_0003

# Faces
f 1/1/1 2/2/1 3/3/1 4/4/1
f 5/5/1 6/6/1 7/7/1 8/8/1
f 9/9/1 10/10/1 11/11/1 12/12/1
f 13/13/1 14/14/1 15/15/1 16/16/1
f 17/17/1 18/18/1 19/19/1 20/20/1
f 21/21/1 22/22/1 23/23/1 24/24/1
f 25/25/1 26/26/1 27/27/1 28/28/1
f 29/29/1 30/30/1 31/31/1 32/32/1
f 33/17/1 34/18/1 35/19/1 36/20/1
f 37/21/1 38/22/1 39/23/1 40/24/1
f 41/25/1 42/26/1 43/27/1 44/28/1
f 45/29/1 46/30/1 47/31/1 48/32/1
f 49/17/1 50/18/1 51/19/1 52/20/1
f 53/21/1 54/22/1 55/23/1 56/24/1
f 57/25/1 58/26/1 59/27/1 60/28/1
f 61/17/1 62/18/1 63/19/1 64/20/1
f 65/21/1 66/22/1 67/23/1 68/24/1
f 69/25/1 70/26/1 71/27/1 72/28/1
f 73/29/1 74/30/1 75/31/1 76/32/1
f 77/17/1 78/18/1 79/19/1 80/20/1
f 81/21/1 82/22/1 83/23/1 84/24/1
f 85/25/1 86/26/1 87/27/1 88/28/1
f 89/29/1 90/30/1 91/31/1 92/32/1
f 93/17/1 94/18/1 95/19/1 96/20/1
f 97/21/1 98/22/1 99/23/1 100/24/1
f 101/25/1 102/26/1 103/27/1 104/28/1
f 105/29/1 106/30/1 107/31/1 108/32/1
f 109/1/1 110/2/1 111/3/1 112/4/1
f 113/5/1 114/6/1 115/7/1 116/8/1
f 117/9/1 118/10/1 119/11/1 120/12/1
f 121/13/1 122/14/1 123/15/1 124/16/1
f 125/1/1 126/2/1 127/3/1 128/4/1
f 129/5/1 130/6/1 131/7/1 132/8/1
f 133/9/1 134/10/1 135/11/1 136/12/1
f 137/13/1 138/14/1 139/15/1 140/16/1
f 141/17/1 142/18/1 143/19/1 144/20/1
f 145/21/1 146/22/1 147/23/1 148/24/1
f 149/25/1 150/26/1 151/27/1 152/28/1
f 153/29/1 154/30/1 155/31/1 156/32/1
f 157/17/1 158/18/1 159/19/1 160/20/1
f 161/21/1 162/22/1 163/23/1 164/24/1
f 165/25/1 166/26/1 167/27/1 168/28/1
f 169/29/1 170/30/1 171/31/1 172/32/1
f 173/1/1 174/2/1 175/3/1 176/4/1
f 177/5/1 178/6/1 179/7/1 180/8/1
f 181/9/1 182/10/1 183/11/1 184/12/1
f 185/13/1 186/14/1 187/15/1 188/16/1
f 189/17/1 190/18/1 191/19/1 192/20/1
f 193/21/1 194/22/1 195/23/1 196/24/1
f 197/25/1 198/26/1 199/27/1 200/28/1
f 201/29/1 202/30/1 203/31/1 204/32/1
f 205/17/1 206/18/1 207/19/1 208/20/1
f 209/21/1 210/22/1 211/23/1 212/24/1
f 213/25/1 214/26/1 215/27/1 216/28/1
f 217/29/1 218/30/1 219/31/1 220/32/1
f 221/17/1 222/18/1 223/19/1 224/20/1
f 225/21/1 226/22/1 227/23/1 228/24/1
f 229/25/1 230/26/1 231/27/1 232/28/1
f 233/29/1 234/30/1 235/31/1 236/32/1
f 237/33/1 238/34/1 239/35/1 240/36/1
f 241/1/1 242/2/1 243/3/1 244/4/1
f 245/5/1 246/6/1 247/7/1 248/8/1
f 249/9/1 250/10/1 251/11/1 252/12/1
f 253/13/1 254/14/1 255/15/1 256/16/1
f 257/33/1 258/34/1 259/35/1 260/36/1
f 261/33/1 262/34/1 263/35/1 264/36/1
f 265/17/1 266/18/1 267/19/1 268/20/1
f 269/21/1 270/22/1 271/23/1 272/24/1
f 273/25/1 274/26/1 275/27/1 276/28/1
f 277/29/1 278/30/1 279/31/1 280/32/1
f 281/33/1 282/34/1 283/35/1 284/36/1
f 285/21/1 286/22/1 287/23/1 288/24/1
f 289/25/1 290/26/1 291/27/1 292/28/1
f 293/29/1 294/30/1 295/31/1 296/32/1
f 297/33/1 298/34/1 299/35/1 300/36/1
f 301/33/1 302/34/1 303/35/1 304/36/1
f 305/33/1 306/34/1 307/35/1 308/36/1
f 309/33/1 310/34/1 311/35/1 312/36/1
f 313/33/1 314/34/1 315/35/1 316/36/1
f 317/33/1 318/34/1 319/35/1 320/36/1
f 321/1/1 322/2/1 323/3/1 324/4/1
f 325/5/1 326/6/1 327/7/1 328/8/1
f 329/9/1 330/10/1 331/11/1 332/12/1
f 333/13/1 334/14/1 335/15/1 336/16/1
f 337/17/1 338/18/1 339/19/1 340/20/1
f 341/21/1 342/22/1 343/23/1 344/24/1
f 345/25/1 346/26/1 347/27/1 348/28/1
f 349/29/1 350/30/1 351/31/1 352/32/1
f 353/17/1 354/18/1 355/19/1 356/20/1
f 357/21/1 358/22/1 359/23/1 360/24/1
f 361/25/1 362/26/1 363/27/1 364/28/1
f 365/29/1 366/30/1 367/31/1 368/32/1
f 369/1/1 370/2/1 371/3/1 372/4/1
f 373/5/1 374/6/1 375/7/1 376/8/1
f 377/9/1 378/10/1 379/11/1 380/12/1
f 381/13/1 382/14/1 383/15/1 384/16/1
f 385/1/1 386/2/1 387/3/1 388/4/1
f 389/5/1 390/6/1 391/7/1 392/8/1
f 393/9/1 394/10/1 395/11/1 396/12/1
f 397/13/1 398/14/1 399/15/1 400/16/1
f 401/17/1 402/18/1 403/19/1 404/20/1
f 405/21/1 406/22/1 407/23/1 408/24/1
f 409/25/1 410/26/1 411/27/1 412/28/1
f 413/29/1 414/30/1 415/31/1 416/32/1
f 417/17/1 418/18/1 419/19/1 420/20/1
f 421/21/1 422/22/1 423/23/1 424/24/1
f 425/25/1 426/26/1 427/27/1 428/28/1
f 429/29/1 430/30/1 431/31/1 432/32/1
f 433/1/1 434/2/1 435/3/1 436/4/1
f 437/5/1 438/6/1 439/7/1 440/8/1
f 441/9/1 442/10/1 443/11/1 444/12/1
f 445/13/1 446/14/1 447/15/1 448/16/1
f 449/17/1 450/18/1 451/19/1 452/20/1
f 453/21/1 454/22/1 455/23/1 456/24/1
f 457/25/1 458/26/1 459/27/1 460/28/1
f 461/29/1 462/30/1 463/31/1 464/32/1
f 465/33/1 466/34/1 467/35/1 468/36/1
f 469/33/1 470/34/1 471/35/1 472/36/1
f 473/33/1 474/34/1 475/35/1 476/36/1
f 477/33/1 478/34/1 479/35/1 480/36/1
f 481/33/1 482/34/1 483/35/1 484/36/1
f 485/33/1 486/34/1 487/35/1 488/36/1
f 489/33/1 490/34/1 491/35/1 492/36/1
f 493/33/1 494/34/1 495/35/1 496/36/1
f 497/33/1 498/34/1 499/35/1 500/36/1
f 501/33/1 502/34/1 503/35/1 504/36/1
f 505/17/1 506/18/1 507/19/1 508/20/1
f 509/21/1 510/22/1 511/23/1 512/24/1
f 513/25/1 514/26/1 515/27/1 516/28/1
f 517/29/1 518/30/1 519/31/1 520/32/1
f 521/33/1 522/34/1 523/35/1 524/36/1
f 525/33/1 526/34/1 527/35/1 528/36/1
f 529/33/1 530/34/1 531/35/1 532/36/1
f 533/17/1 534/18/1 535/19/1 536/20/1
f 537/21/1 538/22/1 539/23/1 540/24/1
f 541/25/1 542/26/1 543/27/1 544/28/1
f 545/29/1 546/30/1 547/31/1 548/32/1
f 549/33/1 550/34/1 551/35/1 552/36/1
f 553/33/1 554/34/1 555/35/1 556/36/1
f 557/33/1 558/34/1 559/35/1 560/36/1
f 561/33/1 562/34/1 563/35/1 564/36/1
f 565/33/1 566/34/1 567/35/1 568/36/1
f 569/33/1 570/34/1 571/35/1 572/36/1
f 573/33/1 574/34/1 575/35/1 576/36/1
f 577/33/1 578/34/1 579/35/1 580/36/1
f 581/33/1 582/34/1 583/35/1 584/36/1
f 585/33/1 586/34/1 587/35/1 588/36/1
f 589/33/1 590/34/1 591/35/1 592/36/1
f 593/33/1 594/34/1 595/35/1 596/36/1
f 597/33/1 598/34/1 599/35/1 600/36/1
f 601/17/1 602/18/1 603/19/1 604/20/1
f 605/21/1 606/22/1 607/23/1 608/24/1
f 609/25/1 610/26/1 611/27/1 612/28/1
f 613/29/1 614/30/1 615/31/1 616/32/1
f 617/33/1 618/34/1 619/35/1 620/36/1
f 621/33/1 622/34/1 623/35/1 624/36/1
f 625/33/1 626/34/1 627/35/1 628/36/1
f 629/33/1 630/34/1 631/35/1 632/36/1
f 633/33/1 634/34/1 635/35/1 636/36/1
f 637/33/1 638/34/1 639/35/1 640/36/1
f 641/33/1 642/34/1 643/35/1 644/36/1
f 645/33/1 646/34/1 647/35/1 648/36/1
f 649/1/1 650/2/1 651/3/1 652/4/1
f 653/5/1 654/6/1 655/7/1 656/8/1
f 657/9/1 658/10/1 659/11/1 660/12/1
f 661/13/1 662/14/1 663/15/1 664/16/1
f 665/33/1 666/34/1 667/35/1 668/36/1
f 669/33/1 670/34/1 671/35/1 672/36/1
f 673/33/1 674/34/1 675/35/1 676/36/1
f 677/33/1 678/34/1 679/35/1 680/36/1
f 681/33/1 682/34/1 683/35/1 684/36/1
f 685/33/1 686/34/1 687/35/1 688/36/1
f 689/33/1 690/34/1 691/35/1 692/36/1
f 693/33/1 694/34/1 695/35/1 696/36/1
f 697/33/1 698/34/1 699/35/1 700/36/1
f 701/33/1 702/34/1 703/35/1 704/36/1
f 705/1/1 706/2/1 707/3/1 708/4/1
f 709/5/1 710/6/1 711/7/1 712/8/1
f 713/9/1 714/10/1 715/11/1 716/12/1
f 717/13/1 718/14/1 719/15/1 720/16/1

