# Tiled2Unity generated file. Do not modify by hand.
# Wavefront file for 'AmbagoElemSchool_mesh_0006.obj'

# Vertices (Count = 32)
v -5 -15 0
v -6 -15 0
v -6 -14 0
v -5 -14 0
v -4 -15 0
v -5 -15 0
v -5 -14 0
v -4 -14 0
v -3 -15 0
v -4 -15 0
v -4 -14 0
v -3 -14 0
v -6 -18 0
v -7 -18 0
v -7 -17 0
v -6 -17 0
v -5 -18 0
v -6 -18 0
v -6 -17 0
v -5 -17 0
v -4 -18 0
v -5 -18 0
v -5 -17 0
v -4 -17 0
v -3 -18 0
v -4 -18 0
v -4 -17 0
v -3 -17 0
v -2 -18 0
v -3 -18 0
v -3 -17 0
v -2 -17 0

# Texture cooridinates (Count = 32)
vt 0.362191 0.9738063
vt 0.3791883 0.9738063
vt 0.3791883 0.9998779
vt 0.362191 0.9998779
vt 0.3449497 0.9738063
vt 0.3619469 0.9738063
vt 0.3619469 0.9998779
vt 0.3449497 0.9998779
vt 0.3277083 0.9738063
vt 0.3447055 0.9738063
vt 0.3447055 0.9998779
vt 0.3277083 0.9998779
vt 0.3966738 0.8685431
vt 0.413671 0.8685431
vt 0.413671 0.8946148
vt 0.3966738 0.8946148
vt 0.3794324 0.8685431
vt 0.3964297 0.8685431
vt 0.3964297 0.8946148
vt 0.3794324 0.8946148
vt 0.362191 0.8685431
vt 0.3791883 0.8685431
vt 0.3791883 0.8946148
vt 0.362191 0.8946148
vt 0.3449497 0.8685431
vt 0.3619469 0.8685431
vt 0.3619469 0.8946148
vt 0.3449497 0.8946148
vt 0.3277083 0.8685431
vt 0.3447055 0.8685431
vt 0.3447055 0.8946148
vt 0.3277083 0.8946148

# Normal
vn 0 0 -1

# Mesh description
g AmbagoElemSchool_mesh_0006

# Faces
f 1/1/1 2/2/1 3/3/1 4/4/1
f 5/5/1 6/6/1 7/7/1 8/8/1
f 9/9/1 10/10/1 11/11/1 12/12/1
f 13/13/1 14/14/1 15/15/1 16/16/1
f 17/17/1 18/18/1 19/19/1 20/20/1
f 21/21/1 22/22/1 23/23/1 24/24/1
f 25/25/1 26/26/1 27/27/1 28/28/1
f 29/29/1 30/30/1 31/31/1 32/32/1

