# Tiled2Unity generated file. Do not modify by hand.
# Wavefront file for 'AmbagoElemSchool_mesh_0002.obj'

# Vertices (Count = 932)
v -29 -1 0
v -30 -1 0
v -30 0 0
v -29 0 0
v -28 -1 0
v -29 -1 0
v -29 0 0
v -28 0 0
v -27 -1 0
v -28 -1 0
v -28 0 0
v -27 0 0
v -26 -1 0
v -27 -1 0
v -27 0 0
v -26 0 0
v -25 -1 0
v -26 -1 0
v -26 0 0
v -25 0 0
v -24 -1 0
v -25 -1 0
v -25 0 0
v -24 0 0
v -23 -1 0
v -24 -1 0
v -24 0 0
v -23 0 0
v -22 -1 0
v -23 -1 0
v -23 0 0
v -22 0 0
v -21 -1 0
v -22 -1 0
v -22 0 0
v -21 0 0
v -20 -1 0
v -21 -1 0
v -21 0 0
v -20 0 0
v -19 -1 0
v -20 -1 0
v -20 0 0
v -19 0 0
v -18 -1 0
v -19 -1 0
v -19 0 0
v -18 0 0
v -17 -1 0
v -18 -1 0
v -18 0 0
v -17 0 0
v -16 -1 0
v -17 -1 0
v -17 0 0
v -16 0 0
v -15 -1 0
v -16 -1 0
v -16 0 0
v -15 0 0
v -14 -1 0
v -15 -1 0
v -15 0 0
v -14 0 0
v -13 -1 0
v -14 -1 0
v -14 0 0
v -13 0 0
v -12 -1 0
v -13 -1 0
v -13 0 0
v -12 0 0
v -8 -1 0
v -9 -1 0
v -9 0 0
v -8 0 0
v -7 -1 0
v -8 -1 0
v -8 0 0
v -7 0 0
v -6 -1 0
v -7 -1 0
v -7 0 0
v -6 0 0
v -5 -1 0
v -6 -1 0
v -6 0 0
v -5 0 0
v -4 -1 0
v -5 -1 0
v -5 0 0
v -4 0 0
v -3 -1 0
v -4 -1 0
v -4 0 0
v -3 0 0
v -2 -1 0
v -3 -1 0
v -3 0 0
v -2 0 0
v -1 -1 0
v -2 -1 0
v -2 0 0
v -1 0 0
v 0 -1 0
v -1 -1 0
v -1 0 0
v 0 0 0
v -29 -2 0
v -30 -2 0
v -30 -1 0
v -29 -1 0
v 0 -2 0
v -1 -2 0
v -1 -1 0
v 0 -1 0
v -29 -3 0
v -30 -3 0
v -30 -2 0
v -29 -2 0
v 0 -3 0
v -1 -3 0
v -1 -2 0
v 0 -2 0
v -29 -4 0
v -30 -4 0
v -30 -3 0
v -29 -3 0
v -16 -4 0
v -17 -4 0
v -17 -3 0
v -16 -3 0
v -15 -4 0
v -16 -4 0
v -16 -3 0
v -15 -3 0
v -29 -5 0
v -30 -5 0
v -30 -4 0
v -29 -4 0
v -16 -5 0
v -17 -5 0
v -17 -4 0
v -16 -4 0
v -15 -5 0
v -16 -5 0
v -16 -4 0
v -15 -4 0
v -29 -6 0
v -30 -6 0
v -30 -5 0
v -29 -5 0
v -18 -6 0
v -19 -6 0
v -19 -5 0
v -18 -5 0
v -17 -6 0
v -18 -6 0
v -18 -5 0
v -17 -5 0
v -14 -6 0
v -15 -6 0
v -15 -5 0
v -14 -5 0
v -13 -6 0
v -14 -6 0
v -14 -5 0
v -13 -5 0
v -12 -6 0
v -13 -6 0
v -13 -5 0
v -12 -5 0
v -29 -7 0
v -30 -7 0
v -30 -6 0
v -29 -6 0
v -18 -7 0
v -19 -7 0
v -19 -6 0
v -18 -6 0
v -17 -7 0
v -18 -7 0
v -18 -6 0
v -17 -6 0
v -15 -7 0
v -16 -7 0
v -16 -6 0
v -15 -6 0
v -14 -7 0
v -15 -7 0
v -15 -6 0
v -14 -6 0
v -13 -7 0
v -14 -7 0
v -14 -6 0
v -13 -6 0
v 0 -7 0
v -1 -7 0
v -1 -6 0
v 0 -6 0
v -29 -8 0
v -30 -8 0
v -30 -7 0
v -29 -7 0
v 0 -8 0
v -1 -8 0
v -1 -7 0
v 0 -7 0
v -29 -9 0
v -30 -9 0
v -30 -8 0
v -29 -8 0
v 0 -9 0
v -1 -9 0
v -1 -8 0
v 0 -8 0
v -29 -10 0
v -30 -10 0
v -30 -9 0
v -29 -9 0
v 0 -10 0
v -1 -10 0
v -1 -9 0
v 0 -9 0
v -29 -11 0
v -30 -11 0
v -30 -10 0
v -29 -10 0
v -22 -11 0
v -23 -11 0
v -23 -10 0
v -22 -10 0
v 0 -11 0
v -1 -11 0
v -1 -10 0
v 0 -10 0
v -29 -12 0
v -30 -12 0
v -30 -11 0
v -29 -11 0
v -25 -12 0
v -26 -12 0
v -26 -11 0
v -25 -11 0
v -24 -12 0
v -25 -12 0
v -25 -11 0
v -24 -11 0
v -23 -12 0
v -24 -12 0
v -24 -11 0
v -23 -11 0
v -22 -12 0
v -23 -12 0
v -23 -11 0
v -22 -11 0
v 0 -12 0
v -1 -12 0
v -1 -11 0
v 0 -11 0
v -29 -13 0
v -30 -13 0
v -30 -12 0
v -29 -12 0
v -25 -13 0
v -26 -13 0
v -26 -12 0
v -25 -12 0
v -24 -13 0
v -25 -13 0
v -25 -12 0
v -24 -12 0
v 0 -13 0
v -1 -13 0
v -1 -12 0
v 0 -12 0
v -29 -14 0
v -30 -14 0
v -30 -13 0
v -29 -13 0
v 0 -14 0
v -1 -14 0
v -1 -13 0
v 0 -13 0
v -29 -15 0
v -30 -15 0
v -30 -14 0
v -29 -14 0
v -19 -15 0
v -20 -15 0
v -20 -14 0
v -19 -14 0
v -18 -15 0
v -19 -15 0
v -19 -14 0
v -18 -14 0
v -15 -15 0
v -16 -15 0
v -16 -14 0
v -15 -14 0
v 0 -15 0
v -1 -15 0
v -1 -14 0
v 0 -14 0
v -29 -16 0
v -30 -16 0
v -30 -15 0
v -29 -15 0
v -19 -16 0
v -20 -16 0
v -20 -15 0
v -19 -15 0
v -18 -16 0
v -19 -16 0
v -19 -15 0
v -18 -15 0
v -15 -16 0
v -16 -16 0
v -16 -15 0
v -15 -15 0
v 0 -16 0
v -1 -16 0
v -1 -15 0
v 0 -15 0
v -29 -17 0
v -30 -17 0
v -30 -16 0
v -29 -16 0
v -15 -17 0
v -16 -17 0
v -16 -16 0
v -15 -16 0
v 0 -17 0
v -1 -17 0
v -1 -16 0
v 0 -16 0
v -29 -18 0
v -30 -18 0
v -30 -17 0
v -29 -17 0
v -15 -18 0
v -16 -18 0
v -16 -17 0
v -15 -17 0
v -14 -18 0
v -15 -18 0
v -15 -17 0
v -14 -17 0
v 0 -18 0
v -1 -18 0
v -1 -17 0
v 0 -17 0
v -29 -19 0
v -30 -19 0
v -30 -18 0
v -29 -18 0
v -14 -19 0
v -15 -19 0
v -15 -18 0
v -14 -18 0
v 0 -19 0
v -1 -19 0
v -1 -18 0
v 0 -18 0
v -29 -20 0
v -30 -20 0
v -30 -19 0
v -29 -19 0
v -14 -20 0
v -15 -20 0
v -15 -19 0
v -14 -19 0
v 0 -20 0
v -1 -20 0
v -1 -19 0
v 0 -19 0
v -29 -21 0
v -30 -21 0
v -30 -20 0
v -29 -20 0
v -17 -21 0
v -18 -21 0
v -18 -20 0
v -17 -20 0
v -16 -21 0
v -17 -21 0
v -17 -20 0
v -16 -20 0
v 0 -21 0
v -1 -21 0
v -1 -20 0
v 0 -20 0
v -29 -22 0
v -30 -22 0
v -30 -21 0
v -29 -21 0
v -17 -22 0
v -18 -22 0
v -18 -21 0
v -17 -21 0
v -16 -22 0
v -17 -22 0
v -17 -21 0
v -16 -21 0
v 0 -22 0
v -1 -22 0
v -1 -21 0
v 0 -21 0
v -29 -23 0
v -30 -23 0
v -30 -22 0
v -29 -22 0
v -23 -23 0
v -24 -23 0
v -24 -22 0
v -23 -22 0
v -22 -23 0
v -23 -23 0
v -23 -22 0
v -22 -22 0
v 0 -23 0
v -1 -23 0
v -1 -22 0
v 0 -22 0
v -29 -24 0
v -30 -24 0
v -30 -23 0
v -29 -23 0
v 0 -24 0
v -1 -24 0
v -1 -23 0
v 0 -23 0
v -29 -25 0
v -30 -25 0
v -30 -24 0
v -29 -24 0
v -26 -25 0
v -27 -25 0
v -27 -24 0
v -26 -24 0
v -25 -25 0
v -26 -25 0
v -26 -24 0
v -25 -24 0
v -24 -25 0
v -25 -25 0
v -25 -24 0
v -24 -24 0
v -23 -25 0
v -24 -25 0
v -24 -24 0
v -23 -24 0
v -22 -25 0
v -23 -25 0
v -23 -24 0
v -22 -24 0
v -21 -25 0
v -22 -25 0
v -22 -24 0
v -21 -24 0
v -20 -25 0
v -21 -25 0
v -21 -24 0
v -20 -24 0
v -19 -25 0
v -20 -25 0
v -20 -24 0
v -19 -24 0
v -18 -25 0
v -19 -25 0
v -19 -24 0
v -18 -24 0
v 0 -25 0
v -1 -25 0
v -1 -24 0
v 0 -24 0
v -29 -26 0
v -30 -26 0
v -30 -25 0
v -29 -25 0
v -26 -26 0
v -27 -26 0
v -27 -25 0
v -26 -25 0
v -25 -26 0
v -26 -26 0
v -26 -25 0
v -25 -25 0
v -24 -26 0
v -25 -26 0
v -25 -25 0
v -24 -25 0
v -23 -26 0
v -24 -26 0
v -24 -25 0
v -23 -25 0
v -22 -26 0
v -23 -26 0
v -23 -25 0
v -22 -25 0
v -21 -26 0
v -22 -26 0
v -22 -25 0
v -21 -25 0
v -20 -26 0
v -21 -26 0
v -21 -25 0
v -20 -25 0
v -19 -26 0
v -20 -26 0
v -20 -25 0
v -19 -25 0
v -18 -26 0
v -19 -26 0
v -19 -25 0
v -18 -25 0
v 0 -26 0
v -1 -26 0
v -1 -25 0
v 0 -25 0
v -29 -27 0
v -30 -27 0
v -30 -26 0
v -29 -26 0
v -26 -27 0
v -27 -27 0
v -27 -26 0
v -26 -26 0
v -25 -27 0
v -26 -27 0
v -26 -26 0
v -25 -26 0
v -24 -27 0
v -25 -27 0
v -25 -26 0
v -24 -26 0
v -23 -27 0
v -24 -27 0
v -24 -26 0
v -23 -26 0
v -22 -27 0
v -23 -27 0
v -23 -26 0
v -22 -26 0
v -21 -27 0
v -22 -27 0
v -22 -26 0
v -21 -26 0
v -20 -27 0
v -21 -27 0
v -21 -26 0
v -20 -26 0
v -19 -27 0
v -20 -27 0
v -20 -26 0
v -19 -26 0
v -18 -27 0
v -19 -27 0
v -19 -26 0
v -18 -26 0
v 0 -27 0
v -1 -27 0
v -1 -26 0
v 0 -26 0
v -29 -28 0
v -30 -28 0
v -30 -27 0
v -29 -27 0
v 0 -28 0
v -1 -28 0
v -1 -27 0
v 0 -27 0
v -29 -29 0
v -30 -29 0
v -30 -28 0
v -29 -28 0
v 0 -29 0
v -1 -29 0
v -1 -28 0
v 0 -28 0
v -29 -30 0
v -30 -30 0
v -30 -29 0
v -29 -29 0
v 0 -30 0
v -1 -30 0
v -1 -29 0
v 0 -29 0
v -29 -31 0
v -30 -31 0
v -30 -30 0
v -29 -30 0
v 0 -31 0
v -1 -31 0
v -1 -30 0
v 0 -30 0
v -29 -32 0
v -30 -32 0
v -30 -31 0
v -29 -31 0
v 0 -32 0
v -1 -32 0
v -1 -31 0
v 0 -31 0
v -29 -33 0
v -30 -33 0
v -30 -32 0
v -29 -32 0
v 0 -33 0
v -1 -33 0
v -1 -32 0
v 0 -32 0
v -29 -34 0
v -30 -34 0
v -30 -33 0
v -29 -33 0
v -8 -34 0
v -9 -34 0
v -9 -33 0
v -8 -33 0
v -7 -34 0
v -8 -34 0
v -8 -33 0
v -7 -33 0
v 0 -34 0
v -1 -34 0
v -1 -33 0
v 0 -33 0
v -29 -35 0
v -30 -35 0
v -30 -34 0
v -29 -34 0
v -8 -35 0
v -9 -35 0
v -9 -34 0
v -8 -34 0
v -7 -35 0
v -8 -35 0
v -8 -34 0
v -7 -34 0
v -5 -35 0
v -6 -35 0
v -6 -34 0
v -5 -34 0
v -4 -35 0
v -5 -35 0
v -5 -34 0
v -4 -34 0
v -3 -35 0
v -4 -35 0
v -4 -34 0
v -3 -34 0
v 0 -35 0
v -1 -35 0
v -1 -34 0
v 0 -34 0
v -29 -36 0
v -30 -36 0
v -30 -35 0
v -29 -35 0
v 0 -36 0
v -1 -36 0
v -1 -35 0
v 0 -35 0
v -29 -37 0
v -30 -37 0
v -30 -36 0
v -29 -36 0
v 0 -37 0
v -1 -37 0
v -1 -36 0
v 0 -36 0
v -29 -38 0
v -30 -38 0
v -30 -37 0
v -29 -37 0
v 0 -38 0
v -1 -38 0
v -1 -37 0
v 0 -37 0
v -29 -39 0
v -30 -39 0
v -30 -38 0
v -29 -38 0
v 0 -39 0
v -1 -39 0
v -1 -38 0
v 0 -38 0
v -29 -40 0
v -30 -40 0
v -30 -39 0
v -29 -39 0
v 0 -40 0
v -1 -40 0
v -1 -39 0
v 0 -39 0
v -29 -41 0
v -30 -41 0
v -30 -40 0
v -29 -40 0
v 0 -41 0
v -1 -41 0
v -1 -40 0
v 0 -40 0
v -29 -42 0
v -30 -42 0
v -30 -41 0
v -29 -41 0
v -14 -42 0
v -15 -42 0
v -15 -41 0
v -14 -41 0
v -13 -42 0
v -14 -42 0
v -14 -41 0
v -13 -41 0
v 0 -42 0
v -1 -42 0
v -1 -41 0
v 0 -41 0
v -29 -43 0
v -30 -43 0
v -30 -42 0
v -29 -42 0
v -14 -43 0
v -15 -43 0
v -15 -42 0
v -14 -42 0
v -13 -43 0
v -14 -43 0
v -14 -42 0
v -13 -42 0
v 0 -43 0
v -1 -43 0
v -1 -42 0
v 0 -42 0
v -29 -44 0
v -30 -44 0
v -30 -43 0
v -29 -43 0
v -16 -44 0
v -17 -44 0
v -17 -43 0
v -16 -43 0
v -15 -44 0
v -16 -44 0
v -16 -43 0
v -15 -43 0
v 0 -44 0
v -1 -44 0
v -1 -43 0
v 0 -43 0
v -29 -45 0
v -30 -45 0
v -30 -44 0
v -29 -44 0
v -16 -45 0
v -17 -45 0
v -17 -44 0
v -16 -44 0
v -15 -45 0
v -16 -45 0
v -16 -44 0
v -15 -44 0
v 0 -45 0
v -1 -45 0
v -1 -44 0
v 0 -44 0
v -29 -46 0
v -30 -46 0
v -30 -45 0
v -29 -45 0
v 0 -46 0
v -1 -46 0
v -1 -45 0
v 0 -45 0
v -29 -47 0
v -30 -47 0
v -30 -46 0
v -29 -46 0
v -18 -47 0
v -19 -47 0
v -19 -46 0
v -18 -46 0
v -17 -47 0
v -18 -47 0
v -18 -46 0
v -17 -46 0
v -16 -47 0
v -17 -47 0
v -17 -46 0
v -16 -46 0
v 0 -47 0
v -1 -47 0
v -1 -46 0
v 0 -46 0
v -29 -48 0
v -30 -48 0
v -30 -47 0
v -29 -47 0
v -19 -48 0
v -20 -48 0
v -20 -47 0
v -19 -47 0
v -18 -48 0
v -19 -48 0
v -19 -47 0
v -18 -47 0
v -17 -48 0
v -18 -48 0
v -18 -47 0
v -17 -47 0
v 0 -48 0
v -1 -48 0
v -1 -47 0
v 0 -47 0
v -29 -49 0
v -30 -49 0
v -30 -48 0
v -29 -48 0
v 0 -49 0
v -1 -49 0
v -1 -48 0
v 0 -48 0
v -29 -50 0
v -30 -50 0
v -30 -49 0
v -29 -49 0
v -28 -50 0
v -29 -50 0
v -29 -49 0
v -28 -49 0
v -27 -50 0
v -28 -50 0
v -28 -49 0
v -27 -49 0
v -26 -50 0
v -27 -50 0
v -27 -49 0
v -26 -49 0
v -25 -50 0
v -26 -50 0
v -26 -49 0
v -25 -49 0
v -24 -50 0
v -25 -50 0
v -25 -49 0
v -24 -49 0
v -23 -50 0
v -24 -50 0
v -24 -49 0
v -23 -49 0
v -22 -50 0
v -23 -50 0
v -23 -49 0
v -22 -49 0
v -21 -50 0
v -22 -50 0
v -22 -49 0
v -21 -49 0
v -20 -50 0
v -21 -50 0
v -21 -49 0
v -20 -49 0
v -19 -50 0
v -20 -50 0
v -20 -49 0
v -19 -49 0
v -18 -50 0
v -19 -50 0
v -19 -49 0
v -18 -49 0
v -17 -50 0
v -18 -50 0
v -18 -49 0
v -17 -49 0
v -16 -50 0
v -17 -50 0
v -17 -49 0
v -16 -49 0
v -15 -50 0
v -16 -50 0
v -16 -49 0
v -15 -49 0
v -14 -50 0
v -15 -50 0
v -15 -49 0
v -14 -49 0
v -13 -50 0
v -14 -50 0
v -14 -49 0
v -13 -49 0
v -12 -50 0
v -13 -50 0
v -13 -49 0
v -12 -49 0
v -8 -50 0
v -9 -50 0
v -9 -49 0
v -8 -49 0
v -7 -50 0
v -8 -50 0
v -8 -49 0
v -7 -49 0
v -6 -50 0
v -7 -50 0
v -7 -49 0
v -6 -49 0
v -5 -50 0
v -6 -50 0
v -6 -49 0
v -5 -49 0
v -4 -50 0
v -5 -50 0
v -5 -49 0
v -4 -49 0
v -3 -50 0
v -4 -50 0
v -4 -49 0
v -3 -49 0
v -2 -50 0
v -3 -50 0
v -3 -49 0
v -2 -49 0
v -1 -50 0
v -2 -50 0
v -2 -49 0
v -1 -49 0
v 0 -50 0
v -1 -50 0
v -1 -49 0
v 0 -49 0

# Texture cooridinates (Count = 108)
vt 0.04173455 0.5834554
vt 0.06229666 0.5834554
vt 0.06229666 0.610989
vt 0.04173455 0.610989
vt 0.6659218 0.889011
vt 0.6864839 0.889011
vt 0.6864839 0.9165446
vt 0.6659218 0.9165446
vt 0.6451156 0.889011
vt 0.6656777 0.889011
vt 0.6656777 0.9165446
vt 0.6451156 0.9165446
vt 0.6659218 0.8612332
vt 0.6864839 0.8612332
vt 0.6864839 0.8887668
vt 0.6659218 0.8887668
vt 0.6451156 0.8612332
vt 0.6656777 0.8612332
vt 0.6656777 0.8887668
vt 0.6451156 0.8887668
vt 0.1041533 0.8334554
vt 0.1247154 0.8334554
vt 0.1247154 0.860989
vt 0.1041533 0.860989
vt 0.08334704 0.8334554
vt 0.1039091 0.8334554
vt 0.1039091 0.860989
vt 0.08334704 0.860989
vt 0.0625408 0.8334554
vt 0.0831029 0.8334554
vt 0.0831029 0.860989
vt 0.0625408 0.860989
vt 0.2914095 0.7501221
vt 0.3119715 0.7501221
vt 0.3119715 0.7776557
vt 0.2914095 0.7776557
vt 0.2706032 0.7501221
vt 0.2911653 0.7501221
vt 0.2911653 0.7776557
vt 0.2706032 0.7776557
vt 0.2914095 0.7223443
vt 0.3119715 0.7223443
vt 0.3119715 0.7498779
vt 0.2914095 0.7498779
vt 0.2706032 0.7223443
vt 0.2911653 0.7223443
vt 0.2911653 0.7498779
vt 0.2706032 0.7498779
vt 0.249797 0.7778999
vt 0.2703591 0.7778999
vt 0.2703591 0.8054335
vt 0.249797 0.8054335
vt 0.2289907 0.7778999
vt 0.2495528 0.7778999
vt 0.2495528 0.8054335
vt 0.2289907 0.8054335
vt 0.249797 0.7501221
vt 0.2703591 0.7501221
vt 0.2703591 0.7776557
vt 0.249797 0.7776557
vt 0.2289907 0.7501221
vt 0.2495528 0.7501221
vt 0.2495528 0.7776557
vt 0.2289907 0.7776557
vt 0.249797 0.6945665
vt 0.2703591 0.6945665
vt 0.2703591 0.7221001
vt 0.249797 0.7221001
vt 0.2289907 0.6945665
vt 0.2495528 0.6945665
vt 0.2495528 0.7221001
vt 0.2289907 0.7221001
vt 0.2081845 0.8056777
vt 0.2287466 0.8056777
vt 0.2287466 0.8332112
vt 0.2081845 0.8332112
vt 0.1873782 0.8056777
vt 0.2079404 0.8056777
vt 0.2079404 0.8332112
vt 0.1873782 0.8332112
vt 0.166572 0.8056777
vt 0.1871341 0.8056777
vt 0.1871341 0.8332112
vt 0.166572 0.8332112
vt 0.2081845 0.7778999
vt 0.2287466 0.7778999
vt 0.2287466 0.8054335
vt 0.2081845 0.8054335
vt 0.1873782 0.7778999
vt 0.2079404 0.7778999
vt 0.2079404 0.8054335
vt 0.1873782 0.8054335
vt 0.166572 0.7778999
vt 0.1871341 0.7778999
vt 0.1871341 0.8054335
vt 0.166572 0.8054335
vt 0.2081845 0.7501221
vt 0.2287466 0.7501221
vt 0.2287466 0.7776557
vt 0.2081845 0.7776557
vt 0.1873782 0.7501221
vt 0.2079404 0.7501221
vt 0.2079404 0.7776557
vt 0.1873782 0.7776557
vt 0.166572 0.7501221
vt 0.1871341 0.7501221
vt 0.1871341 0.7776557
vt 0.166572 0.7776557

# Normal
vn 0 0 -1

# Mesh description
g AmbagoElemSchool_mesh_0002

# Faces
f 1/1/1 2/2/1 3/3/1 4/4/1
f 5/1/1 6/2/1 7/3/1 8/4/1
f 9/1/1 10/2/1 11/3/1 12/4/1
f 13/1/1 14/2/1 15/3/1 16/4/1
f 17/1/1 18/2/1 19/3/1 20/4/1
f 21/1/1 22/2/1 23/3/1 24/4/1
f 25/1/1 26/2/1 27/3/1 28/4/1
f 29/1/1 30/2/1 31/3/1 32/4/1
f 33/1/1 34/2/1 35/3/1 36/4/1
f 37/1/1 38/2/1 39/3/1 40/4/1
f 41/1/1 42/2/1 43/3/1 44/4/1
f 45/1/1 46/2/1 47/3/1 48/4/1
f 49/1/1 50/2/1 51/3/1 52/4/1
f 53/1/1 54/2/1 55/3/1 56/4/1
f 57/1/1 58/2/1 59/3/1 60/4/1
f 61/1/1 62/2/1 63/3/1 64/4/1
f 65/1/1 66/2/1 67/3/1 68/4/1
f 69/1/1 70/2/1 71/3/1 72/4/1
f 73/1/1 74/2/1 75/3/1 76/4/1
f 77/1/1 78/2/1 79/3/1 80/4/1
f 81/1/1 82/2/1 83/3/1 84/4/1
f 85/1/1 86/2/1 87/3/1 88/4/1
f 89/1/1 90/2/1 91/3/1 92/4/1
f 93/1/1 94/2/1 95/3/1 96/4/1
f 97/1/1 98/2/1 99/3/1 100/4/1
f 101/1/1 102/2/1 103/3/1 104/4/1
f 105/1/1 106/2/1 107/3/1 108/4/1
f 109/1/1 110/2/1 111/3/1 112/4/1
f 113/1/1 114/2/1 115/3/1 116/4/1
f 117/1/1 118/2/1 119/3/1 120/4/1
f 121/1/1 122/2/1 123/3/1 124/4/1
f 125/1/1 126/2/1 127/3/1 128/4/1
f 129/5/1 130/6/1 131/7/1 132/8/1
f 133/9/1 134/10/1 135/11/1 136/12/1
f 137/1/1 138/2/1 139/3/1 140/4/1
f 141/13/1 142/14/1 143/15/1 144/16/1
f 145/17/1 146/18/1 147/19/1 148/20/1
f 149/1/1 150/2/1 151/3/1 152/4/1
f 153/5/1 154/6/1 155/7/1 156/8/1
f 157/9/1 158/10/1 159/11/1 160/12/1
f 161/21/1 162/22/1 163/23/1 164/24/1
f 165/25/1 166/26/1 167/27/1 168/28/1
f 169/29/1 170/30/1 171/31/1 172/32/1
f 173/1/1 174/2/1 175/3/1 176/4/1
f 177/13/1 178/14/1 179/15/1 180/16/1
f 181/17/1 182/18/1 183/19/1 184/20/1
f 185/21/1 186/22/1 187/23/1 188/24/1
f 189/25/1 190/26/1 191/27/1 192/28/1
f 193/29/1 194/30/1 195/31/1 196/32/1
f 197/1/1 198/2/1 199/3/1 200/4/1
f 201/1/1 202/2/1 203/3/1 204/4/1
f 205/1/1 206/2/1 207/3/1 208/4/1
f 209/1/1 210/2/1 211/3/1 212/4/1
f 213/1/1 214/2/1 215/3/1 216/4/1
f 217/1/1 218/2/1 219/3/1 220/4/1
f 221/1/1 222/2/1 223/3/1 224/4/1
f 225/1/1 226/2/1 227/3/1 228/4/1
f 229/1/1 230/2/1 231/3/1 232/4/1
f 233/1/1 234/2/1 235/3/1 236/4/1
f 237/1/1 238/2/1 239/3/1 240/4/1
f 241/1/1 242/2/1 243/3/1 244/4/1
f 245/1/1 246/2/1 247/3/1 248/4/1
f 249/1/1 250/2/1 251/3/1 252/4/1
f 253/1/1 254/2/1 255/3/1 256/4/1
f 257/1/1 258/2/1 259/3/1 260/4/1
f 261/1/1 262/2/1 263/3/1 264/4/1
f 265/1/1 266/2/1 267/3/1 268/4/1
f 269/1/1 270/2/1 271/3/1 272/4/1
f 273/1/1 274/2/1 275/3/1 276/4/1
f 277/1/1 278/2/1 279/3/1 280/4/1
f 281/1/1 282/2/1 283/3/1 284/4/1
f 285/1/1 286/2/1 287/3/1 288/4/1
f 289/33/1 290/34/1 291/35/1 292/36/1
f 293/37/1 294/38/1 295/39/1 296/40/1
f 297/1/1 298/2/1 299/3/1 300/4/1
f 301/1/1 302/2/1 303/3/1 304/4/1
f 305/1/1 306/2/1 307/3/1 308/4/1
f 309/41/1 310/42/1 311/43/1 312/44/1
f 313/45/1 314/46/1 315/47/1 316/48/1
f 317/1/1 318/2/1 319/3/1 320/4/1
f 321/1/1 322/2/1 323/3/1 324/4/1
f 325/1/1 326/2/1 327/3/1 328/4/1
f 329/1/1 330/2/1 331/3/1 332/4/1
f 333/1/1 334/2/1 335/3/1 336/4/1
f 337/1/1 338/2/1 339/3/1 340/4/1
f 341/1/1 342/2/1 343/3/1 344/4/1
f 345/1/1 346/2/1 347/3/1 348/4/1
f 349/1/1 350/2/1 351/3/1 352/4/1
f 353/1/1 354/2/1 355/3/1 356/4/1
f 357/1/1 358/2/1 359/3/1 360/4/1
f 361/1/1 362/2/1 363/3/1 364/4/1
f 365/1/1 366/2/1 367/3/1 368/4/1
f 369/1/1 370/2/1 371/3/1 372/4/1
f 373/1/1 374/2/1 375/3/1 376/4/1
f 377/1/1 378/2/1 379/3/1 380/4/1
f 381/49/1 382/50/1 383/51/1 384/52/1
f 385/53/1 386/54/1 387/55/1 388/56/1
f 389/1/1 390/2/1 391/3/1 392/4/1
f 393/1/1 394/2/1 395/3/1 396/4/1
f 397/57/1 398/58/1 399/59/1 400/60/1
f 401/61/1 402/62/1 403/63/1 404/64/1
f 405/1/1 406/2/1 407/3/1 408/4/1
f 409/1/1 410/2/1 411/3/1 412/4/1
f 413/65/1 414/66/1 415/67/1 416/68/1
f 417/69/1 418/70/1 419/71/1 420/72/1
f 421/1/1 422/2/1 423/3/1 424/4/1
f 425/1/1 426/2/1 427/3/1 428/4/1
f 429/1/1 430/2/1 431/3/1 432/4/1
f 433/1/1 434/2/1 435/3/1 436/4/1
f 437/73/1 438/74/1 439/75/1 440/76/1
f 441/77/1 442/78/1 443/79/1 444/80/1
f 445/77/1 446/78/1 447/79/1 448/80/1
f 449/77/1 450/78/1 451/79/1 452/80/1
f 453/77/1 454/78/1 455/79/1 456/80/1
f 457/77/1 458/78/1 459/79/1 460/80/1
f 461/77/1 462/78/1 463/79/1 464/80/1
f 465/77/1 466/78/1 467/79/1 468/80/1
f 469/81/1 470/82/1 471/83/1 472/84/1
f 473/1/1 474/2/1 475/3/1 476/4/1
f 477/1/1 478/2/1 479/3/1 480/4/1
f 481/85/1 482/86/1 483/87/1 484/88/1
f 485/89/1 486/90/1 487/91/1 488/92/1
f 489/89/1 490/90/1 491/91/1 492/92/1
f 493/89/1 494/90/1 495/91/1 496/92/1
f 497/89/1 498/90/1 499/91/1 500/92/1
f 501/89/1 502/90/1 503/91/1 504/92/1
f 505/89/1 506/90/1 507/91/1 508/92/1
f 509/89/1 510/90/1 511/91/1 512/92/1
f 513/93/1 514/94/1 515/95/1 516/96/1
f 517/1/1 518/2/1 519/3/1 520/4/1
f 521/1/1 522/2/1 523/3/1 524/4/1
f 525/97/1 526/98/1 527/99/1 528/100/1
f 529/101/1 530/102/1 531/103/1 532/104/1
f 533/101/1 534/102/1 535/103/1 536/104/1
f 537/101/1 538/102/1 539/103/1 540/104/1
f 541/101/1 542/102/1 543/103/1 544/104/1
f 545/101/1 546/102/1 547/103/1 548/104/1
f 549/101/1 550/102/1 551/103/1 552/104/1
f 553/101/1 554/102/1 555/103/1 556/104/1
f 557/105/1 558/106/1 559/107/1 560/108/1
f 561/1/1 562/2/1 563/3/1 564/4/1
f 565/1/1 566/2/1 567/3/1 568/4/1
f 569/1/1 570/2/1 571/3/1 572/4/1
f 573/1/1 574/2/1 575/3/1 576/4/1
f 577/1/1 578/2/1 579/3/1 580/4/1
f 581/1/1 582/2/1 583/3/1 584/4/1
f 585/1/1 586/2/1 587/3/1 588/4/1
f 589/1/1 590/2/1 591/3/1 592/4/1
f 593/1/1 594/2/1 595/3/1 596/4/1
f 597/1/1 598/2/1 599/3/1 600/4/1
f 601/1/1 602/2/1 603/3/1 604/4/1
f 605/1/1 606/2/1 607/3/1 608/4/1
f 609/1/1 610/2/1 611/3/1 612/4/1
f 613/1/1 614/2/1 615/3/1 616/4/1
f 617/5/1 618/6/1 619/7/1 620/8/1
f 621/9/1 622/10/1 623/11/1 624/12/1
f 625/1/1 626/2/1 627/3/1 628/4/1
f 629/1/1 630/2/1 631/3/1 632/4/1
f 633/13/1 634/14/1 635/15/1 636/16/1
f 637/17/1 638/18/1 639/19/1 640/20/1
f 641/21/1 642/22/1 643/23/1 644/24/1
f 645/25/1 646/26/1 647/27/1 648/28/1
f 649/29/1 650/30/1 651/31/1 652/32/1
f 653/1/1 654/2/1 655/3/1 656/4/1
f 657/1/1 658/2/1 659/3/1 660/4/1
f 661/1/1 662/2/1 663/3/1 664/4/1
f 665/1/1 666/2/1 667/3/1 668/4/1
f 669/1/1 670/2/1 671/3/1 672/4/1
f 673/1/1 674/2/1 675/3/1 676/4/1
f 677/1/1 678/2/1 679/3/1 680/4/1
f 681/1/1 682/2/1 683/3/1 684/4/1
f 685/1/1 686/2/1 687/3/1 688/4/1
f 689/1/1 690/2/1 691/3/1 692/4/1
f 693/1/1 694/2/1 695/3/1 696/4/1
f 697/1/1 698/2/1 699/3/1 700/4/1
f 701/1/1 702/2/1 703/3/1 704/4/1
f 705/1/1 706/2/1 707/3/1 708/4/1
f 709/5/1 710/6/1 711/7/1 712/8/1
f 713/9/1 714/10/1 715/11/1 716/12/1
f 717/1/1 718/2/1 719/3/1 720/4/1
f 721/1/1 722/2/1 723/3/1 724/4/1
f 725/13/1 726/14/1 727/15/1 728/16/1
f 729/17/1 730/18/1 731/19/1 732/20/1
f 733/1/1 734/2/1 735/3/1 736/4/1
f 737/1/1 738/2/1 739/3/1 740/4/1
f 741/5/1 742/6/1 743/7/1 744/8/1
f 745/9/1 746/10/1 747/11/1 748/12/1
f 749/1/1 750/2/1 751/3/1 752/4/1
f 753/1/1 754/2/1 755/3/1 756/4/1
f 757/13/1 758/14/1 759/15/1 760/16/1
f 761/17/1 762/18/1 763/19/1 764/20/1
f 765/1/1 766/2/1 767/3/1 768/4/1
f 769/1/1 770/2/1 771/3/1 772/4/1
f 773/1/1 774/2/1 775/3/1 776/4/1
f 777/1/1 778/2/1 779/3/1 780/4/1
f 781/21/1 782/22/1 783/23/1 784/24/1
f 785/25/1 786/26/1 787/27/1 788/28/1
f 789/29/1 790/30/1 791/31/1 792/32/1
f 793/1/1 794/2/1 795/3/1 796/4/1
f 797/1/1 798/2/1 799/3/1 800/4/1
f 801/21/1 802/22/1 803/23/1 804/24/1
f 805/25/1 806/26/1 807/27/1 808/28/1
f 809/29/1 810/30/1 811/31/1 812/32/1
f 813/1/1 814/2/1 815/3/1 816/4/1
f 817/1/1 818/2/1 819/3/1 820/4/1
f 821/1/1 822/2/1 823/3/1 824/4/1
f 825/1/1 826/2/1 827/3/1 828/4/1
f 829/1/1 830/2/1 831/3/1 832/4/1
f 833/1/1 834/2/1 835/3/1 836/4/1
f 837/1/1 838/2/1 839/3/1 840/4/1
f 841/1/1 842/2/1 843/3/1 844/4/1
f 845/1/1 846/2/1 847/3/1 848/4/1
f 849/1/1 850/2/1 851/3/1 852/4/1
f 853/1/1 854/2/1 855/3/1 856/4/1
f 857/1/1 858/2/1 859/3/1 860/4/1
f 861/1/1 862/2/1 863/3/1 864/4/1
f 865/1/1 866/2/1 867/3/1 868/4/1
f 869/1/1 870/2/1 871/3/1 872/4/1
f 873/1/1 874/2/1 875/3/1 876/4/1
f 877/1/1 878/2/1 879/3/1 880/4/1
f 881/1/1 882/2/1 883/3/1 884/4/1
f 885/1/1 886/2/1 887/3/1 888/4/1
f 889/1/1 890/2/1 891/3/1 892/4/1
f 893/1/1 894/2/1 895/3/1 896/4/1
f 897/1/1 898/2/1 899/3/1 900/4/1
f 901/1/1 902/2/1 903/3/1 904/4/1
f 905/1/1 906/2/1 907/3/1 908/4/1
f 909/1/1 910/2/1 911/3/1 912/4/1
f 913/1/1 914/2/1 915/3/1 916/4/1
f 917/1/1 918/2/1 919/3/1 920/4/1
f 921/1/1 922/2/1 923/3/1 924/4/1
f 925/1/1 926/2/1 927/3/1 928/4/1
f 929/1/1 930/2/1 931/3/1 932/4/1

