# Tiled2Unity generated file. Do not modify by hand.
# Wavefront file for 'AmbagoElemSchool_mesh_0005.obj'

# Vertices (Count = 592)
v -24 -1 0
v -25 -1 0
v -25 0 0
v -24 0 0
v -23 -1 0
v -24 -1 0
v -24 0 0
v -23 0 0
v -22 -1 0
v -23 -1 0
v -23 0 0
v -22 0 0
v -21 -1 0
v -22 -1 0
v -22 0 0
v -21 0 0
v -15 -1 0
v -16 -1 0
v -16 0 0
v -15 0 0
v -14 -1 0
v -15 -1 0
v -15 0 0
v -14 0 0
v -13 -1 0
v -14 -1 0
v -14 0 0
v -13 0 0
v -12 -1 0
v -13 -1 0
v -13 0 0
v -12 0 0
v -7 -1 0
v -8 -1 0
v -8 0 0
v -7 0 0
v -6 -1 0
v -7 -1 0
v -7 0 0
v -6 0 0
v -5 -1 0
v -6 -1 0
v -6 0 0
v -5 0 0
v -4 -1 0
v -5 -1 0
v -5 0 0
v -4 0 0
v -3 -1 0
v -4 -1 0
v -4 0 0
v -3 0 0
v -2 -1 0
v -3 -1 0
v -3 0 0
v -2 0 0
v -1 -1 0
v -2 -1 0
v -2 0 0
v -1 0 0
v 0 -1 0
v -1 -1 0
v -1 0 0
v 0 0 0
v -15 -2 0
v -16 -2 0
v -16 -1 0
v -15 -1 0
v -14 -2 0
v -15 -2 0
v -15 -1 0
v -14 -1 0
v -13 -2 0
v -14 -2 0
v -14 -1 0
v -13 -1 0
v -12 -2 0
v -13 -2 0
v -13 -1 0
v -12 -1 0
v -3 -2 0
v -4 -2 0
v -4 -1 0
v -3 -1 0
v -2 -2 0
v -3 -2 0
v -3 -1 0
v -2 -1 0
v -1 -2 0
v -2 -2 0
v -2 -1 0
v -1 -1 0
v 0 -2 0
v -1 -2 0
v -1 -1 0
v 0 -1 0
v -4 -3 0
v -5 -3 0
v -5 -2 0
v -4 -2 0
v -3 -3 0
v -4 -3 0
v -4 -2 0
v -3 -2 0
v -22 -4 0
v -23 -4 0
v -23 -3 0
v -22 -3 0
v -21 -4 0
v -22 -4 0
v -22 -3 0
v -21 -3 0
v -17 -8 0
v -18 -8 0
v -18 -7 0
v -17 -7 0
v -16 -8 0
v -17 -8 0
v -17 -7 0
v -16 -7 0
v -15 -8 0
v -16 -8 0
v -16 -7 0
v -15 -7 0
v -14 -8 0
v -15 -8 0
v -15 -7 0
v -14 -7 0
v -17 -9 0
v -18 -9 0
v -18 -8 0
v -17 -8 0
v -16 -9 0
v -17 -9 0
v -17 -8 0
v -16 -8 0
v -15 -9 0
v -16 -9 0
v -16 -8 0
v -15 -8 0
v -14 -9 0
v -15 -9 0
v -15 -8 0
v -14 -8 0
v -17 -10 0
v -18 -10 0
v -18 -9 0
v -17 -9 0
v -16 -10 0
v -17 -10 0
v -17 -9 0
v -16 -9 0
v -15 -10 0
v -16 -10 0
v -16 -9 0
v -15 -9 0
v -14 -10 0
v -15 -10 0
v -15 -9 0
v -14 -9 0
v -17 -11 0
v -18 -11 0
v -18 -10 0
v -17 -10 0
v -16 -11 0
v -17 -11 0
v -17 -10 0
v -16 -10 0
v -15 -11 0
v -16 -11 0
v -16 -10 0
v -15 -10 0
v -14 -11 0
v -15 -11 0
v -15 -10 0
v -14 -10 0
v -3 -24 0
v -4 -24 0
v -4 -23 0
v -3 -23 0
v -2 -24 0
v -3 -24 0
v -3 -23 0
v -2 -23 0
v -1 -24 0
v -2 -24 0
v -2 -23 0
v -1 -23 0
v 0 -24 0
v -1 -24 0
v -1 -23 0
v 0 -23 0
v -3 -25 0
v -4 -25 0
v -4 -24 0
v -3 -24 0
v -2 -25 0
v -3 -25 0
v -3 -24 0
v -2 -24 0
v -1 -25 0
v -2 -25 0
v -2 -24 0
v -1 -24 0
v 0 -25 0
v -1 -25 0
v -1 -24 0
v 0 -24 0
v -5 -26 0
v -6 -26 0
v -6 -25 0
v -5 -25 0
v -4 -26 0
v -5 -26 0
v -5 -25 0
v -4 -25 0
v -3 -26 0
v -4 -26 0
v -4 -25 0
v -3 -25 0
v -2 -26 0
v -3 -26 0
v -3 -25 0
v -2 -25 0
v -1 -26 0
v -2 -26 0
v -2 -25 0
v -1 -25 0
v 0 -26 0
v -1 -26 0
v -1 -25 0
v 0 -25 0
v -23 -35 0
v -24 -35 0
v -24 -34 0
v -23 -34 0
v -22 -35 0
v -23 -35 0
v -23 -34 0
v -22 -34 0
v -21 -35 0
v -22 -35 0
v -22 -34 0
v -21 -34 0
v -20 -35 0
v -21 -35 0
v -21 -34 0
v -20 -34 0
v -19 -35 0
v -20 -35 0
v -20 -34 0
v -19 -34 0
v -18 -35 0
v -19 -35 0
v -19 -34 0
v -18 -34 0
v -17 -35 0
v -18 -35 0
v -18 -34 0
v -17 -34 0
v -16 -35 0
v -17 -35 0
v -17 -34 0
v -16 -34 0
v -15 -35 0
v -16 -35 0
v -16 -34 0
v -15 -34 0
v -14 -35 0
v -15 -35 0
v -15 -34 0
v -14 -34 0
v -13 -35 0
v -14 -35 0
v -14 -34 0
v -13 -34 0
v -12 -35 0
v -13 -35 0
v -13 -34 0
v -12 -34 0
v -23 -36 0
v -24 -36 0
v -24 -35 0
v -23 -35 0
v -22 -36 0
v -23 -36 0
v -23 -35 0
v -22 -35 0
v -21 -36 0
v -22 -36 0
v -22 -35 0
v -21 -35 0
v -20 -36 0
v -21 -36 0
v -21 -35 0
v -20 -35 0
v -19 -36 0
v -20 -36 0
v -20 -35 0
v -19 -35 0
v -18 -36 0
v -19 -36 0
v -19 -35 0
v -18 -35 0
v -17 -36 0
v -18 -36 0
v -18 -35 0
v -17 -35 0
v -16 -36 0
v -17 -36 0
v -17 -35 0
v -16 -35 0
v -15 -36 0
v -16 -36 0
v -16 -35 0
v -15 -35 0
v -14 -36 0
v -15 -36 0
v -15 -35 0
v -14 -35 0
v -13 -36 0
v -14 -36 0
v -14 -35 0
v -13 -35 0
v -12 -36 0
v -13 -36 0
v -13 -35 0
v -12 -35 0
v -8 -36 0
v -9 -36 0
v -9 -35 0
v -8 -35 0
v -7 -36 0
v -8 -36 0
v -8 -35 0
v -7 -35 0
v -6 -36 0
v -7 -36 0
v -7 -35 0
v -6 -35 0
v -5 -36 0
v -6 -36 0
v -6 -35 0
v -5 -35 0
v -23 -37 0
v -24 -37 0
v -24 -36 0
v -23 -36 0
v -22 -37 0
v -23 -37 0
v -23 -36 0
v -22 -36 0
v -21 -37 0
v -22 -37 0
v -22 -36 0
v -21 -36 0
v -20 -37 0
v -21 -37 0
v -21 -36 0
v -20 -36 0
v -19 -37 0
v -20 -37 0
v -20 -36 0
v -19 -36 0
v -18 -37 0
v -19 -37 0
v -19 -36 0
v -18 -36 0
v -17 -37 0
v -18 -37 0
v -18 -36 0
v -17 -36 0
v -16 -37 0
v -17 -37 0
v -17 -36 0
v -16 -36 0
v -15 -37 0
v -16 -37 0
v -16 -36 0
v -15 -36 0
v -14 -37 0
v -15 -37 0
v -15 -36 0
v -14 -36 0
v -13 -37 0
v -14 -37 0
v -14 -36 0
v -13 -36 0
v -12 -37 0
v -13 -37 0
v -13 -36 0
v -12 -36 0
v -8 -37 0
v -9 -37 0
v -9 -36 0
v -8 -36 0
v -7 -37 0
v -8 -37 0
v -8 -36 0
v -7 -36 0
v -6 -37 0
v -7 -37 0
v -7 -36 0
v -6 -36 0
v -5 -37 0
v -6 -37 0
v -6 -36 0
v -5 -36 0
v -23 -38 0
v -24 -38 0
v -24 -37 0
v -23 -37 0
v -12 -38 0
v -13 -38 0
v -13 -37 0
v -12 -37 0
v -8 -38 0
v -9 -38 0
v -9 -37 0
v -8 -37 0
v -7 -38 0
v -8 -38 0
v -8 -37 0
v -7 -37 0
v -6 -38 0
v -7 -38 0
v -7 -37 0
v -6 -37 0
v -5 -38 0
v -6 -38 0
v -6 -37 0
v -5 -37 0
v -26 -41 0
v -27 -41 0
v -27 -40 0
v -26 -40 0
v -25 -41 0
v -26 -41 0
v -26 -40 0
v -25 -40 0
v -21 -41 0
v -22 -41 0
v -22 -40 0
v -21 -40 0
v -20 -41 0
v -21 -41 0
v -21 -40 0
v -20 -40 0
v -19 -41 0
v -20 -41 0
v -20 -40 0
v -19 -40 0
v -18 -41 0
v -19 -41 0
v -19 -40 0
v -18 -40 0
v -21 -42 0
v -22 -42 0
v -22 -41 0
v -21 -41 0
v -20 -42 0
v -21 -42 0
v -21 -41 0
v -20 -41 0
v -19 -42 0
v -20 -42 0
v -20 -41 0
v -19 -41 0
v -18 -42 0
v -19 -42 0
v -19 -41 0
v -18 -41 0
v -21 -43 0
v -22 -43 0
v -22 -42 0
v -21 -42 0
v -20 -43 0
v -21 -43 0
v -21 -42 0
v -20 -42 0
v -19 -43 0
v -20 -43 0
v -20 -42 0
v -19 -42 0
v -18 -43 0
v -19 -43 0
v -19 -42 0
v -18 -42 0
v -28 -44 0
v -29 -44 0
v -29 -43 0
v -28 -43 0
v -27 -44 0
v -28 -44 0
v -28 -43 0
v -27 -43 0
v -26 -44 0
v -27 -44 0
v -27 -43 0
v -26 -43 0
v -25 -44 0
v -26 -44 0
v -26 -43 0
v -25 -43 0
v -28 -45 0
v -29 -45 0
v -29 -44 0
v -28 -44 0
v -27 -45 0
v -28 -45 0
v -28 -44 0
v -27 -44 0
v -26 -45 0
v -27 -45 0
v -27 -44 0
v -26 -44 0
v -25 -45 0
v -26 -45 0
v -26 -44 0
v -25 -44 0
v -28 -46 0
v -29 -46 0
v -29 -45 0
v -28 -45 0
v -27 -46 0
v -28 -46 0
v -28 -45 0
v -27 -45 0
v -26 -46 0
v -27 -46 0
v -27 -45 0
v -26 -45 0
v -25 -46 0
v -26 -46 0
v -26 -45 0
v -25 -45 0
v -14 -46 0
v -15 -46 0
v -15 -45 0
v -14 -45 0
v -13 -46 0
v -14 -46 0
v -14 -45 0
v -13 -45 0
v -12 -46 0
v -13 -46 0
v -13 -45 0
v -12 -45 0
v -11 -46 0
v -12 -46 0
v -12 -45 0
v -11 -45 0
v -23 -47 0
v -24 -47 0
v -24 -46 0
v -23 -46 0
v -22 -47 0
v -23 -47 0
v -23 -46 0
v -22 -46 0
v -14 -47 0
v -15 -47 0
v -15 -46 0
v -14 -46 0
v -13 -47 0
v -14 -47 0
v -14 -46 0
v -13 -46 0
v -12 -47 0
v -13 -47 0
v -13 -46 0
v -12 -46 0
v -11 -47 0
v -12 -47 0
v -12 -46 0
v -11 -46 0
v -14 -48 0
v -15 -48 0
v -15 -47 0
v -14 -47 0
v -13 -48 0
v -14 -48 0
v -14 -47 0
v -13 -47 0
v -12 -48 0
v -13 -48 0
v -13 -47 0
v -12 -47 0
v -11 -48 0
v -12 -48 0
v -12 -47 0
v -11 -47 0

# Texture cooridinates (Count = 164)
vt 0.0625408 0.02789986
vt 0.0831029 0.02789986
vt 0.0831029 0.05543351
vt 0.0625408 0.05543351
vt 0.04173455 0.02789986
vt 0.06229666 0.02789986
vt 0.06229666 0.05543351
vt 0.04173455 0.05543351
vt 0.02092831 0.02789986
vt 0.04149041 0.02789986
vt 0.04149041 0.05543351
vt 0.02092831 0.05543351
vt 0.0001220703 0.02789986
vt 0.02068417 0.02789986
vt 0.02068417 0.05543351
vt 0.0001220703 0.05543351
vt 0.0625408 0.05567765
vt 0.0831029 0.05567765
vt 0.0831029 0.08321124
vt 0.0625408 0.08321124
vt 0.04173455 0.05567765
vt 0.06229666 0.05567765
vt 0.06229666 0.08321124
vt 0.04173455 0.08321124
vt 0.02092831 0.05567765
vt 0.04149041 0.05567765
vt 0.04149041 0.08321124
vt 0.02092831 0.08321124
vt 0.0001220703 0.05567765
vt 0.02068417 0.05567765
vt 0.02068417 0.08321124
vt 0.0001220703 0.08321124
vt 0.1249595 0.5278999
vt 0.1455216 0.5278999
vt 0.1455216 0.5554335
vt 0.1249595 0.5554335
vt 0.1041533 0.5278999
vt 0.1247154 0.5278999
vt 0.1247154 0.5554335
vt 0.1041533 0.5554335
vt 0.9153526 0.5556777
vt 0.8947905 0.5556777
vt 0.8947905 0.5832113
vt 0.9153526 0.5832113
vt 0.9361588 0.5556777
vt 0.9155967 0.5556777
vt 0.9155967 0.5832113
vt 0.9361588 0.5832113
vt 0.956965 0.5556777
vt 0.936403 0.5556777
vt 0.936403 0.5832113
vt 0.956965 0.5832113
vt 0.9777713 0.5556777
vt 0.9572092 0.5556777
vt 0.9572092 0.5832113
vt 0.9777713 0.5832113
vt 0.9153526 0.5278999
vt 0.8947905 0.5278999
vt 0.8947905 0.5554335
vt 0.9153526 0.5554335
vt 0.9361588 0.5278999
vt 0.9155967 0.5278999
vt 0.9155967 0.5554335
vt 0.9361588 0.5554335
vt 0.956965 0.5278999
vt 0.936403 0.5278999
vt 0.936403 0.5554335
vt 0.956965 0.5554335
vt 0.9777713 0.5278999
vt 0.9572092 0.5278999
vt 0.9572092 0.5554335
vt 0.9777713 0.5554335
vt 0.9153526 0.5001221
vt 0.8947905 0.5001221
vt 0.8947905 0.5276557
vt 0.9153526 0.5276557
vt 0.9361588 0.5001221
vt 0.9155967 0.5001221
vt 0.9155967 0.5276557
vt 0.9361588 0.5276557
vt 0.956965 0.5001221
vt 0.936403 0.5001221
vt 0.936403 0.5276557
vt 0.956965 0.5276557
vt 0.9777713 0.5001221
vt 0.9572092 0.5001221
vt 0.9572092 0.5276557
vt 0.9777713 0.5276557
vt 0.9153526 0.4723443
vt 0.8947905 0.4723443
vt 0.8947905 0.4998779
vt 0.9153526 0.4998779
vt 0.9361588 0.4723443
vt 0.9155967 0.4723443
vt 0.9155967 0.4998779
vt 0.9361588 0.4998779
vt 0.956965 0.4723443
vt 0.936403 0.4723443
vt 0.936403 0.4998779
vt 0.956965 0.4998779
vt 0.9777713 0.4723443
vt 0.9572092 0.4723443
vt 0.9572092 0.4998779
vt 0.9777713 0.4998779
vt 0.0625408 0.08345538
vt 0.0831029 0.08345538
vt 0.0831029 0.110989
vt 0.0625408 0.110989
vt 0.04173455 0.08345538
vt 0.06229666 0.08345538
vt 0.06229666 0.110989
vt 0.04173455 0.110989
vt 0.02092831 0.08345538
vt 0.04149041 0.08345538
vt 0.04149041 0.110989
vt 0.02092831 0.110989
vt 0.0001220703 0.08345538
vt 0.02068417 0.08345538
vt 0.02068417 0.110989
vt 0.0001220703 0.110989
vt 0.1249595 0.08345538
vt 0.1455216 0.08345538
vt 0.1455216 0.110989
vt 0.1249595 0.110989
vt 0.1041533 0.08345538
vt 0.1247154 0.08345538
vt 0.1247154 0.110989
vt 0.1041533 0.110989
vt 0.08334704 0.08345538
vt 0.1039091 0.08345538
vt 0.1039091 0.110989
vt 0.08334704 0.110989
vt 0.1249595 0.05567765
vt 0.1455216 0.05567765
vt 0.1455216 0.08321124
vt 0.1249595 0.08321124
vt 0.1041533 0.05567765
vt 0.1247154 0.05567765
vt 0.1247154 0.08321124
vt 0.1041533 0.08321124
vt 0.08334704 0.05567765
vt 0.1039091 0.05567765
vt 0.1039091 0.08321124
vt 0.08334704 0.08321124
vt 0.1249595 0.02789986
vt 0.1455216 0.02789986
vt 0.1455216 0.05543351
vt 0.1249595 0.05543351
vt 0.1041533 0.02789986
vt 0.1247154 0.02789986
vt 0.1247154 0.05543351
vt 0.1041533 0.05543351
vt 0.08334704 0.02789986
vt 0.1039091 0.02789986
vt 0.1039091 0.05543351
vt 0.08334704 0.05543351
vt 0.1249595 0.0001220703
vt 0.1455216 0.0001220703
vt 0.1455216 0.02765572
vt 0.1249595 0.02765572
vt 0.08334704 0.0001220703
vt 0.1039091 0.0001220703
vt 0.1039091 0.02765572
vt 0.08334704 0.02765572

# Normal
vn 0 0 -1

# Mesh description
g AmbagoElemSchool_mesh_0005

# Faces
f 1/1/1 2/2/1 3/3/1 4/4/1
f 5/5/1 6/6/1 7/7/1 8/8/1
f 9/9/1 10/10/1 11/11/1 12/12/1
f 13/13/1 14/14/1 15/15/1 16/16/1
f 17/17/1 18/18/1 19/19/1 20/20/1
f 21/21/1 22/22/1 23/23/1 24/24/1
f 25/25/1 26/26/1 27/27/1 28/28/1
f 29/29/1 30/30/1 31/31/1 32/32/1
f 33/1/1 34/2/1 35/3/1 36/4/1
f 37/5/1 38/6/1 39/7/1 40/8/1
f 41/9/1 42/10/1 43/11/1 44/12/1
f 45/13/1 46/14/1 47/15/1 48/16/1
f 49/17/1 50/18/1 51/19/1 52/20/1
f 53/21/1 54/22/1 55/23/1 56/24/1
f 57/25/1 58/26/1 59/27/1 60/28/1
f 61/29/1 62/30/1 63/31/1 64/32/1
f 65/1/1 66/2/1 67/3/1 68/4/1
f 69/5/1 70/6/1 71/7/1 72/8/1
f 73/9/1 74/10/1 75/11/1 76/12/1
f 77/13/1 78/14/1 79/15/1 80/16/1
f 81/1/1 82/2/1 83/3/1 84/4/1
f 85/5/1 86/6/1 87/7/1 88/8/1
f 89/9/1 90/10/1 91/11/1 92/12/1
f 93/13/1 94/14/1 95/15/1 96/16/1
f 97/33/1 98/34/1 99/35/1 100/36/1
f 101/37/1 102/38/1 103/39/1 104/40/1
f 105/33/1 106/34/1 107/35/1 108/36/1
f 109/37/1 110/38/1 111/39/1 112/40/1
f 113/41/1 114/42/1 115/43/1 116/44/1
f 117/45/1 118/46/1 119/47/1 120/48/1
f 121/49/1 122/50/1 123/51/1 124/52/1
f 125/53/1 126/54/1 127/55/1 128/56/1
f 129/57/1 130/58/1 131/59/1 132/60/1
f 133/61/1 134/62/1 135/63/1 136/64/1
f 137/65/1 138/66/1 139/67/1 140/68/1
f 141/69/1 142/70/1 143/71/1 144/72/1
f 145/73/1 146/74/1 147/75/1 148/76/1
f 149/77/1 150/78/1 151/79/1 152/80/1
f 153/81/1 154/82/1 155/83/1 156/84/1
f 157/85/1 158/86/1 159/87/1 160/88/1
f 161/89/1 162/90/1 163/91/1 164/92/1
f 165/93/1 166/94/1 167/95/1 168/96/1
f 169/97/1 170/98/1 171/99/1 172/100/1
f 173/101/1 174/102/1 175/103/1 176/104/1
f 177/105/1 178/106/1 179/107/1 180/108/1
f 181/109/1 182/110/1 183/111/1 184/112/1
f 185/113/1 186/114/1 187/115/1 188/116/1
f 189/117/1 190/118/1 191/119/1 192/120/1
f 193/17/1 194/18/1 195/19/1 196/20/1
f 197/21/1 198/22/1 199/23/1 200/24/1
f 201/25/1 202/26/1 203/27/1 204/28/1
f 205/29/1 206/30/1 207/31/1 208/32/1
f 209/33/1 210/34/1 211/35/1 212/36/1
f 213/37/1 214/38/1 215/39/1 216/40/1
f 217/1/1 218/2/1 219/3/1 220/4/1
f 221/5/1 222/6/1 223/7/1 224/8/1
f 225/9/1 226/10/1 227/11/1 228/12/1
f 229/13/1 230/14/1 231/15/1 232/16/1
f 233/121/1 234/122/1 235/123/1 236/124/1
f 237/125/1 238/126/1 239/127/1 240/128/1
f 241/125/1 242/126/1 243/127/1 244/128/1
f 245/125/1 246/126/1 247/127/1 248/128/1
f 249/125/1 250/126/1 251/127/1 252/128/1
f 253/125/1 254/126/1 255/127/1 256/128/1
f 257/125/1 258/126/1 259/127/1 260/128/1
f 261/125/1 262/126/1 263/127/1 264/128/1
f 265/125/1 266/126/1 267/127/1 268/128/1
f 269/125/1 270/126/1 271/127/1 272/128/1
f 273/125/1 274/126/1 275/127/1 276/128/1
f 277/129/1 278/130/1 279/131/1 280/132/1
f 281/133/1 282/134/1 283/135/1 284/136/1
f 285/137/1 286/138/1 287/139/1 288/140/1
f 289/137/1 290/138/1 291/139/1 292/140/1
f 293/137/1 294/138/1 295/139/1 296/140/1
f 297/137/1 298/138/1 299/139/1 300/140/1
f 301/137/1 302/138/1 303/139/1 304/140/1
f 305/137/1 306/138/1 307/139/1 308/140/1
f 309/137/1 310/138/1 311/139/1 312/140/1
f 313/137/1 314/138/1 315/139/1 316/140/1
f 317/137/1 318/138/1 319/139/1 320/140/1
f 321/137/1 322/138/1 323/139/1 324/140/1
f 325/141/1 326/142/1 327/143/1 328/144/1
f 329/105/1 330/106/1 331/107/1 332/108/1
f 333/109/1 334/110/1 335/111/1 336/112/1
f 337/113/1 338/114/1 339/115/1 340/116/1
f 341/117/1 342/118/1 343/119/1 344/120/1
f 345/145/1 346/146/1 347/147/1 348/148/1
f 349/149/1 350/150/1 351/151/1 352/152/1
f 353/149/1 354/150/1 355/151/1 356/152/1
f 357/149/1 358/150/1 359/151/1 360/152/1
f 361/149/1 362/150/1 363/151/1 364/152/1
f 365/149/1 366/150/1 367/151/1 368/152/1
f 369/149/1 370/150/1 371/151/1 372/152/1
f 373/149/1 374/150/1 375/151/1 376/152/1
f 377/149/1 378/150/1 379/151/1 380/152/1
f 381/149/1 382/150/1 383/151/1 384/152/1
f 385/149/1 386/150/1 387/151/1 388/152/1
f 389/153/1 390/154/1 391/155/1 392/156/1
f 393/17/1 394/18/1 395/19/1 396/20/1
f 397/21/1 398/22/1 399/23/1 400/24/1
f 401/25/1 402/26/1 403/27/1 404/28/1
f 405/29/1 406/30/1 407/31/1 408/32/1
f 409/157/1 410/158/1 411/159/1 412/160/1
f 413/161/1 414/162/1 415/163/1 416/164/1
f 417/1/1 418/2/1 419/3/1 420/4/1
f 421/5/1 422/6/1 423/7/1 424/8/1
f 425/9/1 426/10/1 427/11/1 428/12/1
f 429/13/1 430/14/1 431/15/1 432/16/1
f 433/33/1 434/34/1 435/35/1 436/36/1
f 437/37/1 438/38/1 439/39/1 440/40/1
f 441/105/1 442/106/1 443/107/1 444/108/1
f 445/109/1 446/110/1 447/111/1 448/112/1
f 449/113/1 450/114/1 451/115/1 452/116/1
f 453/117/1 454/118/1 455/119/1 456/120/1
f 457/17/1 458/18/1 459/19/1 460/20/1
f 461/21/1 462/22/1 463/23/1 464/24/1
f 465/25/1 466/26/1 467/27/1 468/28/1
f 469/29/1 470/30/1 471/31/1 472/32/1
f 473/1/1 474/2/1 475/3/1 476/4/1
f 477/5/1 478/6/1 479/7/1 480/8/1
f 481/9/1 482/10/1 483/11/1 484/12/1
f 485/13/1 486/14/1 487/15/1 488/16/1
f 489/105/1 490/106/1 491/107/1 492/108/1
f 493/109/1 494/110/1 495/111/1 496/112/1
f 497/113/1 498/114/1 499/115/1 500/116/1
f 501/117/1 502/118/1 503/119/1 504/120/1
f 505/17/1 506/18/1 507/19/1 508/20/1
f 509/21/1 510/22/1 511/23/1 512/24/1
f 513/25/1 514/26/1 515/27/1 516/28/1
f 517/29/1 518/30/1 519/31/1 520/32/1
f 521/1/1 522/2/1 523/3/1 524/4/1
f 525/5/1 526/6/1 527/7/1 528/8/1
f 529/9/1 530/10/1 531/11/1 532/12/1
f 533/13/1 534/14/1 535/15/1 536/16/1
f 537/105/1 538/106/1 539/107/1 540/108/1
f 541/109/1 542/110/1 543/111/1 544/112/1
f 545/113/1 546/114/1 547/115/1 548/116/1
f 549/117/1 550/118/1 551/119/1 552/120/1
f 553/33/1 554/34/1 555/35/1 556/36/1
f 557/37/1 558/38/1 559/39/1 560/40/1
f 561/17/1 562/18/1 563/19/1 564/20/1
f 565/21/1 566/22/1 567/23/1 568/24/1
f 569/25/1 570/26/1 571/27/1 572/28/1
f 573/29/1 574/30/1 575/31/1 576/32/1
f 577/1/1 578/2/1 579/3/1 580/4/1
f 581/5/1 582/6/1 583/7/1 584/8/1
f 585/9/1 586/10/1 587/11/1 588/12/1
f 589/13/1 590/14/1 591/15/1 592/16/1

