# Tiled2Unity generated file. Do not modify by hand.
# Wavefront file for 'UpperLNHS_2_mesh_0004.obj'

# Vertices (Count = 852)
v -26 -1 0
v -27 -1 0
v -27 0 0
v -26 0 0
v -25 -1 0
v -26 -1 0
v -26 0 0
v -25 0 0
v -24 -1 0
v -25 -1 0
v -25 0 0
v -24 0 0
v -23 -1 0
v -24 -1 0
v -24 0 0
v -23 0 0
v -3 -1 0
v -4 -1 0
v -4 0 0
v -3 0 0
v -2 -1 0
v -3 -1 0
v -3 0 0
v -2 0 0
v -1 -1 0
v -2 -1 0
v -2 0 0
v -1 0 0
v 0 -1 0
v -1 -1 0
v -1 0 0
v 0 0 0
v -26 -2 0
v -27 -2 0
v -27 -1 0
v -26 -1 0
v -25 -2 0
v -26 -2 0
v -26 -1 0
v -25 -1 0
v -24 -2 0
v -25 -2 0
v -25 -1 0
v -24 -1 0
v -23 -2 0
v -24 -2 0
v -24 -1 0
v -23 -1 0
v -15 -2 0
v -16 -2 0
v -16 -1 0
v -15 -1 0
v -14 -2 0
v -15 -2 0
v -15 -1 0
v -14 -1 0
v -3 -2 0
v -4 -2 0
v -4 -1 0
v -3 -1 0
v -2 -2 0
v -3 -2 0
v -3 -1 0
v -2 -1 0
v -1 -2 0
v -2 -2 0
v -2 -1 0
v -1 -1 0
v 0 -2 0
v -1 -2 0
v -1 -1 0
v 0 -1 0
v -26 -3 0
v -27 -3 0
v -27 -2 0
v -26 -2 0
v -25 -3 0
v -26 -3 0
v -26 -2 0
v -25 -2 0
v -24 -3 0
v -25 -3 0
v -25 -2 0
v -24 -2 0
v -23 -3 0
v -24 -3 0
v -24 -2 0
v -23 -2 0
v -3 -3 0
v -4 -3 0
v -4 -2 0
v -3 -2 0
v -2 -3 0
v -3 -3 0
v -3 -2 0
v -2 -2 0
v -1 -3 0
v -2 -3 0
v -2 -2 0
v -1 -2 0
v 0 -3 0
v -1 -3 0
v -1 -2 0
v 0 -2 0
v -4 -4 0
v -5 -4 0
v -5 -3 0
v -4 -3 0
v -3 -4 0
v -4 -4 0
v -4 -3 0
v -3 -3 0
v -20 -6 0
v -21 -6 0
v -21 -5 0
v -20 -5 0
v -19 -6 0
v -20 -6 0
v -20 -5 0
v -19 -5 0
v -14 -6 0
v -15 -6 0
v -15 -5 0
v -14 -5 0
v -13 -6 0
v -14 -6 0
v -14 -5 0
v -13 -5 0
v -15 -7 0
v -16 -7 0
v -16 -6 0
v -15 -6 0
v -14 -7 0
v -15 -7 0
v -15 -6 0
v -14 -6 0
v -6 -7 0
v -7 -7 0
v -7 -6 0
v -6 -6 0
v -5 -7 0
v -6 -7 0
v -6 -6 0
v -5 -6 0
v -4 -7 0
v -5 -7 0
v -5 -6 0
v -4 -6 0
v -3 -7 0
v -4 -7 0
v -4 -6 0
v -3 -6 0
v -15 -8 0
v -16 -8 0
v -16 -7 0
v -15 -7 0
v -11 -8 0
v -12 -8 0
v -12 -7 0
v -11 -7 0
v -10 -8 0
v -11 -8 0
v -11 -7 0
v -10 -7 0
v -6 -8 0
v -7 -8 0
v -7 -7 0
v -6 -7 0
v -5 -8 0
v -6 -8 0
v -6 -7 0
v -5 -7 0
v -4 -8 0
v -5 -8 0
v -5 -7 0
v -4 -7 0
v -3 -8 0
v -4 -8 0
v -4 -7 0
v -3 -7 0
v -15 -9 0
v -16 -9 0
v -16 -8 0
v -15 -8 0
v -6 -9 0
v -7 -9 0
v -7 -8 0
v -6 -8 0
v -5 -9 0
v -6 -9 0
v -6 -8 0
v -5 -8 0
v -4 -9 0
v -5 -9 0
v -5 -8 0
v -4 -8 0
v -3 -9 0
v -4 -9 0
v -4 -8 0
v -3 -8 0
v -15 -10 0
v -16 -10 0
v -16 -9 0
v -15 -9 0
v -29 -11 0
v -30 -11 0
v -30 -10 0
v -29 -10 0
v -28 -11 0
v -29 -11 0
v -29 -10 0
v -28 -10 0
v -27 -11 0
v -28 -11 0
v -28 -10 0
v -27 -10 0
v -26 -11 0
v -27 -11 0
v -27 -10 0
v -26 -10 0
v -11 -11 0
v -12 -11 0
v -12 -10 0
v -11 -10 0
v -10 -11 0
v -11 -11 0
v -11 -10 0
v -10 -10 0
v -9 -11 0
v -10 -11 0
v -10 -10 0
v -9 -10 0
v -8 -11 0
v -9 -11 0
v -9 -10 0
v -8 -10 0
v -29 -12 0
v -30 -12 0
v -30 -11 0
v -29 -11 0
v -28 -12 0
v -29 -12 0
v -29 -11 0
v -28 -11 0
v -27 -12 0
v -28 -12 0
v -28 -11 0
v -27 -11 0
v -26 -12 0
v -27 -12 0
v -27 -11 0
v -26 -11 0
v -11 -12 0
v -12 -12 0
v -12 -11 0
v -11 -11 0
v -10 -12 0
v -11 -12 0
v -11 -11 0
v -10 -11 0
v -9 -12 0
v -10 -12 0
v -10 -11 0
v -9 -11 0
v -8 -12 0
v -9 -12 0
v -9 -11 0
v -8 -11 0
v -29 -13 0
v -30 -13 0
v -30 -12 0
v -29 -12 0
v -28 -13 0
v -29 -13 0
v -29 -12 0
v -28 -12 0
v -27 -13 0
v -28 -13 0
v -28 -12 0
v -27 -12 0
v -26 -13 0
v -27 -13 0
v -27 -12 0
v -26 -12 0
v -16 -13 0
v -17 -13 0
v -17 -12 0
v -16 -12 0
v -15 -13 0
v -16 -13 0
v -16 -12 0
v -15 -12 0
v -14 -13 0
v -15 -13 0
v -15 -12 0
v -14 -12 0
v -13 -13 0
v -14 -13 0
v -14 -12 0
v -13 -12 0
v -11 -13 0
v -12 -13 0
v -12 -12 0
v -11 -12 0
v -10 -13 0
v -11 -13 0
v -11 -12 0
v -10 -12 0
v -9 -13 0
v -10 -13 0
v -10 -12 0
v -9 -12 0
v -8 -13 0
v -9 -13 0
v -9 -12 0
v -8 -12 0
v -21 -14 0
v -22 -14 0
v -22 -13 0
v -21 -13 0
v -20 -14 0
v -21 -14 0
v -21 -13 0
v -20 -13 0
v -19 -14 0
v -20 -14 0
v -20 -13 0
v -19 -13 0
v -18 -14 0
v -19 -14 0
v -19 -13 0
v -18 -13 0
v -16 -14 0
v -17 -14 0
v -17 -13 0
v -16 -13 0
v -15 -14 0
v -16 -14 0
v -16 -13 0
v -15 -13 0
v -14 -14 0
v -15 -14 0
v -15 -13 0
v -14 -13 0
v -13 -14 0
v -14 -14 0
v -14 -13 0
v -13 -13 0
v -21 -15 0
v -22 -15 0
v -22 -14 0
v -21 -14 0
v -20 -15 0
v -21 -15 0
v -21 -14 0
v -20 -14 0
v -19 -15 0
v -20 -15 0
v -20 -14 0
v -19 -14 0
v -18 -15 0
v -19 -15 0
v -19 -14 0
v -18 -14 0
v -16 -15 0
v -17 -15 0
v -17 -14 0
v -16 -14 0
v -15 -15 0
v -16 -15 0
v -16 -14 0
v -15 -14 0
v -14 -15 0
v -15 -15 0
v -15 -14 0
v -14 -14 0
v -13 -15 0
v -14 -15 0
v -14 -14 0
v -13 -14 0
v -11 -15 0
v -12 -15 0
v -12 -14 0
v -11 -14 0
v -10 -15 0
v -11 -15 0
v -11 -14 0
v -10 -14 0
v -9 -15 0
v -10 -15 0
v -10 -14 0
v -9 -14 0
v -8 -15 0
v -9 -15 0
v -9 -14 0
v -8 -14 0
v -5 -15 0
v -6 -15 0
v -6 -14 0
v -5 -14 0
v -4 -15 0
v -5 -15 0
v -5 -14 0
v -4 -14 0
v -21 -16 0
v -22 -16 0
v -22 -15 0
v -21 -15 0
v -20 -16 0
v -21 -16 0
v -21 -15 0
v -20 -15 0
v -19 -16 0
v -20 -16 0
v -20 -15 0
v -19 -15 0
v -18 -16 0
v -19 -16 0
v -19 -15 0
v -18 -15 0
v -11 -16 0
v -12 -16 0
v -12 -15 0
v -11 -15 0
v -10 -16 0
v -11 -16 0
v -11 -15 0
v -10 -15 0
v -9 -16 0
v -10 -16 0
v -10 -15 0
v -9 -15 0
v -8 -16 0
v -9 -16 0
v -9 -15 0
v -8 -15 0
v -16 -17 0
v -17 -17 0
v -17 -16 0
v -16 -16 0
v -15 -17 0
v -16 -17 0
v -16 -16 0
v -15 -16 0
v -14 -17 0
v -15 -17 0
v -15 -16 0
v -14 -16 0
v -13 -17 0
v -14 -17 0
v -14 -16 0
v -13 -16 0
v -11 -17 0
v -12 -17 0
v -12 -16 0
v -11 -16 0
v -10 -17 0
v -11 -17 0
v -11 -16 0
v -10 -16 0
v -9 -17 0
v -10 -17 0
v -10 -16 0
v -9 -16 0
v -8 -17 0
v -9 -17 0
v -9 -16 0
v -8 -16 0
v -4 -17 0
v -5 -17 0
v -5 -16 0
v -4 -16 0
v -3 -17 0
v -4 -17 0
v -4 -16 0
v -3 -16 0
v -2 -17 0
v -3 -17 0
v -3 -16 0
v -2 -16 0
v -1 -17 0
v -2 -17 0
v -2 -16 0
v -1 -16 0
v -16 -18 0
v -17 -18 0
v -17 -17 0
v -16 -17 0
v -15 -18 0
v -16 -18 0
v -16 -17 0
v -15 -17 0
v -14 -18 0
v -15 -18 0
v -15 -17 0
v -14 -17 0
v -13 -18 0
v -14 -18 0
v -14 -17 0
v -13 -17 0
v -11 -18 0
v -12 -18 0
v -12 -17 0
v -11 -17 0
v -10 -18 0
v -11 -18 0
v -11 -17 0
v -10 -17 0
v -9 -18 0
v -10 -18 0
v -10 -17 0
v -9 -17 0
v -8 -18 0
v -9 -18 0
v -9 -17 0
v -8 -17 0
v -4 -18 0
v -5 -18 0
v -5 -17 0
v -4 -17 0
v -3 -18 0
v -4 -18 0
v -4 -17 0
v -3 -17 0
v -2 -18 0
v -3 -18 0
v -3 -17 0
v -2 -17 0
v -1 -18 0
v -2 -18 0
v -2 -17 0
v -1 -17 0
v -16 -19 0
v -17 -19 0
v -17 -18 0
v -16 -18 0
v -15 -19 0
v -16 -19 0
v -16 -18 0
v -15 -18 0
v -14 -19 0
v -15 -19 0
v -15 -18 0
v -14 -18 0
v -13 -19 0
v -14 -19 0
v -14 -18 0
v -13 -18 0
v -11 -19 0
v -12 -19 0
v -12 -18 0
v -11 -18 0
v -10 -19 0
v -11 -19 0
v -11 -18 0
v -10 -18 0
v -9 -19 0
v -10 -19 0
v -10 -18 0
v -9 -18 0
v -8 -19 0
v -9 -19 0
v -9 -18 0
v -8 -18 0
v -4 -19 0
v -5 -19 0
v -5 -18 0
v -4 -18 0
v -3 -19 0
v -4 -19 0
v -4 -18 0
v -3 -18 0
v -2 -19 0
v -3 -19 0
v -3 -18 0
v -2 -18 0
v -1 -19 0
v -2 -19 0
v -2 -18 0
v -1 -18 0
v -11 -20 0
v -12 -20 0
v -12 -19 0
v -11 -19 0
v -10 -20 0
v -11 -20 0
v -11 -19 0
v -10 -19 0
v -9 -20 0
v -10 -20 0
v -10 -19 0
v -9 -19 0
v -8 -20 0
v -9 -20 0
v -9 -19 0
v -8 -19 0
v -20 -21 0
v -21 -21 0
v -21 -20 0
v -20 -20 0
v -19 -21 0
v -20 -21 0
v -20 -20 0
v -19 -20 0
v -11 -21 0
v -12 -21 0
v -12 -20 0
v -11 -20 0
v -10 -21 0
v -11 -21 0
v -11 -20 0
v -10 -20 0
v -9 -21 0
v -10 -21 0
v -10 -20 0
v -9 -20 0
v -8 -21 0
v -9 -21 0
v -9 -20 0
v -8 -20 0
v -23 -22 0
v -24 -22 0
v -24 -21 0
v -23 -21 0
v -22 -22 0
v -23 -22 0
v -23 -21 0
v -22 -21 0
v -20 -22 0
v -21 -22 0
v -21 -21 0
v -20 -21 0
v -19 -22 0
v -20 -22 0
v -20 -21 0
v -19 -21 0
v -16 -22 0
v -17 -22 0
v -17 -21 0
v -16 -21 0
v -15 -22 0
v -16 -22 0
v -16 -21 0
v -15 -21 0
v -14 -22 0
v -15 -22 0
v -15 -21 0
v -14 -21 0
v -13 -22 0
v -14 -22 0
v -14 -21 0
v -13 -21 0
v -11 -22 0
v -12 -22 0
v -12 -21 0
v -11 -21 0
v -10 -22 0
v -11 -22 0
v -11 -21 0
v -10 -21 0
v -9 -22 0
v -10 -22 0
v -10 -21 0
v -9 -21 0
v -8 -22 0
v -9 -22 0
v -9 -21 0
v -8 -21 0
v -19 -23 0
v -20 -23 0
v -20 -22 0
v -19 -22 0
v -16 -23 0
v -17 -23 0
v -17 -22 0
v -16 -22 0
v -15 -23 0
v -16 -23 0
v -16 -22 0
v -15 -22 0
v -14 -23 0
v -15 -23 0
v -15 -22 0
v -14 -22 0
v -13 -23 0
v -14 -23 0
v -14 -22 0
v -13 -22 0
v -11 -23 0
v -12 -23 0
v -12 -22 0
v -11 -22 0
v -10 -23 0
v -11 -23 0
v -11 -22 0
v -10 -22 0
v -9 -23 0
v -10 -23 0
v -10 -22 0
v -9 -22 0
v -8 -23 0
v -9 -23 0
v -9 -22 0
v -8 -22 0
v -16 -24 0
v -17 -24 0
v -17 -23 0
v -16 -23 0
v -15 -24 0
v -16 -24 0
v -16 -23 0
v -15 -23 0
v -14 -24 0
v -15 -24 0
v -15 -23 0
v -14 -23 0
v -13 -24 0
v -14 -24 0
v -14 -23 0
v -13 -23 0
v -11 -24 0
v -12 -24 0
v -12 -23 0
v -11 -23 0
v -10 -24 0
v -11 -24 0
v -11 -23 0
v -10 -23 0
v -9 -24 0
v -10 -24 0
v -10 -23 0
v -9 -23 0
v -8 -24 0
v -9 -24 0
v -9 -23 0
v -8 -23 0
v -11 -25 0
v -12 -25 0
v -12 -24 0
v -11 -24 0
v -10 -25 0
v -11 -25 0
v -11 -24 0
v -10 -24 0
v -9 -25 0
v -10 -25 0
v -10 -24 0
v -9 -24 0
v -8 -25 0
v -9 -25 0
v -9 -24 0
v -8 -24 0
v -25 -26 0
v -26 -26 0
v -26 -25 0
v -25 -25 0
v -24 -26 0
v -25 -26 0
v -25 -25 0
v -24 -25 0
v -23 -26 0
v -24 -26 0
v -24 -25 0
v -23 -25 0
v -22 -26 0
v -23 -26 0
v -23 -25 0
v -22 -25 0
v -11 -26 0
v -12 -26 0
v -12 -25 0
v -11 -25 0
v -10 -26 0
v -11 -26 0
v -11 -25 0
v -10 -25 0
v -9 -26 0
v -10 -26 0
v -10 -25 0
v -9 -25 0
v -8 -26 0
v -9 -26 0
v -9 -25 0
v -8 -25 0
v -3 -26 0
v -4 -26 0
v -4 -25 0
v -3 -25 0
v -2 -26 0
v -3 -26 0
v -3 -25 0
v -2 -25 0
v -25 -27 0
v -26 -27 0
v -26 -26 0
v -25 -26 0
v -24 -27 0
v -25 -27 0
v -25 -26 0
v -24 -26 0
v -23 -27 0
v -24 -27 0
v -24 -26 0
v -23 -26 0
v -22 -27 0
v -23 -27 0
v -23 -26 0
v -22 -26 0
v -20 -27 0
v -21 -27 0
v -21 -26 0
v -20 -26 0
v -19 -27 0
v -20 -27 0
v -20 -26 0
v -19 -26 0
v -13 -27 0
v -14 -27 0
v -14 -26 0
v -13 -26 0
v -12 -27 0
v -13 -27 0
v -13 -26 0
v -12 -26 0
v -5 -27 0
v -6 -27 0
v -6 -26 0
v -5 -26 0
v -4 -27 0
v -5 -27 0
v -5 -26 0
v -4 -26 0
v -2 -27 0
v -3 -27 0
v -3 -26 0
v -2 -26 0
v -25 -28 0
v -26 -28 0
v -26 -27 0
v -25 -27 0
v -24 -28 0
v -25 -28 0
v -25 -27 0
v -24 -27 0
v -23 -28 0
v -24 -28 0
v -24 -27 0
v -23 -27 0
v -22 -28 0
v -23 -28 0
v -23 -27 0
v -22 -27 0

# Texture cooridinates (Count = 60)
vt 0.3538282 0.1667888
vt 0.3743903 0.1667888
vt 0.3743903 0.1943223
vt 0.3538282 0.1943223
vt 0.3330219 0.1667888
vt 0.3535841 0.1667888
vt 0.3535841 0.1943223
vt 0.3330219 0.1943223
vt 0.3122157 0.1667888
vt 0.3327778 0.1667888
vt 0.3327778 0.1943223
vt 0.3122157 0.1943223
vt 0.2914095 0.1667888
vt 0.3119715 0.1667888
vt 0.3119715 0.1943223
vt 0.2914095 0.1943223
vt 0.3538282 0.139011
vt 0.3743903 0.139011
vt 0.3743903 0.1665446
vt 0.3538282 0.1665446
vt 0.3330219 0.139011
vt 0.3535841 0.139011
vt 0.3535841 0.1665446
vt 0.3330219 0.1665446
vt 0.3122157 0.139011
vt 0.3327778 0.139011
vt 0.3327778 0.1665446
vt 0.3122157 0.1665446
vt 0.2914095 0.139011
vt 0.3119715 0.139011
vt 0.3119715 0.1665446
vt 0.2914095 0.1665446
vt 0.1249595 0.5278999
vt 0.1455216 0.5278999
vt 0.1455216 0.5554335
vt 0.1249595 0.5554335
vt 0.1041533 0.5278999
vt 0.1247154 0.5278999
vt 0.1247154 0.5554335
vt 0.1041533 0.5554335
vt 0.3538282 0.1112332
vt 0.3743903 0.1112332
vt 0.3743903 0.1387668
vt 0.3538282 0.1387668
vt 0.3330219 0.1112332
vt 0.3535841 0.1112332
vt 0.3535841 0.1387668
vt 0.3330219 0.1387668
vt 0.3122157 0.1112332
vt 0.3327778 0.1112332
vt 0.3327778 0.1387668
vt 0.3122157 0.1387668
vt 0.2914095 0.1112332
vt 0.3119715 0.1112332
vt 0.3119715 0.1387668
vt 0.2914095 0.1387668
vt 0.04173455 0.5834554
vt 0.06229666 0.5834554
vt 0.06229666 0.610989
vt 0.04173455 0.610989

# Normal
vn 0 0 -1

# Mesh description
g UpperLNHS_2_mesh_0004

# Faces
f 1/1/1 2/2/1 3/3/1 4/4/1
f 5/5/1 6/6/1 7/7/1 8/8/1
f 9/9/1 10/10/1 11/11/1 12/12/1
f 13/13/1 14/14/1 15/15/1 16/16/1
f 17/1/1 18/2/1 19/3/1 20/4/1
f 21/5/1 22/6/1 23/7/1 24/8/1
f 25/9/1 26/10/1 27/11/1 28/12/1
f 29/13/1 30/14/1 31/15/1 32/16/1
f 33/17/1 34/18/1 35/19/1 36/20/1
f 37/21/1 38/22/1 39/23/1 40/24/1
f 41/25/1 42/26/1 43/27/1 44/28/1
f 45/29/1 46/30/1 47/31/1 48/32/1
f 49/33/1 50/34/1 51/35/1 52/36/1
f 53/37/1 54/38/1 55/39/1 56/40/1
f 57/17/1 58/18/1 59/19/1 60/20/1
f 61/21/1 62/22/1 63/23/1 64/24/1
f 65/25/1 66/26/1 67/27/1 68/28/1
f 69/29/1 70/30/1 71/31/1 72/32/1
f 73/41/1 74/42/1 75/43/1 76/44/1
f 77/45/1 78/46/1 79/47/1 80/48/1
f 81/49/1 82/50/1 83/51/1 84/52/1
f 85/53/1 86/54/1 87/55/1 88/56/1
f 89/41/1 90/42/1 91/43/1 92/44/1
f 93/45/1 94/46/1 95/47/1 96/48/1
f 97/49/1 98/50/1 99/51/1 100/52/1
f 101/53/1 102/54/1 103/55/1 104/56/1
f 105/33/1 106/34/1 107/35/1 108/36/1
f 109/37/1 110/38/1 111/39/1 112/40/1
f 113/33/1 114/34/1 115/35/1 116/36/1
f 117/37/1 118/38/1 119/39/1 120/40/1
f 121/57/1 122/58/1 123/59/1 124/60/1
f 125/57/1 126/58/1 127/59/1 128/60/1
f 129/57/1 130/58/1 131/59/1 132/60/1
f 133/57/1 134/58/1 135/59/1 136/60/1
f 137/1/1 138/2/1 139/3/1 140/4/1
f 141/5/1 142/6/1 143/7/1 144/8/1
f 145/9/1 146/10/1 147/11/1 148/12/1
f 149/13/1 150/14/1 151/15/1 152/16/1
f 153/57/1 154/58/1 155/59/1 156/60/1
f 157/33/1 158/34/1 159/35/1 160/36/1
f 161/37/1 162/38/1 163/39/1 164/40/1
f 165/17/1 166/18/1 167/19/1 168/20/1
f 169/21/1 170/22/1 171/23/1 172/24/1
f 173/25/1 174/26/1 175/27/1 176/28/1
f 177/29/1 178/30/1 179/31/1 180/32/1
f 181/57/1 182/58/1 183/59/1 184/60/1
f 185/41/1 186/42/1 187/43/1 188/44/1
f 189/45/1 190/46/1 191/47/1 192/48/1
f 193/49/1 194/50/1 195/51/1 196/52/1
f 197/53/1 198/54/1 199/55/1 200/56/1
f 201/57/1 202/58/1 203/59/1 204/60/1
f 205/1/1 206/2/1 207/3/1 208/4/1
f 209/5/1 210/6/1 211/7/1 212/8/1
f 213/9/1 214/10/1 215/11/1 216/12/1
f 217/13/1 218/14/1 219/15/1 220/16/1
f 221/1/1 222/2/1 223/3/1 224/4/1
f 225/5/1 226/6/1 227/7/1 228/8/1
f 229/9/1 230/10/1 231/11/1 232/12/1
f 233/13/1 234/14/1 235/15/1 236/16/1
f 237/17/1 238/18/1 239/19/1 240/20/1
f 241/21/1 242/22/1 243/23/1 244/24/1
f 245/25/1 246/26/1 247/27/1 248/28/1
f 249/29/1 250/30/1 251/31/1 252/32/1
f 253/17/1 254/18/1 255/19/1 256/20/1
f 257/21/1 258/22/1 259/23/1 260/24/1
f 261/25/1 262/26/1 263/27/1 264/28/1
f 265/29/1 266/30/1 267/31/1 268/32/1
f 269/41/1 270/42/1 271/43/1 272/44/1
f 273/45/1 274/46/1 275/47/1 276/48/1
f 277/49/1 278/50/1 279/51/1 280/52/1
f 281/53/1 282/54/1 283/55/1 284/56/1
f 285/1/1 286/2/1 287/3/1 288/4/1
f 289/5/1 290/6/1 291/7/1 292/8/1
f 293/9/1 294/10/1 295/11/1 296/12/1
f 297/13/1 298/14/1 299/15/1 300/16/1
f 301/41/1 302/42/1 303/43/1 304/44/1
f 305/45/1 306/46/1 307/47/1 308/48/1
f 309/49/1 310/50/1 311/51/1 312/52/1
f 313/53/1 314/54/1 315/55/1 316/56/1
f 317/1/1 318/2/1 319/3/1 320/4/1
f 321/5/1 322/6/1 323/7/1 324/8/1
f 325/9/1 326/10/1 327/11/1 328/12/1
f 329/13/1 330/14/1 331/15/1 332/16/1
f 333/17/1 334/18/1 335/19/1 336/20/1
f 337/21/1 338/22/1 339/23/1 340/24/1
f 341/25/1 342/26/1 343/27/1 344/28/1
f 345/29/1 346/30/1 347/31/1 348/32/1
f 349/17/1 350/18/1 351/19/1 352/20/1
f 353/21/1 354/22/1 355/23/1 356/24/1
f 357/25/1 358/26/1 359/27/1 360/28/1
f 361/29/1 362/30/1 363/31/1 364/32/1
f 365/41/1 366/42/1 367/43/1 368/44/1
f 369/45/1 370/46/1 371/47/1 372/48/1
f 373/49/1 374/50/1 375/51/1 376/52/1
f 377/53/1 378/54/1 379/55/1 380/56/1
f 381/1/1 382/2/1 383/3/1 384/4/1
f 385/5/1 386/6/1 387/7/1 388/8/1
f 389/9/1 390/10/1 391/11/1 392/12/1
f 393/13/1 394/14/1 395/15/1 396/16/1
f 397/33/1 398/34/1 399/35/1 400/36/1
f 401/37/1 402/38/1 403/39/1 404/40/1
f 405/41/1 406/42/1 407/43/1 408/44/1
f 409/45/1 410/46/1 411/47/1 412/48/1
f 413/49/1 414/50/1 415/51/1 416/52/1
f 417/53/1 418/54/1 419/55/1 420/56/1
f 421/17/1 422/18/1 423/19/1 424/20/1
f 425/21/1 426/22/1 427/23/1 428/24/1
f 429/25/1 430/26/1 431/27/1 432/28/1
f 433/29/1 434/30/1 435/31/1 436/32/1
f 437/1/1 438/2/1 439/3/1 440/4/1
f 441/5/1 442/6/1 443/7/1 444/8/1
f 445/9/1 446/10/1 447/11/1 448/12/1
f 449/13/1 450/14/1 451/15/1 452/16/1
f 453/41/1 454/42/1 455/43/1 456/44/1
f 457/45/1 458/46/1 459/47/1 460/48/1
f 461/49/1 462/50/1 463/51/1 464/52/1
f 465/53/1 466/54/1 467/55/1 468/56/1
f 469/1/1 470/2/1 471/3/1 472/4/1
f 473/5/1 474/6/1 475/7/1 476/8/1
f 477/9/1 478/10/1 479/11/1 480/12/1
f 481/13/1 482/14/1 483/15/1 484/16/1
f 485/17/1 486/18/1 487/19/1 488/20/1
f 489/21/1 490/22/1 491/23/1 492/24/1
f 493/25/1 494/26/1 495/27/1 496/28/1
f 497/29/1 498/30/1 499/31/1 500/32/1
f 501/1/1 502/2/1 503/3/1 504/4/1
f 505/5/1 506/6/1 507/7/1 508/8/1
f 509/9/1 510/10/1 511/11/1 512/12/1
f 513/13/1 514/14/1 515/15/1 516/16/1
f 517/17/1 518/18/1 519/19/1 520/20/1
f 521/21/1 522/22/1 523/23/1 524/24/1
f 525/25/1 526/26/1 527/27/1 528/28/1
f 529/29/1 530/30/1 531/31/1 532/32/1
f 533/41/1 534/42/1 535/43/1 536/44/1
f 537/45/1 538/46/1 539/47/1 540/48/1
f 541/49/1 542/50/1 543/51/1 544/52/1
f 545/53/1 546/54/1 547/55/1 548/56/1
f 549/17/1 550/18/1 551/19/1 552/20/1
f 553/21/1 554/22/1 555/23/1 556/24/1
f 557/25/1 558/26/1 559/27/1 560/28/1
f 561/29/1 562/30/1 563/31/1 564/32/1
f 565/41/1 566/42/1 567/43/1 568/44/1
f 569/45/1 570/46/1 571/47/1 572/48/1
f 573/49/1 574/50/1 575/51/1 576/52/1
f 577/53/1 578/54/1 579/55/1 580/56/1
f 581/41/1 582/42/1 583/43/1 584/44/1
f 585/45/1 586/46/1 587/47/1 588/48/1
f 589/49/1 590/50/1 591/51/1 592/52/1
f 593/53/1 594/54/1 595/55/1 596/56/1
f 597/57/1 598/58/1 599/59/1 600/60/1
f 601/57/1 602/58/1 603/59/1 604/60/1
f 605/1/1 606/2/1 607/3/1 608/4/1
f 609/5/1 610/6/1 611/7/1 612/8/1
f 613/9/1 614/10/1 615/11/1 616/12/1
f 617/13/1 618/14/1 619/15/1 620/16/1
f 621/33/1 622/34/1 623/35/1 624/36/1
f 625/37/1 626/38/1 627/39/1 628/40/1
f 629/57/1 630/58/1 631/59/1 632/60/1
f 633/57/1 634/58/1 635/59/1 636/60/1
f 637/1/1 638/2/1 639/3/1 640/4/1
f 641/5/1 642/6/1 643/7/1 644/8/1
f 645/9/1 646/10/1 647/11/1 648/12/1
f 649/13/1 650/14/1 651/15/1 652/16/1
f 653/17/1 654/18/1 655/19/1 656/20/1
f 657/21/1 658/22/1 659/23/1 660/24/1
f 661/25/1 662/26/1 663/27/1 664/28/1
f 665/29/1 666/30/1 667/31/1 668/32/1
f 669/57/1 670/58/1 671/59/1 672/60/1
f 673/17/1 674/18/1 675/19/1 676/20/1
f 677/21/1 678/22/1 679/23/1 680/24/1
f 681/25/1 682/26/1 683/27/1 684/28/1
f 685/29/1 686/30/1 687/31/1 688/32/1
f 689/41/1 690/42/1 691/43/1 692/44/1
f 693/45/1 694/46/1 695/47/1 696/48/1
f 697/49/1 698/50/1 699/51/1 700/52/1
f 701/53/1 702/54/1 703/55/1 704/56/1
f 705/41/1 706/42/1 707/43/1 708/44/1
f 709/45/1 710/46/1 711/47/1 712/48/1
f 713/49/1 714/50/1 715/51/1 716/52/1
f 717/53/1 718/54/1 719/55/1 720/56/1
f 721/1/1 722/2/1 723/3/1 724/4/1
f 725/5/1 726/6/1 727/7/1 728/8/1
f 729/9/1 730/10/1 731/11/1 732/12/1
f 733/13/1 734/14/1 735/15/1 736/16/1
f 737/17/1 738/18/1 739/19/1 740/20/1
f 741/21/1 742/22/1 743/23/1 744/24/1
f 745/25/1 746/26/1 747/27/1 748/28/1
f 749/29/1 750/30/1 751/31/1 752/32/1
f 753/1/1 754/2/1 755/3/1 756/4/1
f 757/5/1 758/6/1 759/7/1 760/8/1
f 761/9/1 762/10/1 763/11/1 764/12/1
f 765/13/1 766/14/1 767/15/1 768/16/1
f 769/41/1 770/42/1 771/43/1 772/44/1
f 773/45/1 774/46/1 775/47/1 776/48/1
f 777/49/1 778/50/1 779/51/1 780/52/1
f 781/53/1 782/54/1 783/55/1 784/56/1
f 785/57/1 786/58/1 787/59/1 788/60/1
f 789/57/1 790/58/1 791/59/1 792/60/1
f 793/17/1 794/18/1 795/19/1 796/20/1
f 797/21/1 798/22/1 799/23/1 800/24/1
f 801/25/1 802/26/1 803/27/1 804/28/1
f 805/29/1 806/30/1 807/31/1 808/32/1
f 809/33/1 810/34/1 811/35/1 812/36/1
f 813/37/1 814/38/1 815/39/1 816/40/1
f 817/33/1 818/34/1 819/35/1 820/36/1
f 821/37/1 822/38/1 823/39/1 824/40/1
f 825/33/1 826/34/1 827/35/1 828/36/1
f 829/37/1 830/38/1 831/39/1 832/40/1
f 833/57/1 834/58/1 835/59/1 836/60/1
f 837/41/1 838/42/1 839/43/1 840/44/1
f 841/45/1 842/46/1 843/47/1 844/48/1
f 845/49/1 846/50/1 847/51/1 848/52/1
f 849/53/1 850/54/1 851/55/1 852/56/1

