# Tiled2Unity generated file. Do not modify by hand.
# Wavefront file for 'RandomHouse6_mesh_0004.obj'

# Vertices (Count = 28)
v -6 -6 0
v -7 -6 0
v -7 -5 0
v -6 -5 0
v -11 -7 0
v -12 -7 0
v -12 -6 0
v -11 -6 0
v -10 -7 0
v -11 -7 0
v -11 -6 0
v -10 -6 0
v -2 -8 0
v -3 -8 0
v -3 -7 0
v -2 -7 0
v -11 -10 0
v -12 -10 0
v -12 -9 0
v -11 -9 0
v -11 -11 0
v -12 -11 0
v -12 -10 0
v -11 -10 0
v -11 -12 0
v -12 -12 0
v -12 -11 0
v -11 -11 0

# Texture cooridinates (Count = 28)
vt 0.2401221 0.6975216
vt 0.2798779 0.6975216
vt 0.2798779 0.7351025
vt 0.2401221 0.7351025
vt 0.2001221 0.7353467
vt 0.2398779 0.7353467
vt 0.2398779 0.7729276
vt 0.2001221 0.7729276
vt 0.2401221 0.7353467
vt 0.2798779 0.7353467
vt 0.2798779 0.7729276
vt 0.2401221 0.7729276
vt 0.4401221 0.962297
vt 0.4798779 0.962297
vt 0.4798779 0.9998779
vt 0.4401221 0.9998779
vt 0.2801221 0.6218715
vt 0.3198779 0.6218715
vt 0.3198779 0.6594524
vt 0.2801221 0.6594524
vt 0.2801221 0.5840464
vt 0.3198779 0.5840464
vt 0.3198779 0.6216273
vt 0.2801221 0.6216273
vt 0.2801221 0.5462214
vt 0.3198779 0.5462214
vt 0.3198779 0.5838023
vt 0.2801221 0.5838023

# Normal
vn 0 0 -1

# Mesh description
g RandomHouse6_mesh_0004

# Faces
f 1/1/1 2/2/1 3/3/1 4/4/1
f 5/5/1 6/6/1 7/7/1 8/8/1
f 9/9/1 10/10/1 11/11/1 12/12/1
f 13/13/1 14/14/1 15/15/1 16/16/1
f 17/17/1 18/18/1 19/19/1 20/20/1
f 21/21/1 22/22/1 23/23/1 24/24/1
f 25/25/1 26/26/1 27/27/1 28/28/1

