# Tiled2Unity generated file. Do not modify by hand.
# Wavefront file for 'RandomHouse6_mesh_0002.obj'

# Vertices (Count = 284)
v -9 -1 0
v -10 -1 0
v -10 0 0
v -9 0 0
v -8 -1 0
v -9 -1 0
v -9 0 0
v -8 0 0
v -7 -1 0
v -8 -1 0
v -8 0 0
v -7 0 0
v -6 -1 0
v -7 -1 0
v -7 0 0
v -6 0 0
v -13 -2 0
v -14 -2 0
v -14 -1 0
v -13 -1 0
v -12 -2 0
v -13 -2 0
v -13 -1 0
v -12 -1 0
v -9 -2 0
v -10 -2 0
v -10 -1 0
v -9 -1 0
v -8 -2 0
v -9 -2 0
v -9 -1 0
v -8 -1 0
v -7 -2 0
v -8 -2 0
v -8 -1 0
v -7 -1 0
v -6 -2 0
v -7 -2 0
v -7 -1 0
v -6 -1 0
v -5 -2 0
v -6 -2 0
v -6 -1 0
v -5 -1 0
v -4 -2 0
v -5 -2 0
v -5 -1 0
v -4 -1 0
v -3 -2 0
v -4 -2 0
v -4 -1 0
v -3 -1 0
v -2 -2 0
v -3 -2 0
v -3 -1 0
v -2 -1 0
v -13 -3 0
v -14 -3 0
v -14 -2 0
v -13 -2 0
v -12 -3 0
v -13 -3 0
v -13 -2 0
v -12 -2 0
v -9 -3 0
v -10 -3 0
v -10 -2 0
v -9 -2 0
v -8 -3 0
v -9 -3 0
v -9 -2 0
v -8 -2 0
v -7 -3 0
v -8 -3 0
v -8 -2 0
v -7 -2 0
v -6 -3 0
v -7 -3 0
v -7 -2 0
v -6 -2 0
v -5 -3 0
v -6 -3 0
v -6 -2 0
v -5 -2 0
v -4 -3 0
v -5 -3 0
v -5 -2 0
v -4 -2 0
v -3 -3 0
v -4 -3 0
v -4 -2 0
v -3 -2 0
v -2 -3 0
v -3 -3 0
v -3 -2 0
v -2 -2 0
v -13 -4 0
v -14 -4 0
v -14 -3 0
v -13 -3 0
v -12 -4 0
v -13 -4 0
v -13 -3 0
v -12 -3 0
v -6 -4 0
v -7 -4 0
v -7 -3 0
v -6 -3 0
v -5 -4 0
v -6 -4 0
v -6 -3 0
v -5 -3 0
v -4 -4 0
v -5 -4 0
v -5 -3 0
v -4 -3 0
v -3 -4 0
v -4 -4 0
v -4 -3 0
v -3 -3 0
v -2 -4 0
v -3 -4 0
v -3 -3 0
v -2 -3 0
v -6 -5 0
v -7 -5 0
v -7 -4 0
v -6 -4 0
v -5 -5 0
v -6 -5 0
v -6 -4 0
v -5 -4 0
v -4 -5 0
v -5 -5 0
v -5 -4 0
v -4 -4 0
v -3 -5 0
v -4 -5 0
v -4 -4 0
v -3 -4 0
v -2 -5 0
v -3 -5 0
v -3 -4 0
v -2 -4 0
v -6 -6 0
v -7 -6 0
v -7 -5 0
v -6 -5 0
v -2 -6 0
v -3 -6 0
v -3 -5 0
v -2 -5 0
v -12 -7 0
v -13 -7 0
v -13 -6 0
v -12 -6 0
v -11 -7 0
v -12 -7 0
v -12 -6 0
v -11 -6 0
v -10 -7 0
v -11 -7 0
v -11 -6 0
v -10 -6 0
v -2 -7 0
v -3 -7 0
v -3 -6 0
v -2 -6 0
v -12 -8 0
v -13 -8 0
v -13 -7 0
v -12 -7 0
v -11 -8 0
v -12 -8 0
v -12 -7 0
v -11 -7 0
v -10 -8 0
v -11 -8 0
v -11 -7 0
v -10 -7 0
v -2 -8 0
v -3 -8 0
v -3 -7 0
v -2 -7 0
v -2 -9 0
v -3 -9 0
v -3 -8 0
v -2 -8 0
v -13 -10 0
v -14 -10 0
v -14 -9 0
v -13 -9 0
v -12 -10 0
v -13 -10 0
v -13 -9 0
v -12 -9 0
v -11 -10 0
v -12 -10 0
v -12 -9 0
v -11 -9 0
v -10 -10 0
v -11 -10 0
v -11 -9 0
v -10 -9 0
v -2 -10 0
v -3 -10 0
v -3 -9 0
v -2 -9 0
v -13 -11 0
v -14 -11 0
v -14 -10 0
v -13 -10 0
v -12 -11 0
v -13 -11 0
v -13 -10 0
v -12 -10 0
v -11 -11 0
v -12 -11 0
v -12 -10 0
v -11 -10 0
v -10 -11 0
v -11 -11 0
v -11 -10 0
v -10 -10 0
v -9 -13 0
v -10 -13 0
v -10 -12 0
v -9 -12 0
v -8 -13 0
v -9 -13 0
v -9 -12 0
v -8 -12 0
v -7 -13 0
v -8 -13 0
v -8 -12 0
v -7 -12 0
v -9 -14 0
v -10 -14 0
v -10 -13 0
v -9 -13 0
v -8 -14 0
v -9 -14 0
v -9 -13 0
v -8 -13 0
v -7 -14 0
v -8 -14 0
v -8 -13 0
v -7 -13 0
v -13 -15 0
v -14 -15 0
v -14 -14 0
v -13 -14 0
v -12 -15 0
v -13 -15 0
v -13 -14 0
v -12 -14 0
v -11 -15 0
v -12 -15 0
v -12 -14 0
v -11 -14 0
v -9 -15 0
v -10 -15 0
v -10 -14 0
v -9 -14 0
v -8 -15 0
v -9 -15 0
v -9 -14 0
v -8 -14 0
v -7 -15 0
v -8 -15 0
v -8 -14 0
v -7 -14 0
v -13 -16 0
v -14 -16 0
v -14 -15 0
v -13 -15 0
v -12 -16 0
v -13 -16 0
v -13 -15 0
v -12 -15 0
v -11 -16 0
v -12 -16 0
v -12 -15 0
v -11 -15 0

# Texture cooridinates (Count = 260)
vt 0.08012207 0.962297
vt 0.1198779 0.962297
vt 0.1198779 0.9998779
vt 0.08012207 0.9998779
vt 0.04012207 0.962297
vt 0.07987793 0.962297
vt 0.07987793 0.9998779
vt 0.04012207 0.9998779
vt 0.0001220703 0.962297
vt 0.03987793 0.962297
vt 0.03987793 0.9998779
vt 0.0001220703 0.9998779
vt 0.1601221 0.6218715
vt 0.1998779 0.6218715
vt 0.1998779 0.6594524
vt 0.1601221 0.6594524
vt 0.6001221 0.8488218
vt 0.6398779 0.8488218
vt 0.6398779 0.8864027
vt 0.6001221 0.8864027
vt 0.5601221 0.8488218
vt 0.599878 0.8488218
vt 0.599878 0.8864027
vt 0.5601221 0.8864027
vt 0.08012207 0.924472
vt 0.1198779 0.924472
vt 0.1198779 0.9620529
vt 0.08012207 0.9620529
vt 0.04012207 0.924472
vt 0.07987793 0.924472
vt 0.07987793 0.9620529
vt 0.04012207 0.9620529
vt 0.0001220703 0.924472
vt 0.03987793 0.924472
vt 0.03987793 0.9620529
vt 0.0001220703 0.9620529
vt 0.1601221 0.5840464
vt 0.1998779 0.5840464
vt 0.1998779 0.6216273
vt 0.1601221 0.6216273
vt 0.7201221 0.962297
vt 0.7598779 0.962297
vt 0.7598779 0.9998779
vt 0.7201221 0.9998779
vt 0.6801221 0.962297
vt 0.719878 0.962297
vt 0.719878 0.9998779
vt 0.6801221 0.9998779
vt 0.6401221 0.962297
vt 0.6798779 0.962297
vt 0.6798779 0.9998779
vt 0.6401221 0.9998779
vt 0.6001221 0.8109968
vt 0.6398779 0.8109968
vt 0.6398779 0.8485777
vt 0.6001221 0.8485777
vt 0.5601221 0.8109968
vt 0.599878 0.8109968
vt 0.599878 0.8485777
vt 0.5601221 0.8485777
vt 0.08012207 0.8866469
vt 0.1198779 0.8866469
vt 0.1198779 0.9242278
vt 0.08012207 0.9242278
vt 0.04012207 0.8866469
vt 0.07987793 0.8866469
vt 0.07987793 0.9242278
vt 0.04012207 0.9242278
vt 0.0001220703 0.8866469
vt 0.03987793 0.8866469
vt 0.03987793 0.9242278
vt 0.0001220703 0.9242278
vt 0.7201221 0.924472
vt 0.7598779 0.924472
vt 0.7598779 0.9620529
vt 0.7201221 0.9620529
vt 0.6801221 0.924472
vt 0.719878 0.924472
vt 0.719878 0.9620529
vt 0.6801221 0.9620529
vt 0.6401221 0.924472
vt 0.6798779 0.924472
vt 0.6798779 0.9620529
vt 0.6401221 0.9620529
vt 0.6001221 0.7731717
vt 0.6398779 0.7731717
vt 0.6398779 0.8107526
vt 0.6001221 0.8107526
vt 0.5601221 0.7731717
vt 0.599878 0.7731717
vt 0.599878 0.8107526
vt 0.5601221 0.8107526
vt 0.7201221 0.8866469
vt 0.7598779 0.8866469
vt 0.7598779 0.9242278
vt 0.7201221 0.9242278
vt 0.1601221 0.8109968
vt 0.1998779 0.8109968
vt 0.1998779 0.8485777
vt 0.1601221 0.8485777
vt 0.1201221 0.8109968
vt 0.1598779 0.8109968
vt 0.1598779 0.8485777
vt 0.1201221 0.8485777
vt 0.6401221 0.8866469
vt 0.6798779 0.8866469
vt 0.6798779 0.9242278
vt 0.6401221 0.9242278
vt 0.1601221 0.5462214
vt 0.1998779 0.5462214
vt 0.1998779 0.5838023
vt 0.1601221 0.5838023
vt 0.7201221 0.8488218
vt 0.7598779 0.8488218
vt 0.7598779 0.8864027
vt 0.7201221 0.8864027
vt 0.1601221 0.7731717
vt 0.1998779 0.7731717
vt 0.1998779 0.8107526
vt 0.1601221 0.8107526
vt 0.1201221 0.7731717
vt 0.1598779 0.7731717
vt 0.1598779 0.8107526
vt 0.1201221 0.8107526
vt 0.6401221 0.8488218
vt 0.6798779 0.8488218
vt 0.6798779 0.8864027
vt 0.6401221 0.8864027
vt 0.1601221 0.5083963
vt 0.1998779 0.5083963
vt 0.1998779 0.5459772
vt 0.1601221 0.5459772
vt 0.4401221 0.962297
vt 0.4798779 0.962297
vt 0.4798779 0.9998779
vt 0.4401221 0.9998779
vt 0.3601221 0.7353467
vt 0.3998779 0.7353467
vt 0.3998779 0.7729276
vt 0.3601221 0.7729276
vt 0.3201221 0.7353467
vt 0.3598779 0.7353467
vt 0.3598779 0.7729276
vt 0.3201221 0.7729276
vt 0.2801221 0.7353467
vt 0.3198779 0.7353467
vt 0.3198779 0.7729276
vt 0.2801221 0.7729276
vt 0.4401221 0.924472
vt 0.4798779 0.924472
vt 0.4798779 0.9620529
vt 0.4401221 0.9620529
vt 0.3601221 0.6975216
vt 0.3998779 0.6975216
vt 0.3998779 0.7351025
vt 0.3601221 0.7351025
vt 0.3201221 0.6975216
vt 0.3598779 0.6975216
vt 0.3598779 0.7351025
vt 0.3201221 0.7351025
vt 0.2801221 0.6975216
vt 0.3198779 0.6975216
vt 0.3198779 0.7351025
vt 0.2801221 0.7351025
vt 0.2401221 0.5462214
vt 0.2798779 0.5462214
vt 0.2798779 0.5838023
vt 0.2401221 0.5838023
vt 0.3201221 0.5840464
vt 0.3598779 0.5840464
vt 0.3598779 0.6216273
vt 0.3201221 0.6216273
vt 0.4801221 0.8866469
vt 0.5198779 0.8866469
vt 0.5198779 0.9242278
vt 0.4801221 0.9242278
vt 0.4401221 0.8866469
vt 0.4798779 0.8866469
vt 0.4798779 0.9242278
vt 0.4401221 0.9242278
vt 0.4001221 0.8866469
vt 0.4398779 0.8866469
vt 0.4398779 0.9242278
vt 0.4001221 0.9242278
vt 0.3201221 0.5462214
vt 0.3598779 0.5462214
vt 0.3598779 0.5838023
vt 0.3201221 0.5838023
vt 0.4801221 0.8109968
vt 0.5198779 0.8109968
vt 0.5198779 0.8485777
vt 0.4801221 0.8485777
vt 0.4401221 0.8109968
vt 0.4798779 0.8109968
vt 0.4798779 0.8485777
vt 0.4401221 0.8485777
vt 0.4001221 0.8109968
vt 0.4398779 0.8109968
vt 0.4398779 0.8485777
vt 0.4001221 0.8485777
vt 0.5601221 0.1301457
vt 0.599878 0.1301457
vt 0.599878 0.1677266
vt 0.5601221 0.1677266
vt 0.5201221 0.1301457
vt 0.5598779 0.1301457
vt 0.5598779 0.1677266
vt 0.5201221 0.1677266
vt 0.4801221 0.1301457
vt 0.5198779 0.1301457
vt 0.5198779 0.1677266
vt 0.4801221 0.1677266
vt 0.5601221 0.05449557
vt 0.599878 0.05449557
vt 0.599878 0.09207654
vt 0.5601221 0.09207654
vt 0.5201221 0.05449557
vt 0.5598779 0.05449557
vt 0.5598779 0.09207654
vt 0.5201221 0.09207654
vt 0.4801221 0.05449557
vt 0.5198779 0.05449557
vt 0.5198779 0.09207654
vt 0.4801221 0.09207654
vt 0.6398779 0.5838023
vt 0.6001221 0.5838023
vt 0.6001221 0.5462214
vt 0.6398779 0.5462214
vt 0.6798779 0.5838023
vt 0.6401221 0.5838023
vt 0.6401221 0.5462214
vt 0.6798779 0.5462214
vt 0.719878 0.5838023
vt 0.6801221 0.5838023
vt 0.6801221 0.5462214
vt 0.719878 0.5462214
vt 0.6001221 0.432502
vt 0.6001221 0.3949211
vt 0.6398779 0.3949211
vt 0.6398779 0.432502
vt 0.6001221 0.4703271
vt 0.6001221 0.4327462
vt 0.6398779 0.4327462
vt 0.6398779 0.4703271
vt 0.6001221 0.5081521
vt 0.6001221 0.4705712
vt 0.6398779 0.4705712
vt 0.6398779 0.5081521
vt 0.6398779 0.6216273
vt 0.6001221 0.6216273
vt 0.6001221 0.5840464
vt 0.6398779 0.5840464
vt 0.6798779 0.6216273
vt 0.6401221 0.6216273
vt 0.6401221 0.5840464
vt 0.6798779 0.5840464
vt 0.719878 0.6216273
vt 0.6801221 0.6216273
vt 0.6801221 0.5840464
vt 0.719878 0.5840464

# Normal
vn 0 0 -1

# Mesh description
g RandomHouse6_mesh_0002

# Faces
f 1/1/1 2/2/1 3/3/1 4/4/1
f 5/5/1 6/6/1 7/7/1 8/8/1
f 9/9/1 10/10/1 11/11/1 12/12/1
f 13/13/1 14/14/1 15/15/1 16/16/1
f 17/17/1 18/18/1 19/19/1 20/20/1
f 21/21/1 22/22/1 23/23/1 24/24/1
f 25/25/1 26/26/1 27/27/1 28/28/1
f 29/29/1 30/30/1 31/31/1 32/32/1
f 33/33/1 34/34/1 35/35/1 36/36/1
f 37/37/1 38/38/1 39/39/1 40/40/1
f 41/41/1 42/42/1 43/43/1 44/44/1
f 45/45/1 46/46/1 47/47/1 48/48/1
f 49/45/1 50/46/1 51/47/1 52/48/1
f 53/49/1 54/50/1 55/51/1 56/52/1
f 57/53/1 58/54/1 59/55/1 60/56/1
f 61/57/1 62/58/1 63/59/1 64/60/1
f 65/61/1 66/62/1 67/63/1 68/64/1
f 69/65/1 70/66/1 71/67/1 72/68/1
f 73/69/1 74/70/1 75/71/1 76/72/1
f 77/37/1 78/38/1 79/39/1 80/40/1
f 81/73/1 82/74/1 83/75/1 84/76/1
f 85/77/1 86/78/1 87/79/1 88/80/1
f 89/77/1 90/78/1 91/79/1 92/80/1
f 93/81/1 94/82/1 95/83/1 96/84/1
f 97/85/1 98/86/1 99/87/1 100/88/1
f 101/89/1 102/90/1 103/91/1 104/92/1
f 105/37/1 106/38/1 107/39/1 108/40/1
f 109/93/1 110/94/1 111/95/1 112/96/1
f 113/97/1 114/98/1 115/99/1 116/100/1
f 117/101/1 118/102/1 119/103/1 120/104/1
f 121/105/1 122/106/1 123/107/1 124/108/1
f 125/109/1 126/110/1 127/111/1 128/112/1
f 129/113/1 130/114/1 131/115/1 132/116/1
f 133/117/1 134/118/1 135/119/1 136/120/1
f 137/121/1 138/122/1 139/123/1 140/124/1
f 141/125/1 142/126/1 143/127/1 144/128/1
f 145/129/1 146/130/1 147/131/1 148/132/1
f 149/133/1 150/134/1 151/135/1 152/136/1
f 153/137/1 154/138/1 155/139/1 156/140/1
f 157/141/1 158/142/1 159/143/1 160/144/1
f 161/145/1 162/146/1 163/147/1 164/148/1
f 165/149/1 166/150/1 167/151/1 168/152/1
f 169/153/1 170/154/1 171/155/1 172/156/1
f 173/157/1 174/158/1 175/159/1 176/160/1
f 177/161/1 178/162/1 179/163/1 180/164/1
f 181/165/1 182/166/1 183/167/1 184/168/1
f 185/149/1 186/150/1 187/151/1 188/152/1
f 189/169/1 190/170/1 191/171/1 192/172/1
f 193/173/1 194/174/1 195/175/1 196/176/1
f 197/177/1 198/178/1 199/179/1 200/180/1
f 201/181/1 202/182/1 203/183/1 204/184/1
f 205/165/1 206/166/1 207/167/1 208/168/1
f 209/185/1 210/186/1 211/187/1 212/188/1
f 213/189/1 214/190/1 215/191/1 216/192/1
f 217/193/1 218/194/1 219/195/1 220/196/1
f 221/197/1 222/198/1 223/199/1 224/200/1
f 225/201/1 226/202/1 227/203/1 228/204/1
f 229/205/1 230/206/1 231/207/1 232/208/1
f 233/209/1 234/210/1 235/211/1 236/212/1
f 237/213/1 238/214/1 239/215/1 240/216/1
f 241/217/1 242/218/1 243/219/1 244/220/1
f 245/221/1 246/222/1 247/223/1 248/224/1
f 249/225/1 250/226/1 251/227/1 252/228/1
f 253/229/1 254/230/1 255/231/1 256/232/1
f 257/233/1 258/234/1 259/235/1 260/236/1
f 261/237/1 262/238/1 263/239/1 264/240/1
f 265/241/1 266/242/1 267/243/1 268/244/1
f 269/245/1 270/246/1 271/247/1 272/248/1
f 273/249/1 274/250/1 275/251/1 276/252/1
f 277/253/1 278/254/1 279/255/1 280/256/1
f 281/257/1 282/258/1 283/259/1 284/260/1

