# Tiled2Unity generated file. Do not modify by hand.
# Wavefront file for 'ChineseCemetery_mesh_0002.obj'

# Vertices (Count = 1020)
v -69 -1 0
v -70 -1 0
v -70 0 0
v -69 0 0
v -68 -1 0
v -69 -1 0
v -69 0 0
v -68 0 0
v -67 -1 0
v -68 -1 0
v -68 0 0
v -67 0 0
v -66 -1 0
v -67 -1 0
v -67 0 0
v -66 0 0
v -65 -1 0
v -66 -1 0
v -66 0 0
v -65 0 0
v -64 -1 0
v -65 -1 0
v -65 0 0
v -64 0 0
v -63 -1 0
v -64 -1 0
v -64 0 0
v -63 0 0
v -62 -1 0
v -63 -1 0
v -63 0 0
v -62 0 0
v -61 -1 0
v -62 -1 0
v -62 0 0
v -61 0 0
v -60 -1 0
v -61 -1 0
v -61 0 0
v -60 0 0
v -59 -1 0
v -60 -1 0
v -60 0 0
v -59 0 0
v -58 -1 0
v -59 -1 0
v -59 0 0
v -58 0 0
v -57 -1 0
v -58 -1 0
v -58 0 0
v -57 0 0
v -56 -1 0
v -57 -1 0
v -57 0 0
v -56 0 0
v -55 -1 0
v -56 -1 0
v -56 0 0
v -55 0 0
v -54 -1 0
v -55 -1 0
v -55 0 0
v -54 0 0
v -53 -1 0
v -54 -1 0
v -54 0 0
v -53 0 0
v -52 -1 0
v -53 -1 0
v -53 0 0
v -52 0 0
v -51 -1 0
v -52 -1 0
v -52 0 0
v -51 0 0
v -50 -1 0
v -51 -1 0
v -51 0 0
v -50 0 0
v -49 -1 0
v -50 -1 0
v -50 0 0
v -49 0 0
v -48 -1 0
v -49 -1 0
v -49 0 0
v -48 0 0
v -47 -1 0
v -48 -1 0
v -48 0 0
v -47 0 0
v -46 -1 0
v -47 -1 0
v -47 0 0
v -46 0 0
v -45 -1 0
v -46 -1 0
v -46 0 0
v -45 0 0
v -44 -1 0
v -45 -1 0
v -45 0 0
v -44 0 0
v -40 -1 0
v -41 -1 0
v -41 0 0
v -40 0 0
v -39 -1 0
v -40 -1 0
v -40 0 0
v -39 0 0
v -38 -1 0
v -39 -1 0
v -39 0 0
v -38 0 0
v -37 -1 0
v -38 -1 0
v -38 0 0
v -37 0 0
v -36 -1 0
v -37 -1 0
v -37 0 0
v -36 0 0
v -35 -1 0
v -36 -1 0
v -36 0 0
v -35 0 0
v -34 -1 0
v -35 -1 0
v -35 0 0
v -34 0 0
v -33 -1 0
v -34 -1 0
v -34 0 0
v -33 0 0
v -32 -1 0
v -33 -1 0
v -33 0 0
v -32 0 0
v -31 -1 0
v -32 -1 0
v -32 0 0
v -31 0 0
v -30 -1 0
v -31 -1 0
v -31 0 0
v -30 0 0
v -29 -1 0
v -30 -1 0
v -30 0 0
v -29 0 0
v -28 -1 0
v -29 -1 0
v -29 0 0
v -28 0 0
v -27 -1 0
v -28 -1 0
v -28 0 0
v -27 0 0
v -26 -1 0
v -27 -1 0
v -27 0 0
v -26 0 0
v -25 -1 0
v -26 -1 0
v -26 0 0
v -25 0 0
v -24 -1 0
v -25 -1 0
v -25 0 0
v -24 0 0
v -23 -1 0
v -24 -1 0
v -24 0 0
v -23 0 0
v -22 -1 0
v -23 -1 0
v -23 0 0
v -22 0 0
v -21 -1 0
v -22 -1 0
v -22 0 0
v -21 0 0
v -20 -1 0
v -21 -1 0
v -21 0 0
v -20 0 0
v -19 -1 0
v -20 -1 0
v -20 0 0
v -19 0 0
v -18 -1 0
v -19 -1 0
v -19 0 0
v -18 0 0
v -17 -1 0
v -18 -1 0
v -18 0 0
v -17 0 0
v -16 -1 0
v -17 -1 0
v -17 0 0
v -16 0 0
v -15 -1 0
v -16 -1 0
v -16 0 0
v -15 0 0
v -14 -1 0
v -15 -1 0
v -15 0 0
v -14 0 0
v -13 -1 0
v -14 -1 0
v -14 0 0
v -13 0 0
v -12 -1 0
v -13 -1 0
v -13 0 0
v -12 0 0
v -11 -1 0
v -12 -1 0
v -12 0 0
v -11 0 0
v -10 -1 0
v -11 -1 0
v -11 0 0
v -10 0 0
v -9 -1 0
v -10 -1 0
v -10 0 0
v -9 0 0
v -8 -1 0
v -9 -1 0
v -9 0 0
v -8 0 0
v -7 -1 0
v -8 -1 0
v -8 0 0
v -7 0 0
v -6 -1 0
v -7 -1 0
v -7 0 0
v -6 0 0
v -5 -1 0
v -6 -1 0
v -6 0 0
v -5 0 0
v -4 -1 0
v -5 -1 0
v -5 0 0
v -4 0 0
v -3 -1 0
v -4 -1 0
v -4 0 0
v -3 0 0
v -2 -1 0
v -3 -1 0
v -3 0 0
v -2 0 0
v -1 -1 0
v -2 -1 0
v -2 0 0
v -1 0 0
v 0 -1 0
v -1 -1 0
v -1 0 0
v 0 0 0
v -69 -2 0
v -70 -2 0
v -70 -1 0
v -69 -1 0
v -31 -2 0
v -32 -2 0
v -32 -1 0
v -31 -1 0
v -30 -2 0
v -31 -2 0
v -31 -1 0
v -30 -1 0
v -29 -2 0
v -30 -2 0
v -30 -1 0
v -29 -1 0
v 0 -2 0
v -1 -2 0
v -1 -1 0
v 0 -1 0
v -69 -3 0
v -70 -3 0
v -70 -2 0
v -69 -2 0
v -32 -3 0
v -33 -3 0
v -33 -2 0
v -32 -2 0
v -31 -3 0
v -32 -3 0
v -32 -2 0
v -31 -2 0
v -30 -3 0
v -31 -3 0
v -31 -2 0
v -30 -2 0
v -29 -3 0
v -30 -3 0
v -30 -2 0
v -29 -2 0
v 0 -3 0
v -1 -3 0
v -1 -2 0
v 0 -2 0
v -69 -4 0
v -70 -4 0
v -70 -3 0
v -69 -3 0
v -33 -4 0
v -34 -4 0
v -34 -3 0
v -33 -3 0
v -32 -4 0
v -33 -4 0
v -33 -3 0
v -32 -3 0
v -31 -4 0
v -32 -4 0
v -32 -3 0
v -31 -3 0
v -30 -4 0
v -31 -4 0
v -31 -3 0
v -30 -3 0
v -29 -4 0
v -30 -4 0
v -30 -3 0
v -29 -3 0
v 0 -4 0
v -1 -4 0
v -1 -3 0
v 0 -3 0
v -69 -5 0
v -70 -5 0
v -70 -4 0
v -69 -4 0
v -33 -5 0
v -34 -5 0
v -34 -4 0
v -33 -4 0
v -32 -5 0
v -33 -5 0
v -33 -4 0
v -32 -4 0
v -31 -5 0
v -32 -5 0
v -32 -4 0
v -31 -4 0
v -30 -5 0
v -31 -5 0
v -31 -4 0
v -30 -4 0
v 0 -5 0
v -1 -5 0
v -1 -4 0
v 0 -4 0
v -69 -6 0
v -70 -6 0
v -70 -5 0
v -69 -5 0
v -32 -6 0
v -33 -6 0
v -33 -5 0
v -32 -5 0
v -31 -6 0
v -32 -6 0
v -32 -5 0
v -31 -5 0
v 0 -6 0
v -1 -6 0
v -1 -5 0
v 0 -5 0
v -69 -7 0
v -70 -7 0
v -70 -6 0
v -69 -6 0
v -32 -7 0
v -33 -7 0
v -33 -6 0
v -32 -6 0
v 0 -7 0
v -1 -7 0
v -1 -6 0
v 0 -6 0
v -69 -8 0
v -70 -8 0
v -70 -7 0
v -69 -7 0
v 0 -8 0
v -1 -8 0
v -1 -7 0
v 0 -7 0
v -69 -9 0
v -70 -9 0
v -70 -8 0
v -69 -8 0
v 0 -9 0
v -1 -9 0
v -1 -8 0
v 0 -8 0
v -69 -10 0
v -70 -10 0
v -70 -9 0
v -69 -9 0
v 0 -10 0
v -1 -10 0
v -1 -9 0
v 0 -9 0
v -69 -11 0
v -70 -11 0
v -70 -10 0
v -69 -10 0
v 0 -11 0
v -1 -11 0
v -1 -10 0
v 0 -10 0
v -69 -12 0
v -70 -12 0
v -70 -11 0
v -69 -11 0
v 0 -12 0
v -1 -12 0
v -1 -11 0
v 0 -11 0
v 0 -13 0
v -1 -13 0
v -1 -12 0
v 0 -12 0
v 0 -14 0
v -1 -14 0
v -1 -13 0
v 0 -13 0
v -69 -15 0
v -70 -15 0
v -70 -14 0
v -69 -14 0
v 0 -15 0
v -1 -15 0
v -1 -14 0
v 0 -14 0
v -69 -16 0
v -70 -16 0
v -70 -15 0
v -69 -15 0
v 0 -16 0
v -1 -16 0
v -1 -15 0
v 0 -15 0
v -69 -17 0
v -70 -17 0
v -70 -16 0
v -69 -16 0
v 0 -17 0
v -1 -17 0
v -1 -16 0
v 0 -16 0
v -69 -18 0
v -70 -18 0
v -70 -17 0
v -69 -17 0
v 0 -18 0
v -1 -18 0
v -1 -17 0
v 0 -17 0
v -69 -19 0
v -70 -19 0
v -70 -18 0
v -69 -18 0
v 0 -19 0
v -1 -19 0
v -1 -18 0
v 0 -18 0
v -69 -20 0
v -70 -20 0
v -70 -19 0
v -69 -19 0
v 0 -20 0
v -1 -20 0
v -1 -19 0
v 0 -19 0
v -69 -21 0
v -70 -21 0
v -70 -20 0
v -69 -20 0
v -69 -22 0
v -70 -22 0
v -70 -21 0
v -69 -21 0
v -69 -23 0
v -70 -23 0
v -70 -22 0
v -69 -22 0
v -69 -24 0
v -70 -24 0
v -70 -23 0
v -69 -23 0
v 0 -24 0
v -1 -24 0
v -1 -23 0
v 0 -23 0
v -69 -25 0
v -70 -25 0
v -70 -24 0
v -69 -24 0
v 0 -25 0
v -1 -25 0
v -1 -24 0
v 0 -24 0
v -69 -26 0
v -70 -26 0
v -70 -25 0
v -69 -25 0
v -69 -27 0
v -70 -27 0
v -70 -26 0
v -69 -26 0
v -69 -28 0
v -70 -28 0
v -70 -27 0
v -69 -27 0
v 0 -28 0
v -1 -28 0
v -1 -27 0
v 0 -27 0
v -69 -29 0
v -70 -29 0
v -70 -28 0
v -69 -28 0
v 0 -29 0
v -1 -29 0
v -1 -28 0
v 0 -28 0
v -69 -30 0
v -70 -30 0
v -70 -29 0
v -69 -29 0
v 0 -30 0
v -1 -30 0
v -1 -29 0
v 0 -29 0
v -69 -31 0
v -70 -31 0
v -70 -30 0
v -69 -30 0
v 0 -31 0
v -1 -31 0
v -1 -30 0
v 0 -30 0
v -69 -32 0
v -70 -32 0
v -70 -31 0
v -69 -31 0
v 0 -32 0
v -1 -32 0
v -1 -31 0
v 0 -31 0
v -69 -33 0
v -70 -33 0
v -70 -32 0
v -69 -32 0
v 0 -33 0
v -1 -33 0
v -1 -32 0
v 0 -32 0
v -69 -34 0
v -70 -34 0
v -70 -33 0
v -69 -33 0
v 0 -34 0
v -1 -34 0
v -1 -33 0
v 0 -33 0
v -69 -35 0
v -70 -35 0
v -70 -34 0
v -69 -34 0
v 0 -35 0
v -1 -35 0
v -1 -34 0
v 0 -34 0
v -69 -36 0
v -70 -36 0
v -70 -35 0
v -69 -35 0
v 0 -36 0
v -1 -36 0
v -1 -35 0
v 0 -35 0
v -69 -37 0
v -70 -37 0
v -70 -36 0
v -69 -36 0
v 0 -37 0
v -1 -37 0
v -1 -36 0
v 0 -36 0
v -69 -38 0
v -70 -38 0
v -70 -37 0
v -69 -37 0
v 0 -38 0
v -1 -38 0
v -1 -37 0
v 0 -37 0
v -69 -39 0
v -70 -39 0
v -70 -38 0
v -69 -38 0
v 0 -39 0
v -1 -39 0
v -1 -38 0
v 0 -38 0
v -69 -40 0
v -70 -40 0
v -70 -39 0
v -69 -39 0
v 0 -40 0
v -1 -40 0
v -1 -39 0
v 0 -39 0
v -69 -41 0
v -70 -41 0
v -70 -40 0
v -69 -40 0
v -69 -42 0
v -70 -42 0
v -70 -41 0
v -69 -41 0
v -69 -43 0
v -70 -43 0
v -70 -42 0
v -69 -42 0
v -69 -44 0
v -70 -44 0
v -70 -43 0
v -69 -43 0
v -69 -45 0
v -70 -45 0
v -70 -44 0
v -69 -44 0
v 0 -45 0
v -1 -45 0
v -1 -44 0
v 0 -44 0
v -69 -46 0
v -70 -46 0
v -70 -45 0
v -69 -45 0
v 0 -46 0
v -1 -46 0
v -1 -45 0
v 0 -45 0
v -69 -47 0
v -70 -47 0
v -70 -46 0
v -69 -46 0
v 0 -47 0
v -1 -47 0
v -1 -46 0
v 0 -46 0
v -69 -48 0
v -70 -48 0
v -70 -47 0
v -69 -47 0
v 0 -48 0
v -1 -48 0
v -1 -47 0
v 0 -47 0
v 0 -49 0
v -1 -49 0
v -1 -48 0
v 0 -48 0
v 0 -50 0
v -1 -50 0
v -1 -49 0
v 0 -49 0
v -69 -52 0
v -70 -52 0
v -70 -51 0
v -69 -51 0
v -69 -53 0
v -70 -53 0
v -70 -52 0
v -69 -52 0
v -69 -54 0
v -70 -54 0
v -70 -53 0
v -69 -53 0
v 0 -54 0
v -1 -54 0
v -1 -53 0
v 0 -53 0
v -69 -55 0
v -70 -55 0
v -70 -54 0
v -69 -54 0
v 0 -55 0
v -1 -55 0
v -1 -54 0
v 0 -54 0
v -69 -56 0
v -70 -56 0
v -70 -55 0
v -69 -55 0
v 0 -56 0
v -1 -56 0
v -1 -55 0
v 0 -55 0
v -69 -57 0
v -70 -57 0
v -70 -56 0
v -69 -56 0
v 0 -57 0
v -1 -57 0
v -1 -56 0
v 0 -56 0
v -69 -58 0
v -70 -58 0
v -70 -57 0
v -69 -57 0
v 0 -58 0
v -1 -58 0
v -1 -57 0
v 0 -57 0
v -69 -59 0
v -70 -59 0
v -70 -58 0
v -69 -58 0
v 0 -59 0
v -1 -59 0
v -1 -58 0
v 0 -58 0
v -69 -60 0
v -70 -60 0
v -70 -59 0
v -69 -59 0
v -68 -60 0
v -69 -60 0
v -69 -59 0
v -68 -59 0
v -67 -60 0
v -68 -60 0
v -68 -59 0
v -67 -59 0
v -66 -60 0
v -67 -60 0
v -67 -59 0
v -66 -59 0
v -65 -60 0
v -66 -60 0
v -66 -59 0
v -65 -59 0
v -64 -60 0
v -65 -60 0
v -65 -59 0
v -64 -59 0
v -63 -60 0
v -64 -60 0
v -64 -59 0
v -63 -59 0
v -62 -60 0
v -63 -60 0
v -63 -59 0
v -62 -59 0
v -61 -60 0
v -62 -60 0
v -62 -59 0
v -61 -59 0
v -60 -60 0
v -61 -60 0
v -61 -59 0
v -60 -59 0
v -59 -60 0
v -60 -60 0
v -60 -59 0
v -59 -59 0
v -58 -60 0
v -59 -60 0
v -59 -59 0
v -58 -59 0
v -57 -60 0
v -58 -60 0
v -58 -59 0
v -57 -59 0
v -56 -60 0
v -57 -60 0
v -57 -59 0
v -56 -59 0
v -55 -60 0
v -56 -60 0
v -56 -59 0
v -55 -59 0
v -54 -60 0
v -55 -60 0
v -55 -59 0
v -54 -59 0
v -53 -60 0
v -54 -60 0
v -54 -59 0
v -53 -59 0
v -52 -60 0
v -53 -60 0
v -53 -59 0
v -52 -59 0
v -51 -60 0
v -52 -60 0
v -52 -59 0
v -51 -59 0
v -50 -60 0
v -51 -60 0
v -51 -59 0
v -50 -59 0
v -49 -60 0
v -50 -60 0
v -50 -59 0
v -49 -59 0
v -48 -60 0
v -49 -60 0
v -49 -59 0
v -48 -59 0
v -47 -60 0
v -48 -60 0
v -48 -59 0
v -47 -59 0
v -46 -60 0
v -47 -60 0
v -47 -59 0
v -46 -59 0
v -45 -60 0
v -46 -60 0
v -46 -59 0
v -45 -59 0
v -44 -60 0
v -45 -60 0
v -45 -59 0
v -44 -59 0
v -43 -60 0
v -44 -60 0
v -44 -59 0
v -43 -59 0
v -42 -60 0
v -43 -60 0
v -43 -59 0
v -42 -59 0
v -41 -60 0
v -42 -60 0
v -42 -59 0
v -41 -59 0
v -40 -60 0
v -41 -60 0
v -41 -59 0
v -40 -59 0
v -39 -60 0
v -40 -60 0
v -40 -59 0
v -39 -59 0
v -38 -60 0
v -39 -60 0
v -39 -59 0
v -38 -59 0
v -37 -60 0
v -38 -60 0
v -38 -59 0
v -37 -59 0
v -36 -60 0
v -37 -60 0
v -37 -59 0
v -36 -59 0
v -35 -60 0
v -36 -60 0
v -36 -59 0
v -35 -59 0
v -34 -60 0
v -35 -60 0
v -35 -59 0
v -34 -59 0
v -33 -60 0
v -34 -60 0
v -34 -59 0
v -33 -59 0
v -32 -60 0
v -33 -60 0
v -33 -59 0
v -32 -59 0
v -31 -60 0
v -32 -60 0
v -32 -59 0
v -31 -59 0
v -30 -60 0
v -31 -60 0
v -31 -59 0
v -30 -59 0
v -29 -60 0
v -30 -60 0
v -30 -59 0
v -29 -59 0
v -28 -60 0
v -29 -60 0
v -29 -59 0
v -28 -59 0
v -27 -60 0
v -28 -60 0
v -28 -59 0
v -27 -59 0
v -26 -60 0
v -27 -60 0
v -27 -59 0
v -26 -59 0
v -25 -60 0
v -26 -60 0
v -26 -59 0
v -25 -59 0
v -24 -60 0
v -25 -60 0
v -25 -59 0
v -24 -59 0
v -23 -60 0
v -24 -60 0
v -24 -59 0
v -23 -59 0
v -22 -60 0
v -23 -60 0
v -23 -59 0
v -22 -59 0
v -21 -60 0
v -22 -60 0
v -22 -59 0
v -21 -59 0
v -20 -60 0
v -21 -60 0
v -21 -59 0
v -20 -59 0
v -19 -60 0
v -20 -60 0
v -20 -59 0
v -19 -59 0
v -18 -60 0
v -19 -60 0
v -19 -59 0
v -18 -59 0
v -17 -60 0
v -18 -60 0
v -18 -59 0
v -17 -59 0
v -16 -60 0
v -17 -60 0
v -17 -59 0
v -16 -59 0
v -15 -60 0
v -16 -60 0
v -16 -59 0
v -15 -59 0
v -14 -60 0
v -15 -60 0
v -15 -59 0
v -14 -59 0
v -13 -60 0
v -14 -60 0
v -14 -59 0
v -13 -59 0
v -12 -60 0
v -13 -60 0
v -13 -59 0
v -12 -59 0
v -11 -60 0
v -12 -60 0
v -12 -59 0
v -11 -59 0
v -10 -60 0
v -11 -60 0
v -11 -59 0
v -10 -59 0
v -9 -60 0
v -10 -60 0
v -10 -59 0
v -9 -59 0
v -8 -60 0
v -9 -60 0
v -9 -59 0
v -8 -59 0
v -7 -60 0
v -8 -60 0
v -8 -59 0
v -7 -59 0
v -6 -60 0
v -7 -60 0
v -7 -59 0
v -6 -59 0
v -5 -60 0
v -6 -60 0
v -6 -59 0
v -5 -59 0
v -4 -60 0
v -5 -60 0
v -5 -59 0
v -4 -59 0
v -3 -60 0
v -4 -60 0
v -4 -59 0
v -3 -59 0
v -2 -60 0
v -3 -60 0
v -3 -59 0
v -2 -59 0
v -1 -60 0
v -2 -60 0
v -2 -59 0
v -1 -59 0
v 0 -60 0
v -1 -60 0
v -1 -59 0
v 0 -59 0

# Texture cooridinates (Count = 24)
vt 0.2081845 0.139011
vt 0.2287466 0.139011
vt 0.2287466 0.1665446
vt 0.2081845 0.1665446
vt 0.166572 0.139011
vt 0.1871341 0.139011
vt 0.1871341 0.1665446
vt 0.166572 0.1665446
vt 0.1873782 0.139011
vt 0.2079404 0.139011
vt 0.2079404 0.1665446
vt 0.1873782 0.1665446
vt 0.1457658 0.139011
vt 0.1663279 0.139011
vt 0.1663279 0.1665446
vt 0.1457658 0.1665446
vt 0.6659218 0.3334554
vt 0.6864839 0.3334554
vt 0.6864839 0.360989
vt 0.6659218 0.360989
vt 0.1457658 0.1112332
vt 0.1663279 0.1112332
vt 0.1663279 0.1387668
vt 0.1457658 0.1387668

# Normal
vn 0 0 -1

# Mesh description
g ChineseCemetery_mesh_0002

# Faces
f 1/1/1 2/2/1 3/3/1 4/4/1
f 5/5/1 6/6/1 7/7/1 8/8/1
f 9/5/1 10/6/1 11/7/1 12/8/1
f 13/5/1 14/6/1 15/7/1 16/8/1
f 17/5/1 18/6/1 19/7/1 20/8/1
f 21/1/1 22/2/1 23/3/1 24/4/1
f 25/1/1 26/2/1 27/3/1 28/4/1
f 29/9/1 30/10/1 31/11/1 32/12/1
f 33/1/1 34/2/1 35/3/1 36/4/1
f 37/5/1 38/6/1 39/7/1 40/8/1
f 41/9/1 42/10/1 43/11/1 44/12/1
f 45/5/1 46/6/1 47/7/1 48/8/1
f 49/5/1 50/6/1 51/7/1 52/8/1
f 53/9/1 54/10/1 55/11/1 56/12/1
f 57/1/1 58/2/1 59/3/1 60/4/1
f 61/5/1 62/6/1 63/7/1 64/8/1
f 65/5/1 66/6/1 67/7/1 68/8/1
f 69/9/1 70/10/1 71/11/1 72/12/1
f 73/5/1 74/6/1 75/7/1 76/8/1
f 77/5/1 78/6/1 79/7/1 80/8/1
f 81/5/1 82/6/1 83/7/1 84/8/1
f 85/5/1 86/6/1 87/7/1 88/8/1
f 89/5/1 90/6/1 91/7/1 92/8/1
f 93/5/1 94/6/1 95/7/1 96/8/1
f 97/5/1 98/6/1 99/7/1 100/8/1
f 101/9/1 102/10/1 103/11/1 104/12/1
f 105/1/1 106/2/1 107/3/1 108/4/1
f 109/5/1 110/6/1 111/7/1 112/8/1
f 113/5/1 114/6/1 115/7/1 116/8/1
f 117/5/1 118/6/1 119/7/1 120/8/1
f 121/9/1 122/10/1 123/11/1 124/12/1
f 125/1/1 126/2/1 127/3/1 128/4/1
f 129/5/1 130/6/1 131/7/1 132/8/1
f 133/5/1 134/6/1 135/7/1 136/8/1
f 137/5/1 138/6/1 139/7/1 140/8/1
f 141/5/1 142/6/1 143/7/1 144/8/1
f 145/5/1 146/6/1 147/7/1 148/8/1
f 149/9/1 150/10/1 151/11/1 152/12/1
f 153/1/1 154/2/1 155/3/1 156/4/1
f 157/5/1 158/6/1 159/7/1 160/8/1
f 161/5/1 162/6/1 163/7/1 164/8/1
f 165/5/1 166/6/1 167/7/1 168/8/1
f 169/5/1 170/6/1 171/7/1 172/8/1
f 173/5/1 174/6/1 175/7/1 176/8/1
f 177/5/1 178/6/1 179/7/1 180/8/1
f 181/9/1 182/10/1 183/11/1 184/12/1
f 185/1/1 186/2/1 187/3/1 188/4/1
f 189/5/1 190/6/1 191/7/1 192/8/1
f 193/5/1 194/6/1 195/7/1 196/8/1
f 197/5/1 198/6/1 199/7/1 200/8/1
f 201/5/1 202/6/1 203/7/1 204/8/1
f 205/5/1 206/6/1 207/7/1 208/8/1
f 209/5/1 210/6/1 211/7/1 212/8/1
f 213/5/1 214/6/1 215/7/1 216/8/1
f 217/5/1 218/6/1 219/7/1 220/8/1
f 221/9/1 222/10/1 223/11/1 224/12/1
f 225/1/1 226/2/1 227/3/1 228/4/1
f 229/5/1 230/6/1 231/7/1 232/8/1
f 233/5/1 234/6/1 235/7/1 236/8/1
f 237/5/1 238/6/1 239/7/1 240/8/1
f 241/5/1 242/6/1 243/7/1 244/8/1
f 245/5/1 246/6/1 247/7/1 248/8/1
f 249/5/1 250/6/1 251/7/1 252/8/1
f 253/5/1 254/6/1 255/7/1 256/8/1
f 257/5/1 258/6/1 259/7/1 260/8/1
f 261/5/1 262/6/1 263/7/1 264/8/1
f 265/9/1 266/10/1 267/11/1 268/12/1
f 269/13/1 270/14/1 271/15/1 272/16/1
f 273/17/1 274/18/1 275/19/1 276/20/1
f 277/17/1 278/18/1 279/19/1 280/20/1
f 281/17/1 282/18/1 283/19/1 284/20/1
f 285/21/1 286/22/1 287/23/1 288/24/1
f 289/13/1 290/14/1 291/15/1 292/16/1
f 293/17/1 294/18/1 295/19/1 296/20/1
f 297/17/1 298/18/1 299/19/1 300/20/1
f 301/17/1 302/18/1 303/19/1 304/20/1
f 305/17/1 306/18/1 307/19/1 308/20/1
f 309/21/1 310/22/1 311/23/1 312/24/1
f 313/13/1 314/14/1 315/15/1 316/16/1
f 317/17/1 318/18/1 319/19/1 320/20/1
f 321/17/1 322/18/1 323/19/1 324/20/1
f 325/17/1 326/18/1 327/19/1 328/20/1
f 329/17/1 330/18/1 331/19/1 332/20/1
f 333/17/1 334/18/1 335/19/1 336/20/1
f 337/21/1 338/22/1 339/23/1 340/24/1
f 341/13/1 342/14/1 343/15/1 344/16/1
f 345/17/1 346/18/1 347/19/1 348/20/1
f 349/17/1 350/18/1 351/19/1 352/20/1
f 353/17/1 354/18/1 355/19/1 356/20/1
f 357/17/1 358/18/1 359/19/1 360/20/1
f 361/21/1 362/22/1 363/23/1 364/24/1
f 365/13/1 366/14/1 367/15/1 368/16/1
f 369/17/1 370/18/1 371/19/1 372/20/1
f 373/17/1 374/18/1 375/19/1 376/20/1
f 377/21/1 378/22/1 379/23/1 380/24/1
f 381/13/1 382/14/1 383/15/1 384/16/1
f 385/17/1 386/18/1 387/19/1 388/20/1
f 389/21/1 390/22/1 391/23/1 392/24/1
f 393/13/1 394/14/1 395/15/1 396/16/1
f 397/21/1 398/22/1 399/23/1 400/24/1
f 401/13/1 402/14/1 403/15/1 404/16/1
f 405/21/1 406/22/1 407/23/1 408/24/1
f 409/13/1 410/14/1 411/15/1 412/16/1
f 413/21/1 414/22/1 415/23/1 416/24/1
f 417/13/1 418/14/1 419/15/1 420/16/1
f 421/21/1 422/22/1 423/23/1 424/24/1
f 425/13/1 426/14/1 427/15/1 428/16/1
f 429/21/1 430/22/1 431/23/1 432/24/1
f 433/21/1 434/22/1 435/23/1 436/24/1
f 437/21/1 438/22/1 439/23/1 440/24/1
f 441/13/1 442/14/1 443/15/1 444/16/1
f 445/21/1 446/22/1 447/23/1 448/24/1
f 449/13/1 450/14/1 451/15/1 452/16/1
f 453/21/1 454/22/1 455/23/1 456/24/1
f 457/13/1 458/14/1 459/15/1 460/16/1
f 461/21/1 462/22/1 463/23/1 464/24/1
f 465/13/1 466/14/1 467/15/1 468/16/1
f 469/21/1 470/22/1 471/23/1 472/24/1
f 473/13/1 474/14/1 475/15/1 476/16/1
f 477/21/1 478/22/1 479/23/1 480/24/1
f 481/13/1 482/14/1 483/15/1 484/16/1
f 485/21/1 486/22/1 487/23/1 488/24/1
f 489/13/1 490/14/1 491/15/1 492/16/1
f 493/13/1 494/14/1 495/15/1 496/16/1
f 497/13/1 498/14/1 499/15/1 500/16/1
f 501/13/1 502/14/1 503/15/1 504/16/1
f 505/21/1 506/22/1 507/23/1 508/24/1
f 509/13/1 510/14/1 511/15/1 512/16/1
f 513/21/1 514/22/1 515/23/1 516/24/1
f 517/13/1 518/14/1 519/15/1 520/16/1
f 521/13/1 522/14/1 523/15/1 524/16/1
f 525/13/1 526/14/1 527/15/1 528/16/1
f 529/21/1 530/22/1 531/23/1 532/24/1
f 533/13/1 534/14/1 535/15/1 536/16/1
f 537/21/1 538/22/1 539/23/1 540/24/1
f 541/13/1 542/14/1 543/15/1 544/16/1
f 545/21/1 546/22/1 547/23/1 548/24/1
f 549/13/1 550/14/1 551/15/1 552/16/1
f 553/21/1 554/22/1 555/23/1 556/24/1
f 557/13/1 558/14/1 559/15/1 560/16/1
f 561/21/1 562/22/1 563/23/1 564/24/1
f 565/13/1 566/14/1 567/15/1 568/16/1
f 569/21/1 570/22/1 571/23/1 572/24/1
f 573/13/1 574/14/1 575/15/1 576/16/1
f 577/21/1 578/22/1 579/23/1 580/24/1
f 581/13/1 582/14/1 583/15/1 584/16/1
f 585/21/1 586/22/1 587/23/1 588/24/1
f 589/13/1 590/14/1 591/15/1 592/16/1
f 593/21/1 594/22/1 595/23/1 596/24/1
f 597/13/1 598/14/1 599/15/1 600/16/1
f 601/21/1 602/22/1 603/23/1 604/24/1
f 605/13/1 606/14/1 607/15/1 608/16/1
f 609/21/1 610/22/1 611/23/1 612/24/1
f 613/13/1 614/14/1 615/15/1 616/16/1
f 617/21/1 618/22/1 619/23/1 620/24/1
f 621/13/1 622/14/1 623/15/1 624/16/1
f 625/21/1 626/22/1 627/23/1 628/24/1
f 629/13/1 630/14/1 631/15/1 632/16/1
f 633/13/1 634/14/1 635/15/1 636/16/1
f 637/13/1 638/14/1 639/15/1 640/16/1
f 641/13/1 642/14/1 643/15/1 644/16/1
f 645/13/1 646/14/1 647/15/1 648/16/1
f 649/21/1 650/22/1 651/23/1 652/24/1
f 653/13/1 654/14/1 655/15/1 656/16/1
f 657/21/1 658/22/1 659/23/1 660/24/1
f 661/13/1 662/14/1 663/15/1 664/16/1
f 665/21/1 666/22/1 667/23/1 668/24/1
f 669/13/1 670/14/1 671/15/1 672/16/1
f 673/21/1 674/22/1 675/23/1 676/24/1
f 677/21/1 678/22/1 679/23/1 680/24/1
f 681/21/1 682/22/1 683/23/1 684/24/1
f 685/13/1 686/14/1 687/15/1 688/16/1
f 689/13/1 690/14/1 691/15/1 692/16/1
f 693/13/1 694/14/1 695/15/1 696/16/1
f 697/21/1 698/22/1 699/23/1 700/24/1
f 701/13/1 702/14/1 703/15/1 704/16/1
f 705/21/1 706/22/1 707/23/1 708/24/1
f 709/13/1 710/14/1 711/15/1 712/16/1
f 713/21/1 714/22/1 715/23/1 716/24/1
f 717/13/1 718/14/1 719/15/1 720/16/1
f 721/21/1 722/22/1 723/23/1 724/24/1
f 725/13/1 726/14/1 727/15/1 728/16/1
f 729/21/1 730/22/1 731/23/1 732/24/1
f 733/13/1 734/14/1 735/15/1 736/16/1
f 737/21/1 738/22/1 739/23/1 740/24/1
f 741/1/1 742/2/1 743/3/1 744/4/1
f 745/5/1 746/6/1 747/7/1 748/8/1
f 749/9/1 750/10/1 751/11/1 752/12/1
f 753/1/1 754/2/1 755/3/1 756/4/1
f 757/5/1 758/6/1 759/7/1 760/8/1
f 761/5/1 762/6/1 763/7/1 764/8/1
f 765/5/1 766/6/1 767/7/1 768/8/1
f 769/5/1 770/6/1 771/7/1 772/8/1
f 773/5/1 774/6/1 775/7/1 776/8/1
f 777/5/1 778/6/1 779/7/1 780/8/1
f 781/5/1 782/6/1 783/7/1 784/8/1
f 785/5/1 786/6/1 787/7/1 788/8/1
f 789/5/1 790/6/1 791/7/1 792/8/1
f 793/5/1 794/6/1 795/7/1 796/8/1
f 797/9/1 798/10/1 799/11/1 800/12/1
f 801/1/1 802/2/1 803/3/1 804/4/1
f 805/5/1 806/6/1 807/7/1 808/8/1
f 809/5/1 810/6/1 811/7/1 812/8/1
f 813/5/1 814/6/1 815/7/1 816/8/1
f 817/5/1 818/6/1 819/7/1 820/8/1
f 821/5/1 822/6/1 823/7/1 824/8/1
f 825/5/1 826/6/1 827/7/1 828/8/1
f 829/5/1 830/6/1 831/7/1 832/8/1
f 833/5/1 834/6/1 835/7/1 836/8/1
f 837/5/1 838/6/1 839/7/1 840/8/1
f 841/9/1 842/10/1 843/11/1 844/12/1
f 845/1/1 846/2/1 847/3/1 848/4/1
f 849/5/1 850/6/1 851/7/1 852/8/1
f 853/5/1 854/6/1 855/7/1 856/8/1
f 857/5/1 858/6/1 859/7/1 860/8/1
f 861/5/1 862/6/1 863/7/1 864/8/1
f 865/5/1 866/6/1 867/7/1 868/8/1
f 869/5/1 870/6/1 871/7/1 872/8/1
f 873/5/1 874/6/1 875/7/1 876/8/1
f 877/5/1 878/6/1 879/7/1 880/8/1
f 881/5/1 882/6/1 883/7/1 884/8/1
f 885/5/1 886/6/1 887/7/1 888/8/1
f 889/9/1 890/10/1 891/11/1 892/12/1
f 893/1/1 894/2/1 895/3/1 896/4/1
f 897/5/1 898/6/1 899/7/1 900/8/1
f 901/5/1 902/6/1 903/7/1 904/8/1
f 905/5/1 906/6/1 907/7/1 908/8/1
f 909/5/1 910/6/1 911/7/1 912/8/1
f 913/5/1 914/6/1 915/7/1 916/8/1
f 917/5/1 918/6/1 919/7/1 920/8/1
f 921/5/1 922/6/1 923/7/1 924/8/1
f 925/5/1 926/6/1 927/7/1 928/8/1
f 929/5/1 930/6/1 931/7/1 932/8/1
f 933/5/1 934/6/1 935/7/1 936/8/1
f 937/9/1 938/10/1 939/11/1 940/12/1
f 941/1/1 942/2/1 943/3/1 944/4/1
f 945/5/1 946/6/1 947/7/1 948/8/1
f 949/5/1 950/6/1 951/7/1 952/8/1
f 953/5/1 954/6/1 955/7/1 956/8/1
f 957/5/1 958/6/1 959/7/1 960/8/1
f 961/5/1 962/6/1 963/7/1 964/8/1
f 965/5/1 966/6/1 967/7/1 968/8/1
f 969/5/1 970/6/1 971/7/1 972/8/1
f 973/5/1 974/6/1 975/7/1 976/8/1
f 977/5/1 978/6/1 979/7/1 980/8/1
f 981/5/1 982/6/1 983/7/1 984/8/1
f 985/5/1 986/6/1 987/7/1 988/8/1
f 989/9/1 990/10/1 991/11/1 992/12/1
f 993/1/1 994/2/1 995/3/1 996/4/1
f 997/5/1 998/6/1 999/7/1 1000/8/1
f 1001/5/1 1002/6/1 1003/7/1 1004/8/1
f 1005/5/1 1006/6/1 1007/7/1 1008/8/1
f 1009/5/1 1010/6/1 1011/7/1 1012/8/1
f 1013/5/1 1014/6/1 1015/7/1 1016/8/1
f 1017/9/1 1018/10/1 1019/11/1 1020/12/1

