# Tiled2Unity generated file. Do not modify by hand.
# Wavefront file for 'ChineseCemetery_mesh_0004.obj'

# Vertices (Count = 948)
v -68 -2 0
v -69 -2 0
v -69 -1 0
v -68 -1 0
v -67 -2 0
v -68 -2 0
v -68 -1 0
v -67 -1 0
v -66 -2 0
v -67 -2 0
v -67 -1 0
v -66 -1 0
v -65 -2 0
v -66 -2 0
v -66 -1 0
v -65 -1 0
v -68 -3 0
v -69 -3 0
v -69 -2 0
v -68 -2 0
v -67 -3 0
v -68 -3 0
v -68 -2 0
v -67 -2 0
v -66 -3 0
v -67 -3 0
v -67 -2 0
v -66 -2 0
v -65 -3 0
v -66 -3 0
v -66 -2 0
v -65 -2 0
v -53 -3 0
v -54 -3 0
v -54 -2 0
v -53 -2 0
v -52 -3 0
v -53 -3 0
v -53 -2 0
v -52 -2 0
v -51 -3 0
v -52 -3 0
v -52 -2 0
v -51 -2 0
v -50 -3 0
v -51 -3 0
v -51 -2 0
v -50 -2 0
v -17 -3 0
v -18 -3 0
v -18 -2 0
v -17 -2 0
v -16 -3 0
v -17 -3 0
v -17 -2 0
v -16 -2 0
v -15 -3 0
v -16 -3 0
v -16 -2 0
v -15 -2 0
v -14 -3 0
v -15 -3 0
v -15 -2 0
v -14 -2 0
v -68 -4 0
v -69 -4 0
v -69 -3 0
v -68 -3 0
v -67 -4 0
v -68 -4 0
v -68 -3 0
v -67 -3 0
v -66 -4 0
v -67 -4 0
v -67 -3 0
v -66 -3 0
v -65 -4 0
v -66 -4 0
v -66 -3 0
v -65 -3 0
v -62 -4 0
v -63 -4 0
v -63 -3 0
v -62 -3 0
v -61 -4 0
v -62 -4 0
v -62 -3 0
v -61 -3 0
v -60 -4 0
v -61 -4 0
v -61 -3 0
v -60 -3 0
v -59 -4 0
v -60 -4 0
v -60 -3 0
v -59 -3 0
v -53 -4 0
v -54 -4 0
v -54 -3 0
v -53 -3 0
v -52 -4 0
v -53 -4 0
v -53 -3 0
v -52 -3 0
v -51 -4 0
v -52 -4 0
v -52 -3 0
v -51 -3 0
v -50 -4 0
v -51 -4 0
v -51 -3 0
v -50 -3 0
v -49 -4 0
v -50 -4 0
v -50 -3 0
v -49 -3 0
v -48 -4 0
v -49 -4 0
v -49 -3 0
v -48 -3 0
v -47 -4 0
v -48 -4 0
v -48 -3 0
v -47 -3 0
v -46 -4 0
v -47 -4 0
v -47 -3 0
v -46 -3 0
v -17 -4 0
v -18 -4 0
v -18 -3 0
v -17 -3 0
v -16 -4 0
v -17 -4 0
v -17 -3 0
v -16 -3 0
v -15 -4 0
v -16 -4 0
v -16 -3 0
v -15 -3 0
v -14 -4 0
v -15 -4 0
v -15 -3 0
v -14 -3 0
v -62 -5 0
v -63 -5 0
v -63 -4 0
v -62 -4 0
v -61 -5 0
v -62 -5 0
v -62 -4 0
v -61 -4 0
v -60 -5 0
v -61 -5 0
v -61 -4 0
v -60 -4 0
v -59 -5 0
v -60 -5 0
v -60 -4 0
v -59 -4 0
v -53 -5 0
v -54 -5 0
v -54 -4 0
v -53 -4 0
v -52 -5 0
v -53 -5 0
v -53 -4 0
v -52 -4 0
v -51 -5 0
v -52 -5 0
v -52 -4 0
v -51 -4 0
v -50 -5 0
v -51 -5 0
v -51 -4 0
v -50 -4 0
v -49 -5 0
v -50 -5 0
v -50 -4 0
v -49 -4 0
v -48 -5 0
v -49 -5 0
v -49 -4 0
v -48 -4 0
v -47 -5 0
v -48 -5 0
v -48 -4 0
v -47 -4 0
v -46 -5 0
v -47 -5 0
v -47 -4 0
v -46 -4 0
v -17 -5 0
v -18 -5 0
v -18 -4 0
v -17 -4 0
v -16 -5 0
v -17 -5 0
v -17 -4 0
v -16 -4 0
v -15 -5 0
v -16 -5 0
v -16 -4 0
v -15 -4 0
v -14 -5 0
v -15 -5 0
v -15 -4 0
v -14 -4 0
v -62 -6 0
v -63 -6 0
v -63 -5 0
v -62 -5 0
v -61 -6 0
v -62 -6 0
v -62 -5 0
v -61 -5 0
v -60 -6 0
v -61 -6 0
v -61 -5 0
v -60 -5 0
v -59 -6 0
v -60 -6 0
v -60 -5 0
v -59 -5 0
v -49 -6 0
v -50 -6 0
v -50 -5 0
v -49 -5 0
v -48 -6 0
v -49 -6 0
v -49 -5 0
v -48 -5 0
v -47 -6 0
v -48 -6 0
v -48 -5 0
v -47 -5 0
v -46 -6 0
v -47 -6 0
v -47 -5 0
v -46 -5 0
v -8 -6 0
v -9 -6 0
v -9 -5 0
v -8 -5 0
v -7 -6 0
v -8 -6 0
v -8 -5 0
v -7 -5 0
v -6 -6 0
v -7 -6 0
v -7 -5 0
v -6 -5 0
v -5 -6 0
v -6 -6 0
v -6 -5 0
v -5 -5 0
v -8 -7 0
v -9 -7 0
v -9 -6 0
v -8 -6 0
v -7 -7 0
v -8 -7 0
v -8 -6 0
v -7 -6 0
v -6 -7 0
v -7 -7 0
v -7 -6 0
v -6 -6 0
v -5 -7 0
v -6 -7 0
v -6 -6 0
v -5 -6 0
v -66 -8 0
v -67 -8 0
v -67 -7 0
v -66 -7 0
v -65 -8 0
v -66 -8 0
v -66 -7 0
v -65 -7 0
v -64 -8 0
v -65 -8 0
v -65 -7 0
v -64 -7 0
v -63 -8 0
v -64 -8 0
v -64 -7 0
v -63 -7 0
v -8 -8 0
v -9 -8 0
v -9 -7 0
v -8 -7 0
v -7 -8 0
v -8 -8 0
v -8 -7 0
v -7 -7 0
v -6 -8 0
v -7 -8 0
v -7 -7 0
v -6 -7 0
v -5 -8 0
v -6 -8 0
v -6 -7 0
v -5 -7 0
v -66 -9 0
v -67 -9 0
v -67 -8 0
v -66 -8 0
v -65 -9 0
v -66 -9 0
v -66 -8 0
v -65 -8 0
v -64 -9 0
v -65 -9 0
v -65 -8 0
v -64 -8 0
v -63 -9 0
v -64 -9 0
v -64 -8 0
v -63 -8 0
v -66 -10 0
v -67 -10 0
v -67 -9 0
v -66 -9 0
v -65 -10 0
v -66 -10 0
v -66 -9 0
v -65 -9 0
v -64 -10 0
v -65 -10 0
v -65 -9 0
v -64 -9 0
v -63 -10 0
v -64 -10 0
v -64 -9 0
v -63 -9 0
v -19 -24 0
v -20 -24 0
v -20 -23 0
v -19 -23 0
v -18 -24 0
v -19 -24 0
v -19 -23 0
v -18 -23 0
v -17 -24 0
v -18 -24 0
v -18 -23 0
v -17 -23 0
v -16 -24 0
v -17 -24 0
v -17 -23 0
v -16 -23 0
v -29 -25 0
v -30 -25 0
v -30 -24 0
v -29 -24 0
v -28 -25 0
v -29 -25 0
v -29 -24 0
v -28 -24 0
v -27 -25 0
v -28 -25 0
v -28 -24 0
v -27 -24 0
v -26 -25 0
v -27 -25 0
v -27 -24 0
v -26 -24 0
v -19 -25 0
v -20 -25 0
v -20 -24 0
v -19 -24 0
v -18 -25 0
v -19 -25 0
v -19 -24 0
v -18 -24 0
v -17 -25 0
v -18 -25 0
v -18 -24 0
v -17 -24 0
v -16 -25 0
v -17 -25 0
v -17 -24 0
v -16 -24 0
v -29 -26 0
v -30 -26 0
v -30 -25 0
v -29 -25 0
v -28 -26 0
v -29 -26 0
v -29 -25 0
v -28 -25 0
v -27 -26 0
v -28 -26 0
v -28 -25 0
v -27 -25 0
v -26 -26 0
v -27 -26 0
v -27 -25 0
v -26 -25 0
v -19 -26 0
v -20 -26 0
v -20 -25 0
v -19 -25 0
v -18 -26 0
v -19 -26 0
v -19 -25 0
v -18 -25 0
v -17 -26 0
v -18 -26 0
v -18 -25 0
v -17 -25 0
v -16 -26 0
v -17 -26 0
v -17 -25 0
v -16 -25 0
v -29 -27 0
v -30 -27 0
v -30 -26 0
v -29 -26 0
v -28 -27 0
v -29 -27 0
v -29 -26 0
v -28 -26 0
v -27 -27 0
v -28 -27 0
v -28 -26 0
v -27 -26 0
v -26 -27 0
v -27 -27 0
v -27 -26 0
v -26 -26 0
v -42 -33 0
v -43 -33 0
v -43 -32 0
v -42 -32 0
v -41 -33 0
v -42 -33 0
v -42 -32 0
v -41 -32 0
v -40 -33 0
v -41 -33 0
v -41 -32 0
v -40 -32 0
v -39 -33 0
v -40 -33 0
v -40 -32 0
v -39 -32 0
v -42 -34 0
v -43 -34 0
v -43 -33 0
v -42 -33 0
v -41 -34 0
v -42 -34 0
v -42 -33 0
v -41 -33 0
v -40 -34 0
v -41 -34 0
v -41 -33 0
v -40 -33 0
v -39 -34 0
v -40 -34 0
v -40 -33 0
v -39 -33 0
v -42 -35 0
v -43 -35 0
v -43 -34 0
v -42 -34 0
v -41 -35 0
v -42 -35 0
v -42 -34 0
v -41 -34 0
v -40 -35 0
v -41 -35 0
v -41 -34 0
v -40 -34 0
v -39 -35 0
v -40 -35 0
v -40 -34 0
v -39 -34 0
v -6 -37 0
v -7 -37 0
v -7 -36 0
v -6 -36 0
v -5 -37 0
v -6 -37 0
v -6 -36 0
v -5 -36 0
v -4 -37 0
v -5 -37 0
v -5 -36 0
v -4 -36 0
v -3 -37 0
v -4 -37 0
v -4 -36 0
v -3 -36 0
v -6 -38 0
v -7 -38 0
v -7 -37 0
v -6 -37 0
v -5 -38 0
v -6 -38 0
v -6 -37 0
v -5 -37 0
v -4 -38 0
v -5 -38 0
v -5 -37 0
v -4 -37 0
v -3 -38 0
v -4 -38 0
v -4 -37 0
v -3 -37 0
v -6 -39 0
v -7 -39 0
v -7 -38 0
v -6 -38 0
v -5 -39 0
v -6 -39 0
v -6 -38 0
v -5 -38 0
v -4 -39 0
v -5 -39 0
v -5 -38 0
v -4 -38 0
v -3 -39 0
v -4 -39 0
v -4 -38 0
v -3 -38 0
v -2 -42 0
v -3 -42 0
v -3 -41 0
v -2 -41 0
v -1 -42 0
v -2 -42 0
v -2 -41 0
v -1 -41 0
v 0 -42 0
v -1 -42 0
v -1 -41 0
v 0 -41 0
v -2 -43 0
v -3 -43 0
v -3 -42 0
v -2 -42 0
v -1 -43 0
v -2 -43 0
v -2 -42 0
v -1 -42 0
v 0 -43 0
v -1 -43 0
v -1 -42 0
v 0 -42 0
v -2 -44 0
v -3 -44 0
v -3 -43 0
v -2 -43 0
v -1 -44 0
v -2 -44 0
v -2 -43 0
v -1 -43 0
v 0 -44 0
v -1 -44 0
v -1 -43 0
v 0 -43 0
v -5 -45 0
v -6 -45 0
v -6 -44 0
v -5 -44 0
v -4 -45 0
v -5 -45 0
v -5 -44 0
v -4 -44 0
v -3 -45 0
v -4 -45 0
v -4 -44 0
v -3 -44 0
v -2 -45 0
v -3 -45 0
v -3 -44 0
v -2 -44 0
v -5 -46 0
v -6 -46 0
v -6 -45 0
v -5 -45 0
v -4 -46 0
v -5 -46 0
v -5 -45 0
v -4 -45 0
v -3 -46 0
v -4 -46 0
v -4 -45 0
v -3 -45 0
v -2 -46 0
v -3 -46 0
v -3 -45 0
v -2 -45 0
v -5 -47 0
v -6 -47 0
v -6 -46 0
v -5 -46 0
v -4 -47 0
v -5 -47 0
v -5 -46 0
v -4 -46 0
v -3 -47 0
v -4 -47 0
v -4 -46 0
v -3 -46 0
v -2 -47 0
v -3 -47 0
v -3 -46 0
v -2 -46 0
v -28 -50 0
v -29 -50 0
v -29 -49 0
v -28 -49 0
v -27 -50 0
v -28 -50 0
v -28 -49 0
v -27 -49 0
v -26 -50 0
v -27 -50 0
v -27 -49 0
v -26 -49 0
v -25 -50 0
v -26 -50 0
v -26 -49 0
v -25 -49 0
v -28 -51 0
v -29 -51 0
v -29 -50 0
v -28 -50 0
v -27 -51 0
v -28 -51 0
v -28 -50 0
v -27 -50 0
v -26 -51 0
v -27 -51 0
v -27 -50 0
v -26 -50 0
v -25 -51 0
v -26 -51 0
v -26 -50 0
v -25 -50 0
v -10 -51 0
v -11 -51 0
v -11 -50 0
v -10 -50 0
v -9 -51 0
v -10 -51 0
v -10 -50 0
v -9 -50 0
v -8 -51 0
v -9 -51 0
v -9 -50 0
v -8 -50 0
v -7 -51 0
v -8 -51 0
v -8 -50 0
v -7 -50 0
v -3 -51 0
v -4 -51 0
v -4 -50 0
v -3 -50 0
v -2 -51 0
v -3 -51 0
v -3 -50 0
v -2 -50 0
v -1 -51 0
v -2 -51 0
v -2 -50 0
v -1 -50 0
v 0 -51 0
v -1 -51 0
v -1 -50 0
v 0 -50 0
v -28 -52 0
v -29 -52 0
v -29 -51 0
v -28 -51 0
v -27 -52 0
v -28 -52 0
v -28 -51 0
v -27 -51 0
v -26 -52 0
v -27 -52 0
v -27 -51 0
v -26 -51 0
v -25 -52 0
v -26 -52 0
v -26 -51 0
v -25 -51 0
v -24 -52 0
v -25 -52 0
v -25 -51 0
v -24 -51 0
v -23 -52 0
v -24 -52 0
v -24 -51 0
v -23 -51 0
v -22 -52 0
v -23 -52 0
v -23 -51 0
v -22 -51 0
v -21 -52 0
v -22 -52 0
v -22 -51 0
v -21 -51 0
v -10 -52 0
v -11 -52 0
v -11 -51 0
v -10 -51 0
v -9 -52 0
v -10 -52 0
v -10 -51 0
v -9 -51 0
v -8 -52 0
v -9 -52 0
v -9 -51 0
v -8 -51 0
v -7 -52 0
v -8 -52 0
v -8 -51 0
v -7 -51 0
v -3 -52 0
v -4 -52 0
v -4 -51 0
v -3 -51 0
v -2 -52 0
v -3 -52 0
v -3 -51 0
v -2 -51 0
v -1 -52 0
v -2 -52 0
v -2 -51 0
v -1 -51 0
v 0 -52 0
v -1 -52 0
v -1 -51 0
v 0 -51 0
v -24 -53 0
v -25 -53 0
v -25 -52 0
v -24 -52 0
v -23 -53 0
v -24 -53 0
v -24 -52 0
v -23 -52 0
v -22 -53 0
v -23 -53 0
v -23 -52 0
v -22 -52 0
v -21 -53 0
v -22 -53 0
v -22 -52 0
v -21 -52 0
v -10 -53 0
v -11 -53 0
v -11 -52 0
v -10 -52 0
v -9 -53 0
v -10 -53 0
v -10 -52 0
v -9 -52 0
v -8 -53 0
v -9 -53 0
v -9 -52 0
v -8 -52 0
v -7 -53 0
v -8 -53 0
v -8 -52 0
v -7 -52 0
v -3 -53 0
v -4 -53 0
v -4 -52 0
v -3 -52 0
v -2 -53 0
v -3 -53 0
v -3 -52 0
v -2 -52 0
v -1 -53 0
v -2 -53 0
v -2 -52 0
v -1 -52 0
v 0 -53 0
v -1 -53 0
v -1 -52 0
v 0 -52 0
v -57 -54 0
v -58 -54 0
v -58 -53 0
v -57 -53 0
v -56 -54 0
v -57 -54 0
v -57 -53 0
v -56 -53 0
v -55 -54 0
v -56 -54 0
v -56 -53 0
v -55 -53 0
v -54 -54 0
v -55 -54 0
v -55 -53 0
v -54 -53 0
v -24 -54 0
v -25 -54 0
v -25 -53 0
v -24 -53 0
v -23 -54 0
v -24 -54 0
v -24 -53 0
v -23 -53 0
v -22 -54 0
v -23 -54 0
v -23 -53 0
v -22 -53 0
v -21 -54 0
v -22 -54 0
v -22 -53 0
v -21 -53 0
v -57 -55 0
v -58 -55 0
v -58 -54 0
v -57 -54 0
v -56 -55 0
v -57 -55 0
v -57 -54 0
v -56 -54 0
v -55 -55 0
v -56 -55 0
v -56 -54 0
v -55 -54 0
v -54 -55 0
v -55 -55 0
v -55 -54 0
v -54 -54 0
v -57 -56 0
v -58 -56 0
v -58 -55 0
v -57 -55 0
v -56 -56 0
v -57 -56 0
v -57 -55 0
v -56 -55 0
v -55 -56 0
v -56 -56 0
v -56 -55 0
v -55 -55 0
v -54 -56 0
v -55 -56 0
v -55 -55 0
v -54 -55 0
v -68 -57 0
v -69 -57 0
v -69 -56 0
v -68 -56 0
v -67 -57 0
v -68 -57 0
v -68 -56 0
v -67 -56 0
v -66 -57 0
v -67 -57 0
v -67 -56 0
v -66 -56 0
v -65 -57 0
v -66 -57 0
v -66 -56 0
v -65 -56 0
v -4 -57 0
v -5 -57 0
v -5 -56 0
v -4 -56 0
v -3 -57 0
v -4 -57 0
v -4 -56 0
v -3 -56 0
v -2 -57 0
v -3 -57 0
v -3 -56 0
v -2 -56 0
v -1 -57 0
v -2 -57 0
v -2 -56 0
v -1 -56 0
v -68 -58 0
v -69 -58 0
v -69 -57 0
v -68 -57 0
v -67 -58 0
v -68 -58 0
v -68 -57 0
v -67 -57 0
v -66 -58 0
v -67 -58 0
v -67 -57 0
v -66 -57 0
v -65 -58 0
v -66 -58 0
v -66 -57 0
v -65 -57 0
v -4 -58 0
v -5 -58 0
v -5 -57 0
v -4 -57 0
v -3 -58 0
v -4 -58 0
v -4 -57 0
v -3 -57 0
v -2 -58 0
v -3 -58 0
v -3 -57 0
v -2 -57 0
v -1 -58 0
v -2 -58 0
v -2 -57 0
v -1 -57 0
v -68 -59 0
v -69 -59 0
v -69 -58 0
v -68 -58 0
v -67 -59 0
v -68 -59 0
v -68 -58 0
v -67 -58 0
v -66 -59 0
v -67 -59 0
v -67 -58 0
v -66 -58 0
v -65 -59 0
v -66 -59 0
v -66 -58 0
v -65 -58 0
v -4 -59 0
v -5 -59 0
v -5 -58 0
v -4 -58 0
v -3 -59 0
v -4 -59 0
v -4 -58 0
v -3 -58 0
v -2 -59 0
v -3 -59 0
v -3 -58 0
v -2 -58 0
v -1 -59 0
v -2 -59 0
v -2 -58 0
v -1 -58 0

# Texture cooridinates (Count = 48)
vt 0.2081845 0.05567765
vt 0.2287466 0.05567765
vt 0.2287466 0.08321124
vt 0.2081845 0.08321124
vt 0.1873782 0.05567765
vt 0.2079404 0.05567765
vt 0.2079404 0.08321124
vt 0.1873782 0.08321124
vt 0.166572 0.05567765
vt 0.1871341 0.05567765
vt 0.1871341 0.08321124
vt 0.166572 0.08321124
vt 0.1457658 0.05567765
vt 0.1663279 0.05567765
vt 0.1663279 0.08321124
vt 0.1457658 0.08321124
vt 0.2081845 0.02789986
vt 0.2287466 0.02789986
vt 0.2287466 0.05543351
vt 0.2081845 0.05543351
vt 0.1873782 0.02789986
vt 0.2079404 0.02789986
vt 0.2079404 0.05543351
vt 0.1873782 0.05543351
vt 0.166572 0.02789986
vt 0.1871341 0.02789986
vt 0.1871341 0.05543351
vt 0.166572 0.05543351
vt 0.1457658 0.02789986
vt 0.1663279 0.02789986
vt 0.1663279 0.05543351
vt 0.1457658 0.05543351
vt 0.2081845 0.0001220703
vt 0.2287466 0.0001220703
vt 0.2287466 0.02765572
vt 0.2081845 0.02765572
vt 0.1873782 0.0001220703
vt 0.2079404 0.0001220703
vt 0.2079404 0.02765572
vt 0.1873782 0.02765572
vt 0.166572 0.0001220703
vt 0.1871341 0.0001220703
vt 0.1871341 0.02765572
vt 0.166572 0.02765572
vt 0.1457658 0.0001220703
vt 0.1663279 0.0001220703
vt 0.1663279 0.02765572
vt 0.1457658 0.02765572

# Normal
vn 0 0 -1

# Mesh description
g ChineseCemetery_mesh_0004

# Faces
f 1/1/1 2/2/1 3/3/1 4/4/1
f 5/5/1 6/6/1 7/7/1 8/8/1
f 9/9/1 10/10/1 11/11/1 12/12/1
f 13/13/1 14/14/1 15/15/1 16/16/1
f 17/17/1 18/18/1 19/19/1 20/20/1
f 21/21/1 22/22/1 23/23/1 24/24/1
f 25/25/1 26/26/1 27/27/1 28/28/1
f 29/29/1 30/30/1 31/31/1 32/32/1
f 33/1/1 34/2/1 35/3/1 36/4/1
f 37/5/1 38/6/1 39/7/1 40/8/1
f 41/9/1 42/10/1 43/11/1 44/12/1
f 45/13/1 46/14/1 47/15/1 48/16/1
f 49/1/1 50/2/1 51/3/1 52/4/1
f 53/5/1 54/6/1 55/7/1 56/8/1
f 57/9/1 58/10/1 59/11/1 60/12/1
f 61/13/1 62/14/1 63/15/1 64/16/1
f 65/33/1 66/34/1 67/35/1 68/36/1
f 69/37/1 70/38/1 71/39/1 72/40/1
f 73/41/1 74/42/1 75/43/1 76/44/1
f 77/45/1 78/46/1 79/47/1 80/48/1
f 81/1/1 82/2/1 83/3/1 84/4/1
f 85/5/1 86/6/1 87/7/1 88/8/1
f 89/9/1 90/10/1 91/11/1 92/12/1
f 93/13/1 94/14/1 95/15/1 96/16/1
f 97/17/1 98/18/1 99/19/1 100/20/1
f 101/21/1 102/22/1 103/23/1 104/24/1
f 105/25/1 106/26/1 107/27/1 108/28/1
f 109/29/1 110/30/1 111/31/1 112/32/1
f 113/1/1 114/2/1 115/3/1 116/4/1
f 117/5/1 118/6/1 119/7/1 120/8/1
f 121/9/1 122/10/1 123/11/1 124/12/1
f 125/13/1 126/14/1 127/15/1 128/16/1
f 129/17/1 130/18/1 131/19/1 132/20/1
f 133/21/1 134/22/1 135/23/1 136/24/1
f 137/25/1 138/26/1 139/27/1 140/28/1
f 141/29/1 142/30/1 143/31/1 144/32/1
f 145/17/1 146/18/1 147/19/1 148/20/1
f 149/21/1 150/22/1 151/23/1 152/24/1
f 153/25/1 154/26/1 155/27/1 156/28/1
f 157/29/1 158/30/1 159/31/1 160/32/1
f 161/33/1 162/34/1 163/35/1 164/36/1
f 165/37/1 166/38/1 167/39/1 168/40/1
f 169/41/1 170/42/1 171/43/1 172/44/1
f 173/45/1 174/46/1 175/47/1 176/48/1
f 177/17/1 178/18/1 179/19/1 180/20/1
f 181/21/1 182/22/1 183/23/1 184/24/1
f 185/25/1 186/26/1 187/27/1 188/28/1
f 189/29/1 190/30/1 191/31/1 192/32/1
f 193/33/1 194/34/1 195/35/1 196/36/1
f 197/37/1 198/38/1 199/39/1 200/40/1
f 201/41/1 202/42/1 203/43/1 204/44/1
f 205/45/1 206/46/1 207/47/1 208/48/1
f 209/33/1 210/34/1 211/35/1 212/36/1
f 213/37/1 214/38/1 215/39/1 216/40/1
f 217/41/1 218/42/1 219/43/1 220/44/1
f 221/45/1 222/46/1 223/47/1 224/48/1
f 225/33/1 226/34/1 227/35/1 228/36/1
f 229/37/1 230/38/1 231/39/1 232/40/1
f 233/41/1 234/42/1 235/43/1 236/44/1
f 237/45/1 238/46/1 239/47/1 240/48/1
f 241/1/1 242/2/1 243/3/1 244/4/1
f 245/5/1 246/6/1 247/7/1 248/8/1
f 249/9/1 250/10/1 251/11/1 252/12/1
f 253/13/1 254/14/1 255/15/1 256/16/1
f 257/17/1 258/18/1 259/19/1 260/20/1
f 261/21/1 262/22/1 263/23/1 264/24/1
f 265/25/1 266/26/1 267/27/1 268/28/1
f 269/29/1 270/30/1 271/31/1 272/32/1
f 273/1/1 274/2/1 275/3/1 276/4/1
f 277/5/1 278/6/1 279/7/1 280/8/1
f 281/9/1 282/10/1 283/11/1 284/12/1
f 285/13/1 286/14/1 287/15/1 288/16/1
f 289/33/1 290/34/1 291/35/1 292/36/1
f 293/37/1 294/38/1 295/39/1 296/40/1
f 297/41/1 298/42/1 299/43/1 300/44/1
f 301/45/1 302/46/1 303/47/1 304/48/1
f 305/17/1 306/18/1 307/19/1 308/20/1
f 309/21/1 310/22/1 311/23/1 312/24/1
f 313/25/1 314/26/1 315/27/1 316/28/1
f 317/29/1 318/30/1 319/31/1 320/32/1
f 321/33/1 322/34/1 323/35/1 324/36/1
f 325/37/1 326/38/1 327/39/1 328/40/1
f 329/41/1 330/42/1 331/43/1 332/44/1
f 333/45/1 334/46/1 335/47/1 336/48/1
f 337/1/1 338/2/1 339/3/1 340/4/1
f 341/5/1 342/6/1 343/7/1 344/8/1
f 345/9/1 346/10/1 347/11/1 348/12/1
f 349/13/1 350/14/1 351/15/1 352/16/1
f 353/1/1 354/2/1 355/3/1 356/4/1
f 357/5/1 358/6/1 359/7/1 360/8/1
f 361/9/1 362/10/1 363/11/1 364/12/1
f 365/13/1 366/14/1 367/15/1 368/16/1
f 369/17/1 370/18/1 371/19/1 372/20/1
f 373/21/1 374/22/1 375/23/1 376/24/1
f 377/25/1 378/26/1 379/27/1 380/28/1
f 381/29/1 382/30/1 383/31/1 384/32/1
f 385/17/1 386/18/1 387/19/1 388/20/1
f 389/21/1 390/22/1 391/23/1 392/24/1
f 393/25/1 394/26/1 395/27/1 396/28/1
f 397/29/1 398/30/1 399/31/1 400/32/1
f 401/33/1 402/34/1 403/35/1 404/36/1
f 405/37/1 406/38/1 407/39/1 408/40/1
f 409/41/1 410/42/1 411/43/1 412/44/1
f 413/45/1 414/46/1 415/47/1 416/48/1
f 417/33/1 418/34/1 419/35/1 420/36/1
f 421/37/1 422/38/1 423/39/1 424/40/1
f 425/41/1 426/42/1 427/43/1 428/44/1
f 429/45/1 430/46/1 431/47/1 432/48/1
f 433/1/1 434/2/1 435/3/1 436/4/1
f 437/5/1 438/6/1 439/7/1 440/8/1
f 441/9/1 442/10/1 443/11/1 444/12/1
f 445/13/1 446/14/1 447/15/1 448/16/1
f 449/17/1 450/18/1 451/19/1 452/20/1
f 453/21/1 454/22/1 455/23/1 456/24/1
f 457/25/1 458/26/1 459/27/1 460/28/1
f 461/29/1 462/30/1 463/31/1 464/32/1
f 465/33/1 466/34/1 467/35/1 468/36/1
f 469/37/1 470/38/1 471/39/1 472/40/1
f 473/41/1 474/42/1 475/43/1 476/44/1
f 477/45/1 478/46/1 479/47/1 480/48/1
f 481/1/1 482/2/1 483/3/1 484/4/1
f 485/5/1 486/6/1 487/7/1 488/8/1
f 489/9/1 490/10/1 491/11/1 492/12/1
f 493/13/1 494/14/1 495/15/1 496/16/1
f 497/17/1 498/18/1 499/19/1 500/20/1
f 501/21/1 502/22/1 503/23/1 504/24/1
f 505/25/1 506/26/1 507/27/1 508/28/1
f 509/29/1 510/30/1 511/31/1 512/32/1
f 513/33/1 514/34/1 515/35/1 516/36/1
f 517/37/1 518/38/1 519/39/1 520/40/1
f 521/41/1 522/42/1 523/43/1 524/44/1
f 525/45/1 526/46/1 527/47/1 528/48/1
f 529/1/1 530/2/1 531/3/1 532/4/1
f 533/5/1 534/6/1 535/7/1 536/8/1
f 537/9/1 538/10/1 539/11/1 540/12/1
f 541/17/1 542/18/1 543/19/1 544/20/1
f 545/21/1 546/22/1 547/23/1 548/24/1
f 549/25/1 550/26/1 551/27/1 552/28/1
f 553/33/1 554/34/1 555/35/1 556/36/1
f 557/37/1 558/38/1 559/39/1 560/40/1
f 561/41/1 562/42/1 563/43/1 564/44/1
f 565/1/1 566/2/1 567/3/1 568/4/1
f 569/5/1 570/6/1 571/7/1 572/8/1
f 573/9/1 574/10/1 575/11/1 576/12/1
f 577/13/1 578/14/1 579/15/1 580/16/1
f 581/17/1 582/18/1 583/19/1 584/20/1
f 585/21/1 586/22/1 587/23/1 588/24/1
f 589/25/1 590/26/1 591/27/1 592/28/1
f 593/29/1 594/30/1 595/31/1 596/32/1
f 597/33/1 598/34/1 599/35/1 600/36/1
f 601/37/1 602/38/1 603/39/1 604/40/1
f 605/41/1 606/42/1 607/43/1 608/44/1
f 609/45/1 610/46/1 611/47/1 612/48/1
f 613/1/1 614/2/1 615/3/1 616/4/1
f 617/5/1 618/6/1 619/7/1 620/8/1
f 621/9/1 622/10/1 623/11/1 624/12/1
f 625/13/1 626/14/1 627/15/1 628/16/1
f 629/17/1 630/18/1 631/19/1 632/20/1
f 633/21/1 634/22/1 635/23/1 636/24/1
f 637/25/1 638/26/1 639/27/1 640/28/1
f 641/29/1 642/30/1 643/31/1 644/32/1
f 645/1/1 646/2/1 647/3/1 648/4/1
f 649/5/1 650/6/1 651/7/1 652/8/1
f 653/9/1 654/10/1 655/11/1 656/12/1
f 657/13/1 658/14/1 659/15/1 660/16/1
f 661/1/1 662/2/1 663/3/1 664/4/1
f 665/5/1 666/6/1 667/7/1 668/8/1
f 669/9/1 670/10/1 671/11/1 672/12/1
f 673/13/1 674/14/1 675/15/1 676/16/1
f 677/33/1 678/34/1 679/35/1 680/36/1
f 681/37/1 682/38/1 683/39/1 684/40/1
f 685/41/1 686/42/1 687/43/1 688/44/1
f 689/45/1 690/46/1 691/47/1 692/48/1
f 693/1/1 694/2/1 695/3/1 696/4/1
f 697/5/1 698/6/1 699/7/1 700/8/1
f 701/9/1 702/10/1 703/11/1 704/12/1
f 705/13/1 706/14/1 707/15/1 708/16/1
f 709/17/1 710/18/1 711/19/1 712/20/1
f 713/21/1 714/22/1 715/23/1 716/24/1
f 717/25/1 718/26/1 719/27/1 720/28/1
f 721/29/1 722/30/1 723/31/1 724/32/1
f 725/17/1 726/18/1 727/19/1 728/20/1
f 729/21/1 730/22/1 731/23/1 732/24/1
f 733/25/1 734/26/1 735/27/1 736/28/1
f 737/29/1 738/30/1 739/31/1 740/32/1
f 741/17/1 742/18/1 743/19/1 744/20/1
f 745/21/1 746/22/1 747/23/1 748/24/1
f 749/25/1 750/26/1 751/27/1 752/28/1
f 753/29/1 754/30/1 755/31/1 756/32/1
f 757/33/1 758/34/1 759/35/1 760/36/1
f 761/37/1 762/38/1 763/39/1 764/40/1
f 765/41/1 766/42/1 767/43/1 768/44/1
f 769/45/1 770/46/1 771/47/1 772/48/1
f 773/33/1 774/34/1 775/35/1 776/36/1
f 777/37/1 778/38/1 779/39/1 780/40/1
f 781/41/1 782/42/1 783/43/1 784/44/1
f 785/45/1 786/46/1 787/47/1 788/48/1
f 789/1/1 790/2/1 791/3/1 792/4/1
f 793/5/1 794/6/1 795/7/1 796/8/1
f 797/9/1 798/10/1 799/11/1 800/12/1
f 801/13/1 802/14/1 803/15/1 804/16/1
f 805/33/1 806/34/1 807/35/1 808/36/1
f 809/37/1 810/38/1 811/39/1 812/40/1
f 813/41/1 814/42/1 815/43/1 816/44/1
f 817/45/1 818/46/1 819/47/1 820/48/1
f 821/17/1 822/18/1 823/19/1 824/20/1
f 825/21/1 826/22/1 827/23/1 828/24/1
f 829/25/1 830/26/1 831/27/1 832/28/1
f 833/29/1 834/30/1 835/31/1 836/32/1
f 837/33/1 838/34/1 839/35/1 840/36/1
f 841/37/1 842/38/1 843/39/1 844/40/1
f 845/41/1 846/42/1 847/43/1 848/44/1
f 849/45/1 850/46/1 851/47/1 852/48/1
f 853/1/1 854/2/1 855/3/1 856/4/1
f 857/5/1 858/6/1 859/7/1 860/8/1
f 861/9/1 862/10/1 863/11/1 864/12/1
f 865/13/1 866/14/1 867/15/1 868/16/1
f 869/1/1 870/2/1 871/3/1 872/4/1
f 873/5/1 874/6/1 875/7/1 876/8/1
f 877/9/1 878/10/1 879/11/1 880/12/1
f 881/13/1 882/14/1 883/15/1 884/16/1
f 885/17/1 886/18/1 887/19/1 888/20/1
f 889/21/1 890/22/1 891/23/1 892/24/1
f 893/25/1 894/26/1 895/27/1 896/28/1
f 897/29/1 898/30/1 899/31/1 900/32/1
f 901/17/1 902/18/1 903/19/1 904/20/1
f 905/21/1 906/22/1 907/23/1 908/24/1
f 909/25/1 910/26/1 911/27/1 912/28/1
f 913/29/1 914/30/1 915/31/1 916/32/1
f 917/33/1 918/34/1 919/35/1 920/36/1
f 921/37/1 922/38/1 923/39/1 924/40/1
f 925/41/1 926/42/1 927/43/1 928/44/1
f 929/45/1 930/46/1 931/47/1 932/48/1
f 933/33/1 934/34/1 935/35/1 936/36/1
f 937/37/1 938/38/1 939/39/1 940/40/1
f 941/41/1 942/42/1 943/43/1 944/44/1
f 945/45/1 946/46/1 947/47/1 948/48/1

