# Tiled2Unity generated file. Do not modify by hand.
# Wavefront file for 'ChineseCemetery_mesh_0005.obj'

# Vertices (Count = 432)
v -22 -3 0
v -23 -3 0
v -23 -2 0
v -22 -2 0
v -21 -3 0
v -22 -3 0
v -22 -2 0
v -21 -2 0
v -20 -3 0
v -21 -3 0
v -21 -2 0
v -20 -2 0
v -36 -4 0
v -37 -4 0
v -37 -3 0
v -36 -3 0
v -35 -4 0
v -36 -4 0
v -36 -3 0
v -35 -3 0
v -34 -4 0
v -35 -4 0
v -35 -3 0
v -34 -3 0
v -22 -4 0
v -23 -4 0
v -23 -3 0
v -22 -3 0
v -21 -4 0
v -22 -4 0
v -22 -3 0
v -21 -3 0
v -20 -4 0
v -21 -4 0
v -21 -3 0
v -20 -3 0
v -36 -5 0
v -37 -5 0
v -37 -4 0
v -36 -4 0
v -35 -5 0
v -36 -5 0
v -36 -4 0
v -35 -4 0
v -34 -5 0
v -35 -5 0
v -35 -4 0
v -34 -4 0
v -58 -9 0
v -59 -9 0
v -59 -8 0
v -58 -8 0
v -57 -9 0
v -58 -9 0
v -58 -8 0
v -57 -8 0
v -56 -9 0
v -57 -9 0
v -57 -8 0
v -56 -8 0
v -37 -9 0
v -38 -9 0
v -38 -8 0
v -37 -8 0
v -36 -9 0
v -37 -9 0
v -37 -8 0
v -36 -8 0
v -35 -9 0
v -36 -9 0
v -36 -8 0
v -35 -8 0
v -58 -10 0
v -59 -10 0
v -59 -9 0
v -58 -9 0
v -57 -10 0
v -58 -10 0
v -58 -9 0
v -57 -9 0
v -56 -10 0
v -57 -10 0
v -57 -9 0
v -56 -9 0
v -37 -10 0
v -38 -10 0
v -38 -9 0
v -37 -9 0
v -36 -10 0
v -37 -10 0
v -37 -9 0
v -36 -9 0
v -35 -10 0
v -36 -10 0
v -36 -9 0
v -35 -9 0
v -69 -14 0
v -70 -14 0
v -70 -13 0
v -69 -13 0
v -68 -14 0
v -69 -14 0
v -69 -13 0
v -68 -13 0
v -67 -14 0
v -68 -14 0
v -68 -13 0
v -67 -13 0
v -69 -15 0
v -70 -15 0
v -70 -14 0
v -69 -14 0
v -68 -15 0
v -69 -15 0
v -69 -14 0
v -68 -14 0
v -67 -15 0
v -68 -15 0
v -68 -14 0
v -67 -14 0
v -45 -17 0
v -46 -17 0
v -46 -16 0
v -45 -16 0
v -44 -17 0
v -45 -17 0
v -45 -16 0
v -44 -16 0
v -43 -17 0
v -44 -17 0
v -44 -16 0
v -43 -16 0
v -64 -18 0
v -65 -18 0
v -65 -17 0
v -64 -17 0
v -63 -18 0
v -64 -18 0
v -64 -17 0
v -63 -17 0
v -62 -18 0
v -63 -18 0
v -63 -17 0
v -62 -17 0
v -45 -18 0
v -46 -18 0
v -46 -17 0
v -45 -17 0
v -44 -18 0
v -45 -18 0
v -45 -17 0
v -44 -17 0
v -43 -18 0
v -44 -18 0
v -44 -17 0
v -43 -17 0
v -64 -19 0
v -65 -19 0
v -65 -18 0
v -64 -18 0
v -63 -19 0
v -64 -19 0
v -64 -18 0
v -63 -18 0
v -62 -19 0
v -63 -19 0
v -63 -18 0
v -62 -18 0
v -4 -19 0
v -5 -19 0
v -5 -18 0
v -4 -18 0
v -3 -19 0
v -4 -19 0
v -4 -18 0
v -3 -18 0
v -2 -19 0
v -3 -19 0
v -3 -18 0
v -2 -18 0
v -4 -20 0
v -5 -20 0
v -5 -19 0
v -4 -19 0
v -3 -20 0
v -4 -20 0
v -4 -19 0
v -3 -19 0
v -2 -20 0
v -3 -20 0
v -3 -19 0
v -2 -19 0
v -47 -26 0
v -48 -26 0
v -48 -25 0
v -47 -25 0
v -46 -26 0
v -47 -26 0
v -47 -25 0
v -46 -25 0
v -45 -26 0
v -46 -26 0
v -46 -25 0
v -45 -25 0
v -47 -27 0
v -48 -27 0
v -48 -26 0
v -47 -26 0
v -46 -27 0
v -47 -27 0
v -47 -26 0
v -46 -26 0
v -45 -27 0
v -46 -27 0
v -46 -26 0
v -45 -26 0
v -25 -27 0
v -26 -27 0
v -26 -26 0
v -25 -26 0
v -24 -27 0
v -25 -27 0
v -25 -26 0
v -24 -26 0
v -23 -27 0
v -24 -27 0
v -24 -26 0
v -23 -26 0
v -25 -28 0
v -26 -28 0
v -26 -27 0
v -25 -27 0
v -24 -28 0
v -25 -28 0
v -25 -27 0
v -24 -27 0
v -23 -28 0
v -24 -28 0
v -24 -27 0
v -23 -27 0
v -7 -29 0
v -8 -29 0
v -8 -28 0
v -7 -28 0
v -6 -29 0
v -7 -29 0
v -7 -28 0
v -6 -28 0
v -5 -29 0
v -6 -29 0
v -6 -28 0
v -5 -28 0
v -7 -30 0
v -8 -30 0
v -8 -29 0
v -7 -29 0
v -6 -30 0
v -7 -30 0
v -7 -29 0
v -6 -29 0
v -5 -30 0
v -6 -30 0
v -6 -29 0
v -5 -29 0
v -34 -36 0
v -35 -36 0
v -35 -35 0
v -34 -35 0
v -33 -36 0
v -34 -36 0
v -34 -35 0
v -33 -35 0
v -32 -36 0
v -33 -36 0
v -33 -35 0
v -32 -35 0
v -34 -37 0
v -35 -37 0
v -35 -36 0
v -34 -36 0
v -33 -37 0
v -34 -37 0
v -34 -36 0
v -33 -36 0
v -32 -37 0
v -33 -37 0
v -33 -36 0
v -32 -36 0
v -12 -37 0
v -13 -37 0
v -13 -36 0
v -12 -36 0
v -11 -37 0
v -12 -37 0
v -12 -36 0
v -11 -36 0
v -10 -37 0
v -11 -37 0
v -11 -36 0
v -10 -36 0
v -51 -38 0
v -52 -38 0
v -52 -37 0
v -51 -37 0
v -50 -38 0
v -51 -38 0
v -51 -37 0
v -50 -37 0
v -49 -38 0
v -50 -38 0
v -50 -37 0
v -49 -37 0
v -12 -38 0
v -13 -38 0
v -13 -37 0
v -12 -37 0
v -11 -38 0
v -12 -38 0
v -12 -37 0
v -11 -37 0
v -10 -38 0
v -11 -38 0
v -11 -37 0
v -10 -37 0
v -51 -39 0
v -52 -39 0
v -52 -38 0
v -51 -38 0
v -50 -39 0
v -51 -39 0
v -51 -38 0
v -50 -38 0
v -49 -39 0
v -50 -39 0
v -50 -38 0
v -49 -38 0
v -48 -43 0
v -49 -43 0
v -49 -42 0
v -48 -42 0
v -47 -43 0
v -48 -43 0
v -48 -42 0
v -47 -42 0
v -46 -43 0
v -47 -43 0
v -47 -42 0
v -46 -42 0
v -48 -44 0
v -49 -44 0
v -49 -43 0
v -48 -43 0
v -47 -44 0
v -48 -44 0
v -48 -43 0
v -47 -43 0
v -46 -44 0
v -47 -44 0
v -47 -43 0
v -46 -43 0
v -23 -44 0
v -24 -44 0
v -24 -43 0
v -23 -43 0
v -22 -44 0
v -23 -44 0
v -23 -43 0
v -22 -43 0
v -21 -44 0
v -22 -44 0
v -22 -43 0
v -21 -43 0
v -23 -45 0
v -24 -45 0
v -24 -44 0
v -23 -44 0
v -22 -45 0
v -23 -45 0
v -23 -44 0
v -22 -44 0
v -21 -45 0
v -22 -45 0
v -22 -44 0
v -21 -44 0
v -60 -47 0
v -61 -47 0
v -61 -46 0
v -60 -46 0
v -59 -47 0
v -60 -47 0
v -60 -46 0
v -59 -46 0
v -58 -47 0
v -59 -47 0
v -59 -46 0
v -58 -46 0
v -60 -48 0
v -61 -48 0
v -61 -47 0
v -60 -47 0
v -59 -48 0
v -60 -48 0
v -60 -47 0
v -59 -47 0
v -58 -48 0
v -59 -48 0
v -59 -47 0
v -58 -47 0
v -69 -50 0
v -70 -50 0
v -70 -49 0
v -69 -49 0
v -68 -50 0
v -69 -50 0
v -69 -49 0
v -68 -49 0
v -67 -50 0
v -68 -50 0
v -68 -49 0
v -67 -49 0
v -69 -51 0
v -70 -51 0
v -70 -50 0
v -69 -50 0
v -68 -51 0
v -69 -51 0
v -69 -50 0
v -68 -50 0
v -67 -51 0
v -68 -51 0
v -68 -50 0
v -67 -50 0

# Texture cooridinates (Count = 24)
vt 0.2706032 0.02789986
vt 0.2911653 0.02789986
vt 0.2911653 0.05543351
vt 0.2706032 0.05543351
vt 0.249797 0.02789986
vt 0.2703591 0.02789986
vt 0.2703591 0.05543351
vt 0.249797 0.05543351
vt 0.2289907 0.02789986
vt 0.2495528 0.02789986
vt 0.2495528 0.05543351
vt 0.2289907 0.05543351
vt 0.2706032 0.0001220703
vt 0.2911653 0.0001220703
vt 0.2911653 0.02765572
vt 0.2706032 0.02765572
vt 0.249797 0.0001220703
vt 0.2703591 0.0001220703
vt 0.2703591 0.02765572
vt 0.249797 0.02765572
vt 0.2289907 0.0001220703
vt 0.2495528 0.0001220703
vt 0.2495528 0.02765572
vt 0.2289907 0.02765572

# Normal
vn 0 0 -1

# Mesh description
g ChineseCemetery_mesh_0005

# Faces
f 1/1/1 2/2/1 3/3/1 4/4/1
f 5/5/1 6/6/1 7/7/1 8/8/1
f 9/9/1 10/10/1 11/11/1 12/12/1
f 13/1/1 14/2/1 15/3/1 16/4/1
f 17/5/1 18/6/1 19/7/1 20/8/1
f 21/9/1 22/10/1 23/11/1 24/12/1
f 25/13/1 26/14/1 27/15/1 28/16/1
f 29/17/1 30/18/1 31/19/1 32/20/1
f 33/21/1 34/22/1 35/23/1 36/24/1
f 37/13/1 38/14/1 39/15/1 40/16/1
f 41/17/1 42/18/1 43/19/1 44/20/1
f 45/21/1 46/22/1 47/23/1 48/24/1
f 49/1/1 50/2/1 51/3/1 52/4/1
f 53/5/1 54/6/1 55/7/1 56/8/1
f 57/9/1 58/10/1 59/11/1 60/12/1
f 61/1/1 62/2/1 63/3/1 64/4/1
f 65/5/1 66/6/1 67/7/1 68/8/1
f 69/9/1 70/10/1 71/11/1 72/12/1
f 73/13/1 74/14/1 75/15/1 76/16/1
f 77/17/1 78/18/1 79/19/1 80/20/1
f 81/21/1 82/22/1 83/23/1 84/24/1
f 85/13/1 86/14/1 87/15/1 88/16/1
f 89/17/1 90/18/1 91/19/1 92/20/1
f 93/21/1 94/22/1 95/23/1 96/24/1
f 97/1/1 98/2/1 99/3/1 100/4/1
f 101/5/1 102/6/1 103/7/1 104/8/1
f 105/9/1 106/10/1 107/11/1 108/12/1
f 109/13/1 110/14/1 111/15/1 112/16/1
f 113/17/1 114/18/1 115/19/1 116/20/1
f 117/21/1 118/22/1 119/23/1 120/24/1
f 121/1/1 122/2/1 123/3/1 124/4/1
f 125/5/1 126/6/1 127/7/1 128/8/1
f 129/9/1 130/10/1 131/11/1 132/12/1
f 133/1/1 134/2/1 135/3/1 136/4/1
f 137/5/1 138/6/1 139/7/1 140/8/1
f 141/9/1 142/10/1 143/11/1 144/12/1
f 145/13/1 146/14/1 147/15/1 148/16/1
f 149/17/1 150/18/1 151/19/1 152/20/1
f 153/21/1 154/22/1 155/23/1 156/24/1
f 157/13/1 158/14/1 159/15/1 160/16/1
f 161/17/1 162/18/1 163/19/1 164/20/1
f 165/21/1 166/22/1 167/23/1 168/24/1
f 169/1/1 170/2/1 171/3/1 172/4/1
f 173/5/1 174/6/1 175/7/1 176/8/1
f 177/9/1 178/10/1 179/11/1 180/12/1
f 181/13/1 182/14/1 183/15/1 184/16/1
f 185/17/1 186/18/1 187/19/1 188/20/1
f 189/21/1 190/22/1 191/23/1 192/24/1
f 193/1/1 194/2/1 195/3/1 196/4/1
f 197/5/1 198/6/1 199/7/1 200/8/1
f 201/9/1 202/10/1 203/11/1 204/12/1
f 205/13/1 206/14/1 207/15/1 208/16/1
f 209/17/1 210/18/1 211/19/1 212/20/1
f 213/21/1 214/22/1 215/23/1 216/24/1
f 217/1/1 218/2/1 219/3/1 220/4/1
f 221/5/1 222/6/1 223/7/1 224/8/1
f 225/9/1 226/10/1 227/11/1 228/12/1
f 229/13/1 230/14/1 231/15/1 232/16/1
f 233/17/1 234/18/1 235/19/1 236/20/1
f 237/21/1 238/22/1 239/23/1 240/24/1
f 241/1/1 242/2/1 243/3/1 244/4/1
f 245/5/1 246/6/1 247/7/1 248/8/1
f 249/9/1 250/10/1 251/11/1 252/12/1
f 253/13/1 254/14/1 255/15/1 256/16/1
f 257/17/1 258/18/1 259/19/1 260/20/1
f 261/21/1 262/22/1 263/23/1 264/24/1
f 265/1/1 266/2/1 267/3/1 268/4/1
f 269/5/1 270/6/1 271/7/1 272/8/1
f 273/9/1 274/10/1 275/11/1 276/12/1
f 277/13/1 278/14/1 279/15/1 280/16/1
f 281/17/1 282/18/1 283/19/1 284/20/1
f 285/21/1 286/22/1 287/23/1 288/24/1
f 289/1/1 290/2/1 291/3/1 292/4/1
f 293/5/1 294/6/1 295/7/1 296/8/1
f 297/9/1 298/10/1 299/11/1 300/12/1
f 301/1/1 302/2/1 303/3/1 304/4/1
f 305/5/1 306/6/1 307/7/1 308/8/1
f 309/9/1 310/10/1 311/11/1 312/12/1
f 313/13/1 314/14/1 315/15/1 316/16/1
f 317/17/1 318/18/1 319/19/1 320/20/1
f 321/21/1 322/22/1 323/23/1 324/24/1
f 325/13/1 326/14/1 327/15/1 328/16/1
f 329/17/1 330/18/1 331/19/1 332/20/1
f 333/21/1 334/22/1 335/23/1 336/24/1
f 337/1/1 338/2/1 339/3/1 340/4/1
f 341/5/1 342/6/1 343/7/1 344/8/1
f 345/9/1 346/10/1 347/11/1 348/12/1
f 349/13/1 350/14/1 351/15/1 352/16/1
f 353/17/1 354/18/1 355/19/1 356/20/1
f 357/21/1 358/22/1 359/23/1 360/24/1
f 361/1/1 362/2/1 363/3/1 364/4/1
f 365/5/1 366/6/1 367/7/1 368/8/1
f 369/9/1 370/10/1 371/11/1 372/12/1
f 373/13/1 374/14/1 375/15/1 376/16/1
f 377/17/1 378/18/1 379/19/1 380/20/1
f 381/21/1 382/22/1 383/23/1 384/24/1
f 385/1/1 386/2/1 387/3/1 388/4/1
f 389/5/1 390/6/1 391/7/1 392/8/1
f 393/9/1 394/10/1 395/11/1 396/12/1
f 397/13/1 398/14/1 399/15/1 400/16/1
f 401/17/1 402/18/1 403/19/1 404/20/1
f 405/21/1 406/22/1 407/23/1 408/24/1
f 409/1/1 410/2/1 411/3/1 412/4/1
f 413/5/1 414/6/1 415/7/1 416/8/1
f 417/9/1 418/10/1 419/11/1 420/12/1
f 421/13/1 422/14/1 423/15/1 424/16/1
f 425/17/1 426/18/1 427/19/1 428/20/1
f 429/21/1 430/22/1 431/23/1 432/24/1

