# Tiled2Unity generated file. Do not modify by hand.
# Wavefront file for 'Tiniwisan_mesh_0003.obj'

# Vertices (Count = 232)
v -16 -10 0
v -17 -10 0
v -17 -9 0
v -16 -9 0
v -17 -10 0
v -18 -10 0
v -18 -9 0
v -17 -9 0
v -18 -10 0
v -19 -10 0
v -19 -9 0
v -18 -9 0
v -19 -10 0
v -20 -10 0
v -20 -9 0
v -19 -9 0
v -20 -10 0
v -21 -10 0
v -21 -9 0
v -20 -9 0
v -21 -10 0
v -22 -10 0
v -22 -9 0
v -21 -9 0
v -22 -10 0
v -23 -10 0
v -23 -9 0
v -22 -9 0
v -16 -11 0
v -17 -11 0
v -17 -10 0
v -16 -10 0
v -17 -11 0
v -18 -11 0
v -18 -10 0
v -17 -10 0
v -18 -11 0
v -19 -11 0
v -19 -10 0
v -18 -10 0
v -19 -11 0
v -20 -11 0
v -20 -10 0
v -19 -10 0
v -20 -11 0
v -21 -11 0
v -21 -10 0
v -20 -10 0
v -21 -11 0
v -22 -11 0
v -22 -10 0
v -21 -10 0
v -22 -11 0
v -23 -11 0
v -23 -10 0
v -22 -10 0
v -29 -27 0
v -30 -27 0
v -30 -26 0
v -29 -26 0
v -30 -27 0
v -31 -27 0
v -31 -26 0
v -30 -26 0
v -31 -27 0
v -32 -27 0
v -32 -26 0
v -31 -26 0
v -32 -27 0
v -33 -27 0
v -33 -26 0
v -32 -26 0
v -33 -27 0
v -34 -27 0
v -34 -26 0
v -33 -26 0
v -34 -27 0
v -35 -27 0
v -35 -26 0
v -34 -26 0
v -35 -27 0
v -36 -27 0
v -36 -26 0
v -35 -26 0
v -29 -28 0
v -30 -28 0
v -30 -27 0
v -29 -27 0
v -30 -28 0
v -31 -28 0
v -31 -27 0
v -30 -27 0
v -31 -28 0
v -32 -28 0
v -32 -27 0
v -31 -27 0
v -32 -28 0
v -33 -28 0
v -33 -27 0
v -32 -27 0
v -33 -28 0
v -34 -28 0
v -34 -27 0
v -33 -27 0
v -34 -28 0
v -35 -28 0
v -35 -27 0
v -34 -27 0
v -35 -28 0
v -36 -28 0
v -36 -27 0
v -35 -27 0
v -29 -29 0
v -30 -29 0
v -30 -28 0
v -29 -28 0
v -30 -29 0
v -31 -29 0
v -31 -28 0
v -30 -28 0
v -31 -29 0
v -32 -29 0
v -32 -28 0
v -31 -28 0
v -32 -29 0
v -33 -29 0
v -33 -28 0
v -32 -28 0
v -33 -29 0
v -34 -29 0
v -34 -28 0
v -33 -28 0
v -34 -29 0
v -35 -29 0
v -35 -28 0
v -34 -28 0
v -35 -29 0
v -36 -29 0
v -36 -28 0
v -35 -28 0
v -40 -42 0
v -41 -42 0
v -41 -41 0
v -40 -41 0
v -41 -42 0
v -42 -42 0
v -42 -41 0
v -41 -41 0
v -42 -42 0
v -43 -42 0
v -43 -41 0
v -42 -41 0
v -40 -43 0
v -41 -43 0
v -41 -42 0
v -40 -42 0
v -41 -43 0
v -42 -43 0
v -42 -42 0
v -41 -42 0
v -42 -43 0
v -43 -43 0
v -43 -42 0
v -42 -42 0
v -40 -44 0
v -41 -44 0
v -41 -43 0
v -40 -43 0
v -41 -44 0
v -42 -44 0
v -42 -43 0
v -41 -43 0
v -42 -44 0
v -43 -44 0
v -43 -43 0
v -42 -43 0
v -5 -47 0
v -6 -47 0
v -6 -46 0
v -5 -46 0
v -6 -47 0
v -7 -47 0
v -7 -46 0
v -6 -46 0
v -7 -47 0
v -8 -47 0
v -8 -46 0
v -7 -46 0
v -8 -47 0
v -9 -47 0
v -9 -46 0
v -8 -46 0
v -9 -47 0
v -10 -47 0
v -10 -46 0
v -9 -46 0
v -10 -47 0
v -11 -47 0
v -11 -46 0
v -10 -46 0
v -11 -47 0
v -12 -47 0
v -12 -46 0
v -11 -46 0
v -5 -48 0
v -6 -48 0
v -6 -47 0
v -5 -47 0
v -6 -48 0
v -7 -48 0
v -7 -47 0
v -6 -47 0
v -7 -48 0
v -8 -48 0
v -8 -47 0
v -7 -47 0
v -8 -48 0
v -9 -48 0
v -9 -47 0
v -8 -47 0
v -9 -48 0
v -10 -48 0
v -10 -47 0
v -9 -47 0
v -10 -48 0
v -11 -48 0
v -11 -47 0
v -10 -47 0
v -11 -48 0
v -12 -48 0
v -12 -47 0
v -11 -47 0

# Texture cooridinates (Count = 72)
vt 0.2068966 0.7631579
vt 0.2241379 0.7631579
vt 0.2241379 0.7894737
vt 0.2068966 0.7894737
vt 0.2413793 0.7631579
vt 0.2413793 0.7894737
vt 0.2586207 0.7631579
vt 0.2586207 0.7894737
vt 0.2758621 0.7631579
vt 0.2758621 0.7894737
vt 0.2931035 0.7631579
vt 0.2931035 0.7894737
vt 0.3103448 0.7631579
vt 0.3103448 0.7894737
vt 0.3275862 0.7631579
vt 0.3275862 0.7894737
vt 0.2068966 0.7368421
vt 0.2241379 0.7368421
vt 0.2413793 0.7368421
vt 0.2586207 0.7368421
vt 0.2758621 0.7368421
vt 0.2931035 0.7368421
vt 0.3103448 0.7368421
vt 0.3275862 0.7368421
vt 0.862069 0.6842105
vt 0.8793104 0.6842105
vt 0.8793104 0.7105263
vt 0.862069 0.7105263
vt 0.8965517 0.6842105
vt 0.8965517 0.7105263
vt 0.9137931 0.6842105
vt 0.9137931 0.7105263
vt 0.9310345 0.6842105
vt 0.9310345 0.7105263
vt 0.9482759 0.6842105
vt 0.9482759 0.7105263
vt 0.9655172 0.6842105
vt 0.9655172 0.7105263
vt 0.9827586 0.6842105
vt 0.9827586 0.7105263
vt 0.862069 0.6578947
vt 0.8793104 0.6578947
vt 0.8965517 0.6578947
vt 0.9137931 0.6578947
vt 0.9310345 0.6578947
vt 0.9482759 0.6578947
vt 0.9655172 0.6578947
vt 0.9827586 0.6578947
vt 0.862069 0.6315789
vt 0.8793104 0.6315789
vt 0.8965517 0.6315789
vt 0.9137931 0.6315789
vt 0.9310345 0.6315789
vt 0.9482759 0.6315789
vt 0.9655172 0.6315789
vt 0.9827586 0.6315789
vt 0.3275862 0.9473684
vt 0.3448276 0.9473684
vt 0.3448276 0.9736842
vt 0.3275862 0.9736842
vt 0.362069 0.9473684
vt 0.362069 0.9736842
vt 0.3793103 0.9473684
vt 0.3793103 0.9736842
vt 0.3275862 0.9210526
vt 0.3448276 0.9210526
vt 0.362069 0.9210526
vt 0.3793103 0.9210526
vt 0.3275862 0.8947368
vt 0.3448276 0.8947368
vt 0.362069 0.8947368
vt 0.3793103 0.8947368

# Normal
vn 0 0 -1

# Mesh description
g Tiniwisan_mesh_0003

# Faces
f 1/1/1 2/2/1 3/3/1 4/4/1
f 5/2/1 6/5/1 7/6/1 8/3/1
f 9/5/1 10/7/1 11/8/1 12/6/1
f 13/7/1 14/9/1 15/10/1 16/8/1
f 17/9/1 18/11/1 19/12/1 20/10/1
f 21/11/1 22/13/1 23/14/1 24/12/1
f 25/13/1 26/15/1 27/16/1 28/14/1
f 29/17/1 30/18/1 31/2/1 32/1/1
f 33/18/1 34/19/1 35/5/1 36/2/1
f 37/19/1 38/20/1 39/7/1 40/5/1
f 41/20/1 42/21/1 43/9/1 44/7/1
f 45/21/1 46/22/1 47/11/1 48/9/1
f 49/22/1 50/23/1 51/13/1 52/11/1
f 53/23/1 54/24/1 55/15/1 56/13/1
f 57/25/1 58/26/1 59/27/1 60/28/1
f 61/26/1 62/29/1 63/30/1 64/27/1
f 65/29/1 66/31/1 67/32/1 68/30/1
f 69/31/1 70/33/1 71/34/1 72/32/1
f 73/33/1 74/35/1 75/36/1 76/34/1
f 77/35/1 78/37/1 79/38/1 80/36/1
f 81/37/1 82/39/1 83/40/1 84/38/1
f 85/41/1 86/42/1 87/26/1 88/25/1
f 89/42/1 90/43/1 91/29/1 92/26/1
f 93/43/1 94/44/1 95/31/1 96/29/1
f 97/44/1 98/45/1 99/33/1 100/31/1
f 101/45/1 102/46/1 103/35/1 104/33/1
f 105/46/1 106/47/1 107/37/1 108/35/1
f 109/47/1 110/48/1 111/39/1 112/37/1
f 113/49/1 114/50/1 115/42/1 116/41/1
f 117/50/1 118/51/1 119/43/1 120/42/1
f 121/51/1 122/52/1 123/44/1 124/43/1
f 125/52/1 126/53/1 127/45/1 128/44/1
f 129/53/1 130/54/1 131/46/1 132/45/1
f 133/54/1 134/55/1 135/47/1 136/46/1
f 137/55/1 138/56/1 139/48/1 140/47/1
f 141/57/1 142/58/1 143/59/1 144/60/1
f 145/58/1 146/61/1 147/62/1 148/59/1
f 149/61/1 150/63/1 151/64/1 152/62/1
f 153/65/1 154/66/1 155/58/1 156/57/1
f 157/66/1 158/67/1 159/61/1 160/58/1
f 161/67/1 162/68/1 163/63/1 164/61/1
f 165/69/1 166/70/1 167/66/1 168/65/1
f 169/70/1 170/71/1 171/67/1 172/66/1
f 173/71/1 174/72/1 175/68/1 176/67/1
f 177/1/1 178/2/1 179/3/1 180/4/1
f 181/2/1 182/5/1 183/6/1 184/3/1
f 185/5/1 186/7/1 187/8/1 188/6/1
f 189/7/1 190/9/1 191/10/1 192/8/1
f 193/9/1 194/11/1 195/12/1 196/10/1
f 197/11/1 198/13/1 199/14/1 200/12/1
f 201/13/1 202/15/1 203/16/1 204/14/1
f 205/17/1 206/18/1 207/2/1 208/1/1
f 209/18/1 210/19/1 211/5/1 212/2/1
f 213/19/1 214/20/1 215/7/1 216/5/1
f 217/20/1 218/21/1 219/9/1 220/7/1
f 221/21/1 222/22/1 223/11/1 224/9/1
f 225/22/1 226/23/1 227/13/1 228/11/1
f 229/23/1 230/24/1 231/15/1 232/13/1

