# Tiled2Unity generated file. Do not modify by hand.
# Wavefront file for 'Tiniwisan_mesh_0004.obj'

# Vertices (Count = 468)
v -37 -1 0
v -38 -1 0
v -38 0 0
v -37 0 0
v -38 -1 0
v -39 -1 0
v -39 0 0
v -38 0 0
v -39 -1 0
v -40 -1 0
v -40 0 0
v -39 0 0
v -40 -1 0
v -41 -1 0
v -41 0 0
v -40 0 0
v -44 -1 0
v -45 -1 0
v -45 0 0
v -44 0 0
v -45 -1 0
v -46 -1 0
v -46 0 0
v -45 0 0
v -46 -1 0
v -47 -1 0
v -47 0 0
v -46 0 0
v -47 -1 0
v -48 -1 0
v -48 0 0
v -47 0 0
v -37 -2 0
v -38 -2 0
v -38 -1 0
v -37 -1 0
v -38 -2 0
v -39 -2 0
v -39 -1 0
v -38 -1 0
v -39 -2 0
v -40 -2 0
v -40 -1 0
v -39 -1 0
v -40 -2 0
v -41 -2 0
v -41 -1 0
v -40 -1 0
v -44 -2 0
v -45 -2 0
v -45 -1 0
v -44 -1 0
v -45 -2 0
v -46 -2 0
v -46 -1 0
v -45 -1 0
v -46 -2 0
v -47 -2 0
v -47 -1 0
v -46 -1 0
v -47 -2 0
v -48 -2 0
v -48 -1 0
v -47 -1 0
v -16 -3 0
v -17 -3 0
v -17 -2 0
v -16 -2 0
v -17 -3 0
v -18 -3 0
v -18 -2 0
v -17 -2 0
v -18 -3 0
v -19 -3 0
v -19 -2 0
v -18 -2 0
v -28 -3 0
v -29 -3 0
v -29 -2 0
v -28 -2 0
v -29 -3 0
v -30 -3 0
v -30 -2 0
v -29 -2 0
v -31 -3 0
v -32 -3 0
v -32 -2 0
v -31 -2 0
v -32 -3 0
v -33 -3 0
v -33 -2 0
v -32 -2 0
v -37 -3 0
v -38 -3 0
v -38 -2 0
v -37 -2 0
v -40 -3 0
v -41 -3 0
v -41 -2 0
v -40 -2 0
v -44 -3 0
v -45 -3 0
v -45 -2 0
v -44 -2 0
v -47 -3 0
v -48 -3 0
v -48 -2 0
v -47 -2 0
v -16 -4 0
v -17 -4 0
v -17 -3 0
v -16 -3 0
v -17 -4 0
v -18 -4 0
v -18 -3 0
v -17 -3 0
v -18 -4 0
v -19 -4 0
v -19 -3 0
v -18 -3 0
v -16 -5 0
v -17 -5 0
v -17 -4 0
v -16 -4 0
v -17 -5 0
v -18 -5 0
v -18 -4 0
v -17 -4 0
v -18 -5 0
v -19 -5 0
v -19 -4 0
v -18 -4 0
v -29 -5 0
v -30 -5 0
v -30 -4 0
v -29 -4 0
v -30 -5 0
v -31 -5 0
v -31 -4 0
v -30 -4 0
v -40 -5 0
v -41 -5 0
v -41 -4 0
v -40 -4 0
v -41 -5 0
v -42 -5 0
v -42 -4 0
v -41 -4 0
v -42 -5 0
v -43 -5 0
v -43 -4 0
v -42 -4 0
v -43 -5 0
v -44 -5 0
v -44 -4 0
v -43 -4 0
v -44 -5 0
v -45 -5 0
v -45 -4 0
v -44 -4 0
v -45 -5 0
v -46 -5 0
v -46 -4 0
v -45 -4 0
v -46 -5 0
v -47 -5 0
v -47 -4 0
v -46 -4 0
v -47 -5 0
v -48 -5 0
v -48 -4 0
v -47 -4 0
v -16 -6 0
v -17 -6 0
v -17 -5 0
v -16 -5 0
v -40 -6 0
v -41 -6 0
v -41 -5 0
v -40 -5 0
v -41 -6 0
v -42 -6 0
v -42 -5 0
v -41 -5 0
v -42 -6 0
v -43 -6 0
v -43 -5 0
v -42 -5 0
v -43 -6 0
v -44 -6 0
v -44 -5 0
v -43 -5 0
v -44 -6 0
v -45 -6 0
v -45 -5 0
v -44 -5 0
v -45 -6 0
v -46 -6 0
v -46 -5 0
v -45 -5 0
v -46 -6 0
v -47 -6 0
v -47 -5 0
v -46 -5 0
v -47 -6 0
v -48 -6 0
v -48 -5 0
v -47 -5 0
v -40 -7 0
v -41 -7 0
v -41 -6 0
v -40 -6 0
v -41 -7 0
v -42 -7 0
v -42 -6 0
v -41 -6 0
v -42 -7 0
v -43 -7 0
v -43 -6 0
v -42 -6 0
v -43 -7 0
v -44 -7 0
v -44 -6 0
v -43 -6 0
v -44 -7 0
v -45 -7 0
v -45 -6 0
v -44 -6 0
v -45 -7 0
v -46 -7 0
v -46 -6 0
v -45 -6 0
v -46 -7 0
v -47 -7 0
v -47 -6 0
v -46 -6 0
v -47 -7 0
v -48 -7 0
v -48 -6 0
v -47 -6 0
v -40 -8 0
v -41 -8 0
v -41 -7 0
v -40 -7 0
v -43 -8 0
v -44 -8 0
v -44 -7 0
v -43 -7 0
v -44 -8 0
v -45 -8 0
v -45 -7 0
v -44 -7 0
v -45 -8 0
v -46 -8 0
v -46 -7 0
v -45 -7 0
v -46 -8 0
v -47 -8 0
v -47 -7 0
v -46 -7 0
v -47 -8 0
v -48 -8 0
v -48 -7 0
v -47 -7 0
v -48 -8 0
v -49 -8 0
v -49 -7 0
v -48 -7 0
v -12 -9 0
v -13 -9 0
v -13 -8 0
v -12 -8 0
v -13 -9 0
v -14 -9 0
v -14 -8 0
v -13 -8 0
v -14 -9 0
v -15 -9 0
v -15 -8 0
v -14 -8 0
v -45 -9 0
v -46 -9 0
v -46 -8 0
v -45 -8 0
v -46 -9 0
v -47 -9 0
v -47 -8 0
v -46 -8 0
v -47 -9 0
v -48 -9 0
v -48 -8 0
v -47 -8 0
v -48 -9 0
v -49 -9 0
v -49 -8 0
v -48 -8 0
v -45 -10 0
v -46 -10 0
v -46 -9 0
v -45 -9 0
v -46 -10 0
v -47 -10 0
v -47 -9 0
v -46 -9 0
v -47 -10 0
v -48 -10 0
v -48 -9 0
v -47 -9 0
v -48 -10 0
v -49 -10 0
v -49 -9 0
v -48 -9 0
v -12 -11 0
v -13 -11 0
v -13 -10 0
v -12 -10 0
v -13 -11 0
v -14 -11 0
v -14 -10 0
v -13 -10 0
v -14 -11 0
v -15 -11 0
v -15 -10 0
v -14 -10 0
v -45 -11 0
v -46 -11 0
v -46 -10 0
v -45 -10 0
v -48 -11 0
v -49 -11 0
v -49 -10 0
v -48 -10 0
v -38 -12 0
v -39 -12 0
v -39 -11 0
v -38 -11 0
v -39 -12 0
v -40 -12 0
v -40 -11 0
v -39 -11 0
v -29 -18 0
v -30 -18 0
v -30 -17 0
v -29 -17 0
v -30 -18 0
v -31 -18 0
v -31 -17 0
v -30 -17 0
v -34 -23 0
v -35 -23 0
v -35 -22 0
v -34 -22 0
v -35 -23 0
v -36 -23 0
v -36 -22 0
v -35 -22 0
v -21 -26 0
v -22 -26 0
v -22 -25 0
v -21 -25 0
v -23 -26 0
v -24 -26 0
v -24 -25 0
v -23 -25 0
v -24 -26 0
v -25 -26 0
v -25 -25 0
v -24 -25 0
v -25 -26 0
v -26 -26 0
v -26 -25 0
v -25 -25 0
v -43 -28 0
v -44 -28 0
v -44 -27 0
v -43 -27 0
v -44 -28 0
v -45 -28 0
v -45 -27 0
v -44 -27 0
v -44 -33 0
v -45 -33 0
v -45 -32 0
v -44 -32 0
v -45 -33 0
v -46 -33 0
v -46 -32 0
v -45 -32 0
v -46 -33 0
v -47 -33 0
v -47 -32 0
v -46 -32 0
v -44 -34 0
v -45 -34 0
v -45 -33 0
v -44 -33 0
v -45 -34 0
v -46 -34 0
v -46 -33 0
v -45 -33 0
v -46 -34 0
v -47 -34 0
v -47 -33 0
v -46 -33 0
v -44 -35 0
v -45 -35 0
v -45 -34 0
v -44 -34 0
v -45 -35 0
v -46 -35 0
v -46 -34 0
v -45 -34 0
v -46 -35 0
v -47 -35 0
v -47 -34 0
v -46 -34 0
v -44 -36 0
v -45 -36 0
v -45 -35 0
v -44 -35 0
v -23 -43 0
v -24 -43 0
v -24 -42 0
v -23 -42 0
v -24 -43 0
v -25 -43 0
v -25 -42 0
v -24 -42 0
v -30 -43 0
v -31 -43 0
v -31 -42 0
v -30 -42 0
v -31 -43 0
v -32 -43 0
v -32 -42 0
v -31 -42 0
v -34 -43 0
v -35 -43 0
v -35 -42 0
v -34 -42 0
v -35 -43 0
v -36 -43 0
v -36 -42 0
v -35 -42 0
v -34 -48 0
v -35 -48 0
v -35 -47 0
v -34 -47 0
v -35 -48 0
v -36 -48 0
v -36 -47 0
v -35 -47 0
v -40 -48 0
v -41 -48 0
v -41 -47 0
v -40 -47 0
v -41 -48 0
v -42 -48 0
v -42 -47 0
v -41 -47 0
v -45 -48 0
v -46 -48 0
v -46 -47 0
v -45 -47 0
v -46 -48 0
v -47 -48 0
v -47 -47 0
v -46 -47 0

# Texture cooridinates (Count = 132)
vt 0.0001220703 0.05567765
vt 0.02068417 0.05567765
vt 0.02068417 0.08321124
vt 0.0001220703 0.08321124
vt 0.02092831 0.05567765
vt 0.04149041 0.05567765
vt 0.04149041 0.08321124
vt 0.02092831 0.08321124
vt 0.04173455 0.05567765
vt 0.06229666 0.05567765
vt 0.06229666 0.08321124
vt 0.04173455 0.08321124
vt 0.0625408 0.05567765
vt 0.0831029 0.05567765
vt 0.0831029 0.08321124
vt 0.0625408 0.08321124
vt 0.0001220703 0.02789986
vt 0.02068417 0.02789986
vt 0.02068417 0.05543351
vt 0.0001220703 0.05543351
vt 0.02092831 0.02789986
vt 0.04149041 0.02789986
vt 0.04149041 0.05543351
vt 0.02092831 0.05543351
vt 0.04173455 0.02789986
vt 0.06229666 0.02789986
vt 0.06229666 0.05543351
vt 0.04173455 0.05543351
vt 0.0625408 0.02789986
vt 0.0831029 0.02789986
vt 0.0831029 0.05543351
vt 0.0625408 0.05543351
vt 0.08334704 0.08345538
vt 0.1039091 0.08345538
vt 0.1039091 0.110989
vt 0.08334704 0.110989
vt 0.1041533 0.08345538
vt 0.1247154 0.08345538
vt 0.1247154 0.110989
vt 0.1041533 0.110989
vt 0.1249595 0.08345538
vt 0.1455216 0.08345538
vt 0.1455216 0.110989
vt 0.1249595 0.110989
vt 0.1041533 0.5278999
vt 0.1247154 0.5278999
vt 0.1247154 0.5554335
vt 0.1041533 0.5554335
vt 0.1249595 0.5278999
vt 0.1455216 0.5278999
vt 0.1455216 0.5554335
vt 0.1249595 0.5554335
vt 0.0001220703 0.0001220703
vt 0.02068417 0.0001220703
vt 0.02068417 0.02765572
vt 0.0001220703 0.02765572
vt 0.0625408 0.0001220703
vt 0.0831029 0.0001220703
vt 0.0831029 0.02765572
vt 0.0625408 0.02765572
vt 0.08334704 0.05567765
vt 0.1039091 0.05567765
vt 0.1039091 0.08321124
vt 0.08334704 0.08321124
vt 0.1041533 0.05567765
vt 0.1247154 0.05567765
vt 0.1247154 0.08321124
vt 0.1041533 0.08321124
vt 0.1249595 0.05567765
vt 0.1455216 0.05567765
vt 0.1455216 0.08321124
vt 0.1249595 0.08321124
vt 0.08334704 0.02789986
vt 0.1039091 0.02789986
vt 0.1039091 0.05543351
vt 0.08334704 0.05543351
vt 0.1041533 0.02789986
vt 0.1247154 0.02789986
vt 0.1247154 0.05543351
vt 0.1041533 0.05543351
vt 0.1249595 0.02789986
vt 0.1455216 0.02789986
vt 0.1455216 0.05543351
vt 0.1249595 0.05543351
vt 0.0001220703 0.08345538
vt 0.02068417 0.08345538
vt 0.02068417 0.110989
vt 0.0001220703 0.110989
vt 0.02092831 0.08345538
vt 0.04149041 0.08345538
vt 0.04149041 0.110989
vt 0.02092831 0.110989
vt 0.04173455 0.08345538
vt 0.06229666 0.08345538
vt 0.06229666 0.110989
vt 0.04173455 0.110989
vt 0.0625408 0.08345538
vt 0.0831029 0.08345538
vt 0.0831029 0.110989
vt 0.0625408 0.110989
vt 0.08334704 0.0001220703
vt 0.1039091 0.0001220703
vt 0.1039091 0.02765572
vt 0.08334704 0.02765572
vt 0.5826969 0.8612332
vt 0.603259 0.8612332
vt 0.603259 0.8887668
vt 0.5826969 0.8887668
vt 0.6035031 0.8612332
vt 0.6240652 0.8612332
vt 0.6240652 0.8887668
vt 0.6035031 0.8887668
vt 0.6243093 0.8612332
vt 0.6448714 0.8612332
vt 0.6448714 0.8887668
vt 0.6243093 0.8887668
vt 0.7283405 0.6945665
vt 0.7489026 0.6945665
vt 0.7489026 0.7221001
vt 0.7283405 0.7221001
vt 0.7491468 0.6945665
vt 0.7697089 0.6945665
vt 0.7697089 0.7221001
vt 0.7491468 0.7221001
vt 0.769953 0.6945665
vt 0.7905151 0.6945665
vt 0.7905151 0.7221001
vt 0.769953 0.7221001
vt 0.5410843 0.8612332
vt 0.5616465 0.8612332
vt 0.5616465 0.8887668
vt 0.5410843 0.8887668

# Normal
vn 0 0 -1

# Mesh description
g Tiniwisan_mesh_0004

# Faces
f 1/1/1 2/2/1 3/3/1 4/4/1
f 5/5/1 6/6/1 7/7/1 8/8/1
f 9/9/1 10/10/1 11/11/1 12/12/1
f 13/13/1 14/14/1 15/15/1 16/16/1
f 17/1/1 18/2/1 19/3/1 20/4/1
f 21/5/1 22/6/1 23/7/1 24/8/1
f 25/9/1 26/10/1 27/11/1 28/12/1
f 29/13/1 30/14/1 31/15/1 32/16/1
f 33/17/1 34/18/1 35/19/1 36/20/1
f 37/21/1 38/22/1 39/23/1 40/24/1
f 41/25/1 42/26/1 43/27/1 44/28/1
f 45/29/1 46/30/1 47/31/1 48/32/1
f 49/17/1 50/18/1 51/19/1 52/20/1
f 53/21/1 54/22/1 55/23/1 56/24/1
f 57/25/1 58/26/1 59/27/1 60/28/1
f 61/29/1 62/30/1 63/31/1 64/32/1
f 65/33/1 66/34/1 67/35/1 68/36/1
f 69/37/1 70/38/1 71/39/1 72/40/1
f 73/41/1 74/42/1 75/43/1 76/44/1
f 77/45/1 78/46/1 79/47/1 80/48/1
f 81/49/1 82/50/1 83/51/1 84/52/1
f 85/45/1 86/46/1 87/47/1 88/48/1
f 89/49/1 90/50/1 91/51/1 92/52/1
f 93/53/1 94/54/1 95/55/1 96/56/1
f 97/57/1 98/58/1 99/59/1 100/60/1
f 101/53/1 102/54/1 103/55/1 104/56/1
f 105/57/1 106/58/1 107/59/1 108/60/1
f 109/61/1 110/62/1 111/63/1 112/64/1
f 113/65/1 114/66/1 115/67/1 116/68/1
f 117/69/1 118/70/1 119/71/1 120/72/1
f 121/73/1 122/74/1 123/75/1 124/76/1
f 125/77/1 126/78/1 127/79/1 128/80/1
f 129/81/1 130/82/1 131/83/1 132/84/1
f 133/45/1 134/46/1 135/47/1 136/48/1
f 137/49/1 138/50/1 139/51/1 140/52/1
f 141/85/1 142/86/1 143/87/1 144/88/1
f 145/89/1 146/90/1 147/91/1 148/92/1
f 149/93/1 150/94/1 151/95/1 152/96/1
f 153/97/1 154/98/1 155/99/1 156/100/1
f 157/85/1 158/86/1 159/87/1 160/88/1
f 161/89/1 162/90/1 163/91/1 164/92/1
f 165/93/1 166/94/1 167/95/1 168/96/1
f 169/97/1 170/98/1 171/99/1 172/100/1
f 173/101/1 174/102/1 175/103/1 176/104/1
f 177/1/1 178/2/1 179/3/1 180/4/1
f 181/5/1 182/6/1 183/7/1 184/8/1
f 185/9/1 186/10/1 187/11/1 188/12/1
f 189/13/1 190/14/1 191/15/1 192/16/1
f 193/1/1 194/2/1 195/3/1 196/4/1
f 197/5/1 198/6/1 199/7/1 200/8/1
f 201/9/1 202/10/1 203/11/1 204/12/1
f 205/13/1 206/14/1 207/15/1 208/16/1
f 209/17/1 210/18/1 211/19/1 212/20/1
f 213/21/1 214/22/1 215/23/1 216/24/1
f 217/25/1 218/26/1 219/27/1 220/28/1
f 221/29/1 222/30/1 223/31/1 224/32/1
f 225/17/1 226/18/1 227/19/1 228/20/1
f 229/21/1 230/22/1 231/23/1 232/24/1
f 233/25/1 234/26/1 235/27/1 236/28/1
f 237/29/1 238/30/1 239/31/1 240/32/1
f 241/53/1 242/54/1 243/55/1 244/56/1
f 245/57/1 246/58/1 247/59/1 248/60/1
f 249/53/1 250/54/1 251/55/1 252/56/1
f 253/85/1 254/86/1 255/87/1 256/88/1
f 257/89/1 258/90/1 259/91/1 260/92/1
f 261/93/1 262/94/1 263/95/1 264/96/1
f 265/97/1 266/98/1 267/99/1 268/100/1
f 269/105/1 270/106/1 271/107/1 272/108/1
f 273/109/1 274/110/1 275/111/1 276/112/1
f 277/113/1 278/114/1 279/115/1 280/116/1
f 281/1/1 282/2/1 283/3/1 284/4/1
f 285/5/1 286/6/1 287/7/1 288/8/1
f 289/9/1 290/10/1 291/11/1 292/12/1
f 293/13/1 294/14/1 295/15/1 296/16/1
f 297/17/1 298/18/1 299/19/1 300/20/1
f 301/21/1 302/22/1 303/23/1 304/24/1
f 305/25/1 306/26/1 307/27/1 308/28/1
f 309/29/1 310/30/1 311/31/1 312/32/1
f 313/117/1 314/118/1 315/119/1 316/120/1
f 317/121/1 318/122/1 319/123/1 320/124/1
f 321/125/1 322/126/1 323/127/1 324/128/1
f 325/53/1 326/54/1 327/55/1 328/56/1
f 329/57/1 330/58/1 331/59/1 332/60/1
f 333/45/1 334/46/1 335/47/1 336/48/1
f 337/49/1 338/50/1 339/51/1 340/52/1
f 341/45/1 342/46/1 343/47/1 344/48/1
f 345/49/1 346/50/1 347/51/1 348/52/1
f 349/45/1 350/46/1 351/47/1 352/48/1
f 353/49/1 354/50/1 355/51/1 356/52/1
f 357/129/1 358/130/1 359/131/1 360/132/1
f 361/117/1 362/118/1 363/119/1 364/120/1
f 365/121/1 366/122/1 367/123/1 368/124/1
f 369/125/1 370/126/1 371/127/1 372/128/1
f 373/45/1 374/46/1 375/47/1 376/48/1
f 377/49/1 378/50/1 379/51/1 380/52/1
f 381/33/1 382/34/1 383/35/1 384/36/1
f 385/37/1 386/38/1 387/39/1 388/40/1
f 389/41/1 390/42/1 391/43/1 392/44/1
f 393/61/1 394/62/1 395/63/1 396/64/1
f 397/65/1 398/66/1 399/67/1 400/68/1
f 401/69/1 402/70/1 403/71/1 404/72/1
f 405/73/1 406/74/1 407/75/1 408/76/1
f 409/77/1 410/78/1 411/79/1 412/80/1
f 413/81/1 414/82/1 415/83/1 416/84/1
f 417/101/1 418/102/1 419/103/1 420/104/1
f 421/45/1 422/46/1 423/47/1 424/48/1
f 425/49/1 426/50/1 427/51/1 428/52/1
f 429/45/1 430/46/1 431/47/1 432/48/1
f 433/49/1 434/50/1 435/51/1 436/52/1
f 437/45/1 438/46/1 439/47/1 440/48/1
f 441/49/1 442/50/1 443/51/1 444/52/1
f 445/45/1 446/46/1 447/47/1 448/48/1
f 449/49/1 450/50/1 451/51/1 452/52/1
f 453/45/1 454/46/1 455/47/1 456/48/1
f 457/49/1 458/50/1 459/51/1 460/52/1
f 461/45/1 462/46/1 463/47/1 464/48/1
f 465/49/1 466/50/1 467/51/1 468/52/1

