# Tiled2Unity generated file. Do not modify by hand.
# Wavefront file for 'Tiniwisan_mesh_0005.obj'

# Vertices (Count = 836)
v -38 -2 0
v -39 -2 0
v -39 -1 0
v -38 -1 0
v -39 -2 0
v -40 -2 0
v -40 -1 0
v -39 -1 0
v -40 -2 0
v -41 -2 0
v -41 -1 0
v -40 -1 0
v -41 -2 0
v -42 -2 0
v -42 -1 0
v -41 -1 0
v -38 -3 0
v -39 -3 0
v -39 -2 0
v -38 -2 0
v -39 -3 0
v -40 -3 0
v -40 -2 0
v -39 -2 0
v -40 -3 0
v -41 -3 0
v -41 -2 0
v -40 -2 0
v -41 -3 0
v -42 -3 0
v -42 -2 0
v -41 -2 0
v -38 -4 0
v -39 -4 0
v -39 -3 0
v -38 -3 0
v -39 -4 0
v -40 -4 0
v -40 -3 0
v -39 -3 0
v -40 -4 0
v -41 -4 0
v -41 -3 0
v -40 -3 0
v -41 -4 0
v -42 -4 0
v -42 -3 0
v -41 -3 0
v -38 -5 0
v -39 -5 0
v -39 -4 0
v -38 -4 0
v -41 -5 0
v -42 -5 0
v -42 -4 0
v -41 -4 0
v -1 -8 0
v -2 -8 0
v -2 -7 0
v -1 -7 0
v -2 -8 0
v -3 -8 0
v -3 -7 0
v -2 -7 0
v -3 -8 0
v -4 -8 0
v -4 -7 0
v -3 -7 0
v -4 -8 0
v -5 -8 0
v -5 -7 0
v -4 -7 0
v -1 -9 0
v -2 -9 0
v -2 -8 0
v -1 -8 0
v -2 -9 0
v -3 -9 0
v -3 -8 0
v -2 -8 0
v -3 -9 0
v -4 -9 0
v -4 -8 0
v -3 -8 0
v -4 -9 0
v -5 -9 0
v -5 -8 0
v -4 -8 0
v -1 -10 0
v -2 -10 0
v -2 -9 0
v -1 -9 0
v -2 -10 0
v -3 -10 0
v -3 -9 0
v -2 -9 0
v -3 -10 0
v -4 -10 0
v -4 -9 0
v -3 -9 0
v -4 -10 0
v -5 -10 0
v -5 -9 0
v -4 -9 0
v -1 -11 0
v -2 -11 0
v -2 -10 0
v -1 -10 0
v -3 -11 0
v -4 -11 0
v -4 -10 0
v -3 -10 0
v -4 -11 0
v -5 -11 0
v -5 -10 0
v -4 -10 0
v -5 -11 0
v -6 -11 0
v -6 -10 0
v -5 -10 0
v -6 -11 0
v -7 -11 0
v -7 -10 0
v -6 -10 0
v -3 -12 0
v -4 -12 0
v -4 -11 0
v -3 -11 0
v -4 -12 0
v -5 -12 0
v -5 -11 0
v -4 -11 0
v -5 -12 0
v -6 -12 0
v -6 -11 0
v -5 -11 0
v -6 -12 0
v -7 -12 0
v -7 -11 0
v -6 -11 0
v -7 -12 0
v -8 -12 0
v -8 -11 0
v -7 -11 0
v -8 -12 0
v -9 -12 0
v -9 -11 0
v -8 -11 0
v -9 -12 0
v -10 -12 0
v -10 -11 0
v -9 -11 0
v -10 -12 0
v -11 -12 0
v -11 -11 0
v -10 -11 0
v -3 -13 0
v -4 -13 0
v -4 -12 0
v -3 -12 0
v -4 -13 0
v -5 -13 0
v -5 -12 0
v -4 -12 0
v -5 -13 0
v -6 -13 0
v -6 -12 0
v -5 -12 0
v -6 -13 0
v -7 -13 0
v -7 -12 0
v -6 -12 0
v -7 -13 0
v -8 -13 0
v -8 -12 0
v -7 -12 0
v -8 -13 0
v -9 -13 0
v -9 -12 0
v -8 -12 0
v -9 -13 0
v -10 -13 0
v -10 -12 0
v -9 -12 0
v -10 -13 0
v -11 -13 0
v -11 -12 0
v -10 -12 0
v -3 -14 0
v -4 -14 0
v -4 -13 0
v -3 -13 0
v -6 -14 0
v -7 -14 0
v -7 -13 0
v -6 -13 0
v -7 -14 0
v -8 -14 0
v -8 -13 0
v -7 -13 0
v -8 -14 0
v -9 -14 0
v -9 -13 0
v -8 -13 0
v -9 -14 0
v -10 -14 0
v -10 -13 0
v -9 -13 0
v -10 -14 0
v -11 -14 0
v -11 -13 0
v -10 -13 0
v -7 -15 0
v -8 -15 0
v -8 -14 0
v -7 -14 0
v -10 -15 0
v -11 -15 0
v -11 -14 0
v -10 -14 0
v -2 -17 0
v -3 -17 0
v -3 -16 0
v -2 -16 0
v -3 -17 0
v -4 -17 0
v -4 -16 0
v -3 -16 0
v -4 -17 0
v -5 -17 0
v -5 -16 0
v -4 -16 0
v -5 -17 0
v -6 -17 0
v -6 -16 0
v -5 -16 0
v -13 -17 0
v -14 -17 0
v -14 -16 0
v -13 -16 0
v -14 -17 0
v -15 -17 0
v -15 -16 0
v -14 -16 0
v -15 -17 0
v -16 -17 0
v -16 -16 0
v -15 -16 0
v -16 -17 0
v -17 -17 0
v -17 -16 0
v -16 -16 0
v -43 -17 0
v -44 -17 0
v -44 -16 0
v -43 -16 0
v -44 -17 0
v -45 -17 0
v -45 -16 0
v -44 -16 0
v -45 -17 0
v -46 -17 0
v -46 -16 0
v -45 -16 0
v -46 -17 0
v -47 -17 0
v -47 -16 0
v -46 -16 0
v -2 -18 0
v -3 -18 0
v -3 -17 0
v -2 -17 0
v -3 -18 0
v -4 -18 0
v -4 -17 0
v -3 -17 0
v -4 -18 0
v -5 -18 0
v -5 -17 0
v -4 -17 0
v -5 -18 0
v -6 -18 0
v -6 -17 0
v -5 -17 0
v -13 -18 0
v -14 -18 0
v -14 -17 0
v -13 -17 0
v -14 -18 0
v -15 -18 0
v -15 -17 0
v -14 -17 0
v -15 -18 0
v -16 -18 0
v -16 -17 0
v -15 -17 0
v -16 -18 0
v -17 -18 0
v -17 -17 0
v -16 -17 0
v -43 -18 0
v -44 -18 0
v -44 -17 0
v -43 -17 0
v -44 -18 0
v -45 -18 0
v -45 -17 0
v -44 -17 0
v -45 -18 0
v -46 -18 0
v -46 -17 0
v -45 -17 0
v -46 -18 0
v -47 -18 0
v -47 -17 0
v -46 -17 0
v -2 -19 0
v -3 -19 0
v -3 -18 0
v -2 -18 0
v -3 -19 0
v -4 -19 0
v -4 -18 0
v -3 -18 0
v -4 -19 0
v -5 -19 0
v -5 -18 0
v -4 -18 0
v -5 -19 0
v -6 -19 0
v -6 -18 0
v -5 -18 0
v -13 -19 0
v -14 -19 0
v -14 -18 0
v -13 -18 0
v -14 -19 0
v -15 -19 0
v -15 -18 0
v -14 -18 0
v -15 -19 0
v -16 -19 0
v -16 -18 0
v -15 -18 0
v -16 -19 0
v -17 -19 0
v -17 -18 0
v -16 -18 0
v -43 -19 0
v -44 -19 0
v -44 -18 0
v -43 -18 0
v -44 -19 0
v -45 -19 0
v -45 -18 0
v -44 -18 0
v -45 -19 0
v -46 -19 0
v -46 -18 0
v -45 -18 0
v -46 -19 0
v -47 -19 0
v -47 -18 0
v -46 -18 0
v -2 -20 0
v -3 -20 0
v -3 -19 0
v -2 -19 0
v -5 -20 0
v -6 -20 0
v -6 -19 0
v -5 -19 0
v -13 -20 0
v -14 -20 0
v -14 -19 0
v -13 -19 0
v -16 -20 0
v -17 -20 0
v -17 -19 0
v -16 -19 0
v -43 -20 0
v -44 -20 0
v -44 -19 0
v -43 -19 0
v -46 -20 0
v -47 -20 0
v -47 -19 0
v -46 -19 0
v -41 -22 0
v -42 -22 0
v -42 -21 0
v -41 -21 0
v -42 -22 0
v -43 -22 0
v -43 -21 0
v -42 -21 0
v -43 -22 0
v -44 -22 0
v -44 -21 0
v -43 -21 0
v -44 -22 0
v -45 -22 0
v -45 -21 0
v -44 -21 0
v -41 -23 0
v -42 -23 0
v -42 -22 0
v -41 -22 0
v -42 -23 0
v -43 -23 0
v -43 -22 0
v -42 -22 0
v -43 -23 0
v -44 -23 0
v -44 -22 0
v -43 -22 0
v -44 -23 0
v -45 -23 0
v -45 -22 0
v -44 -22 0
v -41 -24 0
v -42 -24 0
v -42 -23 0
v -41 -23 0
v -42 -24 0
v -43 -24 0
v -43 -23 0
v -42 -23 0
v -43 -24 0
v -44 -24 0
v -44 -23 0
v -43 -23 0
v -44 -24 0
v -45 -24 0
v -45 -23 0
v -44 -23 0
v -41 -25 0
v -42 -25 0
v -42 -24 0
v -41 -24 0
v -44 -25 0
v -45 -25 0
v -45 -24 0
v -44 -24 0
v -6 -32 0
v -7 -32 0
v -7 -31 0
v -6 -31 0
v -7 -32 0
v -8 -32 0
v -8 -31 0
v -7 -31 0
v -8 -32 0
v -9 -32 0
v -9 -31 0
v -8 -31 0
v -9 -32 0
v -10 -32 0
v -10 -31 0
v -9 -31 0
v -6 -33 0
v -7 -33 0
v -7 -32 0
v -6 -32 0
v -7 -33 0
v -8 -33 0
v -8 -32 0
v -7 -32 0
v -8 -33 0
v -9 -33 0
v -9 -32 0
v -8 -32 0
v -9 -33 0
v -10 -33 0
v -10 -32 0
v -9 -32 0
v -12 -33 0
v -13 -33 0
v -13 -32 0
v -12 -32 0
v -13 -33 0
v -14 -33 0
v -14 -32 0
v -13 -32 0
v -14 -33 0
v -15 -33 0
v -15 -32 0
v -14 -32 0
v -15 -33 0
v -16 -33 0
v -16 -32 0
v -15 -32 0
v -19 -33 0
v -20 -33 0
v -20 -32 0
v -19 -32 0
v -20 -33 0
v -21 -33 0
v -21 -32 0
v -20 -32 0
v -21 -33 0
v -22 -33 0
v -22 -32 0
v -21 -32 0
v -22 -33 0
v -23 -33 0
v -23 -32 0
v -22 -32 0
v -6 -34 0
v -7 -34 0
v -7 -33 0
v -6 -33 0
v -7 -34 0
v -8 -34 0
v -8 -33 0
v -7 -33 0
v -8 -34 0
v -9 -34 0
v -9 -33 0
v -8 -33 0
v -9 -34 0
v -10 -34 0
v -10 -33 0
v -9 -33 0
v -12 -34 0
v -13 -34 0
v -13 -33 0
v -12 -33 0
v -13 -34 0
v -14 -34 0
v -14 -33 0
v -13 -33 0
v -14 -34 0
v -15 -34 0
v -15 -33 0
v -14 -33 0
v -15 -34 0
v -16 -34 0
v -16 -33 0
v -15 -33 0
v -19 -34 0
v -20 -34 0
v -20 -33 0
v -19 -33 0
v -20 -34 0
v -21 -34 0
v -21 -33 0
v -20 -33 0
v -21 -34 0
v -22 -34 0
v -22 -33 0
v -21 -33 0
v -22 -34 0
v -23 -34 0
v -23 -33 0
v -22 -33 0
v -6 -35 0
v -7 -35 0
v -7 -34 0
v -6 -34 0
v -9 -35 0
v -10 -35 0
v -10 -34 0
v -9 -34 0
v -12 -35 0
v -13 -35 0
v -13 -34 0
v -12 -34 0
v -13 -35 0
v -14 -35 0
v -14 -34 0
v -13 -34 0
v -14 -35 0
v -15 -35 0
v -15 -34 0
v -14 -34 0
v -15 -35 0
v -16 -35 0
v -16 -34 0
v -15 -34 0
v -19 -35 0
v -20 -35 0
v -20 -34 0
v -19 -34 0
v -20 -35 0
v -21 -35 0
v -21 -34 0
v -20 -34 0
v -21 -35 0
v -22 -35 0
v -22 -34 0
v -21 -34 0
v -22 -35 0
v -23 -35 0
v -23 -34 0
v -22 -34 0
v -12 -36 0
v -13 -36 0
v -13 -35 0
v -12 -35 0
v -15 -36 0
v -16 -36 0
v -16 -35 0
v -15 -35 0
v -19 -36 0
v -20 -36 0
v -20 -35 0
v -19 -35 0
v -22 -36 0
v -23 -36 0
v -23 -35 0
v -22 -35 0
v -6 -37 0
v -7 -37 0
v -7 -36 0
v -6 -36 0
v -7 -37 0
v -8 -37 0
v -8 -36 0
v -7 -36 0
v -8 -37 0
v -9 -37 0
v -9 -36 0
v -8 -36 0
v -9 -37 0
v -10 -37 0
v -10 -36 0
v -9 -36 0
v -14 -37 0
v -15 -37 0
v -15 -36 0
v -14 -36 0
v -15 -37 0
v -16 -37 0
v -16 -36 0
v -15 -36 0
v -16 -37 0
v -17 -37 0
v -17 -36 0
v -16 -36 0
v -17 -37 0
v -18 -37 0
v -18 -36 0
v -17 -36 0
v -6 -38 0
v -7 -38 0
v -7 -37 0
v -6 -37 0
v -7 -38 0
v -8 -38 0
v -8 -37 0
v -7 -37 0
v -8 -38 0
v -9 -38 0
v -9 -37 0
v -8 -37 0
v -9 -38 0
v -10 -38 0
v -10 -37 0
v -9 -37 0
v -14 -38 0
v -15 -38 0
v -15 -37 0
v -14 -37 0
v -15 -38 0
v -16 -38 0
v -16 -37 0
v -15 -37 0
v -16 -38 0
v -17 -38 0
v -17 -37 0
v -16 -37 0
v -17 -38 0
v -18 -38 0
v -18 -37 0
v -17 -37 0
v -6 -39 0
v -7 -39 0
v -7 -38 0
v -6 -38 0
v -7 -39 0
v -8 -39 0
v -8 -38 0
v -7 -38 0
v -8 -39 0
v -9 -39 0
v -9 -38 0
v -8 -38 0
v -9 -39 0
v -10 -39 0
v -10 -38 0
v -9 -38 0
v -14 -39 0
v -15 -39 0
v -15 -38 0
v -14 -38 0
v -15 -39 0
v -16 -39 0
v -16 -38 0
v -15 -38 0
v -16 -39 0
v -17 -39 0
v -17 -38 0
v -16 -38 0
v -17 -39 0
v -18 -39 0
v -18 -38 0
v -17 -38 0
v -20 -39 0
v -21 -39 0
v -21 -38 0
v -20 -38 0
v -21 -39 0
v -22 -39 0
v -22 -38 0
v -21 -38 0
v -22 -39 0
v -23 -39 0
v -23 -38 0
v -22 -38 0
v -23 -39 0
v -24 -39 0
v -24 -38 0
v -23 -38 0
v -6 -40 0
v -7 -40 0
v -7 -39 0
v -6 -39 0
v -9 -40 0
v -10 -40 0
v -10 -39 0
v -9 -39 0
v -14 -40 0
v -15 -40 0
v -15 -39 0
v -14 -39 0
v -17 -40 0
v -18 -40 0
v -18 -39 0
v -17 -39 0
v -20 -40 0
v -21 -40 0
v -21 -39 0
v -20 -39 0
v -21 -40 0
v -22 -40 0
v -22 -39 0
v -21 -39 0
v -22 -40 0
v -23 -40 0
v -23 -39 0
v -22 -39 0
v -23 -40 0
v -24 -40 0
v -24 -39 0
v -23 -39 0
v -20 -41 0
v -21 -41 0
v -21 -40 0
v -20 -40 0
v -21 -41 0
v -22 -41 0
v -22 -40 0
v -21 -40 0
v -22 -41 0
v -23 -41 0
v -23 -40 0
v -22 -40 0
v -23 -41 0
v -24 -41 0
v -24 -40 0
v -23 -40 0
v -14 -42 0
v -15 -42 0
v -15 -41 0
v -14 -41 0
v -15 -42 0
v -16 -42 0
v -16 -41 0
v -15 -41 0
v -16 -42 0
v -17 -42 0
v -17 -41 0
v -16 -41 0
v -17 -42 0
v -18 -42 0
v -18 -41 0
v -17 -41 0
v -20 -42 0
v -21 -42 0
v -21 -41 0
v -20 -41 0
v -23 -42 0
v -24 -42 0
v -24 -41 0
v -23 -41 0
v -14 -43 0
v -15 -43 0
v -15 -42 0
v -14 -42 0
v -15 -43 0
v -16 -43 0
v -16 -42 0
v -15 -42 0
v -16 -43 0
v -17 -43 0
v -17 -42 0
v -16 -42 0
v -17 -43 0
v -18 -43 0
v -18 -42 0
v -17 -42 0
v -14 -44 0
v -15 -44 0
v -15 -43 0
v -14 -43 0
v -15 -44 0
v -16 -44 0
v -16 -43 0
v -15 -43 0
v -16 -44 0
v -17 -44 0
v -17 -43 0
v -16 -43 0
v -17 -44 0
v -18 -44 0
v -18 -43 0
v -17 -43 0
v -14 -45 0
v -15 -45 0
v -15 -44 0
v -14 -44 0
v -17 -45 0
v -18 -45 0
v -18 -44 0
v -17 -44 0

# Texture cooridinates (Count = 56)
vt 0.0001220703 0.08345538
vt 0.02068417 0.08345538
vt 0.02068417 0.110989
vt 0.0001220703 0.110989
vt 0.02092831 0.08345538
vt 0.04149041 0.08345538
vt 0.04149041 0.110989
vt 0.02092831 0.110989
vt 0.04173455 0.08345538
vt 0.06229666 0.08345538
vt 0.06229666 0.110989
vt 0.04173455 0.110989
vt 0.0625408 0.08345538
vt 0.0831029 0.08345538
vt 0.0831029 0.110989
vt 0.0625408 0.110989
vt 0.0001220703 0.05567765
vt 0.02068417 0.05567765
vt 0.02068417 0.08321124
vt 0.0001220703 0.08321124
vt 0.02092831 0.05567765
vt 0.04149041 0.05567765
vt 0.04149041 0.08321124
vt 0.02092831 0.08321124
vt 0.04173455 0.05567765
vt 0.06229666 0.05567765
vt 0.06229666 0.08321124
vt 0.04173455 0.08321124
vt 0.0625408 0.05567765
vt 0.0831029 0.05567765
vt 0.0831029 0.08321124
vt 0.0625408 0.08321124
vt 0.0001220703 0.02789986
vt 0.02068417 0.02789986
vt 0.02068417 0.05543351
vt 0.0001220703 0.05543351
vt 0.02092831 0.02789986
vt 0.04149041 0.02789986
vt 0.04149041 0.05543351
vt 0.02092831 0.05543351
vt 0.04173455 0.02789986
vt 0.06229666 0.02789986
vt 0.06229666 0.05543351
vt 0.04173455 0.05543351
vt 0.0625408 0.02789986
vt 0.0831029 0.02789986
vt 0.0831029 0.05543351
vt 0.0625408 0.05543351
vt 0.0001220703 0.0001220703
vt 0.02068417 0.0001220703
vt 0.02068417 0.02765572
vt 0.0001220703 0.02765572
vt 0.0625408 0.0001220703
vt 0.0831029 0.0001220703
vt 0.0831029 0.02765572
vt 0.0625408 0.02765572

# Normal
vn 0 0 -1

# Mesh description
g Tiniwisan_mesh_0005

# Faces
f 1/1/1 2/2/1 3/3/1 4/4/1
f 5/5/1 6/6/1 7/7/1 8/8/1
f 9/9/1 10/10/1 11/11/1 12/12/1
f 13/13/1 14/14/1 15/15/1 16/16/1
f 17/17/1 18/18/1 19/19/1 20/20/1
f 21/21/1 22/22/1 23/23/1 24/24/1
f 25/25/1 26/26/1 27/27/1 28/28/1
f 29/29/1 30/30/1 31/31/1 32/32/1
f 33/33/1 34/34/1 35/35/1 36/36/1
f 37/37/1 38/38/1 39/39/1 40/40/1
f 41/41/1 42/42/1 43/43/1 44/44/1
f 45/45/1 46/46/1 47/47/1 48/48/1
f 49/49/1 50/50/1 51/51/1 52/52/1
f 53/53/1 54/54/1 55/55/1 56/56/1
f 57/1/1 58/2/1 59/3/1 60/4/1
f 61/5/1 62/6/1 63/7/1 64/8/1
f 65/9/1 66/10/1 67/11/1 68/12/1
f 69/13/1 70/14/1 71/15/1 72/16/1
f 73/17/1 74/18/1 75/19/1 76/20/1
f 77/21/1 78/22/1 79/23/1 80/24/1
f 81/25/1 82/26/1 83/27/1 84/28/1
f 85/29/1 86/30/1 87/31/1 88/32/1
f 89/33/1 90/34/1 91/35/1 92/36/1
f 93/37/1 94/38/1 95/39/1 96/40/1
f 97/41/1 98/42/1 99/43/1 100/44/1
f 101/45/1 102/46/1 103/47/1 104/48/1
f 105/49/1 106/50/1 107/51/1 108/52/1
f 109/1/1 110/2/1 111/3/1 112/4/1
f 113/5/1 114/6/1 115/7/1 116/8/1
f 117/9/1 118/10/1 119/11/1 120/12/1
f 121/13/1 122/14/1 123/15/1 124/16/1
f 125/17/1 126/18/1 127/19/1 128/20/1
f 129/21/1 130/22/1 131/23/1 132/24/1
f 133/25/1 134/26/1 135/27/1 136/28/1
f 137/29/1 138/30/1 139/31/1 140/32/1
f 141/1/1 142/2/1 143/3/1 144/4/1
f 145/5/1 146/6/1 147/7/1 148/8/1
f 149/9/1 150/10/1 151/11/1 152/12/1
f 153/13/1 154/14/1 155/15/1 156/16/1
f 157/33/1 158/34/1 159/35/1 160/36/1
f 161/37/1 162/38/1 163/39/1 164/40/1
f 165/41/1 166/42/1 167/43/1 168/44/1
f 169/45/1 170/46/1 171/47/1 172/48/1
f 173/17/1 174/18/1 175/19/1 176/20/1
f 177/21/1 178/22/1 179/23/1 180/24/1
f 181/25/1 182/26/1 183/27/1 184/28/1
f 185/29/1 186/30/1 187/31/1 188/32/1
f 189/49/1 190/50/1 191/51/1 192/52/1
f 193/53/1 194/54/1 195/55/1 196/56/1
f 197/33/1 198/34/1 199/35/1 200/36/1
f 201/37/1 202/38/1 203/39/1 204/40/1
f 205/41/1 206/42/1 207/43/1 208/44/1
f 209/45/1 210/46/1 211/47/1 212/48/1
f 213/49/1 214/50/1 215/51/1 216/52/1
f 217/53/1 218/54/1 219/55/1 220/56/1
f 221/1/1 222/2/1 223/3/1 224/4/1
f 225/5/1 226/6/1 227/7/1 228/8/1
f 229/9/1 230/10/1 231/11/1 232/12/1
f 233/13/1 234/14/1 235/15/1 236/16/1
f 237/1/1 238/2/1 239/3/1 240/4/1
f 241/5/1 242/6/1 243/7/1 244/8/1
f 245/9/1 246/10/1 247/11/1 248/12/1
f 249/13/1 250/14/1 251/15/1 252/16/1
f 253/1/1 254/2/1 255/3/1 256/4/1
f 257/5/1 258/6/1 259/7/1 260/8/1
f 261/9/1 262/10/1 263/11/1 264/12/1
f 265/13/1 266/14/1 267/15/1 268/16/1
f 269/17/1 270/18/1 271/19/1 272/20/1
f 273/21/1 274/22/1 275/23/1 276/24/1
f 277/25/1 278/26/1 279/27/1 280/28/1
f 281/29/1 282/30/1 283/31/1 284/32/1
f 285/17/1 286/18/1 287/19/1 288/20/1
f 289/21/1 290/22/1 291/23/1 292/24/1
f 293/25/1 294/26/1 295/27/1 296/28/1
f 297/29/1 298/30/1 299/31/1 300/32/1
f 301/17/1 302/18/1 303/19/1 304/20/1
f 305/21/1 306/22/1 307/23/1 308/24/1
f 309/25/1 310/26/1 311/27/1 312/28/1
f 313/29/1 314/30/1 315/31/1 316/32/1
f 317/33/1 318/34/1 319/35/1 320/36/1
f 321/37/1 322/38/1 323/39/1 324/40/1
f 325/41/1 326/42/1 327/43/1 328/44/1
f 329/45/1 330/46/1 331/47/1 332/48/1
f 333/33/1 334/34/1 335/35/1 336/36/1
f 337/37/1 338/38/1 339/39/1 340/40/1
f 341/41/1 342/42/1 343/43/1 344/44/1
f 345/45/1 346/46/1 347/47/1 348/48/1
f 349/33/1 350/34/1 351/35/1 352/36/1
f 353/37/1 354/38/1 355/39/1 356/40/1
f 357/41/1 358/42/1 359/43/1 360/44/1
f 361/45/1 362/46/1 363/47/1 364/48/1
f 365/49/1 366/50/1 367/51/1 368/52/1
f 369/53/1 370/54/1 371/55/1 372/56/1
f 373/49/1 374/50/1 375/51/1 376/52/1
f 377/53/1 378/54/1 379/55/1 380/56/1
f 381/49/1 382/50/1 383/51/1 384/52/1
f 385/53/1 386/54/1 387/55/1 388/56/1
f 389/1/1 390/2/1 391/3/1 392/4/1
f 393/5/1 394/6/1 395/7/1 396/8/1
f 397/9/1 398/10/1 399/11/1 400/12/1
f 401/13/1 402/14/1 403/15/1 404/16/1
f 405/17/1 406/18/1 407/19/1 408/20/1
f 409/21/1 410/22/1 411/23/1 412/24/1
f 413/25/1 414/26/1 415/27/1 416/28/1
f 417/29/1 418/30/1 419/31/1 420/32/1
f 421/33/1 422/34/1 423/35/1 424/36/1
f 425/37/1 426/38/1 427/39/1 428/40/1
f 429/41/1 430/42/1 431/43/1 432/44/1
f 433/45/1 434/46/1 435/47/1 436/48/1
f 437/49/1 438/50/1 439/51/1 440/52/1
f 441/53/1 442/54/1 443/55/1 444/56/1
f 445/1/1 446/2/1 447/3/1 448/4/1
f 449/5/1 450/6/1 451/7/1 452/8/1
f 453/9/1 454/10/1 455/11/1 456/12/1
f 457/13/1 458/14/1 459/15/1 460/16/1
f 461/17/1 462/18/1 463/19/1 464/20/1
f 465/21/1 466/22/1 467/23/1 468/24/1
f 469/25/1 470/26/1 471/27/1 472/28/1
f 473/29/1 474/30/1 475/31/1 476/32/1
f 477/1/1 478/2/1 479/3/1 480/4/1
f 481/5/1 482/6/1 483/7/1 484/8/1
f 485/9/1 486/10/1 487/11/1 488/12/1
f 489/13/1 490/14/1 491/15/1 492/16/1
f 493/1/1 494/2/1 495/3/1 496/4/1
f 497/5/1 498/6/1 499/7/1 500/8/1
f 501/9/1 502/10/1 503/11/1 504/12/1
f 505/13/1 506/14/1 507/15/1 508/16/1
f 509/33/1 510/34/1 511/35/1 512/36/1
f 513/37/1 514/38/1 515/39/1 516/40/1
f 517/41/1 518/42/1 519/43/1 520/44/1
f 521/45/1 522/46/1 523/47/1 524/48/1
f 525/17/1 526/18/1 527/19/1 528/20/1
f 529/21/1 530/22/1 531/23/1 532/24/1
f 533/25/1 534/26/1 535/27/1 536/28/1
f 537/29/1 538/30/1 539/31/1 540/32/1
f 541/17/1 542/18/1 543/19/1 544/20/1
f 545/21/1 546/22/1 547/23/1 548/24/1
f 549/25/1 550/26/1 551/27/1 552/28/1
f 553/29/1 554/30/1 555/31/1 556/32/1
f 557/49/1 558/50/1 559/51/1 560/52/1
f 561/53/1 562/54/1 563/55/1 564/56/1
f 565/33/1 566/34/1 567/35/1 568/36/1
f 569/37/1 570/38/1 571/39/1 572/40/1
f 573/41/1 574/42/1 575/43/1 576/44/1
f 577/45/1 578/46/1 579/47/1 580/48/1
f 581/33/1 582/34/1 583/35/1 584/36/1
f 585/37/1 586/38/1 587/39/1 588/40/1
f 589/41/1 590/42/1 591/43/1 592/44/1
f 593/45/1 594/46/1 595/47/1 596/48/1
f 597/49/1 598/50/1 599/51/1 600/52/1
f 601/53/1 602/54/1 603/55/1 604/56/1
f 605/49/1 606/50/1 607/51/1 608/52/1
f 609/53/1 610/54/1 611/55/1 612/56/1
f 613/1/1 614/2/1 615/3/1 616/4/1
f 617/5/1 618/6/1 619/7/1 620/8/1
f 621/9/1 622/10/1 623/11/1 624/12/1
f 625/13/1 626/14/1 627/15/1 628/16/1
f 629/1/1 630/2/1 631/3/1 632/4/1
f 633/5/1 634/6/1 635/7/1 636/8/1
f 637/9/1 638/10/1 639/11/1 640/12/1
f 641/13/1 642/14/1 643/15/1 644/16/1
f 645/17/1 646/18/1 647/19/1 648/20/1
f 649/21/1 650/22/1 651/23/1 652/24/1
f 653/25/1 654/26/1 655/27/1 656/28/1
f 657/29/1 658/30/1 659/31/1 660/32/1
f 661/17/1 662/18/1 663/19/1 664/20/1
f 665/21/1 666/22/1 667/23/1 668/24/1
f 669/25/1 670/26/1 671/27/1 672/28/1
f 673/29/1 674/30/1 675/31/1 676/32/1
f 677/33/1 678/34/1 679/35/1 680/36/1
f 681/37/1 682/38/1 683/39/1 684/40/1
f 685/41/1 686/42/1 687/43/1 688/44/1
f 689/45/1 690/46/1 691/47/1 692/48/1
f 693/33/1 694/34/1 695/35/1 696/36/1
f 697/37/1 698/38/1 699/39/1 700/40/1
f 701/41/1 702/42/1 703/43/1 704/44/1
f 705/45/1 706/46/1 707/47/1 708/48/1
f 709/1/1 710/2/1 711/3/1 712/4/1
f 713/5/1 714/6/1 715/7/1 716/8/1
f 717/9/1 718/10/1 719/11/1 720/12/1
f 721/13/1 722/14/1 723/15/1 724/16/1
f 725/49/1 726/50/1 727/51/1 728/52/1
f 729/53/1 730/54/1 731/55/1 732/56/1
f 733/49/1 734/50/1 735/51/1 736/52/1
f 737/53/1 738/54/1 739/55/1 740/56/1
f 741/17/1 742/18/1 743/19/1 744/20/1
f 745/21/1 746/22/1 747/23/1 748/24/1
f 749/25/1 750/26/1 751/27/1 752/28/1
f 753/29/1 754/30/1 755/31/1 756/32/1
f 757/33/1 758/34/1 759/35/1 760/36/1
f 761/37/1 762/38/1 763/39/1 764/40/1
f 765/41/1 766/42/1 767/43/1 768/44/1
f 769/45/1 770/46/1 771/47/1 772/48/1
f 773/1/1 774/2/1 775/3/1 776/4/1
f 777/5/1 778/6/1 779/7/1 780/8/1
f 781/9/1 782/10/1 783/11/1 784/12/1
f 785/13/1 786/14/1 787/15/1 788/16/1
f 789/49/1 790/50/1 791/51/1 792/52/1
f 793/53/1 794/54/1 795/55/1 796/56/1
f 797/17/1 798/18/1 799/19/1 800/20/1
f 801/21/1 802/22/1 803/23/1 804/24/1
f 805/25/1 806/26/1 807/27/1 808/28/1
f 809/29/1 810/30/1 811/31/1 812/32/1
f 813/33/1 814/34/1 815/35/1 816/36/1
f 817/37/1 818/38/1 819/39/1 820/40/1
f 821/41/1 822/42/1 823/43/1 824/44/1
f 825/45/1 826/46/1 827/47/1 828/48/1
f 829/49/1 830/50/1 831/51/1 832/52/1
f 833/53/1 834/54/1 835/55/1 836/56/1

