# Tiled2Unity generated file. Do not modify by hand.
# Wavefront file for 'Tiniwisan_mesh_0007.obj'

# Vertices (Count = 168)
v -35 -1 0
v -36 -1 0
v -36 0 0
v -35 0 0
v -36 -1 0
v -37 -1 0
v -37 0 0
v -36 0 0
v -37 -1 0
v -38 -1 0
v -38 0 0
v -37 0 0
v -38 -1 0
v -39 -1 0
v -39 0 0
v -38 0 0
v -41 -1 0
v -42 -1 0
v -42 0 0
v -41 0 0
v -42 -1 0
v -43 -1 0
v -43 0 0
v -42 0 0
v -43 -1 0
v -44 -1 0
v -44 0 0
v -43 0 0
v -44 -1 0
v -45 -1 0
v -45 0 0
v -44 0 0
v -35 -2 0
v -36 -2 0
v -36 -1 0
v -35 -1 0
v -36 -2 0
v -37 -2 0
v -37 -1 0
v -36 -1 0
v -37 -2 0
v -38 -2 0
v -38 -1 0
v -37 -1 0
v -38 -2 0
v -39 -2 0
v -39 -1 0
v -38 -1 0
v -41 -2 0
v -42 -2 0
v -42 -1 0
v -41 -1 0
v -42 -2 0
v -43 -2 0
v -43 -1 0
v -42 -1 0
v -43 -2 0
v -44 -2 0
v -44 -1 0
v -43 -1 0
v -44 -2 0
v -45 -2 0
v -45 -1 0
v -44 -1 0
v -35 -3 0
v -36 -3 0
v -36 -2 0
v -35 -2 0
v -36 -3 0
v -37 -3 0
v -37 -2 0
v -36 -2 0
v -37 -3 0
v -38 -3 0
v -38 -2 0
v -37 -2 0
v -38 -3 0
v -39 -3 0
v -39 -2 0
v -38 -2 0
v -41 -3 0
v -42 -3 0
v -42 -2 0
v -41 -2 0
v -42 -3 0
v -43 -3 0
v -43 -2 0
v -42 -2 0
v -43 -3 0
v -44 -3 0
v -44 -2 0
v -43 -2 0
v -44 -3 0
v -45 -3 0
v -45 -2 0
v -44 -2 0
v -35 -4 0
v -36 -4 0
v -36 -3 0
v -35 -3 0
v -38 -4 0
v -39 -4 0
v -39 -3 0
v -38 -3 0
v -41 -4 0
v -42 -4 0
v -42 -3 0
v -41 -3 0
v -44 -4 0
v -45 -4 0
v -45 -3 0
v -44 -3 0
v -45 -20 0
v -46 -20 0
v -46 -19 0
v -45 -19 0
v -46 -20 0
v -47 -20 0
v -47 -19 0
v -46 -19 0
v -47 -20 0
v -48 -20 0
v -48 -19 0
v -47 -19 0
v -48 -20 0
v -49 -20 0
v -49 -19 0
v -48 -19 0
v -45 -21 0
v -46 -21 0
v -46 -20 0
v -45 -20 0
v -46 -21 0
v -47 -21 0
v -47 -20 0
v -46 -20 0
v -47 -21 0
v -48 -21 0
v -48 -20 0
v -47 -20 0
v -48 -21 0
v -49 -21 0
v -49 -20 0
v -48 -20 0
v -45 -22 0
v -46 -22 0
v -46 -21 0
v -45 -21 0
v -46 -22 0
v -47 -22 0
v -47 -21 0
v -46 -21 0
v -47 -22 0
v -48 -22 0
v -48 -21 0
v -47 -21 0
v -48 -22 0
v -49 -22 0
v -49 -21 0
v -48 -21 0
v -45 -23 0
v -46 -23 0
v -46 -22 0
v -45 -22 0
v -48 -23 0
v -49 -23 0
v -49 -22 0
v -48 -22 0

# Texture cooridinates (Count = 24)
vt 0 0.08333331
vt 0.02080624 0.08333331
vt 0.02080624 0.1111111
vt 0 0.1111111
vt 0.04161248 0.08333331
vt 0.04161248 0.1111111
vt 0.06241873 0.08333331
vt 0.06241873 0.1111111
vt 0.08322497 0.08333331
vt 0.08322497 0.1111111
vt 0 0.05555558
vt 0.02080624 0.05555558
vt 0.04161248 0.05555558
vt 0.06241873 0.05555558
vt 0.08322497 0.05555558
vt 0 0.02777779
vt 0.02080624 0.02777779
vt 0.04161248 0.02777779
vt 0.06241873 0.02777779
vt 0.08322497 0.02777779
vt 0 0
vt 0.02080624 0
vt 0.06241873 0
vt 0.08322497 0

# Normal
vn 0 0 -1

# Mesh description
g Tiniwisan_mesh_0007

# Faces
f 1/1/1 2/2/1 3/3/1 4/4/1
f 5/2/1 6/5/1 7/6/1 8/3/1
f 9/5/1 10/7/1 11/8/1 12/6/1
f 13/7/1 14/9/1 15/10/1 16/8/1
f 17/1/1 18/2/1 19/3/1 20/4/1
f 21/2/1 22/5/1 23/6/1 24/3/1
f 25/5/1 26/7/1 27/8/1 28/6/1
f 29/7/1 30/9/1 31/10/1 32/8/1
f 33/11/1 34/12/1 35/2/1 36/1/1
f 37/12/1 38/13/1 39/5/1 40/2/1
f 41/13/1 42/14/1 43/7/1 44/5/1
f 45/14/1 46/15/1 47/9/1 48/7/1
f 49/11/1 50/12/1 51/2/1 52/1/1
f 53/12/1 54/13/1 55/5/1 56/2/1
f 57/13/1 58/14/1 59/7/1 60/5/1
f 61/14/1 62/15/1 63/9/1 64/7/1
f 65/16/1 66/17/1 67/12/1 68/11/1
f 69/17/1 70/18/1 71/13/1 72/12/1
f 73/18/1 74/19/1 75/14/1 76/13/1
f 77/19/1 78/20/1 79/15/1 80/14/1
f 81/16/1 82/17/1 83/12/1 84/11/1
f 85/17/1 86/18/1 87/13/1 88/12/1
f 89/18/1 90/19/1 91/14/1 92/13/1
f 93/19/1 94/20/1 95/15/1 96/14/1
f 97/21/1 98/22/1 99/17/1 100/16/1
f 101/23/1 102/24/1 103/20/1 104/19/1
f 105/21/1 106/22/1 107/17/1 108/16/1
f 109/23/1 110/24/1 111/20/1 112/19/1
f 113/1/1 114/2/1 115/3/1 116/4/1
f 117/2/1 118/5/1 119/6/1 120/3/1
f 121/5/1 122/7/1 123/8/1 124/6/1
f 125/7/1 126/9/1 127/10/1 128/8/1
f 129/11/1 130/12/1 131/2/1 132/1/1
f 133/12/1 134/13/1 135/5/1 136/2/1
f 137/13/1 138/14/1 139/7/1 140/5/1
f 141/14/1 142/15/1 143/9/1 144/7/1
f 145/16/1 146/17/1 147/12/1 148/11/1
f 149/17/1 150/18/1 151/13/1 152/12/1
f 153/18/1 154/19/1 155/14/1 156/13/1
f 157/19/1 158/20/1 159/15/1 160/14/1
f 161/21/1 162/22/1 163/17/1 164/16/1
f 165/23/1 166/24/1 167/20/1 168/19/1

