# Tiled2Unity generated file. Do not modify by hand.
# Wavefront file for 'JolibeeDriveThru_mesh_0002.obj'

# Vertices (Count = 772)
v -28 -1 0
v -29 -1 0
v -29 0 0
v -28 0 0
v -23 -1 0
v -24 -1 0
v -24 0 0
v -23 0 0
v -22 -1 0
v -23 -1 0
v -23 0 0
v -22 0 0
v -1 -1 0
v -2 -1 0
v -2 0 0
v -1 0 0
v 0 -1 0
v -1 -1 0
v -1 0 0
v 0 0 0
v -29 -2 0
v -30 -2 0
v -30 -1 0
v -29 -1 0
v -28 -2 0
v -29 -2 0
v -29 -1 0
v -28 -1 0
v -24 -2 0
v -25 -2 0
v -25 -1 0
v -24 -1 0
v -23 -2 0
v -24 -2 0
v -24 -1 0
v -23 -1 0
v -1 -2 0
v -2 -2 0
v -2 -1 0
v -1 -1 0
v 0 -2 0
v -1 -2 0
v -1 -1 0
v 0 -1 0
v -31 -3 0
v -32 -3 0
v -32 -2 0
v -31 -2 0
v -30 -3 0
v -31 -3 0
v -31 -2 0
v -30 -2 0
v -29 -3 0
v -30 -3 0
v -30 -2 0
v -29 -2 0
v -24 -3 0
v -25 -3 0
v -25 -2 0
v -24 -2 0
v -1 -3 0
v -2 -3 0
v -2 -2 0
v -1 -2 0
v 0 -3 0
v -1 -3 0
v -1 -2 0
v 0 -2 0
v -21 -4 0
v -22 -4 0
v -22 -3 0
v -21 -3 0
v 0 -4 0
v -1 -4 0
v -1 -3 0
v 0 -3 0
v 0 -5 0
v -1 -5 0
v -1 -4 0
v 0 -4 0
v 0 -6 0
v -1 -6 0
v -1 -5 0
v 0 -5 0
v 0 -7 0
v -1 -7 0
v -1 -6 0
v 0 -6 0
v 0 -8 0
v -1 -8 0
v -1 -7 0
v 0 -7 0
v 0 -9 0
v -1 -9 0
v -1 -8 0
v 0 -8 0
v -47 -10 0
v -48 -10 0
v -48 -9 0
v -47 -9 0
v -46 -10 0
v -47 -10 0
v -47 -9 0
v -46 -9 0
v -45 -10 0
v -46 -10 0
v -46 -9 0
v -45 -9 0
v 0 -10 0
v -1 -10 0
v -1 -9 0
v 0 -9 0
v -47 -11 0
v -48 -11 0
v -48 -10 0
v -47 -10 0
v 0 -11 0
v -1 -11 0
v -1 -10 0
v 0 -10 0
v 0 -12 0
v -1 -12 0
v -1 -11 0
v 0 -11 0
v -47 -13 0
v -48 -13 0
v -48 -12 0
v -47 -12 0
v -46 -13 0
v -47 -13 0
v -47 -12 0
v -46 -12 0
v 0 -13 0
v -1 -13 0
v -1 -12 0
v 0 -12 0
v -47 -14 0
v -48 -14 0
v -48 -13 0
v -47 -13 0
v -46 -14 0
v -47 -14 0
v -47 -13 0
v -46 -13 0
v 0 -14 0
v -1 -14 0
v -1 -13 0
v 0 -13 0
v 0 -15 0
v -1 -15 0
v -1 -14 0
v 0 -14 0
v 0 -16 0
v -1 -16 0
v -1 -15 0
v 0 -15 0
v 0 -17 0
v -1 -17 0
v -1 -16 0
v 0 -16 0
v 0 -18 0
v -1 -18 0
v -1 -17 0
v 0 -17 0
v 0 -19 0
v -1 -19 0
v -1 -18 0
v 0 -18 0
v 0 -20 0
v -1 -20 0
v -1 -19 0
v 0 -19 0
v 0 -21 0
v -1 -21 0
v -1 -20 0
v 0 -20 0
v -46 -22 0
v -47 -22 0
v -47 -21 0
v -46 -21 0
v 0 -22 0
v -1 -22 0
v -1 -21 0
v 0 -21 0
v -47 -23 0
v -48 -23 0
v -48 -22 0
v -47 -22 0
v -46 -23 0
v -47 -23 0
v -47 -22 0
v -46 -22 0
v -45 -23 0
v -46 -23 0
v -46 -22 0
v -45 -22 0
v 0 -23 0
v -1 -23 0
v -1 -22 0
v 0 -22 0
v -47 -24 0
v -48 -24 0
v -48 -23 0
v -47 -23 0
v -46 -24 0
v -47 -24 0
v -47 -23 0
v -46 -23 0
v -45 -24 0
v -46 -24 0
v -46 -23 0
v -45 -23 0
v 0 -24 0
v -1 -24 0
v -1 -23 0
v 0 -23 0
v -45 -25 0
v -46 -25 0
v -46 -24 0
v -45 -24 0
v -44 -25 0
v -45 -25 0
v -45 -24 0
v -44 -24 0
v 0 -25 0
v -1 -25 0
v -1 -24 0
v 0 -24 0
v -45 -26 0
v -46 -26 0
v -46 -25 0
v -45 -25 0
v -44 -26 0
v -45 -26 0
v -45 -25 0
v -44 -25 0
v 0 -26 0
v -1 -26 0
v -1 -25 0
v 0 -25 0
v -47 -27 0
v -48 -27 0
v -48 -26 0
v -47 -26 0
v -1 -27 0
v -2 -27 0
v -2 -26 0
v -1 -26 0
v -47 -28 0
v -48 -28 0
v -48 -27 0
v -47 -27 0
v -1 -28 0
v -2 -28 0
v -2 -27 0
v -1 -27 0
v -47 -29 0
v -48 -29 0
v -48 -28 0
v -47 -28 0
v 0 -29 0
v -1 -29 0
v -1 -28 0
v 0 -28 0
v 0 -30 0
v -1 -30 0
v -1 -29 0
v 0 -29 0
v -1 -31 0
v -2 -31 0
v -2 -30 0
v -1 -30 0
v 0 -31 0
v -1 -31 0
v -1 -30 0
v 0 -30 0
v -1 -32 0
v -2 -32 0
v -2 -31 0
v -1 -31 0
v 0 -32 0
v -1 -32 0
v -1 -31 0
v 0 -31 0
v 0 -33 0
v -1 -33 0
v -1 -32 0
v 0 -32 0
v -1 -34 0
v -2 -34 0
v -2 -33 0
v -1 -33 0
v 0 -34 0
v -1 -34 0
v -1 -33 0
v 0 -33 0
v 0 -35 0
v -1 -35 0
v -1 -34 0
v 0 -34 0
v 0 -36 0
v -1 -36 0
v -1 -35 0
v 0 -35 0
v 0 -37 0
v -1 -37 0
v -1 -36 0
v 0 -36 0
v -1 -38 0
v -2 -38 0
v -2 -37 0
v -1 -37 0
v -1 -39 0
v -2 -39 0
v -2 -38 0
v -1 -38 0
v 0 -39 0
v -1 -39 0
v -1 -38 0
v 0 -38 0
v -1 -40 0
v -2 -40 0
v -2 -39 0
v -1 -39 0
v 0 -40 0
v -1 -40 0
v -1 -39 0
v 0 -39 0
v -47 -45 0
v -48 -45 0
v -48 -44 0
v -47 -44 0
v -46 -45 0
v -47 -45 0
v -47 -44 0
v -46 -44 0
v -47 -46 0
v -48 -46 0
v -48 -45 0
v -47 -45 0
v -46 -46 0
v -47 -46 0
v -47 -45 0
v -46 -45 0
v -47 -47 0
v -48 -47 0
v -48 -46 0
v -47 -46 0
v -46 -47 0
v -47 -47 0
v -47 -46 0
v -46 -46 0
v -47 -48 0
v -48 -48 0
v -48 -47 0
v -47 -47 0
v -46 -48 0
v -47 -48 0
v -47 -47 0
v -46 -47 0
v -47 -49 0
v -48 -49 0
v -48 -48 0
v -47 -48 0
v -1 -49 0
v -2 -49 0
v -2 -48 0
v -1 -48 0
v 0 -49 0
v -1 -49 0
v -1 -48 0
v 0 -48 0
v -47 -50 0
v -48 -50 0
v -48 -49 0
v -47 -49 0
v -46 -50 0
v -47 -50 0
v -47 -49 0
v -46 -49 0
v -45 -50 0
v -46 -50 0
v -46 -49 0
v -45 -49 0
v -1 -50 0
v -2 -50 0
v -2 -49 0
v -1 -49 0
v 0 -50 0
v -1 -50 0
v -1 -49 0
v 0 -49 0
v -47 -51 0
v -48 -51 0
v -48 -50 0
v -47 -50 0
v -46 -51 0
v -47 -51 0
v -47 -50 0
v -46 -50 0
v -1 -51 0
v -2 -51 0
v -2 -50 0
v -1 -50 0
v -47 -52 0
v -48 -52 0
v -48 -51 0
v -47 -51 0
v -46 -52 0
v -47 -52 0
v -47 -51 0
v -46 -51 0
v 0 -52 0
v -1 -52 0
v -1 -51 0
v 0 -51 0
v -47 -53 0
v -48 -53 0
v -48 -52 0
v -47 -52 0
v -46 -53 0
v -47 -53 0
v -47 -52 0
v -46 -52 0
v -1 -53 0
v -2 -53 0
v -2 -52 0
v -1 -52 0
v 0 -53 0
v -1 -53 0
v -1 -52 0
v 0 -52 0
v -1 -54 0
v -2 -54 0
v -2 -53 0
v -1 -53 0
v -1 -55 0
v -2 -55 0
v -2 -54 0
v -1 -54 0
v 0 -55 0
v -1 -55 0
v -1 -54 0
v 0 -54 0
v -46 -56 0
v -47 -56 0
v -47 -55 0
v -46 -55 0
v -1 -56 0
v -2 -56 0
v -2 -55 0
v -1 -55 0
v 0 -56 0
v -1 -56 0
v -1 -55 0
v 0 -55 0
v -47 -57 0
v -48 -57 0
v -48 -56 0
v -47 -56 0
v -2 -57 0
v -3 -57 0
v -3 -56 0
v -2 -56 0
v -1 -57 0
v -2 -57 0
v -2 -56 0
v -1 -56 0
v -47 -58 0
v -48 -58 0
v -48 -57 0
v -47 -57 0
v -46 -58 0
v -47 -58 0
v -47 -57 0
v -46 -57 0
v -2 -58 0
v -3 -58 0
v -3 -57 0
v -2 -57 0
v -1 -58 0
v -2 -58 0
v -2 -57 0
v -1 -57 0
v -46 -59 0
v -47 -59 0
v -47 -58 0
v -46 -58 0
v -1 -59 0
v -2 -59 0
v -2 -58 0
v -1 -58 0
v 0 -59 0
v -1 -59 0
v -1 -58 0
v 0 -58 0
v -47 -60 0
v -48 -60 0
v -48 -59 0
v -47 -59 0
v 0 -60 0
v -1 -60 0
v -1 -59 0
v 0 -59 0
v -47 -61 0
v -48 -61 0
v -48 -60 0
v -47 -60 0
v -46 -61 0
v -47 -61 0
v -47 -60 0
v -46 -60 0
v 0 -61 0
v -1 -61 0
v -1 -60 0
v 0 -60 0
v -47 -62 0
v -48 -62 0
v -48 -61 0
v -47 -61 0
v -46 -62 0
v -47 -62 0
v -47 -61 0
v -46 -61 0
v -2 -62 0
v -3 -62 0
v -3 -61 0
v -2 -61 0
v -1 -62 0
v -2 -62 0
v -2 -61 0
v -1 -61 0
v 0 -62 0
v -1 -62 0
v -1 -61 0
v 0 -61 0
v -47 -63 0
v -48 -63 0
v -48 -62 0
v -47 -62 0
v -45 -63 0
v -46 -63 0
v -46 -62 0
v -45 -62 0
v -44 -63 0
v -45 -63 0
v -45 -62 0
v -44 -62 0
v -42 -63 0
v -43 -63 0
v -43 -62 0
v -42 -62 0
v -41 -63 0
v -42 -63 0
v -42 -62 0
v -41 -62 0
v -40 -63 0
v -41 -63 0
v -41 -62 0
v -40 -62 0
v -22 -63 0
v -23 -63 0
v -23 -62 0
v -22 -62 0
v -21 -63 0
v -22 -63 0
v -22 -62 0
v -21 -62 0
v -1 -63 0
v -2 -63 0
v -2 -62 0
v -1 -62 0
v 0 -63 0
v -1 -63 0
v -1 -62 0
v 0 -62 0
v -47 -64 0
v -48 -64 0
v -48 -63 0
v -47 -63 0
v -45 -64 0
v -46 -64 0
v -46 -63 0
v -45 -63 0
v -44 -64 0
v -45 -64 0
v -45 -63 0
v -44 -63 0
v -42 -64 0
v -43 -64 0
v -43 -63 0
v -42 -63 0
v -41 -64 0
v -42 -64 0
v -42 -63 0
v -41 -63 0
v -40 -64 0
v -41 -64 0
v -41 -63 0
v -40 -63 0
v -39 -64 0
v -40 -64 0
v -40 -63 0
v -39 -63 0
v -38 -64 0
v -39 -64 0
v -39 -63 0
v -38 -63 0
v -37 -64 0
v -38 -64 0
v -38 -63 0
v -37 -63 0
v -35 -64 0
v -36 -64 0
v -36 -63 0
v -35 -63 0
v -33 -64 0
v -34 -64 0
v -34 -63 0
v -33 -63 0
v -32 -64 0
v -33 -64 0
v -33 -63 0
v -32 -63 0
v -25 -64 0
v -26 -64 0
v -26 -63 0
v -25 -63 0
v -22 -64 0
v -23 -64 0
v -23 -63 0
v -22 -63 0
v -21 -64 0
v -22 -64 0
v -22 -63 0
v -21 -63 0
v -19 -64 0
v -20 -64 0
v -20 -63 0
v -19 -63 0
v -18 -64 0
v -19 -64 0
v -19 -63 0
v -18 -63 0
v -12 -64 0
v -13 -64 0
v -13 -63 0
v -12 -63 0
v -8 -64 0
v -9 -64 0
v -9 -63 0
v -8 -63 0
v -7 -64 0
v -8 -64 0
v -8 -63 0
v -7 -63 0
v -6 -64 0
v -7 -64 0
v -7 -63 0
v -6 -63 0
v -5 -64 0
v -6 -64 0
v -6 -63 0
v -5 -63 0
v -3 -64 0
v -4 -64 0
v -4 -63 0
v -3 -63 0
v -2 -64 0
v -3 -64 0
v -3 -63 0
v -2 -63 0
v -1 -64 0
v -2 -64 0
v -2 -63 0
v -1 -63 0
v 0 -64 0
v -1 -64 0
v -1 -63 0
v 0 -63 0
v -47 -65 0
v -48 -65 0
v -48 -64 0
v -47 -64 0
v -42 -65 0
v -43 -65 0
v -43 -64 0
v -42 -64 0
v -41 -65 0
v -42 -65 0
v -42 -64 0
v -41 -64 0
v -40 -65 0
v -41 -65 0
v -41 -64 0
v -40 -64 0
v -39 -65 0
v -40 -65 0
v -40 -64 0
v -39 -64 0
v -37 -65 0
v -38 -65 0
v -38 -64 0
v -37 -64 0
v -36 -65 0
v -37 -65 0
v -37 -64 0
v -36 -64 0
v -34 -65 0
v -35 -65 0
v -35 -64 0
v -34 -64 0
v -33 -65 0
v -34 -65 0
v -34 -64 0
v -33 -64 0
v -26 -65 0
v -27 -65 0
v -27 -64 0
v -26 -64 0
v -25 -65 0
v -26 -65 0
v -26 -64 0
v -25 -64 0
v -24 -65 0
v -25 -65 0
v -25 -64 0
v -24 -64 0
v -20 -65 0
v -21 -65 0
v -21 -64 0
v -20 -64 0
v -19 -65 0
v -20 -65 0
v -20 -64 0
v -19 -64 0
v -12 -65 0
v -13 -65 0
v -13 -64 0
v -12 -64 0
v -11 -65 0
v -12 -65 0
v -12 -64 0
v -11 -64 0
v -10 -65 0
v -11 -65 0
v -11 -64 0
v -10 -64 0
v -9 -65 0
v -10 -65 0
v -10 -64 0
v -9 -64 0
v -6 -65 0
v -7 -65 0
v -7 -64 0
v -6 -64 0
v -5 -65 0
v -6 -65 0
v -6 -64 0
v -5 -64 0
v -2 -65 0
v -3 -65 0
v -3 -64 0
v -2 -64 0
v -1 -65 0
v -2 -65 0
v -2 -64 0
v -1 -64 0
v 0 -65 0
v -1 -65 0
v -1 -64 0
v 0 -64 0

# Texture cooridinates (Count = 208)
vt 0.04173455 0.5834554
vt 0.06229666 0.5834554
vt 0.06229666 0.610989
vt 0.04173455 0.610989
vt 0.2081845 0.6667887
vt 0.2287466 0.6667887
vt 0.2287466 0.6943223
vt 0.2081845 0.6943223
vt 0.1873782 0.6667887
vt 0.2079404 0.6667887
vt 0.2079404 0.6943223
vt 0.1873782 0.6943223
vt 0.2081845 0.639011
vt 0.2287466 0.639011
vt 0.2287466 0.6665446
vt 0.2081845 0.6665446
vt 0.1873782 0.639011
vt 0.2079404 0.639011
vt 0.2079404 0.6665446
vt 0.1873782 0.6665446
vt 0.02092831 0.5278999
vt 0.04149041 0.5278999
vt 0.04149041 0.5554335
vt 0.02092831 0.5554335
vt 0.0001220703 0.5278999
vt 0.02068417 0.5278999
vt 0.02068417 0.5554335
vt 0.0001220703 0.5554335
vt 0.1249595 0.5278999
vt 0.1455216 0.5278999
vt 0.1455216 0.5554335
vt 0.1249595 0.5554335
vt 0.1249595 0.5001221
vt 0.1455216 0.5001221
vt 0.1455216 0.5276557
vt 0.1249595 0.5276557
vt 0.0625408 0.08345538
vt 0.0831029 0.08345538
vt 0.0831029 0.110989
vt 0.0625408 0.110989
vt 0.0625408 0.05567765
vt 0.0831029 0.05567765
vt 0.0831029 0.08321124
vt 0.0625408 0.08321124
vt 0.0625408 0.02789986
vt 0.0831029 0.02789986
vt 0.0831029 0.05543351
vt 0.0625408 0.05543351
vt 0.0001220703 0.5834554
vt 0.02068417 0.5834554
vt 0.02068417 0.610989
vt 0.0001220703 0.610989
vt 0.0001220703 0.5556777
vt 0.02068417 0.5556777
vt 0.02068417 0.5832113
vt 0.0001220703 0.5832113
vt 0.1041533 0.5278999
vt 0.1247154 0.5278999
vt 0.1247154 0.5554335
vt 0.1041533 0.5554335
vt 0.1041533 0.5001221
vt 0.1247154 0.5001221
vt 0.1247154 0.5276557
vt 0.1041533 0.5276557
vt 0.2081845 0.08345538
vt 0.2287466 0.08345538
vt 0.2287466 0.110989
vt 0.2081845 0.110989
vt 0.2081845 0.05567765
vt 0.2287466 0.05567765
vt 0.2287466 0.08321124
vt 0.2081845 0.08321124
vt 0.2081845 0.02789986
vt 0.2287466 0.02789986
vt 0.2287466 0.05543351
vt 0.2081845 0.05543351
vt 0.2081845 0.0001220703
vt 0.2287466 0.0001220703
vt 0.2287466 0.02765572
vt 0.2081845 0.02765572
vt 0.1249595 0.08345538
vt 0.1455216 0.08345538
vt 0.1455216 0.110989
vt 0.1249595 0.110989
vt 0.1249595 0.05567765
vt 0.1455216 0.05567765
vt 0.1455216 0.08321124
vt 0.1249595 0.08321124
vt 0.1249595 0.02789986
vt 0.1455216 0.02789986
vt 0.1455216 0.05543351
vt 0.1249595 0.05543351
vt 0.1249595 0.0001220703
vt 0.1455216 0.0001220703
vt 0.1455216 0.02765572
vt 0.1249595 0.02765572
vt 0.02092831 0.6112332
vt 0.04149041 0.6112332
vt 0.04149041 0.6387668
vt 0.02092831 0.6387668
vt 0.02092831 0.5834554
vt 0.04149041 0.5834554
vt 0.04149041 0.610989
vt 0.02092831 0.610989
vt 0.02092831 0.5556777
vt 0.04149041 0.5556777
vt 0.04149041 0.5832113
vt 0.02092831 0.5832113
vt 0.0625408 0.6112332
vt 0.0831029 0.6112332
vt 0.0831029 0.6387668
vt 0.0625408 0.6387668
vt 0.0625408 0.5834554
vt 0.0831029 0.5834554
vt 0.0831029 0.610989
vt 0.0625408 0.610989
vt 0.0625408 0.5556777
vt 0.0831029 0.5556777
vt 0.0831029 0.5832113
vt 0.0625408 0.5832113
vt 0.8115655 0.5278999
vt 0.8321276 0.5278999
vt 0.8321276 0.5554335
vt 0.8115655 0.5554335
vt 0.7907593 0.5278999
vt 0.8113214 0.5278999
vt 0.8113214 0.5554335
vt 0.7907593 0.5554335
vt 0.8115655 0.5001221
vt 0.8321276 0.5001221
vt 0.8321276 0.5276557
vt 0.8115655 0.5276557
vt 0.7907593 0.5001221
vt 0.8113214 0.5001221
vt 0.8113214 0.5276557
vt 0.7907593 0.5276557
vt 0.8115655 0.4723443
vt 0.8321276 0.4723443
vt 0.8321276 0.4998779
vt 0.8115655 0.4998779
vt 0.7907593 0.4723443
vt 0.8113214 0.4723443
vt 0.8113214 0.4998779
vt 0.7907593 0.4998779
vt 0.8115655 0.4445665
vt 0.8321276 0.4445665
vt 0.8321276 0.4721001
vt 0.8115655 0.4721001
vt 0.166572 0.08345538
vt 0.1871341 0.08345538
vt 0.1871341 0.110989
vt 0.166572 0.110989
vt 0.1457658 0.08345538
vt 0.1663279 0.08345538
vt 0.1663279 0.110989
vt 0.1457658 0.110989
vt 0.166572 0.05567765
vt 0.1871341 0.05567765
vt 0.1871341 0.08321124
vt 0.166572 0.08321124
vt 0.1457658 0.05567765
vt 0.1663279 0.05567765
vt 0.1663279 0.08321124
vt 0.1457658 0.08321124
vt 0.166572 0.02789986
vt 0.1871341 0.02789986
vt 0.1871341 0.05543351
vt 0.166572 0.05543351
vt 0.1457658 0.02789986
vt 0.1663279 0.02789986
vt 0.1663279 0.05543351
vt 0.1457658 0.05543351
vt 0.166572 0.0001220703
vt 0.1871341 0.0001220703
vt 0.1871341 0.02765572
vt 0.166572 0.02765572
vt 0.1457658 0.0001220703
vt 0.1663279 0.0001220703
vt 0.1663279 0.02765572
vt 0.1457658 0.02765572
vt 0.1873782 0.08345538
vt 0.2079404 0.08345538
vt 0.2079404 0.110989
vt 0.1873782 0.110989
vt 0.0001220703 0.08345538
vt 0.02068417 0.08345538
vt 0.02068417 0.110989
vt 0.0001220703 0.110989
vt 0.1873782 0.05567765
vt 0.2079404 0.05567765
vt 0.2079404 0.08321124
vt 0.1873782 0.08321124
vt 0.0001220703 0.05567765
vt 0.02068417 0.05567765
vt 0.02068417 0.08321124
vt 0.0001220703 0.08321124
vt 0.1873782 0.02789986
vt 0.2079404 0.02789986
vt 0.2079404 0.05543351
vt 0.1873782 0.05543351
vt 0.0001220703 0.02789986
vt 0.02068417 0.02789986
vt 0.02068417 0.05543351
vt 0.0001220703 0.05543351
vt 0.1873782 0.0001220703
vt 0.2079404 0.0001220703
vt 0.2079404 0.02765572
vt 0.1873782 0.02765572

# Normal
vn 0 0 -1

# Mesh description
g JolibeeDriveThru_mesh_0002

# Faces
f 1/1/1 2/2/1 3/3/1 4/4/1
f 5/1/1 6/2/1 7/3/1 8/4/1
f 9/1/1 10/2/1 11/3/1 12/4/1
f 13/5/1 14/6/1 15/7/1 16/8/1
f 17/9/1 18/10/1 19/11/1 20/12/1
f 21/1/1 22/2/1 23/3/1 24/4/1
f 25/1/1 26/2/1 27/3/1 28/4/1
f 29/1/1 30/2/1 31/3/1 32/4/1
f 33/1/1 34/2/1 35/3/1 36/4/1
f 37/13/1 38/14/1 39/15/1 40/16/1
f 41/17/1 42/18/1 43/19/1 44/20/1
f 45/1/1 46/2/1 47/3/1 48/4/1
f 49/1/1 50/2/1 51/3/1 52/4/1
f 53/1/1 54/2/1 55/3/1 56/4/1
f 57/1/1 58/2/1 59/3/1 60/4/1
f 61/21/1 62/22/1 63/23/1 64/24/1
f 65/25/1 66/26/1 67/27/1 68/28/1
f 69/1/1 70/2/1 71/3/1 72/4/1
f 73/29/1 74/30/1 75/31/1 76/32/1
f 77/33/1 78/34/1 79/35/1 80/36/1
f 81/37/1 82/38/1 83/39/1 84/40/1
f 85/41/1 86/42/1 87/43/1 88/44/1
f 89/45/1 90/46/1 91/47/1 92/48/1
f 93/49/1 94/50/1 95/51/1 96/52/1
f 97/1/1 98/2/1 99/3/1 100/4/1
f 101/1/1 102/2/1 103/3/1 104/4/1
f 105/1/1 106/2/1 107/3/1 108/4/1
f 109/53/1 110/54/1 111/55/1 112/56/1
f 113/1/1 114/2/1 115/3/1 116/4/1
f 117/49/1 118/50/1 119/51/1 120/52/1
f 121/53/1 122/54/1 123/55/1 124/56/1
f 125/29/1 126/30/1 127/31/1 128/32/1
f 129/57/1 130/58/1 131/59/1 132/60/1
f 133/1/1 134/2/1 135/3/1 136/4/1
f 137/33/1 138/34/1 139/35/1 140/36/1
f 141/61/1 142/62/1 143/63/1 144/64/1
f 145/65/1 146/66/1 147/67/1 148/68/1
f 149/69/1 150/70/1 151/71/1 152/72/1
f 153/73/1 154/74/1 155/75/1 156/76/1
f 157/77/1 158/78/1 159/79/1 160/80/1
f 161/29/1 162/30/1 163/31/1 164/32/1
f 165/33/1 166/34/1 167/35/1 168/36/1
f 169/1/1 170/2/1 171/3/1 172/4/1
f 173/81/1 174/82/1 175/83/1 176/84/1
f 177/1/1 178/2/1 179/3/1 180/4/1
f 181/85/1 182/86/1 183/87/1 184/88/1
f 185/29/1 186/30/1 187/31/1 188/32/1
f 189/57/1 190/58/1 191/59/1 192/60/1
f 193/1/1 194/2/1 195/3/1 196/4/1
f 197/89/1 198/90/1 199/91/1 200/92/1
f 201/33/1 202/34/1 203/35/1 204/36/1
f 205/61/1 206/62/1 207/63/1 208/64/1
f 209/1/1 210/2/1 211/3/1 212/4/1
f 213/93/1 214/94/1 215/95/1 216/96/1
f 217/29/1 218/30/1 219/31/1 220/32/1
f 221/57/1 222/58/1 223/59/1 224/60/1
f 225/49/1 226/50/1 227/51/1 228/52/1
f 229/33/1 230/34/1 231/35/1 232/36/1
f 233/61/1 234/62/1 235/63/1 236/64/1
f 237/53/1 238/54/1 239/55/1 240/56/1
f 241/97/1 242/98/1 243/99/1 244/100/1
f 245/49/1 246/50/1 247/51/1 248/52/1
f 249/101/1 250/102/1 251/103/1 252/104/1
f 253/53/1 254/54/1 255/55/1 256/56/1
f 257/105/1 258/106/1 259/107/1 260/108/1
f 261/29/1 262/30/1 263/31/1 264/32/1
f 265/33/1 266/34/1 267/35/1 268/36/1
f 269/29/1 270/30/1 271/31/1 272/32/1
f 273/57/1 274/58/1 275/59/1 276/60/1
f 277/33/1 278/34/1 279/35/1 280/36/1
f 281/61/1 282/62/1 283/63/1 284/64/1
f 285/1/1 286/2/1 287/3/1 288/4/1
f 289/1/1 290/2/1 291/3/1 292/4/1
f 293/1/1 294/2/1 295/3/1 296/4/1
f 297/109/1 298/110/1 299/111/1 300/112/1
f 301/113/1 302/114/1 303/115/1 304/116/1
f 305/117/1 306/118/1 307/119/1 308/120/1
f 309/1/1 310/2/1 311/3/1 312/4/1
f 313/29/1 314/30/1 315/31/1 316/32/1
f 317/57/1 318/58/1 319/59/1 320/60/1
f 321/33/1 322/34/1 323/35/1 324/36/1
f 325/61/1 326/62/1 327/63/1 328/64/1
f 329/121/1 330/122/1 331/123/1 332/124/1
f 333/125/1 334/126/1 335/127/1 336/128/1
f 337/129/1 338/130/1 339/131/1 340/132/1
f 341/133/1 342/134/1 343/135/1 344/136/1
f 345/137/1 346/138/1 347/139/1 348/140/1
f 349/141/1 350/142/1 351/143/1 352/144/1
f 353/145/1 354/146/1 355/147/1 356/148/1
f 357/1/1 358/2/1 359/3/1 360/4/1
f 361/1/1 362/2/1 363/3/1 364/4/1
f 365/5/1 366/6/1 367/7/1 368/8/1
f 369/9/1 370/10/1 371/11/1 372/12/1
f 373/149/1 374/150/1 375/151/1 376/152/1
f 377/153/1 378/154/1 379/155/1 380/156/1
f 381/1/1 382/2/1 383/3/1 384/4/1
f 385/13/1 386/14/1 387/15/1 388/16/1
f 389/17/1 390/18/1 391/19/1 392/20/1
f 393/157/1 394/158/1 395/159/1 396/160/1
f 397/161/1 398/162/1 399/163/1 400/164/1
f 401/1/1 402/2/1 403/3/1 404/4/1
f 405/165/1 406/166/1 407/167/1 408/168/1
f 409/169/1 410/170/1 411/171/1 412/172/1
f 413/49/1 414/50/1 415/51/1 416/52/1
f 417/173/1 418/174/1 419/175/1 420/176/1
f 421/177/1 422/178/1 423/179/1 424/180/1
f 425/49/1 426/50/1 427/51/1 428/52/1
f 429/53/1 430/54/1 431/55/1 432/56/1
f 433/53/1 434/54/1 435/55/1 436/56/1
f 437/29/1 438/30/1 439/31/1 440/32/1
f 441/57/1 442/58/1 443/59/1 444/60/1
f 445/1/1 446/2/1 447/3/1 448/4/1
f 449/33/1 450/34/1 451/35/1 452/36/1
f 453/61/1 454/62/1 455/63/1 456/64/1
f 457/49/1 458/50/1 459/51/1 460/52/1
f 461/29/1 462/30/1 463/31/1 464/32/1
f 465/57/1 466/58/1 467/59/1 468/60/1
f 469/53/1 470/54/1 471/55/1 472/56/1
f 473/49/1 474/50/1 475/51/1 476/52/1
f 477/33/1 478/34/1 479/35/1 480/36/1
f 481/61/1 482/62/1 483/63/1 484/64/1
f 485/53/1 486/54/1 487/55/1 488/56/1
f 489/1/1 490/2/1 491/3/1 492/4/1
f 493/109/1 494/110/1 495/111/1 496/112/1
f 497/1/1 498/2/1 499/3/1 500/4/1
f 501/113/1 502/114/1 503/115/1 504/116/1
f 505/29/1 506/30/1 507/31/1 508/32/1
f 509/57/1 510/58/1 511/59/1 512/60/1
f 513/117/1 514/118/1 515/119/1 516/120/1
f 517/33/1 518/34/1 519/35/1 520/36/1
f 521/61/1 522/62/1 523/63/1 524/64/1
f 525/1/1 526/2/1 527/3/1 528/4/1
f 529/65/1 530/66/1 531/67/1 532/68/1
f 533/181/1 534/182/1 535/183/1 536/184/1
f 537/185/1 538/186/1 539/187/1 540/188/1
f 541/29/1 542/30/1 543/31/1 544/32/1
f 545/57/1 546/58/1 547/59/1 548/60/1
f 549/1/1 550/2/1 551/3/1 552/4/1
f 553/1/1 554/2/1 555/3/1 556/4/1
f 557/1/1 558/2/1 559/3/1 560/4/1
f 561/29/1 562/30/1 563/31/1 564/32/1
f 565/57/1 566/58/1 567/59/1 568/60/1
f 569/69/1 570/70/1 571/71/1 572/72/1
f 573/189/1 574/190/1 575/191/1 576/192/1
f 577/193/1 578/194/1 579/195/1 580/196/1
f 581/33/1 582/34/1 583/35/1 584/36/1
f 585/61/1 586/62/1 587/63/1 588/64/1
f 589/65/1 590/66/1 591/67/1 592/68/1
f 593/181/1 594/182/1 595/183/1 596/184/1
f 597/149/1 598/150/1 599/151/1 600/152/1
f 601/153/1 602/154/1 603/155/1 604/156/1
f 605/1/1 606/2/1 607/3/1 608/4/1
f 609/1/1 610/2/1 611/3/1 612/4/1
f 613/1/1 614/2/1 615/3/1 616/4/1
f 617/1/1 618/2/1 619/3/1 620/4/1
f 621/1/1 622/2/1 623/3/1 624/4/1
f 625/1/1 626/2/1 627/3/1 628/4/1
f 629/33/1 630/34/1 631/35/1 632/36/1
f 633/61/1 634/62/1 635/63/1 636/64/1
f 637/1/1 638/2/1 639/3/1 640/4/1
f 641/1/1 642/2/1 643/3/1 644/4/1
f 645/1/1 646/2/1 647/3/1 648/4/1
f 649/21/1 650/22/1 651/23/1 652/24/1
f 653/25/1 654/26/1 655/27/1 656/28/1
f 657/29/1 658/30/1 659/31/1 660/32/1
f 661/57/1 662/58/1 663/59/1 664/60/1
f 665/1/1 666/2/1 667/3/1 668/4/1
f 669/1/1 670/2/1 671/3/1 672/4/1
f 673/73/1 674/74/1 675/75/1 676/76/1
f 677/197/1 678/198/1 679/199/1 680/200/1
f 681/201/1 682/202/1 683/203/1 684/204/1
f 685/69/1 686/70/1 687/71/1 688/72/1
f 689/189/1 690/190/1 691/191/1 692/192/1
f 693/157/1 694/158/1 695/159/1 696/160/1
f 697/161/1 698/162/1 699/163/1 700/164/1
f 701/1/1 702/2/1 703/3/1 704/4/1
f 705/1/1 706/2/1 707/3/1 708/4/1
f 709/1/1 710/2/1 711/3/1 712/4/1
f 713/1/1 714/2/1 715/3/1 716/4/1
f 717/1/1 718/2/1 719/3/1 720/4/1
f 721/1/1 722/2/1 723/3/1 724/4/1
f 725/1/1 726/2/1 727/3/1 728/4/1
f 729/1/1 730/2/1 731/3/1 732/4/1
f 733/1/1 734/2/1 735/3/1 736/4/1
f 737/1/1 738/2/1 739/3/1 740/4/1
f 741/1/1 742/2/1 743/3/1 744/4/1
f 745/21/1 746/22/1 747/23/1 748/24/1
f 749/25/1 750/26/1 751/27/1 752/28/1
f 753/33/1 754/34/1 755/35/1 756/36/1
f 757/61/1 758/62/1 759/63/1 760/64/1
f 761/1/1 762/2/1 763/3/1 764/4/1
f 765/77/1 766/78/1 767/79/1 768/80/1
f 769/205/1 770/206/1 771/207/1 772/208/1

