# Tiled2Unity generated file. Do not modify by hand.
# Wavefront file for 'JolibeeDriveThru_mesh_0005.obj'

# Vertices (Count = 448)
v -29 -18 0
v -30 -18 0
v -30 -17 0
v -29 -17 0
v -28 -18 0
v -29 -18 0
v -29 -17 0
v -28 -17 0
v -27 -18 0
v -28 -18 0
v -28 -17 0
v -27 -17 0
v -26 -18 0
v -27 -18 0
v -27 -17 0
v -26 -17 0
v -25 -18 0
v -26 -18 0
v -26 -17 0
v -25 -17 0
v -24 -18 0
v -25 -18 0
v -25 -17 0
v -24 -17 0
v -23 -18 0
v -24 -18 0
v -24 -17 0
v -23 -17 0
v -29 -19 0
v -30 -19 0
v -30 -18 0
v -29 -18 0
v -28 -19 0
v -29 -19 0
v -29 -18 0
v -28 -18 0
v -27 -19 0
v -28 -19 0
v -28 -18 0
v -27 -18 0
v -26 -19 0
v -27 -19 0
v -27 -18 0
v -26 -18 0
v -25 -19 0
v -26 -19 0
v -26 -18 0
v -25 -18 0
v -24 -19 0
v -25 -19 0
v -25 -18 0
v -24 -18 0
v -23 -19 0
v -24 -19 0
v -24 -18 0
v -23 -18 0
v -29 -20 0
v -30 -20 0
v -30 -19 0
v -29 -19 0
v -28 -20 0
v -29 -20 0
v -29 -19 0
v -28 -19 0
v -27 -20 0
v -28 -20 0
v -28 -19 0
v -27 -19 0
v -26 -20 0
v -27 -20 0
v -27 -19 0
v -26 -19 0
v -25 -20 0
v -26 -20 0
v -26 -19 0
v -25 -19 0
v -24 -20 0
v -25 -20 0
v -25 -19 0
v -24 -19 0
v -23 -20 0
v -24 -20 0
v -24 -19 0
v -23 -19 0
v -29 -21 0
v -30 -21 0
v -30 -20 0
v -29 -20 0
v -28 -21 0
v -29 -21 0
v -29 -20 0
v -28 -20 0
v -27 -21 0
v -28 -21 0
v -28 -20 0
v -27 -20 0
v -26 -21 0
v -27 -21 0
v -27 -20 0
v -26 -20 0
v -25 -21 0
v -26 -21 0
v -26 -20 0
v -25 -20 0
v -24 -21 0
v -25 -21 0
v -25 -20 0
v -24 -20 0
v -23 -21 0
v -24 -21 0
v -24 -20 0
v -23 -20 0
v -9 -38 0
v -10 -38 0
v -10 -37 0
v -9 -37 0
v -8 -38 0
v -9 -38 0
v -9 -37 0
v -8 -37 0
v -7 -38 0
v -8 -38 0
v -8 -37 0
v -7 -37 0
v -6 -38 0
v -7 -38 0
v -7 -37 0
v -6 -37 0
v -5 -38 0
v -6 -38 0
v -6 -37 0
v -5 -37 0
v -4 -38 0
v -5 -38 0
v -5 -37 0
v -4 -37 0
v -3 -38 0
v -4 -38 0
v -4 -37 0
v -3 -37 0
v -9 -39 0
v -10 -39 0
v -10 -38 0
v -9 -38 0
v -8 -39 0
v -9 -39 0
v -9 -38 0
v -8 -38 0
v -7 -39 0
v -8 -39 0
v -8 -38 0
v -7 -38 0
v -6 -39 0
v -7 -39 0
v -7 -38 0
v -6 -38 0
v -5 -39 0
v -6 -39 0
v -6 -38 0
v -5 -38 0
v -4 -39 0
v -5 -39 0
v -5 -38 0
v -4 -38 0
v -3 -39 0
v -4 -39 0
v -4 -38 0
v -3 -38 0
v -30 -40 0
v -31 -40 0
v -31 -39 0
v -30 -39 0
v -29 -40 0
v -30 -40 0
v -30 -39 0
v -29 -39 0
v -28 -40 0
v -29 -40 0
v -29 -39 0
v -28 -39 0
v -27 -40 0
v -28 -40 0
v -28 -39 0
v -27 -39 0
v -26 -40 0
v -27 -40 0
v -27 -39 0
v -26 -39 0
v -25 -40 0
v -26 -40 0
v -26 -39 0
v -25 -39 0
v -24 -40 0
v -25 -40 0
v -25 -39 0
v -24 -39 0
v -9 -40 0
v -10 -40 0
v -10 -39 0
v -9 -39 0
v -8 -40 0
v -9 -40 0
v -9 -39 0
v -8 -39 0
v -7 -40 0
v -8 -40 0
v -8 -39 0
v -7 -39 0
v -6 -40 0
v -7 -40 0
v -7 -39 0
v -6 -39 0
v -5 -40 0
v -6 -40 0
v -6 -39 0
v -5 -39 0
v -4 -40 0
v -5 -40 0
v -5 -39 0
v -4 -39 0
v -3 -40 0
v -4 -40 0
v -4 -39 0
v -3 -39 0
v -30 -41 0
v -31 -41 0
v -31 -40 0
v -30 -40 0
v -29 -41 0
v -30 -41 0
v -30 -40 0
v -29 -40 0
v -28 -41 0
v -29 -41 0
v -29 -40 0
v -28 -40 0
v -27 -41 0
v -28 -41 0
v -28 -40 0
v -27 -40 0
v -26 -41 0
v -27 -41 0
v -27 -40 0
v -26 -40 0
v -25 -41 0
v -26 -41 0
v -26 -40 0
v -25 -40 0
v -24 -41 0
v -25 -41 0
v -25 -40 0
v -24 -40 0
v -9 -41 0
v -10 -41 0
v -10 -40 0
v -9 -40 0
v -8 -41 0
v -9 -41 0
v -9 -40 0
v -8 -40 0
v -7 -41 0
v -8 -41 0
v -8 -40 0
v -7 -40 0
v -6 -41 0
v -7 -41 0
v -7 -40 0
v -6 -40 0
v -5 -41 0
v -6 -41 0
v -6 -40 0
v -5 -40 0
v -4 -41 0
v -5 -41 0
v -5 -40 0
v -4 -40 0
v -3 -41 0
v -4 -41 0
v -4 -40 0
v -3 -40 0
v -30 -42 0
v -31 -42 0
v -31 -41 0
v -30 -41 0
v -29 -42 0
v -30 -42 0
v -30 -41 0
v -29 -41 0
v -28 -42 0
v -29 -42 0
v -29 -41 0
v -28 -41 0
v -27 -42 0
v -28 -42 0
v -28 -41 0
v -27 -41 0
v -26 -42 0
v -27 -42 0
v -27 -41 0
v -26 -41 0
v -25 -42 0
v -26 -42 0
v -26 -41 0
v -25 -41 0
v -24 -42 0
v -25 -42 0
v -25 -41 0
v -24 -41 0
v -30 -43 0
v -31 -43 0
v -31 -42 0
v -30 -42 0
v -29 -43 0
v -30 -43 0
v -30 -42 0
v -29 -42 0
v -28 -43 0
v -29 -43 0
v -29 -42 0
v -28 -42 0
v -27 -43 0
v -28 -43 0
v -28 -42 0
v -27 -42 0
v -26 -43 0
v -27 -43 0
v -27 -42 0
v -26 -42 0
v -25 -43 0
v -26 -43 0
v -26 -42 0
v -25 -42 0
v -24 -43 0
v -25 -43 0
v -25 -42 0
v -24 -42 0
v -41 -58 0
v -42 -58 0
v -42 -57 0
v -41 -57 0
v -40 -58 0
v -41 -58 0
v -41 -57 0
v -40 -57 0
v -39 -58 0
v -40 -58 0
v -40 -57 0
v -39 -57 0
v -38 -58 0
v -39 -58 0
v -39 -57 0
v -38 -57 0
v -37 -58 0
v -38 -58 0
v -38 -57 0
v -37 -57 0
v -36 -58 0
v -37 -58 0
v -37 -57 0
v -36 -57 0
v -35 -58 0
v -36 -58 0
v -36 -57 0
v -35 -57 0
v -41 -59 0
v -42 -59 0
v -42 -58 0
v -41 -58 0
v -40 -59 0
v -41 -59 0
v -41 -58 0
v -40 -58 0
v -39 -59 0
v -40 -59 0
v -40 -58 0
v -39 -58 0
v -38 -59 0
v -39 -59 0
v -39 -58 0
v -38 -58 0
v -37 -59 0
v -38 -59 0
v -38 -58 0
v -37 -58 0
v -36 -59 0
v -37 -59 0
v -37 -58 0
v -36 -58 0
v -35 -59 0
v -36 -59 0
v -36 -58 0
v -35 -58 0
v -41 -60 0
v -42 -60 0
v -42 -59 0
v -41 -59 0
v -40 -60 0
v -41 -60 0
v -41 -59 0
v -40 -59 0
v -39 -60 0
v -40 -60 0
v -40 -59 0
v -39 -59 0
v -38 -60 0
v -39 -60 0
v -39 -59 0
v -38 -59 0
v -37 -60 0
v -38 -60 0
v -38 -59 0
v -37 -59 0
v -36 -60 0
v -37 -60 0
v -37 -59 0
v -36 -59 0
v -35 -60 0
v -36 -60 0
v -36 -59 0
v -35 -59 0
v -41 -61 0
v -42 -61 0
v -42 -60 0
v -41 -60 0
v -40 -61 0
v -41 -61 0
v -41 -60 0
v -40 -60 0
v -39 -61 0
v -40 -61 0
v -40 -60 0
v -39 -60 0
v -38 -61 0
v -39 -61 0
v -39 -60 0
v -38 -60 0
v -37 -61 0
v -38 -61 0
v -38 -60 0
v -37 -60 0
v -36 -61 0
v -37 -61 0
v -37 -60 0
v -36 -60 0
v -35 -61 0
v -36 -61 0
v -36 -60 0
v -35 -60 0

# Texture cooridinates (Count = 224)
vt 0.3068313 0.8159115
vt 0.3236266 0.8159115
vt 0.3236266 0.8419832
vt 0.3068313 0.8419832
vt 0.2897919 0.8159115
vt 0.3065872 0.8159115
vt 0.3065872 0.8419832
vt 0.2897919 0.8419832
vt 0.2727525 0.8159115
vt 0.2895478 0.8159115
vt 0.2895478 0.8419832
vt 0.2727525 0.8419832
vt 0.2557131 0.8159115
vt 0.2725084 0.8159115
vt 0.2725084 0.8419832
vt 0.2557131 0.8419832
vt 0.2386737 0.8159115
vt 0.255469 0.8159115
vt 0.255469 0.8419832
vt 0.2386737 0.8419832
vt 0.2216343 0.8159115
vt 0.2384296 0.8159115
vt 0.2384296 0.8419832
vt 0.2216343 0.8419832
vt 0.2045949 0.8159115
vt 0.2213902 0.8159115
vt 0.2213902 0.8419832
vt 0.2045949 0.8419832
vt 0.3068313 0.7895957
vt 0.3236266 0.7895957
vt 0.3236266 0.8156674
vt 0.3068313 0.8156674
vt 0.2897919 0.7895957
vt 0.3065872 0.7895957
vt 0.3065872 0.8156674
vt 0.2897919 0.8156674
vt 0.2727525 0.7895957
vt 0.2895478 0.7895957
vt 0.2895478 0.8156674
vt 0.2727525 0.8156674
vt 0.2557131 0.7895957
vt 0.2725084 0.7895957
vt 0.2725084 0.8156674
vt 0.2557131 0.8156674
vt 0.2386737 0.7895957
vt 0.255469 0.7895957
vt 0.255469 0.8156674
vt 0.2386737 0.8156674
vt 0.2216343 0.7895957
vt 0.2384296 0.7895957
vt 0.2384296 0.8156674
vt 0.2216343 0.8156674
vt 0.2045949 0.7895957
vt 0.2213902 0.7895957
vt 0.2213902 0.8156674
vt 0.2045949 0.8156674
vt 0.3068313 0.76328
vt 0.3236266 0.76328
vt 0.3236266 0.7893516
vt 0.3068313 0.7893516
vt 0.2897919 0.76328
vt 0.3065872 0.76328
vt 0.3065872 0.7893516
vt 0.2897919 0.7893516
vt 0.2727525 0.76328
vt 0.2895478 0.76328
vt 0.2895478 0.7893516
vt 0.2727525 0.7893516
vt 0.2557131 0.76328
vt 0.2725084 0.76328
vt 0.2725084 0.7893516
vt 0.2557131 0.7893516
vt 0.2386737 0.76328
vt 0.255469 0.76328
vt 0.255469 0.7893516
vt 0.2386737 0.7893516
vt 0.2216343 0.76328
vt 0.2384296 0.76328
vt 0.2384296 0.7893516
vt 0.2216343 0.7893516
vt 0.2045949 0.76328
vt 0.2213902 0.76328
vt 0.2213902 0.7893516
vt 0.2045949 0.7893516
vt 0.3068313 0.7369642
vt 0.3236266 0.7369642
vt 0.3236266 0.7630358
vt 0.3068313 0.7630358
vt 0.2897919 0.7369642
vt 0.3065872 0.7369642
vt 0.3065872 0.7630358
vt 0.2897919 0.7630358
vt 0.2727525 0.7369642
vt 0.2895478 0.7369642
vt 0.2895478 0.7630358
vt 0.2727525 0.7630358
vt 0.2557131 0.7369642
vt 0.2725084 0.7369642
vt 0.2725084 0.7630358
vt 0.2557131 0.7630358
vt 0.2386737 0.7369642
vt 0.255469 0.7369642
vt 0.255469 0.7630358
vt 0.2386737 0.7630358
vt 0.2216343 0.7369642
vt 0.2384296 0.7369642
vt 0.2384296 0.7630358
vt 0.2216343 0.7630358
vt 0.2045949 0.7369642
vt 0.2213902 0.7369642
vt 0.2213902 0.7630358
vt 0.2045949 0.7630358
vt 0.3068313 0.9474905
vt 0.3236266 0.9474905
vt 0.3236266 0.9735621
vt 0.3068313 0.9735621
vt 0.2897919 0.9474905
vt 0.3065872 0.9474905
vt 0.3065872 0.9735621
vt 0.2897919 0.9735621
vt 0.2727525 0.9474905
vt 0.2895478 0.9474905
vt 0.2895478 0.9735621
vt 0.2727525 0.9735621
vt 0.2557131 0.9474905
vt 0.2725084 0.9474905
vt 0.2725084 0.9735621
vt 0.2557131 0.9735621
vt 0.2386737 0.9474905
vt 0.255469 0.9474905
vt 0.255469 0.9735621
vt 0.2386737 0.9735621
vt 0.2216343 0.9474905
vt 0.2384296 0.9474905
vt 0.2384296 0.9735621
vt 0.2216343 0.9735621
vt 0.2045949 0.9474905
vt 0.2213902 0.9474905
vt 0.2213902 0.9735621
vt 0.2045949 0.9735621
vt 0.3068313 0.9211747
vt 0.3236266 0.9211747
vt 0.3236266 0.9472464
vt 0.3068313 0.9472464
vt 0.2897919 0.9211747
vt 0.3065872 0.9211747
vt 0.3065872 0.9472464
vt 0.2897919 0.9472464
vt 0.2727525 0.9211747
vt 0.2895478 0.9211747
vt 0.2895478 0.9472464
vt 0.2727525 0.9472464
vt 0.2557131 0.9211747
vt 0.2725084 0.9211747
vt 0.2725084 0.9472464
vt 0.2557131 0.9472464
vt 0.2386737 0.9211747
vt 0.255469 0.9211747
vt 0.255469 0.9472464
vt 0.2386737 0.9472464
vt 0.2216343 0.9211747
vt 0.2384296 0.9211747
vt 0.2384296 0.9472464
vt 0.2216343 0.9472464
vt 0.2045949 0.9211747
vt 0.2213902 0.9211747
vt 0.2213902 0.9472464
vt 0.2045949 0.9472464
vt 0.3068313 0.8948589
vt 0.3236266 0.8948589
vt 0.3236266 0.9209306
vt 0.3068313 0.9209306
vt 0.2897919 0.8948589
vt 0.3065872 0.8948589
vt 0.3065872 0.9209306
vt 0.2897919 0.9209306
vt 0.2727525 0.8948589
vt 0.2895478 0.8948589
vt 0.2895478 0.9209306
vt 0.2727525 0.9209306
vt 0.2557131 0.8948589
vt 0.2725084 0.8948589
vt 0.2725084 0.9209306
vt 0.2557131 0.9209306
vt 0.2386737 0.8948589
vt 0.255469 0.8948589
vt 0.255469 0.9209306
vt 0.2386737 0.9209306
vt 0.2216343 0.8948589
vt 0.2384296 0.8948589
vt 0.2384296 0.9209306
vt 0.2216343 0.9209306
vt 0.2045949 0.8948589
vt 0.2213902 0.8948589
vt 0.2213902 0.9209306
vt 0.2045949 0.9209306
vt 0.3068313 0.8685431
vt 0.3236266 0.8685431
vt 0.3236266 0.8946148
vt 0.3068313 0.8946148
vt 0.2897919 0.8685431
vt 0.3065872 0.8685431
vt 0.3065872 0.8946148
vt 0.2897919 0.8946148
vt 0.2727525 0.8685431
vt 0.2895478 0.8685431
vt 0.2895478 0.8946148
vt 0.2727525 0.8946148
vt 0.2557131 0.8685431
vt 0.2725084 0.8685431
vt 0.2725084 0.8946148
vt 0.2557131 0.8946148
vt 0.2386737 0.8685431
vt 0.255469 0.8685431
vt 0.255469 0.8946148
vt 0.2386737 0.8946148
vt 0.2216343 0.8685431
vt 0.2384296 0.8685431
vt 0.2384296 0.8946148
vt 0.2216343 0.8946148
vt 0.2045949 0.8685431
vt 0.2213902 0.8685431
vt 0.2213902 0.8946148
vt 0.2045949 0.8946148

# Normal
vn 0 0 -1

# Mesh description
g JolibeeDriveThru_mesh_0005

# Faces
f 1/1/1 2/2/1 3/3/1 4/4/1
f 5/5/1 6/6/1 7/7/1 8/8/1
f 9/9/1 10/10/1 11/11/1 12/12/1
f 13/13/1 14/14/1 15/15/1 16/16/1
f 17/17/1 18/18/1 19/19/1 20/20/1
f 21/21/1 22/22/1 23/23/1 24/24/1
f 25/25/1 26/26/1 27/27/1 28/28/1
f 29/29/1 30/30/1 31/31/1 32/32/1
f 33/33/1 34/34/1 35/35/1 36/36/1
f 37/37/1 38/38/1 39/39/1 40/40/1
f 41/41/1 42/42/1 43/43/1 44/44/1
f 45/45/1 46/46/1 47/47/1 48/48/1
f 49/49/1 50/50/1 51/51/1 52/52/1
f 53/53/1 54/54/1 55/55/1 56/56/1
f 57/57/1 58/58/1 59/59/1 60/60/1
f 61/61/1 62/62/1 63/63/1 64/64/1
f 65/65/1 66/66/1 67/67/1 68/68/1
f 69/69/1 70/70/1 71/71/1 72/72/1
f 73/73/1 74/74/1 75/75/1 76/76/1
f 77/77/1 78/78/1 79/79/1 80/80/1
f 81/81/1 82/82/1 83/83/1 84/84/1
f 85/85/1 86/86/1 87/87/1 88/88/1
f 89/89/1 90/90/1 91/91/1 92/92/1
f 93/93/1 94/94/1 95/95/1 96/96/1
f 97/97/1 98/98/1 99/99/1 100/100/1
f 101/101/1 102/102/1 103/103/1 104/104/1
f 105/105/1 106/106/1 107/107/1 108/108/1
f 109/109/1 110/110/1 111/111/1 112/112/1
f 113/1/1 114/2/1 115/3/1 116/4/1
f 117/5/1 118/6/1 119/7/1 120/8/1
f 121/9/1 122/10/1 123/11/1 124/12/1
f 125/13/1 126/14/1 127/15/1 128/16/1
f 129/17/1 130/18/1 131/19/1 132/20/1
f 133/21/1 134/22/1 135/23/1 136/24/1
f 137/25/1 138/26/1 139/27/1 140/28/1
f 141/29/1 142/30/1 143/31/1 144/32/1
f 145/33/1 146/34/1 147/35/1 148/36/1
f 149/37/1 150/38/1 151/39/1 152/40/1
f 153/41/1 154/42/1 155/43/1 156/44/1
f 157/45/1 158/46/1 159/47/1 160/48/1
f 161/49/1 162/50/1 163/51/1 164/52/1
f 165/53/1 166/54/1 167/55/1 168/56/1
f 169/1/1 170/2/1 171/3/1 172/4/1
f 173/5/1 174/6/1 175/7/1 176/8/1
f 177/9/1 178/10/1 179/11/1 180/12/1
f 181/13/1 182/14/1 183/15/1 184/16/1
f 185/17/1 186/18/1 187/19/1 188/20/1
f 189/21/1 190/22/1 191/23/1 192/24/1
f 193/25/1 194/26/1 195/27/1 196/28/1
f 197/57/1 198/58/1 199/59/1 200/60/1
f 201/61/1 202/62/1 203/63/1 204/64/1
f 205/65/1 206/66/1 207/67/1 208/68/1
f 209/69/1 210/70/1 211/71/1 212/72/1
f 213/73/1 214/74/1 215/75/1 216/76/1
f 217/77/1 218/78/1 219/79/1 220/80/1
f 221/81/1 222/82/1 223/83/1 224/84/1
f 225/29/1 226/30/1 227/31/1 228/32/1
f 229/33/1 230/34/1 231/35/1 232/36/1
f 233/37/1 234/38/1 235/39/1 236/40/1
f 237/41/1 238/42/1 239/43/1 240/44/1
f 241/45/1 242/46/1 243/47/1 244/48/1
f 245/49/1 246/50/1 247/51/1 248/52/1
f 249/53/1 250/54/1 251/55/1 252/56/1
f 253/85/1 254/86/1 255/87/1 256/88/1
f 257/89/1 258/90/1 259/91/1 260/92/1
f 261/93/1 262/94/1 263/95/1 264/96/1
f 265/97/1 266/98/1 267/99/1 268/100/1
f 269/101/1 270/102/1 271/103/1 272/104/1
f 273/105/1 274/106/1 275/107/1 276/108/1
f 277/109/1 278/110/1 279/111/1 280/112/1
f 281/57/1 282/58/1 283/59/1 284/60/1
f 285/61/1 286/62/1 287/63/1 288/64/1
f 289/65/1 290/66/1 291/67/1 292/68/1
f 293/69/1 294/70/1 295/71/1 296/72/1
f 297/73/1 298/74/1 299/75/1 300/76/1
f 301/77/1 302/78/1 303/79/1 304/80/1
f 305/81/1 306/82/1 307/83/1 308/84/1
f 309/85/1 310/86/1 311/87/1 312/88/1
f 313/89/1 314/90/1 315/91/1 316/92/1
f 317/93/1 318/94/1 319/95/1 320/96/1
f 321/97/1 322/98/1 323/99/1 324/100/1
f 325/101/1 326/102/1 327/103/1 328/104/1
f 329/105/1 330/106/1 331/107/1 332/108/1
f 333/109/1 334/110/1 335/111/1 336/112/1
f 337/113/1 338/114/1 339/115/1 340/116/1
f 341/117/1 342/118/1 343/119/1 344/120/1
f 345/121/1 346/122/1 347/123/1 348/124/1
f 349/125/1 350/126/1 351/127/1 352/128/1
f 353/129/1 354/130/1 355/131/1 356/132/1
f 357/133/1 358/134/1 359/135/1 360/136/1
f 361/137/1 362/138/1 363/139/1 364/140/1
f 365/141/1 366/142/1 367/143/1 368/144/1
f 369/145/1 370/146/1 371/147/1 372/148/1
f 373/149/1 374/150/1 375/151/1 376/152/1
f 377/153/1 378/154/1 379/155/1 380/156/1
f 381/157/1 382/158/1 383/159/1 384/160/1
f 385/161/1 386/162/1 387/163/1 388/164/1
f 389/165/1 390/166/1 391/167/1 392/168/1
f 393/169/1 394/170/1 395/171/1 396/172/1
f 397/173/1 398/174/1 399/175/1 400/176/1
f 401/177/1 402/178/1 403/179/1 404/180/1
f 405/181/1 406/182/1 407/183/1 408/184/1
f 409/185/1 410/186/1 411/187/1 412/188/1
f 413/189/1 414/190/1 415/191/1 416/192/1
f 417/193/1 418/194/1 419/195/1 420/196/1
f 421/197/1 422/198/1 423/199/1 424/200/1
f 425/201/1 426/202/1 427/203/1 428/204/1
f 429/205/1 430/206/1 431/207/1 432/208/1
f 433/209/1 434/210/1 435/211/1 436/212/1
f 437/213/1 438/214/1 439/215/1 440/216/1
f 441/217/1 442/218/1 443/219/1 444/220/1
f 445/221/1 446/222/1 447/223/1 448/224/1

