# Tiled2Unity generated file. Do not modify by hand.
# Wavefront file for 'JolibeeDriveThru_mesh_0006.obj'

# Vertices (Count = 192)
v -23 -6 0
v -24 -6 0
v -24 -5 0
v -23 -5 0
v -22 -6 0
v -23 -6 0
v -23 -5 0
v -22 -5 0
v -21 -6 0
v -22 -6 0
v -22 -5 0
v -21 -5 0
v -23 -7 0
v -24 -7 0
v -24 -6 0
v -23 -6 0
v -22 -7 0
v -23 -7 0
v -23 -6 0
v -22 -6 0
v -21 -7 0
v -22 -7 0
v -22 -6 0
v -21 -6 0
v -11 -16 0
v -12 -16 0
v -12 -15 0
v -11 -15 0
v -10 -16 0
v -11 -16 0
v -11 -15 0
v -10 -15 0
v -9 -16 0
v -10 -16 0
v -10 -15 0
v -9 -15 0
v -11 -17 0
v -12 -17 0
v -12 -16 0
v -11 -16 0
v -10 -17 0
v -11 -17 0
v -11 -16 0
v -10 -16 0
v -9 -17 0
v -10 -17 0
v -10 -16 0
v -9 -16 0
v -39 -19 0
v -40 -19 0
v -40 -18 0
v -39 -18 0
v -38 -19 0
v -39 -19 0
v -39 -18 0
v -38 -18 0
v -37 -19 0
v -38 -19 0
v -38 -18 0
v -37 -18 0
v -39 -20 0
v -40 -20 0
v -40 -19 0
v -39 -19 0
v -38 -20 0
v -39 -20 0
v -39 -19 0
v -38 -19 0
v -37 -20 0
v -38 -20 0
v -38 -19 0
v -37 -19 0
v -26 -28 0
v -27 -28 0
v -27 -27 0
v -26 -27 0
v -25 -28 0
v -26 -28 0
v -26 -27 0
v -25 -27 0
v -24 -28 0
v -25 -28 0
v -25 -27 0
v -24 -27 0
v -26 -29 0
v -27 -29 0
v -27 -28 0
v -26 -28 0
v -25 -29 0
v -26 -29 0
v -26 -28 0
v -25 -28 0
v -24 -29 0
v -25 -29 0
v -25 -28 0
v -24 -28 0
v -6 -30 0
v -7 -30 0
v -7 -29 0
v -6 -29 0
v -5 -30 0
v -6 -30 0
v -6 -29 0
v -5 -29 0
v -4 -30 0
v -5 -30 0
v -5 -29 0
v -4 -29 0
v -6 -31 0
v -7 -31 0
v -7 -30 0
v -6 -30 0
v -5 -31 0
v -6 -31 0
v -6 -30 0
v -5 -30 0
v -4 -31 0
v -5 -31 0
v -5 -30 0
v -4 -30 0
v -36 -39 0
v -37 -39 0
v -37 -38 0
v -36 -38 0
v -35 -39 0
v -36 -39 0
v -36 -38 0
v -35 -38 0
v -34 -39 0
v -35 -39 0
v -35 -38 0
v -34 -38 0
v -13 -39 0
v -14 -39 0
v -14 -38 0
v -13 -38 0
v -12 -39 0
v -13 -39 0
v -13 -38 0
v -12 -38 0
v -11 -39 0
v -12 -39 0
v -12 -38 0
v -11 -38 0
v -36 -40 0
v -37 -40 0
v -37 -39 0
v -36 -39 0
v -35 -40 0
v -36 -40 0
v -36 -39 0
v -35 -39 0
v -34 -40 0
v -35 -40 0
v -35 -39 0
v -34 -39 0
v -13 -40 0
v -14 -40 0
v -14 -39 0
v -13 -39 0
v -12 -40 0
v -13 -40 0
v -13 -39 0
v -12 -39 0
v -11 -40 0
v -12 -40 0
v -12 -39 0
v -11 -39 0
v -46 -44 0
v -47 -44 0
v -47 -43 0
v -46 -43 0
v -45 -44 0
v -46 -44 0
v -46 -43 0
v -45 -43 0
v -44 -44 0
v -45 -44 0
v -45 -43 0
v -44 -43 0
v -46 -45 0
v -47 -45 0
v -47 -44 0
v -46 -44 0
v -45 -45 0
v -46 -45 0
v -46 -44 0
v -45 -44 0
v -44 -45 0
v -45 -45 0
v -45 -44 0
v -44 -44 0

# Texture cooridinates (Count = 24)
vt 0.1249595 0.02789986
vt 0.1455216 0.02789986
vt 0.1455216 0.05543351
vt 0.1249595 0.05543351
vt 0.1041533 0.02789986
vt 0.1247154 0.02789986
vt 0.1247154 0.05543351
vt 0.1041533 0.05543351
vt 0.08334704 0.02789986
vt 0.1039091 0.02789986
vt 0.1039091 0.05543351
vt 0.08334704 0.05543351
vt 0.1249595 0.0001220703
vt 0.1455216 0.0001220703
vt 0.1455216 0.02765572
vt 0.1249595 0.02765572
vt 0.1041533 0.0001220703
vt 0.1247154 0.0001220703
vt 0.1247154 0.02765572
vt 0.1041533 0.02765572
vt 0.08334704 0.0001220703
vt 0.1039091 0.0001220703
vt 0.1039091 0.02765572
vt 0.08334704 0.02765572

# Normal
vn 0 0 -1

# Mesh description
g JolibeeDriveThru_mesh_0006

# Faces
f 1/1/1 2/2/1 3/3/1 4/4/1
f 5/5/1 6/6/1 7/7/1 8/8/1
f 9/9/1 10/10/1 11/11/1 12/12/1
f 13/13/1 14/14/1 15/15/1 16/16/1
f 17/17/1 18/18/1 19/19/1 20/20/1
f 21/21/1 22/22/1 23/23/1 24/24/1
f 25/1/1 26/2/1 27/3/1 28/4/1
f 29/5/1 30/6/1 31/7/1 32/8/1
f 33/9/1 34/10/1 35/11/1 36/12/1
f 37/13/1 38/14/1 39/15/1 40/16/1
f 41/17/1 42/18/1 43/19/1 44/20/1
f 45/21/1 46/22/1 47/23/1 48/24/1
f 49/1/1 50/2/1 51/3/1 52/4/1
f 53/5/1 54/6/1 55/7/1 56/8/1
f 57/9/1 58/10/1 59/11/1 60/12/1
f 61/13/1 62/14/1 63/15/1 64/16/1
f 65/17/1 66/18/1 67/19/1 68/20/1
f 69/21/1 70/22/1 71/23/1 72/24/1
f 73/1/1 74/2/1 75/3/1 76/4/1
f 77/5/1 78/6/1 79/7/1 80/8/1
f 81/9/1 82/10/1 83/11/1 84/12/1
f 85/13/1 86/14/1 87/15/1 88/16/1
f 89/17/1 90/18/1 91/19/1 92/20/1
f 93/21/1 94/22/1 95/23/1 96/24/1
f 97/1/1 98/2/1 99/3/1 100/4/1
f 101/5/1 102/6/1 103/7/1 104/8/1
f 105/9/1 106/10/1 107/11/1 108/12/1
f 109/13/1 110/14/1 111/15/1 112/16/1
f 113/17/1 114/18/1 115/19/1 116/20/1
f 117/21/1 118/22/1 119/23/1 120/24/1
f 121/1/1 122/2/1 123/3/1 124/4/1
f 125/5/1 126/6/1 127/7/1 128/8/1
f 129/9/1 130/10/1 131/11/1 132/12/1
f 133/1/1 134/2/1 135/3/1 136/4/1
f 137/5/1 138/6/1 139/7/1 140/8/1
f 141/9/1 142/10/1 143/11/1 144/12/1
f 145/13/1 146/14/1 147/15/1 148/16/1
f 149/17/1 150/18/1 151/19/1 152/20/1
f 153/21/1 154/22/1 155/23/1 156/24/1
f 157/13/1 158/14/1 159/15/1 160/16/1
f 161/17/1 162/18/1 163/19/1 164/20/1
f 165/21/1 166/22/1 167/23/1 168/24/1
f 169/1/1 170/2/1 171/3/1 172/4/1
f 173/5/1 174/6/1 175/7/1 176/8/1
f 177/9/1 178/10/1 179/11/1 180/12/1
f 181/13/1 182/14/1 183/15/1 184/16/1
f 185/17/1 186/18/1 187/19/1 188/20/1
f 189/21/1 190/22/1 191/23/1 192/24/1

