# Tiled2Unity generated file. Do not modify by hand.
# Wavefront file for 'SikatunaLower_mesh_0007.obj'

# Vertices (Count = 180)
v -47 -9 0
v -48 -9 0
v -48 -8 0
v -47 -8 0
v -46 -9 0
v -47 -9 0
v -47 -8 0
v -46 -8 0
v -45 -9 0
v -46 -9 0
v -46 -8 0
v -45 -8 0
v -55 -13 0
v -56 -13 0
v -56 -12 0
v -55 -12 0
v -54 -13 0
v -55 -13 0
v -55 -12 0
v -54 -12 0
v -53 -13 0
v -54 -13 0
v -54 -12 0
v -53 -12 0
v -23 -16 0
v -24 -16 0
v -24 -15 0
v -23 -15 0
v -22 -16 0
v -23 -16 0
v -23 -15 0
v -22 -15 0
v -21 -16 0
v -22 -16 0
v -22 -15 0
v -21 -15 0
v -19 -19 0
v -20 -19 0
v -20 -18 0
v -19 -18 0
v -18 -19 0
v -19 -19 0
v -19 -18 0
v -18 -18 0
v -17 -19 0
v -18 -19 0
v -18 -18 0
v -17 -18 0
v -16 -19 0
v -17 -19 0
v -17 -18 0
v -16 -18 0
v -15 -19 0
v -16 -19 0
v -16 -18 0
v -15 -18 0
v -14 -19 0
v -15 -19 0
v -15 -18 0
v -14 -18 0
v -13 -19 0
v -14 -19 0
v -14 -18 0
v -13 -18 0
v -12 -19 0
v -13 -19 0
v -13 -18 0
v -12 -18 0
v -11 -19 0
v -12 -19 0
v -12 -18 0
v -11 -18 0
v -10 -19 0
v -11 -19 0
v -11 -18 0
v -10 -18 0
v -48 -27 0
v -49 -27 0
v -49 -26 0
v -48 -26 0
v -47 -27 0
v -48 -27 0
v -48 -26 0
v -47 -26 0
v -46 -27 0
v -47 -27 0
v -47 -26 0
v -46 -26 0
v -45 -27 0
v -46 -27 0
v -46 -26 0
v -45 -26 0
v -44 -27 0
v -45 -27 0
v -45 -26 0
v -44 -26 0
v -43 -27 0
v -44 -27 0
v -44 -26 0
v -43 -26 0
v -42 -27 0
v -43 -27 0
v -43 -26 0
v -42 -26 0
v -59 -32 0
v -60 -32 0
v -60 -31 0
v -59 -31 0
v -58 -32 0
v -59 -32 0
v -59 -31 0
v -58 -31 0
v -57 -32 0
v -58 -32 0
v -58 -31 0
v -57 -31 0
v -56 -32 0
v -57 -32 0
v -57 -31 0
v -56 -31 0
v -55 -32 0
v -56 -32 0
v -56 -31 0
v -55 -31 0
v -65 -46 0
v -66 -46 0
v -66 -45 0
v -65 -45 0
v -64 -46 0
v -65 -46 0
v -65 -45 0
v -64 -45 0
v -63 -46 0
v -64 -46 0
v -64 -45 0
v -63 -45 0
v -62 -46 0
v -63 -46 0
v -63 -45 0
v -62 -45 0
v -61 -46 0
v -62 -46 0
v -62 -45 0
v -61 -45 0
v -11 -48 0
v -12 -48 0
v -12 -47 0
v -11 -47 0
v -10 -48 0
v -11 -48 0
v -11 -47 0
v -10 -47 0
v -9 -48 0
v -10 -48 0
v -10 -47 0
v -9 -47 0
v -8 -48 0
v -9 -48 0
v -9 -47 0
v -8 -47 0
v -7 -48 0
v -8 -48 0
v -8 -47 0
v -7 -47 0
v -6 -48 0
v -7 -48 0
v -7 -47 0
v -6 -47 0
v -5 -48 0
v -6 -48 0
v -6 -47 0
v -5 -47 0
v -4 -48 0
v -5 -48 0
v -5 -47 0
v -4 -47 0
v -3 -48 0
v -4 -48 0
v -4 -47 0
v -3 -47 0

# Texture cooridinates (Count = 136)
vt 0.3579496 0.9738063
vt 0.3747448 0.9738063
vt 0.3747448 0.9998779
vt 0.3579496 0.9998779
vt 0.3409101 0.9738063
vt 0.3577054 0.9738063
vt 0.3577054 0.9998779
vt 0.3409101 0.9998779
vt 0.3238707 0.9738063
vt 0.340666 0.9738063
vt 0.340666 0.9998779
vt 0.3238707 0.9998779
vt 0.1534767 0.7106484
vt 0.170272 0.7106484
vt 0.170272 0.73672
vt 0.1534767 0.73672
vt 0.1364373 0.7106484
vt 0.1532326 0.7106484
vt 0.1532326 0.73672
vt 0.1364373 0.73672
vt 0.1193979 0.7106484
vt 0.1361932 0.7106484
vt 0.1361932 0.73672
vt 0.1193979 0.73672
vt 0.1023585 0.7106484
vt 0.1191538 0.7106484
vt 0.1191538 0.73672
vt 0.1023585 0.73672
vt 0.08531909 0.7106484
vt 0.1021143 0.7106484
vt 0.1021143 0.73672
vt 0.08531909 0.73672
vt 0.06827968 0.7106484
vt 0.08507495 0.7106484
vt 0.08507495 0.73672
vt 0.06827968 0.73672
vt 0.05124028 0.7106484
vt 0.06803554 0.7106484
vt 0.06803554 0.73672
vt 0.05124028 0.73672
vt 0.03420088 0.7106484
vt 0.05099614 0.7106484
vt 0.05099614 0.73672
vt 0.03420088 0.73672
vt 0.01716147 0.7106484
vt 0.03395674 0.7106484
vt 0.03395674 0.73672
vt 0.01716147 0.73672
vt 0.0001220703 0.7106484
vt 0.01691733 0.7106484
vt 0.01691733 0.73672
vt 0.0001220703 0.73672
vt 0.3920284 0.3948589
vt 0.4088236 0.3948589
vt 0.4088236 0.4209306
vt 0.3920284 0.4209306
vt 0.3749889 0.3948589
vt 0.3917842 0.3948589
vt 0.3917842 0.4209306
vt 0.3749889 0.4209306
vt 0.3579496 0.3948589
vt 0.3747448 0.3948589
vt 0.3747448 0.4209306
vt 0.3579496 0.4209306
vt 0.3409101 0.3948589
vt 0.3577054 0.3948589
vt 0.3577054 0.4209306
vt 0.3409101 0.4209306
vt 0.3238707 0.3948589
vt 0.340666 0.3948589
vt 0.340666 0.4209306
vt 0.3238707 0.4209306
vt 0.3068313 0.3948589
vt 0.3236266 0.3948589
vt 0.3236266 0.4209306
vt 0.3068313 0.4209306
vt 0.2897919 0.3948589
vt 0.3065872 0.3948589
vt 0.3065872 0.4209306
vt 0.2897919 0.4209306
vt 0.2557131 0.26328
vt 0.2725084 0.26328
vt 0.2725084 0.2893516
vt 0.2557131 0.2893516
vt 0.2386737 0.26328
vt 0.255469 0.26328
vt 0.255469 0.2893516
vt 0.2386737 0.2893516
vt 0.2216343 0.26328
vt 0.2384296 0.26328
vt 0.2384296 0.2893516
vt 0.2216343 0.2893516
vt 0.2045949 0.26328
vt 0.2213902 0.26328
vt 0.2213902 0.2893516
vt 0.2045949 0.2893516
vt 0.1875555 0.26328
vt 0.2043508 0.26328
vt 0.2043508 0.2893516
vt 0.1875555 0.2893516
vt 0.1534767 0.26328
vt 0.170272 0.26328
vt 0.170272 0.2893516
vt 0.1534767 0.2893516
vt 0.1364373 0.26328
vt 0.1532326 0.26328
vt 0.1532326 0.2893516
vt 0.1364373 0.2893516
vt 0.1193979 0.26328
vt 0.1361932 0.26328
vt 0.1361932 0.2893516
vt 0.1193979 0.2893516
vt 0.1023585 0.26328
vt 0.1191538 0.26328
vt 0.1191538 0.2893516
vt 0.1023585 0.2893516
vt 0.08531909 0.26328
vt 0.1021143 0.26328
vt 0.1021143 0.2893516
vt 0.08531909 0.2893516
vt 0.06827968 0.26328
vt 0.08507495 0.26328
vt 0.08507495 0.2893516
vt 0.06827968 0.2893516
vt 0.05124028 0.26328
vt 0.06803554 0.26328
vt 0.06803554 0.2893516
vt 0.05124028 0.2893516
vt 0.03420088 0.26328
vt 0.05099614 0.26328
vt 0.05099614 0.2893516
vt 0.03420088 0.2893516
vt 0.01716147 0.26328
vt 0.03395674 0.26328
vt 0.03395674 0.2893516
vt 0.01716147 0.2893516

# Normal
vn 0 0 -1

# Mesh description
g SikatunaLower_mesh_0007

# Faces
f 1/1/1 2/2/1 3/3/1 4/4/1
f 5/5/1 6/6/1 7/7/1 8/8/1
f 9/9/1 10/10/1 11/11/1 12/12/1
f 13/1/1 14/2/1 15/3/1 16/4/1
f 17/5/1 18/6/1 19/7/1 20/8/1
f 21/9/1 22/10/1 23/11/1 24/12/1
f 25/1/1 26/2/1 27/3/1 28/4/1
f 29/5/1 30/6/1 31/7/1 32/8/1
f 33/9/1 34/10/1 35/11/1 36/12/1
f 37/13/1 38/14/1 39/15/1 40/16/1
f 41/17/1 42/18/1 43/19/1 44/20/1
f 45/21/1 46/22/1 47/23/1 48/24/1
f 49/25/1 50/26/1 51/27/1 52/28/1
f 53/29/1 54/30/1 55/31/1 56/32/1
f 57/33/1 58/34/1 59/35/1 60/36/1
f 61/37/1 62/38/1 63/39/1 64/40/1
f 65/41/1 66/42/1 67/43/1 68/44/1
f 69/45/1 70/46/1 71/47/1 72/48/1
f 73/49/1 74/50/1 75/51/1 76/52/1
f 77/53/1 78/54/1 79/55/1 80/56/1
f 81/57/1 82/58/1 83/59/1 84/60/1
f 85/61/1 86/62/1 87/63/1 88/64/1
f 89/65/1 90/66/1 91/67/1 92/68/1
f 93/69/1 94/70/1 95/71/1 96/72/1
f 97/73/1 98/74/1 99/75/1 100/76/1
f 101/77/1 102/78/1 103/79/1 104/80/1
f 105/81/1 106/82/1 107/83/1 108/84/1
f 109/85/1 110/86/1 111/87/1 112/88/1
f 113/89/1 114/90/1 115/91/1 116/92/1
f 117/93/1 118/94/1 119/95/1 120/96/1
f 121/97/1 122/98/1 123/99/1 124/100/1
f 125/81/1 126/82/1 127/83/1 128/84/1
f 129/85/1 130/86/1 131/87/1 132/88/1
f 133/89/1 134/90/1 135/91/1 136/92/1
f 137/93/1 138/94/1 139/95/1 140/96/1
f 141/97/1 142/98/1 143/99/1 144/100/1
f 145/101/1 146/102/1 147/103/1 148/104/1
f 149/105/1 150/106/1 151/107/1 152/108/1
f 153/109/1 154/110/1 155/111/1 156/112/1
f 157/113/1 158/114/1 159/115/1 160/116/1
f 161/117/1 162/118/1 163/119/1 164/120/1
f 165/121/1 166/122/1 167/123/1 168/124/1
f 169/125/1 170/126/1 171/127/1 172/128/1
f 173/129/1 174/130/1 175/131/1 176/132/1
f 177/133/1 178/134/1 179/135/1 180/136/1

