# Tiled2Unity generated file. Do not modify by hand.
# Wavefront file for 'Jolibee_mesh_0011.obj'

# Vertices (Count = 532)
v -18 -8 0
v -19 -8 0
v -19 -7 0
v -18 -7 0
v -17 -8 0
v -18 -8 0
v -18 -7 0
v -17 -7 0
v -16 -8 0
v -17 -8 0
v -17 -7 0
v -16 -7 0
v -15 -8 0
v -16 -8 0
v -16 -7 0
v -15 -7 0
v -18 -9 0
v -19 -9 0
v -19 -8 0
v -18 -8 0
v -17 -9 0
v -18 -9 0
v -18 -8 0
v -17 -8 0
v -16 -9 0
v -17 -9 0
v -17 -8 0
v -16 -8 0
v -15 -9 0
v -16 -9 0
v -16 -8 0
v -15 -8 0
v -22 -10 0
v -23 -10 0
v -23 -9 0
v -22 -9 0
v -21 -10 0
v -22 -10 0
v -22 -9 0
v -21 -9 0
v -20 -10 0
v -21 -10 0
v -21 -9 0
v -20 -9 0
v -19 -10 0
v -20 -10 0
v -20 -9 0
v -19 -9 0
v -18 -10 0
v -19 -10 0
v -19 -9 0
v -18 -9 0
v -17 -10 0
v -18 -10 0
v -18 -9 0
v -17 -9 0
v -16 -10 0
v -17 -10 0
v -17 -9 0
v -16 -9 0
v -15 -10 0
v -16 -10 0
v -16 -9 0
v -15 -9 0
v -22 -11 0
v -23 -11 0
v -23 -10 0
v -22 -10 0
v -21 -11 0
v -22 -11 0
v -22 -10 0
v -21 -10 0
v -20 -11 0
v -21 -11 0
v -21 -10 0
v -20 -10 0
v -19 -11 0
v -20 -11 0
v -20 -10 0
v -19 -10 0
v -18 -11 0
v -19 -11 0
v -19 -10 0
v -18 -10 0
v -15 -11 0
v -16 -11 0
v -16 -10 0
v -15 -10 0
v -22 -12 0
v -23 -12 0
v -23 -11 0
v -22 -11 0
v -21 -12 0
v -22 -12 0
v -22 -11 0
v -21 -11 0
v -20 -12 0
v -21 -12 0
v -21 -11 0
v -20 -11 0
v -19 -12 0
v -20 -12 0
v -20 -11 0
v -19 -11 0
v -31 -13 0
v -32 -13 0
v -32 -12 0
v -31 -12 0
v -30 -13 0
v -31 -13 0
v -31 -12 0
v -30 -12 0
v -29 -13 0
v -30 -13 0
v -30 -12 0
v -29 -12 0
v -28 -13 0
v -29 -13 0
v -29 -12 0
v -28 -12 0
v -22 -13 0
v -23 -13 0
v -23 -12 0
v -22 -12 0
v -19 -13 0
v -20 -13 0
v -20 -12 0
v -19 -12 0
v -31 -14 0
v -32 -14 0
v -32 -13 0
v -31 -13 0
v -30 -14 0
v -31 -14 0
v -31 -13 0
v -30 -13 0
v -29 -14 0
v -30 -14 0
v -30 -13 0
v -29 -13 0
v -28 -14 0
v -29 -14 0
v -29 -13 0
v -28 -13 0
v -31 -15 0
v -32 -15 0
v -32 -14 0
v -31 -14 0
v -30 -15 0
v -31 -15 0
v -31 -14 0
v -30 -14 0
v -29 -15 0
v -30 -15 0
v -30 -14 0
v -29 -14 0
v -28 -15 0
v -29 -15 0
v -29 -14 0
v -28 -14 0
v -31 -16 0
v -32 -16 0
v -32 -15 0
v -31 -15 0
v -28 -16 0
v -29 -16 0
v -29 -15 0
v -28 -15 0
v -10 -16 0
v -11 -16 0
v -11 -15 0
v -10 -15 0
v -9 -16 0
v -10 -16 0
v -10 -15 0
v -9 -15 0
v -8 -16 0
v -9 -16 0
v -9 -15 0
v -8 -15 0
v -7 -16 0
v -8 -16 0
v -8 -15 0
v -7 -15 0
v -10 -17 0
v -11 -17 0
v -11 -16 0
v -10 -16 0
v -9 -17 0
v -10 -17 0
v -10 -16 0
v -9 -16 0
v -8 -17 0
v -9 -17 0
v -9 -16 0
v -8 -16 0
v -7 -17 0
v -8 -17 0
v -8 -16 0
v -7 -16 0
v -10 -18 0
v -11 -18 0
v -11 -17 0
v -10 -17 0
v -9 -18 0
v -10 -18 0
v -10 -17 0
v -9 -17 0
v -8 -18 0
v -9 -18 0
v -9 -17 0
v -8 -17 0
v -7 -18 0
v -8 -18 0
v -8 -17 0
v -7 -17 0
v -10 -19 0
v -11 -19 0
v -11 -18 0
v -10 -18 0
v -7 -19 0
v -8 -19 0
v -8 -18 0
v -7 -18 0
v -55 -20 0
v -56 -20 0
v -56 -19 0
v -55 -19 0
v -54 -20 0
v -55 -20 0
v -55 -19 0
v -54 -19 0
v -53 -20 0
v -54 -20 0
v -54 -19 0
v -53 -19 0
v -55 -21 0
v -56 -21 0
v -56 -20 0
v -55 -20 0
v -54 -21 0
v -55 -21 0
v -55 -20 0
v -54 -20 0
v -53 -21 0
v -54 -21 0
v -54 -20 0
v -53 -20 0
v -55 -22 0
v -56 -22 0
v -56 -21 0
v -55 -21 0
v -54 -22 0
v -55 -22 0
v -55 -21 0
v -54 -21 0
v -53 -22 0
v -54 -22 0
v -54 -21 0
v -53 -21 0
v -42 -23 0
v -43 -23 0
v -43 -22 0
v -42 -22 0
v -41 -23 0
v -42 -23 0
v -42 -22 0
v -41 -22 0
v -40 -23 0
v -41 -23 0
v -41 -22 0
v -40 -22 0
v -22 -23 0
v -23 -23 0
v -23 -22 0
v -22 -22 0
v -21 -23 0
v -22 -23 0
v -22 -22 0
v -21 -22 0
v -20 -23 0
v -21 -23 0
v -21 -22 0
v -20 -22 0
v -19 -23 0
v -20 -23 0
v -20 -22 0
v -19 -22 0
v -42 -24 0
v -43 -24 0
v -43 -23 0
v -42 -23 0
v -41 -24 0
v -42 -24 0
v -42 -23 0
v -41 -23 0
v -40 -24 0
v -41 -24 0
v -41 -23 0
v -40 -23 0
v -22 -24 0
v -23 -24 0
v -23 -23 0
v -22 -23 0
v -21 -24 0
v -22 -24 0
v -22 -23 0
v -21 -23 0
v -20 -24 0
v -21 -24 0
v -21 -23 0
v -20 -23 0
v -19 -24 0
v -20 -24 0
v -20 -23 0
v -19 -23 0
v -36 -25 0
v -37 -25 0
v -37 -24 0
v -36 -24 0
v -35 -25 0
v -36 -25 0
v -36 -24 0
v -35 -24 0
v -34 -25 0
v -35 -25 0
v -35 -24 0
v -34 -24 0
v -22 -25 0
v -23 -25 0
v -23 -24 0
v -22 -24 0
v -21 -25 0
v -22 -25 0
v -22 -24 0
v -21 -24 0
v -20 -25 0
v -21 -25 0
v -21 -24 0
v -20 -24 0
v -19 -25 0
v -20 -25 0
v -20 -24 0
v -19 -24 0
v -36 -26 0
v -37 -26 0
v -37 -25 0
v -36 -25 0
v -35 -26 0
v -36 -26 0
v -36 -25 0
v -35 -25 0
v -34 -26 0
v -35 -26 0
v -35 -25 0
v -34 -25 0
v -22 -26 0
v -23 -26 0
v -23 -25 0
v -22 -25 0
v -19 -26 0
v -20 -26 0
v -20 -25 0
v -19 -25 0
v -58 -36 0
v -59 -36 0
v -59 -35 0
v -58 -35 0
v -57 -36 0
v -58 -36 0
v -58 -35 0
v -57 -35 0
v -56 -36 0
v -57 -36 0
v -57 -35 0
v -56 -35 0
v -55 -36 0
v -56 -36 0
v -56 -35 0
v -55 -35 0
v -7 -36 0
v -8 -36 0
v -8 -35 0
v -7 -35 0
v -6 -36 0
v -7 -36 0
v -7 -35 0
v -6 -35 0
v -5 -36 0
v -6 -36 0
v -6 -35 0
v -5 -35 0
v -4 -36 0
v -5 -36 0
v -5 -35 0
v -4 -35 0
v -58 -37 0
v -59 -37 0
v -59 -36 0
v -58 -36 0
v -57 -37 0
v -58 -37 0
v -58 -36 0
v -57 -36 0
v -56 -37 0
v -57 -37 0
v -57 -36 0
v -56 -36 0
v -55 -37 0
v -56 -37 0
v -56 -36 0
v -55 -36 0
v -11 -37 0
v -12 -37 0
v -12 -36 0
v -11 -36 0
v -10 -37 0
v -11 -37 0
v -11 -36 0
v -10 -36 0
v -9 -37 0
v -10 -37 0
v -10 -36 0
v -9 -36 0
v -8 -37 0
v -9 -37 0
v -9 -36 0
v -8 -36 0
v -7 -37 0
v -8 -37 0
v -8 -36 0
v -7 -36 0
v -6 -37 0
v -7 -37 0
v -7 -36 0
v -6 -36 0
v -5 -37 0
v -6 -37 0
v -6 -36 0
v -5 -36 0
v -4 -37 0
v -5 -37 0
v -5 -36 0
v -4 -36 0
v -58 -38 0
v -59 -38 0
v -59 -37 0
v -58 -37 0
v -57 -38 0
v -58 -38 0
v -58 -37 0
v -57 -37 0
v -56 -38 0
v -57 -38 0
v -57 -37 0
v -56 -37 0
v -55 -38 0
v -56 -38 0
v -56 -37 0
v -55 -37 0
v -11 -38 0
v -12 -38 0
v -12 -37 0
v -11 -37 0
v -10 -38 0
v -11 -38 0
v -11 -37 0
v -10 -37 0
v -9 -38 0
v -10 -38 0
v -10 -37 0
v -9 -37 0
v -8 -38 0
v -9 -38 0
v -9 -37 0
v -8 -37 0
v -7 -38 0
v -8 -38 0
v -8 -37 0
v -7 -37 0
v -6 -38 0
v -7 -38 0
v -7 -37 0
v -6 -37 0
v -5 -38 0
v -6 -38 0
v -6 -37 0
v -5 -37 0
v -4 -38 0
v -5 -38 0
v -5 -37 0
v -4 -37 0
v -58 -39 0
v -59 -39 0
v -59 -38 0
v -58 -38 0
v -55 -39 0
v -56 -39 0
v -56 -38 0
v -55 -38 0
v -11 -39 0
v -12 -39 0
v -12 -38 0
v -11 -38 0
v -10 -39 0
v -11 -39 0
v -11 -38 0
v -10 -38 0
v -9 -39 0
v -10 -39 0
v -10 -38 0
v -9 -38 0
v -8 -39 0
v -9 -39 0
v -9 -38 0
v -8 -38 0
v -7 -39 0
v -8 -39 0
v -8 -38 0
v -7 -38 0
v -4 -39 0
v -5 -39 0
v -5 -38 0
v -4 -38 0
v -11 -40 0
v -12 -40 0
v -12 -39 0
v -11 -39 0
v -8 -40 0
v -9 -40 0
v -9 -39 0
v -8 -39 0

# Texture cooridinates (Count = 92)
vt 0.0625408 0.08345538
vt 0.0831029 0.08345538
vt 0.0831029 0.110989
vt 0.0625408 0.110989
vt 0.04173455 0.08345538
vt 0.06229666 0.08345538
vt 0.06229666 0.110989
vt 0.04173455 0.110989
vt 0.02092831 0.08345538
vt 0.04149041 0.08345538
vt 0.04149041 0.110989
vt 0.02092831 0.110989
vt 0.0001220703 0.08345538
vt 0.02068417 0.08345538
vt 0.02068417 0.110989
vt 0.0001220703 0.110989
vt 0.0625408 0.05567765
vt 0.0831029 0.05567765
vt 0.0831029 0.08321124
vt 0.0625408 0.08321124
vt 0.04173455 0.05567765
vt 0.06229666 0.05567765
vt 0.06229666 0.08321124
vt 0.04173455 0.08321124
vt 0.02092831 0.05567765
vt 0.04149041 0.05567765
vt 0.04149041 0.08321124
vt 0.02092831 0.08321124
vt 0.0001220703 0.05567765
vt 0.02068417 0.05567765
vt 0.02068417 0.08321124
vt 0.0001220703 0.08321124
vt 0.0625408 0.02789986
vt 0.0831029 0.02789986
vt 0.0831029 0.05543351
vt 0.0625408 0.05543351
vt 0.04173455 0.02789986
vt 0.06229666 0.02789986
vt 0.06229666 0.05543351
vt 0.04173455 0.05543351
vt 0.02092831 0.02789986
vt 0.04149041 0.02789986
vt 0.04149041 0.05543351
vt 0.02092831 0.05543351
vt 0.0001220703 0.02789986
vt 0.02068417 0.02789986
vt 0.02068417 0.05543351
vt 0.0001220703 0.05543351
vt 0.0625408 0.0001220703
vt 0.0831029 0.0001220703
vt 0.0831029 0.02765572
vt 0.0625408 0.02765572
vt 0.0001220703 0.0001220703
vt 0.02068417 0.0001220703
vt 0.02068417 0.02765572
vt 0.0001220703 0.02765572
vt 0.1249595 0.08345538
vt 0.1455216 0.08345538
vt 0.1455216 0.110989
vt 0.1249595 0.110989
vt 0.1041533 0.08345538
vt 0.1247154 0.08345538
vt 0.1247154 0.110989
vt 0.1041533 0.110989
vt 0.08334704 0.08345538
vt 0.1039091 0.08345538
vt 0.1039091 0.110989
vt 0.08334704 0.110989
vt 0.1249595 0.05567765
vt 0.1455216 0.05567765
vt 0.1455216 0.08321124
vt 0.1249595 0.08321124
vt 0.1041533 0.05567765
vt 0.1247154 0.05567765
vt 0.1247154 0.08321124
vt 0.1041533 0.08321124
vt 0.08334704 0.05567765
vt 0.1039091 0.05567765
vt 0.1039091 0.08321124
vt 0.08334704 0.08321124
vt 0.1249595 0.02789986
vt 0.1455216 0.02789986
vt 0.1455216 0.05543351
vt 0.1249595 0.05543351
vt 0.1041533 0.02789986
vt 0.1247154 0.02789986
vt 0.1247154 0.05543351
vt 0.1041533 0.05543351
vt 0.08334704 0.02789986
vt 0.1039091 0.02789986
vt 0.1039091 0.05543351
vt 0.08334704 0.05543351

# Normal
vn 0 0 -1

# Mesh description
g Jolibee_mesh_0011

# Faces
f 1/1/1 2/2/1 3/3/1 4/4/1
f 5/5/1 6/6/1 7/7/1 8/8/1
f 9/9/1 10/10/1 11/11/1 12/12/1
f 13/13/1 14/14/1 15/15/1 16/16/1
f 17/17/1 18/18/1 19/19/1 20/20/1
f 21/21/1 22/22/1 23/23/1 24/24/1
f 25/25/1 26/26/1 27/27/1 28/28/1
f 29/29/1 30/30/1 31/31/1 32/32/1
f 33/1/1 34/2/1 35/3/1 36/4/1
f 37/5/1 38/6/1 39/7/1 40/8/1
f 41/9/1 42/10/1 43/11/1 44/12/1
f 45/13/1 46/14/1 47/15/1 48/16/1
f 49/33/1 50/34/1 51/35/1 52/36/1
f 53/37/1 54/38/1 55/39/1 56/40/1
f 57/41/1 58/42/1 59/43/1 60/44/1
f 61/45/1 62/46/1 63/47/1 64/48/1
f 65/17/1 66/18/1 67/19/1 68/20/1
f 69/21/1 70/22/1 71/23/1 72/24/1
f 73/25/1 74/26/1 75/27/1 76/28/1
f 77/29/1 78/30/1 79/31/1 80/32/1
f 81/49/1 82/50/1 83/51/1 84/52/1
f 85/53/1 86/54/1 87/55/1 88/56/1
f 89/33/1 90/34/1 91/35/1 92/36/1
f 93/37/1 94/38/1 95/39/1 96/40/1
f 97/41/1 98/42/1 99/43/1 100/44/1
f 101/45/1 102/46/1 103/47/1 104/48/1
f 105/1/1 106/2/1 107/3/1 108/4/1
f 109/5/1 110/6/1 111/7/1 112/8/1
f 113/9/1 114/10/1 115/11/1 116/12/1
f 117/13/1 118/14/1 119/15/1 120/16/1
f 121/49/1 122/50/1 123/51/1 124/52/1
f 125/53/1 126/54/1 127/55/1 128/56/1
f 129/17/1 130/18/1 131/19/1 132/20/1
f 133/21/1 134/22/1 135/23/1 136/24/1
f 137/25/1 138/26/1 139/27/1 140/28/1
f 141/29/1 142/30/1 143/31/1 144/32/1
f 145/33/1 146/34/1 147/35/1 148/36/1
f 149/37/1 150/38/1 151/39/1 152/40/1
f 153/41/1 154/42/1 155/43/1 156/44/1
f 157/45/1 158/46/1 159/47/1 160/48/1
f 161/49/1 162/50/1 163/51/1 164/52/1
f 165/53/1 166/54/1 167/55/1 168/56/1
f 169/1/1 170/2/1 171/3/1 172/4/1
f 173/5/1 174/6/1 175/7/1 176/8/1
f 177/9/1 178/10/1 179/11/1 180/12/1
f 181/13/1 182/14/1 183/15/1 184/16/1
f 185/17/1 186/18/1 187/19/1 188/20/1
f 189/21/1 190/22/1 191/23/1 192/24/1
f 193/25/1 194/26/1 195/27/1 196/28/1
f 197/29/1 198/30/1 199/31/1 200/32/1
f 201/33/1 202/34/1 203/35/1 204/36/1
f 205/37/1 206/38/1 207/39/1 208/40/1
f 209/41/1 210/42/1 211/43/1 212/44/1
f 213/45/1 214/46/1 215/47/1 216/48/1
f 217/49/1 218/50/1 219/51/1 220/52/1
f 221/53/1 222/54/1 223/55/1 224/56/1
f 225/57/1 226/58/1 227/59/1 228/60/1
f 229/61/1 230/62/1 231/63/1 232/64/1
f 233/65/1 234/66/1 235/67/1 236/68/1
f 237/69/1 238/70/1 239/71/1 240/72/1
f 241/73/1 242/74/1 243/75/1 244/76/1
f 245/77/1 246/78/1 247/79/1 248/80/1
f 249/81/1 250/82/1 251/83/1 252/84/1
f 253/85/1 254/86/1 255/87/1 256/88/1
f 257/89/1 258/90/1 259/91/1 260/92/1
f 261/57/1 262/58/1 263/59/1 264/60/1
f 265/61/1 266/62/1 267/63/1 268/64/1
f 269/65/1 270/66/1 271/67/1 272/68/1
f 273/1/1 274/2/1 275/3/1 276/4/1
f 277/5/1 278/6/1 279/7/1 280/8/1
f 281/9/1 282/10/1 283/11/1 284/12/1
f 285/13/1 286/14/1 287/15/1 288/16/1
f 289/69/1 290/70/1 291/71/1 292/72/1
f 293/73/1 294/74/1 295/75/1 296/76/1
f 297/77/1 298/78/1 299/79/1 300/80/1
f 301/17/1 302/18/1 303/19/1 304/20/1
f 305/21/1 306/22/1 307/23/1 308/24/1
f 309/25/1 310/26/1 311/27/1 312/28/1
f 313/29/1 314/30/1 315/31/1 316/32/1
f 317/57/1 318/58/1 319/59/1 320/60/1
f 321/61/1 322/62/1 323/63/1 324/64/1
f 325/65/1 326/66/1 327/67/1 328/68/1
f 329/33/1 330/34/1 331/35/1 332/36/1
f 333/37/1 334/38/1 335/39/1 336/40/1
f 337/41/1 338/42/1 339/43/1 340/44/1
f 341/45/1 342/46/1 343/47/1 344/48/1
f 345/69/1 346/70/1 347/71/1 348/72/1
f 349/73/1 350/74/1 351/75/1 352/76/1
f 353/77/1 354/78/1 355/79/1 356/80/1
f 357/49/1 358/50/1 359/51/1 360/52/1
f 361/53/1 362/54/1 363/55/1 364/56/1
f 365/1/1 366/2/1 367/3/1 368/4/1
f 369/5/1 370/6/1 371/7/1 372/8/1
f 373/9/1 374/10/1 375/11/1 376/12/1
f 377/13/1 378/14/1 379/15/1 380/16/1
f 381/1/1 382/2/1 383/3/1 384/4/1
f 385/5/1 386/6/1 387/7/1 388/8/1
f 389/9/1 390/10/1 391/11/1 392/12/1
f 393/13/1 394/14/1 395/15/1 396/16/1
f 397/17/1 398/18/1 399/19/1 400/20/1
f 401/21/1 402/22/1 403/23/1 404/24/1
f 405/25/1 406/26/1 407/27/1 408/28/1
f 409/29/1 410/30/1 411/31/1 412/32/1
f 413/1/1 414/2/1 415/3/1 416/4/1
f 417/5/1 418/6/1 419/7/1 420/8/1
f 421/9/1 422/10/1 423/11/1 424/12/1
f 425/13/1 426/14/1 427/15/1 428/16/1
f 429/17/1 430/18/1 431/19/1 432/20/1
f 433/21/1 434/22/1 435/23/1 436/24/1
f 437/25/1 438/26/1 439/27/1 440/28/1
f 441/29/1 442/30/1 443/31/1 444/32/1
f 445/33/1 446/34/1 447/35/1 448/36/1
f 449/37/1 450/38/1 451/39/1 452/40/1
f 453/41/1 454/42/1 455/43/1 456/44/1
f 457/45/1 458/46/1 459/47/1 460/48/1
f 461/17/1 462/18/1 463/19/1 464/20/1
f 465/21/1 466/22/1 467/23/1 468/24/1
f 469/25/1 470/26/1 471/27/1 472/28/1
f 473/29/1 474/30/1 475/31/1 476/32/1
f 477/33/1 478/34/1 479/35/1 480/36/1
f 481/37/1 482/38/1 483/39/1 484/40/1
f 485/41/1 486/42/1 487/43/1 488/44/1
f 489/45/1 490/46/1 491/47/1 492/48/1
f 493/49/1 494/50/1 495/51/1 496/52/1
f 497/53/1 498/54/1 499/55/1 500/56/1
f 501/33/1 502/34/1 503/35/1 504/36/1
f 505/37/1 506/38/1 507/39/1 508/40/1
f 509/41/1 510/42/1 511/43/1 512/44/1
f 513/45/1 514/46/1 515/47/1 516/48/1
f 517/49/1 518/50/1 519/51/1 520/52/1
f 521/53/1 522/54/1 523/55/1 524/56/1
f 525/49/1 526/50/1 527/51/1 528/52/1
f 529/53/1 530/54/1 531/55/1 532/56/1

