# Tiled2Unity generated file. Do not modify by hand.
# Wavefront file for 'Jolibee_mesh_0010.obj'

# Vertices (Count = 240)
v -71 -15 0
v -72 -15 0
v -72 -14 0
v -71 -14 0
v -70 -15 0
v -71 -15 0
v -71 -14 0
v -70 -14 0
v -69 -15 0
v -70 -15 0
v -70 -14 0
v -69 -14 0
v -68 -15 0
v -69 -15 0
v -69 -14 0
v -68 -14 0
v -67 -15 0
v -68 -15 0
v -68 -14 0
v -67 -14 0
v -71 -34 0
v -72 -34 0
v -72 -33 0
v -71 -33 0
v -70 -34 0
v -71 -34 0
v -71 -33 0
v -70 -33 0
v -69 -34 0
v -70 -34 0
v -70 -33 0
v -69 -33 0
v -71 -38 0
v -72 -38 0
v -72 -37 0
v -71 -37 0
v -70 -38 0
v -71 -38 0
v -71 -37 0
v -70 -37 0
v -69 -38 0
v -70 -38 0
v -70 -37 0
v -69 -37 0
v -68 -38 0
v -69 -38 0
v -69 -37 0
v -68 -37 0
v -67 -38 0
v -68 -38 0
v -68 -37 0
v -67 -37 0
v -66 -38 0
v -67 -38 0
v -67 -37 0
v -66 -37 0
v -65 -38 0
v -66 -38 0
v -66 -37 0
v -65 -37 0
v -64 -38 0
v -65 -38 0
v -65 -37 0
v -64 -37 0
v -63 -38 0
v -64 -38 0
v -64 -37 0
v -63 -37 0
v -45 -39 0
v -46 -39 0
v -46 -38 0
v -45 -38 0
v -44 -39 0
v -45 -39 0
v -45 -38 0
v -44 -38 0
v -43 -39 0
v -44 -39 0
v -44 -38 0
v -43 -38 0
v -42 -39 0
v -43 -39 0
v -43 -38 0
v -42 -38 0
v -41 -39 0
v -42 -39 0
v -42 -38 0
v -41 -38 0
v -40 -39 0
v -41 -39 0
v -41 -38 0
v -40 -38 0
v -60 -40 0
v -61 -40 0
v -61 -39 0
v -60 -39 0
v -59 -40 0
v -60 -40 0
v -60 -39 0
v -59 -39 0
v -58 -40 0
v -59 -40 0
v -59 -39 0
v -58 -39 0
v -57 -40 0
v -58 -40 0
v -58 -39 0
v -57 -39 0
v -56 -40 0
v -57 -40 0
v -57 -39 0
v -56 -39 0
v -55 -40 0
v -56 -40 0
v -56 -39 0
v -55 -39 0
v -54 -40 0
v -55 -40 0
v -55 -39 0
v -54 -39 0
v -45 -40 0
v -46 -40 0
v -46 -39 0
v -45 -39 0
v -44 -40 0
v -45 -40 0
v -45 -39 0
v -44 -39 0
v -43 -40 0
v -44 -40 0
v -44 -39 0
v -43 -39 0
v -42 -40 0
v -43 -40 0
v -43 -39 0
v -42 -39 0
v -41 -40 0
v -42 -40 0
v -42 -39 0
v -41 -39 0
v -40 -40 0
v -41 -40 0
v -41 -39 0
v -40 -39 0
v -59 -41 0
v -60 -41 0
v -60 -40 0
v -59 -40 0
v -58 -41 0
v -59 -41 0
v -59 -40 0
v -58 -40 0
v -57 -41 0
v -58 -41 0
v -58 -40 0
v -57 -40 0
v -56 -41 0
v -57 -41 0
v -57 -40 0
v -56 -40 0
v -55 -41 0
v -56 -41 0
v -56 -40 0
v -55 -40 0
v -54 -41 0
v -55 -41 0
v -55 -40 0
v -54 -40 0
v -45 -41 0
v -46 -41 0
v -46 -40 0
v -45 -40 0
v -44 -41 0
v -45 -41 0
v -45 -40 0
v -44 -40 0
v -43 -41 0
v -44 -41 0
v -44 -40 0
v -43 -40 0
v -42 -41 0
v -43 -41 0
v -43 -40 0
v -42 -40 0
v -41 -41 0
v -42 -41 0
v -42 -40 0
v -41 -40 0
v -40 -41 0
v -41 -41 0
v -41 -40 0
v -40 -40 0
v -59 -42 0
v -60 -42 0
v -60 -41 0
v -59 -41 0
v -58 -42 0
v -59 -42 0
v -59 -41 0
v -58 -41 0
v -57 -42 0
v -58 -42 0
v -58 -41 0
v -57 -41 0
v -56 -42 0
v -57 -42 0
v -57 -41 0
v -56 -41 0
v -55 -42 0
v -56 -42 0
v -56 -41 0
v -55 -41 0
v -54 -42 0
v -55 -42 0
v -55 -41 0
v -54 -41 0
v -45 -42 0
v -46 -42 0
v -46 -41 0
v -45 -41 0
v -44 -42 0
v -45 -42 0
v -45 -41 0
v -44 -41 0
v -43 -42 0
v -44 -42 0
v -44 -41 0
v -43 -41 0
v -42 -42 0
v -43 -42 0
v -43 -41 0
v -42 -41 0
v -41 -42 0
v -42 -42 0
v -42 -41 0
v -41 -41 0
v -40 -42 0
v -41 -42 0
v -41 -41 0
v -40 -41 0

# Texture cooridinates (Count = 192)
vt 0.3579496 0.26328
vt 0.3747448 0.26328
vt 0.3747448 0.2893516
vt 0.3579496 0.2893516
vt 0.3409101 0.26328
vt 0.3577054 0.26328
vt 0.3577054 0.2893516
vt 0.3409101 0.2893516
vt 0.3238707 0.26328
vt 0.340666 0.26328
vt 0.340666 0.2893516
vt 0.3238707 0.2893516
vt 0.3068313 0.26328
vt 0.3236266 0.26328
vt 0.3236266 0.2893516
vt 0.3068313 0.2893516
vt 0.2897919 0.26328
vt 0.3065872 0.26328
vt 0.3065872 0.2893516
vt 0.2897919 0.2893516
vt 0.2045949 0.26328
vt 0.2213902 0.26328
vt 0.2213902 0.2893516
vt 0.2045949 0.2893516
vt 0.1875555 0.26328
vt 0.2043508 0.26328
vt 0.2043508 0.2893516
vt 0.1875555 0.2893516
vt 0.1705161 0.26328
vt 0.1873114 0.26328
vt 0.1873114 0.2893516
vt 0.1705161 0.2893516
vt 0.1534767 0.3948589
vt 0.170272 0.3948589
vt 0.170272 0.4209306
vt 0.1534767 0.4209306
vt 0.1364373 0.3948589
vt 0.1532326 0.3948589
vt 0.1532326 0.4209306
vt 0.1364373 0.4209306
vt 0.1193979 0.3948589
vt 0.1361932 0.3948589
vt 0.1361932 0.4209306
vt 0.1193979 0.4209306
vt 0.1023585 0.3948589
vt 0.1191538 0.3948589
vt 0.1191538 0.4209306
vt 0.1023585 0.4209306
vt 0.08531909 0.3948589
vt 0.1021143 0.3948589
vt 0.1021143 0.4209306
vt 0.08531909 0.4209306
vt 0.06827968 0.3948589
vt 0.08507495 0.3948589
vt 0.08507495 0.4209306
vt 0.06827968 0.4209306
vt 0.05124028 0.3948589
vt 0.06803554 0.3948589
vt 0.06803554 0.4209306
vt 0.05124028 0.4209306
vt 0.03420088 0.3948589
vt 0.05099614 0.3948589
vt 0.05099614 0.4209306
vt 0.03420088 0.4209306
vt 0.01716147 0.3948589
vt 0.03395674 0.3948589
vt 0.03395674 0.4209306
vt 0.01716147 0.4209306
vt 0.5965012 0.3159115
vt 0.6132964 0.3159115
vt 0.6132964 0.3419832
vt 0.5965012 0.3419832
vt 0.5794618 0.3159115
vt 0.596257 0.3159115
vt 0.596257 0.3419832
vt 0.5794618 0.3419832
vt 0.5624224 0.3159115
vt 0.5792177 0.3159115
vt 0.5792177 0.3419832
vt 0.5624224 0.3419832
vt 0.545383 0.3159115
vt 0.5621783 0.3159115
vt 0.5621783 0.3419832
vt 0.545383 0.3419832
vt 0.5283436 0.3159115
vt 0.5451388 0.3159115
vt 0.5451388 0.3419832
vt 0.5283436 0.3419832
vt 0.5113042 0.3159115
vt 0.5280994 0.3159115
vt 0.5280994 0.3419832
vt 0.5113042 0.3419832
vt 0.5113042 0.131701
vt 0.5280994 0.131701
vt 0.5280994 0.1577727
vt 0.5113042 0.1577727
vt 0.4942648 0.131701
vt 0.5110601 0.131701
vt 0.5110601 0.1577727
vt 0.4942648 0.1577727
vt 0.4772254 0.131701
vt 0.4940206 0.131701
vt 0.4940206 0.1577727
vt 0.4772254 0.1577727
vt 0.460186 0.131701
vt 0.4769812 0.131701
vt 0.4769812 0.1577727
vt 0.460186 0.1577727
vt 0.4431466 0.131701
vt 0.4599418 0.131701
vt 0.4599418 0.1577727
vt 0.4431466 0.1577727
vt 0.4261072 0.131701
vt 0.4429024 0.131701
vt 0.4429024 0.1577727
vt 0.4261072 0.1577727
vt 0.4090677 0.131701
vt 0.425863 0.131701
vt 0.425863 0.1577727
vt 0.4090677 0.1577727
vt 0.5965012 0.2895958
vt 0.6132964 0.2895958
vt 0.6132964 0.3156674
vt 0.5965012 0.3156674
vt 0.5794618 0.2895958
vt 0.596257 0.2895958
vt 0.596257 0.3156674
vt 0.5794618 0.3156674
vt 0.5624224 0.2895958
vt 0.5792177 0.2895958
vt 0.5792177 0.3156674
vt 0.5624224 0.3156674
vt 0.545383 0.2895958
vt 0.5621783 0.2895958
vt 0.5621783 0.3156674
vt 0.545383 0.3156674
vt 0.5283436 0.2895958
vt 0.5451388 0.2895958
vt 0.5451388 0.3156674
vt 0.5283436 0.3156674
vt 0.5113042 0.2895958
vt 0.5280994 0.2895958
vt 0.5280994 0.3156674
vt 0.5113042 0.3156674
vt 0.5965012 0.26328
vt 0.6132964 0.26328
vt 0.6132964 0.2893516
vt 0.5965012 0.2893516
vt 0.5794618 0.26328
vt 0.596257 0.26328
vt 0.596257 0.2893516
vt 0.5794618 0.2893516
vt 0.5624224 0.26328
vt 0.5792177 0.26328
vt 0.5792177 0.2893516
vt 0.5624224 0.2893516
vt 0.545383 0.26328
vt 0.5621783 0.26328
vt 0.5621783 0.2893516
vt 0.545383 0.2893516
vt 0.5283436 0.26328
vt 0.5451388 0.26328
vt 0.5451388 0.2893516
vt 0.5283436 0.2893516
vt 0.5113042 0.26328
vt 0.5280994 0.26328
vt 0.5280994 0.2893516
vt 0.5113042 0.2893516
vt 0.5965012 0.2369642
vt 0.6132964 0.2369642
vt 0.6132964 0.2630358
vt 0.5965012 0.2630358
vt 0.5794618 0.2369642
vt 0.596257 0.2369642
vt 0.596257 0.2630358
vt 0.5794618 0.2630358
vt 0.5624224 0.2369642
vt 0.5792177 0.2369642
vt 0.5792177 0.2630358
vt 0.5624224 0.2630358
vt 0.545383 0.2369642
vt 0.5621783 0.2369642
vt 0.5621783 0.2630358
vt 0.545383 0.2630358
vt 0.5283436 0.2369642
vt 0.5451388 0.2369642
vt 0.5451388 0.2630358
vt 0.5283436 0.2630358
vt 0.5113042 0.2369642
vt 0.5280994 0.2369642
vt 0.5280994 0.2630358
vt 0.5113042 0.2630358

# Normal
vn 0 0 -1

# Mesh description
g Jolibee_mesh_0010

# Faces
f 1/1/1 2/2/1 3/3/1 4/4/1
f 5/5/1 6/6/1 7/7/1 8/8/1
f 9/9/1 10/10/1 11/11/1 12/12/1
f 13/13/1 14/14/1 15/15/1 16/16/1
f 17/17/1 18/18/1 19/19/1 20/20/1
f 21/21/1 22/22/1 23/23/1 24/24/1
f 25/25/1 26/26/1 27/27/1 28/28/1
f 29/29/1 30/30/1 31/31/1 32/32/1
f 33/33/1 34/34/1 35/35/1 36/36/1
f 37/37/1 38/38/1 39/39/1 40/40/1
f 41/41/1 42/42/1 43/43/1 44/44/1
f 45/45/1 46/46/1 47/47/1 48/48/1
f 49/49/1 50/50/1 51/51/1 52/52/1
f 53/53/1 54/54/1 55/55/1 56/56/1
f 57/57/1 58/58/1 59/59/1 60/60/1
f 61/61/1 62/62/1 63/63/1 64/64/1
f 65/65/1 66/66/1 67/67/1 68/68/1
f 69/69/1 70/70/1 71/71/1 72/72/1
f 73/73/1 74/74/1 75/75/1 76/76/1
f 77/77/1 78/78/1 79/79/1 80/80/1
f 81/81/1 82/82/1 83/83/1 84/84/1
f 85/85/1 86/86/1 87/87/1 88/88/1
f 89/89/1 90/90/1 91/91/1 92/92/1
f 93/93/1 94/94/1 95/95/1 96/96/1
f 97/97/1 98/98/1 99/99/1 100/100/1
f 101/101/1 102/102/1 103/103/1 104/104/1
f 105/105/1 106/106/1 107/107/1 108/108/1
f 109/109/1 110/110/1 111/111/1 112/112/1
f 113/113/1 114/114/1 115/115/1 116/116/1
f 117/117/1 118/118/1 119/119/1 120/120/1
f 121/121/1 122/122/1 123/123/1 124/124/1
f 125/125/1 126/126/1 127/127/1 128/128/1
f 129/129/1 130/130/1 131/131/1 132/132/1
f 133/133/1 134/134/1 135/135/1 136/136/1
f 137/137/1 138/138/1 139/139/1 140/140/1
f 141/141/1 142/142/1 143/143/1 144/144/1
f 145/121/1 146/122/1 147/123/1 148/124/1
f 149/125/1 150/126/1 151/127/1 152/128/1
f 153/129/1 154/130/1 155/131/1 156/132/1
f 157/133/1 158/134/1 159/135/1 160/136/1
f 161/137/1 162/138/1 163/139/1 164/140/1
f 165/141/1 166/142/1 167/143/1 168/144/1
f 169/145/1 170/146/1 171/147/1 172/148/1
f 173/149/1 174/150/1 175/151/1 176/152/1
f 177/153/1 178/154/1 179/155/1 180/156/1
f 181/157/1 182/158/1 183/159/1 184/160/1
f 185/161/1 186/162/1 187/163/1 188/164/1
f 189/165/1 190/166/1 191/167/1 192/168/1
f 193/145/1 194/146/1 195/147/1 196/148/1
f 197/149/1 198/150/1 199/151/1 200/152/1
f 201/153/1 202/154/1 203/155/1 204/156/1
f 205/157/1 206/158/1 207/159/1 208/160/1
f 209/161/1 210/162/1 211/163/1 212/164/1
f 213/165/1 214/166/1 215/167/1 216/168/1
f 217/169/1 218/170/1 219/171/1 220/172/1
f 221/173/1 222/174/1 223/175/1 224/176/1
f 225/177/1 226/178/1 227/179/1 228/180/1
f 229/181/1 230/182/1 231/183/1 232/184/1
f 233/185/1 234/186/1 235/187/1 236/188/1
f 237/189/1 238/190/1 239/191/1 240/192/1

