# Tiled2Unity generated file. Do not modify by hand.
# Wavefront file for 'Jolibee_mesh_0003.obj'

# Vertices (Count = 476)
v -59 -9 0
v -60 -9 0
v -60 -8 0
v -59 -8 0
v -58 -9 0
v -59 -9 0
v -59 -8 0
v -58 -8 0
v -57 -9 0
v -58 -9 0
v -58 -8 0
v -57 -8 0
v -56 -9 0
v -57 -9 0
v -57 -8 0
v -56 -8 0
v -18 -10 0
v -19 -10 0
v -19 -9 0
v -18 -9 0
v -17 -10 0
v -18 -10 0
v -18 -9 0
v -17 -9 0
v -16 -10 0
v -17 -10 0
v -17 -9 0
v -16 -9 0
v -15 -10 0
v -16 -10 0
v -16 -9 0
v -15 -9 0
v -64 -11 0
v -65 -11 0
v -65 -10 0
v -64 -10 0
v -63 -11 0
v -64 -11 0
v -64 -10 0
v -63 -10 0
v -62 -11 0
v -63 -11 0
v -63 -10 0
v -62 -10 0
v -61 -11 0
v -62 -11 0
v -62 -10 0
v -61 -10 0
v -18 -11 0
v -19 -11 0
v -19 -10 0
v -18 -10 0
v -17 -11 0
v -18 -11 0
v -18 -10 0
v -17 -10 0
v -16 -11 0
v -17 -11 0
v -17 -10 0
v -16 -10 0
v -15 -11 0
v -16 -11 0
v -16 -10 0
v -15 -10 0
v -22 -13 0
v -23 -13 0
v -23 -12 0
v -22 -12 0
v -21 -13 0
v -22 -13 0
v -22 -12 0
v -21 -12 0
v -20 -13 0
v -21 -13 0
v -21 -12 0
v -20 -12 0
v -19 -13 0
v -20 -13 0
v -20 -12 0
v -19 -12 0
v -62 -14 0
v -63 -14 0
v -63 -13 0
v -62 -13 0
v -61 -14 0
v -62 -14 0
v -62 -13 0
v -61 -13 0
v -60 -14 0
v -61 -14 0
v -61 -13 0
v -60 -13 0
v -59 -14 0
v -60 -14 0
v -60 -13 0
v -59 -13 0
v -31 -16 0
v -32 -16 0
v -32 -15 0
v -31 -15 0
v -30 -16 0
v -31 -16 0
v -31 -15 0
v -30 -15 0
v -29 -16 0
v -30 -16 0
v -30 -15 0
v -29 -15 0
v -28 -16 0
v -29 -16 0
v -29 -15 0
v -28 -15 0
v -19 -17 0
v -20 -17 0
v -20 -16 0
v -19 -16 0
v -18 -17 0
v -19 -17 0
v -19 -16 0
v -18 -16 0
v -19 -18 0
v -20 -18 0
v -20 -17 0
v -19 -17 0
v -18 -18 0
v -19 -18 0
v -19 -17 0
v -18 -17 0
v -10 -19 0
v -11 -19 0
v -11 -18 0
v -10 -18 0
v -9 -19 0
v -10 -19 0
v -10 -18 0
v -9 -18 0
v -8 -19 0
v -9 -19 0
v -9 -18 0
v -8 -18 0
v -7 -19 0
v -8 -19 0
v -8 -18 0
v -7 -18 0
v -55 -22 0
v -56 -22 0
v -56 -21 0
v -55 -21 0
v -54 -22 0
v -55 -22 0
v -55 -21 0
v -54 -21 0
v -53 -22 0
v -54 -22 0
v -54 -21 0
v -53 -21 0
v -75 -23 0
v -76 -23 0
v -76 -22 0
v -75 -22 0
v -74 -23 0
v -75 -23 0
v -75 -22 0
v -74 -22 0
v -73 -23 0
v -74 -23 0
v -74 -22 0
v -73 -22 0
v -72 -23 0
v -73 -23 0
v -73 -22 0
v -72 -22 0
v -55 -23 0
v -56 -23 0
v -56 -22 0
v -55 -22 0
v -54 -23 0
v -55 -23 0
v -55 -22 0
v -54 -22 0
v -53 -23 0
v -54 -23 0
v -54 -22 0
v -53 -22 0
v -75 -24 0
v -76 -24 0
v -76 -23 0
v -75 -23 0
v -74 -24 0
v -75 -24 0
v -75 -23 0
v -74 -23 0
v -73 -24 0
v -74 -24 0
v -74 -23 0
v -73 -23 0
v -72 -24 0
v -73 -24 0
v -73 -23 0
v -72 -23 0
v -70 -25 0
v -71 -25 0
v -71 -24 0
v -70 -24 0
v -69 -25 0
v -70 -25 0
v -70 -24 0
v -69 -24 0
v -42 -25 0
v -43 -25 0
v -43 -24 0
v -42 -24 0
v -41 -25 0
v -42 -25 0
v -42 -24 0
v -41 -24 0
v -40 -25 0
v -41 -25 0
v -41 -24 0
v -40 -24 0
v -42 -26 0
v -43 -26 0
v -43 -25 0
v -42 -25 0
v -41 -26 0
v -42 -26 0
v -42 -25 0
v -41 -25 0
v -40 -26 0
v -41 -26 0
v -41 -25 0
v -40 -25 0
v -22 -26 0
v -23 -26 0
v -23 -25 0
v -22 -25 0
v -21 -26 0
v -22 -26 0
v -22 -25 0
v -21 -25 0
v -20 -26 0
v -21 -26 0
v -21 -25 0
v -20 -25 0
v -19 -26 0
v -20 -26 0
v -20 -25 0
v -19 -25 0
v -36 -27 0
v -37 -27 0
v -37 -26 0
v -36 -26 0
v -35 -27 0
v -36 -27 0
v -36 -26 0
v -35 -26 0
v -34 -27 0
v -35 -27 0
v -35 -26 0
v -34 -26 0
v -74 -28 0
v -75 -28 0
v -75 -27 0
v -74 -27 0
v -73 -28 0
v -74 -28 0
v -74 -27 0
v -73 -27 0
v -72 -28 0
v -73 -28 0
v -73 -27 0
v -72 -27 0
v -71 -28 0
v -72 -28 0
v -72 -27 0
v -71 -27 0
v -36 -28 0
v -37 -28 0
v -37 -27 0
v -36 -27 0
v -35 -28 0
v -36 -28 0
v -36 -27 0
v -35 -27 0
v -34 -28 0
v -35 -28 0
v -35 -27 0
v -34 -27 0
v -14 -28 0
v -15 -28 0
v -15 -27 0
v -14 -27 0
v -13 -28 0
v -14 -28 0
v -14 -27 0
v -13 -27 0
v -59 -29 0
v -60 -29 0
v -60 -28 0
v -59 -28 0
v -58 -29 0
v -59 -29 0
v -59 -28 0
v -58 -28 0
v -57 -29 0
v -58 -29 0
v -58 -28 0
v -57 -28 0
v -44 -29 0
v -45 -29 0
v -45 -28 0
v -44 -28 0
v -43 -29 0
v -44 -29 0
v -44 -28 0
v -43 -28 0
v -14 -29 0
v -15 -29 0
v -15 -28 0
v -14 -28 0
v -13 -29 0
v -14 -29 0
v -14 -28 0
v -13 -28 0
v -55 -30 0
v -56 -30 0
v -56 -29 0
v -55 -29 0
v -54 -30 0
v -55 -30 0
v -55 -29 0
v -54 -29 0
v -53 -30 0
v -54 -30 0
v -54 -29 0
v -53 -29 0
v -52 -30 0
v -53 -30 0
v -53 -29 0
v -52 -29 0
v -44 -30 0
v -45 -30 0
v -45 -29 0
v -44 -29 0
v -43 -30 0
v -44 -30 0
v -44 -29 0
v -43 -29 0
v -62 -32 0
v -63 -32 0
v -63 -31 0
v -62 -31 0
v -61 -32 0
v -62 -32 0
v -62 -31 0
v -61 -31 0
v -62 -33 0
v -63 -33 0
v -63 -32 0
v -62 -32 0
v -61 -33 0
v -62 -33 0
v -62 -32 0
v -61 -32 0
v -61 -36 0
v -62 -36 0
v -62 -35 0
v -61 -35 0
v -60 -36 0
v -61 -36 0
v -61 -35 0
v -60 -35 0
v -59 -36 0
v -60 -36 0
v -60 -35 0
v -59 -35 0
v -58 -36 0
v -59 -36 0
v -59 -35 0
v -58 -35 0
v -55 -37 0
v -56 -37 0
v -56 -36 0
v -55 -36 0
v -54 -37 0
v -55 -37 0
v -55 -36 0
v -54 -36 0
v -53 -37 0
v -54 -37 0
v -54 -36 0
v -53 -36 0
v -52 -37 0
v -53 -37 0
v -53 -36 0
v -52 -36 0
v -7 -38 0
v -8 -38 0
v -8 -37 0
v -7 -37 0
v -6 -38 0
v -7 -38 0
v -7 -37 0
v -6 -37 0
v -5 -38 0
v -6 -38 0
v -6 -37 0
v -5 -37 0
v -4 -38 0
v -5 -38 0
v -5 -37 0
v -4 -37 0
v -58 -39 0
v -59 -39 0
v -59 -38 0
v -58 -38 0
v -57 -39 0
v -58 -39 0
v -58 -38 0
v -57 -38 0
v -56 -39 0
v -57 -39 0
v -57 -38 0
v -56 -38 0
v -55 -39 0
v -56 -39 0
v -56 -38 0
v -55 -38 0
v -11 -39 0
v -12 -39 0
v -12 -38 0
v -11 -38 0
v -10 -39 0
v -11 -39 0
v -11 -38 0
v -10 -38 0
v -9 -39 0
v -10 -39 0
v -10 -38 0
v -9 -38 0
v -8 -39 0
v -9 -39 0
v -9 -38 0
v -8 -38 0
v -7 -39 0
v -8 -39 0
v -8 -38 0
v -7 -38 0
v -6 -39 0
v -7 -39 0
v -7 -38 0
v -6 -38 0
v -5 -39 0
v -6 -39 0
v -6 -38 0
v -5 -38 0
v -4 -39 0
v -5 -39 0
v -5 -38 0
v -4 -38 0
v -11 -40 0
v -12 -40 0
v -12 -39 0
v -11 -39 0
v -10 -40 0
v -11 -40 0
v -11 -39 0
v -10 -39 0
v -9 -40 0
v -10 -40 0
v -10 -39 0
v -9 -39 0
v -8 -40 0
v -9 -40 0
v -9 -39 0
v -8 -39 0

# Texture cooridinates (Count = 80)
vt 0.0625408 0.0001220703
vt 0.0831029 0.0001220703
vt 0.0831029 0.02765572
vt 0.0625408 0.02765572
vt 0.04173455 0.0001220703
vt 0.06229666 0.0001220703
vt 0.06229666 0.02765572
vt 0.04173455 0.02765572
vt 0.02092831 0.0001220703
vt 0.04149041 0.0001220703
vt 0.04149041 0.02765572
vt 0.02092831 0.02765572
vt 0.0001220703 0.0001220703
vt 0.02068417 0.0001220703
vt 0.02068417 0.02765572
vt 0.0001220703 0.02765572
vt 0.0625408 0.02789986
vt 0.0831029 0.02789986
vt 0.0831029 0.05543351
vt 0.0625408 0.05543351
vt 0.04173455 0.02789986
vt 0.06229666 0.02789986
vt 0.06229666 0.05543351
vt 0.04173455 0.05543351
vt 0.02092831 0.02789986
vt 0.04149041 0.02789986
vt 0.04149041 0.05543351
vt 0.02092831 0.05543351
vt 0.0001220703 0.02789986
vt 0.02068417 0.02789986
vt 0.02068417 0.05543351
vt 0.0001220703 0.05543351
vt 0.6659218 0.889011
vt 0.6864839 0.889011
vt 0.6864839 0.9165446
vt 0.6659218 0.9165446
vt 0.6451156 0.889011
vt 0.6656777 0.889011
vt 0.6656777 0.9165446
vt 0.6451156 0.9165446
vt 0.6659218 0.8612332
vt 0.6864839 0.8612332
vt 0.6864839 0.8887668
vt 0.6659218 0.8887668
vt 0.6451156 0.8612332
vt 0.6656777 0.8612332
vt 0.6656777 0.8887668
vt 0.6451156 0.8887668
vt 0.1249595 0.02789986
vt 0.1455216 0.02789986
vt 0.1455216 0.05543351
vt 0.1249595 0.05543351
vt 0.1041533 0.02789986
vt 0.1247154 0.02789986
vt 0.1247154 0.05543351
vt 0.1041533 0.05543351
vt 0.08334704 0.02789986
vt 0.1039091 0.02789986
vt 0.1039091 0.05543351
vt 0.08334704 0.05543351
vt 0.1249595 0.0001220703
vt 0.1455216 0.0001220703
vt 0.1455216 0.02765572
vt 0.1249595 0.02765572
vt 0.1041533 0.0001220703
vt 0.1247154 0.0001220703
vt 0.1247154 0.02765572
vt 0.1041533 0.02765572
vt 0.08334704 0.0001220703
vt 0.1039091 0.0001220703
vt 0.1039091 0.02765572
vt 0.08334704 0.02765572
vt 0.1249595 0.5001221
vt 0.1455216 0.5001221
vt 0.1455216 0.5276557
vt 0.1249595 0.5276557
vt 0.1041533 0.5001221
vt 0.1247154 0.5001221
vt 0.1247154 0.5276557
vt 0.1041533 0.5276557

# Normal
vn 0 0 -1

# Mesh description
g Jolibee_mesh_0003

# Faces
f 1/1/1 2/2/1 3/3/1 4/4/1
f 5/5/1 6/6/1 7/7/1 8/8/1
f 9/9/1 10/10/1 11/11/1 12/12/1
f 13/13/1 14/14/1 15/15/1 16/16/1
f 17/17/1 18/18/1 19/19/1 20/20/1
f 21/21/1 22/22/1 23/23/1 24/24/1
f 25/25/1 26/26/1 27/27/1 28/28/1
f 29/29/1 30/30/1 31/31/1 32/32/1
f 33/1/1 34/2/1 35/3/1 36/4/1
f 37/5/1 38/6/1 39/7/1 40/8/1
f 41/9/1 42/10/1 43/11/1 44/12/1
f 45/13/1 46/14/1 47/15/1 48/16/1
f 49/1/1 50/2/1 51/3/1 52/4/1
f 53/5/1 54/6/1 55/7/1 56/8/1
f 57/9/1 58/10/1 59/11/1 60/12/1
f 61/13/1 62/14/1 63/15/1 64/16/1
f 65/1/1 66/2/1 67/3/1 68/4/1
f 69/5/1 70/6/1 71/7/1 72/8/1
f 73/9/1 74/10/1 75/11/1 76/12/1
f 77/13/1 78/14/1 79/15/1 80/16/1
f 81/1/1 82/2/1 83/3/1 84/4/1
f 85/5/1 86/6/1 87/7/1 88/8/1
f 89/9/1 90/10/1 91/11/1 92/12/1
f 93/13/1 94/14/1 95/15/1 96/16/1
f 97/1/1 98/2/1 99/3/1 100/4/1
f 101/5/1 102/6/1 103/7/1 104/8/1
f 105/9/1 106/10/1 107/11/1 108/12/1
f 109/13/1 110/14/1 111/15/1 112/16/1
f 113/33/1 114/34/1 115/35/1 116/36/1
f 117/37/1 118/38/1 119/39/1 120/40/1
f 121/41/1 122/42/1 123/43/1 124/44/1
f 125/45/1 126/46/1 127/47/1 128/48/1
f 129/1/1 130/2/1 131/3/1 132/4/1
f 133/5/1 134/6/1 135/7/1 136/8/1
f 137/9/1 138/10/1 139/11/1 140/12/1
f 141/13/1 142/14/1 143/15/1 144/16/1
f 145/49/1 146/50/1 147/51/1 148/52/1
f 149/53/1 150/54/1 151/55/1 152/56/1
f 153/57/1 154/58/1 155/59/1 156/60/1
f 157/17/1 158/18/1 159/19/1 160/20/1
f 161/21/1 162/22/1 163/23/1 164/24/1
f 165/25/1 166/26/1 167/27/1 168/28/1
f 169/29/1 170/30/1 171/31/1 172/32/1
f 173/61/1 174/62/1 175/63/1 176/64/1
f 177/65/1 178/66/1 179/67/1 180/68/1
f 181/69/1 182/70/1 183/71/1 184/72/1
f 185/1/1 186/2/1 187/3/1 188/4/1
f 189/5/1 190/6/1 191/7/1 192/8/1
f 193/9/1 194/10/1 195/11/1 196/12/1
f 197/13/1 198/14/1 199/15/1 200/16/1
f 201/73/1 202/74/1 203/75/1 204/76/1
f 205/77/1 206/78/1 207/79/1 208/80/1
f 209/49/1 210/50/1 211/51/1 212/52/1
f 213/53/1 214/54/1 215/55/1 216/56/1
f 217/57/1 218/58/1 219/59/1 220/60/1
f 221/61/1 222/62/1 223/63/1 224/64/1
f 225/65/1 226/66/1 227/67/1 228/68/1
f 229/69/1 230/70/1 231/71/1 232/72/1
f 233/1/1 234/2/1 235/3/1 236/4/1
f 237/5/1 238/6/1 239/7/1 240/8/1
f 241/9/1 242/10/1 243/11/1 244/12/1
f 245/13/1 246/14/1 247/15/1 248/16/1
f 249/49/1 250/50/1 251/51/1 252/52/1
f 253/53/1 254/54/1 255/55/1 256/56/1
f 257/57/1 258/58/1 259/59/1 260/60/1
f 261/1/1 262/2/1 263/3/1 264/4/1
f 265/5/1 266/6/1 267/7/1 268/8/1
f 269/9/1 270/10/1 271/11/1 272/12/1
f 273/13/1 274/14/1 275/15/1 276/16/1
f 277/61/1 278/62/1 279/63/1 280/64/1
f 281/65/1 282/66/1 283/67/1 284/68/1
f 285/69/1 286/70/1 287/71/1 288/72/1
f 289/33/1 290/34/1 291/35/1 292/36/1
f 293/37/1 294/38/1 295/39/1 296/40/1
f 297/5/1 298/6/1 299/7/1 300/8/1
f 301/9/1 302/10/1 303/11/1 304/12/1
f 305/13/1 306/14/1 307/15/1 308/16/1
f 309/33/1 310/34/1 311/35/1 312/36/1
f 313/37/1 314/38/1 315/39/1 316/40/1
f 317/41/1 318/42/1 319/43/1 320/44/1
f 321/45/1 322/46/1 323/47/1 324/48/1
f 325/1/1 326/2/1 327/3/1 328/4/1
f 329/5/1 330/6/1 331/7/1 332/8/1
f 333/9/1 334/10/1 335/11/1 336/12/1
f 337/13/1 338/14/1 339/15/1 340/16/1
f 341/41/1 342/42/1 343/43/1 344/44/1
f 345/45/1 346/46/1 347/47/1 348/48/1
f 349/33/1 350/34/1 351/35/1 352/36/1
f 353/37/1 354/38/1 355/39/1 356/40/1
f 357/41/1 358/42/1 359/43/1 360/44/1
f 361/45/1 362/46/1 363/47/1 364/48/1
f 365/1/1 366/2/1 367/3/1 368/4/1
f 369/5/1 370/6/1 371/7/1 372/8/1
f 373/9/1 374/10/1 375/11/1 376/12/1
f 377/13/1 378/14/1 379/15/1 380/16/1
f 381/1/1 382/2/1 383/3/1 384/4/1
f 385/5/1 386/6/1 387/7/1 388/8/1
f 389/9/1 390/10/1 391/11/1 392/12/1
f 393/13/1 394/14/1 395/15/1 396/16/1
f 397/17/1 398/18/1 399/19/1 400/20/1
f 401/21/1 402/22/1 403/23/1 404/24/1
f 405/25/1 406/26/1 407/27/1 408/28/1
f 409/29/1 410/30/1 411/31/1 412/32/1
f 413/1/1 414/2/1 415/3/1 416/4/1
f 417/5/1 418/6/1 419/7/1 420/8/1
f 421/9/1 422/10/1 423/11/1 424/12/1
f 425/13/1 426/14/1 427/15/1 428/16/1
f 429/17/1 430/18/1 431/19/1 432/20/1
f 433/21/1 434/22/1 435/23/1 436/24/1
f 437/25/1 438/26/1 439/27/1 440/28/1
f 441/29/1 442/30/1 443/31/1 444/32/1
f 445/1/1 446/2/1 447/3/1 448/4/1
f 449/5/1 450/6/1 451/7/1 452/8/1
f 453/9/1 454/10/1 455/11/1 456/12/1
f 457/13/1 458/14/1 459/15/1 460/16/1
f 461/1/1 462/2/1 463/3/1 464/4/1
f 465/5/1 466/6/1 467/7/1 468/8/1
f 469/9/1 470/10/1 471/11/1 472/12/1
f 473/13/1 474/14/1 475/15/1 476/16/1

