# Tiled2Unity generated file. Do not modify by hand.
# Wavefront file for 'Jolibee_mesh_0004.obj'

# Vertices (Count = 400)
v -59 -9 0
v -60 -9 0
v -60 -8 0
v -59 -8 0
v -58 -9 0
v -59 -9 0
v -59 -8 0
v -58 -8 0
v -57 -9 0
v -58 -9 0
v -58 -8 0
v -57 -8 0
v -56 -9 0
v -57 -9 0
v -57 -8 0
v -56 -8 0
v -64 -11 0
v -65 -11 0
v -65 -10 0
v -64 -10 0
v -63 -11 0
v -64 -11 0
v -64 -10 0
v -63 -10 0
v -62 -11 0
v -63 -11 0
v -63 -10 0
v -62 -10 0
v -61 -11 0
v -62 -11 0
v -62 -10 0
v -61 -10 0
v -18 -11 0
v -19 -11 0
v -19 -10 0
v -18 -10 0
v -17 -11 0
v -18 -11 0
v -18 -10 0
v -17 -10 0
v -16 -11 0
v -17 -11 0
v -17 -10 0
v -16 -10 0
v -15 -11 0
v -16 -11 0
v -16 -10 0
v -15 -10 0
v -22 -13 0
v -23 -13 0
v -23 -12 0
v -22 -12 0
v -21 -13 0
v -22 -13 0
v -22 -12 0
v -21 -12 0
v -20 -13 0
v -21 -13 0
v -21 -12 0
v -20 -12 0
v -19 -13 0
v -20 -13 0
v -20 -12 0
v -19 -12 0
v -62 -14 0
v -63 -14 0
v -63 -13 0
v -62 -13 0
v -61 -14 0
v -62 -14 0
v -62 -13 0
v -61 -13 0
v -60 -14 0
v -61 -14 0
v -61 -13 0
v -60 -13 0
v -59 -14 0
v -60 -14 0
v -60 -13 0
v -59 -13 0
v -31 -16 0
v -32 -16 0
v -32 -15 0
v -31 -15 0
v -30 -16 0
v -31 -16 0
v -31 -15 0
v -30 -15 0
v -29 -16 0
v -30 -16 0
v -30 -15 0
v -29 -15 0
v -28 -16 0
v -29 -16 0
v -29 -15 0
v -28 -15 0
v -19 -17 0
v -20 -17 0
v -20 -16 0
v -19 -16 0
v -18 -17 0
v -19 -17 0
v -19 -16 0
v -18 -16 0
v -19 -18 0
v -20 -18 0
v -20 -17 0
v -19 -17 0
v -18 -18 0
v -19 -18 0
v -19 -17 0
v -18 -17 0
v -10 -19 0
v -11 -19 0
v -11 -18 0
v -10 -18 0
v -9 -19 0
v -10 -19 0
v -10 -18 0
v -9 -18 0
v -8 -19 0
v -9 -19 0
v -9 -18 0
v -8 -18 0
v -7 -19 0
v -8 -19 0
v -8 -18 0
v -7 -18 0
v -55 -23 0
v -56 -23 0
v -56 -22 0
v -55 -22 0
v -54 -23 0
v -55 -23 0
v -55 -22 0
v -54 -22 0
v -53 -23 0
v -54 -23 0
v -54 -22 0
v -53 -22 0
v -75 -24 0
v -76 -24 0
v -76 -23 0
v -75 -23 0
v -74 -24 0
v -75 -24 0
v -75 -23 0
v -74 -23 0
v -73 -24 0
v -74 -24 0
v -74 -23 0
v -73 -23 0
v -72 -24 0
v -73 -24 0
v -73 -23 0
v -72 -23 0
v -70 -25 0
v -71 -25 0
v -71 -24 0
v -70 -24 0
v -69 -25 0
v -70 -25 0
v -70 -24 0
v -69 -24 0
v -42 -25 0
v -43 -25 0
v -43 -24 0
v -42 -24 0
v -41 -25 0
v -42 -25 0
v -42 -24 0
v -41 -24 0
v -40 -25 0
v -41 -25 0
v -41 -24 0
v -40 -24 0
v -42 -26 0
v -43 -26 0
v -43 -25 0
v -42 -25 0
v -41 -26 0
v -42 -26 0
v -42 -25 0
v -41 -25 0
v -40 -26 0
v -41 -26 0
v -41 -25 0
v -40 -25 0
v -22 -26 0
v -23 -26 0
v -23 -25 0
v -22 -25 0
v -21 -26 0
v -22 -26 0
v -22 -25 0
v -21 -25 0
v -20 -26 0
v -21 -26 0
v -21 -25 0
v -20 -25 0
v -19 -26 0
v -20 -26 0
v -20 -25 0
v -19 -25 0
v -36 -27 0
v -37 -27 0
v -37 -26 0
v -36 -26 0
v -35 -27 0
v -36 -27 0
v -36 -26 0
v -35 -26 0
v -34 -27 0
v -35 -27 0
v -35 -26 0
v -34 -26 0
v -74 -28 0
v -75 -28 0
v -75 -27 0
v -74 -27 0
v -73 -28 0
v -74 -28 0
v -74 -27 0
v -73 -27 0
v -72 -28 0
v -73 -28 0
v -73 -27 0
v -72 -27 0
v -71 -28 0
v -72 -28 0
v -72 -27 0
v -71 -27 0
v -36 -28 0
v -37 -28 0
v -37 -27 0
v -36 -27 0
v -35 -28 0
v -36 -28 0
v -36 -27 0
v -35 -27 0
v -34 -28 0
v -35 -28 0
v -35 -27 0
v -34 -27 0
v -14 -28 0
v -15 -28 0
v -15 -27 0
v -14 -27 0
v -13 -28 0
v -14 -28 0
v -14 -27 0
v -13 -27 0
v -59 -29 0
v -60 -29 0
v -60 -28 0
v -59 -28 0
v -58 -29 0
v -59 -29 0
v -59 -28 0
v -58 -28 0
v -57 -29 0
v -58 -29 0
v -58 -28 0
v -57 -28 0
v -44 -29 0
v -45 -29 0
v -45 -28 0
v -44 -28 0
v -43 -29 0
v -44 -29 0
v -44 -28 0
v -43 -28 0
v -14 -29 0
v -15 -29 0
v -15 -28 0
v -14 -28 0
v -13 -29 0
v -14 -29 0
v -14 -28 0
v -13 -28 0
v -55 -30 0
v -56 -30 0
v -56 -29 0
v -55 -29 0
v -54 -30 0
v -55 -30 0
v -55 -29 0
v -54 -29 0
v -53 -30 0
v -54 -30 0
v -54 -29 0
v -53 -29 0
v -52 -30 0
v -53 -30 0
v -53 -29 0
v -52 -29 0
v -44 -30 0
v -45 -30 0
v -45 -29 0
v -44 -29 0
v -43 -30 0
v -44 -30 0
v -44 -29 0
v -43 -29 0
v -62 -32 0
v -63 -32 0
v -63 -31 0
v -62 -31 0
v -61 -32 0
v -62 -32 0
v -62 -31 0
v -61 -31 0
v -62 -33 0
v -63 -33 0
v -63 -32 0
v -62 -32 0
v -61 -33 0
v -62 -33 0
v -62 -32 0
v -61 -32 0
v -61 -36 0
v -62 -36 0
v -62 -35 0
v -61 -35 0
v -60 -36 0
v -61 -36 0
v -61 -35 0
v -60 -35 0
v -59 -36 0
v -60 -36 0
v -60 -35 0
v -59 -35 0
v -58 -36 0
v -59 -36 0
v -59 -35 0
v -58 -35 0
v -55 -37 0
v -56 -37 0
v -56 -36 0
v -55 -36 0
v -54 -37 0
v -55 -37 0
v -55 -36 0
v -54 -36 0
v -53 -37 0
v -54 -37 0
v -54 -36 0
v -53 -36 0
v -52 -37 0
v -53 -37 0
v -53 -36 0
v -52 -36 0
v -58 -39 0
v -59 -39 0
v -59 -38 0
v -58 -38 0
v -57 -39 0
v -58 -39 0
v -58 -38 0
v -57 -38 0
v -56 -39 0
v -57 -39 0
v -57 -38 0
v -56 -38 0
v -55 -39 0
v -56 -39 0
v -56 -38 0
v -55 -38 0
v -7 -39 0
v -8 -39 0
v -8 -38 0
v -7 -38 0
v -6 -39 0
v -7 -39 0
v -7 -38 0
v -6 -38 0
v -5 -39 0
v -6 -39 0
v -6 -38 0
v -5 -38 0
v -4 -39 0
v -5 -39 0
v -5 -38 0
v -4 -38 0
v -11 -40 0
v -12 -40 0
v -12 -39 0
v -11 -39 0
v -10 -40 0
v -11 -40 0
v -11 -39 0
v -10 -39 0
v -9 -40 0
v -10 -40 0
v -10 -39 0
v -9 -39 0
v -8 -40 0
v -9 -40 0
v -9 -39 0
v -8 -39 0

# Texture cooridinates (Count = 64)
vt 0.0625408 0.0001220703
vt 0.0831029 0.0001220703
vt 0.0831029 0.02765572
vt 0.0625408 0.02765572
vt 0.04173455 0.0001220703
vt 0.06229666 0.0001220703
vt 0.06229666 0.02765572
vt 0.04173455 0.02765572
vt 0.02092831 0.0001220703
vt 0.04149041 0.0001220703
vt 0.04149041 0.02765572
vt 0.02092831 0.02765572
vt 0.0001220703 0.0001220703
vt 0.02068417 0.0001220703
vt 0.02068417 0.02765572
vt 0.0001220703 0.02765572
vt 0.6659218 0.889011
vt 0.6864839 0.889011
vt 0.6864839 0.9165446
vt 0.6659218 0.9165446
vt 0.6451156 0.889011
vt 0.6656777 0.889011
vt 0.6656777 0.9165446
vt 0.6451156 0.9165446
vt 0.6659218 0.8612332
vt 0.6864839 0.8612332
vt 0.6864839 0.8887668
vt 0.6659218 0.8887668
vt 0.6451156 0.8612332
vt 0.6656777 0.8612332
vt 0.6656777 0.8887668
vt 0.6451156 0.8887668
vt 0.1249595 0.0001220703
vt 0.1455216 0.0001220703
vt 0.1455216 0.02765572
vt 0.1249595 0.02765572
vt 0.1041533 0.0001220703
vt 0.1247154 0.0001220703
vt 0.1247154 0.02765572
vt 0.1041533 0.02765572
vt 0.08334704 0.0001220703
vt 0.1039091 0.0001220703
vt 0.1039091 0.02765572
vt 0.08334704 0.02765572
vt 0.1249595 0.5001221
vt 0.1455216 0.5001221
vt 0.1455216 0.5276557
vt 0.1249595 0.5276557
vt 0.1041533 0.5001221
vt 0.1247154 0.5001221
vt 0.1247154 0.5276557
vt 0.1041533 0.5276557
vt 0.1249595 0.02789986
vt 0.1455216 0.02789986
vt 0.1455216 0.05543351
vt 0.1249595 0.05543351
vt 0.1041533 0.02789986
vt 0.1247154 0.02789986
vt 0.1247154 0.05543351
vt 0.1041533 0.05543351
vt 0.08334704 0.02789986
vt 0.1039091 0.02789986
vt 0.1039091 0.05543351
vt 0.08334704 0.05543351

# Normal
vn 0 0 -1

# Mesh description
g Jolibee_mesh_0004

# Faces
f 1/1/1 2/2/1 3/3/1 4/4/1
f 5/5/1 6/6/1 7/7/1 8/8/1
f 9/9/1 10/10/1 11/11/1 12/12/1
f 13/13/1 14/14/1 15/15/1 16/16/1
f 17/1/1 18/2/1 19/3/1 20/4/1
f 21/5/1 22/6/1 23/7/1 24/8/1
f 25/9/1 26/10/1 27/11/1 28/12/1
f 29/13/1 30/14/1 31/15/1 32/16/1
f 33/1/1 34/2/1 35/3/1 36/4/1
f 37/5/1 38/6/1 39/7/1 40/8/1
f 41/9/1 42/10/1 43/11/1 44/12/1
f 45/13/1 46/14/1 47/15/1 48/16/1
f 49/1/1 50/2/1 51/3/1 52/4/1
f 53/5/1 54/6/1 55/7/1 56/8/1
f 57/9/1 58/10/1 59/11/1 60/12/1
f 61/13/1 62/14/1 63/15/1 64/16/1
f 65/1/1 66/2/1 67/3/1 68/4/1
f 69/5/1 70/6/1 71/7/1 72/8/1
f 73/9/1 74/10/1 75/11/1 76/12/1
f 77/13/1 78/14/1 79/15/1 80/16/1
f 81/1/1 82/2/1 83/3/1 84/4/1
f 85/5/1 86/6/1 87/7/1 88/8/1
f 89/9/1 90/10/1 91/11/1 92/12/1
f 93/13/1 94/14/1 95/15/1 96/16/1
f 97/17/1 98/18/1 99/19/1 100/20/1
f 101/21/1 102/22/1 103/23/1 104/24/1
f 105/25/1 106/26/1 107/27/1 108/28/1
f 109/29/1 110/30/1 111/31/1 112/32/1
f 113/1/1 114/2/1 115/3/1 116/4/1
f 117/5/1 118/6/1 119/7/1 120/8/1
f 121/9/1 122/10/1 123/11/1 124/12/1
f 125/13/1 126/14/1 127/15/1 128/16/1
f 129/33/1 130/34/1 131/35/1 132/36/1
f 133/37/1 134/38/1 135/39/1 136/40/1
f 137/41/1 138/42/1 139/43/1 140/44/1
f 141/1/1 142/2/1 143/3/1 144/4/1
f 145/5/1 146/6/1 147/7/1 148/8/1
f 149/9/1 150/10/1 151/11/1 152/12/1
f 153/13/1 154/14/1 155/15/1 156/16/1
f 157/45/1 158/46/1 159/47/1 160/48/1
f 161/49/1 162/50/1 163/51/1 164/52/1
f 165/53/1 166/54/1 167/55/1 168/56/1
f 169/57/1 170/58/1 171/59/1 172/60/1
f 173/61/1 174/62/1 175/63/1 176/64/1
f 177/33/1 178/34/1 179/35/1 180/36/1
f 181/37/1 182/38/1 183/39/1 184/40/1
f 185/41/1 186/42/1 187/43/1 188/44/1
f 189/1/1 190/2/1 191/3/1 192/4/1
f 193/5/1 194/6/1 195/7/1 196/8/1
f 197/9/1 198/10/1 199/11/1 200/12/1
f 201/13/1 202/14/1 203/15/1 204/16/1
f 205/53/1 206/54/1 207/55/1 208/56/1
f 209/57/1 210/58/1 211/59/1 212/60/1
f 213/61/1 214/62/1 215/63/1 216/64/1
f 217/1/1 218/2/1 219/3/1 220/4/1
f 221/5/1 222/6/1 223/7/1 224/8/1
f 225/9/1 226/10/1 227/11/1 228/12/1
f 229/13/1 230/14/1 231/15/1 232/16/1
f 233/33/1 234/34/1 235/35/1 236/36/1
f 237/37/1 238/38/1 239/39/1 240/40/1
f 241/41/1 242/42/1 243/43/1 244/44/1
f 245/17/1 246/18/1 247/19/1 248/20/1
f 249/21/1 250/22/1 251/23/1 252/24/1
f 253/5/1 254/6/1 255/7/1 256/8/1
f 257/9/1 258/10/1 259/11/1 260/12/1
f 261/13/1 262/14/1 263/15/1 264/16/1
f 265/17/1 266/18/1 267/19/1 268/20/1
f 269/21/1 270/22/1 271/23/1 272/24/1
f 273/25/1 274/26/1 275/27/1 276/28/1
f 277/29/1 278/30/1 279/31/1 280/32/1
f 281/1/1 282/2/1 283/3/1 284/4/1
f 285/5/1 286/6/1 287/7/1 288/8/1
f 289/9/1 290/10/1 291/11/1 292/12/1
f 293/13/1 294/14/1 295/15/1 296/16/1
f 297/25/1 298/26/1 299/27/1 300/28/1
f 301/29/1 302/30/1 303/31/1 304/32/1
f 305/17/1 306/18/1 307/19/1 308/20/1
f 309/21/1 310/22/1 311/23/1 312/24/1
f 313/25/1 314/26/1 315/27/1 316/28/1
f 317/29/1 318/30/1 319/31/1 320/32/1
f 321/1/1 322/2/1 323/3/1 324/4/1
f 325/5/1 326/6/1 327/7/1 328/8/1
f 329/9/1 330/10/1 331/11/1 332/12/1
f 333/13/1 334/14/1 335/15/1 336/16/1
f 337/1/1 338/2/1 339/3/1 340/4/1
f 341/5/1 342/6/1 343/7/1 344/8/1
f 345/9/1 346/10/1 347/11/1 348/12/1
f 349/13/1 350/14/1 351/15/1 352/16/1
f 353/1/1 354/2/1 355/3/1 356/4/1
f 357/5/1 358/6/1 359/7/1 360/8/1
f 361/9/1 362/10/1 363/11/1 364/12/1
f 365/13/1 366/14/1 367/15/1 368/16/1
f 369/1/1 370/2/1 371/3/1 372/4/1
f 373/5/1 374/6/1 375/7/1 376/8/1
f 377/9/1 378/10/1 379/11/1 380/12/1
f 381/13/1 382/14/1 383/15/1 384/16/1
f 385/1/1 386/2/1 387/3/1 388/4/1
f 389/5/1 390/6/1 391/7/1 392/8/1
f 393/9/1 394/10/1 395/11/1 396/12/1
f 397/13/1 398/14/1 399/15/1 400/16/1

