# Tiled2Unity generated file. Do not modify by hand.
# Wavefront file for 'ProvincialHospital_mesh_0005.obj'

# Vertices (Count = 244)
v -59 -11 0
v -60 -11 0
v -60 -10 0
v -59 -10 0
v -58 -11 0
v -59 -11 0
v -59 -10 0
v -58 -10 0
v -57 -11 0
v -58 -11 0
v -58 -10 0
v -57 -10 0
v -56 -11 0
v -57 -11 0
v -57 -10 0
v -56 -10 0
v -55 -11 0
v -56 -11 0
v -56 -10 0
v -55 -10 0
v -54 -11 0
v -55 -11 0
v -55 -10 0
v -54 -10 0
v -53 -11 0
v -54 -11 0
v -54 -10 0
v -53 -10 0
v -59 -12 0
v -60 -12 0
v -60 -11 0
v -59 -11 0
v -58 -12 0
v -59 -12 0
v -59 -11 0
v -58 -11 0
v -57 -12 0
v -58 -12 0
v -58 -11 0
v -57 -11 0
v -56 -12 0
v -57 -12 0
v -57 -11 0
v -56 -11 0
v -55 -12 0
v -56 -12 0
v -56 -11 0
v -55 -11 0
v -54 -12 0
v -55 -12 0
v -55 -11 0
v -54 -11 0
v -53 -12 0
v -54 -12 0
v -54 -11 0
v -53 -11 0
v -21 -14 0
v -22 -14 0
v -22 -13 0
v -21 -13 0
v -20 -14 0
v -21 -14 0
v -21 -13 0
v -20 -13 0
v -19 -14 0
v -20 -14 0
v -20 -13 0
v -19 -13 0
v -18 -14 0
v -19 -14 0
v -19 -13 0
v -18 -13 0
v -17 -14 0
v -18 -14 0
v -18 -13 0
v -17 -13 0
v -16 -14 0
v -17 -14 0
v -17 -13 0
v -16 -13 0
v -15 -14 0
v -16 -14 0
v -16 -13 0
v -15 -13 0
v -21 -15 0
v -22 -15 0
v -22 -14 0
v -21 -14 0
v -20 -15 0
v -21 -15 0
v -21 -14 0
v -20 -14 0
v -19 -15 0
v -20 -15 0
v -20 -14 0
v -19 -14 0
v -18 -15 0
v -19 -15 0
v -19 -14 0
v -18 -14 0
v -17 -15 0
v -18 -15 0
v -18 -14 0
v -17 -14 0
v -16 -15 0
v -17 -15 0
v -17 -14 0
v -16 -14 0
v -15 -15 0
v -16 -15 0
v -16 -14 0
v -15 -14 0
v -21 -16 0
v -22 -16 0
v -22 -15 0
v -21 -15 0
v -20 -16 0
v -21 -16 0
v -21 -15 0
v -20 -15 0
v -19 -16 0
v -20 -16 0
v -20 -15 0
v -19 -15 0
v -18 -16 0
v -19 -16 0
v -19 -15 0
v -18 -15 0
v -17 -16 0
v -18 -16 0
v -18 -15 0
v -17 -15 0
v -16 -16 0
v -17 -16 0
v -17 -15 0
v -16 -15 0
v -15 -16 0
v -16 -16 0
v -16 -15 0
v -15 -15 0
v -21 -17 0
v -22 -17 0
v -22 -16 0
v -21 -16 0
v -20 -17 0
v -21 -17 0
v -21 -16 0
v -20 -16 0
v -19 -17 0
v -20 -17 0
v -20 -16 0
v -19 -16 0
v -18 -17 0
v -19 -17 0
v -19 -16 0
v -18 -16 0
v -17 -17 0
v -18 -17 0
v -18 -16 0
v -17 -16 0
v -16 -17 0
v -17 -17 0
v -17 -16 0
v -16 -16 0
v -15 -17 0
v -16 -17 0
v -16 -16 0
v -15 -16 0
v -36 -22 0
v -37 -22 0
v -37 -21 0
v -36 -21 0
v -35 -22 0
v -36 -22 0
v -36 -21 0
v -35 -21 0
v -34 -22 0
v -35 -22 0
v -35 -21 0
v -34 -21 0
v -33 -22 0
v -34 -22 0
v -34 -21 0
v -33 -21 0
v -32 -22 0
v -33 -22 0
v -33 -21 0
v -32 -21 0
v -31 -22 0
v -32 -22 0
v -32 -21 0
v -31 -21 0
v -30 -22 0
v -31 -22 0
v -31 -21 0
v -30 -21 0
v -36 -23 0
v -37 -23 0
v -37 -22 0
v -36 -22 0
v -35 -23 0
v -36 -23 0
v -36 -22 0
v -35 -22 0
v -34 -23 0
v -35 -23 0
v -35 -22 0
v -34 -22 0
v -33 -23 0
v -34 -23 0
v -34 -22 0
v -33 -22 0
v -32 -23 0
v -33 -23 0
v -33 -22 0
v -32 -22 0
v -31 -23 0
v -32 -23 0
v -32 -22 0
v -31 -22 0
v -30 -23 0
v -31 -23 0
v -31 -22 0
v -30 -22 0
v -42 -34 0
v -43 -34 0
v -43 -33 0
v -42 -33 0
v -41 -34 0
v -42 -34 0
v -42 -33 0
v -41 -33 0
v -40 -34 0
v -41 -34 0
v -41 -33 0
v -40 -33 0
v -39 -34 0
v -40 -34 0
v -40 -33 0
v -39 -33 0
v -38 -34 0
v -39 -34 0
v -39 -33 0
v -38 -33 0

# Texture cooridinates (Count = 188)
vt 0.2759841 0.26328
vt 0.2929814 0.26328
vt 0.2929814 0.2893516
vt 0.2759841 0.2893516
vt 0.2587427 0.26328
vt 0.27574 0.26328
vt 0.27574 0.2893516
vt 0.2587427 0.2893516
vt 0.2415014 0.26328
vt 0.2584986 0.26328
vt 0.2584986 0.2893516
vt 0.2415014 0.2893516
vt 0.22426 0.26328
vt 0.2412572 0.26328
vt 0.2412572 0.2893516
vt 0.22426 0.2893516
vt 0.2070186 0.26328
vt 0.2240159 0.26328
vt 0.2240159 0.2893516
vt 0.2070186 0.2893516
vt 0.1897772 0.26328
vt 0.2067745 0.26328
vt 0.2067745 0.2893516
vt 0.1897772 0.2893516
vt 0.1725359 0.26328
vt 0.1895331 0.26328
vt 0.1895331 0.2893516
vt 0.1725359 0.2893516
vt 0.2759841 0.2369642
vt 0.2929814 0.2369642
vt 0.2929814 0.2630358
vt 0.2759841 0.2630358
vt 0.2587427 0.2369642
vt 0.27574 0.2369642
vt 0.27574 0.2630358
vt 0.2587427 0.2630358
vt 0.2415014 0.2369642
vt 0.2584986 0.2369642
vt 0.2584986 0.2630358
vt 0.2415014 0.2630358
vt 0.22426 0.2369642
vt 0.2412572 0.2369642
vt 0.2412572 0.2630358
vt 0.22426 0.2630358
vt 0.2070186 0.2369642
vt 0.2240159 0.2369642
vt 0.2240159 0.2630358
vt 0.2070186 0.2630358
vt 0.1897772 0.2369642
vt 0.2067745 0.2369642
vt 0.2067745 0.2630358
vt 0.1897772 0.2630358
vt 0.1725359 0.2369642
vt 0.1895331 0.2369642
vt 0.1895331 0.2630358
vt 0.1725359 0.2630358
vt 0.6208117 0.3159115
vt 0.637809 0.3159115
vt 0.637809 0.3419832
vt 0.6208117 0.3419832
vt 0.6035703 0.3159115
vt 0.6205676 0.3159115
vt 0.6205676 0.3419832
vt 0.6035703 0.3419832
vt 0.586329 0.3159115
vt 0.6033262 0.3159115
vt 0.6033262 0.3419832
vt 0.586329 0.3419832
vt 0.5690876 0.3159115
vt 0.5860848 0.3159115
vt 0.5860848 0.3419832
vt 0.5690876 0.3419832
vt 0.5518462 0.3159115
vt 0.5688434 0.3159115
vt 0.5688434 0.3419832
vt 0.5518462 0.3419832
vt 0.5346048 0.3159115
vt 0.5516021 0.3159115
vt 0.5516021 0.3419832
vt 0.5346048 0.3419832
vt 0.5173634 0.3159115
vt 0.5343607 0.3159115
vt 0.5343607 0.3419832
vt 0.5173634 0.3419832
vt 0.6208117 0.2895958
vt 0.637809 0.2895958
vt 0.637809 0.3156674
vt 0.6208117 0.3156674
vt 0.6035703 0.2895958
vt 0.6205676 0.2895958
vt 0.6205676 0.3156674
vt 0.6035703 0.3156674
vt 0.586329 0.2895958
vt 0.6033262 0.2895958
vt 0.6033262 0.3156674
vt 0.586329 0.3156674
vt 0.5690876 0.2895958
vt 0.5860848 0.2895958
vt 0.5860848 0.3156674
vt 0.5690876 0.3156674
vt 0.5518462 0.2895958
vt 0.5688434 0.2895958
vt 0.5688434 0.3156674
vt 0.5518462 0.3156674
vt 0.5346048 0.2895958
vt 0.5516021 0.2895958
vt 0.5516021 0.3156674
vt 0.5346048 0.3156674
vt 0.5173634 0.2895958
vt 0.5343607 0.2895958
vt 0.5343607 0.3156674
vt 0.5173634 0.3156674
vt 0.6208117 0.26328
vt 0.637809 0.26328
vt 0.637809 0.2893516
vt 0.6208117 0.2893516
vt 0.6035703 0.26328
vt 0.6205676 0.26328
vt 0.6205676 0.2893516
vt 0.6035703 0.2893516
vt 0.586329 0.26328
vt 0.6033262 0.26328
vt 0.6033262 0.2893516
vt 0.586329 0.2893516
vt 0.5690876 0.26328
vt 0.5860848 0.26328
vt 0.5860848 0.2893516
vt 0.5690876 0.2893516
vt 0.5518462 0.26328
vt 0.5688434 0.26328
vt 0.5688434 0.2893516
vt 0.5518462 0.2893516
vt 0.5346048 0.26328
vt 0.5516021 0.26328
vt 0.5516021 0.2893516
vt 0.5346048 0.2893516
vt 0.5173634 0.26328
vt 0.5343607 0.26328
vt 0.5343607 0.2893516
vt 0.5173634 0.2893516
vt 0.6208117 0.2369642
vt 0.637809 0.2369642
vt 0.637809 0.2630358
vt 0.6208117 0.2630358
vt 0.6035703 0.2369642
vt 0.6205676 0.2369642
vt 0.6205676 0.2630358
vt 0.6035703 0.2630358
vt 0.586329 0.2369642
vt 0.6033262 0.2369642
vt 0.6033262 0.2630358
vt 0.586329 0.2630358
vt 0.5690876 0.2369642
vt 0.5860848 0.2369642
vt 0.5860848 0.2630358
vt 0.5690876 0.2630358
vt 0.5518462 0.2369642
vt 0.5688434 0.2369642
vt 0.5688434 0.2630358
vt 0.5518462 0.2630358
vt 0.5346048 0.2369642
vt 0.5516021 0.2369642
vt 0.5516021 0.2630358
vt 0.5346048 0.2630358
vt 0.5173634 0.2369642
vt 0.5343607 0.2369642
vt 0.5343607 0.2630358
vt 0.5173634 0.2630358
vt 0.2587427 0.5790694
vt 0.27574 0.5790694
vt 0.27574 0.605141
vt 0.2587427 0.605141
vt 0.2415014 0.5790694
vt 0.2584986 0.5790694
vt 0.2584986 0.605141
vt 0.2415014 0.605141
vt 0.22426 0.5790694
vt 0.2412572 0.5790694
vt 0.2412572 0.605141
vt 0.22426 0.605141
vt 0.2070186 0.5790694
vt 0.2240159 0.5790694
vt 0.2240159 0.605141
vt 0.2070186 0.605141
vt 0.1897772 0.5790694
vt 0.2067745 0.5790694
vt 0.2067745 0.605141
vt 0.1897772 0.605141

# Normal
vn 0 0 -1

# Mesh description
g ProvincialHospital_mesh_0005

# Faces
f 1/1/1 2/2/1 3/3/1 4/4/1
f 5/5/1 6/6/1 7/7/1 8/8/1
f 9/9/1 10/10/1 11/11/1 12/12/1
f 13/13/1 14/14/1 15/15/1 16/16/1
f 17/17/1 18/18/1 19/19/1 20/20/1
f 21/21/1 22/22/1 23/23/1 24/24/1
f 25/25/1 26/26/1 27/27/1 28/28/1
f 29/29/1 30/30/1 31/31/1 32/32/1
f 33/33/1 34/34/1 35/35/1 36/36/1
f 37/37/1 38/38/1 39/39/1 40/40/1
f 41/41/1 42/42/1 43/43/1 44/44/1
f 45/45/1 46/46/1 47/47/1 48/48/1
f 49/49/1 50/50/1 51/51/1 52/52/1
f 53/53/1 54/54/1 55/55/1 56/56/1
f 57/57/1 58/58/1 59/59/1 60/60/1
f 61/61/1 62/62/1 63/63/1 64/64/1
f 65/65/1 66/66/1 67/67/1 68/68/1
f 69/69/1 70/70/1 71/71/1 72/72/1
f 73/73/1 74/74/1 75/75/1 76/76/1
f 77/77/1 78/78/1 79/79/1 80/80/1
f 81/81/1 82/82/1 83/83/1 84/84/1
f 85/85/1 86/86/1 87/87/1 88/88/1
f 89/89/1 90/90/1 91/91/1 92/92/1
f 93/93/1 94/94/1 95/95/1 96/96/1
f 97/97/1 98/98/1 99/99/1 100/100/1
f 101/101/1 102/102/1 103/103/1 104/104/1
f 105/105/1 106/106/1 107/107/1 108/108/1
f 109/109/1 110/110/1 111/111/1 112/112/1
f 113/113/1 114/114/1 115/115/1 116/116/1
f 117/117/1 118/118/1 119/119/1 120/120/1
f 121/121/1 122/122/1 123/123/1 124/124/1
f 125/125/1 126/126/1 127/127/1 128/128/1
f 129/129/1 130/130/1 131/131/1 132/132/1
f 133/133/1 134/134/1 135/135/1 136/136/1
f 137/137/1 138/138/1 139/139/1 140/140/1
f 141/141/1 142/142/1 143/143/1 144/144/1
f 145/145/1 146/146/1 147/147/1 148/148/1
f 149/149/1 150/150/1 151/151/1 152/152/1
f 153/153/1 154/154/1 155/155/1 156/156/1
f 157/157/1 158/158/1 159/159/1 160/160/1
f 161/161/1 162/162/1 163/163/1 164/164/1
f 165/165/1 166/166/1 167/167/1 168/168/1
f 169/1/1 170/2/1 171/3/1 172/4/1
f 173/5/1 174/6/1 175/7/1 176/8/1
f 177/9/1 178/10/1 179/11/1 180/12/1
f 181/13/1 182/14/1 183/15/1 184/16/1
f 185/17/1 186/18/1 187/19/1 188/20/1
f 189/21/1 190/22/1 191/23/1 192/24/1
f 193/25/1 194/26/1 195/27/1 196/28/1
f 197/29/1 198/30/1 199/31/1 200/32/1
f 201/33/1 202/34/1 203/35/1 204/36/1
f 205/37/1 206/38/1 207/39/1 208/40/1
f 209/41/1 210/42/1 211/43/1 212/44/1
f 213/45/1 214/46/1 215/47/1 216/48/1
f 217/49/1 218/50/1 219/51/1 220/52/1
f 221/53/1 222/54/1 223/55/1 224/56/1
f 225/169/1 226/170/1 227/171/1 228/172/1
f 229/173/1 230/174/1 231/175/1 232/176/1
f 233/177/1 234/178/1 235/179/1 236/180/1
f 237/181/1 238/182/1 239/183/1 240/184/1
f 241/185/1 242/186/1 243/187/1 244/188/1

