# Tiled2Unity generated file. Do not modify by hand.
# Wavefront file for 'StoNinoShrine_mesh_0003.obj'

# Vertices (Count = 960)
v -44 -1 0
v -45 -1 0
v -45 0 0
v -44 0 0
v -43 -1 0
v -44 -1 0
v -44 0 0
v -43 0 0
v -42 -1 0
v -43 -1 0
v -43 0 0
v -42 0 0
v -41 -1 0
v -42 -1 0
v -42 0 0
v -41 0 0
v -44 -2 0
v -45 -2 0
v -45 -1 0
v -44 -1 0
v -43 -2 0
v -44 -2 0
v -44 -1 0
v -43 -1 0
v -42 -2 0
v -43 -2 0
v -43 -1 0
v -42 -1 0
v -41 -2 0
v -42 -2 0
v -42 -1 0
v -41 -1 0
v -58 -3 0
v -59 -3 0
v -59 -2 0
v -58 -2 0
v -57 -3 0
v -58 -3 0
v -58 -2 0
v -57 -2 0
v -56 -3 0
v -57 -3 0
v -57 -2 0
v -56 -2 0
v -55 -3 0
v -56 -3 0
v -56 -2 0
v -55 -2 0
v -44 -3 0
v -45 -3 0
v -45 -2 0
v -44 -2 0
v -43 -3 0
v -44 -3 0
v -44 -2 0
v -43 -2 0
v -42 -3 0
v -43 -3 0
v -43 -2 0
v -42 -2 0
v -41 -3 0
v -42 -3 0
v -42 -2 0
v -41 -2 0
v -58 -4 0
v -59 -4 0
v -59 -3 0
v -58 -3 0
v -57 -4 0
v -58 -4 0
v -58 -3 0
v -57 -3 0
v -56 -4 0
v -57 -4 0
v -57 -3 0
v -56 -3 0
v -55 -4 0
v -56 -4 0
v -56 -3 0
v -55 -3 0
v -44 -4 0
v -45 -4 0
v -45 -3 0
v -44 -3 0
v -43 -4 0
v -44 -4 0
v -44 -3 0
v -43 -3 0
v -42 -4 0
v -43 -4 0
v -43 -3 0
v -42 -3 0
v -41 -4 0
v -42 -4 0
v -42 -3 0
v -41 -3 0
v -58 -5 0
v -59 -5 0
v -59 -4 0
v -58 -4 0
v -57 -5 0
v -58 -5 0
v -58 -4 0
v -57 -4 0
v -56 -5 0
v -57 -5 0
v -57 -4 0
v -56 -4 0
v -55 -5 0
v -56 -5 0
v -56 -4 0
v -55 -4 0
v -26 -5 0
v -27 -5 0
v -27 -4 0
v -26 -4 0
v -25 -5 0
v -26 -5 0
v -26 -4 0
v -25 -4 0
v -24 -5 0
v -25 -5 0
v -25 -4 0
v -24 -4 0
v -23 -5 0
v -24 -5 0
v -24 -4 0
v -23 -4 0
v -14 -5 0
v -15 -5 0
v -15 -4 0
v -14 -4 0
v -13 -5 0
v -14 -5 0
v -14 -4 0
v -13 -4 0
v -12 -5 0
v -13 -5 0
v -13 -4 0
v -12 -4 0
v -11 -5 0
v -12 -5 0
v -12 -4 0
v -11 -4 0
v -58 -6 0
v -59 -6 0
v -59 -5 0
v -58 -5 0
v -57 -6 0
v -58 -6 0
v -58 -5 0
v -57 -5 0
v -56 -6 0
v -57 -6 0
v -57 -5 0
v -56 -5 0
v -55 -6 0
v -56 -6 0
v -56 -5 0
v -55 -5 0
v -26 -6 0
v -27 -6 0
v -27 -5 0
v -26 -5 0
v -25 -6 0
v -26 -6 0
v -26 -5 0
v -25 -5 0
v -24 -6 0
v -25 -6 0
v -25 -5 0
v -24 -5 0
v -23 -6 0
v -24 -6 0
v -24 -5 0
v -23 -5 0
v -14 -6 0
v -15 -6 0
v -15 -5 0
v -14 -5 0
v -13 -6 0
v -14 -6 0
v -14 -5 0
v -13 -5 0
v -12 -6 0
v -13 -6 0
v -13 -5 0
v -12 -5 0
v -11 -6 0
v -12 -6 0
v -12 -5 0
v -11 -5 0
v -3 -6 0
v -4 -6 0
v -4 -5 0
v -3 -5 0
v -2 -6 0
v -3 -6 0
v -3 -5 0
v -2 -5 0
v -1 -6 0
v -2 -6 0
v -2 -5 0
v -1 -5 0
v 0 -6 0
v -1 -6 0
v -1 -5 0
v 0 -5 0
v -26 -7 0
v -27 -7 0
v -27 -6 0
v -26 -6 0
v -25 -7 0
v -26 -7 0
v -26 -6 0
v -25 -6 0
v -24 -7 0
v -25 -7 0
v -25 -6 0
v -24 -6 0
v -23 -7 0
v -24 -7 0
v -24 -6 0
v -23 -6 0
v -14 -7 0
v -15 -7 0
v -15 -6 0
v -14 -6 0
v -13 -7 0
v -14 -7 0
v -14 -6 0
v -13 -6 0
v -12 -7 0
v -13 -7 0
v -13 -6 0
v -12 -6 0
v -11 -7 0
v -12 -7 0
v -12 -6 0
v -11 -6 0
v -3 -7 0
v -4 -7 0
v -4 -6 0
v -3 -6 0
v -2 -7 0
v -3 -7 0
v -3 -6 0
v -2 -6 0
v -1 -7 0
v -2 -7 0
v -2 -6 0
v -1 -6 0
v 0 -7 0
v -1 -7 0
v -1 -6 0
v 0 -6 0
v -26 -8 0
v -27 -8 0
v -27 -7 0
v -26 -7 0
v -25 -8 0
v -26 -8 0
v -26 -7 0
v -25 -7 0
v -24 -8 0
v -25 -8 0
v -25 -7 0
v -24 -7 0
v -23 -8 0
v -24 -8 0
v -24 -7 0
v -23 -7 0
v -14 -8 0
v -15 -8 0
v -15 -7 0
v -14 -7 0
v -13 -8 0
v -14 -8 0
v -14 -7 0
v -13 -7 0
v -12 -8 0
v -13 -8 0
v -13 -7 0
v -12 -7 0
v -11 -8 0
v -12 -8 0
v -12 -7 0
v -11 -7 0
v -3 -8 0
v -4 -8 0
v -4 -7 0
v -3 -7 0
v -2 -8 0
v -3 -8 0
v -3 -7 0
v -2 -7 0
v -1 -8 0
v -2 -8 0
v -2 -7 0
v -1 -7 0
v 0 -8 0
v -1 -8 0
v -1 -7 0
v 0 -7 0
v -3 -9 0
v -4 -9 0
v -4 -8 0
v -3 -8 0
v -2 -9 0
v -3 -9 0
v -3 -8 0
v -2 -8 0
v -1 -9 0
v -2 -9 0
v -2 -8 0
v -1 -8 0
v 0 -9 0
v -1 -9 0
v -1 -8 0
v 0 -8 0
v -33 -15 0
v -34 -15 0
v -34 -14 0
v -33 -14 0
v -32 -15 0
v -33 -15 0
v -33 -14 0
v -32 -14 0
v -31 -15 0
v -32 -15 0
v -32 -14 0
v -31 -14 0
v -30 -15 0
v -31 -15 0
v -31 -14 0
v -30 -14 0
v -33 -16 0
v -34 -16 0
v -34 -15 0
v -33 -15 0
v -32 -16 0
v -33 -16 0
v -33 -15 0
v -32 -15 0
v -31 -16 0
v -32 -16 0
v -32 -15 0
v -31 -15 0
v -30 -16 0
v -31 -16 0
v -31 -15 0
v -30 -15 0
v -14 -16 0
v -15 -16 0
v -15 -15 0
v -14 -15 0
v -13 -16 0
v -14 -16 0
v -14 -15 0
v -13 -15 0
v -12 -16 0
v -13 -16 0
v -13 -15 0
v -12 -15 0
v -11 -16 0
v -12 -16 0
v -12 -15 0
v -11 -15 0
v -33 -17 0
v -34 -17 0
v -34 -16 0
v -33 -16 0
v -32 -17 0
v -33 -17 0
v -33 -16 0
v -32 -16 0
v -31 -17 0
v -32 -17 0
v -32 -16 0
v -31 -16 0
v -30 -17 0
v -31 -17 0
v -31 -16 0
v -30 -16 0
v -14 -17 0
v -15 -17 0
v -15 -16 0
v -14 -16 0
v -13 -17 0
v -14 -17 0
v -14 -16 0
v -13 -16 0
v -12 -17 0
v -13 -17 0
v -13 -16 0
v -12 -16 0
v -11 -17 0
v -12 -17 0
v -12 -16 0
v -11 -16 0
v -33 -18 0
v -34 -18 0
v -34 -17 0
v -33 -17 0
v -32 -18 0
v -33 -18 0
v -33 -17 0
v -32 -17 0
v -31 -18 0
v -32 -18 0
v -32 -17 0
v -31 -17 0
v -30 -18 0
v -31 -18 0
v -31 -17 0
v -30 -17 0
v -14 -18 0
v -15 -18 0
v -15 -17 0
v -14 -17 0
v -13 -18 0
v -14 -18 0
v -14 -17 0
v -13 -17 0
v -12 -18 0
v -13 -18 0
v -13 -17 0
v -12 -17 0
v -11 -18 0
v -12 -18 0
v -12 -17 0
v -11 -17 0
v -14 -19 0
v -15 -19 0
v -15 -18 0
v -14 -18 0
v -13 -19 0
v -14 -19 0
v -14 -18 0
v -13 -18 0
v -12 -19 0
v -13 -19 0
v -13 -18 0
v -12 -18 0
v -11 -19 0
v -12 -19 0
v -12 -18 0
v -11 -18 0
v -54 -21 0
v -55 -21 0
v -55 -20 0
v -54 -20 0
v -53 -21 0
v -54 -21 0
v -54 -20 0
v -53 -20 0
v -52 -21 0
v -53 -21 0
v -53 -20 0
v -52 -20 0
v -51 -21 0
v -52 -21 0
v -52 -20 0
v -51 -20 0
v -30 -21 0
v -31 -21 0
v -31 -20 0
v -30 -20 0
v -29 -21 0
v -30 -21 0
v -30 -20 0
v -29 -20 0
v -28 -21 0
v -29 -21 0
v -29 -20 0
v -28 -20 0
v -27 -21 0
v -28 -21 0
v -28 -20 0
v -27 -20 0
v -54 -22 0
v -55 -22 0
v -55 -21 0
v -54 -21 0
v -53 -22 0
v -54 -22 0
v -54 -21 0
v -53 -21 0
v -52 -22 0
v -53 -22 0
v -53 -21 0
v -52 -21 0
v -51 -22 0
v -52 -22 0
v -52 -21 0
v -51 -21 0
v -30 -22 0
v -31 -22 0
v -31 -21 0
v -30 -21 0
v -29 -22 0
v -30 -22 0
v -30 -21 0
v -29 -21 0
v -28 -22 0
v -29 -22 0
v -29 -21 0
v -28 -21 0
v -27 -22 0
v -28 -22 0
v -28 -21 0
v -27 -21 0
v -54 -23 0
v -55 -23 0
v -55 -22 0
v -54 -22 0
v -53 -23 0
v -54 -23 0
v -54 -22 0
v -53 -22 0
v -52 -23 0
v -53 -23 0
v -53 -22 0
v -52 -22 0
v -51 -23 0
v -52 -23 0
v -52 -22 0
v -51 -22 0
v -30 -23 0
v -31 -23 0
v -31 -22 0
v -30 -22 0
v -29 -23 0
v -30 -23 0
v -30 -22 0
v -29 -22 0
v -28 -23 0
v -29 -23 0
v -29 -22 0
v -28 -22 0
v -27 -23 0
v -28 -23 0
v -28 -22 0
v -27 -22 0
v -54 -24 0
v -55 -24 0
v -55 -23 0
v -54 -23 0
v -53 -24 0
v -54 -24 0
v -54 -23 0
v -53 -23 0
v -52 -24 0
v -53 -24 0
v -53 -23 0
v -52 -23 0
v -51 -24 0
v -52 -24 0
v -52 -23 0
v -51 -23 0
v -30 -24 0
v -31 -24 0
v -31 -23 0
v -30 -23 0
v -29 -24 0
v -30 -24 0
v -30 -23 0
v -29 -23 0
v -28 -24 0
v -29 -24 0
v -29 -23 0
v -28 -23 0
v -27 -24 0
v -28 -24 0
v -28 -23 0
v -27 -23 0
v -42 -25 0
v -43 -25 0
v -43 -24 0
v -42 -24 0
v -41 -25 0
v -42 -25 0
v -42 -24 0
v -41 -24 0
v -40 -25 0
v -41 -25 0
v -41 -24 0
v -40 -24 0
v -39 -25 0
v -40 -25 0
v -40 -24 0
v -39 -24 0
v -42 -26 0
v -43 -26 0
v -43 -25 0
v -42 -25 0
v -41 -26 0
v -42 -26 0
v -42 -25 0
v -41 -25 0
v -40 -26 0
v -41 -26 0
v -41 -25 0
v -40 -25 0
v -39 -26 0
v -40 -26 0
v -40 -25 0
v -39 -25 0
v -42 -27 0
v -43 -27 0
v -43 -26 0
v -42 -26 0
v -41 -27 0
v -42 -27 0
v -42 -26 0
v -41 -26 0
v -40 -27 0
v -41 -27 0
v -41 -26 0
v -40 -26 0
v -39 -27 0
v -40 -27 0
v -40 -26 0
v -39 -26 0
v -42 -28 0
v -43 -28 0
v -43 -27 0
v -42 -27 0
v -41 -28 0
v -42 -28 0
v -42 -27 0
v -41 -27 0
v -40 -28 0
v -41 -28 0
v -41 -27 0
v -40 -27 0
v -39 -28 0
v -40 -28 0
v -40 -27 0
v -39 -27 0
v -59 -29 0
v -60 -29 0
v -60 -28 0
v -59 -28 0
v -58 -29 0
v -59 -29 0
v -59 -28 0
v -58 -28 0
v -57 -29 0
v -58 -29 0
v -58 -28 0
v -57 -28 0
v -56 -29 0
v -57 -29 0
v -57 -28 0
v -56 -28 0
v -59 -30 0
v -60 -30 0
v -60 -29 0
v -59 -29 0
v -58 -30 0
v -59 -30 0
v -59 -29 0
v -58 -29 0
v -57 -30 0
v -58 -30 0
v -58 -29 0
v -57 -29 0
v -56 -30 0
v -57 -30 0
v -57 -29 0
v -56 -29 0
v -59 -31 0
v -60 -31 0
v -60 -30 0
v -59 -30 0
v -58 -31 0
v -59 -31 0
v -59 -30 0
v -58 -30 0
v -57 -31 0
v -58 -31 0
v -58 -30 0
v -57 -30 0
v -56 -31 0
v -57 -31 0
v -57 -30 0
v -56 -30 0
v -59 -32 0
v -60 -32 0
v -60 -31 0
v -59 -31 0
v -58 -32 0
v -59 -32 0
v -59 -31 0
v -58 -31 0
v -57 -32 0
v -58 -32 0
v -58 -31 0
v -57 -31 0
v -56 -32 0
v -57 -32 0
v -57 -31 0
v -56 -31 0
v -39 -33 0
v -40 -33 0
v -40 -32 0
v -39 -32 0
v -38 -33 0
v -39 -33 0
v -39 -32 0
v -38 -32 0
v -37 -33 0
v -38 -33 0
v -38 -32 0
v -37 -32 0
v -36 -33 0
v -37 -33 0
v -37 -32 0
v -36 -32 0
v -39 -34 0
v -40 -34 0
v -40 -33 0
v -39 -33 0
v -38 -34 0
v -39 -34 0
v -39 -33 0
v -38 -33 0
v -37 -34 0
v -38 -34 0
v -38 -33 0
v -37 -33 0
v -36 -34 0
v -37 -34 0
v -37 -33 0
v -36 -33 0
v -39 -35 0
v -40 -35 0
v -40 -34 0
v -39 -34 0
v -38 -35 0
v -39 -35 0
v -39 -34 0
v -38 -34 0
v -37 -35 0
v -38 -35 0
v -38 -34 0
v -37 -34 0
v -36 -35 0
v -37 -35 0
v -37 -34 0
v -36 -34 0
v -39 -36 0
v -40 -36 0
v -40 -35 0
v -39 -35 0
v -38 -36 0
v -39 -36 0
v -39 -35 0
v -38 -35 0
v -37 -36 0
v -38 -36 0
v -38 -35 0
v -37 -35 0
v -36 -36 0
v -37 -36 0
v -37 -35 0
v -36 -35 0
v -10 -41 0
v -11 -41 0
v -11 -40 0
v -10 -40 0
v -9 -41 0
v -10 -41 0
v -10 -40 0
v -9 -40 0
v -8 -41 0
v -9 -41 0
v -9 -40 0
v -8 -40 0
v -7 -41 0
v -8 -41 0
v -8 -40 0
v -7 -40 0
v -10 -42 0
v -11 -42 0
v -11 -41 0
v -10 -41 0
v -9 -42 0
v -10 -42 0
v -10 -41 0
v -9 -41 0
v -8 -42 0
v -9 -42 0
v -9 -41 0
v -8 -41 0
v -7 -42 0
v -8 -42 0
v -8 -41 0
v -7 -41 0
v -68 -43 0
v -69 -43 0
v -69 -42 0
v -68 -42 0
v -67 -43 0
v -68 -43 0
v -68 -42 0
v -67 -42 0
v -66 -43 0
v -67 -43 0
v -67 -42 0
v -66 -42 0
v -65 -43 0
v -66 -43 0
v -66 -42 0
v -65 -42 0
v -10 -43 0
v -11 -43 0
v -11 -42 0
v -10 -42 0
v -9 -43 0
v -10 -43 0
v -10 -42 0
v -9 -42 0
v -8 -43 0
v -9 -43 0
v -9 -42 0
v -8 -42 0
v -7 -43 0
v -8 -43 0
v -8 -42 0
v -7 -42 0
v -68 -44 0
v -69 -44 0
v -69 -43 0
v -68 -43 0
v -67 -44 0
v -68 -44 0
v -68 -43 0
v -67 -43 0
v -66 -44 0
v -67 -44 0
v -67 -43 0
v -66 -43 0
v -65 -44 0
v -66 -44 0
v -66 -43 0
v -65 -43 0
v -42 -44 0
v -43 -44 0
v -43 -43 0
v -42 -43 0
v -41 -44 0
v -42 -44 0
v -42 -43 0
v -41 -43 0
v -40 -44 0
v -41 -44 0
v -41 -43 0
v -40 -43 0
v -39 -44 0
v -40 -44 0
v -40 -43 0
v -39 -43 0
v -10 -44 0
v -11 -44 0
v -11 -43 0
v -10 -43 0
v -9 -44 0
v -10 -44 0
v -10 -43 0
v -9 -43 0
v -8 -44 0
v -9 -44 0
v -9 -43 0
v -8 -43 0
v -7 -44 0
v -8 -44 0
v -8 -43 0
v -7 -43 0
v -68 -45 0
v -69 -45 0
v -69 -44 0
v -68 -44 0
v -67 -45 0
v -68 -45 0
v -68 -44 0
v -67 -44 0
v -66 -45 0
v -67 -45 0
v -67 -44 0
v -66 -44 0
v -65 -45 0
v -66 -45 0
v -66 -44 0
v -65 -44 0
v -42 -45 0
v -43 -45 0
v -43 -44 0
v -42 -44 0
v -41 -45 0
v -42 -45 0
v -42 -44 0
v -41 -44 0
v -40 -45 0
v -41 -45 0
v -41 -44 0
v -40 -44 0
v -39 -45 0
v -40 -45 0
v -40 -44 0
v -39 -44 0
v -68 -46 0
v -69 -46 0
v -69 -45 0
v -68 -45 0
v -67 -46 0
v -68 -46 0
v -68 -45 0
v -67 -45 0
v -66 -46 0
v -67 -46 0
v -67 -45 0
v -66 -45 0
v -65 -46 0
v -66 -46 0
v -66 -45 0
v -65 -45 0
v -42 -46 0
v -43 -46 0
v -43 -45 0
v -42 -45 0
v -41 -46 0
v -42 -46 0
v -42 -45 0
v -41 -45 0
v -40 -46 0
v -41 -46 0
v -41 -45 0
v -40 -45 0
v -39 -46 0
v -40 -46 0
v -40 -45 0
v -39 -45 0
v -42 -47 0
v -43 -47 0
v -43 -46 0
v -42 -46 0
v -41 -47 0
v -42 -47 0
v -42 -46 0
v -41 -46 0
v -40 -47 0
v -41 -47 0
v -41 -46 0
v -40 -46 0
v -39 -47 0
v -40 -47 0
v -40 -46 0
v -39 -46 0

# Texture cooridinates (Count = 64)
vt 0.853178 0.5278999
vt 0.8737401 0.5278999
vt 0.8737401 0.5554335
vt 0.853178 0.5554335
vt 0.8323718 0.5278999
vt 0.8529338 0.5278999
vt 0.8529338 0.5554335
vt 0.8323718 0.5554335
vt 0.8115655 0.5278999
vt 0.8321276 0.5278999
vt 0.8321276 0.5554335
vt 0.8115655 0.5554335
vt 0.7907593 0.5278999
vt 0.8113214 0.5278999
vt 0.8113214 0.5554335
vt 0.7907593 0.5554335
vt 0.853178 0.5001221
vt 0.8737401 0.5001221
vt 0.8737401 0.5276557
vt 0.853178 0.5276557
vt 0.8323718 0.5001221
vt 0.8529338 0.5001221
vt 0.8529338 0.5276557
vt 0.8323718 0.5276557
vt 0.8115655 0.5001221
vt 0.8321276 0.5001221
vt 0.8321276 0.5276557
vt 0.8115655 0.5276557
vt 0.7907593 0.5001221
vt 0.8113214 0.5001221
vt 0.8113214 0.5276557
vt 0.7907593 0.5276557
vt 0.853178 0.4723443
vt 0.8737401 0.4723443
vt 0.8737401 0.4998779
vt 0.853178 0.4998779
vt 0.8323718 0.4723443
vt 0.8529338 0.4723443
vt 0.8529338 0.4998779
vt 0.8323718 0.4998779
vt 0.8115655 0.4723443
vt 0.8321276 0.4723443
vt 0.8321276 0.4998779
vt 0.8115655 0.4998779
vt 0.7907593 0.4723443
vt 0.8113214 0.4723443
vt 0.8113214 0.4998779
vt 0.7907593 0.4998779
vt 0.853178 0.4445665
vt 0.8737401 0.4445665
vt 0.8737401 0.4721001
vt 0.853178 0.4721001
vt 0.8323718 0.4445665
vt 0.8529338 0.4445665
vt 0.8529338 0.4721001
vt 0.8323718 0.4721001
vt 0.8115655 0.4445665
vt 0.8321276 0.4445665
vt 0.8321276 0.4721001
vt 0.8115655 0.4721001
vt 0.7907593 0.4445665
vt 0.8113214 0.4445665
vt 0.8113214 0.4721001
vt 0.7907593 0.4721001

# Normal
vn 0 0 -1

# Mesh description
g StoNinoShrine_mesh_0003

# Faces
f 1/1/1 2/2/1 3/3/1 4/4/1
f 5/5/1 6/6/1 7/7/1 8/8/1
f 9/9/1 10/10/1 11/11/1 12/12/1
f 13/13/1 14/14/1 15/15/1 16/16/1
f 17/17/1 18/18/1 19/19/1 20/20/1
f 21/21/1 22/22/1 23/23/1 24/24/1
f 25/25/1 26/26/1 27/27/1 28/28/1
f 29/29/1 30/30/1 31/31/1 32/32/1
f 33/1/1 34/2/1 35/3/1 36/4/1
f 37/5/1 38/6/1 39/7/1 40/8/1
f 41/9/1 42/10/1 43/11/1 44/12/1
f 45/13/1 46/14/1 47/15/1 48/16/1
f 49/33/1 50/34/1 51/35/1 52/36/1
f 53/37/1 54/38/1 55/39/1 56/40/1
f 57/41/1 58/42/1 59/43/1 60/44/1
f 61/45/1 62/46/1 63/47/1 64/48/1
f 65/17/1 66/18/1 67/19/1 68/20/1
f 69/21/1 70/22/1 71/23/1 72/24/1
f 73/25/1 74/26/1 75/27/1 76/28/1
f 77/29/1 78/30/1 79/31/1 80/32/1
f 81/49/1 82/50/1 83/51/1 84/52/1
f 85/53/1 86/54/1 87/55/1 88/56/1
f 89/57/1 90/58/1 91/59/1 92/60/1
f 93/61/1 94/62/1 95/63/1 96/64/1
f 97/33/1 98/34/1 99/35/1 100/36/1
f 101/37/1 102/38/1 103/39/1 104/40/1
f 105/41/1 106/42/1 107/43/1 108/44/1
f 109/45/1 110/46/1 111/47/1 112/48/1
f 113/1/1 114/2/1 115/3/1 116/4/1
f 117/5/1 118/6/1 119/7/1 120/8/1
f 121/9/1 122/10/1 123/11/1 124/12/1
f 125/13/1 126/14/1 127/15/1 128/16/1
f 129/1/1 130/2/1 131/3/1 132/4/1
f 133/5/1 134/6/1 135/7/1 136/8/1
f 137/9/1 138/10/1 139/11/1 140/12/1
f 141/13/1 142/14/1 143/15/1 144/16/1
f 145/49/1 146/50/1 147/51/1 148/52/1
f 149/53/1 150/54/1 151/55/1 152/56/1
f 153/57/1 154/58/1 155/59/1 156/60/1
f 157/61/1 158/62/1 159/63/1 160/64/1
f 161/17/1 162/18/1 163/19/1 164/20/1
f 165/21/1 166/22/1 167/23/1 168/24/1
f 169/25/1 170/26/1 171/27/1 172/28/1
f 173/29/1 174/30/1 175/31/1 176/32/1
f 177/17/1 178/18/1 179/19/1 180/20/1
f 181/21/1 182/22/1 183/23/1 184/24/1
f 185/25/1 186/26/1 187/27/1 188/28/1
f 189/29/1 190/30/1 191/31/1 192/32/1
f 193/1/1 194/2/1 195/3/1 196/4/1
f 197/5/1 198/6/1 199/7/1 200/8/1
f 201/9/1 202/10/1 203/11/1 204/12/1
f 205/13/1 206/14/1 207/15/1 208/16/1
f 209/33/1 210/34/1 211/35/1 212/36/1
f 213/37/1 214/38/1 215/39/1 216/40/1
f 217/41/1 218/42/1 219/43/1 220/44/1
f 221/45/1 222/46/1 223/47/1 224/48/1
f 225/33/1 226/34/1 227/35/1 228/36/1
f 229/37/1 230/38/1 231/39/1 232/40/1
f 233/41/1 234/42/1 235/43/1 236/44/1
f 237/45/1 238/46/1 239/47/1 240/48/1
f 241/17/1 242/18/1 243/19/1 244/20/1
f 245/21/1 246/22/1 247/23/1 248/24/1
f 249/25/1 250/26/1 251/27/1 252/28/1
f 253/29/1 254/30/1 255/31/1 256/32/1
f 257/49/1 258/50/1 259/51/1 260/52/1
f 261/53/1 262/54/1 263/55/1 264/56/1
f 265/57/1 266/58/1 267/59/1 268/60/1
f 269/61/1 270/62/1 271/63/1 272/64/1
f 273/49/1 274/50/1 275/51/1 276/52/1
f 277/53/1 278/54/1 279/55/1 280/56/1
f 281/57/1 282/58/1 283/59/1 284/60/1
f 285/61/1 286/62/1 287/63/1 288/64/1
f 289/33/1 290/34/1 291/35/1 292/36/1
f 293/37/1 294/38/1 295/39/1 296/40/1
f 297/41/1 298/42/1 299/43/1 300/44/1
f 301/45/1 302/46/1 303/47/1 304/48/1
f 305/49/1 306/50/1 307/51/1 308/52/1
f 309/53/1 310/54/1 311/55/1 312/56/1
f 313/57/1 314/58/1 315/59/1 316/60/1
f 317/61/1 318/62/1 319/63/1 320/64/1
f 321/1/1 322/2/1 323/3/1 324/4/1
f 325/5/1 326/6/1 327/7/1 328/8/1
f 329/9/1 330/10/1 331/11/1 332/12/1
f 333/13/1 334/14/1 335/15/1 336/16/1
f 337/17/1 338/18/1 339/19/1 340/20/1
f 341/21/1 342/22/1 343/23/1 344/24/1
f 345/25/1 346/26/1 347/27/1 348/28/1
f 349/29/1 350/30/1 351/31/1 352/32/1
f 353/1/1 354/2/1 355/3/1 356/4/1
f 357/5/1 358/6/1 359/7/1 360/8/1
f 361/9/1 362/10/1 363/11/1 364/12/1
f 365/13/1 366/14/1 367/15/1 368/16/1
f 369/33/1 370/34/1 371/35/1 372/36/1
f 373/37/1 374/38/1 375/39/1 376/40/1
f 377/41/1 378/42/1 379/43/1 380/44/1
f 381/45/1 382/46/1 383/47/1 384/48/1
f 385/17/1 386/18/1 387/19/1 388/20/1
f 389/21/1 390/22/1 391/23/1 392/24/1
f 393/25/1 394/26/1 395/27/1 396/28/1
f 397/29/1 398/30/1 399/31/1 400/32/1
f 401/49/1 402/50/1 403/51/1 404/52/1
f 405/53/1 406/54/1 407/55/1 408/56/1
f 409/57/1 410/58/1 411/59/1 412/60/1
f 413/61/1 414/62/1 415/63/1 416/64/1
f 417/33/1 418/34/1 419/35/1 420/36/1
f 421/37/1 422/38/1 423/39/1 424/40/1
f 425/41/1 426/42/1 427/43/1 428/44/1
f 429/45/1 430/46/1 431/47/1 432/48/1
f 433/49/1 434/50/1 435/51/1 436/52/1
f 437/53/1 438/54/1 439/55/1 440/56/1
f 441/57/1 442/58/1 443/59/1 444/60/1
f 445/61/1 446/62/1 447/63/1 448/64/1
f 449/1/1 450/2/1 451/3/1 452/4/1
f 453/5/1 454/6/1 455/7/1 456/8/1
f 457/9/1 458/10/1 459/11/1 460/12/1
f 461/13/1 462/14/1 463/15/1 464/16/1
f 465/1/1 466/2/1 467/3/1 468/4/1
f 469/5/1 470/6/1 471/7/1 472/8/1
f 473/9/1 474/10/1 475/11/1 476/12/1
f 477/13/1 478/14/1 479/15/1 480/16/1
f 481/17/1 482/18/1 483/19/1 484/20/1
f 485/21/1 486/22/1 487/23/1 488/24/1
f 489/25/1 490/26/1 491/27/1 492/28/1
f 493/29/1 494/30/1 495/31/1 496/32/1
f 497/17/1 498/18/1 499/19/1 500/20/1
f 501/21/1 502/22/1 503/23/1 504/24/1
f 505/25/1 506/26/1 507/27/1 508/28/1
f 509/29/1 510/30/1 511/31/1 512/32/1
f 513/33/1 514/34/1 515/35/1 516/36/1
f 517/37/1 518/38/1 519/39/1 520/40/1
f 521/41/1 522/42/1 523/43/1 524/44/1
f 525/45/1 526/46/1 527/47/1 528/48/1
f 529/33/1 530/34/1 531/35/1 532/36/1
f 533/37/1 534/38/1 535/39/1 536/40/1
f 537/41/1 538/42/1 539/43/1 540/44/1
f 541/45/1 542/46/1 543/47/1 544/48/1
f 545/49/1 546/50/1 547/51/1 548/52/1
f 549/53/1 550/54/1 551/55/1 552/56/1
f 553/57/1 554/58/1 555/59/1 556/60/1
f 557/61/1 558/62/1 559/63/1 560/64/1
f 561/49/1 562/50/1 563/51/1 564/52/1
f 565/53/1 566/54/1 567/55/1 568/56/1
f 569/57/1 570/58/1 571/59/1 572/60/1
f 573/61/1 574/62/1 575/63/1 576/64/1
f 577/1/1 578/2/1 579/3/1 580/4/1
f 581/5/1 582/6/1 583/7/1 584/8/1
f 585/9/1 586/10/1 587/11/1 588/12/1
f 589/13/1 590/14/1 591/15/1 592/16/1
f 593/17/1 594/18/1 595/19/1 596/20/1
f 597/21/1 598/22/1 599/23/1 600/24/1
f 601/25/1 602/26/1 603/27/1 604/28/1
f 605/29/1 606/30/1 607/31/1 608/32/1
f 609/33/1 610/34/1 611/35/1 612/36/1
f 613/37/1 614/38/1 615/39/1 616/40/1
f 617/41/1 618/42/1 619/43/1 620/44/1
f 621/45/1 622/46/1 623/47/1 624/48/1
f 625/49/1 626/50/1 627/51/1 628/52/1
f 629/53/1 630/54/1 631/55/1 632/56/1
f 633/57/1 634/58/1 635/59/1 636/60/1
f 637/61/1 638/62/1 639/63/1 640/64/1
f 641/1/1 642/2/1 643/3/1 644/4/1
f 645/5/1 646/6/1 647/7/1 648/8/1
f 649/9/1 650/10/1 651/11/1 652/12/1
f 653/13/1 654/14/1 655/15/1 656/16/1
f 657/17/1 658/18/1 659/19/1 660/20/1
f 661/21/1 662/22/1 663/23/1 664/24/1
f 665/25/1 666/26/1 667/27/1 668/28/1
f 669/29/1 670/30/1 671/31/1 672/32/1
f 673/33/1 674/34/1 675/35/1 676/36/1
f 677/37/1 678/38/1 679/39/1 680/40/1
f 681/41/1 682/42/1 683/43/1 684/44/1
f 685/45/1 686/46/1 687/47/1 688/48/1
f 689/49/1 690/50/1 691/51/1 692/52/1
f 693/53/1 694/54/1 695/55/1 696/56/1
f 697/57/1 698/58/1 699/59/1 700/60/1
f 701/61/1 702/62/1 703/63/1 704/64/1
f 705/1/1 706/2/1 707/3/1 708/4/1
f 709/5/1 710/6/1 711/7/1 712/8/1
f 713/9/1 714/10/1 715/11/1 716/12/1
f 717/13/1 718/14/1 719/15/1 720/16/1
f 721/17/1 722/18/1 723/19/1 724/20/1
f 725/21/1 726/22/1 727/23/1 728/24/1
f 729/25/1 730/26/1 731/27/1 732/28/1
f 733/29/1 734/30/1 735/31/1 736/32/1
f 737/33/1 738/34/1 739/35/1 740/36/1
f 741/37/1 742/38/1 743/39/1 744/40/1
f 745/41/1 746/42/1 747/43/1 748/44/1
f 749/45/1 750/46/1 751/47/1 752/48/1
f 753/49/1 754/50/1 755/51/1 756/52/1
f 757/53/1 758/54/1 759/55/1 760/56/1
f 761/57/1 762/58/1 763/59/1 764/60/1
f 765/61/1 766/62/1 767/63/1 768/64/1
f 769/1/1 770/2/1 771/3/1 772/4/1
f 773/5/1 774/6/1 775/7/1 776/8/1
f 777/9/1 778/10/1 779/11/1 780/12/1
f 781/13/1 782/14/1 783/15/1 784/16/1
f 785/17/1 786/18/1 787/19/1 788/20/1
f 789/21/1 790/22/1 791/23/1 792/24/1
f 793/25/1 794/26/1 795/27/1 796/28/1
f 797/29/1 798/30/1 799/31/1 800/32/1
f 801/1/1 802/2/1 803/3/1 804/4/1
f 805/5/1 806/6/1 807/7/1 808/8/1
f 809/9/1 810/10/1 811/11/1 812/12/1
f 813/13/1 814/14/1 815/15/1 816/16/1
f 817/33/1 818/34/1 819/35/1 820/36/1
f 821/37/1 822/38/1 823/39/1 824/40/1
f 825/41/1 826/42/1 827/43/1 828/44/1
f 829/45/1 830/46/1 831/47/1 832/48/1
f 833/17/1 834/18/1 835/19/1 836/20/1
f 837/21/1 838/22/1 839/23/1 840/24/1
f 841/25/1 842/26/1 843/27/1 844/28/1
f 845/29/1 846/30/1 847/31/1 848/32/1
f 849/1/1 850/2/1 851/3/1 852/4/1
f 853/5/1 854/6/1 855/7/1 856/8/1
f 857/9/1 858/10/1 859/11/1 860/12/1
f 861/13/1 862/14/1 863/15/1 864/16/1
f 865/49/1 866/50/1 867/51/1 868/52/1
f 869/53/1 870/54/1 871/55/1 872/56/1
f 873/57/1 874/58/1 875/59/1 876/60/1
f 877/61/1 878/62/1 879/63/1 880/64/1
f 881/33/1 882/34/1 883/35/1 884/36/1
f 885/37/1 886/38/1 887/39/1 888/40/1
f 889/41/1 890/42/1 891/43/1 892/44/1
f 893/45/1 894/46/1 895/47/1 896/48/1
f 897/17/1 898/18/1 899/19/1 900/20/1
f 901/21/1 902/22/1 903/23/1 904/24/1
f 905/25/1 906/26/1 907/27/1 908/28/1
f 909/29/1 910/30/1 911/31/1 912/32/1
f 913/49/1 914/50/1 915/51/1 916/52/1
f 917/53/1 918/54/1 919/55/1 920/56/1
f 921/57/1 922/58/1 923/59/1 924/60/1
f 925/61/1 926/62/1 927/63/1 928/64/1
f 929/33/1 930/34/1 931/35/1 932/36/1
f 933/37/1 934/38/1 935/39/1 936/40/1
f 937/41/1 938/42/1 939/43/1 940/44/1
f 941/45/1 942/46/1 943/47/1 944/48/1
f 945/49/1 946/50/1 947/51/1 948/52/1
f 949/53/1 950/54/1 951/55/1 952/56/1
f 953/57/1 954/58/1 955/59/1 956/60/1
f 957/61/1 958/62/1 959/63/1 960/64/1

