# Tiled2Unity generated file. Do not modify by hand.
# Wavefront file for 'StoNinoShrine_mesh_0007.obj'

# Vertices (Count = 568)
v -41 -1 0
v -42 -1 0
v -42 0 0
v -41 0 0
v -40 -1 0
v -41 -1 0
v -41 0 0
v -40 0 0
v -39 -1 0
v -40 -1 0
v -40 0 0
v -39 0 0
v -38 -1 0
v -39 -1 0
v -39 0 0
v -38 0 0
v -3 -1 0
v -4 -1 0
v -4 0 0
v -3 0 0
v -2 -1 0
v -3 -1 0
v -3 0 0
v -2 0 0
v -1 -1 0
v -2 -1 0
v -2 0 0
v -1 0 0
v 0 -1 0
v -1 -1 0
v -1 0 0
v 0 0 0
v -3 -2 0
v -4 -2 0
v -4 -1 0
v -3 -1 0
v -2 -2 0
v -3 -2 0
v -3 -1 0
v -2 -1 0
v -1 -2 0
v -2 -2 0
v -2 -1 0
v -1 -1 0
v 0 -2 0
v -1 -2 0
v -1 -1 0
v 0 -1 0
v -37 -3 0
v -38 -3 0
v -38 -2 0
v -37 -2 0
v -36 -3 0
v -37 -3 0
v -37 -2 0
v -36 -2 0
v -35 -3 0
v -36 -3 0
v -36 -2 0
v -35 -2 0
v -34 -3 0
v -35 -3 0
v -35 -2 0
v -34 -2 0
v -37 -4 0
v -38 -4 0
v -38 -3 0
v -37 -3 0
v -36 -4 0
v -37 -4 0
v -37 -3 0
v -36 -3 0
v -35 -4 0
v -36 -4 0
v -36 -3 0
v -35 -3 0
v -34 -4 0
v -35 -4 0
v -35 -3 0
v -34 -3 0
v -26 -4 0
v -27 -4 0
v -27 -3 0
v -26 -3 0
v -25 -4 0
v -26 -4 0
v -26 -3 0
v -25 -3 0
v -24 -4 0
v -25 -4 0
v -25 -3 0
v -24 -3 0
v -23 -4 0
v -24 -4 0
v -24 -3 0
v -23 -3 0
v -13 -4 0
v -14 -4 0
v -14 -3 0
v -13 -3 0
v -12 -4 0
v -13 -4 0
v -13 -3 0
v -12 -3 0
v -11 -4 0
v -12 -4 0
v -12 -3 0
v -11 -3 0
v -10 -4 0
v -11 -4 0
v -11 -3 0
v -10 -3 0
v -26 -5 0
v -27 -5 0
v -27 -4 0
v -26 -4 0
v -25 -5 0
v -26 -5 0
v -26 -4 0
v -25 -4 0
v -24 -5 0
v -25 -5 0
v -25 -4 0
v -24 -4 0
v -23 -5 0
v -24 -5 0
v -24 -4 0
v -23 -4 0
v -13 -5 0
v -14 -5 0
v -14 -4 0
v -13 -4 0
v -12 -5 0
v -13 -5 0
v -13 -4 0
v -12 -4 0
v -11 -5 0
v -12 -5 0
v -12 -4 0
v -11 -4 0
v -10 -5 0
v -11 -5 0
v -11 -4 0
v -10 -4 0
v -26 -7 0
v -27 -7 0
v -27 -6 0
v -26 -6 0
v -25 -7 0
v -26 -7 0
v -26 -6 0
v -25 -6 0
v -24 -7 0
v -25 -7 0
v -25 -6 0
v -24 -6 0
v -23 -7 0
v -24 -7 0
v -24 -6 0
v -23 -6 0
v -49 -8 0
v -50 -8 0
v -50 -7 0
v -49 -7 0
v -48 -8 0
v -49 -8 0
v -49 -7 0
v -48 -7 0
v -47 -8 0
v -48 -8 0
v -48 -7 0
v -47 -7 0
v -26 -8 0
v -27 -8 0
v -27 -7 0
v -26 -7 0
v -25 -8 0
v -26 -8 0
v -26 -7 0
v -25 -7 0
v -24 -8 0
v -25 -8 0
v -25 -7 0
v -24 -7 0
v -23 -8 0
v -24 -8 0
v -24 -7 0
v -23 -7 0
v -14 -8 0
v -15 -8 0
v -15 -7 0
v -14 -7 0
v -13 -8 0
v -14 -8 0
v -14 -7 0
v -13 -7 0
v -12 -8 0
v -13 -8 0
v -13 -7 0
v -12 -7 0
v -11 -8 0
v -12 -8 0
v -12 -7 0
v -11 -7 0
v -2 -8 0
v -3 -8 0
v -3 -7 0
v -2 -7 0
v -1 -8 0
v -2 -8 0
v -2 -7 0
v -1 -7 0
v 0 -8 0
v -1 -8 0
v -1 -7 0
v 0 -7 0
v -49 -9 0
v -50 -9 0
v -50 -8 0
v -49 -8 0
v -48 -9 0
v -49 -9 0
v -49 -8 0
v -48 -8 0
v -47 -9 0
v -48 -9 0
v -48 -8 0
v -47 -8 0
v -14 -9 0
v -15 -9 0
v -15 -8 0
v -14 -8 0
v -13 -9 0
v -14 -9 0
v -14 -8 0
v -13 -8 0
v -12 -9 0
v -13 -9 0
v -13 -8 0
v -12 -8 0
v -11 -9 0
v -12 -9 0
v -12 -8 0
v -11 -8 0
v -2 -9 0
v -3 -9 0
v -3 -8 0
v -2 -8 0
v -1 -9 0
v -2 -9 0
v -2 -8 0
v -1 -8 0
v 0 -9 0
v -1 -9 0
v -1 -8 0
v 0 -8 0
v -27 -11 0
v -28 -11 0
v -28 -10 0
v -27 -10 0
v -26 -11 0
v -27 -11 0
v -27 -10 0
v -26 -10 0
v -25 -11 0
v -26 -11 0
v -26 -10 0
v -25 -10 0
v -24 -11 0
v -25 -11 0
v -25 -10 0
v -24 -10 0
v -23 -11 0
v -24 -11 0
v -24 -10 0
v -23 -10 0
v -22 -11 0
v -23 -11 0
v -23 -10 0
v -22 -10 0
v -21 -11 0
v -22 -11 0
v -22 -10 0
v -21 -10 0
v -20 -11 0
v -21 -11 0
v -21 -10 0
v -20 -10 0
v -18 -11 0
v -19 -11 0
v -19 -10 0
v -18 -10 0
v -17 -11 0
v -18 -11 0
v -18 -10 0
v -17 -10 0
v -16 -11 0
v -17 -11 0
v -17 -10 0
v -16 -10 0
v -15 -11 0
v -16 -11 0
v -16 -10 0
v -15 -10 0
v -38 -12 0
v -39 -12 0
v -39 -11 0
v -38 -11 0
v -37 -12 0
v -38 -12 0
v -38 -11 0
v -37 -11 0
v -36 -12 0
v -37 -12 0
v -37 -11 0
v -36 -11 0
v -35 -12 0
v -36 -12 0
v -36 -11 0
v -35 -11 0
v -27 -12 0
v -28 -12 0
v -28 -11 0
v -27 -11 0
v -26 -12 0
v -27 -12 0
v -27 -11 0
v -26 -11 0
v -25 -12 0
v -26 -12 0
v -26 -11 0
v -25 -11 0
v -24 -12 0
v -25 -12 0
v -25 -11 0
v -24 -11 0
v -23 -12 0
v -24 -12 0
v -24 -11 0
v -23 -11 0
v -22 -12 0
v -23 -12 0
v -23 -11 0
v -22 -11 0
v -21 -12 0
v -22 -12 0
v -22 -11 0
v -21 -11 0
v -20 -12 0
v -21 -12 0
v -21 -11 0
v -20 -11 0
v -18 -12 0
v -19 -12 0
v -19 -11 0
v -18 -11 0
v -17 -12 0
v -18 -12 0
v -18 -11 0
v -17 -11 0
v -16 -12 0
v -17 -12 0
v -17 -11 0
v -16 -11 0
v -15 -12 0
v -16 -12 0
v -16 -11 0
v -15 -11 0
v -42 -13 0
v -43 -13 0
v -43 -12 0
v -42 -12 0
v -41 -13 0
v -42 -13 0
v -42 -12 0
v -41 -12 0
v -40 -13 0
v -41 -13 0
v -41 -12 0
v -40 -12 0
v -39 -13 0
v -40 -13 0
v -40 -12 0
v -39 -12 0
v -38 -13 0
v -39 -13 0
v -39 -12 0
v -38 -12 0
v -37 -13 0
v -38 -13 0
v -38 -12 0
v -37 -12 0
v -36 -13 0
v -37 -13 0
v -37 -12 0
v -36 -12 0
v -35 -13 0
v -36 -13 0
v -36 -12 0
v -35 -12 0
v -49 -14 0
v -50 -14 0
v -50 -13 0
v -49 -13 0
v -48 -14 0
v -49 -14 0
v -49 -13 0
v -48 -13 0
v -47 -14 0
v -48 -14 0
v -48 -13 0
v -47 -13 0
v -42 -14 0
v -43 -14 0
v -43 -13 0
v -42 -13 0
v -41 -14 0
v -42 -14 0
v -42 -13 0
v -41 -13 0
v -40 -14 0
v -41 -14 0
v -41 -13 0
v -40 -13 0
v -39 -14 0
v -40 -14 0
v -40 -13 0
v -39 -13 0
v -49 -15 0
v -50 -15 0
v -50 -14 0
v -49 -14 0
v -48 -15 0
v -49 -15 0
v -49 -14 0
v -48 -14 0
v -47 -15 0
v -48 -15 0
v -48 -14 0
v -47 -14 0
v -33 -17 0
v -34 -17 0
v -34 -16 0
v -33 -16 0
v -32 -17 0
v -33 -17 0
v -33 -16 0
v -32 -16 0
v -31 -17 0
v -32 -17 0
v -32 -16 0
v -31 -16 0
v -30 -17 0
v -31 -17 0
v -31 -16 0
v -30 -16 0
v -33 -18 0
v -34 -18 0
v -34 -17 0
v -33 -17 0
v -32 -18 0
v -33 -18 0
v -33 -17 0
v -32 -17 0
v -31 -18 0
v -32 -18 0
v -32 -17 0
v -31 -17 0
v -30 -18 0
v -31 -18 0
v -31 -17 0
v -30 -17 0
v -25 -20 0
v -26 -20 0
v -26 -19 0
v -25 -19 0
v -24 -20 0
v -25 -20 0
v -25 -19 0
v -24 -19 0
v -23 -20 0
v -24 -20 0
v -24 -19 0
v -23 -19 0
v -22 -20 0
v -23 -20 0
v -23 -19 0
v -22 -19 0
v -3 -20 0
v -4 -20 0
v -4 -19 0
v -3 -19 0
v -2 -20 0
v -3 -20 0
v -3 -19 0
v -2 -19 0
v -1 -20 0
v -2 -20 0
v -2 -19 0
v -1 -19 0
v 0 -20 0
v -1 -20 0
v -1 -19 0
v 0 -19 0
v -25 -21 0
v -26 -21 0
v -26 -20 0
v -25 -20 0
v -24 -21 0
v -25 -21 0
v -25 -20 0
v -24 -20 0
v -23 -21 0
v -24 -21 0
v -24 -20 0
v -23 -20 0
v -22 -21 0
v -23 -21 0
v -23 -20 0
v -22 -20 0
v -3 -21 0
v -4 -21 0
v -4 -20 0
v -3 -20 0
v -2 -21 0
v -3 -21 0
v -3 -20 0
v -2 -20 0
v -1 -21 0
v -2 -21 0
v -2 -20 0
v -1 -20 0
v 0 -21 0
v -1 -21 0
v -1 -20 0
v 0 -20 0
v -7 -22 0
v -8 -22 0
v -8 -21 0
v -7 -21 0
v -6 -22 0
v -7 -22 0
v -7 -21 0
v -6 -21 0
v -5 -22 0
v -6 -22 0
v -6 -21 0
v -5 -21 0
v -4 -22 0
v -5 -22 0
v -5 -21 0
v -4 -21 0
v -7 -23 0
v -8 -23 0
v -8 -22 0
v -7 -22 0
v -6 -23 0
v -7 -23 0
v -7 -22 0
v -6 -22 0
v -5 -23 0
v -6 -23 0
v -6 -22 0
v -5 -22 0
v -4 -23 0
v -5 -23 0
v -5 -22 0
v -4 -22 0

# Texture cooridinates (Count = 32)
vt 0.0625408 0.05567765
vt 0.0831029 0.05567765
vt 0.0831029 0.08321124
vt 0.0625408 0.08321124
vt 0.04173455 0.05567765
vt 0.06229666 0.05567765
vt 0.06229666 0.08321124
vt 0.04173455 0.08321124
vt 0.02092831 0.05567765
vt 0.04149041 0.05567765
vt 0.04149041 0.08321124
vt 0.02092831 0.08321124
vt 0.0001220703 0.05567765
vt 0.02068417 0.05567765
vt 0.02068417 0.08321124
vt 0.0001220703 0.08321124
vt 0.0625408 0.08345538
vt 0.0831029 0.08345538
vt 0.0831029 0.110989
vt 0.0625408 0.110989
vt 0.04173455 0.08345538
vt 0.06229666 0.08345538
vt 0.06229666 0.110989
vt 0.04173455 0.110989
vt 0.02092831 0.08345538
vt 0.04149041 0.08345538
vt 0.04149041 0.110989
vt 0.02092831 0.110989
vt 0.0001220703 0.08345538
vt 0.02068417 0.08345538
vt 0.02068417 0.110989
vt 0.0001220703 0.110989

# Normal
vn 0 0 -1

# Mesh description
g StoNinoShrine_mesh_0007

# Faces
f 1/1/1 2/2/1 3/3/1 4/4/1
f 5/5/1 6/6/1 7/7/1 8/8/1
f 9/9/1 10/10/1 11/11/1 12/12/1
f 13/13/1 14/14/1 15/15/1 16/16/1
f 17/17/1 18/18/1 19/19/1 20/20/1
f 21/21/1 22/22/1 23/23/1 24/24/1
f 25/25/1 26/26/1 27/27/1 28/28/1
f 29/29/1 30/30/1 31/31/1 32/32/1
f 33/1/1 34/2/1 35/3/1 36/4/1
f 37/5/1 38/6/1 39/7/1 40/8/1
f 41/9/1 42/10/1 43/11/1 44/12/1
f 45/13/1 46/14/1 47/15/1 48/16/1
f 49/17/1 50/18/1 51/19/1 52/20/1
f 53/21/1 54/22/1 55/23/1 56/24/1
f 57/25/1 58/26/1 59/27/1 60/28/1
f 61/29/1 62/30/1 63/31/1 64/32/1
f 65/1/1 66/2/1 67/3/1 68/4/1
f 69/5/1 70/6/1 71/7/1 72/8/1
f 73/9/1 74/10/1 75/11/1 76/12/1
f 77/13/1 78/14/1 79/15/1 80/16/1
f 81/17/1 82/18/1 83/19/1 84/20/1
f 85/21/1 86/22/1 87/23/1 88/24/1
f 89/25/1 90/26/1 91/27/1 92/28/1
f 93/29/1 94/30/1 95/31/1 96/32/1
f 97/17/1 98/18/1 99/19/1 100/20/1
f 101/21/1 102/22/1 103/23/1 104/24/1
f 105/25/1 106/26/1 107/27/1 108/28/1
f 109/29/1 110/30/1 111/31/1 112/32/1
f 113/1/1 114/2/1 115/3/1 116/4/1
f 117/5/1 118/6/1 119/7/1 120/8/1
f 121/9/1 122/10/1 123/11/1 124/12/1
f 125/13/1 126/14/1 127/15/1 128/16/1
f 129/1/1 130/2/1 131/3/1 132/4/1
f 133/5/1 134/6/1 135/7/1 136/8/1
f 137/9/1 138/10/1 139/11/1 140/12/1
f 141/13/1 142/14/1 143/15/1 144/16/1
f 145/17/1 146/18/1 147/19/1 148/20/1
f 149/21/1 150/22/1 151/23/1 152/24/1
f 153/25/1 154/26/1 155/27/1 156/28/1
f 157/29/1 158/30/1 159/31/1 160/32/1
f 161/21/1 162/22/1 163/23/1 164/24/1
f 165/25/1 166/26/1 167/27/1 168/28/1
f 169/29/1 170/30/1 171/31/1 172/32/1
f 173/1/1 174/2/1 175/3/1 176/4/1
f 177/5/1 178/6/1 179/7/1 180/8/1
f 181/9/1 182/10/1 183/11/1 184/12/1
f 185/13/1 186/14/1 187/15/1 188/16/1
f 189/17/1 190/18/1 191/19/1 192/20/1
f 193/21/1 194/22/1 195/23/1 196/24/1
f 197/25/1 198/26/1 199/27/1 200/28/1
f 201/29/1 202/30/1 203/31/1 204/32/1
f 205/17/1 206/18/1 207/19/1 208/20/1
f 209/21/1 210/22/1 211/23/1 212/24/1
f 213/25/1 214/26/1 215/27/1 216/28/1
f 217/5/1 218/6/1 219/7/1 220/8/1
f 221/9/1 222/10/1 223/11/1 224/12/1
f 225/13/1 226/14/1 227/15/1 228/16/1
f 229/1/1 230/2/1 231/3/1 232/4/1
f 233/5/1 234/6/1 235/7/1 236/8/1
f 237/9/1 238/10/1 239/11/1 240/12/1
f 241/13/1 242/14/1 243/15/1 244/16/1
f 245/1/1 246/2/1 247/3/1 248/4/1
f 249/5/1 250/6/1 251/7/1 252/8/1
f 253/9/1 254/10/1 255/11/1 256/12/1
f 257/17/1 258/18/1 259/19/1 260/20/1
f 261/21/1 262/22/1 263/23/1 264/24/1
f 265/25/1 266/26/1 267/27/1 268/28/1
f 269/29/1 270/30/1 271/31/1 272/32/1
f 273/17/1 274/18/1 275/19/1 276/20/1
f 277/21/1 278/22/1 279/23/1 280/24/1
f 281/25/1 282/26/1 283/27/1 284/28/1
f 285/29/1 286/30/1 287/31/1 288/32/1
f 289/17/1 290/18/1 291/19/1 292/20/1
f 293/21/1 294/22/1 295/23/1 296/24/1
f 297/25/1 298/26/1 299/27/1 300/28/1
f 301/29/1 302/30/1 303/31/1 304/32/1
f 305/17/1 306/18/1 307/19/1 308/20/1
f 309/21/1 310/22/1 311/23/1 312/24/1
f 313/25/1 314/26/1 315/27/1 316/28/1
f 317/29/1 318/30/1 319/31/1 320/32/1
f 321/1/1 322/2/1 323/3/1 324/4/1
f 325/5/1 326/6/1 327/7/1 328/8/1
f 329/9/1 330/10/1 331/11/1 332/12/1
f 333/13/1 334/14/1 335/15/1 336/16/1
f 337/1/1 338/2/1 339/3/1 340/4/1
f 341/5/1 342/6/1 343/7/1 344/8/1
f 345/9/1 346/10/1 347/11/1 348/12/1
f 349/13/1 350/14/1 351/15/1 352/16/1
f 353/1/1 354/2/1 355/3/1 356/4/1
f 357/5/1 358/6/1 359/7/1 360/8/1
f 361/9/1 362/10/1 363/11/1 364/12/1
f 365/13/1 366/14/1 367/15/1 368/16/1
f 369/17/1 370/18/1 371/19/1 372/20/1
f 373/21/1 374/22/1 375/23/1 376/24/1
f 377/25/1 378/26/1 379/27/1 380/28/1
f 381/29/1 382/30/1 383/31/1 384/32/1
f 385/1/1 386/2/1 387/3/1 388/4/1
f 389/5/1 390/6/1 391/7/1 392/8/1
f 393/9/1 394/10/1 395/11/1 396/12/1
f 397/13/1 398/14/1 399/15/1 400/16/1
f 401/21/1 402/22/1 403/23/1 404/24/1
f 405/25/1 406/26/1 407/27/1 408/28/1
f 409/29/1 410/30/1 411/31/1 412/32/1
f 413/1/1 414/2/1 415/3/1 416/4/1
f 417/5/1 418/6/1 419/7/1 420/8/1
f 421/9/1 422/10/1 423/11/1 424/12/1
f 425/13/1 426/14/1 427/15/1 428/16/1
f 429/5/1 430/6/1 431/7/1 432/8/1
f 433/9/1 434/10/1 435/11/1 436/12/1
f 437/13/1 438/14/1 439/15/1 440/16/1
f 441/17/1 442/18/1 443/19/1 444/20/1
f 445/21/1 446/22/1 447/23/1 448/24/1
f 449/25/1 450/26/1 451/27/1 452/28/1
f 453/29/1 454/30/1 455/31/1 456/32/1
f 457/1/1 458/2/1 459/3/1 460/4/1
f 461/5/1 462/6/1 463/7/1 464/8/1
f 465/9/1 466/10/1 467/11/1 468/12/1
f 469/13/1 470/14/1 471/15/1 472/16/1
f 473/17/1 474/18/1 475/19/1 476/20/1
f 477/21/1 478/22/1 479/23/1 480/24/1
f 481/25/1 482/26/1 483/27/1 484/28/1
f 485/29/1 486/30/1 487/31/1 488/32/1
f 489/17/1 490/18/1 491/19/1 492/20/1
f 493/21/1 494/22/1 495/23/1 496/24/1
f 497/25/1 498/26/1 499/27/1 500/28/1
f 501/29/1 502/30/1 503/31/1 504/32/1
f 505/1/1 506/2/1 507/3/1 508/4/1
f 509/5/1 510/6/1 511/7/1 512/8/1
f 513/9/1 514/10/1 515/11/1 516/12/1
f 517/13/1 518/14/1 519/15/1 520/16/1
f 521/1/1 522/2/1 523/3/1 524/4/1
f 525/5/1 526/6/1 527/7/1 528/8/1
f 529/9/1 530/10/1 531/11/1 532/12/1
f 533/13/1 534/14/1 535/15/1 536/16/1
f 537/17/1 538/18/1 539/19/1 540/20/1
f 541/21/1 542/22/1 543/23/1 544/24/1
f 545/25/1 546/26/1 547/27/1 548/28/1
f 549/29/1 550/30/1 551/31/1 552/32/1
f 553/1/1 554/2/1 555/3/1 556/4/1
f 557/5/1 558/6/1 559/7/1 560/8/1
f 561/9/1 562/10/1 563/11/1 564/12/1
f 565/13/1 566/14/1 567/15/1 568/16/1

