# Tiled2Unity generated file. Do not modify by hand.
# Wavefront file for 'StoNinoShrine_mesh_0008.obj'

# Vertices (Count = 1040)
v -52 -2 0
v -53 -2 0
v -53 -1 0
v -52 -1 0
v -51 -2 0
v -52 -2 0
v -52 -1 0
v -51 -1 0
v -50 -2 0
v -51 -2 0
v -51 -1 0
v -50 -1 0
v -49 -2 0
v -50 -2 0
v -50 -1 0
v -49 -1 0
v -52 -3 0
v -53 -3 0
v -53 -2 0
v -52 -2 0
v -51 -3 0
v -52 -3 0
v -52 -2 0
v -51 -2 0
v -50 -3 0
v -51 -3 0
v -51 -2 0
v -50 -2 0
v -49 -3 0
v -50 -3 0
v -50 -2 0
v -49 -2 0
v -52 -4 0
v -53 -4 0
v -53 -3 0
v -52 -3 0
v -51 -4 0
v -52 -4 0
v -52 -3 0
v -51 -3 0
v -50 -4 0
v -51 -4 0
v -51 -3 0
v -50 -3 0
v -49 -4 0
v -50 -4 0
v -50 -3 0
v -49 -3 0
v -63 -5 0
v -64 -5 0
v -64 -4 0
v -63 -4 0
v -62 -5 0
v -63 -5 0
v -63 -4 0
v -62 -4 0
v -61 -5 0
v -62 -5 0
v -62 -4 0
v -61 -4 0
v -60 -5 0
v -61 -5 0
v -61 -4 0
v -60 -4 0
v -11 -5 0
v -12 -5 0
v -12 -4 0
v -11 -4 0
v -10 -5 0
v -11 -5 0
v -11 -4 0
v -10 -4 0
v -9 -5 0
v -10 -5 0
v -10 -4 0
v -9 -4 0
v -8 -5 0
v -9 -5 0
v -9 -4 0
v -8 -4 0
v -64 -6 0
v -65 -6 0
v -65 -5 0
v -64 -5 0
v -63 -6 0
v -64 -6 0
v -64 -5 0
v -63 -5 0
v -62 -6 0
v -63 -6 0
v -63 -5 0
v -62 -5 0
v -61 -6 0
v -62 -6 0
v -62 -5 0
v -61 -5 0
v -60 -6 0
v -61 -6 0
v -61 -5 0
v -60 -5 0
v -11 -6 0
v -12 -6 0
v -12 -5 0
v -11 -5 0
v -10 -6 0
v -11 -6 0
v -11 -5 0
v -10 -5 0
v -9 -6 0
v -10 -6 0
v -10 -5 0
v -9 -5 0
v -8 -6 0
v -9 -6 0
v -9 -5 0
v -8 -5 0
v -64 -7 0
v -65 -7 0
v -65 -6 0
v -64 -6 0
v -63 -7 0
v -64 -7 0
v -64 -6 0
v -63 -6 0
v -62 -7 0
v -63 -7 0
v -63 -6 0
v -62 -6 0
v -61 -7 0
v -62 -7 0
v -62 -6 0
v -61 -6 0
v -60 -7 0
v -61 -7 0
v -61 -6 0
v -60 -6 0
v -53 -7 0
v -54 -7 0
v -54 -6 0
v -53 -6 0
v -11 -7 0
v -12 -7 0
v -12 -6 0
v -11 -6 0
v -10 -7 0
v -11 -7 0
v -11 -6 0
v -10 -6 0
v -9 -7 0
v -10 -7 0
v -10 -6 0
v -9 -6 0
v -8 -7 0
v -9 -7 0
v -9 -6 0
v -8 -6 0
v -65 -8 0
v -66 -8 0
v -66 -7 0
v -65 -7 0
v -64 -8 0
v -65 -8 0
v -65 -7 0
v -64 -7 0
v -63 -8 0
v -64 -8 0
v -64 -7 0
v -63 -7 0
v -53 -8 0
v -54 -8 0
v -54 -7 0
v -53 -7 0
v -52 -8 0
v -53 -8 0
v -53 -7 0
v -52 -7 0
v -51 -8 0
v -52 -8 0
v -52 -7 0
v -51 -7 0
v -65 -9 0
v -66 -9 0
v -66 -8 0
v -65 -8 0
v -64 -9 0
v -65 -9 0
v -65 -8 0
v -64 -8 0
v -63 -9 0
v -64 -9 0
v -64 -8 0
v -63 -8 0
v -62 -9 0
v -63 -9 0
v -63 -8 0
v -62 -8 0
v -61 -9 0
v -62 -9 0
v -62 -8 0
v -61 -8 0
v -53 -9 0
v -54 -9 0
v -54 -8 0
v -53 -8 0
v -52 -9 0
v -53 -9 0
v -53 -8 0
v -52 -8 0
v -25 -9 0
v -26 -9 0
v -26 -8 0
v -25 -8 0
v -24 -9 0
v -25 -9 0
v -25 -8 0
v -24 -8 0
v -23 -9 0
v -24 -9 0
v -24 -8 0
v -23 -8 0
v -22 -9 0
v -23 -9 0
v -23 -8 0
v -22 -8 0
v -64 -10 0
v -65 -10 0
v -65 -9 0
v -64 -9 0
v -63 -10 0
v -64 -10 0
v -64 -9 0
v -63 -9 0
v -62 -10 0
v -63 -10 0
v -63 -9 0
v -62 -9 0
v -61 -10 0
v -62 -10 0
v -62 -9 0
v -61 -9 0
v -53 -10 0
v -54 -10 0
v -54 -9 0
v -53 -9 0
v -52 -10 0
v -53 -10 0
v -53 -9 0
v -52 -9 0
v -25 -10 0
v -26 -10 0
v -26 -9 0
v -25 -9 0
v -24 -10 0
v -25 -10 0
v -25 -9 0
v -24 -9 0
v -23 -10 0
v -24 -10 0
v -24 -9 0
v -23 -9 0
v -22 -10 0
v -23 -10 0
v -23 -9 0
v -22 -9 0
v -63 -11 0
v -64 -11 0
v -64 -10 0
v -63 -10 0
v -62 -11 0
v -63 -11 0
v -63 -10 0
v -62 -10 0
v -61 -11 0
v -62 -11 0
v -62 -10 0
v -61 -10 0
v -42 -11 0
v -43 -11 0
v -43 -10 0
v -42 -10 0
v -41 -11 0
v -42 -11 0
v -42 -10 0
v -41 -10 0
v -40 -11 0
v -41 -11 0
v -41 -10 0
v -40 -10 0
v -39 -11 0
v -40 -11 0
v -40 -10 0
v -39 -10 0
v -25 -11 0
v -26 -11 0
v -26 -10 0
v -25 -10 0
v -24 -11 0
v -25 -11 0
v -25 -10 0
v -24 -10 0
v -23 -11 0
v -24 -11 0
v -24 -10 0
v -23 -10 0
v -22 -11 0
v -23 -11 0
v -23 -10 0
v -22 -10 0
v -42 -12 0
v -43 -12 0
v -43 -11 0
v -42 -11 0
v -41 -12 0
v -42 -12 0
v -42 -11 0
v -41 -11 0
v -40 -12 0
v -41 -12 0
v -41 -11 0
v -40 -11 0
v -39 -12 0
v -40 -12 0
v -40 -11 0
v -39 -11 0
v -62 -13 0
v -63 -13 0
v -63 -12 0
v -62 -12 0
v -61 -13 0
v -62 -13 0
v -62 -12 0
v -61 -12 0
v -42 -13 0
v -43 -13 0
v -43 -12 0
v -42 -12 0
v -41 -13 0
v -42 -13 0
v -42 -12 0
v -41 -12 0
v -40 -13 0
v -41 -13 0
v -41 -12 0
v -40 -12 0
v -39 -13 0
v -40 -13 0
v -40 -12 0
v -39 -12 0
v -31 -13 0
v -32 -13 0
v -32 -12 0
v -31 -12 0
v -30 -13 0
v -31 -13 0
v -31 -12 0
v -30 -12 0
v -19 -13 0
v -20 -13 0
v -20 -12 0
v -19 -12 0
v -18 -13 0
v -19 -13 0
v -19 -12 0
v -18 -12 0
v -17 -13 0
v -18 -13 0
v -18 -12 0
v -17 -12 0
v -16 -13 0
v -17 -13 0
v -17 -12 0
v -16 -12 0
v -19 -14 0
v -20 -14 0
v -20 -13 0
v -19 -13 0
v -18 -14 0
v -19 -14 0
v -19 -13 0
v -18 -13 0
v -17 -14 0
v -18 -14 0
v -18 -13 0
v -17 -13 0
v -16 -14 0
v -17 -14 0
v -17 -13 0
v -16 -13 0
v -6 -14 0
v -7 -14 0
v -7 -13 0
v -6 -13 0
v -5 -14 0
v -6 -14 0
v -6 -13 0
v -5 -13 0
v -4 -14 0
v -5 -14 0
v -5 -13 0
v -4 -13 0
v -3 -14 0
v -4 -14 0
v -4 -13 0
v -3 -13 0
v -19 -15 0
v -20 -15 0
v -20 -14 0
v -19 -14 0
v -18 -15 0
v -19 -15 0
v -19 -14 0
v -18 -14 0
v -17 -15 0
v -18 -15 0
v -18 -14 0
v -17 -14 0
v -16 -15 0
v -17 -15 0
v -17 -14 0
v -16 -14 0
v -15 -15 0
v -16 -15 0
v -16 -14 0
v -15 -14 0
v -14 -15 0
v -15 -15 0
v -15 -14 0
v -14 -14 0
v -13 -15 0
v -14 -15 0
v -14 -14 0
v -13 -14 0
v -12 -15 0
v -13 -15 0
v -13 -14 0
v -12 -14 0
v -15 -16 0
v -16 -16 0
v -16 -15 0
v -15 -15 0
v -14 -16 0
v -15 -16 0
v -15 -15 0
v -14 -15 0
v -13 -16 0
v -14 -16 0
v -14 -15 0
v -13 -15 0
v -12 -16 0
v -13 -16 0
v -13 -15 0
v -12 -15 0
v -47 -17 0
v -48 -17 0
v -48 -16 0
v -47 -16 0
v -46 -17 0
v -47 -17 0
v -47 -16 0
v -46 -16 0
v -15 -17 0
v -16 -17 0
v -16 -16 0
v -15 -16 0
v -14 -17 0
v -15 -17 0
v -15 -16 0
v -14 -16 0
v -13 -17 0
v -14 -17 0
v -14 -16 0
v -13 -16 0
v -12 -17 0
v -13 -17 0
v -13 -16 0
v -12 -16 0
v -41 -19 0
v -42 -19 0
v -42 -18 0
v -41 -18 0
v -40 -19 0
v -41 -19 0
v -41 -18 0
v -40 -18 0
v -36 -20 0
v -37 -20 0
v -37 -19 0
v -36 -19 0
v -35 -20 0
v -36 -20 0
v -36 -19 0
v -35 -19 0
v -34 -20 0
v -35 -20 0
v -35 -19 0
v -34 -19 0
v -33 -20 0
v -34 -20 0
v -34 -19 0
v -33 -19 0
v -24 -21 0
v -25 -21 0
v -25 -20 0
v -24 -20 0
v -23 -21 0
v -24 -21 0
v -24 -20 0
v -23 -20 0
v -22 -21 0
v -23 -21 0
v -23 -20 0
v -22 -20 0
v -21 -21 0
v -22 -21 0
v -22 -20 0
v -21 -20 0
v -5 -25 0
v -6 -25 0
v -6 -24 0
v -5 -24 0
v -4 -25 0
v -5 -25 0
v -5 -24 0
v -4 -24 0
v -3 -25 0
v -4 -25 0
v -4 -24 0
v -3 -24 0
v -2 -25 0
v -3 -25 0
v -3 -24 0
v -2 -24 0
v -5 -26 0
v -6 -26 0
v -6 -25 0
v -5 -25 0
v -4 -26 0
v -5 -26 0
v -5 -25 0
v -4 -25 0
v -3 -26 0
v -4 -26 0
v -4 -25 0
v -3 -25 0
v -2 -26 0
v -3 -26 0
v -3 -25 0
v -2 -25 0
v -5 -27 0
v -6 -27 0
v -6 -26 0
v -5 -26 0
v -4 -27 0
v -5 -27 0
v -5 -26 0
v -4 -26 0
v -3 -27 0
v -4 -27 0
v -4 -26 0
v -3 -26 0
v -2 -27 0
v -3 -27 0
v -3 -26 0
v -2 -26 0
v -50 -28 0
v -51 -28 0
v -51 -27 0
v -50 -27 0
v -49 -28 0
v -50 -28 0
v -50 -27 0
v -49 -27 0
v -48 -28 0
v -49 -28 0
v -49 -27 0
v -48 -27 0
v -47 -28 0
v -48 -28 0
v -48 -27 0
v -47 -27 0
v -50 -29 0
v -51 -29 0
v -51 -28 0
v -50 -28 0
v -49 -29 0
v -50 -29 0
v -50 -28 0
v -49 -28 0
v -48 -29 0
v -49 -29 0
v -49 -28 0
v -48 -28 0
v -47 -29 0
v -48 -29 0
v -48 -28 0
v -47 -28 0
v -50 -30 0
v -51 -30 0
v -51 -29 0
v -50 -29 0
v -49 -30 0
v -50 -30 0
v -50 -29 0
v -49 -29 0
v -48 -30 0
v -49 -30 0
v -49 -29 0
v -48 -29 0
v -47 -30 0
v -48 -30 0
v -48 -29 0
v -47 -29 0
v -63 -33 0
v -64 -33 0
v -64 -32 0
v -63 -32 0
v -62 -33 0
v -63 -33 0
v -63 -32 0
v -62 -32 0
v -61 -33 0
v -62 -33 0
v -62 -32 0
v -61 -32 0
v -60 -33 0
v -61 -33 0
v -61 -32 0
v -60 -32 0
v -63 -34 0
v -64 -34 0
v -64 -33 0
v -63 -33 0
v -62 -34 0
v -63 -34 0
v -63 -33 0
v -62 -33 0
v -61 -34 0
v -62 -34 0
v -62 -33 0
v -61 -33 0
v -60 -34 0
v -61 -34 0
v -61 -33 0
v -60 -33 0
v -36 -34 0
v -37 -34 0
v -37 -33 0
v -36 -33 0
v -35 -34 0
v -36 -34 0
v -36 -33 0
v -35 -33 0
v -34 -34 0
v -35 -34 0
v -35 -33 0
v -34 -33 0
v -33 -34 0
v -34 -34 0
v -34 -33 0
v -33 -33 0
v -63 -35 0
v -64 -35 0
v -64 -34 0
v -63 -34 0
v -62 -35 0
v -63 -35 0
v -63 -34 0
v -62 -34 0
v -61 -35 0
v -62 -35 0
v -62 -34 0
v -61 -34 0
v -60 -35 0
v -61 -35 0
v -61 -34 0
v -60 -34 0
v -36 -35 0
v -37 -35 0
v -37 -34 0
v -36 -34 0
v -35 -35 0
v -36 -35 0
v -36 -34 0
v -35 -34 0
v -34 -35 0
v -35 -35 0
v -35 -34 0
v -34 -34 0
v -33 -35 0
v -34 -35 0
v -34 -34 0
v -33 -34 0
v -36 -36 0
v -37 -36 0
v -37 -35 0
v -36 -35 0
v -35 -36 0
v -36 -36 0
v -36 -35 0
v -35 -35 0
v -34 -36 0
v -35 -36 0
v -35 -35 0
v -34 -35 0
v -33 -36 0
v -34 -36 0
v -34 -35 0
v -33 -35 0
v -5 -38 0
v -6 -38 0
v -6 -37 0
v -5 -37 0
v -4 -38 0
v -5 -38 0
v -5 -37 0
v -4 -37 0
v -3 -38 0
v -4 -38 0
v -4 -37 0
v -3 -37 0
v -2 -38 0
v -3 -38 0
v -3 -37 0
v -2 -37 0
v -5 -39 0
v -6 -39 0
v -6 -38 0
v -5 -38 0
v -4 -39 0
v -5 -39 0
v -5 -38 0
v -4 -38 0
v -3 -39 0
v -4 -39 0
v -4 -38 0
v -3 -38 0
v -2 -39 0
v -3 -39 0
v -3 -38 0
v -2 -38 0
v -5 -40 0
v -6 -40 0
v -6 -39 0
v -5 -39 0
v -4 -40 0
v -5 -40 0
v -5 -39 0
v -4 -39 0
v -3 -40 0
v -4 -40 0
v -4 -39 0
v -3 -39 0
v -2 -40 0
v -3 -40 0
v -3 -39 0
v -2 -39 0
v -40 -41 0
v -41 -41 0
v -41 -40 0
v -40 -40 0
v -39 -41 0
v -40 -41 0
v -40 -40 0
v -39 -40 0
v -38 -41 0
v -39 -41 0
v -39 -40 0
v -38 -40 0
v -37 -41 0
v -38 -41 0
v -38 -40 0
v -37 -40 0
v -40 -42 0
v -41 -42 0
v -41 -41 0
v -40 -41 0
v -39 -42 0
v -40 -42 0
v -40 -41 0
v -39 -41 0
v -38 -42 0
v -39 -42 0
v -39 -41 0
v -38 -41 0
v -37 -42 0
v -38 -42 0
v -38 -41 0
v -37 -41 0
v -54 -43 0
v -55 -43 0
v -55 -42 0
v -54 -42 0
v -53 -43 0
v -54 -43 0
v -54 -42 0
v -53 -42 0
v -52 -43 0
v -53 -43 0
v -53 -42 0
v -52 -42 0
v -51 -43 0
v -52 -43 0
v -52 -42 0
v -51 -42 0
v -40 -43 0
v -41 -43 0
v -41 -42 0
v -40 -42 0
v -39 -43 0
v -40 -43 0
v -40 -42 0
v -39 -42 0
v -38 -43 0
v -39 -43 0
v -39 -42 0
v -38 -42 0
v -37 -43 0
v -38 -43 0
v -38 -42 0
v -37 -42 0
v -57 -44 0
v -58 -44 0
v -58 -43 0
v -57 -43 0
v -56 -44 0
v -57 -44 0
v -57 -43 0
v -56 -43 0
v -54 -44 0
v -55 -44 0
v -55 -43 0
v -54 -43 0
v -53 -44 0
v -54 -44 0
v -54 -43 0
v -53 -43 0
v -52 -44 0
v -53 -44 0
v -53 -43 0
v -52 -43 0
v -51 -44 0
v -52 -44 0
v -52 -43 0
v -51 -43 0
v -54 -45 0
v -55 -45 0
v -55 -44 0
v -54 -44 0
v -53 -45 0
v -54 -45 0
v -54 -44 0
v -53 -44 0
v -52 -45 0
v -53 -45 0
v -53 -44 0
v -52 -44 0
v -51 -45 0
v -52 -45 0
v -52 -44 0
v -51 -44 0
v -26 -45 0
v -27 -45 0
v -27 -44 0
v -26 -44 0
v -25 -45 0
v -26 -45 0
v -26 -44 0
v -25 -44 0
v -24 -45 0
v -25 -45 0
v -25 -44 0
v -24 -44 0
v -23 -45 0
v -24 -45 0
v -24 -44 0
v -23 -44 0
v -12 -45 0
v -13 -45 0
v -13 -44 0
v -12 -44 0
v -11 -45 0
v -12 -45 0
v -12 -44 0
v -11 -44 0
v -10 -45 0
v -11 -45 0
v -11 -44 0
v -10 -44 0
v -9 -45 0
v -10 -45 0
v -10 -44 0
v -9 -44 0
v -65 -46 0
v -66 -46 0
v -66 -45 0
v -65 -45 0
v -64 -46 0
v -65 -46 0
v -65 -45 0
v -64 -45 0
v -63 -46 0
v -64 -46 0
v -64 -45 0
v -63 -45 0
v -62 -46 0
v -63 -46 0
v -63 -45 0
v -62 -45 0
v -61 -46 0
v -62 -46 0
v -62 -45 0
v -61 -45 0
v -60 -46 0
v -61 -46 0
v -61 -45 0
v -60 -45 0
v -59 -46 0
v -60 -46 0
v -60 -45 0
v -59 -45 0
v -58 -46 0
v -59 -46 0
v -59 -45 0
v -58 -45 0
v -57 -46 0
v -58 -46 0
v -58 -45 0
v -57 -45 0
v -56 -46 0
v -57 -46 0
v -57 -45 0
v -56 -45 0
v -55 -46 0
v -56 -46 0
v -56 -45 0
v -55 -45 0
v -33 -46 0
v -34 -46 0
v -34 -45 0
v -33 -45 0
v -32 -46 0
v -33 -46 0
v -33 -45 0
v -32 -45 0
v -26 -46 0
v -27 -46 0
v -27 -45 0
v -26 -45 0
v -25 -46 0
v -26 -46 0
v -26 -45 0
v -25 -45 0
v -24 -46 0
v -25 -46 0
v -25 -45 0
v -24 -45 0
v -23 -46 0
v -24 -46 0
v -24 -45 0
v -23 -45 0
v -12 -46 0
v -13 -46 0
v -13 -45 0
v -12 -45 0
v -11 -46 0
v -12 -46 0
v -12 -45 0
v -11 -45 0
v -10 -46 0
v -11 -46 0
v -11 -45 0
v -10 -45 0
v -9 -46 0
v -10 -46 0
v -10 -45 0
v -9 -45 0
v -35 -47 0
v -36 -47 0
v -36 -46 0
v -35 -46 0
v -34 -47 0
v -35 -47 0
v -35 -46 0
v -34 -46 0
v -26 -47 0
v -27 -47 0
v -27 -46 0
v -26 -46 0
v -25 -47 0
v -26 -47 0
v -26 -46 0
v -25 -46 0
v -24 -47 0
v -25 -47 0
v -25 -46 0
v -24 -46 0
v -23 -47 0
v -24 -47 0
v -24 -46 0
v -23 -46 0
v -12 -47 0
v -13 -47 0
v -13 -46 0
v -12 -46 0
v -11 -47 0
v -12 -47 0
v -12 -46 0
v -11 -46 0
v -10 -47 0
v -11 -47 0
v -11 -46 0
v -10 -46 0
v -9 -47 0
v -10 -47 0
v -10 -46 0
v -9 -46 0
v -67 -48 0
v -68 -48 0
v -68 -47 0
v -67 -47 0
v -66 -48 0
v -67 -48 0
v -67 -47 0
v -66 -47 0
v -32 -48 0
v -33 -48 0
v -33 -47 0
v -32 -47 0
v -31 -48 0
v -32 -48 0
v -32 -47 0
v -31 -47 0
v -67 -49 0
v -68 -49 0
v -68 -48 0
v -67 -48 0
v -66 -49 0
v -67 -49 0
v -67 -48 0
v -66 -48 0

# Texture cooridinates (Count = 108)
vt 0.0625408 0.08345538
vt 0.0831029 0.08345538
vt 0.0831029 0.110989
vt 0.0625408 0.110989
vt 0.04173455 0.08345538
vt 0.06229666 0.08345538
vt 0.06229666 0.110989
vt 0.04173455 0.110989
vt 0.02092831 0.08345538
vt 0.04149041 0.08345538
vt 0.04149041 0.110989
vt 0.02092831 0.110989
vt 0.0001220703 0.08345538
vt 0.02068417 0.08345538
vt 0.02068417 0.110989
vt 0.0001220703 0.110989
vt 0.0625408 0.05567765
vt 0.0831029 0.05567765
vt 0.0831029 0.08321124
vt 0.0625408 0.08321124
vt 0.04173455 0.05567765
vt 0.06229666 0.05567765
vt 0.06229666 0.08321124
vt 0.04173455 0.08321124
vt 0.02092831 0.05567765
vt 0.04149041 0.05567765
vt 0.04149041 0.08321124
vt 0.02092831 0.08321124
vt 0.0001220703 0.05567765
vt 0.02068417 0.05567765
vt 0.02068417 0.08321124
vt 0.0001220703 0.08321124
vt 0.0625408 0.02789986
vt 0.0831029 0.02789986
vt 0.0831029 0.05543351
vt 0.0625408 0.05543351
vt 0.04173455 0.02789986
vt 0.06229666 0.02789986
vt 0.06229666 0.05543351
vt 0.04173455 0.05543351
vt 0.02092831 0.02789986
vt 0.04149041 0.02789986
vt 0.04149041 0.05543351
vt 0.02092831 0.05543351
vt 0.0001220703 0.02789986
vt 0.02068417 0.02789986
vt 0.02068417 0.05543351
vt 0.0001220703 0.05543351
vt 0.0625408 0.639011
vt 0.0831029 0.639011
vt 0.0831029 0.6665446
vt 0.0625408 0.6665446
vt 0.02092831 0.7501221
vt 0.04149041 0.7501221
vt 0.04149041 0.7776557
vt 0.02092831 0.7776557
vt 0.0625408 0.6667887
vt 0.0831029 0.6667887
vt 0.0831029 0.6943223
vt 0.0625408 0.6943223
vt 0.0001220703 0.7501221
vt 0.02068417 0.7501221
vt 0.02068417 0.7776557
vt 0.0001220703 0.7776557
vt 0.1249595 0.5278999
vt 0.1455216 0.5278999
vt 0.1455216 0.5554335
vt 0.1249595 0.5554335
vt 0.1041533 0.5278999
vt 0.1247154 0.5278999
vt 0.1247154 0.5554335
vt 0.1041533 0.5554335
vt 0.3538282 0.1667888
vt 0.3743903 0.1667888
vt 0.3743903 0.1943223
vt 0.3538282 0.1943223
vt 0.3330219 0.1667888
vt 0.3535841 0.1667888
vt 0.3535841 0.1943223
vt 0.3330219 0.1943223
vt 0.3122157 0.1667888
vt 0.3327778 0.1667888
vt 0.3327778 0.1943223
vt 0.3122157 0.1943223
vt 0.2914095 0.1667888
vt 0.3119715 0.1667888
vt 0.3119715 0.1943223
vt 0.2914095 0.1943223
vt 0.1249595 0.08345538
vt 0.1455216 0.08345538
vt 0.1455216 0.110989
vt 0.1249595 0.110989
vt 0.1041533 0.08345538
vt 0.1247154 0.08345538
vt 0.1247154 0.110989
vt 0.1041533 0.110989
vt 0.08334704 0.08345538
vt 0.1039091 0.08345538
vt 0.1039091 0.110989
vt 0.08334704 0.110989
vt 0.1249595 0.5001221
vt 0.1455216 0.5001221
vt 0.1455216 0.5276557
vt 0.1249595 0.5276557
vt 0.1041533 0.5001221
vt 0.1247154 0.5001221
vt 0.1247154 0.5276557
vt 0.1041533 0.5276557

# Normal
vn 0 0 -1

# Mesh description
g StoNinoShrine_mesh_0008

# Faces
f 1/1/1 2/2/1 3/3/1 4/4/1
f 5/5/1 6/6/1 7/7/1 8/8/1
f 9/9/1 10/10/1 11/11/1 12/12/1
f 13/13/1 14/14/1 15/15/1 16/16/1
f 17/17/1 18/18/1 19/19/1 20/20/1
f 21/21/1 22/22/1 23/23/1 24/24/1
f 25/25/1 26/26/1 27/27/1 28/28/1
f 29/29/1 30/30/1 31/31/1 32/32/1
f 33/33/1 34/34/1 35/35/1 36/36/1
f 37/37/1 38/38/1 39/39/1 40/40/1
f 41/41/1 42/42/1 43/43/1 44/44/1
f 45/45/1 46/46/1 47/47/1 48/48/1
f 49/1/1 50/2/1 51/3/1 52/4/1
f 53/5/1 54/6/1 55/7/1 56/8/1
f 57/9/1 58/10/1 59/11/1 60/12/1
f 61/13/1 62/14/1 63/15/1 64/16/1
f 65/1/1 66/2/1 67/3/1 68/4/1
f 69/5/1 70/6/1 71/7/1 72/8/1
f 73/9/1 74/10/1 75/11/1 76/12/1
f 77/13/1 78/14/1 79/15/1 80/16/1
f 81/49/1 82/50/1 83/51/1 84/52/1
f 85/17/1 86/18/1 87/19/1 88/20/1
f 89/21/1 90/22/1 91/23/1 92/24/1
f 93/25/1 94/26/1 95/27/1 96/28/1
f 97/29/1 98/30/1 99/31/1 100/32/1
f 101/17/1 102/18/1 103/19/1 104/20/1
f 105/21/1 106/22/1 107/23/1 108/24/1
f 109/25/1 110/26/1 111/27/1 112/28/1
f 113/29/1 114/30/1 115/31/1 116/32/1
f 117/49/1 118/50/1 119/51/1 120/52/1
f 121/33/1 122/34/1 123/35/1 124/36/1
f 125/37/1 126/38/1 127/39/1 128/40/1
f 129/41/1 130/42/1 131/43/1 132/44/1
f 133/45/1 134/46/1 135/47/1 136/48/1
f 137/49/1 138/50/1 139/51/1 140/52/1
f 141/33/1 142/34/1 143/35/1 144/36/1
f 145/37/1 146/38/1 147/39/1 148/40/1
f 149/41/1 150/42/1 151/43/1 152/44/1
f 153/45/1 154/46/1 155/47/1 156/48/1
f 157/49/1 158/50/1 159/51/1 160/52/1
f 161/53/1 162/54/1 163/55/1 164/56/1
f 165/57/1 166/58/1 167/59/1 168/60/1
f 169/49/1 170/50/1 171/51/1 172/52/1
f 173/49/1 174/50/1 175/51/1 176/52/1
f 177/49/1 178/50/1 179/51/1 180/52/1
f 181/49/1 182/50/1 183/51/1 184/52/1
f 185/49/1 186/50/1 187/51/1 188/52/1
f 189/49/1 190/50/1 191/51/1 192/52/1
f 193/53/1 194/54/1 195/55/1 196/56/1
f 197/53/1 198/54/1 199/55/1 200/56/1
f 201/61/1 202/62/1 203/63/1 204/64/1
f 205/57/1 206/58/1 207/59/1 208/60/1
f 209/1/1 210/2/1 211/3/1 212/4/1
f 213/5/1 214/6/1 215/7/1 216/8/1
f 217/9/1 218/10/1 219/11/1 220/12/1
f 221/13/1 222/14/1 223/15/1 224/16/1
f 225/53/1 226/54/1 227/55/1 228/56/1
f 229/61/1 230/62/1 231/63/1 232/64/1
f 233/49/1 234/50/1 235/51/1 236/52/1
f 237/53/1 238/54/1 239/55/1 240/56/1
f 241/49/1 242/50/1 243/51/1 244/52/1
f 245/49/1 246/50/1 247/51/1 248/52/1
f 249/17/1 250/18/1 251/19/1 252/20/1
f 253/21/1 254/22/1 255/23/1 256/24/1
f 257/25/1 258/26/1 259/27/1 260/28/1
f 261/29/1 262/30/1 263/31/1 264/32/1
f 265/61/1 266/62/1 267/63/1 268/64/1
f 269/49/1 270/50/1 271/51/1 272/52/1
f 273/57/1 274/58/1 275/59/1 276/60/1
f 277/1/1 278/2/1 279/3/1 280/4/1
f 281/5/1 282/6/1 283/7/1 284/8/1
f 285/9/1 286/10/1 287/11/1 288/12/1
f 289/13/1 290/14/1 291/15/1 292/16/1
f 293/33/1 294/34/1 295/35/1 296/36/1
f 297/37/1 298/38/1 299/39/1 300/40/1
f 301/41/1 302/42/1 303/43/1 304/44/1
f 305/45/1 306/46/1 307/47/1 308/48/1
f 309/17/1 310/18/1 311/19/1 312/20/1
f 313/21/1 314/22/1 315/23/1 316/24/1
f 317/25/1 318/26/1 319/27/1 320/28/1
f 321/29/1 322/30/1 323/31/1 324/32/1
f 325/65/1 326/66/1 327/67/1 328/68/1
f 329/69/1 330/70/1 331/71/1 332/72/1
f 333/33/1 334/34/1 335/35/1 336/36/1
f 337/37/1 338/38/1 339/39/1 340/40/1
f 341/41/1 342/42/1 343/43/1 344/44/1
f 345/45/1 346/46/1 347/47/1 348/48/1
f 349/65/1 350/66/1 351/67/1 352/68/1
f 353/69/1 354/70/1 355/71/1 356/72/1
f 357/1/1 358/2/1 359/3/1 360/4/1
f 361/5/1 362/6/1 363/7/1 364/8/1
f 365/9/1 366/10/1 367/11/1 368/12/1
f 369/13/1 370/14/1 371/15/1 372/16/1
f 373/17/1 374/18/1 375/19/1 376/20/1
f 377/21/1 378/22/1 379/23/1 380/24/1
f 381/25/1 382/26/1 383/27/1 384/28/1
f 385/29/1 386/30/1 387/31/1 388/32/1
f 389/73/1 390/74/1 391/75/1 392/76/1
f 393/77/1 394/78/1 395/79/1 396/80/1
f 397/81/1 398/82/1 399/83/1 400/84/1
f 401/85/1 402/86/1 403/87/1 404/88/1
f 405/33/1 406/34/1 407/35/1 408/36/1
f 409/37/1 410/38/1 411/39/1 412/40/1
f 413/41/1 414/42/1 415/43/1 416/44/1
f 417/45/1 418/46/1 419/47/1 420/48/1
f 421/1/1 422/2/1 423/3/1 424/4/1
f 425/5/1 426/6/1 427/7/1 428/8/1
f 429/9/1 430/10/1 431/11/1 432/12/1
f 433/13/1 434/14/1 435/15/1 436/16/1
f 437/17/1 438/18/1 439/19/1 440/20/1
f 441/21/1 442/22/1 443/23/1 444/24/1
f 445/25/1 446/26/1 447/27/1 448/28/1
f 449/29/1 450/30/1 451/31/1 452/32/1
f 453/65/1 454/66/1 455/67/1 456/68/1
f 457/69/1 458/70/1 459/71/1 460/72/1
f 461/33/1 462/34/1 463/35/1 464/36/1
f 465/37/1 466/38/1 467/39/1 468/40/1
f 469/41/1 470/42/1 471/43/1 472/44/1
f 473/45/1 474/46/1 475/47/1 476/48/1
f 477/65/1 478/66/1 479/67/1 480/68/1
f 481/69/1 482/70/1 483/71/1 484/72/1
f 485/73/1 486/74/1 487/75/1 488/76/1
f 489/77/1 490/78/1 491/79/1 492/80/1
f 493/81/1 494/82/1 495/83/1 496/84/1
f 497/85/1 498/86/1 499/87/1 500/88/1
f 501/73/1 502/74/1 503/75/1 504/76/1
f 505/77/1 506/78/1 507/79/1 508/80/1
f 509/81/1 510/82/1 511/83/1 512/84/1
f 513/85/1 514/86/1 515/87/1 516/88/1
f 517/1/1 518/2/1 519/3/1 520/4/1
f 521/5/1 522/6/1 523/7/1 524/8/1
f 525/9/1 526/10/1 527/11/1 528/12/1
f 529/13/1 530/14/1 531/15/1 532/16/1
f 533/17/1 534/18/1 535/19/1 536/20/1
f 537/21/1 538/22/1 539/23/1 540/24/1
f 541/25/1 542/26/1 543/27/1 544/28/1
f 545/29/1 546/30/1 547/31/1 548/32/1
f 549/33/1 550/34/1 551/35/1 552/36/1
f 553/37/1 554/38/1 555/39/1 556/40/1
f 557/41/1 558/42/1 559/43/1 560/44/1
f 561/45/1 562/46/1 563/47/1 564/48/1
f 565/1/1 566/2/1 567/3/1 568/4/1
f 569/5/1 570/6/1 571/7/1 572/8/1
f 573/9/1 574/10/1 575/11/1 576/12/1
f 577/13/1 578/14/1 579/15/1 580/16/1
f 581/17/1 582/18/1 583/19/1 584/20/1
f 585/21/1 586/22/1 587/23/1 588/24/1
f 589/25/1 590/26/1 591/27/1 592/28/1
f 593/29/1 594/30/1 595/31/1 596/32/1
f 597/33/1 598/34/1 599/35/1 600/36/1
f 601/37/1 602/38/1 603/39/1 604/40/1
f 605/41/1 606/42/1 607/43/1 608/44/1
f 609/45/1 610/46/1 611/47/1 612/48/1
f 613/1/1 614/2/1 615/3/1 616/4/1
f 617/5/1 618/6/1 619/7/1 620/8/1
f 621/9/1 622/10/1 623/11/1 624/12/1
f 625/13/1 626/14/1 627/15/1 628/16/1
f 629/17/1 630/18/1 631/19/1 632/20/1
f 633/21/1 634/22/1 635/23/1 636/24/1
f 637/25/1 638/26/1 639/27/1 640/28/1
f 641/29/1 642/30/1 643/31/1 644/32/1
f 645/1/1 646/2/1 647/3/1 648/4/1
f 649/5/1 650/6/1 651/7/1 652/8/1
f 653/9/1 654/10/1 655/11/1 656/12/1
f 657/13/1 658/14/1 659/15/1 660/16/1
f 661/33/1 662/34/1 663/35/1 664/36/1
f 665/37/1 666/38/1 667/39/1 668/40/1
f 669/41/1 670/42/1 671/43/1 672/44/1
f 673/45/1 674/46/1 675/47/1 676/48/1
f 677/17/1 678/18/1 679/19/1 680/20/1
f 681/21/1 682/22/1 683/23/1 684/24/1
f 685/25/1 686/26/1 687/27/1 688/28/1
f 689/29/1 690/30/1 691/31/1 692/32/1
f 693/33/1 694/34/1 695/35/1 696/36/1
f 697/37/1 698/38/1 699/39/1 700/40/1
f 701/41/1 702/42/1 703/43/1 704/44/1
f 705/45/1 706/46/1 707/47/1 708/48/1
f 709/1/1 710/2/1 711/3/1 712/4/1
f 713/5/1 714/6/1 715/7/1 716/8/1
f 717/9/1 718/10/1 719/11/1 720/12/1
f 721/13/1 722/14/1 723/15/1 724/16/1
f 725/17/1 726/18/1 727/19/1 728/20/1
f 729/21/1 730/22/1 731/23/1 732/24/1
f 733/25/1 734/26/1 735/27/1 736/28/1
f 737/29/1 738/30/1 739/31/1 740/32/1
f 741/33/1 742/34/1 743/35/1 744/36/1
f 745/37/1 746/38/1 747/39/1 748/40/1
f 749/41/1 750/42/1 751/43/1 752/44/1
f 753/45/1 754/46/1 755/47/1 756/48/1
f 757/1/1 758/2/1 759/3/1 760/4/1
f 761/5/1 762/6/1 763/7/1 764/8/1
f 765/9/1 766/10/1 767/11/1 768/12/1
f 769/13/1 770/14/1 771/15/1 772/16/1
f 773/17/1 774/18/1 775/19/1 776/20/1
f 777/21/1 778/22/1 779/23/1 780/24/1
f 781/25/1 782/26/1 783/27/1 784/28/1
f 785/29/1 786/30/1 787/31/1 788/32/1
f 789/1/1 790/2/1 791/3/1 792/4/1
f 793/5/1 794/6/1 795/7/1 796/8/1
f 797/9/1 798/10/1 799/11/1 800/12/1
f 801/13/1 802/14/1 803/15/1 804/16/1
f 805/33/1 806/34/1 807/35/1 808/36/1
f 809/37/1 810/38/1 811/39/1 812/40/1
f 813/41/1 814/42/1 815/43/1 816/44/1
f 817/45/1 818/46/1 819/47/1 820/48/1
f 821/65/1 822/66/1 823/67/1 824/68/1
f 825/69/1 826/70/1 827/71/1 828/72/1
f 829/17/1 830/18/1 831/19/1 832/20/1
f 833/21/1 834/22/1 835/23/1 836/24/1
f 837/25/1 838/26/1 839/27/1 840/28/1
f 841/29/1 842/30/1 843/31/1 844/32/1
f 845/33/1 846/34/1 847/35/1 848/36/1
f 849/37/1 850/38/1 851/39/1 852/40/1
f 853/41/1 854/42/1 855/43/1 856/44/1
f 857/45/1 858/46/1 859/47/1 860/48/1
f 861/1/1 862/2/1 863/3/1 864/4/1
f 865/5/1 866/6/1 867/7/1 868/8/1
f 869/9/1 870/10/1 871/11/1 872/12/1
f 873/13/1 874/14/1 875/15/1 876/16/1
f 877/1/1 878/2/1 879/3/1 880/4/1
f 881/5/1 882/6/1 883/7/1 884/8/1
f 885/9/1 886/10/1 887/11/1 888/12/1
f 889/13/1 890/14/1 891/15/1 892/16/1
f 893/89/1 894/90/1 895/91/1 896/92/1
f 897/93/1 898/94/1 899/95/1 900/96/1
f 901/93/1 902/94/1 903/95/1 904/96/1
f 905/93/1 906/94/1 907/95/1 908/96/1
f 909/93/1 910/94/1 911/95/1 912/96/1
f 913/93/1 914/94/1 915/95/1 916/96/1
f 917/93/1 918/94/1 919/95/1 920/96/1
f 921/93/1 922/94/1 923/95/1 924/96/1
f 925/93/1 926/94/1 927/95/1 928/96/1
f 929/93/1 930/94/1 931/95/1 932/96/1
f 933/97/1 934/98/1 935/99/1 936/100/1
f 937/65/1 938/66/1 939/67/1 940/68/1
f 941/69/1 942/70/1 943/71/1 944/72/1
f 945/17/1 946/18/1 947/19/1 948/20/1
f 949/21/1 950/22/1 951/23/1 952/24/1
f 953/25/1 954/26/1 955/27/1 956/28/1
f 957/29/1 958/30/1 959/31/1 960/32/1
f 961/17/1 962/18/1 963/19/1 964/20/1
f 965/21/1 966/22/1 967/23/1 968/24/1
f 969/25/1 970/26/1 971/27/1 972/28/1
f 973/29/1 974/30/1 975/31/1 976/32/1
f 977/65/1 978/66/1 979/67/1 980/68/1
f 981/69/1 982/70/1 983/71/1 984/72/1
f 985/33/1 986/34/1 987/35/1 988/36/1
f 989/37/1 990/38/1 991/39/1 992/40/1
f 993/41/1 994/42/1 995/43/1 996/44/1
f 997/45/1 998/46/1 999/47/1 1000/48/1
f 1001/33/1 1002/34/1 1003/35/1 1004/36/1
f 1005/37/1 1006/38/1 1007/39/1 1008/40/1
f 1009/41/1 1010/42/1 1011/43/1 1012/44/1
f 1013/45/1 1014/46/1 1015/47/1 1016/48/1
f 1017/65/1 1018/66/1 1019/67/1 1020/68/1
f 1021/69/1 1022/70/1 1023/71/1 1024/72/1
f 1025/65/1 1026/66/1 1027/67/1 1028/68/1
f 1029/69/1 1030/70/1 1031/71/1 1032/72/1
f 1033/101/1 1034/102/1 1035/103/1 1036/104/1
f 1037/105/1 1038/106/1 1039/107/1 1040/108/1

