# Tiled2Unity generated file. Do not modify by hand.
# Wavefront file for 'StoNinoShrine_mesh_0007.obj'

# Vertices (Count = 240)
v -72 -1 0
v -73 -1 0
v -73 0 0
v -72 0 0
v -71 -1 0
v -72 -1 0
v -72 0 0
v -71 0 0
v -70 -1 0
v -71 -1 0
v -71 0 0
v -70 0 0
v -69 -1 0
v -70 -1 0
v -70 0 0
v -69 0 0
v -68 -1 0
v -69 -1 0
v -69 0 0
v -68 0 0
v -67 -1 0
v -68 -1 0
v -68 0 0
v -67 0 0
v -66 -1 0
v -67 -1 0
v -67 0 0
v -66 0 0
v -47 -1 0
v -48 -1 0
v -48 0 0
v -47 0 0
v -46 -1 0
v -47 -1 0
v -47 0 0
v -46 0 0
v -45 -1 0
v -46 -1 0
v -46 0 0
v -45 0 0
v -44 -1 0
v -45 -1 0
v -45 0 0
v -44 0 0
v -43 -1 0
v -44 -1 0
v -44 0 0
v -43 0 0
v -42 -1 0
v -43 -1 0
v -43 0 0
v -42 0 0
v -41 -1 0
v -42 -1 0
v -42 0 0
v -41 0 0
v -28 -3 0
v -29 -3 0
v -29 -2 0
v -28 -2 0
v -27 -3 0
v -28 -3 0
v -28 -2 0
v -27 -2 0
v -26 -3 0
v -27 -3 0
v -27 -2 0
v -26 -2 0
v -25 -3 0
v -26 -3 0
v -26 -2 0
v -25 -2 0
v -24 -3 0
v -25 -3 0
v -25 -2 0
v -24 -2 0
v -23 -3 0
v -24 -3 0
v -24 -2 0
v -23 -2 0
v -59 -7 0
v -60 -7 0
v -60 -6 0
v -59 -6 0
v -58 -7 0
v -59 -7 0
v -59 -6 0
v -58 -6 0
v -57 -7 0
v -58 -7 0
v -58 -6 0
v -57 -6 0
v -56 -7 0
v -57 -7 0
v -57 -6 0
v -56 -6 0
v -55 -7 0
v -56 -7 0
v -56 -6 0
v -55 -6 0
v -36 -8 0
v -37 -8 0
v -37 -7 0
v -36 -7 0
v -35 -8 0
v -36 -8 0
v -36 -7 0
v -35 -7 0
v -34 -8 0
v -35 -8 0
v -35 -7 0
v -34 -7 0
v -33 -8 0
v -34 -8 0
v -34 -7 0
v -33 -7 0
v -32 -8 0
v -33 -8 0
v -33 -7 0
v -32 -7 0
v -31 -8 0
v -32 -8 0
v -32 -7 0
v -31 -7 0
v -29 -12 0
v -30 -12 0
v -30 -11 0
v -29 -11 0
v -28 -12 0
v -29 -12 0
v -29 -11 0
v -28 -11 0
v -27 -12 0
v -28 -12 0
v -28 -11 0
v -27 -11 0
v -26 -12 0
v -27 -12 0
v -27 -11 0
v -26 -11 0
v -25 -12 0
v -26 -12 0
v -26 -11 0
v -25 -11 0
v -24 -12 0
v -25 -12 0
v -25 -11 0
v -24 -11 0
v -23 -12 0
v -24 -12 0
v -24 -11 0
v -23 -11 0
v -22 -12 0
v -23 -12 0
v -23 -11 0
v -22 -11 0
v -21 -12 0
v -22 -12 0
v -22 -11 0
v -21 -11 0
v -20 -12 0
v -21 -12 0
v -21 -11 0
v -20 -11 0
v -19 -12 0
v -20 -12 0
v -20 -11 0
v -19 -11 0
v -9 -18 0
v -10 -18 0
v -10 -17 0
v -9 -17 0
v -8 -18 0
v -9 -18 0
v -9 -17 0
v -8 -17 0
v -7 -18 0
v -8 -18 0
v -8 -17 0
v -7 -17 0
v -6 -18 0
v -7 -18 0
v -7 -17 0
v -6 -17 0
v -5 -18 0
v -6 -18 0
v -6 -17 0
v -5 -17 0
v -4 -18 0
v -5 -18 0
v -5 -17 0
v -4 -17 0
v -70 -19 0
v -71 -19 0
v -71 -18 0
v -70 -18 0
v -69 -19 0
v -70 -19 0
v -70 -18 0
v -69 -18 0
v -68 -19 0
v -69 -19 0
v -69 -18 0
v -68 -18 0
v -67 -19 0
v -68 -19 0
v -68 -18 0
v -67 -18 0
v -66 -19 0
v -67 -19 0
v -67 -18 0
v -66 -18 0
v -65 -19 0
v -66 -19 0
v -66 -18 0
v -65 -18 0
v -31 -24 0
v -32 -24 0
v -32 -23 0
v -31 -23 0
v -30 -24 0
v -31 -24 0
v -31 -23 0
v -30 -23 0
v -29 -24 0
v -30 -24 0
v -30 -23 0
v -29 -23 0
v -28 -24 0
v -29 -24 0
v -29 -23 0
v -28 -23 0
v -27 -24 0
v -28 -24 0
v -28 -23 0
v -27 -23 0
v -26 -24 0
v -27 -24 0
v -27 -23 0
v -26 -23 0

# Texture cooridinates (Count = 196)
vt 0.2759841 0.26328
vt 0.2929814 0.26328
vt 0.2929814 0.2893516
vt 0.2759841 0.2893516
vt 0.2587427 0.26328
vt 0.27574 0.26328
vt 0.27574 0.2893516
vt 0.2587427 0.2893516
vt 0.2415014 0.26328
vt 0.2584986 0.26328
vt 0.2584986 0.2893516
vt 0.2415014 0.2893516
vt 0.22426 0.26328
vt 0.2412572 0.26328
vt 0.2412572 0.2893516
vt 0.22426 0.2893516
vt 0.2070186 0.26328
vt 0.2240159 0.26328
vt 0.2240159 0.2893516
vt 0.2070186 0.2893516
vt 0.1897772 0.26328
vt 0.2067745 0.26328
vt 0.2067745 0.2893516
vt 0.1897772 0.2893516
vt 0.1725359 0.26328
vt 0.1895331 0.26328
vt 0.1895331 0.2893516
vt 0.1725359 0.2893516
vt 0.3966738 0.3948589
vt 0.413671 0.3948589
vt 0.413671 0.4209306
vt 0.3966738 0.4209306
vt 0.3794324 0.3948589
vt 0.3964297 0.3948589
vt 0.3964297 0.4209306
vt 0.3794324 0.4209306
vt 0.362191 0.3948589
vt 0.3791883 0.3948589
vt 0.3791883 0.4209306
vt 0.362191 0.4209306
vt 0.3449497 0.3948589
vt 0.3619469 0.3948589
vt 0.3619469 0.4209306
vt 0.3449497 0.4209306
vt 0.3277083 0.3948589
vt 0.3447055 0.3948589
vt 0.3447055 0.4209306
vt 0.3277083 0.4209306
vt 0.3104669 0.3948589
vt 0.3274641 0.3948589
vt 0.3274641 0.4209306
vt 0.3104669 0.4209306
vt 0.2932255 0.3948589
vt 0.3102227 0.3948589
vt 0.3102227 0.4209306
vt 0.2932255 0.4209306
vt 0.5001221 0.131701
vt 0.5171193 0.131701
vt 0.5171193 0.1577727
vt 0.5001221 0.1577727
vt 0.4828807 0.131701
vt 0.4998779 0.131701
vt 0.4998779 0.1577727
vt 0.4828807 0.1577727
vt 0.4656393 0.131701
vt 0.4826365 0.131701
vt 0.4826365 0.1577727
vt 0.4656393 0.1577727
vt 0.4483979 0.131701
vt 0.4653952 0.131701
vt 0.4653952 0.1577727
vt 0.4483979 0.1577727
vt 0.4311565 0.131701
vt 0.4481538 0.131701
vt 0.4481538 0.1577727
vt 0.4311565 0.1577727
vt 0.4139152 0.131701
vt 0.4309124 0.131701
vt 0.4309124 0.1577727
vt 0.4139152 0.1577727
vt 0.8966738 0.6053852
vt 0.913671 0.6053852
vt 0.913671 0.6314569
vt 0.8966738 0.6314569
vt 0.8794324 0.6053852
vt 0.8964297 0.6053852
vt 0.8964297 0.6314569
vt 0.8794324 0.6314569
vt 0.862191 0.6053852
vt 0.8791883 0.6053852
vt 0.8791883 0.6314569
vt 0.862191 0.6314569
vt 0.8449497 0.6053852
vt 0.8619469 0.6053852
vt 0.8619469 0.6314569
vt 0.8449497 0.6314569
vt 0.8277083 0.6053852
vt 0.8447055 0.6053852
vt 0.8447055 0.6314569
vt 0.8277083 0.6314569
vt 0.6897773 0.5264379
vt 0.7067745 0.5264379
vt 0.7067745 0.5525095
vt 0.6897773 0.5525095
vt 0.6725358 0.5264379
vt 0.6895331 0.5264379
vt 0.6895331 0.5525095
vt 0.6725358 0.5525095
vt 0.6552945 0.5264379
vt 0.6722917 0.5264379
vt 0.6722917 0.5525095
vt 0.6552945 0.5525095
vt 0.6380531 0.5264379
vt 0.6550503 0.5264379
vt 0.6550503 0.5525095
vt 0.6380531 0.5525095
vt 0.6208117 0.5264379
vt 0.637809 0.5264379
vt 0.637809 0.5525095
vt 0.6208117 0.5525095
vt 0.6035703 0.5264379
vt 0.6205676 0.5264379
vt 0.6205676 0.5525095
vt 0.6035703 0.5525095
vt 0.8449497 0.9211747
vt 0.8619469 0.9211747
vt 0.8619469 0.9472464
vt 0.8449497 0.9472464
vt 0.8277083 0.9211747
vt 0.8447055 0.9211747
vt 0.8447055 0.9472464
vt 0.8277083 0.9472464
vt 0.8104669 0.9211747
vt 0.8274642 0.9211747
vt 0.8274642 0.9472464
vt 0.8104669 0.9472464
vt 0.7932255 0.9211747
vt 0.8102227 0.9211747
vt 0.8102227 0.9472464
vt 0.7932255 0.9472464
vt 0.7759842 0.9211747
vt 0.7929814 0.9211747
vt 0.7929814 0.9472464
vt 0.7759842 0.9472464
vt 0.7587427 0.9211747
vt 0.77574 0.9211747
vt 0.77574 0.9472464
vt 0.7587427 0.9472464
vt 0.7415014 0.9211747
vt 0.7584986 0.9211747
vt 0.7584986 0.9472464
vt 0.7415014 0.9472464
vt 0.72426 0.9211747
vt 0.7412573 0.9211747
vt 0.7412573 0.9472464
vt 0.72426 0.9472464
vt 0.7070186 0.9211747
vt 0.7240158 0.9211747
vt 0.7240158 0.9472464
vt 0.7070186 0.9472464
vt 0.6897773 0.9211747
vt 0.7067745 0.9211747
vt 0.7067745 0.9472464
vt 0.6897773 0.9472464
vt 0.6725358 0.9211747
vt 0.6895331 0.9211747
vt 0.6895331 0.9472464
vt 0.6725358 0.9472464
vt 0.9139152 0.6053852
vt 0.9309124 0.6053852
vt 0.9309124 0.6314569
vt 0.9139152 0.6314569
vt 0.5001221 0.2895958
vt 0.5171193 0.2895958
vt 0.5171193 0.3156674
vt 0.5001221 0.3156674
vt 0.4828807 0.2895958
vt 0.4998779 0.2895958
vt 0.4998779 0.3156674
vt 0.4828807 0.3156674
vt 0.4656393 0.2895958
vt 0.4826365 0.2895958
vt 0.4826365 0.3156674
vt 0.4656393 0.3156674
vt 0.4483979 0.2895958
vt 0.4653952 0.2895958
vt 0.4653952 0.3156674
vt 0.4483979 0.3156674
vt 0.4311565 0.2895958
vt 0.4481538 0.2895958
vt 0.4481538 0.3156674
vt 0.4311565 0.3156674
vt 0.4139152 0.2895958
vt 0.4309124 0.2895958
vt 0.4309124 0.3156674
vt 0.4139152 0.3156674

# Normal
vn 0 0 -1

# Mesh description
g StoNinoShrine_mesh_0007

# Faces
f 1/1/1 2/2/1 3/3/1 4/4/1
f 5/5/1 6/6/1 7/7/1 8/8/1
f 9/9/1 10/10/1 11/11/1 12/12/1
f 13/13/1 14/14/1 15/15/1 16/16/1
f 17/17/1 18/18/1 19/19/1 20/20/1
f 21/21/1 22/22/1 23/23/1 24/24/1
f 25/25/1 26/26/1 27/27/1 28/28/1
f 29/29/1 30/30/1 31/31/1 32/32/1
f 33/33/1 34/34/1 35/35/1 36/36/1
f 37/37/1 38/38/1 39/39/1 40/40/1
f 41/41/1 42/42/1 43/43/1 44/44/1
f 45/45/1 46/46/1 47/47/1 48/48/1
f 49/49/1 50/50/1 51/51/1 52/52/1
f 53/53/1 54/54/1 55/55/1 56/56/1
f 57/57/1 58/58/1 59/59/1 60/60/1
f 61/61/1 62/62/1 63/63/1 64/64/1
f 65/65/1 66/66/1 67/67/1 68/68/1
f 69/69/1 70/70/1 71/71/1 72/72/1
f 73/73/1 74/74/1 75/75/1 76/76/1
f 77/77/1 78/78/1 79/79/1 80/80/1
f 81/81/1 82/82/1 83/83/1 84/84/1
f 85/85/1 86/86/1 87/87/1 88/88/1
f 89/89/1 90/90/1 91/91/1 92/92/1
f 93/93/1 94/94/1 95/95/1 96/96/1
f 97/97/1 98/98/1 99/99/1 100/100/1
f 101/101/1 102/102/1 103/103/1 104/104/1
f 105/105/1 106/106/1 107/107/1 108/108/1
f 109/109/1 110/110/1 111/111/1 112/112/1
f 113/113/1 114/114/1 115/115/1 116/116/1
f 117/117/1 118/118/1 119/119/1 120/120/1
f 121/121/1 122/122/1 123/123/1 124/124/1
f 125/125/1 126/126/1 127/127/1 128/128/1
f 129/129/1 130/130/1 131/131/1 132/132/1
f 133/133/1 134/134/1 135/135/1 136/136/1
f 137/137/1 138/138/1 139/139/1 140/140/1
f 141/141/1 142/142/1 143/143/1 144/144/1
f 145/145/1 146/146/1 147/147/1 148/148/1
f 149/149/1 150/150/1 151/151/1 152/152/1
f 153/153/1 154/154/1 155/155/1 156/156/1
f 157/157/1 158/158/1 159/159/1 160/160/1
f 161/161/1 162/162/1 163/163/1 164/164/1
f 165/165/1 166/166/1 167/167/1 168/168/1
f 169/169/1 170/170/1 171/171/1 172/172/1
f 173/81/1 174/82/1 175/83/1 176/84/1
f 177/85/1 178/86/1 179/87/1 180/88/1
f 181/89/1 182/90/1 183/91/1 184/92/1
f 185/93/1 186/94/1 187/95/1 188/96/1
f 189/97/1 190/98/1 191/99/1 192/100/1
f 193/173/1 194/174/1 195/175/1 196/176/1
f 197/177/1 198/178/1 199/179/1 200/180/1
f 201/181/1 202/182/1 203/183/1 204/184/1
f 205/185/1 206/186/1 207/187/1 208/188/1
f 209/189/1 210/190/1 211/191/1 212/192/1
f 213/193/1 214/194/1 215/195/1 216/196/1
f 217/169/1 218/170/1 219/171/1 220/172/1
f 221/81/1 222/82/1 223/83/1 224/84/1
f 225/85/1 226/86/1 227/87/1 228/88/1
f 229/89/1 230/90/1 231/91/1 232/92/1
f 233/93/1 234/94/1 235/95/1 236/96/1
f 237/97/1 238/98/1 239/99/1 240/100/1

