# Tiled2Unity generated file. Do not modify by hand.
# Wavefront file for 'StoNinoShrine_mesh_0006.obj'

# Vertices (Count = 576)
v -16 -3 0
v -17 -3 0
v -17 -2 0
v -16 -2 0
v -15 -3 0
v -16 -3 0
v -16 -2 0
v -15 -2 0
v -14 -3 0
v -15 -3 0
v -15 -2 0
v -14 -2 0
v -13 -3 0
v -14 -3 0
v -14 -2 0
v -13 -2 0
v -52 -5 0
v -53 -5 0
v -53 -4 0
v -52 -4 0
v -51 -5 0
v -52 -5 0
v -52 -4 0
v -51 -4 0
v -50 -5 0
v -51 -5 0
v -51 -4 0
v -50 -4 0
v -49 -5 0
v -50 -5 0
v -50 -4 0
v -49 -4 0
v -63 -7 0
v -64 -7 0
v -64 -6 0
v -63 -6 0
v -63 -8 0
v -64 -8 0
v -64 -7 0
v -63 -7 0
v -62 -8 0
v -63 -8 0
v -63 -7 0
v -62 -7 0
v -61 -8 0
v -62 -8 0
v -62 -7 0
v -61 -7 0
v -60 -8 0
v -61 -8 0
v -61 -7 0
v -60 -7 0
v -11 -8 0
v -12 -8 0
v -12 -7 0
v -11 -7 0
v -10 -8 0
v -11 -8 0
v -11 -7 0
v -10 -7 0
v -9 -8 0
v -10 -8 0
v -10 -7 0
v -9 -7 0
v -8 -8 0
v -9 -8 0
v -9 -7 0
v -8 -7 0
v -24 -12 0
v -25 -12 0
v -25 -11 0
v -24 -11 0
v -23 -12 0
v -24 -12 0
v -24 -11 0
v -23 -11 0
v -31 -13 0
v -32 -13 0
v -32 -12 0
v -31 -12 0
v -30 -13 0
v -31 -13 0
v -31 -12 0
v -30 -12 0
v -42 -14 0
v -43 -14 0
v -43 -13 0
v -42 -13 0
v -41 -14 0
v -42 -14 0
v -42 -13 0
v -41 -13 0
v -40 -14 0
v -41 -14 0
v -41 -13 0
v -40 -13 0
v -39 -14 0
v -40 -14 0
v -40 -13 0
v -39 -13 0
v -31 -14 0
v -32 -14 0
v -32 -13 0
v -31 -13 0
v -30 -14 0
v -31 -14 0
v -31 -13 0
v -30 -13 0
v -31 -15 0
v -32 -15 0
v -32 -14 0
v -31 -14 0
v -30 -15 0
v -31 -15 0
v -31 -14 0
v -30 -14 0
v -6 -15 0
v -7 -15 0
v -7 -14 0
v -6 -14 0
v -5 -15 0
v -6 -15 0
v -6 -14 0
v -5 -14 0
v -4 -15 0
v -5 -15 0
v -5 -14 0
v -4 -14 0
v -3 -15 0
v -4 -15 0
v -4 -14 0
v -3 -14 0
v -18 -16 0
v -19 -16 0
v -19 -15 0
v -18 -15 0
v -17 -16 0
v -18 -16 0
v -18 -15 0
v -17 -15 0
v -6 -16 0
v -7 -16 0
v -7 -15 0
v -6 -15 0
v -5 -16 0
v -6 -16 0
v -6 -15 0
v -5 -15 0
v -4 -16 0
v -5 -16 0
v -5 -15 0
v -4 -15 0
v -3 -16 0
v -4 -16 0
v -4 -15 0
v -3 -15 0
v -6 -17 0
v -7 -17 0
v -7 -16 0
v -6 -16 0
v -5 -17 0
v -6 -17 0
v -6 -16 0
v -5 -16 0
v -4 -17 0
v -5 -17 0
v -5 -16 0
v -4 -16 0
v -3 -17 0
v -4 -17 0
v -4 -16 0
v -3 -16 0
v -15 -18 0
v -16 -18 0
v -16 -17 0
v -15 -17 0
v -14 -18 0
v -15 -18 0
v -15 -17 0
v -14 -17 0
v -13 -18 0
v -14 -18 0
v -14 -17 0
v -13 -17 0
v -12 -18 0
v -13 -18 0
v -13 -17 0
v -12 -17 0
v -36 -21 0
v -37 -21 0
v -37 -20 0
v -36 -20 0
v -35 -21 0
v -36 -21 0
v -36 -20 0
v -35 -20 0
v -34 -21 0
v -35 -21 0
v -35 -20 0
v -34 -20 0
v -33 -21 0
v -34 -21 0
v -34 -20 0
v -33 -20 0
v -36 -22 0
v -37 -22 0
v -37 -21 0
v -36 -21 0
v -35 -22 0
v -36 -22 0
v -36 -21 0
v -35 -21 0
v -34 -22 0
v -35 -22 0
v -35 -21 0
v -34 -21 0
v -33 -22 0
v -34 -22 0
v -34 -21 0
v -33 -21 0
v -24 -22 0
v -25 -22 0
v -25 -21 0
v -24 -21 0
v -23 -22 0
v -24 -22 0
v -24 -21 0
v -23 -21 0
v -22 -22 0
v -23 -22 0
v -23 -21 0
v -22 -21 0
v -21 -22 0
v -22 -22 0
v -22 -21 0
v -21 -21 0
v -36 -23 0
v -37 -23 0
v -37 -22 0
v -36 -22 0
v -35 -23 0
v -36 -23 0
v -36 -22 0
v -35 -22 0
v -34 -23 0
v -35 -23 0
v -35 -22 0
v -34 -22 0
v -33 -23 0
v -34 -23 0
v -34 -22 0
v -33 -22 0
v -24 -23 0
v -25 -23 0
v -25 -22 0
v -24 -22 0
v -23 -23 0
v -24 -23 0
v -24 -22 0
v -23 -22 0
v -22 -23 0
v -23 -23 0
v -23 -22 0
v -22 -22 0
v -21 -23 0
v -22 -23 0
v -22 -22 0
v -21 -22 0
v -24 -24 0
v -25 -24 0
v -25 -23 0
v -24 -23 0
v -23 -24 0
v -24 -24 0
v -24 -23 0
v -23 -23 0
v -22 -24 0
v -23 -24 0
v -23 -23 0
v -22 -23 0
v -21 -24 0
v -22 -24 0
v -22 -23 0
v -21 -23 0
v -5 -28 0
v -6 -28 0
v -6 -27 0
v -5 -27 0
v -4 -28 0
v -5 -28 0
v -5 -27 0
v -4 -27 0
v -3 -28 0
v -4 -28 0
v -4 -27 0
v -3 -27 0
v -2 -28 0
v -3 -28 0
v -3 -27 0
v -2 -27 0
v -50 -31 0
v -51 -31 0
v -51 -30 0
v -50 -30 0
v -49 -31 0
v -50 -31 0
v -50 -30 0
v -49 -30 0
v -48 -31 0
v -49 -31 0
v -49 -30 0
v -48 -30 0
v -47 -31 0
v -48 -31 0
v -48 -30 0
v -47 -30 0
v -63 -36 0
v -64 -36 0
v -64 -35 0
v -63 -35 0
v -62 -36 0
v -63 -36 0
v -63 -35 0
v -62 -35 0
v -61 -36 0
v -62 -36 0
v -62 -35 0
v -61 -35 0
v -60 -36 0
v -61 -36 0
v -61 -35 0
v -60 -35 0
v -36 -37 0
v -37 -37 0
v -37 -36 0
v -36 -36 0
v -35 -37 0
v -36 -37 0
v -36 -36 0
v -35 -36 0
v -34 -37 0
v -35 -37 0
v -35 -36 0
v -34 -36 0
v -33 -37 0
v -34 -37 0
v -34 -36 0
v -33 -36 0
v -5 -41 0
v -6 -41 0
v -6 -40 0
v -5 -40 0
v -4 -41 0
v -5 -41 0
v -5 -40 0
v -4 -40 0
v -3 -41 0
v -4 -41 0
v -4 -40 0
v -3 -40 0
v -2 -41 0
v -3 -41 0
v -3 -40 0
v -2 -40 0
v -40 -44 0
v -41 -44 0
v -41 -43 0
v -40 -43 0
v -39 -44 0
v -40 -44 0
v -40 -43 0
v -39 -43 0
v -38 -44 0
v -39 -44 0
v -39 -43 0
v -38 -43 0
v -37 -44 0
v -38 -44 0
v -38 -43 0
v -37 -43 0
v -57 -45 0
v -58 -45 0
v -58 -44 0
v -57 -44 0
v -56 -45 0
v -57 -45 0
v -57 -44 0
v -56 -44 0
v -54 -46 0
v -55 -46 0
v -55 -45 0
v -54 -45 0
v -53 -46 0
v -54 -46 0
v -54 -45 0
v -53 -45 0
v -52 -46 0
v -53 -46 0
v -53 -45 0
v -52 -45 0
v -51 -46 0
v -52 -46 0
v -52 -45 0
v -51 -45 0
v -65 -47 0
v -66 -47 0
v -66 -46 0
v -65 -46 0
v -64 -47 0
v -65 -47 0
v -65 -46 0
v -64 -46 0
v -63 -47 0
v -64 -47 0
v -64 -46 0
v -63 -46 0
v -62 -47 0
v -63 -47 0
v -63 -46 0
v -62 -46 0
v -61 -47 0
v -62 -47 0
v -62 -46 0
v -61 -46 0
v -60 -47 0
v -61 -47 0
v -61 -46 0
v -60 -46 0
v -59 -47 0
v -60 -47 0
v -60 -46 0
v -59 -46 0
v -58 -47 0
v -59 -47 0
v -59 -46 0
v -58 -46 0
v -57 -47 0
v -58 -47 0
v -58 -46 0
v -57 -46 0
v -56 -47 0
v -57 -47 0
v -57 -46 0
v -56 -46 0
v -55 -47 0
v -56 -47 0
v -56 -46 0
v -55 -46 0
v -65 -48 0
v -66 -48 0
v -66 -47 0
v -65 -47 0
v -64 -48 0
v -65 -48 0
v -65 -47 0
v -64 -47 0
v -63 -48 0
v -64 -48 0
v -64 -47 0
v -63 -47 0
v -62 -48 0
v -63 -48 0
v -63 -47 0
v -62 -47 0
v -61 -48 0
v -62 -48 0
v -62 -47 0
v -61 -47 0
v -60 -48 0
v -61 -48 0
v -61 -47 0
v -60 -47 0
v -59 -48 0
v -60 -48 0
v -60 -47 0
v -59 -47 0
v -58 -48 0
v -59 -48 0
v -59 -47 0
v -58 -47 0
v -57 -48 0
v -58 -48 0
v -58 -47 0
v -57 -47 0
v -56 -48 0
v -57 -48 0
v -57 -47 0
v -56 -47 0
v -55 -48 0
v -56 -48 0
v -56 -47 0
v -55 -47 0
v -26 -48 0
v -27 -48 0
v -27 -47 0
v -26 -47 0
v -25 -48 0
v -26 -48 0
v -26 -47 0
v -25 -47 0
v -24 -48 0
v -25 -48 0
v -25 -47 0
v -24 -47 0
v -23 -48 0
v -24 -48 0
v -24 -47 0
v -23 -47 0
v -12 -48 0
v -13 -48 0
v -13 -47 0
v -12 -47 0
v -11 -48 0
v -12 -48 0
v -12 -47 0
v -11 -47 0
v -10 -48 0
v -11 -48 0
v -11 -47 0
v -10 -47 0
v -9 -48 0
v -10 -48 0
v -10 -47 0
v -9 -47 0
v -67 -49 0
v -68 -49 0
v -68 -48 0
v -67 -48 0
v -66 -49 0
v -67 -49 0
v -67 -48 0
v -66 -48 0
v -65 -49 0
v -66 -49 0
v -66 -48 0
v -65 -48 0
v -64 -49 0
v -65 -49 0
v -65 -48 0
v -64 -48 0
v -63 -49 0
v -64 -49 0
v -64 -48 0
v -63 -48 0
v -62 -49 0
v -63 -49 0
v -63 -48 0
v -62 -48 0
v -61 -49 0
v -62 -49 0
v -62 -48 0
v -61 -48 0
v -60 -49 0
v -61 -49 0
v -61 -48 0
v -60 -48 0
v -59 -49 0
v -60 -49 0
v -60 -48 0
v -59 -48 0
v -58 -49 0
v -59 -49 0
v -59 -48 0
v -58 -48 0
v -57 -49 0
v -58 -49 0
v -58 -48 0
v -57 -48 0
v -56 -49 0
v -57 -49 0
v -57 -48 0
v -56 -48 0
v -55 -49 0
v -56 -49 0
v -56 -48 0
v -55 -48 0

# Texture cooridinates (Count = 124)
vt 0.0625408 0.0001220703
vt 0.0831029 0.0001220703
vt 0.0831029 0.02765572
vt 0.0625408 0.02765572
vt 0.04173455 0.0001220703
vt 0.06229666 0.0001220703
vt 0.06229666 0.02765572
vt 0.04173455 0.02765572
vt 0.02092831 0.0001220703
vt 0.04149041 0.0001220703
vt 0.04149041 0.02765572
vt 0.02092831 0.02765572
vt 0.0001220703 0.0001220703
vt 0.02068417 0.0001220703
vt 0.02068417 0.02765572
vt 0.0001220703 0.02765572
vt 0.0625408 0.02789986
vt 0.0831029 0.02789986
vt 0.0831029 0.05543351
vt 0.0625408 0.05543351
vt 0.1249595 0.5278999
vt 0.1455216 0.5278999
vt 0.1455216 0.5554335
vt 0.1249595 0.5554335
vt 0.1041533 0.5278999
vt 0.1247154 0.5278999
vt 0.1247154 0.5554335
vt 0.1041533 0.5554335
vt 0.1249595 0.5001221
vt 0.1455216 0.5001221
vt 0.1455216 0.5276557
vt 0.1249595 0.5276557
vt 0.1041533 0.5001221
vt 0.1247154 0.5001221
vt 0.1247154 0.5276557
vt 0.1041533 0.5276557
vt 0.04173455 0.5834554
vt 0.06229666 0.5834554
vt 0.06229666 0.610989
vt 0.04173455 0.610989
vt 0.3538282 0.139011
vt 0.3743903 0.139011
vt 0.3743903 0.1665446
vt 0.3538282 0.1665446
vt 0.3330219 0.139011
vt 0.3535841 0.139011
vt 0.3535841 0.1665446
vt 0.3330219 0.1665446
vt 0.3122157 0.139011
vt 0.3327778 0.139011
vt 0.3327778 0.1665446
vt 0.3122157 0.1665446
vt 0.2914095 0.139011
vt 0.3119715 0.139011
vt 0.3119715 0.1665446
vt 0.2914095 0.1665446
vt 0.3538282 0.1112332
vt 0.3743903 0.1112332
vt 0.3743903 0.1387668
vt 0.3538282 0.1387668
vt 0.3330219 0.1112332
vt 0.3535841 0.1112332
vt 0.3535841 0.1387668
vt 0.3330219 0.1387668
vt 0.3122157 0.1112332
vt 0.3327778 0.1112332
vt 0.3327778 0.1387668
vt 0.3122157 0.1387668
vt 0.2914095 0.1112332
vt 0.3119715 0.1112332
vt 0.3119715 0.1387668
vt 0.2914095 0.1387668
vt 0.3538282 0.08345538
vt 0.3743903 0.08345538
vt 0.3743903 0.110989
vt 0.3538282 0.110989
vt 0.3330219 0.08345538
vt 0.3535841 0.08345538
vt 0.3535841 0.110989
vt 0.3330219 0.110989
vt 0.3122157 0.08345538
vt 0.3327778 0.08345538
vt 0.3327778 0.110989
vt 0.3122157 0.110989
vt 0.2914095 0.08345538
vt 0.3119715 0.08345538
vt 0.3119715 0.110989
vt 0.2914095 0.110989
vt 0.1249595 0.05567765
vt 0.1455216 0.05567765
vt 0.1455216 0.08321124
vt 0.1249595 0.08321124
vt 0.1041533 0.05567765
vt 0.1247154 0.05567765
vt 0.1247154 0.08321124
vt 0.1041533 0.08321124
vt 0.08334704 0.05567765
vt 0.1039091 0.05567765
vt 0.1039091 0.08321124
vt 0.08334704 0.08321124
vt 0.1249595 0.02789986
vt 0.1455216 0.02789986
vt 0.1455216 0.05543351
vt 0.1249595 0.05543351
vt 0.1041533 0.02789986
vt 0.1247154 0.02789986
vt 0.1247154 0.05543351
vt 0.1041533 0.05543351
vt 0.08334704 0.02789986
vt 0.1039091 0.02789986
vt 0.1039091 0.05543351
vt 0.08334704 0.05543351
vt 0.1249595 0.0001220703
vt 0.1455216 0.0001220703
vt 0.1455216 0.02765572
vt 0.1249595 0.02765572
vt 0.1041533 0.0001220703
vt 0.1247154 0.0001220703
vt 0.1247154 0.02765572
vt 0.1041533 0.02765572
vt 0.08334704 0.0001220703
vt 0.1039091 0.0001220703
vt 0.1039091 0.02765572
vt 0.08334704 0.02765572

# Normal
vn 0 0 -1

# Mesh description
g StoNinoShrine_mesh_0006

# Faces
f 1/1/1 2/2/1 3/3/1 4/4/1
f 5/5/1 6/6/1 7/7/1 8/8/1
f 9/9/1 10/10/1 11/11/1 12/12/1
f 13/13/1 14/14/1 15/15/1 16/16/1
f 17/1/1 18/2/1 19/3/1 20/4/1
f 21/5/1 22/6/1 23/7/1 24/8/1
f 25/9/1 26/10/1 27/11/1 28/12/1
f 29/13/1 30/14/1 31/15/1 32/16/1
f 33/17/1 34/18/1 35/19/1 36/20/1
f 37/1/1 38/2/1 39/3/1 40/4/1
f 41/5/1 42/6/1 43/7/1 44/8/1
f 45/9/1 46/10/1 47/11/1 48/12/1
f 49/13/1 50/14/1 51/15/1 52/16/1
f 53/1/1 54/2/1 55/3/1 56/4/1
f 57/5/1 58/6/1 59/7/1 60/8/1
f 61/9/1 62/10/1 63/11/1 64/12/1
f 65/13/1 66/14/1 67/15/1 68/16/1
f 69/5/1 70/6/1 71/7/1 72/8/1
f 73/9/1 74/10/1 75/11/1 76/12/1
f 77/21/1 78/22/1 79/23/1 80/24/1
f 81/25/1 82/26/1 83/27/1 84/28/1
f 85/1/1 86/2/1 87/3/1 88/4/1
f 89/5/1 90/6/1 91/7/1 92/8/1
f 93/9/1 94/10/1 95/11/1 96/12/1
f 97/13/1 98/14/1 99/15/1 100/16/1
f 101/29/1 102/30/1 103/31/1 104/32/1
f 105/33/1 106/34/1 107/35/1 108/36/1
f 109/37/1 110/38/1 111/39/1 112/40/1
f 113/37/1 114/38/1 115/39/1 116/40/1
f 117/41/1 118/42/1 119/43/1 120/44/1
f 121/45/1 122/46/1 123/47/1 124/48/1
f 125/49/1 126/50/1 127/51/1 128/52/1
f 129/53/1 130/54/1 131/55/1 132/56/1
f 133/5/1 134/6/1 135/7/1 136/8/1
f 137/9/1 138/10/1 139/11/1 140/12/1
f 141/57/1 142/58/1 143/59/1 144/60/1
f 145/61/1 146/62/1 147/63/1 148/64/1
f 149/65/1 150/66/1 151/67/1 152/68/1
f 153/69/1 154/70/1 155/71/1 156/72/1
f 157/73/1 158/74/1 159/75/1 160/76/1
f 161/77/1 162/78/1 163/79/1 164/80/1
f 165/81/1 166/82/1 167/83/1 168/84/1
f 169/85/1 170/86/1 171/87/1 172/88/1
f 173/1/1 174/2/1 175/3/1 176/4/1
f 177/5/1 178/6/1 179/7/1 180/8/1
f 181/9/1 182/10/1 183/11/1 184/12/1
f 185/13/1 186/14/1 187/15/1 188/16/1
f 189/41/1 190/42/1 191/43/1 192/44/1
f 193/45/1 194/46/1 195/47/1 196/48/1
f 197/49/1 198/50/1 199/51/1 200/52/1
f 201/53/1 202/54/1 203/55/1 204/56/1
f 205/57/1 206/58/1 207/59/1 208/60/1
f 209/61/1 210/62/1 211/63/1 212/64/1
f 213/65/1 214/66/1 215/67/1 216/68/1
f 217/69/1 218/70/1 219/71/1 220/72/1
f 221/41/1 222/42/1 223/43/1 224/44/1
f 225/45/1 226/46/1 227/47/1 228/48/1
f 229/49/1 230/50/1 231/51/1 232/52/1
f 233/53/1 234/54/1 235/55/1 236/56/1
f 237/73/1 238/74/1 239/75/1 240/76/1
f 241/77/1 242/78/1 243/79/1 244/80/1
f 245/81/1 246/82/1 247/83/1 248/84/1
f 249/85/1 250/86/1 251/87/1 252/88/1
f 253/57/1 254/58/1 255/59/1 256/60/1
f 257/61/1 258/62/1 259/63/1 260/64/1
f 261/65/1 262/66/1 263/67/1 264/68/1
f 265/69/1 266/70/1 267/71/1 268/72/1
f 269/73/1 270/74/1 271/75/1 272/76/1
f 273/77/1 274/78/1 275/79/1 276/80/1
f 277/81/1 278/82/1 279/83/1 280/84/1
f 281/85/1 282/86/1 283/87/1 284/88/1
f 285/1/1 286/2/1 287/3/1 288/4/1
f 289/5/1 290/6/1 291/7/1 292/8/1
f 293/9/1 294/10/1 295/11/1 296/12/1
f 297/13/1 298/14/1 299/15/1 300/16/1
f 301/1/1 302/2/1 303/3/1 304/4/1
f 305/5/1 306/6/1 307/7/1 308/8/1
f 309/9/1 310/10/1 311/11/1 312/12/1
f 313/13/1 314/14/1 315/15/1 316/16/1
f 317/1/1 318/2/1 319/3/1 320/4/1
f 321/5/1 322/6/1 323/7/1 324/8/1
f 325/9/1 326/10/1 327/11/1 328/12/1
f 329/13/1 330/14/1 331/15/1 332/16/1
f 333/1/1 334/2/1 335/3/1 336/4/1
f 337/5/1 338/6/1 339/7/1 340/8/1
f 341/9/1 342/10/1 343/11/1 344/12/1
f 345/13/1 346/14/1 347/15/1 348/16/1
f 349/1/1 350/2/1 351/3/1 352/4/1
f 353/5/1 354/6/1 355/7/1 356/8/1
f 357/9/1 358/10/1 359/11/1 360/12/1
f 361/13/1 362/14/1 363/15/1 364/16/1
f 365/1/1 366/2/1 367/3/1 368/4/1
f 369/5/1 370/6/1 371/7/1 372/8/1
f 373/9/1 374/10/1 375/11/1 376/12/1
f 377/13/1 378/14/1 379/15/1 380/16/1
f 381/29/1 382/30/1 383/31/1 384/32/1
f 385/33/1 386/34/1 387/35/1 388/36/1
f 389/1/1 390/2/1 391/3/1 392/4/1
f 393/5/1 394/6/1 395/7/1 396/8/1
f 397/9/1 398/10/1 399/11/1 400/12/1
f 401/13/1 402/14/1 403/15/1 404/16/1
f 405/89/1 406/90/1 407/91/1 408/92/1
f 409/93/1 410/94/1 411/95/1 412/96/1
f 413/93/1 414/94/1 415/95/1 416/96/1
f 417/93/1 418/94/1 419/95/1 420/96/1
f 421/93/1 422/94/1 423/95/1 424/96/1
f 425/93/1 426/94/1 427/95/1 428/96/1
f 429/93/1 430/94/1 431/95/1 432/96/1
f 433/93/1 434/94/1 435/95/1 436/96/1
f 437/93/1 438/94/1 439/95/1 440/96/1
f 441/93/1 442/94/1 443/95/1 444/96/1
f 445/97/1 446/98/1 447/99/1 448/100/1
f 449/101/1 450/102/1 451/103/1 452/104/1
f 453/105/1 454/106/1 455/107/1 456/108/1
f 457/105/1 458/106/1 459/107/1 460/108/1
f 461/105/1 462/106/1 463/107/1 464/108/1
f 465/105/1 466/106/1 467/107/1 468/108/1
f 469/105/1 470/106/1 471/107/1 472/108/1
f 473/105/1 474/106/1 475/107/1 476/108/1
f 477/105/1 478/106/1 479/107/1 480/108/1
f 481/105/1 482/106/1 483/107/1 484/108/1
f 485/105/1 486/106/1 487/107/1 488/108/1
f 489/109/1 490/110/1 491/111/1 492/112/1
f 493/1/1 494/2/1 495/3/1 496/4/1
f 497/5/1 498/6/1 499/7/1 500/8/1
f 501/9/1 502/10/1 503/11/1 504/12/1
f 505/13/1 506/14/1 507/15/1 508/16/1
f 509/1/1 510/2/1 511/3/1 512/4/1
f 513/5/1 514/6/1 515/7/1 516/8/1
f 517/9/1 518/10/1 519/11/1 520/12/1
f 521/13/1 522/14/1 523/15/1 524/16/1
f 525/29/1 526/30/1 527/31/1 528/32/1
f 529/33/1 530/34/1 531/35/1 532/36/1
f 533/113/1 534/114/1 535/115/1 536/116/1
f 537/117/1 538/118/1 539/119/1 540/120/1
f 541/117/1 542/118/1 543/119/1 544/120/1
f 545/117/1 546/118/1 547/119/1 548/120/1
f 549/117/1 550/118/1 551/119/1 552/120/1
f 553/117/1 554/118/1 555/119/1 556/120/1
f 557/117/1 558/118/1 559/119/1 560/120/1
f 561/117/1 562/118/1 563/119/1 564/120/1
f 565/117/1 566/118/1 567/119/1 568/120/1
f 569/117/1 570/118/1 571/119/1 572/120/1
f 573/121/1 574/122/1 575/123/1 576/124/1

