# Tiled2Unity generated file. Do not modify by hand.
# Wavefront file for 'BarangayMaugLeft_mesh_0004.obj'

# Vertices (Count = 780)
v -3 -2 0
v -4 -2 0
v -4 -1 0
v -3 -1 0
v -4 -2 0
v -5 -2 0
v -5 -1 0
v -4 -1 0
v -5 -2 0
v -6 -2 0
v -6 -1 0
v -5 -1 0
v -6 -2 0
v -7 -2 0
v -7 -1 0
v -6 -1 0
v -11 -2 0
v -12 -2 0
v -12 -1 0
v -11 -1 0
v -42 -2 0
v -43 -2 0
v -43 -1 0
v -42 -1 0
v -3 -3 0
v -4 -3 0
v -4 -2 0
v -3 -2 0
v -4 -3 0
v -5 -3 0
v -5 -2 0
v -4 -2 0
v -5 -3 0
v -6 -3 0
v -6 -2 0
v -5 -2 0
v -6 -3 0
v -7 -3 0
v -7 -2 0
v -6 -2 0
v -22 -3 0
v -23 -3 0
v -23 -2 0
v -22 -2 0
v -23 -3 0
v -24 -3 0
v -24 -2 0
v -23 -2 0
v -24 -3 0
v -25 -3 0
v -25 -2 0
v -24 -2 0
v -25 -3 0
v -26 -3 0
v -26 -2 0
v -25 -2 0
v -3 -4 0
v -4 -4 0
v -4 -3 0
v -3 -3 0
v -4 -4 0
v -5 -4 0
v -5 -3 0
v -4 -3 0
v -5 -4 0
v -6 -4 0
v -6 -3 0
v -5 -3 0
v -6 -4 0
v -7 -4 0
v -7 -3 0
v -6 -3 0
v -13 -4 0
v -14 -4 0
v -14 -3 0
v -13 -3 0
v -22 -4 0
v -23 -4 0
v -23 -3 0
v -22 -3 0
v -23 -4 0
v -24 -4 0
v -24 -3 0
v -23 -3 0
v -24 -4 0
v -25 -4 0
v -25 -3 0
v -24 -3 0
v -25 -4 0
v -26 -4 0
v -26 -3 0
v -25 -3 0
v -47 -4 0
v -48 -4 0
v -48 -3 0
v -47 -3 0
v -48 -4 0
v -49 -4 0
v -49 -3 0
v -48 -3 0
v -13 -5 0
v -14 -5 0
v -14 -4 0
v -13 -4 0
v -14 -5 0
v -15 -5 0
v -15 -4 0
v -14 -4 0
v -22 -5 0
v -23 -5 0
v -23 -4 0
v -22 -4 0
v -23 -5 0
v -24 -5 0
v -24 -4 0
v -23 -4 0
v -24 -5 0
v -25 -5 0
v -25 -4 0
v -24 -4 0
v -25 -5 0
v -26 -5 0
v -26 -4 0
v -25 -4 0
v -47 -5 0
v -48 -5 0
v -48 -4 0
v -47 -4 0
v -48 -5 0
v -49 -5 0
v -49 -4 0
v -48 -4 0
v -14 -6 0
v -15 -6 0
v -15 -5 0
v -14 -5 0
v -15 -6 0
v -16 -6 0
v -16 -5 0
v -15 -5 0
v -16 -6 0
v -17 -6 0
v -17 -5 0
v -16 -5 0
v -16 -7 0
v -17 -7 0
v -17 -6 0
v -16 -6 0
v -48 -9 0
v -49 -9 0
v -49 -8 0
v -48 -8 0
v -18 -11 0
v -19 -11 0
v -19 -10 0
v -18 -10 0
v -19 -11 0
v -20 -11 0
v -20 -10 0
v -19 -10 0
v -20 -11 0
v -21 -11 0
v -21 -10 0
v -20 -10 0
v -21 -11 0
v -22 -11 0
v -22 -10 0
v -21 -10 0
v -22 -11 0
v -23 -11 0
v -23 -10 0
v -22 -10 0
v -23 -11 0
v -24 -11 0
v -24 -10 0
v -23 -10 0
v -24 -11 0
v -25 -11 0
v -25 -10 0
v -24 -10 0
v -25 -11 0
v -26 -11 0
v -26 -10 0
v -25 -10 0
v -26 -11 0
v -27 -11 0
v -27 -10 0
v -26 -10 0
v -27 -11 0
v -28 -11 0
v -28 -10 0
v -27 -10 0
v -28 -11 0
v -29 -11 0
v -29 -10 0
v -28 -10 0
v -29 -11 0
v -30 -11 0
v -30 -10 0
v -29 -10 0
v -30 -11 0
v -31 -11 0
v -31 -10 0
v -30 -10 0
v -31 -11 0
v -32 -11 0
v -32 -10 0
v -31 -10 0
v -32 -11 0
v -33 -11 0
v -33 -10 0
v -32 -10 0
v -33 -11 0
v -34 -11 0
v -34 -10 0
v -33 -10 0
v -34 -11 0
v -35 -11 0
v -35 -10 0
v -34 -10 0
v -35 -11 0
v -36 -11 0
v -36 -10 0
v -35 -10 0
v -36 -11 0
v -37 -11 0
v -37 -10 0
v -36 -10 0
v -37 -11 0
v -38 -11 0
v -38 -10 0
v -37 -10 0
v -38 -11 0
v -39 -11 0
v -39 -10 0
v -38 -10 0
v -39 -11 0
v -40 -11 0
v -40 -10 0
v -39 -10 0
v -40 -11 0
v -41 -11 0
v -41 -10 0
v -40 -10 0
v -41 -11 0
v -42 -11 0
v -42 -10 0
v -41 -10 0
v -42 -11 0
v -43 -11 0
v -43 -10 0
v -42 -10 0
v -43 -11 0
v -44 -11 0
v -44 -10 0
v -43 -10 0
v -7 -14 0
v -8 -14 0
v -8 -13 0
v -7 -13 0
v -8 -14 0
v -9 -14 0
v -9 -13 0
v -8 -13 0
v -9 -14 0
v -10 -14 0
v -10 -13 0
v -9 -13 0
v -35 -14 0
v -36 -14 0
v -36 -13 0
v -35 -13 0
v -36 -14 0
v -37 -14 0
v -37 -13 0
v -36 -13 0
v -22 -15 0
v -23 -15 0
v -23 -14 0
v -22 -14 0
v -35 -15 0
v -36 -15 0
v -36 -14 0
v -35 -14 0
v -36 -15 0
v -37 -15 0
v -37 -14 0
v -36 -14 0
v -17 -17 0
v -18 -17 0
v -18 -16 0
v -17 -16 0
v -21 -18 0
v -22 -18 0
v -22 -17 0
v -21 -17 0
v -8 -20 0
v -9 -20 0
v -9 -19 0
v -8 -19 0
v -24 -20 0
v -25 -20 0
v -25 -19 0
v -24 -19 0
v -5 -21 0
v -6 -21 0
v -6 -20 0
v -5 -20 0
v -18 -21 0
v -19 -21 0
v -19 -20 0
v -18 -20 0
v -46 -24 0
v -47 -24 0
v -47 -23 0
v -46 -23 0
v -3 -25 0
v -4 -25 0
v -4 -24 0
v -3 -24 0
v -4 -25 0
v -5 -25 0
v -5 -24 0
v -4 -24 0
v -3 -26 0
v -4 -26 0
v -4 -25 0
v -3 -25 0
v -4 -26 0
v -5 -26 0
v -5 -25 0
v -4 -25 0
v -17 -26 0
v -18 -26 0
v -18 -25 0
v -17 -25 0
v -18 -26 0
v -19 -26 0
v -19 -25 0
v -18 -25 0
v -19 -26 0
v -20 -26 0
v -20 -25 0
v -19 -25 0
v -20 -26 0
v -21 -26 0
v -21 -25 0
v -20 -25 0
v -17 -27 0
v -18 -27 0
v -18 -26 0
v -17 -26 0
v -18 -27 0
v -19 -27 0
v -19 -26 0
v -18 -26 0
v -19 -27 0
v -20 -27 0
v -20 -26 0
v -19 -26 0
v -20 -27 0
v -21 -27 0
v -21 -26 0
v -20 -26 0
v -17 -28 0
v -18 -28 0
v -18 -27 0
v -17 -27 0
v -18 -28 0
v -19 -28 0
v -19 -27 0
v -18 -27 0
v -19 -28 0
v -20 -28 0
v -20 -27 0
v -19 -27 0
v -20 -28 0
v -21 -28 0
v -21 -27 0
v -20 -27 0
v -30 -28 0
v -31 -28 0
v -31 -27 0
v -30 -27 0
v -35 -28 0
v -36 -28 0
v -36 -27 0
v -35 -27 0
v -4 -30 0
v -5 -30 0
v -5 -29 0
v -4 -29 0
v -6 -30 0
v -7 -30 0
v -7 -29 0
v -6 -29 0
v -7 -30 0
v -8 -30 0
v -8 -29 0
v -7 -29 0
v -8 -30 0
v -9 -30 0
v -9 -29 0
v -8 -29 0
v -10 -30 0
v -11 -30 0
v -11 -29 0
v -10 -29 0
v -4 -31 0
v -5 -31 0
v -5 -30 0
v -4 -30 0
v -6 -31 0
v -7 -31 0
v -7 -30 0
v -6 -30 0
v -7 -31 0
v -8 -31 0
v -8 -30 0
v -7 -30 0
v -8 -31 0
v -9 -31 0
v -9 -30 0
v -8 -30 0
v -10 -31 0
v -11 -31 0
v -11 -30 0
v -10 -30 0
v -4 -32 0
v -5 -32 0
v -5 -31 0
v -4 -31 0
v -10 -32 0
v -11 -32 0
v -11 -31 0
v -10 -31 0
v -36 -32 0
v -37 -32 0
v -37 -31 0
v -36 -31 0
v -37 -32 0
v -38 -32 0
v -38 -31 0
v -37 -31 0
v -46 -32 0
v -47 -32 0
v -47 -31 0
v -46 -31 0
v -47 -32 0
v -48 -32 0
v -48 -31 0
v -47 -31 0
v -4 -33 0
v -5 -33 0
v -5 -32 0
v -4 -32 0
v -10 -33 0
v -11 -33 0
v -11 -32 0
v -10 -32 0
v -46 -33 0
v -47 -33 0
v -47 -32 0
v -46 -32 0
v -47 -33 0
v -48 -33 0
v -48 -32 0
v -47 -32 0
v -42 -35 0
v -43 -35 0
v -43 -34 0
v -42 -34 0
v -23 -36 0
v -24 -36 0
v -24 -35 0
v -23 -35 0
v -2 -37 0
v -3 -37 0
v -3 -36 0
v -2 -36 0
v -32 -37 0
v -33 -37 0
v -33 -36 0
v -32 -36 0
v -33 -37 0
v -34 -37 0
v -34 -36 0
v -33 -36 0
v -34 -37 0
v -35 -37 0
v -35 -36 0
v -34 -36 0
v -35 -37 0
v -36 -37 0
v -36 -36 0
v -35 -36 0
v -23 -38 0
v -24 -38 0
v -24 -37 0
v -23 -37 0
v -32 -38 0
v -33 -38 0
v -33 -37 0
v -32 -37 0
v -33 -38 0
v -34 -38 0
v -34 -37 0
v -33 -37 0
v -34 -38 0
v -35 -38 0
v -35 -37 0
v -34 -37 0
v -35 -38 0
v -36 -38 0
v -36 -37 0
v -35 -37 0
v -32 -39 0
v -33 -39 0
v -33 -38 0
v -32 -38 0
v -33 -39 0
v -34 -39 0
v -34 -38 0
v -33 -38 0
v -34 -39 0
v -35 -39 0
v -35 -38 0
v -34 -38 0
v -35 -39 0
v -36 -39 0
v -36 -38 0
v -35 -38 0
v -2 -40 0
v -3 -40 0
v -3 -39 0
v -2 -39 0
v -3 -40 0
v -4 -40 0
v -4 -39 0
v -3 -39 0
v -4 -40 0
v -5 -40 0
v -5 -39 0
v -4 -39 0
v -5 -40 0
v -6 -40 0
v -6 -39 0
v -5 -39 0
v -39 -40 0
v -40 -40 0
v -40 -39 0
v -39 -39 0
v -40 -40 0
v -41 -40 0
v -41 -39 0
v -40 -39 0
v -41 -40 0
v -42 -40 0
v -42 -39 0
v -41 -39 0
v -42 -40 0
v -43 -40 0
v -43 -39 0
v -42 -39 0
v -2 -41 0
v -3 -41 0
v -3 -40 0
v -2 -40 0
v -3 -41 0
v -4 -41 0
v -4 -40 0
v -3 -40 0
v -4 -41 0
v -5 -41 0
v -5 -40 0
v -4 -40 0
v -5 -41 0
v -6 -41 0
v -6 -40 0
v -5 -40 0
v -17 -41 0
v -18 -41 0
v -18 -40 0
v -17 -40 0
v -39 -41 0
v -40 -41 0
v -40 -40 0
v -39 -40 0
v -40 -41 0
v -41 -41 0
v -41 -40 0
v -40 -40 0
v -41 -41 0
v -42 -41 0
v -42 -40 0
v -41 -40 0
v -42 -41 0
v -43 -41 0
v -43 -40 0
v -42 -40 0
v -49 -41 0
v -50 -41 0
v -50 -40 0
v -49 -40 0
v -2 -42 0
v -3 -42 0
v -3 -41 0
v -2 -41 0
v -3 -42 0
v -4 -42 0
v -4 -41 0
v -3 -41 0
v -4 -42 0
v -5 -42 0
v -5 -41 0
v -4 -41 0
v -5 -42 0
v -6 -42 0
v -6 -41 0
v -5 -41 0
v -39 -42 0
v -40 -42 0
v -40 -41 0
v -39 -41 0
v -40 -42 0
v -41 -42 0
v -41 -41 0
v -40 -41 0
v -41 -42 0
v -42 -42 0
v -42 -41 0
v -41 -41 0
v -42 -42 0
v -43 -42 0
v -43 -41 0
v -42 -41 0
v -19 -43 0
v -20 -43 0
v -20 -42 0
v -19 -42 0
v -20 -43 0
v -21 -43 0
v -21 -42 0
v -20 -42 0
v -21 -43 0
v -22 -43 0
v -22 -42 0
v -21 -42 0
v -32 -43 0
v -33 -43 0
v -33 -42 0
v -32 -42 0
v -33 -43 0
v -34 -43 0
v -34 -42 0
v -33 -42 0
v -34 -43 0
v -35 -43 0
v -35 -42 0
v -34 -42 0
v -35 -43 0
v -36 -43 0
v -36 -42 0
v -35 -42 0
v -16 -44 0
v -17 -44 0
v -17 -43 0
v -16 -43 0
v -17 -44 0
v -18 -44 0
v -18 -43 0
v -17 -43 0
v -18 -44 0
v -19 -44 0
v -19 -43 0
v -18 -43 0
v -32 -44 0
v -33 -44 0
v -33 -43 0
v -32 -43 0
v -33 -44 0
v -34 -44 0
v -34 -43 0
v -33 -43 0
v -34 -44 0
v -35 -44 0
v -35 -43 0
v -34 -43 0
v -35 -44 0
v -36 -44 0
v -36 -43 0
v -35 -43 0
v -32 -45 0
v -33 -45 0
v -33 -44 0
v -32 -44 0
v -33 -45 0
v -34 -45 0
v -34 -44 0
v -33 -44 0
v -34 -45 0
v -35 -45 0
v -35 -44 0
v -34 -44 0
v -35 -45 0
v -36 -45 0
v -36 -44 0
v -35 -44 0
v -48 -45 0
v -49 -45 0
v -49 -44 0
v -48 -44 0
v -32 -46 0
v -33 -46 0
v -33 -45 0
v -32 -45 0
v -33 -46 0
v -34 -46 0
v -34 -45 0
v -33 -45 0
v -48 -46 0
v -49 -46 0
v -49 -45 0
v -48 -45 0
v -37 -47 0
v -38 -47 0
v -38 -46 0
v -37 -46 0
v -38 -47 0
v -39 -47 0
v -39 -46 0
v -38 -46 0
v -46 -47 0
v -47 -47 0
v -47 -46 0
v -46 -46 0
v -47 -47 0
v -48 -47 0
v -48 -46 0
v -47 -46 0
v -4 -48 0
v -5 -48 0
v -5 -47 0
v -4 -47 0
v -5 -48 0
v -6 -48 0
v -6 -47 0
v -5 -47 0
v -37 -48 0
v -38 -48 0
v -38 -47 0
v -37 -47 0
v -38 -48 0
v -39 -48 0
v -39 -47 0
v -38 -47 0
v -46 -48 0
v -47 -48 0
v -47 -47 0
v -46 -47 0
v -47 -48 0
v -48 -48 0
v -48 -47 0
v -47 -47 0
v -4 -49 0
v -5 -49 0
v -5 -48 0
v -4 -48 0
v -5 -49 0
v -6 -49 0
v -6 -48 0
v -5 -48 0
v -46 -49 0
v -47 -49 0
v -47 -48 0
v -46 -48 0
v -47 -49 0
v -48 -49 0
v -48 -48 0
v -47 -48 0

# Texture cooridinates (Count = 107)
vt 0 0.08333331
vt 0.02080624 0.08333331
vt 0.02080624 0.1111111
vt 0 0.1111111
vt 0.04161248 0.08333331
vt 0.04161248 0.1111111
vt 0.06241873 0.08333331
vt 0.06241873 0.1111111
vt 0.08322497 0.08333331
vt 0.08322497 0.1111111
vt 0.02080624 0.9722222
vt 0.04161248 0.9722222
vt 0.04161248 1
vt 0.02080624 1
vt 0 0.05555558
vt 0.02080624 0.05555558
vt 0.04161248 0.05555558
vt 0.06241873 0.05555558
vt 0.08322497 0.05555558
vt 0 0.02777779
vt 0.02080624 0.02777779
vt 0.04161248 0.02777779
vt 0.06241873 0.02777779
vt 0.08322497 0.02777779
vt 0.06241873 0.6666666
vt 0.08322497 0.6666666
vt 0.08322497 0.6944444
vt 0.06241873 0.6944444
vt 0.08322497 0.9444444
vt 0.1040312 0.9444444
vt 0.1040312 0.9722222
vt 0.08322497 0.9722222
vt 0.1248375 0.9444444
vt 0.1248375 0.9722222
vt 0.08322497 0.9166667
vt 0.1040312 0.9166667
vt 0.1248375 0.9166667
vt 0.04161248 0.5
vt 0.06241873 0.5
vt 0.06241873 0.5277778
vt 0.04161248 0.5277778
vt 0.02080624 0.5
vt 0.02080624 0.5277778
vt 0.08322497 0.5
vt 0.08322497 0.5277778
vt 0.06241873 0.8333333
vt 0.08322497 0.8333333
vt 0.08322497 0.8611111
vt 0.06241873 0.8611111
vt 0.1040312 0.8333333
vt 0.1040312 0.8611111
vt 0.1248375 0.8333333
vt 0.1248375 0.8611111
vt 0.02080624 0.75
vt 0.04161248 0.75
vt 0.04161248 0.7777778
vt 0.02080624 0.7777778
vt 0.5409623 0.8611111
vt 0.5617685 0.8611111
vt 0.5617685 0.8888889
vt 0.5409623 0.8888889
vt 0.7282184 0.6944444
vt 0.7490247 0.6944444
vt 0.7490247 0.7222222
vt 0.7282184 0.7222222
vt 0.7698309 0.6944444
vt 0.7698309 0.7222222
vt 0.7906372 0.6944444
vt 0.7906372 0.7222222
vt 0.5825748 0.8611111
vt 0.5825748 0.8888889
vt 0.5409623 0.8333333
vt 0.5617685 0.8333333
vt 0.7282184 0.6666666
vt 0.7490247 0.6666666
vt 0.7698309 0.6666666
vt 0.7906372 0.6666666
vt 0.5825748 0.8333333
vt 0.5409623 0.8055556
vt 0.5617685 0.8055556
vt 0.5825748 0.8055556
vt 0.5409623 0.7777778
vt 0.5617685 0.7777778
vt 0.5825748 0.7777778
vt 0.2912874 0.1666667
vt 0.3120936 0.1666667
vt 0.3120936 0.1944444
vt 0.2912874 0.1944444
vt 0.3328999 0.1666667
vt 0.3328999 0.1944444
vt 0.3537061 0.1666667
vt 0.3537061 0.1944444
vt 0.3745123 0.1666667
vt 0.3745123 0.1944444
vt 0.2912874 0.1388889
vt 0.3120936 0.1388889
vt 0.3328999 0.1388889
vt 0.3537061 0.1388889
vt 0.3745123 0.1388889
vt 0.2912874 0.1111111
vt 0.3120936 0.1111111
vt 0.3328999 0.1111111
vt 0.3537061 0.1111111
vt 0.3745123 0.1111111
vt 0.2912874 0.08333331
vt 0.3120936 0.08333331
vt 0.3328999 0.08333331

# Normal
vn 0 0 -1

# Mesh description
g BarangayMaugLeft_mesh_0004

# Faces
f 1/1/1 2/2/1 3/3/1 4/4/1
f 5/2/1 6/5/1 7/6/1 8/3/1
f 9/5/1 10/7/1 11/8/1 12/6/1
f 13/7/1 14/9/1 15/10/1 16/8/1
f 17/11/1 18/12/1 19/13/1 20/14/1
f 21/11/1 22/12/1 23/13/1 24/14/1
f 25/15/1 26/16/1 27/2/1 28/1/1
f 29/16/1 30/17/1 31/5/1 32/2/1
f 33/17/1 34/18/1 35/7/1 36/5/1
f 37/18/1 38/19/1 39/9/1 40/7/1
f 41/1/1 42/2/1 43/3/1 44/4/1
f 45/2/1 46/5/1 47/6/1 48/3/1
f 49/5/1 50/7/1 51/8/1 52/6/1
f 53/7/1 54/9/1 55/10/1 56/8/1
f 57/20/1 58/21/1 59/16/1 60/15/1
f 61/21/1 62/22/1 63/17/1 64/16/1
f 65/22/1 66/23/1 67/18/1 68/17/1
f 69/23/1 70/24/1 71/19/1 72/18/1
f 73/25/1 74/26/1 75/27/1 76/28/1
f 77/15/1 78/16/1 79/2/1 80/1/1
f 81/16/1 82/17/1 83/5/1 84/2/1
f 85/17/1 86/18/1 87/7/1 88/5/1
f 89/18/1 90/19/1 91/9/1 92/7/1
f 93/29/1 94/30/1 95/31/1 96/32/1
f 97/30/1 98/33/1 99/34/1 100/31/1
f 101/25/1 102/26/1 103/27/1 104/28/1
f 105/25/1 106/26/1 107/27/1 108/28/1
f 109/20/1 110/21/1 111/16/1 112/15/1
f 113/21/1 114/22/1 115/17/1 116/16/1
f 117/22/1 118/23/1 119/18/1 120/17/1
f 121/23/1 122/24/1 123/19/1 124/18/1
f 125/35/1 126/36/1 127/30/1 128/29/1
f 129/36/1 130/37/1 131/33/1 132/30/1
f 133/25/1 134/26/1 135/27/1 136/28/1
f 137/25/1 138/26/1 139/27/1 140/28/1
f 141/25/1 142/26/1 143/27/1 144/28/1
f 145/25/1 146/26/1 147/27/1 148/28/1
f 149/11/1 150/12/1 151/13/1 152/14/1
f 153/38/1 154/39/1 155/40/1 156/41/1
f 157/42/1 158/38/1 159/41/1 160/43/1
f 161/42/1 162/38/1 163/41/1 164/43/1
f 165/42/1 166/38/1 167/41/1 168/43/1
f 169/42/1 170/38/1 171/41/1 172/43/1
f 173/42/1 174/38/1 175/41/1 176/43/1
f 177/42/1 178/38/1 179/41/1 180/43/1
f 181/42/1 182/38/1 183/41/1 184/43/1
f 185/42/1 186/38/1 187/41/1 188/43/1
f 189/42/1 190/38/1 191/41/1 192/43/1
f 193/42/1 194/38/1 195/41/1 196/43/1
f 197/42/1 198/38/1 199/41/1 200/43/1
f 201/42/1 202/38/1 203/41/1 204/43/1
f 205/42/1 206/38/1 207/41/1 208/43/1
f 209/42/1 210/38/1 211/41/1 212/43/1
f 213/42/1 214/38/1 215/41/1 216/43/1
f 217/42/1 218/38/1 219/41/1 220/43/1
f 221/42/1 222/38/1 223/41/1 224/43/1
f 225/42/1 226/38/1 227/41/1 228/43/1
f 229/42/1 230/38/1 231/41/1 232/43/1
f 233/42/1 234/38/1 235/41/1 236/43/1
f 237/42/1 238/38/1 239/41/1 240/43/1
f 241/42/1 242/38/1 243/41/1 244/43/1
f 245/42/1 246/38/1 247/41/1 248/43/1
f 249/42/1 250/38/1 251/41/1 252/43/1
f 253/39/1 254/44/1 255/45/1 256/40/1
f 257/46/1 258/47/1 259/48/1 260/49/1
f 261/47/1 262/50/1 263/51/1 264/48/1
f 265/50/1 266/52/1 267/53/1 268/51/1
f 269/29/1 270/30/1 271/31/1 272/32/1
f 273/30/1 274/33/1 275/34/1 276/31/1
f 277/11/1 278/12/1 279/13/1 280/14/1
f 281/35/1 282/36/1 283/30/1 284/29/1
f 285/36/1 286/37/1 287/33/1 288/30/1
f 289/54/1 290/55/1 291/56/1 292/57/1
f 293/54/1 294/55/1 295/56/1 296/57/1
f 297/11/1 298/12/1 299/13/1 300/14/1
f 301/54/1 302/55/1 303/56/1 304/57/1
f 305/54/1 306/55/1 307/56/1 308/57/1
f 309/54/1 310/55/1 311/56/1 312/57/1
f 313/11/1 314/12/1 315/13/1 316/14/1
f 317/29/1 318/30/1 319/31/1 320/32/1
f 321/30/1 322/33/1 323/34/1 324/31/1
f 325/35/1 326/36/1 327/30/1 328/29/1
f 329/36/1 330/37/1 331/33/1 332/30/1
f 333/1/1 334/2/1 335/3/1 336/4/1
f 337/2/1 338/5/1 339/6/1 340/3/1
f 341/5/1 342/7/1 343/8/1 344/6/1
f 345/7/1 346/9/1 347/10/1 348/8/1
f 349/15/1 350/16/1 351/2/1 352/1/1
f 353/16/1 354/17/1 355/5/1 356/2/1
f 357/17/1 358/18/1 359/7/1 360/5/1
f 361/18/1 362/19/1 363/9/1 364/7/1
f 365/20/1 366/21/1 367/16/1 368/15/1
f 369/21/1 370/22/1 371/17/1 372/16/1
f 373/22/1 374/23/1 375/18/1 376/17/1
f 377/23/1 378/24/1 379/19/1 380/18/1
f 381/54/1 382/55/1 383/56/1 384/57/1
f 385/11/1 386/12/1 387/13/1 388/14/1
f 389/58/1 390/59/1 391/60/1 392/61/1
f 393/62/1 394/63/1 395/64/1 396/65/1
f 397/63/1 398/66/1 399/67/1 400/64/1
f 401/66/1 402/68/1 403/69/1 404/67/1
f 405/59/1 406/70/1 407/71/1 408/60/1
f 409/72/1 410/73/1 411/59/1 412/58/1
f 413/74/1 414/75/1 415/63/1 416/62/1
f 417/75/1 418/76/1 419/66/1 420/63/1
f 421/76/1 422/77/1 423/68/1 424/66/1
f 425/73/1 426/78/1 427/70/1 428/59/1
f 429/79/1 430/80/1 431/73/1 432/72/1
f 433/80/1 434/81/1 435/78/1 436/73/1
f 437/54/1 438/55/1 439/56/1 440/57/1
f 441/54/1 442/55/1 443/56/1 444/57/1
f 445/29/1 446/30/1 447/31/1 448/32/1
f 449/30/1 450/33/1 451/34/1 452/31/1
f 453/82/1 454/83/1 455/80/1 456/79/1
f 457/83/1 458/84/1 459/81/1 460/80/1
f 461/35/1 462/36/1 463/30/1 464/29/1
f 465/36/1 466/37/1 467/33/1 468/30/1
f 469/54/1 470/55/1 471/56/1 472/57/1
f 473/54/1 474/55/1 475/56/1 476/57/1
f 477/11/1 478/12/1 479/13/1 480/14/1
f 481/1/1 482/2/1 483/3/1 484/4/1
f 485/2/1 486/5/1 487/6/1 488/3/1
f 489/5/1 490/7/1 491/8/1 492/6/1
f 493/7/1 494/9/1 495/10/1 496/8/1
f 497/54/1 498/55/1 499/56/1 500/57/1
f 501/15/1 502/16/1 503/2/1 504/1/1
f 505/16/1 506/17/1 507/5/1 508/2/1
f 509/17/1 510/18/1 511/7/1 512/5/1
f 513/18/1 514/19/1 515/9/1 516/7/1
f 517/20/1 518/21/1 519/16/1 520/15/1
f 521/21/1 522/22/1 523/17/1 524/16/1
f 525/22/1 526/23/1 527/18/1 528/17/1
f 529/23/1 530/24/1 531/19/1 532/18/1
f 533/1/1 534/2/1 535/3/1 536/4/1
f 537/2/1 538/5/1 539/6/1 540/3/1
f 541/5/1 542/7/1 543/8/1 544/6/1
f 545/7/1 546/9/1 547/10/1 548/8/1
f 549/1/1 550/2/1 551/3/1 552/4/1
f 553/2/1 554/5/1 555/6/1 556/3/1
f 557/5/1 558/7/1 559/8/1 560/6/1
f 561/7/1 562/9/1 563/10/1 564/8/1
f 565/15/1 566/16/1 567/2/1 568/1/1
f 569/16/1 570/17/1 571/5/1 572/2/1
f 573/17/1 574/18/1 575/7/1 576/5/1
f 577/18/1 578/19/1 579/9/1 580/7/1
f 581/11/1 582/12/1 583/13/1 584/14/1
f 585/15/1 586/16/1 587/2/1 588/1/1
f 589/16/1 590/17/1 591/5/1 592/2/1
f 593/17/1 594/18/1 595/7/1 596/5/1
f 597/18/1 598/19/1 599/9/1 600/7/1
f 601/54/1 602/55/1 603/56/1 604/57/1
f 605/20/1 606/21/1 607/16/1 608/15/1
f 609/21/1 610/22/1 611/17/1 612/16/1
f 613/22/1 614/23/1 615/18/1 616/17/1
f 617/23/1 618/24/1 619/19/1 620/18/1
f 621/20/1 622/21/1 623/16/1 624/15/1
f 625/21/1 626/22/1 627/17/1 628/16/1
f 629/22/1 630/23/1 631/18/1 632/17/1
f 633/23/1 634/24/1 635/19/1 636/18/1
f 637/46/1 638/47/1 639/48/1 640/49/1
f 641/47/1 642/50/1 643/51/1 644/48/1
f 645/50/1 646/52/1 647/53/1 648/51/1
f 649/85/1 650/86/1 651/87/1 652/88/1
f 653/86/1 654/89/1 655/90/1 656/87/1
f 657/89/1 658/91/1 659/92/1 660/90/1
f 661/91/1 662/93/1 663/94/1 664/92/1
f 665/46/1 666/47/1 667/48/1 668/49/1
f 669/47/1 670/50/1 671/51/1 672/48/1
f 673/50/1 674/52/1 675/53/1 676/51/1
f 677/95/1 678/96/1 679/86/1 680/85/1
f 681/96/1 682/97/1 683/89/1 684/86/1
f 685/97/1 686/98/1 687/91/1 688/89/1
f 689/98/1 690/99/1 691/93/1 692/91/1
f 693/100/1 694/101/1 695/96/1 696/95/1
f 697/101/1 698/102/1 699/97/1 700/96/1
f 701/102/1 702/103/1 703/98/1 704/97/1
f 705/103/1 706/104/1 707/99/1 708/98/1
f 709/54/1 710/55/1 711/56/1 712/57/1
f 713/105/1 714/106/1 715/101/1 716/100/1
f 717/106/1 718/107/1 719/102/1 720/101/1
f 721/54/1 722/55/1 723/56/1 724/57/1
f 725/29/1 726/30/1 727/31/1 728/32/1
f 729/30/1 730/33/1 731/34/1 732/31/1
f 733/54/1 734/55/1 735/56/1 736/57/1
f 737/54/1 738/55/1 739/56/1 740/57/1
f 741/29/1 742/30/1 743/31/1 744/32/1
f 745/30/1 746/33/1 747/34/1 748/31/1
f 749/35/1 750/36/1 751/30/1 752/29/1
f 753/36/1 754/37/1 755/33/1 756/30/1
f 757/29/1 758/30/1 759/31/1 760/32/1
f 761/30/1 762/33/1 763/34/1 764/31/1
f 765/35/1 766/36/1 767/30/1 768/29/1
f 769/36/1 770/37/1 771/33/1 772/30/1
f 773/35/1 774/36/1 775/30/1 776/29/1
f 777/36/1 778/37/1 779/33/1 780/30/1

