# Tiled2Unity generated file. Do not modify by hand.
# Wavefront file for 'BarangayMaugLeft_mesh_0003.obj'

# Vertices (Count = 112)
v -37 -23 0
v -38 -23 0
v -38 -22 0
v -37 -22 0
v -38 -23 0
v -39 -23 0
v -39 -22 0
v -38 -22 0
v -39 -23 0
v -40 -23 0
v -40 -22 0
v -39 -22 0
v -40 -23 0
v -41 -23 0
v -41 -22 0
v -40 -22 0
v -41 -23 0
v -42 -23 0
v -42 -22 0
v -41 -22 0
v -42 -23 0
v -43 -23 0
v -43 -22 0
v -42 -22 0
v -43 -23 0
v -44 -23 0
v -44 -22 0
v -43 -22 0
v -37 -24 0
v -38 -24 0
v -38 -23 0
v -37 -23 0
v -38 -24 0
v -39 -24 0
v -39 -23 0
v -38 -23 0
v -39 -24 0
v -40 -24 0
v -40 -23 0
v -39 -23 0
v -40 -24 0
v -41 -24 0
v -41 -23 0
v -40 -23 0
v -41 -24 0
v -42 -24 0
v -42 -23 0
v -41 -23 0
v -42 -24 0
v -43 -24 0
v -43 -23 0
v -42 -23 0
v -43 -24 0
v -44 -24 0
v -44 -23 0
v -43 -23 0
v -20 -25 0
v -21 -25 0
v -21 -24 0
v -20 -24 0
v -21 -25 0
v -22 -25 0
v -22 -24 0
v -21 -24 0
v -22 -25 0
v -23 -25 0
v -23 -24 0
v -22 -24 0
v -23 -25 0
v -24 -25 0
v -24 -24 0
v -23 -24 0
v -24 -25 0
v -25 -25 0
v -25 -24 0
v -24 -24 0
v -25 -25 0
v -26 -25 0
v -26 -24 0
v -25 -24 0
v -26 -25 0
v -27 -25 0
v -27 -24 0
v -26 -24 0
v -20 -26 0
v -21 -26 0
v -21 -25 0
v -20 -25 0
v -21 -26 0
v -22 -26 0
v -22 -25 0
v -21 -25 0
v -22 -26 0
v -23 -26 0
v -23 -25 0
v -22 -25 0
v -23 -26 0
v -24 -26 0
v -24 -25 0
v -23 -25 0
v -24 -26 0
v -25 -26 0
v -25 -25 0
v -24 -25 0
v -25 -26 0
v -26 -26 0
v -26 -25 0
v -25 -25 0
v -26 -26 0
v -27 -26 0
v -27 -25 0
v -26 -25 0

# Texture cooridinates (Count = 48)
vt 0.1724138 0.05263156
vt 0.1896552 0.05263156
vt 0.1896552 0.07894737
vt 0.1724138 0.07894737
vt 0.2068966 0.05263156
vt 0.2068966 0.07894737
vt 0.2241379 0.05263156
vt 0.2241379 0.07894737
vt 0.2413793 0.05263156
vt 0.2413793 0.07894737
vt 0.2586207 0.05263156
vt 0.2586207 0.07894737
vt 0.2758621 0.05263156
vt 0.2758621 0.07894737
vt 0.2931035 0.05263156
vt 0.2931035 0.07894737
vt 0.1724138 0.02631581
vt 0.1896552 0.02631581
vt 0.2068966 0.02631581
vt 0.2241379 0.02631581
vt 0.2413793 0.02631581
vt 0.2586207 0.02631581
vt 0.2758621 0.02631581
vt 0.2931035 0.02631581
vt 0.2068966 0.7631579
vt 0.2241379 0.7631579
vt 0.2241379 0.7894737
vt 0.2068966 0.7894737
vt 0.2413793 0.7631579
vt 0.2413793 0.7894737
vt 0.2586207 0.7631579
vt 0.2586207 0.7894737
vt 0.2758621 0.7631579
vt 0.2758621 0.7894737
vt 0.2931035 0.7631579
vt 0.2931035 0.7894737
vt 0.3103448 0.7631579
vt 0.3103448 0.7894737
vt 0.3275862 0.7631579
vt 0.3275862 0.7894737
vt 0.2068966 0.7368421
vt 0.2241379 0.7368421
vt 0.2413793 0.7368421
vt 0.2586207 0.7368421
vt 0.2758621 0.7368421
vt 0.2931035 0.7368421
vt 0.3103448 0.7368421
vt 0.3275862 0.7368421

# Normal
vn 0 0 -1

# Mesh description
g BarangayMaugLeft_mesh_0003

# Faces
f 1/1/1 2/2/1 3/3/1 4/4/1
f 5/2/1 6/5/1 7/6/1 8/3/1
f 9/5/1 10/7/1 11/8/1 12/6/1
f 13/7/1 14/9/1 15/10/1 16/8/1
f 17/9/1 18/11/1 19/12/1 20/10/1
f 21/11/1 22/13/1 23/14/1 24/12/1
f 25/13/1 26/15/1 27/16/1 28/14/1
f 29/17/1 30/18/1 31/2/1 32/1/1
f 33/18/1 34/19/1 35/5/1 36/2/1
f 37/19/1 38/20/1 39/7/1 40/5/1
f 41/20/1 42/21/1 43/9/1 44/7/1
f 45/21/1 46/22/1 47/11/1 48/9/1
f 49/22/1 50/23/1 51/13/1 52/11/1
f 53/23/1 54/24/1 55/15/1 56/13/1
f 57/25/1 58/26/1 59/27/1 60/28/1
f 61/26/1 62/29/1 63/30/1 64/27/1
f 65/29/1 66/31/1 67/32/1 68/30/1
f 69/31/1 70/33/1 71/34/1 72/32/1
f 73/33/1 74/35/1 75/36/1 76/34/1
f 77/35/1 78/37/1 79/38/1 80/36/1
f 81/37/1 82/39/1 83/40/1 84/38/1
f 85/41/1 86/42/1 87/26/1 88/25/1
f 89/42/1 90/43/1 91/29/1 92/26/1
f 93/43/1 94/44/1 95/31/1 96/29/1
f 97/44/1 98/45/1 99/33/1 100/31/1
f 101/45/1 102/46/1 103/35/1 104/33/1
f 105/46/1 106/47/1 107/37/1 108/35/1
f 109/47/1 110/48/1 111/39/1 112/37/1

