# Tiled2Unity generated file. Do not modify by hand.
# Wavefront file for 'balangay_shrine_mesh_0004.obj'

# Vertices (Count = 288)
v -4 -3 0
v -5 -3 0
v -5 -2 0
v -4 -2 0
v -3 -3 0
v -4 -3 0
v -4 -2 0
v -3 -2 0
v -36 -4 0
v -37 -4 0
v -37 -3 0
v -36 -3 0
v -35 -4 0
v -36 -4 0
v -36 -3 0
v -35 -3 0
v -18 -4 0
v -19 -4 0
v -19 -3 0
v -18 -3 0
v -17 -4 0
v -18 -4 0
v -18 -3 0
v -17 -3 0
v -15 -4 0
v -16 -4 0
v -16 -3 0
v -15 -3 0
v -14 -4 0
v -15 -4 0
v -15 -3 0
v -14 -3 0
v -4 -6 0
v -5 -6 0
v -5 -5 0
v -4 -5 0
v -3 -6 0
v -4 -6 0
v -4 -5 0
v -3 -5 0
v -34 -7 0
v -35 -7 0
v -35 -6 0
v -34 -6 0
v -33 -7 0
v -34 -7 0
v -34 -6 0
v -33 -6 0
v -27 -7 0
v -28 -7 0
v -28 -6 0
v -27 -6 0
v -26 -7 0
v -27 -7 0
v -27 -6 0
v -26 -6 0
v -30 -8 0
v -31 -8 0
v -31 -7 0
v -30 -7 0
v -29 -8 0
v -30 -8 0
v -30 -7 0
v -29 -7 0
v -7 -8 0
v -8 -8 0
v -8 -7 0
v -7 -7 0
v -6 -8 0
v -7 -8 0
v -7 -7 0
v -6 -7 0
v -3 -9 0
v -4 -9 0
v -4 -8 0
v -3 -8 0
v -2 -9 0
v -3 -9 0
v -3 -8 0
v -2 -8 0
v -6 -10 0
v -7 -10 0
v -7 -9 0
v -6 -9 0
v -5 -10 0
v -6 -10 0
v -6 -9 0
v -5 -9 0
v -3 -12 0
v -4 -12 0
v -4 -11 0
v -3 -11 0
v -2 -12 0
v -3 -12 0
v -3 -11 0
v -2 -11 0
v -3 -15 0
v -4 -15 0
v -4 -14 0
v -3 -14 0
v -2 -15 0
v -3 -15 0
v -3 -14 0
v -2 -14 0
v -34 -16 0
v -35 -16 0
v -35 -15 0
v -34 -15 0
v -33 -16 0
v -34 -16 0
v -34 -15 0
v -33 -15 0
v -3 -18 0
v -4 -18 0
v -4 -17 0
v -3 -17 0
v -2 -18 0
v -3 -18 0
v -3 -17 0
v -2 -17 0
v -3 -21 0
v -4 -21 0
v -4 -20 0
v -3 -20 0
v -2 -21 0
v -3 -21 0
v -3 -20 0
v -2 -20 0
v -32 -22 0
v -33 -22 0
v -33 -21 0
v -32 -21 0
v -31 -22 0
v -32 -22 0
v -32 -21 0
v -31 -21 0
v -3 -24 0
v -4 -24 0
v -4 -23 0
v -3 -23 0
v -2 -24 0
v -3 -24 0
v -3 -23 0
v -2 -23 0
v -36 -25 0
v -37 -25 0
v -37 -24 0
v -36 -24 0
v -35 -25 0
v -36 -25 0
v -36 -24 0
v -35 -24 0
v -29 -25 0
v -30 -25 0
v -30 -24 0
v -29 -24 0
v -28 -25 0
v -29 -25 0
v -29 -24 0
v -28 -24 0
v -25 -25 0
v -26 -25 0
v -26 -24 0
v -25 -24 0
v -24 -25 0
v -25 -25 0
v -25 -24 0
v -24 -24 0
v -6 -25 0
v -7 -25 0
v -7 -24 0
v -6 -24 0
v -5 -25 0
v -6 -25 0
v -6 -24 0
v -5 -24 0
v -10 -32 0
v -11 -32 0
v -11 -31 0
v -10 -31 0
v -9 -32 0
v -10 -32 0
v -10 -31 0
v -9 -31 0
v -3 -33 0
v -4 -33 0
v -4 -32 0
v -3 -32 0
v -2 -33 0
v -3 -33 0
v -3 -32 0
v -2 -32 0
v -3 -36 0
v -4 -36 0
v -4 -35 0
v -3 -35 0
v -2 -36 0
v -3 -36 0
v -3 -35 0
v -2 -35 0
v -34 -37 0
v -35 -37 0
v -35 -36 0
v -34 -36 0
v -33 -37 0
v -34 -37 0
v -34 -36 0
v -33 -36 0
v -28 -39 0
v -29 -39 0
v -29 -38 0
v -28 -38 0
v -27 -39 0
v -28 -39 0
v -28 -38 0
v -27 -38 0
v -23 -39 0
v -24 -39 0
v -24 -38 0
v -23 -38 0
v -22 -39 0
v -23 -39 0
v -23 -38 0
v -22 -38 0
v -3 -39 0
v -4 -39 0
v -4 -38 0
v -3 -38 0
v -2 -39 0
v -3 -39 0
v -3 -38 0
v -2 -38 0
v -3 -42 0
v -4 -42 0
v -4 -41 0
v -3 -41 0
v -2 -42 0
v -3 -42 0
v -3 -41 0
v -2 -41 0
v -23 -45 0
v -24 -45 0
v -24 -44 0
v -23 -44 0
v -22 -45 0
v -23 -45 0
v -23 -44 0
v -22 -44 0
v -3 -45 0
v -4 -45 0
v -4 -44 0
v -3 -44 0
v -2 -45 0
v -3 -45 0
v -3 -44 0
v -2 -44 0
v -37 -49 0
v -38 -49 0
v -38 -48 0
v -37 -48 0
v -36 -49 0
v -37 -49 0
v -37 -48 0
v -36 -48 0
v -13 -49 0
v -14 -49 0
v -14 -48 0
v -13 -48 0
v -12 -49 0
v -13 -49 0
v -13 -48 0
v -12 -48 0
v -8 -49 0
v -9 -49 0
v -9 -48 0
v -8 -48 0
v -7 -49 0
v -8 -49 0
v -8 -48 0
v -7 -48 0
v -4 -49 0
v -5 -49 0
v -5 -48 0
v -4 -48 0
v -3 -49 0
v -4 -49 0
v -4 -48 0
v -3 -48 0

# Texture cooridinates (Count = 40)
vt 0.04173455 0.0001220703
vt 0.06229666 0.0001220703
vt 0.06229666 0.02765572
vt 0.04173455 0.02765572
vt 0.02092831 0.0001220703
vt 0.04149041 0.0001220703
vt 0.04149041 0.02765572
vt 0.02092831 0.02765572
vt 0.1249595 0.5001221
vt 0.1455216 0.5001221
vt 0.1455216 0.5276557
vt 0.1249595 0.5276557
vt 0.1041533 0.5001221
vt 0.1247154 0.5001221
vt 0.1247154 0.5276557
vt 0.1041533 0.5276557
vt 0.8323718 0.4445665
vt 0.8529338 0.4445665
vt 0.8529338 0.4721001
vt 0.8323718 0.4721001
vt 0.8115655 0.4445665
vt 0.8321276 0.4445665
vt 0.8321276 0.4721001
vt 0.8115655 0.4721001
vt 0.936403 0.4445665
vt 0.956965 0.4445665
vt 0.956965 0.4721001
vt 0.936403 0.4721001
vt 0.9155967 0.4445665
vt 0.9361588 0.4445665
vt 0.9361588 0.4721001
vt 0.9155967 0.4721001
vt 0.3330219 0.08345538
vt 0.3535841 0.08345538
vt 0.3535841 0.110989
vt 0.3330219 0.110989
vt 0.3122157 0.08345538
vt 0.3327778 0.08345538
vt 0.3327778 0.110989
vt 0.3122157 0.110989

# Normal
vn 0 0 -1

# Mesh description
g balangay_shrine_mesh_0004

# Faces
f 1/1/1 2/2/1 3/3/1 4/4/1
f 5/5/1 6/6/1 7/7/1 8/8/1
f 9/1/1 10/2/1 11/3/1 12/4/1
f 13/5/1 14/6/1 15/7/1 16/8/1
f 17/9/1 18/10/1 19/11/1 20/12/1
f 21/13/1 22/14/1 23/15/1 24/16/1
f 25/17/1 26/18/1 27/19/1 28/20/1
f 29/21/1 30/22/1 31/23/1 32/24/1
f 33/25/1 34/26/1 35/27/1 36/28/1
f 37/29/1 38/30/1 39/31/1 40/32/1
f 41/1/1 42/2/1 43/3/1 44/4/1
f 45/5/1 46/6/1 47/7/1 48/8/1
f 49/17/1 50/18/1 51/19/1 52/20/1
f 53/21/1 54/22/1 55/23/1 56/24/1
f 57/9/1 58/10/1 59/11/1 60/12/1
f 61/13/1 62/14/1 63/15/1 64/16/1
f 65/17/1 66/18/1 67/19/1 68/20/1
f 69/21/1 70/22/1 71/23/1 72/24/1
f 73/25/1 74/26/1 75/27/1 76/28/1
f 77/29/1 78/30/1 79/31/1 80/32/1
f 81/9/1 82/10/1 83/11/1 84/12/1
f 85/13/1 86/14/1 87/15/1 88/16/1
f 89/25/1 90/26/1 91/27/1 92/28/1
f 93/29/1 94/30/1 95/31/1 96/32/1
f 97/25/1 98/26/1 99/27/1 100/28/1
f 101/29/1 102/30/1 103/31/1 104/32/1
f 105/33/1 106/34/1 107/35/1 108/36/1
f 109/37/1 110/38/1 111/39/1 112/40/1
f 113/25/1 114/26/1 115/27/1 116/28/1
f 117/29/1 118/30/1 119/31/1 120/32/1
f 121/25/1 122/26/1 123/27/1 124/28/1
f 125/29/1 126/30/1 127/31/1 128/32/1
f 129/17/1 130/18/1 131/19/1 132/20/1
f 133/21/1 134/22/1 135/23/1 136/24/1
f 137/25/1 138/26/1 139/27/1 140/28/1
f 141/29/1 142/30/1 143/31/1 144/32/1
f 145/33/1 146/34/1 147/35/1 148/36/1
f 149/37/1 150/38/1 151/39/1 152/40/1
f 153/9/1 154/10/1 155/11/1 156/12/1
f 157/13/1 158/14/1 159/15/1 160/16/1
f 161/17/1 162/18/1 163/19/1 164/20/1
f 165/21/1 166/22/1 167/23/1 168/24/1
f 169/9/1 170/10/1 171/11/1 172/12/1
f 173/13/1 174/14/1 175/15/1 176/16/1
f 177/33/1 178/34/1 179/35/1 180/36/1
f 181/37/1 182/38/1 183/39/1 184/40/1
f 185/25/1 186/26/1 187/27/1 188/28/1
f 189/29/1 190/30/1 191/31/1 192/32/1
f 193/25/1 194/26/1 195/27/1 196/28/1
f 197/29/1 198/30/1 199/31/1 200/32/1
f 201/17/1 202/18/1 203/19/1 204/20/1
f 205/21/1 206/22/1 207/23/1 208/24/1
f 209/17/1 210/18/1 211/19/1 212/20/1
f 213/21/1 214/22/1 215/23/1 216/24/1
f 217/33/1 218/34/1 219/35/1 220/36/1
f 221/37/1 222/38/1 223/39/1 224/40/1
f 225/25/1 226/26/1 227/27/1 228/28/1
f 229/29/1 230/30/1 231/31/1 232/32/1
f 233/25/1 234/26/1 235/27/1 236/28/1
f 237/29/1 238/30/1 239/31/1 240/32/1
f 241/17/1 242/18/1 243/19/1 244/20/1
f 245/21/1 246/22/1 247/23/1 248/24/1
f 249/25/1 250/26/1 251/27/1 252/28/1
f 253/29/1 254/30/1 255/31/1 256/32/1
f 257/1/1 258/2/1 259/3/1 260/4/1
f 261/5/1 262/6/1 263/7/1 264/8/1
f 265/33/1 266/34/1 267/35/1 268/36/1
f 269/37/1 270/38/1 271/39/1 272/40/1
f 273/9/1 274/10/1 275/11/1 276/12/1
f 277/13/1 278/14/1 279/15/1 280/16/1
f 281/1/1 282/2/1 283/3/1 284/4/1
f 285/5/1 286/6/1 287/7/1 288/8/1

