# Tiled2Unity generated file. Do not modify by hand.
# Wavefront file for 'balangay_shrine_mesh_0003.obj'

# Vertices (Count = 36)
v -2 -27 0
v -3 -27 0
v -3 -26 0
v -2 -26 0
v -1 -27 0
v -2 -27 0
v -2 -26 0
v -1 -26 0
v 0 -27 0
v -1 -27 0
v -1 -26 0
v 0 -26 0
v -2 -28 0
v -3 -28 0
v -3 -27 0
v -2 -27 0
v -1 -28 0
v -2 -28 0
v -2 -27 0
v -1 -27 0
v 0 -28 0
v -1 -28 0
v -1 -27 0
v 0 -27 0
v -2 -29 0
v -3 -29 0
v -3 -28 0
v -2 -28 0
v -1 -29 0
v -2 -29 0
v -2 -28 0
v -1 -28 0
v 0 -29 0
v -1 -29 0
v -1 -28 0
v 0 -28 0

# Texture cooridinates (Count = 24)
vt 0.2081845 0.8056777
vt 0.2287466 0.8056777
vt 0.2287466 0.8332112
vt 0.2081845 0.8332112
vt 0.1873782 0.8056777
vt 0.2079404 0.8056777
vt 0.2079404 0.8332112
vt 0.1873782 0.8332112
vt 0.2081845 0.7778999
vt 0.2287466 0.7778999
vt 0.2287466 0.8054335
vt 0.2081845 0.8054335
vt 0.1873782 0.7778999
vt 0.2079404 0.7778999
vt 0.2079404 0.8054335
vt 0.1873782 0.8054335
vt 0.2081845 0.7501221
vt 0.2287466 0.7501221
vt 0.2287466 0.7776557
vt 0.2081845 0.7776557
vt 0.1873782 0.7501221
vt 0.2079404 0.7501221
vt 0.2079404 0.7776557
vt 0.1873782 0.7776557

# Normal
vn 0 0 -1

# Mesh description
g balangay_shrine_mesh_0003

# Faces
f 1/1/1 2/2/1 3/3/1 4/4/1
f 5/5/1 6/6/1 7/7/1 8/8/1
f 9/5/1 10/6/1 11/7/1 12/8/1
f 13/9/1 14/10/1 15/11/1 16/12/1
f 17/13/1 18/14/1 19/15/1 20/16/1
f 21/13/1 22/14/1 23/15/1 24/16/1
f 25/17/1 26/18/1 27/19/1 28/20/1
f 29/21/1 30/22/1 31/23/1 32/24/1
f 33/21/1 34/22/1 35/23/1 36/24/1

