# Tiled2Unity generated file. Do not modify by hand.
# Wavefront file for 'SiladExtension_mesh_0003.obj'

# Vertices (Count = 144)
v -16 -18 0
v -17 -18 0
v -17 -17 0
v -16 -17 0
v -17 -18 0
v -18 -18 0
v -18 -17 0
v -17 -17 0
v -18 -18 0
v -19 -18 0
v -19 -17 0
v -18 -17 0
v -19 -18 0
v -20 -18 0
v -20 -17 0
v -19 -17 0
v -20 -18 0
v -21 -18 0
v -21 -17 0
v -20 -17 0
v -21 -18 0
v -22 -18 0
v -22 -17 0
v -21 -17 0
v -22 -18 0
v -23 -18 0
v -23 -17 0
v -22 -17 0
v -23 -18 0
v -24 -18 0
v -24 -17 0
v -23 -17 0
v -24 -18 0
v -25 -18 0
v -25 -17 0
v -24 -17 0
v -16 -19 0
v -17 -19 0
v -17 -18 0
v -16 -18 0
v -17 -19 0
v -18 -19 0
v -18 -18 0
v -17 -18 0
v -18 -19 0
v -19 -19 0
v -19 -18 0
v -18 -18 0
v -19 -19 0
v -20 -19 0
v -20 -18 0
v -19 -18 0
v -20 -19 0
v -21 -19 0
v -21 -18 0
v -20 -18 0
v -21 -19 0
v -22 -19 0
v -22 -18 0
v -21 -18 0
v -22 -19 0
v -23 -19 0
v -23 -18 0
v -22 -18 0
v -23 -19 0
v -24 -19 0
v -24 -18 0
v -23 -18 0
v -24 -19 0
v -25 -19 0
v -25 -18 0
v -24 -18 0
v -24 -45 0
v -25 -45 0
v -25 -44 0
v -24 -44 0
v -25 -45 0
v -26 -45 0
v -26 -44 0
v -25 -44 0
v -26 -45 0
v -27 -45 0
v -27 -44 0
v -26 -44 0
v -27 -45 0
v -28 -45 0
v -28 -44 0
v -27 -44 0
v -28 -45 0
v -29 -45 0
v -29 -44 0
v -28 -44 0
v -29 -45 0
v -30 -45 0
v -30 -44 0
v -29 -44 0
v -30 -45 0
v -31 -45 0
v -31 -44 0
v -30 -44 0
v -31 -45 0
v -32 -45 0
v -32 -44 0
v -31 -44 0
v -32 -45 0
v -33 -45 0
v -33 -44 0
v -32 -44 0
v -24 -46 0
v -25 -46 0
v -25 -45 0
v -24 -45 0
v -25 -46 0
v -26 -46 0
v -26 -45 0
v -25 -45 0
v -26 -46 0
v -27 -46 0
v -27 -45 0
v -26 -45 0
v -27 -46 0
v -28 -46 0
v -28 -45 0
v -27 -45 0
v -28 -46 0
v -29 -46 0
v -29 -45 0
v -28 -45 0
v -29 -46 0
v -30 -46 0
v -30 -45 0
v -29 -45 0
v -30 -46 0
v -31 -46 0
v -31 -45 0
v -30 -45 0
v -31 -46 0
v -32 -46 0
v -32 -45 0
v -31 -45 0
v -32 -46 0
v -33 -46 0
v -33 -45 0
v -32 -45 0

# Texture cooridinates (Count = 30)
vt 0.01724138 0.3157895
vt 0.03448276 0.3157895
vt 0.03448276 0.3421053
vt 0.01724138 0.3421053
vt 0.05172414 0.3157895
vt 0.05172414 0.3421053
vt 0.06896552 0.3157895
vt 0.06896552 0.3421053
vt 0.0862069 0.3157895
vt 0.0862069 0.3421053
vt 0.1034483 0.3157895
vt 0.1034483 0.3421053
vt 0.1206897 0.3157895
vt 0.1206897 0.3421053
vt 0.137931 0.3157895
vt 0.137931 0.3421053
vt 0.1551724 0.3157895
vt 0.1551724 0.3421053
vt 0.1724138 0.3157895
vt 0.1724138 0.3421053
vt 0.01724138 0.2894737
vt 0.03448276 0.2894737
vt 0.05172414 0.2894737
vt 0.06896552 0.2894737
vt 0.0862069 0.2894737
vt 0.1034483 0.2894737
vt 0.1206897 0.2894737
vt 0.137931 0.2894737
vt 0.1551724 0.2894737
vt 0.1724138 0.2894737

# Normal
vn 0 0 -1

# Mesh description
g SiladExtension_mesh_0003

# Faces
f 1/1/1 2/2/1 3/3/1 4/4/1
f 5/2/1 6/5/1 7/6/1 8/3/1
f 9/5/1 10/7/1 11/8/1 12/6/1
f 13/7/1 14/9/1 15/10/1 16/8/1
f 17/9/1 18/11/1 19/12/1 20/10/1
f 21/11/1 22/13/1 23/14/1 24/12/1
f 25/13/1 26/15/1 27/16/1 28/14/1
f 29/15/1 30/17/1 31/18/1 32/16/1
f 33/17/1 34/19/1 35/20/1 36/18/1
f 37/21/1 38/22/1 39/2/1 40/1/1
f 41/22/1 42/23/1 43/5/1 44/2/1
f 45/23/1 46/24/1 47/7/1 48/5/1
f 49/24/1 50/25/1 51/9/1 52/7/1
f 53/25/1 54/26/1 55/11/1 56/9/1
f 57/26/1 58/27/1 59/13/1 60/11/1
f 61/27/1 62/28/1 63/15/1 64/13/1
f 65/28/1 66/29/1 67/17/1 68/15/1
f 69/29/1 70/30/1 71/19/1 72/17/1
f 73/1/1 74/2/1 75/3/1 76/4/1
f 77/2/1 78/5/1 79/6/1 80/3/1
f 81/5/1 82/7/1 83/8/1 84/6/1
f 85/7/1 86/9/1 87/10/1 88/8/1
f 89/9/1 90/11/1 91/12/1 92/10/1
f 93/11/1 94/13/1 95/14/1 96/12/1
f 97/13/1 98/15/1 99/16/1 100/14/1
f 101/15/1 102/17/1 103/18/1 104/16/1
f 105/17/1 106/19/1 107/20/1 108/18/1
f 109/21/1 110/22/1 111/2/1 112/1/1
f 113/22/1 114/23/1 115/5/1 116/2/1
f 117/23/1 118/24/1 119/7/1 120/5/1
f 121/24/1 122/25/1 123/9/1 124/7/1
f 125/25/1 126/26/1 127/11/1 128/9/1
f 129/26/1 130/27/1 131/13/1 132/11/1
f 133/27/1 134/28/1 135/15/1 136/13/1
f 137/28/1 138/29/1 139/17/1 140/15/1
f 141/29/1 142/30/1 143/19/1 144/17/1

