# Tiled2Unity generated file. Do not modify by hand.
# Wavefront file for 'Tiniwisan-road_mesh_0005.obj'

# Vertices (Count = 84)
v -46 -48 0
v -47 -48 0
v -47 -47 0
v -46 -47 0
v -45 -48 0
v -46 -48 0
v -46 -47 0
v -45 -47 0
v -44 -48 0
v -45 -48 0
v -45 -47 0
v -44 -47 0
v -43 -48 0
v -44 -48 0
v -44 -47 0
v -43 -47 0
v -42 -48 0
v -43 -48 0
v -43 -47 0
v -42 -47 0
v -41 -48 0
v -42 -48 0
v -42 -47 0
v -41 -47 0
v -40 -48 0
v -41 -48 0
v -41 -47 0
v -40 -47 0
v -46 -49 0
v -47 -49 0
v -47 -48 0
v -46 -48 0
v -45 -49 0
v -46 -49 0
v -46 -48 0
v -45 -48 0
v -44 -49 0
v -45 -49 0
v -45 -48 0
v -44 -48 0
v -43 -49 0
v -44 -49 0
v -44 -48 0
v -43 -48 0
v -42 -49 0
v -43 -49 0
v -43 -48 0
v -42 -48 0
v -41 -49 0
v -42 -49 0
v -42 -48 0
v -41 -48 0
v -40 -49 0
v -41 -49 0
v -41 -48 0
v -40 -48 0
v -46 -50 0
v -47 -50 0
v -47 -49 0
v -46 -49 0
v -45 -50 0
v -46 -50 0
v -46 -49 0
v -45 -49 0
v -44 -50 0
v -45 -50 0
v -45 -49 0
v -44 -49 0
v -43 -50 0
v -44 -50 0
v -44 -49 0
v -43 -49 0
v -42 -50 0
v -43 -50 0
v -43 -49 0
v -42 -49 0
v -41 -50 0
v -42 -50 0
v -42 -49 0
v -41 -49 0
v -40 -50 0
v -41 -50 0
v -41 -49 0
v -40 -49 0

# Texture cooridinates (Count = 32)
vt 0.637931 0.8157895
vt 0.6551724 0.8157895
vt 0.6551724 0.8421053
vt 0.637931 0.8421053
vt 0.6206896 0.8157895
vt 0.6206896 0.8421053
vt 0.6034483 0.8157895
vt 0.6034483 0.8421053
vt 0.5862069 0.8157895
vt 0.5862069 0.8421053
vt 0.5689655 0.8157895
vt 0.5689655 0.8421053
vt 0.5517241 0.8157895
vt 0.5517241 0.8421053
vt 0.5344828 0.8157895
vt 0.5344828 0.8421053
vt 0.637931 0.7894737
vt 0.6551724 0.7894737
vt 0.6206896 0.7894737
vt 0.6034483 0.7894737
vt 0.5862069 0.7894737
vt 0.5689655 0.7894737
vt 0.5517241 0.7894737
vt 0.5344828 0.7894737
vt 0.637931 0.7631579
vt 0.6551724 0.7631579
vt 0.6206896 0.7631579
vt 0.6034483 0.7631579
vt 0.5862069 0.7631579
vt 0.5689655 0.7631579
vt 0.5517241 0.7631579
vt 0.5344828 0.7631579

# Normal
vn 0 0 -1

# Mesh description
g Tiniwisan-road_mesh_0005

# Faces
f 1/1/1 2/2/1 3/3/1 4/4/1
f 5/5/1 6/1/1 7/4/1 8/6/1
f 9/7/1 10/5/1 11/6/1 12/8/1
f 13/9/1 14/7/1 15/8/1 16/10/1
f 17/11/1 18/9/1 19/10/1 20/12/1
f 21/13/1 22/11/1 23/12/1 24/14/1
f 25/15/1 26/13/1 27/14/1 28/16/1
f 29/17/1 30/18/1 31/2/1 32/1/1
f 33/19/1 34/17/1 35/1/1 36/5/1
f 37/20/1 38/19/1 39/5/1 40/7/1
f 41/21/1 42/20/1 43/7/1 44/9/1
f 45/22/1 46/21/1 47/9/1 48/11/1
f 49/23/1 50/22/1 51/11/1 52/13/1
f 53/24/1 54/23/1 55/13/1 56/15/1
f 57/25/1 58/26/1 59/18/1 60/17/1
f 61/27/1 62/25/1 63/17/1 64/19/1
f 65/28/1 66/27/1 67/19/1 68/20/1
f 69/29/1 70/28/1 71/20/1 72/21/1
f 73/30/1 74/29/1 75/21/1 76/22/1
f 77/31/1 78/30/1 79/22/1 80/23/1
f 81/32/1 82/31/1 83/23/1 84/24/1

