# Tiled2Unity generated file. Do not modify by hand.
# Wavefront file for 'TaasCityHall_mesh_0004.obj'

# Vertices (Count = 448)
v -58 -12 0
v -59 -12 0
v -59 -11 0
v -58 -11 0
v -57 -12 0
v -58 -12 0
v -58 -11 0
v -57 -11 0
v -56 -12 0
v -57 -12 0
v -57 -11 0
v -56 -11 0
v -55 -12 0
v -56 -12 0
v -56 -11 0
v -55 -11 0
v -54 -12 0
v -55 -12 0
v -55 -11 0
v -54 -11 0
v -53 -12 0
v -54 -12 0
v -54 -11 0
v -53 -11 0
v -52 -12 0
v -53 -12 0
v -53 -11 0
v -52 -11 0
v -58 -13 0
v -59 -13 0
v -59 -12 0
v -58 -12 0
v -57 -13 0
v -58 -13 0
v -58 -12 0
v -57 -12 0
v -56 -13 0
v -57 -13 0
v -57 -12 0
v -56 -12 0
v -55 -13 0
v -56 -13 0
v -56 -12 0
v -55 -12 0
v -54 -13 0
v -55 -13 0
v -55 -12 0
v -54 -12 0
v -53 -13 0
v -54 -13 0
v -54 -12 0
v -53 -12 0
v -52 -13 0
v -53 -13 0
v -53 -12 0
v -52 -12 0
v -58 -14 0
v -59 -14 0
v -59 -13 0
v -58 -13 0
v -57 -14 0
v -58 -14 0
v -58 -13 0
v -57 -13 0
v -56 -14 0
v -57 -14 0
v -57 -13 0
v -56 -13 0
v -55 -14 0
v -56 -14 0
v -56 -13 0
v -55 -13 0
v -54 -14 0
v -55 -14 0
v -55 -13 0
v -54 -13 0
v -53 -14 0
v -54 -14 0
v -54 -13 0
v -53 -13 0
v -52 -14 0
v -53 -14 0
v -53 -13 0
v -52 -13 0
v -58 -15 0
v -59 -15 0
v -59 -14 0
v -58 -14 0
v -57 -15 0
v -58 -15 0
v -58 -14 0
v -57 -14 0
v -56 -15 0
v -57 -15 0
v -57 -14 0
v -56 -14 0
v -55 -15 0
v -56 -15 0
v -56 -14 0
v -55 -14 0
v -54 -15 0
v -55 -15 0
v -55 -14 0
v -54 -14 0
v -53 -15 0
v -54 -15 0
v -54 -14 0
v -53 -14 0
v -52 -15 0
v -53 -15 0
v -53 -14 0
v -52 -14 0
v -6 -25 0
v -7 -25 0
v -7 -24 0
v -6 -24 0
v -5 -25 0
v -6 -25 0
v -6 -24 0
v -5 -24 0
v -4 -25 0
v -5 -25 0
v -5 -24 0
v -4 -24 0
v -3 -25 0
v -4 -25 0
v -4 -24 0
v -3 -24 0
v -2 -25 0
v -3 -25 0
v -3 -24 0
v -2 -24 0
v -1 -25 0
v -2 -25 0
v -2 -24 0
v -1 -24 0
v 0 -25 0
v -1 -25 0
v -1 -24 0
v 0 -24 0
v -6 -26 0
v -7 -26 0
v -7 -25 0
v -6 -25 0
v -5 -26 0
v -6 -26 0
v -6 -25 0
v -5 -25 0
v -4 -26 0
v -5 -26 0
v -5 -25 0
v -4 -25 0
v -3 -26 0
v -4 -26 0
v -4 -25 0
v -3 -25 0
v -2 -26 0
v -3 -26 0
v -3 -25 0
v -2 -25 0
v -1 -26 0
v -2 -26 0
v -2 -25 0
v -1 -25 0
v 0 -26 0
v -1 -26 0
v -1 -25 0
v 0 -25 0
v -6 -27 0
v -7 -27 0
v -7 -26 0
v -6 -26 0
v -5 -27 0
v -6 -27 0
v -6 -26 0
v -5 -26 0
v -4 -27 0
v -5 -27 0
v -5 -26 0
v -4 -26 0
v -3 -27 0
v -4 -27 0
v -4 -26 0
v -3 -26 0
v -2 -27 0
v -3 -27 0
v -3 -26 0
v -2 -26 0
v -1 -27 0
v -2 -27 0
v -2 -26 0
v -1 -26 0
v 0 -27 0
v -1 -27 0
v -1 -26 0
v 0 -26 0
v -35 -28 0
v -36 -28 0
v -36 -27 0
v -35 -27 0
v -34 -28 0
v -35 -28 0
v -35 -27 0
v -34 -27 0
v -33 -28 0
v -34 -28 0
v -34 -27 0
v -33 -27 0
v -32 -28 0
v -33 -28 0
v -33 -27 0
v -32 -27 0
v -31 -28 0
v -32 -28 0
v -32 -27 0
v -31 -27 0
v -30 -28 0
v -31 -28 0
v -31 -27 0
v -30 -27 0
v -29 -28 0
v -30 -28 0
v -30 -27 0
v -29 -27 0
v -6 -28 0
v -7 -28 0
v -7 -27 0
v -6 -27 0
v -5 -28 0
v -6 -28 0
v -6 -27 0
v -5 -27 0
v -4 -28 0
v -5 -28 0
v -5 -27 0
v -4 -27 0
v -3 -28 0
v -4 -28 0
v -4 -27 0
v -3 -27 0
v -2 -28 0
v -3 -28 0
v -3 -27 0
v -2 -27 0
v -1 -28 0
v -2 -28 0
v -2 -27 0
v -1 -27 0
v 0 -28 0
v -1 -28 0
v -1 -27 0
v 0 -27 0
v -35 -29 0
v -36 -29 0
v -36 -28 0
v -35 -28 0
v -34 -29 0
v -35 -29 0
v -35 -28 0
v -34 -28 0
v -33 -29 0
v -34 -29 0
v -34 -28 0
v -33 -28 0
v -32 -29 0
v -33 -29 0
v -33 -28 0
v -32 -28 0
v -31 -29 0
v -32 -29 0
v -32 -28 0
v -31 -28 0
v -30 -29 0
v -31 -29 0
v -31 -28 0
v -30 -28 0
v -29 -29 0
v -30 -29 0
v -30 -28 0
v -29 -28 0
v -35 -30 0
v -36 -30 0
v -36 -29 0
v -35 -29 0
v -34 -30 0
v -35 -30 0
v -35 -29 0
v -34 -29 0
v -33 -30 0
v -34 -30 0
v -34 -29 0
v -33 -29 0
v -32 -30 0
v -33 -30 0
v -33 -29 0
v -32 -29 0
v -31 -30 0
v -32 -30 0
v -32 -29 0
v -31 -29 0
v -30 -30 0
v -31 -30 0
v -31 -29 0
v -30 -29 0
v -29 -30 0
v -30 -30 0
v -30 -29 0
v -29 -29 0
v -35 -31 0
v -36 -31 0
v -36 -30 0
v -35 -30 0
v -34 -31 0
v -35 -31 0
v -35 -30 0
v -34 -30 0
v -33 -31 0
v -34 -31 0
v -34 -30 0
v -33 -30 0
v -32 -31 0
v -33 -31 0
v -33 -30 0
v -32 -30 0
v -31 -31 0
v -32 -31 0
v -32 -30 0
v -31 -30 0
v -30 -31 0
v -31 -31 0
v -31 -30 0
v -30 -30 0
v -29 -31 0
v -30 -31 0
v -30 -30 0
v -29 -30 0
v -20 -54 0
v -21 -54 0
v -21 -53 0
v -20 -53 0
v -19 -54 0
v -20 -54 0
v -20 -53 0
v -19 -53 0
v -18 -54 0
v -19 -54 0
v -19 -53 0
v -18 -53 0
v -17 -54 0
v -18 -54 0
v -18 -53 0
v -17 -53 0
v -16 -54 0
v -17 -54 0
v -17 -53 0
v -16 -53 0
v -15 -54 0
v -16 -54 0
v -16 -53 0
v -15 -53 0
v -14 -54 0
v -15 -54 0
v -15 -53 0
v -14 -53 0
v -20 -55 0
v -21 -55 0
v -21 -54 0
v -20 -54 0
v -19 -55 0
v -20 -55 0
v -20 -54 0
v -19 -54 0
v -18 -55 0
v -19 -55 0
v -19 -54 0
v -18 -54 0
v -17 -55 0
v -18 -55 0
v -18 -54 0
v -17 -54 0
v -16 -55 0
v -17 -55 0
v -17 -54 0
v -16 -54 0
v -15 -55 0
v -16 -55 0
v -16 -54 0
v -15 -54 0
v -14 -55 0
v -15 -55 0
v -15 -54 0
v -14 -54 0
v -20 -56 0
v -21 -56 0
v -21 -55 0
v -20 -55 0
v -19 -56 0
v -20 -56 0
v -20 -55 0
v -19 -55 0
v -18 -56 0
v -19 -56 0
v -19 -55 0
v -18 -55 0
v -17 -56 0
v -18 -56 0
v -18 -55 0
v -17 -55 0
v -16 -56 0
v -17 -56 0
v -17 -55 0
v -16 -55 0
v -15 -56 0
v -16 -56 0
v -16 -55 0
v -15 -55 0
v -14 -56 0
v -15 -56 0
v -15 -55 0
v -14 -55 0
v -20 -57 0
v -21 -57 0
v -21 -56 0
v -20 -56 0
v -19 -57 0
v -20 -57 0
v -20 -56 0
v -19 -56 0
v -18 -57 0
v -19 -57 0
v -19 -56 0
v -18 -56 0
v -17 -57 0
v -18 -57 0
v -18 -56 0
v -17 -56 0
v -16 -57 0
v -17 -57 0
v -17 -56 0
v -16 -56 0
v -15 -57 0
v -16 -57 0
v -16 -56 0
v -15 -56 0
v -14 -57 0
v -15 -57 0
v -15 -56 0
v -14 -56 0

# Texture cooridinates (Count = 224)
vt 0.3068313 0.9474905
vt 0.3236266 0.9474905
vt 0.3236266 0.9735621
vt 0.3068313 0.9735621
vt 0.2897919 0.9474905
vt 0.3065872 0.9474905
vt 0.3065872 0.9735621
vt 0.2897919 0.9735621
vt 0.2727525 0.9474905
vt 0.2895478 0.9474905
vt 0.2895478 0.9735621
vt 0.2727525 0.9735621
vt 0.2557131 0.9474905
vt 0.2725084 0.9474905
vt 0.2725084 0.9735621
vt 0.2557131 0.9735621
vt 0.2386737 0.9474905
vt 0.255469 0.9474905
vt 0.255469 0.9735621
vt 0.2386737 0.9735621
vt 0.2216343 0.9474905
vt 0.2384296 0.9474905
vt 0.2384296 0.9735621
vt 0.2216343 0.9735621
vt 0.2045949 0.9474905
vt 0.2213902 0.9474905
vt 0.2213902 0.9735621
vt 0.2045949 0.9735621
vt 0.3068313 0.9211747
vt 0.3236266 0.9211747
vt 0.3236266 0.9472464
vt 0.3068313 0.9472464
vt 0.2897919 0.9211747
vt 0.3065872 0.9211747
vt 0.3065872 0.9472464
vt 0.2897919 0.9472464
vt 0.2727525 0.9211747
vt 0.2895478 0.9211747
vt 0.2895478 0.9472464
vt 0.2727525 0.9472464
vt 0.2557131 0.9211747
vt 0.2725084 0.9211747
vt 0.2725084 0.9472464
vt 0.2557131 0.9472464
vt 0.2386737 0.9211747
vt 0.255469 0.9211747
vt 0.255469 0.9472464
vt 0.2386737 0.9472464
vt 0.2216343 0.9211747
vt 0.2384296 0.9211747
vt 0.2384296 0.9472464
vt 0.2216343 0.9472464
vt 0.2045949 0.9211747
vt 0.2213902 0.9211747
vt 0.2213902 0.9472464
vt 0.2045949 0.9472464
vt 0.3068313 0.8948589
vt 0.3236266 0.8948589
vt 0.3236266 0.9209306
vt 0.3068313 0.9209306
vt 0.2897919 0.8948589
vt 0.3065872 0.8948589
vt 0.3065872 0.9209306
vt 0.2897919 0.9209306
vt 0.2727525 0.8948589
vt 0.2895478 0.8948589
vt 0.2895478 0.9209306
vt 0.2727525 0.9209306
vt 0.2557131 0.8948589
vt 0.2725084 0.8948589
vt 0.2725084 0.9209306
vt 0.2557131 0.9209306
vt 0.2386737 0.8948589
vt 0.255469 0.8948589
vt 0.255469 0.9209306
vt 0.2386737 0.9209306
vt 0.2216343 0.8948589
vt 0.2384296 0.8948589
vt 0.2384296 0.9209306
vt 0.2216343 0.9209306
vt 0.2045949 0.8948589
vt 0.2213902 0.8948589
vt 0.2213902 0.9209306
vt 0.2045949 0.9209306
vt 0.3068313 0.8685431
vt 0.3236266 0.8685431
vt 0.3236266 0.8946148
vt 0.3068313 0.8946148
vt 0.2897919 0.8685431
vt 0.3065872 0.8685431
vt 0.3065872 0.8946148
vt 0.2897919 0.8946148
vt 0.2727525 0.8685431
vt 0.2895478 0.8685431
vt 0.2895478 0.8946148
vt 0.2727525 0.8946148
vt 0.2557131 0.8685431
vt 0.2725084 0.8685431
vt 0.2725084 0.8946148
vt 0.2557131 0.8946148
vt 0.2386737 0.8685431
vt 0.255469 0.8685431
vt 0.255469 0.8946148
vt 0.2386737 0.8946148
vt 0.2216343 0.8685431
vt 0.2384296 0.8685431
vt 0.2384296 0.8946148
vt 0.2216343 0.8946148
vt 0.2045949 0.8685431
vt 0.2213902 0.8685431
vt 0.2213902 0.8946148
vt 0.2045949 0.8946148
vt 0.2727525 0.2369642
vt 0.2895478 0.2369642
vt 0.2895478 0.2630358
vt 0.2727525 0.2630358
vt 0.2557131 0.2369642
vt 0.2725084 0.2369642
vt 0.2725084 0.2630358
vt 0.2557131 0.2630358
vt 0.2386737 0.2369642
vt 0.255469 0.2369642
vt 0.255469 0.2630358
vt 0.2386737 0.2630358
vt 0.2216343 0.2369642
vt 0.2384296 0.2369642
vt 0.2384296 0.2630358
vt 0.2216343 0.2630358
vt 0.2045949 0.2369642
vt 0.2213902 0.2369642
vt 0.2213902 0.2630358
vt 0.2045949 0.2630358
vt 0.1875555 0.2369642
vt 0.2043508 0.2369642
vt 0.2043508 0.2630358
vt 0.1875555 0.2630358
vt 0.1705161 0.2369642
vt 0.1873114 0.2369642
vt 0.1873114 0.2630358
vt 0.1705161 0.2630358
vt 0.2727525 0.2106484
vt 0.2895478 0.2106484
vt 0.2895478 0.23672
vt 0.2727525 0.23672
vt 0.2557131 0.2106484
vt 0.2725084 0.2106484
vt 0.2725084 0.23672
vt 0.2557131 0.23672
vt 0.2386737 0.2106484
vt 0.255469 0.2106484
vt 0.255469 0.23672
vt 0.2386737 0.23672
vt 0.2216343 0.2106484
vt 0.2384296 0.2106484
vt 0.2384296 0.23672
vt 0.2216343 0.23672
vt 0.2045949 0.2106484
vt 0.2213902 0.2106484
vt 0.2213902 0.23672
vt 0.2045949 0.23672
vt 0.1875555 0.2106484
vt 0.2043508 0.2106484
vt 0.2043508 0.23672
vt 0.1875555 0.23672
vt 0.1705161 0.2106484
vt 0.1873114 0.2106484
vt 0.1873114 0.23672
vt 0.1705161 0.23672
vt 0.2727525 0.1843326
vt 0.2895478 0.1843326
vt 0.2895478 0.2104042
vt 0.2727525 0.2104042
vt 0.2557131 0.1843326
vt 0.2725084 0.1843326
vt 0.2725084 0.2104042
vt 0.2557131 0.2104042
vt 0.2386737 0.1843326
vt 0.255469 0.1843326
vt 0.255469 0.2104042
vt 0.2386737 0.2104042
vt 0.2216343 0.1843326
vt 0.2384296 0.1843326
vt 0.2384296 0.2104042
vt 0.2216343 0.2104042
vt 0.2045949 0.1843326
vt 0.2213902 0.1843326
vt 0.2213902 0.2104042
vt 0.2045949 0.2104042
vt 0.1875555 0.1843326
vt 0.2043508 0.1843326
vt 0.2043508 0.2104042
vt 0.1875555 0.2104042
vt 0.1705161 0.1843326
vt 0.1873114 0.1843326
vt 0.1873114 0.2104042
vt 0.1705161 0.2104042
vt 0.2727525 0.1580168
vt 0.2895478 0.1580168
vt 0.2895478 0.1840885
vt 0.2727525 0.1840885
vt 0.2557131 0.1580168
vt 0.2725084 0.1580168
vt 0.2725084 0.1840885
vt 0.2557131 0.1840885
vt 0.2386737 0.1580168
vt 0.255469 0.1580168
vt 0.255469 0.1840885
vt 0.2386737 0.1840885
vt 0.2216343 0.1580168
vt 0.2384296 0.1580168
vt 0.2384296 0.1840885
vt 0.2216343 0.1840885
vt 0.2045949 0.1580168
vt 0.2213902 0.1580168
vt 0.2213902 0.1840885
vt 0.2045949 0.1840885
vt 0.1875555 0.1580168
vt 0.2043508 0.1580168
vt 0.2043508 0.1840885
vt 0.1875555 0.1840885
vt 0.1705161 0.1580168
vt 0.1873114 0.1580168
vt 0.1873114 0.1840885
vt 0.1705161 0.1840885

# Normal
vn 0 0 -1

# Mesh description
g TaasCityHall_mesh_0004

# Faces
f 1/1/1 2/2/1 3/3/1 4/4/1
f 5/5/1 6/6/1 7/7/1 8/8/1
f 9/9/1 10/10/1 11/11/1 12/12/1
f 13/13/1 14/14/1 15/15/1 16/16/1
f 17/17/1 18/18/1 19/19/1 20/20/1
f 21/21/1 22/22/1 23/23/1 24/24/1
f 25/25/1 26/26/1 27/27/1 28/28/1
f 29/29/1 30/30/1 31/31/1 32/32/1
f 33/33/1 34/34/1 35/35/1 36/36/1
f 37/37/1 38/38/1 39/39/1 40/40/1
f 41/41/1 42/42/1 43/43/1 44/44/1
f 45/45/1 46/46/1 47/47/1 48/48/1
f 49/49/1 50/50/1 51/51/1 52/52/1
f 53/53/1 54/54/1 55/55/1 56/56/1
f 57/57/1 58/58/1 59/59/1 60/60/1
f 61/61/1 62/62/1 63/63/1 64/64/1
f 65/65/1 66/66/1 67/67/1 68/68/1
f 69/69/1 70/70/1 71/71/1 72/72/1
f 73/73/1 74/74/1 75/75/1 76/76/1
f 77/77/1 78/78/1 79/79/1 80/80/1
f 81/81/1 82/82/1 83/83/1 84/84/1
f 85/85/1 86/86/1 87/87/1 88/88/1
f 89/89/1 90/90/1 91/91/1 92/92/1
f 93/93/1 94/94/1 95/95/1 96/96/1
f 97/97/1 98/98/1 99/99/1 100/100/1
f 101/101/1 102/102/1 103/103/1 104/104/1
f 105/105/1 106/106/1 107/107/1 108/108/1
f 109/109/1 110/110/1 111/111/1 112/112/1
f 113/113/1 114/114/1 115/115/1 116/116/1
f 117/117/1 118/118/1 119/119/1 120/120/1
f 121/121/1 122/122/1 123/123/1 124/124/1
f 125/125/1 126/126/1 127/127/1 128/128/1
f 129/129/1 130/130/1 131/131/1 132/132/1
f 133/133/1 134/134/1 135/135/1 136/136/1
f 137/137/1 138/138/1 139/139/1 140/140/1
f 141/141/1 142/142/1 143/143/1 144/144/1
f 145/145/1 146/146/1 147/147/1 148/148/1
f 149/149/1 150/150/1 151/151/1 152/152/1
f 153/153/1 154/154/1 155/155/1 156/156/1
f 157/157/1 158/158/1 159/159/1 160/160/1
f 161/161/1 162/162/1 163/163/1 164/164/1
f 165/165/1 166/166/1 167/167/1 168/168/1
f 169/169/1 170/170/1 171/171/1 172/172/1
f 173/173/1 174/174/1 175/175/1 176/176/1
f 177/177/1 178/178/1 179/179/1 180/180/1
f 181/181/1 182/182/1 183/183/1 184/184/1
f 185/185/1 186/186/1 187/187/1 188/188/1
f 189/189/1 190/190/1 191/191/1 192/192/1
f 193/193/1 194/194/1 195/195/1 196/196/1
f 197/1/1 198/2/1 199/3/1 200/4/1
f 201/5/1 202/6/1 203/7/1 204/8/1
f 205/9/1 206/10/1 207/11/1 208/12/1
f 209/13/1 210/14/1 211/15/1 212/16/1
f 213/17/1 214/18/1 215/19/1 216/20/1
f 217/21/1 218/22/1 219/23/1 220/24/1
f 221/25/1 222/26/1 223/27/1 224/28/1
f 225/197/1 226/198/1 227/199/1 228/200/1
f 229/201/1 230/202/1 231/203/1 232/204/1
f 233/205/1 234/206/1 235/207/1 236/208/1
f 237/209/1 238/210/1 239/211/1 240/212/1
f 241/213/1 242/214/1 243/215/1 244/216/1
f 245/217/1 246/218/1 247/219/1 248/220/1
f 249/221/1 250/222/1 251/223/1 252/224/1
f 253/29/1 254/30/1 255/31/1 256/32/1
f 257/33/1 258/34/1 259/35/1 260/36/1
f 261/37/1 262/38/1 263/39/1 264/40/1
f 265/41/1 266/42/1 267/43/1 268/44/1
f 269/45/1 270/46/1 271/47/1 272/48/1
f 273/49/1 274/50/1 275/51/1 276/52/1
f 277/53/1 278/54/1 279/55/1 280/56/1
f 281/57/1 282/58/1 283/59/1 284/60/1
f 285/61/1 286/62/1 287/63/1 288/64/1
f 289/65/1 290/66/1 291/67/1 292/68/1
f 293/69/1 294/70/1 295/71/1 296/72/1
f 297/73/1 298/74/1 299/75/1 300/76/1
f 301/77/1 302/78/1 303/79/1 304/80/1
f 305/81/1 306/82/1 307/83/1 308/84/1
f 309/85/1 310/86/1 311/87/1 312/88/1
f 313/89/1 314/90/1 315/91/1 316/92/1
f 317/93/1 318/94/1 319/95/1 320/96/1
f 321/97/1 322/98/1 323/99/1 324/100/1
f 325/101/1 326/102/1 327/103/1 328/104/1
f 329/105/1 330/106/1 331/107/1 332/108/1
f 333/109/1 334/110/1 335/111/1 336/112/1
f 337/113/1 338/114/1 339/115/1 340/116/1
f 341/117/1 342/118/1 343/119/1 344/120/1
f 345/121/1 346/122/1 347/123/1 348/124/1
f 349/125/1 350/126/1 351/127/1 352/128/1
f 353/129/1 354/130/1 355/131/1 356/132/1
f 357/133/1 358/134/1 359/135/1 360/136/1
f 361/137/1 362/138/1 363/139/1 364/140/1
f 365/141/1 366/142/1 367/143/1 368/144/1
f 369/145/1 370/146/1 371/147/1 372/148/1
f 373/149/1 374/150/1 375/151/1 376/152/1
f 377/153/1 378/154/1 379/155/1 380/156/1
f 381/157/1 382/158/1 383/159/1 384/160/1
f 385/161/1 386/162/1 387/163/1 388/164/1
f 389/165/1 390/166/1 391/167/1 392/168/1
f 393/169/1 394/170/1 395/171/1 396/172/1
f 397/173/1 398/174/1 399/175/1 400/176/1
f 401/177/1 402/178/1 403/179/1 404/180/1
f 405/181/1 406/182/1 407/183/1 408/184/1
f 409/185/1 410/186/1 411/187/1 412/188/1
f 413/189/1 414/190/1 415/191/1 416/192/1
f 417/193/1 418/194/1 419/195/1 420/196/1
f 421/197/1 422/198/1 423/199/1 424/200/1
f 425/201/1 426/202/1 427/203/1 428/204/1
f 429/205/1 430/206/1 431/207/1 432/208/1
f 433/209/1 434/210/1 435/211/1 436/212/1
f 437/213/1 438/214/1 439/215/1 440/216/1
f 441/217/1 442/218/1 443/219/1 444/220/1
f 445/221/1 446/222/1 447/223/1 448/224/1

