# Tiled2Unity generated file. Do not modify by hand.
# Wavefront file for 'TaasCityHall_mesh_0002.obj'

# Vertices (Count = 396)
v -6 -17 0
v -7 -17 0
v -7 -16 0
v -6 -16 0
v -6 -18 0
v -7 -18 0
v -7 -17 0
v -6 -17 0
v -7 -19 0
v -8 -19 0
v -8 -18 0
v -7 -18 0
v -6 -19 0
v -7 -19 0
v -7 -18 0
v -6 -18 0
v -8 -20 0
v -9 -20 0
v -9 -19 0
v -8 -19 0
v -7 -20 0
v -8 -20 0
v -8 -19 0
v -7 -19 0
v -6 -20 0
v -7 -20 0
v -7 -19 0
v -6 -19 0
v -9 -21 0
v -10 -21 0
v -10 -20 0
v -9 -20 0
v -8 -21 0
v -9 -21 0
v -9 -20 0
v -8 -20 0
v -7 -21 0
v -8 -21 0
v -8 -20 0
v -7 -20 0
v -10 -22 0
v -11 -22 0
v -11 -21 0
v -10 -21 0
v -9 -22 0
v -10 -22 0
v -10 -21 0
v -9 -21 0
v -8 -22 0
v -9 -22 0
v -9 -21 0
v -8 -21 0
v -17 -23 0
v -18 -23 0
v -18 -22 0
v -17 -22 0
v -11 -23 0
v -12 -23 0
v -12 -22 0
v -11 -22 0
v -10 -23 0
v -11 -23 0
v -11 -22 0
v -10 -22 0
v -9 -23 0
v -10 -23 0
v -10 -22 0
v -9 -22 0
v -17 -24 0
v -18 -24 0
v -18 -23 0
v -17 -23 0
v -16 -24 0
v -17 -24 0
v -17 -23 0
v -16 -23 0
v -15 -24 0
v -16 -24 0
v -16 -23 0
v -15 -23 0
v -14 -24 0
v -15 -24 0
v -15 -23 0
v -14 -23 0
v -13 -24 0
v -14 -24 0
v -14 -23 0
v -13 -23 0
v -12 -24 0
v -13 -24 0
v -13 -23 0
v -12 -23 0
v -11 -24 0
v -12 -24 0
v -12 -23 0
v -11 -23 0
v -10 -24 0
v -11 -24 0
v -11 -23 0
v -10 -23 0
v -18 -25 0
v -19 -25 0
v -19 -24 0
v -18 -24 0
v -17 -25 0
v -18 -25 0
v -18 -24 0
v -17 -24 0
v -16 -25 0
v -17 -25 0
v -17 -24 0
v -16 -24 0
v -15 -25 0
v -16 -25 0
v -16 -24 0
v -15 -24 0
v -14 -25 0
v -15 -25 0
v -15 -24 0
v -14 -24 0
v -13 -25 0
v -14 -25 0
v -14 -24 0
v -13 -24 0
v -12 -25 0
v -13 -25 0
v -13 -24 0
v -12 -24 0
v -11 -25 0
v -12 -25 0
v -12 -24 0
v -11 -24 0
v -18 -26 0
v -19 -26 0
v -19 -25 0
v -18 -25 0
v -17 -26 0
v -18 -26 0
v -18 -25 0
v -17 -25 0
v -16 -26 0
v -17 -26 0
v -17 -25 0
v -16 -25 0
v -15 -26 0
v -16 -26 0
v -16 -25 0
v -15 -25 0
v -14 -26 0
v -15 -26 0
v -15 -25 0
v -14 -25 0
v -13 -26 0
v -14 -26 0
v -14 -25 0
v -13 -25 0
v -12 -26 0
v -13 -26 0
v -13 -25 0
v -12 -25 0
v -54 -28 0
v -55 -28 0
v -55 -27 0
v -54 -27 0
v -54 -29 0
v -55 -29 0
v -55 -28 0
v -54 -28 0
v -55 -30 0
v -56 -30 0
v -56 -29 0
v -55 -29 0
v -54 -30 0
v -55 -30 0
v -55 -29 0
v -54 -29 0
v -56 -31 0
v -57 -31 0
v -57 -30 0
v -56 -30 0
v -55 -31 0
v -56 -31 0
v -56 -30 0
v -55 -30 0
v -54 -31 0
v -55 -31 0
v -55 -30 0
v -54 -30 0
v -57 -32 0
v -58 -32 0
v -58 -31 0
v -57 -31 0
v -56 -32 0
v -57 -32 0
v -57 -31 0
v -56 -31 0
v -55 -32 0
v -56 -32 0
v -56 -31 0
v -55 -31 0
v -58 -33 0
v -59 -33 0
v -59 -32 0
v -58 -32 0
v -57 -33 0
v -58 -33 0
v -58 -32 0
v -57 -32 0
v -56 -33 0
v -57 -33 0
v -57 -32 0
v -56 -32 0
v -52 -33 0
v -53 -33 0
v -53 -32 0
v -52 -32 0
v -59 -34 0
v -60 -34 0
v -60 -33 0
v -59 -33 0
v -58 -34 0
v -59 -34 0
v -59 -33 0
v -58 -33 0
v -57 -34 0
v -58 -34 0
v -58 -33 0
v -57 -33 0
v -52 -34 0
v -53 -34 0
v -53 -33 0
v -52 -33 0
v -60 -35 0
v -61 -35 0
v -61 -34 0
v -60 -34 0
v -59 -35 0
v -60 -35 0
v -60 -34 0
v -59 -34 0
v -58 -35 0
v -59 -35 0
v -59 -34 0
v -58 -34 0
v -52 -35 0
v -53 -35 0
v -53 -34 0
v -52 -34 0
v -51 -35 0
v -52 -35 0
v -52 -34 0
v -51 -34 0
v -50 -35 0
v -51 -35 0
v -51 -34 0
v -50 -34 0
v -49 -35 0
v -50 -35 0
v -50 -34 0
v -49 -34 0
v -60 -36 0
v -61 -36 0
v -61 -35 0
v -60 -35 0
v -59 -36 0
v -60 -36 0
v -60 -35 0
v -59 -35 0
v -53 -36 0
v -54 -36 0
v -54 -35 0
v -53 -35 0
v -52 -36 0
v -53 -36 0
v -53 -35 0
v -52 -35 0
v -51 -36 0
v -52 -36 0
v -52 -35 0
v -51 -35 0
v -50 -36 0
v -51 -36 0
v -51 -35 0
v -50 -35 0
v -49 -36 0
v -50 -36 0
v -50 -35 0
v -49 -35 0
v -48 -36 0
v -49 -36 0
v -49 -35 0
v -48 -35 0
v -60 -37 0
v -61 -37 0
v -61 -36 0
v -60 -36 0
v -52 -37 0
v -53 -37 0
v -53 -36 0
v -52 -36 0
v -51 -37 0
v -52 -37 0
v -52 -36 0
v -51 -36 0
v -50 -37 0
v -51 -37 0
v -51 -36 0
v -50 -36 0
v -49 -37 0
v -50 -37 0
v -50 -36 0
v -49 -36 0
v -48 -37 0
v -49 -37 0
v -49 -36 0
v -48 -36 0
v -47 -37 0
v -48 -37 0
v -48 -36 0
v -47 -36 0
v -43 -37 0
v -44 -37 0
v -44 -36 0
v -43 -36 0
v -49 -38 0
v -50 -38 0
v -50 -37 0
v -49 -37 0
v -48 -38 0
v -49 -38 0
v -49 -37 0
v -48 -37 0
v -47 -38 0
v -48 -38 0
v -48 -37 0
v -47 -37 0
v -46 -38 0
v -47 -38 0
v -47 -37 0
v -46 -37 0
v -45 -38 0
v -46 -38 0
v -46 -37 0
v -45 -37 0
v -44 -38 0
v -45 -38 0
v -45 -37 0
v -44 -37 0
v -43 -38 0
v -44 -38 0
v -44 -37 0
v -43 -37 0
v -48 -39 0
v -49 -39 0
v -49 -38 0
v -48 -38 0
v -47 -39 0
v -48 -39 0
v -48 -38 0
v -47 -38 0
v -46 -39 0
v -47 -39 0
v -47 -38 0
v -46 -38 0
v -45 -39 0
v -46 -39 0
v -46 -38 0
v -45 -38 0
v -44 -39 0
v -45 -39 0
v -45 -38 0
v -44 -38 0
v -43 -39 0
v -44 -39 0
v -44 -38 0
v -43 -38 0
v -47 -40 0
v -48 -40 0
v -48 -39 0
v -47 -39 0
v -46 -40 0
v -47 -40 0
v -47 -39 0
v -46 -39 0
v -45 -40 0
v -46 -40 0
v -46 -39 0
v -45 -39 0
v -44 -40 0
v -45 -40 0
v -45 -39 0
v -44 -39 0
v -43 -40 0
v -44 -40 0
v -44 -39 0
v -43 -39 0

# Texture cooridinates (Count = 56)
vt 0.0001220703 0.6667887
vt 0.02068417 0.6667887
vt 0.02068417 0.6943223
vt 0.0001220703 0.6943223
vt 0.08334704 0.6667887
vt 0.1039091 0.6667887
vt 0.1039091 0.6943223
vt 0.08334704 0.6943223
vt 0.08334704 0.5834554
vt 0.1039091 0.5834554
vt 0.1039091 0.610989
vt 0.08334704 0.610989
vt 0.08334704 0.5556777
vt 0.1039091 0.5556777
vt 0.1039091 0.5832113
vt 0.08334704 0.5832113
vt 0.04173455 0.6667887
vt 0.06229666 0.6667887
vt 0.06229666 0.6943223
vt 0.04173455 0.6943223
vt 0.1249595 0.6667887
vt 0.1455216 0.6667887
vt 0.1455216 0.6943223
vt 0.1249595 0.6943223
vt 0.1041533 0.6667887
vt 0.1247154 0.6667887
vt 0.1247154 0.6943223
vt 0.1041533 0.6943223
vt 0.1457658 0.5834554
vt 0.1663279 0.5834554
vt 0.1663279 0.610989
vt 0.1457658 0.610989
vt 0.1249595 0.5834554
vt 0.1455216 0.5834554
vt 0.1455216 0.610989
vt 0.1249595 0.610989
vt 0.1041533 0.5834554
vt 0.1247154 0.5834554
vt 0.1247154 0.610989
vt 0.1041533 0.610989
vt 0.1457658 0.5556777
vt 0.1663279 0.5556777
vt 0.1663279 0.5832113
vt 0.1457658 0.5832113
vt 0.1249595 0.5556777
vt 0.1455216 0.5556777
vt 0.1455216 0.5832113
vt 0.1249595 0.5832113
vt 0.1041533 0.5556777
vt 0.1247154 0.5556777
vt 0.1247154 0.5832113
vt 0.1041533 0.5832113
vt 0.1249595 0.6945665
vt 0.1455216 0.6945665
vt 0.1455216 0.7221001
vt 0.1249595 0.7221001

# Normal
vn 0 0 -1

# Mesh description
g TaasCityHall_mesh_0002

# Faces
f 1/1/1 2/2/1 3/3/1 4/4/1
f 5/5/1 6/6/1 7/7/1 8/8/1
f 9/5/1 10/6/1 11/7/1 12/8/1
f 13/9/1 14/10/1 15/11/1 16/12/1
f 17/5/1 18/6/1 19/7/1 20/8/1
f 21/9/1 22/10/1 23/11/1 24/12/1
f 25/13/1 26/14/1 27/15/1 28/16/1
f 29/5/1 30/6/1 31/7/1 32/8/1
f 33/9/1 34/10/1 35/11/1 36/12/1
f 37/13/1 38/14/1 39/15/1 40/16/1
f 41/5/1 42/6/1 43/7/1 44/8/1
f 45/9/1 46/10/1 47/11/1 48/12/1
f 49/13/1 50/14/1 51/15/1 52/16/1
f 53/17/1 54/18/1 55/19/1 56/20/1
f 57/5/1 58/6/1 59/7/1 60/8/1
f 61/9/1 62/10/1 63/11/1 64/12/1
f 65/13/1 66/14/1 67/15/1 68/16/1
f 69/21/1 70/22/1 71/23/1 72/24/1
f 73/25/1 74/26/1 75/27/1 76/28/1
f 77/25/1 78/26/1 79/27/1 80/28/1
f 81/25/1 82/26/1 83/27/1 84/28/1
f 85/25/1 86/26/1 87/27/1 88/28/1
f 89/5/1 90/6/1 91/7/1 92/8/1
f 93/9/1 94/10/1 95/11/1 96/12/1
f 97/13/1 98/14/1 99/15/1 100/16/1
f 101/29/1 102/30/1 103/31/1 104/32/1
f 105/33/1 106/34/1 107/35/1 108/36/1
f 109/37/1 110/38/1 111/39/1 112/40/1
f 113/37/1 114/38/1 115/39/1 116/40/1
f 117/37/1 118/38/1 119/39/1 120/40/1
f 121/37/1 122/38/1 123/39/1 124/40/1
f 125/9/1 126/10/1 127/11/1 128/12/1
f 129/13/1 130/14/1 131/15/1 132/16/1
f 133/41/1 134/42/1 135/43/1 136/44/1
f 137/45/1 138/46/1 139/47/1 140/48/1
f 141/49/1 142/50/1 143/51/1 144/52/1
f 145/49/1 146/50/1 147/51/1 148/52/1
f 149/49/1 150/50/1 151/51/1 152/52/1
f 153/49/1 154/50/1 155/51/1 156/52/1
f 157/13/1 158/14/1 159/15/1 160/16/1
f 161/1/1 162/2/1 163/3/1 164/4/1
f 165/5/1 166/6/1 167/7/1 168/8/1
f 169/5/1 170/6/1 171/7/1 172/8/1
f 173/9/1 174/10/1 175/11/1 176/12/1
f 177/5/1 178/6/1 179/7/1 180/8/1
f 181/9/1 182/10/1 183/11/1 184/12/1
f 185/13/1 186/14/1 187/15/1 188/16/1
f 189/5/1 190/6/1 191/7/1 192/8/1
f 193/9/1 194/10/1 195/11/1 196/12/1
f 197/13/1 198/14/1 199/15/1 200/16/1
f 201/5/1 202/6/1 203/7/1 204/8/1
f 205/9/1 206/10/1 207/11/1 208/12/1
f 209/13/1 210/14/1 211/15/1 212/16/1
f 213/17/1 214/18/1 215/19/1 216/20/1
f 217/5/1 218/6/1 219/7/1 220/8/1
f 221/9/1 222/10/1 223/11/1 224/12/1
f 225/13/1 226/14/1 227/15/1 228/16/1
f 229/53/1 230/54/1 231/55/1 232/56/1
f 233/5/1 234/6/1 235/7/1 236/8/1
f 237/9/1 238/10/1 239/11/1 240/12/1
f 241/13/1 242/14/1 243/15/1 244/16/1
f 245/21/1 246/22/1 247/23/1 248/24/1
f 249/25/1 250/26/1 251/27/1 252/28/1
f 253/25/1 254/26/1 255/27/1 256/28/1
f 257/25/1 258/26/1 259/27/1 260/28/1
f 261/9/1 262/10/1 263/11/1 264/12/1
f 265/13/1 266/14/1 267/15/1 268/16/1
f 269/29/1 270/30/1 271/31/1 272/32/1
f 273/33/1 274/34/1 275/35/1 276/36/1
f 277/37/1 278/38/1 279/39/1 280/40/1
f 281/37/1 282/38/1 283/39/1 284/40/1
f 285/37/1 286/38/1 287/39/1 288/40/1
f 289/21/1 290/22/1 291/23/1 292/24/1
f 293/13/1 294/14/1 295/15/1 296/16/1
f 297/45/1 298/46/1 299/47/1 300/48/1
f 301/49/1 302/50/1 303/51/1 304/52/1
f 305/49/1 306/50/1 307/51/1 308/52/1
f 309/49/1 310/50/1 311/51/1 312/52/1
f 313/33/1 314/34/1 315/35/1 316/36/1
f 317/21/1 318/22/1 319/23/1 320/24/1
f 321/1/1 322/2/1 323/3/1 324/4/1
f 325/41/1 326/42/1 327/43/1 328/44/1
f 329/45/1 330/46/1 331/47/1 332/48/1
f 333/33/1 334/34/1 335/35/1 336/36/1
f 337/21/1 338/22/1 339/23/1 340/24/1
f 341/25/1 342/26/1 343/27/1 344/28/1
f 345/25/1 346/26/1 347/27/1 348/28/1
f 349/5/1 350/6/1 351/7/1 352/8/1
f 353/41/1 354/42/1 355/43/1 356/44/1
f 357/45/1 358/46/1 359/47/1 360/48/1
f 361/33/1 362/34/1 363/35/1 364/36/1
f 365/37/1 366/38/1 367/39/1 368/40/1
f 369/37/1 370/38/1 371/39/1 372/40/1
f 373/9/1 374/10/1 375/11/1 376/12/1
f 377/41/1 378/42/1 379/43/1 380/44/1
f 381/45/1 382/46/1 383/47/1 384/48/1
f 385/49/1 386/50/1 387/51/1 388/52/1
f 389/49/1 390/50/1 391/51/1 392/52/1
f 393/13/1 394/14/1 395/15/1 396/16/1

