# Tiled2Unity generated file. Do not modify by hand.
# Wavefront file for 'MontillaBlvdUpper_mesh_0002.obj'

# Vertices (Count = 960)
v -17 -1 0
v -18 -1 0
v -18 0 0
v -17 0 0
v -16 -1 0
v -17 -1 0
v -17 0 0
v -16 0 0
v -15 -1 0
v -16 -1 0
v -16 0 0
v -15 0 0
v -14 -1 0
v -15 -1 0
v -15 0 0
v -14 0 0
v -13 -1 0
v -14 -1 0
v -14 0 0
v -13 0 0
v -12 -1 0
v -13 -1 0
v -13 0 0
v -12 0 0
v -11 -1 0
v -12 -1 0
v -12 0 0
v -11 0 0
v -10 -1 0
v -11 -1 0
v -11 0 0
v -10 0 0
v -9 -1 0
v -10 -1 0
v -10 0 0
v -9 0 0
v -8 -1 0
v -9 -1 0
v -9 0 0
v -8 0 0
v -7 -1 0
v -8 -1 0
v -8 0 0
v -7 0 0
v -6 -1 0
v -7 -1 0
v -7 0 0
v -6 0 0
v -5 -1 0
v -6 -1 0
v -6 0 0
v -5 0 0
v -4 -1 0
v -5 -1 0
v -5 0 0
v -4 0 0
v -3 -1 0
v -4 -1 0
v -4 0 0
v -3 0 0
v -2 -1 0
v -3 -1 0
v -3 0 0
v -2 0 0
v -1 -1 0
v -2 -1 0
v -2 0 0
v -1 0 0
v 0 -1 0
v -1 -1 0
v -1 0 0
v 0 0 0
v -8 -2 0
v -9 -2 0
v -9 -1 0
v -8 -1 0
v -7 -2 0
v -8 -2 0
v -8 -1 0
v -7 -1 0
v -6 -2 0
v -7 -2 0
v -7 -1 0
v -6 -1 0
v -17 -5 0
v -18 -5 0
v -18 -4 0
v -17 -4 0
v 0 -5 0
v -1 -5 0
v -1 -4 0
v 0 -4 0
v -17 -6 0
v -18 -6 0
v -18 -5 0
v -17 -5 0
v -12 -6 0
v -13 -6 0
v -13 -5 0
v -12 -5 0
v -11 -6 0
v -12 -6 0
v -12 -5 0
v -11 -5 0
v -4 -6 0
v -5 -6 0
v -5 -5 0
v -4 -5 0
v -3 -6 0
v -4 -6 0
v -4 -5 0
v -3 -5 0
v 0 -6 0
v -1 -6 0
v -1 -5 0
v 0 -5 0
v -17 -7 0
v -18 -7 0
v -18 -6 0
v -17 -6 0
v 0 -7 0
v -1 -7 0
v -1 -6 0
v 0 -6 0
v -17 -8 0
v -18 -8 0
v -18 -7 0
v -17 -7 0
v 0 -8 0
v -1 -8 0
v -1 -7 0
v 0 -7 0
v -17 -9 0
v -18 -9 0
v -18 -8 0
v -17 -8 0
v -17 -10 0
v -18 -10 0
v -18 -9 0
v -17 -9 0
v -17 -11 0
v -18 -11 0
v -18 -10 0
v -17 -10 0
v -16 -11 0
v -17 -11 0
v -17 -10 0
v -16 -10 0
v -15 -11 0
v -16 -11 0
v -16 -10 0
v -15 -10 0
v -12 -11 0
v -13 -11 0
v -13 -10 0
v -12 -10 0
v -11 -11 0
v -12 -11 0
v -12 -10 0
v -11 -10 0
v 0 -11 0
v -1 -11 0
v -1 -10 0
v 0 -10 0
v -17 -12 0
v -18 -12 0
v -18 -11 0
v -17 -11 0
v -12 -12 0
v -13 -12 0
v -13 -11 0
v -12 -11 0
v -11 -12 0
v -12 -12 0
v -12 -11 0
v -11 -11 0
v 0 -12 0
v -1 -12 0
v -1 -11 0
v 0 -11 0
v 0 -13 0
v -1 -13 0
v -1 -12 0
v 0 -12 0
v -17 -14 0
v -18 -14 0
v -18 -13 0
v -17 -13 0
v -5 -14 0
v -6 -14 0
v -6 -13 0
v -5 -13 0
v -4 -14 0
v -5 -14 0
v -5 -13 0
v -4 -13 0
v 0 -14 0
v -1 -14 0
v -1 -13 0
v 0 -13 0
v -17 -15 0
v -18 -15 0
v -18 -14 0
v -17 -14 0
v 0 -15 0
v -1 -15 0
v -1 -14 0
v 0 -14 0
v -17 -16 0
v -18 -16 0
v -18 -15 0
v -17 -15 0
v -7 -16 0
v -8 -16 0
v -8 -15 0
v -7 -15 0
v 0 -16 0
v -1 -16 0
v -1 -15 0
v 0 -15 0
v -17 -17 0
v -18 -17 0
v -18 -16 0
v -17 -16 0
v 0 -17 0
v -1 -17 0
v -1 -16 0
v 0 -16 0
v -17 -18 0
v -18 -18 0
v -18 -17 0
v -17 -17 0
v 0 -18 0
v -1 -18 0
v -1 -17 0
v 0 -17 0
v -17 -19 0
v -18 -19 0
v -18 -18 0
v -17 -18 0
v 0 -19 0
v -1 -19 0
v -1 -18 0
v 0 -18 0
v -17 -20 0
v -18 -20 0
v -18 -19 0
v -17 -19 0
v -11 -20 0
v -12 -20 0
v -12 -19 0
v -11 -19 0
v -10 -20 0
v -11 -20 0
v -11 -19 0
v -10 -19 0
v -2 -20 0
v -3 -20 0
v -3 -19 0
v -2 -19 0
v -1 -20 0
v -2 -20 0
v -2 -19 0
v -1 -19 0
v 0 -20 0
v -1 -20 0
v -1 -19 0
v 0 -19 0
v -17 -21 0
v -18 -21 0
v -18 -20 0
v -17 -20 0
v -2 -21 0
v -3 -21 0
v -3 -20 0
v -2 -20 0
v -1 -21 0
v -2 -21 0
v -2 -20 0
v -1 -20 0
v 0 -21 0
v -1 -21 0
v -1 -20 0
v 0 -20 0
v -17 -22 0
v -18 -22 0
v -18 -21 0
v -17 -21 0
v -14 -22 0
v -15 -22 0
v -15 -21 0
v -14 -21 0
v -13 -22 0
v -14 -22 0
v -14 -21 0
v -13 -21 0
v 0 -22 0
v -1 -22 0
v -1 -21 0
v 0 -21 0
v -17 -23 0
v -18 -23 0
v -18 -22 0
v -17 -22 0
v -4 -23 0
v -5 -23 0
v -5 -22 0
v -4 -22 0
v 0 -23 0
v -1 -23 0
v -1 -22 0
v 0 -22 0
v -17 -24 0
v -18 -24 0
v -18 -23 0
v -17 -23 0
v -5 -24 0
v -6 -24 0
v -6 -23 0
v -5 -23 0
v 0 -24 0
v -1 -24 0
v -1 -23 0
v 0 -23 0
v -17 -25 0
v -18 -25 0
v -18 -24 0
v -17 -24 0
v -3 -25 0
v -4 -25 0
v -4 -24 0
v -3 -24 0
v 0 -25 0
v -1 -25 0
v -1 -24 0
v 0 -24 0
v -17 -26 0
v -18 -26 0
v -18 -25 0
v -17 -25 0
v -17 -27 0
v -18 -27 0
v -18 -26 0
v -17 -26 0
v -11 -27 0
v -12 -27 0
v -12 -26 0
v -11 -26 0
v -10 -27 0
v -11 -27 0
v -11 -26 0
v -10 -26 0
v -17 -28 0
v -18 -28 0
v -18 -27 0
v -17 -27 0
v -17 -29 0
v -18 -29 0
v -18 -28 0
v -17 -28 0
v 0 -29 0
v -1 -29 0
v -1 -28 0
v 0 -28 0
v -17 -30 0
v -18 -30 0
v -18 -29 0
v -17 -29 0
v -6 -30 0
v -7 -30 0
v -7 -29 0
v -6 -29 0
v -5 -30 0
v -6 -30 0
v -6 -29 0
v -5 -29 0
v 0 -30 0
v -1 -30 0
v -1 -29 0
v 0 -29 0
v -17 -31 0
v -18 -31 0
v -18 -30 0
v -17 -30 0
v -2 -31 0
v -3 -31 0
v -3 -30 0
v -2 -30 0
v -1 -31 0
v -2 -31 0
v -2 -30 0
v -1 -30 0
v 0 -31 0
v -1 -31 0
v -1 -30 0
v 0 -30 0
v -17 -32 0
v -18 -32 0
v -18 -31 0
v -17 -31 0
v 0 -32 0
v -1 -32 0
v -1 -31 0
v 0 -31 0
v -17 -33 0
v -18 -33 0
v -18 -32 0
v -17 -32 0
v 0 -33 0
v -1 -33 0
v -1 -32 0
v 0 -32 0
v -17 -34 0
v -18 -34 0
v -18 -33 0
v -17 -33 0
v -12 -34 0
v -13 -34 0
v -13 -33 0
v -12 -33 0
v -11 -34 0
v -12 -34 0
v -12 -33 0
v -11 -33 0
v 0 -34 0
v -1 -34 0
v -1 -33 0
v 0 -33 0
v -17 -35 0
v -18 -35 0
v -18 -34 0
v -17 -34 0
v 0 -35 0
v -1 -35 0
v -1 -34 0
v 0 -34 0
v -17 -37 0
v -18 -37 0
v -18 -36 0
v -17 -36 0
v 0 -37 0
v -1 -37 0
v -1 -36 0
v 0 -36 0
v -17 -38 0
v -18 -38 0
v -18 -37 0
v -17 -37 0
v -5 -38 0
v -6 -38 0
v -6 -37 0
v -5 -37 0
v -4 -38 0
v -5 -38 0
v -5 -37 0
v -4 -37 0
v 0 -38 0
v -1 -38 0
v -1 -37 0
v 0 -37 0
v -14 -39 0
v -15 -39 0
v -15 -38 0
v -14 -38 0
v -13 -39 0
v -14 -39 0
v -14 -38 0
v -13 -38 0
v -6 -39 0
v -7 -39 0
v -7 -38 0
v -6 -38 0
v -5 -39 0
v -6 -39 0
v -6 -38 0
v -5 -38 0
v 0 -39 0
v -1 -39 0
v -1 -38 0
v 0 -38 0
v -17 -40 0
v -18 -40 0
v -18 -39 0
v -17 -39 0
v -16 -40 0
v -17 -40 0
v -17 -39 0
v -16 -39 0
v -15 -40 0
v -16 -40 0
v -16 -39 0
v -15 -39 0
v -6 -40 0
v -7 -40 0
v -7 -39 0
v -6 -39 0
v -5 -40 0
v -6 -40 0
v -6 -39 0
v -5 -39 0
v 0 -40 0
v -1 -40 0
v -1 -39 0
v 0 -39 0
v -16 -41 0
v -17 -41 0
v -17 -40 0
v -16 -40 0
v -15 -41 0
v -16 -41 0
v -16 -40 0
v -15 -40 0
v 0 -41 0
v -1 -41 0
v -1 -40 0
v 0 -40 0
v -17 -42 0
v -18 -42 0
v -18 -41 0
v -17 -41 0
v -12 -42 0
v -13 -42 0
v -13 -41 0
v -12 -41 0
v -11 -42 0
v -12 -42 0
v -12 -41 0
v -11 -41 0
v 0 -42 0
v -1 -42 0
v -1 -41 0
v 0 -41 0
v -17 -43 0
v -18 -43 0
v -18 -42 0
v -17 -42 0
v 0 -43 0
v -1 -43 0
v -1 -42 0
v 0 -42 0
v -17 -44 0
v -18 -44 0
v -18 -43 0
v -17 -43 0
v 0 -44 0
v -1 -44 0
v -1 -43 0
v 0 -43 0
v -16 -45 0
v -17 -45 0
v -17 -44 0
v -16 -44 0
v -15 -45 0
v -16 -45 0
v -16 -44 0
v -15 -44 0
v -4 -45 0
v -5 -45 0
v -5 -44 0
v -4 -44 0
v -3 -45 0
v -4 -45 0
v -4 -44 0
v -3 -44 0
v 0 -45 0
v -1 -45 0
v -1 -44 0
v 0 -44 0
v -17 -48 0
v -18 -48 0
v -18 -47 0
v -17 -47 0
v 0 -48 0
v -1 -48 0
v -1 -47 0
v 0 -47 0
v -17 -49 0
v -18 -49 0
v -18 -48 0
v -17 -48 0
v 0 -49 0
v -1 -49 0
v -1 -48 0
v 0 -48 0
v -17 -50 0
v -18 -50 0
v -18 -49 0
v -17 -49 0
v -14 -50 0
v -15 -50 0
v -15 -49 0
v -14 -49 0
v -13 -50 0
v -14 -50 0
v -14 -49 0
v -13 -49 0
v -4 -50 0
v -5 -50 0
v -5 -49 0
v -4 -49 0
v -3 -50 0
v -4 -50 0
v -4 -49 0
v -3 -49 0
v 0 -50 0
v -1 -50 0
v -1 -49 0
v 0 -49 0
v -17 -51 0
v -18 -51 0
v -18 -50 0
v -17 -50 0
v -17 -53 0
v -18 -53 0
v -18 -52 0
v -17 -52 0
v 0 -53 0
v -1 -53 0
v -1 -52 0
v 0 -52 0
v -17 -54 0
v -18 -54 0
v -18 -53 0
v -17 -53 0
v -15 -54 0
v -16 -54 0
v -16 -53 0
v -15 -53 0
v -14 -54 0
v -15 -54 0
v -15 -53 0
v -14 -53 0
v 0 -54 0
v -1 -54 0
v -1 -53 0
v 0 -53 0
v -15 -55 0
v -16 -55 0
v -16 -54 0
v -15 -54 0
v -14 -55 0
v -15 -55 0
v -15 -54 0
v -14 -54 0
v -6 -55 0
v -7 -55 0
v -7 -54 0
v -6 -54 0
v -5 -55 0
v -6 -55 0
v -6 -54 0
v -5 -54 0
v 0 -55 0
v -1 -55 0
v -1 -54 0
v 0 -54 0
v -17 -56 0
v -18 -56 0
v -18 -55 0
v -17 -55 0
v 0 -56 0
v -1 -56 0
v -1 -55 0
v 0 -55 0
v -17 -58 0
v -18 -58 0
v -18 -57 0
v -17 -57 0
v 0 -58 0
v -1 -58 0
v -1 -57 0
v 0 -57 0
v -17 -59 0
v -18 -59 0
v -18 -58 0
v -17 -58 0
v 0 -59 0
v -1 -59 0
v -1 -58 0
v 0 -58 0
v -17 -60 0
v -18 -60 0
v -18 -59 0
v -17 -59 0
v -12 -60 0
v -13 -60 0
v -13 -59 0
v -12 -59 0
v -11 -60 0
v -12 -60 0
v -12 -59 0
v -11 -59 0
v 0 -60 0
v -1 -60 0
v -1 -59 0
v 0 -59 0
v -17 -61 0
v -18 -61 0
v -18 -60 0
v -17 -60 0
v -4 -61 0
v -5 -61 0
v -5 -60 0
v -4 -60 0
v -3 -61 0
v -4 -61 0
v -4 -60 0
v -3 -60 0
v 0 -61 0
v -1 -61 0
v -1 -60 0
v 0 -60 0
v -17 -63 0
v -18 -63 0
v -18 -62 0
v -17 -62 0
v 0 -63 0
v -1 -63 0
v -1 -62 0
v 0 -62 0
v -17 -64 0
v -18 -64 0
v -18 -63 0
v -17 -63 0
v -13 -64 0
v -14 -64 0
v -14 -63 0
v -13 -63 0
v -12 -64 0
v -13 -64 0
v -13 -63 0
v -12 -63 0
v 0 -64 0
v -1 -64 0
v -1 -63 0
v 0 -63 0
v -17 -65 0
v -18 -65 0
v -18 -64 0
v -17 -64 0
v -13 -65 0
v -14 -65 0
v -14 -64 0
v -13 -64 0
v -12 -65 0
v -13 -65 0
v -13 -64 0
v -12 -64 0
v 0 -65 0
v -1 -65 0
v -1 -64 0
v 0 -64 0
v -17 -67 0
v -18 -67 0
v -18 -66 0
v -17 -66 0
v -17 -68 0
v -18 -68 0
v -18 -67 0
v -17 -67 0
v -4 -68 0
v -5 -68 0
v -5 -67 0
v -4 -67 0
v -3 -68 0
v -4 -68 0
v -4 -67 0
v -3 -67 0
v 0 -68 0
v -1 -68 0
v -1 -67 0
v 0 -67 0
v -17 -69 0
v -18 -69 0
v -18 -68 0
v -17 -68 0
v 0 -69 0
v -1 -69 0
v -1 -68 0
v 0 -68 0
v -17 -70 0
v -18 -70 0
v -18 -69 0
v -17 -69 0
v 0 -70 0
v -1 -70 0
v -1 -69 0
v 0 -69 0
v -17 -73 0
v -18 -73 0
v -18 -72 0
v -17 -72 0
v -5 -73 0
v -6 -73 0
v -6 -72 0
v -5 -72 0
v -4 -73 0
v -5 -73 0
v -5 -72 0
v -4 -72 0
v -1 -73 0
v -2 -73 0
v -2 -72 0
v -1 -72 0
v 0 -73 0
v -1 -73 0
v -1 -72 0
v 0 -72 0
v -17 -74 0
v -18 -74 0
v -18 -73 0
v -17 -73 0
v -1 -74 0
v -2 -74 0
v -2 -73 0
v -1 -73 0
v -17 -75 0
v -18 -75 0
v -18 -74 0
v -17 -74 0
v -12 -75 0
v -13 -75 0
v -13 -74 0
v -12 -74 0
v -11 -75 0
v -12 -75 0
v -12 -74 0
v -11 -74 0
v -3 -75 0
v -4 -75 0
v -4 -74 0
v -3 -74 0
v -2 -75 0
v -3 -75 0
v -3 -74 0
v -2 -74 0
v -1 -75 0
v -2 -75 0
v -2 -74 0
v -1 -74 0
v -17 -76 0
v -18 -76 0
v -18 -75 0
v -17 -75 0
v -7 -76 0
v -8 -76 0
v -8 -75 0
v -7 -75 0
v -6 -76 0
v -7 -76 0
v -7 -75 0
v -6 -75 0
v -3 -76 0
v -4 -76 0
v -4 -75 0
v -3 -75 0
v -2 -76 0
v -3 -76 0
v -3 -75 0
v -2 -75 0
v -1 -76 0
v -2 -76 0
v -2 -75 0
v -1 -75 0
v -17 -77 0
v -18 -77 0
v -18 -76 0
v -17 -76 0
v -1 -77 0
v -2 -77 0
v -2 -76 0
v -1 -76 0
v -17 -78 0
v -18 -78 0
v -18 -77 0
v -17 -77 0
v -6 -78 0
v -7 -78 0
v -7 -77 0
v -6 -77 0
v -5 -78 0
v -6 -78 0
v -6 -77 0
v -5 -77 0
v -1 -78 0
v -2 -78 0
v -2 -77 0
v -1 -77 0
v -17 -79 0
v -18 -79 0
v -18 -78 0
v -17 -78 0
v -15 -79 0
v -16 -79 0
v -16 -78 0
v -15 -78 0
v -14 -79 0
v -15 -79 0
v -15 -78 0
v -14 -78 0
v -6 -79 0
v -7 -79 0
v -7 -78 0
v -6 -78 0
v -5 -79 0
v -6 -79 0
v -6 -78 0
v -5 -78 0
v -4 -79 0
v -5 -79 0
v -5 -78 0
v -4 -78 0
v -3 -79 0
v -4 -79 0
v -4 -78 0
v -3 -78 0
v -2 -79 0
v -3 -79 0
v -3 -78 0
v -2 -78 0
v -1 -79 0
v -2 -79 0
v -2 -78 0
v -1 -78 0
v -17 -80 0
v -18 -80 0
v -18 -79 0
v -17 -79 0
v -16 -80 0
v -17 -80 0
v -17 -79 0
v -16 -79 0
v -15 -80 0
v -16 -80 0
v -16 -79 0
v -15 -79 0
v -14 -80 0
v -15 -80 0
v -15 -79 0
v -14 -79 0
v -13 -80 0
v -14 -80 0
v -14 -79 0
v -13 -79 0
v -12 -80 0
v -13 -80 0
v -13 -79 0
v -12 -79 0
v -11 -80 0
v -12 -80 0
v -12 -79 0
v -11 -79 0
v -7 -80 0
v -8 -80 0
v -8 -79 0
v -7 -79 0
v -4 -80 0
v -5 -80 0
v -5 -79 0
v -4 -79 0

# Texture cooridinates (Count = 64)
vt 0.04173455 0.5834554
vt 0.06229666 0.5834554
vt 0.06229666 0.610989
vt 0.04173455 0.610989
vt 0.3330219 0.08345538
vt 0.3535841 0.08345538
vt 0.3535841 0.110989
vt 0.3330219 0.110989
vt 0.3122157 0.08345538
vt 0.3327778 0.08345538
vt 0.3327778 0.110989
vt 0.3122157 0.110989
vt 0.2081845 0.6667887
vt 0.2287466 0.6667887
vt 0.2287466 0.6943223
vt 0.2081845 0.6943223
vt 0.1873782 0.6667887
vt 0.2079404 0.6667887
vt 0.2079404 0.6943223
vt 0.1873782 0.6943223
vt 0.2081845 0.639011
vt 0.2287466 0.639011
vt 0.2287466 0.6665446
vt 0.2081845 0.6665446
vt 0.1873782 0.639011
vt 0.2079404 0.639011
vt 0.2079404 0.6665446
vt 0.1873782 0.6665446
vt 0.04173455 0.0001220703
vt 0.06229666 0.0001220703
vt 0.06229666 0.02765572
vt 0.04173455 0.02765572
vt 0.02092831 0.0001220703
vt 0.04149041 0.0001220703
vt 0.04149041 0.02765572
vt 0.02092831 0.02765572
vt 0.1457658 0.9723443
vt 0.1663279 0.9723443
vt 0.1663279 0.9998779
vt 0.1457658 0.9998779
vt 0.6659218 0.889011
vt 0.6864839 0.889011
vt 0.6864839 0.9165446
vt 0.6659218 0.9165446
vt 0.6451156 0.889011
vt 0.6656777 0.889011
vt 0.6656777 0.9165446
vt 0.6451156 0.9165446
vt 0.6659218 0.8612332
vt 0.6864839 0.8612332
vt 0.6864839 0.8887668
vt 0.6659218 0.8887668
vt 0.6451156 0.8612332
vt 0.6656777 0.8612332
vt 0.6656777 0.8887668
vt 0.6451156 0.8887668
vt 0.1249595 0.9723443
vt 0.1455216 0.9723443
vt 0.1455216 0.9998779
vt 0.1249595 0.9998779
vt 0.1873782 0.9723443
vt 0.2079404 0.9723443
vt 0.2079404 0.9998779
vt 0.1873782 0.9998779

# Normal
vn 0 0 -1

# Mesh description
g MontillaBlvdUpper_mesh_0002

# Faces
f 1/1/1 2/2/1 3/3/1 4/4/1
f 5/1/1 6/2/1 7/3/1 8/4/1
f 9/1/1 10/2/1 11/3/1 12/4/1
f 13/1/1 14/2/1 15/3/1 16/4/1
f 17/1/1 18/2/1 19/3/1 20/4/1
f 21/1/1 22/2/1 23/3/1 24/4/1
f 25/1/1 26/2/1 27/3/1 28/4/1
f 29/1/1 30/2/1 31/3/1 32/4/1
f 33/1/1 34/2/1 35/3/1 36/4/1
f 37/1/1 38/2/1 39/3/1 40/4/1
f 41/1/1 42/2/1 43/3/1 44/4/1
f 45/1/1 46/2/1 47/3/1 48/4/1
f 49/1/1 50/2/1 51/3/1 52/4/1
f 53/1/1 54/2/1 55/3/1 56/4/1
f 57/1/1 58/2/1 59/3/1 60/4/1
f 61/1/1 62/2/1 63/3/1 64/4/1
f 65/1/1 66/2/1 67/3/1 68/4/1
f 69/1/1 70/2/1 71/3/1 72/4/1
f 73/1/1 74/2/1 75/3/1 76/4/1
f 77/1/1 78/2/1 79/3/1 80/4/1
f 81/1/1 82/2/1 83/3/1 84/4/1
f 85/1/1 86/2/1 87/3/1 88/4/1
f 89/1/1 90/2/1 91/3/1 92/4/1
f 93/1/1 94/2/1 95/3/1 96/4/1
f 97/5/1 98/6/1 99/7/1 100/8/1
f 101/9/1 102/10/1 103/11/1 104/12/1
f 105/5/1 106/6/1 107/7/1 108/8/1
f 109/9/1 110/10/1 111/11/1 112/12/1
f 113/1/1 114/2/1 115/3/1 116/4/1
f 117/1/1 118/2/1 119/3/1 120/4/1
f 121/1/1 122/2/1 123/3/1 124/4/1
f 125/1/1 126/2/1 127/3/1 128/4/1
f 129/1/1 130/2/1 131/3/1 132/4/1
f 133/1/1 134/2/1 135/3/1 136/4/1
f 137/1/1 138/2/1 139/3/1 140/4/1
f 141/1/1 142/2/1 143/3/1 144/4/1
f 145/5/1 146/6/1 147/7/1 148/8/1
f 149/9/1 150/10/1 151/11/1 152/12/1
f 153/13/1 154/14/1 155/15/1 156/16/1
f 157/17/1 158/18/1 159/19/1 160/20/1
f 161/1/1 162/2/1 163/3/1 164/4/1
f 165/1/1 166/2/1 167/3/1 168/4/1
f 169/21/1 170/22/1 171/23/1 172/24/1
f 173/25/1 174/26/1 175/27/1 176/28/1
f 177/1/1 178/2/1 179/3/1 180/4/1
f 181/1/1 182/2/1 183/3/1 184/4/1
f 185/1/1 186/2/1 187/3/1 188/4/1
f 189/29/1 190/30/1 191/31/1 192/32/1
f 193/33/1 194/34/1 195/35/1 196/36/1
f 197/1/1 198/2/1 199/3/1 200/4/1
f 201/1/1 202/2/1 203/3/1 204/4/1
f 205/1/1 206/2/1 207/3/1 208/4/1
f 209/1/1 210/2/1 211/3/1 212/4/1
f 213/37/1 214/38/1 215/39/1 216/40/1
f 217/1/1 218/2/1 219/3/1 220/4/1
f 221/1/1 222/2/1 223/3/1 224/4/1
f 225/1/1 226/2/1 227/3/1 228/4/1
f 229/1/1 230/2/1 231/3/1 232/4/1
f 233/1/1 234/2/1 235/3/1 236/4/1
f 237/1/1 238/2/1 239/3/1 240/4/1
f 241/1/1 242/2/1 243/3/1 244/4/1
f 245/1/1 246/2/1 247/3/1 248/4/1
f 249/29/1 250/30/1 251/31/1 252/32/1
f 253/33/1 254/34/1 255/35/1 256/36/1
f 257/41/1 258/42/1 259/43/1 260/44/1
f 261/45/1 262/46/1 263/47/1 264/48/1
f 265/1/1 266/2/1 267/3/1 268/4/1
f 269/1/1 270/2/1 271/3/1 272/4/1
f 273/49/1 274/50/1 275/51/1 276/52/1
f 277/53/1 278/54/1 279/55/1 280/56/1
f 281/1/1 282/2/1 283/3/1 284/4/1
f 285/1/1 286/2/1 287/3/1 288/4/1
f 289/29/1 290/30/1 291/31/1 292/32/1
f 293/33/1 294/34/1 295/35/1 296/36/1
f 297/1/1 298/2/1 299/3/1 300/4/1
f 301/1/1 302/2/1 303/3/1 304/4/1
f 305/37/1 306/38/1 307/39/1 308/40/1
f 309/1/1 310/2/1 311/3/1 312/4/1
f 313/1/1 314/2/1 315/3/1 316/4/1
f 317/57/1 318/58/1 319/59/1 320/60/1
f 321/1/1 322/2/1 323/3/1 324/4/1
f 325/1/1 326/2/1 327/3/1 328/4/1
f 329/37/1 330/38/1 331/39/1 332/40/1
f 333/1/1 334/2/1 335/3/1 336/4/1
f 337/1/1 338/2/1 339/3/1 340/4/1
f 341/1/1 342/2/1 343/3/1 344/4/1
f 345/5/1 346/6/1 347/7/1 348/8/1
f 349/9/1 350/10/1 351/11/1 352/12/1
f 353/1/1 354/2/1 355/3/1 356/4/1
f 357/1/1 358/2/1 359/3/1 360/4/1
f 361/1/1 362/2/1 363/3/1 364/4/1
f 365/1/1 366/2/1 367/3/1 368/4/1
f 369/29/1 370/30/1 371/31/1 372/32/1
f 373/33/1 374/34/1 375/35/1 376/36/1
f 377/1/1 378/2/1 379/3/1 380/4/1
f 381/1/1 382/2/1 383/3/1 384/4/1
f 385/29/1 386/30/1 387/31/1 388/32/1
f 389/33/1 390/34/1 391/35/1 392/36/1
f 393/1/1 394/2/1 395/3/1 396/4/1
f 397/1/1 398/2/1 399/3/1 400/4/1
f 401/1/1 402/2/1 403/3/1 404/4/1
f 405/1/1 406/2/1 407/3/1 408/4/1
f 409/1/1 410/2/1 411/3/1 412/4/1
f 413/1/1 414/2/1 415/3/1 416/4/1
f 417/29/1 418/30/1 419/31/1 420/32/1
f 421/33/1 422/34/1 423/35/1 424/36/1
f 425/1/1 426/2/1 427/3/1 428/4/1
f 429/1/1 430/2/1 431/3/1 432/4/1
f 433/1/1 434/2/1 435/3/1 436/4/1
f 437/1/1 438/2/1 439/3/1 440/4/1
f 441/1/1 442/2/1 443/3/1 444/4/1
f 445/1/1 446/2/1 447/3/1 448/4/1
f 449/29/1 450/30/1 451/31/1 452/32/1
f 453/33/1 454/34/1 455/35/1 456/36/1
f 457/1/1 458/2/1 459/3/1 460/4/1
f 461/29/1 462/30/1 463/31/1 464/32/1
f 465/33/1 466/34/1 467/35/1 468/36/1
f 469/41/1 470/42/1 471/43/1 472/44/1
f 473/45/1 474/46/1 475/47/1 476/48/1
f 477/1/1 478/2/1 479/3/1 480/4/1
f 481/1/1 482/2/1 483/3/1 484/4/1
f 485/41/1 486/42/1 487/43/1 488/44/1
f 489/45/1 490/46/1 491/47/1 492/48/1
f 493/49/1 494/50/1 495/51/1 496/52/1
f 497/53/1 498/54/1 499/55/1 500/56/1
f 501/1/1 502/2/1 503/3/1 504/4/1
f 505/49/1 506/50/1 507/51/1 508/52/1
f 509/53/1 510/54/1 511/55/1 512/56/1
f 513/1/1 514/2/1 515/3/1 516/4/1
f 517/1/1 518/2/1 519/3/1 520/4/1
f 521/29/1 522/30/1 523/31/1 524/32/1
f 525/33/1 526/34/1 527/35/1 528/36/1
f 529/1/1 530/2/1 531/3/1 532/4/1
f 533/1/1 534/2/1 535/3/1 536/4/1
f 537/1/1 538/2/1 539/3/1 540/4/1
f 541/1/1 542/2/1 543/3/1 544/4/1
f 545/1/1 546/2/1 547/3/1 548/4/1
f 549/29/1 550/30/1 551/31/1 552/32/1
f 553/33/1 554/34/1 555/35/1 556/36/1
f 557/29/1 558/30/1 559/31/1 560/32/1
f 561/33/1 562/34/1 563/35/1 564/36/1
f 565/1/1 566/2/1 567/3/1 568/4/1
f 569/1/1 570/2/1 571/3/1 572/4/1
f 573/1/1 574/2/1 575/3/1 576/4/1
f 577/1/1 578/2/1 579/3/1 580/4/1
f 581/1/1 582/2/1 583/3/1 584/4/1
f 585/1/1 586/2/1 587/3/1 588/4/1
f 589/5/1 590/6/1 591/7/1 592/8/1
f 593/9/1 594/10/1 595/11/1 596/12/1
f 597/61/1 598/62/1 599/63/1 600/64/1
f 601/37/1 602/38/1 603/39/1 604/40/1
f 605/1/1 606/2/1 607/3/1 608/4/1
f 609/1/1 610/2/1 611/3/1 612/4/1
f 613/1/1 614/2/1 615/3/1 616/4/1
f 617/1/1 618/2/1 619/3/1 620/4/1
f 621/1/1 622/2/1 623/3/1 624/4/1
f 625/13/1 626/14/1 627/15/1 628/16/1
f 629/17/1 630/18/1 631/19/1 632/20/1
f 633/1/1 634/2/1 635/3/1 636/4/1
f 637/21/1 638/22/1 639/23/1 640/24/1
f 641/25/1 642/26/1 643/27/1 644/28/1
f 645/29/1 646/30/1 647/31/1 648/32/1
f 649/33/1 650/34/1 651/35/1 652/36/1
f 653/1/1 654/2/1 655/3/1 656/4/1
f 657/37/1 658/38/1 659/39/1 660/40/1
f 661/1/1 662/2/1 663/3/1 664/4/1
f 665/1/1 666/2/1 667/3/1 668/4/1
f 669/1/1 670/2/1 671/3/1 672/4/1
f 673/1/1 674/2/1 675/3/1 676/4/1
f 677/1/1 678/2/1 679/3/1 680/4/1
f 681/1/1 682/2/1 683/3/1 684/4/1
f 685/29/1 686/30/1 687/31/1 688/32/1
f 689/33/1 690/34/1 691/35/1 692/36/1
f 693/1/1 694/2/1 695/3/1 696/4/1
f 697/1/1 698/2/1 699/3/1 700/4/1
f 701/29/1 702/30/1 703/31/1 704/32/1
f 705/33/1 706/34/1 707/35/1 708/36/1
f 709/1/1 710/2/1 711/3/1 712/4/1
f 713/1/1 714/2/1 715/3/1 716/4/1
f 717/1/1 718/2/1 719/3/1 720/4/1
f 721/1/1 722/2/1 723/3/1 724/4/1
f 725/41/1 726/42/1 727/43/1 728/44/1
f 729/45/1 730/46/1 731/47/1 732/48/1
f 733/1/1 734/2/1 735/3/1 736/4/1
f 737/1/1 738/2/1 739/3/1 740/4/1
f 741/49/1 742/50/1 743/51/1 744/52/1
f 745/53/1 746/54/1 747/55/1 748/56/1
f 749/1/1 750/2/1 751/3/1 752/4/1
f 753/1/1 754/2/1 755/3/1 756/4/1
f 757/1/1 758/2/1 759/3/1 760/4/1
f 761/5/1 762/6/1 763/7/1 764/8/1
f 765/9/1 766/10/1 767/11/1 768/12/1
f 769/1/1 770/2/1 771/3/1 772/4/1
f 773/1/1 774/2/1 775/3/1 776/4/1
f 777/1/1 778/2/1 779/3/1 780/4/1
f 781/1/1 782/2/1 783/3/1 784/4/1
f 785/1/1 786/2/1 787/3/1 788/4/1
f 789/1/1 790/2/1 791/3/1 792/4/1
f 793/29/1 794/30/1 795/31/1 796/32/1
f 797/33/1 798/34/1 799/35/1 800/36/1
f 801/1/1 802/2/1 803/3/1 804/4/1
f 805/1/1 806/2/1 807/3/1 808/4/1
f 809/1/1 810/2/1 811/3/1 812/4/1
f 813/1/1 814/2/1 815/3/1 816/4/1
f 817/1/1 818/2/1 819/3/1 820/4/1
f 821/29/1 822/30/1 823/31/1 824/32/1
f 825/33/1 826/34/1 827/35/1 828/36/1
f 829/41/1 830/42/1 831/43/1 832/44/1
f 833/45/1 834/46/1 835/47/1 836/48/1
f 837/1/1 838/2/1 839/3/1 840/4/1
f 841/1/1 842/2/1 843/3/1 844/4/1
f 845/29/1 846/30/1 847/31/1 848/32/1
f 849/33/1 850/34/1 851/35/1 852/36/1
f 853/49/1 854/50/1 855/51/1 856/52/1
f 857/53/1 858/54/1 859/55/1 860/56/1
f 861/1/1 862/2/1 863/3/1 864/4/1
f 865/1/1 866/2/1 867/3/1 868/4/1
f 869/1/1 870/2/1 871/3/1 872/4/1
f 873/1/1 874/2/1 875/3/1 876/4/1
f 877/13/1 878/14/1 879/15/1 880/16/1
f 881/17/1 882/18/1 883/19/1 884/20/1
f 885/1/1 886/2/1 887/3/1 888/4/1
f 889/1/1 890/2/1 891/3/1 892/4/1
f 893/5/1 894/6/1 895/7/1 896/8/1
f 897/9/1 898/10/1 899/11/1 900/12/1
f 901/21/1 902/22/1 903/23/1 904/24/1
f 905/25/1 906/26/1 907/27/1 908/28/1
f 909/1/1 910/2/1 911/3/1 912/4/1
f 913/1/1 914/2/1 915/3/1 916/4/1
f 917/1/1 918/2/1 919/3/1 920/4/1
f 921/1/1 922/2/1 923/3/1 924/4/1
f 925/1/1 926/2/1 927/3/1 928/4/1
f 929/1/1 930/2/1 931/3/1 932/4/1
f 933/1/1 934/2/1 935/3/1 936/4/1
f 937/1/1 938/2/1 939/3/1 940/4/1
f 941/1/1 942/2/1 943/3/1 944/4/1
f 945/1/1 946/2/1 947/3/1 948/4/1
f 949/1/1 950/2/1 951/3/1 952/4/1
f 953/37/1 954/38/1 955/39/1 956/40/1
f 957/1/1 958/2/1 959/3/1 960/4/1

