# Tiled2Unity generated file. Do not modify by hand.
# Wavefront file for 'CityHall_mesh_0005.obj'

# Vertices (Count = 832)
v -43 -7 0
v -44 -7 0
v -44 -6 0
v -43 -6 0
v -42 -7 0
v -43 -7 0
v -43 -6 0
v -42 -6 0
v -41 -7 0
v -42 -7 0
v -42 -6 0
v -41 -6 0
v -40 -7 0
v -41 -7 0
v -41 -6 0
v -40 -6 0
v -43 -8 0
v -44 -8 0
v -44 -7 0
v -43 -7 0
v -42 -8 0
v -43 -8 0
v -43 -7 0
v -42 -7 0
v -41 -8 0
v -42 -8 0
v -42 -7 0
v -41 -7 0
v -40 -8 0
v -41 -8 0
v -41 -7 0
v -40 -7 0
v -43 -9 0
v -44 -9 0
v -44 -8 0
v -43 -8 0
v -42 -9 0
v -43 -9 0
v -43 -8 0
v -42 -8 0
v -41 -9 0
v -42 -9 0
v -42 -8 0
v -41 -8 0
v -40 -9 0
v -41 -9 0
v -41 -8 0
v -40 -8 0
v -38 -9 0
v -39 -9 0
v -39 -8 0
v -38 -8 0
v -37 -9 0
v -38 -9 0
v -38 -8 0
v -37 -8 0
v -36 -9 0
v -37 -9 0
v -37 -8 0
v -36 -8 0
v -35 -9 0
v -36 -9 0
v -36 -8 0
v -35 -8 0
v -31 -9 0
v -32 -9 0
v -32 -8 0
v -31 -8 0
v -30 -9 0
v -31 -9 0
v -31 -8 0
v -30 -8 0
v -29 -9 0
v -30 -9 0
v -30 -8 0
v -29 -8 0
v -28 -9 0
v -29 -9 0
v -29 -8 0
v -28 -8 0
v -13 -9 0
v -14 -9 0
v -14 -8 0
v -13 -8 0
v -12 -9 0
v -13 -9 0
v -13 -8 0
v -12 -8 0
v -11 -9 0
v -12 -9 0
v -12 -8 0
v -11 -8 0
v -10 -9 0
v -11 -9 0
v -11 -8 0
v -10 -8 0
v -4 -9 0
v -5 -9 0
v -5 -8 0
v -4 -8 0
v -3 -9 0
v -4 -9 0
v -4 -8 0
v -3 -8 0
v -2 -9 0
v -3 -9 0
v -3 -8 0
v -2 -8 0
v -1 -9 0
v -2 -9 0
v -2 -8 0
v -1 -8 0
v -38 -10 0
v -39 -10 0
v -39 -9 0
v -38 -9 0
v -37 -10 0
v -38 -10 0
v -38 -9 0
v -37 -9 0
v -36 -10 0
v -37 -10 0
v -37 -9 0
v -36 -9 0
v -35 -10 0
v -36 -10 0
v -36 -9 0
v -35 -9 0
v -31 -10 0
v -32 -10 0
v -32 -9 0
v -31 -9 0
v -30 -10 0
v -31 -10 0
v -31 -9 0
v -30 -9 0
v -29 -10 0
v -30 -10 0
v -30 -9 0
v -29 -9 0
v -28 -10 0
v -29 -10 0
v -29 -9 0
v -28 -9 0
v -13 -10 0
v -14 -10 0
v -14 -9 0
v -13 -9 0
v -12 -10 0
v -13 -10 0
v -13 -9 0
v -12 -9 0
v -11 -10 0
v -12 -10 0
v -12 -9 0
v -11 -9 0
v -10 -10 0
v -11 -10 0
v -11 -9 0
v -10 -9 0
v -4 -10 0
v -5 -10 0
v -5 -9 0
v -4 -9 0
v -3 -10 0
v -4 -10 0
v -4 -9 0
v -3 -9 0
v -2 -10 0
v -3 -10 0
v -3 -9 0
v -2 -9 0
v -1 -10 0
v -2 -10 0
v -2 -9 0
v -1 -9 0
v -31 -11 0
v -32 -11 0
v -32 -10 0
v -31 -10 0
v -30 -11 0
v -31 -11 0
v -31 -10 0
v -30 -10 0
v -29 -11 0
v -30 -11 0
v -30 -10 0
v -29 -10 0
v -28 -11 0
v -29 -11 0
v -29 -10 0
v -28 -10 0
v -4 -11 0
v -5 -11 0
v -5 -10 0
v -4 -10 0
v -3 -11 0
v -4 -11 0
v -4 -10 0
v -3 -10 0
v -2 -11 0
v -3 -11 0
v -3 -10 0
v -2 -10 0
v -1 -11 0
v -2 -11 0
v -2 -10 0
v -1 -10 0
v -39 -15 0
v -40 -15 0
v -40 -14 0
v -39 -14 0
v -38 -15 0
v -39 -15 0
v -39 -14 0
v -38 -14 0
v -37 -15 0
v -38 -15 0
v -38 -14 0
v -37 -14 0
v -36 -15 0
v -37 -15 0
v -37 -14 0
v -36 -14 0
v -5 -15 0
v -6 -15 0
v -6 -14 0
v -5 -14 0
v -4 -15 0
v -5 -15 0
v -5 -14 0
v -4 -14 0
v -3 -15 0
v -4 -15 0
v -4 -14 0
v -3 -14 0
v -2 -15 0
v -3 -15 0
v -3 -14 0
v -2 -14 0
v -39 -16 0
v -40 -16 0
v -40 -15 0
v -39 -15 0
v -38 -16 0
v -39 -16 0
v -39 -15 0
v -38 -15 0
v -37 -16 0
v -38 -16 0
v -38 -15 0
v -37 -15 0
v -36 -16 0
v -37 -16 0
v -37 -15 0
v -36 -15 0
v -31 -16 0
v -32 -16 0
v -32 -15 0
v -31 -15 0
v -30 -16 0
v -31 -16 0
v -31 -15 0
v -30 -15 0
v -29 -16 0
v -30 -16 0
v -30 -15 0
v -29 -15 0
v -28 -16 0
v -29 -16 0
v -29 -15 0
v -28 -15 0
v -5 -16 0
v -6 -16 0
v -6 -15 0
v -5 -15 0
v -4 -16 0
v -5 -16 0
v -5 -15 0
v -4 -15 0
v -3 -16 0
v -4 -16 0
v -4 -15 0
v -3 -15 0
v -2 -16 0
v -3 -16 0
v -3 -15 0
v -2 -15 0
v -39 -17 0
v -40 -17 0
v -40 -16 0
v -39 -16 0
v -38 -17 0
v -39 -17 0
v -39 -16 0
v -38 -16 0
v -37 -17 0
v -38 -17 0
v -38 -16 0
v -37 -16 0
v -36 -17 0
v -37 -17 0
v -37 -16 0
v -36 -16 0
v -31 -17 0
v -32 -17 0
v -32 -16 0
v -31 -16 0
v -30 -17 0
v -31 -17 0
v -31 -16 0
v -30 -16 0
v -29 -17 0
v -30 -17 0
v -30 -16 0
v -29 -16 0
v -28 -17 0
v -29 -17 0
v -29 -16 0
v -28 -16 0
v -18 -17 0
v -19 -17 0
v -19 -16 0
v -18 -16 0
v -17 -17 0
v -18 -17 0
v -18 -16 0
v -17 -16 0
v -16 -17 0
v -17 -17 0
v -17 -16 0
v -16 -16 0
v -15 -17 0
v -16 -17 0
v -16 -16 0
v -15 -16 0
v -18 -18 0
v -19 -18 0
v -19 -17 0
v -18 -17 0
v -17 -18 0
v -18 -18 0
v -18 -17 0
v -17 -17 0
v -16 -18 0
v -17 -18 0
v -17 -17 0
v -16 -17 0
v -15 -18 0
v -16 -18 0
v -16 -17 0
v -15 -17 0
v -43 -19 0
v -44 -19 0
v -44 -18 0
v -43 -18 0
v -42 -19 0
v -43 -19 0
v -43 -18 0
v -42 -18 0
v -41 -19 0
v -42 -19 0
v -42 -18 0
v -41 -18 0
v -40 -19 0
v -41 -19 0
v -41 -18 0
v -40 -18 0
v -43 -20 0
v -44 -20 0
v -44 -19 0
v -43 -19 0
v -42 -20 0
v -43 -20 0
v -43 -19 0
v -42 -19 0
v -41 -20 0
v -42 -20 0
v -42 -19 0
v -41 -19 0
v -40 -20 0
v -41 -20 0
v -41 -19 0
v -40 -19 0
v -30 -21 0
v -31 -21 0
v -31 -20 0
v -30 -20 0
v -29 -21 0
v -30 -21 0
v -30 -20 0
v -29 -20 0
v -28 -21 0
v -29 -21 0
v -29 -20 0
v -28 -20 0
v -27 -21 0
v -28 -21 0
v -28 -20 0
v -27 -20 0
v -15 -21 0
v -16 -21 0
v -16 -20 0
v -15 -20 0
v -14 -21 0
v -15 -21 0
v -15 -20 0
v -14 -20 0
v -13 -21 0
v -14 -21 0
v -14 -20 0
v -13 -20 0
v -12 -21 0
v -13 -21 0
v -13 -20 0
v -12 -20 0
v -30 -22 0
v -31 -22 0
v -31 -21 0
v -30 -21 0
v -29 -22 0
v -30 -22 0
v -30 -21 0
v -29 -21 0
v -28 -22 0
v -29 -22 0
v -29 -21 0
v -28 -21 0
v -27 -22 0
v -28 -22 0
v -28 -21 0
v -27 -21 0
v -15 -22 0
v -16 -22 0
v -16 -21 0
v -15 -21 0
v -14 -22 0
v -15 -22 0
v -15 -21 0
v -14 -21 0
v -13 -22 0
v -14 -22 0
v -14 -21 0
v -13 -21 0
v -12 -22 0
v -13 -22 0
v -13 -21 0
v -12 -21 0
v -7 -23 0
v -8 -23 0
v -8 -22 0
v -7 -22 0
v -6 -23 0
v -7 -23 0
v -7 -22 0
v -6 -22 0
v -5 -23 0
v -6 -23 0
v -6 -22 0
v -5 -22 0
v -4 -23 0
v -5 -23 0
v -5 -22 0
v -4 -22 0
v -7 -24 0
v -8 -24 0
v -8 -23 0
v -7 -23 0
v -6 -24 0
v -7 -24 0
v -7 -23 0
v -6 -23 0
v -5 -24 0
v -6 -24 0
v -6 -23 0
v -5 -23 0
v -4 -24 0
v -5 -24 0
v -5 -23 0
v -4 -23 0
v -5 -29 0
v -6 -29 0
v -6 -28 0
v -5 -28 0
v -4 -29 0
v -5 -29 0
v -5 -28 0
v -4 -28 0
v -3 -29 0
v -4 -29 0
v -4 -28 0
v -3 -28 0
v -2 -29 0
v -3 -29 0
v -3 -28 0
v -2 -28 0
v -5 -30 0
v -6 -30 0
v -6 -29 0
v -5 -29 0
v -4 -30 0
v -5 -30 0
v -5 -29 0
v -4 -29 0
v -3 -30 0
v -4 -30 0
v -4 -29 0
v -3 -29 0
v -2 -30 0
v -3 -30 0
v -3 -29 0
v -2 -29 0
v -14 -33 0
v -15 -33 0
v -15 -32 0
v -14 -32 0
v -13 -33 0
v -14 -33 0
v -14 -32 0
v -13 -32 0
v -12 -33 0
v -13 -33 0
v -13 -32 0
v -12 -32 0
v -11 -33 0
v -12 -33 0
v -12 -32 0
v -11 -32 0
v -7 -33 0
v -8 -33 0
v -8 -32 0
v -7 -32 0
v -6 -33 0
v -7 -33 0
v -7 -32 0
v -6 -32 0
v -5 -33 0
v -6 -33 0
v -6 -32 0
v -5 -32 0
v -4 -33 0
v -5 -33 0
v -5 -32 0
v -4 -32 0
v -14 -34 0
v -15 -34 0
v -15 -33 0
v -14 -33 0
v -13 -34 0
v -14 -34 0
v -14 -33 0
v -13 -33 0
v -12 -34 0
v -13 -34 0
v -13 -33 0
v -12 -33 0
v -11 -34 0
v -12 -34 0
v -12 -33 0
v -11 -33 0
v -7 -34 0
v -8 -34 0
v -8 -33 0
v -7 -33 0
v -6 -34 0
v -7 -34 0
v -7 -33 0
v -6 -33 0
v -5 -34 0
v -6 -34 0
v -6 -33 0
v -5 -33 0
v -4 -34 0
v -5 -34 0
v -5 -33 0
v -4 -33 0
v -14 -35 0
v -15 -35 0
v -15 -34 0
v -14 -34 0
v -13 -35 0
v -14 -35 0
v -14 -34 0
v -13 -34 0
v -12 -35 0
v -13 -35 0
v -13 -34 0
v -12 -34 0
v -11 -35 0
v -12 -35 0
v -12 -34 0
v -11 -34 0
v -30 -40 0
v -31 -40 0
v -31 -39 0
v -30 -39 0
v -29 -40 0
v -30 -40 0
v -30 -39 0
v -29 -39 0
v -28 -40 0
v -29 -40 0
v -29 -39 0
v -28 -39 0
v -27 -40 0
v -28 -40 0
v -28 -39 0
v -27 -39 0
v -30 -41 0
v -31 -41 0
v -31 -40 0
v -30 -40 0
v -29 -41 0
v -30 -41 0
v -30 -40 0
v -29 -40 0
v -28 -41 0
v -29 -41 0
v -29 -40 0
v -28 -40 0
v -27 -41 0
v -28 -41 0
v -28 -40 0
v -27 -40 0
v -23 -41 0
v -24 -41 0
v -24 -40 0
v -23 -40 0
v -22 -41 0
v -23 -41 0
v -23 -40 0
v -22 -40 0
v -21 -41 0
v -22 -41 0
v -22 -40 0
v -21 -40 0
v -14 -41 0
v -15 -41 0
v -15 -40 0
v -14 -40 0
v -13 -41 0
v -14 -41 0
v -14 -40 0
v -13 -40 0
v -12 -41 0
v -13 -41 0
v -13 -40 0
v -12 -40 0
v -11 -41 0
v -12 -41 0
v -12 -40 0
v -11 -40 0
v -23 -42 0
v -24 -42 0
v -24 -41 0
v -23 -41 0
v -22 -42 0
v -23 -42 0
v -23 -41 0
v -22 -41 0
v -21 -42 0
v -22 -42 0
v -22 -41 0
v -21 -41 0
v -14 -42 0
v -15 -42 0
v -15 -41 0
v -14 -41 0
v -13 -42 0
v -14 -42 0
v -14 -41 0
v -13 -41 0
v -12 -42 0
v -13 -42 0
v -13 -41 0
v -12 -41 0
v -11 -42 0
v -12 -42 0
v -12 -41 0
v -11 -41 0
v -17 -44 0
v -18 -44 0
v -18 -43 0
v -17 -43 0
v -16 -44 0
v -17 -44 0
v -17 -43 0
v -16 -43 0
v -15 -44 0
v -16 -44 0
v -16 -43 0
v -15 -43 0
v -14 -44 0
v -15 -44 0
v -15 -43 0
v -14 -43 0
v -17 -45 0
v -18 -45 0
v -18 -44 0
v -17 -44 0
v -16 -45 0
v -17 -45 0
v -17 -44 0
v -16 -44 0
v -15 -45 0
v -16 -45 0
v -16 -44 0
v -15 -44 0
v -14 -45 0
v -15 -45 0
v -15 -44 0
v -14 -44 0
v -38 -47 0
v -39 -47 0
v -39 -46 0
v -38 -46 0
v -37 -47 0
v -38 -47 0
v -38 -46 0
v -37 -46 0
v -36 -47 0
v -37 -47 0
v -37 -46 0
v -36 -46 0
v -35 -47 0
v -36 -47 0
v -36 -46 0
v -35 -46 0
v -5 -47 0
v -6 -47 0
v -6 -46 0
v -5 -46 0
v -4 -47 0
v -5 -47 0
v -5 -46 0
v -4 -46 0
v -3 -47 0
v -4 -47 0
v -4 -46 0
v -3 -46 0
v -2 -47 0
v -3 -47 0
v -3 -46 0
v -2 -46 0
v -38 -48 0
v -39 -48 0
v -39 -47 0
v -38 -47 0
v -37 -48 0
v -38 -48 0
v -38 -47 0
v -37 -47 0
v -36 -48 0
v -37 -48 0
v -37 -47 0
v -36 -47 0
v -35 -48 0
v -36 -48 0
v -36 -47 0
v -35 -47 0
v -10 -48 0
v -11 -48 0
v -11 -47 0
v -10 -47 0
v -9 -48 0
v -10 -48 0
v -10 -47 0
v -9 -47 0
v -8 -48 0
v -9 -48 0
v -9 -47 0
v -8 -47 0
v -5 -48 0
v -6 -48 0
v -6 -47 0
v -5 -47 0
v -4 -48 0
v -5 -48 0
v -5 -47 0
v -4 -47 0
v -3 -48 0
v -4 -48 0
v -4 -47 0
v -3 -47 0
v -2 -48 0
v -3 -48 0
v -3 -47 0
v -2 -47 0
v -38 -49 0
v -39 -49 0
v -39 -48 0
v -38 -48 0
v -37 -49 0
v -38 -49 0
v -38 -48 0
v -37 -48 0
v -36 -49 0
v -37 -49 0
v -37 -48 0
v -36 -48 0
v -35 -49 0
v -36 -49 0
v -36 -48 0
v -35 -48 0
v -10 -49 0
v -11 -49 0
v -11 -48 0
v -10 -48 0
v -9 -49 0
v -10 -49 0
v -10 -48 0
v -9 -48 0
v -8 -49 0
v -9 -49 0
v -9 -48 0
v -8 -48 0
v -5 -49 0
v -6 -49 0
v -6 -48 0
v -5 -48 0
v -4 -49 0
v -5 -49 0
v -5 -48 0
v -4 -48 0
v -3 -49 0
v -4 -49 0
v -4 -48 0
v -3 -48 0
v -2 -49 0
v -3 -49 0
v -3 -48 0
v -2 -48 0

# Texture cooridinates (Count = 104)
vt 0.3538282 0.1667888
vt 0.3743903 0.1667888
vt 0.3743903 0.1943223
vt 0.3538282 0.1943223
vt 0.3330219 0.1667888
vt 0.3535841 0.1667888
vt 0.3535841 0.1943223
vt 0.3330219 0.1943223
vt 0.3122157 0.1667888
vt 0.3327778 0.1667888
vt 0.3327778 0.1943223
vt 0.3122157 0.1943223
vt 0.2914095 0.1667888
vt 0.3119715 0.1667888
vt 0.3119715 0.1943223
vt 0.2914095 0.1943223
vt 0.3538282 0.139011
vt 0.3743903 0.139011
vt 0.3743903 0.1665446
vt 0.3538282 0.1665446
vt 0.3330219 0.139011
vt 0.3535841 0.139011
vt 0.3535841 0.1665446
vt 0.3330219 0.1665446
vt 0.3122157 0.139011
vt 0.3327778 0.139011
vt 0.3327778 0.1665446
vt 0.3122157 0.1665446
vt 0.2914095 0.139011
vt 0.3119715 0.139011
vt 0.3119715 0.1665446
vt 0.2914095 0.1665446
vt 0.3538282 0.1112332
vt 0.3743903 0.1112332
vt 0.3743903 0.1387668
vt 0.3538282 0.1387668
vt 0.3330219 0.1112332
vt 0.3535841 0.1112332
vt 0.3535841 0.1387668
vt 0.3330219 0.1387668
vt 0.3122157 0.1112332
vt 0.3327778 0.1112332
vt 0.3327778 0.1387668
vt 0.3122157 0.1387668
vt 0.2914095 0.1112332
vt 0.3119715 0.1112332
vt 0.3119715 0.1387668
vt 0.2914095 0.1387668
vt 0.0625408 0.08345538
vt 0.0831029 0.08345538
vt 0.0831029 0.110989
vt 0.0625408 0.110989
vt 0.04173455 0.08345538
vt 0.06229666 0.08345538
vt 0.06229666 0.110989
vt 0.04173455 0.110989
vt 0.02092831 0.08345538
vt 0.04149041 0.08345538
vt 0.04149041 0.110989
vt 0.02092831 0.110989
vt 0.0001220703 0.08345538
vt 0.02068417 0.08345538
vt 0.02068417 0.110989
vt 0.0001220703 0.110989
vt 0.0625408 0.05567765
vt 0.0831029 0.05567765
vt 0.0831029 0.08321124
vt 0.0625408 0.08321124
vt 0.04173455 0.05567765
vt 0.06229666 0.05567765
vt 0.06229666 0.08321124
vt 0.04173455 0.08321124
vt 0.02092831 0.05567765
vt 0.04149041 0.05567765
vt 0.04149041 0.08321124
vt 0.02092831 0.08321124
vt 0.0001220703 0.05567765
vt 0.02068417 0.05567765
vt 0.02068417 0.08321124
vt 0.0001220703 0.08321124
vt 0.1249595 0.08345538
vt 0.1455216 0.08345538
vt 0.1455216 0.110989
vt 0.1249595 0.110989
vt 0.1041533 0.08345538
vt 0.1247154 0.08345538
vt 0.1247154 0.110989
vt 0.1041533 0.110989
vt 0.08334704 0.08345538
vt 0.1039091 0.08345538
vt 0.1039091 0.110989
vt 0.08334704 0.110989
vt 0.1249595 0.05567765
vt 0.1455216 0.05567765
vt 0.1455216 0.08321124
vt 0.1249595 0.08321124
vt 0.1041533 0.05567765
vt 0.1247154 0.05567765
vt 0.1247154 0.08321124
vt 0.1041533 0.08321124
vt 0.08334704 0.05567765
vt 0.1039091 0.05567765
vt 0.1039091 0.08321124
vt 0.08334704 0.08321124

# Normal
vn 0 0 -1

# Mesh description
g CityHall_mesh_0005

# Faces
f 1/1/1 2/2/1 3/3/1 4/4/1
f 5/5/1 6/6/1 7/7/1 8/8/1
f 9/9/1 10/10/1 11/11/1 12/12/1
f 13/13/1 14/14/1 15/15/1 16/16/1
f 17/17/1 18/18/1 19/19/1 20/20/1
f 21/21/1 22/22/1 23/23/1 24/24/1
f 25/25/1 26/26/1 27/27/1 28/28/1
f 29/29/1 30/30/1 31/31/1 32/32/1
f 33/33/1 34/34/1 35/35/1 36/36/1
f 37/37/1 38/38/1 39/39/1 40/40/1
f 41/41/1 42/42/1 43/43/1 44/44/1
f 45/45/1 46/46/1 47/47/1 48/48/1
f 49/49/1 50/50/1 51/51/1 52/52/1
f 53/53/1 54/54/1 55/55/1 56/56/1
f 57/57/1 58/58/1 59/59/1 60/60/1
f 61/61/1 62/62/1 63/63/1 64/64/1
f 65/1/1 66/2/1 67/3/1 68/4/1
f 69/5/1 70/6/1 71/7/1 72/8/1
f 73/9/1 74/10/1 75/11/1 76/12/1
f 77/13/1 78/14/1 79/15/1 80/16/1
f 81/49/1 82/50/1 83/51/1 84/52/1
f 85/53/1 86/54/1 87/55/1 88/56/1
f 89/57/1 90/58/1 91/59/1 92/60/1
f 93/61/1 94/62/1 95/63/1 96/64/1
f 97/1/1 98/2/1 99/3/1 100/4/1
f 101/5/1 102/6/1 103/7/1 104/8/1
f 105/9/1 106/10/1 107/11/1 108/12/1
f 109/13/1 110/14/1 111/15/1 112/16/1
f 113/65/1 114/66/1 115/67/1 116/68/1
f 117/69/1 118/70/1 119/71/1 120/72/1
f 121/73/1 122/74/1 123/75/1 124/76/1
f 125/77/1 126/78/1 127/79/1 128/80/1
f 129/17/1 130/18/1 131/19/1 132/20/1
f 133/21/1 134/22/1 135/23/1 136/24/1
f 137/25/1 138/26/1 139/27/1 140/28/1
f 141/29/1 142/30/1 143/31/1 144/32/1
f 145/65/1 146/66/1 147/67/1 148/68/1
f 149/69/1 150/70/1 151/71/1 152/72/1
f 153/73/1 154/74/1 155/75/1 156/76/1
f 157/77/1 158/78/1 159/79/1 160/80/1
f 161/17/1 162/18/1 163/19/1 164/20/1
f 165/21/1 166/22/1 167/23/1 168/24/1
f 169/25/1 170/26/1 171/27/1 172/28/1
f 173/29/1 174/30/1 175/31/1 176/32/1
f 177/33/1 178/34/1 179/35/1 180/36/1
f 181/37/1 182/38/1 183/39/1 184/40/1
f 185/41/1 186/42/1 187/43/1 188/44/1
f 189/45/1 190/46/1 191/47/1 192/48/1
f 193/33/1 194/34/1 195/35/1 196/36/1
f 197/37/1 198/38/1 199/39/1 200/40/1
f 201/41/1 202/42/1 203/43/1 204/44/1
f 205/45/1 206/46/1 207/47/1 208/48/1
f 209/1/1 210/2/1 211/3/1 212/4/1
f 213/5/1 214/6/1 215/7/1 216/8/1
f 217/9/1 218/10/1 219/11/1 220/12/1
f 221/13/1 222/14/1 223/15/1 224/16/1
f 225/49/1 226/50/1 227/51/1 228/52/1
f 229/53/1 230/54/1 231/55/1 232/56/1
f 233/57/1 234/58/1 235/59/1 236/60/1
f 237/61/1 238/62/1 239/63/1 240/64/1
f 241/17/1 242/18/1 243/19/1 244/20/1
f 245/21/1 246/22/1 247/23/1 248/24/1
f 249/25/1 250/26/1 251/27/1 252/28/1
f 253/29/1 254/30/1 255/31/1 256/32/1
f 257/49/1 258/50/1 259/51/1 260/52/1
f 261/53/1 262/54/1 263/55/1 264/56/1
f 265/57/1 266/58/1 267/59/1 268/60/1
f 269/61/1 270/62/1 271/63/1 272/64/1
f 273/65/1 274/66/1 275/67/1 276/68/1
f 277/69/1 278/70/1 279/71/1 280/72/1
f 281/73/1 282/74/1 283/75/1 284/76/1
f 285/77/1 286/78/1 287/79/1 288/80/1
f 289/33/1 290/34/1 291/35/1 292/36/1
f 293/37/1 294/38/1 295/39/1 296/40/1
f 297/41/1 298/42/1 299/43/1 300/44/1
f 301/45/1 302/46/1 303/47/1 304/48/1
f 305/65/1 306/66/1 307/67/1 308/68/1
f 309/69/1 310/70/1 311/71/1 312/72/1
f 313/73/1 314/74/1 315/75/1 316/76/1
f 317/77/1 318/78/1 319/79/1 320/80/1
f 321/49/1 322/50/1 323/51/1 324/52/1
f 325/53/1 326/54/1 327/55/1 328/56/1
f 329/57/1 330/58/1 331/59/1 332/60/1
f 333/61/1 334/62/1 335/63/1 336/64/1
f 337/65/1 338/66/1 339/67/1 340/68/1
f 341/69/1 342/70/1 343/71/1 344/72/1
f 345/73/1 346/74/1 347/75/1 348/76/1
f 349/77/1 350/78/1 351/79/1 352/80/1
f 353/49/1 354/50/1 355/51/1 356/52/1
f 357/53/1 358/54/1 359/55/1 360/56/1
f 361/57/1 362/58/1 363/59/1 364/60/1
f 365/61/1 366/62/1 367/63/1 368/64/1
f 369/65/1 370/66/1 371/67/1 372/68/1
f 373/69/1 374/70/1 375/71/1 376/72/1
f 377/73/1 378/74/1 379/75/1 380/76/1
f 381/77/1 382/78/1 383/79/1 384/80/1
f 385/49/1 386/50/1 387/51/1 388/52/1
f 389/53/1 390/54/1 391/55/1 392/56/1
f 393/57/1 394/58/1 395/59/1 396/60/1
f 397/61/1 398/62/1 399/63/1 400/64/1
f 401/49/1 402/50/1 403/51/1 404/52/1
f 405/53/1 406/54/1 407/55/1 408/56/1
f 409/57/1 410/58/1 411/59/1 412/60/1
f 413/61/1 414/62/1 415/63/1 416/64/1
f 417/65/1 418/66/1 419/67/1 420/68/1
f 421/69/1 422/70/1 423/71/1 424/72/1
f 425/73/1 426/74/1 427/75/1 428/76/1
f 429/77/1 430/78/1 431/79/1 432/80/1
f 433/65/1 434/66/1 435/67/1 436/68/1
f 437/69/1 438/70/1 439/71/1 440/72/1
f 441/73/1 442/74/1 443/75/1 444/76/1
f 445/77/1 446/78/1 447/79/1 448/80/1
f 449/49/1 450/50/1 451/51/1 452/52/1
f 453/53/1 454/54/1 455/55/1 456/56/1
f 457/57/1 458/58/1 459/59/1 460/60/1
f 461/61/1 462/62/1 463/63/1 464/64/1
f 465/65/1 466/66/1 467/67/1 468/68/1
f 469/69/1 470/70/1 471/71/1 472/72/1
f 473/73/1 474/74/1 475/75/1 476/76/1
f 477/77/1 478/78/1 479/79/1 480/80/1
f 481/49/1 482/50/1 483/51/1 484/52/1
f 485/53/1 486/54/1 487/55/1 488/56/1
f 489/57/1 490/58/1 491/59/1 492/60/1
f 493/61/1 494/62/1 495/63/1 496/64/1
f 497/65/1 498/66/1 499/67/1 500/68/1
f 501/69/1 502/70/1 503/71/1 504/72/1
f 505/73/1 506/74/1 507/75/1 508/76/1
f 509/77/1 510/78/1 511/79/1 512/80/1
f 513/1/1 514/2/1 515/3/1 516/4/1
f 517/5/1 518/6/1 519/7/1 520/8/1
f 521/9/1 522/10/1 523/11/1 524/12/1
f 525/13/1 526/14/1 527/15/1 528/16/1
f 529/49/1 530/50/1 531/51/1 532/52/1
f 533/53/1 534/54/1 535/55/1 536/56/1
f 537/57/1 538/58/1 539/59/1 540/60/1
f 541/61/1 542/62/1 543/63/1 544/64/1
f 545/17/1 546/18/1 547/19/1 548/20/1
f 549/21/1 550/22/1 551/23/1 552/24/1
f 553/25/1 554/26/1 555/27/1 556/28/1
f 557/29/1 558/30/1 559/31/1 560/32/1
f 561/65/1 562/66/1 563/67/1 564/68/1
f 565/69/1 566/70/1 567/71/1 568/72/1
f 569/73/1 570/74/1 571/75/1 572/76/1
f 573/77/1 574/78/1 575/79/1 576/80/1
f 577/33/1 578/34/1 579/35/1 580/36/1
f 581/37/1 582/38/1 583/39/1 584/40/1
f 585/41/1 586/42/1 587/43/1 588/44/1
f 589/45/1 590/46/1 591/47/1 592/48/1
f 593/49/1 594/50/1 595/51/1 596/52/1
f 597/53/1 598/54/1 599/55/1 600/56/1
f 601/57/1 602/58/1 603/59/1 604/60/1
f 605/61/1 606/62/1 607/63/1 608/64/1
f 609/65/1 610/66/1 611/67/1 612/68/1
f 613/69/1 614/70/1 615/71/1 616/72/1
f 617/73/1 618/74/1 619/75/1 620/76/1
f 621/77/1 622/78/1 623/79/1 624/80/1
f 625/81/1 626/82/1 627/83/1 628/84/1
f 629/85/1 630/86/1 631/87/1 632/88/1
f 633/89/1 634/90/1 635/91/1 636/92/1
f 637/49/1 638/50/1 639/51/1 640/52/1
f 641/53/1 642/54/1 643/55/1 644/56/1
f 645/57/1 646/58/1 647/59/1 648/60/1
f 649/61/1 650/62/1 651/63/1 652/64/1
f 653/93/1 654/94/1 655/95/1 656/96/1
f 657/97/1 658/98/1 659/99/1 660/100/1
f 661/101/1 662/102/1 663/103/1 664/104/1
f 665/65/1 666/66/1 667/67/1 668/68/1
f 669/69/1 670/70/1 671/71/1 672/72/1
f 673/73/1 674/74/1 675/75/1 676/76/1
f 677/77/1 678/78/1 679/79/1 680/80/1
f 681/49/1 682/50/1 683/51/1 684/52/1
f 685/53/1 686/54/1 687/55/1 688/56/1
f 689/57/1 690/58/1 691/59/1 692/60/1
f 693/61/1 694/62/1 695/63/1 696/64/1
f 697/65/1 698/66/1 699/67/1 700/68/1
f 701/69/1 702/70/1 703/71/1 704/72/1
f 705/73/1 706/74/1 707/75/1 708/76/1
f 709/77/1 710/78/1 711/79/1 712/80/1
f 713/1/1 714/2/1 715/3/1 716/4/1
f 717/5/1 718/6/1 719/7/1 720/8/1
f 721/9/1 722/10/1 723/11/1 724/12/1
f 725/13/1 726/14/1 727/15/1 728/16/1
f 729/1/1 730/2/1 731/3/1 732/4/1
f 733/5/1 734/6/1 735/7/1 736/8/1
f 737/9/1 738/10/1 739/11/1 740/12/1
f 741/13/1 742/14/1 743/15/1 744/16/1
f 745/17/1 746/18/1 747/19/1 748/20/1
f 749/21/1 750/22/1 751/23/1 752/24/1
f 753/25/1 754/26/1 755/27/1 756/28/1
f 757/29/1 758/30/1 759/31/1 760/32/1
f 761/81/1 762/82/1 763/83/1 764/84/1
f 765/85/1 766/86/1 767/87/1 768/88/1
f 769/89/1 770/90/1 771/91/1 772/92/1
f 773/17/1 774/18/1 775/19/1 776/20/1
f 777/21/1 778/22/1 779/23/1 780/24/1
f 781/25/1 782/26/1 783/27/1 784/28/1
f 785/29/1 786/30/1 787/31/1 788/32/1
f 789/33/1 790/34/1 791/35/1 792/36/1
f 793/37/1 794/38/1 795/39/1 796/40/1
f 797/41/1 798/42/1 799/43/1 800/44/1
f 801/45/1 802/46/1 803/47/1 804/48/1
f 805/93/1 806/94/1 807/95/1 808/96/1
f 809/97/1 810/98/1 811/99/1 812/100/1
f 813/101/1 814/102/1 815/103/1 816/104/1
f 817/33/1 818/34/1 819/35/1 820/36/1
f 821/37/1 822/38/1 823/39/1 824/40/1
f 825/41/1 826/42/1 827/43/1 828/44/1
f 829/45/1 830/46/1 831/47/1 832/48/1

