# Tiled2Unity generated file. Do not modify by hand.
# Wavefront file for 'CityHall_mesh_0002.obj'

# Vertices (Count = 344)
v -31 -25 0
v -32 -25 0
v -32 -24 0
v -31 -24 0
v -32 -26 0
v -33 -26 0
v -33 -25 0
v -32 -25 0
v -31 -26 0
v -32 -26 0
v -32 -25 0
v -31 -25 0
v -30 -26 0
v -31 -26 0
v -31 -25 0
v -30 -25 0
v -12 -26 0
v -13 -26 0
v -13 -25 0
v -12 -25 0
v -32 -27 0
v -33 -27 0
v -33 -26 0
v -32 -26 0
v -31 -27 0
v -32 -27 0
v -32 -26 0
v -31 -26 0
v -30 -27 0
v -31 -27 0
v -31 -26 0
v -30 -26 0
v -29 -27 0
v -30 -27 0
v -30 -26 0
v -29 -26 0
v -13 -27 0
v -14 -27 0
v -14 -26 0
v -13 -26 0
v -12 -27 0
v -13 -27 0
v -13 -26 0
v -12 -26 0
v -32 -28 0
v -33 -28 0
v -33 -27 0
v -32 -27 0
v -31 -28 0
v -32 -28 0
v -32 -27 0
v -31 -27 0
v -30 -28 0
v -31 -28 0
v -31 -27 0
v -30 -27 0
v -29 -28 0
v -30 -28 0
v -30 -27 0
v -29 -27 0
v -28 -28 0
v -29 -28 0
v -29 -27 0
v -28 -27 0
v -14 -28 0
v -15 -28 0
v -15 -27 0
v -14 -27 0
v -13 -28 0
v -14 -28 0
v -14 -27 0
v -13 -27 0
v -12 -28 0
v -13 -28 0
v -13 -27 0
v -12 -27 0
v -30 -29 0
v -31 -29 0
v -31 -28 0
v -30 -28 0
v -29 -29 0
v -30 -29 0
v -30 -28 0
v -29 -28 0
v -28 -29 0
v -29 -29 0
v -29 -28 0
v -28 -28 0
v -27 -29 0
v -28 -29 0
v -28 -28 0
v -27 -28 0
v -15 -29 0
v -16 -29 0
v -16 -28 0
v -15 -28 0
v -14 -29 0
v -15 -29 0
v -15 -28 0
v -14 -28 0
v -13 -29 0
v -14 -29 0
v -14 -28 0
v -13 -28 0
v -12 -29 0
v -13 -29 0
v -13 -28 0
v -12 -28 0
v -29 -30 0
v -30 -30 0
v -30 -29 0
v -29 -29 0
v -28 -30 0
v -29 -30 0
v -29 -29 0
v -28 -29 0
v -27 -30 0
v -28 -30 0
v -28 -29 0
v -27 -29 0
v -26 -30 0
v -27 -30 0
v -27 -29 0
v -26 -29 0
v -25 -30 0
v -26 -30 0
v -26 -29 0
v -25 -29 0
v -24 -30 0
v -25 -30 0
v -25 -29 0
v -24 -29 0
v -23 -30 0
v -24 -30 0
v -24 -29 0
v -23 -29 0
v -22 -30 0
v -23 -30 0
v -23 -29 0
v -22 -29 0
v -21 -30 0
v -22 -30 0
v -22 -29 0
v -21 -29 0
v -20 -30 0
v -21 -30 0
v -21 -29 0
v -20 -29 0
v -19 -30 0
v -20 -30 0
v -20 -29 0
v -19 -29 0
v -18 -30 0
v -19 -30 0
v -19 -29 0
v -18 -29 0
v -17 -30 0
v -18 -30 0
v -18 -29 0
v -17 -29 0
v -16 -30 0
v -17 -30 0
v -17 -29 0
v -16 -29 0
v -15 -30 0
v -16 -30 0
v -16 -29 0
v -15 -29 0
v -14 -30 0
v -15 -30 0
v -15 -29 0
v -14 -29 0
v -13 -30 0
v -14 -30 0
v -14 -29 0
v -13 -29 0
v -28 -31 0
v -29 -31 0
v -29 -30 0
v -28 -30 0
v -27 -31 0
v -28 -31 0
v -28 -30 0
v -27 -30 0
v -26 -31 0
v -27 -31 0
v -27 -30 0
v -26 -30 0
v -25 -31 0
v -26 -31 0
v -26 -30 0
v -25 -30 0
v -24 -31 0
v -25 -31 0
v -25 -30 0
v -24 -30 0
v -23 -31 0
v -24 -31 0
v -24 -30 0
v -23 -30 0
v -22 -31 0
v -23 -31 0
v -23 -30 0
v -22 -30 0
v -21 -31 0
v -22 -31 0
v -22 -30 0
v -21 -30 0
v -20 -31 0
v -21 -31 0
v -21 -30 0
v -20 -30 0
v -19 -31 0
v -20 -31 0
v -20 -30 0
v -19 -30 0
v -18 -31 0
v -19 -31 0
v -19 -30 0
v -18 -30 0
v -17 -31 0
v -18 -31 0
v -18 -30 0
v -17 -30 0
v -16 -31 0
v -17 -31 0
v -17 -30 0
v -16 -30 0
v -15 -31 0
v -16 -31 0
v -16 -30 0
v -15 -30 0
v -14 -31 0
v -15 -31 0
v -15 -30 0
v -14 -30 0
v -28 -32 0
v -29 -32 0
v -29 -31 0
v -28 -31 0
v -27 -32 0
v -28 -32 0
v -28 -31 0
v -27 -31 0
v -26 -32 0
v -27 -32 0
v -27 -31 0
v -26 -31 0
v -25 -32 0
v -26 -32 0
v -26 -31 0
v -25 -31 0
v -24 -32 0
v -25 -32 0
v -25 -31 0
v -24 -31 0
v -23 -32 0
v -24 -32 0
v -24 -31 0
v -23 -31 0
v -22 -32 0
v -23 -32 0
v -23 -31 0
v -22 -31 0
v -21 -32 0
v -22 -32 0
v -22 -31 0
v -21 -31 0
v -20 -32 0
v -21 -32 0
v -21 -31 0
v -20 -31 0
v -19 -32 0
v -20 -32 0
v -20 -31 0
v -19 -31 0
v -18 -32 0
v -19 -32 0
v -19 -31 0
v -18 -31 0
v -17 -32 0
v -18 -32 0
v -18 -31 0
v -17 -31 0
v -16 -32 0
v -17 -32 0
v -17 -31 0
v -16 -31 0
v -15 -32 0
v -16 -32 0
v -16 -31 0
v -15 -31 0
v -28 -33 0
v -29 -33 0
v -29 -32 0
v -28 -32 0
v -27 -33 0
v -28 -33 0
v -28 -32 0
v -27 -32 0
v -26 -33 0
v -27 -33 0
v -27 -32 0
v -26 -32 0
v -25 -33 0
v -26 -33 0
v -26 -32 0
v -25 -32 0
v -24 -33 0
v -25 -33 0
v -25 -32 0
v -24 -32 0
v -23 -33 0
v -24 -33 0
v -24 -32 0
v -23 -32 0
v -22 -33 0
v -23 -33 0
v -23 -32 0
v -22 -32 0
v -21 -33 0
v -22 -33 0
v -22 -32 0
v -21 -32 0
v -20 -33 0
v -21 -33 0
v -21 -32 0
v -20 -32 0
v -19 -33 0
v -20 -33 0
v -20 -32 0
v -19 -32 0
v -18 -33 0
v -19 -33 0
v -19 -32 0
v -18 -32 0
v -17 -33 0
v -18 -33 0
v -18 -32 0
v -17 -32 0
v -16 -33 0
v -17 -33 0
v -17 -32 0
v -16 -32 0

# Texture cooridinates (Count = 64)
vt 0.1249595 0.6667887
vt 0.1455216 0.6667887
vt 0.1455216 0.6943223
vt 0.1249595 0.6943223
vt 0.1457658 0.6112332
vt 0.1663279 0.6112332
vt 0.1663279 0.6387668
vt 0.1457658 0.6387668
vt 0.1249595 0.6112332
vt 0.1455216 0.6112332
vt 0.1455216 0.6387668
vt 0.1249595 0.6387668
vt 0.08334704 0.6667887
vt 0.1039091 0.6667887
vt 0.1039091 0.6943223
vt 0.08334704 0.6943223
vt 0.1457658 0.5834554
vt 0.1663279 0.5834554
vt 0.1663279 0.610989
vt 0.1457658 0.610989
vt 0.1249595 0.5834554
vt 0.1455216 0.5834554
vt 0.1455216 0.610989
vt 0.1249595 0.610989
vt 0.08334704 0.6112332
vt 0.1039091 0.6112332
vt 0.1039091 0.6387668
vt 0.08334704 0.6387668
vt 0.1457658 0.5556777
vt 0.1663279 0.5556777
vt 0.1663279 0.5832113
vt 0.1457658 0.5832113
vt 0.1249595 0.5556777
vt 0.1455216 0.5556777
vt 0.1455216 0.5832113
vt 0.1249595 0.5832113
vt 0.08334704 0.5834554
vt 0.1039091 0.5834554
vt 0.1039091 0.610989
vt 0.08334704 0.610989
vt 0.1249595 0.6945665
vt 0.1455216 0.6945665
vt 0.1455216 0.7221001
vt 0.1249595 0.7221001
vt 0.08334704 0.5556777
vt 0.1039091 0.5556777
vt 0.1039091 0.5832113
vt 0.08334704 0.5832113
vt 0.1041533 0.6667887
vt 0.1247154 0.6667887
vt 0.1247154 0.6943223
vt 0.1041533 0.6943223
vt 0.1041533 0.6112332
vt 0.1247154 0.6112332
vt 0.1247154 0.6387668
vt 0.1041533 0.6387668
vt 0.1041533 0.5834554
vt 0.1247154 0.5834554
vt 0.1247154 0.610989
vt 0.1041533 0.610989
vt 0.1041533 0.5556777
vt 0.1247154 0.5556777
vt 0.1247154 0.5832113
vt 0.1041533 0.5832113

# Normal
vn 0 0 -1

# Mesh description
g CityHall_mesh_0002

# Faces
f 1/1/1 2/2/1 3/3/1 4/4/1
f 5/5/1 6/6/1 7/7/1 8/8/1
f 9/9/1 10/10/1 11/11/1 12/12/1
f 13/1/1 14/2/1 15/3/1 16/4/1
f 17/13/1 18/14/1 19/15/1 20/16/1
f 21/17/1 22/18/1 23/19/1 24/20/1
f 25/21/1 26/22/1 27/23/1 28/24/1
f 29/9/1 30/10/1 31/11/1 32/12/1
f 33/1/1 34/2/1 35/3/1 36/4/1
f 37/13/1 38/14/1 39/15/1 40/16/1
f 41/25/1 42/26/1 43/27/1 44/28/1
f 45/29/1 46/30/1 47/31/1 48/32/1
f 49/33/1 50/34/1 51/35/1 52/36/1
f 53/21/1 54/22/1 55/23/1 56/24/1
f 57/9/1 58/10/1 59/11/1 60/12/1
f 61/1/1 62/2/1 63/3/1 64/4/1
f 65/13/1 66/14/1 67/15/1 68/16/1
f 69/25/1 70/26/1 71/27/1 72/28/1
f 73/37/1 74/38/1 75/39/1 76/40/1
f 77/33/1 78/34/1 79/35/1 80/36/1
f 81/21/1 82/22/1 83/23/1 84/24/1
f 85/9/1 86/10/1 87/11/1 88/12/1
f 89/41/1 90/42/1 91/43/1 92/44/1
f 93/13/1 94/14/1 95/15/1 96/16/1
f 97/25/1 98/26/1 99/27/1 100/28/1
f 101/37/1 102/38/1 103/39/1 104/40/1
f 105/45/1 106/46/1 107/47/1 108/48/1
f 109/33/1 110/34/1 111/35/1 112/36/1
f 113/21/1 114/22/1 115/23/1 116/24/1
f 117/1/1 118/2/1 119/3/1 120/4/1
f 121/49/1 122/50/1 123/51/1 124/52/1
f 125/49/1 126/50/1 127/51/1 128/52/1
f 129/49/1 130/50/1 131/51/1 132/52/1
f 133/49/1 134/50/1 135/51/1 136/52/1
f 137/49/1 138/50/1 139/51/1 140/52/1
f 141/49/1 142/50/1 143/51/1 144/52/1
f 145/49/1 146/50/1 147/51/1 148/52/1
f 149/49/1 150/50/1 151/51/1 152/52/1
f 153/49/1 154/50/1 155/51/1 156/52/1
f 157/49/1 158/50/1 159/51/1 160/52/1
f 161/13/1 162/14/1 163/15/1 164/16/1
f 165/25/1 166/26/1 167/27/1 168/28/1
f 169/37/1 170/38/1 171/39/1 172/40/1
f 173/45/1 174/46/1 175/47/1 176/48/1
f 177/5/1 178/6/1 179/7/1 180/8/1
f 181/9/1 182/10/1 183/11/1 184/12/1
f 185/53/1 186/54/1 187/55/1 188/56/1
f 189/53/1 190/54/1 191/55/1 192/56/1
f 193/53/1 194/54/1 195/55/1 196/56/1
f 197/53/1 198/54/1 199/55/1 200/56/1
f 201/53/1 202/54/1 203/55/1 204/56/1
f 205/53/1 206/54/1 207/55/1 208/56/1
f 209/53/1 210/54/1 211/55/1 212/56/1
f 213/53/1 214/54/1 215/55/1 216/56/1
f 217/53/1 218/54/1 219/55/1 220/56/1
f 221/53/1 222/54/1 223/55/1 224/56/1
f 225/25/1 226/26/1 227/27/1 228/28/1
f 229/37/1 230/38/1 231/39/1 232/40/1
f 233/45/1 234/46/1 235/47/1 236/48/1
f 237/17/1 238/18/1 239/19/1 240/20/1
f 241/21/1 242/22/1 243/23/1 244/24/1
f 245/57/1 246/58/1 247/59/1 248/60/1
f 249/57/1 250/58/1 251/59/1 252/60/1
f 253/57/1 254/58/1 255/59/1 256/60/1
f 257/57/1 258/58/1 259/59/1 260/60/1
f 261/57/1 262/58/1 263/59/1 264/60/1
f 265/57/1 266/58/1 267/59/1 268/60/1
f 269/57/1 270/58/1 271/59/1 272/60/1
f 273/57/1 274/58/1 275/59/1 276/60/1
f 277/57/1 278/58/1 279/59/1 280/60/1
f 281/57/1 282/58/1 283/59/1 284/60/1
f 285/37/1 286/38/1 287/39/1 288/40/1
f 289/45/1 290/46/1 291/47/1 292/48/1
f 293/29/1 294/30/1 295/31/1 296/32/1
f 297/33/1 298/34/1 299/35/1 300/36/1
f 301/61/1 302/62/1 303/63/1 304/64/1
f 305/61/1 306/62/1 307/63/1 308/64/1
f 309/61/1 310/62/1 311/63/1 312/64/1
f 313/61/1 314/62/1 315/63/1 316/64/1
f 317/61/1 318/62/1 319/63/1 320/64/1
f 321/61/1 322/62/1 323/63/1 324/64/1
f 325/61/1 326/62/1 327/63/1 328/64/1
f 329/61/1 330/62/1 331/63/1 332/64/1
f 333/61/1 334/62/1 335/63/1 336/64/1
f 337/61/1 338/62/1 339/63/1 340/64/1
f 341/45/1 342/46/1 343/47/1 344/48/1

