# Tiled2Unity generated file. Do not modify by hand.
# Wavefront file for 'CityHall_mesh_0003.obj'

# Vertices (Count = 940)
v -43 -10 0
v -44 -10 0
v -44 -9 0
v -43 -9 0
v -42 -10 0
v -43 -10 0
v -43 -9 0
v -42 -9 0
v -41 -10 0
v -42 -10 0
v -42 -9 0
v -41 -9 0
v -40 -10 0
v -41 -10 0
v -41 -9 0
v -40 -9 0
v -38 -11 0
v -39 -11 0
v -39 -10 0
v -38 -10 0
v -37 -11 0
v -38 -11 0
v -38 -10 0
v -37 -10 0
v -36 -11 0
v -37 -11 0
v -37 -10 0
v -36 -10 0
v -35 -11 0
v -36 -11 0
v -36 -10 0
v -35 -10 0
v -13 -11 0
v -14 -11 0
v -14 -10 0
v -13 -10 0
v -12 -11 0
v -13 -11 0
v -13 -10 0
v -12 -10 0
v -11 -11 0
v -12 -11 0
v -12 -10 0
v -11 -10 0
v -10 -11 0
v -11 -11 0
v -11 -10 0
v -10 -10 0
v -38 -12 0
v -39 -12 0
v -39 -11 0
v -38 -11 0
v -37 -12 0
v -38 -12 0
v -38 -11 0
v -37 -11 0
v -36 -12 0
v -37 -12 0
v -37 -11 0
v -36 -11 0
v -35 -12 0
v -36 -12 0
v -36 -11 0
v -35 -11 0
v -31 -12 0
v -32 -12 0
v -32 -11 0
v -31 -11 0
v -30 -12 0
v -31 -12 0
v -31 -11 0
v -30 -11 0
v -29 -12 0
v -30 -12 0
v -30 -11 0
v -29 -11 0
v -28 -12 0
v -29 -12 0
v -29 -11 0
v -28 -11 0
v -13 -12 0
v -14 -12 0
v -14 -11 0
v -13 -11 0
v -12 -12 0
v -13 -12 0
v -13 -11 0
v -12 -11 0
v -11 -12 0
v -12 -12 0
v -12 -11 0
v -11 -11 0
v -10 -12 0
v -11 -12 0
v -11 -11 0
v -10 -11 0
v -4 -12 0
v -5 -12 0
v -5 -11 0
v -4 -11 0
v -3 -12 0
v -4 -12 0
v -4 -11 0
v -3 -11 0
v -2 -12 0
v -3 -12 0
v -3 -11 0
v -2 -11 0
v -1 -12 0
v -2 -12 0
v -2 -11 0
v -1 -11 0
v -14 -17 0
v -15 -17 0
v -15 -16 0
v -14 -16 0
v -13 -17 0
v -14 -17 0
v -14 -16 0
v -13 -16 0
v -12 -17 0
v -13 -17 0
v -13 -16 0
v -12 -16 0
v -11 -17 0
v -12 -17 0
v -12 -16 0
v -11 -16 0
v -5 -17 0
v -6 -17 0
v -6 -16 0
v -5 -16 0
v -4 -17 0
v -5 -17 0
v -5 -16 0
v -4 -16 0
v -3 -17 0
v -4 -17 0
v -4 -16 0
v -3 -16 0
v -2 -17 0
v -3 -17 0
v -3 -16 0
v -2 -16 0
v -39 -18 0
v -40 -18 0
v -40 -17 0
v -39 -17 0
v -38 -18 0
v -39 -18 0
v -39 -17 0
v -38 -17 0
v -37 -18 0
v -38 -18 0
v -38 -17 0
v -37 -17 0
v -36 -18 0
v -37 -18 0
v -37 -17 0
v -36 -17 0
v -31 -18 0
v -32 -18 0
v -32 -17 0
v -31 -17 0
v -30 -18 0
v -31 -18 0
v -31 -17 0
v -30 -17 0
v -29 -18 0
v -30 -18 0
v -30 -17 0
v -29 -17 0
v -28 -18 0
v -29 -18 0
v -29 -17 0
v -28 -17 0
v -14 -18 0
v -15 -18 0
v -15 -17 0
v -14 -17 0
v -13 -18 0
v -14 -18 0
v -14 -17 0
v -13 -17 0
v -12 -18 0
v -13 -18 0
v -13 -17 0
v -12 -17 0
v -11 -18 0
v -12 -18 0
v -12 -17 0
v -11 -17 0
v -5 -18 0
v -6 -18 0
v -6 -17 0
v -5 -17 0
v -4 -18 0
v -5 -18 0
v -5 -17 0
v -4 -17 0
v -3 -18 0
v -4 -18 0
v -4 -17 0
v -3 -17 0
v -2 -18 0
v -3 -18 0
v -3 -17 0
v -2 -17 0
v -32 -19 0
v -33 -19 0
v -33 -18 0
v -32 -18 0
v -31 -19 0
v -32 -19 0
v -32 -18 0
v -31 -18 0
v -30 -19 0
v -31 -19 0
v -31 -18 0
v -30 -18 0
v -29 -19 0
v -30 -19 0
v -30 -18 0
v -29 -18 0
v -28 -19 0
v -29 -19 0
v -29 -18 0
v -28 -18 0
v -18 -19 0
v -19 -19 0
v -19 -18 0
v -18 -18 0
v -17 -19 0
v -18 -19 0
v -18 -18 0
v -17 -18 0
v -16 -19 0
v -17 -19 0
v -17 -18 0
v -16 -18 0
v -15 -19 0
v -16 -19 0
v -16 -18 0
v -15 -18 0
v -32 -20 0
v -33 -20 0
v -33 -19 0
v -32 -19 0
v -31 -20 0
v -32 -20 0
v -32 -19 0
v -31 -19 0
v -28 -20 0
v -29 -20 0
v -29 -19 0
v -28 -19 0
v -27 -20 0
v -28 -20 0
v -28 -19 0
v -27 -19 0
v -18 -20 0
v -19 -20 0
v -19 -19 0
v -18 -19 0
v -17 -20 0
v -18 -20 0
v -18 -19 0
v -17 -19 0
v -16 -20 0
v -17 -20 0
v -17 -19 0
v -16 -19 0
v -15 -20 0
v -16 -20 0
v -16 -19 0
v -15 -19 0
v -8 -20 0
v -9 -20 0
v -9 -19 0
v -8 -19 0
v -43 -21 0
v -44 -21 0
v -44 -20 0
v -43 -20 0
v -42 -21 0
v -43 -21 0
v -43 -20 0
v -42 -20 0
v -41 -21 0
v -42 -21 0
v -42 -20 0
v -41 -20 0
v -40 -21 0
v -41 -21 0
v -41 -20 0
v -40 -20 0
v -32 -21 0
v -33 -21 0
v -33 -20 0
v -32 -20 0
v -31 -21 0
v -32 -21 0
v -32 -20 0
v -31 -20 0
v -28 -21 0
v -29 -21 0
v -29 -20 0
v -28 -20 0
v -27 -21 0
v -28 -21 0
v -28 -20 0
v -27 -20 0
v -8 -21 0
v -9 -21 0
v -9 -20 0
v -8 -20 0
v -7 -21 0
v -8 -21 0
v -8 -20 0
v -7 -20 0
v -6 -21 0
v -7 -21 0
v -7 -20 0
v -6 -20 0
v -43 -22 0
v -44 -22 0
v -44 -21 0
v -43 -21 0
v -42 -22 0
v -43 -22 0
v -43 -21 0
v -42 -21 0
v -41 -22 0
v -42 -22 0
v -42 -21 0
v -41 -21 0
v -40 -22 0
v -41 -22 0
v -41 -21 0
v -40 -21 0
v -32 -22 0
v -33 -22 0
v -33 -21 0
v -32 -21 0
v -31 -22 0
v -32 -22 0
v -32 -21 0
v -31 -21 0
v -12 -22 0
v -13 -22 0
v -13 -21 0
v -12 -21 0
v -11 -22 0
v -12 -22 0
v -12 -21 0
v -11 -21 0
v -8 -22 0
v -9 -22 0
v -9 -21 0
v -8 -21 0
v -7 -22 0
v -8 -22 0
v -8 -21 0
v -7 -21 0
v -6 -22 0
v -7 -22 0
v -7 -21 0
v -6 -21 0
v -30 -23 0
v -31 -23 0
v -31 -22 0
v -30 -22 0
v -29 -23 0
v -30 -23 0
v -30 -22 0
v -29 -22 0
v -28 -23 0
v -29 -23 0
v -29 -22 0
v -28 -22 0
v -27 -23 0
v -28 -23 0
v -28 -22 0
v -27 -22 0
v -15 -23 0
v -16 -23 0
v -16 -22 0
v -15 -22 0
v -14 -23 0
v -15 -23 0
v -15 -22 0
v -14 -22 0
v -13 -23 0
v -14 -23 0
v -14 -22 0
v -13 -22 0
v -12 -23 0
v -13 -23 0
v -13 -22 0
v -12 -22 0
v -11 -23 0
v -12 -23 0
v -12 -22 0
v -11 -22 0
v -8 -23 0
v -9 -23 0
v -9 -22 0
v -8 -22 0
v -30 -24 0
v -31 -24 0
v -31 -23 0
v -30 -23 0
v -29 -24 0
v -30 -24 0
v -30 -23 0
v -29 -23 0
v -28 -24 0
v -29 -24 0
v -29 -23 0
v -28 -23 0
v -27 -24 0
v -28 -24 0
v -28 -23 0
v -27 -23 0
v -15 -24 0
v -16 -24 0
v -16 -23 0
v -15 -23 0
v -14 -24 0
v -15 -24 0
v -15 -23 0
v -14 -23 0
v -13 -24 0
v -14 -24 0
v -14 -23 0
v -13 -23 0
v -12 -24 0
v -13 -24 0
v -13 -23 0
v -12 -23 0
v -8 -24 0
v -9 -24 0
v -9 -23 0
v -8 -23 0
v -16 -25 0
v -17 -25 0
v -17 -24 0
v -16 -24 0
v -15 -25 0
v -16 -25 0
v -16 -24 0
v -15 -24 0
v -8 -25 0
v -9 -25 0
v -9 -24 0
v -8 -24 0
v -7 -25 0
v -8 -25 0
v -8 -24 0
v -7 -24 0
v -6 -25 0
v -7 -25 0
v -7 -24 0
v -6 -24 0
v -5 -25 0
v -6 -25 0
v -6 -24 0
v -5 -24 0
v -4 -25 0
v -5 -25 0
v -5 -24 0
v -4 -24 0
v -40 -26 0
v -41 -26 0
v -41 -25 0
v -40 -25 0
v -16 -26 0
v -17 -26 0
v -17 -25 0
v -16 -25 0
v -15 -26 0
v -16 -26 0
v -16 -25 0
v -15 -25 0
v -7 -26 0
v -8 -26 0
v -8 -25 0
v -7 -25 0
v -6 -26 0
v -7 -26 0
v -7 -25 0
v -6 -25 0
v -5 -26 0
v -6 -26 0
v -6 -25 0
v -5 -25 0
v -4 -26 0
v -5 -26 0
v -5 -25 0
v -4 -25 0
v -3 -26 0
v -4 -26 0
v -4 -25 0
v -3 -25 0
v -40 -27 0
v -41 -27 0
v -41 -26 0
v -40 -26 0
v -4 -27 0
v -5 -27 0
v -5 -26 0
v -4 -26 0
v -3 -27 0
v -4 -27 0
v -4 -26 0
v -3 -26 0
v -40 -28 0
v -41 -28 0
v -41 -27 0
v -40 -27 0
v -4 -28 0
v -5 -28 0
v -5 -27 0
v -4 -27 0
v -3 -28 0
v -4 -28 0
v -4 -27 0
v -3 -27 0
v -40 -29 0
v -41 -29 0
v -41 -28 0
v -40 -28 0
v -4 -29 0
v -5 -29 0
v -5 -28 0
v -4 -28 0
v -3 -29 0
v -4 -29 0
v -4 -28 0
v -3 -28 0
v -40 -30 0
v -41 -30 0
v -41 -29 0
v -40 -29 0
v -40 -31 0
v -41 -31 0
v -41 -30 0
v -40 -30 0
v -5 -31 0
v -6 -31 0
v -6 -30 0
v -5 -30 0
v -4 -31 0
v -5 -31 0
v -5 -30 0
v -4 -30 0
v -3 -31 0
v -4 -31 0
v -4 -30 0
v -3 -30 0
v -2 -31 0
v -3 -31 0
v -3 -30 0
v -2 -30 0
v -40 -32 0
v -41 -32 0
v -41 -31 0
v -40 -31 0
v -5 -32 0
v -6 -32 0
v -6 -31 0
v -5 -31 0
v -4 -32 0
v -5 -32 0
v -5 -31 0
v -4 -31 0
v -3 -32 0
v -4 -32 0
v -4 -31 0
v -3 -31 0
v -2 -32 0
v -3 -32 0
v -3 -31 0
v -2 -31 0
v -40 -33 0
v -41 -33 0
v -41 -32 0
v -40 -32 0
v -40 -34 0
v -41 -34 0
v -41 -33 0
v -40 -33 0
v -40 -35 0
v -41 -35 0
v -41 -34 0
v -40 -34 0
v -39 -35 0
v -40 -35 0
v -40 -34 0
v -39 -34 0
v -7 -35 0
v -8 -35 0
v -8 -34 0
v -7 -34 0
v -6 -35 0
v -7 -35 0
v -7 -34 0
v -6 -34 0
v -5 -35 0
v -6 -35 0
v -6 -34 0
v -5 -34 0
v -4 -35 0
v -5 -35 0
v -5 -34 0
v -4 -34 0
v -39 -36 0
v -40 -36 0
v -40 -35 0
v -39 -35 0
v -38 -36 0
v -39 -36 0
v -39 -35 0
v -38 -35 0
v -14 -36 0
v -15 -36 0
v -15 -35 0
v -14 -35 0
v -13 -36 0
v -14 -36 0
v -14 -35 0
v -13 -35 0
v -12 -36 0
v -13 -36 0
v -13 -35 0
v -12 -35 0
v -11 -36 0
v -12 -36 0
v -12 -35 0
v -11 -35 0
v -7 -36 0
v -8 -36 0
v -8 -35 0
v -7 -35 0
v -6 -36 0
v -7 -36 0
v -7 -35 0
v -6 -35 0
v -5 -36 0
v -6 -36 0
v -6 -35 0
v -5 -35 0
v -4 -36 0
v -5 -36 0
v -5 -35 0
v -4 -35 0
v -38 -37 0
v -39 -37 0
v -39 -36 0
v -38 -36 0
v -38 -38 0
v -39 -38 0
v -39 -37 0
v -38 -37 0
v -32 -39 0
v -33 -39 0
v -33 -38 0
v -32 -38 0
v -31 -39 0
v -32 -39 0
v -32 -38 0
v -31 -38 0
v -30 -39 0
v -31 -39 0
v -31 -38 0
v -30 -38 0
v -29 -39 0
v -30 -39 0
v -30 -38 0
v -29 -38 0
v -32 -40 0
v -33 -40 0
v -33 -39 0
v -32 -39 0
v -31 -40 0
v -32 -40 0
v -32 -39 0
v -31 -39 0
v -30 -40 0
v -31 -40 0
v -31 -39 0
v -30 -39 0
v -29 -40 0
v -30 -40 0
v -30 -39 0
v -29 -39 0
v -12 -40 0
v -13 -40 0
v -13 -39 0
v -12 -39 0
v -11 -40 0
v -12 -40 0
v -12 -39 0
v -11 -39 0
v -12 -41 0
v -13 -41 0
v -13 -40 0
v -12 -40 0
v -11 -41 0
v -12 -41 0
v -12 -40 0
v -11 -40 0
v -30 -42 0
v -31 -42 0
v -31 -41 0
v -30 -41 0
v -29 -42 0
v -30 -42 0
v -30 -41 0
v -29 -41 0
v -28 -42 0
v -29 -42 0
v -29 -41 0
v -28 -41 0
v -27 -42 0
v -28 -42 0
v -28 -41 0
v -27 -41 0
v -26 -42 0
v -27 -42 0
v -27 -41 0
v -26 -41 0
v -25 -42 0
v -26 -42 0
v -26 -41 0
v -25 -41 0
v -30 -43 0
v -31 -43 0
v -31 -42 0
v -30 -42 0
v -29 -43 0
v -30 -43 0
v -30 -42 0
v -29 -42 0
v -28 -43 0
v -29 -43 0
v -29 -42 0
v -28 -42 0
v -26 -43 0
v -27 -43 0
v -27 -42 0
v -26 -42 0
v -25 -43 0
v -26 -43 0
v -26 -42 0
v -25 -42 0
v -23 -43 0
v -24 -43 0
v -24 -42 0
v -23 -42 0
v -22 -43 0
v -23 -43 0
v -23 -42 0
v -22 -42 0
v -21 -43 0
v -22 -43 0
v -22 -42 0
v -21 -42 0
v -17 -43 0
v -18 -43 0
v -18 -42 0
v -17 -42 0
v -16 -43 0
v -17 -43 0
v -17 -42 0
v -16 -42 0
v -14 -43 0
v -15 -43 0
v -15 -42 0
v -14 -42 0
v -13 -43 0
v -14 -43 0
v -14 -42 0
v -13 -42 0
v -12 -43 0
v -13 -43 0
v -13 -42 0
v -12 -42 0
v -11 -43 0
v -12 -43 0
v -12 -42 0
v -11 -42 0
v -23 -44 0
v -24 -44 0
v -24 -43 0
v -23 -43 0
v -22 -44 0
v -23 -44 0
v -23 -43 0
v -22 -43 0
v -21 -44 0
v -22 -44 0
v -22 -43 0
v -21 -43 0
v -17 -44 0
v -18 -44 0
v -18 -43 0
v -17 -43 0
v -16 -44 0
v -17 -44 0
v -17 -43 0
v -16 -43 0
v -14 -44 0
v -15 -44 0
v -15 -43 0
v -14 -43 0
v -13 -44 0
v -14 -44 0
v -14 -43 0
v -13 -43 0
v -12 -44 0
v -13 -44 0
v -13 -43 0
v -12 -43 0
v -11 -44 0
v -12 -44 0
v -12 -43 0
v -11 -43 0
v -10 -44 0
v -11 -44 0
v -11 -43 0
v -10 -43 0
v -13 -45 0
v -14 -45 0
v -14 -44 0
v -13 -44 0
v -12 -45 0
v -13 -45 0
v -13 -44 0
v -12 -44 0
v -11 -45 0
v -12 -45 0
v -12 -44 0
v -11 -44 0
v -10 -45 0
v -11 -45 0
v -11 -44 0
v -10 -44 0
v -17 -46 0
v -18 -46 0
v -18 -45 0
v -17 -45 0
v -16 -46 0
v -17 -46 0
v -17 -45 0
v -16 -45 0
v -15 -46 0
v -16 -46 0
v -16 -45 0
v -15 -45 0
v -14 -46 0
v -15 -46 0
v -15 -45 0
v -14 -45 0
v -13 -46 0
v -14 -46 0
v -14 -45 0
v -13 -45 0
v -17 -47 0
v -18 -47 0
v -18 -46 0
v -17 -46 0
v -16 -47 0
v -17 -47 0
v -17 -46 0
v -16 -46 0
v -15 -47 0
v -16 -47 0
v -16 -46 0
v -15 -46 0
v -14 -47 0
v -15 -47 0
v -15 -46 0
v -14 -46 0
v -38 -50 0
v -39 -50 0
v -39 -49 0
v -38 -49 0
v -37 -50 0
v -38 -50 0
v -38 -49 0
v -37 -49 0
v -36 -50 0
v -37 -50 0
v -37 -49 0
v -36 -49 0
v -35 -50 0
v -36 -50 0
v -36 -49 0
v -35 -49 0
v -10 -50 0
v -11 -50 0
v -11 -49 0
v -10 -49 0
v -9 -50 0
v -10 -50 0
v -10 -49 0
v -9 -49 0
v -8 -50 0
v -9 -50 0
v -9 -49 0
v -8 -49 0
v -5 -50 0
v -6 -50 0
v -6 -49 0
v -5 -49 0
v -4 -50 0
v -5 -50 0
v -5 -49 0
v -4 -49 0
v -3 -50 0
v -4 -50 0
v -4 -49 0
v -3 -49 0
v -2 -50 0
v -3 -50 0
v -3 -49 0
v -2 -49 0
v -10 -51 0
v -11 -51 0
v -11 -50 0
v -10 -50 0
v -9 -51 0
v -10 -51 0
v -10 -50 0
v -9 -50 0
v -8 -51 0
v -9 -51 0
v -9 -50 0
v -8 -50 0

# Texture cooridinates (Count = 92)
vt 0.3538282 0.08345538
vt 0.3743903 0.08345538
vt 0.3743903 0.110989
vt 0.3538282 0.110989
vt 0.3330219 0.08345538
vt 0.3535841 0.08345538
vt 0.3535841 0.110989
vt 0.3330219 0.110989
vt 0.3122157 0.08345538
vt 0.3327778 0.08345538
vt 0.3327778 0.110989
vt 0.3122157 0.110989
vt 0.2914095 0.08345538
vt 0.3119715 0.08345538
vt 0.3119715 0.110989
vt 0.2914095 0.110989
vt 0.0625408 0.02789986
vt 0.0831029 0.02789986
vt 0.0831029 0.05543351
vt 0.0625408 0.05543351
vt 0.04173455 0.02789986
vt 0.06229666 0.02789986
vt 0.06229666 0.05543351
vt 0.04173455 0.05543351
vt 0.02092831 0.02789986
vt 0.04149041 0.02789986
vt 0.04149041 0.05543351
vt 0.02092831 0.05543351
vt 0.0001220703 0.02789986
vt 0.02068417 0.02789986
vt 0.02068417 0.05543351
vt 0.0001220703 0.05543351
vt 0.0625408 0.0001220703
vt 0.0831029 0.0001220703
vt 0.0831029 0.02765572
vt 0.0625408 0.02765572
vt 0.04173455 0.0001220703
vt 0.06229666 0.0001220703
vt 0.06229666 0.02765572
vt 0.04173455 0.02765572
vt 0.02092831 0.0001220703
vt 0.04149041 0.0001220703
vt 0.04149041 0.02765572
vt 0.02092831 0.02765572
vt 0.0001220703 0.0001220703
vt 0.02068417 0.0001220703
vt 0.02068417 0.02765572
vt 0.0001220703 0.02765572
vt 0.1249595 0.5278999
vt 0.1455216 0.5278999
vt 0.1455216 0.5554335
vt 0.1249595 0.5554335
vt 0.1041533 0.5278999
vt 0.1247154 0.5278999
vt 0.1247154 0.5554335
vt 0.1041533 0.5554335
vt 0.1249595 0.5001221
vt 0.1455216 0.5001221
vt 0.1455216 0.5276557
vt 0.1249595 0.5276557
vt 0.1041533 0.5001221
vt 0.1247154 0.5001221
vt 0.1247154 0.5276557
vt 0.1041533 0.5276557
vt 0.04173455 0.5834554
vt 0.06229666 0.5834554
vt 0.06229666 0.610989
vt 0.04173455 0.610989
vt 0.1249595 0.02789986
vt 0.1455216 0.02789986
vt 0.1455216 0.05543351
vt 0.1249595 0.05543351
vt 0.1041533 0.02789986
vt 0.1247154 0.02789986
vt 0.1247154 0.05543351
vt 0.1041533 0.05543351
vt 0.08334704 0.02789986
vt 0.1039091 0.02789986
vt 0.1039091 0.05543351
vt 0.08334704 0.05543351
vt 0.1249595 0.0001220703
vt 0.1455216 0.0001220703
vt 0.1455216 0.02765572
vt 0.1249595 0.02765572
vt 0.1041533 0.0001220703
vt 0.1247154 0.0001220703
vt 0.1247154 0.02765572
vt 0.1041533 0.02765572
vt 0.08334704 0.0001220703
vt 0.1039091 0.0001220703
vt 0.1039091 0.02765572
vt 0.08334704 0.02765572

# Normal
vn 0 0 -1

# Mesh description
g CityHall_mesh_0003

# Faces
f 1/1/1 2/2/1 3/3/1 4/4/1
f 5/5/1 6/6/1 7/7/1 8/8/1
f 9/9/1 10/10/1 11/11/1 12/12/1
f 13/13/1 14/14/1 15/15/1 16/16/1
f 17/17/1 18/18/1 19/19/1 20/20/1
f 21/21/1 22/22/1 23/23/1 24/24/1
f 25/25/1 26/26/1 27/27/1 28/28/1
f 29/29/1 30/30/1 31/31/1 32/32/1
f 33/17/1 34/18/1 35/19/1 36/20/1
f 37/21/1 38/22/1 39/23/1 40/24/1
f 41/25/1 42/26/1 43/27/1 44/28/1
f 45/29/1 46/30/1 47/31/1 48/32/1
f 49/33/1 50/34/1 51/35/1 52/36/1
f 53/37/1 54/38/1 55/39/1 56/40/1
f 57/41/1 58/42/1 59/43/1 60/44/1
f 61/45/1 62/46/1 63/47/1 64/48/1
f 65/1/1 66/2/1 67/3/1 68/4/1
f 69/5/1 70/6/1 71/7/1 72/8/1
f 73/9/1 74/10/1 75/11/1 76/12/1
f 77/13/1 78/14/1 79/15/1 80/16/1
f 81/33/1 82/34/1 83/35/1 84/36/1
f 85/37/1 86/38/1 87/39/1 88/40/1
f 89/41/1 90/42/1 91/43/1 92/44/1
f 93/45/1 94/46/1 95/47/1 96/48/1
f 97/1/1 98/2/1 99/3/1 100/4/1
f 101/5/1 102/6/1 103/7/1 104/8/1
f 105/9/1 106/10/1 107/11/1 108/12/1
f 109/13/1 110/14/1 111/15/1 112/16/1
f 113/49/1 114/50/1 115/51/1 116/52/1
f 117/53/1 118/54/1 119/55/1 120/56/1
f 121/49/1 122/50/1 123/51/1 124/52/1
f 125/53/1 126/54/1 127/55/1 128/56/1
f 129/17/1 130/18/1 131/19/1 132/20/1
f 133/21/1 134/22/1 135/23/1 136/24/1
f 137/25/1 138/26/1 139/27/1 140/28/1
f 141/29/1 142/30/1 143/31/1 144/32/1
f 145/1/1 146/2/1 147/3/1 148/4/1
f 149/5/1 150/6/1 151/7/1 152/8/1
f 153/9/1 154/10/1 155/11/1 156/12/1
f 157/13/1 158/14/1 159/15/1 160/16/1
f 161/17/1 162/18/1 163/19/1 164/20/1
f 165/21/1 166/22/1 167/23/1 168/24/1
f 169/25/1 170/26/1 171/27/1 172/28/1
f 173/29/1 174/30/1 175/31/1 176/32/1
f 177/57/1 178/58/1 179/59/1 180/60/1
f 181/61/1 182/62/1 183/63/1 184/64/1
f 185/57/1 186/58/1 187/59/1 188/60/1
f 189/61/1 190/62/1 191/63/1 192/64/1
f 193/33/1 194/34/1 195/35/1 196/36/1
f 197/37/1 198/38/1 199/39/1 200/40/1
f 201/41/1 202/42/1 203/43/1 204/44/1
f 205/45/1 206/46/1 207/47/1 208/48/1
f 209/49/1 210/50/1 211/51/1 212/52/1
f 213/53/1 214/54/1 215/55/1 216/56/1
f 217/37/1 218/38/1 219/39/1 220/40/1
f 221/41/1 222/42/1 223/43/1 224/44/1
f 225/45/1 226/46/1 227/47/1 228/48/1
f 229/17/1 230/18/1 231/19/1 232/20/1
f 233/21/1 234/22/1 235/23/1 236/24/1
f 237/25/1 238/26/1 239/27/1 240/28/1
f 241/29/1 242/30/1 243/31/1 244/32/1
f 245/57/1 246/58/1 247/59/1 248/60/1
f 249/61/1 250/62/1 251/63/1 252/64/1
f 253/49/1 254/50/1 255/51/1 256/52/1
f 257/53/1 258/54/1 259/55/1 260/56/1
f 261/33/1 262/34/1 263/35/1 264/36/1
f 265/37/1 266/38/1 267/39/1 268/40/1
f 269/41/1 270/42/1 271/43/1 272/44/1
f 273/45/1 274/46/1 275/47/1 276/48/1
f 277/65/1 278/66/1 279/67/1 280/68/1
f 281/17/1 282/18/1 283/19/1 284/20/1
f 285/21/1 286/22/1 287/23/1 288/24/1
f 289/25/1 290/26/1 291/27/1 292/28/1
f 293/29/1 294/30/1 295/31/1 296/32/1
f 297/49/1 298/50/1 299/51/1 300/52/1
f 301/53/1 302/54/1 303/55/1 304/56/1
f 305/57/1 306/58/1 307/59/1 308/60/1
f 309/61/1 310/62/1 311/63/1 312/64/1
f 313/65/1 314/66/1 315/67/1 316/68/1
f 317/49/1 318/50/1 319/51/1 320/52/1
f 321/53/1 322/54/1 323/55/1 324/56/1
f 325/33/1 326/34/1 327/35/1 328/36/1
f 329/37/1 330/38/1 331/39/1 332/40/1
f 333/41/1 334/42/1 335/43/1 336/44/1
f 337/45/1 338/46/1 339/47/1 340/48/1
f 341/57/1 342/58/1 343/59/1 344/60/1
f 345/61/1 346/62/1 347/63/1 348/64/1
f 349/49/1 350/50/1 351/51/1 352/52/1
f 353/53/1 354/54/1 355/55/1 356/56/1
f 357/65/1 358/66/1 359/67/1 360/68/1
f 361/57/1 362/58/1 363/59/1 364/60/1
f 365/61/1 366/62/1 367/63/1 368/64/1
f 369/17/1 370/18/1 371/19/1 372/20/1
f 373/21/1 374/22/1 375/23/1 376/24/1
f 377/25/1 378/26/1 379/27/1 380/28/1
f 381/29/1 382/30/1 383/31/1 384/32/1
f 385/17/1 386/18/1 387/19/1 388/20/1
f 389/21/1 390/22/1 391/23/1 392/24/1
f 393/25/1 394/26/1 395/27/1 396/28/1
f 397/57/1 398/58/1 399/59/1 400/60/1
f 401/61/1 402/62/1 403/63/1 404/64/1
f 405/65/1 406/66/1 407/67/1 408/68/1
f 409/33/1 410/34/1 411/35/1 412/36/1
f 413/37/1 414/38/1 415/39/1 416/40/1
f 417/41/1 418/42/1 419/43/1 420/44/1
f 421/45/1 422/46/1 423/47/1 424/48/1
f 425/33/1 426/34/1 427/35/1 428/36/1
f 429/37/1 430/38/1 431/39/1 432/40/1
f 433/41/1 434/42/1 435/43/1 436/44/1
f 437/45/1 438/46/1 439/47/1 440/48/1
f 441/65/1 442/66/1 443/67/1 444/68/1
f 445/49/1 446/50/1 447/51/1 448/52/1
f 449/53/1 450/54/1 451/55/1 452/56/1
f 453/65/1 454/66/1 455/67/1 456/68/1
f 457/17/1 458/18/1 459/19/1 460/20/1
f 461/21/1 462/22/1 463/23/1 464/24/1
f 465/25/1 466/26/1 467/27/1 468/28/1
f 469/29/1 470/30/1 471/31/1 472/32/1
f 473/65/1 474/66/1 475/67/1 476/68/1
f 477/57/1 478/58/1 479/59/1 480/60/1
f 481/61/1 482/62/1 483/63/1 484/64/1
f 485/33/1 486/34/1 487/35/1 488/36/1
f 489/37/1 490/38/1 491/39/1 492/40/1
f 493/41/1 494/42/1 495/43/1 496/44/1
f 497/49/1 498/50/1 499/51/1 500/52/1
f 501/53/1 502/54/1 503/55/1 504/56/1
f 505/65/1 506/66/1 507/67/1 508/68/1
f 509/57/1 510/58/1 511/59/1 512/60/1
f 513/61/1 514/62/1 515/63/1 516/64/1
f 517/65/1 518/66/1 519/67/1 520/68/1
f 521/49/1 522/50/1 523/51/1 524/52/1
f 525/53/1 526/54/1 527/55/1 528/56/1
f 529/65/1 530/66/1 531/67/1 532/68/1
f 533/57/1 534/58/1 535/59/1 536/60/1
f 537/61/1 538/62/1 539/63/1 540/64/1
f 541/65/1 542/66/1 543/67/1 544/68/1
f 545/65/1 546/66/1 547/67/1 548/68/1
f 549/17/1 550/18/1 551/19/1 552/20/1
f 553/21/1 554/22/1 555/23/1 556/24/1
f 557/25/1 558/26/1 559/27/1 560/28/1
f 561/29/1 562/30/1 563/31/1 564/32/1
f 565/65/1 566/66/1 567/67/1 568/68/1
f 569/33/1 570/34/1 571/35/1 572/36/1
f 573/37/1 574/38/1 575/39/1 576/40/1
f 577/41/1 578/42/1 579/43/1 580/44/1
f 581/45/1 582/46/1 583/47/1 584/48/1
f 585/65/1 586/66/1 587/67/1 588/68/1
f 589/65/1 590/66/1 591/67/1 592/68/1
f 593/65/1 594/66/1 595/67/1 596/68/1
f 597/65/1 598/66/1 599/67/1 600/68/1
f 601/17/1 602/18/1 603/19/1 604/20/1
f 605/21/1 606/22/1 607/23/1 608/24/1
f 609/25/1 610/26/1 611/27/1 612/28/1
f 613/29/1 614/30/1 615/31/1 616/32/1
f 617/65/1 618/66/1 619/67/1 620/68/1
f 621/65/1 622/66/1 623/67/1 624/68/1
f 625/1/1 626/2/1 627/3/1 628/4/1
f 629/5/1 630/6/1 631/7/1 632/8/1
f 633/9/1 634/10/1 635/11/1 636/12/1
f 637/13/1 638/14/1 639/15/1 640/16/1
f 641/33/1 642/34/1 643/35/1 644/36/1
f 645/37/1 646/38/1 647/39/1 648/40/1
f 649/41/1 650/42/1 651/43/1 652/44/1
f 653/45/1 654/46/1 655/47/1 656/48/1
f 657/65/1 658/66/1 659/67/1 660/68/1
f 661/65/1 662/66/1 663/67/1 664/68/1
f 665/49/1 666/50/1 667/51/1 668/52/1
f 669/53/1 670/54/1 671/55/1 672/56/1
f 673/49/1 674/50/1 675/51/1 676/52/1
f 677/53/1 678/54/1 679/55/1 680/56/1
f 681/57/1 682/58/1 683/59/1 684/60/1
f 685/61/1 686/62/1 687/63/1 688/64/1
f 689/57/1 690/58/1 691/59/1 692/60/1
f 693/61/1 694/62/1 695/63/1 696/64/1
f 697/49/1 698/50/1 699/51/1 700/52/1
f 701/53/1 702/54/1 703/55/1 704/56/1
f 705/57/1 706/58/1 707/59/1 708/60/1
f 709/61/1 710/62/1 711/63/1 712/64/1
f 713/17/1 714/18/1 715/19/1 716/20/1
f 717/21/1 718/22/1 719/23/1 720/24/1
f 721/25/1 722/26/1 723/27/1 724/28/1
f 725/29/1 726/30/1 727/31/1 728/32/1
f 729/49/1 730/50/1 731/51/1 732/52/1
f 733/53/1 734/54/1 735/55/1 736/56/1
f 737/33/1 738/34/1 739/35/1 740/36/1
f 741/37/1 742/38/1 743/39/1 744/40/1
f 745/41/1 746/42/1 747/43/1 748/44/1
f 749/57/1 750/58/1 751/59/1 752/60/1
f 753/61/1 754/62/1 755/63/1 756/64/1
f 757/69/1 758/70/1 759/71/1 760/72/1
f 761/73/1 762/74/1 763/75/1 764/76/1
f 765/77/1 766/78/1 767/79/1 768/80/1
f 769/49/1 770/50/1 771/51/1 772/52/1
f 773/53/1 774/54/1 775/55/1 776/56/1
f 777/17/1 778/18/1 779/19/1 780/20/1
f 781/21/1 782/22/1 783/23/1 784/24/1
f 785/25/1 786/26/1 787/27/1 788/28/1
f 789/29/1 790/30/1 791/31/1 792/32/1
f 793/81/1 794/82/1 795/83/1 796/84/1
f 797/85/1 798/86/1 799/87/1 800/88/1
f 801/89/1 802/90/1 803/91/1 804/92/1
f 805/57/1 806/58/1 807/59/1 808/60/1
f 809/61/1 810/62/1 811/63/1 812/64/1
f 813/33/1 814/34/1 815/35/1 816/36/1
f 817/37/1 818/38/1 819/39/1 820/40/1
f 821/41/1 822/42/1 823/43/1 824/44/1
f 825/49/1 826/50/1 827/51/1 828/52/1
f 829/53/1 830/54/1 831/55/1 832/56/1
f 833/65/1 834/66/1 835/67/1 836/68/1
f 837/65/1 838/66/1 839/67/1 840/68/1
f 841/57/1 842/58/1 843/59/1 844/60/1
f 845/61/1 846/62/1 847/63/1 848/64/1
f 849/17/1 850/18/1 851/19/1 852/20/1
f 853/21/1 854/22/1 855/23/1 856/24/1
f 857/25/1 858/26/1 859/27/1 860/28/1
f 861/29/1 862/30/1 863/31/1 864/32/1
f 865/65/1 866/66/1 867/67/1 868/68/1
f 869/33/1 870/34/1 871/35/1 872/36/1
f 873/37/1 874/38/1 875/39/1 876/40/1
f 877/41/1 878/42/1 879/43/1 880/44/1
f 881/45/1 882/46/1 883/47/1 884/48/1
f 885/1/1 886/2/1 887/3/1 888/4/1
f 889/5/1 890/6/1 891/7/1 892/8/1
f 893/9/1 894/10/1 895/11/1 896/12/1
f 897/13/1 898/14/1 899/15/1 900/16/1
f 901/69/1 902/70/1 903/71/1 904/72/1
f 905/73/1 906/74/1 907/75/1 908/76/1
f 909/77/1 910/78/1 911/79/1 912/80/1
f 913/1/1 914/2/1 915/3/1 916/4/1
f 917/5/1 918/6/1 919/7/1 920/8/1
f 921/9/1 922/10/1 923/11/1 924/12/1
f 925/13/1 926/14/1 927/15/1 928/16/1
f 929/81/1 930/82/1 931/83/1 932/84/1
f 933/85/1 934/86/1 935/87/1 936/88/1
f 937/89/1 938/90/1 939/91/1 940/92/1

