# Tiled2Unity generated file. Do not modify by hand.
# Wavefront file for 'LeftMontilla2_mesh_0002.obj'

# Vertices (Count = 784)
v -15 -1 0
v -16 -1 0
v -16 0 0
v -15 0 0
v -14 -1 0
v -15 -1 0
v -15 0 0
v -14 0 0
v -13 -1 0
v -14 -1 0
v -14 0 0
v -13 0 0
v -12 -1 0
v -13 -1 0
v -13 0 0
v -12 0 0
v -8 -1 0
v -9 -1 0
v -9 0 0
v -8 0 0
v -3 -1 0
v -4 -1 0
v -4 0 0
v -3 0 0
v -2 -1 0
v -3 -1 0
v -3 0 0
v -2 0 0
v -1 -1 0
v -2 -1 0
v -2 0 0
v -1 0 0
v 0 -1 0
v -1 -1 0
v -1 0 0
v 0 0 0
v -49 -2 0
v -50 -2 0
v -50 -1 0
v -49 -1 0
v -48 -2 0
v -49 -2 0
v -49 -1 0
v -48 -1 0
v -33 -2 0
v -34 -2 0
v -34 -1 0
v -33 -1 0
v -32 -2 0
v -33 -2 0
v -33 -1 0
v -32 -1 0
v -28 -2 0
v -29 -2 0
v -29 -1 0
v -28 -1 0
v -27 -2 0
v -28 -2 0
v -28 -1 0
v -27 -1 0
v -15 -2 0
v -16 -2 0
v -16 -1 0
v -15 -1 0
v -14 -2 0
v -15 -2 0
v -15 -1 0
v -14 -1 0
v -13 -2 0
v -14 -2 0
v -14 -1 0
v -13 -1 0
v -12 -2 0
v -13 -2 0
v -13 -1 0
v -12 -1 0
v -11 -2 0
v -12 -2 0
v -12 -1 0
v -11 -1 0
v -10 -2 0
v -11 -2 0
v -11 -1 0
v -10 -1 0
v -9 -2 0
v -10 -2 0
v -10 -1 0
v -9 -1 0
v -8 -2 0
v -9 -2 0
v -9 -1 0
v -8 -1 0
v -7 -2 0
v -8 -2 0
v -8 -1 0
v -7 -1 0
v -6 -2 0
v -7 -2 0
v -7 -1 0
v -6 -1 0
v -5 -2 0
v -6 -2 0
v -6 -1 0
v -5 -1 0
v -3 -2 0
v -4 -2 0
v -4 -1 0
v -3 -1 0
v -2 -2 0
v -3 -2 0
v -3 -1 0
v -2 -1 0
v -1 -2 0
v -2 -2 0
v -2 -1 0
v -1 -1 0
v 0 -2 0
v -1 -2 0
v -1 -1 0
v 0 -1 0
v -36 -3 0
v -37 -3 0
v -37 -2 0
v -36 -2 0
v -35 -3 0
v -36 -3 0
v -36 -2 0
v -35 -2 0
v -21 -3 0
v -22 -3 0
v -22 -2 0
v -21 -2 0
v -20 -3 0
v -21 -3 0
v -21 -2 0
v -20 -2 0
v -19 -3 0
v -20 -3 0
v -20 -2 0
v -19 -2 0
v -18 -3 0
v -19 -3 0
v -19 -2 0
v -18 -2 0
v -7 -3 0
v -8 -3 0
v -8 -2 0
v -7 -2 0
v -1 -3 0
v -2 -3 0
v -2 -2 0
v -1 -2 0
v -1 -4 0
v -2 -4 0
v -2 -3 0
v -1 -3 0
v 0 -4 0
v -1 -4 0
v -1 -3 0
v 0 -3 0
v -43 -6 0
v -44 -6 0
v -44 -5 0
v -43 -5 0
v -42 -6 0
v -43 -6 0
v -43 -5 0
v -42 -5 0
v -49 -7 0
v -50 -7 0
v -50 -6 0
v -49 -6 0
v -1 -7 0
v -2 -7 0
v -2 -6 0
v -1 -6 0
v 0 -7 0
v -1 -7 0
v -1 -6 0
v 0 -6 0
v -1 -8 0
v -2 -8 0
v -2 -7 0
v -1 -7 0
v -1 -9 0
v -2 -9 0
v -2 -8 0
v -1 -8 0
v 0 -10 0
v -1 -10 0
v -1 -9 0
v 0 -9 0
v -1 -11 0
v -2 -11 0
v -2 -10 0
v -1 -10 0
v 0 -11 0
v -1 -11 0
v -1 -10 0
v 0 -10 0
v -48 -12 0
v -49 -12 0
v -49 -11 0
v -48 -11 0
v -47 -12 0
v -48 -12 0
v -48 -11 0
v -47 -11 0
v -1 -12 0
v -2 -12 0
v -2 -11 0
v -1 -11 0
v -1 -13 0
v -2 -13 0
v -2 -12 0
v -1 -12 0
v -10 -14 0
v -11 -14 0
v -11 -13 0
v -10 -13 0
v -9 -14 0
v -10 -14 0
v -10 -13 0
v -9 -13 0
v -1 -14 0
v -2 -14 0
v -2 -13 0
v -1 -13 0
v -24 -15 0
v -25 -15 0
v -25 -14 0
v -24 -14 0
v -23 -15 0
v -24 -15 0
v -24 -14 0
v -23 -14 0
v -22 -15 0
v -23 -15 0
v -23 -14 0
v -22 -14 0
v -21 -15 0
v -22 -15 0
v -22 -14 0
v -21 -14 0
v -12 -15 0
v -13 -15 0
v -13 -14 0
v -12 -14 0
v -11 -15 0
v -12 -15 0
v -12 -14 0
v -11 -14 0
v -1 -15 0
v -2 -15 0
v -2 -14 0
v -1 -14 0
v -1 -16 0
v -2 -16 0
v -2 -15 0
v -1 -15 0
v -20 -17 0
v -21 -17 0
v -21 -16 0
v -20 -16 0
v -19 -17 0
v -20 -17 0
v -20 -16 0
v -19 -16 0
v -5 -17 0
v -6 -17 0
v -6 -16 0
v -5 -16 0
v -4 -17 0
v -5 -17 0
v -5 -16 0
v -4 -16 0
v -1 -17 0
v -2 -17 0
v -2 -16 0
v -1 -16 0
v -45 -18 0
v -46 -18 0
v -46 -17 0
v -45 -17 0
v -44 -18 0
v -45 -18 0
v -45 -17 0
v -44 -17 0
v -1 -18 0
v -2 -18 0
v -2 -17 0
v -1 -17 0
v -35 -19 0
v -36 -19 0
v -36 -18 0
v -35 -18 0
v -34 -19 0
v -35 -19 0
v -35 -18 0
v -34 -18 0
v -18 -19 0
v -19 -19 0
v -19 -18 0
v -18 -18 0
v -17 -19 0
v -18 -19 0
v -18 -18 0
v -17 -18 0
v -1 -19 0
v -2 -19 0
v -2 -18 0
v -1 -18 0
v -23 -20 0
v -24 -20 0
v -24 -19 0
v -23 -19 0
v -22 -20 0
v -23 -20 0
v -23 -19 0
v -22 -19 0
v -21 -20 0
v -22 -20 0
v -22 -19 0
v -21 -19 0
v -20 -20 0
v -21 -20 0
v -21 -19 0
v -20 -19 0
v -1 -20 0
v -2 -20 0
v -2 -19 0
v -1 -19 0
v -27 -21 0
v -28 -21 0
v -28 -20 0
v -27 -20 0
v -26 -21 0
v -27 -21 0
v -27 -20 0
v -26 -20 0
v -25 -21 0
v -26 -21 0
v -26 -20 0
v -25 -20 0
v -24 -21 0
v -25 -21 0
v -25 -20 0
v -24 -20 0
v -8 -21 0
v -9 -21 0
v -9 -20 0
v -8 -20 0
v -7 -21 0
v -8 -21 0
v -8 -20 0
v -7 -20 0
v -1 -21 0
v -2 -21 0
v -2 -20 0
v -1 -20 0
v -38 -22 0
v -39 -22 0
v -39 -21 0
v -38 -21 0
v -37 -22 0
v -38 -22 0
v -38 -21 0
v -37 -21 0
v -1 -22 0
v -2 -22 0
v -2 -21 0
v -1 -21 0
v -32 -23 0
v -33 -23 0
v -33 -22 0
v -32 -22 0
v -31 -23 0
v -32 -23 0
v -32 -22 0
v -31 -22 0
v -14 -23 0
v -15 -23 0
v -15 -22 0
v -14 -22 0
v -13 -23 0
v -14 -23 0
v -14 -22 0
v -13 -22 0
v -2 -23 0
v -3 -23 0
v -3 -22 0
v -2 -22 0
v -1 -23 0
v -2 -23 0
v -2 -22 0
v -1 -22 0
v -2 -24 0
v -3 -24 0
v -3 -23 0
v -2 -23 0
v -42 -25 0
v -43 -25 0
v -43 -24 0
v -42 -24 0
v -41 -25 0
v -42 -25 0
v -42 -24 0
v -41 -24 0
v -40 -25 0
v -41 -25 0
v -41 -24 0
v -40 -24 0
v -39 -25 0
v -40 -25 0
v -40 -24 0
v -39 -24 0
v -2 -25 0
v -3 -25 0
v -3 -24 0
v -2 -24 0
v -1 -25 0
v -2 -25 0
v -2 -24 0
v -1 -24 0
v 0 -25 0
v -1 -25 0
v -1 -24 0
v 0 -24 0
v -3 -26 0
v -4 -26 0
v -4 -25 0
v -3 -25 0
v -2 -26 0
v -3 -26 0
v -3 -25 0
v -2 -25 0
v -9 -27 0
v -10 -27 0
v -10 -26 0
v -9 -26 0
v -8 -27 0
v -9 -27 0
v -9 -26 0
v -8 -26 0
v -3 -27 0
v -4 -27 0
v -4 -26 0
v -3 -26 0
v -3 -28 0
v -4 -28 0
v -4 -27 0
v -3 -27 0
v 0 -28 0
v -1 -28 0
v -1 -27 0
v 0 -27 0
v -36 -29 0
v -37 -29 0
v -37 -28 0
v -36 -28 0
v -35 -29 0
v -36 -29 0
v -36 -28 0
v -35 -28 0
v -19 -29 0
v -20 -29 0
v -20 -28 0
v -19 -28 0
v -18 -29 0
v -19 -29 0
v -19 -28 0
v -18 -28 0
v -3 -29 0
v -4 -29 0
v -4 -28 0
v -3 -28 0
v -46 -30 0
v -47 -30 0
v -47 -29 0
v -46 -29 0
v -45 -30 0
v -46 -30 0
v -46 -29 0
v -45 -29 0
v -44 -30 0
v -45 -30 0
v -45 -29 0
v -44 -29 0
v -43 -30 0
v -44 -30 0
v -44 -29 0
v -43 -29 0
v -38 -30 0
v -39 -30 0
v -39 -29 0
v -38 -29 0
v -37 -30 0
v -38 -30 0
v -38 -29 0
v -37 -29 0
v -23 -30 0
v -24 -30 0
v -24 -29 0
v -23 -29 0
v -22 -30 0
v -23 -30 0
v -23 -29 0
v -22 -29 0
v -3 -30 0
v -4 -30 0
v -4 -29 0
v -3 -29 0
v -32 -31 0
v -33 -31 0
v -33 -30 0
v -32 -30 0
v -31 -31 0
v -32 -31 0
v -32 -30 0
v -31 -30 0
v -3 -31 0
v -4 -31 0
v -4 -30 0
v -3 -30 0
v -49 -32 0
v -50 -32 0
v -50 -31 0
v -49 -31 0
v -48 -32 0
v -49 -32 0
v -49 -31 0
v -48 -31 0
v -3 -32 0
v -4 -32 0
v -4 -31 0
v -3 -31 0
v -3 -33 0
v -4 -33 0
v -4 -32 0
v -3 -32 0
v -1 -33 0
v -2 -33 0
v -2 -32 0
v -1 -32 0
v 0 -33 0
v -1 -33 0
v -1 -32 0
v 0 -32 0
v -4 -34 0
v -5 -34 0
v -5 -33 0
v -4 -33 0
v -3 -34 0
v -4 -34 0
v -4 -33 0
v -3 -33 0
v -29 -35 0
v -30 -35 0
v -30 -34 0
v -29 -34 0
v -28 -35 0
v -29 -35 0
v -29 -34 0
v -28 -34 0
v -4 -35 0
v -5 -35 0
v -5 -34 0
v -4 -34 0
v -2 -35 0
v -3 -35 0
v -3 -34 0
v -2 -34 0
v -1 -35 0
v -2 -35 0
v -2 -34 0
v -1 -34 0
v 0 -35 0
v -1 -35 0
v -1 -34 0
v 0 -34 0
v -4 -36 0
v -5 -36 0
v -5 -35 0
v -4 -35 0
v -3 -36 0
v -4 -36 0
v -4 -35 0
v -3 -35 0
v -2 -36 0
v -3 -36 0
v -3 -35 0
v -2 -35 0
v -1 -36 0
v -2 -36 0
v -2 -35 0
v -1 -35 0
v 0 -37 0
v -1 -37 0
v -1 -36 0
v 0 -36 0
v -35 -39 0
v -36 -39 0
v -36 -38 0
v -35 -38 0
v -34 -39 0
v -35 -39 0
v -35 -38 0
v -34 -38 0
v -33 -39 0
v -34 -39 0
v -34 -38 0
v -33 -38 0
v -32 -39 0
v -33 -39 0
v -33 -38 0
v -32 -38 0
v -31 -39 0
v -32 -39 0
v -32 -38 0
v -31 -38 0
v -30 -39 0
v -31 -39 0
v -31 -38 0
v -30 -38 0
v -20 -39 0
v -21 -39 0
v -21 -38 0
v -20 -38 0
v -19 -39 0
v -20 -39 0
v -20 -38 0
v -19 -38 0
v -18 -39 0
v -19 -39 0
v -19 -38 0
v -18 -38 0
v -17 -39 0
v -18 -39 0
v -18 -38 0
v -17 -38 0
v -38 -40 0
v -39 -40 0
v -39 -39 0
v -38 -39 0
v -37 -40 0
v -38 -40 0
v -38 -39 0
v -37 -39 0
v -16 -41 0
v -17 -41 0
v -17 -40 0
v -16 -40 0
v -15 -41 0
v -16 -41 0
v -16 -40 0
v -15 -40 0
v -14 -41 0
v -15 -41 0
v -15 -40 0
v -14 -40 0
v -13 -41 0
v -14 -41 0
v -14 -40 0
v -13 -40 0
v -6 -41 0
v -7 -41 0
v -7 -40 0
v -6 -40 0
v -5 -41 0
v -6 -41 0
v -6 -40 0
v -5 -40 0
v -4 -41 0
v -5 -41 0
v -5 -40 0
v -4 -40 0
v -3 -41 0
v -4 -41 0
v -4 -40 0
v -3 -40 0
v -46 -42 0
v -47 -42 0
v -47 -41 0
v -46 -41 0
v -45 -42 0
v -46 -42 0
v -46 -41 0
v -45 -41 0
v -24 -44 0
v -25 -44 0
v -25 -43 0
v -24 -43 0
v -23 -44 0
v -24 -44 0
v -24 -43 0
v -23 -43 0
v -22 -44 0
v -23 -44 0
v -23 -43 0
v -22 -43 0
v -21 -44 0
v -22 -44 0
v -22 -43 0
v -21 -43 0
v -2 -44 0
v -3 -44 0
v -3 -43 0
v -2 -43 0
v -1 -44 0
v -2 -44 0
v -2 -43 0
v -1 -43 0
v -49 -46 0
v -50 -46 0
v -50 -45 0
v -49 -45 0
v -49 -47 0
v -50 -47 0
v -50 -46 0
v -49 -46 0
v -19 -48 0
v -20 -48 0
v -20 -47 0
v -19 -47 0
v -18 -48 0
v -19 -48 0
v -19 -47 0
v -18 -47 0
v -49 -49 0
v -50 -49 0
v -50 -48 0
v -49 -48 0
v -48 -49 0
v -49 -49 0
v -49 -48 0
v -48 -48 0
v -42 -49 0
v -43 -49 0
v -43 -48 0
v -42 -48 0
v -41 -49 0
v -42 -49 0
v -42 -48 0
v -41 -48 0
v -40 -49 0
v -41 -49 0
v -41 -48 0
v -40 -48 0
v -39 -49 0
v -40 -49 0
v -40 -48 0
v -39 -48 0
v -49 -50 0
v -50 -50 0
v -50 -49 0
v -49 -49 0
v -48 -50 0
v -49 -50 0
v -49 -49 0
v -48 -49 0
v -47 -50 0
v -48 -50 0
v -48 -49 0
v -47 -49 0
v -46 -50 0
v -47 -50 0
v -47 -49 0
v -46 -49 0
v -45 -50 0
v -46 -50 0
v -46 -49 0
v -45 -49 0
v -44 -50 0
v -45 -50 0
v -45 -49 0
v -44 -49 0
v -29 -50 0
v -30 -50 0
v -30 -49 0
v -29 -49 0
v -28 -50 0
v -29 -50 0
v -29 -49 0
v -28 -49 0

# Texture cooridinates (Count = 36)
vt 0.04173455 0.5834554
vt 0.06229666 0.5834554
vt 0.06229666 0.610989
vt 0.04173455 0.610989
vt 0.02092831 0.0001220703
vt 0.04149041 0.0001220703
vt 0.04149041 0.02765572
vt 0.02092831 0.02765572
vt 0.0001220703 0.0001220703
vt 0.02068417 0.0001220703
vt 0.02068417 0.02765572
vt 0.0001220703 0.02765572
vt 0.1249595 0.5001221
vt 0.1455216 0.5001221
vt 0.1455216 0.5276557
vt 0.1249595 0.5276557
vt 0.1041533 0.5001221
vt 0.1247154 0.5001221
vt 0.1247154 0.5276557
vt 0.1041533 0.5276557
vt 0.0625408 0.0001220703
vt 0.0831029 0.0001220703
vt 0.0831029 0.02765572
vt 0.0625408 0.02765572
vt 0.04173455 0.0001220703
vt 0.06229666 0.0001220703
vt 0.06229666 0.02765572
vt 0.04173455 0.02765572
vt 0.3330219 0.08345538
vt 0.3535841 0.08345538
vt 0.3535841 0.110989
vt 0.3330219 0.110989
vt 0.3122157 0.08345538
vt 0.3327778 0.08345538
vt 0.3327778 0.110989
vt 0.3122157 0.110989

# Normal
vn 0 0 -1

# Mesh description
g LeftMontilla2_mesh_0002

# Faces
f 1/1/1 2/2/1 3/3/1 4/4/1
f 5/1/1 6/2/1 7/3/1 8/4/1
f 9/1/1 10/2/1 11/3/1 12/4/1
f 13/1/1 14/2/1 15/3/1 16/4/1
f 17/1/1 18/2/1 19/3/1 20/4/1
f 21/1/1 22/2/1 23/3/1 24/4/1
f 25/1/1 26/2/1 27/3/1 28/4/1
f 29/1/1 30/2/1 31/3/1 32/4/1
f 33/1/1 34/2/1 35/3/1 36/4/1
f 37/5/1 38/6/1 39/7/1 40/8/1
f 41/9/1 42/10/1 43/11/1 44/12/1
f 45/13/1 46/14/1 47/15/1 48/16/1
f 49/17/1 50/18/1 51/19/1 52/20/1
f 53/13/1 54/14/1 55/15/1 56/16/1
f 57/17/1 58/18/1 59/19/1 60/20/1
f 61/1/1 62/2/1 63/3/1 64/4/1
f 65/1/1 66/2/1 67/3/1 68/4/1
f 69/1/1 70/2/1 71/3/1 72/4/1
f 73/1/1 74/2/1 75/3/1 76/4/1
f 77/1/1 78/2/1 79/3/1 80/4/1
f 81/1/1 82/2/1 83/3/1 84/4/1
f 85/1/1 86/2/1 87/3/1 88/4/1
f 89/1/1 90/2/1 91/3/1 92/4/1
f 93/1/1 94/2/1 95/3/1 96/4/1
f 97/13/1 98/14/1 99/15/1 100/16/1
f 101/17/1 102/18/1 103/19/1 104/20/1
f 105/1/1 106/2/1 107/3/1 108/4/1
f 109/1/1 110/2/1 111/3/1 112/4/1
f 113/1/1 114/2/1 115/3/1 116/4/1
f 117/1/1 118/2/1 119/3/1 120/4/1
f 121/13/1 122/14/1 123/15/1 124/16/1
f 125/17/1 126/18/1 127/19/1 128/20/1
f 129/21/1 130/22/1 131/23/1 132/24/1
f 133/25/1 134/26/1 135/27/1 136/28/1
f 137/5/1 138/6/1 139/7/1 140/8/1
f 141/9/1 142/10/1 143/11/1 144/12/1
f 145/1/1 146/2/1 147/3/1 148/4/1
f 149/1/1 150/2/1 151/3/1 152/4/1
f 153/1/1 154/2/1 155/3/1 156/4/1
f 157/1/1 158/2/1 159/3/1 160/4/1
f 161/13/1 162/14/1 163/15/1 164/16/1
f 165/17/1 166/18/1 167/19/1 168/20/1
f 169/17/1 170/18/1 171/19/1 172/20/1
f 173/1/1 174/2/1 175/3/1 176/4/1
f 177/1/1 178/2/1 179/3/1 180/4/1
f 181/1/1 182/2/1 183/3/1 184/4/1
f 185/1/1 186/2/1 187/3/1 188/4/1
f 189/1/1 190/2/1 191/3/1 192/4/1
f 193/1/1 194/2/1 195/3/1 196/4/1
f 197/1/1 198/2/1 199/3/1 200/4/1
f 201/13/1 202/14/1 203/15/1 204/16/1
f 205/17/1 206/18/1 207/19/1 208/20/1
f 209/1/1 210/2/1 211/3/1 212/4/1
f 213/1/1 214/2/1 215/3/1 216/4/1
f 217/13/1 218/14/1 219/15/1 220/16/1
f 221/17/1 222/18/1 223/19/1 224/20/1
f 225/1/1 226/2/1 227/3/1 228/4/1
f 229/21/1 230/22/1 231/23/1 232/24/1
f 233/25/1 234/26/1 235/27/1 236/28/1
f 237/5/1 238/6/1 239/7/1 240/8/1
f 241/9/1 242/10/1 243/11/1 244/12/1
f 245/13/1 246/14/1 247/15/1 248/16/1
f 249/17/1 250/18/1 251/19/1 252/20/1
f 253/1/1 254/2/1 255/3/1 256/4/1
f 257/1/1 258/2/1 259/3/1 260/4/1
f 261/13/1 262/14/1 263/15/1 264/16/1
f 265/17/1 266/18/1 267/19/1 268/20/1
f 269/13/1 270/14/1 271/15/1 272/16/1
f 273/17/1 274/18/1 275/19/1 276/20/1
f 277/1/1 278/2/1 279/3/1 280/4/1
f 281/29/1 282/30/1 283/31/1 284/32/1
f 285/33/1 286/34/1 287/35/1 288/36/1
f 289/1/1 290/2/1 291/3/1 292/4/1
f 293/13/1 294/14/1 295/15/1 296/16/1
f 297/17/1 298/18/1 299/19/1 300/20/1
f 301/13/1 302/14/1 303/15/1 304/16/1
f 305/17/1 306/18/1 307/19/1 308/20/1
f 309/1/1 310/2/1 311/3/1 312/4/1
f 313/21/1 314/22/1 315/23/1 316/24/1
f 317/25/1 318/26/1 319/27/1 320/28/1
f 321/5/1 322/6/1 323/7/1 324/8/1
f 325/9/1 326/10/1 327/11/1 328/12/1
f 329/1/1 330/2/1 331/3/1 332/4/1
f 333/21/1 334/22/1 335/23/1 336/24/1
f 337/25/1 338/26/1 339/27/1 340/28/1
f 341/5/1 342/6/1 343/7/1 344/8/1
f 345/9/1 346/10/1 347/11/1 348/12/1
f 349/13/1 350/14/1 351/15/1 352/16/1
f 353/17/1 354/18/1 355/19/1 356/20/1
f 357/1/1 358/2/1 359/3/1 360/4/1
f 361/13/1 362/14/1 363/15/1 364/16/1
f 365/17/1 366/18/1 367/19/1 368/20/1
f 369/1/1 370/2/1 371/3/1 372/4/1
f 373/13/1 374/14/1 375/15/1 376/16/1
f 377/17/1 378/18/1 379/19/1 380/20/1
f 381/13/1 382/14/1 383/15/1 384/16/1
f 385/17/1 386/18/1 387/19/1 388/20/1
f 389/1/1 390/2/1 391/3/1 392/4/1
f 393/1/1 394/2/1 395/3/1 396/4/1
f 397/1/1 398/2/1 399/3/1 400/4/1
f 401/21/1 402/22/1 403/23/1 404/24/1
f 405/25/1 406/26/1 407/27/1 408/28/1
f 409/5/1 410/6/1 411/7/1 412/8/1
f 413/9/1 414/10/1 415/11/1 416/12/1
f 417/1/1 418/2/1 419/3/1 420/4/1
f 421/13/1 422/14/1 423/15/1 424/16/1
f 425/17/1 426/18/1 427/19/1 428/20/1
f 429/1/1 430/2/1 431/3/1 432/4/1
f 433/1/1 434/2/1 435/3/1 436/4/1
f 437/13/1 438/14/1 439/15/1 440/16/1
f 441/17/1 442/18/1 443/19/1 444/20/1
f 445/1/1 446/2/1 447/3/1 448/4/1
f 449/1/1 450/2/1 451/3/1 452/4/1
f 453/13/1 454/14/1 455/15/1 456/16/1
f 457/13/1 458/14/1 459/15/1 460/16/1
f 461/17/1 462/18/1 463/19/1 464/20/1
f 465/13/1 466/14/1 467/15/1 468/16/1
f 469/17/1 470/18/1 471/19/1 472/20/1
f 473/1/1 474/2/1 475/3/1 476/4/1
f 477/21/1 478/22/1 479/23/1 480/24/1
f 481/25/1 482/26/1 483/27/1 484/28/1
f 485/5/1 486/6/1 487/7/1 488/8/1
f 489/9/1 490/10/1 491/11/1 492/12/1
f 493/13/1 494/14/1 495/15/1 496/16/1
f 497/17/1 498/18/1 499/19/1 500/20/1
f 501/13/1 502/14/1 503/15/1 504/16/1
f 505/17/1 506/18/1 507/19/1 508/20/1
f 509/1/1 510/2/1 511/3/1 512/4/1
f 513/13/1 514/14/1 515/15/1 516/16/1
f 517/17/1 518/18/1 519/19/1 520/20/1
f 521/1/1 522/2/1 523/3/1 524/4/1
f 525/13/1 526/14/1 527/15/1 528/16/1
f 529/17/1 530/18/1 531/19/1 532/20/1
f 533/1/1 534/2/1 535/3/1 536/4/1
f 537/1/1 538/2/1 539/3/1 540/4/1
f 541/13/1 542/14/1 543/15/1 544/16/1
f 545/17/1 546/18/1 547/19/1 548/20/1
f 549/1/1 550/2/1 551/3/1 552/4/1
f 553/1/1 554/2/1 555/3/1 556/4/1
f 557/29/1 558/30/1 559/31/1 560/32/1
f 561/33/1 562/34/1 563/35/1 564/36/1
f 565/1/1 566/2/1 567/3/1 568/4/1
f 569/1/1 570/2/1 571/3/1 572/4/1
f 573/1/1 574/2/1 575/3/1 576/4/1
f 577/1/1 578/2/1 579/3/1 580/4/1
f 581/1/1 582/2/1 583/3/1 584/4/1
f 585/1/1 586/2/1 587/3/1 588/4/1
f 589/1/1 590/2/1 591/3/1 592/4/1
f 593/1/1 594/2/1 595/3/1 596/4/1
f 597/1/1 598/2/1 599/3/1 600/4/1
f 601/13/1 602/14/1 603/15/1 604/16/1
f 605/17/1 606/18/1 607/19/1 608/20/1
f 609/13/1 610/14/1 611/15/1 612/16/1
f 613/17/1 614/18/1 615/19/1 616/20/1
f 617/13/1 618/14/1 619/15/1 620/16/1
f 621/17/1 622/18/1 623/19/1 624/20/1
f 625/21/1 626/22/1 627/23/1 628/24/1
f 629/25/1 630/26/1 631/27/1 632/28/1
f 633/5/1 634/6/1 635/7/1 636/8/1
f 637/9/1 638/10/1 639/11/1 640/12/1
f 641/29/1 642/30/1 643/31/1 644/32/1
f 645/33/1 646/34/1 647/35/1 648/36/1
f 649/21/1 650/22/1 651/23/1 652/24/1
f 653/25/1 654/26/1 655/27/1 656/28/1
f 657/5/1 658/6/1 659/7/1 660/8/1
f 661/9/1 662/10/1 663/11/1 664/12/1
f 665/21/1 666/22/1 667/23/1 668/24/1
f 669/25/1 670/26/1 671/27/1 672/28/1
f 673/5/1 674/6/1 675/7/1 676/8/1
f 677/9/1 678/10/1 679/11/1 680/12/1
f 681/13/1 682/14/1 683/15/1 684/16/1
f 685/17/1 686/18/1 687/19/1 688/20/1
f 689/21/1 690/22/1 691/23/1 692/24/1
f 693/25/1 694/26/1 695/27/1 696/28/1
f 697/5/1 698/6/1 699/7/1 700/8/1
f 701/9/1 702/10/1 703/11/1 704/12/1
f 705/13/1 706/14/1 707/15/1 708/16/1
f 709/17/1 710/18/1 711/19/1 712/20/1
f 713/1/1 714/2/1 715/3/1 716/4/1
f 717/1/1 718/2/1 719/3/1 720/4/1
f 721/13/1 722/14/1 723/15/1 724/16/1
f 725/17/1 726/18/1 727/19/1 728/20/1
f 729/13/1 730/14/1 731/15/1 732/16/1
f 733/17/1 734/18/1 735/19/1 736/20/1
f 737/21/1 738/22/1 739/23/1 740/24/1
f 741/25/1 742/26/1 743/27/1 744/28/1
f 745/5/1 746/6/1 747/7/1 748/8/1
f 749/9/1 750/10/1 751/11/1 752/12/1
f 753/1/1 754/2/1 755/3/1 756/4/1
f 757/1/1 758/2/1 759/3/1 760/4/1
f 761/1/1 762/2/1 763/3/1 764/4/1
f 765/1/1 766/2/1 767/3/1 768/4/1
f 769/1/1 770/2/1 771/3/1 772/4/1
f 773/1/1 774/2/1 775/3/1 776/4/1
f 777/13/1 778/14/1 779/15/1 780/16/1
f 781/17/1 782/18/1 783/19/1 784/20/1

