# Tiled2Unity generated file. Do not modify by hand.
# Wavefront file for 'LeftMontilla2_mesh_0004.obj'

# Vertices (Count = 336)
v -15 -9 0
v -16 -9 0
v -16 -8 0
v -15 -8 0
v -14 -9 0
v -15 -9 0
v -15 -8 0
v -14 -8 0
v -13 -9 0
v -14 -9 0
v -14 -8 0
v -13 -8 0
v -12 -9 0
v -13 -9 0
v -13 -8 0
v -12 -8 0
v -11 -9 0
v -12 -9 0
v -12 -8 0
v -11 -8 0
v -10 -9 0
v -11 -9 0
v -11 -8 0
v -10 -8 0
v -9 -9 0
v -10 -9 0
v -10 -8 0
v -9 -8 0
v -15 -10 0
v -16 -10 0
v -16 -9 0
v -15 -9 0
v -14 -10 0
v -15 -10 0
v -15 -9 0
v -14 -9 0
v -13 -10 0
v -14 -10 0
v -14 -9 0
v -13 -9 0
v -12 -10 0
v -13 -10 0
v -13 -9 0
v -12 -9 0
v -11 -10 0
v -12 -10 0
v -12 -9 0
v -11 -9 0
v -10 -10 0
v -11 -10 0
v -11 -9 0
v -10 -9 0
v -9 -10 0
v -10 -10 0
v -10 -9 0
v -9 -9 0
v -15 -11 0
v -16 -11 0
v -16 -10 0
v -15 -10 0
v -14 -11 0
v -15 -11 0
v -15 -10 0
v -14 -10 0
v -13 -11 0
v -14 -11 0
v -14 -10 0
v -13 -10 0
v -12 -11 0
v -13 -11 0
v -13 -10 0
v -12 -10 0
v -11 -11 0
v -12 -11 0
v -12 -10 0
v -11 -10 0
v -10 -11 0
v -11 -11 0
v -11 -10 0
v -10 -10 0
v -9 -11 0
v -10 -11 0
v -10 -10 0
v -9 -10 0
v -39 -12 0
v -40 -12 0
v -40 -11 0
v -39 -11 0
v -38 -12 0
v -39 -12 0
v -39 -11 0
v -38 -11 0
v -37 -12 0
v -38 -12 0
v -38 -11 0
v -37 -11 0
v -36 -12 0
v -37 -12 0
v -37 -11 0
v -36 -11 0
v -35 -12 0
v -36 -12 0
v -36 -11 0
v -35 -11 0
v -34 -12 0
v -35 -12 0
v -35 -11 0
v -34 -11 0
v -33 -12 0
v -34 -12 0
v -34 -11 0
v -33 -11 0
v -39 -13 0
v -40 -13 0
v -40 -12 0
v -39 -12 0
v -38 -13 0
v -39 -13 0
v -39 -12 0
v -38 -12 0
v -37 -13 0
v -38 -13 0
v -38 -12 0
v -37 -12 0
v -36 -13 0
v -37 -13 0
v -37 -12 0
v -36 -12 0
v -35 -13 0
v -36 -13 0
v -36 -12 0
v -35 -12 0
v -34 -13 0
v -35 -13 0
v -35 -12 0
v -34 -12 0
v -33 -13 0
v -34 -13 0
v -34 -12 0
v -33 -12 0
v -39 -14 0
v -40 -14 0
v -40 -13 0
v -39 -13 0
v -38 -14 0
v -39 -14 0
v -39 -13 0
v -38 -13 0
v -37 -14 0
v -38 -14 0
v -38 -13 0
v -37 -13 0
v -36 -14 0
v -37 -14 0
v -37 -13 0
v -36 -13 0
v -35 -14 0
v -36 -14 0
v -36 -13 0
v -35 -13 0
v -34 -14 0
v -35 -14 0
v -35 -13 0
v -34 -13 0
v -33 -14 0
v -34 -14 0
v -34 -13 0
v -33 -13 0
v -46 -33 0
v -47 -33 0
v -47 -32 0
v -46 -32 0
v -45 -33 0
v -46 -33 0
v -46 -32 0
v -45 -32 0
v -44 -33 0
v -45 -33 0
v -45 -32 0
v -44 -32 0
v -43 -33 0
v -44 -33 0
v -44 -32 0
v -43 -32 0
v -42 -33 0
v -43 -33 0
v -43 -32 0
v -42 -32 0
v -41 -33 0
v -42 -33 0
v -42 -32 0
v -41 -32 0
v -40 -33 0
v -41 -33 0
v -41 -32 0
v -40 -32 0
v -46 -34 0
v -47 -34 0
v -47 -33 0
v -46 -33 0
v -45 -34 0
v -46 -34 0
v -46 -33 0
v -45 -33 0
v -44 -34 0
v -45 -34 0
v -45 -33 0
v -44 -33 0
v -43 -34 0
v -44 -34 0
v -44 -33 0
v -43 -33 0
v -42 -34 0
v -43 -34 0
v -43 -33 0
v -42 -33 0
v -41 -34 0
v -42 -34 0
v -42 -33 0
v -41 -33 0
v -40 -34 0
v -41 -34 0
v -41 -33 0
v -40 -33 0
v -46 -35 0
v -47 -35 0
v -47 -34 0
v -46 -34 0
v -45 -35 0
v -46 -35 0
v -46 -34 0
v -45 -34 0
v -44 -35 0
v -45 -35 0
v -45 -34 0
v -44 -34 0
v -43 -35 0
v -44 -35 0
v -44 -34 0
v -43 -34 0
v -42 -35 0
v -43 -35 0
v -43 -34 0
v -42 -34 0
v -41 -35 0
v -42 -35 0
v -42 -34 0
v -41 -34 0
v -40 -35 0
v -41 -35 0
v -41 -34 0
v -40 -34 0
v -29 -41 0
v -30 -41 0
v -30 -40 0
v -29 -40 0
v -28 -41 0
v -29 -41 0
v -29 -40 0
v -28 -40 0
v -27 -41 0
v -28 -41 0
v -28 -40 0
v -27 -40 0
v -26 -41 0
v -27 -41 0
v -27 -40 0
v -26 -40 0
v -25 -41 0
v -26 -41 0
v -26 -40 0
v -25 -40 0
v -24 -41 0
v -25 -41 0
v -25 -40 0
v -24 -40 0
v -23 -41 0
v -24 -41 0
v -24 -40 0
v -23 -40 0
v -29 -42 0
v -30 -42 0
v -30 -41 0
v -29 -41 0
v -28 -42 0
v -29 -42 0
v -29 -41 0
v -28 -41 0
v -27 -42 0
v -28 -42 0
v -28 -41 0
v -27 -41 0
v -26 -42 0
v -27 -42 0
v -27 -41 0
v -26 -41 0
v -25 -42 0
v -26 -42 0
v -26 -41 0
v -25 -41 0
v -24 -42 0
v -25 -42 0
v -25 -41 0
v -24 -41 0
v -23 -42 0
v -24 -42 0
v -24 -41 0
v -23 -41 0
v -29 -43 0
v -30 -43 0
v -30 -42 0
v -29 -42 0
v -28 -43 0
v -29 -43 0
v -29 -42 0
v -28 -42 0
v -27 -43 0
v -28 -43 0
v -28 -42 0
v -27 -42 0
v -26 -43 0
v -27 -43 0
v -27 -42 0
v -26 -42 0
v -25 -43 0
v -26 -43 0
v -26 -42 0
v -25 -42 0
v -24 -43 0
v -25 -43 0
v -25 -42 0
v -24 -42 0
v -23 -43 0
v -24 -43 0
v -24 -42 0
v -23 -42 0

# Texture cooridinates (Count = 84)
vt 0.3068313 0.7895957
vt 0.3236266 0.7895957
vt 0.3236266 0.8156674
vt 0.3068313 0.8156674
vt 0.2897919 0.7895957
vt 0.3065872 0.7895957
vt 0.3065872 0.8156674
vt 0.2897919 0.8156674
vt 0.2727525 0.7895957
vt 0.2895478 0.7895957
vt 0.2895478 0.8156674
vt 0.2727525 0.8156674
vt 0.2557131 0.7895957
vt 0.2725084 0.7895957
vt 0.2725084 0.8156674
vt 0.2557131 0.8156674
vt 0.2386737 0.7895957
vt 0.255469 0.7895957
vt 0.255469 0.8156674
vt 0.2386737 0.8156674
vt 0.2216343 0.7895957
vt 0.2384296 0.7895957
vt 0.2384296 0.8156674
vt 0.2216343 0.8156674
vt 0.2045949 0.7895957
vt 0.2213902 0.7895957
vt 0.2213902 0.8156674
vt 0.2045949 0.8156674
vt 0.3068313 0.76328
vt 0.3236266 0.76328
vt 0.3236266 0.7893516
vt 0.3068313 0.7893516
vt 0.2897919 0.76328
vt 0.3065872 0.76328
vt 0.3065872 0.7893516
vt 0.2897919 0.7893516
vt 0.2727525 0.76328
vt 0.2895478 0.76328
vt 0.2895478 0.7893516
vt 0.2727525 0.7893516
vt 0.2557131 0.76328
vt 0.2725084 0.76328
vt 0.2725084 0.7893516
vt 0.2557131 0.7893516
vt 0.2386737 0.76328
vt 0.255469 0.76328
vt 0.255469 0.7893516
vt 0.2386737 0.7893516
vt 0.2216343 0.76328
vt 0.2384296 0.76328
vt 0.2384296 0.7893516
vt 0.2216343 0.7893516
vt 0.2045949 0.76328
vt 0.2213902 0.76328
vt 0.2213902 0.7893516
vt 0.2045949 0.7893516
vt 0.3068313 0.7369642
vt 0.3236266 0.7369642
vt 0.3236266 0.7630358
vt 0.3068313 0.7630358
vt 0.2897919 0.7369642
vt 0.3065872 0.7369642
vt 0.3065872 0.7630358
vt 0.2897919 0.7630358
vt 0.2727525 0.7369642
vt 0.2895478 0.7369642
vt 0.2895478 0.7630358
vt 0.2727525 0.7630358
vt 0.2557131 0.7369642
vt 0.2725084 0.7369642
vt 0.2725084 0.7630358
vt 0.2557131 0.7630358
vt 0.2386737 0.7369642
vt 0.255469 0.7369642
vt 0.255469 0.7630358
vt 0.2386737 0.7630358
vt 0.2216343 0.7369642
vt 0.2384296 0.7369642
vt 0.2384296 0.7630358
vt 0.2216343 0.7630358
vt 0.2045949 0.7369642
vt 0.2213902 0.7369642
vt 0.2213902 0.7630358
vt 0.2045949 0.7630358

# Normal
vn 0 0 -1

# Mesh description
g LeftMontilla2_mesh_0004

# Faces
f 1/1/1 2/2/1 3/3/1 4/4/1
f 5/5/1 6/6/1 7/7/1 8/8/1
f 9/9/1 10/10/1 11/11/1 12/12/1
f 13/13/1 14/14/1 15/15/1 16/16/1
f 17/17/1 18/18/1 19/19/1 20/20/1
f 21/21/1 22/22/1 23/23/1 24/24/1
f 25/25/1 26/26/1 27/27/1 28/28/1
f 29/29/1 30/30/1 31/31/1 32/32/1
f 33/33/1 34/34/1 35/35/1 36/36/1
f 37/37/1 38/38/1 39/39/1 40/40/1
f 41/41/1 42/42/1 43/43/1 44/44/1
f 45/45/1 46/46/1 47/47/1 48/48/1
f 49/49/1 50/50/1 51/51/1 52/52/1
f 53/53/1 54/54/1 55/55/1 56/56/1
f 57/57/1 58/58/1 59/59/1 60/60/1
f 61/61/1 62/62/1 63/63/1 64/64/1
f 65/65/1 66/66/1 67/67/1 68/68/1
f 69/69/1 70/70/1 71/71/1 72/72/1
f 73/73/1 74/74/1 75/75/1 76/76/1
f 77/77/1 78/78/1 79/79/1 80/80/1
f 81/81/1 82/82/1 83/83/1 84/84/1
f 85/1/1 86/2/1 87/3/1 88/4/1
f 89/5/1 90/6/1 91/7/1 92/8/1
f 93/9/1 94/10/1 95/11/1 96/12/1
f 97/13/1 98/14/1 99/15/1 100/16/1
f 101/17/1 102/18/1 103/19/1 104/20/1
f 105/21/1 106/22/1 107/23/1 108/24/1
f 109/25/1 110/26/1 111/27/1 112/28/1
f 113/29/1 114/30/1 115/31/1 116/32/1
f 117/33/1 118/34/1 119/35/1 120/36/1
f 121/37/1 122/38/1 123/39/1 124/40/1
f 125/41/1 126/42/1 127/43/1 128/44/1
f 129/45/1 130/46/1 131/47/1 132/48/1
f 133/49/1 134/50/1 135/51/1 136/52/1
f 137/53/1 138/54/1 139/55/1 140/56/1
f 141/57/1 142/58/1 143/59/1 144/60/1
f 145/61/1 146/62/1 147/63/1 148/64/1
f 149/65/1 150/66/1 151/67/1 152/68/1
f 153/69/1 154/70/1 155/71/1 156/72/1
f 157/73/1 158/74/1 159/75/1 160/76/1
f 161/77/1 162/78/1 163/79/1 164/80/1
f 165/81/1 166/82/1 167/83/1 168/84/1
f 169/1/1 170/2/1 171/3/1 172/4/1
f 173/5/1 174/6/1 175/7/1 176/8/1
f 177/9/1 178/10/1 179/11/1 180/12/1
f 181/13/1 182/14/1 183/15/1 184/16/1
f 185/17/1 186/18/1 187/19/1 188/20/1
f 189/21/1 190/22/1 191/23/1 192/24/1
f 193/25/1 194/26/1 195/27/1 196/28/1
f 197/29/1 198/30/1 199/31/1 200/32/1
f 201/33/1 202/34/1 203/35/1 204/36/1
f 205/37/1 206/38/1 207/39/1 208/40/1
f 209/41/1 210/42/1 211/43/1 212/44/1
f 213/45/1 214/46/1 215/47/1 216/48/1
f 217/49/1 218/50/1 219/51/1 220/52/1
f 221/53/1 222/54/1 223/55/1 224/56/1
f 225/57/1 226/58/1 227/59/1 228/60/1
f 229/61/1 230/62/1 231/63/1 232/64/1
f 233/65/1 234/66/1 235/67/1 236/68/1
f 237/69/1 238/70/1 239/71/1 240/72/1
f 241/73/1 242/74/1 243/75/1 244/76/1
f 245/77/1 246/78/1 247/79/1 248/80/1
f 249/81/1 250/82/1 251/83/1 252/84/1
f 253/1/1 254/2/1 255/3/1 256/4/1
f 257/5/1 258/6/1 259/7/1 260/8/1
f 261/9/1 262/10/1 263/11/1 264/12/1
f 265/13/1 266/14/1 267/15/1 268/16/1
f 269/17/1 270/18/1 271/19/1 272/20/1
f 273/21/1 274/22/1 275/23/1 276/24/1
f 277/25/1 278/26/1 279/27/1 280/28/1
f 281/29/1 282/30/1 283/31/1 284/32/1
f 285/33/1 286/34/1 287/35/1 288/36/1
f 289/37/1 290/38/1 291/39/1 292/40/1
f 293/41/1 294/42/1 295/43/1 296/44/1
f 297/45/1 298/46/1 299/47/1 300/48/1
f 301/49/1 302/50/1 303/51/1 304/52/1
f 305/53/1 306/54/1 307/55/1 308/56/1
f 309/57/1 310/58/1 311/59/1 312/60/1
f 313/61/1 314/62/1 315/63/1 316/64/1
f 317/65/1 318/66/1 319/67/1 320/68/1
f 321/69/1 322/70/1 323/71/1 324/72/1
f 325/73/1 326/74/1 327/75/1 328/76/1
f 329/77/1 330/78/1 331/79/1 332/80/1
f 333/81/1 334/82/1 335/83/1 336/84/1

