# Tiled2Unity generated file. Do not modify by hand.
# Wavefront file for 'MitsubishiMotors_mesh_0003.obj'

# Vertices (Count = 776)
v -50 -1 0
v -51 -1 0
v -51 0 0
v -50 0 0
v -49 -1 0
v -50 -1 0
v -50 0 0
v -49 0 0
v -48 -1 0
v -49 -1 0
v -49 0 0
v -48 0 0
v -47 -1 0
v -48 -1 0
v -48 0 0
v -47 0 0
v -46 -1 0
v -47 -1 0
v -47 0 0
v -46 0 0
v -45 -1 0
v -46 -1 0
v -46 0 0
v -45 0 0
v -44 -1 0
v -45 -1 0
v -45 0 0
v -44 0 0
v -43 -1 0
v -44 -1 0
v -44 0 0
v -43 0 0
v -42 -1 0
v -43 -1 0
v -43 0 0
v -42 0 0
v -41 -1 0
v -42 -1 0
v -42 0 0
v -41 0 0
v -40 -1 0
v -41 -1 0
v -41 0 0
v -40 0 0
v -39 -1 0
v -40 -1 0
v -40 0 0
v -39 0 0
v -38 -1 0
v -39 -1 0
v -39 0 0
v -38 0 0
v -37 -1 0
v -38 -1 0
v -38 0 0
v -37 0 0
v -36 -1 0
v -37 -1 0
v -37 0 0
v -36 0 0
v -35 -1 0
v -36 -1 0
v -36 0 0
v -35 0 0
v -34 -1 0
v -35 -1 0
v -35 0 0
v -34 0 0
v -33 -1 0
v -34 -1 0
v -34 0 0
v -33 0 0
v -32 -1 0
v -33 -1 0
v -33 0 0
v -32 0 0
v -31 -1 0
v -32 -1 0
v -32 0 0
v -31 0 0
v -30 -1 0
v -31 -1 0
v -31 0 0
v -30 0 0
v -26 -1 0
v -27 -1 0
v -27 0 0
v -26 0 0
v -25 -1 0
v -26 -1 0
v -26 0 0
v -25 0 0
v -24 -1 0
v -25 -1 0
v -25 0 0
v -24 0 0
v -23 -1 0
v -24 -1 0
v -24 0 0
v -23 0 0
v -22 -1 0
v -23 -1 0
v -23 0 0
v -22 0 0
v -21 -1 0
v -22 -1 0
v -22 0 0
v -21 0 0
v -20 -1 0
v -21 -1 0
v -21 0 0
v -20 0 0
v -12 -1 0
v -13 -1 0
v -13 0 0
v -12 0 0
v -7 -1 0
v -8 -1 0
v -8 0 0
v -7 0 0
v -6 -1 0
v -7 -1 0
v -7 0 0
v -6 0 0
v -5 -1 0
v -6 -1 0
v -6 0 0
v -5 0 0
v -4 -1 0
v -5 -1 0
v -5 0 0
v -4 0 0
v -3 -1 0
v -4 -1 0
v -4 0 0
v -3 0 0
v -2 -1 0
v -3 -1 0
v -3 0 0
v -2 0 0
v -1 -1 0
v -2 -1 0
v -2 0 0
v -1 0 0
v 0 -1 0
v -1 -1 0
v -1 0 0
v 0 0 0
v 0 -2 0
v -1 -2 0
v -1 -1 0
v 0 -1 0
v -48 -11 0
v -49 -11 0
v -49 -10 0
v -48 -10 0
v -49 -12 0
v -50 -12 0
v -50 -11 0
v -49 -11 0
v -48 -12 0
v -49 -12 0
v -49 -11 0
v -48 -11 0
v -49 -13 0
v -50 -13 0
v -50 -12 0
v -49 -12 0
v -49 -15 0
v -50 -15 0
v -50 -14 0
v -49 -14 0
v -48 -15 0
v -49 -15 0
v -49 -14 0
v -48 -14 0
v -34 -15 0
v -35 -15 0
v -35 -14 0
v -34 -14 0
v -33 -15 0
v -34 -15 0
v -34 -14 0
v -33 -14 0
v -32 -15 0
v -33 -15 0
v -33 -14 0
v -32 -14 0
v -34 -16 0
v -35 -16 0
v -35 -15 0
v -34 -15 0
v -36 -17 0
v -37 -17 0
v -37 -16 0
v -36 -16 0
v -54 -21 0
v -55 -21 0
v -55 -20 0
v -54 -20 0
v -53 -21 0
v -54 -21 0
v -54 -20 0
v -53 -20 0
v -52 -21 0
v -53 -21 0
v -53 -20 0
v -52 -20 0
v -24 -21 0
v -25 -21 0
v -25 -20 0
v -24 -20 0
v -23 -21 0
v -24 -21 0
v -24 -20 0
v -23 -20 0
v -22 -21 0
v -23 -21 0
v -23 -20 0
v -22 -20 0
v -52 -22 0
v -53 -22 0
v -53 -21 0
v -52 -21 0
v -25 -22 0
v -26 -22 0
v -26 -21 0
v -25 -21 0
v -24 -22 0
v -25 -22 0
v -25 -21 0
v -24 -21 0
v -23 -22 0
v -24 -22 0
v -24 -21 0
v -23 -21 0
v -52 -23 0
v -53 -23 0
v -53 -22 0
v -52 -22 0
v -23 -23 0
v -24 -23 0
v -24 -22 0
v -23 -22 0
v -22 -23 0
v -23 -23 0
v -23 -22 0
v -22 -22 0
v -21 -23 0
v -22 -23 0
v -22 -22 0
v -21 -22 0
v -5 -23 0
v -6 -23 0
v -6 -22 0
v -5 -22 0
v -52 -24 0
v -53 -24 0
v -53 -23 0
v -52 -23 0
v -26 -24 0
v -27 -24 0
v -27 -23 0
v -26 -23 0
v -25 -24 0
v -26 -24 0
v -26 -23 0
v -25 -23 0
v -24 -24 0
v -25 -24 0
v -25 -23 0
v -24 -23 0
v -23 -24 0
v -24 -24 0
v -24 -23 0
v -23 -23 0
v -22 -24 0
v -23 -24 0
v -23 -23 0
v -22 -23 0
v -7 -24 0
v -8 -24 0
v -8 -23 0
v -7 -23 0
v -6 -24 0
v -7 -24 0
v -7 -23 0
v -6 -23 0
v -52 -25 0
v -53 -25 0
v -53 -24 0
v -52 -24 0
v -40 -25 0
v -41 -25 0
v -41 -24 0
v -40 -24 0
v -39 -25 0
v -40 -25 0
v -40 -24 0
v -39 -24 0
v -38 -25 0
v -39 -25 0
v -39 -24 0
v -38 -24 0
v -37 -25 0
v -38 -25 0
v -38 -24 0
v -37 -24 0
v -36 -25 0
v -37 -25 0
v -37 -24 0
v -36 -24 0
v -35 -25 0
v -36 -25 0
v -36 -24 0
v -35 -24 0
v -34 -25 0
v -35 -25 0
v -35 -24 0
v -34 -24 0
v -33 -25 0
v -34 -25 0
v -34 -24 0
v -33 -24 0
v -29 -25 0
v -30 -25 0
v -30 -24 0
v -29 -24 0
v -26 -25 0
v -27 -25 0
v -27 -24 0
v -26 -24 0
v -25 -25 0
v -26 -25 0
v -26 -24 0
v -25 -24 0
v -54 -26 0
v -55 -26 0
v -55 -25 0
v -54 -25 0
v -53 -26 0
v -54 -26 0
v -54 -25 0
v -53 -25 0
v -52 -26 0
v -53 -26 0
v -53 -25 0
v -52 -25 0
v -41 -26 0
v -42 -26 0
v -42 -25 0
v -41 -25 0
v -40 -26 0
v -41 -26 0
v -41 -25 0
v -40 -25 0
v -29 -26 0
v -30 -26 0
v -30 -25 0
v -29 -25 0
v -27 -26 0
v -28 -26 0
v -28 -25 0
v -27 -25 0
v -26 -26 0
v -27 -26 0
v -27 -25 0
v -26 -25 0
v -24 -26 0
v -25 -26 0
v -25 -25 0
v -24 -25 0
v -23 -26 0
v -24 -26 0
v -24 -25 0
v -23 -25 0
v -22 -26 0
v -23 -26 0
v -23 -25 0
v -22 -25 0
v -21 -26 0
v -22 -26 0
v -22 -25 0
v -21 -25 0
v -52 -27 0
v -53 -27 0
v -53 -26 0
v -52 -26 0
v -42 -27 0
v -43 -27 0
v -43 -26 0
v -42 -26 0
v -41 -27 0
v -42 -27 0
v -42 -26 0
v -41 -26 0
v -29 -27 0
v -30 -27 0
v -30 -26 0
v -29 -26 0
v -27 -27 0
v -28 -27 0
v -28 -26 0
v -27 -26 0
v -26 -27 0
v -27 -27 0
v -27 -26 0
v -26 -26 0
v -24 -27 0
v -25 -27 0
v -25 -26 0
v -24 -26 0
v -23 -27 0
v -24 -27 0
v -24 -26 0
v -23 -26 0
v -22 -27 0
v -23 -27 0
v -23 -26 0
v -22 -26 0
v -21 -27 0
v -22 -27 0
v -22 -26 0
v -21 -26 0
v -52 -28 0
v -53 -28 0
v -53 -27 0
v -52 -27 0
v -42 -28 0
v -43 -28 0
v -43 -27 0
v -42 -27 0
v -29 -28 0
v -30 -28 0
v -30 -27 0
v -29 -27 0
v -25 -28 0
v -26 -28 0
v -26 -27 0
v -25 -27 0
v -24 -28 0
v -25 -28 0
v -25 -27 0
v -24 -27 0
v 0 -28 0
v -1 -28 0
v -1 -27 0
v 0 -27 0
v -52 -29 0
v -53 -29 0
v -53 -28 0
v -52 -28 0
v -42 -29 0
v -43 -29 0
v -43 -28 0
v -42 -28 0
v -29 -29 0
v -30 -29 0
v -30 -28 0
v -29 -28 0
v -25 -29 0
v -26 -29 0
v -26 -28 0
v -25 -28 0
v -24 -29 0
v -25 -29 0
v -25 -28 0
v -24 -28 0
v 0 -29 0
v -1 -29 0
v -1 -28 0
v 0 -28 0
v -54 -30 0
v -55 -30 0
v -55 -29 0
v -54 -29 0
v -52 -30 0
v -53 -30 0
v -53 -29 0
v -52 -29 0
v -42 -30 0
v -43 -30 0
v -43 -29 0
v -42 -29 0
v -29 -30 0
v -30 -30 0
v -30 -29 0
v -29 -29 0
v 0 -30 0
v -1 -30 0
v -1 -29 0
v 0 -29 0
v -54 -31 0
v -55 -31 0
v -55 -30 0
v -54 -30 0
v -52 -31 0
v -53 -31 0
v -53 -30 0
v -52 -30 0
v -42 -31 0
v -43 -31 0
v -43 -30 0
v -42 -30 0
v -29 -31 0
v -30 -31 0
v -30 -30 0
v -29 -30 0
v 0 -31 0
v -1 -31 0
v -1 -30 0
v 0 -30 0
v -52 -32 0
v -53 -32 0
v -53 -31 0
v -52 -31 0
v -42 -32 0
v -43 -32 0
v -43 -31 0
v -42 -31 0
v -29 -32 0
v -30 -32 0
v -30 -31 0
v -29 -31 0
v 0 -32 0
v -1 -32 0
v -1 -31 0
v 0 -31 0
v -52 -33 0
v -53 -33 0
v -53 -32 0
v -52 -32 0
v -42 -33 0
v -43 -33 0
v -43 -32 0
v -42 -32 0
v -29 -33 0
v -30 -33 0
v -30 -32 0
v -29 -32 0
v 0 -33 0
v -1 -33 0
v -1 -32 0
v 0 -32 0
v -52 -34 0
v -53 -34 0
v -53 -33 0
v -52 -33 0
v -29 -34 0
v -30 -34 0
v -30 -33 0
v -29 -33 0
v 0 -34 0
v -1 -34 0
v -1 -33 0
v 0 -33 0
v -52 -35 0
v -53 -35 0
v -53 -34 0
v -52 -34 0
v -31 -35 0
v -32 -35 0
v -32 -34 0
v -31 -34 0
v -30 -35 0
v -31 -35 0
v -31 -34 0
v -30 -34 0
v -29 -35 0
v -30 -35 0
v -30 -34 0
v -29 -34 0
v -52 -36 0
v -53 -36 0
v -53 -35 0
v -52 -35 0
v -42 -36 0
v -43 -36 0
v -43 -35 0
v -42 -35 0
v -31 -36 0
v -32 -36 0
v -32 -35 0
v -31 -35 0
v -29 -36 0
v -30 -36 0
v -30 -35 0
v -29 -35 0
v -54 -37 0
v -55 -37 0
v -55 -36 0
v -54 -36 0
v -53 -37 0
v -54 -37 0
v -54 -36 0
v -53 -36 0
v -52 -37 0
v -53 -37 0
v -53 -36 0
v -52 -36 0
v -42 -37 0
v -43 -37 0
v -43 -36 0
v -42 -36 0
v -33 -37 0
v -34 -37 0
v -34 -36 0
v -33 -36 0
v -31 -37 0
v -32 -37 0
v -32 -36 0
v -31 -36 0
v -29 -37 0
v -30 -37 0
v -30 -36 0
v -29 -36 0
v -54 -38 0
v -55 -38 0
v -55 -37 0
v -54 -37 0
v -53 -38 0
v -54 -38 0
v -54 -37 0
v -53 -37 0
v -52 -38 0
v -53 -38 0
v -53 -37 0
v -52 -37 0
v -50 -38 0
v -51 -38 0
v -51 -37 0
v -50 -37 0
v -49 -38 0
v -50 -38 0
v -50 -37 0
v -49 -37 0
v -48 -38 0
v -49 -38 0
v -49 -37 0
v -48 -37 0
v -47 -38 0
v -48 -38 0
v -48 -37 0
v -47 -37 0
v -46 -38 0
v -47 -38 0
v -47 -37 0
v -46 -37 0
v -45 -38 0
v -46 -38 0
v -46 -37 0
v -45 -37 0
v -44 -38 0
v -45 -38 0
v -45 -37 0
v -44 -37 0
v -42 -38 0
v -43 -38 0
v -43 -37 0
v -42 -37 0
v -41 -38 0
v -42 -38 0
v -42 -37 0
v -41 -37 0
v -40 -38 0
v -41 -38 0
v -41 -37 0
v -40 -37 0
v -39 -38 0
v -40 -38 0
v -40 -37 0
v -39 -37 0
v -38 -38 0
v -39 -38 0
v -39 -37 0
v -38 -37 0
v -37 -38 0
v -38 -38 0
v -38 -37 0
v -37 -37 0
v -36 -38 0
v -37 -38 0
v -37 -37 0
v -36 -37 0
v -35 -38 0
v -36 -38 0
v -36 -37 0
v -35 -37 0
v -34 -38 0
v -35 -38 0
v -35 -37 0
v -34 -37 0
v -33 -38 0
v -34 -38 0
v -34 -37 0
v -33 -37 0
v -32 -38 0
v -33 -38 0
v -33 -37 0
v -32 -37 0
v -31 -38 0
v -32 -38 0
v -32 -37 0
v -31 -37 0
v -30 -38 0
v -31 -38 0
v -31 -37 0
v -30 -37 0
v -29 -38 0
v -30 -38 0
v -30 -37 0
v -29 -37 0
v -27 -38 0
v -28 -38 0
v -28 -37 0
v -27 -37 0
v -26 -38 0
v -27 -38 0
v -27 -37 0
v -26 -37 0
v -25 -38 0
v -26 -38 0
v -26 -37 0
v -25 -37 0
v -24 -38 0
v -25 -38 0
v -25 -37 0
v -24 -37 0
v -23 -38 0
v -24 -38 0
v -24 -37 0
v -23 -37 0
v -22 -38 0
v -23 -38 0
v -23 -37 0
v -22 -37 0
v -21 -38 0
v -22 -38 0
v -22 -37 0
v -21 -37 0
v -20 -38 0
v -21 -38 0
v -21 -37 0
v -20 -37 0
v -18 -38 0
v -19 -38 0
v -19 -37 0
v -18 -37 0
v -17 -38 0
v -18 -38 0
v -18 -37 0
v -17 -37 0
v -16 -38 0
v -17 -38 0
v -17 -37 0
v -16 -37 0
v -15 -38 0
v -16 -38 0
v -16 -37 0
v -15 -37 0
v -5 -38 0
v -6 -38 0
v -6 -37 0
v -5 -37 0
v -4 -38 0
v -5 -38 0
v -5 -37 0
v -4 -37 0
v -3 -38 0
v -4 -38 0
v -4 -37 0
v -3 -37 0
v -2 -38 0
v -3 -38 0
v -3 -37 0
v -2 -37 0

# Texture cooridinates (Count = 100)
vt 0.04173455 0.5834554
vt 0.06229666 0.5834554
vt 0.06229666 0.610989
vt 0.04173455 0.610989
vt 0.02092831 0.5001221
vt 0.04149041 0.5001221
vt 0.04149041 0.5276557
vt 0.02092831 0.5276557
vt 0.04173455 0.5001221
vt 0.06229666 0.5001221
vt 0.06229666 0.5276557
vt 0.04173455 0.5276557
vt 0.1041533 0.8334554
vt 0.1247154 0.8334554
vt 0.1247154 0.860989
vt 0.1041533 0.860989
vt 0.08334704 0.8334554
vt 0.1039091 0.8334554
vt 0.1039091 0.860989
vt 0.08334704 0.860989
vt 0.0625408 0.8334554
vt 0.0831029 0.8334554
vt 0.0831029 0.860989
vt 0.0625408 0.860989
vt 0.02092831 0.4723443
vt 0.04149041 0.4723443
vt 0.04149041 0.4998779
vt 0.02092831 0.4998779
vt 0.6659218 0.889011
vt 0.6864839 0.889011
vt 0.6864839 0.9165446
vt 0.6659218 0.9165446
vt 0.6451156 0.889011
vt 0.6656777 0.889011
vt 0.6656777 0.9165446
vt 0.6451156 0.9165446
vt 0.0625408 0.5001221
vt 0.0831029 0.5001221
vt 0.0831029 0.5276557
vt 0.0625408 0.5276557
vt 0.6659218 0.8612332
vt 0.6864839 0.8612332
vt 0.6864839 0.8887668
vt 0.6659218 0.8887668
vt 0.6451156 0.8612332
vt 0.6656777 0.8612332
vt 0.6656777 0.8887668
vt 0.6451156 0.8887668
vt 0.1249595 0.5001221
vt 0.1455216 0.5001221
vt 0.1455216 0.5276557
vt 0.1249595 0.5276557
vt 0.1041533 0.5001221
vt 0.1247154 0.5001221
vt 0.1247154 0.5276557
vt 0.1041533 0.5276557
vt 0.04173455 0.4723443
vt 0.06229666 0.4723443
vt 0.06229666 0.4998779
vt 0.04173455 0.4998779
vt 0.0001220703 0.4723443
vt 0.02068417 0.4723443
vt 0.02068417 0.4998779
vt 0.0001220703 0.4998779
vt 0.0625408 0.6667887
vt 0.0831029 0.6667887
vt 0.0831029 0.6943223
vt 0.0625408 0.6943223
vt 0.0001220703 0.5001221
vt 0.02068417 0.5001221
vt 0.02068417 0.5276557
vt 0.0001220703 0.5276557
vt 0.04173455 0.05567765
vt 0.06229666 0.05567765
vt 0.06229666 0.08321124
vt 0.04173455 0.08321124
vt 0.02092831 0.05567765
vt 0.04149041 0.05567765
vt 0.04149041 0.08321124
vt 0.02092831 0.08321124
vt 0.0001220703 0.05567765
vt 0.02068417 0.05567765
vt 0.02068417 0.08321124
vt 0.0001220703 0.08321124
vt 0.04173455 0.02789986
vt 0.06229666 0.02789986
vt 0.06229666 0.05543351
vt 0.04173455 0.05543351
vt 0.02092831 0.02789986
vt 0.04149041 0.02789986
vt 0.04149041 0.05543351
vt 0.02092831 0.05543351
vt 0.0001220703 0.02789986
vt 0.02068417 0.02789986
vt 0.02068417 0.05543351
vt 0.0001220703 0.05543351
vt 0.0625408 0.4723443
vt 0.0831029 0.4723443
vt 0.0831029 0.4998779
vt 0.0625408 0.4998779

# Normal
vn 0 0 -1

# Mesh description
g MitsubishiMotors_mesh_0003

# Faces
f 1/1/1 2/2/1 3/3/1 4/4/1
f 5/1/1 6/2/1 7/3/1 8/4/1
f 9/1/1 10/2/1 11/3/1 12/4/1
f 13/1/1 14/2/1 15/3/1 16/4/1
f 17/1/1 18/2/1 19/3/1 20/4/1
f 21/1/1 22/2/1 23/3/1 24/4/1
f 25/1/1 26/2/1 27/3/1 28/4/1
f 29/1/1 30/2/1 31/3/1 32/4/1
f 33/1/1 34/2/1 35/3/1 36/4/1
f 37/1/1 38/2/1 39/3/1 40/4/1
f 41/1/1 42/2/1 43/3/1 44/4/1
f 45/1/1 46/2/1 47/3/1 48/4/1
f 49/1/1 50/2/1 51/3/1 52/4/1
f 53/1/1 54/2/1 55/3/1 56/4/1
f 57/1/1 58/2/1 59/3/1 60/4/1
f 61/1/1 62/2/1 63/3/1 64/4/1
f 65/1/1 66/2/1 67/3/1 68/4/1
f 69/1/1 70/2/1 71/3/1 72/4/1
f 73/1/1 74/2/1 75/3/1 76/4/1
f 77/1/1 78/2/1 79/3/1 80/4/1
f 81/1/1 82/2/1 83/3/1 84/4/1
f 85/1/1 86/2/1 87/3/1 88/4/1
f 89/1/1 90/2/1 91/3/1 92/4/1
f 93/1/1 94/2/1 95/3/1 96/4/1
f 97/1/1 98/2/1 99/3/1 100/4/1
f 101/1/1 102/2/1 103/3/1 104/4/1
f 105/1/1 106/2/1 107/3/1 108/4/1
f 109/1/1 110/2/1 111/3/1 112/4/1
f 113/1/1 114/2/1 115/3/1 116/4/1
f 117/1/1 118/2/1 119/3/1 120/4/1
f 121/1/1 122/2/1 123/3/1 124/4/1
f 125/1/1 126/2/1 127/3/1 128/4/1
f 129/1/1 130/2/1 131/3/1 132/4/1
f 133/1/1 134/2/1 135/3/1 136/4/1
f 137/1/1 138/2/1 139/3/1 140/4/1
f 141/1/1 142/2/1 143/3/1 144/4/1
f 145/1/1 146/2/1 147/3/1 148/4/1
f 149/1/1 150/2/1 151/3/1 152/4/1
f 153/1/1 154/2/1 155/3/1 156/4/1
f 157/1/1 158/2/1 159/3/1 160/4/1
f 161/1/1 162/2/1 163/3/1 164/4/1
f 165/1/1 166/2/1 167/3/1 168/4/1
f 169/1/1 170/2/1 171/3/1 172/4/1
f 173/1/1 174/2/1 175/3/1 176/4/1
f 177/1/1 178/2/1 179/3/1 180/4/1
f 181/1/1 182/2/1 183/3/1 184/4/1
f 185/1/1 186/2/1 187/3/1 188/4/1
f 189/1/1 190/2/1 191/3/1 192/4/1
f 193/1/1 194/2/1 195/3/1 196/4/1
f 197/5/1 198/6/1 199/7/1 200/8/1
f 201/5/1 202/6/1 203/7/1 204/8/1
f 205/9/1 206/10/1 207/11/1 208/12/1
f 209/13/1 210/14/1 211/15/1 212/16/1
f 213/17/1 214/18/1 215/19/1 216/20/1
f 217/21/1 218/22/1 219/23/1 220/24/1
f 221/25/1 222/26/1 223/27/1 224/28/1
f 225/13/1 226/14/1 227/15/1 228/16/1
f 229/17/1 230/18/1 231/19/1 232/20/1
f 233/21/1 234/22/1 235/23/1 236/24/1
f 237/25/1 238/26/1 239/27/1 240/28/1
f 241/13/1 242/14/1 243/15/1 244/16/1
f 245/17/1 246/18/1 247/19/1 248/20/1
f 249/21/1 250/22/1 251/23/1 252/24/1
f 253/1/1 254/2/1 255/3/1 256/4/1
f 257/25/1 258/26/1 259/27/1 260/28/1
f 261/29/1 262/30/1 263/31/1 264/32/1
f 265/33/1 266/34/1 267/35/1 268/36/1
f 269/13/1 270/14/1 271/15/1 272/16/1
f 273/17/1 274/18/1 275/19/1 276/20/1
f 277/21/1 278/22/1 279/23/1 280/24/1
f 281/1/1 282/2/1 283/3/1 284/4/1
f 285/1/1 286/2/1 287/3/1 288/4/1
f 289/25/1 290/26/1 291/27/1 292/28/1
f 293/37/1 294/38/1 295/39/1 296/40/1
f 297/5/1 298/6/1 299/7/1 300/8/1
f 301/5/1 302/6/1 303/7/1 304/8/1
f 305/5/1 306/6/1 307/7/1 308/8/1
f 309/5/1 310/6/1 311/7/1 312/8/1
f 313/5/1 314/6/1 315/7/1 316/8/1
f 317/5/1 318/6/1 319/7/1 320/8/1
f 321/5/1 322/6/1 323/7/1 324/8/1
f 325/9/1 326/10/1 327/11/1 328/12/1
f 329/41/1 330/42/1 331/43/1 332/44/1
f 333/45/1 334/46/1 335/47/1 336/48/1
f 337/49/1 338/50/1 339/51/1 340/52/1
f 341/53/1 342/54/1 343/55/1 344/56/1
f 345/25/1 346/26/1 347/27/1 348/28/1
f 349/37/1 350/38/1 351/39/1 352/40/1
f 353/57/1 354/58/1 355/59/1 356/60/1
f 357/25/1 358/26/1 359/27/1 360/28/1
f 361/29/1 362/30/1 363/31/1 364/32/1
f 365/33/1 366/34/1 367/35/1 368/36/1
f 369/29/1 370/30/1 371/31/1 372/32/1
f 373/33/1 374/34/1 375/35/1 376/36/1
f 377/29/1 378/30/1 379/31/1 380/32/1
f 381/33/1 382/34/1 383/35/1 384/36/1
f 385/25/1 386/26/1 387/27/1 388/28/1
f 389/37/1 390/38/1 391/39/1 392/40/1
f 393/57/1 394/58/1 395/59/1 396/60/1
f 397/25/1 398/26/1 399/27/1 400/28/1
f 401/41/1 402/42/1 403/43/1 404/44/1
f 405/45/1 406/46/1 407/47/1 408/48/1
f 409/41/1 410/42/1 411/43/1 412/44/1
f 413/45/1 414/46/1 415/47/1 416/48/1
f 417/41/1 418/42/1 419/43/1 420/44/1
f 421/45/1 422/46/1 423/47/1 424/48/1
f 425/25/1 426/26/1 427/27/1 428/28/1
f 429/25/1 430/26/1 431/27/1 432/28/1
f 433/25/1 434/26/1 435/27/1 436/28/1
f 437/29/1 438/30/1 439/31/1 440/32/1
f 441/33/1 442/34/1 443/35/1 444/36/1
f 445/1/1 446/2/1 447/3/1 448/4/1
f 449/25/1 450/26/1 451/27/1 452/28/1
f 453/25/1 454/26/1 455/27/1 456/28/1
f 457/25/1 458/26/1 459/27/1 460/28/1
f 461/41/1 462/42/1 463/43/1 464/44/1
f 465/45/1 466/46/1 467/47/1 468/48/1
f 469/1/1 470/2/1 471/3/1 472/4/1
f 473/1/1 474/2/1 475/3/1 476/4/1
f 477/25/1 478/26/1 479/27/1 480/28/1
f 481/25/1 482/26/1 483/27/1 484/28/1
f 485/25/1 486/26/1 487/27/1 488/28/1
f 489/1/1 490/2/1 491/3/1 492/4/1
f 493/1/1 494/2/1 495/3/1 496/4/1
f 497/25/1 498/26/1 499/27/1 500/28/1
f 501/25/1 502/26/1 503/27/1 504/28/1
f 505/25/1 506/26/1 507/27/1 508/28/1
f 509/1/1 510/2/1 511/3/1 512/4/1
f 513/25/1 514/26/1 515/27/1 516/28/1
f 517/25/1 518/26/1 519/27/1 520/28/1
f 521/25/1 522/26/1 523/27/1 524/28/1
f 525/1/1 526/2/1 527/3/1 528/4/1
f 529/25/1 530/26/1 531/27/1 532/28/1
f 533/61/1 534/62/1 535/63/1 536/64/1
f 537/25/1 538/26/1 539/27/1 540/28/1
f 541/1/1 542/2/1 543/3/1 544/4/1
f 545/25/1 546/26/1 547/27/1 548/28/1
f 549/25/1 550/26/1 551/27/1 552/28/1
f 553/1/1 554/2/1 555/3/1 556/4/1
f 557/25/1 558/26/1 559/27/1 560/28/1
f 561/65/1 562/66/1 563/67/1 564/68/1
f 565/65/1 566/66/1 567/67/1 568/68/1
f 569/25/1 570/26/1 571/27/1 572/28/1
f 573/57/1 574/58/1 575/59/1 576/60/1
f 577/69/1 578/70/1 579/71/1 580/72/1
f 581/65/1 582/66/1 583/67/1 584/68/1
f 585/25/1 586/26/1 587/27/1 588/28/1
f 589/73/1 590/74/1 591/75/1 592/76/1
f 593/77/1 594/78/1 595/79/1 596/80/1
f 597/81/1 598/82/1 599/83/1 600/84/1
f 601/25/1 602/26/1 603/27/1 604/28/1
f 605/65/1 606/66/1 607/67/1 608/68/1
f 609/65/1 610/66/1 611/67/1 612/68/1
f 613/25/1 614/26/1 615/27/1 616/28/1
f 617/85/1 618/86/1 619/87/1 620/88/1
f 621/89/1 622/90/1 623/91/1 624/92/1
f 625/93/1 626/94/1 627/95/1 628/96/1
f 629/1/1 630/2/1 631/3/1 632/4/1
f 633/1/1 634/2/1 635/3/1 636/4/1
f 637/1/1 638/2/1 639/3/1 640/4/1
f 641/1/1 642/2/1 643/3/1 644/4/1
f 645/1/1 646/2/1 647/3/1 648/4/1
f 649/1/1 650/2/1 651/3/1 652/4/1
f 653/1/1 654/2/1 655/3/1 656/4/1
f 657/97/1 658/98/1 659/99/1 660/100/1
f 661/5/1 662/6/1 663/7/1 664/8/1
f 665/5/1 666/6/1 667/7/1 668/8/1
f 669/5/1 670/6/1 671/7/1 672/8/1
f 673/5/1 674/6/1 675/7/1 676/8/1
f 677/5/1 678/6/1 679/7/1 680/8/1
f 681/5/1 682/6/1 683/7/1 684/8/1
f 685/5/1 686/6/1 687/7/1 688/8/1
f 689/5/1 690/6/1 691/7/1 692/8/1
f 693/5/1 694/6/1 695/7/1 696/8/1
f 697/5/1 698/6/1 699/7/1 700/8/1
f 701/5/1 702/6/1 703/7/1 704/8/1
f 705/5/1 706/6/1 707/7/1 708/8/1
f 709/57/1 710/58/1 711/59/1 712/60/1
f 713/1/1 714/2/1 715/3/1 716/4/1
f 717/1/1 718/2/1 719/3/1 720/4/1
f 721/1/1 722/2/1 723/3/1 724/4/1
f 725/1/1 726/2/1 727/3/1 728/4/1
f 729/1/1 730/2/1 731/3/1 732/4/1
f 733/1/1 734/2/1 735/3/1 736/4/1
f 737/1/1 738/2/1 739/3/1 740/4/1
f 741/1/1 742/2/1 743/3/1 744/4/1
f 745/1/1 746/2/1 747/3/1 748/4/1
f 749/1/1 750/2/1 751/3/1 752/4/1
f 753/1/1 754/2/1 755/3/1 756/4/1
f 757/1/1 758/2/1 759/3/1 760/4/1
f 761/1/1 762/2/1 763/3/1 764/4/1
f 765/1/1 766/2/1 767/3/1 768/4/1
f 769/1/1 770/2/1 771/3/1 772/4/1
f 773/1/1 774/2/1 775/3/1 776/4/1

