# Tiled2Unity generated file. Do not modify by hand.
# Wavefront file for 'MitsubishiMotors_mesh_0002.obj'

# Vertices (Count = 576)
v -54 -1 0
v -55 -1 0
v -55 0 0
v -54 0 0
v -53 -1 0
v -54 -1 0
v -54 0 0
v -53 0 0
v -52 -1 0
v -53 -1 0
v -53 0 0
v -52 0 0
v -49 -1 0
v -50 -1 0
v -50 0 0
v -49 0 0
v -48 -1 0
v -49 -1 0
v -49 0 0
v -48 0 0
v -47 -1 0
v -48 -1 0
v -48 0 0
v -47 0 0
v -46 -1 0
v -47 -1 0
v -47 0 0
v -46 0 0
v -40 -1 0
v -41 -1 0
v -41 0 0
v -40 0 0
v -39 -1 0
v -40 -1 0
v -40 0 0
v -39 0 0
v -38 -1 0
v -39 -1 0
v -39 0 0
v -38 0 0
v -37 -1 0
v -38 -1 0
v -38 0 0
v -37 0 0
v -11 -1 0
v -12 -1 0
v -12 0 0
v -11 0 0
v -10 -1 0
v -11 -1 0
v -11 0 0
v -10 0 0
v -54 -2 0
v -55 -2 0
v -55 -1 0
v -54 -1 0
v -53 -2 0
v -54 -2 0
v -54 -1 0
v -53 -1 0
v -52 -2 0
v -53 -2 0
v -53 -1 0
v -52 -1 0
v -54 -3 0
v -55 -3 0
v -55 -2 0
v -54 -2 0
v -32 -3 0
v -33 -3 0
v -33 -2 0
v -32 -2 0
v -29 -3 0
v -30 -3 0
v -30 -2 0
v -29 -2 0
v 0 -3 0
v -1 -3 0
v -1 -2 0
v 0 -2 0
v -54 -4 0
v -55 -4 0
v -55 -3 0
v -54 -3 0
v -27 -4 0
v -28 -4 0
v -28 -3 0
v -27 -3 0
v -24 -4 0
v -25 -4 0
v -25 -3 0
v -24 -3 0
v 0 -4 0
v -1 -4 0
v -1 -3 0
v 0 -3 0
v -54 -5 0
v -55 -5 0
v -55 -4 0
v -54 -4 0
v -53 -5 0
v -54 -5 0
v -54 -4 0
v -53 -4 0
v 0 -5 0
v -1 -5 0
v -1 -4 0
v 0 -4 0
v -54 -6 0
v -55 -6 0
v -55 -5 0
v -54 -5 0
v -53 -6 0
v -54 -6 0
v -54 -5 0
v -53 -5 0
v -44 -6 0
v -45 -6 0
v -45 -5 0
v -44 -5 0
v 0 -6 0
v -1 -6 0
v -1 -5 0
v 0 -5 0
v -54 -7 0
v -55 -7 0
v -55 -6 0
v -54 -6 0
v -53 -7 0
v -54 -7 0
v -54 -6 0
v -53 -6 0
v -44 -7 0
v -45 -7 0
v -45 -6 0
v -44 -6 0
v -43 -7 0
v -44 -7 0
v -44 -6 0
v -43 -6 0
v -42 -7 0
v -43 -7 0
v -43 -6 0
v -42 -6 0
v -41 -7 0
v -42 -7 0
v -42 -6 0
v -41 -6 0
v -38 -7 0
v -39 -7 0
v -39 -6 0
v -38 -6 0
v -37 -7 0
v -38 -7 0
v -38 -6 0
v -37 -6 0
v -36 -7 0
v -37 -7 0
v -37 -6 0
v -36 -6 0
v -35 -7 0
v -36 -7 0
v -36 -6 0
v -35 -6 0
v -32 -7 0
v -33 -7 0
v -33 -6 0
v -32 -6 0
v -31 -7 0
v -32 -7 0
v -32 -6 0
v -31 -6 0
v -30 -7 0
v -31 -7 0
v -31 -6 0
v -30 -6 0
v -29 -7 0
v -30 -7 0
v -30 -6 0
v -29 -6 0
v 0 -7 0
v -1 -7 0
v -1 -6 0
v 0 -6 0
v -54 -8 0
v -55 -8 0
v -55 -7 0
v -54 -7 0
v 0 -8 0
v -1 -8 0
v -1 -7 0
v 0 -7 0
v -54 -9 0
v -55 -9 0
v -55 -8 0
v -54 -8 0
v -49 -9 0
v -50 -9 0
v -50 -8 0
v -49 -8 0
v -48 -9 0
v -49 -9 0
v -49 -8 0
v -48 -8 0
v -47 -9 0
v -48 -9 0
v -48 -8 0
v -47 -8 0
v -46 -9 0
v -47 -9 0
v -47 -8 0
v -46 -8 0
v -24 -9 0
v -25 -9 0
v -25 -8 0
v -24 -8 0
v -23 -9 0
v -24 -9 0
v -24 -8 0
v -23 -8 0
v -13 -9 0
v -14 -9 0
v -14 -8 0
v -13 -8 0
v -12 -9 0
v -13 -9 0
v -13 -8 0
v -12 -8 0
v -11 -9 0
v -12 -9 0
v -12 -8 0
v -11 -8 0
v -10 -9 0
v -11 -9 0
v -11 -8 0
v -10 -8 0
v 0 -9 0
v -1 -9 0
v -1 -8 0
v 0 -8 0
v -54 -10 0
v -55 -10 0
v -55 -9 0
v -54 -9 0
v -24 -10 0
v -25 -10 0
v -25 -9 0
v -24 -9 0
v 0 -10 0
v -1 -10 0
v -1 -9 0
v 0 -9 0
v -54 -11 0
v -55 -11 0
v -55 -10 0
v -54 -10 0
v -34 -11 0
v -35 -11 0
v -35 -10 0
v -34 -10 0
v -33 -11 0
v -34 -11 0
v -34 -10 0
v -33 -10 0
v -32 -11 0
v -33 -11 0
v -33 -10 0
v -32 -10 0
v -31 -11 0
v -32 -11 0
v -32 -10 0
v -31 -10 0
v -24 -11 0
v -25 -11 0
v -25 -10 0
v -24 -10 0
v 0 -11 0
v -1 -11 0
v -1 -10 0
v 0 -10 0
v -54 -12 0
v -55 -12 0
v -55 -11 0
v -54 -11 0
v -24 -12 0
v -25 -12 0
v -25 -11 0
v -24 -11 0
v 0 -12 0
v -1 -12 0
v -1 -11 0
v 0 -11 0
v -54 -13 0
v -55 -13 0
v -55 -12 0
v -54 -12 0
v -13 -13 0
v -14 -13 0
v -14 -12 0
v -13 -12 0
v -12 -13 0
v -13 -13 0
v -13 -12 0
v -12 -12 0
v -11 -13 0
v -12 -13 0
v -12 -12 0
v -11 -12 0
v -10 -13 0
v -11 -13 0
v -11 -12 0
v -10 -12 0
v 0 -13 0
v -1 -13 0
v -1 -12 0
v 0 -12 0
v -54 -14 0
v -55 -14 0
v -55 -13 0
v -54 -13 0
v 0 -14 0
v -1 -14 0
v -1 -13 0
v 0 -13 0
v -54 -15 0
v -55 -15 0
v -55 -14 0
v -54 -14 0
v 0 -15 0
v -1 -15 0
v -1 -14 0
v 0 -14 0
v -54 -16 0
v -55 -16 0
v -55 -15 0
v -54 -15 0
v 0 -16 0
v -1 -16 0
v -1 -15 0
v 0 -15 0
v -54 -17 0
v -55 -17 0
v -55 -16 0
v -54 -16 0
v -31 -17 0
v -32 -17 0
v -32 -16 0
v -31 -16 0
v -13 -17 0
v -14 -17 0
v -14 -16 0
v -13 -16 0
v -12 -17 0
v -13 -17 0
v -13 -16 0
v -12 -16 0
v -11 -17 0
v -12 -17 0
v -12 -16 0
v -11 -16 0
v -10 -17 0
v -11 -17 0
v -11 -16 0
v -10 -16 0
v 0 -17 0
v -1 -17 0
v -1 -16 0
v 0 -16 0
v -54 -18 0
v -55 -18 0
v -55 -17 0
v -54 -17 0
v -31 -18 0
v -32 -18 0
v -32 -17 0
v -31 -17 0
v 0 -18 0
v -1 -18 0
v -1 -17 0
v 0 -17 0
v -54 -19 0
v -55 -19 0
v -55 -18 0
v -54 -18 0
v -49 -19 0
v -50 -19 0
v -50 -18 0
v -49 -18 0
v -48 -19 0
v -49 -19 0
v -49 -18 0
v -48 -18 0
v -47 -19 0
v -48 -19 0
v -48 -18 0
v -47 -18 0
v -46 -19 0
v -47 -19 0
v -47 -18 0
v -46 -18 0
v -32 -19 0
v -33 -19 0
v -33 -18 0
v -32 -18 0
v -31 -19 0
v -32 -19 0
v -32 -18 0
v -31 -18 0
v 0 -19 0
v -1 -19 0
v -1 -18 0
v 0 -18 0
v -54 -20 0
v -55 -20 0
v -55 -19 0
v -54 -19 0
v -31 -20 0
v -32 -20 0
v -32 -19 0
v -31 -19 0
v -30 -20 0
v -31 -20 0
v -31 -19 0
v -30 -19 0
v 0 -20 0
v -1 -20 0
v -1 -19 0
v 0 -19 0
v -54 -21 0
v -55 -21 0
v -55 -20 0
v -54 -20 0
v -31 -21 0
v -32 -21 0
v -32 -20 0
v -31 -20 0
v -13 -21 0
v -14 -21 0
v -14 -20 0
v -13 -20 0
v -12 -21 0
v -13 -21 0
v -13 -20 0
v -12 -20 0
v -11 -21 0
v -12 -21 0
v -12 -20 0
v -11 -20 0
v -10 -21 0
v -11 -21 0
v -11 -20 0
v -10 -20 0
v 0 -21 0
v -1 -21 0
v -1 -20 0
v 0 -20 0
v 0 -22 0
v -1 -22 0
v -1 -21 0
v 0 -21 0
v 0 -23 0
v -1 -23 0
v -1 -22 0
v 0 -22 0
v 0 -24 0
v -1 -24 0
v -1 -23 0
v 0 -23 0
v -13 -25 0
v -14 -25 0
v -14 -24 0
v -13 -24 0
v -12 -25 0
v -13 -25 0
v -13 -24 0
v -12 -24 0
v -11 -25 0
v -12 -25 0
v -12 -24 0
v -11 -24 0
v -10 -25 0
v -11 -25 0
v -11 -24 0
v -10 -24 0
v 0 -25 0
v -1 -25 0
v -1 -24 0
v 0 -24 0
v 0 -26 0
v -1 -26 0
v -1 -25 0
v 0 -25 0
v 0 -27 0
v -1 -27 0
v -1 -26 0
v 0 -26 0
v -25 -31 0
v -26 -31 0
v -26 -30 0
v -25 -30 0
v -47 -32 0
v -48 -32 0
v -48 -31 0
v -47 -31 0
v -46 -32 0
v -47 -32 0
v -47 -31 0
v -46 -31 0
v -45 -32 0
v -46 -32 0
v -46 -31 0
v -45 -31 0
v -44 -32 0
v -45 -32 0
v -45 -31 0
v -44 -31 0
v -25 -32 0
v -26 -32 0
v -26 -31 0
v -25 -31 0
v -24 -32 0
v -25 -32 0
v -25 -31 0
v -24 -31 0
v -23 -32 0
v -24 -32 0
v -24 -31 0
v -23 -31 0
v -22 -32 0
v -23 -32 0
v -23 -31 0
v -22 -31 0
v -18 -32 0
v -19 -32 0
v -19 -31 0
v -18 -31 0
v -17 -32 0
v -18 -32 0
v -18 -31 0
v -17 -31 0
v -16 -32 0
v -17 -32 0
v -17 -31 0
v -16 -31 0
v -15 -32 0
v -16 -32 0
v -16 -31 0
v -15 -31 0
v -13 -32 0
v -14 -32 0
v -14 -31 0
v -13 -31 0
v -24 -33 0
v -25 -33 0
v -25 -32 0
v -24 -32 0
v -23 -33 0
v -24 -33 0
v -24 -32 0
v -23 -32 0
v -14 -33 0
v -15 -33 0
v -15 -32 0
v -14 -32 0
v -13 -33 0
v -14 -33 0
v -14 -32 0
v -13 -32 0
v -15 -34 0
v -16 -34 0
v -16 -33 0
v -15 -33 0
v -14 -34 0
v -15 -34 0
v -15 -33 0
v -14 -33 0

# Texture cooridinates (Count = 84)
vt 0.04173455 0.02789986
vt 0.06229666 0.02789986
vt 0.06229666 0.05543351
vt 0.04173455 0.05543351
vt 0.02092831 0.02789986
vt 0.04149041 0.02789986
vt 0.04149041 0.05543351
vt 0.02092831 0.05543351
vt 0.0001220703 0.02789986
vt 0.02068417 0.02789986
vt 0.02068417 0.05543351
vt 0.0001220703 0.05543351
vt 0.0625408 0.0001220703
vt 0.0831029 0.0001220703
vt 0.0831029 0.02765572
vt 0.0625408 0.02765572
vt 0.04173455 0.0001220703
vt 0.06229666 0.0001220703
vt 0.06229666 0.02765572
vt 0.04173455 0.02765572
vt 0.02092831 0.0001220703
vt 0.04149041 0.0001220703
vt 0.04149041 0.02765572
vt 0.02092831 0.02765572
vt 0.0001220703 0.0001220703
vt 0.02068417 0.0001220703
vt 0.02068417 0.02765572
vt 0.0001220703 0.02765572
vt 0.04173455 0.5834554
vt 0.06229666 0.5834554
vt 0.06229666 0.610989
vt 0.04173455 0.610989
vt 0.1457658 0.9723443
vt 0.1663279 0.9723443
vt 0.1663279 0.9998779
vt 0.1457658 0.9998779
vt 0.0001220703 0.5834554
vt 0.02068417 0.5834554
vt 0.02068417 0.610989
vt 0.0001220703 0.610989
vt 0.0625408 0.6667887
vt 0.0831029 0.6667887
vt 0.0831029 0.6943223
vt 0.0625408 0.6943223
vt 0.0625408 0.5834554
vt 0.0831029 0.5834554
vt 0.0831029 0.610989
vt 0.0625408 0.610989
vt 0.3538282 0.1112332
vt 0.3743903 0.1112332
vt 0.3743903 0.1387668
vt 0.3538282 0.1387668
vt 0.3538282 0.08345538
vt 0.3743903 0.08345538
vt 0.3743903 0.110989
vt 0.3538282 0.110989
vt 0.3330219 0.08345538
vt 0.3535841 0.08345538
vt 0.3535841 0.110989
vt 0.3330219 0.110989
vt 0.3122157 0.08345538
vt 0.3327778 0.08345538
vt 0.3327778 0.110989
vt 0.3122157 0.110989
vt 0.2914095 0.08345538
vt 0.3119715 0.08345538
vt 0.3119715 0.110989
vt 0.2914095 0.110989
vt 0.0001220703 0.5556777
vt 0.02068417 0.5556777
vt 0.02068417 0.5832113
vt 0.0001220703 0.5832113
vt 0.04173455 0.5001221
vt 0.06229666 0.5001221
vt 0.06229666 0.5276557
vt 0.04173455 0.5276557
vt 0.02092831 0.4723443
vt 0.04149041 0.4723443
vt 0.04149041 0.4998779
vt 0.02092831 0.4998779
vt 0.0625408 0.4723443
vt 0.0831029 0.4723443
vt 0.0831029 0.4998779
vt 0.0625408 0.4998779

# Normal
vn 0 0 -1

# Mesh description
g MitsubishiMotors_mesh_0002

# Faces
f 1/1/1 2/2/1 3/3/1 4/4/1
f 5/5/1 6/6/1 7/7/1 8/8/1
f 9/9/1 10/10/1 11/11/1 12/12/1
f 13/13/1 14/14/1 15/15/1 16/16/1
f 17/17/1 18/18/1 19/19/1 20/20/1
f 21/21/1 22/22/1 23/23/1 24/24/1
f 25/25/1 26/26/1 27/27/1 28/28/1
f 29/21/1 30/22/1 31/23/1 32/24/1
f 33/25/1 34/26/1 35/27/1 36/28/1
f 37/17/1 38/18/1 39/19/1 40/20/1
f 41/21/1 42/22/1 43/23/1 44/24/1
f 45/29/1 46/30/1 47/31/1 48/32/1
f 49/29/1 50/30/1 51/31/1 52/32/1
f 53/17/1 54/18/1 55/19/1 56/20/1
f 57/21/1 58/22/1 59/23/1 60/24/1
f 61/25/1 62/26/1 63/27/1 64/28/1
f 65/29/1 66/30/1 67/31/1 68/32/1
f 69/13/1 70/14/1 71/15/1 72/16/1
f 73/25/1 74/26/1 75/27/1 76/28/1
f 77/33/1 78/34/1 79/35/1 80/36/1
f 81/29/1 82/30/1 83/31/1 84/32/1
f 85/13/1 86/14/1 87/15/1 88/16/1
f 89/25/1 90/26/1 91/27/1 92/28/1
f 93/37/1 94/38/1 95/39/1 96/40/1
f 97/29/1 98/30/1 99/31/1 100/32/1
f 101/41/1 102/42/1 103/43/1 104/44/1
f 105/45/1 106/46/1 107/47/1 108/48/1
f 109/29/1 110/30/1 111/31/1 112/32/1
f 113/41/1 114/42/1 115/43/1 116/44/1
f 117/49/1 118/50/1 119/51/1 120/52/1
f 121/45/1 122/46/1 123/47/1 124/48/1
f 125/29/1 126/30/1 127/31/1 128/32/1
f 129/41/1 130/42/1 131/43/1 132/44/1
f 133/53/1 134/54/1 135/55/1 136/56/1
f 137/57/1 138/58/1 139/59/1 140/60/1
f 141/61/1 142/62/1 143/63/1 144/64/1
f 145/65/1 146/66/1 147/67/1 148/68/1
f 149/53/1 150/54/1 151/55/1 152/56/1
f 153/57/1 154/58/1 155/59/1 156/60/1
f 157/61/1 158/62/1 159/63/1 160/64/1
f 161/65/1 162/66/1 163/67/1 164/68/1
f 165/13/1 166/14/1 167/15/1 168/16/1
f 169/17/1 170/18/1 171/19/1 172/20/1
f 173/21/1 174/22/1 175/23/1 176/24/1
f 177/25/1 178/26/1 179/27/1 180/28/1
f 181/45/1 182/46/1 183/47/1 184/48/1
f 185/29/1 186/30/1 187/31/1 188/32/1
f 189/69/1 190/70/1 191/71/1 192/72/1
f 193/29/1 194/30/1 195/31/1 196/32/1
f 197/53/1 198/54/1 199/55/1 200/56/1
f 201/57/1 202/58/1 203/59/1 204/60/1
f 205/61/1 206/62/1 207/63/1 208/64/1
f 209/65/1 210/66/1 211/67/1 212/68/1
f 213/29/1 214/30/1 215/31/1 216/32/1
f 217/29/1 218/30/1 219/31/1 220/32/1
f 221/53/1 222/54/1 223/55/1 224/56/1
f 225/57/1 226/58/1 227/59/1 228/60/1
f 229/61/1 230/62/1 231/63/1 232/64/1
f 233/65/1 234/66/1 235/67/1 236/68/1
f 237/33/1 238/34/1 239/35/1 240/36/1
f 241/29/1 242/30/1 243/31/1 244/32/1
f 245/29/1 246/30/1 247/31/1 248/32/1
f 249/33/1 250/34/1 251/35/1 252/36/1
f 253/29/1 254/30/1 255/31/1 256/32/1
f 257/53/1 258/54/1 259/55/1 260/56/1
f 261/57/1 262/58/1 263/59/1 264/60/1
f 265/61/1 266/62/1 267/63/1 268/64/1
f 269/65/1 270/66/1 271/67/1 272/68/1
f 273/29/1 274/30/1 275/31/1 276/32/1
f 277/37/1 278/38/1 279/39/1 280/40/1
f 281/29/1 282/30/1 283/31/1 284/32/1
f 285/29/1 286/30/1 287/31/1 288/32/1
f 289/45/1 290/46/1 291/47/1 292/48/1
f 293/29/1 294/30/1 295/31/1 296/32/1
f 297/53/1 298/54/1 299/55/1 300/56/1
f 301/57/1 302/58/1 303/59/1 304/60/1
f 305/61/1 306/62/1 307/63/1 308/64/1
f 309/65/1 310/66/1 311/67/1 312/68/1
f 313/45/1 314/46/1 315/47/1 316/48/1
f 317/29/1 318/30/1 319/31/1 320/32/1
f 321/45/1 322/46/1 323/47/1 324/48/1
f 325/73/1 326/74/1 327/75/1 328/76/1
f 329/45/1 330/46/1 331/47/1 332/48/1
f 333/77/1 334/78/1 335/79/1 336/80/1
f 337/45/1 338/46/1 339/47/1 340/48/1
f 341/77/1 342/78/1 343/79/1 344/80/1
f 345/41/1 346/42/1 347/43/1 348/44/1
f 349/53/1 350/54/1 351/55/1 352/56/1
f 353/57/1 354/58/1 355/59/1 356/60/1
f 357/61/1 358/62/1 359/63/1 360/64/1
f 361/65/1 362/66/1 363/67/1 364/68/1
f 365/45/1 366/46/1 367/47/1 368/48/1
f 369/77/1 370/78/1 371/79/1 372/80/1
f 373/41/1 374/42/1 375/43/1 376/44/1
f 377/45/1 378/46/1 379/47/1 380/48/1
f 381/77/1 382/78/1 383/79/1 384/80/1
f 385/53/1 386/54/1 387/55/1 388/56/1
f 389/57/1 390/58/1 391/59/1 392/60/1
f 393/61/1 394/62/1 395/63/1 396/64/1
f 397/65/1 398/66/1 399/67/1 400/68/1
f 401/41/1 402/42/1 403/43/1 404/44/1
f 405/41/1 406/42/1 407/43/1 408/44/1
f 409/45/1 410/46/1 411/47/1 412/48/1
f 413/77/1 414/78/1 415/79/1 416/80/1
f 417/41/1 418/42/1 419/43/1 420/44/1
f 421/41/1 422/42/1 423/43/1 424/44/1
f 425/45/1 426/46/1 427/47/1 428/48/1
f 429/81/1 430/82/1 431/83/1 432/84/1
f 433/41/1 434/42/1 435/43/1 436/44/1
f 437/53/1 438/54/1 439/55/1 440/56/1
f 441/57/1 442/58/1 443/59/1 444/60/1
f 445/61/1 446/62/1 447/63/1 448/64/1
f 449/65/1 450/66/1 451/67/1 452/68/1
f 453/45/1 454/46/1 455/47/1 456/48/1
f 457/45/1 458/46/1 459/47/1 460/48/1
f 461/45/1 462/46/1 463/47/1 464/48/1
f 465/45/1 466/46/1 467/47/1 468/48/1
f 469/53/1 470/54/1 471/55/1 472/56/1
f 473/57/1 474/58/1 475/59/1 476/60/1
f 477/61/1 478/62/1 479/63/1 480/64/1
f 481/65/1 482/66/1 483/67/1 484/68/1
f 485/69/1 486/70/1 487/71/1 488/72/1
f 489/33/1 490/34/1 491/35/1 492/36/1
f 493/33/1 494/34/1 495/35/1 496/36/1
f 497/29/1 498/30/1 499/31/1 500/32/1
f 501/13/1 502/14/1 503/15/1 504/16/1
f 505/17/1 506/18/1 507/19/1 508/20/1
f 509/21/1 510/22/1 511/23/1 512/24/1
f 513/25/1 514/26/1 515/27/1 516/28/1
f 517/29/1 518/30/1 519/31/1 520/32/1
f 521/29/1 522/30/1 523/31/1 524/32/1
f 525/29/1 526/30/1 527/31/1 528/32/1
f 529/29/1 530/30/1 531/31/1 532/32/1
f 533/13/1 534/14/1 535/15/1 536/16/1
f 537/17/1 538/18/1 539/19/1 540/20/1
f 541/21/1 542/22/1 543/23/1 544/24/1
f 545/25/1 546/26/1 547/27/1 548/28/1
f 549/29/1 550/30/1 551/31/1 552/32/1
f 553/29/1 554/30/1 555/31/1 556/32/1
f 557/29/1 558/30/1 559/31/1 560/32/1
f 561/29/1 562/30/1 563/31/1 564/32/1
f 565/29/1 566/30/1 567/31/1 568/32/1
f 569/29/1 570/30/1 571/31/1 572/32/1
f 573/29/1 574/30/1 575/31/1 576/32/1

