# Tiled2Unity generated file. Do not modify by hand.
# Wavefront file for 'ampayon_mesh_0003.obj'

# Vertices (Count = 912)
v -43 -1 0
v -44 -1 0
v -44 0 0
v -43 0 0
v -42 -1 0
v -43 -1 0
v -43 0 0
v -42 0 0
v -31 -1 0
v -32 -1 0
v -32 0 0
v -31 0 0
v -30 -1 0
v -31 -1 0
v -31 0 0
v -30 0 0
v -25 -1 0
v -26 -1 0
v -26 0 0
v -25 0 0
v -24 -1 0
v -25 -1 0
v -25 0 0
v -24 0 0
v -21 -1 0
v -22 -1 0
v -22 0 0
v -21 0 0
v -20 -1 0
v -21 -1 0
v -21 0 0
v -20 0 0
v -18 -1 0
v -19 -1 0
v -19 0 0
v -18 0 0
v -17 -1 0
v -18 -1 0
v -18 0 0
v -17 0 0
v -14 -1 0
v -15 -1 0
v -15 0 0
v -14 0 0
v -13 -1 0
v -14 -1 0
v -14 0 0
v -13 0 0
v -12 -1 0
v -13 -1 0
v -13 0 0
v -12 0 0
v -7 -1 0
v -8 -1 0
v -8 0 0
v -7 0 0
v -6 -1 0
v -7 -1 0
v -7 0 0
v -6 0 0
v -5 -1 0
v -6 -1 0
v -6 0 0
v -5 0 0
v -45 -2 0
v -46 -2 0
v -46 -1 0
v -45 -1 0
v -44 -2 0
v -45 -2 0
v -45 -1 0
v -44 -1 0
v -43 -2 0
v -44 -2 0
v -44 -1 0
v -43 -1 0
v -33 -2 0
v -34 -2 0
v -34 -1 0
v -33 -1 0
v -32 -2 0
v -33 -2 0
v -33 -1 0
v -32 -1 0
v -31 -2 0
v -32 -2 0
v -32 -1 0
v -31 -1 0
v -24 -2 0
v -25 -2 0
v -25 -1 0
v -24 -1 0
v -23 -2 0
v -24 -2 0
v -24 -1 0
v -23 -1 0
v -21 -2 0
v -22 -2 0
v -22 -1 0
v -21 -1 0
v -20 -2 0
v -21 -2 0
v -21 -1 0
v -20 -1 0
v -18 -2 0
v -19 -2 0
v -19 -1 0
v -18 -1 0
v -17 -2 0
v -18 -2 0
v -18 -1 0
v -17 -1 0
v -9 -2 0
v -10 -2 0
v -10 -1 0
v -9 -1 0
v -8 -2 0
v -9 -2 0
v -9 -1 0
v -8 -1 0
v -45 -3 0
v -46 -3 0
v -46 -2 0
v -45 -2 0
v -44 -3 0
v -45 -3 0
v -45 -2 0
v -44 -2 0
v -33 -3 0
v -34 -3 0
v -34 -2 0
v -33 -2 0
v -32 -3 0
v -33 -3 0
v -33 -2 0
v -32 -2 0
v -31 -3 0
v -32 -3 0
v -32 -2 0
v -31 -2 0
v -23 -3 0
v -24 -3 0
v -24 -2 0
v -23 -2 0
v -22 -3 0
v -23 -3 0
v -23 -2 0
v -22 -2 0
v -21 -3 0
v -22 -3 0
v -22 -2 0
v -21 -2 0
v -19 -3 0
v -20 -3 0
v -20 -2 0
v -19 -2 0
v -18 -3 0
v -19 -3 0
v -19 -2 0
v -18 -2 0
v -13 -3 0
v -14 -3 0
v -14 -2 0
v -13 -2 0
v -12 -3 0
v -13 -3 0
v -13 -2 0
v -12 -2 0
v -9 -3 0
v -10 -3 0
v -10 -2 0
v -9 -2 0
v -8 -3 0
v -9 -3 0
v -9 -2 0
v -8 -2 0
v -49 -4 0
v -50 -4 0
v -50 -3 0
v -49 -3 0
v -47 -4 0
v -48 -4 0
v -48 -3 0
v -47 -3 0
v -46 -4 0
v -47 -4 0
v -47 -3 0
v -46 -3 0
v -21 -4 0
v -22 -4 0
v -22 -3 0
v -21 -3 0
v -19 -4 0
v -20 -4 0
v -20 -3 0
v -19 -3 0
v -18 -4 0
v -19 -4 0
v -19 -3 0
v -18 -3 0
v -14 -4 0
v -15 -4 0
v -15 -3 0
v -14 -3 0
v -13 -4 0
v -14 -4 0
v -14 -3 0
v -13 -3 0
v -12 -4 0
v -13 -4 0
v -13 -3 0
v -12 -3 0
v -49 -5 0
v -50 -5 0
v -50 -4 0
v -49 -4 0
v -48 -5 0
v -49 -5 0
v -49 -4 0
v -48 -4 0
v -47 -5 0
v -48 -5 0
v -48 -4 0
v -47 -4 0
v -46 -5 0
v -47 -5 0
v -47 -4 0
v -46 -4 0
v -11 -5 0
v -12 -5 0
v -12 -4 0
v -11 -4 0
v -48 -6 0
v -49 -6 0
v -49 -5 0
v -48 -5 0
v -2 -6 0
v -3 -6 0
v -3 -5 0
v -2 -5 0
v -48 -7 0
v -49 -7 0
v -49 -6 0
v -48 -6 0
v -47 -7 0
v -48 -7 0
v -48 -6 0
v -47 -6 0
v -2 -7 0
v -3 -7 0
v -3 -6 0
v -2 -6 0
v -48 -8 0
v -49 -8 0
v -49 -7 0
v -48 -7 0
v -47 -8 0
v -48 -8 0
v -48 -7 0
v -47 -7 0
v -3 -8 0
v -4 -8 0
v -4 -7 0
v -3 -7 0
v -2 -8 0
v -3 -8 0
v -3 -7 0
v -2 -7 0
v -1 -8 0
v -2 -8 0
v -2 -7 0
v -1 -7 0
v -48 -9 0
v -49 -9 0
v -49 -8 0
v -48 -8 0
v -47 -9 0
v -48 -9 0
v -48 -8 0
v -47 -8 0
v -27 -9 0
v -28 -9 0
v -28 -8 0
v -27 -8 0
v -26 -9 0
v -27 -9 0
v -27 -8 0
v -26 -8 0
v -3 -9 0
v -4 -9 0
v -4 -8 0
v -3 -8 0
v -2 -9 0
v -3 -9 0
v -3 -8 0
v -2 -8 0
v -1 -9 0
v -2 -9 0
v -2 -8 0
v -1 -8 0
v -49 -10 0
v -50 -10 0
v -50 -9 0
v -49 -9 0
v -48 -10 0
v -49 -10 0
v -49 -9 0
v -48 -9 0
v -27 -10 0
v -28 -10 0
v -28 -9 0
v -27 -9 0
v -26 -10 0
v -27 -10 0
v -27 -9 0
v -26 -9 0
v -1 -10 0
v -2 -10 0
v -2 -9 0
v -1 -9 0
v -48 -11 0
v -49 -11 0
v -49 -10 0
v -48 -10 0
v -47 -11 0
v -48 -11 0
v -48 -10 0
v -47 -10 0
v -48 -12 0
v -49 -12 0
v -49 -11 0
v -48 -11 0
v -47 -12 0
v -48 -12 0
v -48 -11 0
v -47 -11 0
v -46 -12 0
v -47 -12 0
v -47 -11 0
v -46 -11 0
v -45 -12 0
v -46 -12 0
v -46 -11 0
v -45 -11 0
v -49 -13 0
v -50 -13 0
v -50 -12 0
v -49 -12 0
v -48 -13 0
v -49 -13 0
v -49 -12 0
v -48 -12 0
v -46 -13 0
v -47 -13 0
v -47 -12 0
v -46 -12 0
v -45 -13 0
v -46 -13 0
v -46 -12 0
v -45 -12 0
v -49 -14 0
v -50 -14 0
v -50 -13 0
v -49 -13 0
v -48 -14 0
v -49 -14 0
v -49 -13 0
v -48 -13 0
v -22 -14 0
v -23 -14 0
v -23 -13 0
v -22 -13 0
v -21 -14 0
v -22 -14 0
v -22 -13 0
v -21 -13 0
v -22 -15 0
v -23 -15 0
v -23 -14 0
v -22 -14 0
v -21 -15 0
v -22 -15 0
v -22 -14 0
v -21 -14 0
v -49 -16 0
v -50 -16 0
v -50 -15 0
v -49 -15 0
v -48 -16 0
v -49 -16 0
v -49 -15 0
v -48 -15 0
v -49 -17 0
v -50 -17 0
v -50 -16 0
v -49 -16 0
v -48 -17 0
v -49 -17 0
v -49 -16 0
v -48 -16 0
v -47 -17 0
v -48 -17 0
v -48 -16 0
v -47 -16 0
v -49 -18 0
v -50 -18 0
v -50 -17 0
v -49 -17 0
v -49 -19 0
v -50 -19 0
v -50 -18 0
v -49 -18 0
v -48 -19 0
v -49 -19 0
v -49 -18 0
v -48 -18 0
v -49 -20 0
v -50 -20 0
v -50 -19 0
v -49 -19 0
v -41 -22 0
v -42 -22 0
v -42 -21 0
v -41 -21 0
v -40 -22 0
v -41 -22 0
v -41 -21 0
v -40 -21 0
v -41 -23 0
v -42 -23 0
v -42 -22 0
v -41 -22 0
v -40 -23 0
v -41 -23 0
v -41 -22 0
v -40 -22 0
v -1 -24 0
v -2 -24 0
v -2 -23 0
v -1 -23 0
v -2 -25 0
v -3 -25 0
v -3 -24 0
v -2 -24 0
v -1 -25 0
v -2 -25 0
v -2 -24 0
v -1 -24 0
v 0 -25 0
v -1 -25 0
v -1 -24 0
v 0 -24 0
v 0 -26 0
v -1 -26 0
v -1 -25 0
v 0 -25 0
v -37 -29 0
v -38 -29 0
v -38 -28 0
v -37 -28 0
v -36 -29 0
v -37 -29 0
v -37 -28 0
v -36 -28 0
v -5 -29 0
v -6 -29 0
v -6 -28 0
v -5 -28 0
v -3 -29 0
v -4 -29 0
v -4 -28 0
v -3 -28 0
v -2 -29 0
v -3 -29 0
v -3 -28 0
v -2 -28 0
v -1 -29 0
v -2 -29 0
v -2 -28 0
v -1 -28 0
v -37 -30 0
v -38 -30 0
v -38 -29 0
v -37 -29 0
v -36 -30 0
v -37 -30 0
v -37 -29 0
v -36 -29 0
v -22 -30 0
v -23 -30 0
v -23 -29 0
v -22 -29 0
v -21 -30 0
v -22 -30 0
v -22 -29 0
v -21 -29 0
v -6 -30 0
v -7 -30 0
v -7 -29 0
v -6 -29 0
v -5 -30 0
v -6 -30 0
v -6 -29 0
v -5 -29 0
v -33 -31 0
v -34 -31 0
v -34 -30 0
v -33 -30 0
v -22 -31 0
v -23 -31 0
v -23 -30 0
v -22 -30 0
v -21 -31 0
v -22 -31 0
v -22 -30 0
v -21 -30 0
v -6 -31 0
v -7 -31 0
v -7 -30 0
v -6 -30 0
v -33 -32 0
v -34 -32 0
v -34 -31 0
v -33 -31 0
v -32 -32 0
v -33 -32 0
v -33 -31 0
v -32 -31 0
v -23 -32 0
v -24 -32 0
v -24 -31 0
v -23 -31 0
v -22 -32 0
v -23 -32 0
v -23 -31 0
v -22 -31 0
v -33 -33 0
v -34 -33 0
v -34 -32 0
v -33 -32 0
v -23 -33 0
v -24 -33 0
v -24 -32 0
v -23 -32 0
v -22 -33 0
v -23 -33 0
v -23 -32 0
v -22 -32 0
v -17 -33 0
v -18 -33 0
v -18 -32 0
v -17 -32 0
v -16 -33 0
v -17 -33 0
v -17 -32 0
v -16 -32 0
v -6 -33 0
v -7 -33 0
v -7 -32 0
v -6 -32 0
v -5 -33 0
v -6 -33 0
v -6 -32 0
v -5 -32 0
v -4 -33 0
v -5 -33 0
v -5 -32 0
v -4 -32 0
v -18 -34 0
v -19 -34 0
v -19 -33 0
v -18 -33 0
v -17 -34 0
v -18 -34 0
v -18 -33 0
v -17 -33 0
v -16 -34 0
v -17 -34 0
v -17 -33 0
v -16 -33 0
v -6 -34 0
v -7 -34 0
v -7 -33 0
v -6 -33 0
v -4 -34 0
v -5 -34 0
v -5 -33 0
v -4 -33 0
v -19 -35 0
v -20 -35 0
v -20 -34 0
v -19 -34 0
v -18 -35 0
v -19 -35 0
v -19 -34 0
v -18 -34 0
v -15 -35 0
v -16 -35 0
v -16 -34 0
v -15 -34 0
v -4 -35 0
v -5 -35 0
v -5 -34 0
v -4 -34 0
v -20 -36 0
v -21 -36 0
v -21 -35 0
v -20 -35 0
v -19 -36 0
v -20 -36 0
v -20 -35 0
v -19 -35 0
v -48 -37 0
v -49 -37 0
v -49 -36 0
v -48 -36 0
v -47 -37 0
v -48 -37 0
v -48 -36 0
v -47 -36 0
v -39 -37 0
v -40 -37 0
v -40 -36 0
v -39 -36 0
v -38 -37 0
v -39 -37 0
v -39 -36 0
v -38 -36 0
v -48 -38 0
v -49 -38 0
v -49 -37 0
v -48 -37 0
v -47 -38 0
v -48 -38 0
v -48 -37 0
v -47 -37 0
v -39 -38 0
v -40 -38 0
v -40 -37 0
v -39 -37 0
v -38 -38 0
v -39 -38 0
v -39 -37 0
v -38 -37 0
v -45 -39 0
v -46 -39 0
v -46 -38 0
v -45 -38 0
v -46 -40 0
v -47 -40 0
v -47 -39 0
v -46 -39 0
v -45 -40 0
v -46 -40 0
v -46 -39 0
v -45 -39 0
v -46 -41 0
v -47 -41 0
v -47 -40 0
v -46 -40 0
v -2 -41 0
v -3 -41 0
v -3 -40 0
v -2 -40 0
v -1 -41 0
v -2 -41 0
v -2 -40 0
v -1 -40 0
v -45 -42 0
v -46 -42 0
v -46 -41 0
v -45 -41 0
v -44 -42 0
v -45 -42 0
v -45 -41 0
v -44 -41 0
v -2 -42 0
v -3 -42 0
v -3 -41 0
v -2 -41 0
v -1 -42 0
v -2 -42 0
v -2 -41 0
v -1 -41 0
v -48 -44 0
v -49 -44 0
v -49 -43 0
v -48 -43 0
v -47 -44 0
v -48 -44 0
v -48 -43 0
v -47 -43 0
v -19 -44 0
v -20 -44 0
v -20 -43 0
v -19 -43 0
v -1 -44 0
v -2 -44 0
v -2 -43 0
v -1 -43 0
v -48 -45 0
v -49 -45 0
v -49 -44 0
v -48 -44 0
v -47 -45 0
v -48 -45 0
v -48 -44 0
v -47 -44 0
v -41 -45 0
v -42 -45 0
v -42 -44 0
v -41 -44 0
v -40 -45 0
v -41 -45 0
v -41 -44 0
v -40 -44 0
v -19 -45 0
v -20 -45 0
v -20 -44 0
v -19 -44 0
v -18 -45 0
v -19 -45 0
v -19 -44 0
v -18 -44 0
v -48 -46 0
v -49 -46 0
v -49 -45 0
v -48 -45 0
v -40 -46 0
v -41 -46 0
v -41 -45 0
v -40 -45 0
v -18 -46 0
v -19 -46 0
v -19 -45 0
v -18 -45 0
v -48 -47 0
v -49 -47 0
v -49 -46 0
v -48 -46 0
v -42 -47 0
v -43 -47 0
v -43 -46 0
v -42 -46 0
v -41 -47 0
v -42 -47 0
v -42 -46 0
v -41 -46 0
v -40 -47 0
v -41 -47 0
v -41 -46 0
v -40 -46 0
v -15 -47 0
v -16 -47 0
v -16 -46 0
v -15 -46 0
v -14 -47 0
v -15 -47 0
v -15 -46 0
v -14 -46 0
v -2 -47 0
v -3 -47 0
v -3 -46 0
v -2 -46 0
v 0 -47 0
v -1 -47 0
v -1 -46 0
v 0 -46 0
v -42 -48 0
v -43 -48 0
v -43 -47 0
v -42 -47 0
v -41 -48 0
v -42 -48 0
v -42 -47 0
v -41 -47 0
v -40 -48 0
v -41 -48 0
v -41 -47 0
v -40 -47 0
v -36 -48 0
v -37 -48 0
v -37 -47 0
v -36 -47 0
v -35 -48 0
v -36 -48 0
v -36 -47 0
v -35 -47 0
v -29 -48 0
v -30 -48 0
v -30 -47 0
v -29 -47 0
v -15 -48 0
v -16 -48 0
v -16 -47 0
v -15 -47 0
v -14 -48 0
v -15 -48 0
v -15 -47 0
v -14 -47 0
v -13 -48 0
v -14 -48 0
v -14 -47 0
v -13 -47 0
v -3 -48 0
v -4 -48 0
v -4 -47 0
v -3 -47 0
v -2 -48 0
v -3 -48 0
v -3 -47 0
v -2 -47 0
v -40 -49 0
v -41 -49 0
v -41 -48 0
v -40 -48 0
v -39 -49 0
v -40 -49 0
v -40 -48 0
v -39 -48 0
v -36 -49 0
v -37 -49 0
v -37 -48 0
v -36 -48 0
v -35 -49 0
v -36 -49 0
v -36 -48 0
v -35 -48 0
v -34 -49 0
v -35 -49 0
v -35 -48 0
v -34 -48 0
v -33 -49 0
v -34 -49 0
v -34 -48 0
v -33 -48 0
v -30 -49 0
v -31 -49 0
v -31 -48 0
v -30 -48 0
v -29 -49 0
v -30 -49 0
v -30 -48 0
v -29 -48 0
v -28 -49 0
v -29 -49 0
v -29 -48 0
v -28 -48 0
v -14 -49 0
v -15 -49 0
v -15 -48 0
v -14 -48 0
v -13 -49 0
v -14 -49 0
v -14 -48 0
v -13 -48 0
v -12 -49 0
v -13 -49 0
v -13 -48 0
v -12 -48 0
v -11 -49 0
v -12 -49 0
v -12 -48 0
v -11 -48 0
v -4 -49 0
v -5 -49 0
v -5 -48 0
v -4 -48 0
v -3 -49 0
v -4 -49 0
v -4 -48 0
v -3 -48 0
v -38 -50 0
v -39 -50 0
v -39 -49 0
v -38 -49 0
v -35 -50 0
v -36 -50 0
v -36 -49 0
v -35 -49 0
v -34 -50 0
v -35 -50 0
v -35 -49 0
v -34 -49 0
v -28 -50 0
v -29 -50 0
v -29 -49 0
v -28 -49 0
v -18 -50 0
v -19 -50 0
v -19 -49 0
v -18 -49 0
v -17 -50 0
v -18 -50 0
v -18 -49 0
v -17 -49 0
v -16 -50 0
v -17 -50 0
v -17 -49 0
v -16 -49 0
v -12 -50 0
v -13 -50 0
v -13 -49 0
v -12 -49 0
v -5 -50 0
v -6 -50 0
v -6 -49 0
v -5 -49 0
v -4 -50 0
v -5 -50 0
v -5 -49 0
v -4 -49 0

# Texture cooridinates (Count = 64)
vt 0.04173455 0.5834554
vt 0.06229666 0.5834554
vt 0.06229666 0.610989
vt 0.04173455 0.610989
vt 0.1249595 0.5278999
vt 0.1455216 0.5278999
vt 0.1455216 0.5554335
vt 0.1249595 0.5554335
vt 0.1041533 0.5278999
vt 0.1247154 0.5278999
vt 0.1247154 0.5554335
vt 0.1041533 0.5554335
vt 0.0625408 0.5556777
vt 0.0831029 0.5556777
vt 0.0831029 0.5832113
vt 0.0625408 0.5832113
vt 0.04173455 0.5556777
vt 0.06229666 0.5556777
vt 0.06229666 0.5832113
vt 0.04173455 0.5832113
vt 0.02092831 0.5556777
vt 0.04149041 0.5556777
vt 0.04149041 0.5832113
vt 0.02092831 0.5832113
vt 0.1249595 0.5001221
vt 0.1455216 0.5001221
vt 0.1455216 0.5276557
vt 0.1249595 0.5276557
vt 0.1041533 0.5001221
vt 0.1247154 0.5001221
vt 0.1247154 0.5276557
vt 0.1041533 0.5276557
vt 0.2081845 0.6667887
vt 0.2287466 0.6667887
vt 0.2287466 0.6943223
vt 0.2081845 0.6943223
vt 0.1873782 0.6667887
vt 0.2079404 0.6667887
vt 0.2079404 0.6943223
vt 0.1873782 0.6943223
vt 0.2081845 0.639011
vt 0.2287466 0.639011
vt 0.2287466 0.6665446
vt 0.2081845 0.6665446
vt 0.1873782 0.639011
vt 0.2079404 0.639011
vt 0.2079404 0.6665446
vt 0.1873782 0.6665446
vt 0.1041533 0.9445665
vt 0.1247154 0.9445665
vt 0.1247154 0.9721001
vt 0.1041533 0.9721001
vt 0.08334704 0.9445665
vt 0.1039091 0.9445665
vt 0.1039091 0.9721001
vt 0.08334704 0.9721001
vt 0.1041533 0.9167888
vt 0.1247154 0.9167888
vt 0.1247154 0.9443223
vt 0.1041533 0.9443223
vt 0.08334704 0.9167888
vt 0.1039091 0.9167888
vt 0.1039091 0.9443223
vt 0.08334704 0.9443223

# Normal
vn 0 0 -1

# Mesh description
g ampayon_mesh_0003

# Faces
f 1/1/1 2/2/1 3/3/1 4/4/1
f 5/1/1 6/2/1 7/3/1 8/4/1
f 9/1/1 10/2/1 11/3/1 12/4/1
f 13/1/1 14/2/1 15/3/1 16/4/1
f 17/1/1 18/2/1 19/3/1 20/4/1
f 21/1/1 22/2/1 23/3/1 24/4/1
f 25/5/1 26/6/1 27/7/1 28/8/1
f 29/9/1 30/10/1 31/11/1 32/12/1
f 33/5/1 34/6/1 35/7/1 36/8/1
f 37/9/1 38/10/1 39/11/1 40/12/1
f 41/13/1 42/14/1 43/15/1 44/16/1
f 45/17/1 46/18/1 47/19/1 48/20/1
f 49/21/1 50/22/1 51/23/1 52/24/1
f 53/13/1 54/14/1 55/15/1 56/16/1
f 57/17/1 58/18/1 59/19/1 60/20/1
f 61/21/1 62/22/1 63/23/1 64/24/1
f 65/5/1 66/6/1 67/7/1 68/8/1
f 69/9/1 70/10/1 71/11/1 72/12/1
f 73/1/1 74/2/1 75/3/1 76/4/1
f 77/1/1 78/2/1 79/3/1 80/4/1
f 81/1/1 82/2/1 83/3/1 84/4/1
f 85/1/1 86/2/1 87/3/1 88/4/1
f 89/1/1 90/2/1 91/3/1 92/4/1
f 93/1/1 94/2/1 95/3/1 96/4/1
f 97/25/1 98/26/1 99/27/1 100/28/1
f 101/29/1 102/30/1 103/31/1 104/32/1
f 105/25/1 106/26/1 107/27/1 108/28/1
f 109/29/1 110/30/1 111/31/1 112/32/1
f 113/5/1 114/6/1 115/7/1 116/8/1
f 117/9/1 118/10/1 119/11/1 120/12/1
f 121/25/1 122/26/1 123/27/1 124/28/1
f 125/29/1 126/30/1 127/31/1 128/32/1
f 129/1/1 130/2/1 131/3/1 132/4/1
f 133/1/1 134/2/1 135/3/1 136/4/1
f 137/1/1 138/2/1 139/3/1 140/4/1
f 141/1/1 142/2/1 143/3/1 144/4/1
f 145/1/1 146/2/1 147/3/1 148/4/1
f 149/1/1 150/2/1 151/3/1 152/4/1
f 153/5/1 154/6/1 155/7/1 156/8/1
f 157/9/1 158/10/1 159/11/1 160/12/1
f 161/1/1 162/2/1 163/3/1 164/4/1
f 165/1/1 166/2/1 167/3/1 168/4/1
f 169/25/1 170/26/1 171/27/1 172/28/1
f 173/29/1 174/30/1 175/31/1 176/32/1
f 177/1/1 178/2/1 179/3/1 180/4/1
f 181/5/1 182/6/1 183/7/1 184/8/1
f 185/9/1 186/10/1 187/11/1 188/12/1
f 189/1/1 190/2/1 191/3/1 192/4/1
f 193/25/1 194/26/1 195/27/1 196/28/1
f 197/29/1 198/30/1 199/31/1 200/32/1
f 201/1/1 202/2/1 203/3/1 204/4/1
f 205/1/1 206/2/1 207/3/1 208/4/1
f 209/1/1 210/2/1 211/3/1 212/4/1
f 213/1/1 214/2/1 215/3/1 216/4/1
f 217/1/1 218/2/1 219/3/1 220/4/1
f 221/25/1 222/26/1 223/27/1 224/28/1
f 225/29/1 226/30/1 227/31/1 228/32/1
f 229/1/1 230/2/1 231/3/1 232/4/1
f 233/1/1 234/2/1 235/3/1 236/4/1
f 237/1/1 238/2/1 239/3/1 240/4/1
f 241/5/1 242/6/1 243/7/1 244/8/1
f 245/9/1 246/10/1 247/11/1 248/12/1
f 249/1/1 250/2/1 251/3/1 252/4/1
f 253/25/1 254/26/1 255/27/1 256/28/1
f 257/29/1 258/30/1 259/31/1 260/32/1
f 261/1/1 262/2/1 263/3/1 264/4/1
f 265/1/1 266/2/1 267/3/1 268/4/1
f 269/1/1 270/2/1 271/3/1 272/4/1
f 273/1/1 274/2/1 275/3/1 276/4/1
f 277/1/1 278/2/1 279/3/1 280/4/1
f 281/5/1 282/6/1 283/7/1 284/8/1
f 285/9/1 286/10/1 287/11/1 288/12/1
f 289/1/1 290/2/1 291/3/1 292/4/1
f 293/1/1 294/2/1 295/3/1 296/4/1
f 297/1/1 298/2/1 299/3/1 300/4/1
f 301/1/1 302/2/1 303/3/1 304/4/1
f 305/1/1 306/2/1 307/3/1 308/4/1
f 309/25/1 310/26/1 311/27/1 312/28/1
f 313/29/1 314/30/1 315/31/1 316/32/1
f 317/1/1 318/2/1 319/3/1 320/4/1
f 321/5/1 322/6/1 323/7/1 324/8/1
f 325/9/1 326/10/1 327/11/1 328/12/1
f 329/25/1 330/26/1 331/27/1 332/28/1
f 333/29/1 334/30/1 335/31/1 336/32/1
f 337/5/1 338/6/1 339/7/1 340/8/1
f 341/9/1 342/10/1 343/11/1 344/12/1
f 345/5/1 346/6/1 347/7/1 348/8/1
f 349/9/1 350/10/1 351/11/1 352/12/1
f 353/25/1 354/26/1 355/27/1 356/28/1
f 357/29/1 358/30/1 359/31/1 360/32/1
f 361/25/1 362/26/1 363/27/1 364/28/1
f 365/29/1 366/30/1 367/31/1 368/32/1
f 369/5/1 370/6/1 371/7/1 372/8/1
f 373/9/1 374/10/1 375/11/1 376/12/1
f 377/25/1 378/26/1 379/27/1 380/28/1
f 381/29/1 382/30/1 383/31/1 384/32/1
f 385/1/1 386/2/1 387/3/1 388/4/1
f 389/1/1 390/2/1 391/3/1 392/4/1
f 393/1/1 394/2/1 395/3/1 396/4/1
f 397/1/1 398/2/1 399/3/1 400/4/1
f 401/1/1 402/2/1 403/3/1 404/4/1
f 405/1/1 406/2/1 407/3/1 408/4/1
f 409/1/1 410/2/1 411/3/1 412/4/1
f 413/1/1 414/2/1 415/3/1 416/4/1
f 417/1/1 418/2/1 419/3/1 420/4/1
f 421/33/1 422/34/1 423/35/1 424/36/1
f 425/37/1 426/38/1 427/39/1 428/40/1
f 429/41/1 430/42/1 431/43/1 432/44/1
f 433/45/1 434/46/1 435/47/1 436/48/1
f 437/1/1 438/2/1 439/3/1 440/4/1
f 441/1/1 442/2/1 443/3/1 444/4/1
f 445/1/1 446/2/1 447/3/1 448/4/1
f 449/1/1 450/2/1 451/3/1 452/4/1
f 453/1/1 454/2/1 455/3/1 456/4/1
f 457/5/1 458/6/1 459/7/1 460/8/1
f 461/9/1 462/10/1 463/11/1 464/12/1
f 465/1/1 466/2/1 467/3/1 468/4/1
f 469/1/1 470/2/1 471/3/1 472/4/1
f 473/1/1 474/2/1 475/3/1 476/4/1
f 477/1/1 478/2/1 479/3/1 480/4/1
f 481/25/1 482/26/1 483/27/1 484/28/1
f 485/29/1 486/30/1 487/31/1 488/32/1
f 489/33/1 490/34/1 491/35/1 492/36/1
f 493/37/1 494/38/1 495/39/1 496/40/1
f 497/1/1 498/2/1 499/3/1 500/4/1
f 501/1/1 502/2/1 503/3/1 504/4/1
f 505/1/1 506/2/1 507/3/1 508/4/1
f 509/41/1 510/42/1 511/43/1 512/44/1
f 513/45/1 514/46/1 515/47/1 516/48/1
f 517/1/1 518/2/1 519/3/1 520/4/1
f 521/1/1 522/2/1 523/3/1 524/4/1
f 525/1/1 526/2/1 527/3/1 528/4/1
f 529/33/1 530/34/1 531/35/1 532/36/1
f 533/37/1 534/38/1 535/39/1 536/40/1
f 537/1/1 538/2/1 539/3/1 540/4/1
f 541/41/1 542/42/1 543/43/1 544/44/1
f 545/45/1 546/46/1 547/47/1 548/48/1
f 549/1/1 550/2/1 551/3/1 552/4/1
f 553/1/1 554/2/1 555/3/1 556/4/1
f 557/1/1 558/2/1 559/3/1 560/4/1
f 561/1/1 562/2/1 563/3/1 564/4/1
f 565/1/1 566/2/1 567/3/1 568/4/1
f 569/1/1 570/2/1 571/3/1 572/4/1
f 573/1/1 574/2/1 575/3/1 576/4/1
f 577/1/1 578/2/1 579/3/1 580/4/1
f 581/1/1 582/2/1 583/3/1 584/4/1
f 585/1/1 586/2/1 587/3/1 588/4/1
f 589/1/1 590/2/1 591/3/1 592/4/1
f 593/1/1 594/2/1 595/3/1 596/4/1
f 597/1/1 598/2/1 599/3/1 600/4/1
f 601/1/1 602/2/1 603/3/1 604/4/1
f 605/1/1 606/2/1 607/3/1 608/4/1
f 609/1/1 610/2/1 611/3/1 612/4/1
f 613/5/1 614/6/1 615/7/1 616/8/1
f 617/9/1 618/10/1 619/11/1 620/12/1
f 621/49/1 622/50/1 623/51/1 624/52/1
f 625/53/1 626/54/1 627/55/1 628/56/1
f 629/25/1 630/26/1 631/27/1 632/28/1
f 633/29/1 634/30/1 635/31/1 636/32/1
f 637/57/1 638/58/1 639/59/1 640/60/1
f 641/61/1 642/62/1 643/63/1 644/64/1
f 645/1/1 646/2/1 647/3/1 648/4/1
f 649/1/1 650/2/1 651/3/1 652/4/1
f 653/1/1 654/2/1 655/3/1 656/4/1
f 657/1/1 658/2/1 659/3/1 660/4/1
f 661/33/1 662/34/1 663/35/1 664/36/1
f 665/37/1 666/38/1 667/39/1 668/40/1
f 669/1/1 670/2/1 671/3/1 672/4/1
f 673/1/1 674/2/1 675/3/1 676/4/1
f 677/41/1 678/42/1 679/43/1 680/44/1
f 681/45/1 682/46/1 683/47/1 684/48/1
f 685/1/1 686/2/1 687/3/1 688/4/1
f 689/1/1 690/2/1 691/3/1 692/4/1
f 693/1/1 694/2/1 695/3/1 696/4/1
f 697/1/1 698/2/1 699/3/1 700/4/1
f 701/1/1 702/2/1 703/3/1 704/4/1
f 705/1/1 706/2/1 707/3/1 708/4/1
f 709/1/1 710/2/1 711/3/1 712/4/1
f 713/1/1 714/2/1 715/3/1 716/4/1
f 717/1/1 718/2/1 719/3/1 720/4/1
f 721/1/1 722/2/1 723/3/1 724/4/1
f 725/1/1 726/2/1 727/3/1 728/4/1
f 729/1/1 730/2/1 731/3/1 732/4/1
f 733/1/1 734/2/1 735/3/1 736/4/1
f 737/1/1 738/2/1 739/3/1 740/4/1
f 741/1/1 742/2/1 743/3/1 744/4/1
f 745/1/1 746/2/1 747/3/1 748/4/1
f 749/1/1 750/2/1 751/3/1 752/4/1
f 753/49/1 754/50/1 755/51/1 756/52/1
f 757/53/1 758/54/1 759/55/1 760/56/1
f 761/1/1 762/2/1 763/3/1 764/4/1
f 765/1/1 766/2/1 767/3/1 768/4/1
f 769/1/1 770/2/1 771/3/1 772/4/1
f 773/1/1 774/2/1 775/3/1 776/4/1
f 777/1/1 778/2/1 779/3/1 780/4/1
f 781/33/1 782/34/1 783/35/1 784/36/1
f 785/37/1 786/38/1 787/39/1 788/40/1
f 789/1/1 790/2/1 791/3/1 792/4/1
f 793/57/1 794/58/1 795/59/1 796/60/1
f 797/61/1 798/62/1 799/63/1 800/64/1
f 801/1/1 802/2/1 803/3/1 804/4/1
f 805/1/1 806/2/1 807/3/1 808/4/1
f 809/1/1 810/2/1 811/3/1 812/4/1
f 813/1/1 814/2/1 815/3/1 816/4/1
f 817/1/1 818/2/1 819/3/1 820/4/1
f 821/41/1 822/42/1 823/43/1 824/44/1
f 825/45/1 826/46/1 827/47/1 828/48/1
f 829/1/1 830/2/1 831/3/1 832/4/1
f 833/1/1 834/2/1 835/3/1 836/4/1
f 837/1/1 838/2/1 839/3/1 840/4/1
f 841/1/1 842/2/1 843/3/1 844/4/1
f 845/1/1 846/2/1 847/3/1 848/4/1
f 849/1/1 850/2/1 851/3/1 852/4/1
f 853/1/1 854/2/1 855/3/1 856/4/1
f 857/1/1 858/2/1 859/3/1 860/4/1
f 861/1/1 862/2/1 863/3/1 864/4/1
f 865/1/1 866/2/1 867/3/1 868/4/1
f 869/1/1 870/2/1 871/3/1 872/4/1
f 873/1/1 874/2/1 875/3/1 876/4/1
f 877/1/1 878/2/1 879/3/1 880/4/1
f 881/1/1 882/2/1 883/3/1 884/4/1
f 885/1/1 886/2/1 887/3/1 888/4/1
f 889/1/1 890/2/1 891/3/1 892/4/1
f 893/1/1 894/2/1 895/3/1 896/4/1
f 897/1/1 898/2/1 899/3/1 900/4/1
f 901/1/1 902/2/1 903/3/1 904/4/1
f 905/1/1 906/2/1 907/3/1 908/4/1
f 909/1/1 910/2/1 911/3/1 912/4/1

