# Tiled2Unity generated file. Do not modify by hand.
# Wavefront file for 'ampayon_mesh_0002.obj'

# Vertices (Count = 320)
v -4 -5 0
v -5 -5 0
v -5 -4 0
v -4 -4 0
v -3 -5 0
v -4 -5 0
v -4 -4 0
v -3 -4 0
v -38 -6 0
v -39 -6 0
v -39 -5 0
v -38 -5 0
v -37 -6 0
v -38 -6 0
v -38 -5 0
v -37 -5 0
v -21 -6 0
v -22 -6 0
v -22 -5 0
v -21 -5 0
v -42 -9 0
v -43 -9 0
v -43 -8 0
v -42 -8 0
v -41 -9 0
v -42 -9 0
v -42 -8 0
v -41 -8 0
v -20 -9 0
v -21 -9 0
v -21 -8 0
v -20 -8 0
v -19 -9 0
v -20 -9 0
v -20 -8 0
v -19 -8 0
v -6 -9 0
v -7 -9 0
v -7 -8 0
v -6 -8 0
v -5 -9 0
v -6 -9 0
v -6 -8 0
v -5 -8 0
v -4 -9 0
v -5 -9 0
v -5 -8 0
v -4 -8 0
v -41 -12 0
v -42 -12 0
v -42 -11 0
v -41 -11 0
v -40 -12 0
v -41 -12 0
v -41 -11 0
v -40 -11 0
v -30 -13 0
v -31 -13 0
v -31 -12 0
v -30 -12 0
v -29 -13 0
v -30 -13 0
v -30 -12 0
v -29 -12 0
v -3 -15 0
v -4 -15 0
v -4 -14 0
v -3 -14 0
v -2 -15 0
v -3 -15 0
v -3 -14 0
v -2 -14 0
v -1 -15 0
v -2 -15 0
v -2 -14 0
v -1 -14 0
v 0 -15 0
v -1 -15 0
v -1 -14 0
v 0 -14 0
v -46 -17 0
v -47 -17 0
v -47 -16 0
v -46 -16 0
v -45 -17 0
v -46 -17 0
v -46 -16 0
v -45 -16 0
v -3 -17 0
v -4 -17 0
v -4 -16 0
v -3 -16 0
v 0 -17 0
v -1 -17 0
v -1 -16 0
v 0 -16 0
v -2 -20 0
v -3 -20 0
v -3 -19 0
v -2 -19 0
v -1 -20 0
v -2 -20 0
v -2 -19 0
v -1 -19 0
v -14 -21 0
v -15 -21 0
v -15 -20 0
v -14 -20 0
v -9 -22 0
v -10 -22 0
v -10 -21 0
v -9 -21 0
v -8 -22 0
v -9 -22 0
v -9 -21 0
v -8 -21 0
v -6 -22 0
v -7 -22 0
v -7 -21 0
v -6 -21 0
v -32 -24 0
v -33 -24 0
v -33 -23 0
v -32 -23 0
v -31 -24 0
v -32 -24 0
v -32 -23 0
v -31 -23 0
v -16 -24 0
v -17 -24 0
v -17 -23 0
v -16 -23 0
v -15 -24 0
v -16 -24 0
v -16 -23 0
v -15 -23 0
v -9 -24 0
v -10 -24 0
v -10 -23 0
v -9 -23 0
v -41 -25 0
v -42 -25 0
v -42 -24 0
v -41 -24 0
v -9 -25 0
v -10 -25 0
v -10 -24 0
v -9 -24 0
v -8 -25 0
v -9 -25 0
v -9 -24 0
v -8 -24 0
v -7 -25 0
v -8 -25 0
v -8 -24 0
v -7 -24 0
v -40 -28 0
v -41 -28 0
v -41 -27 0
v -40 -27 0
v -39 -28 0
v -40 -28 0
v -40 -27 0
v -39 -27 0
v -14 -32 0
v -15 -32 0
v -15 -31 0
v -14 -31 0
v -45 -33 0
v -46 -33 0
v -46 -32 0
v -45 -32 0
v -3 -34 0
v -4 -34 0
v -4 -33 0
v -3 -33 0
v -2 -34 0
v -3 -34 0
v -3 -33 0
v -2 -33 0
v -1 -34 0
v -2 -34 0
v -2 -33 0
v -1 -33 0
v 0 -34 0
v -1 -34 0
v -1 -33 0
v 0 -33 0
v -47 -36 0
v -48 -36 0
v -48 -35 0
v -47 -35 0
v -46 -36 0
v -47 -36 0
v -47 -35 0
v -46 -35 0
v -3 -38 0
v -4 -38 0
v -4 -37 0
v -3 -37 0
v -38 -39 0
v -39 -39 0
v -39 -38 0
v -38 -38 0
v -30 -41 0
v -31 -41 0
v -31 -40 0
v -30 -40 0
v -5 -41 0
v -6 -41 0
v -6 -40 0
v -5 -40 0
v -4 -41 0
v -5 -41 0
v -5 -40 0
v -4 -40 0
v -42 -42 0
v -43 -42 0
v -43 -41 0
v -42 -41 0
v -41 -42 0
v -42 -42 0
v -42 -41 0
v -41 -41 0
v -37 -42 0
v -38 -42 0
v -38 -41 0
v -37 -41 0
v -36 -42 0
v -37 -42 0
v -37 -41 0
v -36 -41 0
v -35 -42 0
v -36 -42 0
v -36 -41 0
v -35 -41 0
v -22 -42 0
v -23 -42 0
v -23 -41 0
v -22 -41 0
v -21 -42 0
v -22 -42 0
v -22 -41 0
v -21 -41 0
v -38 -44 0
v -39 -44 0
v -39 -43 0
v -38 -43 0
v -32 -44 0
v -33 -44 0
v -33 -43 0
v -32 -43 0
v -31 -44 0
v -32 -44 0
v -32 -43 0
v -31 -43 0
v -15 -44 0
v -16 -44 0
v -16 -43 0
v -15 -43 0
v -14 -44 0
v -15 -44 0
v -15 -43 0
v -14 -43 0
v -45 -47 0
v -46 -47 0
v -46 -46 0
v -45 -46 0
v -44 -47 0
v -45 -47 0
v -45 -46 0
v -44 -46 0
v -43 -47 0
v -44 -47 0
v -44 -46 0
v -43 -46 0
v -42 -47 0
v -43 -47 0
v -43 -46 0
v -42 -46 0
v -37 -47 0
v -38 -47 0
v -38 -46 0
v -37 -46 0
v -36 -47 0
v -37 -47 0
v -37 -46 0
v -36 -46 0
v -7 -47 0
v -8 -47 0
v -8 -46 0
v -7 -46 0
v -5 -47 0
v -6 -47 0
v -6 -46 0
v -5 -46 0
v -2 -47 0
v -3 -47 0
v -3 -46 0
v -2 -46 0
v -1 -47 0
v -2 -47 0
v -2 -46 0
v -1 -46 0
v -21 -50 0
v -22 -50 0
v -22 -49 0
v -21 -49 0
v -20 -50 0
v -21 -50 0
v -21 -49 0
v -20 -49 0
v -7 -50 0
v -8 -50 0
v -8 -49 0
v -7 -49 0
v -6 -50 0
v -7 -50 0
v -7 -49 0
v -6 -49 0

# Texture cooridinates (Count = 72)
vt 0.8323718 0.4445665
vt 0.8529338 0.4445665
vt 0.8529338 0.4721001
vt 0.8323718 0.4721001
vt 0.8115655 0.4445665
vt 0.8321276 0.4445665
vt 0.8321276 0.4721001
vt 0.8115655 0.4721001
vt 0.04173455 0.0001220703
vt 0.06229666 0.0001220703
vt 0.06229666 0.02765572
vt 0.04173455 0.02765572
vt 0.02092831 0.0001220703
vt 0.04149041 0.0001220703
vt 0.04149041 0.02765572
vt 0.02092831 0.02765572
vt 0.3538282 0.1667888
vt 0.3743903 0.1667888
vt 0.3743903 0.1943223
vt 0.3538282 0.1943223
vt 0.3330219 0.1667888
vt 0.3535841 0.1667888
vt 0.3535841 0.1943223
vt 0.3330219 0.1943223
vt 0.3330219 0.08345538
vt 0.3535841 0.08345538
vt 0.3535841 0.110989
vt 0.3330219 0.110989
vt 0.3122157 0.08345538
vt 0.3327778 0.08345538
vt 0.3327778 0.110989
vt 0.3122157 0.110989
vt 0.7907593 0.4445665
vt 0.8113214 0.4445665
vt 0.8113214 0.4721001
vt 0.7907593 0.4721001
vt 0.853178 0.4445665
vt 0.8737401 0.4445665
vt 0.8737401 0.4721001
vt 0.853178 0.4721001
vt 0.2914095 0.1667888
vt 0.3119715 0.1667888
vt 0.3119715 0.1943223
vt 0.2914095 0.1943223
vt 0.7907593 0.5278999
vt 0.8113214 0.5278999
vt 0.8113214 0.5554335
vt 0.7907593 0.5554335
vt 0.3538282 0.1112332
vt 0.3743903 0.1112332
vt 0.3743903 0.1387668
vt 0.3538282 0.1387668
vt 0.3538282 0.08345538
vt 0.3743903 0.08345538
vt 0.3743903 0.110989
vt 0.3538282 0.110989
vt 0.0001220703 0.08345538
vt 0.02068417 0.08345538
vt 0.02068417 0.110989
vt 0.0001220703 0.110989
vt 0.0625408 0.0001220703
vt 0.0831029 0.0001220703
vt 0.0831029 0.02765572
vt 0.0625408 0.02765572
vt 0.0001220703 0.0001220703
vt 0.02068417 0.0001220703
vt 0.02068417 0.02765572
vt 0.0001220703 0.02765572
vt 0.0625408 0.08345538
vt 0.0831029 0.08345538
vt 0.0831029 0.110989
vt 0.0625408 0.110989

# Normal
vn 0 0 -1

# Mesh description
g ampayon_mesh_0002

# Faces
f 1/1/1 2/2/1 3/3/1 4/4/1
f 5/5/1 6/6/1 7/7/1 8/8/1
f 9/9/1 10/10/1 11/11/1 12/12/1
f 13/13/1 14/14/1 15/15/1 16/16/1
f 17/17/1 18/18/1 19/19/1 20/20/1
f 21/17/1 22/18/1 23/19/1 24/20/1
f 25/21/1 26/22/1 27/23/1 28/24/1
f 29/25/1 30/26/1 31/27/1 32/28/1
f 33/29/1 34/30/1 35/31/1 36/32/1
f 37/1/1 38/2/1 39/3/1 40/4/1
f 41/5/1 42/6/1 43/7/1 44/8/1
f 45/33/1 46/34/1 47/35/1 48/36/1
f 49/25/1 50/26/1 51/27/1 52/28/1
f 53/29/1 54/30/1 55/31/1 56/32/1
f 57/9/1 58/10/1 59/11/1 60/12/1
f 61/13/1 62/14/1 63/15/1 64/16/1
f 65/37/1 66/38/1 67/39/1 68/40/1
f 69/1/1 70/2/1 71/3/1 72/4/1
f 73/5/1 74/6/1 75/7/1 76/8/1
f 77/33/1 78/34/1 79/35/1 80/36/1
f 81/9/1 82/10/1 83/11/1 84/12/1
f 85/13/1 86/14/1 87/15/1 88/16/1
f 89/17/1 90/18/1 91/19/1 92/20/1
f 93/41/1 94/42/1 95/43/1 96/44/1
f 97/25/1 98/26/1 99/27/1 100/28/1
f 101/29/1 102/30/1 103/31/1 104/32/1
f 105/45/1 106/46/1 107/47/1 108/48/1
f 109/17/1 110/18/1 111/19/1 112/20/1
f 113/21/1 114/22/1 115/23/1 116/24/1
f 117/41/1 118/42/1 119/43/1 120/44/1
f 121/9/1 122/10/1 123/11/1 124/12/1
f 125/13/1 126/14/1 127/15/1 128/16/1
f 129/1/1 130/2/1 131/3/1 132/4/1
f 133/5/1 134/6/1 135/7/1 136/8/1
f 137/49/1 138/50/1 139/51/1 140/52/1
f 141/17/1 142/18/1 143/19/1 144/20/1
f 145/53/1 146/54/1 147/55/1 148/56/1
f 149/25/1 150/26/1 151/27/1 152/28/1
f 153/29/1 154/30/1 155/31/1 156/32/1
f 157/25/1 158/26/1 159/27/1 160/28/1
f 161/29/1 162/30/1 163/31/1 164/32/1
f 165/5/1 166/6/1 167/7/1 168/8/1
f 169/57/1 170/58/1 171/59/1 172/60/1
f 173/61/1 174/62/1 175/63/1 176/64/1
f 177/9/1 178/10/1 179/11/1 180/12/1
f 181/13/1 182/14/1 183/15/1 184/16/1
f 185/65/1 186/66/1 187/67/1 188/68/1
f 189/9/1 190/10/1 191/11/1 192/12/1
f 193/13/1 194/14/1 195/15/1 196/16/1
f 197/41/1 198/42/1 199/43/1 200/44/1
f 201/69/1 202/70/1 203/71/1 204/72/1
f 205/41/1 206/42/1 207/43/1 208/44/1
f 209/25/1 210/26/1 211/27/1 212/28/1
f 213/29/1 214/30/1 215/31/1 216/32/1
f 217/25/1 218/26/1 219/27/1 220/28/1
f 221/29/1 222/30/1 223/31/1 224/32/1
f 225/9/1 226/10/1 227/11/1 228/12/1
f 229/13/1 230/14/1 231/15/1 232/16/1
f 233/65/1 234/66/1 235/67/1 236/68/1
f 237/25/1 238/26/1 239/27/1 240/28/1
f 241/29/1 242/30/1 243/31/1 244/32/1
f 245/17/1 246/18/1 247/19/1 248/20/1
f 249/25/1 250/26/1 251/27/1 252/28/1
f 253/29/1 254/30/1 255/31/1 256/32/1
f 257/1/1 258/2/1 259/3/1 260/4/1
f 261/5/1 262/6/1 263/7/1 264/8/1
f 265/61/1 266/62/1 267/63/1 268/64/1
f 269/9/1 270/10/1 271/11/1 272/12/1
f 273/13/1 274/14/1 275/15/1 276/16/1
f 277/65/1 278/66/1 279/67/1 280/68/1
f 281/25/1 282/26/1 283/27/1 284/28/1
f 285/29/1 286/30/1 287/31/1 288/32/1
f 289/21/1 290/22/1 291/23/1 292/24/1
f 293/41/1 294/42/1 295/43/1 296/44/1
f 297/1/1 298/2/1 299/3/1 300/4/1
f 301/5/1 302/6/1 303/7/1 304/8/1
f 305/1/1 306/2/1 307/3/1 308/4/1
f 309/5/1 310/6/1 311/7/1 312/8/1
f 313/25/1 314/26/1 315/27/1 316/28/1
f 317/29/1 318/30/1 319/31/1 320/32/1

