# Tiled2Unity generated file. Do not modify by hand.
# Wavefront file for 'LNHS_mesh_0005.obj'

# Vertices (Count = 600)
v -32 -1 0
v -33 -1 0
v -33 0 0
v -32 0 0
v -31 -1 0
v -32 -1 0
v -32 0 0
v -31 0 0
v -30 -1 0
v -31 -1 0
v -31 0 0
v -30 0 0
v -29 -1 0
v -30 -1 0
v -30 0 0
v -29 0 0
v -24 -1 0
v -25 -1 0
v -25 0 0
v -24 0 0
v -23 -1 0
v -24 -1 0
v -24 0 0
v -23 0 0
v -22 -1 0
v -23 -1 0
v -23 0 0
v -22 0 0
v -21 -1 0
v -22 -1 0
v -22 0 0
v -21 0 0
v -1 -1 0
v -2 -1 0
v -2 0 0
v -1 0 0
v 0 -1 0
v -1 -1 0
v -1 0 0
v 0 0 0
v -36 -2 0
v -37 -2 0
v -37 -1 0
v -36 -1 0
v -35 -2 0
v -36 -2 0
v -36 -1 0
v -35 -1 0
v -34 -2 0
v -35 -2 0
v -35 -1 0
v -34 -1 0
v -33 -2 0
v -34 -2 0
v -34 -1 0
v -33 -1 0
v -12 -2 0
v -13 -2 0
v -13 -1 0
v -12 -1 0
v -11 -2 0
v -12 -2 0
v -12 -1 0
v -11 -1 0
v -10 -2 0
v -11 -2 0
v -11 -1 0
v -10 -1 0
v -9 -2 0
v -10 -2 0
v -10 -1 0
v -9 -1 0
v -1 -2 0
v -2 -2 0
v -2 -1 0
v -1 -1 0
v 0 -2 0
v -1 -2 0
v -1 -1 0
v 0 -1 0
v -36 -3 0
v -37 -3 0
v -37 -2 0
v -36 -2 0
v -35 -3 0
v -36 -3 0
v -36 -2 0
v -35 -2 0
v -34 -3 0
v -35 -3 0
v -35 -2 0
v -34 -2 0
v -33 -3 0
v -34 -3 0
v -34 -2 0
v -33 -2 0
v -12 -3 0
v -13 -3 0
v -13 -2 0
v -12 -2 0
v -11 -3 0
v -12 -3 0
v -12 -2 0
v -11 -2 0
v -10 -3 0
v -11 -3 0
v -11 -2 0
v -10 -2 0
v -9 -3 0
v -10 -3 0
v -10 -2 0
v -9 -2 0
v -1 -3 0
v -2 -3 0
v -2 -2 0
v -1 -2 0
v 0 -3 0
v -1 -3 0
v -1 -2 0
v 0 -2 0
v -36 -4 0
v -37 -4 0
v -37 -3 0
v -36 -3 0
v -35 -4 0
v -36 -4 0
v -36 -3 0
v -35 -3 0
v -34 -4 0
v -35 -4 0
v -35 -3 0
v -34 -3 0
v -33 -4 0
v -34 -4 0
v -34 -3 0
v -33 -3 0
v -12 -4 0
v -13 -4 0
v -13 -3 0
v -12 -3 0
v -11 -4 0
v -12 -4 0
v -12 -3 0
v -11 -3 0
v -10 -4 0
v -11 -4 0
v -11 -3 0
v -10 -3 0
v -9 -4 0
v -10 -4 0
v -10 -3 0
v -9 -3 0
v -8 -4 0
v -9 -4 0
v -9 -3 0
v -8 -3 0
v -7 -4 0
v -8 -4 0
v -8 -3 0
v -7 -3 0
v -6 -4 0
v -7 -4 0
v -7 -3 0
v -6 -3 0
v -5 -4 0
v -6 -4 0
v -6 -3 0
v -5 -3 0
v -8 -5 0
v -9 -5 0
v -9 -4 0
v -8 -4 0
v -7 -5 0
v -8 -5 0
v -8 -4 0
v -7 -4 0
v -6 -5 0
v -7 -5 0
v -7 -4 0
v -6 -4 0
v -5 -5 0
v -6 -5 0
v -6 -4 0
v -5 -4 0
v -4 -5 0
v -5 -5 0
v -5 -4 0
v -4 -4 0
v -3 -5 0
v -4 -5 0
v -4 -4 0
v -3 -4 0
v -2 -5 0
v -3 -5 0
v -3 -4 0
v -2 -4 0
v -1 -5 0
v -2 -5 0
v -2 -4 0
v -1 -4 0
v -8 -6 0
v -9 -6 0
v -9 -5 0
v -8 -5 0
v -7 -6 0
v -8 -6 0
v -8 -5 0
v -7 -5 0
v -6 -6 0
v -7 -6 0
v -7 -5 0
v -6 -5 0
v -5 -6 0
v -6 -6 0
v -6 -5 0
v -5 -5 0
v -4 -6 0
v -5 -6 0
v -5 -5 0
v -4 -5 0
v -3 -6 0
v -4 -6 0
v -4 -5 0
v -3 -5 0
v -2 -6 0
v -3 -6 0
v -3 -5 0
v -2 -5 0
v -1 -6 0
v -2 -6 0
v -2 -5 0
v -1 -5 0
v -4 -7 0
v -5 -7 0
v -5 -6 0
v -4 -6 0
v -3 -7 0
v -4 -7 0
v -4 -6 0
v -3 -6 0
v -2 -7 0
v -3 -7 0
v -3 -6 0
v -2 -6 0
v -1 -7 0
v -2 -7 0
v -2 -6 0
v -1 -6 0
v -31 -12 0
v -32 -12 0
v -32 -11 0
v -31 -11 0
v -30 -12 0
v -31 -12 0
v -31 -11 0
v -30 -11 0
v -29 -12 0
v -30 -12 0
v -30 -11 0
v -29 -11 0
v -28 -12 0
v -29 -12 0
v -29 -11 0
v -28 -11 0
v -31 -13 0
v -32 -13 0
v -32 -12 0
v -31 -12 0
v -30 -13 0
v -31 -13 0
v -31 -12 0
v -30 -12 0
v -29 -13 0
v -30 -13 0
v -30 -12 0
v -29 -12 0
v -28 -13 0
v -29 -13 0
v -29 -12 0
v -28 -12 0
v -31 -14 0
v -32 -14 0
v -32 -13 0
v -31 -13 0
v -30 -14 0
v -31 -14 0
v -31 -13 0
v -30 -13 0
v -29 -14 0
v -30 -14 0
v -30 -13 0
v -29 -13 0
v -28 -14 0
v -29 -14 0
v -29 -13 0
v -28 -13 0
v 0 -14 0
v -1 -14 0
v -1 -13 0
v 0 -13 0
v 0 -15 0
v -1 -15 0
v -1 -14 0
v 0 -14 0
v -32 -16 0
v -33 -16 0
v -33 -15 0
v -32 -15 0
v -31 -16 0
v -32 -16 0
v -32 -15 0
v -31 -15 0
v -30 -16 0
v -31 -16 0
v -31 -15 0
v -30 -15 0
v -29 -16 0
v -30 -16 0
v -30 -15 0
v -29 -15 0
v 0 -16 0
v -1 -16 0
v -1 -15 0
v 0 -15 0
v -32 -17 0
v -33 -17 0
v -33 -16 0
v -32 -16 0
v -31 -17 0
v -32 -17 0
v -32 -16 0
v -31 -16 0
v -30 -17 0
v -31 -17 0
v -31 -16 0
v -30 -16 0
v -29 -17 0
v -30 -17 0
v -30 -16 0
v -29 -16 0
v 0 -17 0
v -1 -17 0
v -1 -16 0
v 0 -16 0
v -32 -18 0
v -33 -18 0
v -33 -17 0
v -32 -17 0
v -31 -18 0
v -32 -18 0
v -32 -17 0
v -31 -17 0
v -30 -18 0
v -31 -18 0
v -31 -17 0
v -30 -17 0
v -29 -18 0
v -30 -18 0
v -30 -17 0
v -29 -17 0
v -22 -21 0
v -23 -21 0
v -23 -20 0
v -22 -20 0
v -21 -21 0
v -22 -21 0
v -22 -20 0
v -21 -20 0
v -20 -21 0
v -21 -21 0
v -21 -20 0
v -20 -20 0
v -19 -21 0
v -20 -21 0
v -20 -20 0
v -19 -20 0
v -18 -21 0
v -19 -21 0
v -19 -20 0
v -18 -20 0
v -26 -23 0
v -27 -23 0
v -27 -22 0
v -26 -22 0
v -24 -23 0
v -25 -23 0
v -25 -22 0
v -24 -22 0
v -26 -24 0
v -27 -24 0
v -27 -23 0
v -26 -23 0
v -21 -24 0
v -22 -24 0
v -22 -23 0
v -21 -23 0
v -20 -24 0
v -21 -24 0
v -21 -23 0
v -20 -23 0
v -19 -24 0
v -20 -24 0
v -20 -23 0
v -19 -23 0
v -26 -25 0
v -27 -25 0
v -27 -24 0
v -26 -24 0
v -22 -26 0
v -23 -26 0
v -23 -25 0
v -22 -25 0
v -21 -26 0
v -22 -26 0
v -22 -25 0
v -21 -25 0
v -20 -26 0
v -21 -26 0
v -21 -25 0
v -20 -25 0
v -33 -27 0
v -34 -27 0
v -34 -26 0
v -33 -26 0
v -32 -27 0
v -33 -27 0
v -33 -26 0
v -32 -26 0
v -31 -27 0
v -32 -27 0
v -32 -26 0
v -31 -26 0
v -30 -27 0
v -31 -27 0
v -31 -26 0
v -30 -26 0
v -8 -27 0
v -9 -27 0
v -9 -26 0
v -8 -26 0
v -7 -27 0
v -8 -27 0
v -8 -26 0
v -7 -26 0
v -6 -27 0
v -7 -27 0
v -7 -26 0
v -6 -26 0
v -5 -27 0
v -6 -27 0
v -6 -26 0
v -5 -26 0
v -33 -28 0
v -34 -28 0
v -34 -27 0
v -33 -27 0
v -32 -28 0
v -33 -28 0
v -33 -27 0
v -32 -27 0
v -31 -28 0
v -32 -28 0
v -32 -27 0
v -31 -27 0
v -30 -28 0
v -31 -28 0
v -31 -27 0
v -30 -27 0
v -8 -28 0
v -9 -28 0
v -9 -27 0
v -8 -27 0
v -7 -28 0
v -8 -28 0
v -8 -27 0
v -7 -27 0
v -6 -28 0
v -7 -28 0
v -7 -27 0
v -6 -27 0
v -5 -28 0
v -6 -28 0
v -6 -27 0
v -5 -27 0
v -33 -29 0
v -34 -29 0
v -34 -28 0
v -33 -28 0
v -32 -29 0
v -33 -29 0
v -33 -28 0
v -32 -28 0
v -31 -29 0
v -32 -29 0
v -32 -28 0
v -31 -28 0
v -30 -29 0
v -31 -29 0
v -31 -28 0
v -30 -28 0
v -8 -29 0
v -9 -29 0
v -9 -28 0
v -8 -28 0
v -7 -29 0
v -8 -29 0
v -8 -28 0
v -7 -28 0
v -6 -29 0
v -7 -29 0
v -7 -28 0
v -6 -28 0
v -5 -29 0
v -6 -29 0
v -6 -28 0
v -5 -28 0
v -6 -32 0
v -7 -32 0
v -7 -31 0
v -6 -31 0
v -5 -32 0
v -6 -32 0
v -6 -31 0
v -5 -31 0
v -4 -32 0
v -5 -32 0
v -5 -31 0
v -4 -31 0
v -3 -32 0
v -4 -32 0
v -4 -31 0
v -3 -31 0
v -23 -33 0
v -24 -33 0
v -24 -32 0
v -23 -32 0
v -22 -33 0
v -23 -33 0
v -23 -32 0
v -22 -32 0
v -21 -33 0
v -22 -33 0
v -22 -32 0
v -21 -32 0
v -20 -33 0
v -21 -33 0
v -21 -32 0
v -20 -32 0
v -19 -33 0
v -20 -33 0
v -20 -32 0
v -19 -32 0
v -18 -33 0
v -19 -33 0
v -19 -32 0
v -18 -32 0
v -6 -33 0
v -7 -33 0
v -7 -32 0
v -6 -32 0
v -5 -33 0
v -6 -33 0
v -6 -32 0
v -5 -32 0
v -4 -33 0
v -5 -33 0
v -5 -32 0
v -4 -32 0
v -3 -33 0
v -4 -33 0
v -4 -32 0
v -3 -32 0
v -6 -34 0
v -7 -34 0
v -7 -33 0
v -6 -33 0
v -5 -34 0
v -6 -34 0
v -6 -33 0
v -5 -33 0
v -4 -34 0
v -5 -34 0
v -5 -33 0
v -4 -33 0
v -3 -34 0
v -4 -34 0
v -4 -33 0
v -3 -33 0
v -32 -38 0
v -33 -38 0
v -33 -37 0
v -32 -37 0
v -32 -39 0
v -33 -39 0
v -33 -38 0
v -32 -38 0
v -32 -40 0
v -33 -40 0
v -33 -39 0
v -32 -39 0

# Texture cooridinates (Count = 92)
vt 0.0625408 0.02789986
vt 0.0831029 0.02789986
vt 0.0831029 0.05543351
vt 0.0625408 0.05543351
vt 0.04173455 0.02789986
vt 0.06229666 0.02789986
vt 0.06229666 0.05543351
vt 0.04173455 0.05543351
vt 0.02092831 0.02789986
vt 0.04149041 0.02789986
vt 0.04149041 0.05543351
vt 0.02092831 0.05543351
vt 0.0001220703 0.02789986
vt 0.02068417 0.02789986
vt 0.02068417 0.05543351
vt 0.0001220703 0.05543351
vt 0.0625408 0.08345538
vt 0.0831029 0.08345538
vt 0.0831029 0.110989
vt 0.0625408 0.110989
vt 0.04173455 0.08345538
vt 0.06229666 0.08345538
vt 0.06229666 0.110989
vt 0.04173455 0.110989
vt 0.02092831 0.08345538
vt 0.04149041 0.08345538
vt 0.04149041 0.110989
vt 0.02092831 0.110989
vt 0.0001220703 0.08345538
vt 0.02068417 0.08345538
vt 0.02068417 0.110989
vt 0.0001220703 0.110989
vt 0.0625408 0.05567765
vt 0.0831029 0.05567765
vt 0.0831029 0.08321124
vt 0.0625408 0.08321124
vt 0.04173455 0.05567765
vt 0.06229666 0.05567765
vt 0.06229666 0.08321124
vt 0.04173455 0.08321124
vt 0.02092831 0.05567765
vt 0.04149041 0.05567765
vt 0.04149041 0.08321124
vt 0.02092831 0.08321124
vt 0.0001220703 0.05567765
vt 0.02068417 0.05567765
vt 0.02068417 0.08321124
vt 0.0001220703 0.08321124
vt 0.04173455 0.5834554
vt 0.06229666 0.5834554
vt 0.06229666 0.610989
vt 0.04173455 0.610989
vt 0.6243093 0.8612332
vt 0.6448714 0.8612332
vt 0.6448714 0.8887668
vt 0.6243093 0.8887668
vt 0.6035031 0.8612332
vt 0.6240652 0.8612332
vt 0.6240652 0.8887668
vt 0.6035031 0.8887668
vt 0.5826969 0.8612332
vt 0.603259 0.8612332
vt 0.603259 0.8887668
vt 0.5826969 0.8887668
vt 0.5618906 0.8612332
vt 0.5824527 0.8612332
vt 0.5824527 0.8887668
vt 0.5618906 0.8887668
vt 0.769953 0.6945665
vt 0.7905151 0.6945665
vt 0.7905151 0.7221001
vt 0.769953 0.7221001
vt 0.7491468 0.6945665
vt 0.7697089 0.6945665
vt 0.7697089 0.7221001
vt 0.7491468 0.7221001
vt 0.7283405 0.6945665
vt 0.7489026 0.6945665
vt 0.7489026 0.7221001
vt 0.7283405 0.7221001
vt 0.6243093 0.8056777
vt 0.6448714 0.8056777
vt 0.6448714 0.8332112
vt 0.6243093 0.8332112
vt 0.6035031 0.8056777
vt 0.6240652 0.8056777
vt 0.6240652 0.8332112
vt 0.6035031 0.8332112
vt 0.5826969 0.8056777
vt 0.603259 0.8056777
vt 0.603259 0.8332112
vt 0.5826969 0.8332112

# Normal
vn 0 0 -1

# Mesh description
g LNHS_mesh_0005

# Faces
f 1/1/1 2/2/1 3/3/1 4/4/1
f 5/5/1 6/6/1 7/7/1 8/8/1
f 9/9/1 10/10/1 11/11/1 12/12/1
f 13/13/1 14/14/1 15/15/1 16/16/1
f 17/1/1 18/2/1 19/3/1 20/4/1
f 21/5/1 22/6/1 23/7/1 24/8/1
f 25/9/1 26/10/1 27/11/1 28/12/1
f 29/13/1 30/14/1 31/15/1 32/16/1
f 33/17/1 34/18/1 35/19/1 36/20/1
f 37/21/1 38/22/1 39/23/1 40/24/1
f 41/17/1 42/18/1 43/19/1 44/20/1
f 45/21/1 46/22/1 47/23/1 48/24/1
f 49/25/1 50/26/1 51/27/1 52/28/1
f 53/29/1 54/30/1 55/31/1 56/32/1
f 57/17/1 58/18/1 59/19/1 60/20/1
f 61/21/1 62/22/1 63/23/1 64/24/1
f 65/25/1 66/26/1 67/27/1 68/28/1
f 69/29/1 70/30/1 71/31/1 72/32/1
f 73/33/1 74/34/1 75/35/1 76/36/1
f 77/37/1 78/38/1 79/39/1 80/40/1
f 81/33/1 82/34/1 83/35/1 84/36/1
f 85/37/1 86/38/1 87/39/1 88/40/1
f 89/41/1 90/42/1 91/43/1 92/44/1
f 93/45/1 94/46/1 95/47/1 96/48/1
f 97/33/1 98/34/1 99/35/1 100/36/1
f 101/37/1 102/38/1 103/39/1 104/40/1
f 105/41/1 106/42/1 107/43/1 108/44/1
f 109/45/1 110/46/1 111/47/1 112/48/1
f 113/1/1 114/2/1 115/3/1 116/4/1
f 117/5/1 118/6/1 119/7/1 120/8/1
f 121/1/1 122/2/1 123/3/1 124/4/1
f 125/5/1 126/6/1 127/7/1 128/8/1
f 129/9/1 130/10/1 131/11/1 132/12/1
f 133/13/1 134/14/1 135/15/1 136/16/1
f 137/1/1 138/2/1 139/3/1 140/4/1
f 141/5/1 142/6/1 143/7/1 144/8/1
f 145/9/1 146/10/1 147/11/1 148/12/1
f 149/13/1 150/14/1 151/15/1 152/16/1
f 153/17/1 154/18/1 155/19/1 156/20/1
f 157/21/1 158/22/1 159/23/1 160/24/1
f 161/25/1 162/26/1 163/27/1 164/28/1
f 165/29/1 166/30/1 167/31/1 168/32/1
f 169/33/1 170/34/1 171/35/1 172/36/1
f 173/37/1 174/38/1 175/39/1 176/40/1
f 177/41/1 178/42/1 179/43/1 180/44/1
f 181/45/1 182/46/1 183/47/1 184/48/1
f 185/17/1 186/18/1 187/19/1 188/20/1
f 189/21/1 190/22/1 191/23/1 192/24/1
f 193/25/1 194/26/1 195/27/1 196/28/1
f 197/29/1 198/30/1 199/31/1 200/32/1
f 201/1/1 202/2/1 203/3/1 204/4/1
f 205/5/1 206/6/1 207/7/1 208/8/1
f 209/9/1 210/10/1 211/11/1 212/12/1
f 213/13/1 214/14/1 215/15/1 216/16/1
f 217/33/1 218/34/1 219/35/1 220/36/1
f 221/37/1 222/38/1 223/39/1 224/40/1
f 225/41/1 226/42/1 227/43/1 228/44/1
f 229/45/1 230/46/1 231/47/1 232/48/1
f 233/1/1 234/2/1 235/3/1 236/4/1
f 237/5/1 238/6/1 239/7/1 240/8/1
f 241/9/1 242/10/1 243/11/1 244/12/1
f 245/13/1 246/14/1 247/15/1 248/16/1
f 249/17/1 250/18/1 251/19/1 252/20/1
f 253/21/1 254/22/1 255/23/1 256/24/1
f 257/25/1 258/26/1 259/27/1 260/28/1
f 261/29/1 262/30/1 263/31/1 264/32/1
f 265/33/1 266/34/1 267/35/1 268/36/1
f 269/37/1 270/38/1 271/39/1 272/40/1
f 273/41/1 274/42/1 275/43/1 276/44/1
f 277/45/1 278/46/1 279/47/1 280/48/1
f 281/1/1 282/2/1 283/3/1 284/4/1
f 285/5/1 286/6/1 287/7/1 288/8/1
f 289/9/1 290/10/1 291/11/1 292/12/1
f 293/13/1 294/14/1 295/15/1 296/16/1
f 297/49/1 298/50/1 299/51/1 300/52/1
f 301/49/1 302/50/1 303/51/1 304/52/1
f 305/17/1 306/18/1 307/19/1 308/20/1
f 309/21/1 310/22/1 311/23/1 312/24/1
f 313/25/1 314/26/1 315/27/1 316/28/1
f 317/29/1 318/30/1 319/31/1 320/32/1
f 321/49/1 322/50/1 323/51/1 324/52/1
f 325/33/1 326/34/1 327/35/1 328/36/1
f 329/37/1 330/38/1 331/39/1 332/40/1
f 333/41/1 334/42/1 335/43/1 336/44/1
f 337/45/1 338/46/1 339/47/1 340/48/1
f 341/49/1 342/50/1 343/51/1 344/52/1
f 345/1/1 346/2/1 347/3/1 348/4/1
f 349/5/1 350/6/1 351/7/1 352/8/1
f 353/9/1 354/10/1 355/11/1 356/12/1
f 357/13/1 358/14/1 359/15/1 360/16/1
f 361/53/1 362/54/1 363/55/1 364/56/1
f 365/57/1 366/58/1 367/59/1 368/60/1
f 369/57/1 370/58/1 371/59/1 372/60/1
f 373/57/1 374/58/1 375/59/1 376/60/1
f 377/61/1 378/62/1 379/63/1 380/64/1
f 381/49/1 382/50/1 383/51/1 384/52/1
f 385/65/1 386/66/1 387/67/1 388/68/1
f 389/49/1 390/50/1 391/51/1 392/52/1
f 393/69/1 394/70/1 395/71/1 396/72/1
f 397/73/1 398/74/1 399/75/1 400/76/1
f 401/77/1 402/78/1 403/79/1 404/80/1
f 405/49/1 406/50/1 407/51/1 408/52/1
f 409/69/1 410/70/1 411/71/1 412/72/1
f 413/73/1 414/74/1 415/75/1 416/76/1
f 417/77/1 418/78/1 419/79/1 420/80/1
f 421/17/1 422/18/1 423/19/1 424/20/1
f 425/21/1 426/22/1 427/23/1 428/24/1
f 429/25/1 430/26/1 431/27/1 432/28/1
f 433/29/1 434/30/1 435/31/1 436/32/1
f 437/17/1 438/18/1 439/19/1 440/20/1
f 441/21/1 442/22/1 443/23/1 444/24/1
f 445/25/1 446/26/1 447/27/1 448/28/1
f 449/29/1 450/30/1 451/31/1 452/32/1
f 453/33/1 454/34/1 455/35/1 456/36/1
f 457/37/1 458/38/1 459/39/1 460/40/1
f 461/41/1 462/42/1 463/43/1 464/44/1
f 465/45/1 466/46/1 467/47/1 468/48/1
f 469/33/1 470/34/1 471/35/1 472/36/1
f 473/37/1 474/38/1 475/39/1 476/40/1
f 477/41/1 478/42/1 479/43/1 480/44/1
f 481/45/1 482/46/1 483/47/1 484/48/1
f 485/1/1 486/2/1 487/3/1 488/4/1
f 489/5/1 490/6/1 491/7/1 492/8/1
f 493/9/1 494/10/1 495/11/1 496/12/1
f 497/13/1 498/14/1 499/15/1 500/16/1
f 501/1/1 502/2/1 503/3/1 504/4/1
f 505/5/1 506/6/1 507/7/1 508/8/1
f 509/9/1 510/10/1 511/11/1 512/12/1
f 513/13/1 514/14/1 515/15/1 516/16/1
f 517/17/1 518/18/1 519/19/1 520/20/1
f 521/21/1 522/22/1 523/23/1 524/24/1
f 525/25/1 526/26/1 527/27/1 528/28/1
f 529/29/1 530/30/1 531/31/1 532/32/1
f 533/81/1 534/82/1 535/83/1 536/84/1
f 537/85/1 538/86/1 539/87/1 540/88/1
f 541/85/1 542/86/1 543/87/1 544/88/1
f 545/85/1 546/86/1 547/87/1 548/88/1
f 549/85/1 550/86/1 551/87/1 552/88/1
f 553/89/1 554/90/1 555/91/1 556/92/1
f 557/33/1 558/34/1 559/35/1 560/36/1
f 561/37/1 562/38/1 563/39/1 564/40/1
f 565/41/1 566/42/1 567/43/1 568/44/1
f 569/45/1 570/46/1 571/47/1 572/48/1
f 573/1/1 574/2/1 575/3/1 576/4/1
f 577/5/1 578/6/1 579/7/1 580/8/1
f 581/9/1 582/10/1 583/11/1 584/12/1
f 585/13/1 586/14/1 587/15/1 588/16/1
f 589/49/1 590/50/1 591/51/1 592/52/1
f 593/49/1 594/50/1 595/51/1 596/52/1
f 597/49/1 598/50/1 599/51/1 600/52/1

