# Tiled2Unity generated file. Do not modify by hand.
# Wavefront file for 'LNHS_mesh_0004.obj'

# Vertices (Count = 272)
v -44 -2 0
v -45 -2 0
v -45 -1 0
v -44 -1 0
v -43 -2 0
v -44 -2 0
v -44 -1 0
v -43 -1 0
v -42 -2 0
v -43 -2 0
v -43 -1 0
v -42 -1 0
v -32 -3 0
v -33 -3 0
v -33 -2 0
v -32 -2 0
v -31 -3 0
v -32 -3 0
v -32 -2 0
v -31 -2 0
v -47 -5 0
v -48 -5 0
v -48 -4 0
v -47 -4 0
v -46 -5 0
v -47 -5 0
v -47 -4 0
v -46 -4 0
v -45 -5 0
v -46 -5 0
v -46 -4 0
v -45 -4 0
v -23 -6 0
v -24 -6 0
v -24 -5 0
v -23 -5 0
v -22 -6 0
v -23 -6 0
v -23 -5 0
v -22 -5 0
v -21 -6 0
v -22 -6 0
v -22 -5 0
v -21 -5 0
v -19 -6 0
v -20 -6 0
v -20 -5 0
v -19 -5 0
v -1 -6 0
v -2 -6 0
v -2 -5 0
v -1 -5 0
v -6 -7 0
v -7 -7 0
v -7 -6 0
v -6 -6 0
v -17 -8 0
v -18 -8 0
v -18 -7 0
v -17 -7 0
v -16 -8 0
v -17 -8 0
v -17 -7 0
v -16 -7 0
v -17 -9 0
v -18 -9 0
v -18 -8 0
v -17 -8 0
v -16 -9 0
v -17 -9 0
v -17 -8 0
v -16 -8 0
v -11 -9 0
v -12 -9 0
v -12 -8 0
v -11 -8 0
v -10 -9 0
v -11 -9 0
v -11 -8 0
v -10 -8 0
v -56 -10 0
v -57 -10 0
v -57 -9 0
v -56 -9 0
v -55 -10 0
v -56 -10 0
v -56 -9 0
v -55 -9 0
v -11 -10 0
v -12 -10 0
v -12 -9 0
v -11 -9 0
v -10 -10 0
v -11 -10 0
v -11 -9 0
v -10 -9 0
v -56 -11 0
v -57 -11 0
v -57 -10 0
v -56 -10 0
v -55 -11 0
v -56 -11 0
v -56 -10 0
v -55 -10 0
v -16 -14 0
v -17 -14 0
v -17 -13 0
v -16 -13 0
v -44 -17 0
v -45 -17 0
v -45 -16 0
v -44 -16 0
v -46 -19 0
v -47 -19 0
v -47 -18 0
v -46 -18 0
v -45 -19 0
v -46 -19 0
v -46 -18 0
v -45 -18 0
v -46 -20 0
v -47 -20 0
v -47 -19 0
v -46 -19 0
v -45 -20 0
v -46 -20 0
v -46 -19 0
v -45 -19 0
v -11 -20 0
v -12 -20 0
v -12 -19 0
v -11 -19 0
v -10 -20 0
v -11 -20 0
v -11 -19 0
v -10 -19 0
v -9 -20 0
v -10 -20 0
v -10 -19 0
v -9 -19 0
v -54 -23 0
v -55 -23 0
v -55 -22 0
v -54 -22 0
v -53 -23 0
v -54 -23 0
v -54 -22 0
v -53 -22 0
v -54 -24 0
v -55 -24 0
v -55 -23 0
v -54 -23 0
v -53 -24 0
v -54 -24 0
v -54 -23 0
v -53 -23 0
v -36 -26 0
v -37 -26 0
v -37 -25 0
v -36 -25 0
v -35 -26 0
v -36 -26 0
v -36 -25 0
v -35 -25 0
v -34 -26 0
v -35 -26 0
v -35 -25 0
v -34 -25 0
v -24 -26 0
v -25 -26 0
v -25 -25 0
v -24 -25 0
v -38 -27 0
v -39 -27 0
v -39 -26 0
v -38 -26 0
v -37 -27 0
v -38 -27 0
v -38 -26 0
v -37 -26 0
v -38 -28 0
v -39 -28 0
v -39 -27 0
v -38 -27 0
v -37 -28 0
v -38 -28 0
v -38 -27 0
v -37 -27 0
v -46 -29 0
v -47 -29 0
v -47 -28 0
v -46 -28 0
v -33 -29 0
v -34 -29 0
v -34 -28 0
v -33 -28 0
v -32 -29 0
v -33 -29 0
v -33 -28 0
v -32 -28 0
v -33 -30 0
v -34 -30 0
v -34 -29 0
v -33 -29 0
v -32 -30 0
v -33 -30 0
v -33 -29 0
v -32 -29 0
v -56 -31 0
v -57 -31 0
v -57 -30 0
v -56 -30 0
v -55 -31 0
v -56 -31 0
v -56 -30 0
v -55 -30 0
v -51 -31 0
v -52 -31 0
v -52 -30 0
v -51 -30 0
v -56 -32 0
v -57 -32 0
v -57 -31 0
v -56 -31 0
v -55 -32 0
v -56 -32 0
v -56 -31 0
v -55 -31 0
v -20 -36 0
v -21 -36 0
v -21 -35 0
v -20 -35 0
v -19 -36 0
v -20 -36 0
v -20 -35 0
v -19 -35 0
v -20 -37 0
v -21 -37 0
v -21 -36 0
v -20 -36 0
v -19 -37 0
v -20 -37 0
v -20 -36 0
v -19 -36 0
v -28 -38 0
v -29 -38 0
v -29 -37 0
v -28 -37 0
v -26 -38 0
v -27 -38 0
v -27 -37 0
v -26 -37 0
v -25 -38 0
v -26 -38 0
v -26 -37 0
v -25 -37 0
v -26 -39 0
v -27 -39 0
v -27 -38 0
v -26 -38 0
v -25 -39 0
v -26 -39 0
v -26 -38 0
v -25 -38 0
v -34 -40 0
v -35 -40 0
v -35 -39 0
v -34 -39 0
v -56 -41 0
v -57 -41 0
v -57 -40 0
v -56 -40 0

# Texture cooridinates (Count = 60)
vt 0.1041533 0.8334554
vt 0.1247154 0.8334554
vt 0.1247154 0.860989
vt 0.1041533 0.860989
vt 0.08334704 0.8334554
vt 0.1039091 0.8334554
vt 0.1039091 0.860989
vt 0.08334704 0.860989
vt 0.0625408 0.8334554
vt 0.0831029 0.8334554
vt 0.0831029 0.860989
vt 0.0625408 0.860989
vt 0.2081845 0.9723443
vt 0.2287466 0.9723443
vt 0.2287466 0.9998779
vt 0.2081845 0.9998779
vt 0.166572 0.9723443
vt 0.1871341 0.9723443
vt 0.1871341 0.9998779
vt 0.166572 0.9998779
vt 0.02092831 0.9723443
vt 0.04149041 0.9723443
vt 0.04149041 0.9998779
vt 0.02092831 0.9998779
vt 0.6659218 0.889011
vt 0.6864839 0.889011
vt 0.6864839 0.9165446
vt 0.6659218 0.9165446
vt 0.6451156 0.889011
vt 0.6656777 0.889011
vt 0.6656777 0.9165446
vt 0.6451156 0.9165446
vt 0.6659218 0.8612332
vt 0.6864839 0.8612332
vt 0.6864839 0.8887668
vt 0.6659218 0.8887668
vt 0.6451156 0.8612332
vt 0.6656777 0.8612332
vt 0.6656777 0.8887668
vt 0.6451156 0.8887668
vt 0.1457658 0.9723443
vt 0.1663279 0.9723443
vt 0.1663279 0.9998779
vt 0.1457658 0.9998779
vt 0.1041533 0.9445665
vt 0.1247154 0.9445665
vt 0.1247154 0.9721001
vt 0.1041533 0.9721001
vt 0.08334704 0.9445665
vt 0.1039091 0.9445665
vt 0.1039091 0.9721001
vt 0.08334704 0.9721001
vt 0.1041533 0.9167888
vt 0.1247154 0.9167888
vt 0.1247154 0.9443223
vt 0.1041533 0.9443223
vt 0.08334704 0.9167888
vt 0.1039091 0.9167888
vt 0.1039091 0.9443223
vt 0.08334704 0.9443223

# Normal
vn 0 0 -1

# Mesh description
g LNHS_mesh_0004

# Faces
f 1/1/1 2/2/1 3/3/1 4/4/1
f 5/5/1 6/6/1 7/7/1 8/8/1
f 9/9/1 10/10/1 11/11/1 12/12/1
f 13/13/1 14/14/1 15/15/1 16/16/1
f 17/17/1 18/18/1 19/19/1 20/20/1
f 21/1/1 22/2/1 23/3/1 24/4/1
f 25/5/1 26/6/1 27/7/1 28/8/1
f 29/9/1 30/10/1 31/11/1 32/12/1
f 33/1/1 34/2/1 35/3/1 36/4/1
f 37/5/1 38/6/1 39/7/1 40/8/1
f 41/9/1 42/10/1 43/11/1 44/12/1
f 45/21/1 46/22/1 47/23/1 48/24/1
f 49/21/1 50/22/1 51/23/1 52/24/1
f 53/21/1 54/22/1 55/23/1 56/24/1
f 57/25/1 58/26/1 59/27/1 60/28/1
f 61/29/1 62/30/1 63/31/1 64/32/1
f 65/33/1 66/34/1 67/35/1 68/36/1
f 69/37/1 70/38/1 71/39/1 72/40/1
f 73/25/1 74/26/1 75/27/1 76/28/1
f 77/29/1 78/30/1 79/31/1 80/32/1
f 81/25/1 82/26/1 83/27/1 84/28/1
f 85/29/1 86/30/1 87/31/1 88/32/1
f 89/33/1 90/34/1 91/35/1 92/36/1
f 93/37/1 94/38/1 95/39/1 96/40/1
f 97/33/1 98/34/1 99/35/1 100/36/1
f 101/37/1 102/38/1 103/39/1 104/40/1
f 105/21/1 106/22/1 107/23/1 108/24/1
f 109/41/1 110/42/1 111/43/1 112/44/1
f 113/45/1 114/46/1 115/47/1 116/48/1
f 117/49/1 118/50/1 119/51/1 120/52/1
f 121/53/1 122/54/1 123/55/1 124/56/1
f 125/57/1 126/58/1 127/59/1 128/60/1
f 129/1/1 130/2/1 131/3/1 132/4/1
f 133/5/1 134/6/1 135/7/1 136/8/1
f 137/9/1 138/10/1 139/11/1 140/12/1
f 141/25/1 142/26/1 143/27/1 144/28/1
f 145/29/1 146/30/1 147/31/1 148/32/1
f 149/33/1 150/34/1 151/35/1 152/36/1
f 153/37/1 154/38/1 155/39/1 156/40/1
f 157/1/1 158/2/1 159/3/1 160/4/1
f 161/5/1 162/6/1 163/7/1 164/8/1
f 165/9/1 166/10/1 167/11/1 168/12/1
f 169/21/1 170/22/1 171/23/1 172/24/1
f 173/25/1 174/26/1 175/27/1 176/28/1
f 177/29/1 178/30/1 179/31/1 180/32/1
f 181/33/1 182/34/1 183/35/1 184/36/1
f 185/37/1 186/38/1 187/39/1 188/40/1
f 189/21/1 190/22/1 191/23/1 192/24/1
f 193/25/1 194/26/1 195/27/1 196/28/1
f 197/29/1 198/30/1 199/31/1 200/32/1
f 201/33/1 202/34/1 203/35/1 204/36/1
f 205/37/1 206/38/1 207/39/1 208/40/1
f 209/25/1 210/26/1 211/27/1 212/28/1
f 213/29/1 214/30/1 215/31/1 216/32/1
f 217/21/1 218/22/1 219/23/1 220/24/1
f 221/33/1 222/34/1 223/35/1 224/36/1
f 225/37/1 226/38/1 227/39/1 228/40/1
f 229/25/1 230/26/1 231/27/1 232/28/1
f 233/29/1 234/30/1 235/31/1 236/32/1
f 237/33/1 238/34/1 239/35/1 240/36/1
f 241/37/1 242/38/1 243/39/1 244/40/1
f 245/21/1 246/22/1 247/23/1 248/24/1
f 249/25/1 250/26/1 251/27/1 252/28/1
f 253/29/1 254/30/1 255/31/1 256/32/1
f 257/33/1 258/34/1 259/35/1 260/36/1
f 261/37/1 262/38/1 263/39/1 264/40/1
f 265/21/1 266/22/1 267/23/1 268/24/1
f 269/21/1 270/22/1 271/23/1 272/24/1

