# Tiled2Unity generated file. Do not modify by hand.
# Wavefront file for 'LNHS_mesh_0006.obj'

# Vertices (Count = 188)
v -21 -13 0
v -22 -13 0
v -22 -12 0
v -21 -12 0
v -20 -13 0
v -21 -13 0
v -21 -12 0
v -20 -12 0
v -19 -13 0
v -20 -13 0
v -20 -12 0
v -19 -12 0
v -18 -13 0
v -19 -13 0
v -19 -12 0
v -18 -12 0
v -17 -13 0
v -18 -13 0
v -18 -12 0
v -17 -12 0
v -16 -13 0
v -17 -13 0
v -17 -12 0
v -16 -12 0
v -15 -13 0
v -16 -13 0
v -16 -12 0
v -15 -12 0
v -14 -13 0
v -15 -13 0
v -15 -12 0
v -14 -12 0
v -13 -13 0
v -14 -13 0
v -14 -12 0
v -13 -12 0
v -12 -13 0
v -13 -13 0
v -13 -12 0
v -12 -12 0
v -11 -13 0
v -12 -13 0
v -12 -12 0
v -11 -12 0
v -27 -14 0
v -28 -14 0
v -28 -13 0
v -27 -13 0
v -26 -14 0
v -27 -14 0
v -27 -13 0
v -26 -13 0
v -25 -14 0
v -26 -14 0
v -26 -13 0
v -25 -13 0
v -24 -14 0
v -25 -14 0
v -25 -13 0
v -24 -13 0
v -23 -14 0
v -24 -14 0
v -24 -13 0
v -23 -13 0
v -22 -14 0
v -23 -14 0
v -23 -13 0
v -22 -13 0
v -21 -14 0
v -22 -14 0
v -22 -13 0
v -21 -13 0
v -32 -21 0
v -33 -21 0
v -33 -20 0
v -32 -20 0
v -31 -21 0
v -32 -21 0
v -32 -20 0
v -31 -20 0
v -30 -21 0
v -31 -21 0
v -31 -20 0
v -30 -20 0
v -29 -21 0
v -30 -21 0
v -30 -20 0
v -29 -20 0
v -28 -21 0
v -29 -21 0
v -29 -20 0
v -28 -20 0
v -27 -21 0
v -28 -21 0
v -28 -20 0
v -27 -20 0
v -33 -30 0
v -34 -30 0
v -34 -29 0
v -33 -29 0
v -32 -30 0
v -33 -30 0
v -33 -29 0
v -32 -29 0
v -31 -30 0
v -32 -30 0
v -32 -29 0
v -31 -29 0
v -30 -30 0
v -31 -30 0
v -31 -29 0
v -30 -29 0
v -29 -30 0
v -30 -30 0
v -30 -29 0
v -29 -29 0
v -31 -37 0
v -32 -37 0
v -32 -36 0
v -31 -36 0
v -30 -37 0
v -31 -37 0
v -31 -36 0
v -30 -36 0
v -29 -37 0
v -30 -37 0
v -30 -36 0
v -29 -36 0
v -28 -37 0
v -29 -37 0
v -29 -36 0
v -28 -36 0
v -27 -37 0
v -28 -37 0
v -28 -36 0
v -27 -36 0
v -26 -37 0
v -27 -37 0
v -27 -36 0
v -26 -36 0
v -24 -37 0
v -25 -37 0
v -25 -36 0
v -24 -36 0
v -23 -37 0
v -24 -37 0
v -24 -36 0
v -23 -36 0
v -22 -37 0
v -23 -37 0
v -23 -36 0
v -22 -36 0
v -21 -37 0
v -22 -37 0
v -22 -36 0
v -21 -36 0
v -20 -37 0
v -21 -37 0
v -21 -36 0
v -20 -36 0
v -19 -37 0
v -20 -37 0
v -20 -36 0
v -19 -36 0
v -17 -37 0
v -18 -37 0
v -18 -36 0
v -17 -36 0
v -16 -37 0
v -17 -37 0
v -17 -36 0
v -16 -36 0
v -15 -37 0
v -16 -37 0
v -16 -36 0
v -15 -36 0
v -14 -37 0
v -15 -37 0
v -15 -36 0
v -14 -36 0
v -13 -37 0
v -14 -37 0
v -14 -36 0
v -13 -36 0
v -12 -37 0
v -13 -37 0
v -13 -36 0
v -12 -36 0

# Texture cooridinates (Count = 136)
vt 0.4656393 0.5790694
vt 0.4826365 0.5790694
vt 0.4826365 0.605141
vt 0.4656393 0.605141
vt 0.4483979 0.5790694
vt 0.4653952 0.5790694
vt 0.4653952 0.605141
vt 0.4483979 0.605141
vt 0.4311565 0.5790694
vt 0.4481538 0.5790694
vt 0.4481538 0.605141
vt 0.4311565 0.605141
vt 0.4139152 0.5790694
vt 0.4309124 0.5790694
vt 0.4309124 0.605141
vt 0.4139152 0.605141
vt 0.3966738 0.5790694
vt 0.413671 0.5790694
vt 0.413671 0.605141
vt 0.3966738 0.605141
vt 0.3794324 0.5790694
vt 0.3964297 0.5790694
vt 0.3964297 0.605141
vt 0.3794324 0.605141
vt 0.362191 0.5790694
vt 0.3791883 0.5790694
vt 0.3791883 0.605141
vt 0.362191 0.605141
vt 0.3449497 0.5790694
vt 0.3619469 0.5790694
vt 0.3619469 0.605141
vt 0.3449497 0.605141
vt 0.3277083 0.5790694
vt 0.3447055 0.5790694
vt 0.3447055 0.605141
vt 0.3277083 0.605141
vt 0.3104669 0.5790694
vt 0.3274641 0.5790694
vt 0.3274641 0.605141
vt 0.3104669 0.605141
vt 0.2932255 0.5790694
vt 0.3102227 0.5790694
vt 0.3102227 0.605141
vt 0.2932255 0.605141
vt 0.2587427 0.3948589
vt 0.27574 0.3948589
vt 0.27574 0.4209306
vt 0.2587427 0.4209306
vt 0.2415014 0.3948589
vt 0.2584986 0.3948589
vt 0.2584986 0.4209306
vt 0.2415014 0.4209306
vt 0.22426 0.3948589
vt 0.2412572 0.3948589
vt 0.2412572 0.4209306
vt 0.22426 0.4209306
vt 0.2070186 0.3948589
vt 0.2240159 0.3948589
vt 0.2240159 0.4209306
vt 0.2070186 0.4209306
vt 0.1897772 0.3948589
vt 0.2067745 0.3948589
vt 0.2067745 0.4209306
vt 0.1897772 0.4209306
vt 0.1725359 0.3948589
vt 0.1895331 0.3948589
vt 0.1895331 0.4209306
vt 0.1725359 0.4209306
vt 0.2070186 0.8422273
vt 0.2240159 0.8422273
vt 0.2240159 0.868299
vt 0.2070186 0.868299
vt 0.2932255 0.8422273
vt 0.3102227 0.8422273
vt 0.3102227 0.868299
vt 0.2932255 0.868299
vt 0.2759841 0.8422273
vt 0.2929814 0.8422273
vt 0.2929814 0.868299
vt 0.2759841 0.868299
vt 0.2587427 0.8422273
vt 0.27574 0.8422273
vt 0.27574 0.868299
vt 0.2587427 0.868299
vt 0.2415014 0.8422273
vt 0.2584986 0.8422273
vt 0.2584986 0.868299
vt 0.2415014 0.868299
vt 0.22426 0.8422273
vt 0.2412572 0.8422273
vt 0.2412572 0.868299
vt 0.22426 0.868299
vt 0.2587427 0.5790694
vt 0.27574 0.5790694
vt 0.27574 0.605141
vt 0.2587427 0.605141
vt 0.2415014 0.5790694
vt 0.2584986 0.5790694
vt 0.2584986 0.605141
vt 0.2415014 0.605141
vt 0.22426 0.5790694
vt 0.2412572 0.5790694
vt 0.2412572 0.605141
vt 0.22426 0.605141
vt 0.2070186 0.5790694
vt 0.2240159 0.5790694
vt 0.2240159 0.605141
vt 0.2070186 0.605141
vt 0.1897772 0.5790694
vt 0.2067745 0.5790694
vt 0.2067745 0.605141
vt 0.1897772 0.605141
vt 0.2759841 0.131701
vt 0.2929814 0.131701
vt 0.2929814 0.1577727
vt 0.2759841 0.1577727
vt 0.2587427 0.131701
vt 0.27574 0.131701
vt 0.27574 0.1577727
vt 0.2587427 0.1577727
vt 0.2415014 0.131701
vt 0.2584986 0.131701
vt 0.2584986 0.1577727
vt 0.2415014 0.1577727
vt 0.22426 0.131701
vt 0.2412572 0.131701
vt 0.2412572 0.1577727
vt 0.22426 0.1577727
vt 0.2070186 0.131701
vt 0.2240159 0.131701
vt 0.2240159 0.1577727
vt 0.2070186 0.1577727
vt 0.1897772 0.131701
vt 0.2067745 0.131701
vt 0.2067745 0.1577727
vt 0.1897772 0.1577727

# Normal
vn 0 0 -1

# Mesh description
g LNHS_mesh_0006

# Faces
f 1/1/1 2/2/1 3/3/1 4/4/1
f 5/5/1 6/6/1 7/7/1 8/8/1
f 9/9/1 10/10/1 11/11/1 12/12/1
f 13/13/1 14/14/1 15/15/1 16/16/1
f 17/17/1 18/18/1 19/19/1 20/20/1
f 21/21/1 22/22/1 23/23/1 24/24/1
f 25/25/1 26/26/1 27/27/1 28/28/1
f 29/29/1 30/30/1 31/31/1 32/32/1
f 33/33/1 34/34/1 35/35/1 36/36/1
f 37/37/1 38/38/1 39/39/1 40/40/1
f 41/41/1 42/42/1 43/43/1 44/44/1
f 45/45/1 46/46/1 47/47/1 48/48/1
f 49/49/1 50/50/1 51/51/1 52/52/1
f 53/53/1 54/54/1 55/55/1 56/56/1
f 57/57/1 58/58/1 59/59/1 60/60/1
f 61/61/1 62/62/1 63/63/1 64/64/1
f 65/65/1 66/66/1 67/67/1 68/68/1
f 69/69/1 70/70/1 71/71/1 72/72/1
f 73/73/1 74/74/1 75/75/1 76/76/1
f 77/77/1 78/78/1 79/79/1 80/80/1
f 81/81/1 82/82/1 83/83/1 84/84/1
f 85/85/1 86/86/1 87/87/1 88/88/1
f 89/89/1 90/90/1 91/91/1 92/92/1
f 93/69/1 94/70/1 95/71/1 96/72/1
f 97/93/1 98/94/1 99/95/1 100/96/1
f 101/97/1 102/98/1 103/99/1 104/100/1
f 105/101/1 106/102/1 107/103/1 108/104/1
f 109/105/1 110/106/1 111/107/1 112/108/1
f 113/109/1 114/110/1 115/111/1 116/112/1
f 117/113/1 118/114/1 119/115/1 120/116/1
f 121/117/1 122/118/1 123/119/1 124/120/1
f 125/121/1 126/122/1 127/123/1 128/124/1
f 129/125/1 130/126/1 131/127/1 132/128/1
f 133/129/1 134/130/1 135/131/1 136/132/1
f 137/133/1 138/134/1 139/135/1 140/136/1
f 141/113/1 142/114/1 143/115/1 144/116/1
f 145/117/1 146/118/1 147/119/1 148/120/1
f 149/121/1 150/122/1 151/123/1 152/124/1
f 153/125/1 154/126/1 155/127/1 156/128/1
f 157/129/1 158/130/1 159/131/1 160/132/1
f 161/133/1 162/134/1 163/135/1 164/136/1
f 165/113/1 166/114/1 167/115/1 168/116/1
f 169/117/1 170/118/1 171/119/1 172/120/1
f 173/121/1 174/122/1 175/123/1 176/124/1
f 177/125/1 178/126/1 179/127/1 180/128/1
f 181/129/1 182/130/1 183/131/1 184/132/1
f 185/133/1 186/134/1 187/135/1 188/136/1

