# Tiled2Unity generated file. Do not modify by hand.
# Wavefront file for 'ira_mesh_0007.obj'

# Vertices (Count = 52)
v -23 -19 0
v -24 -19 0
v -24 -18 0
v -23 -18 0
v -22 -19 0
v -23 -19 0
v -23 -18 0
v -22 -18 0
v -21 -19 0
v -22 -19 0
v -22 -18 0
v -21 -18 0
v -20 -19 0
v -21 -19 0
v -21 -18 0
v -20 -18 0
v -19 -19 0
v -20 -19 0
v -20 -18 0
v -19 -18 0
v -18 -19 0
v -19 -19 0
v -19 -18 0
v -18 -18 0
v -17 -19 0
v -18 -19 0
v -18 -18 0
v -17 -18 0
v -23 -20 0
v -24 -20 0
v -24 -19 0
v -23 -19 0
v -22 -20 0
v -23 -20 0
v -23 -19 0
v -22 -19 0
v -21 -20 0
v -22 -20 0
v -22 -19 0
v -21 -19 0
v -20 -20 0
v -21 -20 0
v -21 -19 0
v -20 -19 0
v -19 -20 0
v -20 -20 0
v -20 -19 0
v -19 -19 0
v -18 -20 0
v -19 -20 0
v -19 -19 0
v -18 -19 0

# Texture cooridinates (Count = 52)
vt 0.9656393 0.7369642
vt 0.9826366 0.7369642
vt 0.9826366 0.7630358
vt 0.9656393 0.7630358
vt 0.9483979 0.7369642
vt 0.9653952 0.7369642
vt 0.9653952 0.7630358
vt 0.9483979 0.7630358
vt 0.9311566 0.7369642
vt 0.9481538 0.7369642
vt 0.9481538 0.7630358
vt 0.9311566 0.7630358
vt 0.9139152 0.7369642
vt 0.9309124 0.7369642
vt 0.9309124 0.7630358
vt 0.9139152 0.7630358
vt 0.8966738 0.7369642
vt 0.913671 0.7369642
vt 0.913671 0.7630358
vt 0.8966738 0.7630358
vt 0.8794324 0.7369642
vt 0.8964297 0.7369642
vt 0.8964297 0.7630358
vt 0.8794324 0.7630358
vt 0.862191 0.7369642
vt 0.8791883 0.7369642
vt 0.8791883 0.7630358
vt 0.862191 0.7630358
vt 0.9656393 0.7106484
vt 0.9826366 0.7106484
vt 0.9826366 0.73672
vt 0.9656393 0.73672
vt 0.9483979 0.7106484
vt 0.9653952 0.7106484
vt 0.9653952 0.73672
vt 0.9483979 0.73672
vt 0.9311566 0.7106484
vt 0.9481538 0.7106484
vt 0.9481538 0.73672
vt 0.9311566 0.73672
vt 0.9139152 0.7106484
vt 0.9309124 0.7106484
vt 0.9309124 0.73672
vt 0.9139152 0.73672
vt 0.8966738 0.7106484
vt 0.913671 0.7106484
vt 0.913671 0.73672
vt 0.8966738 0.73672
vt 0.8794324 0.7106484
vt 0.8964297 0.7106484
vt 0.8964297 0.73672
vt 0.8794324 0.73672

# Normal
vn 0 0 -1

# Mesh description
g ira_mesh_0007

# Faces
f 1/1/1 2/2/1 3/3/1 4/4/1
f 5/5/1 6/6/1 7/7/1 8/8/1
f 9/9/1 10/10/1 11/11/1 12/12/1
f 13/13/1 14/14/1 15/15/1 16/16/1
f 17/17/1 18/18/1 19/19/1 20/20/1
f 21/21/1 22/22/1 23/23/1 24/24/1
f 25/25/1 26/26/1 27/27/1 28/28/1
f 29/29/1 30/30/1 31/31/1 32/32/1
f 33/33/1 34/34/1 35/35/1 36/36/1
f 37/37/1 38/38/1 39/39/1 40/40/1
f 41/41/1 42/42/1 43/43/1 44/44/1
f 45/45/1 46/46/1 47/47/1 48/48/1
f 49/49/1 50/50/1 51/51/1 52/52/1

