# Tiled2Unity generated file. Do not modify by hand.
# Wavefront file for 'PitShop_mesh_0008.obj'

# Vertices (Count = 144)
v -41 -1 0
v -42 -1 0
v -42 0 0
v -41 0 0
v -40 -1 0
v -41 -1 0
v -41 0 0
v -40 0 0
v -39 -1 0
v -40 -1 0
v -40 0 0
v -39 0 0
v -38 -1 0
v -39 -1 0
v -39 0 0
v -38 0 0
v -29 -4 0
v -30 -4 0
v -30 -3 0
v -29 -3 0
v -28 -4 0
v -29 -4 0
v -29 -3 0
v -28 -3 0
v -27 -4 0
v -28 -4 0
v -28 -3 0
v -27 -3 0
v -12 -14 0
v -13 -14 0
v -13 -13 0
v -12 -13 0
v -11 -14 0
v -12 -14 0
v -12 -13 0
v -11 -13 0
v -10 -14 0
v -11 -14 0
v -11 -13 0
v -10 -13 0
v -9 -14 0
v -10 -14 0
v -10 -13 0
v -9 -13 0
v -8 -14 0
v -9 -14 0
v -9 -13 0
v -8 -13 0
v -27 -26 0
v -28 -26 0
v -28 -25 0
v -27 -25 0
v -26 -26 0
v -27 -26 0
v -27 -25 0
v -26 -25 0
v -25 -26 0
v -26 -26 0
v -26 -25 0
v -25 -25 0
v -24 -26 0
v -25 -26 0
v -25 -25 0
v -24 -25 0
v -23 -26 0
v -24 -26 0
v -24 -25 0
v -23 -25 0
v -22 -26 0
v -23 -26 0
v -23 -25 0
v -22 -25 0
v -27 -27 0
v -28 -27 0
v -28 -26 0
v -27 -26 0
v -26 -27 0
v -27 -27 0
v -27 -26 0
v -26 -26 0
v -25 -27 0
v -26 -27 0
v -26 -26 0
v -25 -26 0
v -24 -27 0
v -25 -27 0
v -25 -26 0
v -24 -26 0
v -23 -27 0
v -24 -27 0
v -24 -26 0
v -23 -26 0
v -22 -27 0
v -23 -27 0
v -23 -26 0
v -22 -26 0
v -27 -28 0
v -28 -28 0
v -28 -27 0
v -27 -27 0
v -26 -28 0
v -27 -28 0
v -27 -27 0
v -26 -27 0
v -25 -28 0
v -26 -28 0
v -26 -27 0
v -25 -27 0
v -24 -28 0
v -25 -28 0
v -25 -27 0
v -24 -27 0
v -23 -28 0
v -24 -28 0
v -24 -27 0
v -23 -27 0
v -22 -28 0
v -23 -28 0
v -23 -27 0
v -22 -27 0
v -27 -29 0
v -28 -29 0
v -28 -28 0
v -27 -28 0
v -26 -29 0
v -27 -29 0
v -27 -28 0
v -26 -28 0
v -25 -29 0
v -26 -29 0
v -26 -28 0
v -25 -28 0
v -24 -29 0
v -25 -29 0
v -25 -28 0
v -24 -28 0
v -23 -29 0
v -24 -29 0
v -24 -28 0
v -23 -28 0
v -22 -29 0
v -23 -29 0
v -23 -28 0
v -22 -28 0

# Texture cooridinates (Count = 132)
vt 0.3794324 0.9738063
vt 0.3964297 0.9738063
vt 0.3964297 0.9998779
vt 0.3794324 0.9998779
vt 0.362191 0.9738063
vt 0.3791883 0.9738063
vt 0.3791883 0.9998779
vt 0.362191 0.9998779
vt 0.3449497 0.9738063
vt 0.3619469 0.9738063
vt 0.3619469 0.9998779
vt 0.3449497 0.9998779
vt 0.3277083 0.9738063
vt 0.3447055 0.9738063
vt 0.3447055 0.9998779
vt 0.3277083 0.9998779
vt 0.72426 0.7369642
vt 0.7412573 0.7369642
vt 0.7412573 0.7630358
vt 0.72426 0.7630358
vt 0.7070186 0.7369642
vt 0.7240158 0.7369642
vt 0.7240158 0.7630358
vt 0.7070186 0.7630358
vt 0.6897773 0.7369642
vt 0.7067745 0.7369642
vt 0.7067745 0.7630358
vt 0.6897773 0.7630358
vt 0.6725358 0.7369642
vt 0.6895331 0.7369642
vt 0.6895331 0.7630358
vt 0.6725358 0.7630358
vt 0.6552945 0.7369642
vt 0.6722917 0.7369642
vt 0.6722917 0.7630358
vt 0.6552945 0.7630358
vt 0.5690876 0.5527537
vt 0.5860848 0.5527537
vt 0.5860848 0.5788253
vt 0.5690876 0.5788253
vt 0.5518462 0.5527537
vt 0.5688434 0.5527537
vt 0.5688434 0.5788253
vt 0.5518462 0.5788253
vt 0.5346048 0.5527537
vt 0.5516021 0.5527537
vt 0.5516021 0.5788253
vt 0.5346048 0.5788253
vt 0.5173634 0.5527537
vt 0.5343607 0.5527537
vt 0.5343607 0.5788253
vt 0.5173634 0.5788253
vt 0.5001221 0.5527537
vt 0.5171193 0.5527537
vt 0.5171193 0.5788253
vt 0.5001221 0.5788253
vt 0.4828807 0.5527537
vt 0.4998779 0.5527537
vt 0.4998779 0.5788253
vt 0.4828807 0.5788253
vt 0.5690876 0.5264379
vt 0.5860848 0.5264379
vt 0.5860848 0.5525095
vt 0.5690876 0.5525095
vt 0.5518462 0.5264379
vt 0.5688434 0.5264379
vt 0.5688434 0.5525095
vt 0.5518462 0.5525095
vt 0.5346048 0.5264379
vt 0.5516021 0.5264379
vt 0.5516021 0.5525095
vt 0.5346048 0.5525095
vt 0.5173634 0.5264379
vt 0.5343607 0.5264379
vt 0.5343607 0.5525095
vt 0.5173634 0.5525095
vt 0.5001221 0.5264379
vt 0.5171193 0.5264379
vt 0.5171193 0.5525095
vt 0.5001221 0.5525095
vt 0.4828807 0.5264379
vt 0.4998779 0.5264379
vt 0.4998779 0.5525095
vt 0.4828807 0.5525095
vt 0.5690876 0.5001221
vt 0.5860848 0.5001221
vt 0.5860848 0.5261937
vt 0.5690876 0.5261937
vt 0.5518462 0.5001221
vt 0.5688434 0.5001221
vt 0.5688434 0.5261937
vt 0.5518462 0.5261937
vt 0.5346048 0.5001221
vt 0.5516021 0.5001221
vt 0.5516021 0.5261937
vt 0.5346048 0.5261937
vt 0.5173634 0.5001221
vt 0.5343607 0.5001221
vt 0.5343607 0.5261937
vt 0.5173634 0.5261937
vt 0.5001221 0.5001221
vt 0.5171193 0.5001221
vt 0.5171193 0.5261937
vt 0.5001221 0.5261937
vt 0.4828807 0.5001221
vt 0.4998779 0.5001221
vt 0.4998779 0.5261937
vt 0.4828807 0.5261937
vt 0.5690876 0.4738063
vt 0.5860848 0.4738063
vt 0.5860848 0.4998779
vt 0.5690876 0.4998779
vt 0.5518462 0.4738063
vt 0.5688434 0.4738063
vt 0.5688434 0.4998779
vt 0.5518462 0.4998779
vt 0.5346048 0.4738063
vt 0.5516021 0.4738063
vt 0.5516021 0.4998779
vt 0.5346048 0.4998779
vt 0.5173634 0.4738063
vt 0.5343607 0.4738063
vt 0.5343607 0.4998779
vt 0.5173634 0.4998779
vt 0.5001221 0.4738063
vt 0.5171193 0.4738063
vt 0.5171193 0.4998779
vt 0.5001221 0.4998779
vt 0.4828807 0.4738063
vt 0.4998779 0.4738063
vt 0.4998779 0.4998779
vt 0.4828807 0.4998779

# Normal
vn 0 0 -1

# Mesh description
g PitShop_mesh_0008

# Faces
f 1/1/1 2/2/1 3/3/1 4/4/1
f 5/5/1 6/6/1 7/7/1 8/8/1
f 9/9/1 10/10/1 11/11/1 12/12/1
f 13/13/1 14/14/1 15/15/1 16/16/1
f 17/5/1 18/6/1 19/7/1 20/8/1
f 21/9/1 22/10/1 23/11/1 24/12/1
f 25/13/1 26/14/1 27/15/1 28/16/1
f 29/17/1 30/18/1 31/19/1 32/20/1
f 33/21/1 34/22/1 35/23/1 36/24/1
f 37/25/1 38/26/1 39/27/1 40/28/1
f 41/29/1 42/30/1 43/31/1 44/32/1
f 45/33/1 46/34/1 47/35/1 48/36/1
f 49/37/1 50/38/1 51/39/1 52/40/1
f 53/41/1 54/42/1 55/43/1 56/44/1
f 57/45/1 58/46/1 59/47/1 60/48/1
f 61/49/1 62/50/1 63/51/1 64/52/1
f 65/53/1 66/54/1 67/55/1 68/56/1
f 69/57/1 70/58/1 71/59/1 72/60/1
f 73/61/1 74/62/1 75/63/1 76/64/1
f 77/65/1 78/66/1 79/67/1 80/68/1
f 81/69/1 82/70/1 83/71/1 84/72/1
f 85/73/1 86/74/1 87/75/1 88/76/1
f 89/77/1 90/78/1 91/79/1 92/80/1
f 93/81/1 94/82/1 95/83/1 96/84/1
f 97/85/1 98/86/1 99/87/1 100/88/1
f 101/89/1 102/90/1 103/91/1 104/92/1
f 105/93/1 106/94/1 107/95/1 108/96/1
f 109/97/1 110/98/1 111/99/1 112/100/1
f 113/101/1 114/102/1 115/103/1 116/104/1
f 117/105/1 118/106/1 119/107/1 120/108/1
f 121/109/1 122/110/1 123/111/1 124/112/1
f 125/113/1 126/114/1 127/115/1 128/116/1
f 129/117/1 130/118/1 131/119/1 132/120/1
f 133/121/1 134/122/1 135/123/1 136/124/1
f 137/125/1 138/126/1 139/127/1 140/128/1
f 141/129/1 142/130/1 143/131/1 144/132/1

