# Tiled2Unity generated file. Do not modify by hand.
# Wavefront file for 'PitShop_mesh_0004.obj'

# Vertices (Count = 680)
v -12 -2 0
v -13 -2 0
v -13 -1 0
v -12 -1 0
v -11 -2 0
v -12 -2 0
v -12 -1 0
v -11 -1 0
v -10 -2 0
v -11 -2 0
v -11 -1 0
v -10 -1 0
v -9 -2 0
v -10 -2 0
v -10 -1 0
v -9 -1 0
v -24 -3 0
v -25 -3 0
v -25 -2 0
v -24 -2 0
v -23 -3 0
v -24 -3 0
v -24 -2 0
v -23 -2 0
v -22 -3 0
v -23 -3 0
v -23 -2 0
v -22 -2 0
v -12 -3 0
v -13 -3 0
v -13 -2 0
v -12 -2 0
v -11 -3 0
v -12 -3 0
v -12 -2 0
v -11 -2 0
v -10 -3 0
v -11 -3 0
v -11 -2 0
v -10 -2 0
v -9 -3 0
v -10 -3 0
v -10 -2 0
v -9 -2 0
v -12 -4 0
v -13 -4 0
v -13 -3 0
v -12 -3 0
v -11 -4 0
v -12 -4 0
v -12 -3 0
v -11 -3 0
v -10 -4 0
v -11 -4 0
v -11 -3 0
v -10 -3 0
v -9 -4 0
v -10 -4 0
v -10 -3 0
v -9 -3 0
v -11 -5 0
v -12 -5 0
v -12 -4 0
v -11 -4 0
v -10 -5 0
v -11 -5 0
v -11 -4 0
v -10 -4 0
v -11 -6 0
v -12 -6 0
v -12 -5 0
v -11 -5 0
v -10 -6 0
v -11 -6 0
v -11 -5 0
v -10 -5 0
v -23 -10 0
v -24 -10 0
v -24 -9 0
v -23 -9 0
v -22 -10 0
v -23 -10 0
v -23 -9 0
v -22 -9 0
v -21 -10 0
v -22 -10 0
v -22 -9 0
v -21 -9 0
v -11 -10 0
v -12 -10 0
v -12 -9 0
v -11 -9 0
v -10 -10 0
v -11 -10 0
v -11 -9 0
v -10 -9 0
v -9 -10 0
v -10 -10 0
v -10 -9 0
v -9 -9 0
v -36 -11 0
v -37 -11 0
v -37 -10 0
v -36 -10 0
v -35 -11 0
v -36 -11 0
v -36 -10 0
v -35 -10 0
v -23 -11 0
v -24 -11 0
v -24 -10 0
v -23 -10 0
v -22 -11 0
v -23 -11 0
v -23 -10 0
v -22 -10 0
v -21 -11 0
v -22 -11 0
v -22 -10 0
v -21 -10 0
v -36 -12 0
v -37 -12 0
v -37 -11 0
v -36 -11 0
v -35 -12 0
v -36 -12 0
v -36 -11 0
v -35 -11 0
v -4 -12 0
v -5 -12 0
v -5 -11 0
v -4 -11 0
v -3 -12 0
v -4 -12 0
v -4 -11 0
v -3 -11 0
v -2 -12 0
v -3 -12 0
v -3 -11 0
v -2 -11 0
v -23 -13 0
v -24 -13 0
v -24 -12 0
v -23 -12 0
v -22 -13 0
v -23 -13 0
v -23 -12 0
v -22 -12 0
v -21 -13 0
v -22 -13 0
v -22 -12 0
v -21 -12 0
v -23 -16 0
v -24 -16 0
v -24 -15 0
v -23 -15 0
v -22 -16 0
v -23 -16 0
v -23 -15 0
v -22 -15 0
v -27 -17 0
v -28 -17 0
v -28 -16 0
v -27 -16 0
v -25 -17 0
v -26 -17 0
v -26 -16 0
v -25 -16 0
v -24 -17 0
v -25 -17 0
v -25 -16 0
v -24 -16 0
v -23 -17 0
v -24 -17 0
v -24 -16 0
v -23 -16 0
v -22 -17 0
v -23 -17 0
v -23 -16 0
v -22 -16 0
v -40 -18 0
v -41 -18 0
v -41 -17 0
v -40 -17 0
v -39 -18 0
v -40 -18 0
v -40 -17 0
v -39 -17 0
v -38 -18 0
v -39 -18 0
v -39 -17 0
v -38 -17 0
v -29 -18 0
v -30 -18 0
v -30 -17 0
v -29 -17 0
v -28 -18 0
v -29 -18 0
v -29 -17 0
v -28 -17 0
v -27 -18 0
v -28 -18 0
v -28 -17 0
v -27 -17 0
v -25 -18 0
v -26 -18 0
v -26 -17 0
v -25 -17 0
v -24 -18 0
v -25 -18 0
v -25 -17 0
v -24 -17 0
v -23 -18 0
v -24 -18 0
v -24 -17 0
v -23 -17 0
v -22 -18 0
v -23 -18 0
v -23 -17 0
v -22 -17 0
v -40 -19 0
v -41 -19 0
v -41 -18 0
v -40 -18 0
v -39 -19 0
v -40 -19 0
v -40 -18 0
v -39 -18 0
v -38 -19 0
v -39 -19 0
v -39 -18 0
v -38 -18 0
v -29 -19 0
v -30 -19 0
v -30 -18 0
v -29 -18 0
v -28 -19 0
v -29 -19 0
v -29 -18 0
v -28 -18 0
v -27 -19 0
v -28 -19 0
v -28 -18 0
v -27 -18 0
v -25 -19 0
v -26 -19 0
v -26 -18 0
v -25 -18 0
v -24 -19 0
v -25 -19 0
v -25 -18 0
v -24 -18 0
v -23 -19 0
v -24 -19 0
v -24 -18 0
v -23 -18 0
v -22 -19 0
v -23 -19 0
v -23 -18 0
v -22 -18 0
v -21 -19 0
v -22 -19 0
v -22 -18 0
v -21 -18 0
v -20 -19 0
v -21 -19 0
v -21 -18 0
v -20 -18 0
v -46 -20 0
v -47 -20 0
v -47 -19 0
v -46 -19 0
v -45 -20 0
v -46 -20 0
v -46 -19 0
v -45 -19 0
v -29 -20 0
v -30 -20 0
v -30 -19 0
v -29 -19 0
v -28 -20 0
v -29 -20 0
v -29 -19 0
v -28 -19 0
v -27 -20 0
v -28 -20 0
v -28 -19 0
v -27 -19 0
v -26 -20 0
v -27 -20 0
v -27 -19 0
v -26 -19 0
v -21 -20 0
v -22 -20 0
v -22 -19 0
v -21 -19 0
v -20 -20 0
v -21 -20 0
v -21 -19 0
v -20 -19 0
v -48 -21 0
v -49 -21 0
v -49 -20 0
v -48 -20 0
v -47 -21 0
v -48 -21 0
v -48 -20 0
v -47 -20 0
v -40 -21 0
v -41 -21 0
v -41 -20 0
v -40 -20 0
v -39 -21 0
v -40 -21 0
v -40 -20 0
v -39 -20 0
v -38 -21 0
v -39 -21 0
v -39 -20 0
v -38 -20 0
v -29 -21 0
v -30 -21 0
v -30 -20 0
v -29 -20 0
v -48 -22 0
v -49 -22 0
v -49 -21 0
v -48 -21 0
v -47 -22 0
v -48 -22 0
v -48 -21 0
v -47 -21 0
v -16 -22 0
v -17 -22 0
v -17 -21 0
v -16 -21 0
v -15 -22 0
v -16 -22 0
v -16 -21 0
v -15 -21 0
v -14 -22 0
v -15 -22 0
v -15 -21 0
v -14 -21 0
v -22 -23 0
v -23 -23 0
v -23 -22 0
v -22 -22 0
v -44 -24 0
v -45 -24 0
v -45 -23 0
v -44 -23 0
v -43 -24 0
v -44 -24 0
v -44 -23 0
v -43 -23 0
v -42 -24 0
v -43 -24 0
v -43 -23 0
v -42 -23 0
v -37 -24 0
v -38 -24 0
v -38 -23 0
v -37 -23 0
v -36 -24 0
v -37 -24 0
v -37 -23 0
v -36 -23 0
v -33 -24 0
v -34 -24 0
v -34 -23 0
v -33 -23 0
v -4 -24 0
v -5 -24 0
v -5 -23 0
v -4 -23 0
v -44 -25 0
v -45 -25 0
v -45 -24 0
v -44 -24 0
v -43 -25 0
v -44 -25 0
v -44 -24 0
v -43 -24 0
v -42 -25 0
v -43 -25 0
v -43 -24 0
v -42 -24 0
v -9 -25 0
v -10 -25 0
v -10 -24 0
v -9 -24 0
v -4 -25 0
v -5 -25 0
v -5 -24 0
v -4 -24 0
v -44 -26 0
v -45 -26 0
v -45 -25 0
v -44 -25 0
v -43 -26 0
v -44 -26 0
v -44 -25 0
v -43 -25 0
v -42 -26 0
v -43 -26 0
v -43 -25 0
v -42 -25 0
v -11 -26 0
v -12 -26 0
v -12 -25 0
v -11 -25 0
v -10 -26 0
v -11 -26 0
v -11 -25 0
v -10 -25 0
v -9 -26 0
v -10 -26 0
v -10 -25 0
v -9 -25 0
v -40 -27 0
v -41 -27 0
v -41 -26 0
v -40 -26 0
v -39 -27 0
v -40 -27 0
v -40 -26 0
v -39 -26 0
v -38 -27 0
v -39 -27 0
v -39 -26 0
v -38 -26 0
v -12 -27 0
v -13 -27 0
v -13 -26 0
v -12 -26 0
v -11 -27 0
v -12 -27 0
v -12 -26 0
v -11 -26 0
v -9 -27 0
v -10 -27 0
v -10 -26 0
v -9 -26 0
v -8 -27 0
v -9 -27 0
v -9 -26 0
v -8 -26 0
v -40 -28 0
v -41 -28 0
v -41 -27 0
v -40 -27 0
v -39 -28 0
v -40 -28 0
v -40 -27 0
v -39 -27 0
v -38 -28 0
v -39 -28 0
v -39 -27 0
v -38 -27 0
v -21 -28 0
v -22 -28 0
v -22 -27 0
v -21 -27 0
v -20 -28 0
v -21 -28 0
v -21 -27 0
v -20 -27 0
v -12 -28 0
v -13 -28 0
v -13 -27 0
v -12 -27 0
v -11 -28 0
v -12 -28 0
v -12 -27 0
v -11 -27 0
v -10 -28 0
v -11 -28 0
v -11 -27 0
v -10 -27 0
v -9 -28 0
v -10 -28 0
v -10 -27 0
v -9 -27 0
v -8 -28 0
v -9 -28 0
v -9 -27 0
v -8 -27 0
v -40 -29 0
v -41 -29 0
v -41 -28 0
v -40 -28 0
v -39 -29 0
v -40 -29 0
v -40 -28 0
v -39 -28 0
v -38 -29 0
v -39 -29 0
v -39 -28 0
v -38 -28 0
v -34 -29 0
v -35 -29 0
v -35 -28 0
v -34 -28 0
v -33 -29 0
v -34 -29 0
v -34 -28 0
v -33 -28 0
v -12 -29 0
v -13 -29 0
v -13 -28 0
v -12 -28 0
v -11 -29 0
v -12 -29 0
v -12 -28 0
v -11 -28 0
v -10 -29 0
v -11 -29 0
v -11 -28 0
v -10 -28 0
v -8 -29 0
v -9 -29 0
v -9 -28 0
v -8 -28 0
v -7 -29 0
v -8 -29 0
v -8 -28 0
v -7 -28 0
v -40 -30 0
v -41 -30 0
v -41 -29 0
v -40 -29 0
v -39 -30 0
v -40 -30 0
v -40 -29 0
v -39 -29 0
v -38 -30 0
v -39 -30 0
v -39 -29 0
v -38 -29 0
v -34 -30 0
v -35 -30 0
v -35 -29 0
v -34 -29 0
v -33 -30 0
v -34 -30 0
v -34 -29 0
v -33 -29 0
v -29 -30 0
v -30 -30 0
v -30 -29 0
v -29 -29 0
v -28 -30 0
v -29 -30 0
v -29 -29 0
v -28 -29 0
v -26 -30 0
v -27 -30 0
v -27 -29 0
v -26 -29 0
v -25 -30 0
v -26 -30 0
v -26 -29 0
v -25 -29 0
v -24 -30 0
v -25 -30 0
v -25 -29 0
v -24 -29 0
v -23 -30 0
v -24 -30 0
v -24 -29 0
v -23 -29 0
v -15 -30 0
v -16 -30 0
v -16 -29 0
v -15 -29 0
v -14 -30 0
v -15 -30 0
v -15 -29 0
v -14 -29 0
v -12 -30 0
v -13 -30 0
v -13 -29 0
v -12 -29 0
v -10 -30 0
v -11 -30 0
v -11 -29 0
v -10 -29 0
v -9 -30 0
v -10 -30 0
v -10 -29 0
v -9 -29 0
v -8 -30 0
v -9 -30 0
v -9 -29 0
v -8 -29 0
v -7 -30 0
v -8 -30 0
v -8 -29 0
v -7 -29 0
v -46 -33 0
v -47 -33 0
v -47 -32 0
v -46 -32 0
v -45 -33 0
v -46 -33 0
v -46 -32 0
v -45 -32 0
v -44 -33 0
v -45 -33 0
v -45 -32 0
v -44 -32 0
v -34 -33 0
v -35 -33 0
v -35 -32 0
v -34 -32 0
v -33 -33 0
v -34 -33 0
v -34 -32 0
v -33 -32 0
v -2 -33 0
v -3 -33 0
v -3 -32 0
v -2 -32 0
v -1 -33 0
v -2 -33 0
v -2 -32 0
v -1 -32 0
v 0 -33 0
v -1 -33 0
v -1 -32 0
v 0 -32 0
v -34 -34 0
v -35 -34 0
v -35 -33 0
v -34 -33 0
v -33 -34 0
v -34 -34 0
v -34 -33 0
v -33 -33 0
v -27 -34 0
v -28 -34 0
v -28 -33 0
v -27 -33 0
v -26 -34 0
v -27 -34 0
v -27 -33 0
v -26 -33 0
v -25 -34 0
v -26 -34 0
v -26 -33 0
v -25 -33 0
v -21 -34 0
v -22 -34 0
v -22 -33 0
v -21 -33 0
v -20 -34 0
v -21 -34 0
v -21 -33 0
v -20 -33 0
v -13 -34 0
v -14 -34 0
v -14 -33 0
v -13 -33 0
v -28 -35 0
v -29 -35 0
v -29 -34 0
v -28 -34 0
v -26 -35 0
v -27 -35 0
v -27 -34 0
v -26 -34 0
v -21 -35 0
v -22 -35 0
v -22 -34 0
v -21 -34 0
v -20 -35 0
v -21 -35 0
v -21 -34 0
v -20 -34 0

# Texture cooridinates (Count = 256)
vt 0.0625408 0.05567765
vt 0.0831029 0.05567765
vt 0.0831029 0.08321124
vt 0.0625408 0.08321124
vt 0.04173455 0.05567765
vt 0.06229666 0.05567765
vt 0.06229666 0.08321124
vt 0.04173455 0.08321124
vt 0.02092831 0.05567765
vt 0.04149041 0.05567765
vt 0.04149041 0.08321124
vt 0.02092831 0.08321124
vt 0.0001220703 0.05567765
vt 0.02068417 0.05567765
vt 0.02068417 0.08321124
vt 0.0001220703 0.08321124
vt 0.1041533 0.8334554
vt 0.1247154 0.8334554
vt 0.1247154 0.860989
vt 0.1041533 0.860989
vt 0.08334704 0.8334554
vt 0.1039091 0.8334554
vt 0.1039091 0.860989
vt 0.08334704 0.860989
vt 0.0625408 0.8334554
vt 0.0831029 0.8334554
vt 0.0831029 0.860989
vt 0.0625408 0.860989
vt 0.0625408 0.02789986
vt 0.0831029 0.02789986
vt 0.0831029 0.05543351
vt 0.0625408 0.05543351
vt 0.04173455 0.02789986
vt 0.06229666 0.02789986
vt 0.06229666 0.05543351
vt 0.04173455 0.05543351
vt 0.02092831 0.02789986
vt 0.04149041 0.02789986
vt 0.04149041 0.05543351
vt 0.02092831 0.05543351
vt 0.0001220703 0.02789986
vt 0.02068417 0.02789986
vt 0.02068417 0.05543351
vt 0.0001220703 0.05543351
vt 0.0625408 0.0001220703
vt 0.0831029 0.0001220703
vt 0.0831029 0.02765572
vt 0.0625408 0.02765572
vt 0.04173455 0.0001220703
vt 0.06229666 0.0001220703
vt 0.06229666 0.02765572
vt 0.04173455 0.02765572
vt 0.02092831 0.0001220703
vt 0.04149041 0.0001220703
vt 0.04149041 0.02765572
vt 0.02092831 0.02765572
vt 0.0001220703 0.0001220703
vt 0.02068417 0.0001220703
vt 0.02068417 0.02765572
vt 0.0001220703 0.02765572
vt 0.1041533 0.9445665
vt 0.1247154 0.9445665
vt 0.1247154 0.9721001
vt 0.1041533 0.9721001
vt 0.08334704 0.9445665
vt 0.1039091 0.9445665
vt 0.1039091 0.9721001
vt 0.08334704 0.9721001
vt 0.1041533 0.9167888
vt 0.1247154 0.9167888
vt 0.1247154 0.9443223
vt 0.1041533 0.9443223
vt 0.08334704 0.9167888
vt 0.1039091 0.9167888
vt 0.1039091 0.9443223
vt 0.08334704 0.9443223
vt 0.769953 0.6667887
vt 0.7905151 0.6667887
vt 0.7905151 0.6943223
vt 0.769953 0.6943223
vt 0.7491468 0.6667887
vt 0.7697089 0.6667887
vt 0.7697089 0.6943223
vt 0.7491468 0.6943223
vt 0.7283405 0.6667887
vt 0.7489026 0.6667887
vt 0.7489026 0.6943223
vt 0.7283405 0.6943223
vt 0.6659218 0.2223443
vt 0.6864839 0.2223443
vt 0.6864839 0.2498779
vt 0.6659218 0.2498779
vt 0.6451156 0.2223443
vt 0.6656777 0.2223443
vt 0.6656777 0.2498779
vt 0.6451156 0.2498779
vt 0.6243093 0.2223443
vt 0.6448714 0.2223443
vt 0.6448714 0.2498779
vt 0.6243093 0.2498779
vt 0.769953 0.639011
vt 0.7905151 0.639011
vt 0.7905151 0.6665446
vt 0.769953 0.6665446
vt 0.7491468 0.639011
vt 0.7697089 0.639011
vt 0.7697089 0.6665446
vt 0.7491468 0.6665446
vt 0.7283405 0.639011
vt 0.7489026 0.639011
vt 0.7489026 0.6665446
vt 0.7283405 0.6665446
vt 0.6243093 0.7778999
vt 0.6448714 0.7778999
vt 0.6448714 0.8054335
vt 0.6243093 0.8054335
vt 0.6035031 0.7778999
vt 0.6240652 0.7778999
vt 0.6240652 0.8054335
vt 0.6035031 0.8054335
vt 0.5826969 0.7778999
vt 0.603259 0.7778999
vt 0.603259 0.8054335
vt 0.5826969 0.8054335
vt 0.02092831 0.08345538
vt 0.04149041 0.08345538
vt 0.04149041 0.110989
vt 0.02092831 0.110989
vt 0.0001220703 0.08345538
vt 0.02068417 0.08345538
vt 0.02068417 0.110989
vt 0.0001220703 0.110989
vt 0.04173455 0.639011
vt 0.06229666 0.639011
vt 0.06229666 0.6665446
vt 0.04173455 0.6665446
vt 0.0625408 0.6667887
vt 0.0831029 0.6667887
vt 0.0831029 0.6943223
vt 0.0625408 0.6943223
vt 0.02092831 0.5278999
vt 0.04149041 0.5278999
vt 0.04149041 0.5554335
vt 0.02092831 0.5554335
vt 0.0001220703 0.5278999
vt 0.02068417 0.5278999
vt 0.02068417 0.5554335
vt 0.0001220703 0.5554335
vt 0.7283405 0.1945665
vt 0.7489026 0.1945665
vt 0.7489026 0.2221001
vt 0.7283405 0.2221001
vt 0.7075343 0.1945665
vt 0.7280964 0.1945665
vt 0.7280964 0.2221001
vt 0.7075343 0.2221001
vt 0.6867281 0.1945665
vt 0.7072902 0.1945665
vt 0.7072902 0.2221001
vt 0.6867281 0.2221001
vt 0.04173455 0.5834554
vt 0.06229666 0.5834554
vt 0.06229666 0.610989
vt 0.04173455 0.610989
vt 0.8115655 0.1667888
vt 0.8321276 0.1667888
vt 0.8321276 0.1943223
vt 0.8115655 0.1943223
vt 0.7907593 0.1667888
vt 0.8113214 0.1667888
vt 0.8113214 0.1943223
vt 0.7907593 0.1943223
vt 0.769953 0.1667888
vt 0.7905151 0.1667888
vt 0.7905151 0.1943223
vt 0.769953 0.1943223
vt 0.2081845 0.639011
vt 0.2287466 0.639011
vt 0.2287466 0.6665446
vt 0.2081845 0.6665446
vt 0.1873782 0.639011
vt 0.2079404 0.639011
vt 0.2079404 0.6665446
vt 0.1873782 0.6665446
vt 0.0001220703 0.5834554
vt 0.02068417 0.5834554
vt 0.02068417 0.610989
vt 0.0001220703 0.610989
vt 0.8115655 0.139011
vt 0.8321276 0.139011
vt 0.8321276 0.1665446
vt 0.8115655 0.1665446
vt 0.7907593 0.139011
vt 0.8113214 0.139011
vt 0.8113214 0.1665446
vt 0.7907593 0.1665446
vt 0.769953 0.139011
vt 0.7905151 0.139011
vt 0.7905151 0.1665446
vt 0.769953 0.1665446
vt 0.0001220703 0.5556777
vt 0.02068417 0.5556777
vt 0.02068417 0.5832113
vt 0.0001220703 0.5832113
vt 0.8115655 0.1112332
vt 0.8321276 0.1112332
vt 0.8321276 0.1387668
vt 0.8115655 0.1387668
vt 0.7907593 0.1112332
vt 0.8113214 0.1112332
vt 0.8113214 0.1387668
vt 0.7907593 0.1387668
vt 0.769953 0.1112332
vt 0.7905151 0.1112332
vt 0.7905151 0.1387668
vt 0.769953 0.1387668
vt 0.8739842 0.0001220703
vt 0.8945463 0.0001220703
vt 0.8945463 0.02765572
vt 0.8739842 0.02765572
vt 0.853178 0.0001220703
vt 0.8737401 0.0001220703
vt 0.8737401 0.02765572
vt 0.853178 0.02765572
vt 0.02092831 0.7501221
vt 0.04149041 0.7501221
vt 0.04149041 0.7776557
vt 0.02092831 0.7776557
vt 0.0001220703 0.7501221
vt 0.02068417 0.7501221
vt 0.02068417 0.7776557
vt 0.0001220703 0.7776557
vt 0.5202781 0.0001220703
vt 0.5408402 0.0001220703
vt 0.5408402 0.02765572
vt 0.5202781 0.02765572
vt 0.4994719 0.0001220703
vt 0.520034 0.0001220703
vt 0.520034 0.02765572
vt 0.4994719 0.02765572
vt 0.936403 0.1112332
vt 0.956965 0.1112332
vt 0.956965 0.1387668
vt 0.936403 0.1387668
vt 0.9572092 0.1112332
vt 0.9777713 0.1112332
vt 0.9777713 0.1387668
vt 0.9572092 0.1387668
vt 0.9155967 0.1112332
vt 0.9361588 0.1112332
vt 0.9361588 0.1387668
vt 0.9155967 0.1387668
vt 0.0625408 0.639011
vt 0.0831029 0.639011
vt 0.0831029 0.6665446
vt 0.0625408 0.6665446

# Normal
vn 0 0 -1

# Mesh description
g PitShop_mesh_0004

# Faces
f 1/1/1 2/2/1 3/3/1 4/4/1
f 5/5/1 6/6/1 7/7/1 8/8/1
f 9/9/1 10/10/1 11/11/1 12/12/1
f 13/13/1 14/14/1 15/15/1 16/16/1
f 17/17/1 18/18/1 19/19/1 20/20/1
f 21/21/1 22/22/1 23/23/1 24/24/1
f 25/25/1 26/26/1 27/27/1 28/28/1
f 29/29/1 30/30/1 31/31/1 32/32/1
f 33/33/1 34/34/1 35/35/1 36/36/1
f 37/37/1 38/38/1 39/39/1 40/40/1
f 41/41/1 42/42/1 43/43/1 44/44/1
f 45/45/1 46/46/1 47/47/1 48/48/1
f 49/49/1 50/50/1 51/51/1 52/52/1
f 53/53/1 54/54/1 55/55/1 56/56/1
f 57/57/1 58/58/1 59/59/1 60/60/1
f 61/61/1 62/62/1 63/63/1 64/64/1
f 65/65/1 66/66/1 67/67/1 68/68/1
f 69/69/1 70/70/1 71/71/1 72/72/1
f 73/73/1 74/74/1 75/75/1 76/76/1
f 77/77/1 78/78/1 79/79/1 80/80/1
f 81/81/1 82/82/1 83/83/1 84/84/1
f 85/85/1 86/86/1 87/87/1 88/88/1
f 89/89/1 90/90/1 91/91/1 92/92/1
f 93/93/1 94/94/1 95/95/1 96/96/1
f 97/97/1 98/98/1 99/99/1 100/100/1
f 101/61/1 102/62/1 103/63/1 104/64/1
f 105/65/1 106/66/1 107/67/1 108/68/1
f 109/101/1 110/102/1 111/103/1 112/104/1
f 113/105/1 114/106/1 115/107/1 116/108/1
f 117/109/1 118/110/1 119/111/1 120/112/1
f 121/69/1 122/70/1 123/71/1 124/72/1
f 125/73/1 126/74/1 127/75/1 128/76/1
f 129/17/1 130/18/1 131/19/1 132/20/1
f 133/21/1 134/22/1 135/23/1 136/24/1
f 137/25/1 138/26/1 139/27/1 140/28/1
f 141/113/1 142/114/1 143/115/1 144/116/1
f 145/117/1 146/118/1 147/119/1 148/120/1
f 149/121/1 150/122/1 151/123/1 152/124/1
f 153/125/1 154/126/1 155/127/1 156/128/1
f 157/129/1 158/130/1 159/131/1 160/132/1
f 161/133/1 162/134/1 163/135/1 164/136/1
f 165/1/1 166/2/1 167/3/1 168/4/1
f 169/5/1 170/6/1 171/7/1 172/8/1
f 173/9/1 174/10/1 175/11/1 176/12/1
f 177/13/1 178/14/1 179/15/1 180/16/1
f 181/77/1 182/78/1 183/79/1 184/80/1
f 185/81/1 186/82/1 187/83/1 188/84/1
f 189/85/1 190/86/1 191/87/1 192/88/1
f 193/133/1 194/134/1 195/135/1 196/136/1
f 197/133/1 198/134/1 199/135/1 200/136/1
f 201/133/1 202/134/1 203/135/1 204/136/1
f 205/29/1 206/30/1 207/31/1 208/32/1
f 209/33/1 210/34/1 211/35/1 212/36/1
f 213/37/1 214/38/1 215/39/1 216/40/1
f 217/41/1 218/42/1 219/43/1 220/44/1
f 221/101/1 222/102/1 223/103/1 224/104/1
f 225/105/1 226/106/1 227/107/1 228/108/1
f 229/109/1 230/110/1 231/111/1 232/112/1
f 233/133/1 234/134/1 235/135/1 236/136/1
f 237/137/1 238/138/1 239/139/1 240/140/1
f 241/137/1 242/138/1 243/139/1 244/140/1
f 245/45/1 246/46/1 247/47/1 248/48/1
f 249/49/1 250/50/1 251/51/1 252/52/1
f 253/53/1 254/54/1 255/55/1 256/56/1
f 257/57/1 258/58/1 259/59/1 260/60/1
f 261/61/1 262/62/1 263/63/1 264/64/1
f 265/65/1 266/66/1 267/67/1 268/68/1
f 269/141/1 270/142/1 271/143/1 272/144/1
f 273/145/1 274/146/1 275/147/1 276/148/1
f 277/137/1 278/138/1 279/139/1 280/140/1
f 281/137/1 282/138/1 283/139/1 284/140/1
f 285/133/1 286/134/1 287/135/1 288/136/1
f 289/133/1 290/134/1 291/135/1 292/136/1
f 293/69/1 294/70/1 295/71/1 296/72/1
f 297/73/1 298/74/1 299/75/1 300/76/1
f 301/61/1 302/62/1 303/63/1 304/64/1
f 305/65/1 306/66/1 307/67/1 308/68/1
f 309/113/1 310/114/1 311/115/1 312/116/1
f 313/117/1 314/118/1 315/119/1 316/120/1
f 317/121/1 318/122/1 319/123/1 320/124/1
f 321/137/1 322/138/1 323/139/1 324/140/1
f 325/69/1 326/70/1 327/71/1 328/72/1
f 329/73/1 330/74/1 331/75/1 332/76/1
f 333/149/1 334/150/1 335/151/1 336/152/1
f 337/153/1 338/154/1 339/155/1 340/156/1
f 341/157/1 342/158/1 343/159/1 344/160/1
f 345/161/1 346/162/1 347/163/1 348/164/1
f 349/165/1 350/166/1 351/167/1 352/168/1
f 353/169/1 354/170/1 355/171/1 356/172/1
f 357/173/1 358/174/1 359/175/1 360/176/1
f 361/177/1 362/178/1 363/179/1 364/180/1
f 365/181/1 366/182/1 367/183/1 368/184/1
f 369/161/1 370/162/1 371/163/1 372/164/1
f 373/185/1 374/186/1 375/187/1 376/188/1
f 377/189/1 378/190/1 379/191/1 380/192/1
f 381/193/1 382/194/1 383/195/1 384/196/1
f 385/197/1 386/198/1 387/199/1 388/200/1
f 389/137/1 390/138/1 391/139/1 392/140/1
f 393/201/1 394/202/1 395/203/1 396/204/1
f 397/205/1 398/206/1 399/207/1 400/208/1
f 401/209/1 402/210/1 403/211/1 404/212/1
f 405/213/1 406/214/1 407/215/1 408/216/1
f 409/137/1 410/138/1 411/139/1 412/140/1
f 413/137/1 414/138/1 415/139/1 416/140/1
f 417/137/1 418/138/1 419/139/1 420/140/1
f 421/17/1 422/18/1 423/19/1 424/20/1
f 425/21/1 426/22/1 427/23/1 428/24/1
f 429/25/1 430/26/1 431/27/1 432/28/1
f 433/137/1 434/138/1 435/139/1 436/140/1
f 437/137/1 438/138/1 439/139/1 440/140/1
f 441/61/1 442/62/1 443/63/1 444/64/1
f 445/65/1 446/66/1 447/67/1 448/68/1
f 449/17/1 450/18/1 451/19/1 452/20/1
f 453/21/1 454/22/1 455/23/1 456/24/1
f 457/25/1 458/26/1 459/27/1 460/28/1
f 461/217/1 462/218/1 463/219/1 464/220/1
f 465/221/1 466/222/1 467/223/1 468/224/1
f 469/225/1 470/226/1 471/227/1 472/228/1
f 473/229/1 474/230/1 475/231/1 476/232/1
f 477/229/1 478/230/1 479/231/1 480/232/1
f 481/69/1 482/70/1 483/71/1 484/72/1
f 485/73/1 486/74/1 487/75/1 488/76/1
f 489/17/1 490/18/1 491/19/1 492/20/1
f 493/21/1 494/22/1 495/23/1 496/24/1
f 497/25/1 498/26/1 499/27/1 500/28/1
f 501/61/1 502/62/1 503/63/1 504/64/1
f 505/65/1 506/66/1 507/67/1 508/68/1
f 509/225/1 510/226/1 511/227/1 512/228/1
f 513/229/1 514/230/1 515/231/1 516/232/1
f 517/229/1 518/230/1 519/231/1 520/232/1
f 521/61/1 522/62/1 523/63/1 524/64/1
f 525/65/1 526/66/1 527/67/1 528/68/1
f 529/17/1 530/18/1 531/19/1 532/20/1
f 533/21/1 534/22/1 535/23/1 536/24/1
f 537/25/1 538/26/1 539/27/1 540/28/1
f 541/69/1 542/70/1 543/71/1 544/72/1
f 545/73/1 546/74/1 547/75/1 548/76/1
f 549/233/1 550/234/1 551/235/1 552/236/1
f 553/237/1 554/238/1 555/239/1 556/240/1
f 557/241/1 558/242/1 559/243/1 560/244/1
f 561/245/1 562/246/1 563/247/1 564/248/1
f 565/241/1 566/242/1 567/243/1 568/244/1
f 569/249/1 570/250/1 571/251/1 572/252/1
f 573/177/1 574/178/1 575/179/1 576/180/1
f 577/181/1 578/182/1 579/183/1 580/184/1
f 581/225/1 582/226/1 583/227/1 584/228/1
f 585/229/1 586/230/1 587/231/1 588/232/1
f 589/229/1 590/230/1 591/231/1 592/232/1
f 593/69/1 594/70/1 595/71/1 596/72/1
f 597/73/1 598/74/1 599/75/1 600/76/1
f 601/17/1 602/18/1 603/19/1 604/20/1
f 605/21/1 606/22/1 607/23/1 608/24/1
f 609/25/1 610/26/1 611/27/1 612/28/1
f 613/61/1 614/62/1 615/63/1 616/64/1
f 617/65/1 618/66/1 619/67/1 620/68/1
f 621/17/1 622/18/1 623/19/1 624/20/1
f 625/21/1 626/22/1 627/23/1 628/24/1
f 629/25/1 630/26/1 631/27/1 632/28/1
f 633/69/1 634/70/1 635/71/1 636/72/1
f 637/73/1 638/74/1 639/75/1 640/76/1
f 641/253/1 642/254/1 643/255/1 644/256/1
f 645/253/1 646/254/1 647/255/1 648/256/1
f 649/137/1 650/138/1 651/139/1 652/140/1
f 653/229/1 654/230/1 655/231/1 656/232/1
f 657/137/1 658/138/1 659/139/1 660/140/1
f 661/161/1 662/162/1 663/163/1 664/164/1
f 665/253/1 666/254/1 667/255/1 668/256/1
f 669/137/1 670/138/1 671/139/1 672/140/1
f 673/137/1 674/138/1 675/139/1 676/140/1
f 677/253/1 678/254/1 679/255/1 680/256/1

