# Tiled2Unity generated file. Do not modify by hand.
# Wavefront file for 'PitShop_mesh_0006.obj'

# Vertices (Count = 904)
v -49 -3 0
v -50 -3 0
v -50 -2 0
v -49 -2 0
v -48 -3 0
v -49 -3 0
v -49 -2 0
v -48 -2 0
v -47 -3 0
v -48 -3 0
v -48 -2 0
v -47 -2 0
v -46 -3 0
v -47 -3 0
v -47 -2 0
v -46 -2 0
v -33 -3 0
v -34 -3 0
v -34 -2 0
v -33 -2 0
v -32 -3 0
v -33 -3 0
v -33 -2 0
v -32 -2 0
v -16 -3 0
v -17 -3 0
v -17 -2 0
v -16 -2 0
v -15 -3 0
v -16 -3 0
v -16 -2 0
v -15 -2 0
v -10 -3 0
v -11 -3 0
v -11 -2 0
v -10 -2 0
v -9 -3 0
v -10 -3 0
v -10 -2 0
v -9 -2 0
v -8 -3 0
v -9 -3 0
v -9 -2 0
v -8 -2 0
v -7 -3 0
v -8 -3 0
v -8 -2 0
v -7 -2 0
v -49 -4 0
v -50 -4 0
v -50 -3 0
v -49 -3 0
v -48 -4 0
v -49 -4 0
v -49 -3 0
v -48 -3 0
v -47 -4 0
v -48 -4 0
v -48 -3 0
v -47 -3 0
v -46 -4 0
v -47 -4 0
v -47 -3 0
v -46 -3 0
v -22 -4 0
v -23 -4 0
v -23 -3 0
v -22 -3 0
v -21 -4 0
v -22 -4 0
v -22 -3 0
v -21 -3 0
v -20 -4 0
v -21 -4 0
v -21 -3 0
v -20 -3 0
v -19 -4 0
v -20 -4 0
v -20 -3 0
v -19 -3 0
v -10 -4 0
v -11 -4 0
v -11 -3 0
v -10 -3 0
v -9 -4 0
v -10 -4 0
v -10 -3 0
v -9 -3 0
v -8 -4 0
v -9 -4 0
v -9 -3 0
v -8 -3 0
v -7 -4 0
v -8 -4 0
v -8 -3 0
v -7 -3 0
v -49 -5 0
v -50 -5 0
v -50 -4 0
v -49 -4 0
v -48 -5 0
v -49 -5 0
v -49 -4 0
v -48 -4 0
v -47 -5 0
v -48 -5 0
v -48 -4 0
v -47 -4 0
v -46 -5 0
v -47 -5 0
v -47 -4 0
v -46 -4 0
v -41 -5 0
v -42 -5 0
v -42 -4 0
v -41 -4 0
v -40 -5 0
v -41 -5 0
v -41 -4 0
v -40 -4 0
v -39 -5 0
v -40 -5 0
v -40 -4 0
v -39 -4 0
v -38 -5 0
v -39 -5 0
v -39 -4 0
v -38 -4 0
v -34 -5 0
v -35 -5 0
v -35 -4 0
v -34 -4 0
v -33 -5 0
v -34 -5 0
v -34 -4 0
v -33 -4 0
v -22 -5 0
v -23 -5 0
v -23 -4 0
v -22 -4 0
v -21 -5 0
v -22 -5 0
v -22 -4 0
v -21 -4 0
v -20 -5 0
v -21 -5 0
v -21 -4 0
v -20 -4 0
v -19 -5 0
v -20 -5 0
v -20 -4 0
v -19 -4 0
v -10 -5 0
v -11 -5 0
v -11 -4 0
v -10 -4 0
v -9 -5 0
v -10 -5 0
v -10 -4 0
v -9 -4 0
v -8 -5 0
v -9 -5 0
v -9 -4 0
v -8 -4 0
v -7 -5 0
v -8 -5 0
v -8 -4 0
v -7 -4 0
v -41 -6 0
v -42 -6 0
v -42 -5 0
v -41 -5 0
v -40 -6 0
v -41 -6 0
v -41 -5 0
v -40 -5 0
v -39 -6 0
v -40 -6 0
v -40 -5 0
v -39 -5 0
v -38 -6 0
v -39 -6 0
v -39 -5 0
v -38 -5 0
v -22 -6 0
v -23 -6 0
v -23 -5 0
v -22 -5 0
v -21 -6 0
v -22 -6 0
v -22 -5 0
v -21 -5 0
v -20 -6 0
v -21 -6 0
v -21 -5 0
v -20 -5 0
v -19 -6 0
v -20 -6 0
v -20 -5 0
v -19 -5 0
v -41 -7 0
v -42 -7 0
v -42 -6 0
v -41 -6 0
v -40 -7 0
v -41 -7 0
v -41 -6 0
v -40 -6 0
v -39 -7 0
v -40 -7 0
v -40 -6 0
v -39 -6 0
v -38 -7 0
v -39 -7 0
v -39 -6 0
v -38 -6 0
v -3 -8 0
v -4 -8 0
v -4 -7 0
v -3 -7 0
v -2 -8 0
v -3 -8 0
v -3 -7 0
v -2 -7 0
v -1 -8 0
v -2 -8 0
v -2 -7 0
v -1 -7 0
v 0 -8 0
v -1 -8 0
v -1 -7 0
v 0 -7 0
v -3 -9 0
v -4 -9 0
v -4 -8 0
v -3 -8 0
v -2 -9 0
v -3 -9 0
v -3 -8 0
v -2 -8 0
v -1 -9 0
v -2 -9 0
v -2 -8 0
v -1 -8 0
v 0 -9 0
v -1 -9 0
v -1 -8 0
v 0 -8 0
v -30 -10 0
v -31 -10 0
v -31 -9 0
v -30 -9 0
v -29 -10 0
v -30 -10 0
v -30 -9 0
v -29 -9 0
v -28 -10 0
v -29 -10 0
v -29 -9 0
v -28 -9 0
v -27 -10 0
v -28 -10 0
v -28 -9 0
v -27 -9 0
v -17 -10 0
v -18 -10 0
v -18 -9 0
v -17 -9 0
v -16 -10 0
v -17 -10 0
v -17 -9 0
v -16 -9 0
v -15 -10 0
v -16 -10 0
v -16 -9 0
v -15 -9 0
v -14 -10 0
v -15 -10 0
v -15 -9 0
v -14 -9 0
v -3 -10 0
v -4 -10 0
v -4 -9 0
v -3 -9 0
v -2 -10 0
v -3 -10 0
v -3 -9 0
v -2 -9 0
v -1 -10 0
v -2 -10 0
v -2 -9 0
v -1 -9 0
v 0 -10 0
v -1 -10 0
v -1 -9 0
v 0 -9 0
v -47 -11 0
v -48 -11 0
v -48 -10 0
v -47 -10 0
v -46 -11 0
v -47 -11 0
v -47 -10 0
v -46 -10 0
v -45 -11 0
v -46 -11 0
v -46 -10 0
v -45 -10 0
v -44 -11 0
v -45 -11 0
v -45 -10 0
v -44 -10 0
v -30 -11 0
v -31 -11 0
v -31 -10 0
v -30 -10 0
v -29 -11 0
v -30 -11 0
v -30 -10 0
v -29 -10 0
v -28 -11 0
v -29 -11 0
v -29 -10 0
v -28 -10 0
v -27 -11 0
v -28 -11 0
v -28 -10 0
v -27 -10 0
v -17 -11 0
v -18 -11 0
v -18 -10 0
v -17 -10 0
v -16 -11 0
v -17 -11 0
v -17 -10 0
v -16 -10 0
v -15 -11 0
v -16 -11 0
v -16 -10 0
v -15 -10 0
v -14 -11 0
v -15 -11 0
v -15 -10 0
v -14 -10 0
v -47 -12 0
v -48 -12 0
v -48 -11 0
v -47 -11 0
v -46 -12 0
v -47 -12 0
v -47 -11 0
v -46 -11 0
v -45 -12 0
v -46 -12 0
v -46 -11 0
v -45 -11 0
v -44 -12 0
v -45 -12 0
v -45 -11 0
v -44 -11 0
v -30 -12 0
v -31 -12 0
v -31 -11 0
v -30 -11 0
v -29 -12 0
v -30 -12 0
v -30 -11 0
v -29 -11 0
v -28 -12 0
v -29 -12 0
v -29 -11 0
v -28 -11 0
v -27 -12 0
v -28 -12 0
v -28 -11 0
v -27 -11 0
v -17 -12 0
v -18 -12 0
v -18 -11 0
v -17 -11 0
v -16 -12 0
v -17 -12 0
v -17 -11 0
v -16 -11 0
v -15 -12 0
v -16 -12 0
v -16 -11 0
v -15 -11 0
v -14 -12 0
v -15 -12 0
v -15 -11 0
v -14 -11 0
v -47 -13 0
v -48 -13 0
v -48 -12 0
v -47 -12 0
v -46 -13 0
v -47 -13 0
v -47 -12 0
v -46 -12 0
v -45 -13 0
v -46 -13 0
v -46 -12 0
v -45 -12 0
v -44 -13 0
v -45 -13 0
v -45 -12 0
v -44 -12 0
v -30 -13 0
v -31 -13 0
v -31 -12 0
v -30 -12 0
v -29 -13 0
v -30 -13 0
v -30 -12 0
v -29 -12 0
v -29 -15 0
v -30 -15 0
v -30 -14 0
v -29 -14 0
v -28 -15 0
v -29 -15 0
v -29 -14 0
v -28 -14 0
v -23 -16 0
v -24 -16 0
v -24 -15 0
v -23 -15 0
v -22 -16 0
v -23 -16 0
v -23 -15 0
v -22 -15 0
v -21 -16 0
v -22 -16 0
v -22 -15 0
v -21 -15 0
v -20 -16 0
v -21 -16 0
v -21 -15 0
v -20 -15 0
v -35 -17 0
v -36 -17 0
v -36 -16 0
v -35 -16 0
v -34 -17 0
v -35 -17 0
v -35 -16 0
v -34 -16 0
v -33 -17 0
v -34 -17 0
v -34 -16 0
v -33 -16 0
v -32 -17 0
v -33 -17 0
v -33 -16 0
v -32 -16 0
v -23 -17 0
v -24 -17 0
v -24 -16 0
v -23 -16 0
v -22 -17 0
v -23 -17 0
v -23 -16 0
v -22 -16 0
v -21 -17 0
v -22 -17 0
v -22 -16 0
v -21 -16 0
v -20 -17 0
v -21 -17 0
v -21 -16 0
v -20 -16 0
v -35 -18 0
v -36 -18 0
v -36 -17 0
v -35 -17 0
v -34 -18 0
v -35 -18 0
v -35 -17 0
v -34 -17 0
v -33 -18 0
v -34 -18 0
v -34 -17 0
v -33 -17 0
v -32 -18 0
v -33 -18 0
v -33 -17 0
v -32 -17 0
v -23 -18 0
v -24 -18 0
v -24 -17 0
v -23 -17 0
v -22 -18 0
v -23 -18 0
v -23 -17 0
v -22 -17 0
v -21 -18 0
v -22 -18 0
v -22 -17 0
v -21 -17 0
v -20 -18 0
v -21 -18 0
v -21 -17 0
v -20 -17 0
v -35 -19 0
v -36 -19 0
v -36 -18 0
v -35 -18 0
v -34 -19 0
v -35 -19 0
v -35 -18 0
v -34 -18 0
v -33 -19 0
v -34 -19 0
v -34 -18 0
v -33 -18 0
v -32 -19 0
v -33 -19 0
v -33 -18 0
v -32 -18 0
v -5 -19 0
v -6 -19 0
v -6 -18 0
v -5 -18 0
v -4 -19 0
v -5 -19 0
v -5 -18 0
v -4 -18 0
v -3 -19 0
v -4 -19 0
v -4 -18 0
v -3 -18 0
v -2 -19 0
v -3 -19 0
v -3 -18 0
v -2 -18 0
v -5 -20 0
v -6 -20 0
v -6 -19 0
v -5 -19 0
v -4 -20 0
v -5 -20 0
v -5 -19 0
v -4 -19 0
v -3 -20 0
v -4 -20 0
v -4 -19 0
v -3 -19 0
v -2 -20 0
v -3 -20 0
v -3 -19 0
v -2 -19 0
v -5 -21 0
v -6 -21 0
v -6 -20 0
v -5 -20 0
v -4 -21 0
v -5 -21 0
v -5 -20 0
v -4 -20 0
v -3 -21 0
v -4 -21 0
v -4 -20 0
v -3 -20 0
v -2 -21 0
v -3 -21 0
v -3 -20 0
v -2 -20 0
v -34 -22 0
v -35 -22 0
v -35 -21 0
v -34 -21 0
v -33 -22 0
v -34 -22 0
v -34 -21 0
v -33 -21 0
v -11 -22 0
v -12 -22 0
v -12 -21 0
v -11 -21 0
v -10 -22 0
v -11 -22 0
v -11 -21 0
v -10 -21 0
v -9 -22 0
v -10 -22 0
v -10 -21 0
v -9 -21 0
v -8 -22 0
v -9 -22 0
v -9 -21 0
v -8 -21 0
v -30 -23 0
v -31 -23 0
v -31 -22 0
v -30 -22 0
v -29 -23 0
v -30 -23 0
v -30 -22 0
v -29 -22 0
v -28 -23 0
v -29 -23 0
v -29 -22 0
v -28 -22 0
v -27 -23 0
v -28 -23 0
v -28 -22 0
v -27 -22 0
v -21 -23 0
v -22 -23 0
v -22 -22 0
v -21 -22 0
v -20 -23 0
v -21 -23 0
v -21 -22 0
v -20 -22 0
v -11 -23 0
v -12 -23 0
v -12 -22 0
v -11 -22 0
v -10 -23 0
v -11 -23 0
v -11 -22 0
v -10 -22 0
v -9 -23 0
v -10 -23 0
v -10 -22 0
v -9 -22 0
v -8 -23 0
v -9 -23 0
v -9 -22 0
v -8 -22 0
v -30 -24 0
v -31 -24 0
v -31 -23 0
v -30 -23 0
v -29 -24 0
v -30 -24 0
v -30 -23 0
v -29 -23 0
v -28 -24 0
v -29 -24 0
v -29 -23 0
v -28 -23 0
v -27 -24 0
v -28 -24 0
v -28 -23 0
v -27 -23 0
v -11 -24 0
v -12 -24 0
v -12 -23 0
v -11 -23 0
v -10 -24 0
v -11 -24 0
v -11 -23 0
v -10 -23 0
v -9 -24 0
v -10 -24 0
v -10 -23 0
v -9 -23 0
v -8 -24 0
v -9 -24 0
v -9 -23 0
v -8 -23 0
v -30 -25 0
v -31 -25 0
v -31 -24 0
v -30 -24 0
v -29 -25 0
v -30 -25 0
v -30 -24 0
v -29 -24 0
v -28 -25 0
v -29 -25 0
v -29 -24 0
v -28 -24 0
v -27 -25 0
v -28 -25 0
v -28 -24 0
v -27 -24 0
v -49 -28 0
v -50 -28 0
v -50 -27 0
v -49 -27 0
v -48 -28 0
v -49 -28 0
v -49 -27 0
v -48 -27 0
v -47 -28 0
v -48 -28 0
v -48 -27 0
v -47 -27 0
v -46 -28 0
v -47 -28 0
v -47 -27 0
v -46 -27 0
v -37 -28 0
v -38 -28 0
v -38 -27 0
v -37 -27 0
v -36 -28 0
v -37 -28 0
v -37 -27 0
v -36 -27 0
v -35 -28 0
v -36 -28 0
v -36 -27 0
v -35 -27 0
v -34 -28 0
v -35 -28 0
v -35 -27 0
v -34 -27 0
v -4 -28 0
v -5 -28 0
v -5 -27 0
v -4 -27 0
v -3 -28 0
v -4 -28 0
v -4 -27 0
v -3 -27 0
v -2 -28 0
v -3 -28 0
v -3 -27 0
v -2 -27 0
v -1 -28 0
v -2 -28 0
v -2 -27 0
v -1 -27 0
v -49 -29 0
v -50 -29 0
v -50 -28 0
v -49 -28 0
v -48 -29 0
v -49 -29 0
v -49 -28 0
v -48 -28 0
v -47 -29 0
v -48 -29 0
v -48 -28 0
v -47 -28 0
v -46 -29 0
v -47 -29 0
v -47 -28 0
v -46 -28 0
v -37 -29 0
v -38 -29 0
v -38 -28 0
v -37 -28 0
v -36 -29 0
v -37 -29 0
v -37 -28 0
v -36 -28 0
v -35 -29 0
v -36 -29 0
v -36 -28 0
v -35 -28 0
v -34 -29 0
v -35 -29 0
v -35 -28 0
v -34 -28 0
v -4 -29 0
v -5 -29 0
v -5 -28 0
v -4 -28 0
v -3 -29 0
v -4 -29 0
v -4 -28 0
v -3 -28 0
v -2 -29 0
v -3 -29 0
v -3 -28 0
v -2 -28 0
v -1 -29 0
v -2 -29 0
v -2 -28 0
v -1 -28 0
v -49 -30 0
v -50 -30 0
v -50 -29 0
v -49 -29 0
v -48 -30 0
v -49 -30 0
v -49 -29 0
v -48 -29 0
v -47 -30 0
v -48 -30 0
v -48 -29 0
v -47 -29 0
v -46 -30 0
v -47 -30 0
v -47 -29 0
v -46 -29 0
v -44 -30 0
v -45 -30 0
v -45 -29 0
v -44 -29 0
v -43 -30 0
v -44 -30 0
v -44 -29 0
v -43 -29 0
v -37 -30 0
v -38 -30 0
v -38 -29 0
v -37 -29 0
v -36 -30 0
v -37 -30 0
v -37 -29 0
v -36 -29 0
v -35 -30 0
v -36 -30 0
v -36 -29 0
v -35 -29 0
v -34 -30 0
v -35 -30 0
v -35 -29 0
v -34 -29 0
v -4 -30 0
v -5 -30 0
v -5 -29 0
v -4 -29 0
v -3 -30 0
v -4 -30 0
v -4 -29 0
v -3 -29 0
v -2 -30 0
v -3 -30 0
v -3 -29 0
v -2 -29 0
v -1 -30 0
v -2 -30 0
v -2 -29 0
v -1 -29 0
v -41 -33 0
v -42 -33 0
v -42 -32 0
v -41 -32 0
v -40 -33 0
v -41 -33 0
v -41 -32 0
v -40 -32 0
v -39 -33 0
v -40 -33 0
v -40 -32 0
v -39 -32 0
v -38 -33 0
v -39 -33 0
v -39 -32 0
v -38 -32 0
v -41 -34 0
v -42 -34 0
v -42 -33 0
v -41 -33 0
v -40 -34 0
v -41 -34 0
v -41 -33 0
v -40 -33 0
v -39 -34 0
v -40 -34 0
v -40 -33 0
v -39 -33 0
v -38 -34 0
v -39 -34 0
v -39 -33 0
v -38 -33 0
v -9 -34 0
v -10 -34 0
v -10 -33 0
v -9 -33 0
v -8 -34 0
v -9 -34 0
v -9 -33 0
v -8 -33 0
v -49 -35 0
v -50 -35 0
v -50 -34 0
v -49 -34 0
v -48 -35 0
v -49 -35 0
v -49 -34 0
v -48 -34 0
v -41 -35 0
v -42 -35 0
v -42 -34 0
v -41 -34 0
v -40 -35 0
v -41 -35 0
v -41 -34 0
v -40 -34 0
v -39 -35 0
v -40 -35 0
v -40 -34 0
v -39 -34 0
v -38 -35 0
v -39 -35 0
v -39 -34 0
v -38 -34 0
v -24 -35 0
v -25 -35 0
v -25 -34 0
v -24 -34 0
v -23 -35 0
v -24 -35 0
v -24 -34 0
v -23 -34 0

# Texture cooridinates (Count = 152)
vt 0.9572092 0.5001221
vt 0.9777713 0.5001221
vt 0.9777713 0.5276557
vt 0.9572092 0.5276557
vt 0.936403 0.5001221
vt 0.956965 0.5001221
vt 0.956965 0.5276557
vt 0.936403 0.5276557
vt 0.9155967 0.5001221
vt 0.9361588 0.5001221
vt 0.9361588 0.5276557
vt 0.9155967 0.5276557
vt 0.8947905 0.5001221
vt 0.9153526 0.5001221
vt 0.9153526 0.5276557
vt 0.8947905 0.5276557
vt 0.1249595 0.5001221
vt 0.1455216 0.5001221
vt 0.1455216 0.5276557
vt 0.1249595 0.5276557
vt 0.1041533 0.5001221
vt 0.1247154 0.5001221
vt 0.1247154 0.5276557
vt 0.1041533 0.5276557
vt 0.0625408 0.05567765
vt 0.0831029 0.05567765
vt 0.0831029 0.08321124
vt 0.0625408 0.08321124
vt 0.04173455 0.05567765
vt 0.06229666 0.05567765
vt 0.06229666 0.08321124
vt 0.04173455 0.08321124
vt 0.02092831 0.05567765
vt 0.04149041 0.05567765
vt 0.04149041 0.08321124
vt 0.02092831 0.08321124
vt 0.0001220703 0.05567765
vt 0.02068417 0.05567765
vt 0.02068417 0.08321124
vt 0.0001220703 0.08321124
vt 0.9572092 0.4723443
vt 0.9777713 0.4723443
vt 0.9777713 0.4998779
vt 0.9572092 0.4998779
vt 0.936403 0.4723443
vt 0.956965 0.4723443
vt 0.956965 0.4998779
vt 0.936403 0.4998779
vt 0.9155967 0.4723443
vt 0.9361588 0.4723443
vt 0.9361588 0.4998779
vt 0.9155967 0.4998779
vt 0.8947905 0.4723443
vt 0.9153526 0.4723443
vt 0.9153526 0.4998779
vt 0.8947905 0.4998779
vt 0.3538282 0.139011
vt 0.3743903 0.139011
vt 0.3743903 0.1665446
vt 0.3538282 0.1665446
vt 0.3330219 0.139011
vt 0.3535841 0.139011
vt 0.3535841 0.1665446
vt 0.3330219 0.1665446
vt 0.3122157 0.139011
vt 0.3327778 0.139011
vt 0.3327778 0.1665446
vt 0.3122157 0.1665446
vt 0.2914095 0.139011
vt 0.3119715 0.139011
vt 0.3119715 0.1665446
vt 0.2914095 0.1665446
vt 0.0625408 0.02789986
vt 0.0831029 0.02789986
vt 0.0831029 0.05543351
vt 0.0625408 0.05543351
vt 0.04173455 0.02789986
vt 0.06229666 0.02789986
vt 0.06229666 0.05543351
vt 0.04173455 0.05543351
vt 0.02092831 0.02789986
vt 0.04149041 0.02789986
vt 0.04149041 0.05543351
vt 0.02092831 0.05543351
vt 0.0001220703 0.02789986
vt 0.02068417 0.02789986
vt 0.02068417 0.05543351
vt 0.0001220703 0.05543351
vt 0.9572092 0.4445665
vt 0.9777713 0.4445665
vt 0.9777713 0.4721001
vt 0.9572092 0.4721001
vt 0.936403 0.4445665
vt 0.956965 0.4445665
vt 0.956965 0.4721001
vt 0.936403 0.4721001
vt 0.9155967 0.4445665
vt 0.9361588 0.4445665
vt 0.9361588 0.4721001
vt 0.9155967 0.4721001
vt 0.8947905 0.4445665
vt 0.9153526 0.4445665
vt 0.9153526 0.4721001
vt 0.8947905 0.4721001
vt 0.3538282 0.1112332
vt 0.3743903 0.1112332
vt 0.3743903 0.1387668
vt 0.3538282 0.1387668
vt 0.3330219 0.1112332
vt 0.3535841 0.1112332
vt 0.3535841 0.1387668
vt 0.3330219 0.1387668
vt 0.3122157 0.1112332
vt 0.3327778 0.1112332
vt 0.3327778 0.1387668
vt 0.3122157 0.1387668
vt 0.2914095 0.1112332
vt 0.3119715 0.1112332
vt 0.3119715 0.1387668
vt 0.2914095 0.1387668
vt 0.0625408 0.0001220703
vt 0.0831029 0.0001220703
vt 0.0831029 0.02765572
vt 0.0625408 0.02765572
vt 0.04173455 0.0001220703
vt 0.06229666 0.0001220703
vt 0.06229666 0.02765572
vt 0.04173455 0.02765572
vt 0.02092831 0.0001220703
vt 0.04149041 0.0001220703
vt 0.04149041 0.02765572
vt 0.02092831 0.02765572
vt 0.0001220703 0.0001220703
vt 0.02068417 0.0001220703
vt 0.02068417 0.02765572
vt 0.0001220703 0.02765572
vt 0.3538282 0.08345538
vt 0.3743903 0.08345538
vt 0.3743903 0.110989
vt 0.3538282 0.110989
vt 0.3330219 0.08345538
vt 0.3535841 0.08345538
vt 0.3535841 0.110989
vt 0.3330219 0.110989
vt 0.3122157 0.08345538
vt 0.3327778 0.08345538
vt 0.3327778 0.110989
vt 0.3122157 0.110989
vt 0.2914095 0.08345538
vt 0.3119715 0.08345538
vt 0.3119715 0.110989
vt 0.2914095 0.110989

# Normal
vn 0 0 -1

# Mesh description
g PitShop_mesh_0006

# Faces
f 1/1/1 2/2/1 3/3/1 4/4/1
f 5/5/1 6/6/1 7/7/1 8/8/1
f 9/9/1 10/10/1 11/11/1 12/12/1
f 13/13/1 14/14/1 15/15/1 16/16/1
f 17/17/1 18/18/1 19/19/1 20/20/1
f 21/21/1 22/22/1 23/23/1 24/24/1
f 25/17/1 26/18/1 27/19/1 28/20/1
f 29/21/1 30/22/1 31/23/1 32/24/1
f 33/25/1 34/26/1 35/27/1 36/28/1
f 37/29/1 38/30/1 39/31/1 40/32/1
f 41/33/1 42/34/1 43/35/1 44/36/1
f 45/37/1 46/38/1 47/39/1 48/40/1
f 49/41/1 50/42/1 51/43/1 52/44/1
f 53/45/1 54/46/1 55/47/1 56/48/1
f 57/49/1 58/50/1 59/51/1 60/52/1
f 61/53/1 62/54/1 63/55/1 64/56/1
f 65/57/1 66/58/1 67/59/1 68/60/1
f 69/61/1 70/62/1 71/63/1 72/64/1
f 73/65/1 74/66/1 75/67/1 76/68/1
f 77/69/1 78/70/1 79/71/1 80/72/1
f 81/73/1 82/74/1 83/75/1 84/76/1
f 85/77/1 86/78/1 87/79/1 88/80/1
f 89/81/1 90/82/1 91/83/1 92/84/1
f 93/85/1 94/86/1 95/87/1 96/88/1
f 97/89/1 98/90/1 99/91/1 100/92/1
f 101/93/1 102/94/1 103/95/1 104/96/1
f 105/97/1 106/98/1 107/99/1 108/100/1
f 109/101/1 110/102/1 111/103/1 112/104/1
f 113/25/1 114/26/1 115/27/1 116/28/1
f 117/29/1 118/30/1 119/31/1 120/32/1
f 121/33/1 122/34/1 123/35/1 124/36/1
f 125/37/1 126/38/1 127/39/1 128/40/1
f 129/17/1 130/18/1 131/19/1 132/20/1
f 133/21/1 134/22/1 135/23/1 136/24/1
f 137/105/1 138/106/1 139/107/1 140/108/1
f 141/109/1 142/110/1 143/111/1 144/112/1
f 145/113/1 146/114/1 147/115/1 148/116/1
f 149/117/1 150/118/1 151/119/1 152/120/1
f 153/121/1 154/122/1 155/123/1 156/124/1
f 157/125/1 158/126/1 159/127/1 160/128/1
f 161/129/1 162/130/1 163/131/1 164/132/1
f 165/133/1 166/134/1 167/135/1 168/136/1
f 169/73/1 170/74/1 171/75/1 172/76/1
f 173/77/1 174/78/1 175/79/1 176/80/1
f 177/81/1 178/82/1 179/83/1 180/84/1
f 181/85/1 182/86/1 183/87/1 184/88/1
f 185/137/1 186/138/1 187/139/1 188/140/1
f 189/141/1 190/142/1 191/143/1 192/144/1
f 193/145/1 194/146/1 195/147/1 196/148/1
f 197/149/1 198/150/1 199/151/1 200/152/1
f 201/121/1 202/122/1 203/123/1 204/124/1
f 205/125/1 206/126/1 207/127/1 208/128/1
f 209/129/1 210/130/1 211/131/1 212/132/1
f 213/133/1 214/134/1 215/135/1 216/136/1
f 217/1/1 218/2/1 219/3/1 220/4/1
f 221/5/1 222/6/1 223/7/1 224/8/1
f 225/9/1 226/10/1 227/11/1 228/12/1
f 229/13/1 230/14/1 231/15/1 232/16/1
f 233/41/1 234/42/1 235/43/1 236/44/1
f 237/45/1 238/46/1 239/47/1 240/48/1
f 241/49/1 242/50/1 243/51/1 244/52/1
f 245/53/1 246/54/1 247/55/1 248/56/1
f 249/1/1 250/2/1 251/3/1 252/4/1
f 253/5/1 254/6/1 255/7/1 256/8/1
f 257/9/1 258/10/1 259/11/1 260/12/1
f 261/13/1 262/14/1 263/15/1 264/16/1
f 265/57/1 266/58/1 267/59/1 268/60/1
f 269/61/1 270/62/1 271/63/1 272/64/1
f 273/65/1 274/66/1 275/67/1 276/68/1
f 277/69/1 278/70/1 279/71/1 280/72/1
f 281/89/1 282/90/1 283/91/1 284/92/1
f 285/93/1 286/94/1 287/95/1 288/96/1
f 289/97/1 290/98/1 291/99/1 292/100/1
f 293/101/1 294/102/1 295/103/1 296/104/1
f 297/57/1 298/58/1 299/59/1 300/60/1
f 301/61/1 302/62/1 303/63/1 304/64/1
f 305/65/1 306/66/1 307/67/1 308/68/1
f 309/69/1 310/70/1 311/71/1 312/72/1
f 313/41/1 314/42/1 315/43/1 316/44/1
f 317/45/1 318/46/1 319/47/1 320/48/1
f 321/49/1 322/50/1 323/51/1 324/52/1
f 325/53/1 326/54/1 327/55/1 328/56/1
f 329/105/1 330/106/1 331/107/1 332/108/1
f 333/109/1 334/110/1 335/111/1 336/112/1
f 337/113/1 338/114/1 339/115/1 340/116/1
f 341/117/1 342/118/1 343/119/1 344/120/1
f 345/105/1 346/106/1 347/107/1 348/108/1
f 349/109/1 350/110/1 351/111/1 352/112/1
f 353/113/1 354/114/1 355/115/1 356/116/1
f 357/117/1 358/118/1 359/119/1 360/120/1
f 361/89/1 362/90/1 363/91/1 364/92/1
f 365/93/1 366/94/1 367/95/1 368/96/1
f 369/97/1 370/98/1 371/99/1 372/100/1
f 373/101/1 374/102/1 375/103/1 376/104/1
f 377/137/1 378/138/1 379/139/1 380/140/1
f 381/141/1 382/142/1 383/143/1 384/144/1
f 385/145/1 386/146/1 387/147/1 388/148/1
f 389/149/1 390/150/1 391/151/1 392/152/1
f 393/137/1 394/138/1 395/139/1 396/140/1
f 397/141/1 398/142/1 399/143/1 400/144/1
f 401/145/1 402/146/1 403/147/1 404/148/1
f 405/149/1 406/150/1 407/151/1 408/152/1
f 409/17/1 410/18/1 411/19/1 412/20/1
f 413/21/1 414/22/1 415/23/1 416/24/1
f 417/17/1 418/18/1 419/19/1 420/20/1
f 421/21/1 422/22/1 423/23/1 424/24/1
f 425/25/1 426/26/1 427/27/1 428/28/1
f 429/29/1 430/30/1 431/31/1 432/32/1
f 433/33/1 434/34/1 435/35/1 436/36/1
f 437/37/1 438/38/1 439/39/1 440/40/1
f 441/1/1 442/2/1 443/3/1 444/4/1
f 445/5/1 446/6/1 447/7/1 448/8/1
f 449/9/1 450/10/1 451/11/1 452/12/1
f 453/13/1 454/14/1 455/15/1 456/16/1
f 457/73/1 458/74/1 459/75/1 460/76/1
f 461/77/1 462/78/1 463/79/1 464/80/1
f 465/81/1 466/82/1 467/83/1 468/84/1
f 469/85/1 470/86/1 471/87/1 472/88/1
f 473/41/1 474/42/1 475/43/1 476/44/1
f 477/45/1 478/46/1 479/47/1 480/48/1
f 481/49/1 482/50/1 483/51/1 484/52/1
f 485/53/1 486/54/1 487/55/1 488/56/1
f 489/121/1 490/122/1 491/123/1 492/124/1
f 493/125/1 494/126/1 495/127/1 496/128/1
f 497/129/1 498/130/1 499/131/1 500/132/1
f 501/133/1 502/134/1 503/135/1 504/136/1
f 505/89/1 506/90/1 507/91/1 508/92/1
f 509/93/1 510/94/1 511/95/1 512/96/1
f 513/97/1 514/98/1 515/99/1 516/100/1
f 517/101/1 518/102/1 519/103/1 520/104/1
f 521/57/1 522/58/1 523/59/1 524/60/1
f 525/61/1 526/62/1 527/63/1 528/64/1
f 529/65/1 530/66/1 531/67/1 532/68/1
f 533/69/1 534/70/1 535/71/1 536/72/1
f 537/105/1 538/106/1 539/107/1 540/108/1
f 541/109/1 542/110/1 543/111/1 544/112/1
f 545/113/1 546/114/1 547/115/1 548/116/1
f 549/117/1 550/118/1 551/119/1 552/120/1
f 553/137/1 554/138/1 555/139/1 556/140/1
f 557/141/1 558/142/1 559/143/1 560/144/1
f 561/145/1 562/146/1 563/147/1 564/148/1
f 565/149/1 566/150/1 567/151/1 568/152/1
f 569/17/1 570/18/1 571/19/1 572/20/1
f 573/21/1 574/22/1 575/23/1 576/24/1
f 577/25/1 578/26/1 579/27/1 580/28/1
f 581/29/1 582/30/1 583/31/1 584/32/1
f 585/33/1 586/34/1 587/35/1 588/36/1
f 589/37/1 590/38/1 591/39/1 592/40/1
f 593/57/1 594/58/1 595/59/1 596/60/1
f 597/61/1 598/62/1 599/63/1 600/64/1
f 601/65/1 602/66/1 603/67/1 604/68/1
f 605/69/1 606/70/1 607/71/1 608/72/1
f 609/17/1 610/18/1 611/19/1 612/20/1
f 613/21/1 614/22/1 615/23/1 616/24/1
f 617/73/1 618/74/1 619/75/1 620/76/1
f 621/77/1 622/78/1 623/79/1 624/80/1
f 625/81/1 626/82/1 627/83/1 628/84/1
f 629/85/1 630/86/1 631/87/1 632/88/1
f 633/105/1 634/106/1 635/107/1 636/108/1
f 637/109/1 638/110/1 639/111/1 640/112/1
f 641/113/1 642/114/1 643/115/1 644/116/1
f 645/117/1 646/118/1 647/119/1 648/120/1
f 649/121/1 650/122/1 651/123/1 652/124/1
f 653/125/1 654/126/1 655/127/1 656/128/1
f 657/129/1 658/130/1 659/131/1 660/132/1
f 661/133/1 662/134/1 663/135/1 664/136/1
f 665/137/1 666/138/1 667/139/1 668/140/1
f 669/141/1 670/142/1 671/143/1 672/144/1
f 673/145/1 674/146/1 675/147/1 676/148/1
f 677/149/1 678/150/1 679/151/1 680/152/1
f 681/57/1 682/58/1 683/59/1 684/60/1
f 685/61/1 686/62/1 687/63/1 688/64/1
f 689/65/1 690/66/1 691/67/1 692/68/1
f 693/69/1 694/70/1 695/71/1 696/72/1
f 697/25/1 698/26/1 699/27/1 700/28/1
f 701/29/1 702/30/1 703/31/1 704/32/1
f 705/33/1 706/34/1 707/35/1 708/36/1
f 709/37/1 710/38/1 711/39/1 712/40/1
f 713/25/1 714/26/1 715/27/1 716/28/1
f 717/29/1 718/30/1 719/31/1 720/32/1
f 721/33/1 722/34/1 723/35/1 724/36/1
f 725/37/1 726/38/1 727/39/1 728/40/1
f 729/105/1 730/106/1 731/107/1 732/108/1
f 733/109/1 734/110/1 735/111/1 736/112/1
f 737/113/1 738/114/1 739/115/1 740/116/1
f 741/117/1 742/118/1 743/119/1 744/120/1
f 745/73/1 746/74/1 747/75/1 748/76/1
f 749/77/1 750/78/1 751/79/1 752/80/1
f 753/81/1 754/82/1 755/83/1 756/84/1
f 757/85/1 758/86/1 759/87/1 760/88/1
f 761/73/1 762/74/1 763/75/1 764/76/1
f 765/77/1 766/78/1 767/79/1 768/80/1
f 769/81/1 770/82/1 771/83/1 772/84/1
f 773/85/1 774/86/1 775/87/1 776/88/1
f 777/137/1 778/138/1 779/139/1 780/140/1
f 781/141/1 782/142/1 783/143/1 784/144/1
f 785/145/1 786/146/1 787/147/1 788/148/1
f 789/149/1 790/150/1 791/151/1 792/152/1
f 793/17/1 794/18/1 795/19/1 796/20/1
f 797/21/1 798/22/1 799/23/1 800/24/1
f 801/121/1 802/122/1 803/123/1 804/124/1
f 805/125/1 806/126/1 807/127/1 808/128/1
f 809/129/1 810/130/1 811/131/1 812/132/1
f 813/133/1 814/134/1 815/135/1 816/136/1
f 817/121/1 818/122/1 819/123/1 820/124/1
f 821/125/1 822/126/1 823/127/1 824/128/1
f 825/129/1 826/130/1 827/131/1 828/132/1
f 829/133/1 830/134/1 831/135/1 832/136/1
f 833/57/1 834/58/1 835/59/1 836/60/1
f 837/61/1 838/62/1 839/63/1 840/64/1
f 841/65/1 842/66/1 843/67/1 844/68/1
f 845/69/1 846/70/1 847/71/1 848/72/1
f 849/105/1 850/106/1 851/107/1 852/108/1
f 853/109/1 854/110/1 855/111/1 856/112/1
f 857/113/1 858/114/1 859/115/1 860/116/1
f 861/117/1 862/118/1 863/119/1 864/120/1
f 865/17/1 866/18/1 867/19/1 868/20/1
f 869/21/1 870/22/1 871/23/1 872/24/1
f 873/17/1 874/18/1 875/19/1 876/20/1
f 877/21/1 878/22/1 879/23/1 880/24/1
f 881/137/1 882/138/1 883/139/1 884/140/1
f 885/141/1 886/142/1 887/143/1 888/144/1
f 889/145/1 890/146/1 891/147/1 892/148/1
f 893/149/1 894/150/1 895/151/1 896/152/1
f 897/17/1 898/18/1 899/19/1 900/20/1
f 901/21/1 902/22/1 903/23/1 904/24/1

