# Tiled2Unity generated file. Do not modify by hand.
# Wavefront file for 'TaasOngYiuLeft_mesh_0002.obj'

# Vertices (Count = 1120)
v -69 -1 0
v -70 -1 0
v -70 0 0
v -69 0 0
v -68 -1 0
v -69 -1 0
v -69 0 0
v -68 0 0
v -67 -1 0
v -68 -1 0
v -68 0 0
v -67 0 0
v -64 -1 0
v -65 -1 0
v -65 0 0
v -64 0 0
v -63 -1 0
v -64 -1 0
v -64 0 0
v -63 0 0
v -56 -1 0
v -57 -1 0
v -57 0 0
v -56 0 0
v -55 -1 0
v -56 -1 0
v -56 0 0
v -55 0 0
v -54 -1 0
v -55 -1 0
v -55 0 0
v -54 0 0
v -51 -1 0
v -52 -1 0
v -52 0 0
v -51 0 0
v -50 -1 0
v -51 -1 0
v -51 0 0
v -50 0 0
v -42 -1 0
v -43 -1 0
v -43 0 0
v -42 0 0
v -40 -1 0
v -41 -1 0
v -41 0 0
v -40 0 0
v -39 -1 0
v -40 -1 0
v -40 0 0
v -39 0 0
v -32 -1 0
v -33 -1 0
v -33 0 0
v -32 0 0
v -31 -1 0
v -32 -1 0
v -32 0 0
v -31 0 0
v -30 -1 0
v -31 -1 0
v -31 0 0
v -30 0 0
v -29 -1 0
v -30 -1 0
v -30 0 0
v -29 0 0
v -27 -1 0
v -28 -1 0
v -28 0 0
v -27 0 0
v -26 -1 0
v -27 -1 0
v -27 0 0
v -26 0 0
v -22 -1 0
v -23 -1 0
v -23 0 0
v -22 0 0
v 0 -1 0
v -1 -1 0
v -1 0 0
v 0 0 0
v -69 -2 0
v -70 -2 0
v -70 -1 0
v -69 -1 0
v -68 -2 0
v -69 -2 0
v -69 -1 0
v -68 -1 0
v -66 -2 0
v -67 -2 0
v -67 -1 0
v -66 -1 0
v -65 -2 0
v -66 -2 0
v -66 -1 0
v -65 -1 0
v -60 -2 0
v -61 -2 0
v -61 -1 0
v -60 -1 0
v -59 -2 0
v -60 -2 0
v -60 -1 0
v -59 -1 0
v -58 -2 0
v -59 -2 0
v -59 -1 0
v -58 -1 0
v -57 -2 0
v -58 -2 0
v -58 -1 0
v -57 -1 0
v -56 -2 0
v -57 -2 0
v -57 -1 0
v -56 -1 0
v -43 -2 0
v -44 -2 0
v -44 -1 0
v -43 -1 0
v -41 -2 0
v -42 -2 0
v -42 -1 0
v -41 -1 0
v -40 -2 0
v -41 -2 0
v -41 -1 0
v -40 -1 0
v -31 -2 0
v -32 -2 0
v -32 -1 0
v -31 -1 0
v -30 -2 0
v -31 -2 0
v -31 -1 0
v -30 -1 0
v -29 -2 0
v -30 -2 0
v -30 -1 0
v -29 -1 0
v -28 -2 0
v -29 -2 0
v -29 -1 0
v -28 -1 0
v -27 -2 0
v -28 -2 0
v -28 -1 0
v -27 -1 0
v -26 -2 0
v -27 -2 0
v -27 -1 0
v -26 -1 0
v -25 -2 0
v -26 -2 0
v -26 -1 0
v -25 -1 0
v -24 -2 0
v -25 -2 0
v -25 -1 0
v -24 -1 0
v -23 -2 0
v -24 -2 0
v -24 -1 0
v -23 -1 0
v -1 -2 0
v -2 -2 0
v -2 -1 0
v -1 -1 0
v 0 -2 0
v -1 -2 0
v -1 -1 0
v 0 -1 0
v -43 -3 0
v -44 -3 0
v -44 -2 0
v -43 -2 0
v -28 -3 0
v -29 -3 0
v -29 -2 0
v -28 -2 0
v -27 -3 0
v -28 -3 0
v -28 -2 0
v -27 -2 0
v -25 -3 0
v -26 -3 0
v -26 -2 0
v -25 -2 0
v -24 -3 0
v -25 -3 0
v -25 -2 0
v -24 -2 0
v -2 -3 0
v -3 -3 0
v -3 -2 0
v -2 -2 0
v -1 -3 0
v -2 -3 0
v -2 -2 0
v -1 -2 0
v -3 -4 0
v -4 -4 0
v -4 -3 0
v -3 -3 0
v -2 -4 0
v -3 -4 0
v -3 -3 0
v -2 -3 0
v -69 -8 0
v -70 -8 0
v -70 -7 0
v -69 -7 0
v -69 -9 0
v -70 -9 0
v -70 -8 0
v -69 -8 0
v -68 -9 0
v -69 -9 0
v -69 -8 0
v -68 -8 0
v -67 -9 0
v -68 -9 0
v -68 -8 0
v -67 -8 0
v -68 -10 0
v -69 -10 0
v -69 -9 0
v -68 -9 0
v -67 -10 0
v -68 -10 0
v -68 -9 0
v -67 -9 0
v -3 -10 0
v -4 -10 0
v -4 -9 0
v -3 -9 0
v -2 -10 0
v -3 -10 0
v -3 -9 0
v -2 -9 0
v -1 -10 0
v -2 -10 0
v -2 -9 0
v -1 -9 0
v 0 -10 0
v -1 -10 0
v -1 -9 0
v 0 -9 0
v -69 -11 0
v -70 -11 0
v -70 -10 0
v -69 -10 0
v -68 -11 0
v -69 -11 0
v -69 -10 0
v -68 -10 0
v -67 -11 0
v -68 -11 0
v -68 -10 0
v -67 -10 0
v -69 -12 0
v -70 -12 0
v -70 -11 0
v -69 -11 0
v -68 -12 0
v -69 -12 0
v -69 -11 0
v -68 -11 0
v 0 -12 0
v -1 -12 0
v -1 -11 0
v 0 -11 0
v -69 -13 0
v -70 -13 0
v -70 -12 0
v -69 -12 0
v -68 -13 0
v -69 -13 0
v -69 -12 0
v -68 -12 0
v 0 -13 0
v -1 -13 0
v -1 -12 0
v 0 -12 0
v -69 -14 0
v -70 -14 0
v -70 -13 0
v -69 -13 0
v -68 -14 0
v -69 -14 0
v -69 -13 0
v -68 -13 0
v -3 -14 0
v -4 -14 0
v -4 -13 0
v -3 -13 0
v -2 -14 0
v -3 -14 0
v -3 -13 0
v -2 -13 0
v 0 -14 0
v -1 -14 0
v -1 -13 0
v 0 -13 0
v -2 -15 0
v -3 -15 0
v -3 -14 0
v -2 -14 0
v -1 -15 0
v -2 -15 0
v -2 -14 0
v -1 -14 0
v 0 -15 0
v -1 -15 0
v -1 -14 0
v 0 -14 0
v -69 -16 0
v -70 -16 0
v -70 -15 0
v -69 -15 0
v -68 -16 0
v -69 -16 0
v -69 -15 0
v -68 -15 0
v 0 -16 0
v -1 -16 0
v -1 -15 0
v 0 -15 0
v -69 -17 0
v -70 -17 0
v -70 -16 0
v -69 -16 0
v -68 -17 0
v -69 -17 0
v -69 -16 0
v -68 -16 0
v 0 -17 0
v -1 -17 0
v -1 -16 0
v 0 -16 0
v -68 -18 0
v -69 -18 0
v -69 -17 0
v -68 -17 0
v -1 -18 0
v -2 -18 0
v -2 -17 0
v -1 -17 0
v 0 -18 0
v -1 -18 0
v -1 -17 0
v 0 -17 0
v -69 -19 0
v -70 -19 0
v -70 -18 0
v -69 -18 0
v -68 -19 0
v -69 -19 0
v -69 -18 0
v -68 -18 0
v -67 -19 0
v -68 -19 0
v -68 -18 0
v -67 -18 0
v -3 -19 0
v -4 -19 0
v -4 -18 0
v -3 -18 0
v -2 -19 0
v -3 -19 0
v -3 -18 0
v -2 -18 0
v -69 -20 0
v -70 -20 0
v -70 -19 0
v -69 -19 0
v -3 -20 0
v -4 -20 0
v -4 -19 0
v -3 -19 0
v -68 -21 0
v -69 -21 0
v -69 -20 0
v -68 -20 0
v -67 -21 0
v -68 -21 0
v -68 -20 0
v -67 -20 0
v -69 -22 0
v -70 -22 0
v -70 -21 0
v -69 -21 0
v -68 -22 0
v -69 -22 0
v -69 -21 0
v -68 -21 0
v -2 -22 0
v -3 -22 0
v -3 -21 0
v -2 -21 0
v -68 -23 0
v -69 -23 0
v -69 -22 0
v -68 -22 0
v -67 -23 0
v -68 -23 0
v -68 -22 0
v -67 -22 0
v -2 -23 0
v -3 -23 0
v -3 -22 0
v -2 -22 0
v -1 -23 0
v -2 -23 0
v -2 -22 0
v -1 -22 0
v -68 -24 0
v -69 -24 0
v -69 -23 0
v -68 -23 0
v -67 -24 0
v -68 -24 0
v -68 -23 0
v -67 -23 0
v -66 -24 0
v -67 -24 0
v -67 -23 0
v -66 -23 0
v -1 -24 0
v -2 -24 0
v -2 -23 0
v -1 -23 0
v 0 -24 0
v -1 -24 0
v -1 -23 0
v 0 -23 0
v 0 -25 0
v -1 -25 0
v -1 -24 0
v 0 -24 0
v -69 -26 0
v -70 -26 0
v -70 -25 0
v -69 -25 0
v 0 -26 0
v -1 -26 0
v -1 -25 0
v 0 -25 0
v -69 -27 0
v -70 -27 0
v -70 -26 0
v -69 -26 0
v 0 -27 0
v -1 -27 0
v -1 -26 0
v 0 -26 0
v -69 -28 0
v -70 -28 0
v -70 -27 0
v -69 -27 0
v -2 -28 0
v -3 -28 0
v -3 -27 0
v -2 -27 0
v -1 -28 0
v -2 -28 0
v -2 -27 0
v -1 -27 0
v -1 -29 0
v -2 -29 0
v -2 -28 0
v -1 -28 0
v 0 -29 0
v -1 -29 0
v -1 -28 0
v 0 -28 0
v 0 -30 0
v -1 -30 0
v -1 -29 0
v 0 -29 0
v 0 -31 0
v -1 -31 0
v -1 -30 0
v 0 -30 0
v 0 -32 0
v -1 -32 0
v -1 -31 0
v 0 -31 0
v -2 -33 0
v -3 -33 0
v -3 -32 0
v -2 -32 0
v 0 -33 0
v -1 -33 0
v -1 -32 0
v 0 -32 0
v -3 -34 0
v -4 -34 0
v -4 -33 0
v -3 -33 0
v -2 -34 0
v -3 -34 0
v -3 -33 0
v -2 -33 0
v 0 -34 0
v -1 -34 0
v -1 -33 0
v 0 -33 0
v -68 -35 0
v -69 -35 0
v -69 -34 0
v -68 -34 0
v -68 -36 0
v -69 -36 0
v -69 -35 0
v -68 -35 0
v 0 -36 0
v -1 -36 0
v -1 -35 0
v 0 -35 0
v -69 -37 0
v -70 -37 0
v -70 -36 0
v -69 -36 0
v -68 -37 0
v -69 -37 0
v -69 -36 0
v -68 -36 0
v -2 -37 0
v -3 -37 0
v -3 -36 0
v -2 -36 0
v -1 -37 0
v -2 -37 0
v -2 -36 0
v -1 -36 0
v 0 -37 0
v -1 -37 0
v -1 -36 0
v 0 -36 0
v -69 -38 0
v -70 -38 0
v -70 -37 0
v -69 -37 0
v -68 -38 0
v -69 -38 0
v -69 -37 0
v -68 -37 0
v -2 -38 0
v -3 -38 0
v -3 -37 0
v -2 -37 0
v -1 -38 0
v -2 -38 0
v -2 -37 0
v -1 -37 0
v -68 -39 0
v -69 -39 0
v -69 -38 0
v -68 -38 0
v -1 -39 0
v -2 -39 0
v -2 -38 0
v -1 -38 0
v 0 -39 0
v -1 -39 0
v -1 -38 0
v 0 -38 0
v -68 -40 0
v -69 -40 0
v -69 -39 0
v -68 -39 0
v 0 -40 0
v -1 -40 0
v -1 -39 0
v 0 -39 0
v -67 -41 0
v -68 -41 0
v -68 -40 0
v -67 -40 0
v 0 -41 0
v -1 -41 0
v -1 -40 0
v 0 -40 0
v -68 -42 0
v -69 -42 0
v -69 -41 0
v -68 -41 0
v -67 -42 0
v -68 -42 0
v -68 -41 0
v -67 -41 0
v -2 -42 0
v -3 -42 0
v -3 -41 0
v -2 -41 0
v -1 -42 0
v -2 -42 0
v -2 -41 0
v -1 -41 0
v -69 -43 0
v -70 -43 0
v -70 -42 0
v -69 -42 0
v -68 -43 0
v -69 -43 0
v -69 -42 0
v -68 -42 0
v -2 -43 0
v -3 -43 0
v -3 -42 0
v -2 -42 0
v -69 -44 0
v -70 -44 0
v -70 -43 0
v -69 -43 0
v -2 -44 0
v -3 -44 0
v -3 -43 0
v -2 -43 0
v 0 -44 0
v -1 -44 0
v -1 -43 0
v 0 -43 0
v -69 -45 0
v -70 -45 0
v -70 -44 0
v -69 -44 0
v -2 -45 0
v -3 -45 0
v -3 -44 0
v -2 -44 0
v 0 -45 0
v -1 -45 0
v -1 -44 0
v 0 -44 0
v 0 -46 0
v -1 -46 0
v -1 -45 0
v 0 -45 0
v -69 -47 0
v -70 -47 0
v -70 -46 0
v -69 -46 0
v -1 -47 0
v -2 -47 0
v -2 -46 0
v -1 -46 0
v 0 -47 0
v -1 -47 0
v -1 -46 0
v 0 -46 0
v -69 -48 0
v -70 -48 0
v -70 -47 0
v -69 -47 0
v -68 -48 0
v -69 -48 0
v -69 -47 0
v -68 -47 0
v -1 -48 0
v -2 -48 0
v -2 -47 0
v -1 -47 0
v -68 -49 0
v -69 -49 0
v -69 -48 0
v -68 -48 0
v -3 -49 0
v -4 -49 0
v -4 -48 0
v -3 -48 0
v -2 -49 0
v -3 -49 0
v -3 -48 0
v -2 -48 0
v 0 -49 0
v -1 -49 0
v -1 -48 0
v 0 -48 0
v -68 -50 0
v -69 -50 0
v -69 -49 0
v -68 -49 0
v -1 -50 0
v -2 -50 0
v -2 -49 0
v -1 -49 0
v -68 -51 0
v -69 -51 0
v -69 -50 0
v -68 -50 0
v -4 -52 0
v -5 -52 0
v -5 -51 0
v -4 -51 0
v -69 -53 0
v -70 -53 0
v -70 -52 0
v -69 -52 0
v -68 -53 0
v -69 -53 0
v -69 -52 0
v -68 -52 0
v -47 -53 0
v -48 -53 0
v -48 -52 0
v -47 -52 0
v -46 -53 0
v -47 -53 0
v -47 -52 0
v -46 -52 0
v -3 -53 0
v -4 -53 0
v -4 -52 0
v -3 -52 0
v -68 -54 0
v -69 -54 0
v -69 -53 0
v -68 -53 0
v -67 -54 0
v -68 -54 0
v -68 -53 0
v -67 -53 0
v -50 -54 0
v -51 -54 0
v -51 -53 0
v -50 -53 0
v -48 -54 0
v -49 -54 0
v -49 -53 0
v -48 -53 0
v -47 -54 0
v -48 -54 0
v -48 -53 0
v -47 -53 0
v -46 -54 0
v -47 -54 0
v -47 -53 0
v -46 -53 0
v -45 -54 0
v -46 -54 0
v -46 -53 0
v -45 -53 0
v -44 -54 0
v -45 -54 0
v -45 -53 0
v -44 -53 0
v -43 -54 0
v -44 -54 0
v -44 -53 0
v -43 -53 0
v -40 -54 0
v -41 -54 0
v -41 -53 0
v -40 -53 0
v -30 -54 0
v -31 -54 0
v -31 -53 0
v -30 -53 0
v -28 -54 0
v -29 -54 0
v -29 -53 0
v -28 -53 0
v -27 -54 0
v -28 -54 0
v -28 -53 0
v -27 -53 0
v -19 -54 0
v -20 -54 0
v -20 -53 0
v -19 -53 0
v -18 -54 0
v -19 -54 0
v -19 -53 0
v -18 -53 0
v -17 -54 0
v -18 -54 0
v -18 -53 0
v -17 -53 0
v -16 -54 0
v -17 -54 0
v -17 -53 0
v -16 -53 0
v -3 -54 0
v -4 -54 0
v -4 -53 0
v -3 -53 0
v -2 -54 0
v -3 -54 0
v -3 -53 0
v -2 -53 0
v -65 -55 0
v -66 -55 0
v -66 -54 0
v -65 -54 0
v -64 -55 0
v -65 -55 0
v -65 -54 0
v -64 -54 0
v -53 -55 0
v -54 -55 0
v -54 -54 0
v -53 -54 0
v -51 -55 0
v -52 -55 0
v -52 -54 0
v -51 -54 0
v -50 -55 0
v -51 -55 0
v -51 -54 0
v -50 -54 0
v -48 -55 0
v -49 -55 0
v -49 -54 0
v -48 -54 0
v -47 -55 0
v -48 -55 0
v -48 -54 0
v -47 -54 0
v -42 -55 0
v -43 -55 0
v -43 -54 0
v -42 -54 0
v -41 -55 0
v -42 -55 0
v -42 -54 0
v -41 -54 0
v -40 -55 0
v -41 -55 0
v -41 -54 0
v -40 -54 0
v -35 -55 0
v -36 -55 0
v -36 -54 0
v -35 -54 0
v -32 -55 0
v -33 -55 0
v -33 -54 0
v -32 -54 0
v -31 -55 0
v -32 -55 0
v -32 -54 0
v -31 -54 0
v -30 -55 0
v -31 -55 0
v -31 -54 0
v -30 -54 0
v -25 -55 0
v -26 -55 0
v -26 -54 0
v -25 -54 0
v -24 -55 0
v -25 -55 0
v -25 -54 0
v -24 -54 0
v -23 -55 0
v -24 -55 0
v -24 -54 0
v -23 -54 0
v -22 -55 0
v -23 -55 0
v -23 -54 0
v -22 -54 0
v -19 -55 0
v -20 -55 0
v -20 -54 0
v -19 -54 0
v -18 -55 0
v -19 -55 0
v -19 -54 0
v -18 -54 0
v -17 -55 0
v -18 -55 0
v -18 -54 0
v -17 -54 0
v -16 -55 0
v -17 -55 0
v -17 -54 0
v -16 -54 0
v -68 -56 0
v -69 -56 0
v -69 -55 0
v -68 -55 0
v -67 -56 0
v -68 -56 0
v -68 -55 0
v -67 -55 0
v -64 -56 0
v -65 -56 0
v -65 -55 0
v -64 -55 0
v -54 -56 0
v -55 -56 0
v -55 -55 0
v -54 -55 0
v -53 -56 0
v -54 -56 0
v -54 -55 0
v -53 -55 0
v -51 -56 0
v -52 -56 0
v -52 -55 0
v -51 -55 0
v -50 -56 0
v -51 -56 0
v -51 -55 0
v -50 -55 0
v -49 -56 0
v -50 -56 0
v -50 -55 0
v -49 -55 0
v -47 -56 0
v -48 -56 0
v -48 -55 0
v -47 -55 0
v -46 -56 0
v -47 -56 0
v -47 -55 0
v -46 -55 0
v -36 -56 0
v -37 -56 0
v -37 -55 0
v -36 -55 0
v -34 -56 0
v -35 -56 0
v -35 -55 0
v -34 -55 0
v -33 -56 0
v -34 -56 0
v -34 -55 0
v -33 -55 0
v -31 -56 0
v -32 -56 0
v -32 -55 0
v -31 -55 0
v -30 -56 0
v -31 -56 0
v -31 -55 0
v -30 -55 0
v -28 -56 0
v -29 -56 0
v -29 -55 0
v -28 -55 0
v -27 -56 0
v -28 -56 0
v -28 -55 0
v -27 -55 0
v -25 -56 0
v -26 -56 0
v -26 -55 0
v -25 -55 0
v -24 -56 0
v -25 -56 0
v -25 -55 0
v -24 -55 0
v -22 -56 0
v -23 -56 0
v -23 -55 0
v -22 -55 0
v -21 -56 0
v -22 -56 0
v -22 -55 0
v -21 -55 0
v -20 -56 0
v -21 -56 0
v -21 -55 0
v -20 -55 0
v -19 -56 0
v -20 -56 0
v -20 -55 0
v -19 -55 0
v -18 -56 0
v -19 -56 0
v -19 -55 0
v -18 -55 0
v -15 -56 0
v -16 -56 0
v -16 -55 0
v -15 -55 0
v -13 -56 0
v -14 -56 0
v -14 -55 0
v -13 -55 0
v -12 -56 0
v -13 -56 0
v -13 -55 0
v -12 -55 0
v -11 -56 0
v -12 -56 0
v -12 -55 0
v -11 -55 0
v -10 -56 0
v -11 -56 0
v -11 -55 0
v -10 -55 0
v -8 -56 0
v -9 -56 0
v -9 -55 0
v -8 -55 0
v -7 -56 0
v -8 -56 0
v -8 -55 0
v -7 -55 0
v -1 -56 0
v -2 -56 0
v -2 -55 0
v -1 -55 0
v 0 -56 0
v -1 -56 0
v -1 -55 0
v 0 -55 0
v -69 -57 0
v -70 -57 0
v -70 -56 0
v -69 -56 0
v -68 -57 0
v -69 -57 0
v -69 -56 0
v -68 -56 0
v -64 -57 0
v -65 -57 0
v -65 -56 0
v -64 -56 0
v -63 -57 0
v -64 -57 0
v -64 -56 0
v -63 -56 0
v -53 -57 0
v -54 -57 0
v -54 -56 0
v -53 -56 0
v -52 -57 0
v -53 -57 0
v -53 -56 0
v -52 -56 0
v -50 -57 0
v -51 -57 0
v -51 -56 0
v -50 -56 0
v -49 -57 0
v -50 -57 0
v -50 -56 0
v -49 -56 0
v -47 -57 0
v -48 -57 0
v -48 -56 0
v -47 -56 0
v -46 -57 0
v -47 -57 0
v -47 -56 0
v -46 -56 0
v -35 -57 0
v -36 -57 0
v -36 -56 0
v -35 -56 0
v -34 -57 0
v -35 -57 0
v -35 -56 0
v -34 -56 0
v -31 -57 0
v -32 -57 0
v -32 -56 0
v -31 -56 0
v -30 -57 0
v -31 -57 0
v -31 -56 0
v -30 -56 0
v -29 -57 0
v -30 -57 0
v -30 -56 0
v -29 -56 0
v -28 -57 0
v -29 -57 0
v -29 -56 0
v -28 -56 0
v -24 -57 0
v -25 -57 0
v -25 -56 0
v -24 -56 0
v -23 -57 0
v -24 -57 0
v -24 -56 0
v -23 -56 0
v -20 -57 0
v -21 -57 0
v -21 -56 0
v -20 -56 0
v -19 -57 0
v -20 -57 0
v -20 -56 0
v -19 -56 0
v -12 -57 0
v -13 -57 0
v -13 -56 0
v -12 -56 0
v -11 -57 0
v -12 -57 0
v -12 -56 0
v -11 -56 0
v -6 -57 0
v -7 -57 0
v -7 -56 0
v -6 -56 0
v -5 -57 0
v -6 -57 0
v -6 -56 0
v -5 -56 0
v -2 -57 0
v -3 -57 0
v -3 -56 0
v -2 -56 0
v -1 -57 0
v -2 -57 0
v -2 -56 0
v -1 -56 0

# Texture cooridinates (Count = 72)
vt 0.04173455 0.5834554
vt 0.06229666 0.5834554
vt 0.06229666 0.610989
vt 0.04173455 0.610989
vt 0.02092831 0.5278999
vt 0.04149041 0.5278999
vt 0.04149041 0.5554335
vt 0.02092831 0.5554335
vt 0.0001220703 0.5278999
vt 0.02068417 0.5278999
vt 0.02068417 0.5554335
vt 0.0001220703 0.5554335
vt 0.1249595 0.5278999
vt 0.1455216 0.5278999
vt 0.1455216 0.5554335
vt 0.1249595 0.5554335
vt 0.1041533 0.5278999
vt 0.1247154 0.5278999
vt 0.1247154 0.5554335
vt 0.1041533 0.5554335
vt 0.1249595 0.5001221
vt 0.1455216 0.5001221
vt 0.1455216 0.5276557
vt 0.1249595 0.5276557
vt 0.1041533 0.5001221
vt 0.1247154 0.5001221
vt 0.1247154 0.5276557
vt 0.1041533 0.5276557
vt 0.166572 0.08345538
vt 0.1871341 0.08345538
vt 0.1871341 0.110989
vt 0.166572 0.110989
vt 0.1457658 0.08345538
vt 0.1663279 0.08345538
vt 0.1663279 0.110989
vt 0.1457658 0.110989
vt 0.166572 0.05567765
vt 0.1871341 0.05567765
vt 0.1871341 0.08321124
vt 0.166572 0.08321124
vt 0.1457658 0.05567765
vt 0.1663279 0.05567765
vt 0.1663279 0.08321124
vt 0.1457658 0.08321124
vt 0.166572 0.02789986
vt 0.1871341 0.02789986
vt 0.1871341 0.05543351
vt 0.166572 0.05543351
vt 0.1457658 0.02789986
vt 0.1663279 0.02789986
vt 0.1663279 0.05543351
vt 0.1457658 0.05543351
vt 0.166572 0.0001220703
vt 0.1871341 0.0001220703
vt 0.1871341 0.02765572
vt 0.166572 0.02765572
vt 0.1457658 0.0001220703
vt 0.1663279 0.0001220703
vt 0.1663279 0.02765572
vt 0.1457658 0.02765572
vt 0.0625408 0.6112332
vt 0.0831029 0.6112332
vt 0.0831029 0.6387668
vt 0.0625408 0.6387668
vt 0.0625408 0.5834554
vt 0.0831029 0.5834554
vt 0.0831029 0.610989
vt 0.0625408 0.610989
vt 0.0625408 0.5556777
vt 0.0831029 0.5556777
vt 0.0831029 0.5832113
vt 0.0625408 0.5832113

# Normal
vn 0 0 -1

# Mesh description
g TaasOngYiuLeft_mesh_0002

# Faces
f 1/1/1 2/2/1 3/3/1 4/4/1
f 5/1/1 6/2/1 7/3/1 8/4/1
f 9/1/1 10/2/1 11/3/1 12/4/1
f 13/5/1 14/6/1 15/7/1 16/8/1
f 17/9/1 18/10/1 19/11/1 20/12/1
f 21/1/1 22/2/1 23/3/1 24/4/1
f 25/1/1 26/2/1 27/3/1 28/4/1
f 29/1/1 30/2/1 31/3/1 32/4/1
f 33/5/1 34/6/1 35/7/1 36/8/1
f 37/9/1 38/10/1 39/11/1 40/12/1
f 41/1/1 42/2/1 43/3/1 44/4/1
f 45/5/1 46/6/1 47/7/1 48/8/1
f 49/9/1 50/10/1 51/11/1 52/12/1
f 53/1/1 54/2/1 55/3/1 56/4/1
f 57/1/1 58/2/1 59/3/1 60/4/1
f 61/13/1 62/14/1 63/15/1 64/16/1
f 65/17/1 66/18/1 67/19/1 68/20/1
f 69/1/1 70/2/1 71/3/1 72/4/1
f 73/1/1 74/2/1 75/3/1 76/4/1
f 77/1/1 78/2/1 79/3/1 80/4/1
f 81/1/1 82/2/1 83/3/1 84/4/1
f 85/1/1 86/2/1 87/3/1 88/4/1
f 89/1/1 90/2/1 91/3/1 92/4/1
f 93/5/1 94/6/1 95/7/1 96/8/1
f 97/9/1 98/10/1 99/11/1 100/12/1
f 101/5/1 102/6/1 103/7/1 104/8/1
f 105/9/1 106/10/1 107/11/1 108/12/1
f 109/5/1 110/6/1 111/7/1 112/8/1
f 113/9/1 114/10/1 115/11/1 116/12/1
f 117/1/1 118/2/1 119/3/1 120/4/1
f 121/1/1 122/2/1 123/3/1 124/4/1
f 125/5/1 126/6/1 127/7/1 128/8/1
f 129/9/1 130/10/1 131/11/1 132/12/1
f 133/1/1 134/2/1 135/3/1 136/4/1
f 137/21/1 138/22/1 139/23/1 140/24/1
f 141/25/1 142/26/1 143/27/1 144/28/1
f 145/13/1 146/14/1 147/15/1 148/16/1
f 149/17/1 150/18/1 151/19/1 152/20/1
f 153/1/1 154/2/1 155/3/1 156/4/1
f 157/1/1 158/2/1 159/3/1 160/4/1
f 161/1/1 162/2/1 163/3/1 164/4/1
f 165/1/1 166/2/1 167/3/1 168/4/1
f 169/1/1 170/2/1 171/3/1 172/4/1
f 173/1/1 174/2/1 175/3/1 176/4/1
f 177/1/1 178/2/1 179/3/1 180/4/1
f 181/21/1 182/22/1 183/23/1 184/24/1
f 185/25/1 186/26/1 187/27/1 188/28/1
f 189/1/1 190/2/1 191/3/1 192/4/1
f 193/1/1 194/2/1 195/3/1 196/4/1
f 197/1/1 198/2/1 199/3/1 200/4/1
f 201/1/1 202/2/1 203/3/1 204/4/1
f 205/1/1 206/2/1 207/3/1 208/4/1
f 209/1/1 210/2/1 211/3/1 212/4/1
f 213/1/1 214/2/1 215/3/1 216/4/1
f 217/1/1 218/2/1 219/3/1 220/4/1
f 221/1/1 222/2/1 223/3/1 224/4/1
f 225/1/1 226/2/1 227/3/1 228/4/1
f 229/1/1 230/2/1 231/3/1 232/4/1
f 233/1/1 234/2/1 235/3/1 236/4/1
f 237/1/1 238/2/1 239/3/1 240/4/1
f 241/1/1 242/2/1 243/3/1 244/4/1
f 245/1/1 246/2/1 247/3/1 248/4/1
f 249/1/1 250/2/1 251/3/1 252/4/1
f 253/29/1 254/30/1 255/31/1 256/32/1
f 257/33/1 258/34/1 259/35/1 260/36/1
f 261/1/1 262/2/1 263/3/1 264/4/1
f 265/37/1 266/38/1 267/39/1 268/40/1
f 269/41/1 270/42/1 271/43/1 272/44/1
f 273/1/1 274/2/1 275/3/1 276/4/1
f 277/45/1 278/46/1 279/47/1 280/48/1
f 281/49/1 282/50/1 283/51/1 284/52/1
f 285/1/1 286/2/1 287/3/1 288/4/1
f 289/53/1 290/54/1 291/55/1 292/56/1
f 293/57/1 294/58/1 295/59/1 296/60/1
f 297/1/1 298/2/1 299/3/1 300/4/1
f 301/1/1 302/2/1 303/3/1 304/4/1
f 305/61/1 306/62/1 307/63/1 308/64/1
f 309/1/1 310/2/1 311/3/1 312/4/1
f 313/1/1 314/2/1 315/3/1 316/4/1
f 317/65/1 318/66/1 319/67/1 320/68/1
f 321/1/1 322/2/1 323/3/1 324/4/1
f 325/1/1 326/2/1 327/3/1 328/4/1
f 329/69/1 330/70/1 331/71/1 332/72/1
f 333/1/1 334/2/1 335/3/1 336/4/1
f 337/1/1 338/2/1 339/3/1 340/4/1
f 341/1/1 342/2/1 343/3/1 344/4/1
f 345/1/1 346/2/1 347/3/1 348/4/1
f 349/1/1 350/2/1 351/3/1 352/4/1
f 353/1/1 354/2/1 355/3/1 356/4/1
f 357/1/1 358/2/1 359/3/1 360/4/1
f 361/1/1 362/2/1 363/3/1 364/4/1
f 365/1/1 366/2/1 367/3/1 368/4/1
f 369/1/1 370/2/1 371/3/1 372/4/1
f 373/1/1 374/2/1 375/3/1 376/4/1
f 377/1/1 378/2/1 379/3/1 380/4/1
f 381/1/1 382/2/1 383/3/1 384/4/1
f 385/1/1 386/2/1 387/3/1 388/4/1
f 389/1/1 390/2/1 391/3/1 392/4/1
f 393/1/1 394/2/1 395/3/1 396/4/1
f 397/1/1 398/2/1 399/3/1 400/4/1
f 401/1/1 402/2/1 403/3/1 404/4/1
f 405/1/1 406/2/1 407/3/1 408/4/1
f 409/1/1 410/2/1 411/3/1 412/4/1
f 413/1/1 414/2/1 415/3/1 416/4/1
f 417/1/1 418/2/1 419/3/1 420/4/1
f 421/1/1 422/2/1 423/3/1 424/4/1
f 425/1/1 426/2/1 427/3/1 428/4/1
f 429/1/1 430/2/1 431/3/1 432/4/1
f 433/1/1 434/2/1 435/3/1 436/4/1
f 437/1/1 438/2/1 439/3/1 440/4/1
f 441/61/1 442/62/1 443/63/1 444/64/1
f 445/1/1 446/2/1 447/3/1 448/4/1
f 449/65/1 450/66/1 451/67/1 452/68/1
f 453/1/1 454/2/1 455/3/1 456/4/1
f 457/69/1 458/70/1 459/71/1 460/72/1
f 461/1/1 462/2/1 463/3/1 464/4/1
f 465/1/1 466/2/1 467/3/1 468/4/1
f 469/1/1 470/2/1 471/3/1 472/4/1
f 473/1/1 474/2/1 475/3/1 476/4/1
f 477/1/1 478/2/1 479/3/1 480/4/1
f 481/1/1 482/2/1 483/3/1 484/4/1
f 485/1/1 486/2/1 487/3/1 488/4/1
f 489/1/1 490/2/1 491/3/1 492/4/1
f 493/1/1 494/2/1 495/3/1 496/4/1
f 497/1/1 498/2/1 499/3/1 500/4/1
f 501/1/1 502/2/1 503/3/1 504/4/1
f 505/1/1 506/2/1 507/3/1 508/4/1
f 509/1/1 510/2/1 511/3/1 512/4/1
f 513/1/1 514/2/1 515/3/1 516/4/1
f 517/1/1 518/2/1 519/3/1 520/4/1
f 521/1/1 522/2/1 523/3/1 524/4/1
f 525/1/1 526/2/1 527/3/1 528/4/1
f 529/1/1 530/2/1 531/3/1 532/4/1
f 533/1/1 534/2/1 535/3/1 536/4/1
f 537/1/1 538/2/1 539/3/1 540/4/1
f 541/1/1 542/2/1 543/3/1 544/4/1
f 545/1/1 546/2/1 547/3/1 548/4/1
f 549/1/1 550/2/1 551/3/1 552/4/1
f 553/1/1 554/2/1 555/3/1 556/4/1
f 557/1/1 558/2/1 559/3/1 560/4/1
f 561/1/1 562/2/1 563/3/1 564/4/1
f 565/1/1 566/2/1 567/3/1 568/4/1
f 569/61/1 570/62/1 571/63/1 572/64/1
f 573/1/1 574/2/1 575/3/1 576/4/1
f 577/65/1 578/66/1 579/67/1 580/68/1
f 581/1/1 582/2/1 583/3/1 584/4/1
f 585/69/1 586/70/1 587/71/1 588/72/1
f 589/1/1 590/2/1 591/3/1 592/4/1
f 593/1/1 594/2/1 595/3/1 596/4/1
f 597/1/1 598/2/1 599/3/1 600/4/1
f 601/1/1 602/2/1 603/3/1 604/4/1
f 605/1/1 606/2/1 607/3/1 608/4/1
f 609/1/1 610/2/1 611/3/1 612/4/1
f 613/1/1 614/2/1 615/3/1 616/4/1
f 617/1/1 618/2/1 619/3/1 620/4/1
f 621/1/1 622/2/1 623/3/1 624/4/1
f 625/1/1 626/2/1 627/3/1 628/4/1
f 629/1/1 630/2/1 631/3/1 632/4/1
f 633/1/1 634/2/1 635/3/1 636/4/1
f 637/1/1 638/2/1 639/3/1 640/4/1
f 641/1/1 642/2/1 643/3/1 644/4/1
f 645/1/1 646/2/1 647/3/1 648/4/1
f 649/1/1 650/2/1 651/3/1 652/4/1
f 653/1/1 654/2/1 655/3/1 656/4/1
f 657/1/1 658/2/1 659/3/1 660/4/1
f 661/1/1 662/2/1 663/3/1 664/4/1
f 665/1/1 666/2/1 667/3/1 668/4/1
f 669/1/1 670/2/1 671/3/1 672/4/1
f 673/1/1 674/2/1 675/3/1 676/4/1
f 677/1/1 678/2/1 679/3/1 680/4/1
f 681/1/1 682/2/1 683/3/1 684/4/1
f 685/1/1 686/2/1 687/3/1 688/4/1
f 689/1/1 690/2/1 691/3/1 692/4/1
f 693/1/1 694/2/1 695/3/1 696/4/1
f 697/1/1 698/2/1 699/3/1 700/4/1
f 701/1/1 702/2/1 703/3/1 704/4/1
f 705/1/1 706/2/1 707/3/1 708/4/1
f 709/1/1 710/2/1 711/3/1 712/4/1
f 713/1/1 714/2/1 715/3/1 716/4/1
f 717/1/1 718/2/1 719/3/1 720/4/1
f 721/1/1 722/2/1 723/3/1 724/4/1
f 725/1/1 726/2/1 727/3/1 728/4/1
f 729/1/1 730/2/1 731/3/1 732/4/1
f 733/13/1 734/14/1 735/15/1 736/16/1
f 737/17/1 738/18/1 739/19/1 740/20/1
f 741/1/1 742/2/1 743/3/1 744/4/1
f 745/1/1 746/2/1 747/3/1 748/4/1
f 749/1/1 750/2/1 751/3/1 752/4/1
f 753/1/1 754/2/1 755/3/1 756/4/1
f 757/1/1 758/2/1 759/3/1 760/4/1
f 761/1/1 762/2/1 763/3/1 764/4/1
f 765/1/1 766/2/1 767/3/1 768/4/1
f 769/1/1 770/2/1 771/3/1 772/4/1
f 773/13/1 774/14/1 775/15/1 776/16/1
f 777/17/1 778/18/1 779/19/1 780/20/1
f 781/1/1 782/2/1 783/3/1 784/4/1
f 785/1/1 786/2/1 787/3/1 788/4/1
f 789/1/1 790/2/1 791/3/1 792/4/1
f 793/1/1 794/2/1 795/3/1 796/4/1
f 797/1/1 798/2/1 799/3/1 800/4/1
f 801/1/1 802/2/1 803/3/1 804/4/1
f 805/1/1 806/2/1 807/3/1 808/4/1
f 809/1/1 810/2/1 811/3/1 812/4/1
f 813/1/1 814/2/1 815/3/1 816/4/1
f 817/21/1 818/22/1 819/23/1 820/24/1
f 821/25/1 822/26/1 823/27/1 824/28/1
f 825/1/1 826/2/1 827/3/1 828/4/1
f 829/1/1 830/2/1 831/3/1 832/4/1
f 833/1/1 834/2/1 835/3/1 836/4/1
f 837/1/1 838/2/1 839/3/1 840/4/1
f 841/1/1 842/2/1 843/3/1 844/4/1
f 845/1/1 846/2/1 847/3/1 848/4/1
f 849/1/1 850/2/1 851/3/1 852/4/1
f 853/13/1 854/14/1 855/15/1 856/16/1
f 857/17/1 858/18/1 859/19/1 860/20/1
f 861/1/1 862/2/1 863/3/1 864/4/1
f 865/1/1 866/2/1 867/3/1 868/4/1
f 869/21/1 870/22/1 871/23/1 872/24/1
f 873/25/1 874/26/1 875/27/1 876/28/1
f 877/1/1 878/2/1 879/3/1 880/4/1
f 881/1/1 882/2/1 883/3/1 884/4/1
f 885/5/1 886/6/1 887/7/1 888/8/1
f 889/9/1 890/10/1 891/11/1 892/12/1
f 893/1/1 894/2/1 895/3/1 896/4/1
f 897/1/1 898/2/1 899/3/1 900/4/1
f 901/1/1 902/2/1 903/3/1 904/4/1
f 905/1/1 906/2/1 907/3/1 908/4/1
f 909/13/1 910/14/1 911/15/1 912/16/1
f 913/17/1 914/18/1 915/19/1 916/20/1
f 917/13/1 918/14/1 919/15/1 920/16/1
f 921/17/1 922/18/1 923/19/1 924/20/1
f 925/1/1 926/2/1 927/3/1 928/4/1
f 929/5/1 930/6/1 931/7/1 932/8/1
f 933/9/1 934/10/1 935/11/1 936/12/1
f 937/13/1 938/14/1 939/15/1 940/16/1
f 941/17/1 942/18/1 943/19/1 944/20/1
f 945/5/1 946/6/1 947/7/1 948/8/1
f 949/9/1 950/10/1 951/11/1 952/12/1
f 953/21/1 954/22/1 955/23/1 956/24/1
f 957/25/1 958/26/1 959/27/1 960/28/1
f 961/1/1 962/2/1 963/3/1 964/4/1
f 965/1/1 966/2/1 967/3/1 968/4/1
f 969/1/1 970/2/1 971/3/1 972/4/1
f 973/1/1 974/2/1 975/3/1 976/4/1
f 977/1/1 978/2/1 979/3/1 980/4/1
f 981/1/1 982/2/1 983/3/1 984/4/1
f 985/5/1 986/6/1 987/7/1 988/8/1
f 989/9/1 990/10/1 991/11/1 992/12/1
f 993/5/1 994/6/1 995/7/1 996/8/1
f 997/9/1 998/10/1 999/11/1 1000/12/1
f 1001/5/1 1002/6/1 1003/7/1 1004/8/1
f 1005/9/1 1006/10/1 1007/11/1 1008/12/1
f 1009/1/1 1010/2/1 1011/3/1 1012/4/1
f 1013/1/1 1014/2/1 1015/3/1 1016/4/1
f 1017/5/1 1018/6/1 1019/7/1 1020/8/1
f 1021/9/1 1022/10/1 1023/11/1 1024/12/1
f 1025/1/1 1026/2/1 1027/3/1 1028/4/1
f 1029/1/1 1030/2/1 1031/3/1 1032/4/1
f 1033/1/1 1034/2/1 1035/3/1 1036/4/1
f 1037/1/1 1038/2/1 1039/3/1 1040/4/1
f 1041/21/1 1042/22/1 1043/23/1 1044/24/1
f 1045/25/1 1046/26/1 1047/27/1 1048/28/1
f 1049/21/1 1050/22/1 1051/23/1 1052/24/1
f 1053/25/1 1054/26/1 1055/27/1 1056/28/1
f 1057/5/1 1058/6/1 1059/7/1 1060/8/1
f 1061/9/1 1062/10/1 1063/11/1 1064/12/1
f 1065/21/1 1066/22/1 1067/23/1 1068/24/1
f 1069/25/1 1070/26/1 1071/27/1 1072/28/1
f 1073/5/1 1074/6/1 1075/7/1 1076/8/1
f 1077/9/1 1078/10/1 1079/11/1 1080/12/1
f 1081/5/1 1082/6/1 1083/7/1 1084/8/1
f 1085/9/1 1086/10/1 1087/11/1 1088/12/1
f 1089/1/1 1090/2/1 1091/3/1 1092/4/1
f 1093/1/1 1094/2/1 1095/3/1 1096/4/1
f 1097/5/1 1098/6/1 1099/7/1 1100/8/1
f 1101/9/1 1102/10/1 1103/11/1 1104/12/1
f 1105/5/1 1106/6/1 1107/7/1 1108/8/1
f 1109/9/1 1110/10/1 1111/11/1 1112/12/1
f 1113/1/1 1114/2/1 1115/3/1 1116/4/1
f 1117/1/1 1118/2/1 1119/3/1 1120/4/1

