# Tiled2Unity generated file. Do not modify by hand.
# Wavefront file for 'TaasOngYiuLeft_mesh_0010.obj'

# Vertices (Count = 120)
v -68 -14 0
v -69 -14 0
v -69 -13 0
v -68 -13 0
v -67 -14 0
v -68 -14 0
v -68 -13 0
v -67 -13 0
v -66 -14 0
v -67 -14 0
v -67 -13 0
v -66 -13 0
v -65 -14 0
v -66 -14 0
v -66 -13 0
v -65 -13 0
v -64 -14 0
v -65 -14 0
v -65 -13 0
v -64 -13 0
v -63 -14 0
v -64 -14 0
v -64 -13 0
v -63 -13 0
v -62 -14 0
v -63 -14 0
v -63 -13 0
v -62 -13 0
v -58 -18 0
v -59 -18 0
v -59 -17 0
v -58 -17 0
v -57 -18 0
v -58 -18 0
v -58 -17 0
v -57 -17 0
v -56 -18 0
v -57 -18 0
v -57 -17 0
v -56 -17 0
v -55 -18 0
v -56 -18 0
v -56 -17 0
v -55 -17 0
v -54 -18 0
v -55 -18 0
v -55 -17 0
v -54 -17 0
v -53 -18 0
v -54 -18 0
v -54 -17 0
v -53 -17 0
v -52 -18 0
v -53 -18 0
v -53 -17 0
v -52 -17 0
v -23 -23 0
v -24 -23 0
v -24 -22 0
v -23 -22 0
v -22 -23 0
v -23 -23 0
v -23 -22 0
v -22 -22 0
v -21 -23 0
v -22 -23 0
v -22 -22 0
v -21 -22 0
v -20 -23 0
v -21 -23 0
v -21 -22 0
v -20 -22 0
v -19 -23 0
v -20 -23 0
v -20 -22 0
v -19 -22 0
v -18 -23 0
v -19 -23 0
v -19 -22 0
v -18 -22 0
v -17 -23 0
v -18 -23 0
v -18 -22 0
v -17 -22 0
v -27 -41 0
v -28 -41 0
v -28 -40 0
v -27 -40 0
v -26 -41 0
v -27 -41 0
v -27 -40 0
v -26 -40 0
v -25 -41 0
v -26 -41 0
v -26 -40 0
v -25 -40 0
v -24 -41 0
v -25 -41 0
v -25 -40 0
v -24 -40 0
v -23 -41 0
v -24 -41 0
v -24 -40 0
v -23 -40 0
v -22 -41 0
v -23 -41 0
v -23 -40 0
v -22 -40 0
v -21 -41 0
v -22 -41 0
v -22 -40 0
v -21 -40 0
v -20 -41 0
v -21 -41 0
v -21 -40 0
v -20 -40 0
v -19 -41 0
v -20 -41 0
v -20 -40 0
v -19 -40 0

# Texture cooridinates (Count = 92)
vt 0.3920284 0.3948589
vt 0.4088236 0.3948589
vt 0.4088236 0.4209306
vt 0.3920284 0.4209306
vt 0.3749889 0.3948589
vt 0.3917842 0.3948589
vt 0.3917842 0.4209306
vt 0.3749889 0.4209306
vt 0.3579496 0.3948589
vt 0.3747448 0.3948589
vt 0.3747448 0.4209306
vt 0.3579496 0.4209306
vt 0.3409101 0.3948589
vt 0.3577054 0.3948589
vt 0.3577054 0.4209306
vt 0.3409101 0.4209306
vt 0.3238707 0.3948589
vt 0.340666 0.3948589
vt 0.340666 0.4209306
vt 0.3238707 0.4209306
vt 0.3068313 0.3948589
vt 0.3236266 0.3948589
vt 0.3236266 0.4209306
vt 0.3068313 0.4209306
vt 0.2897919 0.3948589
vt 0.3065872 0.3948589
vt 0.3065872 0.4209306
vt 0.2897919 0.4209306
vt 0.3920284 0.26328
vt 0.4088236 0.26328
vt 0.4088236 0.2893516
vt 0.3920284 0.2893516
vt 0.3749889 0.26328
vt 0.3917842 0.26328
vt 0.3917842 0.2893516
vt 0.3749889 0.2893516
vt 0.3579496 0.26328
vt 0.3747448 0.26328
vt 0.3747448 0.2893516
vt 0.3579496 0.2893516
vt 0.3409101 0.26328
vt 0.3577054 0.26328
vt 0.3577054 0.2893516
vt 0.3409101 0.2893516
vt 0.3238707 0.26328
vt 0.340666 0.26328
vt 0.340666 0.2893516
vt 0.3238707 0.2893516
vt 0.3068313 0.26328
vt 0.3236266 0.26328
vt 0.3236266 0.2893516
vt 0.3068313 0.2893516
vt 0.2897919 0.26328
vt 0.3065872 0.26328
vt 0.3065872 0.2893516
vt 0.2897919 0.2893516
vt 0.1534767 0.131701
vt 0.170272 0.131701
vt 0.170272 0.1577727
vt 0.1534767 0.1577727
vt 0.1364373 0.131701
vt 0.1532326 0.131701
vt 0.1532326 0.1577727
vt 0.1364373 0.1577727
vt 0.1193979 0.131701
vt 0.1361932 0.131701
vt 0.1361932 0.1577727
vt 0.1193979 0.1577727
vt 0.1023585 0.131701
vt 0.1191538 0.131701
vt 0.1191538 0.1577727
vt 0.1023585 0.1577727
vt 0.08531909 0.131701
vt 0.1021143 0.131701
vt 0.1021143 0.1577727
vt 0.08531909 0.1577727
vt 0.06827968 0.131701
vt 0.08507495 0.131701
vt 0.08507495 0.1577727
vt 0.06827968 0.1577727
vt 0.05124028 0.131701
vt 0.06803554 0.131701
vt 0.06803554 0.1577727
vt 0.05124028 0.1577727
vt 0.03420088 0.131701
vt 0.05099614 0.131701
vt 0.05099614 0.1577727
vt 0.03420088 0.1577727
vt 0.01716147 0.131701
vt 0.03395674 0.131701
vt 0.03395674 0.1577727
vt 0.01716147 0.1577727

# Normal
vn 0 0 -1

# Mesh description
g TaasOngYiuLeft_mesh_0010

# Faces
f 1/1/1 2/2/1 3/3/1 4/4/1
f 5/5/1 6/6/1 7/7/1 8/8/1
f 9/9/1 10/10/1 11/11/1 12/12/1
f 13/13/1 14/14/1 15/15/1 16/16/1
f 17/17/1 18/18/1 19/19/1 20/20/1
f 21/21/1 22/22/1 23/23/1 24/24/1
f 25/25/1 26/26/1 27/27/1 28/28/1
f 29/29/1 30/30/1 31/31/1 32/32/1
f 33/33/1 34/34/1 35/35/1 36/36/1
f 37/37/1 38/38/1 39/39/1 40/40/1
f 41/41/1 42/42/1 43/43/1 44/44/1
f 45/45/1 46/46/1 47/47/1 48/48/1
f 49/49/1 50/50/1 51/51/1 52/52/1
f 53/53/1 54/54/1 55/55/1 56/56/1
f 57/29/1 58/30/1 59/31/1 60/32/1
f 61/33/1 62/34/1 63/35/1 64/36/1
f 65/37/1 66/38/1 67/39/1 68/40/1
f 69/41/1 70/42/1 71/43/1 72/44/1
f 73/45/1 74/46/1 75/47/1 76/48/1
f 77/49/1 78/50/1 79/51/1 80/52/1
f 81/53/1 82/54/1 83/55/1 84/56/1
f 85/57/1 86/58/1 87/59/1 88/60/1
f 89/61/1 90/62/1 91/63/1 92/64/1
f 93/65/1 94/66/1 95/67/1 96/68/1
f 97/69/1 98/70/1 99/71/1 100/72/1
f 101/73/1 102/74/1 103/75/1 104/76/1
f 105/77/1 106/78/1 107/79/1 108/80/1
f 109/81/1 110/82/1 111/83/1 112/84/1
f 113/85/1 114/86/1 115/87/1 116/88/1
f 117/89/1 118/90/1 119/91/1 120/92/1

