# Tiled2Unity generated file. Do not modify by hand.
# Wavefront file for 'TaasOngYiuLeft_mesh_0004.obj'

# Vertices (Count = 232)
v -68 -7 0
v -69 -7 0
v -69 -6 0
v -68 -6 0
v -67 -7 0
v -68 -7 0
v -68 -6 0
v -67 -6 0
v -68 -8 0
v -69 -8 0
v -69 -7 0
v -68 -7 0
v -67 -8 0
v -68 -8 0
v -68 -7 0
v -67 -7 0
v -52 -10 0
v -53 -10 0
v -53 -9 0
v -52 -9 0
v -51 -10 0
v -52 -10 0
v -52 -9 0
v -51 -9 0
v -37 -10 0
v -38 -10 0
v -38 -9 0
v -37 -9 0
v -36 -10 0
v -37 -10 0
v -37 -9 0
v -36 -9 0
v -52 -11 0
v -53 -11 0
v -53 -10 0
v -52 -10 0
v -51 -11 0
v -52 -11 0
v -52 -10 0
v -51 -10 0
v -37 -11 0
v -38 -11 0
v -38 -10 0
v -37 -10 0
v -36 -11 0
v -37 -11 0
v -37 -10 0
v -36 -10 0
v -55 -12 0
v -56 -12 0
v -56 -11 0
v -55 -11 0
v -54 -12 0
v -55 -12 0
v -55 -11 0
v -54 -11 0
v -6 -12 0
v -7 -12 0
v -7 -11 0
v -6 -11 0
v -5 -12 0
v -6 -12 0
v -6 -11 0
v -5 -11 0
v -55 -13 0
v -56 -13 0
v -56 -12 0
v -55 -12 0
v -54 -13 0
v -55 -13 0
v -55 -12 0
v -54 -12 0
v -48 -13 0
v -49 -13 0
v -49 -12 0
v -48 -12 0
v -47 -13 0
v -48 -13 0
v -48 -12 0
v -47 -12 0
v -6 -13 0
v -7 -13 0
v -7 -12 0
v -6 -12 0
v -5 -13 0
v -6 -13 0
v -6 -12 0
v -5 -12 0
v -48 -14 0
v -49 -14 0
v -49 -13 0
v -48 -13 0
v -47 -14 0
v -48 -14 0
v -48 -13 0
v -47 -13 0
v -34 -17 0
v -35 -17 0
v -35 -16 0
v -34 -16 0
v -33 -17 0
v -34 -17 0
v -34 -16 0
v -33 -16 0
v -34 -18 0
v -35 -18 0
v -35 -17 0
v -34 -17 0
v -36 -19 0
v -37 -19 0
v -37 -18 0
v -36 -18 0
v -35 -19 0
v -36 -19 0
v -36 -18 0
v -35 -18 0
v -34 -19 0
v -35 -19 0
v -35 -18 0
v -34 -18 0
v -31 -19 0
v -32 -19 0
v -32 -18 0
v -31 -18 0
v -30 -19 0
v -31 -19 0
v -31 -18 0
v -30 -18 0
v -61 -20 0
v -62 -20 0
v -62 -19 0
v -61 -19 0
v -60 -20 0
v -61 -20 0
v -61 -19 0
v -60 -19 0
v -31 -20 0
v -32 -20 0
v -32 -19 0
v -31 -19 0
v -30 -20 0
v -31 -20 0
v -31 -19 0
v -30 -19 0
v -61 -21 0
v -62 -21 0
v -62 -20 0
v -61 -20 0
v -60 -21 0
v -61 -21 0
v -61 -20 0
v -60 -20 0
v -36 -21 0
v -37 -21 0
v -37 -20 0
v -36 -20 0
v -35 -22 0
v -36 -22 0
v -36 -21 0
v -35 -21 0
v -34 -22 0
v -35 -22 0
v -35 -21 0
v -34 -21 0
v -30 -22 0
v -31 -22 0
v -31 -21 0
v -30 -21 0
v -29 -22 0
v -30 -22 0
v -30 -21 0
v -29 -21 0
v -35 -23 0
v -36 -23 0
v -36 -22 0
v -35 -22 0
v -34 -23 0
v -35 -23 0
v -35 -22 0
v -34 -22 0
v -33 -23 0
v -34 -23 0
v -34 -22 0
v -33 -22 0
v -30 -23 0
v -31 -23 0
v -31 -22 0
v -30 -22 0
v -29 -23 0
v -30 -23 0
v -30 -22 0
v -29 -22 0
v -35 -24 0
v -36 -24 0
v -36 -23 0
v -35 -23 0
v -34 -24 0
v -35 -24 0
v -35 -23 0
v -34 -23 0
v -4 -25 0
v -5 -25 0
v -5 -24 0
v -4 -24 0
v -3 -25 0
v -4 -25 0
v -4 -24 0
v -3 -24 0
v -64 -26 0
v -65 -26 0
v -65 -25 0
v -64 -25 0
v -63 -26 0
v -64 -26 0
v -64 -25 0
v -63 -25 0
v -4 -26 0
v -5 -26 0
v -5 -25 0
v -4 -25 0
v -3 -26 0
v -4 -26 0
v -4 -25 0
v -3 -25 0
v -64 -27 0
v -65 -27 0
v -65 -26 0
v -64 -26 0
v -63 -27 0
v -64 -27 0
v -64 -26 0
v -63 -26 0

# Texture cooridinates (Count = 68)
vt 0.6659218 0.889011
vt 0.6864839 0.889011
vt 0.6864839 0.9165446
vt 0.6659218 0.9165446
vt 0.6451156 0.889011
vt 0.6656777 0.889011
vt 0.6656777 0.9165446
vt 0.6451156 0.9165446
vt 0.6659218 0.8612332
vt 0.6864839 0.8612332
vt 0.6864839 0.8887668
vt 0.6659218 0.8887668
vt 0.6451156 0.8612332
vt 0.6656777 0.8612332
vt 0.6656777 0.8887668
vt 0.6451156 0.8887668
vt 0.1249595 0.5278999
vt 0.1455216 0.5278999
vt 0.1455216 0.5554335
vt 0.1249595 0.5554335
vt 0.1041533 0.5278999
vt 0.1247154 0.5278999
vt 0.1247154 0.5554335
vt 0.1041533 0.5554335
vt 0.1249595 0.5001221
vt 0.1455216 0.5001221
vt 0.1455216 0.5276557
vt 0.1249595 0.5276557
vt 0.1041533 0.5001221
vt 0.1247154 0.5001221
vt 0.1247154 0.5276557
vt 0.1041533 0.5276557
vt 0.04173455 0.5834554
vt 0.06229666 0.5834554
vt 0.06229666 0.610989
vt 0.04173455 0.610989
vt 0.2914095 0.7501221
vt 0.3119715 0.7501221
vt 0.3119715 0.7776557
vt 0.2914095 0.7776557
vt 0.2706032 0.7501221
vt 0.2911653 0.7501221
vt 0.2911653 0.7776557
vt 0.2706032 0.7776557
vt 0.2914095 0.7223443
vt 0.3119715 0.7223443
vt 0.3119715 0.7498779
vt 0.2914095 0.7498779
vt 0.2706032 0.7223443
vt 0.2911653 0.7223443
vt 0.2911653 0.7498779
vt 0.2706032 0.7498779
vt 0.2914095 0.6945665
vt 0.3119715 0.6945665
vt 0.3119715 0.7221001
vt 0.2914095 0.7221001
vt 0.249797 0.7223443
vt 0.2703591 0.7223443
vt 0.2703591 0.7498779
vt 0.249797 0.7498779
vt 0.2289907 0.7223443
vt 0.2495528 0.7223443
vt 0.2495528 0.7498779
vt 0.2289907 0.7498779
vt 0.2289907 0.6945665
vt 0.2495528 0.6945665
vt 0.2495528 0.7221001
vt 0.2289907 0.7221001

# Normal
vn 0 0 -1

# Mesh description
g TaasOngYiuLeft_mesh_0004

# Faces
f 1/1/1 2/2/1 3/3/1 4/4/1
f 5/5/1 6/6/1 7/7/1 8/8/1
f 9/9/1 10/10/1 11/11/1 12/12/1
f 13/13/1 14/14/1 15/15/1 16/16/1
f 17/17/1 18/18/1 19/19/1 20/20/1
f 21/21/1 22/22/1 23/23/1 24/24/1
f 25/1/1 26/2/1 27/3/1 28/4/1
f 29/5/1 30/6/1 31/7/1 32/8/1
f 33/25/1 34/26/1 35/27/1 36/28/1
f 37/29/1 38/30/1 39/31/1 40/32/1
f 41/9/1 42/10/1 43/11/1 44/12/1
f 45/13/1 46/14/1 47/15/1 48/16/1
f 49/17/1 50/18/1 51/19/1 52/20/1
f 53/21/1 54/22/1 55/23/1 56/24/1
f 57/1/1 58/2/1 59/3/1 60/4/1
f 61/5/1 62/6/1 63/7/1 64/8/1
f 65/25/1 66/26/1 67/27/1 68/28/1
f 69/29/1 70/30/1 71/31/1 72/32/1
f 73/17/1 74/18/1 75/19/1 76/20/1
f 77/21/1 78/22/1 79/23/1 80/24/1
f 81/9/1 82/10/1 83/11/1 84/12/1
f 85/13/1 86/14/1 87/15/1 88/16/1
f 89/25/1 90/26/1 91/27/1 92/28/1
f 93/29/1 94/30/1 95/31/1 96/32/1
f 97/33/1 98/34/1 99/35/1 100/36/1
f 101/33/1 102/34/1 103/35/1 104/36/1
f 105/33/1 106/34/1 107/35/1 108/36/1
f 109/33/1 110/34/1 111/35/1 112/36/1
f 113/33/1 114/34/1 115/35/1 116/36/1
f 117/33/1 118/34/1 119/35/1 120/36/1
f 121/37/1 122/38/1 123/39/1 124/40/1
f 125/41/1 126/42/1 127/43/1 128/44/1
f 129/1/1 130/2/1 131/3/1 132/4/1
f 133/5/1 134/6/1 135/7/1 136/8/1
f 137/45/1 138/46/1 139/47/1 140/48/1
f 141/49/1 142/50/1 143/51/1 144/52/1
f 145/9/1 146/10/1 147/11/1 148/12/1
f 149/13/1 150/14/1 151/15/1 152/16/1
f 153/53/1 154/54/1 155/55/1 156/56/1
f 157/37/1 158/38/1 159/39/1 160/40/1
f 161/41/1 162/42/1 163/43/1 164/44/1
f 165/17/1 166/18/1 167/19/1 168/20/1
f 169/21/1 170/22/1 171/23/1 172/24/1
f 173/57/1 174/58/1 175/59/1 176/60/1
f 177/61/1 178/62/1 179/63/1 180/64/1
f 181/65/1 182/66/1 183/67/1 184/68/1
f 185/25/1 186/26/1 187/27/1 188/28/1
f 189/29/1 190/30/1 191/31/1 192/32/1
f 193/45/1 194/46/1 195/47/1 196/48/1
f 197/49/1 198/50/1 199/51/1 200/52/1
f 201/1/1 202/2/1 203/3/1 204/4/1
f 205/5/1 206/6/1 207/7/1 208/8/1
f 209/17/1 210/18/1 211/19/1 212/20/1
f 213/21/1 214/22/1 215/23/1 216/24/1
f 217/9/1 218/10/1 219/11/1 220/12/1
f 221/13/1 222/14/1 223/15/1 224/16/1
f 225/25/1 226/26/1 227/27/1 228/28/1
f 229/29/1 230/30/1 231/31/1 232/32/1

