# Tiled2Unity generated file. Do not modify by hand.
# Wavefront file for 'SanVicenteMemorial_mesh_0003.obj'

# Vertices (Count = 504)
v -15 -2 0
v -16 -2 0
v -16 -1 0
v -15 -1 0
v -14 -2 0
v -15 -2 0
v -15 -1 0
v -14 -1 0
v -13 -2 0
v -14 -2 0
v -14 -1 0
v -13 -1 0
v -15 -3 0
v -16 -3 0
v -16 -2 0
v -15 -2 0
v -14 -3 0
v -15 -3 0
v -15 -2 0
v -14 -2 0
v -13 -3 0
v -14 -3 0
v -14 -2 0
v -13 -2 0
v -4 -3 0
v -5 -3 0
v -5 -2 0
v -4 -2 0
v -4 -4 0
v -5 -4 0
v -5 -3 0
v -4 -3 0
v -29 -5 0
v -30 -5 0
v -30 -4 0
v -29 -4 0
v -11 -6 0
v -12 -6 0
v -12 -5 0
v -11 -5 0
v -17 -9 0
v -18 -9 0
v -18 -8 0
v -17 -8 0
v -36 -12 0
v -37 -12 0
v -37 -11 0
v -36 -11 0
v -27 -13 0
v -28 -13 0
v -28 -12 0
v -27 -12 0
v -20 -13 0
v -21 -13 0
v -21 -12 0
v -20 -12 0
v -18 -14 0
v -19 -14 0
v -19 -13 0
v -18 -13 0
v -17 -14 0
v -18 -14 0
v -18 -13 0
v -17 -13 0
v -16 -14 0
v -17 -14 0
v -17 -13 0
v -16 -13 0
v -4 -14 0
v -5 -14 0
v -5 -13 0
v -4 -13 0
v -3 -14 0
v -4 -14 0
v -4 -13 0
v -3 -13 0
v -2 -14 0
v -3 -14 0
v -3 -13 0
v -2 -13 0
v -18 -15 0
v -19 -15 0
v -19 -14 0
v -18 -14 0
v -17 -15 0
v -18 -15 0
v -18 -14 0
v -17 -14 0
v -16 -15 0
v -17 -15 0
v -17 -14 0
v -16 -14 0
v -4 -15 0
v -5 -15 0
v -5 -14 0
v -4 -14 0
v -3 -15 0
v -4 -15 0
v -4 -14 0
v -3 -14 0
v -2 -15 0
v -3 -15 0
v -3 -14 0
v -2 -14 0
v -27 -16 0
v -28 -16 0
v -28 -15 0
v -27 -15 0
v -33 -17 0
v -34 -17 0
v -34 -16 0
v -33 -16 0
v -23 -17 0
v -24 -17 0
v -24 -16 0
v -23 -16 0
v -31 -20 0
v -32 -20 0
v -32 -19 0
v -31 -19 0
v -30 -20 0
v -31 -20 0
v -31 -19 0
v -30 -19 0
v -31 -21 0
v -32 -21 0
v -32 -20 0
v -31 -20 0
v -30 -21 0
v -31 -21 0
v -31 -20 0
v -30 -20 0
v -31 -22 0
v -32 -22 0
v -32 -21 0
v -31 -21 0
v -30 -22 0
v -31 -22 0
v -31 -21 0
v -30 -21 0
v -2 -26 0
v -3 -26 0
v -3 -25 0
v -2 -25 0
v -20 -28 0
v -21 -28 0
v -21 -27 0
v -20 -27 0
v -19 -28 0
v -20 -28 0
v -20 -27 0
v -19 -27 0
v -18 -28 0
v -19 -28 0
v -19 -27 0
v -18 -27 0
v -1 -28 0
v -2 -28 0
v -2 -27 0
v -1 -27 0
v -22 -29 0
v -23 -29 0
v -23 -28 0
v -22 -28 0
v -19 -29 0
v -20 -29 0
v -20 -28 0
v -19 -28 0
v -18 -29 0
v -19 -29 0
v -19 -28 0
v -18 -28 0
v -1 -29 0
v -2 -29 0
v -2 -28 0
v -1 -28 0
v -24 -30 0
v -25 -30 0
v -25 -29 0
v -24 -29 0
v -22 -30 0
v -23 -30 0
v -23 -29 0
v -22 -29 0
v -21 -30 0
v -22 -30 0
v -22 -29 0
v -21 -29 0
v -10 -30 0
v -11 -30 0
v -11 -29 0
v -10 -29 0
v -7 -30 0
v -8 -30 0
v -8 -29 0
v -7 -29 0
v -6 -30 0
v -7 -30 0
v -7 -29 0
v -6 -29 0
v -22 -31 0
v -23 -31 0
v -23 -30 0
v -22 -30 0
v -21 -31 0
v -22 -31 0
v -22 -30 0
v -21 -30 0
v -9 -31 0
v -10 -31 0
v -10 -30 0
v -9 -30 0
v -8 -31 0
v -9 -31 0
v -9 -30 0
v -8 -30 0
v -7 -31 0
v -8 -31 0
v -8 -30 0
v -7 -30 0
v -6 -31 0
v -7 -31 0
v -7 -30 0
v -6 -30 0
v -22 -32 0
v -23 -32 0
v -23 -31 0
v -22 -31 0
v -21 -32 0
v -22 -32 0
v -22 -31 0
v -21 -31 0
v -9 -32 0
v -10 -32 0
v -10 -31 0
v -9 -31 0
v -8 -32 0
v -9 -32 0
v -9 -31 0
v -8 -31 0
v -14 -33 0
v -15 -33 0
v -15 -32 0
v -14 -32 0
v -7 -33 0
v -8 -33 0
v -8 -32 0
v -7 -32 0
v -28 -35 0
v -29 -35 0
v -29 -34 0
v -28 -34 0
v -27 -35 0
v -28 -35 0
v -28 -34 0
v -27 -34 0
v -13 -35 0
v -14 -35 0
v -14 -34 0
v -13 -34 0
v -28 -36 0
v -29 -36 0
v -29 -35 0
v -28 -35 0
v -27 -36 0
v -28 -36 0
v -28 -35 0
v -27 -35 0
v -12 -38 0
v -13 -38 0
v -13 -37 0
v -12 -37 0
v -11 -38 0
v -12 -38 0
v -12 -37 0
v -11 -37 0
v -9 -38 0
v -10 -38 0
v -10 -37 0
v -9 -37 0
v -22 -39 0
v -23 -39 0
v -23 -38 0
v -22 -38 0
v -21 -39 0
v -22 -39 0
v -22 -38 0
v -21 -38 0
v -20 -39 0
v -21 -39 0
v -21 -38 0
v -20 -38 0
v -12 -39 0
v -13 -39 0
v -13 -38 0
v -12 -38 0
v -11 -39 0
v -12 -39 0
v -12 -38 0
v -11 -38 0
v -9 -39 0
v -10 -39 0
v -10 -38 0
v -9 -38 0
v -22 -40 0
v -23 -40 0
v -23 -39 0
v -22 -39 0
v -21 -40 0
v -22 -40 0
v -22 -39 0
v -21 -39 0
v -20 -40 0
v -21 -40 0
v -21 -39 0
v -20 -39 0
v -12 -40 0
v -13 -40 0
v -13 -39 0
v -12 -39 0
v -11 -40 0
v -12 -40 0
v -12 -39 0
v -11 -39 0
v -21 -41 0
v -22 -41 0
v -22 -40 0
v -21 -40 0
v -30 -43 0
v -31 -43 0
v -31 -42 0
v -30 -42 0
v -22 -44 0
v -23 -44 0
v -23 -43 0
v -22 -43 0
v -30 -45 0
v -31 -45 0
v -31 -44 0
v -30 -44 0
v -21 -45 0
v -22 -45 0
v -22 -44 0
v -21 -44 0
v -31 -46 0
v -32 -46 0
v -32 -45 0
v -31 -45 0
v -29 -46 0
v -30 -46 0
v -30 -45 0
v -29 -45 0
v -22 -46 0
v -23 -46 0
v -23 -45 0
v -22 -45 0
v -21 -50 0
v -22 -50 0
v -22 -49 0
v -21 -49 0
v -20 -50 0
v -21 -50 0
v -21 -49 0
v -20 -49 0
v -19 -50 0
v -20 -50 0
v -20 -49 0
v -19 -49 0
v -24 -51 0
v -25 -51 0
v -25 -50 0
v -24 -50 0
v -21 -51 0
v -22 -51 0
v -22 -50 0
v -21 -50 0
v -20 -51 0
v -21 -51 0
v -21 -50 0
v -20 -50 0
v -19 -51 0
v -20 -51 0
v -20 -50 0
v -19 -50 0
v -19 -52 0
v -20 -52 0
v -20 -51 0
v -19 -51 0
v -7 -53 0
v -8 -53 0
v -8 -52 0
v -7 -52 0
v -23 -56 0
v -24 -56 0
v -24 -55 0
v -23 -55 0
v -13 -59 0
v -14 -59 0
v -14 -58 0
v -13 -58 0
v -9 -59 0
v -10 -59 0
v -10 -58 0
v -9 -58 0
v -18 -60 0
v -19 -60 0
v -19 -59 0
v -18 -59 0
v -12 -60 0
v -13 -60 0
v -13 -59 0
v -12 -59 0
v -29 -62 0
v -30 -62 0
v -30 -61 0
v -29 -61 0
v -28 -62 0
v -29 -62 0
v -29 -61 0
v -28 -61 0
v -8 -62 0
v -9 -62 0
v -9 -61 0
v -8 -61 0
v -29 -63 0
v -30 -63 0
v -30 -62 0
v -29 -62 0
v -28 -63 0
v -29 -63 0
v -29 -62 0
v -28 -62 0
v -19 -63 0
v -20 -63 0
v -20 -62 0
v -19 -62 0
v -13 -63 0
v -14 -63 0
v -14 -62 0
v -13 -62 0
v -12 -63 0
v -13 -63 0
v -13 -62 0
v -12 -62 0
v -11 -63 0
v -12 -63 0
v -12 -62 0
v -11 -62 0
v -29 -64 0
v -30 -64 0
v -30 -63 0
v -29 -63 0
v -28 -64 0
v -29 -64 0
v -29 -63 0
v -28 -63 0
v -23 -64 0
v -24 -64 0
v -24 -63 0
v -23 -63 0
v -19 -64 0
v -20 -64 0
v -20 -63 0
v -19 -63 0
v -13 -64 0
v -14 -64 0
v -14 -63 0
v -13 -63 0
v -12 -64 0
v -13 -64 0
v -13 -63 0
v -12 -63 0
v -11 -64 0
v -12 -64 0
v -12 -63 0
v -11 -63 0
v -23 -66 0
v -24 -66 0
v -24 -65 0
v -23 -65 0
v -22 -66 0
v -23 -66 0
v -23 -65 0
v -22 -65 0
v -12 -70 0
v -13 -70 0
v -13 -69 0
v -12 -69 0
v -6 -73 0
v -7 -73 0
v -7 -72 0
v -6 -72 0
v -32 -75 0
v -33 -75 0
v -33 -74 0
v -32 -74 0
v -18 -76 0
v -19 -76 0
v -19 -75 0
v -18 -75 0
v -21 -79 0
v -22 -79 0
v -22 -78 0
v -21 -78 0

# Texture cooridinates (Count = 128)
vt 0.3746344 0.02789986
vt 0.3951965 0.02789986
vt 0.3951965 0.05543351
vt 0.3746344 0.05543351
vt 0.3538282 0.02789986
vt 0.3743903 0.02789986
vt 0.3743903 0.05543351
vt 0.3538282 0.05543351
vt 0.3330219 0.02789986
vt 0.3535841 0.02789986
vt 0.3535841 0.05543351
vt 0.3330219 0.05543351
vt 0.3746344 0.0001220703
vt 0.3951965 0.0001220703
vt 0.3951965 0.02765572
vt 0.3746344 0.02765572
vt 0.3538282 0.0001220703
vt 0.3743903 0.0001220703
vt 0.3743903 0.02765572
vt 0.3538282 0.02765572
vt 0.3330219 0.0001220703
vt 0.3535841 0.0001220703
vt 0.3535841 0.02765572
vt 0.3330219 0.02765572
vt 0.5826969 0.9167888
vt 0.603259 0.9167888
vt 0.603259 0.9443223
vt 0.5826969 0.9443223
vt 0.6035031 0.889011
vt 0.6240652 0.889011
vt 0.6240652 0.9165446
vt 0.6035031 0.9165446
vt 0.2289907 0.1667888
vt 0.2495528 0.1667888
vt 0.2495528 0.1943223
vt 0.2289907 0.1943223
vt 0.5618906 0.889011
vt 0.5824527 0.889011
vt 0.5824527 0.9165446
vt 0.5618906 0.9165446
vt 0.4162469 0.05567765
vt 0.436809 0.05567765
vt 0.436809 0.08321124
vt 0.4162469 0.08321124
vt 0.3954407 0.05567765
vt 0.4160028 0.05567765
vt 0.4160028 0.08321124
vt 0.3954407 0.08321124
vt 0.4162469 0.02789986
vt 0.436809 0.02789986
vt 0.436809 0.05543351
vt 0.4162469 0.05543351
vt 0.3954407 0.02789986
vt 0.4160028 0.02789986
vt 0.4160028 0.05543351
vt 0.3954407 0.05543351
vt 0.4162469 0.0001220703
vt 0.436809 0.0001220703
vt 0.436809 0.02765572
vt 0.4162469 0.02765572
vt 0.3954407 0.0001220703
vt 0.4160028 0.0001220703
vt 0.4160028 0.02765572
vt 0.3954407 0.02765572
vt 0.166572 0.9723443
vt 0.1871341 0.9723443
vt 0.1871341 0.9998779
vt 0.166572 0.9998779
vt 0.2081845 0.6667887
vt 0.2287466 0.6667887
vt 0.2287466 0.6943223
vt 0.2081845 0.6943223
vt 0.1873782 0.6667887
vt 0.2079404 0.6667887
vt 0.2079404 0.6943223
vt 0.1873782 0.6943223
vt 0.6035031 0.9167888
vt 0.6240652 0.9167888
vt 0.6240652 0.9443223
vt 0.6035031 0.9443223
vt 0.2081845 0.9723443
vt 0.2287466 0.9723443
vt 0.2287466 0.9998779
vt 0.2081845 0.9998779
vt 0.2081845 0.639011
vt 0.2287466 0.639011
vt 0.2287466 0.6665446
vt 0.2081845 0.6665446
vt 0.1873782 0.639011
vt 0.2079404 0.639011
vt 0.2079404 0.6665446
vt 0.1873782 0.6665446
vt 0.1873782 0.9723443
vt 0.2079404 0.9723443
vt 0.2079404 0.9998779
vt 0.1873782 0.9998779
vt 0.1041533 0.9445665
vt 0.1247154 0.9445665
vt 0.1247154 0.9721001
vt 0.1041533 0.9721001
vt 0.08334704 0.9445665
vt 0.1039091 0.9445665
vt 0.1039091 0.9721001
vt 0.08334704 0.9721001
vt 0.2081845 0.6945665
vt 0.2287466 0.6945665
vt 0.2287466 0.7221001
vt 0.2081845 0.7221001
vt 0.1873782 0.6945665
vt 0.2079404 0.6945665
vt 0.2079404 0.7221001
vt 0.1873782 0.7221001
vt 0.1041533 0.9167888
vt 0.1247154 0.9167888
vt 0.1247154 0.9443223
vt 0.1041533 0.9443223
vt 0.08334704 0.9167888
vt 0.1039091 0.9167888
vt 0.1039091 0.9443223
vt 0.08334704 0.9443223
vt 0.5618906 0.9445665
vt 0.5824527 0.9445665
vt 0.5824527 0.9721001
vt 0.5618906 0.9721001
vt 0.5826969 0.889011
vt 0.603259 0.889011
vt 0.603259 0.9165446
vt 0.5826969 0.9165446

# Normal
vn 0 0 -1

# Mesh description
g SanVicenteMemorial_mesh_0003

# Faces
f 1/1/1 2/2/1 3/3/1 4/4/1
f 5/5/1 6/6/1 7/7/1 8/8/1
f 9/9/1 10/10/1 11/11/1 12/12/1
f 13/13/1 14/14/1 15/15/1 16/16/1
f 17/17/1 18/18/1 19/19/1 20/20/1
f 21/21/1 22/22/1 23/23/1 24/24/1
f 25/25/1 26/26/1 27/27/1 28/28/1
f 29/29/1 30/30/1 31/31/1 32/32/1
f 33/25/1 34/26/1 35/27/1 36/28/1
f 37/29/1 38/30/1 39/31/1 40/32/1
f 41/25/1 42/26/1 43/27/1 44/28/1
f 45/33/1 46/34/1 47/35/1 48/36/1
f 49/33/1 50/34/1 51/35/1 52/36/1
f 53/33/1 54/34/1 55/35/1 56/36/1
f 57/1/1 58/2/1 59/3/1 60/4/1
f 61/5/1 62/6/1 63/7/1 64/8/1
f 65/9/1 66/10/1 67/11/1 68/12/1
f 69/1/1 70/2/1 71/3/1 72/4/1
f 73/5/1 74/6/1 75/7/1 76/8/1
f 77/9/1 78/10/1 79/11/1 80/12/1
f 81/13/1 82/14/1 83/15/1 84/16/1
f 85/17/1 86/18/1 87/19/1 88/20/1
f 89/21/1 90/22/1 91/23/1 92/24/1
f 93/13/1 94/14/1 95/15/1 96/16/1
f 97/17/1 98/18/1 99/19/1 100/20/1
f 101/21/1 102/22/1 103/23/1 104/24/1
f 105/37/1 106/38/1 107/39/1 108/40/1
f 109/33/1 110/34/1 111/35/1 112/36/1
f 113/33/1 114/34/1 115/35/1 116/36/1
f 117/41/1 118/42/1 119/43/1 120/44/1
f 121/45/1 122/46/1 123/47/1 124/48/1
f 125/49/1 126/50/1 127/51/1 128/52/1
f 129/53/1 130/54/1 131/55/1 132/56/1
f 133/57/1 134/58/1 135/59/1 136/60/1
f 137/61/1 138/62/1 139/63/1 140/64/1
f 141/33/1 142/34/1 143/35/1 144/36/1
f 145/65/1 146/66/1 147/67/1 148/68/1
f 149/69/1 150/70/1 151/71/1 152/72/1
f 153/73/1 154/74/1 155/75/1 156/76/1
f 157/77/1 158/78/1 159/79/1 160/80/1
f 161/81/1 162/82/1 163/83/1 164/84/1
f 165/85/1 166/86/1 167/87/1 168/88/1
f 169/89/1 170/90/1 171/91/1 172/92/1
f 173/37/1 174/38/1 175/39/1 176/40/1
f 177/93/1 178/94/1 179/95/1 180/96/1
f 181/69/1 182/70/1 183/71/1 184/72/1
f 185/73/1 186/74/1 187/75/1 188/76/1
f 189/93/1 190/94/1 191/95/1 192/96/1
f 193/97/1 194/98/1 195/99/1 196/100/1
f 197/101/1 198/102/1 199/103/1 200/104/1
f 201/105/1 202/106/1 203/107/1 204/108/1
f 205/109/1 206/110/1 207/111/1 208/112/1
f 209/69/1 210/70/1 211/71/1 212/72/1
f 213/73/1 214/74/1 215/75/1 216/76/1
f 217/113/1 218/114/1 219/115/1 220/116/1
f 221/117/1 222/118/1 223/119/1 224/120/1
f 225/85/1 226/86/1 227/87/1 228/88/1
f 229/89/1 230/90/1 231/91/1 232/92/1
f 233/85/1 234/86/1 235/87/1 236/88/1
f 237/89/1 238/90/1 239/91/1 240/92/1
f 241/33/1 242/34/1 243/35/1 244/36/1
f 245/93/1 246/94/1 247/95/1 248/96/1
f 249/97/1 250/98/1 251/99/1 252/100/1
f 253/101/1 254/102/1 255/103/1 256/104/1
f 257/37/1 258/38/1 259/39/1 260/40/1
f 261/113/1 262/114/1 263/115/1 264/116/1
f 265/117/1 266/118/1 267/119/1 268/120/1
f 269/41/1 270/42/1 271/43/1 272/44/1
f 273/45/1 274/46/1 275/47/1 276/48/1
f 277/33/1 278/34/1 279/35/1 280/36/1
f 281/1/1 282/2/1 283/3/1 284/4/1
f 285/5/1 286/6/1 287/7/1 288/8/1
f 289/9/1 290/10/1 291/11/1 292/12/1
f 293/49/1 294/50/1 295/51/1 296/52/1
f 297/53/1 298/54/1 299/55/1 300/56/1
f 301/25/1 302/26/1 303/27/1 304/28/1
f 305/13/1 306/14/1 307/15/1 308/16/1
f 309/17/1 310/18/1 311/19/1 312/20/1
f 313/21/1 314/22/1 315/23/1 316/24/1
f 317/57/1 318/58/1 319/59/1 320/60/1
f 321/61/1 322/62/1 323/63/1 324/64/1
f 325/25/1 326/26/1 327/27/1 328/28/1
f 329/33/1 330/34/1 331/35/1 332/36/1
f 333/33/1 334/34/1 335/35/1 336/36/1
f 337/25/1 338/26/1 339/27/1 340/28/1
f 341/121/1 342/122/1 343/123/1 344/124/1
f 345/125/1 346/126/1 347/127/1 348/128/1
f 349/77/1 350/78/1 351/79/1 352/80/1
f 353/77/1 354/78/1 355/79/1 356/80/1
f 357/1/1 358/2/1 359/3/1 360/4/1
f 361/5/1 362/6/1 363/7/1 364/8/1
f 365/9/1 366/10/1 367/11/1 368/12/1
f 369/121/1 370/122/1 371/123/1 372/124/1
f 373/13/1 374/14/1 375/15/1 376/16/1
f 377/17/1 378/18/1 379/19/1 380/20/1
f 381/21/1 382/22/1 383/23/1 384/24/1
f 385/37/1 386/38/1 387/39/1 388/40/1
f 389/37/1 390/38/1 391/39/1 392/40/1
f 393/33/1 394/34/1 395/35/1 396/36/1
f 397/33/1 398/34/1 399/35/1 400/36/1
f 401/33/1 402/34/1 403/35/1 404/36/1
f 405/37/1 406/38/1 407/39/1 408/40/1
f 409/77/1 410/78/1 411/79/1 412/80/1
f 413/41/1 414/42/1 415/43/1 416/44/1
f 417/45/1 418/46/1 419/47/1 420/48/1
f 421/125/1 422/126/1 423/127/1 424/128/1
f 425/49/1 426/50/1 427/51/1 428/52/1
f 429/53/1 430/54/1 431/55/1 432/56/1
f 433/33/1 434/34/1 435/35/1 436/36/1
f 437/1/1 438/2/1 439/3/1 440/4/1
f 441/5/1 442/6/1 443/7/1 444/8/1
f 445/9/1 446/10/1 447/11/1 448/12/1
f 449/57/1 450/58/1 451/59/1 452/60/1
f 453/61/1 454/62/1 455/63/1 456/64/1
f 457/33/1 458/34/1 459/35/1 460/36/1
f 461/25/1 462/26/1 463/27/1 464/28/1
f 465/13/1 466/14/1 467/15/1 468/16/1
f 469/17/1 470/18/1 471/19/1 472/20/1
f 473/21/1 474/22/1 475/23/1 476/24/1
f 477/77/1 478/78/1 479/79/1 480/80/1
f 481/37/1 482/38/1 483/39/1 484/40/1
f 485/37/1 486/38/1 487/39/1 488/40/1
f 489/25/1 490/26/1 491/27/1 492/28/1
f 493/25/1 494/26/1 495/27/1 496/28/1
f 497/25/1 498/26/1 499/27/1 500/28/1
f 501/37/1 502/38/1 503/39/1 504/40/1

