# Tiled2Unity generated file. Do not modify by hand.
# Wavefront file for 'Buhangin_mesh_0004.obj'

# Vertices (Count = 744)
v -6 -2 0
v -7 -2 0
v -7 -1 0
v -6 -1 0
v -7 -2 0
v -8 -2 0
v -8 -1 0
v -7 -1 0
v -22 -2 0
v -23 -2 0
v -23 -1 0
v -22 -1 0
v -23 -2 0
v -24 -2 0
v -24 -1 0
v -23 -1 0
v -37 -2 0
v -38 -2 0
v -38 -1 0
v -37 -1 0
v -38 -2 0
v -39 -2 0
v -39 -1 0
v -38 -1 0
v -6 -3 0
v -7 -3 0
v -7 -2 0
v -6 -2 0
v -7 -3 0
v -8 -3 0
v -8 -2 0
v -7 -2 0
v -22 -3 0
v -23 -3 0
v -23 -2 0
v -22 -2 0
v -23 -3 0
v -24 -3 0
v -24 -2 0
v -23 -2 0
v -37 -3 0
v -38 -3 0
v -38 -2 0
v -37 -2 0
v -38 -3 0
v -39 -3 0
v -39 -2 0
v -38 -2 0
v -42 -3 0
v -43 -3 0
v -43 -2 0
v -42 -2 0
v -13 -4 0
v -14 -4 0
v -14 -3 0
v -13 -3 0
v -14 -4 0
v -15 -4 0
v -15 -3 0
v -14 -3 0
v -15 -4 0
v -16 -4 0
v -16 -3 0
v -15 -3 0
v -16 -4 0
v -17 -4 0
v -17 -3 0
v -16 -3 0
v -30 -4 0
v -31 -4 0
v -31 -3 0
v -30 -3 0
v -31 -4 0
v -32 -4 0
v -32 -3 0
v -31 -3 0
v -32 -4 0
v -33 -4 0
v -33 -3 0
v -32 -3 0
v -33 -4 0
v -34 -4 0
v -34 -3 0
v -33 -3 0
v -13 -5 0
v -14 -5 0
v -14 -4 0
v -13 -4 0
v -14 -5 0
v -15 -5 0
v -15 -4 0
v -14 -4 0
v -15 -5 0
v -16 -5 0
v -16 -4 0
v -15 -4 0
v -16 -5 0
v -17 -5 0
v -17 -4 0
v -16 -4 0
v -30 -5 0
v -31 -5 0
v -31 -4 0
v -30 -4 0
v -31 -5 0
v -32 -5 0
v -32 -4 0
v -31 -4 0
v -32 -5 0
v -33 -5 0
v -33 -4 0
v -32 -4 0
v -33 -5 0
v -34 -5 0
v -34 -4 0
v -33 -4 0
v -13 -6 0
v -14 -6 0
v -14 -5 0
v -13 -5 0
v -14 -6 0
v -15 -6 0
v -15 -5 0
v -14 -5 0
v -15 -6 0
v -16 -6 0
v -16 -5 0
v -15 -5 0
v -16 -6 0
v -17 -6 0
v -17 -5 0
v -16 -5 0
v -30 -6 0
v -31 -6 0
v -31 -5 0
v -30 -5 0
v -31 -6 0
v -32 -6 0
v -32 -5 0
v -31 -5 0
v -32 -6 0
v -33 -6 0
v -33 -5 0
v -32 -5 0
v -33 -6 0
v -34 -6 0
v -34 -5 0
v -33 -5 0
v -23 -9 0
v -24 -9 0
v -24 -8 0
v -23 -8 0
v -24 -9 0
v -25 -9 0
v -25 -8 0
v -24 -8 0
v -25 -9 0
v -26 -9 0
v -26 -8 0
v -25 -8 0
v -26 -9 0
v -27 -9 0
v -27 -8 0
v -26 -8 0
v -13 -10 0
v -14 -10 0
v -14 -9 0
v -13 -9 0
v -23 -10 0
v -24 -10 0
v -24 -9 0
v -23 -9 0
v -24 -10 0
v -25 -10 0
v -25 -9 0
v -24 -9 0
v -25 -10 0
v -26 -10 0
v -26 -9 0
v -25 -9 0
v -26 -10 0
v -27 -10 0
v -27 -9 0
v -26 -9 0
v -6 -11 0
v -7 -11 0
v -7 -10 0
v -6 -10 0
v -7 -11 0
v -8 -11 0
v -8 -10 0
v -7 -10 0
v -8 -11 0
v -9 -11 0
v -9 -10 0
v -8 -10 0
v -23 -11 0
v -24 -11 0
v -24 -10 0
v -23 -10 0
v -24 -11 0
v -25 -11 0
v -25 -10 0
v -24 -10 0
v -25 -11 0
v -26 -11 0
v -26 -10 0
v -25 -10 0
v -26 -11 0
v -27 -11 0
v -27 -10 0
v -26 -10 0
v -43 -11 0
v -44 -11 0
v -44 -10 0
v -43 -10 0
v -44 -11 0
v -45 -11 0
v -45 -10 0
v -44 -10 0
v -47 -11 0
v -48 -11 0
v -48 -10 0
v -47 -10 0
v -48 -11 0
v -49 -11 0
v -49 -10 0
v -48 -10 0
v -43 -12 0
v -44 -12 0
v -44 -11 0
v -43 -11 0
v -44 -12 0
v -45 -12 0
v -45 -11 0
v -44 -11 0
v -47 -12 0
v -48 -12 0
v -48 -11 0
v -47 -11 0
v -48 -12 0
v -49 -12 0
v -49 -11 0
v -48 -11 0
v -21 -13 0
v -22 -13 0
v -22 -12 0
v -21 -12 0
v -22 -13 0
v -23 -13 0
v -23 -12 0
v -22 -12 0
v -1 -14 0
v -2 -14 0
v -2 -13 0
v -1 -13 0
v -2 -14 0
v -3 -14 0
v -3 -13 0
v -2 -13 0
v -21 -14 0
v -22 -14 0
v -22 -13 0
v -21 -13 0
v -22 -14 0
v -23 -14 0
v -23 -13 0
v -22 -13 0
v -1 -15 0
v -2 -15 0
v -2 -14 0
v -1 -14 0
v -2 -15 0
v -3 -15 0
v -3 -14 0
v -2 -14 0
v -32 -17 0
v -33 -17 0
v -33 -16 0
v -32 -16 0
v -8 -18 0
v -9 -18 0
v -9 -17 0
v -8 -17 0
v -9 -18 0
v -10 -18 0
v -10 -17 0
v -9 -17 0
v -10 -18 0
v -11 -18 0
v -11 -17 0
v -10 -17 0
v -24 -22 0
v -25 -22 0
v -25 -21 0
v -24 -21 0
v -25 -22 0
v -26 -22 0
v -26 -21 0
v -25 -21 0
v -30 -22 0
v -31 -22 0
v -31 -21 0
v -30 -21 0
v -31 -22 0
v -32 -22 0
v -32 -21 0
v -31 -21 0
v -32 -22 0
v -33 -22 0
v -33 -21 0
v -32 -21 0
v -33 -22 0
v -34 -22 0
v -34 -21 0
v -33 -21 0
v -24 -23 0
v -25 -23 0
v -25 -22 0
v -24 -22 0
v -25 -23 0
v -26 -23 0
v -26 -22 0
v -25 -22 0
v -30 -23 0
v -31 -23 0
v -31 -22 0
v -30 -22 0
v -31 -23 0
v -32 -23 0
v -32 -22 0
v -31 -22 0
v -32 -23 0
v -33 -23 0
v -33 -22 0
v -32 -22 0
v -33 -23 0
v -34 -23 0
v -34 -22 0
v -33 -22 0
v -30 -24 0
v -31 -24 0
v -31 -23 0
v -30 -23 0
v -31 -24 0
v -32 -24 0
v -32 -23 0
v -31 -23 0
v -32 -24 0
v -33 -24 0
v -33 -23 0
v -32 -23 0
v -33 -24 0
v -34 -24 0
v -34 -23 0
v -33 -23 0
v -48 -24 0
v -49 -24 0
v -49 -23 0
v -48 -23 0
v -18 -25 0
v -19 -25 0
v -19 -24 0
v -18 -24 0
v -19 -25 0
v -20 -25 0
v -20 -24 0
v -19 -24 0
v -20 -25 0
v -21 -25 0
v -21 -24 0
v -20 -24 0
v -21 -25 0
v -22 -25 0
v -22 -24 0
v -21 -24 0
v -10 -26 0
v -11 -26 0
v -11 -25 0
v -10 -25 0
v -11 -26 0
v -12 -26 0
v -12 -25 0
v -11 -25 0
v -18 -26 0
v -19 -26 0
v -19 -25 0
v -18 -25 0
v -19 -26 0
v -20 -26 0
v -20 -25 0
v -19 -25 0
v -20 -26 0
v -21 -26 0
v -21 -25 0
v -20 -25 0
v -21 -26 0
v -22 -26 0
v -22 -25 0
v -21 -25 0
v -10 -27 0
v -11 -27 0
v -11 -26 0
v -10 -26 0
v -11 -27 0
v -12 -27 0
v -12 -26 0
v -11 -26 0
v -18 -27 0
v -19 -27 0
v -19 -26 0
v -18 -26 0
v -19 -27 0
v -20 -27 0
v -20 -26 0
v -19 -26 0
v -20 -27 0
v -21 -27 0
v -21 -26 0
v -20 -26 0
v -21 -27 0
v -22 -27 0
v -22 -26 0
v -21 -26 0
v -18 -28 0
v -19 -28 0
v -19 -27 0
v -18 -27 0
v -19 -28 0
v -20 -28 0
v -20 -27 0
v -19 -27 0
v -41 -29 0
v -42 -29 0
v -42 -28 0
v -41 -28 0
v -42 -29 0
v -43 -29 0
v -43 -28 0
v -42 -28 0
v -43 -29 0
v -44 -29 0
v -44 -28 0
v -43 -28 0
v -44 -29 0
v -45 -29 0
v -45 -28 0
v -44 -28 0
v -41 -30 0
v -42 -30 0
v -42 -29 0
v -41 -29 0
v -42 -30 0
v -43 -30 0
v -43 -29 0
v -42 -29 0
v -43 -30 0
v -44 -30 0
v -44 -29 0
v -43 -29 0
v -44 -30 0
v -45 -30 0
v -45 -29 0
v -44 -29 0
v -41 -31 0
v -42 -31 0
v -42 -30 0
v -41 -30 0
v -42 -31 0
v -43 -31 0
v -43 -30 0
v -42 -30 0
v -43 -31 0
v -44 -31 0
v -44 -30 0
v -43 -30 0
v -44 -31 0
v -45 -31 0
v -45 -30 0
v -44 -30 0
v -13 -32 0
v -14 -32 0
v -14 -31 0
v -13 -31 0
v -14 -32 0
v -15 -32 0
v -15 -31 0
v -14 -31 0
v -15 -32 0
v -16 -32 0
v -16 -31 0
v -15 -31 0
v -13 -33 0
v -14 -33 0
v -14 -32 0
v -13 -32 0
v -14 -33 0
v -15 -33 0
v -15 -32 0
v -14 -32 0
v -15 -33 0
v -16 -33 0
v -16 -32 0
v -15 -32 0
v -40 -33 0
v -41 -33 0
v -41 -32 0
v -40 -32 0
v -13 -34 0
v -14 -34 0
v -14 -33 0
v -13 -33 0
v -14 -34 0
v -15 -34 0
v -15 -33 0
v -14 -33 0
v -15 -34 0
v -16 -34 0
v -16 -33 0
v -15 -33 0
v -13 -35 0
v -14 -35 0
v -14 -34 0
v -13 -34 0
v -14 -35 0
v -15 -35 0
v -15 -34 0
v -14 -34 0
v -15 -35 0
v -16 -35 0
v -16 -34 0
v -15 -34 0
v -23 -36 0
v -24 -36 0
v -24 -35 0
v -23 -35 0
v -24 -36 0
v -25 -36 0
v -25 -35 0
v -24 -35 0
v -2 -37 0
v -3 -37 0
v -3 -36 0
v -2 -36 0
v -23 -37 0
v -24 -37 0
v -24 -36 0
v -23 -36 0
v -24 -37 0
v -25 -37 0
v -25 -36 0
v -24 -36 0
v -30 -37 0
v -31 -37 0
v -31 -36 0
v -30 -36 0
v -31 -37 0
v -32 -37 0
v -32 -36 0
v -31 -36 0
v -32 -37 0
v -33 -37 0
v -33 -36 0
v -32 -36 0
v -5 -38 0
v -6 -38 0
v -6 -37 0
v -5 -37 0
v -32 -38 0
v -33 -38 0
v -33 -37 0
v -32 -37 0
v -33 -38 0
v -34 -38 0
v -34 -37 0
v -33 -37 0
v -34 -38 0
v -35 -38 0
v -35 -37 0
v -34 -37 0
v -42 -40 0
v -43 -40 0
v -43 -39 0
v -42 -39 0
v -43 -40 0
v -44 -40 0
v -44 -39 0
v -43 -39 0
v -21 -41 0
v -22 -41 0
v -22 -40 0
v -21 -40 0
v -22 -41 0
v -23 -41 0
v -23 -40 0
v -22 -40 0
v -23 -41 0
v -24 -41 0
v -24 -40 0
v -23 -40 0
v -42 -41 0
v -43 -41 0
v -43 -40 0
v -42 -40 0
v -43 -41 0
v -44 -41 0
v -44 -40 0
v -43 -40 0
v -1 -45 0
v -2 -45 0
v -2 -44 0
v -1 -44 0
v -2 -45 0
v -3 -45 0
v -3 -44 0
v -2 -44 0
v -24 -45 0
v -25 -45 0
v -25 -44 0
v -24 -44 0
v -25 -45 0
v -26 -45 0
v -26 -44 0
v -25 -44 0
v -26 -45 0
v -27 -45 0
v -27 -44 0
v -26 -44 0
v -27 -45 0
v -28 -45 0
v -28 -44 0
v -27 -44 0
v -32 -45 0
v -33 -45 0
v -33 -44 0
v -32 -44 0
v -33 -45 0
v -34 -45 0
v -34 -44 0
v -33 -44 0
v -39 -45 0
v -40 -45 0
v -40 -44 0
v -39 -44 0
v -40 -45 0
v -41 -45 0
v -41 -44 0
v -40 -44 0
v -41 -45 0
v -42 -45 0
v -42 -44 0
v -41 -44 0
v -42 -45 0
v -43 -45 0
v -43 -44 0
v -42 -44 0
v -1 -46 0
v -2 -46 0
v -2 -45 0
v -1 -45 0
v -2 -46 0
v -3 -46 0
v -3 -45 0
v -2 -45 0
v -24 -46 0
v -25 -46 0
v -25 -45 0
v -24 -45 0
v -25 -46 0
v -26 -46 0
v -26 -45 0
v -25 -45 0
v -26 -46 0
v -27 -46 0
v -27 -45 0
v -26 -45 0
v -27 -46 0
v -28 -46 0
v -28 -45 0
v -27 -45 0
v -32 -46 0
v -33 -46 0
v -33 -45 0
v -32 -45 0
v -33 -46 0
v -34 -46 0
v -34 -45 0
v -33 -45 0
v -39 -46 0
v -40 -46 0
v -40 -45 0
v -39 -45 0
v -40 -46 0
v -41 -46 0
v -41 -45 0
v -40 -45 0
v -41 -46 0
v -42 -46 0
v -42 -45 0
v -41 -45 0
v -42 -46 0
v -43 -46 0
v -43 -45 0
v -42 -45 0
v -24 -47 0
v -25 -47 0
v -25 -46 0
v -24 -46 0
v -25 -47 0
v -26 -47 0
v -26 -46 0
v -25 -46 0
v -26 -47 0
v -27 -47 0
v -27 -46 0
v -26 -46 0
v -27 -47 0
v -28 -47 0
v -28 -46 0
v -27 -46 0
v -36 -47 0
v -37 -47 0
v -37 -46 0
v -36 -46 0
v -39 -47 0
v -40 -47 0
v -40 -46 0
v -39 -46 0
v -40 -47 0
v -41 -47 0
v -41 -46 0
v -40 -46 0
v -41 -47 0
v -42 -47 0
v -42 -46 0
v -41 -46 0
v -42 -47 0
v -43 -47 0
v -43 -46 0
v -42 -46 0
v -48 -47 0
v -49 -47 0
v -49 -46 0
v -48 -46 0

# Texture cooridinates (Count = 95)
vt 0.08322497 0.9444444
vt 0.1040312 0.9444444
vt 0.1040312 0.9722222
vt 0.08322497 0.9722222
vt 0.1248375 0.9444444
vt 0.1248375 0.9722222
vt 0.6449935 0.8888889
vt 0.6657997 0.8888889
vt 0.6657997 0.9166667
vt 0.6449935 0.9166667
vt 0.686606 0.8888889
vt 0.686606 0.9166667
vt 0.08322497 0.9166667
vt 0.1040312 0.9166667
vt 0.1248375 0.9166667
vt 0.6449935 0.8611111
vt 0.6657997 0.8611111
vt 0.686606 0.8611111
vt 0.02080624 0.9722222
vt 0.04161248 0.9722222
vt 0.04161248 1
vt 0.02080624 1
vt 0 0.08333331
vt 0.02080624 0.08333331
vt 0.02080624 0.1111111
vt 0 0.1111111
vt 0.04161248 0.08333331
vt 0.04161248 0.1111111
vt 0.06241873 0.08333331
vt 0.06241873 0.1111111
vt 0.08322497 0.08333331
vt 0.08322497 0.1111111
vt 0 0.05555558
vt 0.02080624 0.05555558
vt 0.04161248 0.05555558
vt 0.06241873 0.05555558
vt 0.08322497 0.05555558
vt 0 0.02777779
vt 0.02080624 0.02777779
vt 0.04161248 0.02777779
vt 0.06241873 0.02777779
vt 0.08322497 0.02777779
vt 0.06241873 0.8333333
vt 0.08322497 0.8333333
vt 0.08322497 0.8611111
vt 0.06241873 0.8611111
vt 0.1040312 0.8333333
vt 0.1040312 0.8611111
vt 0.1248375 0.8333333
vt 0.1248375 0.8611111
vt 0.2912874 0.1666667
vt 0.3120936 0.1666667
vt 0.3120936 0.1944444
vt 0.2912874 0.1944444
vt 0.3328999 0.1666667
vt 0.3328999 0.1944444
vt 0.3537061 0.1666667
vt 0.3537061 0.1944444
vt 0.3745123 0.1666667
vt 0.3745123 0.1944444
vt 0.2912874 0.1388889
vt 0.3120936 0.1388889
vt 0.3328999 0.1388889
vt 0.3537061 0.1388889
vt 0.3745123 0.1388889
vt 0.2912874 0.1111111
vt 0.3120936 0.1111111
vt 0.3328999 0.1111111
vt 0.3537061 0.1111111
vt 0.3745123 0.1111111
vt 0.2912874 0.08333331
vt 0.3120936 0.08333331
vt 0.3328999 0.08333331
vt 0.5825748 0.8611111
vt 0.603381 0.8611111
vt 0.603381 0.8888889
vt 0.5825748 0.8888889
vt 0.6241872 0.8611111
vt 0.6241872 0.8888889
vt 0.5825748 0.8333333
vt 0.603381 0.8333333
vt 0.6241872 0.8333333
vt 0.6449935 0.8333333
vt 0.7282184 0.6944444
vt 0.7490247 0.6944444
vt 0.7490247 0.7222222
vt 0.7282184 0.7222222
vt 0.7698309 0.6944444
vt 0.7698309 0.7222222
vt 0.7906372 0.6944444
vt 0.7906372 0.7222222
vt 0.7282184 0.6666666
vt 0.7490247 0.6666666
vt 0.7698309 0.6666666
vt 0.7906372 0.6666666

# Normal
vn 0 0 -1

# Mesh description
g Buhangin_mesh_0004

# Faces
f 1/1/1 2/2/1 3/3/1 4/4/1
f 5/2/1 6/5/1 7/6/1 8/3/1
f 9/7/1 10/8/1 11/9/1 12/10/1
f 13/8/1 14/11/1 15/12/1 16/9/1
f 17/1/1 18/2/1 19/3/1 20/4/1
f 21/2/1 22/5/1 23/6/1 24/3/1
f 25/13/1 26/14/1 27/2/1 28/1/1
f 29/14/1 30/15/1 31/5/1 32/2/1
f 33/16/1 34/17/1 35/8/1 36/7/1
f 37/17/1 38/18/1 39/11/1 40/8/1
f 41/13/1 42/14/1 43/2/1 44/1/1
f 45/14/1 46/15/1 47/5/1 48/2/1
f 49/19/1 50/20/1 51/21/1 52/22/1
f 53/23/1 54/24/1 55/25/1 56/26/1
f 57/24/1 58/27/1 59/28/1 60/25/1
f 61/27/1 62/29/1 63/30/1 64/28/1
f 65/29/1 66/31/1 67/32/1 68/30/1
f 69/23/1 70/24/1 71/25/1 72/26/1
f 73/24/1 74/27/1 75/28/1 76/25/1
f 77/27/1 78/29/1 79/30/1 80/28/1
f 81/29/1 82/31/1 83/32/1 84/30/1
f 85/33/1 86/34/1 87/24/1 88/23/1
f 89/34/1 90/35/1 91/27/1 92/24/1
f 93/35/1 94/36/1 95/29/1 96/27/1
f 97/36/1 98/37/1 99/31/1 100/29/1
f 101/33/1 102/34/1 103/24/1 104/23/1
f 105/34/1 106/35/1 107/27/1 108/24/1
f 109/35/1 110/36/1 111/29/1 112/27/1
f 113/36/1 114/37/1 115/31/1 116/29/1
f 117/38/1 118/39/1 119/34/1 120/33/1
f 121/39/1 122/40/1 123/35/1 124/34/1
f 125/40/1 126/41/1 127/36/1 128/35/1
f 129/41/1 130/42/1 131/37/1 132/36/1
f 133/38/1 134/39/1 135/34/1 136/33/1
f 137/39/1 138/40/1 139/35/1 140/34/1
f 141/40/1 142/41/1 143/36/1 144/35/1
f 145/41/1 146/42/1 147/37/1 148/36/1
f 149/23/1 150/24/1 151/25/1 152/26/1
f 153/24/1 154/27/1 155/28/1 156/25/1
f 157/27/1 158/29/1 159/30/1 160/28/1
f 161/29/1 162/31/1 163/32/1 164/30/1
f 165/19/1 166/20/1 167/21/1 168/22/1
f 169/33/1 170/34/1 171/24/1 172/23/1
f 173/34/1 174/35/1 175/27/1 176/24/1
f 177/35/1 178/36/1 179/29/1 180/27/1
f 181/36/1 182/37/1 183/31/1 184/29/1
f 185/43/1 186/44/1 187/45/1 188/46/1
f 189/44/1 190/47/1 191/48/1 192/45/1
f 193/47/1 194/49/1 195/50/1 196/48/1
f 197/38/1 198/39/1 199/34/1 200/33/1
f 201/39/1 202/40/1 203/35/1 204/34/1
f 205/40/1 206/41/1 207/36/1 208/35/1
f 209/41/1 210/42/1 211/37/1 212/36/1
f 213/7/1 214/8/1 215/9/1 216/10/1
f 217/8/1 218/11/1 219/12/1 220/9/1
f 221/1/1 222/2/1 223/3/1 224/4/1
f 225/2/1 226/5/1 227/6/1 228/3/1
f 229/16/1 230/17/1 231/8/1 232/7/1
f 233/17/1 234/18/1 235/11/1 236/8/1
f 237/13/1 238/14/1 239/2/1 240/1/1
f 241/14/1 242/15/1 243/5/1 244/2/1
f 245/1/1 246/2/1 247/3/1 248/4/1
f 249/2/1 250/5/1 251/6/1 252/3/1
f 253/1/1 254/2/1 255/3/1 256/4/1
f 257/2/1 258/5/1 259/6/1 260/3/1
f 261/13/1 262/14/1 263/2/1 264/1/1
f 265/14/1 266/15/1 267/5/1 268/2/1
f 269/13/1 270/14/1 271/2/1 272/1/1
f 273/14/1 274/15/1 275/5/1 276/2/1
f 277/19/1 278/20/1 279/21/1 280/22/1
f 281/43/1 282/44/1 283/45/1 284/46/1
f 285/44/1 286/47/1 287/48/1 288/45/1
f 289/47/1 290/49/1 291/50/1 292/48/1
f 293/1/1 294/2/1 295/3/1 296/4/1
f 297/2/1 298/5/1 299/6/1 300/3/1
f 301/23/1 302/24/1 303/25/1 304/26/1
f 305/24/1 306/27/1 307/28/1 308/25/1
f 309/27/1 310/29/1 311/30/1 312/28/1
f 313/29/1 314/31/1 315/32/1 316/30/1
f 317/13/1 318/14/1 319/2/1 320/1/1
f 321/14/1 322/15/1 323/5/1 324/2/1
f 325/33/1 326/34/1 327/24/1 328/23/1
f 329/34/1 330/35/1 331/27/1 332/24/1
f 333/35/1 334/36/1 335/29/1 336/27/1
f 337/36/1 338/37/1 339/31/1 340/29/1
f 341/38/1 342/39/1 343/34/1 344/33/1
f 345/39/1 346/40/1 347/35/1 348/34/1
f 349/40/1 350/41/1 351/36/1 352/35/1
f 353/41/1 354/42/1 355/37/1 356/36/1
f 357/19/1 358/20/1 359/21/1 360/22/1
f 361/51/1 362/52/1 363/53/1 364/54/1
f 365/52/1 366/55/1 367/56/1 368/53/1
f 369/55/1 370/57/1 371/58/1 372/56/1
f 373/57/1 374/59/1 375/60/1 376/58/1
f 377/7/1 378/8/1 379/9/1 380/10/1
f 381/8/1 382/11/1 383/12/1 384/9/1
f 385/61/1 386/62/1 387/52/1 388/51/1
f 389/62/1 390/63/1 391/55/1 392/52/1
f 393/63/1 394/64/1 395/57/1 396/55/1
f 397/64/1 398/65/1 399/59/1 400/57/1
f 401/16/1 402/17/1 403/8/1 404/7/1
f 405/17/1 406/18/1 407/11/1 408/8/1
f 409/66/1 410/67/1 411/62/1 412/61/1
f 413/67/1 414/68/1 415/63/1 416/62/1
f 417/68/1 418/69/1 419/64/1 420/63/1
f 421/69/1 422/70/1 423/65/1 424/64/1
f 425/71/1 426/72/1 427/67/1 428/66/1
f 429/72/1 430/73/1 431/68/1 432/67/1
f 433/23/1 434/24/1 435/25/1 436/26/1
f 437/24/1 438/27/1 439/28/1 440/25/1
f 441/27/1 442/29/1 443/30/1 444/28/1
f 445/29/1 446/31/1 447/32/1 448/30/1
f 449/33/1 450/34/1 451/24/1 452/23/1
f 453/34/1 454/35/1 455/27/1 456/24/1
f 457/35/1 458/36/1 459/29/1 460/27/1
f 461/36/1 462/37/1 463/31/1 464/29/1
f 465/38/1 466/39/1 467/34/1 468/33/1
f 469/39/1 470/40/1 471/35/1 472/34/1
f 473/40/1 474/41/1 475/36/1 476/35/1
f 477/41/1 478/42/1 479/37/1 480/36/1
f 481/74/1 482/75/1 483/76/1 484/77/1
f 485/75/1 486/78/1 487/79/1 488/76/1
f 489/78/1 490/16/1 491/7/1 492/79/1
f 493/80/1 494/81/1 495/75/1 496/74/1
f 497/81/1 498/82/1 499/78/1 500/75/1
f 501/82/1 502/83/1 503/16/1 504/78/1
f 505/19/1 506/20/1 507/21/1 508/22/1
f 509/84/1 510/85/1 511/86/1 512/87/1
f 513/85/1 514/88/1 515/89/1 516/86/1
f 517/88/1 518/90/1 519/91/1 520/89/1
f 521/92/1 522/93/1 523/85/1 524/84/1
f 525/93/1 526/94/1 527/88/1 528/85/1
f 529/94/1 530/95/1 531/90/1 532/88/1
f 533/7/1 534/8/1 535/9/1 536/10/1
f 537/8/1 538/11/1 539/12/1 540/9/1
f 541/19/1 542/20/1 543/21/1 544/22/1
f 545/16/1 546/17/1 547/8/1 548/7/1
f 549/17/1 550/18/1 551/11/1 552/8/1
f 553/43/1 554/44/1 555/45/1 556/46/1
f 557/44/1 558/47/1 559/48/1 560/45/1
f 561/47/1 562/49/1 563/50/1 564/48/1
f 565/19/1 566/20/1 567/21/1 568/22/1
f 569/43/1 570/44/1 571/45/1 572/46/1
f 573/44/1 574/47/1 575/48/1 576/45/1
f 577/47/1 578/49/1 579/50/1 580/48/1
f 581/1/1 582/2/1 583/3/1 584/4/1
f 585/2/1 586/5/1 587/6/1 588/3/1
f 589/43/1 590/44/1 591/45/1 592/46/1
f 593/44/1 594/47/1 595/48/1 596/45/1
f 597/47/1 598/49/1 599/50/1 600/48/1
f 601/13/1 602/14/1 603/2/1 604/1/1
f 605/14/1 606/15/1 607/5/1 608/2/1
f 609/1/1 610/2/1 611/3/1 612/4/1
f 613/2/1 614/5/1 615/6/1 616/3/1
f 617/23/1 618/24/1 619/25/1 620/26/1
f 621/24/1 622/27/1 623/28/1 624/25/1
f 625/27/1 626/29/1 627/30/1 628/28/1
f 629/29/1 630/31/1 631/32/1 632/30/1
f 633/7/1 634/8/1 635/9/1 636/10/1
f 637/8/1 638/11/1 639/12/1 640/9/1
f 641/23/1 642/24/1 643/25/1 644/26/1
f 645/24/1 646/27/1 647/28/1 648/25/1
f 649/27/1 650/29/1 651/30/1 652/28/1
f 653/29/1 654/31/1 655/32/1 656/30/1
f 657/13/1 658/14/1 659/2/1 660/1/1
f 661/14/1 662/15/1 663/5/1 664/2/1
f 665/33/1 666/34/1 667/24/1 668/23/1
f 669/34/1 670/35/1 671/27/1 672/24/1
f 673/35/1 674/36/1 675/29/1 676/27/1
f 677/36/1 678/37/1 679/31/1 680/29/1
f 681/16/1 682/17/1 683/8/1 684/7/1
f 685/17/1 686/18/1 687/11/1 688/8/1
f 689/33/1 690/34/1 691/24/1 692/23/1
f 693/34/1 694/35/1 695/27/1 696/24/1
f 697/35/1 698/36/1 699/29/1 700/27/1
f 701/36/1 702/37/1 703/31/1 704/29/1
f 705/38/1 706/39/1 707/34/1 708/33/1
f 709/39/1 710/40/1 711/35/1 712/34/1
f 713/40/1 714/41/1 715/36/1 716/35/1
f 717/41/1 718/42/1 719/37/1 720/36/1
f 721/19/1 722/20/1 723/21/1 724/22/1
f 725/38/1 726/39/1 727/34/1 728/33/1
f 729/39/1 730/40/1 731/35/1 732/34/1
f 733/40/1 734/41/1 735/36/1 736/35/1
f 737/41/1 738/42/1 739/37/1 740/36/1
f 741/19/1 742/20/1 743/21/1 744/22/1

