# Tiled2Unity generated file. Do not modify by hand.
# Wavefront file for 'UpperRose_mesh_0005.obj'

# Vertices (Count = 640)
v -42 -1 0
v -43 -1 0
v -43 0 0
v -42 0 0
v -41 -1 0
v -42 -1 0
v -42 0 0
v -41 0 0
v -20 -1 0
v -21 -1 0
v -21 0 0
v -20 0 0
v -19 -1 0
v -20 -1 0
v -20 0 0
v -19 0 0
v -50 -2 0
v -51 -2 0
v -51 -1 0
v -50 -1 0
v -49 -2 0
v -50 -2 0
v -50 -1 0
v -49 -1 0
v -17 -2 0
v -18 -2 0
v -18 -1 0
v -17 -1 0
v -16 -2 0
v -17 -2 0
v -17 -1 0
v -16 -1 0
v -15 -2 0
v -16 -2 0
v -16 -1 0
v -15 -1 0
v -7 -2 0
v -8 -2 0
v -8 -1 0
v -7 -1 0
v -6 -2 0
v -7 -2 0
v -7 -1 0
v -6 -1 0
v -31 -3 0
v -32 -3 0
v -32 -2 0
v -31 -2 0
v -30 -3 0
v -31 -3 0
v -31 -2 0
v -30 -2 0
v -1 -3 0
v -2 -3 0
v -2 -2 0
v -1 -2 0
v 0 -3 0
v -1 -3 0
v -1 -2 0
v 0 -2 0
v -46 -4 0
v -47 -4 0
v -47 -3 0
v -46 -3 0
v -45 -4 0
v -46 -4 0
v -46 -3 0
v -45 -3 0
v -44 -4 0
v -45 -4 0
v -45 -3 0
v -44 -3 0
v -27 -4 0
v -28 -4 0
v -28 -3 0
v -27 -3 0
v -26 -4 0
v -27 -4 0
v -27 -3 0
v -26 -3 0
v -25 -4 0
v -26 -4 0
v -26 -3 0
v -25 -3 0
v -34 -5 0
v -35 -5 0
v -35 -4 0
v -34 -4 0
v -33 -5 0
v -34 -5 0
v -34 -4 0
v -33 -4 0
v -32 -5 0
v -33 -5 0
v -33 -4 0
v -32 -4 0
v -19 -5 0
v -20 -5 0
v -20 -4 0
v -19 -4 0
v -18 -5 0
v -19 -5 0
v -19 -4 0
v -18 -4 0
v -10 -5 0
v -11 -5 0
v -11 -4 0
v -10 -4 0
v -9 -5 0
v -10 -5 0
v -10 -4 0
v -9 -4 0
v -8 -5 0
v -9 -5 0
v -9 -4 0
v -8 -4 0
v -40 -6 0
v -41 -6 0
v -41 -5 0
v -40 -5 0
v -39 -6 0
v -40 -6 0
v -40 -5 0
v -39 -5 0
v -14 -6 0
v -15 -6 0
v -15 -5 0
v -14 -5 0
v -13 -6 0
v -14 -6 0
v -14 -5 0
v -13 -5 0
v -4 -6 0
v -5 -6 0
v -5 -5 0
v -4 -5 0
v -3 -6 0
v -4 -6 0
v -4 -5 0
v -3 -5 0
v -24 -7 0
v -25 -7 0
v -25 -6 0
v -24 -6 0
v -23 -7 0
v -24 -7 0
v -24 -6 0
v -23 -6 0
v -13 -10 0
v -14 -10 0
v -14 -9 0
v -13 -9 0
v -12 -10 0
v -13 -10 0
v -13 -9 0
v -12 -9 0
v -11 -10 0
v -12 -10 0
v -12 -9 0
v -11 -9 0
v -8 -10 0
v -9 -10 0
v -9 -9 0
v -8 -9 0
v -7 -10 0
v -8 -10 0
v -8 -9 0
v -7 -9 0
v -1 -11 0
v -2 -11 0
v -2 -10 0
v -1 -10 0
v 0 -11 0
v -1 -11 0
v -1 -10 0
v 0 -10 0
v -6 -15 0
v -7 -15 0
v -7 -14 0
v -6 -14 0
v -5 -15 0
v -6 -15 0
v -6 -14 0
v -5 -14 0
v -1 -16 0
v -2 -16 0
v -2 -15 0
v -1 -15 0
v 0 -16 0
v -1 -16 0
v -1 -15 0
v 0 -15 0
v -38 -26 0
v -39 -26 0
v -39 -25 0
v -38 -25 0
v -37 -26 0
v -38 -26 0
v -38 -25 0
v -37 -25 0
v -72 -30 0
v -73 -30 0
v -73 -29 0
v -72 -29 0
v -71 -30 0
v -72 -30 0
v -72 -29 0
v -71 -29 0
v -40 -33 0
v -41 -33 0
v -41 -32 0
v -40 -32 0
v -39 -33 0
v -40 -33 0
v -40 -32 0
v -39 -32 0
v -28 -33 0
v -29 -33 0
v -29 -32 0
v -28 -32 0
v -27 -33 0
v -28 -33 0
v -28 -32 0
v -27 -32 0
v -54 -38 0
v -55 -38 0
v -55 -37 0
v -54 -37 0
v -53 -38 0
v -54 -38 0
v -54 -37 0
v -53 -37 0
v -28 -38 0
v -29 -38 0
v -29 -37 0
v -28 -37 0
v -27 -38 0
v -28 -38 0
v -28 -37 0
v -27 -37 0
v -4 -39 0
v -5 -39 0
v -5 -38 0
v -4 -38 0
v -3 -39 0
v -4 -39 0
v -4 -38 0
v -3 -38 0
v -2 -39 0
v -3 -39 0
v -3 -38 0
v -2 -38 0
v -56 -42 0
v -57 -42 0
v -57 -41 0
v -56 -41 0
v -55 -42 0
v -56 -42 0
v -56 -41 0
v -55 -41 0
v -85 -43 0
v -86 -43 0
v -86 -42 0
v -85 -42 0
v -84 -43 0
v -85 -43 0
v -85 -42 0
v -84 -42 0
v -42 -43 0
v -43 -43 0
v -43 -42 0
v -42 -42 0
v -41 -43 0
v -42 -43 0
v -42 -42 0
v -41 -42 0
v -31 -45 0
v -32 -45 0
v -32 -44 0
v -31 -44 0
v -30 -45 0
v -31 -45 0
v -31 -44 0
v -30 -44 0
v -3 -45 0
v -4 -45 0
v -4 -44 0
v -3 -44 0
v -2 -45 0
v -3 -45 0
v -3 -44 0
v -2 -44 0
v -83 -46 0
v -84 -46 0
v -84 -45 0
v -83 -45 0
v -82 -46 0
v -83 -46 0
v -83 -45 0
v -82 -45 0
v -7 -49 0
v -8 -49 0
v -8 -48 0
v -7 -48 0
v -6 -49 0
v -7 -49 0
v -7 -48 0
v -6 -48 0
v -5 -49 0
v -6 -49 0
v -6 -48 0
v -5 -48 0
v -61 -51 0
v -62 -51 0
v -62 -50 0
v -61 -50 0
v -60 -51 0
v -61 -51 0
v -61 -50 0
v -60 -50 0
v -23 -52 0
v -24 -52 0
v -24 -51 0
v -23 -51 0
v -22 -52 0
v -23 -52 0
v -23 -51 0
v -22 -51 0
v -3 -52 0
v -4 -52 0
v -4 -51 0
v -3 -51 0
v -2 -52 0
v -3 -52 0
v -3 -51 0
v -2 -51 0
v -11 -53 0
v -12 -53 0
v -12 -52 0
v -11 -52 0
v -10 -53 0
v -11 -53 0
v -11 -52 0
v -10 -52 0
v -9 -53 0
v -10 -53 0
v -10 -52 0
v -9 -52 0
v -64 -54 0
v -65 -54 0
v -65 -53 0
v -64 -53 0
v -63 -54 0
v -64 -54 0
v -64 -53 0
v -63 -53 0
v -7 -57 0
v -8 -57 0
v -8 -56 0
v -7 -56 0
v -6 -57 0
v -7 -57 0
v -7 -56 0
v -6 -56 0
v -5 -57 0
v -6 -57 0
v -6 -56 0
v -5 -56 0
v -47 -59 0
v -48 -59 0
v -48 -58 0
v -47 -58 0
v -46 -59 0
v -47 -59 0
v -47 -58 0
v -46 -58 0
v -3 -59 0
v -4 -59 0
v -4 -58 0
v -3 -58 0
v -2 -59 0
v -3 -59 0
v -3 -58 0
v -2 -58 0
v -84 -60 0
v -85 -60 0
v -85 -59 0
v -84 -59 0
v -83 -60 0
v -84 -60 0
v -84 -59 0
v -83 -59 0
v -23 -60 0
v -24 -60 0
v -24 -59 0
v -23 -59 0
v -22 -60 0
v -23 -60 0
v -23 -59 0
v -22 -59 0
v -66 -61 0
v -67 -61 0
v -67 -60 0
v -66 -60 0
v -65 -61 0
v -66 -61 0
v -66 -60 0
v -65 -60 0
v -36 -61 0
v -37 -61 0
v -37 -60 0
v -36 -60 0
v -35 -61 0
v -36 -61 0
v -36 -60 0
v -35 -60 0
v -8 -62 0
v -9 -62 0
v -9 -61 0
v -8 -61 0
v -7 -62 0
v -8 -62 0
v -8 -61 0
v -7 -61 0
v -56 -63 0
v -57 -63 0
v -57 -62 0
v -56 -62 0
v -55 -63 0
v -56 -63 0
v -56 -62 0
v -55 -62 0
v -17 -63 0
v -18 -63 0
v -18 -62 0
v -17 -62 0
v -16 -63 0
v -17 -63 0
v -17 -62 0
v -16 -62 0
v -89 -65 0
v -90 -65 0
v -90 -64 0
v -89 -64 0
v -82 -67 0
v -83 -67 0
v -83 -66 0
v -82 -66 0
v -81 -67 0
v -82 -67 0
v -82 -66 0
v -81 -66 0
v -79 -67 0
v -80 -67 0
v -80 -66 0
v -79 -66 0
v -78 -67 0
v -79 -67 0
v -79 -66 0
v -78 -66 0
v -77 -67 0
v -78 -67 0
v -78 -66 0
v -77 -66 0
v -55 -67 0
v -56 -67 0
v -56 -66 0
v -55 -66 0
v -54 -67 0
v -55 -67 0
v -55 -66 0
v -54 -66 0
v -72 -68 0
v -73 -68 0
v -73 -67 0
v -72 -67 0
v -71 -68 0
v -72 -68 0
v -72 -67 0
v -71 -67 0
v -75 -69 0
v -76 -69 0
v -76 -68 0
v -75 -68 0
v -74 -69 0
v -75 -69 0
v -75 -68 0
v -74 -68 0
v -73 -69 0
v -74 -69 0
v -74 -68 0
v -73 -68 0
v -63 -69 0
v -64 -69 0
v -64 -68 0
v -63 -68 0
v -62 -69 0
v -63 -69 0
v -63 -68 0
v -62 -68 0
v -52 -69 0
v -53 -69 0
v -53 -68 0
v -52 -68 0
v -51 -69 0
v -52 -69 0
v -52 -68 0
v -51 -68 0
v -36 -69 0
v -37 -69 0
v -37 -68 0
v -36 -68 0
v -35 -69 0
v -36 -69 0
v -36 -68 0
v -35 -68 0
v -12 -70 0
v -13 -70 0
v -13 -69 0
v -12 -69 0
v -11 -70 0
v -12 -70 0
v -12 -69 0
v -11 -69 0
v -10 -70 0
v -11 -70 0
v -11 -69 0
v -10 -69 0
v -56 -72 0
v -57 -72 0
v -57 -71 0
v -56 -71 0
v -55 -72 0
v -56 -72 0
v -56 -71 0
v -55 -71 0
v -53 -73 0
v -54 -73 0
v -54 -72 0
v -53 -72 0
v -52 -73 0
v -53 -73 0
v -53 -72 0
v -52 -72 0
v -23 -74 0
v -24 -74 0
v -24 -73 0
v -23 -73 0
v -22 -74 0
v -23 -74 0
v -23 -73 0
v -22 -73 0
v -9 -74 0
v -10 -74 0
v -10 -73 0
v -9 -73 0
v -8 -74 0
v -9 -74 0
v -9 -73 0
v -8 -73 0
v -76 -75 0
v -77 -75 0
v -77 -74 0
v -76 -74 0
v -75 -75 0
v -76 -75 0
v -76 -74 0
v -75 -74 0
v -68 -75 0
v -69 -75 0
v -69 -74 0
v -68 -74 0
v -67 -75 0
v -68 -75 0
v -68 -74 0
v -67 -74 0
v -84 -76 0
v -85 -76 0
v -85 -75 0
v -84 -75 0
v -83 -76 0
v -84 -76 0
v -84 -75 0
v -83 -75 0
v -80 -76 0
v -81 -76 0
v -81 -75 0
v -80 -75 0
v -79 -76 0
v -80 -76 0
v -80 -75 0
v -79 -75 0
v -78 -76 0
v -79 -76 0
v -79 -75 0
v -78 -75 0
v -65 -76 0
v -66 -76 0
v -66 -75 0
v -65 -75 0
v -64 -76 0
v -65 -76 0
v -65 -75 0
v -64 -75 0
v -63 -76 0
v -64 -76 0
v -64 -75 0
v -63 -75 0
v -56 -76 0
v -57 -76 0
v -57 -75 0
v -56 -75 0
v -55 -76 0
v -56 -76 0
v -56 -75 0
v -55 -75 0
v -47 -76 0
v -48 -76 0
v -48 -75 0
v -47 -75 0
v -46 -76 0
v -47 -76 0
v -47 -75 0
v -46 -75 0
v -17 -76 0
v -18 -76 0
v -18 -75 0
v -17 -75 0
v -16 -76 0
v -17 -76 0
v -17 -75 0
v -16 -75 0
v -52 -77 0
v -53 -77 0
v -53 -76 0
v -52 -76 0
v -51 -77 0
v -52 -77 0
v -52 -76 0
v -51 -76 0

# Texture cooridinates (Count = 28)
vt 0.04173455 0.0001220703
vt 0.06229666 0.0001220703
vt 0.06229666 0.02765572
vt 0.04173455 0.02765572
vt 0.02092831 0.0001220703
vt 0.04149041 0.0001220703
vt 0.04149041 0.02765572
vt 0.02092831 0.02765572
vt 0.0625408 0.0001220703
vt 0.0831029 0.0001220703
vt 0.0831029 0.02765572
vt 0.0625408 0.02765572
vt 0.1249595 0.5001221
vt 0.1455216 0.5001221
vt 0.1455216 0.5276557
vt 0.1249595 0.5276557
vt 0.1041533 0.5001221
vt 0.1247154 0.5001221
vt 0.1247154 0.5276557
vt 0.1041533 0.5276557
vt 0.3330219 0.08345538
vt 0.3535841 0.08345538
vt 0.3535841 0.110989
vt 0.3330219 0.110989
vt 0.3122157 0.08345538
vt 0.3327778 0.08345538
vt 0.3327778 0.110989
vt 0.3122157 0.110989

# Normal
vn 0 0 -1

# Mesh description
g UpperRose_mesh_0005

# Faces
f 1/1/1 2/2/1 3/3/1 4/4/1
f 5/5/1 6/6/1 7/7/1 8/8/1
f 9/1/1 10/2/1 11/3/1 12/4/1
f 13/5/1 14/6/1 15/7/1 16/8/1
f 17/1/1 18/2/1 19/3/1 20/4/1
f 21/5/1 22/6/1 23/7/1 24/8/1
f 25/9/1 26/10/1 27/11/1 28/12/1
f 29/1/1 30/2/1 31/3/1 32/4/1
f 33/5/1 34/6/1 35/7/1 36/8/1
f 37/1/1 38/2/1 39/3/1 40/4/1
f 41/5/1 42/6/1 43/7/1 44/8/1
f 45/1/1 46/2/1 47/3/1 48/4/1
f 49/5/1 50/6/1 51/7/1 52/8/1
f 53/1/1 54/2/1 55/3/1 56/4/1
f 57/5/1 58/6/1 59/7/1 60/8/1
f 61/9/1 62/10/1 63/11/1 64/12/1
f 65/1/1 66/2/1 67/3/1 68/4/1
f 69/5/1 70/6/1 71/7/1 72/8/1
f 73/9/1 74/10/1 75/11/1 76/12/1
f 77/1/1 78/2/1 79/3/1 80/4/1
f 81/5/1 82/6/1 83/7/1 84/8/1
f 85/9/1 86/10/1 87/11/1 88/12/1
f 89/1/1 90/2/1 91/3/1 92/4/1
f 93/5/1 94/6/1 95/7/1 96/8/1
f 97/13/1 98/14/1 99/15/1 100/16/1
f 101/17/1 102/18/1 103/19/1 104/20/1
f 105/9/1 106/10/1 107/11/1 108/12/1
f 109/1/1 110/2/1 111/3/1 112/4/1
f 113/5/1 114/6/1 115/7/1 116/8/1
f 117/1/1 118/2/1 119/3/1 120/4/1
f 121/5/1 122/6/1 123/7/1 124/8/1
f 125/1/1 126/2/1 127/3/1 128/4/1
f 129/5/1 130/6/1 131/7/1 132/8/1
f 133/1/1 134/2/1 135/3/1 136/4/1
f 137/5/1 138/6/1 139/7/1 140/8/1
f 141/1/1 142/2/1 143/3/1 144/4/1
f 145/5/1 146/6/1 147/7/1 148/8/1
f 149/9/1 150/10/1 151/11/1 152/12/1
f 153/1/1 154/2/1 155/3/1 156/4/1
f 157/5/1 158/6/1 159/7/1 160/8/1
f 161/1/1 162/2/1 163/3/1 164/4/1
f 165/5/1 166/6/1 167/7/1 168/8/1
f 169/1/1 170/2/1 171/3/1 172/4/1
f 173/5/1 174/6/1 175/7/1 176/8/1
f 177/13/1 178/14/1 179/15/1 180/16/1
f 181/17/1 182/18/1 183/19/1 184/20/1
f 185/1/1 186/2/1 187/3/1 188/4/1
f 189/5/1 190/6/1 191/7/1 192/8/1
f 193/21/1 194/22/1 195/23/1 196/24/1
f 197/25/1 198/26/1 199/27/1 200/28/1
f 201/1/1 202/2/1 203/3/1 204/4/1
f 205/5/1 206/6/1 207/7/1 208/8/1
f 209/21/1 210/22/1 211/23/1 212/24/1
f 213/25/1 214/26/1 215/27/1 216/28/1
f 217/1/1 218/2/1 219/3/1 220/4/1
f 221/5/1 222/6/1 223/7/1 224/8/1
f 225/1/1 226/2/1 227/3/1 228/4/1
f 229/5/1 230/6/1 231/7/1 232/8/1
f 233/21/1 234/22/1 235/23/1 236/24/1
f 237/25/1 238/26/1 239/27/1 240/28/1
f 241/9/1 242/10/1 243/11/1 244/12/1
f 245/1/1 246/2/1 247/3/1 248/4/1
f 249/5/1 250/6/1 251/7/1 252/8/1
f 253/21/1 254/22/1 255/23/1 256/24/1
f 257/25/1 258/26/1 259/27/1 260/28/1
f 261/13/1 262/14/1 263/15/1 264/16/1
f 265/17/1 266/18/1 267/19/1 268/20/1
f 269/1/1 270/2/1 271/3/1 272/4/1
f 273/5/1 274/6/1 275/7/1 276/8/1
f 277/1/1 278/2/1 279/3/1 280/4/1
f 281/5/1 282/6/1 283/7/1 284/8/1
f 285/13/1 286/14/1 287/15/1 288/16/1
f 289/17/1 290/18/1 291/19/1 292/20/1
f 293/13/1 294/14/1 295/15/1 296/16/1
f 297/17/1 298/18/1 299/19/1 300/20/1
f 301/9/1 302/10/1 303/11/1 304/12/1
f 305/1/1 306/2/1 307/3/1 308/4/1
f 309/5/1 310/6/1 311/7/1 312/8/1
f 313/1/1 314/2/1 315/3/1 316/4/1
f 317/5/1 318/6/1 319/7/1 320/8/1
f 321/1/1 322/2/1 323/3/1 324/4/1
f 325/5/1 326/6/1 327/7/1 328/8/1
f 329/1/1 330/2/1 331/3/1 332/4/1
f 333/5/1 334/6/1 335/7/1 336/8/1
f 337/9/1 338/10/1 339/11/1 340/12/1
f 341/1/1 342/2/1 343/3/1 344/4/1
f 345/5/1 346/6/1 347/7/1 348/8/1
f 349/1/1 350/2/1 351/3/1 352/4/1
f 353/5/1 354/6/1 355/7/1 356/8/1
f 357/9/1 358/10/1 359/11/1 360/12/1
f 361/1/1 362/2/1 363/3/1 364/4/1
f 365/5/1 366/6/1 367/7/1 368/8/1
f 369/21/1 370/22/1 371/23/1 372/24/1
f 373/25/1 374/26/1 375/27/1 376/28/1
f 377/1/1 378/2/1 379/3/1 380/4/1
f 381/5/1 382/6/1 383/7/1 384/8/1
f 385/13/1 386/14/1 387/15/1 388/16/1
f 389/17/1 390/18/1 391/19/1 392/20/1
f 393/21/1 394/22/1 395/23/1 396/24/1
f 397/25/1 398/26/1 399/27/1 400/28/1
f 401/1/1 402/2/1 403/3/1 404/4/1
f 405/5/1 406/6/1 407/7/1 408/8/1
f 409/1/1 410/2/1 411/3/1 412/4/1
f 413/5/1 414/6/1 415/7/1 416/8/1
f 417/13/1 418/14/1 419/15/1 420/16/1
f 421/17/1 422/18/1 423/19/1 424/20/1
f 425/21/1 426/22/1 427/23/1 428/24/1
f 429/25/1 430/26/1 431/27/1 432/28/1
f 433/21/1 434/22/1 435/23/1 436/24/1
f 437/25/1 438/26/1 439/27/1 440/28/1
f 441/5/1 442/6/1 443/7/1 444/8/1
f 445/1/1 446/2/1 447/3/1 448/4/1
f 449/5/1 450/6/1 451/7/1 452/8/1
f 453/9/1 454/10/1 455/11/1 456/12/1
f 457/1/1 458/2/1 459/3/1 460/4/1
f 461/5/1 462/6/1 463/7/1 464/8/1
f 465/21/1 466/22/1 467/23/1 468/24/1
f 469/25/1 470/26/1 471/27/1 472/28/1
f 473/1/1 474/2/1 475/3/1 476/4/1
f 477/5/1 478/6/1 479/7/1 480/8/1
f 481/9/1 482/10/1 483/11/1 484/12/1
f 485/1/1 486/2/1 487/3/1 488/4/1
f 489/5/1 490/6/1 491/7/1 492/8/1
f 493/13/1 494/14/1 495/15/1 496/16/1
f 497/17/1 498/18/1 499/19/1 500/20/1
f 501/21/1 502/22/1 503/23/1 504/24/1
f 505/25/1 506/26/1 507/27/1 508/28/1
f 509/1/1 510/2/1 511/3/1 512/4/1
f 513/5/1 514/6/1 515/7/1 516/8/1
f 517/9/1 518/10/1 519/11/1 520/12/1
f 521/1/1 522/2/1 523/3/1 524/4/1
f 525/5/1 526/6/1 527/7/1 528/8/1
f 529/21/1 530/22/1 531/23/1 532/24/1
f 533/25/1 534/26/1 535/27/1 536/28/1
f 537/21/1 538/22/1 539/23/1 540/24/1
f 541/25/1 542/26/1 543/27/1 544/28/1
f 545/21/1 546/22/1 547/23/1 548/24/1
f 549/25/1 550/26/1 551/27/1 552/28/1
f 553/13/1 554/14/1 555/15/1 556/16/1
f 557/17/1 558/18/1 559/19/1 560/20/1
f 561/1/1 562/2/1 563/3/1 564/4/1
f 565/5/1 566/6/1 567/7/1 568/8/1
f 569/1/1 570/2/1 571/3/1 572/4/1
f 573/5/1 574/6/1 575/7/1 576/8/1
f 577/13/1 578/14/1 579/15/1 580/16/1
f 581/17/1 582/18/1 583/19/1 584/20/1
f 585/9/1 586/10/1 587/11/1 588/12/1
f 589/1/1 590/2/1 591/3/1 592/4/1
f 593/5/1 594/6/1 595/7/1 596/8/1
f 597/9/1 598/10/1 599/11/1 600/12/1
f 601/1/1 602/2/1 603/3/1 604/4/1
f 605/5/1 606/6/1 607/7/1 608/8/1
f 609/21/1 610/22/1 611/23/1 612/24/1
f 613/25/1 614/26/1 615/27/1 616/28/1
f 617/1/1 618/2/1 619/3/1 620/4/1
f 621/5/1 622/6/1 623/7/1 624/8/1
f 625/21/1 626/22/1 627/23/1 628/24/1
f 629/25/1 630/26/1 631/27/1 632/28/1
f 633/21/1 634/22/1 635/23/1 636/24/1
f 637/25/1 638/26/1 639/27/1 640/28/1

