# Tiled2Unity generated file. Do not modify by hand.
# Wavefront file for 'BayanTelecomsOPAC_mesh_0007.obj'

# Vertices (Count = 56)
v -35 -1 0
v -36 -1 0
v -36 0 0
v -35 0 0
v -34 -1 0
v -35 -1 0
v -35 0 0
v -34 0 0
v -33 -1 0
v -34 -1 0
v -34 0 0
v -33 0 0
v -32 -1 0
v -33 -1 0
v -33 0 0
v -32 0 0
v -31 -1 0
v -32 -1 0
v -32 0 0
v -31 0 0
v -30 -1 0
v -31 -1 0
v -31 0 0
v -30 0 0
v -29 -1 0
v -30 -1 0
v -30 0 0
v -29 0 0
v -35 -2 0
v -36 -2 0
v -36 -1 0
v -35 -1 0
v -34 -2 0
v -35 -2 0
v -35 -1 0
v -34 -1 0
v -33 -2 0
v -34 -2 0
v -34 -1 0
v -33 -1 0
v -32 -2 0
v -33 -2 0
v -33 -1 0
v -32 -1 0
v -31 -2 0
v -32 -2 0
v -32 -1 0
v -31 -1 0
v -30 -2 0
v -31 -2 0
v -31 -1 0
v -30 -1 0
v -29 -2 0
v -30 -2 0
v -30 -1 0
v -29 -1 0

# Texture cooridinates (Count = 56)
vt 0.3966738 0.26328
vt 0.413671 0.26328
vt 0.413671 0.2893516
vt 0.3966738 0.2893516
vt 0.3794324 0.26328
vt 0.3964297 0.26328
vt 0.3964297 0.2893516
vt 0.3794324 0.2893516
vt 0.362191 0.26328
vt 0.3791883 0.26328
vt 0.3791883 0.2893516
vt 0.362191 0.2893516
vt 0.3449497 0.26328
vt 0.3619469 0.26328
vt 0.3619469 0.2893516
vt 0.3449497 0.2893516
vt 0.3277083 0.26328
vt 0.3447055 0.26328
vt 0.3447055 0.2893516
vt 0.3277083 0.2893516
vt 0.3104669 0.26328
vt 0.3274641 0.26328
vt 0.3274641 0.2893516
vt 0.3104669 0.2893516
vt 0.2932255 0.26328
vt 0.3102227 0.26328
vt 0.3102227 0.2893516
vt 0.2932255 0.2893516
vt 0.3966738 0.2369642
vt 0.413671 0.2369642
vt 0.413671 0.2630358
vt 0.3966738 0.2630358
vt 0.3794324 0.2369642
vt 0.3964297 0.2369642
vt 0.3964297 0.2630358
vt 0.3794324 0.2630358
vt 0.362191 0.2369642
vt 0.3791883 0.2369642
vt 0.3791883 0.2630358
vt 0.362191 0.2630358
vt 0.3449497 0.2369642
vt 0.3619469 0.2369642
vt 0.3619469 0.2630358
vt 0.3449497 0.2630358
vt 0.3277083 0.2369642
vt 0.3447055 0.2369642
vt 0.3447055 0.2630358
vt 0.3277083 0.2630358
vt 0.3104669 0.2369642
vt 0.3274641 0.2369642
vt 0.3274641 0.2630358
vt 0.3104669 0.2630358
vt 0.2932255 0.2369642
vt 0.3102227 0.2369642
vt 0.3102227 0.2630358
vt 0.2932255 0.2630358

# Normal
vn 0 0 -1

# Mesh description
g BayanTelecomsOPAC_mesh_0007

# Faces
f 1/1/1 2/2/1 3/3/1 4/4/1
f 5/5/1 6/6/1 7/7/1 8/8/1
f 9/9/1 10/10/1 11/11/1 12/12/1
f 13/13/1 14/14/1 15/15/1 16/16/1
f 17/17/1 18/18/1 19/19/1 20/20/1
f 21/21/1 22/22/1 23/23/1 24/24/1
f 25/25/1 26/26/1 27/27/1 28/28/1
f 29/29/1 30/30/1 31/31/1 32/32/1
f 33/33/1 34/34/1 35/35/1 36/36/1
f 37/37/1 38/38/1 39/39/1 40/40/1
f 41/41/1 42/42/1 43/43/1 44/44/1
f 45/45/1 46/46/1 47/47/1 48/48/1
f 49/49/1 50/50/1 51/51/1 52/52/1
f 53/53/1 54/54/1 55/55/1 56/56/1

