# Tiled2Unity generated file. Do not modify by hand.
# Wavefront file for 'BayanTelecomsOPAC_mesh_0006.obj'

# Vertices (Count = 80)
v -47 -9 0
v -48 -9 0
v -48 -8 0
v -47 -8 0
v -46 -9 0
v -47 -9 0
v -47 -8 0
v -46 -8 0
v -45 -9 0
v -46 -9 0
v -46 -8 0
v -45 -8 0
v -44 -9 0
v -45 -9 0
v -45 -8 0
v -44 -8 0
v -43 -9 0
v -44 -9 0
v -44 -8 0
v -43 -8 0
v -42 -9 0
v -43 -9 0
v -43 -8 0
v -42 -8 0
v -21 -33 0
v -22 -33 0
v -22 -32 0
v -21 -32 0
v -20 -33 0
v -21 -33 0
v -21 -32 0
v -20 -32 0
v -19 -33 0
v -20 -33 0
v -20 -32 0
v -19 -32 0
v -18 -33 0
v -19 -33 0
v -19 -32 0
v -18 -32 0
v -17 -33 0
v -18 -33 0
v -18 -32 0
v -17 -32 0
v -16 -33 0
v -17 -33 0
v -17 -32 0
v -16 -32 0
v -15 -33 0
v -16 -33 0
v -16 -32 0
v -15 -32 0
v -21 -34 0
v -22 -34 0
v -22 -33 0
v -21 -33 0
v -20 -34 0
v -21 -34 0
v -21 -33 0
v -20 -33 0
v -19 -34 0
v -20 -34 0
v -20 -33 0
v -19 -33 0
v -18 -34 0
v -19 -34 0
v -19 -33 0
v -18 -33 0
v -17 -34 0
v -18 -34 0
v -18 -33 0
v -17 -33 0
v -16 -34 0
v -17 -34 0
v -17 -33 0
v -16 -33 0
v -15 -34 0
v -16 -34 0
v -16 -33 0
v -15 -33 0

# Texture cooridinates (Count = 80)
vt 0.2759841 0.5790694
vt 0.2929814 0.5790694
vt 0.2929814 0.605141
vt 0.2759841 0.605141
vt 0.2587427 0.5790694
vt 0.27574 0.5790694
vt 0.27574 0.605141
vt 0.2587427 0.605141
vt 0.2415014 0.5790694
vt 0.2584986 0.5790694
vt 0.2584986 0.605141
vt 0.2415014 0.605141
vt 0.22426 0.5790694
vt 0.2412572 0.5790694
vt 0.2412572 0.605141
vt 0.22426 0.605141
vt 0.2070186 0.5790694
vt 0.2240159 0.5790694
vt 0.2240159 0.605141
vt 0.2070186 0.605141
vt 0.1897772 0.5790694
vt 0.2067745 0.5790694
vt 0.2067745 0.605141
vt 0.1897772 0.605141
vt 0.3966738 0.26328
vt 0.413671 0.26328
vt 0.413671 0.2893516
vt 0.3966738 0.2893516
vt 0.3794324 0.26328
vt 0.3964297 0.26328
vt 0.3964297 0.2893516
vt 0.3794324 0.2893516
vt 0.362191 0.26328
vt 0.3791883 0.26328
vt 0.3791883 0.2893516
vt 0.362191 0.2893516
vt 0.3449497 0.26328
vt 0.3619469 0.26328
vt 0.3619469 0.2893516
vt 0.3449497 0.2893516
vt 0.3277083 0.26328
vt 0.3447055 0.26328
vt 0.3447055 0.2893516
vt 0.3277083 0.2893516
vt 0.3104669 0.26328
vt 0.3274641 0.26328
vt 0.3274641 0.2893516
vt 0.3104669 0.2893516
vt 0.2932255 0.26328
vt 0.3102227 0.26328
vt 0.3102227 0.2893516
vt 0.2932255 0.2893516
vt 0.3966738 0.2369642
vt 0.413671 0.2369642
vt 0.413671 0.2630358
vt 0.3966738 0.2630358
vt 0.3794324 0.2369642
vt 0.3964297 0.2369642
vt 0.3964297 0.2630358
vt 0.3794324 0.2630358
vt 0.362191 0.2369642
vt 0.3791883 0.2369642
vt 0.3791883 0.2630358
vt 0.362191 0.2630358
vt 0.3449497 0.2369642
vt 0.3619469 0.2369642
vt 0.3619469 0.2630358
vt 0.3449497 0.2630358
vt 0.3277083 0.2369642
vt 0.3447055 0.2369642
vt 0.3447055 0.2630358
vt 0.3277083 0.2630358
vt 0.3104669 0.2369642
vt 0.3274641 0.2369642
vt 0.3274641 0.2630358
vt 0.3104669 0.2630358
vt 0.2932255 0.2369642
vt 0.3102227 0.2369642
vt 0.3102227 0.2630358
vt 0.2932255 0.2630358

# Normal
vn 0 0 -1

# Mesh description
g BayanTelecomsOPAC_mesh_0006

# Faces
f 1/1/1 2/2/1 3/3/1 4/4/1
f 5/5/1 6/6/1 7/7/1 8/8/1
f 9/9/1 10/10/1 11/11/1 12/12/1
f 13/13/1 14/14/1 15/15/1 16/16/1
f 17/17/1 18/18/1 19/19/1 20/20/1
f 21/21/1 22/22/1 23/23/1 24/24/1
f 25/25/1 26/26/1 27/27/1 28/28/1
f 29/29/1 30/30/1 31/31/1 32/32/1
f 33/33/1 34/34/1 35/35/1 36/36/1
f 37/37/1 38/38/1 39/39/1 40/40/1
f 41/41/1 42/42/1 43/43/1 44/44/1
f 45/45/1 46/46/1 47/47/1 48/48/1
f 49/49/1 50/50/1 51/51/1 52/52/1
f 53/53/1 54/54/1 55/55/1 56/56/1
f 57/57/1 58/58/1 59/59/1 60/60/1
f 61/61/1 62/62/1 63/63/1 64/64/1
f 65/65/1 66/66/1 67/67/1 68/68/1
f 69/69/1 70/70/1 71/71/1 72/72/1
f 73/73/1 74/74/1 75/75/1 76/76/1
f 77/77/1 78/78/1 79/79/1 80/80/1

