# Tiled2Unity generated file. Do not modify by hand.
# Wavefront file for 'PhilPost_mesh_0004.obj'

# Vertices (Count = 344)
v -23 -5 0
v -24 -5 0
v -24 -4 0
v -23 -4 0
v -22 -5 0
v -23 -5 0
v -23 -4 0
v -22 -4 0
v -21 -5 0
v -22 -5 0
v -22 -4 0
v -21 -4 0
v -20 -5 0
v -21 -5 0
v -21 -4 0
v -20 -4 0
v -19 -5 0
v -20 -5 0
v -20 -4 0
v -19 -4 0
v -18 -5 0
v -19 -5 0
v -19 -4 0
v -18 -4 0
v -17 -5 0
v -18 -5 0
v -18 -4 0
v -17 -4 0
v -23 -6 0
v -24 -6 0
v -24 -5 0
v -23 -5 0
v -17 -6 0
v -18 -6 0
v -18 -5 0
v -17 -5 0
v -23 -7 0
v -24 -7 0
v -24 -6 0
v -23 -6 0
v -17 -7 0
v -18 -7 0
v -18 -6 0
v -17 -6 0
v -23 -8 0
v -24 -8 0
v -24 -7 0
v -23 -7 0
v -23 -9 0
v -24 -9 0
v -24 -8 0
v -23 -8 0
v -23 -10 0
v -24 -10 0
v -24 -9 0
v -23 -9 0
v -17 -10 0
v -18 -10 0
v -18 -9 0
v -17 -9 0
v -23 -11 0
v -24 -11 0
v -24 -10 0
v -23 -10 0
v -17 -11 0
v -18 -11 0
v -18 -10 0
v -17 -10 0
v -27 -12 0
v -28 -12 0
v -28 -11 0
v -27 -11 0
v -26 -12 0
v -27 -12 0
v -27 -11 0
v -26 -11 0
v -23 -12 0
v -24 -12 0
v -24 -11 0
v -23 -11 0
v -22 -12 0
v -23 -12 0
v -23 -11 0
v -22 -11 0
v -21 -12 0
v -22 -12 0
v -22 -11 0
v -21 -11 0
v -20 -12 0
v -21 -12 0
v -21 -11 0
v -20 -11 0
v -19 -12 0
v -20 -12 0
v -20 -11 0
v -19 -11 0
v -18 -12 0
v -19 -12 0
v -19 -11 0
v -18 -11 0
v -17 -12 0
v -18 -12 0
v -18 -11 0
v -17 -11 0
v -30 -13 0
v -31 -13 0
v -31 -12 0
v -30 -12 0
v -29 -13 0
v -30 -13 0
v -30 -12 0
v -29 -12 0
v -26 -13 0
v -27 -13 0
v -27 -12 0
v -26 -12 0
v -25 -13 0
v -26 -13 0
v -26 -12 0
v -25 -12 0
v -30 -14 0
v -31 -14 0
v -31 -13 0
v -30 -13 0
v -29 -14 0
v -30 -14 0
v -30 -13 0
v -29 -13 0
v -28 -14 0
v -29 -14 0
v -29 -13 0
v -28 -13 0
v -27 -14 0
v -28 -14 0
v -28 -13 0
v -27 -13 0
v -26 -14 0
v -27 -14 0
v -27 -13 0
v -26 -13 0
v -25 -14 0
v -26 -14 0
v -26 -13 0
v -25 -13 0
v -22 -14 0
v -23 -14 0
v -23 -13 0
v -22 -13 0
v -21 -14 0
v -22 -14 0
v -22 -13 0
v -21 -13 0
v -28 -15 0
v -29 -15 0
v -29 -14 0
v -28 -14 0
v -27 -15 0
v -28 -15 0
v -28 -14 0
v -27 -14 0
v -24 -15 0
v -25 -15 0
v -25 -14 0
v -24 -14 0
v -23 -15 0
v -24 -15 0
v -24 -14 0
v -23 -14 0
v -22 -15 0
v -23 -15 0
v -23 -14 0
v -22 -14 0
v -21 -15 0
v -22 -15 0
v -22 -14 0
v -21 -14 0
v -29 -16 0
v -30 -16 0
v -30 -15 0
v -29 -15 0
v -24 -16 0
v -25 -16 0
v -25 -15 0
v -24 -15 0
v -23 -16 0
v -24 -16 0
v -24 -15 0
v -23 -15 0
v -29 -17 0
v -30 -17 0
v -30 -16 0
v -29 -16 0
v -28 -17 0
v -29 -17 0
v -29 -16 0
v -28 -16 0
v -27 -17 0
v -28 -17 0
v -28 -16 0
v -27 -16 0
v -26 -17 0
v -27 -17 0
v -27 -16 0
v -26 -16 0
v -35 -21 0
v -36 -21 0
v -36 -20 0
v -35 -20 0
v -34 -23 0
v -35 -23 0
v -35 -22 0
v -34 -22 0
v -33 -23 0
v -34 -23 0
v -34 -22 0
v -33 -22 0
v -33 -24 0
v -34 -24 0
v -34 -23 0
v -33 -23 0
v -42 -25 0
v -43 -25 0
v -43 -24 0
v -42 -24 0
v -38 -27 0
v -39 -27 0
v -39 -26 0
v -38 -26 0
v -37 -27 0
v -38 -27 0
v -38 -26 0
v -37 -26 0
v -34 -27 0
v -35 -27 0
v -35 -26 0
v -34 -26 0
v -38 -28 0
v -39 -28 0
v -39 -27 0
v -38 -27 0
v -37 -28 0
v -38 -28 0
v -38 -27 0
v -37 -27 0
v -36 -28 0
v -37 -28 0
v -37 -27 0
v -36 -27 0
v -35 -28 0
v -36 -28 0
v -36 -27 0
v -35 -27 0
v -39 -29 0
v -40 -29 0
v -40 -28 0
v -39 -28 0
v -38 -29 0
v -39 -29 0
v -39 -28 0
v -38 -28 0
v -37 -29 0
v -38 -29 0
v -38 -28 0
v -37 -28 0
v -36 -29 0
v -37 -29 0
v -37 -28 0
v -36 -28 0
v -35 -29 0
v -36 -29 0
v -36 -28 0
v -35 -28 0
v -37 -30 0
v -38 -30 0
v -38 -29 0
v -37 -29 0
v -43 -34 0
v -44 -34 0
v -44 -33 0
v -43 -33 0
v -17 -34 0
v -18 -34 0
v -18 -33 0
v -17 -33 0
v -38 -41 0
v -39 -41 0
v -39 -40 0
v -38 -40 0
v -37 -41 0
v -38 -41 0
v -38 -40 0
v -37 -40 0
v -38 -42 0
v -39 -42 0
v -39 -41 0
v -38 -41 0
v -37 -42 0
v -38 -42 0
v -38 -41 0
v -37 -41 0
v -9 -45 0
v -10 -45 0
v -10 -44 0
v -9 -44 0
v -8 -45 0
v -9 -45 0
v -9 -44 0
v -8 -44 0
v -45 -46 0
v -46 -46 0
v -46 -45 0
v -45 -45 0
v -9 -46 0
v -10 -46 0
v -10 -45 0
v -9 -45 0
v -8 -46 0
v -9 -46 0
v -9 -45 0
v -8 -45 0
v -44 -47 0
v -45 -47 0
v -45 -46 0
v -44 -46 0
v -43 -47 0
v -44 -47 0
v -44 -46 0
v -43 -46 0
v -44 -48 0
v -45 -48 0
v -45 -47 0
v -44 -47 0
v -35 -48 0
v -36 -48 0
v -36 -47 0
v -35 -47 0
v -34 -48 0
v -35 -48 0
v -35 -47 0
v -34 -47 0
v -33 -49 0
v -34 -49 0
v -34 -48 0
v -33 -48 0

# Texture cooridinates (Count = 120)
vt 0.0625408 0.5001221
vt 0.0831029 0.5001221
vt 0.0831029 0.5276557
vt 0.0625408 0.5276557
vt 0.02092831 0.5001221
vt 0.04149041 0.5001221
vt 0.04149041 0.5276557
vt 0.02092831 0.5276557
vt 0.04173455 0.5001221
vt 0.06229666 0.5001221
vt 0.06229666 0.5276557
vt 0.04173455 0.5276557
vt 0.02092831 0.4723443
vt 0.04149041 0.4723443
vt 0.04149041 0.4998779
vt 0.02092831 0.4998779
vt 0.04173455 0.5834554
vt 0.06229666 0.5834554
vt 0.06229666 0.610989
vt 0.04173455 0.610989
vt 0.0625408 0.4723443
vt 0.0831029 0.4723443
vt 0.0831029 0.4998779
vt 0.0625408 0.4998779
vt 0.04173455 0.4723443
vt 0.06229666 0.4723443
vt 0.06229666 0.4998779
vt 0.04173455 0.4998779
vt 0.1249595 0.5278999
vt 0.1455216 0.5278999
vt 0.1455216 0.5554335
vt 0.1249595 0.5554335
vt 0.1041533 0.5278999
vt 0.1247154 0.5278999
vt 0.1247154 0.5554335
vt 0.1041533 0.5554335
vt 0.1249595 0.5001221
vt 0.1455216 0.5001221
vt 0.1455216 0.5276557
vt 0.1249595 0.5276557
vt 0.1041533 0.5001221
vt 0.1247154 0.5001221
vt 0.1247154 0.5276557
vt 0.1041533 0.5276557
vt 0.02092831 0.9723443
vt 0.04149041 0.9723443
vt 0.04149041 0.9998779
vt 0.02092831 0.9998779
vt 0.0625408 0.639011
vt 0.0831029 0.639011
vt 0.0831029 0.6665446
vt 0.0625408 0.6665446
vt 0.0001220703 0.7501221
vt 0.02068417 0.7501221
vt 0.02068417 0.7776557
vt 0.0001220703 0.7776557
vt 0.02092831 0.7501221
vt 0.04149041 0.7501221
vt 0.04149041 0.7776557
vt 0.02092831 0.7776557
vt 0.2081845 0.6667887
vt 0.2287466 0.6667887
vt 0.2287466 0.6943223
vt 0.2081845 0.6943223
vt 0.1873782 0.6667887
vt 0.2079404 0.6667887
vt 0.2079404 0.6943223
vt 0.1873782 0.6943223
vt 0.2081845 0.639011
vt 0.2287466 0.639011
vt 0.2287466 0.6665446
vt 0.2081845 0.6665446
vt 0.1873782 0.639011
vt 0.2079404 0.639011
vt 0.2079404 0.6665446
vt 0.1873782 0.6665446
vt 0.1041533 0.9445665
vt 0.1247154 0.9445665
vt 0.1247154 0.9721001
vt 0.1041533 0.9721001
vt 0.08334704 0.9445665
vt 0.1039091 0.9445665
vt 0.1039091 0.9721001
vt 0.08334704 0.9721001
vt 0.2081845 0.9723443
vt 0.2287466 0.9723443
vt 0.2287466 0.9998779
vt 0.2081845 0.9998779
vt 0.166572 0.9723443
vt 0.1871341 0.9723443
vt 0.1871341 0.9998779
vt 0.166572 0.9998779
vt 0.1041533 0.9167888
vt 0.1247154 0.9167888
vt 0.1247154 0.9443223
vt 0.1041533 0.9443223
vt 0.08334704 0.9167888
vt 0.1039091 0.9167888
vt 0.1039091 0.9443223
vt 0.08334704 0.9443223
vt 0.249797 0.7778999
vt 0.2703591 0.7778999
vt 0.2703591 0.8054335
vt 0.249797 0.8054335
vt 0.2289907 0.7778999
vt 0.2495528 0.7778999
vt 0.2495528 0.8054335
vt 0.2289907 0.8054335
vt 0.0625408 0.6667887
vt 0.0831029 0.6667887
vt 0.0831029 0.6943223
vt 0.0625408 0.6943223
vt 0.249797 0.7501221
vt 0.2703591 0.7501221
vt 0.2703591 0.7776557
vt 0.249797 0.7776557
vt 0.2289907 0.7501221
vt 0.2495528 0.7501221
vt 0.2495528 0.7776557
vt 0.2289907 0.7776557

# Normal
vn 0 0 -1

# Mesh description
g PhilPost_mesh_0004

# Faces
f 1/1/1 2/2/1 3/3/1 4/4/1
f 5/5/1 6/6/1 7/7/1 8/8/1
f 9/5/1 10/6/1 11/7/1 12/8/1
f 13/5/1 14/6/1 15/7/1 16/8/1
f 17/5/1 18/6/1 19/7/1 20/8/1
f 21/5/1 22/6/1 23/7/1 24/8/1
f 25/9/1 26/10/1 27/11/1 28/12/1
f 29/13/1 30/14/1 31/15/1 32/16/1
f 33/13/1 34/14/1 35/15/1 36/16/1
f 37/13/1 38/14/1 39/15/1 40/16/1
f 41/13/1 42/14/1 43/15/1 44/16/1
f 45/13/1 46/14/1 47/15/1 48/16/1
f 49/13/1 50/14/1 51/15/1 52/16/1
f 53/13/1 54/14/1 55/15/1 56/16/1
f 57/13/1 58/14/1 59/15/1 60/16/1
f 61/13/1 62/14/1 63/15/1 64/16/1
f 65/13/1 66/14/1 67/15/1 68/16/1
f 69/17/1 70/18/1 71/19/1 72/20/1
f 73/17/1 74/18/1 75/19/1 76/20/1
f 77/21/1 78/22/1 79/23/1 80/24/1
f 81/5/1 82/6/1 83/7/1 84/8/1
f 85/5/1 86/6/1 87/7/1 88/8/1
f 89/5/1 90/6/1 91/7/1 92/8/1
f 93/5/1 94/6/1 95/7/1 96/8/1
f 97/5/1 98/6/1 99/7/1 100/8/1
f 101/25/1 102/26/1 103/27/1 104/28/1
f 105/29/1 106/30/1 107/31/1 108/32/1
f 109/33/1 110/34/1 111/35/1 112/36/1
f 113/17/1 114/18/1 115/19/1 116/20/1
f 117/17/1 118/18/1 119/19/1 120/20/1
f 121/37/1 122/38/1 123/39/1 124/40/1
f 125/41/1 126/42/1 127/43/1 128/44/1
f 129/29/1 130/30/1 131/31/1 132/32/1
f 133/33/1 134/34/1 135/35/1 136/36/1
f 137/17/1 138/18/1 139/19/1 140/20/1
f 141/17/1 142/18/1 143/19/1 144/20/1
f 145/29/1 146/30/1 147/31/1 148/32/1
f 149/33/1 150/34/1 151/35/1 152/36/1
f 153/37/1 154/38/1 155/39/1 156/40/1
f 157/41/1 158/42/1 159/43/1 160/44/1
f 161/29/1 162/30/1 163/31/1 164/32/1
f 165/33/1 166/34/1 167/35/1 168/36/1
f 169/37/1 170/38/1 171/39/1 172/40/1
f 173/41/1 174/42/1 175/43/1 176/44/1
f 177/17/1 178/18/1 179/19/1 180/20/1
f 181/37/1 182/38/1 183/39/1 184/40/1
f 185/41/1 186/42/1 187/43/1 188/44/1
f 189/17/1 190/18/1 191/19/1 192/20/1
f 193/17/1 194/18/1 195/19/1 196/20/1
f 197/17/1 198/18/1 199/19/1 200/20/1
f 201/17/1 202/18/1 203/19/1 204/20/1
f 205/45/1 206/46/1 207/47/1 208/48/1
f 209/49/1 210/50/1 211/51/1 212/52/1
f 213/45/1 214/46/1 215/47/1 216/48/1
f 217/53/1 218/54/1 219/55/1 220/56/1
f 221/57/1 222/58/1 223/59/1 224/60/1
f 225/61/1 226/62/1 227/63/1 228/64/1
f 229/65/1 230/66/1 231/67/1 232/68/1
f 233/57/1 234/58/1 235/59/1 236/60/1
f 237/69/1 238/70/1 239/71/1 240/72/1
f 241/73/1 242/74/1 243/75/1 244/76/1
f 245/77/1 246/78/1 247/79/1 248/80/1
f 249/81/1 250/82/1 251/83/1 252/84/1
f 253/85/1 254/86/1 255/87/1 256/88/1
f 257/49/1 258/50/1 259/51/1 260/52/1
f 261/89/1 262/90/1 263/91/1 264/92/1
f 265/93/1 266/94/1 267/95/1 268/96/1
f 269/97/1 270/98/1 271/99/1 272/100/1
f 273/57/1 274/58/1 275/59/1 276/60/1
f 277/45/1 278/46/1 279/47/1 280/48/1
f 281/45/1 282/46/1 283/47/1 284/48/1
f 285/77/1 286/78/1 287/79/1 288/80/1
f 289/81/1 290/82/1 291/83/1 292/84/1
f 293/93/1 294/94/1 295/95/1 296/96/1
f 297/97/1 298/98/1 299/99/1 300/100/1
f 301/101/1 302/102/1 303/103/1 304/104/1
f 305/105/1 306/106/1 307/107/1 308/108/1
f 309/109/1 310/110/1 311/111/1 312/112/1
f 313/113/1 314/114/1 315/115/1 316/116/1
f 317/117/1 318/118/1 319/119/1 320/120/1
f 321/57/1 322/58/1 323/59/1 324/60/1
f 325/49/1 326/50/1 327/51/1 328/52/1
f 329/57/1 330/58/1 331/59/1 332/60/1
f 333/109/1 334/110/1 335/111/1 336/112/1
f 337/49/1 338/50/1 339/51/1 340/52/1
f 341/57/1 342/58/1 343/59/1 344/60/1

