# Tiled2Unity generated file. Do not modify by hand.
# Wavefront file for 'Dotties_mesh_0009.obj'

# Vertices (Count = 116)
v -28 -1 0
v -29 -1 0
v -29 0 0
v -28 0 0
v -27 -1 0
v -28 -1 0
v -28 0 0
v -27 0 0
v -26 -1 0
v -27 -1 0
v -27 0 0
v -26 0 0
v -25 -1 0
v -26 -1 0
v -26 0 0
v -25 0 0
v -24 -1 0
v -25 -1 0
v -25 0 0
v -24 0 0
v -23 -1 0
v -24 -1 0
v -24 0 0
v -23 0 0
v -22 -1 0
v -23 -1 0
v -23 0 0
v -22 0 0
v -21 -1 0
v -22 -1 0
v -22 0 0
v -21 0 0
v -20 -1 0
v -21 -1 0
v -21 0 0
v -20 0 0
v -16 -3 0
v -17 -3 0
v -17 -2 0
v -16 -2 0
v -15 -3 0
v -16 -3 0
v -16 -2 0
v -15 -2 0
v -14 -3 0
v -15 -3 0
v -15 -2 0
v -14 -2 0
v -13 -3 0
v -14 -3 0
v -14 -2 0
v -13 -2 0
v -12 -3 0
v -13 -3 0
v -13 -2 0
v -12 -2 0
v -11 -3 0
v -12 -3 0
v -12 -2 0
v -11 -2 0
v -8 -6 0
v -9 -6 0
v -9 -5 0
v -8 -5 0
v -7 -6 0
v -8 -6 0
v -8 -5 0
v -7 -5 0
v -6 -6 0
v -7 -6 0
v -7 -5 0
v -6 -5 0
v -5 -6 0
v -6 -6 0
v -6 -5 0
v -5 -5 0
v -4 -6 0
v -5 -6 0
v -5 -5 0
v -4 -5 0
v -23 -28 0
v -24 -28 0
v -24 -27 0
v -23 -27 0
v -22 -28 0
v -23 -28 0
v -23 -27 0
v -22 -27 0
v -21 -28 0
v -22 -28 0
v -22 -27 0
v -21 -27 0
v -20 -28 0
v -21 -28 0
v -21 -27 0
v -20 -27 0
v -19 -28 0
v -20 -28 0
v -20 -27 0
v -19 -27 0
v -18 -28 0
v -19 -28 0
v -19 -27 0
v -18 -27 0
v -17 -28 0
v -18 -28 0
v -18 -27 0
v -17 -27 0
v -16 -28 0
v -17 -28 0
v -17 -27 0
v -16 -27 0
v -15 -28 0
v -16 -28 0
v -16 -27 0
v -15 -27 0

# Texture cooridinates (Count = 116)
vt 0.1534767 0.131701
vt 0.170272 0.131701
vt 0.170272 0.1577727
vt 0.1534767 0.1577727
vt 0.1364373 0.131701
vt 0.1532326 0.131701
vt 0.1532326 0.1577727
vt 0.1364373 0.1577727
vt 0.1193979 0.131701
vt 0.1361932 0.131701
vt 0.1361932 0.1577727
vt 0.1193979 0.1577727
vt 0.1023585 0.131701
vt 0.1191538 0.131701
vt 0.1191538 0.1577727
vt 0.1023585 0.1577727
vt 0.08531909 0.131701
vt 0.1021143 0.131701
vt 0.1021143 0.1577727
vt 0.08531909 0.1577727
vt 0.06827968 0.131701
vt 0.08507495 0.131701
vt 0.08507495 0.1577727
vt 0.06827968 0.1577727
vt 0.05124028 0.131701
vt 0.06803554 0.131701
vt 0.06803554 0.1577727
vt 0.05124028 0.1577727
vt 0.03420088 0.131701
vt 0.05099614 0.131701
vt 0.05099614 0.1577727
vt 0.03420088 0.1577727
vt 0.01716147 0.131701
vt 0.03395674 0.131701
vt 0.03395674 0.1577727
vt 0.01716147 0.1577727
vt 0.2557131 0.131701
vt 0.2725084 0.131701
vt 0.2725084 0.1577727
vt 0.2557131 0.1577727
vt 0.2386737 0.131701
vt 0.255469 0.131701
vt 0.255469 0.1577727
vt 0.2386737 0.1577727
vt 0.2216343 0.131701
vt 0.2384296 0.131701
vt 0.2384296 0.1577727
vt 0.2216343 0.1577727
vt 0.2045949 0.131701
vt 0.2213902 0.131701
vt 0.2213902 0.1577727
vt 0.2045949 0.1577727
vt 0.1875555 0.131701
vt 0.2043508 0.131701
vt 0.2043508 0.1577727
vt 0.1875555 0.1577727
vt 0.1705161 0.131701
vt 0.1873114 0.131701
vt 0.1873114 0.1577727
vt 0.1705161 0.1577727
vt 0.2557131 0.5790694
vt 0.2725084 0.5790694
vt 0.2725084 0.605141
vt 0.2557131 0.605141
vt 0.2386737 0.5790694
vt 0.255469 0.5790694
vt 0.255469 0.605141
vt 0.2386737 0.605141
vt 0.2216343 0.5790694
vt 0.2384296 0.5790694
vt 0.2384296 0.605141
vt 0.2216343 0.605141
vt 0.2045949 0.5790694
vt 0.2213902 0.5790694
vt 0.2213902 0.605141
vt 0.2045949 0.605141
vt 0.1875555 0.5790694
vt 0.2043508 0.5790694
vt 0.2043508 0.605141
vt 0.1875555 0.605141
vt 0.3068313 0.7106484
vt 0.3236266 0.7106484
vt 0.3236266 0.73672
vt 0.3068313 0.73672
vt 0.2897919 0.7106484
vt 0.3065872 0.7106484
vt 0.3065872 0.73672
vt 0.2897919 0.73672
vt 0.2727525 0.7106484
vt 0.2895478 0.7106484
vt 0.2895478 0.73672
vt 0.2727525 0.73672
vt 0.2557131 0.7106484
vt 0.2725084 0.7106484
vt 0.2725084 0.73672
vt 0.2557131 0.73672
vt 0.2386737 0.7106484
vt 0.255469 0.7106484
vt 0.255469 0.73672
vt 0.2386737 0.73672
vt 0.2216343 0.7106484
vt 0.2384296 0.7106484
vt 0.2384296 0.73672
vt 0.2216343 0.73672
vt 0.2045949 0.7106484
vt 0.2213902 0.7106484
vt 0.2213902 0.73672
vt 0.2045949 0.73672
vt 0.1875555 0.7106484
vt 0.2043508 0.7106484
vt 0.2043508 0.73672
vt 0.1875555 0.73672
vt 0.1705161 0.7106484
vt 0.1873114 0.7106484
vt 0.1873114 0.73672
vt 0.1705161 0.73672

# Normal
vn 0 0 -1

# Mesh description
g Dotties_mesh_0009

# Faces
f 1/1/1 2/2/1 3/3/1 4/4/1
f 5/5/1 6/6/1 7/7/1 8/8/1
f 9/9/1 10/10/1 11/11/1 12/12/1
f 13/13/1 14/14/1 15/15/1 16/16/1
f 17/17/1 18/18/1 19/19/1 20/20/1
f 21/21/1 22/22/1 23/23/1 24/24/1
f 25/25/1 26/26/1 27/27/1 28/28/1
f 29/29/1 30/30/1 31/31/1 32/32/1
f 33/33/1 34/34/1 35/35/1 36/36/1
f 37/37/1 38/38/1 39/39/1 40/40/1
f 41/41/1 42/42/1 43/43/1 44/44/1
f 45/45/1 46/46/1 47/47/1 48/48/1
f 49/49/1 50/50/1 51/51/1 52/52/1
f 53/53/1 54/54/1 55/55/1 56/56/1
f 57/57/1 58/58/1 59/59/1 60/60/1
f 61/61/1 62/62/1 63/63/1 64/64/1
f 65/65/1 66/66/1 67/67/1 68/68/1
f 69/69/1 70/70/1 71/71/1 72/72/1
f 73/73/1 74/74/1 75/75/1 76/76/1
f 77/77/1 78/78/1 79/79/1 80/80/1
f 81/81/1 82/82/1 83/83/1 84/84/1
f 85/85/1 86/86/1 87/87/1 88/88/1
f 89/89/1 90/90/1 91/91/1 92/92/1
f 93/93/1 94/94/1 95/95/1 96/96/1
f 97/97/1 98/98/1 99/99/1 100/100/1
f 101/101/1 102/102/1 103/103/1 104/104/1
f 105/105/1 106/106/1 107/107/1 108/108/1
f 109/109/1 110/110/1 111/111/1 112/112/1
f 113/113/1 114/114/1 115/115/1 116/116/1

