# Tiled2Unity generated file. Do not modify by hand.
# Wavefront file for 'Dotties_mesh_0002.obj'

# Vertices (Count = 544)
v -32 -1 0
v -33 -1 0
v -33 0 0
v -32 0 0
v -31 -1 0
v -32 -1 0
v -32 0 0
v -31 0 0
v -15 -1 0
v -16 -1 0
v -16 0 0
v -15 0 0
v -14 -1 0
v -15 -1 0
v -15 0 0
v -14 0 0
v -33 -2 0
v -34 -2 0
v -34 -1 0
v -33 -1 0
v -32 -2 0
v -33 -2 0
v -33 -1 0
v -32 -1 0
v -31 -2 0
v -32 -2 0
v -32 -1 0
v -31 -1 0
v -17 -2 0
v -18 -2 0
v -18 -1 0
v -17 -1 0
v -15 -2 0
v -16 -2 0
v -16 -1 0
v -15 -1 0
v -14 -2 0
v -15 -2 0
v -15 -1 0
v -14 -1 0
v -12 -2 0
v -13 -2 0
v -13 -1 0
v -12 -1 0
v -11 -2 0
v -12 -2 0
v -12 -1 0
v -11 -1 0
v -33 -3 0
v -34 -3 0
v -34 -2 0
v -33 -2 0
v -18 -3 0
v -19 -3 0
v -19 -2 0
v -18 -2 0
v -11 -3 0
v -12 -3 0
v -12 -2 0
v -11 -2 0
v -33 -4 0
v -34 -4 0
v -34 -3 0
v -33 -3 0
v -32 -4 0
v -33 -4 0
v -33 -3 0
v -32 -3 0
v -29 -4 0
v -30 -4 0
v -30 -3 0
v -29 -3 0
v -19 -4 0
v -20 -4 0
v -20 -3 0
v -19 -3 0
v -17 -4 0
v -18 -4 0
v -18 -3 0
v -17 -3 0
v -11 -4 0
v -12 -4 0
v -12 -3 0
v -11 -3 0
v -10 -4 0
v -11 -4 0
v -11 -3 0
v -10 -3 0
v -32 -5 0
v -33 -5 0
v -33 -4 0
v -32 -4 0
v -29 -5 0
v -30 -5 0
v -30 -4 0
v -29 -4 0
v -28 -5 0
v -29 -5 0
v -29 -4 0
v -28 -4 0
v -20 -5 0
v -21 -5 0
v -21 -4 0
v -20 -4 0
v -18 -5 0
v -19 -5 0
v -19 -4 0
v -18 -4 0
v -10 -5 0
v -11 -5 0
v -11 -4 0
v -10 -4 0
v -32 -6 0
v -33 -6 0
v -33 -5 0
v -32 -5 0
v -31 -6 0
v -32 -6 0
v -32 -5 0
v -31 -5 0
v -32 -7 0
v -33 -7 0
v -33 -6 0
v -32 -6 0
v -31 -7 0
v -32 -7 0
v -32 -6 0
v -31 -6 0
v -32 -8 0
v -33 -8 0
v -33 -7 0
v -32 -7 0
v -32 -9 0
v -33 -9 0
v -33 -8 0
v -32 -8 0
v -31 -9 0
v -32 -9 0
v -32 -8 0
v -31 -8 0
v -33 -10 0
v -34 -10 0
v -34 -9 0
v -33 -9 0
v -32 -10 0
v -33 -10 0
v -33 -9 0
v -32 -9 0
v -33 -11 0
v -34 -11 0
v -34 -10 0
v -33 -10 0
v -4 -15 0
v -5 -15 0
v -5 -14 0
v -4 -14 0
v -3 -15 0
v -4 -15 0
v -4 -14 0
v -3 -14 0
v -32 -16 0
v -33 -16 0
v -33 -15 0
v -32 -15 0
v -4 -16 0
v -5 -16 0
v -5 -15 0
v -4 -15 0
v -3 -16 0
v -4 -16 0
v -4 -15 0
v -3 -15 0
v -31 -17 0
v -32 -17 0
v -32 -16 0
v -31 -16 0
v -32 -19 0
v -33 -19 0
v -33 -18 0
v -32 -18 0
v -33 -20 0
v -34 -20 0
v -34 -19 0
v -33 -19 0
v -33 -21 0
v -34 -21 0
v -34 -20 0
v -33 -20 0
v -32 -21 0
v -33 -21 0
v -33 -20 0
v -32 -20 0
v -32 -22 0
v -33 -22 0
v -33 -21 0
v -32 -21 0
v -33 -23 0
v -34 -23 0
v -34 -22 0
v -33 -22 0
v -32 -23 0
v -33 -23 0
v -33 -22 0
v -32 -22 0
v -33 -24 0
v -34 -24 0
v -34 -23 0
v -33 -23 0
v -32 -24 0
v -33 -24 0
v -33 -23 0
v -32 -23 0
v -31 -24 0
v -32 -24 0
v -32 -23 0
v -31 -23 0
v -33 -25 0
v -34 -25 0
v -34 -24 0
v -33 -24 0
v -32 -25 0
v -33 -25 0
v -33 -24 0
v -32 -24 0
v -33 -26 0
v -34 -26 0
v -34 -25 0
v -33 -25 0
v -32 -26 0
v -33 -26 0
v -33 -25 0
v -32 -25 0
v -33 -27 0
v -34 -27 0
v -34 -26 0
v -33 -26 0
v -32 -27 0
v -33 -27 0
v -33 -26 0
v -32 -26 0
v -33 -28 0
v -34 -28 0
v -34 -27 0
v -33 -27 0
v -32 -28 0
v -33 -28 0
v -33 -27 0
v -32 -27 0
v -33 -29 0
v -34 -29 0
v -34 -28 0
v -33 -28 0
v -32 -29 0
v -33 -29 0
v -33 -28 0
v -32 -28 0
v -33 -30 0
v -34 -30 0
v -34 -29 0
v -33 -29 0
v -32 -30 0
v -33 -30 0
v -33 -29 0
v -32 -29 0
v 0 -32 0
v -1 -32 0
v -1 -31 0
v 0 -31 0
v 0 -33 0
v -1 -33 0
v -1 -32 0
v 0 -32 0
v 0 -48 0
v -1 -48 0
v -1 -47 0
v 0 -47 0
v 0 -49 0
v -1 -49 0
v -1 -48 0
v 0 -48 0
v -2 -50 0
v -3 -50 0
v -3 -49 0
v -2 -49 0
v -1 -50 0
v -2 -50 0
v -2 -49 0
v -1 -49 0
v -33 -51 0
v -34 -51 0
v -34 -50 0
v -33 -50 0
v -32 -51 0
v -33 -51 0
v -33 -50 0
v -32 -50 0
v -1 -51 0
v -2 -51 0
v -2 -50 0
v -1 -50 0
v 0 -51 0
v -1 -51 0
v -1 -50 0
v 0 -50 0
v -33 -52 0
v -34 -52 0
v -34 -51 0
v -33 -51 0
v -32 -52 0
v -33 -52 0
v -33 -51 0
v -32 -51 0
v -2 -52 0
v -3 -52 0
v -3 -51 0
v -2 -51 0
v -1 -52 0
v -2 -52 0
v -2 -51 0
v -1 -51 0
v 0 -52 0
v -1 -52 0
v -1 -51 0
v 0 -51 0
v -32 -53 0
v -33 -53 0
v -33 -52 0
v -32 -52 0
v -31 -53 0
v -32 -53 0
v -32 -52 0
v -31 -52 0
v -2 -53 0
v -3 -53 0
v -3 -52 0
v -2 -52 0
v -1 -53 0
v -2 -53 0
v -2 -52 0
v -1 -52 0
v -32 -54 0
v -33 -54 0
v -33 -53 0
v -32 -53 0
v -31 -54 0
v -32 -54 0
v -32 -53 0
v -31 -53 0
v -1 -54 0
v -2 -54 0
v -2 -53 0
v -1 -53 0
v -1 -55 0
v -2 -55 0
v -2 -54 0
v -1 -54 0
v 0 -55 0
v -1 -55 0
v -1 -54 0
v 0 -54 0
v 0 -56 0
v -1 -56 0
v -1 -55 0
v 0 -55 0
v -33 -58 0
v -34 -58 0
v -34 -57 0
v -33 -57 0
v -33 -59 0
v -34 -59 0
v -34 -58 0
v -33 -58 0
v -32 -59 0
v -33 -59 0
v -33 -58 0
v -32 -58 0
v -32 -60 0
v -33 -60 0
v -33 -59 0
v -32 -59 0
v -33 -61 0
v -34 -61 0
v -34 -60 0
v -33 -60 0
v -32 -61 0
v -33 -61 0
v -33 -60 0
v -32 -60 0
v -33 -62 0
v -34 -62 0
v -34 -61 0
v -33 -61 0
v -15 -62 0
v -16 -62 0
v -16 -61 0
v -15 -61 0
v -14 -62 0
v -15 -62 0
v -15 -61 0
v -14 -61 0
v -11 -62 0
v -12 -62 0
v -12 -61 0
v -11 -61 0
v -10 -62 0
v -11 -62 0
v -11 -61 0
v -10 -61 0
v -9 -62 0
v -10 -62 0
v -10 -61 0
v -9 -61 0
v -33 -63 0
v -34 -63 0
v -34 -62 0
v -33 -62 0
v -32 -63 0
v -33 -63 0
v -33 -62 0
v -32 -62 0
v -28 -63 0
v -29 -63 0
v -29 -62 0
v -28 -62 0
v -22 -63 0
v -23 -63 0
v -23 -62 0
v -22 -62 0
v -21 -63 0
v -22 -63 0
v -22 -62 0
v -21 -62 0
v -20 -63 0
v -21 -63 0
v -21 -62 0
v -20 -62 0
v -19 -63 0
v -20 -63 0
v -20 -62 0
v -19 -62 0
v -18 -63 0
v -19 -63 0
v -19 -62 0
v -18 -62 0
v -17 -63 0
v -18 -63 0
v -18 -62 0
v -17 -62 0
v -16 -63 0
v -17 -63 0
v -17 -62 0
v -16 -62 0
v -15 -63 0
v -16 -63 0
v -16 -62 0
v -15 -62 0
v -14 -63 0
v -15 -63 0
v -15 -62 0
v -14 -62 0
v -13 -63 0
v -14 -63 0
v -14 -62 0
v -13 -62 0
v -12 -63 0
v -13 -63 0
v -13 -62 0
v -12 -62 0
v -11 -63 0
v -12 -63 0
v -12 -62 0
v -11 -62 0
v -10 -63 0
v -11 -63 0
v -11 -62 0
v -10 -62 0
v -9 -63 0
v -10 -63 0
v -10 -62 0
v -9 -62 0
v -5 -63 0
v -6 -63 0
v -6 -62 0
v -5 -62 0
v -4 -63 0
v -5 -63 0
v -5 -62 0
v -4 -62 0
v -33 -64 0
v -34 -64 0
v -34 -63 0
v -33 -63 0
v -32 -64 0
v -33 -64 0
v -33 -63 0
v -32 -63 0
v -29 -64 0
v -30 -64 0
v -30 -63 0
v -29 -63 0
v -22 -64 0
v -23 -64 0
v -23 -63 0
v -22 -63 0
v -20 -64 0
v -21 -64 0
v -21 -63 0
v -20 -63 0
v -19 -64 0
v -20 -64 0
v -20 -63 0
v -19 -63 0
v -18 -64 0
v -19 -64 0
v -19 -63 0
v -18 -63 0
v -17 -64 0
v -18 -64 0
v -18 -63 0
v -17 -63 0
v -16 -64 0
v -17 -64 0
v -17 -63 0
v -16 -63 0
v -13 -64 0
v -14 -64 0
v -14 -63 0
v -13 -63 0
v -12 -64 0
v -13 -64 0
v -13 -63 0
v -12 -63 0
v -5 -64 0
v -6 -64 0
v -6 -63 0
v -5 -63 0
v -4 -64 0
v -5 -64 0
v -5 -63 0
v -4 -63 0
v -1 -64 0
v -2 -64 0
v -2 -63 0
v -1 -63 0

# Texture cooridinates (Count = 152)
vt 0.1249595 0.5278999
vt 0.1455216 0.5278999
vt 0.1455216 0.5554335
vt 0.1249595 0.5554335
vt 0.1041533 0.5278999
vt 0.1247154 0.5278999
vt 0.1247154 0.5554335
vt 0.1041533 0.5554335
vt 0.04173455 0.5834554
vt 0.06229666 0.5834554
vt 0.06229666 0.610989
vt 0.04173455 0.610989
vt 0.1249595 0.5001221
vt 0.1455216 0.5001221
vt 0.1455216 0.5276557
vt 0.1249595 0.5276557
vt 0.1041533 0.5001221
vt 0.1247154 0.5001221
vt 0.1247154 0.5276557
vt 0.1041533 0.5276557
vt 0.0001220703 0.5834554
vt 0.02068417 0.5834554
vt 0.02068417 0.610989
vt 0.0001220703 0.610989
vt 0.0001220703 0.5556777
vt 0.02068417 0.5556777
vt 0.02068417 0.5832113
vt 0.0001220703 0.5832113
vt 0.9155967 0.5278999
vt 0.9361588 0.5278999
vt 0.9361588 0.5554335
vt 0.9155967 0.5554335
vt 0.9155967 0.5001221
vt 0.9361588 0.5001221
vt 0.9361588 0.5276557
vt 0.9155967 0.5276557
vt 0.9155967 0.4723443
vt 0.9361588 0.4723443
vt 0.9361588 0.4998779
vt 0.9155967 0.4998779
vt 0.8947905 0.4723443
vt 0.9153526 0.4723443
vt 0.9153526 0.4998779
vt 0.8947905 0.4998779
vt 0.9155967 0.4445665
vt 0.9361588 0.4445665
vt 0.9361588 0.4721001
vt 0.9155967 0.4721001
vt 0.8115655 0.5278999
vt 0.8321276 0.5278999
vt 0.8321276 0.5554335
vt 0.8115655 0.5554335
vt 0.7907593 0.5278999
vt 0.8113214 0.5278999
vt 0.8113214 0.5554335
vt 0.7907593 0.5554335
vt 0.8115655 0.5001221
vt 0.8321276 0.5001221
vt 0.8321276 0.5276557
vt 0.8115655 0.5276557
vt 0.7907593 0.5001221
vt 0.8113214 0.5001221
vt 0.8113214 0.5276557
vt 0.7907593 0.5276557
vt 0.8115655 0.4723443
vt 0.8321276 0.4723443
vt 0.8321276 0.4998779
vt 0.8115655 0.4998779
vt 0.7907593 0.4723443
vt 0.8113214 0.4723443
vt 0.8113214 0.4998779
vt 0.7907593 0.4998779
vt 0.8115655 0.4445665
vt 0.8321276 0.4445665
vt 0.8321276 0.4721001
vt 0.8115655 0.4721001
vt 0.7907593 0.4445665
vt 0.8113214 0.4445665
vt 0.8113214 0.4721001
vt 0.7907593 0.4721001
vt 0.1041533 0.9445665
vt 0.1247154 0.9445665
vt 0.1247154 0.9721001
vt 0.1041533 0.9721001
vt 0.08334704 0.9445665
vt 0.1039091 0.9445665
vt 0.1039091 0.9721001
vt 0.08334704 0.9721001
vt 0.2081845 0.9723443
vt 0.2287466 0.9723443
vt 0.2287466 0.9998779
vt 0.2081845 0.9998779
vt 0.2081845 0.6667887
vt 0.2287466 0.6667887
vt 0.2287466 0.6943223
vt 0.2081845 0.6943223
vt 0.1873782 0.6667887
vt 0.2079404 0.6667887
vt 0.2079404 0.6943223
vt 0.1873782 0.6943223
vt 0.2081845 0.08345538
vt 0.2287466 0.08345538
vt 0.2287466 0.110989
vt 0.2081845 0.110989
vt 0.1873782 0.08345538
vt 0.2079404 0.08345538
vt 0.2079404 0.110989
vt 0.1873782 0.110989
vt 0.166572 0.08345538
vt 0.1871341 0.08345538
vt 0.1871341 0.110989
vt 0.166572 0.110989
vt 0.1457658 0.08345538
vt 0.1663279 0.08345538
vt 0.1663279 0.110989
vt 0.1457658 0.110989
vt 0.1041533 0.9167888
vt 0.1247154 0.9167888
vt 0.1247154 0.9443223
vt 0.1041533 0.9443223
vt 0.08334704 0.9167888
vt 0.1039091 0.9167888
vt 0.1039091 0.9443223
vt 0.08334704 0.9443223
vt 0.1457658 0.9723443
vt 0.1663279 0.9723443
vt 0.1663279 0.9998779
vt 0.1457658 0.9998779
vt 0.2081845 0.639011
vt 0.2287466 0.639011
vt 0.2287466 0.6665446
vt 0.2081845 0.6665446
vt 0.1873782 0.639011
vt 0.2079404 0.639011
vt 0.2079404 0.6665446
vt 0.1873782 0.6665446
vt 0.2081845 0.05567765
vt 0.2287466 0.05567765
vt 0.2287466 0.08321124
vt 0.2081845 0.08321124
vt 0.1873782 0.05567765
vt 0.2079404 0.05567765
vt 0.2079404 0.08321124
vt 0.1873782 0.08321124
vt 0.166572 0.05567765
vt 0.1871341 0.05567765
vt 0.1871341 0.08321124
vt 0.166572 0.08321124
vt 0.1457658 0.05567765
vt 0.1663279 0.05567765
vt 0.1663279 0.08321124
vt 0.1457658 0.08321124

# Normal
vn 0 0 -1

# Mesh description
g Dotties_mesh_0002

# Faces
f 1/1/1 2/2/1 3/3/1 4/4/1
f 5/5/1 6/6/1 7/7/1 8/8/1
f 9/1/1 10/2/1 11/3/1 12/4/1
f 13/5/1 14/6/1 15/7/1 16/8/1
f 17/9/1 18/10/1 19/11/1 20/12/1
f 21/13/1 22/14/1 23/15/1 24/16/1
f 25/17/1 26/18/1 27/19/1 28/20/1
f 29/9/1 30/10/1 31/11/1 32/12/1
f 33/13/1 34/14/1 35/15/1 36/16/1
f 37/17/1 38/18/1 39/19/1 40/20/1
f 41/9/1 42/10/1 43/11/1 44/12/1
f 45/9/1 46/10/1 47/11/1 48/12/1
f 49/9/1 50/10/1 51/11/1 52/12/1
f 53/9/1 54/10/1 55/11/1 56/12/1
f 57/9/1 58/10/1 59/11/1 60/12/1
f 61/9/1 62/10/1 63/11/1 64/12/1
f 65/9/1 66/10/1 67/11/1 68/12/1
f 69/9/1 70/10/1 71/11/1 72/12/1
f 73/9/1 74/10/1 75/11/1 76/12/1
f 77/9/1 78/10/1 79/11/1 80/12/1
f 81/9/1 82/10/1 83/11/1 84/12/1
f 85/9/1 86/10/1 87/11/1 88/12/1
f 89/9/1 90/10/1 91/11/1 92/12/1
f 93/9/1 94/10/1 95/11/1 96/12/1
f 97/9/1 98/10/1 99/11/1 100/12/1
f 101/9/1 102/10/1 103/11/1 104/12/1
f 105/9/1 106/10/1 107/11/1 108/12/1
f 109/9/1 110/10/1 111/11/1 112/12/1
f 113/1/1 114/2/1 115/3/1 116/4/1
f 117/5/1 118/6/1 119/7/1 120/8/1
f 121/13/1 122/14/1 123/15/1 124/16/1
f 125/17/1 126/18/1 127/19/1 128/20/1
f 129/9/1 130/10/1 131/11/1 132/12/1
f 133/21/1 134/22/1 135/23/1 136/24/1
f 137/9/1 138/10/1 139/11/1 140/12/1
f 141/21/1 142/22/1 143/23/1 144/24/1
f 145/25/1 146/26/1 147/27/1 148/28/1
f 149/25/1 150/26/1 151/27/1 152/28/1
f 153/1/1 154/2/1 155/3/1 156/4/1
f 157/5/1 158/6/1 159/7/1 160/8/1
f 161/9/1 162/10/1 163/11/1 164/12/1
f 165/13/1 166/14/1 167/15/1 168/16/1
f 169/17/1 170/18/1 171/19/1 172/20/1
f 173/9/1 174/10/1 175/11/1 176/12/1
f 177/9/1 178/10/1 179/11/1 180/12/1
f 181/9/1 182/10/1 183/11/1 184/12/1
f 185/9/1 186/10/1 187/11/1 188/12/1
f 189/9/1 190/10/1 191/11/1 192/12/1
f 193/9/1 194/10/1 195/11/1 196/12/1
f 197/29/1 198/30/1 199/31/1 200/32/1
f 201/9/1 202/10/1 203/11/1 204/12/1
f 205/33/1 206/34/1 207/35/1 208/36/1
f 209/9/1 210/10/1 211/11/1 212/12/1
f 213/9/1 214/10/1 215/11/1 216/12/1
f 217/37/1 218/38/1 219/39/1 220/40/1
f 221/41/1 222/42/1 223/43/1 224/44/1
f 225/45/1 226/46/1 227/47/1 228/48/1
f 229/9/1 230/10/1 231/11/1 232/12/1
f 233/49/1 234/50/1 235/51/1 236/52/1
f 237/53/1 238/54/1 239/55/1 240/56/1
f 241/57/1 242/58/1 243/59/1 244/60/1
f 245/61/1 246/62/1 247/63/1 248/64/1
f 249/65/1 250/66/1 251/67/1 252/68/1
f 253/69/1 254/70/1 255/71/1 256/72/1
f 257/73/1 258/74/1 259/75/1 260/76/1
f 261/77/1 262/78/1 263/79/1 264/80/1
f 265/1/1 266/2/1 267/3/1 268/4/1
f 269/13/1 270/14/1 271/15/1 272/16/1
f 273/1/1 274/2/1 275/3/1 276/4/1
f 277/13/1 278/14/1 279/15/1 280/16/1
f 281/9/1 282/10/1 283/11/1 284/12/1
f 285/9/1 286/10/1 287/11/1 288/12/1
f 289/1/1 290/2/1 291/3/1 292/4/1
f 293/5/1 294/6/1 295/7/1 296/8/1
f 297/9/1 298/10/1 299/11/1 300/12/1
f 301/1/1 302/2/1 303/3/1 304/4/1
f 305/13/1 306/14/1 307/15/1 308/16/1
f 309/17/1 310/18/1 311/19/1 312/20/1
f 313/1/1 314/2/1 315/3/1 316/4/1
f 317/5/1 318/6/1 319/7/1 320/8/1
f 321/13/1 322/14/1 323/15/1 324/16/1
f 325/1/1 326/2/1 327/3/1 328/4/1
f 329/5/1 330/6/1 331/7/1 332/8/1
f 333/13/1 334/14/1 335/15/1 336/16/1
f 337/17/1 338/18/1 339/19/1 340/20/1
f 341/13/1 342/14/1 343/15/1 344/16/1
f 345/17/1 346/18/1 347/19/1 348/20/1
f 349/21/1 350/22/1 351/23/1 352/24/1
f 353/25/1 354/26/1 355/27/1 356/28/1
f 357/21/1 358/22/1 359/23/1 360/24/1
f 361/25/1 362/26/1 363/27/1 364/28/1
f 365/21/1 366/22/1 367/23/1 368/24/1
f 369/25/1 370/26/1 371/27/1 372/28/1
f 373/21/1 374/22/1 375/23/1 376/24/1
f 377/25/1 378/26/1 379/27/1 380/28/1
f 381/9/1 382/10/1 383/11/1 384/12/1
f 385/9/1 386/10/1 387/11/1 388/12/1
f 389/9/1 390/10/1 391/11/1 392/12/1
f 393/1/1 394/2/1 395/3/1 396/4/1
f 397/5/1 398/6/1 399/7/1 400/8/1
f 401/81/1 402/82/1 403/83/1 404/84/1
f 405/85/1 406/86/1 407/87/1 408/88/1
f 409/89/1 410/90/1 411/91/1 412/92/1
f 413/93/1 414/94/1 415/95/1 416/96/1
f 417/97/1 418/98/1 419/99/1 420/100/1
f 421/9/1 422/10/1 423/11/1 424/12/1
f 425/9/1 426/10/1 427/11/1 428/12/1
f 429/9/1 430/10/1 431/11/1 432/12/1
f 433/9/1 434/10/1 435/11/1 436/12/1
f 437/101/1 438/102/1 439/103/1 440/104/1
f 441/105/1 442/106/1 443/107/1 444/108/1
f 445/109/1 446/110/1 447/111/1 448/112/1
f 449/113/1 450/114/1 451/115/1 452/116/1
f 453/13/1 454/14/1 455/15/1 456/16/1
f 457/17/1 458/18/1 459/19/1 460/20/1
f 461/1/1 462/2/1 463/3/1 464/4/1
f 465/5/1 466/6/1 467/7/1 468/8/1
f 469/117/1 470/118/1 471/119/1 472/120/1
f 473/121/1 474/122/1 475/123/1 476/124/1
f 477/125/1 478/126/1 479/127/1 480/128/1
f 481/93/1 482/94/1 483/95/1 484/96/1
f 485/97/1 486/98/1 487/99/1 488/100/1
f 489/129/1 490/130/1 491/131/1 492/132/1
f 493/133/1 494/134/1 495/135/1 496/136/1
f 497/9/1 498/10/1 499/11/1 500/12/1
f 501/9/1 502/10/1 503/11/1 504/12/1
f 505/9/1 506/10/1 507/11/1 508/12/1
f 509/137/1 510/138/1 511/139/1 512/140/1
f 513/141/1 514/142/1 515/143/1 516/144/1
f 517/145/1 518/146/1 519/147/1 520/148/1
f 521/149/1 522/150/1 523/151/1 524/152/1
f 525/13/1 526/14/1 527/15/1 528/16/1
f 529/17/1 530/18/1 531/19/1 532/20/1
f 533/129/1 534/130/1 535/131/1 536/132/1
f 537/133/1 538/134/1 539/135/1 540/136/1
f 541/9/1 542/10/1 543/11/1 544/12/1

