# Tiled2Unity generated file. Do not modify by hand.
# Wavefront file for 'Dotties_mesh_0002.obj'

# Vertices (Count = 312)
v -7 -2 0
v -8 -2 0
v -8 -1 0
v -7 -1 0
v -6 -2 0
v -7 -2 0
v -7 -1 0
v -6 -1 0
v -7 -3 0
v -8 -3 0
v -8 -2 0
v -7 -2 0
v -6 -3 0
v -7 -3 0
v -7 -2 0
v -6 -2 0
v -5 -4 0
v -6 -4 0
v -6 -3 0
v -5 -3 0
v -40 -10 0
v -41 -10 0
v -41 -9 0
v -40 -9 0
v -39 -10 0
v -40 -10 0
v -40 -9 0
v -39 -9 0
v -23 -12 0
v -24 -12 0
v -24 -11 0
v -23 -11 0
v -5 -20 0
v -6 -20 0
v -6 -19 0
v -5 -19 0
v -4 -20 0
v -5 -20 0
v -5 -19 0
v -4 -19 0
v -34 -22 0
v -35 -22 0
v -35 -21 0
v -34 -21 0
v -33 -22 0
v -34 -22 0
v -34 -21 0
v -33 -21 0
v -58 -24 0
v -59 -24 0
v -59 -23 0
v -58 -23 0
v -58 -27 0
v -59 -27 0
v -59 -26 0
v -58 -26 0
v -57 -27 0
v -58 -27 0
v -58 -26 0
v -57 -26 0
v -50 -33 0
v -51 -33 0
v -51 -32 0
v -50 -32 0
v -49 -33 0
v -50 -33 0
v -50 -32 0
v -49 -32 0
v -58 -35 0
v -59 -35 0
v -59 -34 0
v -58 -34 0
v -57 -35 0
v -58 -35 0
v -58 -34 0
v -57 -34 0
v -23 -35 0
v -24 -35 0
v -24 -34 0
v -23 -34 0
v -22 -35 0
v -23 -35 0
v -23 -34 0
v -22 -34 0
v -58 -36 0
v -59 -36 0
v -59 -35 0
v -58 -35 0
v -57 -36 0
v -58 -36 0
v -58 -35 0
v -57 -35 0
v -22 -36 0
v -23 -36 0
v -23 -35 0
v -22 -35 0
v -12 -37 0
v -13 -37 0
v -13 -36 0
v -12 -36 0
v -11 -37 0
v -12 -37 0
v -12 -36 0
v -11 -36 0
v -21 -39 0
v -22 -39 0
v -22 -38 0
v -21 -38 0
v -20 -39 0
v -21 -39 0
v -21 -38 0
v -20 -38 0
v -4 -40 0
v -5 -40 0
v -5 -39 0
v -4 -39 0
v -50 -45 0
v -51 -45 0
v -51 -44 0
v -50 -44 0
v -49 -45 0
v -50 -45 0
v -50 -44 0
v -49 -44 0
v -34 -45 0
v -35 -45 0
v -35 -44 0
v -34 -44 0
v -22 -45 0
v -23 -45 0
v -23 -44 0
v -22 -44 0
v -50 -46 0
v -51 -46 0
v -51 -45 0
v -50 -45 0
v -49 -46 0
v -50 -46 0
v -50 -45 0
v -49 -45 0
v -42 -46 0
v -43 -46 0
v -43 -45 0
v -42 -45 0
v -34 -46 0
v -35 -46 0
v -35 -45 0
v -34 -45 0
v -33 -46 0
v -34 -46 0
v -34 -45 0
v -33 -45 0
v -23 -46 0
v -24 -46 0
v -24 -45 0
v -23 -45 0
v -22 -46 0
v -23 -46 0
v -23 -45 0
v -22 -45 0
v -10 -46 0
v -11 -46 0
v -11 -45 0
v -10 -45 0
v -58 -47 0
v -59 -47 0
v -59 -46 0
v -58 -46 0
v -57 -47 0
v -58 -47 0
v -58 -46 0
v -57 -46 0
v -40 -47 0
v -41 -47 0
v -41 -46 0
v -40 -46 0
v -39 -47 0
v -40 -47 0
v -40 -46 0
v -39 -46 0
v -34 -47 0
v -35 -47 0
v -35 -46 0
v -34 -46 0
v -33 -47 0
v -34 -47 0
v -34 -46 0
v -33 -46 0
v -53 -48 0
v -54 -48 0
v -54 -47 0
v -53 -47 0
v -52 -48 0
v -53 -48 0
v -53 -47 0
v -52 -47 0
v -51 -48 0
v -52 -48 0
v -52 -47 0
v -51 -47 0
v -50 -50 0
v -51 -50 0
v -51 -49 0
v -50 -49 0
v -40 -50 0
v -41 -50 0
v -41 -49 0
v -40 -49 0
v -19 -50 0
v -20 -50 0
v -20 -49 0
v -19 -49 0
v -59 -51 0
v -60 -51 0
v -60 -50 0
v -59 -50 0
v -39 -51 0
v -40 -51 0
v -40 -50 0
v -39 -50 0
v -15 -51 0
v -16 -51 0
v -16 -50 0
v -15 -50 0
v -39 -52 0
v -40 -52 0
v -40 -51 0
v -39 -51 0
v -21 -52 0
v -22 -52 0
v -22 -51 0
v -21 -51 0
v -20 -52 0
v -21 -52 0
v -21 -51 0
v -20 -51 0
v -21 -53 0
v -22 -53 0
v -22 -52 0
v -21 -52 0
v -20 -53 0
v -21 -53 0
v -21 -52 0
v -20 -52 0
v -58 -55 0
v -59 -55 0
v -59 -54 0
v -58 -54 0
v -57 -55 0
v -58 -55 0
v -58 -54 0
v -57 -54 0
v -49 -55 0
v -50 -55 0
v -50 -54 0
v -49 -54 0
v -58 -56 0
v -59 -56 0
v -59 -55 0
v -58 -55 0
v -57 -56 0
v -58 -56 0
v -58 -55 0
v -57 -55 0
v -49 -56 0
v -50 -56 0
v -50 -55 0
v -49 -55 0
v -44 -59 0
v -45 -59 0
v -45 -58 0
v -44 -58 0
v -43 -59 0
v -44 -59 0
v -44 -58 0
v -43 -58 0
v -21 -59 0
v -22 -59 0
v -22 -58 0
v -21 -58 0
v -20 -59 0
v -21 -59 0
v -21 -58 0
v -20 -58 0
v -44 -60 0
v -45 -60 0
v -45 -59 0
v -44 -59 0
v -43 -60 0
v -44 -60 0
v -44 -59 0
v -43 -59 0
v -21 -60 0
v -22 -60 0
v -22 -59 0
v -21 -59 0
v -20 -60 0
v -21 -60 0
v -21 -59 0
v -20 -59 0
v -3 -60 0
v -4 -60 0
v -4 -59 0
v -3 -59 0
v -2 -60 0
v -3 -60 0
v -3 -59 0
v -2 -59 0
v -1 -60 0
v -2 -60 0
v -2 -59 0
v -1 -59 0

# Texture cooridinates (Count = 56)
vt 0.1041533 0.9445665
vt 0.1247154 0.9445665
vt 0.1247154 0.9721001
vt 0.1041533 0.9721001
vt 0.08334704 0.9445665
vt 0.1039091 0.9445665
vt 0.1039091 0.9721001
vt 0.08334704 0.9721001
vt 0.1041533 0.9167888
vt 0.1247154 0.9167888
vt 0.1247154 0.9443223
vt 0.1041533 0.9443223
vt 0.08334704 0.9167888
vt 0.1039091 0.9167888
vt 0.1039091 0.9443223
vt 0.08334704 0.9443223
vt 0.0625408 0.6667887
vt 0.0831029 0.6667887
vt 0.0831029 0.6943223
vt 0.0625408 0.6943223
vt 0.1249595 0.5001221
vt 0.1455216 0.5001221
vt 0.1455216 0.5276557
vt 0.1249595 0.5276557
vt 0.1041533 0.5001221
vt 0.1247154 0.5001221
vt 0.1247154 0.5276557
vt 0.1041533 0.5276557
vt 0.0625408 0.639011
vt 0.0831029 0.639011
vt 0.0831029 0.6665446
vt 0.0625408 0.6665446
vt 0.0001220703 0.7501221
vt 0.02068417 0.7501221
vt 0.02068417 0.7776557
vt 0.0001220703 0.7776557
vt 0.02092831 0.7501221
vt 0.04149041 0.7501221
vt 0.04149041 0.7776557
vt 0.02092831 0.7776557
vt 0.04173455 0.639011
vt 0.06229666 0.639011
vt 0.06229666 0.6665446
vt 0.04173455 0.6665446
vt 0.1041533 0.8334554
vt 0.1247154 0.8334554
vt 0.1247154 0.860989
vt 0.1041533 0.860989
vt 0.08334704 0.8334554
vt 0.1039091 0.8334554
vt 0.1039091 0.860989
vt 0.08334704 0.860989
vt 0.0625408 0.8334554
vt 0.0831029 0.8334554
vt 0.0831029 0.860989
vt 0.0625408 0.860989

# Normal
vn 0 0 -1

# Mesh description
g Dotties_mesh_0002

# Faces
f 1/1/1 2/2/1 3/3/1 4/4/1
f 5/5/1 6/6/1 7/7/1 8/8/1
f 9/9/1 10/10/1 11/11/1 12/12/1
f 13/13/1 14/14/1 15/15/1 16/16/1
f 17/17/1 18/18/1 19/19/1 20/20/1
f 21/21/1 22/22/1 23/23/1 24/24/1
f 25/25/1 26/26/1 27/27/1 28/28/1
f 29/17/1 30/18/1 31/19/1 32/20/1
f 33/21/1 34/22/1 35/23/1 36/24/1
f 37/25/1 38/26/1 39/27/1 40/28/1
f 41/21/1 42/22/1 43/23/1 44/24/1
f 45/25/1 46/26/1 47/27/1 48/28/1
f 49/29/1 50/30/1 51/31/1 52/32/1
f 53/21/1 54/22/1 55/23/1 56/24/1
f 57/25/1 58/26/1 59/27/1 60/28/1
f 61/21/1 62/22/1 63/23/1 64/24/1
f 65/25/1 66/26/1 67/27/1 68/28/1
f 69/1/1 70/2/1 71/3/1 72/4/1
f 73/5/1 74/6/1 75/7/1 76/8/1
f 77/33/1 78/34/1 79/35/1 80/36/1
f 81/17/1 82/18/1 83/19/1 84/20/1
f 85/9/1 86/10/1 87/11/1 88/12/1
f 89/13/1 90/14/1 91/15/1 92/16/1
f 93/37/1 94/38/1 95/39/1 96/40/1
f 97/21/1 98/22/1 99/23/1 100/24/1
f 101/25/1 102/26/1 103/27/1 104/28/1
f 105/21/1 106/22/1 107/23/1 108/24/1
f 109/25/1 110/26/1 111/27/1 112/28/1
f 113/17/1 114/18/1 115/19/1 116/20/1
f 117/1/1 118/2/1 119/3/1 120/4/1
f 121/5/1 122/6/1 123/7/1 124/8/1
f 125/17/1 126/18/1 127/19/1 128/20/1
f 129/37/1 130/38/1 131/39/1 132/40/1
f 133/9/1 134/10/1 135/11/1 136/12/1
f 137/13/1 138/14/1 139/15/1 140/16/1
f 141/17/1 142/18/1 143/19/1 144/20/1
f 145/1/1 146/2/1 147/3/1 148/4/1
f 149/5/1 150/6/1 151/7/1 152/8/1
f 153/17/1 154/18/1 155/19/1 156/20/1
f 157/41/1 158/42/1 159/43/1 160/44/1
f 161/29/1 162/30/1 163/31/1 164/32/1
f 165/21/1 166/22/1 167/23/1 168/24/1
f 169/25/1 170/26/1 171/27/1 172/28/1
f 173/21/1 174/22/1 175/23/1 176/24/1
f 177/25/1 178/26/1 179/27/1 180/28/1
f 181/9/1 182/10/1 183/11/1 184/12/1
f 185/13/1 186/14/1 187/15/1 188/16/1
f 189/45/1 190/46/1 191/47/1 192/48/1
f 193/49/1 194/50/1 195/51/1 196/52/1
f 197/53/1 198/54/1 199/55/1 200/56/1
f 201/17/1 202/18/1 203/19/1 204/20/1
f 205/37/1 206/38/1 207/39/1 208/40/1
f 209/29/1 210/30/1 211/31/1 212/32/1
f 213/17/1 214/18/1 215/19/1 216/20/1
f 217/37/1 218/38/1 219/39/1 220/40/1
f 221/17/1 222/18/1 223/19/1 224/20/1
f 225/17/1 226/18/1 227/19/1 228/20/1
f 229/1/1 230/2/1 231/3/1 232/4/1
f 233/5/1 234/6/1 235/7/1 236/8/1
f 237/9/1 238/10/1 239/11/1 240/12/1
f 241/13/1 242/14/1 243/15/1 244/16/1
f 245/1/1 246/2/1 247/3/1 248/4/1
f 249/5/1 250/6/1 251/7/1 252/8/1
f 253/37/1 254/38/1 255/39/1 256/40/1
f 257/9/1 258/10/1 259/11/1 260/12/1
f 261/13/1 262/14/1 263/15/1 264/16/1
f 265/17/1 266/18/1 267/19/1 268/20/1
f 269/1/1 270/2/1 271/3/1 272/4/1
f 273/5/1 274/6/1 275/7/1 276/8/1
f 277/1/1 278/2/1 279/3/1 280/4/1
f 281/5/1 282/6/1 283/7/1 284/8/1
f 285/9/1 286/10/1 287/11/1 288/12/1
f 289/13/1 290/14/1 291/15/1 292/16/1
f 293/9/1 294/10/1 295/11/1 296/12/1
f 297/13/1 298/14/1 299/15/1 300/16/1
f 301/45/1 302/46/1 303/47/1 304/48/1
f 305/49/1 306/50/1 307/51/1 308/52/1
f 309/53/1 310/54/1 311/55/1 312/56/1

