# Tiled2Unity generated file. Do not modify by hand.
# Wavefront file for 'Dotties_mesh_0006.obj'

# Vertices (Count = 1028)
v -59 -1 0
v -60 -1 0
v -60 0 0
v -59 0 0
v -58 -1 0
v -59 -1 0
v -59 0 0
v -58 0 0
v -49 -1 0
v -50 -1 0
v -50 0 0
v -49 0 0
v -48 -1 0
v -49 -1 0
v -49 0 0
v -48 0 0
v -47 -1 0
v -48 -1 0
v -48 0 0
v -47 0 0
v -46 -1 0
v -47 -1 0
v -47 0 0
v -46 0 0
v -45 -1 0
v -46 -1 0
v -46 0 0
v -45 0 0
v -44 -1 0
v -45 -1 0
v -45 0 0
v -44 0 0
v -43 -1 0
v -44 -1 0
v -44 0 0
v -43 0 0
v -42 -1 0
v -43 -1 0
v -43 0 0
v -42 0 0
v -41 -1 0
v -42 -1 0
v -42 0 0
v -41 0 0
v -40 -1 0
v -41 -1 0
v -41 0 0
v -40 0 0
v -39 -1 0
v -40 -1 0
v -40 0 0
v -39 0 0
v -38 -1 0
v -39 -1 0
v -39 0 0
v -38 0 0
v -37 -1 0
v -38 -1 0
v -38 0 0
v -37 0 0
v -36 -1 0
v -37 -1 0
v -37 0 0
v -36 0 0
v -35 -1 0
v -36 -1 0
v -36 0 0
v -35 0 0
v -34 -1 0
v -35 -1 0
v -35 0 0
v -34 0 0
v -33 -1 0
v -34 -1 0
v -34 0 0
v -33 0 0
v -32 -1 0
v -33 -1 0
v -33 0 0
v -32 0 0
v -20 -1 0
v -21 -1 0
v -21 0 0
v -20 0 0
v -19 -1 0
v -20 -1 0
v -20 0 0
v -19 0 0
v -18 -1 0
v -19 -1 0
v -19 0 0
v -18 0 0
v -17 -1 0
v -18 -1 0
v -18 0 0
v -17 0 0
v -16 -1 0
v -17 -1 0
v -17 0 0
v -16 0 0
v -15 -1 0
v -16 -1 0
v -16 0 0
v -15 0 0
v -14 -1 0
v -15 -1 0
v -15 0 0
v -14 0 0
v -13 -1 0
v -14 -1 0
v -14 0 0
v -13 0 0
v -12 -1 0
v -13 -1 0
v -13 0 0
v -12 0 0
v -11 -1 0
v -12 -1 0
v -12 0 0
v -11 0 0
v -10 -1 0
v -11 -1 0
v -11 0 0
v -10 0 0
v -9 -1 0
v -10 -1 0
v -10 0 0
v -9 0 0
v -8 -1 0
v -9 -1 0
v -9 0 0
v -8 0 0
v -7 -1 0
v -8 -1 0
v -8 0 0
v -7 0 0
v -6 -1 0
v -7 -1 0
v -7 0 0
v -6 0 0
v -5 -1 0
v -6 -1 0
v -6 0 0
v -5 0 0
v -4 -1 0
v -5 -1 0
v -5 0 0
v -4 0 0
v -3 -1 0
v -4 -1 0
v -4 0 0
v -3 0 0
v -59 -2 0
v -60 -2 0
v -60 -1 0
v -59 -1 0
v -58 -2 0
v -59 -2 0
v -59 -1 0
v -58 -1 0
v -54 -2 0
v -55 -2 0
v -55 -1 0
v -54 -1 0
v -53 -2 0
v -54 -2 0
v -54 -1 0
v -53 -1 0
v -52 -2 0
v -53 -2 0
v -53 -1 0
v -52 -1 0
v -51 -2 0
v -52 -2 0
v -52 -1 0
v -51 -1 0
v -46 -2 0
v -47 -2 0
v -47 -1 0
v -46 -1 0
v -45 -2 0
v -46 -2 0
v -46 -1 0
v -45 -1 0
v -44 -2 0
v -45 -2 0
v -45 -1 0
v -44 -1 0
v -43 -2 0
v -44 -2 0
v -44 -1 0
v -43 -1 0
v -42 -2 0
v -43 -2 0
v -43 -1 0
v -42 -1 0
v -41 -2 0
v -42 -2 0
v -42 -1 0
v -41 -1 0
v -40 -2 0
v -41 -2 0
v -41 -1 0
v -40 -1 0
v -39 -2 0
v -40 -2 0
v -40 -1 0
v -39 -1 0
v -13 -2 0
v -14 -2 0
v -14 -1 0
v -13 -1 0
v -12 -2 0
v -13 -2 0
v -13 -1 0
v -12 -1 0
v -11 -2 0
v -12 -2 0
v -12 -1 0
v -11 -1 0
v -10 -2 0
v -11 -2 0
v -11 -1 0
v -10 -1 0
v -6 -2 0
v -7 -2 0
v -7 -1 0
v -6 -1 0
v -5 -2 0
v -6 -2 0
v -6 -1 0
v -5 -1 0
v -4 -2 0
v -5 -2 0
v -5 -1 0
v -4 -1 0
v -3 -2 0
v -4 -2 0
v -4 -1 0
v -3 -1 0
v 0 -2 0
v -1 -2 0
v -1 -1 0
v 0 -1 0
v -54 -3 0
v -55 -3 0
v -55 -2 0
v -54 -2 0
v -53 -3 0
v -54 -3 0
v -54 -2 0
v -53 -2 0
v -52 -3 0
v -53 -3 0
v -53 -2 0
v -52 -2 0
v -51 -3 0
v -52 -3 0
v -52 -2 0
v -51 -2 0
v -42 -3 0
v -43 -3 0
v -43 -2 0
v -42 -2 0
v -41 -3 0
v -42 -3 0
v -42 -2 0
v -41 -2 0
v -40 -3 0
v -41 -3 0
v -41 -2 0
v -40 -2 0
v -39 -3 0
v -40 -3 0
v -40 -2 0
v -39 -2 0
v -13 -3 0
v -14 -3 0
v -14 -2 0
v -13 -2 0
v -12 -3 0
v -13 -3 0
v -13 -2 0
v -12 -2 0
v -11 -3 0
v -12 -3 0
v -12 -2 0
v -11 -2 0
v -10 -3 0
v -11 -3 0
v -11 -2 0
v -10 -2 0
v 0 -3 0
v -1 -3 0
v -1 -2 0
v 0 -2 0
v -54 -4 0
v -55 -4 0
v -55 -3 0
v -54 -3 0
v -53 -4 0
v -54 -4 0
v -54 -3 0
v -53 -3 0
v -52 -4 0
v -53 -4 0
v -53 -3 0
v -52 -3 0
v -51 -4 0
v -52 -4 0
v -52 -3 0
v -51 -3 0
v -37 -4 0
v -38 -4 0
v -38 -3 0
v -37 -3 0
v -36 -4 0
v -37 -4 0
v -37 -3 0
v -36 -3 0
v -35 -4 0
v -36 -4 0
v -36 -3 0
v -35 -3 0
v -34 -4 0
v -35 -4 0
v -35 -3 0
v -34 -3 0
v -28 -4 0
v -29 -4 0
v -29 -3 0
v -28 -3 0
v -27 -4 0
v -28 -4 0
v -28 -3 0
v -27 -3 0
v 0 -4 0
v -1 -4 0
v -1 -3 0
v 0 -3 0
v -37 -5 0
v -38 -5 0
v -38 -4 0
v -37 -4 0
v -36 -5 0
v -37 -5 0
v -37 -4 0
v -36 -4 0
v -35 -5 0
v -36 -5 0
v -36 -4 0
v -35 -4 0
v -34 -5 0
v -35 -5 0
v -35 -4 0
v -34 -4 0
v -28 -5 0
v -29 -5 0
v -29 -4 0
v -28 -4 0
v -27 -5 0
v -28 -5 0
v -28 -4 0
v -27 -4 0
v -37 -6 0
v -38 -6 0
v -38 -5 0
v -37 -5 0
v -36 -6 0
v -37 -6 0
v -37 -5 0
v -36 -5 0
v -35 -6 0
v -36 -6 0
v -36 -5 0
v -35 -5 0
v -34 -6 0
v -35 -6 0
v -35 -5 0
v -34 -5 0
v -13 -8 0
v -14 -8 0
v -14 -7 0
v -13 -7 0
v -12 -8 0
v -13 -8 0
v -13 -7 0
v -12 -7 0
v -11 -8 0
v -12 -8 0
v -12 -7 0
v -11 -7 0
v -10 -8 0
v -11 -8 0
v -11 -7 0
v -10 -7 0
v -13 -9 0
v -14 -9 0
v -14 -8 0
v -13 -8 0
v -12 -9 0
v -13 -9 0
v -13 -8 0
v -12 -8 0
v -11 -9 0
v -12 -9 0
v -12 -8 0
v -11 -8 0
v -10 -9 0
v -11 -9 0
v -11 -8 0
v -10 -8 0
v -13 -10 0
v -14 -10 0
v -14 -9 0
v -13 -9 0
v -12 -10 0
v -13 -10 0
v -13 -9 0
v -12 -9 0
v -11 -10 0
v -12 -10 0
v -12 -9 0
v -11 -9 0
v -10 -10 0
v -11 -10 0
v -11 -9 0
v -10 -9 0
v -22 -11 0
v -23 -11 0
v -23 -10 0
v -22 -10 0
v -21 -11 0
v -22 -11 0
v -22 -10 0
v -21 -10 0
v -20 -11 0
v -21 -11 0
v -21 -10 0
v -20 -10 0
v -19 -11 0
v -20 -11 0
v -20 -10 0
v -19 -10 0
v -22 -12 0
v -23 -12 0
v -23 -11 0
v -22 -11 0
v -21 -12 0
v -22 -12 0
v -22 -11 0
v -21 -11 0
v -20 -12 0
v -21 -12 0
v -21 -11 0
v -20 -11 0
v -19 -12 0
v -20 -12 0
v -20 -11 0
v -19 -11 0
v -22 -13 0
v -23 -13 0
v -23 -12 0
v -22 -12 0
v -21 -13 0
v -22 -13 0
v -22 -12 0
v -21 -12 0
v -20 -13 0
v -21 -13 0
v -21 -12 0
v -20 -12 0
v -19 -13 0
v -20 -13 0
v -20 -12 0
v -19 -12 0
v -23 -14 0
v -24 -14 0
v -24 -13 0
v -23 -13 0
v -22 -14 0
v -23 -14 0
v -23 -13 0
v -22 -13 0
v -23 -15 0
v -24 -15 0
v -24 -14 0
v -23 -14 0
v -22 -15 0
v -23 -15 0
v -23 -14 0
v -22 -14 0
v -44 -18 0
v -45 -18 0
v -45 -17 0
v -44 -17 0
v -43 -18 0
v -44 -18 0
v -44 -17 0
v -43 -17 0
v -42 -18 0
v -43 -18 0
v -43 -17 0
v -42 -17 0
v -41 -18 0
v -42 -18 0
v -42 -17 0
v -41 -17 0
v -44 -19 0
v -45 -19 0
v -45 -18 0
v -44 -18 0
v -43 -19 0
v -44 -19 0
v -44 -18 0
v -43 -18 0
v -42 -19 0
v -43 -19 0
v -43 -18 0
v -42 -18 0
v -41 -19 0
v -42 -19 0
v -42 -18 0
v -41 -18 0
v -24 -19 0
v -25 -19 0
v -25 -18 0
v -24 -18 0
v -23 -19 0
v -24 -19 0
v -24 -18 0
v -23 -18 0
v -22 -19 0
v -23 -19 0
v -23 -18 0
v -22 -18 0
v -21 -19 0
v -22 -19 0
v -22 -18 0
v -21 -18 0
v -44 -20 0
v -45 -20 0
v -45 -19 0
v -44 -19 0
v -43 -20 0
v -44 -20 0
v -44 -19 0
v -43 -19 0
v -42 -20 0
v -43 -20 0
v -43 -19 0
v -42 -19 0
v -41 -20 0
v -42 -20 0
v -42 -19 0
v -41 -19 0
v -24 -20 0
v -25 -20 0
v -25 -19 0
v -24 -19 0
v -23 -20 0
v -24 -20 0
v -24 -19 0
v -23 -19 0
v -22 -20 0
v -23 -20 0
v -23 -19 0
v -22 -19 0
v -21 -20 0
v -22 -20 0
v -22 -19 0
v -21 -19 0
v -24 -21 0
v -25 -21 0
v -25 -20 0
v -24 -20 0
v -23 -21 0
v -24 -21 0
v -24 -20 0
v -23 -20 0
v -22 -21 0
v -23 -21 0
v -23 -20 0
v -22 -20 0
v -21 -21 0
v -22 -21 0
v -22 -20 0
v -21 -20 0
v -7 -26 0
v -8 -26 0
v -8 -25 0
v -7 -25 0
v -6 -26 0
v -7 -26 0
v -7 -25 0
v -6 -25 0
v -5 -26 0
v -6 -26 0
v -6 -25 0
v -5 -25 0
v -4 -26 0
v -5 -26 0
v -5 -25 0
v -4 -25 0
v -33 -27 0
v -34 -27 0
v -34 -26 0
v -33 -26 0
v -32 -27 0
v -33 -27 0
v -33 -26 0
v -32 -26 0
v -7 -27 0
v -8 -27 0
v -8 -26 0
v -7 -26 0
v -6 -27 0
v -7 -27 0
v -7 -26 0
v -6 -26 0
v -5 -27 0
v -6 -27 0
v -6 -26 0
v -5 -26 0
v -4 -27 0
v -5 -27 0
v -5 -26 0
v -4 -26 0
v -7 -28 0
v -8 -28 0
v -8 -27 0
v -7 -27 0
v -6 -28 0
v -7 -28 0
v -7 -27 0
v -6 -27 0
v -5 -28 0
v -6 -28 0
v -6 -27 0
v -5 -27 0
v -4 -28 0
v -5 -28 0
v -5 -27 0
v -4 -27 0
v -42 -29 0
v -43 -29 0
v -43 -28 0
v -42 -28 0
v -41 -29 0
v -42 -29 0
v -42 -28 0
v -41 -28 0
v -40 -29 0
v -41 -29 0
v -41 -28 0
v -40 -28 0
v -39 -29 0
v -40 -29 0
v -40 -28 0
v -39 -28 0
v -5 -29 0
v -6 -29 0
v -6 -28 0
v -5 -28 0
v -4 -29 0
v -5 -29 0
v -5 -28 0
v -4 -28 0
v -42 -30 0
v -43 -30 0
v -43 -29 0
v -42 -29 0
v -41 -30 0
v -42 -30 0
v -42 -29 0
v -41 -29 0
v -40 -30 0
v -41 -30 0
v -41 -29 0
v -40 -29 0
v -39 -30 0
v -40 -30 0
v -40 -29 0
v -39 -29 0
v -5 -30 0
v -6 -30 0
v -6 -29 0
v -5 -29 0
v -4 -30 0
v -5 -30 0
v -5 -29 0
v -4 -29 0
v -42 -31 0
v -43 -31 0
v -43 -30 0
v -42 -30 0
v -41 -31 0
v -42 -31 0
v -42 -30 0
v -41 -30 0
v -40 -31 0
v -41 -31 0
v -41 -30 0
v -40 -30 0
v -39 -31 0
v -40 -31 0
v -40 -30 0
v -39 -30 0
v -42 -32 0
v -43 -32 0
v -43 -31 0
v -42 -31 0
v -41 -32 0
v -42 -32 0
v -42 -31 0
v -41 -31 0
v -42 -33 0
v -43 -33 0
v -43 -32 0
v -42 -32 0
v -41 -33 0
v -42 -33 0
v -42 -32 0
v -41 -32 0
v -30 -35 0
v -31 -35 0
v -31 -34 0
v -30 -34 0
v -29 -35 0
v -30 -35 0
v -30 -34 0
v -29 -34 0
v -30 -36 0
v -31 -36 0
v -31 -35 0
v -30 -35 0
v -29 -36 0
v -30 -36 0
v -30 -35 0
v -29 -35 0
v -53 -37 0
v -54 -37 0
v -54 -36 0
v -53 -36 0
v -52 -37 0
v -53 -37 0
v -53 -36 0
v -52 -36 0
v -51 -37 0
v -52 -37 0
v -52 -36 0
v -51 -36 0
v -50 -37 0
v -51 -37 0
v -51 -36 0
v -50 -36 0
v -53 -38 0
v -54 -38 0
v -54 -37 0
v -53 -37 0
v -52 -38 0
v -53 -38 0
v -53 -37 0
v -52 -37 0
v -51 -38 0
v -52 -38 0
v -52 -37 0
v -51 -37 0
v -50 -38 0
v -51 -38 0
v -51 -37 0
v -50 -37 0
v -53 -39 0
v -54 -39 0
v -54 -38 0
v -53 -38 0
v -52 -39 0
v -53 -39 0
v -53 -38 0
v -52 -38 0
v -51 -39 0
v -52 -39 0
v -52 -38 0
v -51 -38 0
v -50 -39 0
v -51 -39 0
v -51 -38 0
v -50 -38 0
v -6 -43 0
v -7 -43 0
v -7 -42 0
v -6 -42 0
v -5 -43 0
v -6 -43 0
v -6 -42 0
v -5 -42 0
v -4 -43 0
v -5 -43 0
v -5 -42 0
v -4 -42 0
v -3 -43 0
v -4 -43 0
v -4 -42 0
v -3 -42 0
v -21 -44 0
v -22 -44 0
v -22 -43 0
v -21 -43 0
v -20 -44 0
v -21 -44 0
v -21 -43 0
v -20 -43 0
v -19 -44 0
v -20 -44 0
v -20 -43 0
v -19 -43 0
v -18 -44 0
v -19 -44 0
v -19 -43 0
v -18 -43 0
v -6 -44 0
v -7 -44 0
v -7 -43 0
v -6 -43 0
v -5 -44 0
v -6 -44 0
v -6 -43 0
v -5 -43 0
v -4 -44 0
v -5 -44 0
v -5 -43 0
v -4 -43 0
v -3 -44 0
v -4 -44 0
v -4 -43 0
v -3 -43 0
v -21 -45 0
v -22 -45 0
v -22 -44 0
v -21 -44 0
v -20 -45 0
v -21 -45 0
v -21 -44 0
v -20 -44 0
v -19 -45 0
v -20 -45 0
v -20 -44 0
v -19 -44 0
v -18 -45 0
v -19 -45 0
v -19 -44 0
v -18 -44 0
v -6 -45 0
v -7 -45 0
v -7 -44 0
v -6 -44 0
v -5 -45 0
v -6 -45 0
v -6 -44 0
v -5 -44 0
v -4 -45 0
v -5 -45 0
v -5 -44 0
v -4 -44 0
v -3 -45 0
v -4 -45 0
v -4 -44 0
v -3 -44 0
v -21 -46 0
v -22 -46 0
v -22 -45 0
v -21 -45 0
v -20 -46 0
v -21 -46 0
v -21 -45 0
v -20 -45 0
v -19 -46 0
v -20 -46 0
v -20 -45 0
v -19 -45 0
v -18 -46 0
v -19 -46 0
v -19 -45 0
v -18 -45 0
v -30 -48 0
v -31 -48 0
v -31 -47 0
v -30 -47 0
v -29 -48 0
v -30 -48 0
v -30 -47 0
v -29 -47 0
v -28 -48 0
v -29 -48 0
v -29 -47 0
v -28 -47 0
v -27 -48 0
v -28 -48 0
v -28 -47 0
v -27 -47 0
v -30 -49 0
v -31 -49 0
v -31 -48 0
v -30 -48 0
v -29 -49 0
v -30 -49 0
v -30 -48 0
v -29 -48 0
v -28 -49 0
v -29 -49 0
v -29 -48 0
v -28 -48 0
v -27 -49 0
v -28 -49 0
v -28 -48 0
v -27 -48 0
v -30 -50 0
v -31 -50 0
v -31 -49 0
v -30 -49 0
v -29 -50 0
v -30 -50 0
v -30 -49 0
v -29 -49 0
v -28 -50 0
v -29 -50 0
v -29 -49 0
v -28 -49 0
v -27 -50 0
v -28 -50 0
v -28 -49 0
v -27 -49 0
v -54 -54 0
v -55 -54 0
v -55 -53 0
v -54 -53 0
v -53 -54 0
v -54 -54 0
v -54 -53 0
v -53 -53 0
v -52 -54 0
v -53 -54 0
v -53 -53 0
v -52 -53 0
v -51 -54 0
v -52 -54 0
v -52 -53 0
v -51 -53 0
v -4 -54 0
v -5 -54 0
v -5 -53 0
v -4 -53 0
v -3 -54 0
v -4 -54 0
v -4 -53 0
v -3 -53 0
v -2 -54 0
v -3 -54 0
v -3 -53 0
v -2 -53 0
v -1 -54 0
v -2 -54 0
v -2 -53 0
v -1 -53 0
v -54 -55 0
v -55 -55 0
v -55 -54 0
v -54 -54 0
v -53 -55 0
v -54 -55 0
v -54 -54 0
v -53 -54 0
v -52 -55 0
v -53 -55 0
v -53 -54 0
v -52 -54 0
v -51 -55 0
v -52 -55 0
v -52 -54 0
v -51 -54 0
v -4 -55 0
v -5 -55 0
v -5 -54 0
v -4 -54 0
v -3 -55 0
v -4 -55 0
v -4 -54 0
v -3 -54 0
v -2 -55 0
v -3 -55 0
v -3 -54 0
v -2 -54 0
v -1 -55 0
v -2 -55 0
v -2 -54 0
v -1 -54 0
v -54 -56 0
v -55 -56 0
v -55 -55 0
v -54 -55 0
v -53 -56 0
v -54 -56 0
v -54 -55 0
v -53 -55 0
v -52 -56 0
v -53 -56 0
v -53 -55 0
v -52 -55 0
v -51 -56 0
v -52 -56 0
v -52 -55 0
v -51 -55 0
v -4 -56 0
v -5 -56 0
v -5 -55 0
v -4 -55 0
v -3 -56 0
v -4 -56 0
v -4 -55 0
v -3 -55 0
v -2 -56 0
v -3 -56 0
v -3 -55 0
v -2 -55 0
v -1 -56 0
v -2 -56 0
v -2 -55 0
v -1 -55 0

# Texture cooridinates (Count = 120)
vt 0.02092831 0.02789986
vt 0.04149041 0.02789986
vt 0.04149041 0.05543351
vt 0.02092831 0.05543351
vt 0.0001220703 0.02789986
vt 0.02068417 0.02789986
vt 0.02068417 0.05543351
vt 0.0001220703 0.05543351
vt 0.0625408 0.0001220703
vt 0.0831029 0.0001220703
vt 0.0831029 0.02765572
vt 0.0625408 0.02765572
vt 0.04173455 0.0001220703
vt 0.06229666 0.0001220703
vt 0.06229666 0.02765572
vt 0.04173455 0.02765572
vt 0.02092831 0.0001220703
vt 0.04149041 0.0001220703
vt 0.04149041 0.02765572
vt 0.02092831 0.02765572
vt 0.0001220703 0.0001220703
vt 0.02068417 0.0001220703
vt 0.02068417 0.02765572
vt 0.0001220703 0.02765572
vt 0.04173455 0.02789986
vt 0.06229666 0.02789986
vt 0.06229666 0.05543351
vt 0.04173455 0.05543351
vt 0.0625408 0.05567765
vt 0.0831029 0.05567765
vt 0.0831029 0.08321124
vt 0.0625408 0.08321124
vt 0.04173455 0.05567765
vt 0.06229666 0.05567765
vt 0.06229666 0.08321124
vt 0.04173455 0.08321124
vt 0.02092831 0.05567765
vt 0.04149041 0.05567765
vt 0.04149041 0.08321124
vt 0.02092831 0.08321124
vt 0.0001220703 0.05567765
vt 0.02068417 0.05567765
vt 0.02068417 0.08321124
vt 0.0001220703 0.08321124
vt 0.0625408 0.02789986
vt 0.0831029 0.02789986
vt 0.0831029 0.05543351
vt 0.0625408 0.05543351
vt 0.3538282 0.139011
vt 0.3743903 0.139011
vt 0.3743903 0.1665446
vt 0.3538282 0.1665446
vt 0.3330219 0.139011
vt 0.3535841 0.139011
vt 0.3535841 0.1665446
vt 0.3330219 0.1665446
vt 0.3122157 0.139011
vt 0.3327778 0.139011
vt 0.3327778 0.1665446
vt 0.3122157 0.1665446
vt 0.2914095 0.139011
vt 0.3119715 0.139011
vt 0.3119715 0.1665446
vt 0.2914095 0.1665446
vt 0.3538282 0.1112332
vt 0.3743903 0.1112332
vt 0.3743903 0.1387668
vt 0.3538282 0.1387668
vt 0.3330219 0.1112332
vt 0.3535841 0.1112332
vt 0.3535841 0.1387668
vt 0.3330219 0.1387668
vt 0.3122157 0.1112332
vt 0.3327778 0.1112332
vt 0.3327778 0.1387668
vt 0.3122157 0.1387668
vt 0.2914095 0.1112332
vt 0.3119715 0.1112332
vt 0.3119715 0.1387668
vt 0.2914095 0.1387668
vt 0.3538282 0.08345538
vt 0.3743903 0.08345538
vt 0.3743903 0.110989
vt 0.3538282 0.110989
vt 0.3330219 0.08345538
vt 0.3535841 0.08345538
vt 0.3535841 0.110989
vt 0.3330219 0.110989
vt 0.3122157 0.08345538
vt 0.3327778 0.08345538
vt 0.3327778 0.110989
vt 0.3122157 0.110989
vt 0.2914095 0.08345538
vt 0.3119715 0.08345538
vt 0.3119715 0.110989
vt 0.2914095 0.110989
vt 0.1041533 0.9445665
vt 0.1247154 0.9445665
vt 0.1247154 0.9721001
vt 0.1041533 0.9721001
vt 0.08334704 0.9445665
vt 0.1039091 0.9445665
vt 0.1039091 0.9721001
vt 0.08334704 0.9721001
vt 0.1041533 0.9167888
vt 0.1247154 0.9167888
vt 0.1247154 0.9443223
vt 0.1041533 0.9443223
vt 0.08334704 0.9167888
vt 0.1039091 0.9167888
vt 0.1039091 0.9443223
vt 0.08334704 0.9443223
vt 0.2081845 0.639011
vt 0.2287466 0.639011
vt 0.2287466 0.6665446
vt 0.2081845 0.6665446
vt 0.1873782 0.639011
vt 0.2079404 0.639011
vt 0.2079404 0.6665446
vt 0.1873782 0.6665446

# Normal
vn 0 0 -1

# Mesh description
g Dotties_mesh_0006

# Faces
f 1/1/1 2/2/1 3/3/1 4/4/1
f 5/5/1 6/6/1 7/7/1 8/8/1
f 9/9/1 10/10/1 11/11/1 12/12/1
f 13/13/1 14/14/1 15/15/1 16/16/1
f 17/17/1 18/18/1 19/19/1 20/20/1
f 21/21/1 22/22/1 23/23/1 24/24/1
f 25/25/1 26/26/1 27/27/1 28/28/1
f 29/1/1 30/2/1 31/3/1 32/4/1
f 33/5/1 34/6/1 35/7/1 36/8/1
f 37/29/1 38/30/1 39/31/1 40/32/1
f 41/33/1 42/34/1 43/35/1 44/36/1
f 45/37/1 46/38/1 47/39/1 48/40/1
f 49/41/1 50/42/1 51/43/1 52/44/1
f 53/9/1 54/10/1 55/11/1 56/12/1
f 57/13/1 58/14/1 59/15/1 60/16/1
f 61/17/1 62/18/1 63/19/1 64/20/1
f 65/9/1 66/10/1 67/11/1 68/12/1
f 69/13/1 70/14/1 71/15/1 72/16/1
f 73/17/1 74/18/1 75/19/1 76/20/1
f 77/21/1 78/22/1 79/23/1 80/24/1
f 81/9/1 82/10/1 83/11/1 84/12/1
f 85/13/1 86/14/1 87/15/1 88/16/1
f 89/17/1 90/18/1 91/19/1 92/20/1
f 93/21/1 94/22/1 95/23/1 96/24/1
f 97/9/1 98/10/1 99/11/1 100/12/1
f 101/13/1 102/14/1 103/15/1 104/16/1
f 105/17/1 106/18/1 107/19/1 108/20/1
f 109/21/1 110/22/1 111/23/1 112/24/1
f 113/33/1 114/34/1 115/35/1 116/36/1
f 117/37/1 118/38/1 119/39/1 120/40/1
f 121/41/1 122/42/1 123/43/1 124/44/1
f 125/13/1 126/14/1 127/15/1 128/16/1
f 129/17/1 130/18/1 131/19/1 132/20/1
f 133/21/1 134/22/1 135/23/1 136/24/1
f 137/45/1 138/46/1 139/47/1 140/48/1
f 141/25/1 142/26/1 143/27/1 144/28/1
f 145/1/1 146/2/1 147/3/1 148/4/1
f 149/5/1 150/6/1 151/7/1 152/8/1
f 153/17/1 154/18/1 155/19/1 156/20/1
f 157/21/1 158/22/1 159/23/1 160/24/1
f 161/49/1 162/50/1 163/51/1 164/52/1
f 165/53/1 166/54/1 167/55/1 168/56/1
f 169/57/1 170/58/1 171/59/1 172/60/1
f 173/61/1 174/62/1 175/63/1 176/64/1
f 177/9/1 178/10/1 179/11/1 180/12/1
f 181/13/1 182/14/1 183/15/1 184/16/1
f 185/17/1 186/18/1 187/19/1 188/20/1
f 189/21/1 190/22/1 191/23/1 192/24/1
f 193/45/1 194/46/1 195/47/1 196/48/1
f 197/25/1 198/26/1 199/27/1 200/28/1
f 201/1/1 202/2/1 203/3/1 204/4/1
f 205/5/1 206/6/1 207/7/1 208/8/1
f 209/45/1 210/46/1 211/47/1 212/48/1
f 213/25/1 214/26/1 215/27/1 216/28/1
f 217/1/1 218/2/1 219/3/1 220/4/1
f 221/5/1 222/6/1 223/7/1 224/8/1
f 225/9/1 226/10/1 227/11/1 228/12/1
f 229/13/1 230/14/1 231/15/1 232/16/1
f 233/17/1 234/18/1 235/19/1 236/20/1
f 237/21/1 238/22/1 239/23/1 240/24/1
f 241/29/1 242/30/1 243/31/1 244/32/1
f 245/65/1 246/66/1 247/67/1 248/68/1
f 249/69/1 250/70/1 251/71/1 252/72/1
f 253/73/1 254/74/1 255/75/1 256/76/1
f 257/77/1 258/78/1 259/79/1 260/80/1
f 261/9/1 262/10/1 263/11/1 264/12/1
f 265/13/1 266/14/1 267/15/1 268/16/1
f 269/17/1 270/18/1 271/19/1 272/20/1
f 273/21/1 274/22/1 275/23/1 276/24/1
f 277/9/1 278/10/1 279/11/1 280/12/1
f 281/13/1 282/14/1 283/15/1 284/16/1
f 285/17/1 286/18/1 287/19/1 288/20/1
f 289/21/1 290/22/1 291/23/1 292/24/1
f 293/45/1 294/46/1 295/47/1 296/48/1
f 297/81/1 298/82/1 299/83/1 300/84/1
f 301/85/1 302/86/1 303/87/1 304/88/1
f 305/89/1 306/90/1 307/91/1 308/92/1
f 309/93/1 310/94/1 311/95/1 312/96/1
f 313/29/1 314/30/1 315/31/1 316/32/1
f 317/33/1 318/34/1 319/35/1 320/36/1
f 321/37/1 322/38/1 323/39/1 324/40/1
f 325/41/1 326/42/1 327/43/1 328/44/1
f 329/97/1 330/98/1 331/99/1 332/100/1
f 333/101/1 334/102/1 335/103/1 336/104/1
f 337/9/1 338/10/1 339/11/1 340/12/1
f 341/45/1 342/46/1 343/47/1 344/48/1
f 345/25/1 346/26/1 347/27/1 348/28/1
f 349/1/1 350/2/1 351/3/1 352/4/1
f 353/5/1 354/6/1 355/7/1 356/8/1
f 357/105/1 358/106/1 359/107/1 360/108/1
f 361/109/1 362/110/1 363/111/1 364/112/1
f 365/9/1 366/10/1 367/11/1 368/12/1
f 369/13/1 370/14/1 371/15/1 372/16/1
f 373/17/1 374/18/1 375/19/1 376/20/1
f 377/21/1 378/22/1 379/23/1 380/24/1
f 381/49/1 382/50/1 383/51/1 384/52/1
f 385/53/1 386/54/1 387/55/1 388/56/1
f 389/57/1 390/58/1 391/59/1 392/60/1
f 393/61/1 394/62/1 395/63/1 396/64/1
f 397/65/1 398/66/1 399/67/1 400/68/1
f 401/69/1 402/70/1 403/71/1 404/72/1
f 405/73/1 406/74/1 407/75/1 408/76/1
f 409/77/1 410/78/1 411/79/1 412/80/1
f 413/81/1 414/82/1 415/83/1 416/84/1
f 417/85/1 418/86/1 419/87/1 420/88/1
f 421/89/1 422/90/1 423/91/1 424/92/1
f 425/93/1 426/94/1 427/95/1 428/96/1
f 429/29/1 430/30/1 431/31/1 432/32/1
f 433/33/1 434/34/1 435/35/1 436/36/1
f 437/37/1 438/38/1 439/39/1 440/40/1
f 441/41/1 442/42/1 443/43/1 444/44/1
f 445/45/1 446/46/1 447/47/1 448/48/1
f 449/25/1 450/26/1 451/27/1 452/28/1
f 453/1/1 454/2/1 455/3/1 456/4/1
f 457/5/1 458/6/1 459/7/1 460/8/1
f 461/9/1 462/10/1 463/11/1 464/12/1
f 465/13/1 466/14/1 467/15/1 468/16/1
f 469/17/1 470/18/1 471/19/1 472/20/1
f 473/21/1 474/22/1 475/23/1 476/24/1
f 477/97/1 478/98/1 479/99/1 480/100/1
f 481/101/1 482/102/1 483/103/1 484/104/1
f 485/105/1 486/106/1 487/107/1 488/108/1
f 489/109/1 490/110/1 491/111/1 492/112/1
f 493/49/1 494/50/1 495/51/1 496/52/1
f 497/53/1 498/54/1 499/55/1 500/56/1
f 501/57/1 502/58/1 503/59/1 504/60/1
f 505/61/1 506/62/1 507/63/1 508/64/1
f 509/65/1 510/66/1 511/67/1 512/68/1
f 513/69/1 514/70/1 515/71/1 516/72/1
f 517/73/1 518/74/1 519/75/1 520/76/1
f 521/77/1 522/78/1 523/79/1 524/80/1
f 525/49/1 526/50/1 527/51/1 528/52/1
f 529/53/1 530/54/1 531/55/1 532/56/1
f 533/57/1 534/58/1 535/59/1 536/60/1
f 537/61/1 538/62/1 539/63/1 540/64/1
f 541/81/1 542/82/1 543/83/1 544/84/1
f 545/85/1 546/86/1 547/87/1 548/88/1
f 549/89/1 550/90/1 551/91/1 552/92/1
f 553/93/1 554/94/1 555/95/1 556/96/1
f 557/65/1 558/66/1 559/67/1 560/68/1
f 561/69/1 562/70/1 563/71/1 564/72/1
f 565/73/1 566/74/1 567/75/1 568/76/1
f 569/77/1 570/78/1 571/79/1 572/80/1
f 573/81/1 574/82/1 575/83/1 576/84/1
f 577/85/1 578/86/1 579/87/1 580/88/1
f 581/89/1 582/90/1 583/91/1 584/92/1
f 585/93/1 586/94/1 587/95/1 588/96/1
f 589/29/1 590/30/1 591/31/1 592/32/1
f 593/33/1 594/34/1 595/35/1 596/36/1
f 597/37/1 598/38/1 599/39/1 600/40/1
f 601/41/1 602/42/1 603/43/1 604/44/1
f 605/113/1 606/114/1 607/115/1 608/116/1
f 609/117/1 610/118/1 611/119/1 612/120/1
f 613/45/1 614/46/1 615/47/1 616/48/1
f 617/25/1 618/26/1 619/27/1 620/28/1
f 621/1/1 622/2/1 623/3/1 624/4/1
f 625/5/1 626/6/1 627/7/1 628/8/1
f 629/9/1 630/10/1 631/11/1 632/12/1
f 633/13/1 634/14/1 635/15/1 636/16/1
f 637/17/1 638/18/1 639/19/1 640/20/1
f 641/21/1 642/22/1 643/23/1 644/24/1
f 645/29/1 646/30/1 647/31/1 648/32/1
f 649/33/1 650/34/1 651/35/1 652/36/1
f 653/37/1 654/38/1 655/39/1 656/40/1
f 657/41/1 658/42/1 659/43/1 660/44/1
f 661/97/1 662/98/1 663/99/1 664/100/1
f 665/101/1 666/102/1 667/103/1 668/104/1
f 669/45/1 670/46/1 671/47/1 672/48/1
f 673/25/1 674/26/1 675/27/1 676/28/1
f 677/1/1 678/2/1 679/3/1 680/4/1
f 681/5/1 682/6/1 683/7/1 684/8/1
f 685/105/1 686/106/1 687/107/1 688/108/1
f 689/109/1 690/110/1 691/111/1 692/112/1
f 693/9/1 694/10/1 695/11/1 696/12/1
f 697/13/1 698/14/1 699/15/1 700/16/1
f 701/17/1 702/18/1 703/19/1 704/20/1
f 705/21/1 706/22/1 707/23/1 708/24/1
f 709/97/1 710/98/1 711/99/1 712/100/1
f 713/101/1 714/102/1 715/103/1 716/104/1
f 717/105/1 718/106/1 719/107/1 720/108/1
f 721/109/1 722/110/1 723/111/1 724/112/1
f 725/97/1 726/98/1 727/99/1 728/100/1
f 729/101/1 730/102/1 731/103/1 732/104/1
f 733/105/1 734/106/1 735/107/1 736/108/1
f 737/109/1 738/110/1 739/111/1 740/112/1
f 741/29/1 742/30/1 743/31/1 744/32/1
f 745/33/1 746/34/1 747/35/1 748/36/1
f 749/37/1 750/38/1 751/39/1 752/40/1
f 753/41/1 754/42/1 755/43/1 756/44/1
f 757/45/1 758/46/1 759/47/1 760/48/1
f 761/25/1 762/26/1 763/27/1 764/28/1
f 765/1/1 766/2/1 767/3/1 768/4/1
f 769/5/1 770/6/1 771/7/1 772/8/1
f 773/9/1 774/10/1 775/11/1 776/12/1
f 777/13/1 778/14/1 779/15/1 780/16/1
f 781/17/1 782/18/1 783/19/1 784/20/1
f 785/21/1 786/22/1 787/23/1 788/24/1
f 789/29/1 790/30/1 791/31/1 792/32/1
f 793/33/1 794/34/1 795/35/1 796/36/1
f 797/37/1 798/38/1 799/39/1 800/40/1
f 801/41/1 802/42/1 803/43/1 804/44/1
f 805/49/1 806/50/1 807/51/1 808/52/1
f 809/53/1 810/54/1 811/55/1 812/56/1
f 813/57/1 814/58/1 815/59/1 816/60/1
f 817/61/1 818/62/1 819/63/1 820/64/1
f 821/45/1 822/46/1 823/47/1 824/48/1
f 825/25/1 826/26/1 827/27/1 828/28/1
f 829/1/1 830/2/1 831/3/1 832/4/1
f 833/5/1 834/6/1 835/7/1 836/8/1
f 837/65/1 838/66/1 839/67/1 840/68/1
f 841/69/1 842/70/1 843/71/1 844/72/1
f 845/73/1 846/74/1 847/75/1 848/76/1
f 849/77/1 850/78/1 851/79/1 852/80/1
f 853/9/1 854/10/1 855/11/1 856/12/1
f 857/13/1 858/14/1 859/15/1 860/16/1
f 861/17/1 862/18/1 863/19/1 864/20/1
f 865/21/1 866/22/1 867/23/1 868/24/1
f 869/81/1 870/82/1 871/83/1 872/84/1
f 873/85/1 874/86/1 875/87/1 876/88/1
f 877/89/1 878/90/1 879/91/1 880/92/1
f 881/93/1 882/94/1 883/95/1 884/96/1
f 885/29/1 886/30/1 887/31/1 888/32/1
f 889/33/1 890/34/1 891/35/1 892/36/1
f 893/37/1 894/38/1 895/39/1 896/40/1
f 897/41/1 898/42/1 899/43/1 900/44/1
f 901/45/1 902/46/1 903/47/1 904/48/1
f 905/25/1 906/26/1 907/27/1 908/28/1
f 909/1/1 910/2/1 911/3/1 912/4/1
f 913/5/1 914/6/1 915/7/1 916/8/1
f 917/9/1 918/10/1 919/11/1 920/12/1
f 921/13/1 922/14/1 923/15/1 924/16/1
f 925/17/1 926/18/1 927/19/1 928/20/1
f 929/21/1 930/22/1 931/23/1 932/24/1
f 933/49/1 934/50/1 935/51/1 936/52/1
f 937/53/1 938/54/1 939/55/1 940/56/1
f 941/57/1 942/58/1 943/59/1 944/60/1
f 945/61/1 946/62/1 947/63/1 948/64/1
f 949/49/1 950/50/1 951/51/1 952/52/1
f 953/53/1 954/54/1 955/55/1 956/56/1
f 957/57/1 958/58/1 959/59/1 960/60/1
f 961/61/1 962/62/1 963/63/1 964/64/1
f 965/65/1 966/66/1 967/67/1 968/68/1
f 969/69/1 970/70/1 971/71/1 972/72/1
f 973/73/1 974/74/1 975/75/1 976/76/1
f 977/77/1 978/78/1 979/79/1 980/80/1
f 981/65/1 982/66/1 983/67/1 984/68/1
f 985/69/1 986/70/1 987/71/1 988/72/1
f 989/73/1 990/74/1 991/75/1 992/76/1
f 993/77/1 994/78/1 995/79/1 996/80/1
f 997/81/1 998/82/1 999/83/1 1000/84/1
f 1001/85/1 1002/86/1 1003/87/1 1004/88/1
f 1005/89/1 1006/90/1 1007/91/1 1008/92/1
f 1009/93/1 1010/94/1 1011/95/1 1012/96/1
f 1013/81/1 1014/82/1 1015/83/1 1016/84/1
f 1017/85/1 1018/86/1 1019/87/1 1020/88/1
f 1021/89/1 1022/90/1 1023/91/1 1024/92/1
f 1025/93/1 1026/94/1 1027/95/1 1028/96/1

