# Tiled2Unity generated file. Do not modify by hand.
# Wavefront file for 'Dotties_mesh_0005.obj'

# Vertices (Count = 920)
v -54 -1 0
v -55 -1 0
v -55 0 0
v -54 0 0
v -53 -1 0
v -54 -1 0
v -54 0 0
v -53 0 0
v -52 -1 0
v -53 -1 0
v -53 0 0
v -52 0 0
v -51 -1 0
v -52 -1 0
v -52 0 0
v -51 0 0
v -50 -1 0
v -51 -1 0
v -51 0 0
v -50 0 0
v 0 -1 0
v -1 -1 0
v -1 0 0
v 0 0 0
v -59 -3 0
v -60 -3 0
v -60 -2 0
v -59 -2 0
v -49 -3 0
v -50 -3 0
v -50 -2 0
v -49 -2 0
v -48 -3 0
v -49 -3 0
v -49 -2 0
v -48 -2 0
v -59 -4 0
v -60 -4 0
v -60 -3 0
v -59 -3 0
v -49 -4 0
v -50 -4 0
v -50 -3 0
v -49 -3 0
v -48 -4 0
v -49 -4 0
v -49 -3 0
v -48 -3 0
v -59 -5 0
v -60 -5 0
v -60 -4 0
v -59 -4 0
v 0 -5 0
v -1 -5 0
v -1 -4 0
v 0 -4 0
v -59 -6 0
v -60 -6 0
v -60 -5 0
v -59 -5 0
v 0 -6 0
v -1 -6 0
v -1 -5 0
v 0 -5 0
v -59 -7 0
v -60 -7 0
v -60 -6 0
v -59 -6 0
v 0 -7 0
v -1 -7 0
v -1 -6 0
v 0 -6 0
v -59 -8 0
v -60 -8 0
v -60 -7 0
v -59 -7 0
v 0 -8 0
v -1 -8 0
v -1 -7 0
v 0 -7 0
v -59 -9 0
v -60 -9 0
v -60 -8 0
v -59 -8 0
v -53 -9 0
v -54 -9 0
v -54 -8 0
v -53 -8 0
v -52 -9 0
v -53 -9 0
v -53 -8 0
v -52 -8 0
v -51 -9 0
v -52 -9 0
v -52 -8 0
v -51 -8 0
v -50 -9 0
v -51 -9 0
v -51 -8 0
v -50 -8 0
v -49 -9 0
v -50 -9 0
v -50 -8 0
v -49 -8 0
v -48 -9 0
v -49 -9 0
v -49 -8 0
v -48 -8 0
v -47 -9 0
v -48 -9 0
v -48 -8 0
v -47 -8 0
v -46 -9 0
v -47 -9 0
v -47 -8 0
v -46 -8 0
v 0 -9 0
v -1 -9 0
v -1 -8 0
v 0 -8 0
v -59 -10 0
v -60 -10 0
v -60 -9 0
v -59 -9 0
v -58 -10 0
v -59 -10 0
v -59 -9 0
v -58 -9 0
v 0 -10 0
v -1 -10 0
v -1 -9 0
v 0 -9 0
v -59 -11 0
v -60 -11 0
v -60 -10 0
v -59 -10 0
v -58 -11 0
v -59 -11 0
v -59 -10 0
v -58 -10 0
v -36 -11 0
v -37 -11 0
v -37 -10 0
v -36 -10 0
v -35 -11 0
v -36 -11 0
v -36 -10 0
v -35 -10 0
v 0 -11 0
v -1 -11 0
v -1 -10 0
v 0 -10 0
v -59 -12 0
v -60 -12 0
v -60 -11 0
v -59 -11 0
v -58 -12 0
v -59 -12 0
v -59 -11 0
v -58 -11 0
v -36 -12 0
v -37 -12 0
v -37 -11 0
v -36 -11 0
v -35 -12 0
v -36 -12 0
v -36 -11 0
v -35 -11 0
v 0 -12 0
v -1 -12 0
v -1 -11 0
v 0 -11 0
v -59 -13 0
v -60 -13 0
v -60 -12 0
v -59 -12 0
v -58 -13 0
v -59 -13 0
v -59 -12 0
v -58 -12 0
v 0 -13 0
v -1 -13 0
v -1 -12 0
v 0 -12 0
v -59 -14 0
v -60 -14 0
v -60 -13 0
v -59 -13 0
v -58 -14 0
v -59 -14 0
v -59 -13 0
v -58 -13 0
v 0 -14 0
v -1 -14 0
v -1 -13 0
v 0 -13 0
v -59 -15 0
v -60 -15 0
v -60 -14 0
v -59 -14 0
v -58 -15 0
v -59 -15 0
v -59 -14 0
v -58 -14 0
v 0 -15 0
v -1 -15 0
v -1 -14 0
v 0 -14 0
v -59 -16 0
v -60 -16 0
v -60 -15 0
v -59 -15 0
v -58 -16 0
v -59 -16 0
v -59 -15 0
v -58 -15 0
v 0 -16 0
v -1 -16 0
v -1 -15 0
v 0 -15 0
v -59 -17 0
v -60 -17 0
v -60 -16 0
v -59 -16 0
v -58 -17 0
v -59 -17 0
v -59 -16 0
v -58 -16 0
v 0 -17 0
v -1 -17 0
v -1 -16 0
v 0 -16 0
v -59 -18 0
v -60 -18 0
v -60 -17 0
v -59 -17 0
v -58 -18 0
v -59 -18 0
v -59 -17 0
v -58 -17 0
v -48 -18 0
v -49 -18 0
v -49 -17 0
v -48 -17 0
v 0 -18 0
v -1 -18 0
v -1 -17 0
v 0 -17 0
v -59 -19 0
v -60 -19 0
v -60 -18 0
v -59 -18 0
v -54 -19 0
v -55 -19 0
v -55 -18 0
v -54 -18 0
v -53 -19 0
v -54 -19 0
v -54 -18 0
v -53 -18 0
v -48 -19 0
v -49 -19 0
v -49 -18 0
v -48 -18 0
v 0 -19 0
v -1 -19 0
v -1 -18 0
v 0 -18 0
v -59 -20 0
v -60 -20 0
v -60 -19 0
v -59 -19 0
v -54 -20 0
v -55 -20 0
v -55 -19 0
v -54 -19 0
v -53 -20 0
v -54 -20 0
v -54 -19 0
v -53 -19 0
v 0 -20 0
v -1 -20 0
v -1 -19 0
v 0 -19 0
v -59 -21 0
v -60 -21 0
v -60 -20 0
v -59 -20 0
v 0 -21 0
v -1 -21 0
v -1 -20 0
v 0 -20 0
v -59 -22 0
v -60 -22 0
v -60 -21 0
v -59 -21 0
v 0 -22 0
v -1 -22 0
v -1 -21 0
v 0 -21 0
v -59 -23 0
v -60 -23 0
v -60 -22 0
v -59 -22 0
v -49 -23 0
v -50 -23 0
v -50 -22 0
v -49 -22 0
v -48 -23 0
v -49 -23 0
v -49 -22 0
v -48 -22 0
v -45 -23 0
v -46 -23 0
v -46 -22 0
v -45 -22 0
v -43 -23 0
v -44 -23 0
v -44 -22 0
v -43 -22 0
v -1 -23 0
v -2 -23 0
v -2 -22 0
v -1 -22 0
v 0 -23 0
v -1 -23 0
v -1 -22 0
v 0 -22 0
v -59 -24 0
v -60 -24 0
v -60 -23 0
v -59 -23 0
v -49 -24 0
v -50 -24 0
v -50 -23 0
v -49 -23 0
v -48 -24 0
v -49 -24 0
v -49 -23 0
v -48 -23 0
v -1 -24 0
v -2 -24 0
v -2 -23 0
v -1 -23 0
v 0 -24 0
v -1 -24 0
v -1 -23 0
v 0 -23 0
v -59 -25 0
v -60 -25 0
v -60 -24 0
v -59 -24 0
v -1 -25 0
v -2 -25 0
v -2 -24 0
v -1 -24 0
v 0 -25 0
v -1 -25 0
v -1 -24 0
v 0 -24 0
v -59 -26 0
v -60 -26 0
v -60 -25 0
v -59 -25 0
v -44 -26 0
v -45 -26 0
v -45 -25 0
v -44 -25 0
v -43 -26 0
v -44 -26 0
v -44 -25 0
v -43 -25 0
v -42 -26 0
v -43 -26 0
v -43 -25 0
v -42 -25 0
v -1 -26 0
v -2 -26 0
v -2 -25 0
v -1 -25 0
v 0 -26 0
v -1 -26 0
v -1 -25 0
v 0 -25 0
v -59 -27 0
v -60 -27 0
v -60 -26 0
v -59 -26 0
v -45 -27 0
v -46 -27 0
v -46 -26 0
v -45 -26 0
v -44 -27 0
v -45 -27 0
v -45 -26 0
v -44 -26 0
v -43 -27 0
v -44 -27 0
v -44 -26 0
v -43 -26 0
v -42 -27 0
v -43 -27 0
v -43 -26 0
v -42 -26 0
v -1 -27 0
v -2 -27 0
v -2 -26 0
v -1 -26 0
v 0 -27 0
v -1 -27 0
v -1 -26 0
v 0 -26 0
v -59 -28 0
v -60 -28 0
v -60 -27 0
v -59 -27 0
v -1 -28 0
v -2 -28 0
v -2 -27 0
v -1 -27 0
v 0 -28 0
v -1 -28 0
v -1 -27 0
v 0 -27 0
v -59 -29 0
v -60 -29 0
v -60 -28 0
v -59 -28 0
v -1 -29 0
v -2 -29 0
v -2 -28 0
v -1 -28 0
v 0 -29 0
v -1 -29 0
v -1 -28 0
v 0 -28 0
v -59 -30 0
v -60 -30 0
v -60 -29 0
v -59 -29 0
v -1 -30 0
v -2 -30 0
v -2 -29 0
v -1 -29 0
v 0 -30 0
v -1 -30 0
v -1 -29 0
v 0 -29 0
v -59 -31 0
v -60 -31 0
v -60 -30 0
v -59 -30 0
v -30 -31 0
v -31 -31 0
v -31 -30 0
v -30 -30 0
v -1 -31 0
v -2 -31 0
v -2 -30 0
v -1 -30 0
v 0 -31 0
v -1 -31 0
v -1 -30 0
v 0 -30 0
v -59 -32 0
v -60 -32 0
v -60 -31 0
v -59 -31 0
v -1 -32 0
v -2 -32 0
v -2 -31 0
v -1 -31 0
v 0 -32 0
v -1 -32 0
v -1 -31 0
v 0 -31 0
v -59 -33 0
v -60 -33 0
v -60 -32 0
v -59 -32 0
v -1 -33 0
v -2 -33 0
v -2 -32 0
v -1 -32 0
v 0 -33 0
v -1 -33 0
v -1 -32 0
v 0 -32 0
v -59 -34 0
v -60 -34 0
v -60 -33 0
v -59 -33 0
v -1 -34 0
v -2 -34 0
v -2 -33 0
v -1 -33 0
v 0 -34 0
v -1 -34 0
v -1 -33 0
v 0 -33 0
v -59 -35 0
v -60 -35 0
v -60 -34 0
v -59 -34 0
v 0 -35 0
v -1 -35 0
v -1 -34 0
v 0 -34 0
v -59 -36 0
v -60 -36 0
v -60 -35 0
v -59 -35 0
v 0 -36 0
v -1 -36 0
v -1 -35 0
v 0 -35 0
v -59 -37 0
v -60 -37 0
v -60 -36 0
v -59 -36 0
v 0 -37 0
v -1 -37 0
v -1 -36 0
v 0 -36 0
v -59 -38 0
v -60 -38 0
v -60 -37 0
v -59 -37 0
v 0 -38 0
v -1 -38 0
v -1 -37 0
v 0 -37 0
v -59 -39 0
v -60 -39 0
v -60 -38 0
v -59 -38 0
v 0 -39 0
v -1 -39 0
v -1 -38 0
v 0 -38 0
v -59 -40 0
v -60 -40 0
v -60 -39 0
v -59 -39 0
v -58 -40 0
v -59 -40 0
v -59 -39 0
v -58 -39 0
v 0 -40 0
v -1 -40 0
v -1 -39 0
v 0 -39 0
v -59 -41 0
v -60 -41 0
v -60 -40 0
v -59 -40 0
v -58 -41 0
v -59 -41 0
v -59 -40 0
v -58 -40 0
v -1 -41 0
v -2 -41 0
v -2 -40 0
v -1 -40 0
v 0 -41 0
v -1 -41 0
v -1 -40 0
v 0 -40 0
v -59 -42 0
v -60 -42 0
v -60 -41 0
v -59 -41 0
v -58 -42 0
v -59 -42 0
v -59 -41 0
v -58 -41 0
v -1 -42 0
v -2 -42 0
v -2 -41 0
v -1 -41 0
v 0 -42 0
v -1 -42 0
v -1 -41 0
v 0 -41 0
v -59 -43 0
v -60 -43 0
v -60 -42 0
v -59 -42 0
v -1 -43 0
v -2 -43 0
v -2 -42 0
v -1 -42 0
v 0 -43 0
v -1 -43 0
v -1 -42 0
v 0 -42 0
v -59 -44 0
v -60 -44 0
v -60 -43 0
v -59 -43 0
v 0 -44 0
v -1 -44 0
v -1 -43 0
v 0 -43 0
v -59 -45 0
v -60 -45 0
v -60 -44 0
v -59 -44 0
v 0 -45 0
v -1 -45 0
v -1 -44 0
v 0 -44 0
v -59 -46 0
v -60 -46 0
v -60 -45 0
v -59 -45 0
v 0 -46 0
v -1 -46 0
v -1 -45 0
v 0 -45 0
v -59 -47 0
v -60 -47 0
v -60 -46 0
v -59 -46 0
v 0 -47 0
v -1 -47 0
v -1 -46 0
v 0 -46 0
v -59 -48 0
v -60 -48 0
v -60 -47 0
v -59 -47 0
v 0 -48 0
v -1 -48 0
v -1 -47 0
v 0 -47 0
v -59 -49 0
v -60 -49 0
v -60 -48 0
v -59 -48 0
v 0 -49 0
v -1 -49 0
v -1 -48 0
v 0 -48 0
v -59 -50 0
v -60 -50 0
v -60 -49 0
v -59 -49 0
v -58 -50 0
v -59 -50 0
v -59 -49 0
v -58 -49 0
v 0 -50 0
v -1 -50 0
v -1 -49 0
v 0 -49 0
v -59 -51 0
v -60 -51 0
v -60 -50 0
v -59 -50 0
v -58 -51 0
v -59 -51 0
v -59 -50 0
v -58 -50 0
v 0 -51 0
v -1 -51 0
v -1 -50 0
v 0 -50 0
v -59 -52 0
v -60 -52 0
v -60 -51 0
v -59 -51 0
v -58 -52 0
v -59 -52 0
v -59 -51 0
v -58 -51 0
v 0 -52 0
v -1 -52 0
v -1 -51 0
v 0 -51 0
v -59 -53 0
v -60 -53 0
v -60 -52 0
v -59 -52 0
v 0 -53 0
v -1 -53 0
v -1 -52 0
v 0 -52 0
v -59 -54 0
v -60 -54 0
v -60 -53 0
v -59 -53 0
v 0 -54 0
v -1 -54 0
v -1 -53 0
v 0 -53 0
v -59 -55 0
v -60 -55 0
v -60 -54 0
v -59 -54 0
v 0 -55 0
v -1 -55 0
v -1 -54 0
v 0 -54 0
v 0 -56 0
v -1 -56 0
v -1 -55 0
v 0 -55 0
v -59 -60 0
v -60 -60 0
v -60 -59 0
v -59 -59 0
v -58 -60 0
v -59 -60 0
v -59 -59 0
v -58 -59 0
v -57 -60 0
v -58 -60 0
v -58 -59 0
v -57 -59 0
v -56 -60 0
v -57 -60 0
v -57 -59 0
v -56 -59 0
v -55 -60 0
v -56 -60 0
v -56 -59 0
v -55 -59 0
v -54 -60 0
v -55 -60 0
v -55 -59 0
v -54 -59 0
v -53 -60 0
v -54 -60 0
v -54 -59 0
v -53 -59 0
v -52 -60 0
v -53 -60 0
v -53 -59 0
v -52 -59 0
v -51 -60 0
v -52 -60 0
v -52 -59 0
v -51 -59 0
v -50 -60 0
v -51 -60 0
v -51 -59 0
v -50 -59 0
v -49 -60 0
v -50 -60 0
v -50 -59 0
v -49 -59 0
v -48 -60 0
v -49 -60 0
v -49 -59 0
v -48 -59 0
v -47 -60 0
v -48 -60 0
v -48 -59 0
v -47 -59 0
v -46 -60 0
v -47 -60 0
v -47 -59 0
v -46 -59 0
v -45 -60 0
v -46 -60 0
v -46 -59 0
v -45 -59 0
v -42 -60 0
v -43 -60 0
v -43 -59 0
v -42 -59 0
v -41 -60 0
v -42 -60 0
v -42 -59 0
v -41 -59 0
v -40 -60 0
v -41 -60 0
v -41 -59 0
v -40 -59 0
v -39 -60 0
v -40 -60 0
v -40 -59 0
v -39 -59 0
v -38 -60 0
v -39 -60 0
v -39 -59 0
v -38 -59 0
v -37 -60 0
v -38 -60 0
v -38 -59 0
v -37 -59 0
v -36 -60 0
v -37 -60 0
v -37 -59 0
v -36 -59 0
v -35 -60 0
v -36 -60 0
v -36 -59 0
v -35 -59 0
v -34 -60 0
v -35 -60 0
v -35 -59 0
v -34 -59 0
v -33 -60 0
v -34 -60 0
v -34 -59 0
v -33 -59 0
v -32 -60 0
v -33 -60 0
v -33 -59 0
v -32 -59 0
v -31 -60 0
v -32 -60 0
v -32 -59 0
v -31 -59 0
v -30 -60 0
v -31 -60 0
v -31 -59 0
v -30 -59 0
v -29 -60 0
v -30 -60 0
v -30 -59 0
v -29 -59 0
v -28 -60 0
v -29 -60 0
v -29 -59 0
v -28 -59 0
v -27 -60 0
v -28 -60 0
v -28 -59 0
v -27 -59 0
v -26 -60 0
v -27 -60 0
v -27 -59 0
v -26 -59 0
v -25 -60 0
v -26 -60 0
v -26 -59 0
v -25 -59 0
v -24 -60 0
v -25 -60 0
v -25 -59 0
v -24 -59 0
v -23 -60 0
v -24 -60 0
v -24 -59 0
v -23 -59 0
v -22 -60 0
v -23 -60 0
v -23 -59 0
v -22 -59 0
v -19 -60 0
v -20 -60 0
v -20 -59 0
v -19 -59 0
v -18 -60 0
v -19 -60 0
v -19 -59 0
v -18 -59 0
v -17 -60 0
v -18 -60 0
v -18 -59 0
v -17 -59 0
v -16 -60 0
v -17 -60 0
v -17 -59 0
v -16 -59 0
v -15 -60 0
v -16 -60 0
v -16 -59 0
v -15 -59 0
v -14 -60 0
v -15 -60 0
v -15 -59 0
v -14 -59 0
v -13 -60 0
v -14 -60 0
v -14 -59 0
v -13 -59 0
v -12 -60 0
v -13 -60 0
v -13 -59 0
v -12 -59 0
v -11 -60 0
v -12 -60 0
v -12 -59 0
v -11 -59 0
v -10 -60 0
v -11 -60 0
v -11 -59 0
v -10 -59 0
v -9 -60 0
v -10 -60 0
v -10 -59 0
v -9 -59 0
v -8 -60 0
v -9 -60 0
v -9 -59 0
v -8 -59 0
v -7 -60 0
v -8 -60 0
v -8 -59 0
v -7 -59 0
v -6 -60 0
v -7 -60 0
v -7 -59 0
v -6 -59 0
v -5 -60 0
v -6 -60 0
v -6 -59 0
v -5 -59 0
v -4 -60 0
v -5 -60 0
v -5 -59 0
v -4 -59 0
v 0 -60 0
v -1 -60 0
v -1 -59 0
v 0 -59 0

# Texture cooridinates (Count = 112)
vt 0.04173455 0.5834554
vt 0.06229666 0.5834554
vt 0.06229666 0.610989
vt 0.04173455 0.610989
vt 0.1041533 0.9445665
vt 0.1247154 0.9445665
vt 0.1247154 0.9721001
vt 0.1041533 0.9721001
vt 0.08334704 0.9445665
vt 0.1039091 0.9445665
vt 0.1039091 0.9721001
vt 0.08334704 0.9721001
vt 0.1041533 0.9167888
vt 0.1247154 0.9167888
vt 0.1247154 0.9443223
vt 0.1041533 0.9443223
vt 0.08334704 0.9167888
vt 0.1039091 0.9167888
vt 0.1039091 0.9443223
vt 0.08334704 0.9443223
vt 0.166572 0.9723443
vt 0.1871341 0.9723443
vt 0.1871341 0.9998779
vt 0.166572 0.9998779
vt 0.1873782 0.9723443
vt 0.2079404 0.9723443
vt 0.2079404 0.9998779
vt 0.1873782 0.9998779
vt 0.02092831 0.5278999
vt 0.04149041 0.5278999
vt 0.04149041 0.5554335
vt 0.02092831 0.5554335
vt 0.04173455 0.6112332
vt 0.06229666 0.6112332
vt 0.06229666 0.6387668
vt 0.04173455 0.6387668
vt 0.0001220703 0.5278999
vt 0.02068417 0.5278999
vt 0.02068417 0.5554335
vt 0.0001220703 0.5554335
vt 0.0001220703 0.5834554
vt 0.02068417 0.5834554
vt 0.02068417 0.610989
vt 0.0001220703 0.610989
vt 0.02092831 0.5834554
vt 0.04149041 0.5834554
vt 0.04149041 0.610989
vt 0.02092831 0.610989
vt 0.0001220703 0.5556777
vt 0.02068417 0.5556777
vt 0.02068417 0.5832113
vt 0.0001220703 0.5832113
vt 0.769953 0.9723443
vt 0.7905151 0.9723443
vt 0.7905151 0.9998779
vt 0.769953 0.9998779
vt 0.1249595 0.9723443
vt 0.1455216 0.9723443
vt 0.1455216 0.9998779
vt 0.1249595 0.9998779
vt 0.6659218 0.889011
vt 0.6864839 0.889011
vt 0.6864839 0.9165446
vt 0.6659218 0.9165446
vt 0.6451156 0.889011
vt 0.6656777 0.889011
vt 0.6656777 0.9165446
vt 0.6451156 0.9165446
vt 0.5826969 0.0001220703
vt 0.603259 0.0001220703
vt 0.603259 0.02765572
vt 0.5826969 0.02765572
vt 0.6659218 0.8612332
vt 0.6864839 0.8612332
vt 0.6864839 0.8887668
vt 0.6659218 0.8887668
vt 0.6451156 0.8612332
vt 0.6656777 0.8612332
vt 0.6656777 0.8887668
vt 0.6451156 0.8887668
vt 0.9572092 0.139011
vt 0.9777713 0.139011
vt 0.9777713 0.1665446
vt 0.9572092 0.1665446
vt 0.9155967 0.139011
vt 0.9361588 0.139011
vt 0.9361588 0.1665446
vt 0.9155967 0.1665446
vt 0.936403 0.139011
vt 0.956965 0.139011
vt 0.956965 0.1665446
vt 0.936403 0.1665446
vt 0.6659218 0.1667888
vt 0.6864839 0.1667888
vt 0.6864839 0.1943223
vt 0.6659218 0.1943223
vt 0.9572092 0.1112332
vt 0.9777713 0.1112332
vt 0.9777713 0.1387668
vt 0.9572092 0.1387668
vt 0.936403 0.1112332
vt 0.956965 0.1112332
vt 0.956965 0.1387668
vt 0.936403 0.1387668
vt 0.9155967 0.1112332
vt 0.9361588 0.1112332
vt 0.9361588 0.1387668
vt 0.9155967 0.1387668
vt 0.0625408 0.0001220703
vt 0.0831029 0.0001220703
vt 0.0831029 0.02765572
vt 0.0625408 0.02765572

# Normal
vn 0 0 -1

# Mesh description
g Dotties_mesh_0005

# Faces
f 1/1/1 2/2/1 3/3/1 4/4/1
f 5/1/1 6/2/1 7/3/1 8/4/1
f 9/1/1 10/2/1 11/3/1 12/4/1
f 13/1/1 14/2/1 15/3/1 16/4/1
f 17/1/1 18/2/1 19/3/1 20/4/1
f 21/1/1 22/2/1 23/3/1 24/4/1
f 25/1/1 26/2/1 27/3/1 28/4/1
f 29/5/1 30/6/1 31/7/1 32/8/1
f 33/9/1 34/10/1 35/11/1 36/12/1
f 37/1/1 38/2/1 39/3/1 40/4/1
f 41/13/1 42/14/1 43/15/1 44/16/1
f 45/17/1 46/18/1 47/19/1 48/20/1
f 49/1/1 50/2/1 51/3/1 52/4/1
f 53/21/1 54/22/1 55/23/1 56/24/1
f 57/1/1 58/2/1 59/3/1 60/4/1
f 61/21/1 62/22/1 63/23/1 64/24/1
f 65/1/1 66/2/1 67/3/1 68/4/1
f 69/21/1 70/22/1 71/23/1 72/24/1
f 73/1/1 74/2/1 75/3/1 76/4/1
f 77/25/1 78/26/1 79/27/1 80/28/1
f 81/1/1 82/2/1 83/3/1 84/4/1
f 85/29/1 86/30/1 87/31/1 88/32/1
f 89/33/1 90/34/1 91/35/1 92/36/1
f 93/33/1 94/34/1 95/35/1 96/36/1
f 97/33/1 98/34/1 99/35/1 100/36/1
f 101/33/1 102/34/1 103/35/1 104/36/1
f 105/33/1 106/34/1 107/35/1 108/36/1
f 109/33/1 110/34/1 111/35/1 112/36/1
f 113/37/1 114/38/1 115/39/1 116/40/1
f 117/41/1 118/42/1 119/43/1 120/44/1
f 121/1/1 122/2/1 123/3/1 124/4/1
f 125/1/1 126/2/1 127/3/1 128/4/1
f 129/45/1 130/46/1 131/47/1 132/48/1
f 133/1/1 134/2/1 135/3/1 136/4/1
f 137/1/1 138/2/1 139/3/1 140/4/1
f 141/5/1 142/6/1 143/7/1 144/8/1
f 145/9/1 146/10/1 147/11/1 148/12/1
f 149/45/1 150/46/1 151/47/1 152/48/1
f 153/1/1 154/2/1 155/3/1 156/4/1
f 157/1/1 158/2/1 159/3/1 160/4/1
f 161/13/1 162/14/1 163/15/1 164/16/1
f 165/17/1 166/18/1 167/19/1 168/20/1
f 169/45/1 170/46/1 171/47/1 172/48/1
f 173/1/1 174/2/1 175/3/1 176/4/1
f 177/1/1 178/2/1 179/3/1 180/4/1
f 181/45/1 182/46/1 183/47/1 184/48/1
f 185/1/1 186/2/1 187/3/1 188/4/1
f 189/1/1 190/2/1 191/3/1 192/4/1
f 193/45/1 194/46/1 195/47/1 196/48/1
f 197/1/1 198/2/1 199/3/1 200/4/1
f 201/1/1 202/2/1 203/3/1 204/4/1
f 205/45/1 206/46/1 207/47/1 208/48/1
f 209/1/1 210/2/1 211/3/1 212/4/1
f 213/1/1 214/2/1 215/3/1 216/4/1
f 217/45/1 218/46/1 219/47/1 220/48/1
f 221/1/1 222/2/1 223/3/1 224/4/1
f 225/1/1 226/2/1 227/3/1 228/4/1
f 229/49/1 230/50/1 231/51/1 232/52/1
f 233/1/1 234/2/1 235/3/1 236/4/1
f 237/1/1 238/2/1 239/3/1 240/4/1
f 241/53/1 242/54/1 243/55/1 244/56/1
f 245/57/1 246/58/1 247/59/1 248/60/1
f 249/1/1 250/2/1 251/3/1 252/4/1
f 253/61/1 254/62/1 255/63/1 256/64/1
f 257/65/1 258/66/1 259/67/1 260/68/1
f 261/69/1 262/70/1 263/71/1 264/72/1
f 265/25/1 266/26/1 267/27/1 268/28/1
f 269/1/1 270/2/1 271/3/1 272/4/1
f 273/73/1 274/74/1 275/75/1 276/76/1
f 277/77/1 278/78/1 279/79/1 280/80/1
f 281/57/1 282/58/1 283/59/1 284/60/1
f 285/1/1 286/2/1 287/3/1 288/4/1
f 289/57/1 290/58/1 291/59/1 292/60/1
f 293/1/1 294/2/1 295/3/1 296/4/1
f 297/25/1 298/26/1 299/27/1 300/28/1
f 301/1/1 302/2/1 303/3/1 304/4/1
f 305/5/1 306/6/1 307/7/1 308/8/1
f 309/9/1 310/10/1 311/11/1 312/12/1
f 313/81/1 314/82/1 315/83/1 316/84/1
f 317/85/1 318/86/1 319/87/1 320/88/1
f 321/1/1 322/2/1 323/3/1 324/4/1
f 325/1/1 326/2/1 327/3/1 328/4/1
f 329/1/1 330/2/1 331/3/1 332/4/1
f 333/13/1 334/14/1 335/15/1 336/16/1
f 337/17/1 338/18/1 339/19/1 340/20/1
f 341/1/1 342/2/1 343/3/1 344/4/1
f 345/1/1 346/2/1 347/3/1 348/4/1
f 349/1/1 350/2/1 351/3/1 352/4/1
f 353/1/1 354/2/1 355/3/1 356/4/1
f 357/1/1 358/2/1 359/3/1 360/4/1
f 361/1/1 362/2/1 363/3/1 364/4/1
f 365/81/1 366/82/1 367/83/1 368/84/1
f 369/89/1 370/90/1 371/91/1 372/92/1
f 373/85/1 374/86/1 375/87/1 376/88/1
f 377/1/1 378/2/1 379/3/1 380/4/1
f 381/1/1 382/2/1 383/3/1 384/4/1
f 385/1/1 386/2/1 387/3/1 388/4/1
f 389/93/1 390/94/1 391/95/1 392/96/1
f 393/97/1 394/98/1 395/99/1 396/100/1
f 397/101/1 398/102/1 399/103/1 400/104/1
f 401/105/1 402/106/1 403/107/1 404/108/1
f 405/1/1 406/2/1 407/3/1 408/4/1
f 409/1/1 410/2/1 411/3/1 412/4/1
f 413/1/1 414/2/1 415/3/1 416/4/1
f 417/1/1 418/2/1 419/3/1 420/4/1
f 421/1/1 422/2/1 423/3/1 424/4/1
f 425/1/1 426/2/1 427/3/1 428/4/1
f 429/1/1 430/2/1 431/3/1 432/4/1
f 433/1/1 434/2/1 435/3/1 436/4/1
f 437/1/1 438/2/1 439/3/1 440/4/1
f 441/1/1 442/2/1 443/3/1 444/4/1
f 445/1/1 446/2/1 447/3/1 448/4/1
f 449/1/1 450/2/1 451/3/1 452/4/1
f 453/109/1 454/110/1 455/111/1 456/112/1
f 457/1/1 458/2/1 459/3/1 460/4/1
f 461/1/1 462/2/1 463/3/1 464/4/1
f 465/1/1 466/2/1 467/3/1 468/4/1
f 469/1/1 470/2/1 471/3/1 472/4/1
f 473/1/1 474/2/1 475/3/1 476/4/1
f 477/1/1 478/2/1 479/3/1 480/4/1
f 481/1/1 482/2/1 483/3/1 484/4/1
f 485/1/1 486/2/1 487/3/1 488/4/1
f 489/1/1 490/2/1 491/3/1 492/4/1
f 493/1/1 494/2/1 495/3/1 496/4/1
f 497/1/1 498/2/1 499/3/1 500/4/1
f 501/1/1 502/2/1 503/3/1 504/4/1
f 505/1/1 506/2/1 507/3/1 508/4/1
f 509/1/1 510/2/1 511/3/1 512/4/1
f 513/1/1 514/2/1 515/3/1 516/4/1
f 517/1/1 518/2/1 519/3/1 520/4/1
f 521/1/1 522/2/1 523/3/1 524/4/1
f 525/1/1 526/2/1 527/3/1 528/4/1
f 529/1/1 530/2/1 531/3/1 532/4/1
f 533/1/1 534/2/1 535/3/1 536/4/1
f 537/1/1 538/2/1 539/3/1 540/4/1
f 541/1/1 542/2/1 543/3/1 544/4/1
f 545/1/1 546/2/1 547/3/1 548/4/1
f 549/1/1 550/2/1 551/3/1 552/4/1
f 553/1/1 554/2/1 555/3/1 556/4/1
f 557/1/1 558/2/1 559/3/1 560/4/1
f 561/1/1 562/2/1 563/3/1 564/4/1
f 565/1/1 566/2/1 567/3/1 568/4/1
f 569/1/1 570/2/1 571/3/1 572/4/1
f 573/1/1 574/2/1 575/3/1 576/4/1
f 577/1/1 578/2/1 579/3/1 580/4/1
f 581/1/1 582/2/1 583/3/1 584/4/1
f 585/1/1 586/2/1 587/3/1 588/4/1
f 589/1/1 590/2/1 591/3/1 592/4/1
f 593/1/1 594/2/1 595/3/1 596/4/1
f 597/1/1 598/2/1 599/3/1 600/4/1
f 601/1/1 602/2/1 603/3/1 604/4/1
f 605/1/1 606/2/1 607/3/1 608/4/1
f 609/1/1 610/2/1 611/3/1 612/4/1
f 613/1/1 614/2/1 615/3/1 616/4/1
f 617/1/1 618/2/1 619/3/1 620/4/1
f 621/1/1 622/2/1 623/3/1 624/4/1
f 625/1/1 626/2/1 627/3/1 628/4/1
f 629/1/1 630/2/1 631/3/1 632/4/1
f 633/1/1 634/2/1 635/3/1 636/4/1
f 637/1/1 638/2/1 639/3/1 640/4/1
f 641/1/1 642/2/1 643/3/1 644/4/1
f 645/1/1 646/2/1 647/3/1 648/4/1
f 649/1/1 650/2/1 651/3/1 652/4/1
f 653/1/1 654/2/1 655/3/1 656/4/1
f 657/1/1 658/2/1 659/3/1 660/4/1
f 661/1/1 662/2/1 663/3/1 664/4/1
f 665/1/1 666/2/1 667/3/1 668/4/1
f 669/1/1 670/2/1 671/3/1 672/4/1
f 673/1/1 674/2/1 675/3/1 676/4/1
f 677/1/1 678/2/1 679/3/1 680/4/1
f 681/1/1 682/2/1 683/3/1 684/4/1
f 685/1/1 686/2/1 687/3/1 688/4/1
f 689/1/1 690/2/1 691/3/1 692/4/1
f 693/1/1 694/2/1 695/3/1 696/4/1
f 697/1/1 698/2/1 699/3/1 700/4/1
f 701/1/1 702/2/1 703/3/1 704/4/1
f 705/1/1 706/2/1 707/3/1 708/4/1
f 709/1/1 710/2/1 711/3/1 712/4/1
f 713/1/1 714/2/1 715/3/1 716/4/1
f 717/1/1 718/2/1 719/3/1 720/4/1
f 721/1/1 722/2/1 723/3/1 724/4/1
f 725/1/1 726/2/1 727/3/1 728/4/1
f 729/1/1 730/2/1 731/3/1 732/4/1
f 733/1/1 734/2/1 735/3/1 736/4/1
f 737/1/1 738/2/1 739/3/1 740/4/1
f 741/1/1 742/2/1 743/3/1 744/4/1
f 745/1/1 746/2/1 747/3/1 748/4/1
f 749/1/1 750/2/1 751/3/1 752/4/1
f 753/1/1 754/2/1 755/3/1 756/4/1
f 757/1/1 758/2/1 759/3/1 760/4/1
f 761/1/1 762/2/1 763/3/1 764/4/1
f 765/1/1 766/2/1 767/3/1 768/4/1
f 769/1/1 770/2/1 771/3/1 772/4/1
f 773/1/1 774/2/1 775/3/1 776/4/1
f 777/1/1 778/2/1 779/3/1 780/4/1
f 781/1/1 782/2/1 783/3/1 784/4/1
f 785/1/1 786/2/1 787/3/1 788/4/1
f 789/1/1 790/2/1 791/3/1 792/4/1
f 793/1/1 794/2/1 795/3/1 796/4/1
f 797/1/1 798/2/1 799/3/1 800/4/1
f 801/1/1 802/2/1 803/3/1 804/4/1
f 805/1/1 806/2/1 807/3/1 808/4/1
f 809/1/1 810/2/1 811/3/1 812/4/1
f 813/1/1 814/2/1 815/3/1 816/4/1
f 817/1/1 818/2/1 819/3/1 820/4/1
f 821/1/1 822/2/1 823/3/1 824/4/1
f 825/1/1 826/2/1 827/3/1 828/4/1
f 829/1/1 830/2/1 831/3/1 832/4/1
f 833/1/1 834/2/1 835/3/1 836/4/1
f 837/1/1 838/2/1 839/3/1 840/4/1
f 841/1/1 842/2/1 843/3/1 844/4/1
f 845/1/1 846/2/1 847/3/1 848/4/1
f 849/1/1 850/2/1 851/3/1 852/4/1
f 853/1/1 854/2/1 855/3/1 856/4/1
f 857/1/1 858/2/1 859/3/1 860/4/1
f 861/1/1 862/2/1 863/3/1 864/4/1
f 865/1/1 866/2/1 867/3/1 868/4/1
f 869/1/1 870/2/1 871/3/1 872/4/1
f 873/1/1 874/2/1 875/3/1 876/4/1
f 877/1/1 878/2/1 879/3/1 880/4/1
f 881/1/1 882/2/1 883/3/1 884/4/1
f 885/1/1 886/2/1 887/3/1 888/4/1
f 889/1/1 890/2/1 891/3/1 892/4/1
f 893/1/1 894/2/1 895/3/1 896/4/1
f 897/1/1 898/2/1 899/3/1 900/4/1
f 901/1/1 902/2/1 903/3/1 904/4/1
f 905/1/1 906/2/1 907/3/1 908/4/1
f 909/1/1 910/2/1 911/3/1 912/4/1
f 913/1/1 914/2/1 915/3/1 916/4/1
f 917/1/1 918/2/1 919/3/1 920/4/1

