# Tiled2Unity generated file. Do not modify by hand.
# Wavefront file for 'Dotties_mesh_0006.obj'

# Vertices (Count = 804)
v -59 -1 0
v -60 -1 0
v -60 0 0
v -59 0 0
v -58 -1 0
v -59 -1 0
v -59 0 0
v -58 0 0
v -49 -1 0
v -50 -1 0
v -50 0 0
v -49 0 0
v -48 -1 0
v -49 -1 0
v -49 0 0
v -48 0 0
v -47 -1 0
v -48 -1 0
v -48 0 0
v -47 0 0
v -46 -1 0
v -47 -1 0
v -47 0 0
v -46 0 0
v -45 -1 0
v -46 -1 0
v -46 0 0
v -45 0 0
v -44 -1 0
v -45 -1 0
v -45 0 0
v -44 0 0
v -43 -1 0
v -44 -1 0
v -44 0 0
v -43 0 0
v -42 -1 0
v -43 -1 0
v -43 0 0
v -42 0 0
v -41 -1 0
v -42 -1 0
v -42 0 0
v -41 0 0
v -40 -1 0
v -41 -1 0
v -41 0 0
v -40 0 0
v -39 -1 0
v -40 -1 0
v -40 0 0
v -39 0 0
v -38 -1 0
v -39 -1 0
v -39 0 0
v -38 0 0
v -37 -1 0
v -38 -1 0
v -38 0 0
v -37 0 0
v -36 -1 0
v -37 -1 0
v -37 0 0
v -36 0 0
v -35 -1 0
v -36 -1 0
v -36 0 0
v -35 0 0
v -34 -1 0
v -35 -1 0
v -35 0 0
v -34 0 0
v -33 -1 0
v -34 -1 0
v -34 0 0
v -33 0 0
v -32 -1 0
v -33 -1 0
v -33 0 0
v -32 0 0
v -20 -1 0
v -21 -1 0
v -21 0 0
v -20 0 0
v -19 -1 0
v -20 -1 0
v -20 0 0
v -19 0 0
v -18 -1 0
v -19 -1 0
v -19 0 0
v -18 0 0
v -17 -1 0
v -18 -1 0
v -18 0 0
v -17 0 0
v -16 -1 0
v -17 -1 0
v -17 0 0
v -16 0 0
v -15 -1 0
v -16 -1 0
v -16 0 0
v -15 0 0
v -14 -1 0
v -15 -1 0
v -15 0 0
v -14 0 0
v -13 -1 0
v -14 -1 0
v -14 0 0
v -13 0 0
v -12 -1 0
v -13 -1 0
v -13 0 0
v -12 0 0
v -11 -1 0
v -12 -1 0
v -12 0 0
v -11 0 0
v -10 -1 0
v -11 -1 0
v -11 0 0
v -10 0 0
v -9 -1 0
v -10 -1 0
v -10 0 0
v -9 0 0
v -8 -1 0
v -9 -1 0
v -9 0 0
v -8 0 0
v -7 -1 0
v -8 -1 0
v -8 0 0
v -7 0 0
v -6 -1 0
v -7 -1 0
v -7 0 0
v -6 0 0
v -5 -1 0
v -6 -1 0
v -6 0 0
v -5 0 0
v -4 -1 0
v -5 -1 0
v -5 0 0
v -4 0 0
v -3 -1 0
v -4 -1 0
v -4 0 0
v -3 0 0
v -59 -2 0
v -60 -2 0
v -60 -1 0
v -59 -1 0
v -58 -2 0
v -59 -2 0
v -59 -1 0
v -58 -1 0
v -46 -2 0
v -47 -2 0
v -47 -1 0
v -46 -1 0
v -45 -2 0
v -46 -2 0
v -46 -1 0
v -45 -1 0
v -44 -2 0
v -45 -2 0
v -45 -1 0
v -44 -1 0
v -43 -2 0
v -44 -2 0
v -44 -1 0
v -43 -1 0
v -42 -2 0
v -43 -2 0
v -43 -1 0
v -42 -1 0
v -41 -2 0
v -42 -2 0
v -42 -1 0
v -41 -1 0
v -40 -2 0
v -41 -2 0
v -41 -1 0
v -40 -1 0
v -39 -2 0
v -40 -2 0
v -40 -1 0
v -39 -1 0
v -13 -2 0
v -14 -2 0
v -14 -1 0
v -13 -1 0
v -12 -2 0
v -13 -2 0
v -13 -1 0
v -12 -1 0
v -11 -2 0
v -12 -2 0
v -12 -1 0
v -11 -1 0
v -10 -2 0
v -11 -2 0
v -11 -1 0
v -10 -1 0
v -6 -2 0
v -7 -2 0
v -7 -1 0
v -6 -1 0
v -5 -2 0
v -6 -2 0
v -6 -1 0
v -5 -1 0
v -4 -2 0
v -5 -2 0
v -5 -1 0
v -4 -1 0
v -3 -2 0
v -4 -2 0
v -4 -1 0
v -3 -1 0
v 0 -2 0
v -1 -2 0
v -1 -1 0
v 0 -1 0
v -42 -3 0
v -43 -3 0
v -43 -2 0
v -42 -2 0
v -41 -3 0
v -42 -3 0
v -42 -2 0
v -41 -2 0
v -40 -3 0
v -41 -3 0
v -41 -2 0
v -40 -2 0
v -39 -3 0
v -40 -3 0
v -40 -2 0
v -39 -2 0
v -13 -3 0
v -14 -3 0
v -14 -2 0
v -13 -2 0
v -12 -3 0
v -13 -3 0
v -13 -2 0
v -12 -2 0
v -11 -3 0
v -12 -3 0
v -12 -2 0
v -11 -2 0
v -10 -3 0
v -11 -3 0
v -11 -2 0
v -10 -2 0
v 0 -3 0
v -1 -3 0
v -1 -2 0
v 0 -2 0
v -54 -4 0
v -55 -4 0
v -55 -3 0
v -54 -3 0
v -53 -4 0
v -54 -4 0
v -54 -3 0
v -53 -3 0
v -52 -4 0
v -53 -4 0
v -53 -3 0
v -52 -3 0
v -51 -4 0
v -52 -4 0
v -52 -3 0
v -51 -3 0
v -37 -4 0
v -38 -4 0
v -38 -3 0
v -37 -3 0
v -36 -4 0
v -37 -4 0
v -37 -3 0
v -36 -3 0
v -35 -4 0
v -36 -4 0
v -36 -3 0
v -35 -3 0
v -34 -4 0
v -35 -4 0
v -35 -3 0
v -34 -3 0
v -28 -4 0
v -29 -4 0
v -29 -3 0
v -28 -3 0
v -27 -4 0
v -28 -4 0
v -28 -3 0
v -27 -3 0
v 0 -4 0
v -1 -4 0
v -1 -3 0
v 0 -3 0
v -37 -5 0
v -38 -5 0
v -38 -4 0
v -37 -4 0
v -36 -5 0
v -37 -5 0
v -37 -4 0
v -36 -4 0
v -35 -5 0
v -36 -5 0
v -36 -4 0
v -35 -4 0
v -34 -5 0
v -35 -5 0
v -35 -4 0
v -34 -4 0
v -28 -5 0
v -29 -5 0
v -29 -4 0
v -28 -4 0
v -27 -5 0
v -28 -5 0
v -28 -4 0
v -27 -4 0
v -37 -6 0
v -38 -6 0
v -38 -5 0
v -37 -5 0
v -36 -6 0
v -37 -6 0
v -37 -5 0
v -36 -5 0
v -35 -6 0
v -36 -6 0
v -36 -5 0
v -35 -5 0
v -34 -6 0
v -35 -6 0
v -35 -5 0
v -34 -5 0
v -13 -10 0
v -14 -10 0
v -14 -9 0
v -13 -9 0
v -12 -10 0
v -13 -10 0
v -13 -9 0
v -12 -9 0
v -11 -10 0
v -12 -10 0
v -12 -9 0
v -11 -9 0
v -10 -10 0
v -11 -10 0
v -11 -9 0
v -10 -9 0
v -22 -11 0
v -23 -11 0
v -23 -10 0
v -22 -10 0
v -21 -11 0
v -22 -11 0
v -22 -10 0
v -21 -10 0
v -20 -11 0
v -21 -11 0
v -21 -10 0
v -20 -10 0
v -19 -11 0
v -20 -11 0
v -20 -10 0
v -19 -10 0
v -22 -12 0
v -23 -12 0
v -23 -11 0
v -22 -11 0
v -21 -12 0
v -22 -12 0
v -22 -11 0
v -21 -11 0
v -20 -12 0
v -21 -12 0
v -21 -11 0
v -20 -11 0
v -19 -12 0
v -20 -12 0
v -20 -11 0
v -19 -11 0
v -22 -13 0
v -23 -13 0
v -23 -12 0
v -22 -12 0
v -21 -13 0
v -22 -13 0
v -22 -12 0
v -21 -12 0
v -20 -13 0
v -21 -13 0
v -21 -12 0
v -20 -12 0
v -19 -13 0
v -20 -13 0
v -20 -12 0
v -19 -12 0
v -23 -14 0
v -24 -14 0
v -24 -13 0
v -23 -13 0
v -22 -14 0
v -23 -14 0
v -23 -13 0
v -22 -13 0
v -23 -15 0
v -24 -15 0
v -24 -14 0
v -23 -14 0
v -22 -15 0
v -23 -15 0
v -23 -14 0
v -22 -14 0
v -44 -20 0
v -45 -20 0
v -45 -19 0
v -44 -19 0
v -43 -20 0
v -44 -20 0
v -44 -19 0
v -43 -19 0
v -42 -20 0
v -43 -20 0
v -43 -19 0
v -42 -19 0
v -41 -20 0
v -42 -20 0
v -42 -19 0
v -41 -19 0
v -24 -21 0
v -25 -21 0
v -25 -20 0
v -24 -20 0
v -23 -21 0
v -24 -21 0
v -24 -20 0
v -23 -20 0
v -22 -21 0
v -23 -21 0
v -23 -20 0
v -22 -20 0
v -21 -21 0
v -22 -21 0
v -22 -20 0
v -21 -20 0
v -7 -26 0
v -8 -26 0
v -8 -25 0
v -7 -25 0
v -6 -26 0
v -7 -26 0
v -7 -25 0
v -6 -25 0
v -5 -26 0
v -6 -26 0
v -6 -25 0
v -5 -25 0
v -4 -26 0
v -5 -26 0
v -5 -25 0
v -4 -25 0
v -33 -27 0
v -34 -27 0
v -34 -26 0
v -33 -26 0
v -32 -27 0
v -33 -27 0
v -33 -26 0
v -32 -26 0
v -7 -27 0
v -8 -27 0
v -8 -26 0
v -7 -26 0
v -6 -27 0
v -7 -27 0
v -7 -26 0
v -6 -26 0
v -5 -27 0
v -6 -27 0
v -6 -26 0
v -5 -26 0
v -4 -27 0
v -5 -27 0
v -5 -26 0
v -4 -26 0
v -7 -28 0
v -8 -28 0
v -8 -27 0
v -7 -27 0
v -6 -28 0
v -7 -28 0
v -7 -27 0
v -6 -27 0
v -5 -28 0
v -6 -28 0
v -6 -27 0
v -5 -27 0
v -4 -28 0
v -5 -28 0
v -5 -27 0
v -4 -27 0
v -42 -29 0
v -43 -29 0
v -43 -28 0
v -42 -28 0
v -41 -29 0
v -42 -29 0
v -42 -28 0
v -41 -28 0
v -40 -29 0
v -41 -29 0
v -41 -28 0
v -40 -28 0
v -39 -29 0
v -40 -29 0
v -40 -28 0
v -39 -28 0
v -5 -29 0
v -6 -29 0
v -6 -28 0
v -5 -28 0
v -4 -29 0
v -5 -29 0
v -5 -28 0
v -4 -28 0
v -42 -30 0
v -43 -30 0
v -43 -29 0
v -42 -29 0
v -41 -30 0
v -42 -30 0
v -42 -29 0
v -41 -29 0
v -40 -30 0
v -41 -30 0
v -41 -29 0
v -40 -29 0
v -39 -30 0
v -40 -30 0
v -40 -29 0
v -39 -29 0
v -5 -30 0
v -6 -30 0
v -6 -29 0
v -5 -29 0
v -4 -30 0
v -5 -30 0
v -5 -29 0
v -4 -29 0
v -42 -31 0
v -43 -31 0
v -43 -30 0
v -42 -30 0
v -41 -31 0
v -42 -31 0
v -42 -30 0
v -41 -30 0
v -40 -31 0
v -41 -31 0
v -41 -30 0
v -40 -30 0
v -39 -31 0
v -40 -31 0
v -40 -30 0
v -39 -30 0
v -42 -32 0
v -43 -32 0
v -43 -31 0
v -42 -31 0
v -41 -32 0
v -42 -32 0
v -42 -31 0
v -41 -31 0
v -42 -33 0
v -43 -33 0
v -43 -32 0
v -42 -32 0
v -41 -33 0
v -42 -33 0
v -42 -32 0
v -41 -32 0
v -30 -35 0
v -31 -35 0
v -31 -34 0
v -30 -34 0
v -29 -35 0
v -30 -35 0
v -30 -34 0
v -29 -34 0
v -30 -36 0
v -31 -36 0
v -31 -35 0
v -30 -35 0
v -29 -36 0
v -30 -36 0
v -30 -35 0
v -29 -35 0
v -53 -37 0
v -54 -37 0
v -54 -36 0
v -53 -36 0
v -52 -37 0
v -53 -37 0
v -53 -36 0
v -52 -36 0
v -51 -37 0
v -52 -37 0
v -52 -36 0
v -51 -36 0
v -50 -37 0
v -51 -37 0
v -51 -36 0
v -50 -36 0
v -53 -38 0
v -54 -38 0
v -54 -37 0
v -53 -37 0
v -52 -38 0
v -53 -38 0
v -53 -37 0
v -52 -37 0
v -51 -38 0
v -52 -38 0
v -52 -37 0
v -51 -37 0
v -50 -38 0
v -51 -38 0
v -51 -37 0
v -50 -37 0
v -53 -39 0
v -54 -39 0
v -54 -38 0
v -53 -38 0
v -52 -39 0
v -53 -39 0
v -53 -38 0
v -52 -38 0
v -51 -39 0
v -52 -39 0
v -52 -38 0
v -51 -38 0
v -50 -39 0
v -51 -39 0
v -51 -38 0
v -50 -38 0
v -6 -43 0
v -7 -43 0
v -7 -42 0
v -6 -42 0
v -5 -43 0
v -6 -43 0
v -6 -42 0
v -5 -42 0
v -4 -43 0
v -5 -43 0
v -5 -42 0
v -4 -42 0
v -3 -43 0
v -4 -43 0
v -4 -42 0
v -3 -42 0
v -6 -44 0
v -7 -44 0
v -7 -43 0
v -6 -43 0
v -5 -44 0
v -6 -44 0
v -6 -43 0
v -5 -43 0
v -4 -44 0
v -5 -44 0
v -5 -43 0
v -4 -43 0
v -3 -44 0
v -4 -44 0
v -4 -43 0
v -3 -43 0
v -6 -45 0
v -7 -45 0
v -7 -44 0
v -6 -44 0
v -5 -45 0
v -6 -45 0
v -6 -44 0
v -5 -44 0
v -4 -45 0
v -5 -45 0
v -5 -44 0
v -4 -44 0
v -3 -45 0
v -4 -45 0
v -4 -44 0
v -3 -44 0
v -21 -46 0
v -22 -46 0
v -22 -45 0
v -21 -45 0
v -20 -46 0
v -21 -46 0
v -21 -45 0
v -20 -45 0
v -19 -46 0
v -20 -46 0
v -20 -45 0
v -19 -45 0
v -18 -46 0
v -19 -46 0
v -19 -45 0
v -18 -45 0
v -30 -48 0
v -31 -48 0
v -31 -47 0
v -30 -47 0
v -29 -48 0
v -30 -48 0
v -30 -47 0
v -29 -47 0
v -28 -48 0
v -29 -48 0
v -29 -47 0
v -28 -47 0
v -27 -48 0
v -28 -48 0
v -28 -47 0
v -27 -47 0
v -30 -49 0
v -31 -49 0
v -31 -48 0
v -30 -48 0
v -29 -49 0
v -30 -49 0
v -30 -48 0
v -29 -48 0
v -28 -49 0
v -29 -49 0
v -29 -48 0
v -28 -48 0
v -27 -49 0
v -28 -49 0
v -28 -48 0
v -27 -48 0
v -30 -50 0
v -31 -50 0
v -31 -49 0
v -30 -49 0
v -29 -50 0
v -30 -50 0
v -30 -49 0
v -29 -49 0
v -28 -50 0
v -29 -50 0
v -29 -49 0
v -28 -49 0
v -27 -50 0
v -28 -50 0
v -28 -49 0
v -27 -49 0
v -54 -56 0
v -55 -56 0
v -55 -55 0
v -54 -55 0
v -53 -56 0
v -54 -56 0
v -54 -55 0
v -53 -55 0
v -52 -56 0
v -53 -56 0
v -53 -55 0
v -52 -55 0
v -51 -56 0
v -52 -56 0
v -52 -55 0
v -51 -55 0
v -4 -56 0
v -5 -56 0
v -5 -55 0
v -4 -55 0
v -3 -56 0
v -4 -56 0
v -4 -55 0
v -3 -55 0
v -2 -56 0
v -3 -56 0
v -3 -55 0
v -2 -55 0
v -1 -56 0
v -2 -56 0
v -2 -55 0
v -1 -55 0

# Texture cooridinates (Count = 88)
vt 0.02092831 0.02789986
vt 0.04149041 0.02789986
vt 0.04149041 0.05543351
vt 0.02092831 0.05543351
vt 0.0001220703 0.02789986
vt 0.02068417 0.02789986
vt 0.02068417 0.05543351
vt 0.0001220703 0.05543351
vt 0.0625408 0.0001220703
vt 0.0831029 0.0001220703
vt 0.0831029 0.02765572
vt 0.0625408 0.02765572
vt 0.04173455 0.0001220703
vt 0.06229666 0.0001220703
vt 0.06229666 0.02765572
vt 0.04173455 0.02765572
vt 0.02092831 0.0001220703
vt 0.04149041 0.0001220703
vt 0.04149041 0.02765572
vt 0.02092831 0.02765572
vt 0.0001220703 0.0001220703
vt 0.02068417 0.0001220703
vt 0.02068417 0.02765572
vt 0.0001220703 0.02765572
vt 0.04173455 0.02789986
vt 0.06229666 0.02789986
vt 0.06229666 0.05543351
vt 0.04173455 0.05543351
vt 0.0625408 0.05567765
vt 0.0831029 0.05567765
vt 0.0831029 0.08321124
vt 0.0625408 0.08321124
vt 0.04173455 0.05567765
vt 0.06229666 0.05567765
vt 0.06229666 0.08321124
vt 0.04173455 0.08321124
vt 0.02092831 0.05567765
vt 0.04149041 0.05567765
vt 0.04149041 0.08321124
vt 0.02092831 0.08321124
vt 0.0001220703 0.05567765
vt 0.02068417 0.05567765
vt 0.02068417 0.08321124
vt 0.0001220703 0.08321124
vt 0.0625408 0.02789986
vt 0.0831029 0.02789986
vt 0.0831029 0.05543351
vt 0.0625408 0.05543351
vt 0.3538282 0.08345538
vt 0.3743903 0.08345538
vt 0.3743903 0.110989
vt 0.3538282 0.110989
vt 0.3330219 0.08345538
vt 0.3535841 0.08345538
vt 0.3535841 0.110989
vt 0.3330219 0.110989
vt 0.3122157 0.08345538
vt 0.3327778 0.08345538
vt 0.3327778 0.110989
vt 0.3122157 0.110989
vt 0.2914095 0.08345538
vt 0.3119715 0.08345538
vt 0.3119715 0.110989
vt 0.2914095 0.110989
vt 0.1041533 0.9445665
vt 0.1247154 0.9445665
vt 0.1247154 0.9721001
vt 0.1041533 0.9721001
vt 0.08334704 0.9445665
vt 0.1039091 0.9445665
vt 0.1039091 0.9721001
vt 0.08334704 0.9721001
vt 0.1041533 0.9167888
vt 0.1247154 0.9167888
vt 0.1247154 0.9443223
vt 0.1041533 0.9443223
vt 0.08334704 0.9167888
vt 0.1039091 0.9167888
vt 0.1039091 0.9443223
vt 0.08334704 0.9443223
vt 0.2081845 0.639011
vt 0.2287466 0.639011
vt 0.2287466 0.6665446
vt 0.2081845 0.6665446
vt 0.1873782 0.639011
vt 0.2079404 0.639011
vt 0.2079404 0.6665446
vt 0.1873782 0.6665446

# Normal
vn 0 0 -1

# Mesh description
g Dotties_mesh_0006

# Faces
f 1/1/1 2/2/1 3/3/1 4/4/1
f 5/5/1 6/6/1 7/7/1 8/8/1
f 9/9/1 10/10/1 11/11/1 12/12/1
f 13/13/1 14/14/1 15/15/1 16/16/1
f 17/17/1 18/18/1 19/19/1 20/20/1
f 21/21/1 22/22/1 23/23/1 24/24/1
f 25/25/1 26/26/1 27/27/1 28/28/1
f 29/1/1 30/2/1 31/3/1 32/4/1
f 33/5/1 34/6/1 35/7/1 36/8/1
f 37/29/1 38/30/1 39/31/1 40/32/1
f 41/33/1 42/34/1 43/35/1 44/36/1
f 45/37/1 46/38/1 47/39/1 48/40/1
f 49/41/1 50/42/1 51/43/1 52/44/1
f 53/9/1 54/10/1 55/11/1 56/12/1
f 57/13/1 58/14/1 59/15/1 60/16/1
f 61/17/1 62/18/1 63/19/1 64/20/1
f 65/9/1 66/10/1 67/11/1 68/12/1
f 69/13/1 70/14/1 71/15/1 72/16/1
f 73/17/1 74/18/1 75/19/1 76/20/1
f 77/21/1 78/22/1 79/23/1 80/24/1
f 81/9/1 82/10/1 83/11/1 84/12/1
f 85/13/1 86/14/1 87/15/1 88/16/1
f 89/17/1 90/18/1 91/19/1 92/20/1
f 93/21/1 94/22/1 95/23/1 96/24/1
f 97/9/1 98/10/1 99/11/1 100/12/1
f 101/13/1 102/14/1 103/15/1 104/16/1
f 105/17/1 106/18/1 107/19/1 108/20/1
f 109/21/1 110/22/1 111/23/1 112/24/1
f 113/33/1 114/34/1 115/35/1 116/36/1
f 117/37/1 118/38/1 119/39/1 120/40/1
f 121/41/1 122/42/1 123/43/1 124/44/1
f 125/13/1 126/14/1 127/15/1 128/16/1
f 129/17/1 130/18/1 131/19/1 132/20/1
f 133/21/1 134/22/1 135/23/1 136/24/1
f 137/45/1 138/46/1 139/47/1 140/48/1
f 141/25/1 142/26/1 143/27/1 144/28/1
f 145/1/1 146/2/1 147/3/1 148/4/1
f 149/5/1 150/6/1 151/7/1 152/8/1
f 153/17/1 154/18/1 155/19/1 156/20/1
f 157/21/1 158/22/1 159/23/1 160/24/1
f 161/9/1 162/10/1 163/11/1 164/12/1
f 165/13/1 166/14/1 167/15/1 168/16/1
f 169/17/1 170/18/1 171/19/1 172/20/1
f 173/21/1 174/22/1 175/23/1 176/24/1
f 177/45/1 178/46/1 179/47/1 180/48/1
f 181/25/1 182/26/1 183/27/1 184/28/1
f 185/1/1 186/2/1 187/3/1 188/4/1
f 189/5/1 190/6/1 191/7/1 192/8/1
f 193/45/1 194/46/1 195/47/1 196/48/1
f 197/25/1 198/26/1 199/27/1 200/28/1
f 201/1/1 202/2/1 203/3/1 204/4/1
f 205/5/1 206/6/1 207/7/1 208/8/1
f 209/9/1 210/10/1 211/11/1 212/12/1
f 213/13/1 214/14/1 215/15/1 216/16/1
f 217/17/1 218/18/1 219/19/1 220/20/1
f 221/21/1 222/22/1 223/23/1 224/24/1
f 225/29/1 226/30/1 227/31/1 228/32/1
f 229/9/1 230/10/1 231/11/1 232/12/1
f 233/13/1 234/14/1 235/15/1 236/16/1
f 237/17/1 238/18/1 239/19/1 240/20/1
f 241/21/1 242/22/1 243/23/1 244/24/1
f 245/9/1 246/10/1 247/11/1 248/12/1
f 249/13/1 250/14/1 251/15/1 252/16/1
f 253/17/1 254/18/1 255/19/1 256/20/1
f 257/21/1 258/22/1 259/23/1 260/24/1
f 261/45/1 262/46/1 263/47/1 264/48/1
f 265/49/1 266/50/1 267/51/1 268/52/1
f 269/53/1 270/54/1 271/55/1 272/56/1
f 273/57/1 274/58/1 275/59/1 276/60/1
f 277/61/1 278/62/1 279/63/1 280/64/1
f 281/29/1 282/30/1 283/31/1 284/32/1
f 285/33/1 286/34/1 287/35/1 288/36/1
f 289/37/1 290/38/1 291/39/1 292/40/1
f 293/41/1 294/42/1 295/43/1 296/44/1
f 297/65/1 298/66/1 299/67/1 300/68/1
f 301/69/1 302/70/1 303/71/1 304/72/1
f 305/9/1 306/10/1 307/11/1 308/12/1
f 309/45/1 310/46/1 311/47/1 312/48/1
f 313/25/1 314/26/1 315/27/1 316/28/1
f 317/1/1 318/2/1 319/3/1 320/4/1
f 321/5/1 322/6/1 323/7/1 324/8/1
f 325/73/1 326/74/1 327/75/1 328/76/1
f 329/77/1 330/78/1 331/79/1 332/80/1
f 333/9/1 334/10/1 335/11/1 336/12/1
f 337/13/1 338/14/1 339/15/1 340/16/1
f 341/17/1 342/18/1 343/19/1 344/20/1
f 345/21/1 346/22/1 347/23/1 348/24/1
f 349/49/1 350/50/1 351/51/1 352/52/1
f 353/53/1 354/54/1 355/55/1 356/56/1
f 357/57/1 358/58/1 359/59/1 360/60/1
f 361/61/1 362/62/1 363/63/1 364/64/1
f 365/29/1 366/30/1 367/31/1 368/32/1
f 369/33/1 370/34/1 371/35/1 372/36/1
f 373/37/1 374/38/1 375/39/1 376/40/1
f 377/41/1 378/42/1 379/43/1 380/44/1
f 381/45/1 382/46/1 383/47/1 384/48/1
f 385/25/1 386/26/1 387/27/1 388/28/1
f 389/1/1 390/2/1 391/3/1 392/4/1
f 393/5/1 394/6/1 395/7/1 396/8/1
f 397/9/1 398/10/1 399/11/1 400/12/1
f 401/13/1 402/14/1 403/15/1 404/16/1
f 405/17/1 406/18/1 407/19/1 408/20/1
f 409/21/1 410/22/1 411/23/1 412/24/1
f 413/65/1 414/66/1 415/67/1 416/68/1
f 417/69/1 418/70/1 419/71/1 420/72/1
f 421/73/1 422/74/1 423/75/1 424/76/1
f 425/77/1 426/78/1 427/79/1 428/80/1
f 429/49/1 430/50/1 431/51/1 432/52/1
f 433/53/1 434/54/1 435/55/1 436/56/1
f 437/57/1 438/58/1 439/59/1 440/60/1
f 441/61/1 442/62/1 443/63/1 444/64/1
f 445/49/1 446/50/1 447/51/1 448/52/1
f 449/53/1 450/54/1 451/55/1 452/56/1
f 453/57/1 454/58/1 455/59/1 456/60/1
f 457/61/1 458/62/1 459/63/1 460/64/1
f 461/29/1 462/30/1 463/31/1 464/32/1
f 465/33/1 466/34/1 467/35/1 468/36/1
f 469/37/1 470/38/1 471/39/1 472/40/1
f 473/41/1 474/42/1 475/43/1 476/44/1
f 477/81/1 478/82/1 479/83/1 480/84/1
f 481/85/1 482/86/1 483/87/1 484/88/1
f 485/45/1 486/46/1 487/47/1 488/48/1
f 489/25/1 490/26/1 491/27/1 492/28/1
f 493/1/1 494/2/1 495/3/1 496/4/1
f 497/5/1 498/6/1 499/7/1 500/8/1
f 501/9/1 502/10/1 503/11/1 504/12/1
f 505/13/1 506/14/1 507/15/1 508/16/1
f 509/17/1 510/18/1 511/19/1 512/20/1
f 513/21/1 514/22/1 515/23/1 516/24/1
f 517/29/1 518/30/1 519/31/1 520/32/1
f 521/33/1 522/34/1 523/35/1 524/36/1
f 525/37/1 526/38/1 527/39/1 528/40/1
f 529/41/1 530/42/1 531/43/1 532/44/1
f 533/65/1 534/66/1 535/67/1 536/68/1
f 537/69/1 538/70/1 539/71/1 540/72/1
f 541/45/1 542/46/1 543/47/1 544/48/1
f 545/25/1 546/26/1 547/27/1 548/28/1
f 549/1/1 550/2/1 551/3/1 552/4/1
f 553/5/1 554/6/1 555/7/1 556/8/1
f 557/73/1 558/74/1 559/75/1 560/76/1
f 561/77/1 562/78/1 563/79/1 564/80/1
f 565/9/1 566/10/1 567/11/1 568/12/1
f 569/13/1 570/14/1 571/15/1 572/16/1
f 573/17/1 574/18/1 575/19/1 576/20/1
f 577/21/1 578/22/1 579/23/1 580/24/1
f 581/65/1 582/66/1 583/67/1 584/68/1
f 585/69/1 586/70/1 587/71/1 588/72/1
f 589/73/1 590/74/1 591/75/1 592/76/1
f 593/77/1 594/78/1 595/79/1 596/80/1
f 597/65/1 598/66/1 599/67/1 600/68/1
f 601/69/1 602/70/1 603/71/1 604/72/1
f 605/73/1 606/74/1 607/75/1 608/76/1
f 609/77/1 610/78/1 611/79/1 612/80/1
f 613/29/1 614/30/1 615/31/1 616/32/1
f 617/33/1 618/34/1 619/35/1 620/36/1
f 621/37/1 622/38/1 623/39/1 624/40/1
f 625/41/1 626/42/1 627/43/1 628/44/1
f 629/45/1 630/46/1 631/47/1 632/48/1
f 633/25/1 634/26/1 635/27/1 636/28/1
f 637/1/1 638/2/1 639/3/1 640/4/1
f 641/5/1 642/6/1 643/7/1 644/8/1
f 645/9/1 646/10/1 647/11/1 648/12/1
f 649/13/1 650/14/1 651/15/1 652/16/1
f 653/17/1 654/18/1 655/19/1 656/20/1
f 657/21/1 658/22/1 659/23/1 660/24/1
f 661/29/1 662/30/1 663/31/1 664/32/1
f 665/33/1 666/34/1 667/35/1 668/36/1
f 669/37/1 670/38/1 671/39/1 672/40/1
f 673/41/1 674/42/1 675/43/1 676/44/1
f 677/45/1 678/46/1 679/47/1 680/48/1
f 681/25/1 682/26/1 683/27/1 684/28/1
f 685/1/1 686/2/1 687/3/1 688/4/1
f 689/5/1 690/6/1 691/7/1 692/8/1
f 693/9/1 694/10/1 695/11/1 696/12/1
f 697/13/1 698/14/1 699/15/1 700/16/1
f 701/17/1 702/18/1 703/19/1 704/20/1
f 705/21/1 706/22/1 707/23/1 708/24/1
f 709/49/1 710/50/1 711/51/1 712/52/1
f 713/53/1 714/54/1 715/55/1 716/56/1
f 717/57/1 718/58/1 719/59/1 720/60/1
f 721/61/1 722/62/1 723/63/1 724/64/1
f 725/29/1 726/30/1 727/31/1 728/32/1
f 729/33/1 730/34/1 731/35/1 732/36/1
f 733/37/1 734/38/1 735/39/1 736/40/1
f 737/41/1 738/42/1 739/43/1 740/44/1
f 741/45/1 742/46/1 743/47/1 744/48/1
f 745/25/1 746/26/1 747/27/1 748/28/1
f 749/1/1 750/2/1 751/3/1 752/4/1
f 753/5/1 754/6/1 755/7/1 756/8/1
f 757/9/1 758/10/1 759/11/1 760/12/1
f 761/13/1 762/14/1 763/15/1 764/16/1
f 765/17/1 766/18/1 767/19/1 768/20/1
f 769/21/1 770/22/1 771/23/1 772/24/1
f 773/49/1 774/50/1 775/51/1 776/52/1
f 777/53/1 778/54/1 779/55/1 780/56/1
f 781/57/1 782/58/1 783/59/1 784/60/1
f 785/61/1 786/62/1 787/63/1 788/64/1
f 789/49/1 790/50/1 791/51/1 792/52/1
f 793/53/1 794/54/1 795/55/1 796/56/1
f 797/57/1 798/58/1 799/59/1 800/60/1
f 801/61/1 802/62/1 803/63/1 804/64/1

