# Tiled2Unity generated file. Do not modify by hand.
# Wavefront file for 'Robinsons_mesh_0003.obj'

# Vertices (Count = 8)
v -43 -13 0
v -44 -13 0
v -44 -12 0
v -43 -12 0
v -42 -13 0
v -43 -13 0
v -43 -12 0
v -42 -12 0

# Texture cooridinates (Count = 8)
vt 0.1249595 0.5278999
vt 0.1455216 0.5278999
vt 0.1455216 0.5554335
vt 0.1249595 0.5554335
vt 0.1041533 0.5278999
vt 0.1247154 0.5278999
vt 0.1247154 0.5554335
vt 0.1041533 0.5554335

# Normal
vn 0 0 -1

# Mesh description
g Robinsons_mesh_0003

# Faces
f 1/1/1 2/2/1 3/3/1 4/4/1
f 5/5/1 6/6/1 7/7/1 8/8/1

