# Tiled2Unity generated file. Do not modify by hand.
# Wavefront file for 'Robinsons_mesh_0008.obj'

# Vertices (Count = 272)
v -53 -2 0
v -54 -2 0
v -54 -1 0
v -53 -1 0
v -52 -2 0
v -53 -2 0
v -53 -1 0
v -52 -1 0
v -53 -3 0
v -54 -3 0
v -54 -2 0
v -53 -2 0
v -52 -3 0
v -53 -3 0
v -53 -2 0
v -52 -2 0
v -51 -4 0
v -52 -4 0
v -52 -3 0
v -51 -3 0
v -50 -4 0
v -51 -4 0
v -51 -3 0
v -50 -3 0
v -51 -5 0
v -52 -5 0
v -52 -4 0
v -51 -4 0
v -50 -5 0
v -51 -5 0
v -51 -4 0
v -50 -4 0
v -54 -9 0
v -55 -9 0
v -55 -8 0
v -54 -8 0
v -53 -9 0
v -54 -9 0
v -54 -8 0
v -53 -8 0
v -54 -10 0
v -55 -10 0
v -55 -9 0
v -54 -9 0
v -53 -10 0
v -54 -10 0
v -54 -9 0
v -53 -9 0
v -8 -18 0
v -9 -18 0
v -9 -17 0
v -8 -17 0
v -7 -18 0
v -8 -18 0
v -8 -17 0
v -7 -17 0
v -8 -19 0
v -9 -19 0
v -9 -18 0
v -8 -18 0
v -7 -19 0
v -8 -19 0
v -8 -18 0
v -7 -18 0
v -27 -20 0
v -28 -20 0
v -28 -19 0
v -27 -19 0
v -26 -20 0
v -27 -20 0
v -27 -19 0
v -26 -19 0
v -21 -20 0
v -22 -20 0
v -22 -19 0
v -21 -19 0
v -20 -20 0
v -21 -20 0
v -21 -19 0
v -20 -19 0
v -27 -21 0
v -28 -21 0
v -28 -20 0
v -27 -20 0
v -26 -21 0
v -27 -21 0
v -27 -20 0
v -26 -20 0
v -21 -21 0
v -22 -21 0
v -22 -20 0
v -21 -20 0
v -20 -21 0
v -21 -21 0
v -21 -20 0
v -20 -20 0
v -23 -22 0
v -24 -22 0
v -24 -21 0
v -23 -21 0
v -22 -22 0
v -23 -22 0
v -23 -21 0
v -22 -21 0
v -23 -23 0
v -24 -23 0
v -24 -22 0
v -23 -22 0
v -22 -23 0
v -23 -23 0
v -23 -22 0
v -22 -22 0
v -9 -25 0
v -10 -25 0
v -10 -24 0
v -9 -24 0
v -8 -25 0
v -9 -25 0
v -9 -24 0
v -8 -24 0
v -11 -26 0
v -12 -26 0
v -12 -25 0
v -11 -25 0
v -10 -26 0
v -11 -26 0
v -11 -25 0
v -10 -25 0
v -9 -26 0
v -10 -26 0
v -10 -25 0
v -9 -25 0
v -8 -26 0
v -9 -26 0
v -9 -25 0
v -8 -25 0
v -11 -27 0
v -12 -27 0
v -12 -26 0
v -11 -26 0
v -10 -27 0
v -11 -27 0
v -11 -26 0
v -10 -26 0
v -58 -41 0
v -59 -41 0
v -59 -40 0
v -58 -40 0
v -57 -41 0
v -58 -41 0
v -58 -40 0
v -57 -40 0
v -58 -42 0
v -59 -42 0
v -59 -41 0
v -58 -41 0
v -57 -42 0
v -58 -42 0
v -58 -41 0
v -57 -41 0
v -18 -42 0
v -19 -42 0
v -19 -41 0
v -18 -41 0
v -17 -42 0
v -18 -42 0
v -18 -41 0
v -17 -41 0
v -18 -43 0
v -19 -43 0
v -19 -42 0
v -18 -42 0
v -17 -43 0
v -18 -43 0
v -18 -42 0
v -17 -42 0
v -4 -43 0
v -5 -43 0
v -5 -42 0
v -4 -42 0
v -3 -43 0
v -4 -43 0
v -4 -42 0
v -3 -42 0
v -56 -44 0
v -57 -44 0
v -57 -43 0
v -56 -43 0
v -55 -44 0
v -56 -44 0
v -56 -43 0
v -55 -43 0
v -4 -44 0
v -5 -44 0
v -5 -43 0
v -4 -43 0
v -3 -44 0
v -4 -44 0
v -4 -43 0
v -3 -43 0
v -56 -45 0
v -57 -45 0
v -57 -44 0
v -56 -44 0
v -55 -45 0
v -56 -45 0
v -56 -44 0
v -55 -44 0
v -54 -45 0
v -55 -45 0
v -55 -44 0
v -54 -44 0
v -53 -45 0
v -54 -45 0
v -54 -44 0
v -53 -44 0
v -50 -45 0
v -51 -45 0
v -51 -44 0
v -50 -44 0
v -49 -45 0
v -50 -45 0
v -50 -44 0
v -49 -44 0
v -12 -45 0
v -13 -45 0
v -13 -44 0
v -12 -44 0
v -11 -45 0
v -12 -45 0
v -12 -44 0
v -11 -44 0
v -54 -46 0
v -55 -46 0
v -55 -45 0
v -54 -45 0
v -53 -46 0
v -54 -46 0
v -54 -45 0
v -53 -45 0
v -50 -46 0
v -51 -46 0
v -51 -45 0
v -50 -45 0
v -49 -46 0
v -50 -46 0
v -50 -45 0
v -49 -45 0
v -12 -46 0
v -13 -46 0
v -13 -45 0
v -12 -45 0
v -11 -46 0
v -12 -46 0
v -12 -45 0
v -11 -45 0
v -12 -48 0
v -13 -48 0
v -13 -47 0
v -12 -47 0
v -11 -48 0
v -12 -48 0
v -12 -47 0
v -11 -47 0
v -12 -49 0
v -13 -49 0
v -13 -48 0
v -12 -48 0
v -11 -49 0
v -12 -49 0
v -12 -48 0
v -11 -48 0

# Texture cooridinates (Count = 9)
vt 0.1248375 0.5277778
vt 0.1456437 0.5277778
vt 0.1456437 0.5555556
vt 0.1248375 0.5555556
vt 0.1040312 0.5277778
vt 0.1040312 0.5555556
vt 0.1248375 0.5
vt 0.1456437 0.5
vt 0.1040312 0.5

# Normal
vn 0 0 -1

# Mesh description
g Robinsons_mesh_0008

# Faces
f 1/1/1 2/2/1 3/3/1 4/4/1
f 5/5/1 6/1/1 7/4/1 8/6/1
f 9/7/1 10/8/1 11/2/1 12/1/1
f 13/9/1 14/7/1 15/1/1 16/5/1
f 17/1/1 18/2/1 19/3/1 20/4/1
f 21/5/1 22/1/1 23/4/1 24/6/1
f 25/7/1 26/8/1 27/2/1 28/1/1
f 29/9/1 30/7/1 31/1/1 32/5/1
f 33/1/1 34/2/1 35/3/1 36/4/1
f 37/5/1 38/1/1 39/4/1 40/6/1
f 41/7/1 42/8/1 43/2/1 44/1/1
f 45/9/1 46/7/1 47/1/1 48/5/1
f 49/1/1 50/2/1 51/3/1 52/4/1
f 53/5/1 54/1/1 55/4/1 56/6/1
f 57/7/1 58/8/1 59/2/1 60/1/1
f 61/9/1 62/7/1 63/1/1 64/5/1
f 65/1/1 66/2/1 67/3/1 68/4/1
f 69/5/1 70/1/1 71/4/1 72/6/1
f 73/1/1 74/2/1 75/3/1 76/4/1
f 77/5/1 78/1/1 79/4/1 80/6/1
f 81/7/1 82/8/1 83/2/1 84/1/1
f 85/9/1 86/7/1 87/1/1 88/5/1
f 89/7/1 90/8/1 91/2/1 92/1/1
f 93/9/1 94/7/1 95/1/1 96/5/1
f 97/1/1 98/2/1 99/3/1 100/4/1
f 101/5/1 102/1/1 103/4/1 104/6/1
f 105/7/1 106/8/1 107/2/1 108/1/1
f 109/9/1 110/7/1 111/1/1 112/5/1
f 113/1/1 114/2/1 115/3/1 116/4/1
f 117/5/1 118/1/1 119/4/1 120/6/1
f 121/1/1 122/2/1 123/3/1 124/4/1
f 125/5/1 126/1/1 127/4/1 128/6/1
f 129/7/1 130/8/1 131/2/1 132/1/1
f 133/9/1 134/7/1 135/1/1 136/5/1
f 137/7/1 138/8/1 139/2/1 140/1/1
f 141/9/1 142/7/1 143/1/1 144/5/1
f 145/1/1 146/2/1 147/3/1 148/4/1
f 149/5/1 150/1/1 151/4/1 152/6/1
f 153/7/1 154/8/1 155/2/1 156/1/1
f 157/9/1 158/7/1 159/1/1 160/5/1
f 161/1/1 162/2/1 163/3/1 164/4/1
f 165/5/1 166/1/1 167/4/1 168/6/1
f 169/7/1 170/8/1 171/2/1 172/1/1
f 173/9/1 174/7/1 175/1/1 176/5/1
f 177/1/1 178/2/1 179/3/1 180/4/1
f 181/5/1 182/1/1 183/4/1 184/6/1
f 185/1/1 186/2/1 187/3/1 188/4/1
f 189/5/1 190/1/1 191/4/1 192/6/1
f 193/7/1 194/8/1 195/2/1 196/1/1
f 197/9/1 198/7/1 199/1/1 200/5/1
f 201/7/1 202/8/1 203/2/1 204/1/1
f 205/9/1 206/7/1 207/1/1 208/5/1
f 209/1/1 210/2/1 211/3/1 212/4/1
f 213/5/1 214/1/1 215/4/1 216/6/1
f 217/1/1 218/2/1 219/3/1 220/4/1
f 221/5/1 222/1/1 223/4/1 224/6/1
f 225/1/1 226/2/1 227/3/1 228/4/1
f 229/5/1 230/1/1 231/4/1 232/6/1
f 233/7/1 234/8/1 235/2/1 236/1/1
f 237/9/1 238/7/1 239/1/1 240/5/1
f 241/7/1 242/8/1 243/2/1 244/1/1
f 245/9/1 246/7/1 247/1/1 248/5/1
f 249/7/1 250/8/1 251/2/1 252/1/1
f 253/9/1 254/7/1 255/1/1 256/5/1
f 257/1/1 258/2/1 259/3/1 260/4/1
f 261/5/1 262/1/1 263/4/1 264/6/1
f 265/7/1 266/8/1 267/2/1 268/1/1
f 269/9/1 270/7/1 271/1/1 272/5/1

