# Tiled2Unity generated file. Do not modify by hand.
# Wavefront file for 'BarangayMaugExtension_mesh_0005.obj'

# Vertices (Count = 528)
v -2 -4 0
v -3 -4 0
v -3 -3 0
v -2 -3 0
v -3 -4 0
v -4 -4 0
v -4 -3 0
v -3 -3 0
v -4 -4 0
v -5 -4 0
v -5 -3 0
v -4 -3 0
v -2 -5 0
v -3 -5 0
v -3 -4 0
v -2 -4 0
v -3 -5 0
v -4 -5 0
v -4 -4 0
v -3 -4 0
v -4 -5 0
v -5 -5 0
v -5 -4 0
v -4 -4 0
v -5 -5 0
v -6 -5 0
v -6 -4 0
v -5 -4 0
v -3 -6 0
v -4 -6 0
v -4 -5 0
v -3 -5 0
v -4 -6 0
v -5 -6 0
v -5 -5 0
v -4 -5 0
v -5 -6 0
v -6 -6 0
v -6 -5 0
v -5 -5 0
v -3 -7 0
v -4 -7 0
v -4 -6 0
v -3 -6 0
v -4 -7 0
v -5 -7 0
v -5 -6 0
v -4 -6 0
v -5 -7 0
v -6 -7 0
v -6 -6 0
v -5 -6 0
v -16 -8 0
v -17 -8 0
v -17 -7 0
v -16 -7 0
v -17 -8 0
v -18 -8 0
v -18 -7 0
v -17 -7 0
v -18 -8 0
v -19 -8 0
v -19 -7 0
v -18 -7 0
v -19 -8 0
v -20 -8 0
v -20 -7 0
v -19 -7 0
v -20 -8 0
v -21 -8 0
v -21 -7 0
v -20 -7 0
v -21 -8 0
v -22 -8 0
v -22 -7 0
v -21 -7 0
v -22 -8 0
v -23 -8 0
v -23 -7 0
v -22 -7 0
v -1 -11 0
v -2 -11 0
v -2 -10 0
v -1 -10 0
v -2 -11 0
v -3 -11 0
v -3 -10 0
v -2 -10 0
v -3 -11 0
v -4 -11 0
v -4 -10 0
v -3 -10 0
v -4 -11 0
v -5 -11 0
v -5 -10 0
v -4 -10 0
v -1 -12 0
v -2 -12 0
v -2 -11 0
v -1 -11 0
v -2 -12 0
v -3 -12 0
v -3 -11 0
v -2 -11 0
v -3 -12 0
v -4 -12 0
v -4 -11 0
v -3 -11 0
v -4 -12 0
v -5 -12 0
v -5 -11 0
v -4 -11 0
v -1 -13 0
v -2 -13 0
v -2 -12 0
v -1 -12 0
v -2 -13 0
v -3 -13 0
v -3 -12 0
v -2 -12 0
v -3 -13 0
v -4 -13 0
v -4 -12 0
v -3 -12 0
v -4 -13 0
v -5 -13 0
v -5 -12 0
v -4 -12 0
v -10 -15 0
v -11 -15 0
v -11 -14 0
v -10 -14 0
v -11 -15 0
v -12 -15 0
v -12 -14 0
v -11 -14 0
v -7 -21 0
v -8 -21 0
v -8 -20 0
v -7 -20 0
v -8 -21 0
v -9 -21 0
v -9 -20 0
v -8 -20 0
v -7 -22 0
v -8 -22 0
v -8 -21 0
v -7 -21 0
v -8 -22 0
v -9 -22 0
v -9 -21 0
v -8 -21 0
v -27 -23 0
v -28 -23 0
v -28 -22 0
v -27 -22 0
v -28 -23 0
v -29 -23 0
v -29 -22 0
v -28 -22 0
v -29 -23 0
v -30 -23 0
v -30 -22 0
v -29 -22 0
v -30 -23 0
v -31 -23 0
v -31 -22 0
v -30 -22 0
v -27 -24 0
v -28 -24 0
v -28 -23 0
v -27 -23 0
v -28 -24 0
v -29 -24 0
v -29 -23 0
v -28 -23 0
v -29 -24 0
v -30 -24 0
v -30 -23 0
v -29 -23 0
v -30 -24 0
v -31 -24 0
v -31 -23 0
v -30 -23 0
v -27 -25 0
v -28 -25 0
v -28 -24 0
v -27 -24 0
v -28 -25 0
v -29 -25 0
v -29 -24 0
v -28 -24 0
v -29 -25 0
v -30 -25 0
v -30 -24 0
v -29 -24 0
v -30 -25 0
v -31 -25 0
v -31 -24 0
v -30 -24 0
v -26 -28 0
v -27 -28 0
v -27 -27 0
v -26 -27 0
v -27 -28 0
v -28 -28 0
v -28 -27 0
v -27 -27 0
v -33 -28 0
v -34 -28 0
v -34 -27 0
v -33 -27 0
v -34 -28 0
v -35 -28 0
v -35 -27 0
v -34 -27 0
v -35 -28 0
v -36 -28 0
v -36 -27 0
v -35 -27 0
v -36 -28 0
v -37 -28 0
v -37 -27 0
v -36 -27 0
v -22 -29 0
v -23 -29 0
v -23 -28 0
v -22 -28 0
v -26 -29 0
v -27 -29 0
v -27 -28 0
v -26 -28 0
v -27 -29 0
v -28 -29 0
v -28 -28 0
v -27 -28 0
v -33 -29 0
v -34 -29 0
v -34 -28 0
v -33 -28 0
v -34 -29 0
v -35 -29 0
v -35 -28 0
v -34 -28 0
v -35 -29 0
v -36 -29 0
v -36 -28 0
v -35 -28 0
v -36 -29 0
v -37 -29 0
v -37 -28 0
v -36 -28 0
v -22 -30 0
v -23 -30 0
v -23 -29 0
v -22 -29 0
v -33 -30 0
v -34 -30 0
v -34 -29 0
v -33 -29 0
v -34 -30 0
v -35 -30 0
v -35 -29 0
v -34 -29 0
v -35 -30 0
v -36 -30 0
v -36 -29 0
v -35 -29 0
v -36 -30 0
v -37 -30 0
v -37 -29 0
v -36 -29 0
v -47 -30 0
v -48 -30 0
v -48 -29 0
v -47 -29 0
v -48 -30 0
v -49 -30 0
v -49 -29 0
v -48 -29 0
v -17 -31 0
v -18 -31 0
v -18 -30 0
v -17 -30 0
v -25 -31 0
v -26 -31 0
v -26 -30 0
v -25 -30 0
v -7 -32 0
v -8 -32 0
v -8 -31 0
v -7 -31 0
v -8 -32 0
v -9 -32 0
v -9 -31 0
v -8 -31 0
v -9 -32 0
v -10 -32 0
v -10 -31 0
v -9 -31 0
v -10 -32 0
v -11 -32 0
v -11 -31 0
v -10 -31 0
v -17 -32 0
v -18 -32 0
v -18 -31 0
v -17 -31 0
v -19 -32 0
v -20 -32 0
v -20 -31 0
v -19 -31 0
v -25 -32 0
v -26 -32 0
v -26 -31 0
v -25 -31 0
v -7 -33 0
v -8 -33 0
v -8 -32 0
v -7 -32 0
v -8 -33 0
v -9 -33 0
v -9 -32 0
v -8 -32 0
v -9 -33 0
v -10 -33 0
v -10 -32 0
v -9 -32 0
v -10 -33 0
v -11 -33 0
v -11 -32 0
v -10 -32 0
v -17 -33 0
v -18 -33 0
v -18 -32 0
v -17 -32 0
v -18 -33 0
v -19 -33 0
v -19 -32 0
v -18 -32 0
v -19 -33 0
v -20 -33 0
v -20 -32 0
v -19 -32 0
v -7 -34 0
v -8 -34 0
v -8 -33 0
v -7 -33 0
v -8 -34 0
v -9 -34 0
v -9 -33 0
v -8 -33 0
v -9 -34 0
v -10 -34 0
v -10 -33 0
v -9 -33 0
v -10 -34 0
v -11 -34 0
v -11 -33 0
v -10 -33 0
v -18 -34 0
v -19 -34 0
v -19 -33 0
v -18 -33 0
v -18 -35 0
v -19 -35 0
v -19 -34 0
v -18 -34 0
v -22 -35 0
v -23 -35 0
v -23 -34 0
v -22 -34 0
v -18 -36 0
v -19 -36 0
v -19 -35 0
v -18 -35 0
v -22 -36 0
v -23 -36 0
v -23 -35 0
v -22 -35 0
v -29 -37 0
v -30 -37 0
v -30 -36 0
v -29 -36 0
v -29 -38 0
v -30 -38 0
v -30 -37 0
v -29 -37 0
v -20 -40 0
v -21 -40 0
v -21 -39 0
v -20 -39 0
v -21 -40 0
v -22 -40 0
v -22 -39 0
v -21 -39 0
v -22 -40 0
v -23 -40 0
v -23 -39 0
v -22 -39 0
v -41 -41 0
v -42 -41 0
v -42 -40 0
v -41 -40 0
v -42 -41 0
v -43 -41 0
v -43 -40 0
v -42 -40 0
v -27 -43 0
v -28 -43 0
v -28 -42 0
v -27 -42 0
v -28 -43 0
v -29 -43 0
v -29 -42 0
v -28 -42 0
v -29 -43 0
v -30 -43 0
v -30 -42 0
v -29 -42 0
v -27 -44 0
v -28 -44 0
v -28 -43 0
v -27 -43 0
v -28 -44 0
v -29 -44 0
v -29 -43 0
v -28 -43 0
v -29 -44 0
v -30 -44 0
v -30 -43 0
v -29 -43 0
v -1 -46 0
v -2 -46 0
v -2 -45 0
v -1 -45 0
v -2 -46 0
v -3 -46 0
v -3 -45 0
v -2 -45 0
v -3 -46 0
v -4 -46 0
v -4 -45 0
v -3 -45 0
v -4 -46 0
v -5 -46 0
v -5 -45 0
v -4 -45 0
v -1 -47 0
v -2 -47 0
v -2 -46 0
v -1 -46 0
v -2 -47 0
v -3 -47 0
v -3 -46 0
v -2 -46 0
v -3 -47 0
v -4 -47 0
v -4 -46 0
v -3 -46 0
v -4 -47 0
v -5 -47 0
v -5 -46 0
v -4 -46 0
v -1 -48 0
v -2 -48 0
v -2 -47 0
v -1 -47 0
v -2 -48 0
v -3 -48 0
v -3 -47 0
v -2 -47 0
v -3 -48 0
v -4 -48 0
v -4 -47 0
v -3 -47 0
v -4 -48 0
v -5 -48 0
v -5 -47 0
v -4 -47 0
v -21 -48 0
v -22 -48 0
v -22 -47 0
v -21 -47 0
v -22 -48 0
v -23 -48 0
v -23 -47 0
v -22 -47 0
v -28 -48 0
v -29 -48 0
v -29 -47 0
v -28 -47 0
v -29 -48 0
v -30 -48 0
v -30 -47 0
v -29 -47 0
v -38 -48 0
v -39 -48 0
v -39 -47 0
v -38 -47 0
v -39 -48 0
v -40 -48 0
v -40 -47 0
v -39 -47 0
v -1 -49 0
v -2 -49 0
v -2 -48 0
v -1 -48 0
v -2 -49 0
v -3 -49 0
v -3 -48 0
v -2 -48 0
v -21 -49 0
v -22 -49 0
v -22 -48 0
v -21 -48 0
v -22 -49 0
v -23 -49 0
v -23 -48 0
v -22 -48 0
v -38 -49 0
v -39 -49 0
v -39 -48 0
v -38 -48 0
v -39 -49 0
v -40 -49 0
v -40 -48 0
v -39 -48 0

# Texture cooridinates (Count = 76)
vt 0.06241873 0.6666666
vt 0.08322497 0.6666666
vt 0.08322497 0.6944444
vt 0.06241873 0.6944444
vt 0.06241873 0.6388889
vt 0.08322497 0.6388889
vt 0.02080624 0.5
vt 0.04161248 0.5
vt 0.04161248 0.5277778
vt 0.02080624 0.5277778
vt 0 0.08333331
vt 0.02080624 0.08333331
vt 0.02080624 0.1111111
vt 0 0.1111111
vt 0.04161248 0.08333331
vt 0.04161248 0.1111111
vt 0.06241873 0.08333331
vt 0.06241873 0.1111111
vt 0.08322497 0.08333331
vt 0.08322497 0.1111111
vt 0 0.05555558
vt 0.02080624 0.05555558
vt 0.04161248 0.05555558
vt 0.06241873 0.05555558
vt 0.08322497 0.05555558
vt 0 0.02777779
vt 0.02080624 0.02777779
vt 0.04161248 0.02777779
vt 0.06241873 0.02777779
vt 0.08322497 0.02777779
vt 0.1040312 0.5277778
vt 0.1248375 0.5277778
vt 0.1248375 0.5555556
vt 0.1040312 0.5555556
vt 0.1456437 0.5277778
vt 0.1456437 0.5555556
vt 0.08322497 0.9444444
vt 0.1040312 0.9444444
vt 0.1040312 0.9722222
vt 0.08322497 0.9722222
vt 0.1248375 0.9444444
vt 0.1248375 0.9722222
vt 0.08322497 0.9166667
vt 0.1040312 0.9166667
vt 0.1248375 0.9166667
vt 0.06241873 0.8333333
vt 0.08322497 0.8333333
vt 0.08322497 0.8611111
vt 0.06241873 0.8611111
vt 0.1040312 0.8333333
vt 0.1040312 0.8611111
vt 0.1248375 0.8333333
vt 0.1248375 0.8611111
vt 0.2912874 0.1666667
vt 0.3120936 0.1666667
vt 0.3120936 0.1944444
vt 0.2912874 0.1944444
vt 0.3328999 0.1666667
vt 0.3328999 0.1944444
vt 0.3537061 0.1666667
vt 0.3537061 0.1944444
vt 0.3745123 0.1666667
vt 0.3745123 0.1944444
vt 0.2912874 0.1388889
vt 0.3120936 0.1388889
vt 0.3328999 0.1388889
vt 0.3537061 0.1388889
vt 0.3745123 0.1388889
vt 0.2912874 0.1111111
vt 0.3120936 0.1111111
vt 0.3328999 0.1111111
vt 0.3537061 0.1111111
vt 0.3745123 0.1111111
vt 0.2912874 0.08333331
vt 0.3120936 0.08333331
vt 0.3328999 0.08333331

# Normal
vn 0 0 -1

# Mesh description
g BarangayMaugExtension_mesh_0005

# Faces
f 1/1/1 2/2/1 3/3/1 4/4/1
f 5/1/1 6/2/1 7/3/1 8/4/1
f 9/1/1 10/2/1 11/3/1 12/4/1
f 13/5/1 14/6/1 15/2/1 16/1/1
f 17/5/1 18/6/1 19/2/1 20/1/1
f 21/1/1 22/2/1 23/3/1 24/4/1
f 25/1/1 26/2/1 27/3/1 28/4/1
f 29/1/1 30/2/1 31/3/1 32/4/1
f 33/1/1 34/2/1 35/3/1 36/4/1
f 37/1/1 38/2/1 39/3/1 40/4/1
f 41/5/1 42/6/1 43/2/1 44/1/1
f 45/5/1 46/6/1 47/2/1 48/1/1
f 49/5/1 50/6/1 51/2/1 52/1/1
f 53/7/1 54/8/1 55/9/1 56/10/1
f 57/7/1 58/8/1 59/9/1 60/10/1
f 61/7/1 62/8/1 63/9/1 64/10/1
f 65/7/1 66/8/1 67/9/1 68/10/1
f 69/7/1 70/8/1 71/9/1 72/10/1
f 73/7/1 74/8/1 75/9/1 76/10/1
f 77/7/1 78/8/1 79/9/1 80/10/1
f 81/11/1 82/12/1 83/13/1 84/14/1
f 85/12/1 86/15/1 87/16/1 88/13/1
f 89/15/1 90/17/1 91/18/1 92/16/1
f 93/17/1 94/19/1 95/20/1 96/18/1
f 97/21/1 98/22/1 99/12/1 100/11/1
f 101/22/1 102/23/1 103/15/1 104/12/1
f 105/23/1 106/24/1 107/17/1 108/15/1
f 109/24/1 110/25/1 111/19/1 112/17/1
f 113/26/1 114/27/1 115/22/1 116/21/1
f 117/27/1 118/28/1 119/23/1 120/22/1
f 121/28/1 122/29/1 123/24/1 124/23/1
f 125/29/1 126/30/1 127/25/1 128/24/1
f 129/31/1 130/32/1 131/33/1 132/34/1
f 133/32/1 134/35/1 135/36/1 136/33/1
f 137/37/1 138/38/1 139/39/1 140/40/1
f 141/38/1 142/41/1 143/42/1 144/39/1
f 145/43/1 146/44/1 147/38/1 148/37/1
f 149/44/1 150/45/1 151/41/1 152/38/1
f 153/11/1 154/12/1 155/13/1 156/14/1
f 157/12/1 158/15/1 159/16/1 160/13/1
f 161/15/1 162/17/1 163/18/1 164/16/1
f 165/17/1 166/19/1 167/20/1 168/18/1
f 169/21/1 170/22/1 171/12/1 172/11/1
f 173/22/1 174/23/1 175/15/1 176/12/1
f 177/23/1 178/24/1 179/17/1 180/15/1
f 181/24/1 182/25/1 183/19/1 184/17/1
f 185/26/1 186/27/1 187/22/1 188/21/1
f 189/27/1 190/28/1 191/23/1 192/22/1
f 193/28/1 194/29/1 195/24/1 196/23/1
f 197/29/1 198/30/1 199/25/1 200/24/1
f 201/1/1 202/2/1 203/3/1 204/4/1
f 205/1/1 206/2/1 207/3/1 208/4/1
f 209/11/1 210/12/1 211/13/1 212/14/1
f 213/12/1 214/15/1 215/16/1 216/13/1
f 217/15/1 218/17/1 219/18/1 220/16/1
f 221/17/1 222/19/1 223/20/1 224/18/1
f 225/1/1 226/2/1 227/3/1 228/4/1
f 229/5/1 230/6/1 231/2/1 232/1/1
f 233/5/1 234/6/1 235/2/1 236/1/1
f 237/21/1 238/22/1 239/12/1 240/11/1
f 241/22/1 242/23/1 243/15/1 244/12/1
f 245/23/1 246/24/1 247/17/1 248/15/1
f 249/24/1 250/25/1 251/19/1 252/17/1
f 253/5/1 254/6/1 255/2/1 256/1/1
f 257/26/1 258/27/1 259/22/1 260/21/1
f 261/27/1 262/28/1 263/23/1 264/22/1
f 265/28/1 266/29/1 267/24/1 268/23/1
f 269/29/1 270/30/1 271/25/1 272/24/1
f 273/31/1 274/32/1 275/33/1 276/34/1
f 277/32/1 278/35/1 279/36/1 280/33/1
f 281/1/1 282/2/1 283/3/1 284/4/1
f 285/1/1 286/2/1 287/3/1 288/4/1
f 289/11/1 290/12/1 291/13/1 292/14/1
f 293/12/1 294/15/1 295/16/1 296/13/1
f 297/15/1 298/17/1 299/18/1 300/16/1
f 301/17/1 302/19/1 303/20/1 304/18/1
f 305/1/1 306/2/1 307/3/1 308/4/1
f 309/1/1 310/2/1 311/3/1 312/4/1
f 313/5/1 314/6/1 315/2/1 316/1/1
f 317/21/1 318/22/1 319/12/1 320/11/1
f 321/22/1 322/23/1 323/15/1 324/12/1
f 325/23/1 326/24/1 327/17/1 328/15/1
f 329/24/1 330/25/1 331/19/1 332/17/1
f 333/5/1 334/6/1 335/2/1 336/1/1
f 337/1/1 338/2/1 339/3/1 340/4/1
f 341/5/1 342/6/1 343/2/1 344/1/1
f 345/26/1 346/27/1 347/22/1 348/21/1
f 349/27/1 350/28/1 351/23/1 352/22/1
f 353/28/1 354/29/1 355/24/1 356/23/1
f 357/29/1 358/30/1 359/25/1 360/24/1
f 361/1/1 362/2/1 363/3/1 364/4/1
f 365/1/1 366/2/1 367/3/1 368/4/1
f 369/1/1 370/2/1 371/3/1 372/4/1
f 373/5/1 374/6/1 375/2/1 376/1/1
f 377/5/1 378/6/1 379/2/1 380/1/1
f 381/1/1 382/2/1 383/3/1 384/4/1
f 385/5/1 386/6/1 387/2/1 388/1/1
f 389/46/1 390/47/1 391/48/1 392/49/1
f 393/47/1 394/50/1 395/51/1 396/48/1
f 397/50/1 398/52/1 399/53/1 400/51/1
f 401/31/1 402/32/1 403/33/1 404/34/1
f 405/32/1 406/35/1 407/36/1 408/33/1
f 409/46/1 410/47/1 411/48/1 412/49/1
f 413/47/1 414/50/1 415/51/1 416/48/1
f 417/50/1 418/52/1 419/53/1 420/51/1
f 421/46/1 422/47/1 423/48/1 424/49/1
f 425/47/1 426/50/1 427/51/1 428/48/1
f 429/50/1 430/52/1 431/53/1 432/51/1
f 433/54/1 434/55/1 435/56/1 436/57/1
f 437/55/1 438/58/1 439/59/1 440/56/1
f 441/58/1 442/60/1 443/61/1 444/59/1
f 445/60/1 446/62/1 447/63/1 448/61/1
f 449/64/1 450/65/1 451/55/1 452/54/1
f 453/65/1 454/66/1 455/58/1 456/55/1
f 457/66/1 458/67/1 459/60/1 460/58/1
f 461/67/1 462/68/1 463/62/1 464/60/1
f 465/69/1 466/70/1 467/65/1 468/64/1
f 469/70/1 470/71/1 471/66/1 472/65/1
f 473/71/1 474/72/1 475/67/1 476/66/1
f 477/72/1 478/73/1 479/68/1 480/67/1
f 481/37/1 482/38/1 483/39/1 484/40/1
f 485/38/1 486/41/1 487/42/1 488/39/1
f 489/31/1 490/32/1 491/33/1 492/34/1
f 493/32/1 494/35/1 495/36/1 496/33/1
f 497/37/1 498/38/1 499/39/1 500/40/1
f 501/38/1 502/41/1 503/42/1 504/39/1
f 505/74/1 506/75/1 507/70/1 508/69/1
f 509/75/1 510/76/1 511/71/1 512/70/1
f 513/43/1 514/44/1 515/38/1 516/37/1
f 517/44/1 518/45/1 519/41/1 520/38/1
f 521/43/1 522/44/1 523/38/1 524/37/1
f 525/44/1 526/45/1 527/41/1 528/38/1

