# Tiled2Unity generated file. Do not modify by hand.
# Wavefront file for 'DiegoSilangUpper_mesh_0007.obj'

# Vertices (Count = 48)
v -9 -3 0
v -10 -3 0
v -10 -2 0
v -9 -2 0
v -8 -3 0
v -9 -3 0
v -9 -2 0
v -8 -2 0
v -7 -3 0
v -8 -3 0
v -8 -2 0
v -7 -2 0
v -6 -3 0
v -7 -3 0
v -7 -2 0
v -6 -2 0
v -21 -6 0
v -22 -6 0
v -22 -5 0
v -21 -5 0
v -20 -6 0
v -21 -6 0
v -21 -5 0
v -20 -5 0
v -19 -6 0
v -20 -6 0
v -20 -5 0
v -19 -5 0
v -18 -6 0
v -19 -6 0
v -19 -5 0
v -18 -5 0
v -10 -50 0
v -11 -50 0
v -11 -49 0
v -10 -49 0
v -9 -50 0
v -10 -50 0
v -10 -49 0
v -9 -49 0
v -10 -51 0
v -11 -51 0
v -11 -50 0
v -10 -50 0
v -9 -51 0
v -10 -51 0
v -10 -50 0
v -9 -50 0

# Texture cooridinates (Count = 32)
vt 0.3538282 0.08345538
vt 0.3743903 0.08345538
vt 0.3743903 0.110989
vt 0.3538282 0.110989
vt 0.3330219 0.08345538
vt 0.3535841 0.08345538
vt 0.3535841 0.110989
vt 0.3330219 0.110989
vt 0.3122157 0.08345538
vt 0.3327778 0.08345538
vt 0.3327778 0.110989
vt 0.3122157 0.110989
vt 0.2914095 0.08345538
vt 0.3119715 0.08345538
vt 0.3119715 0.110989
vt 0.2914095 0.110989
vt 0.2706032 0.889011
vt 0.2911653 0.889011
vt 0.2911653 0.9165446
vt 0.2706032 0.9165446
vt 0.249797 0.889011
vt 0.2703591 0.889011
vt 0.2703591 0.9165446
vt 0.249797 0.9165446
vt 0.2706032 0.8612332
vt 0.2911653 0.8612332
vt 0.2911653 0.8887668
vt 0.2706032 0.8887668
vt 0.249797 0.8612332
vt 0.2703591 0.8612332
vt 0.2703591 0.8887668
vt 0.249797 0.8887668

# Normal
vn 0 0 -1

# Mesh description
g DiegoSilangUpper_mesh_0007

# Faces
f 1/1/1 2/2/1 3/3/1 4/4/1
f 5/5/1 6/6/1 7/7/1 8/8/1
f 9/9/1 10/10/1 11/11/1 12/12/1
f 13/13/1 14/14/1 15/15/1 16/16/1
f 17/1/1 18/2/1 19/3/1 20/4/1
f 21/5/1 22/6/1 23/7/1 24/8/1
f 25/9/1 26/10/1 27/11/1 28/12/1
f 29/13/1 30/14/1 31/15/1 32/16/1
f 33/17/1 34/18/1 35/19/1 36/20/1
f 37/21/1 38/22/1 39/23/1 40/24/1
f 41/25/1 42/26/1 43/27/1 44/28/1
f 45/29/1 46/30/1 47/31/1 48/32/1

