# Tiled2Unity generated file. Do not modify by hand.
# Wavefront file for 'BSP_mesh_0008.obj'

# Vertices (Count = 48)
v -38 -13 0
v -39 -13 0
v -39 -12 0
v -38 -12 0
v -37 -13 0
v -38 -13 0
v -38 -12 0
v -37 -12 0
v -36 -13 0
v -37 -13 0
v -37 -12 0
v -36 -12 0
v -35 -13 0
v -36 -13 0
v -36 -12 0
v -35 -12 0
v -34 -13 0
v -35 -13 0
v -35 -12 0
v -34 -12 0
v -33 -13 0
v -34 -13 0
v -34 -12 0
v -33 -12 0
v -32 -13 0
v -33 -13 0
v -33 -12 0
v -32 -12 0
v -62 -22 0
v -63 -22 0
v -63 -21 0
v -62 -21 0
v -61 -22 0
v -62 -22 0
v -62 -21 0
v -61 -21 0
v -60 -22 0
v -61 -22 0
v -61 -21 0
v -60 -21 0
v -59 -22 0
v -60 -22 0
v -60 -21 0
v -59 -21 0
v -58 -22 0
v -59 -22 0
v -59 -21 0
v -58 -21 0

# Texture cooridinates (Count = 48)
vt 0.3920284 0.26328
vt 0.4088236 0.26328
vt 0.4088236 0.2893516
vt 0.3920284 0.2893516
vt 0.3749889 0.26328
vt 0.3917842 0.26328
vt 0.3917842 0.2893516
vt 0.3749889 0.2893516
vt 0.3579496 0.26328
vt 0.3747448 0.26328
vt 0.3747448 0.2893516
vt 0.3579496 0.2893516
vt 0.3409101 0.26328
vt 0.3577054 0.26328
vt 0.3577054 0.2893516
vt 0.3409101 0.2893516
vt 0.3238707 0.26328
vt 0.340666 0.26328
vt 0.340666 0.2893516
vt 0.3238707 0.2893516
vt 0.3068313 0.26328
vt 0.3236266 0.26328
vt 0.3236266 0.2893516
vt 0.3068313 0.2893516
vt 0.2897919 0.26328
vt 0.3065872 0.26328
vt 0.3065872 0.2893516
vt 0.2897919 0.2893516
vt 0.2557131 0.5790694
vt 0.2725084 0.5790694
vt 0.2725084 0.605141
vt 0.2557131 0.605141
vt 0.2386737 0.5790694
vt 0.255469 0.5790694
vt 0.255469 0.605141
vt 0.2386737 0.605141
vt 0.2216343 0.5790694
vt 0.2384296 0.5790694
vt 0.2384296 0.605141
vt 0.2216343 0.605141
vt 0.2045949 0.5790694
vt 0.2213902 0.5790694
vt 0.2213902 0.605141
vt 0.2045949 0.605141
vt 0.1875555 0.5790694
vt 0.2043508 0.5790694
vt 0.2043508 0.605141
vt 0.1875555 0.605141

# Normal
vn 0 0 -1

# Mesh description
g BSP_mesh_0008

# Faces
f 1/1/1 2/2/1 3/3/1 4/4/1
f 5/5/1 6/6/1 7/7/1 8/8/1
f 9/9/1 10/10/1 11/11/1 12/12/1
f 13/13/1 14/14/1 15/15/1 16/16/1
f 17/17/1 18/18/1 19/19/1 20/20/1
f 21/21/1 22/22/1 23/23/1 24/24/1
f 25/25/1 26/26/1 27/27/1 28/28/1
f 29/29/1 30/30/1 31/31/1 32/32/1
f 33/33/1 34/34/1 35/35/1 36/36/1
f 37/37/1 38/38/1 39/39/1 40/40/1
f 41/41/1 42/42/1 43/43/1 44/44/1
f 45/45/1 46/46/1 47/47/1 48/48/1

