# Tiled2Unity generated file. Do not modify by hand.
# Wavefront file for 'Langihan_mesh_0008.obj'

# Vertices (Count = 24)
v -15 -9 0
v -16 -9 0
v -16 -8 0
v -15 -8 0
v -14 -9 0
v -15 -9 0
v -15 -8 0
v -14 -8 0
v -13 -9 0
v -14 -9 0
v -14 -8 0
v -13 -8 0
v -40 -21 0
v -41 -21 0
v -41 -20 0
v -40 -20 0
v -39 -21 0
v -40 -21 0
v -40 -20 0
v -39 -20 0
v -38 -21 0
v -39 -21 0
v -39 -20 0
v -38 -20 0

# Texture cooridinates (Count = 16)
vt 0.4994719 0.139011
vt 0.520034 0.139011
vt 0.520034 0.1665446
vt 0.4994719 0.1665446
vt 0.4994719 0.1667888
vt 0.520034 0.1667888
vt 0.520034 0.1943223
vt 0.4994719 0.1943223
vt 0.5410843 0.139011
vt 0.5616465 0.139011
vt 0.5616465 0.1665446
vt 0.5410843 0.1665446
vt 0.5202781 0.139011
vt 0.5408402 0.139011
vt 0.5408402 0.1665446
vt 0.5202781 0.1665446

# Normal
vn 0 0 -1

# Mesh description
g Langihan_mesh_0008

# Faces
f 1/1/1 2/2/1 3/3/1 4/4/1
f 5/1/1 6/2/1 7/3/1 8/4/1
f 9/5/1 10/6/1 11/7/1 12/8/1
f 13/1/1 14/2/1 15/3/1 16/4/1
f 17/9/1 18/10/1 19/11/1 20/12/1
f 21/13/1 22/14/1 23/15/1 24/16/1

