# Tiled2Unity generated file. Do not modify by hand.
# Wavefront file for 'Langihan_mesh_0005.obj'

# Vertices (Count = 56)
v -26 -38 0
v -27 -38 0
v -27 -37 0
v -26 -37 0
v -23 -38 0
v -24 -38 0
v -24 -37 0
v -23 -37 0
v -20 -38 0
v -21 -38 0
v -21 -37 0
v -20 -37 0
v -19 -38 0
v -20 -38 0
v -20 -37 0
v -19 -37 0
v -26 -39 0
v -27 -39 0
v -27 -38 0
v -26 -38 0
v -25 -39 0
v -26 -39 0
v -26 -38 0
v -25 -38 0
v -24 -39 0
v -25 -39 0
v -25 -38 0
v -24 -38 0
v -23 -39 0
v -24 -39 0
v -24 -38 0
v -23 -38 0
v -19 -39 0
v -20 -39 0
v -20 -38 0
v -19 -38 0
v -18 -39 0
v -19 -39 0
v -19 -38 0
v -18 -38 0
v -25 -40 0
v -26 -40 0
v -26 -39 0
v -25 -39 0
v -22 -43 0
v -23 -43 0
v -23 -42 0
v -22 -42 0
v -21 -43 0
v -22 -43 0
v -22 -42 0
v -21 -42 0
v -21 -44 0
v -22 -44 0
v -22 -43 0
v -21 -43 0

# Texture cooridinates (Count = 40)
vt 0.2801221 0.319271
vt 0.3198779 0.319271
vt 0.3198779 0.3568519
vt 0.2801221 0.3568519
vt 0.5601221 0.319271
vt 0.599878 0.319271
vt 0.599878 0.3568519
vt 0.5601221 0.3568519
vt 0.6801221 0.2057958
vt 0.719878 0.2057958
vt 0.719878 0.2433767
vt 0.6801221 0.2433767
vt 0.6401221 0.2057958
vt 0.6798779 0.2057958
vt 0.6798779 0.2433767
vt 0.6401221 0.2433767
vt 0.2801221 0.2814459
vt 0.3198779 0.2814459
vt 0.3198779 0.3190269
vt 0.2801221 0.3190269
vt 0.4801221 0.3570961
vt 0.5198779 0.3570961
vt 0.5198779 0.394677
vt 0.4801221 0.394677
vt 0.840122 0.2057958
vt 0.8798779 0.2057958
vt 0.8798779 0.2433767
vt 0.840122 0.2433767
vt 0.8001221 0.2057958
vt 0.8398779 0.2057958
vt 0.8398779 0.2433767
vt 0.8001221 0.2433767
vt 0.4801221 0.319271
vt 0.5198779 0.319271
vt 0.5198779 0.3568519
vt 0.4801221 0.3568519
vt 0.7601221 0.5462214
vt 0.7998779 0.5462214
vt 0.7998779 0.5838023
vt 0.7601221 0.5838023

# Normal
vn 0 0 -1

# Mesh description
g Langihan_mesh_0005

# Faces
f 1/1/1 2/2/1 3/3/1 4/4/1
f 5/5/1 6/6/1 7/7/1 8/8/1
f 9/9/1 10/10/1 11/11/1 12/12/1
f 13/13/1 14/14/1 15/15/1 16/16/1
f 17/17/1 18/18/1 19/19/1 20/20/1
f 21/21/1 22/22/1 23/23/1 24/24/1
f 25/5/1 26/6/1 27/7/1 28/8/1
f 29/5/1 30/6/1 31/7/1 32/8/1
f 33/25/1 34/26/1 35/27/1 36/28/1
f 37/29/1 38/30/1 39/31/1 40/32/1
f 41/33/1 42/34/1 43/35/1 44/36/1
f 45/37/1 46/38/1 47/39/1 48/40/1
f 49/37/1 50/38/1 51/39/1 52/40/1
f 53/37/1 54/38/1 55/39/1 56/40/1

