# Tiled2Unity generated file. Do not modify by hand.
# Wavefront file for 'DetailedCemeteryDT_mesh_0005.obj'

# Vertices (Count = 180)
v -22 -2 0
v -23 -2 0
v -23 -1 0
v -22 -1 0
v -21 -2 0
v -22 -2 0
v -22 -1 0
v -21 -1 0
v -20 -2 0
v -21 -2 0
v -21 -1 0
v -20 -1 0
v -6 -9 0
v -7 -9 0
v -7 -8 0
v -6 -8 0
v -5 -9 0
v -6 -9 0
v -6 -8 0
v -5 -8 0
v -4 -9 0
v -5 -9 0
v -5 -8 0
v -4 -8 0
v -38 -14 0
v -39 -14 0
v -39 -13 0
v -38 -13 0
v -37 -14 0
v -38 -14 0
v -38 -13 0
v -37 -13 0
v -36 -14 0
v -37 -14 0
v -37 -13 0
v -36 -13 0
v -45 -17 0
v -46 -17 0
v -46 -16 0
v -45 -16 0
v -44 -17 0
v -45 -17 0
v -45 -16 0
v -44 -16 0
v -43 -17 0
v -44 -17 0
v -44 -16 0
v -43 -16 0
v -19 -18 0
v -20 -18 0
v -20 -17 0
v -19 -17 0
v -18 -18 0
v -19 -18 0
v -19 -17 0
v -18 -17 0
v -17 -18 0
v -18 -18 0
v -18 -17 0
v -17 -17 0
v -7 -26 0
v -8 -26 0
v -8 -25 0
v -7 -25 0
v -6 -26 0
v -7 -26 0
v -7 -25 0
v -6 -25 0
v -5 -26 0
v -6 -26 0
v -6 -25 0
v -5 -25 0
v -4 -26 0
v -5 -26 0
v -5 -25 0
v -4 -25 0
v -33 -35 0
v -34 -35 0
v -34 -34 0
v -33 -34 0
v -32 -35 0
v -33 -35 0
v -33 -34 0
v -32 -34 0
v -31 -35 0
v -32 -35 0
v -32 -34 0
v -31 -34 0
v -30 -35 0
v -31 -35 0
v -31 -34 0
v -30 -34 0
v -47 -36 0
v -48 -36 0
v -48 -35 0
v -47 -35 0
v -46 -36 0
v -47 -36 0
v -47 -35 0
v -46 -35 0
v -45 -36 0
v -46 -36 0
v -46 -35 0
v -45 -35 0
v -44 -36 0
v -45 -36 0
v -45 -35 0
v -44 -35 0
v -6 -36 0
v -7 -36 0
v -7 -35 0
v -6 -35 0
v -5 -36 0
v -6 -36 0
v -6 -35 0
v -5 -35 0
v -4 -36 0
v -5 -36 0
v -5 -35 0
v -4 -35 0
v -37 -38 0
v -38 -38 0
v -38 -37 0
v -37 -37 0
v -36 -38 0
v -37 -38 0
v -37 -37 0
v -36 -37 0
v -35 -38 0
v -36 -38 0
v -36 -37 0
v -35 -37 0
v -34 -38 0
v -35 -38 0
v -35 -37 0
v -34 -37 0
v -9 -44 0
v -10 -44 0
v -10 -43 0
v -9 -43 0
v -8 -44 0
v -9 -44 0
v -9 -43 0
v -8 -43 0
v -7 -44 0
v -8 -44 0
v -8 -43 0
v -7 -43 0
v -6 -44 0
v -7 -44 0
v -7 -43 0
v -6 -43 0
v -41 -45 0
v -42 -45 0
v -42 -44 0
v -41 -44 0
v -40 -45 0
v -41 -45 0
v -41 -44 0
v -40 -44 0
v -39 -45 0
v -40 -45 0
v -40 -44 0
v -39 -44 0
v -38 -45 0
v -39 -45 0
v -39 -44 0
v -38 -44 0
v -20 -45 0
v -21 -45 0
v -21 -44 0
v -20 -44 0
v -19 -45 0
v -20 -45 0
v -20 -44 0
v -19 -44 0
v -18 -45 0
v -19 -45 0
v -19 -44 0
v -18 -44 0

# Texture cooridinates (Count = 28)
vt 0.2706032 0.05567765
vt 0.2911653 0.05567765
vt 0.2911653 0.08321124
vt 0.2706032 0.08321124
vt 0.249797 0.05567765
vt 0.2703591 0.05567765
vt 0.2703591 0.08321124
vt 0.249797 0.08321124
vt 0.2289907 0.05567765
vt 0.2495528 0.05567765
vt 0.2495528 0.08321124
vt 0.2289907 0.08321124
vt 0.2081845 0.08345538
vt 0.2287466 0.08345538
vt 0.2287466 0.110989
vt 0.2081845 0.110989
vt 0.1873782 0.08345538
vt 0.2079404 0.08345538
vt 0.2079404 0.110989
vt 0.1873782 0.110989
vt 0.166572 0.08345538
vt 0.1871341 0.08345538
vt 0.1871341 0.110989
vt 0.166572 0.110989
vt 0.1457658 0.08345538
vt 0.1663279 0.08345538
vt 0.1663279 0.110989
vt 0.1457658 0.110989

# Normal
vn 0 0 -1

# Mesh description
g DetailedCemeteryDT_mesh_0005

# Faces
f 1/1/1 2/2/1 3/3/1 4/4/1
f 5/5/1 6/6/1 7/7/1 8/8/1
f 9/9/1 10/10/1 11/11/1 12/12/1
f 13/1/1 14/2/1 15/3/1 16/4/1
f 17/5/1 18/6/1 19/7/1 20/8/1
f 21/9/1 22/10/1 23/11/1 24/12/1
f 25/1/1 26/2/1 27/3/1 28/4/1
f 29/5/1 30/6/1 31/7/1 32/8/1
f 33/9/1 34/10/1 35/11/1 36/12/1
f 37/1/1 38/2/1 39/3/1 40/4/1
f 41/5/1 42/6/1 43/7/1 44/8/1
f 45/9/1 46/10/1 47/11/1 48/12/1
f 49/1/1 50/2/1 51/3/1 52/4/1
f 53/5/1 54/6/1 55/7/1 56/8/1
f 57/9/1 58/10/1 59/11/1 60/12/1
f 61/13/1 62/14/1 63/15/1 64/16/1
f 65/17/1 66/18/1 67/19/1 68/20/1
f 69/21/1 70/22/1 71/23/1 72/24/1
f 73/25/1 74/26/1 75/27/1 76/28/1
f 77/13/1 78/14/1 79/15/1 80/16/1
f 81/17/1 82/18/1 83/19/1 84/20/1
f 85/21/1 86/22/1 87/23/1 88/24/1
f 89/25/1 90/26/1 91/27/1 92/28/1
f 93/13/1 94/14/1 95/15/1 96/16/1
f 97/17/1 98/18/1 99/19/1 100/20/1
f 101/21/1 102/22/1 103/23/1 104/24/1
f 105/25/1 106/26/1 107/27/1 108/28/1
f 109/1/1 110/2/1 111/3/1 112/4/1
f 113/5/1 114/6/1 115/7/1 116/8/1
f 117/9/1 118/10/1 119/11/1 120/12/1
f 121/13/1 122/14/1 123/15/1 124/16/1
f 125/17/1 126/18/1 127/19/1 128/20/1
f 129/21/1 130/22/1 131/23/1 132/24/1
f 133/25/1 134/26/1 135/27/1 136/28/1
f 137/13/1 138/14/1 139/15/1 140/16/1
f 141/17/1 142/18/1 143/19/1 144/20/1
f 145/21/1 146/22/1 147/23/1 148/24/1
f 149/25/1 150/26/1 151/27/1 152/28/1
f 153/13/1 154/14/1 155/15/1 156/16/1
f 157/17/1 158/18/1 159/19/1 160/20/1
f 161/21/1 162/22/1 163/23/1 164/24/1
f 165/25/1 166/26/1 167/27/1 168/28/1
f 169/1/1 170/2/1 171/3/1 172/4/1
f 173/5/1 174/6/1 175/7/1 176/8/1
f 177/9/1 178/10/1 179/11/1 180/12/1

