# Tiled2Unity generated file. Do not modify by hand.
# Wavefront file for 'modernMuseum_mesh_0002.obj'

# Vertices (Count = 420)
v -33 -1 0
v -34 -1 0
v -34 0 0
v -33 0 0
v -32 -1 0
v -33 -1 0
v -33 0 0
v -32 0 0
v -31 -1 0
v -32 -1 0
v -32 0 0
v -31 0 0
v -28 -1 0
v -29 -1 0
v -29 0 0
v -28 0 0
v -27 -1 0
v -28 -1 0
v -28 0 0
v -27 0 0
v -26 -1 0
v -27 -1 0
v -27 0 0
v -26 0 0
v -23 -1 0
v -24 -1 0
v -24 0 0
v -23 0 0
v -22 -1 0
v -23 -1 0
v -23 0 0
v -22 0 0
v -21 -1 0
v -22 -1 0
v -22 0 0
v -21 0 0
v -33 -2 0
v -34 -2 0
v -34 -1 0
v -33 -1 0
v -32 -2 0
v -33 -2 0
v -33 -1 0
v -32 -1 0
v -31 -2 0
v -32 -2 0
v -32 -1 0
v -31 -1 0
v -28 -2 0
v -29 -2 0
v -29 -1 0
v -28 -1 0
v -27 -2 0
v -28 -2 0
v -28 -1 0
v -27 -1 0
v -26 -2 0
v -27 -2 0
v -27 -1 0
v -26 -1 0
v -23 -2 0
v -24 -2 0
v -24 -1 0
v -23 -1 0
v -22 -2 0
v -23 -2 0
v -23 -1 0
v -22 -1 0
v -21 -2 0
v -22 -2 0
v -22 -1 0
v -21 -1 0
v -15 -3 0
v -16 -3 0
v -16 -2 0
v -15 -2 0
v -14 -3 0
v -15 -3 0
v -15 -2 0
v -14 -2 0
v -13 -3 0
v -14 -3 0
v -14 -2 0
v -13 -2 0
v -12 -3 0
v -13 -3 0
v -13 -2 0
v -12 -2 0
v -11 -3 0
v -12 -3 0
v -12 -2 0
v -11 -2 0
v -15 -4 0
v -16 -4 0
v -16 -3 0
v -15 -3 0
v -14 -4 0
v -15 -4 0
v -15 -3 0
v -14 -3 0
v -13 -4 0
v -14 -4 0
v -14 -3 0
v -13 -3 0
v -12 -4 0
v -13 -4 0
v -13 -3 0
v -12 -3 0
v -11 -4 0
v -12 -4 0
v -12 -3 0
v -11 -3 0
v -9 -4 0
v -10 -4 0
v -10 -3 0
v -9 -3 0
v -8 -4 0
v -9 -4 0
v -9 -3 0
v -8 -3 0
v -7 -4 0
v -8 -4 0
v -8 -3 0
v -7 -3 0
v -6 -4 0
v -7 -4 0
v -7 -3 0
v -6 -3 0
v -35 -5 0
v -36 -5 0
v -36 -4 0
v -35 -4 0
v -34 -5 0
v -35 -5 0
v -35 -4 0
v -34 -4 0
v -19 -5 0
v -20 -5 0
v -20 -4 0
v -19 -4 0
v -18 -5 0
v -19 -5 0
v -19 -4 0
v -18 -4 0
v -12 -5 0
v -13 -5 0
v -13 -4 0
v -12 -4 0
v -11 -5 0
v -12 -5 0
v -12 -4 0
v -11 -4 0
v -9 -5 0
v -10 -5 0
v -10 -4 0
v -9 -4 0
v -8 -5 0
v -9 -5 0
v -9 -4 0
v -8 -4 0
v -7 -5 0
v -8 -5 0
v -8 -4 0
v -7 -4 0
v -6 -5 0
v -7 -5 0
v -7 -4 0
v -6 -4 0
v -35 -6 0
v -36 -6 0
v -36 -5 0
v -35 -5 0
v -34 -6 0
v -35 -6 0
v -35 -5 0
v -34 -5 0
v -19 -6 0
v -20 -6 0
v -20 -5 0
v -19 -5 0
v -18 -6 0
v -19 -6 0
v -19 -5 0
v -18 -5 0
v -35 -7 0
v -36 -7 0
v -36 -6 0
v -35 -6 0
v -34 -7 0
v -35 -7 0
v -35 -6 0
v -34 -6 0
v -19 -7 0
v -20 -7 0
v -20 -6 0
v -19 -6 0
v -18 -7 0
v -19 -7 0
v -19 -6 0
v -18 -6 0
v -3 -7 0
v -4 -7 0
v -4 -6 0
v -3 -6 0
v -2 -7 0
v -3 -7 0
v -3 -6 0
v -2 -6 0
v -3 -8 0
v -4 -8 0
v -4 -7 0
v -3 -7 0
v -2 -8 0
v -3 -8 0
v -3 -7 0
v -2 -7 0
v -3 -9 0
v -4 -9 0
v -4 -8 0
v -3 -8 0
v -2 -9 0
v -3 -9 0
v -3 -8 0
v -2 -8 0
v -11 -10 0
v -12 -10 0
v -12 -9 0
v -11 -9 0
v -10 -10 0
v -11 -10 0
v -11 -9 0
v -10 -9 0
v -9 -10 0
v -10 -10 0
v -10 -9 0
v -9 -9 0
v -8 -10 0
v -9 -10 0
v -9 -9 0
v -8 -9 0
v -3 -10 0
v -4 -10 0
v -4 -9 0
v -3 -9 0
v -2 -10 0
v -3 -10 0
v -3 -9 0
v -2 -9 0
v -37 -11 0
v -38 -11 0
v -38 -10 0
v -37 -10 0
v -34 -11 0
v -35 -11 0
v -35 -10 0
v -34 -10 0
v -19 -11 0
v -20 -11 0
v -20 -10 0
v -19 -10 0
v -16 -11 0
v -17 -11 0
v -17 -10 0
v -16 -10 0
v -3 -11 0
v -4 -11 0
v -4 -10 0
v -3 -10 0
v -2 -11 0
v -3 -11 0
v -3 -10 0
v -2 -10 0
v -37 -12 0
v -38 -12 0
v -38 -11 0
v -37 -11 0
v -34 -12 0
v -35 -12 0
v -35 -11 0
v -34 -11 0
v -19 -12 0
v -20 -12 0
v -20 -11 0
v -19 -11 0
v -16 -12 0
v -17 -12 0
v -17 -11 0
v -16 -11 0
v -3 -12 0
v -4 -12 0
v -4 -11 0
v -3 -11 0
v -2 -12 0
v -3 -12 0
v -3 -11 0
v -2 -11 0
v -37 -13 0
v -38 -13 0
v -38 -12 0
v -37 -12 0
v -34 -13 0
v -35 -13 0
v -35 -12 0
v -34 -12 0
v -19 -13 0
v -20 -13 0
v -20 -12 0
v -19 -12 0
v -16 -13 0
v -17 -13 0
v -17 -12 0
v -16 -12 0
v -3 -13 0
v -4 -13 0
v -4 -12 0
v -3 -12 0
v -2 -13 0
v -3 -13 0
v -3 -12 0
v -2 -12 0
v -14 -14 0
v -15 -14 0
v -15 -13 0
v -14 -13 0
v -13 -14 0
v -14 -14 0
v -14 -13 0
v -13 -13 0
v -8 -14 0
v -9 -14 0
v -9 -13 0
v -8 -13 0
v -3 -14 0
v -4 -14 0
v -4 -13 0
v -3 -13 0
v -14 -15 0
v -15 -15 0
v -15 -14 0
v -14 -14 0
v -12 -15 0
v -13 -15 0
v -13 -14 0
v -12 -14 0
v -11 -15 0
v -12 -15 0
v -12 -14 0
v -11 -14 0
v -10 -15 0
v -11 -15 0
v -11 -14 0
v -10 -14 0
v -9 -15 0
v -10 -15 0
v -10 -14 0
v -9 -14 0
v -8 -15 0
v -9 -15 0
v -9 -14 0
v -8 -14 0
v -7 -15 0
v -8 -15 0
v -8 -14 0
v -7 -14 0
v -6 -15 0
v -7 -15 0
v -7 -14 0
v -6 -14 0
v -5 -15 0
v -6 -15 0
v -6 -14 0
v -5 -14 0
v -4 -15 0
v -5 -15 0
v -5 -14 0
v -4 -14 0
v -12 -16 0
v -13 -16 0
v -13 -15 0
v -12 -15 0
v -11 -16 0
v -12 -16 0
v -12 -15 0
v -11 -15 0
v -10 -16 0
v -11 -16 0
v -11 -15 0
v -10 -15 0
v -9 -16 0
v -10 -16 0
v -10 -15 0
v -9 -15 0
v -7 -16 0
v -8 -16 0
v -8 -15 0
v -7 -15 0
v -6 -16 0
v -7 -16 0
v -7 -15 0
v -6 -15 0
v -5 -16 0
v -6 -16 0
v -6 -15 0
v -5 -15 0
v -4 -16 0
v -5 -16 0
v -5 -15 0
v -4 -15 0
v -28 -19 0
v -29 -19 0
v -29 -18 0
v -28 -18 0
v -27 -19 0
v -28 -19 0
v -28 -18 0
v -27 -18 0
v -26 -19 0
v -27 -19 0
v -27 -18 0
v -26 -18 0

# Texture cooridinates (Count = 276)
vt 0.2798779 0.5083963
vt 0.2401221 0.5083963
vt 0.2401221 0.5459772
vt 0.2798779 0.5459772
vt 0.3198779 0.5083963
vt 0.2801221 0.5083963
vt 0.2801221 0.5459772
vt 0.3198779 0.5459772
vt 0.3598779 0.5083963
vt 0.3201221 0.5083963
vt 0.3201221 0.5459772
vt 0.3598779 0.5459772
vt 0.3201221 0.4327462
vt 0.3598779 0.4327462
vt 0.3598779 0.4703271
vt 0.3201221 0.4703271
vt 0.2801221 0.4327462
vt 0.3198779 0.4327462
vt 0.3198779 0.4703271
vt 0.2801221 0.4703271
vt 0.2401221 0.4327462
vt 0.2798779 0.4327462
vt 0.2798779 0.4703271
vt 0.2401221 0.4703271
vt 0.2798779 0.4705712
vt 0.2401221 0.4705712
vt 0.2401221 0.5081521
vt 0.2798779 0.5081521
vt 0.3198779 0.4705712
vt 0.2801221 0.4705712
vt 0.2801221 0.5081521
vt 0.3198779 0.5081521
vt 0.3598779 0.4705712
vt 0.3201221 0.4705712
vt 0.3201221 0.5081521
vt 0.3598779 0.5081521
vt 0.3201221 0.3949211
vt 0.3598779 0.3949211
vt 0.3598779 0.432502
vt 0.3201221 0.432502
vt 0.2801221 0.3949211
vt 0.3198779 0.3949211
vt 0.3198779 0.432502
vt 0.2801221 0.432502
vt 0.2401221 0.3949211
vt 0.2798779 0.3949211
vt 0.2798779 0.432502
vt 0.2401221 0.432502
vt 0.9198779 0.6975216
vt 0.9198779 0.7351025
vt 0.8801221 0.7351025
vt 0.8801221 0.6975216
vt 0.9198779 0.6596966
vt 0.9198779 0.6972774
vt 0.8801221 0.6972774
vt 0.8801221 0.6596966
vt 0.9198779 0.6218715
vt 0.9198779 0.6594524
vt 0.8801221 0.6594524
vt 0.8801221 0.6218715
vt 0.840122 0.5840464
vt 0.8798779 0.5840464
vt 0.8798779 0.6216273
vt 0.840122 0.6216273
vt 0.8001221 0.5840464
vt 0.8398779 0.5840464
vt 0.8398779 0.6216273
vt 0.8001221 0.6216273
vt 0.9598779 0.6975216
vt 0.9598779 0.7351025
vt 0.9201221 0.7351025
vt 0.9201221 0.6975216
vt 0.9598779 0.6596966
vt 0.9598779 0.6972774
vt 0.9201221 0.6972774
vt 0.9201221 0.6596966
vt 0.9598779 0.6218715
vt 0.9598779 0.6594524
vt 0.9201221 0.6594524
vt 0.9201221 0.6218715
vt 0.840122 0.5083963
vt 0.8798779 0.5083963
vt 0.8798779 0.5459772
vt 0.840122 0.5459772
vt 0.8001221 0.5083963
vt 0.8398779 0.5083963
vt 0.8398779 0.5459772
vt 0.8001221 0.5459772
vt 0.840122 0.6596966
vt 0.8798779 0.6596966
vt 0.8798779 0.6972774
vt 0.840122 0.6972774
vt 0.8001221 0.6596966
vt 0.8398779 0.6596966
vt 0.8398779 0.6972774
vt 0.8001221 0.6972774
vt 0.7601221 0.6596966
vt 0.7998779 0.6596966
vt 0.7998779 0.6972774
vt 0.7601221 0.6972774
vt 0.7201221 0.6596966
vt 0.7598779 0.6596966
vt 0.7598779 0.6972774
vt 0.7201221 0.6972774
vt 0.840122 0.4705712
vt 0.8798779 0.4705712
vt 0.8798779 0.5081521
vt 0.840122 0.5081521
vt 0.8001221 0.4705712
vt 0.8398779 0.4705712
vt 0.8398779 0.5081521
vt 0.8001221 0.5081521
vt 0.840122 0.6218715
vt 0.8798779 0.6218715
vt 0.8798779 0.6594524
vt 0.840122 0.6594524
vt 0.8001221 0.6218715
vt 0.8398779 0.6218715
vt 0.8398779 0.6594524
vt 0.8001221 0.6594524
vt 0.7601221 0.6218715
vt 0.7998779 0.6218715
vt 0.7998779 0.6594524
vt 0.7601221 0.6594524
vt 0.7201221 0.6218715
vt 0.7598779 0.6218715
vt 0.7598779 0.6594524
vt 0.7201221 0.6594524
vt 0.7601221 0.4705712
vt 0.7998779 0.4705712
vt 0.7998779 0.5081521
vt 0.7601221 0.5081521
vt 0.7201221 0.4705712
vt 0.7598779 0.4705712
vt 0.7598779 0.5081521
vt 0.7201221 0.5081521
vt 0.6801221 0.4705712
vt 0.719878 0.4705712
vt 0.719878 0.5081521
vt 0.6801221 0.5081521
vt 0.6401221 0.4705712
vt 0.6798779 0.4705712
vt 0.6798779 0.5081521
vt 0.6401221 0.5081521
vt 0.9201221 0.5840464
vt 0.9598779 0.5840464
vt 0.9598779 0.6216273
vt 0.9201221 0.6216273
vt 0.8801221 0.5840464
vt 0.9198779 0.5840464
vt 0.9198779 0.6216273
vt 0.8801221 0.6216273
vt 0.5201221 0.5840464
vt 0.5598779 0.5840464
vt 0.5598779 0.6216273
vt 0.5201221 0.6216273
vt 0.5598779 0.5459772
vt 0.5201221 0.5459772
vt 0.5201221 0.5083963
vt 0.5598779 0.5083963
vt 0.9201221 0.5462214
vt 0.9598779 0.5462214
vt 0.9598779 0.5838023
vt 0.9201221 0.5838023
vt 0.8801221 0.5462214
vt 0.9198779 0.5462214
vt 0.9198779 0.5838023
vt 0.8801221 0.5838023
vt 0.5201221 0.5462214
vt 0.5598779 0.5462214
vt 0.5598779 0.5838023
vt 0.5201221 0.5838023
vt 0.9201221 0.5083963
vt 0.9598779 0.5083963
vt 0.9598779 0.5459772
vt 0.9201221 0.5459772
vt 0.8801221 0.5083963
vt 0.9198779 0.5083963
vt 0.9198779 0.5459772
vt 0.8801221 0.5459772
vt 0.9201221 0.4705712
vt 0.9598779 0.4705712
vt 0.9598779 0.5081521
vt 0.9201221 0.5081521
vt 0.8801221 0.4705712
vt 0.9198779 0.4705712
vt 0.9198779 0.5081521
vt 0.8801221 0.5081521
vt 0.5601221 0.3570961
vt 0.599878 0.3570961
vt 0.599878 0.394677
vt 0.5601221 0.394677
vt 0.7601221 0.5462214
vt 0.7998779 0.5462214
vt 0.7998779 0.5838023
vt 0.7601221 0.5838023
vt 0.5601221 0.319271
vt 0.599878 0.319271
vt 0.599878 0.3568519
vt 0.5601221 0.3568519
vt 0.9201221 0.4327462
vt 0.9598779 0.4327462
vt 0.9598779 0.4703271
vt 0.9201221 0.4703271
vt 0.8801221 0.4327462
vt 0.9198779 0.4327462
vt 0.9198779 0.4703271
vt 0.8801221 0.4703271
vt 0.840122 0.4327462
vt 0.8798779 0.4327462
vt 0.8798779 0.4703271
vt 0.840122 0.4703271
vt 0.8001221 0.4327462
vt 0.8398779 0.4327462
vt 0.8398779 0.4703271
vt 0.8001221 0.4703271
vt 0.7601221 0.4327462
vt 0.7998779 0.4327462
vt 0.7998779 0.4703271
vt 0.7601221 0.4703271
vt 0.7201221 0.4327462
vt 0.7598779 0.4327462
vt 0.7598779 0.4703271
vt 0.7201221 0.4703271
vt 0.6801221 0.4327462
vt 0.719878 0.4327462
vt 0.719878 0.4703271
vt 0.6801221 0.4703271
vt 0.6401221 0.4327462
vt 0.6798779 0.4327462
vt 0.6798779 0.4703271
vt 0.6401221 0.4703271
vt 0.9201221 0.3949211
vt 0.9598779 0.3949211
vt 0.9598779 0.432502
vt 0.9201221 0.432502
vt 0.8801221 0.3949211
vt 0.9198779 0.3949211
vt 0.9198779 0.432502
vt 0.8801221 0.432502
vt 0.840122 0.3949211
vt 0.8798779 0.3949211
vt 0.8798779 0.432502
vt 0.840122 0.432502
vt 0.8001221 0.3949211
vt 0.8398779 0.3949211
vt 0.8398779 0.432502
vt 0.8001221 0.432502
vt 0.7601221 0.3949211
vt 0.7998779 0.3949211
vt 0.7998779 0.432502
vt 0.7601221 0.432502
vt 0.7201221 0.3949211
vt 0.7598779 0.3949211
vt 0.7598779 0.432502
vt 0.7201221 0.432502
vt 0.6801221 0.3949211
vt 0.719878 0.3949211
vt 0.719878 0.432502
vt 0.6801221 0.432502
vt 0.6401221 0.3949211
vt 0.6798779 0.3949211
vt 0.6798779 0.432502
vt 0.6401221 0.432502
vt 0.5201221 0.6594524
vt 0.5201221 0.6218715
vt 0.5598779 0.6218715
vt 0.5598779 0.6594524
vt 0.5201221 0.6972774
vt 0.5201221 0.6596966
vt 0.5598779 0.6596966
vt 0.5598779 0.6972774
vt 0.5201221 0.7351025
vt 0.5201221 0.6975216
vt 0.5598779 0.6975216
vt 0.5598779 0.7351025

# Normal
vn 0 0 -1

# Mesh description
g modernMuseum_mesh_0002

# Faces
f 1/1/1 2/2/1 3/3/1 4/4/1
f 5/5/1 6/6/1 7/7/1 8/8/1
f 9/9/1 10/10/1 11/11/1 12/12/1
f 13/13/1 14/14/1 15/15/1 16/16/1
f 17/17/1 18/18/1 19/19/1 20/20/1
f 21/21/1 22/22/1 23/23/1 24/24/1
f 25/10/1 26/9/1 27/12/1 28/11/1
f 29/6/1 30/5/1 31/8/1 32/7/1
f 33/2/1 34/1/1 35/4/1 36/3/1
f 37/25/1 38/26/1 39/27/1 40/28/1
f 41/29/1 42/30/1 43/31/1 44/32/1
f 45/33/1 46/34/1 47/35/1 48/36/1
f 49/37/1 50/38/1 51/39/1 52/40/1
f 53/41/1 54/42/1 55/43/1 56/44/1
f 57/45/1 58/46/1 59/47/1 60/48/1
f 61/34/1 62/33/1 63/36/1 64/35/1
f 65/30/1 66/29/1 67/32/1 68/31/1
f 69/26/1 70/25/1 71/28/1 72/27/1
f 73/49/1 74/50/1 75/51/1 76/52/1
f 77/53/1 78/54/1 79/55/1 80/56/1
f 81/57/1 82/58/1 83/59/1 84/60/1
f 85/61/1 86/62/1 87/63/1 88/64/1
f 89/65/1 90/66/1 91/67/1 92/68/1
f 93/69/1 94/70/1 95/71/1 96/72/1
f 97/73/1 98/74/1 99/75/1 100/76/1
f 101/77/1 102/78/1 103/79/1 104/80/1
f 105/81/1 106/82/1 107/83/1 108/84/1
f 109/85/1 110/86/1 111/87/1 112/88/1
f 113/89/1 114/90/1 115/91/1 116/92/1
f 117/93/1 118/94/1 119/95/1 120/96/1
f 121/97/1 122/98/1 123/99/1 124/100/1
f 125/101/1 126/102/1 127/103/1 128/104/1
f 129/22/1 130/23/1 131/24/1 132/21/1
f 133/46/1 134/47/1 135/48/1 136/45/1
f 137/40/1 138/37/1 139/38/1 140/39/1
f 141/16/1 142/13/1 143/14/1 144/15/1
f 145/105/1 146/106/1 147/107/1 148/108/1
f 149/109/1 150/110/1 151/111/1 152/112/1
f 153/113/1 154/114/1 155/115/1 156/116/1
f 157/117/1 158/118/1 159/119/1 160/120/1
f 161/121/1 162/122/1 163/123/1 164/124/1
f 165/125/1 166/126/1 167/127/1 168/128/1
f 169/18/1 170/19/1 171/20/1 172/17/1
f 173/42/1 174/43/1 175/44/1 176/41/1
f 177/44/1 178/41/1 179/42/1 180/43/1
f 181/20/1 182/17/1 183/18/1 184/19/1
f 185/14/1 186/15/1 187/16/1 188/13/1
f 189/38/1 190/39/1 191/40/1 192/37/1
f 193/48/1 194/45/1 195/46/1 196/47/1
f 197/24/1 198/21/1 199/22/1 200/23/1
f 201/72/1 202/69/1 203/70/1 204/71/1
f 205/52/1 206/49/1 207/50/1 208/51/1
f 209/76/1 210/73/1 211/74/1 212/75/1
f 213/56/1 214/53/1 215/54/1 216/55/1
f 217/80/1 218/77/1 219/78/1 220/79/1
f 221/60/1 222/57/1 223/58/1 224/59/1
f 225/129/1 226/130/1 227/131/1 228/132/1
f 229/133/1 230/134/1 231/135/1 232/136/1
f 233/137/1 234/138/1 235/139/1 236/140/1
f 237/141/1 238/142/1 239/143/1 240/144/1
f 241/145/1 242/146/1 243/147/1 244/148/1
f 245/149/1 246/150/1 247/151/1 248/152/1
f 249/153/1 250/154/1 251/155/1 252/156/1
f 253/157/1 254/158/1 255/159/1 256/160/1
f 257/153/1 258/154/1 259/155/1 260/156/1
f 261/157/1 262/158/1 263/159/1 264/160/1
f 265/161/1 266/162/1 267/163/1 268/164/1
f 269/165/1 270/166/1 271/167/1 272/168/1
f 273/169/1 274/170/1 275/171/1 276/172/1
f 277/171/1 278/172/1 279/169/1 280/170/1
f 281/169/1 282/170/1 283/171/1 284/172/1
f 285/171/1 286/172/1 287/169/1 288/170/1
f 289/173/1 290/174/1 291/175/1 292/176/1
f 293/177/1 294/178/1 295/179/1 296/180/1
f 297/159/1 298/160/1 299/157/1 300/158/1
f 301/155/1 302/156/1 303/153/1 304/154/1
f 305/159/1 306/160/1 307/157/1 308/158/1
f 309/155/1 310/156/1 311/153/1 312/154/1
f 313/181/1 314/182/1 315/183/1 316/184/1
f 317/185/1 318/186/1 319/187/1 320/188/1
f 321/189/1 322/190/1 323/191/1 324/192/1
f 325/193/1 326/194/1 327/195/1 328/196/1
f 329/189/1 330/190/1 331/191/1 332/192/1
f 333/193/1 334/194/1 335/195/1 336/196/1
f 337/197/1 338/198/1 339/199/1 340/200/1
f 341/201/1 342/202/1 343/203/1 344/204/1
f 345/205/1 346/206/1 347/207/1 348/208/1
f 349/209/1 350/210/1 351/211/1 352/212/1
f 353/213/1 354/214/1 355/215/1 356/216/1
f 357/197/1 358/198/1 359/199/1 360/200/1
f 361/217/1 362/218/1 363/219/1 364/220/1
f 365/221/1 366/222/1 367/223/1 368/224/1
f 369/225/1 370/226/1 371/227/1 372/228/1
f 373/229/1 374/230/1 375/231/1 376/232/1
f 377/233/1 378/234/1 379/235/1 380/236/1
f 381/237/1 382/238/1 383/239/1 384/240/1
f 385/241/1 386/242/1 387/243/1 388/244/1
f 389/245/1 390/246/1 391/247/1 392/248/1
f 393/249/1 394/250/1 395/251/1 396/252/1
f 397/253/1 398/254/1 399/255/1 400/256/1
f 401/257/1 402/258/1 403/259/1 404/260/1
f 405/261/1 406/262/1 407/263/1 408/264/1
f 409/265/1 410/266/1 411/267/1 412/268/1
f 413/269/1 414/270/1 415/271/1 416/272/1
f 417/273/1 418/274/1 419/275/1 420/276/1

