# Tiled2Unity generated file. Do not modify by hand.
# Wavefront file for 'modernMuseum_mesh_0004.obj'

# Vertices (Count = 84)
v -13 -7 0
v -14 -7 0
v -14 -6 0
v -13 -6 0
v -12 -7 0
v -13 -7 0
v -13 -6 0
v -12 -6 0
v -11 -9 0
v -12 -9 0
v -12 -8 0
v -11 -8 0
v -10 -9 0
v -11 -9 0
v -11 -8 0
v -10 -8 0
v -9 -9 0
v -10 -9 0
v -10 -8 0
v -9 -8 0
v -8 -9 0
v -9 -9 0
v -9 -8 0
v -8 -8 0
v -36 -11 0
v -37 -11 0
v -37 -10 0
v -36 -10 0
v -35 -11 0
v -36 -11 0
v -36 -10 0
v -35 -10 0
v -18 -11 0
v -19 -11 0
v -19 -10 0
v -18 -10 0
v -17 -11 0
v -18 -11 0
v -18 -10 0
v -17 -10 0
v -36 -12 0
v -37 -12 0
v -37 -11 0
v -36 -11 0
v -35 -12 0
v -36 -12 0
v -36 -11 0
v -35 -11 0
v -18 -12 0
v -19 -12 0
v -19 -11 0
v -18 -11 0
v -17 -12 0
v -18 -12 0
v -18 -11 0
v -17 -11 0
v -36 -13 0
v -37 -13 0
v -37 -12 0
v -36 -12 0
v -35 -13 0
v -36 -13 0
v -36 -12 0
v -35 -12 0
v -18 -13 0
v -19 -13 0
v -19 -12 0
v -18 -12 0
v -17 -13 0
v -18 -13 0
v -18 -12 0
v -17 -12 0
v -28 -20 0
v -29 -20 0
v -29 -19 0
v -28 -19 0
v -27 -20 0
v -28 -20 0
v -28 -19 0
v -27 -19 0
v -26 -20 0
v -27 -20 0
v -27 -19 0
v -26 -19 0

# Texture cooridinates (Count = 36)
vt 0.840122 0.5840464
vt 0.8798779 0.5840464
vt 0.8798779 0.6216273
vt 0.840122 0.6216273
vt 0.8001221 0.5840464
vt 0.8398779 0.5840464
vt 0.8398779 0.6216273
vt 0.8001221 0.6216273
vt 0.7601221 0.5083963
vt 0.7998779 0.5083963
vt 0.7998779 0.5459772
vt 0.7601221 0.5459772
vt 0.7201221 0.5083963
vt 0.7598779 0.5083963
vt 0.7598779 0.5459772
vt 0.7201221 0.5459772
vt 0.6801221 0.5083963
vt 0.719878 0.5083963
vt 0.719878 0.5459772
vt 0.6801221 0.5459772
vt 0.6401221 0.5083963
vt 0.6798779 0.5083963
vt 0.6798779 0.5459772
vt 0.6401221 0.5459772
vt 0.4801221 0.6975216
vt 0.5198779 0.6975216
vt 0.5198779 0.7351025
vt 0.4801221 0.7351025
vt 0.5198779 0.6594524
vt 0.4801221 0.6594524
vt 0.4801221 0.6218715
vt 0.5198779 0.6218715
vt 0.4801221 0.6596966
vt 0.5198779 0.6596966
vt 0.5198779 0.6972774
vt 0.4801221 0.6972774

# Normal
vn 0 0 -1

# Mesh description
g modernMuseum_mesh_0004

# Faces
f 1/1/1 2/2/1 3/3/1 4/4/1
f 5/5/1 6/6/1 7/7/1 8/8/1
f 9/9/1 10/10/1 11/11/1 12/12/1
f 13/13/1 14/14/1 15/15/1 16/16/1
f 17/17/1 18/18/1 19/19/1 20/20/1
f 21/21/1 22/22/1 23/23/1 24/24/1
f 25/25/1 26/26/1 27/27/1 28/28/1
f 29/29/1 30/30/1 31/31/1 32/32/1
f 33/25/1 34/26/1 35/27/1 36/28/1
f 37/29/1 38/30/1 39/31/1 40/32/1
f 41/33/1 42/34/1 43/35/1 44/36/1
f 45/35/1 46/36/1 47/33/1 48/34/1
f 49/33/1 50/34/1 51/35/1 52/36/1
f 53/35/1 54/36/1 55/33/1 56/34/1
f 57/31/1 58/32/1 59/29/1 60/30/1
f 61/27/1 62/28/1 63/25/1 64/26/1
f 65/31/1 66/32/1 67/29/1 68/30/1
f 69/27/1 70/28/1 71/25/1 72/26/1
f 73/30/1 74/31/1 75/32/1 76/29/1
f 77/36/1 78/33/1 79/34/1 80/35/1
f 81/28/1 82/25/1 83/26/1 84/27/1

