# Tiled2Unity generated file. Do not modify by hand.
# Wavefront file for 'DatuSilongan_mesh_0007.obj'

# Vertices (Count = 12)
v -23 -20 0
v -24 -20 0
v -24 -19 0
v -23 -19 0
v -23 -21 0
v -24 -21 0
v -24 -20 0
v -23 -20 0
v -23 -22 0
v -24 -22 0
v -24 -21 0
v -23 -21 0

# Texture cooridinates (Count = 12)
vt 0.769953 0.2223443
vt 0.7905151 0.2223443
vt 0.7905151 0.2498779
vt 0.769953 0.2498779
vt 0.7283405 0.2223443
vt 0.7489026 0.2223443
vt 0.7489026 0.2498779
vt 0.7283405 0.2498779
vt 0.7075343 0.2223443
vt 0.7280964 0.2223443
vt 0.7280964 0.2498779
vt 0.7075343 0.2498779

# Normal
vn 0 0 -1

# Mesh description
g DatuSilongan_mesh_0007

# Faces
f 1/1/1 2/2/1 3/3/1 4/4/1
f 5/5/1 6/6/1 7/7/1 8/8/1
f 9/9/1 10/10/1 11/11/1 12/12/1

