# Tiled2Unity generated file. Do not modify by hand.
# Wavefront file for 'Toyota_mesh_0006.obj'

# Vertices (Count = 24)
v -2 -7 0
v -3 -7 0
v -3 -6 0
v -2 -6 0
v -1 -7 0
v -2 -7 0
v -2 -6 0
v -1 -6 0
v -2 -8 0
v -3 -8 0
v -3 -7 0
v -2 -7 0
v -1 -8 0
v -2 -8 0
v -2 -7 0
v -1 -7 0
v -2 -9 0
v -3 -9 0
v -3 -8 0
v -2 -8 0
v -1 -9 0
v -2 -9 0
v -2 -8 0
v -1 -8 0

# Texture cooridinates (Count = 24)
vt 0.2706032 0.9167888
vt 0.2911653 0.9167888
vt 0.2911653 0.9443223
vt 0.2706032 0.9443223
vt 0.249797 0.9167888
vt 0.2703591 0.9167888
vt 0.2703591 0.9443223
vt 0.249797 0.9443223
vt 0.2706032 0.889011
vt 0.2911653 0.889011
vt 0.2911653 0.9165446
vt 0.2706032 0.9165446
vt 0.249797 0.889011
vt 0.2703591 0.889011
vt 0.2703591 0.9165446
vt 0.249797 0.9165446
vt 0.2706032 0.8612332
vt 0.2911653 0.8612332
vt 0.2911653 0.8887668
vt 0.2706032 0.8887668
vt 0.249797 0.8612332
vt 0.2703591 0.8612332
vt 0.2703591 0.8887668
vt 0.249797 0.8887668

# Normal
vn 0 0 -1

# Mesh description
g Toyota_mesh_0006

# Faces
f 1/1/1 2/2/1 3/3/1 4/4/1
f 5/5/1 6/6/1 7/7/1 8/8/1
f 9/9/1 10/10/1 11/11/1 12/12/1
f 13/13/1 14/14/1 15/15/1 16/16/1
f 17/17/1 18/18/1 19/19/1 20/20/1
f 21/21/1 22/22/1 23/23/1 24/24/1

