# Tiled2Unity generated file. Do not modify by hand.
# Wavefront file for 'RichmondPlywood_mesh_0008.obj'

# Vertices (Count = 448)
v -37 -1 0
v -38 -1 0
v -38 0 0
v -37 0 0
v -36 -1 0
v -37 -1 0
v -37 0 0
v -36 0 0
v -35 -1 0
v -36 -1 0
v -36 0 0
v -35 0 0
v -34 -1 0
v -35 -1 0
v -35 0 0
v -34 0 0
v -9 -1 0
v -10 -1 0
v -10 0 0
v -9 0 0
v -8 -1 0
v -9 -1 0
v -9 0 0
v -8 0 0
v -7 -1 0
v -8 -1 0
v -8 0 0
v -7 0 0
v -6 -1 0
v -7 -1 0
v -7 0 0
v -6 0 0
v -37 -2 0
v -38 -2 0
v -38 -1 0
v -37 -1 0
v -36 -2 0
v -37 -2 0
v -37 -1 0
v -36 -1 0
v -35 -2 0
v -36 -2 0
v -36 -1 0
v -35 -1 0
v -34 -2 0
v -35 -2 0
v -35 -1 0
v -34 -1 0
v -9 -2 0
v -10 -2 0
v -10 -1 0
v -9 -1 0
v -8 -2 0
v -9 -2 0
v -9 -1 0
v -8 -1 0
v -7 -2 0
v -8 -2 0
v -8 -1 0
v -7 -1 0
v -6 -2 0
v -7 -2 0
v -7 -1 0
v -6 -1 0
v -18 -3 0
v -19 -3 0
v -19 -2 0
v -18 -2 0
v -17 -3 0
v -18 -3 0
v -18 -2 0
v -17 -2 0
v -16 -3 0
v -17 -3 0
v -17 -2 0
v -16 -2 0
v -15 -3 0
v -16 -3 0
v -16 -2 0
v -15 -2 0
v -18 -4 0
v -19 -4 0
v -19 -3 0
v -18 -3 0
v -17 -4 0
v -18 -4 0
v -18 -3 0
v -17 -3 0
v -16 -4 0
v -17 -4 0
v -17 -3 0
v -16 -3 0
v -15 -4 0
v -16 -4 0
v -16 -3 0
v -15 -3 0
v -23 -5 0
v -24 -5 0
v -24 -4 0
v -23 -4 0
v -22 -5 0
v -23 -5 0
v -23 -4 0
v -22 -4 0
v -21 -5 0
v -22 -5 0
v -22 -4 0
v -21 -4 0
v -20 -5 0
v -21 -5 0
v -21 -4 0
v -20 -4 0
v -14 -5 0
v -15 -5 0
v -15 -4 0
v -14 -4 0
v -13 -5 0
v -14 -5 0
v -14 -4 0
v -13 -4 0
v -12 -5 0
v -13 -5 0
v -13 -4 0
v -12 -4 0
v -11 -5 0
v -12 -5 0
v -12 -4 0
v -11 -4 0
v -23 -6 0
v -24 -6 0
v -24 -5 0
v -23 -5 0
v -22 -6 0
v -23 -6 0
v -23 -5 0
v -22 -5 0
v -21 -6 0
v -22 -6 0
v -22 -5 0
v -21 -5 0
v -20 -6 0
v -21 -6 0
v -21 -5 0
v -20 -5 0
v -18 -6 0
v -19 -6 0
v -19 -5 0
v -18 -5 0
v -17 -6 0
v -18 -6 0
v -18 -5 0
v -17 -5 0
v -16 -6 0
v -17 -6 0
v -17 -5 0
v -16 -5 0
v -15 -6 0
v -16 -6 0
v -16 -5 0
v -15 -5 0
v -14 -6 0
v -15 -6 0
v -15 -5 0
v -14 -5 0
v -13 -6 0
v -14 -6 0
v -14 -5 0
v -13 -5 0
v -12 -6 0
v -13 -6 0
v -13 -5 0
v -12 -5 0
v -11 -6 0
v -12 -6 0
v -12 -5 0
v -11 -5 0
v -18 -7 0
v -19 -7 0
v -19 -6 0
v -18 -6 0
v -17 -7 0
v -18 -7 0
v -18 -6 0
v -17 -6 0
v -16 -7 0
v -17 -7 0
v -17 -6 0
v -16 -6 0
v -15 -7 0
v -16 -7 0
v -16 -6 0
v -15 -6 0
v -29 -12 0
v -30 -12 0
v -30 -11 0
v -29 -11 0
v -28 -12 0
v -29 -12 0
v -29 -11 0
v -28 -11 0
v -27 -12 0
v -28 -12 0
v -28 -11 0
v -27 -11 0
v -26 -12 0
v -27 -12 0
v -27 -11 0
v -26 -11 0
v -29 -13 0
v -30 -13 0
v -30 -12 0
v -29 -12 0
v -28 -13 0
v -29 -13 0
v -29 -12 0
v -28 -12 0
v -27 -13 0
v -28 -13 0
v -28 -12 0
v -27 -12 0
v -26 -13 0
v -27 -13 0
v -27 -12 0
v -26 -12 0
v -38 -20 0
v -39 -20 0
v -39 -19 0
v -38 -19 0
v -37 -20 0
v -38 -20 0
v -38 -19 0
v -37 -19 0
v -36 -20 0
v -37 -20 0
v -37 -19 0
v -36 -19 0
v -35 -20 0
v -36 -20 0
v -36 -19 0
v -35 -19 0
v -38 -21 0
v -39 -21 0
v -39 -20 0
v -38 -20 0
v -37 -21 0
v -38 -21 0
v -38 -20 0
v -37 -20 0
v -36 -21 0
v -37 -21 0
v -37 -20 0
v -36 -20 0
v -35 -21 0
v -36 -21 0
v -36 -20 0
v -35 -20 0
v -29 -33 0
v -30 -33 0
v -30 -32 0
v -29 -32 0
v -28 -33 0
v -29 -33 0
v -29 -32 0
v -28 -32 0
v -27 -33 0
v -28 -33 0
v -28 -32 0
v -27 -32 0
v -26 -33 0
v -27 -33 0
v -27 -32 0
v -26 -32 0
v -17 -33 0
v -18 -33 0
v -18 -32 0
v -17 -32 0
v -16 -33 0
v -17 -33 0
v -17 -32 0
v -16 -32 0
v -15 -33 0
v -16 -33 0
v -16 -32 0
v -15 -32 0
v -14 -33 0
v -15 -33 0
v -15 -32 0
v -14 -32 0
v -29 -34 0
v -30 -34 0
v -30 -33 0
v -29 -33 0
v -28 -34 0
v -29 -34 0
v -29 -33 0
v -28 -33 0
v -27 -34 0
v -28 -34 0
v -28 -33 0
v -27 -33 0
v -26 -34 0
v -27 -34 0
v -27 -33 0
v -26 -33 0
v -17 -34 0
v -18 -34 0
v -18 -33 0
v -17 -33 0
v -16 -34 0
v -17 -34 0
v -17 -33 0
v -16 -33 0
v -15 -34 0
v -16 -34 0
v -16 -33 0
v -15 -33 0
v -14 -34 0
v -15 -34 0
v -15 -33 0
v -14 -33 0
v -9 -35 0
v -10 -35 0
v -10 -34 0
v -9 -34 0
v -8 -35 0
v -9 -35 0
v -9 -34 0
v -8 -34 0
v -7 -35 0
v -8 -35 0
v -8 -34 0
v -7 -34 0
v -6 -35 0
v -7 -35 0
v -7 -34 0
v -6 -34 0
v -9 -36 0
v -10 -36 0
v -10 -35 0
v -9 -35 0
v -8 -36 0
v -9 -36 0
v -9 -35 0
v -8 -35 0
v -7 -36 0
v -8 -36 0
v -8 -35 0
v -7 -35 0
v -6 -36 0
v -7 -36 0
v -7 -35 0
v -6 -35 0
v -25 -38 0
v -26 -38 0
v -26 -37 0
v -25 -37 0
v -24 -38 0
v -25 -38 0
v -25 -37 0
v -24 -37 0
v -23 -38 0
v -24 -38 0
v -24 -37 0
v -23 -37 0
v -22 -38 0
v -23 -38 0
v -23 -37 0
v -22 -37 0
v -25 -39 0
v -26 -39 0
v -26 -38 0
v -25 -38 0
v -24 -39 0
v -25 -39 0
v -25 -38 0
v -24 -38 0
v -23 -39 0
v -24 -39 0
v -24 -38 0
v -23 -38 0
v -22 -39 0
v -23 -39 0
v -23 -38 0
v -22 -38 0
v -13 -39 0
v -14 -39 0
v -14 -38 0
v -13 -38 0
v -12 -39 0
v -13 -39 0
v -13 -38 0
v -12 -38 0
v -11 -39 0
v -12 -39 0
v -12 -38 0
v -11 -38 0
v -10 -39 0
v -11 -39 0
v -11 -38 0
v -10 -38 0
v -13 -40 0
v -14 -40 0
v -14 -39 0
v -13 -39 0
v -12 -40 0
v -13 -40 0
v -13 -39 0
v -12 -39 0
v -11 -40 0
v -12 -40 0
v -12 -39 0
v -11 -39 0
v -10 -40 0
v -11 -40 0
v -11 -39 0
v -10 -39 0
v -10 -44 0
v -11 -44 0
v -11 -43 0
v -10 -43 0
v -9 -44 0
v -10 -44 0
v -10 -43 0
v -9 -43 0
v -8 -44 0
v -9 -44 0
v -9 -43 0
v -8 -43 0
v -7 -44 0
v -8 -44 0
v -8 -43 0
v -7 -43 0
v -10 -45 0
v -11 -45 0
v -11 -44 0
v -10 -44 0
v -9 -45 0
v -10 -45 0
v -10 -44 0
v -9 -44 0
v -8 -45 0
v -9 -45 0
v -9 -44 0
v -8 -44 0
v -7 -45 0
v -8 -45 0
v -8 -44 0
v -7 -44 0

# Texture cooridinates (Count = 32)
vt 0.0625408 0.08345538
vt 0.0831029 0.08345538
vt 0.0831029 0.110989
vt 0.0625408 0.110989
vt 0.04173455 0.08345538
vt 0.06229666 0.08345538
vt 0.06229666 0.110989
vt 0.04173455 0.110989
vt 0.02092831 0.08345538
vt 0.04149041 0.08345538
vt 0.04149041 0.110989
vt 0.02092831 0.110989
vt 0.0001220703 0.08345538
vt 0.02068417 0.08345538
vt 0.02068417 0.110989
vt 0.0001220703 0.110989
vt 0.0625408 0.05567765
vt 0.0831029 0.05567765
vt 0.0831029 0.08321124
vt 0.0625408 0.08321124
vt 0.04173455 0.05567765
vt 0.06229666 0.05567765
vt 0.06229666 0.08321124
vt 0.04173455 0.08321124
vt 0.02092831 0.05567765
vt 0.04149041 0.05567765
vt 0.04149041 0.08321124
vt 0.02092831 0.08321124
vt 0.0001220703 0.05567765
vt 0.02068417 0.05567765
vt 0.02068417 0.08321124
vt 0.0001220703 0.08321124

# Normal
vn 0 0 -1

# Mesh description
g RichmondPlywood_mesh_0008

# Faces
f 1/1/1 2/2/1 3/3/1 4/4/1
f 5/5/1 6/6/1 7/7/1 8/8/1
f 9/9/1 10/10/1 11/11/1 12/12/1
f 13/13/1 14/14/1 15/15/1 16/16/1
f 17/1/1 18/2/1 19/3/1 20/4/1
f 21/5/1 22/6/1 23/7/1 24/8/1
f 25/9/1 26/10/1 27/11/1 28/12/1
f 29/13/1 30/14/1 31/15/1 32/16/1
f 33/17/1 34/18/1 35/19/1 36/20/1
f 37/21/1 38/22/1 39/23/1 40/24/1
f 41/25/1 42/26/1 43/27/1 44/28/1
f 45/29/1 46/30/1 47/31/1 48/32/1
f 49/17/1 50/18/1 51/19/1 52/20/1
f 53/21/1 54/22/1 55/23/1 56/24/1
f 57/25/1 58/26/1 59/27/1 60/28/1
f 61/29/1 62/30/1 63/31/1 64/32/1
f 65/1/1 66/2/1 67/3/1 68/4/1
f 69/5/1 70/6/1 71/7/1 72/8/1
f 73/9/1 74/10/1 75/11/1 76/12/1
f 77/13/1 78/14/1 79/15/1 80/16/1
f 81/17/1 82/18/1 83/19/1 84/20/1
f 85/21/1 86/22/1 87/23/1 88/24/1
f 89/25/1 90/26/1 91/27/1 92/28/1
f 93/29/1 94/30/1 95/31/1 96/32/1
f 97/1/1 98/2/1 99/3/1 100/4/1
f 101/5/1 102/6/1 103/7/1 104/8/1
f 105/9/1 106/10/1 107/11/1 108/12/1
f 109/13/1 110/14/1 111/15/1 112/16/1
f 113/1/1 114/2/1 115/3/1 116/4/1
f 117/5/1 118/6/1 119/7/1 120/8/1
f 121/9/1 122/10/1 123/11/1 124/12/1
f 125/13/1 126/14/1 127/15/1 128/16/1
f 129/17/1 130/18/1 131/19/1 132/20/1
f 133/21/1 134/22/1 135/23/1 136/24/1
f 137/25/1 138/26/1 139/27/1 140/28/1
f 141/29/1 142/30/1 143/31/1 144/32/1
f 145/1/1 146/2/1 147/3/1 148/4/1
f 149/5/1 150/6/1 151/7/1 152/8/1
f 153/9/1 154/10/1 155/11/1 156/12/1
f 157/13/1 158/14/1 159/15/1 160/16/1
f 161/17/1 162/18/1 163/19/1 164/20/1
f 165/21/1 166/22/1 167/23/1 168/24/1
f 169/25/1 170/26/1 171/27/1 172/28/1
f 173/29/1 174/30/1 175/31/1 176/32/1
f 177/17/1 178/18/1 179/19/1 180/20/1
f 181/21/1 182/22/1 183/23/1 184/24/1
f 185/25/1 186/26/1 187/27/1 188/28/1
f 189/29/1 190/30/1 191/31/1 192/32/1
f 193/1/1 194/2/1 195/3/1 196/4/1
f 197/5/1 198/6/1 199/7/1 200/8/1
f 201/9/1 202/10/1 203/11/1 204/12/1
f 205/13/1 206/14/1 207/15/1 208/16/1
f 209/17/1 210/18/1 211/19/1 212/20/1
f 213/21/1 214/22/1 215/23/1 216/24/1
f 217/25/1 218/26/1 219/27/1 220/28/1
f 221/29/1 222/30/1 223/31/1 224/32/1
f 225/1/1 226/2/1 227/3/1 228/4/1
f 229/5/1 230/6/1 231/7/1 232/8/1
f 233/9/1 234/10/1 235/11/1 236/12/1
f 237/13/1 238/14/1 239/15/1 240/16/1
f 241/17/1 242/18/1 243/19/1 244/20/1
f 245/21/1 246/22/1 247/23/1 248/24/1
f 249/25/1 250/26/1 251/27/1 252/28/1
f 253/29/1 254/30/1 255/31/1 256/32/1
f 257/1/1 258/2/1 259/3/1 260/4/1
f 261/5/1 262/6/1 263/7/1 264/8/1
f 265/9/1 266/10/1 267/11/1 268/12/1
f 269/13/1 270/14/1 271/15/1 272/16/1
f 273/1/1 274/2/1 275/3/1 276/4/1
f 277/5/1 278/6/1 279/7/1 280/8/1
f 281/9/1 282/10/1 283/11/1 284/12/1
f 285/13/1 286/14/1 287/15/1 288/16/1
f 289/17/1 290/18/1 291/19/1 292/20/1
f 293/21/1 294/22/1 295/23/1 296/24/1
f 297/25/1 298/26/1 299/27/1 300/28/1
f 301/29/1 302/30/1 303/31/1 304/32/1
f 305/17/1 306/18/1 307/19/1 308/20/1
f 309/21/1 310/22/1 311/23/1 312/24/1
f 313/25/1 314/26/1 315/27/1 316/28/1
f 317/29/1 318/30/1 319/31/1 320/32/1
f 321/1/1 322/2/1 323/3/1 324/4/1
f 325/5/1 326/6/1 327/7/1 328/8/1
f 329/9/1 330/10/1 331/11/1 332/12/1
f 333/13/1 334/14/1 335/15/1 336/16/1
f 337/17/1 338/18/1 339/19/1 340/20/1
f 341/21/1 342/22/1 343/23/1 344/24/1
f 345/25/1 346/26/1 347/27/1 348/28/1
f 349/29/1 350/30/1 351/31/1 352/32/1
f 353/1/1 354/2/1 355/3/1 356/4/1
f 357/5/1 358/6/1 359/7/1 360/8/1
f 361/9/1 362/10/1 363/11/1 364/12/1
f 365/13/1 366/14/1 367/15/1 368/16/1
f 369/17/1 370/18/1 371/19/1 372/20/1
f 373/21/1 374/22/1 375/23/1 376/24/1
f 377/25/1 378/26/1 379/27/1 380/28/1
f 381/29/1 382/30/1 383/31/1 384/32/1
f 385/1/1 386/2/1 387/3/1 388/4/1
f 389/5/1 390/6/1 391/7/1 392/8/1
f 393/9/1 394/10/1 395/11/1 396/12/1
f 397/13/1 398/14/1 399/15/1 400/16/1
f 401/17/1 402/18/1 403/19/1 404/20/1
f 405/21/1 406/22/1 407/23/1 408/24/1
f 409/25/1 410/26/1 411/27/1 412/28/1
f 413/29/1 414/30/1 415/31/1 416/32/1
f 417/1/1 418/2/1 419/3/1 420/4/1
f 421/5/1 422/6/1 423/7/1 424/8/1
f 425/9/1 426/10/1 427/11/1 428/12/1
f 429/13/1 430/14/1 431/15/1 432/16/1
f 433/17/1 434/18/1 435/19/1 436/20/1
f 437/21/1 438/22/1 439/23/1 440/24/1
f 441/25/1 442/26/1 443/27/1 444/28/1
f 445/29/1 446/30/1 447/31/1 448/32/1

