# Tiled2Unity generated file. Do not modify by hand.
# Wavefront file for 'RichmondPlywood_mesh_0009.obj'

# Vertices (Count = 20)
v -23 -11 0
v -24 -11 0
v -24 -10 0
v -23 -10 0
v -22 -11 0
v -23 -11 0
v -23 -10 0
v -22 -10 0
v -21 -11 0
v -22 -11 0
v -22 -10 0
v -21 -10 0
v -20 -11 0
v -21 -11 0
v -21 -10 0
v -20 -10 0
v -19 -11 0
v -20 -11 0
v -20 -10 0
v -19 -10 0

# Texture cooridinates (Count = 20)
vt 0.2557131 0.5790694
vt 0.2725084 0.5790694
vt 0.2725084 0.605141
vt 0.2557131 0.605141
vt 0.2386737 0.5790694
vt 0.255469 0.5790694
vt 0.255469 0.605141
vt 0.2386737 0.605141
vt 0.2216343 0.5790694
vt 0.2384296 0.5790694
vt 0.2384296 0.605141
vt 0.2216343 0.605141
vt 0.2045949 0.5790694
vt 0.2213902 0.5790694
vt 0.2213902 0.605141
vt 0.2045949 0.605141
vt 0.1875555 0.5790694
vt 0.2043508 0.5790694
vt 0.2043508 0.605141
vt 0.1875555 0.605141

# Normal
vn 0 0 -1

# Mesh description
g RichmondPlywood_mesh_0009

# Faces
f 1/1/1 2/2/1 3/3/1 4/4/1
f 5/5/1 6/6/1 7/7/1 8/8/1
f 9/9/1 10/10/1 11/11/1 12/12/1
f 13/13/1 14/14/1 15/15/1 16/16/1
f 17/17/1 18/18/1 19/19/1 20/20/1

