# Tiled2Unity generated file. Do not modify by hand.
# Wavefront file for 'Bos-BigDaddy_mesh_0003.obj'

# Vertices (Count = 196)
v -89 -75 0
v -90 -75 0
v -90 -74 0
v -89 -74 0
v -88 -75 0
v -89 -75 0
v -89 -74 0
v -88 -74 0
v -87 -75 0
v -88 -75 0
v -88 -74 0
v -87 -74 0
v -86 -75 0
v -87 -75 0
v -87 -74 0
v -86 -74 0
v -85 -75 0
v -86 -75 0
v -86 -74 0
v -85 -74 0
v -84 -75 0
v -85 -75 0
v -85 -74 0
v -84 -74 0
v -83 -75 0
v -84 -75 0
v -84 -74 0
v -83 -74 0
v -82 -75 0
v -83 -75 0
v -83 -74 0
v -82 -74 0
v -81 -75 0
v -82 -75 0
v -82 -74 0
v -81 -74 0
v -80 -75 0
v -81 -75 0
v -81 -74 0
v -80 -74 0
v -79 -75 0
v -80 -75 0
v -80 -74 0
v -79 -74 0
v -78 -75 0
v -79 -75 0
v -79 -74 0
v -78 -74 0
v -77 -75 0
v -78 -75 0
v -78 -74 0
v -77 -74 0
v -76 -75 0
v -77 -75 0
v -77 -74 0
v -76 -74 0
v -75 -75 0
v -76 -75 0
v -76 -74 0
v -75 -74 0
v -74 -75 0
v -75 -75 0
v -75 -74 0
v -74 -74 0
v -73 -75 0
v -74 -75 0
v -74 -74 0
v -73 -74 0
v -72 -75 0
v -73 -75 0
v -73 -74 0
v -72 -74 0
v -71 -75 0
v -72 -75 0
v -72 -74 0
v -71 -74 0
v -70 -75 0
v -71 -75 0
v -71 -74 0
v -70 -74 0
v -69 -75 0
v -70 -75 0
v -70 -74 0
v -69 -74 0
v -68 -75 0
v -69 -75 0
v -69 -74 0
v -68 -74 0
v -67 -75 0
v -68 -75 0
v -68 -74 0
v -67 -74 0
v -66 -75 0
v -67 -75 0
v -67 -74 0
v -66 -74 0
v -65 -75 0
v -66 -75 0
v -66 -74 0
v -65 -74 0
v -64 -75 0
v -65 -75 0
v -65 -74 0
v -64 -74 0
v -63 -75 0
v -64 -75 0
v -64 -74 0
v -63 -74 0
v -62 -75 0
v -63 -75 0
v -63 -74 0
v -62 -74 0
v -61 -75 0
v -62 -75 0
v -62 -74 0
v -61 -74 0
v -60 -75 0
v -61 -75 0
v -61 -74 0
v -60 -74 0
v -59 -75 0
v -60 -75 0
v -60 -74 0
v -59 -74 0
v -58 -75 0
v -59 -75 0
v -59 -74 0
v -58 -74 0
v -57 -75 0
v -58 -75 0
v -58 -74 0
v -57 -74 0
v -56 -75 0
v -57 -75 0
v -57 -74 0
v -56 -74 0
v -55 -75 0
v -56 -75 0
v -56 -74 0
v -55 -74 0
v -47 -75 0
v -48 -75 0
v -48 -74 0
v -47 -74 0
v -46 -75 0
v -47 -75 0
v -47 -74 0
v -46 -74 0
v -45 -75 0
v -46 -75 0
v -46 -74 0
v -45 -74 0
v -44 -75 0
v -45 -75 0
v -45 -74 0
v -44 -74 0
v -43 -75 0
v -44 -75 0
v -44 -74 0
v -43 -74 0
v -42 -75 0
v -43 -75 0
v -43 -74 0
v -42 -74 0
v -41 -75 0
v -42 -75 0
v -42 -74 0
v -41 -74 0
v -40 -75 0
v -41 -75 0
v -41 -74 0
v -40 -74 0
v -39 -75 0
v -40 -75 0
v -40 -74 0
v -39 -74 0
v -38 -75 0
v -39 -75 0
v -39 -74 0
v -38 -74 0
v -37 -75 0
v -38 -75 0
v -38 -74 0
v -37 -74 0
v -36 -75 0
v -37 -75 0
v -37 -74 0
v -36 -74 0
v -35 -75 0
v -36 -75 0
v -36 -74 0
v -35 -74 0
v -34 -75 0
v -35 -75 0
v -35 -74 0
v -34 -74 0

# Texture cooridinates (Count = 4)
vt 0.04173455 0.5834554
vt 0.06229666 0.5834554
vt 0.06229666 0.610989
vt 0.04173455 0.610989

# Normal
vn 0 0 -1

# Mesh description
g Bos-BigDaddy_mesh_0003

# Faces
f 1/1/1 2/2/1 3/3/1 4/4/1
f 5/1/1 6/2/1 7/3/1 8/4/1
f 9/1/1 10/2/1 11/3/1 12/4/1
f 13/1/1 14/2/1 15/3/1 16/4/1
f 17/1/1 18/2/1 19/3/1 20/4/1
f 21/1/1 22/2/1 23/3/1 24/4/1
f 25/1/1 26/2/1 27/3/1 28/4/1
f 29/1/1 30/2/1 31/3/1 32/4/1
f 33/1/1 34/2/1 35/3/1 36/4/1
f 37/1/1 38/2/1 39/3/1 40/4/1
f 41/1/1 42/2/1 43/3/1 44/4/1
f 45/1/1 46/2/1 47/3/1 48/4/1
f 49/1/1 50/2/1 51/3/1 52/4/1
f 53/1/1 54/2/1 55/3/1 56/4/1
f 57/1/1 58/2/1 59/3/1 60/4/1
f 61/1/1 62/2/1 63/3/1 64/4/1
f 65/1/1 66/2/1 67/3/1 68/4/1
f 69/1/1 70/2/1 71/3/1 72/4/1
f 73/1/1 74/2/1 75/3/1 76/4/1
f 77/1/1 78/2/1 79/3/1 80/4/1
f 81/1/1 82/2/1 83/3/1 84/4/1
f 85/1/1 86/2/1 87/3/1 88/4/1
f 89/1/1 90/2/1 91/3/1 92/4/1
f 93/1/1 94/2/1 95/3/1 96/4/1
f 97/1/1 98/2/1 99/3/1 100/4/1
f 101/1/1 102/2/1 103/3/1 104/4/1
f 105/1/1 106/2/1 107/3/1 108/4/1
f 109/1/1 110/2/1 111/3/1 112/4/1
f 113/1/1 114/2/1 115/3/1 116/4/1
f 117/1/1 118/2/1 119/3/1 120/4/1
f 121/1/1 122/2/1 123/3/1 124/4/1
f 125/1/1 126/2/1 127/3/1 128/4/1
f 129/1/1 130/2/1 131/3/1 132/4/1
f 133/1/1 134/2/1 135/3/1 136/4/1
f 137/1/1 138/2/1 139/3/1 140/4/1
f 141/1/1 142/2/1 143/3/1 144/4/1
f 145/1/1 146/2/1 147/3/1 148/4/1
f 149/1/1 150/2/1 151/3/1 152/4/1
f 153/1/1 154/2/1 155/3/1 156/4/1
f 157/1/1 158/2/1 159/3/1 160/4/1
f 161/1/1 162/2/1 163/3/1 164/4/1
f 165/1/1 166/2/1 167/3/1 168/4/1
f 169/1/1 170/2/1 171/3/1 172/4/1
f 173/1/1 174/2/1 175/3/1 176/4/1
f 177/1/1 178/2/1 179/3/1 180/4/1
f 181/1/1 182/2/1 183/3/1 184/4/1
f 185/1/1 186/2/1 187/3/1 188/4/1
f 189/1/1 190/2/1 191/3/1 192/4/1
f 193/1/1 194/2/1 195/3/1 196/4/1

