# Tiled2Unity generated file. Do not modify by hand.
# Wavefront file for 'Bos-BigDaddy_mesh_0007.obj'

# Vertices (Count = 412)
v -45 -2 0
v -46 -2 0
v -46 -1 0
v -45 -1 0
v -44 -2 0
v -45 -2 0
v -45 -1 0
v -44 -1 0
v -85 -3 0
v -86 -3 0
v -86 -2 0
v -85 -2 0
v -84 -3 0
v -85 -3 0
v -85 -2 0
v -84 -2 0
v -83 -3 0
v -84 -3 0
v -84 -2 0
v -83 -2 0
v -82 -3 0
v -83 -3 0
v -83 -2 0
v -82 -2 0
v -69 -4 0
v -70 -4 0
v -70 -3 0
v -69 -3 0
v -68 -4 0
v -69 -4 0
v -69 -3 0
v -68 -3 0
v -47 -7 0
v -48 -7 0
v -48 -6 0
v -47 -6 0
v -46 -7 0
v -47 -7 0
v -47 -6 0
v -46 -6 0
v -45 -7 0
v -46 -7 0
v -46 -6 0
v -45 -6 0
v -44 -7 0
v -45 -7 0
v -45 -6 0
v -44 -6 0
v -39 -7 0
v -40 -7 0
v -40 -6 0
v -39 -6 0
v -38 -7 0
v -39 -7 0
v -39 -6 0
v -38 -6 0
v -37 -7 0
v -38 -7 0
v -38 -6 0
v -37 -6 0
v -36 -7 0
v -37 -7 0
v -37 -6 0
v -36 -6 0
v -77 -9 0
v -78 -9 0
v -78 -8 0
v -77 -8 0
v -83 -11 0
v -84 -11 0
v -84 -10 0
v -83 -10 0
v -82 -11 0
v -83 -11 0
v -83 -10 0
v -82 -10 0
v -34 -12 0
v -35 -12 0
v -35 -11 0
v -34 -11 0
v -33 -12 0
v -34 -12 0
v -34 -11 0
v -33 -11 0
v -32 -12 0
v -33 -12 0
v -33 -11 0
v -32 -11 0
v -31 -12 0
v -32 -12 0
v -32 -11 0
v -31 -11 0
v -56 -17 0
v -57 -17 0
v -57 -16 0
v -56 -16 0
v -55 -17 0
v -56 -17 0
v -56 -16 0
v -55 -16 0
v -54 -17 0
v -55 -17 0
v -55 -16 0
v -54 -16 0
v -53 -17 0
v -54 -17 0
v -54 -16 0
v -53 -16 0
v -23 -18 0
v -24 -18 0
v -24 -17 0
v -23 -17 0
v -22 -18 0
v -23 -18 0
v -23 -17 0
v -22 -17 0
v -73 -19 0
v -74 -19 0
v -74 -18 0
v -73 -18 0
v -72 -19 0
v -73 -19 0
v -73 -18 0
v -72 -18 0
v -71 -19 0
v -72 -19 0
v -72 -18 0
v -71 -18 0
v -70 -19 0
v -71 -19 0
v -71 -18 0
v -70 -18 0
v -38 -19 0
v -39 -19 0
v -39 -18 0
v -38 -18 0
v -37 -19 0
v -38 -19 0
v -38 -18 0
v -37 -18 0
v -36 -19 0
v -37 -19 0
v -37 -18 0
v -36 -18 0
v -35 -19 0
v -36 -19 0
v -36 -18 0
v -35 -18 0
v -28 -19 0
v -29 -19 0
v -29 -18 0
v -28 -18 0
v -27 -19 0
v -28 -19 0
v -28 -18 0
v -27 -18 0
v -78 -22 0
v -79 -22 0
v -79 -21 0
v -78 -21 0
v -77 -22 0
v -78 -22 0
v -78 -21 0
v -77 -21 0
v -49 -25 0
v -50 -25 0
v -50 -24 0
v -49 -24 0
v -48 -25 0
v -49 -25 0
v -49 -24 0
v -48 -24 0
v -47 -25 0
v -48 -25 0
v -48 -24 0
v -47 -24 0
v -46 -25 0
v -47 -25 0
v -47 -24 0
v -46 -24 0
v -22 -27 0
v -23 -27 0
v -23 -26 0
v -22 -26 0
v -21 -27 0
v -22 -27 0
v -22 -26 0
v -21 -26 0
v -20 -27 0
v -21 -27 0
v -21 -26 0
v -20 -26 0
v -19 -27 0
v -20 -27 0
v -20 -26 0
v -19 -26 0
v -78 -28 0
v -79 -28 0
v -79 -27 0
v -78 -27 0
v -77 -28 0
v -78 -28 0
v -78 -27 0
v -77 -27 0
v -76 -28 0
v -77 -28 0
v -77 -27 0
v -76 -27 0
v -75 -28 0
v -76 -28 0
v -76 -27 0
v -75 -27 0
v -74 -28 0
v -75 -28 0
v -75 -27 0
v -74 -27 0
v -65 -30 0
v -66 -30 0
v -66 -29 0
v -65 -29 0
v -64 -30 0
v -65 -30 0
v -65 -29 0
v -64 -29 0
v -37 -36 0
v -38 -36 0
v -38 -35 0
v -37 -35 0
v -36 -36 0
v -37 -36 0
v -37 -35 0
v -36 -35 0
v -35 -36 0
v -36 -36 0
v -36 -35 0
v -35 -35 0
v -34 -36 0
v -35 -36 0
v -35 -35 0
v -34 -35 0
v -8 -36 0
v -9 -36 0
v -9 -35 0
v -8 -35 0
v -7 -36 0
v -8 -36 0
v -8 -35 0
v -7 -35 0
v -6 -36 0
v -7 -36 0
v -7 -35 0
v -6 -35 0
v -5 -36 0
v -6 -36 0
v -6 -35 0
v -5 -35 0
v -58 -38 0
v -59 -38 0
v -59 -37 0
v -58 -37 0
v -57 -38 0
v -58 -38 0
v -58 -37 0
v -57 -37 0
v -56 -38 0
v -57 -38 0
v -57 -37 0
v -56 -37 0
v -25 -42 0
v -26 -42 0
v -26 -41 0
v -25 -41 0
v -24 -42 0
v -25 -42 0
v -25 -41 0
v -24 -41 0
v -23 -42 0
v -24 -42 0
v -24 -41 0
v -23 -41 0
v -22 -42 0
v -23 -42 0
v -23 -41 0
v -22 -41 0
v -4 -45 0
v -5 -45 0
v -5 -44 0
v -4 -44 0
v -3 -45 0
v -4 -45 0
v -4 -44 0
v -3 -44 0
v -2 -45 0
v -3 -45 0
v -3 -44 0
v -2 -44 0
v -1 -45 0
v -2 -45 0
v -2 -44 0
v -1 -44 0
v -64 -46 0
v -65 -46 0
v -65 -45 0
v -64 -45 0
v -63 -46 0
v -64 -46 0
v -64 -45 0
v -63 -45 0
v -43 -47 0
v -44 -47 0
v -44 -46 0
v -43 -46 0
v -42 -47 0
v -43 -47 0
v -43 -46 0
v -42 -46 0
v -82 -48 0
v -83 -48 0
v -83 -47 0
v -82 -47 0
v -81 -48 0
v -82 -48 0
v -82 -47 0
v -81 -47 0
v -40 -49 0
v -41 -49 0
v -41 -48 0
v -40 -48 0
v -40 -50 0
v -41 -50 0
v -41 -49 0
v -40 -49 0
v -66 -54 0
v -67 -54 0
v -67 -53 0
v -66 -53 0
v -65 -54 0
v -66 -54 0
v -66 -53 0
v -65 -53 0
v -64 -54 0
v -65 -54 0
v -65 -53 0
v -64 -53 0
v -63 -54 0
v -64 -54 0
v -64 -53 0
v -63 -53 0
v -6 -56 0
v -7 -56 0
v -7 -55 0
v -6 -55 0
v -5 -56 0
v -6 -56 0
v -6 -55 0
v -5 -55 0
v -48 -60 0
v -49 -60 0
v -49 -59 0
v -48 -59 0
v -47 -60 0
v -48 -60 0
v -48 -59 0
v -47 -59 0
v -4 -64 0
v -5 -64 0
v -5 -63 0
v -4 -63 0
v -3 -64 0
v -4 -64 0
v -4 -63 0
v -3 -63 0
v -2 -64 0
v -3 -64 0
v -3 -63 0
v -2 -63 0
v -1 -64 0
v -2 -64 0
v -2 -63 0
v -1 -63 0
v -85 -66 0
v -86 -66 0
v -86 -65 0
v -85 -65 0
v -84 -66 0
v -85 -66 0
v -85 -65 0
v -84 -65 0
v -83 -66 0
v -84 -66 0
v -84 -65 0
v -83 -65 0
v -82 -66 0
v -83 -66 0
v -83 -65 0
v -82 -65 0
v -31 -66 0
v -32 -66 0
v -32 -65 0
v -31 -65 0
v -30 -66 0
v -31 -66 0
v -31 -65 0
v -30 -65 0
v -29 -66 0
v -30 -66 0
v -30 -65 0
v -29 -65 0
v -28 -66 0
v -29 -66 0
v -29 -65 0
v -28 -65 0

# Texture cooridinates (Count = 76)
vt 0.1249595 0.5278999
vt 0.1455216 0.5278999
vt 0.1455216 0.5554335
vt 0.1249595 0.5554335
vt 0.1041533 0.5278999
vt 0.1247154 0.5278999
vt 0.1247154 0.5554335
vt 0.1041533 0.5554335
vt 0.0625408 0.08345538
vt 0.0831029 0.08345538
vt 0.0831029 0.110989
vt 0.0625408 0.110989
vt 0.04173455 0.08345538
vt 0.06229666 0.08345538
vt 0.06229666 0.110989
vt 0.04173455 0.110989
vt 0.02092831 0.08345538
vt 0.04149041 0.08345538
vt 0.04149041 0.110989
vt 0.02092831 0.110989
vt 0.0001220703 0.08345538
vt 0.02068417 0.08345538
vt 0.02068417 0.110989
vt 0.0001220703 0.110989
vt 0.6867281 0.9723443
vt 0.7072902 0.9723443
vt 0.7072902 0.9998779
vt 0.6867281 0.9998779
vt 0.3538282 0.1667888
vt 0.3743903 0.1667888
vt 0.3743903 0.1943223
vt 0.3538282 0.1943223
vt 0.3330219 0.1667888
vt 0.3535841 0.1667888
vt 0.3535841 0.1943223
vt 0.3330219 0.1943223
vt 0.3122157 0.1667888
vt 0.3327778 0.1667888
vt 0.3327778 0.1943223
vt 0.3122157 0.1943223
vt 0.2914095 0.1667888
vt 0.3119715 0.1667888
vt 0.3119715 0.1943223
vt 0.2914095 0.1943223
vt 0.5618906 0.8612332
vt 0.5824527 0.8612332
vt 0.5824527 0.8887668
vt 0.5618906 0.8887668
vt 0.8739842 0.02789986
vt 0.8945463 0.02789986
vt 0.8945463 0.05543351
vt 0.8739842 0.05543351
vt 0.853178 0.02789986
vt 0.8737401 0.02789986
vt 0.8737401 0.05543351
vt 0.853178 0.05543351
vt 0.1249595 0.08345538
vt 0.1455216 0.08345538
vt 0.1455216 0.110989
vt 0.1249595 0.110989
vt 0.1041533 0.08345538
vt 0.1247154 0.08345538
vt 0.1247154 0.110989
vt 0.1041533 0.110989
vt 0.08334704 0.08345538
vt 0.1039091 0.08345538
vt 0.1039091 0.110989
vt 0.08334704 0.110989
vt 0.7491468 0.4723443
vt 0.7697089 0.4723443
vt 0.7697089 0.4998779
vt 0.7491468 0.4998779
vt 0.7491468 0.4445665
vt 0.7697089 0.4445665
vt 0.7697089 0.4721001
vt 0.7491468 0.4721001

# Normal
vn 0 0 -1

# Mesh description
g Bos-BigDaddy_mesh_0007

# Faces
f 1/1/1 2/2/1 3/3/1 4/4/1
f 5/5/1 6/6/1 7/7/1 8/8/1
f 9/9/1 10/10/1 11/11/1 12/12/1
f 13/13/1 14/14/1 15/15/1 16/16/1
f 17/17/1 18/18/1 19/19/1 20/20/1
f 21/21/1 22/22/1 23/23/1 24/24/1
f 25/25/1 26/26/1 27/27/1 28/28/1
f 29/25/1 30/26/1 31/27/1 32/28/1
f 33/29/1 34/30/1 35/31/1 36/32/1
f 37/33/1 38/34/1 39/35/1 40/36/1
f 41/37/1 42/38/1 43/39/1 44/40/1
f 45/41/1 46/42/1 47/43/1 48/44/1
f 49/29/1 50/30/1 51/31/1 52/32/1
f 53/33/1 54/34/1 55/35/1 56/36/1
f 57/37/1 58/38/1 59/39/1 60/40/1
f 61/41/1 62/42/1 63/43/1 64/44/1
f 65/45/1 66/46/1 67/47/1 68/48/1
f 69/1/1 70/2/1 71/3/1 72/4/1
f 73/5/1 74/6/1 75/7/1 76/8/1
f 77/29/1 78/30/1 79/31/1 80/32/1
f 81/33/1 82/34/1 83/35/1 84/36/1
f 85/37/1 86/38/1 87/39/1 88/40/1
f 89/41/1 90/42/1 91/43/1 92/44/1
f 93/9/1 94/10/1 95/11/1 96/12/1
f 97/13/1 98/14/1 99/15/1 100/16/1
f 101/17/1 102/18/1 103/19/1 104/20/1
f 105/21/1 106/22/1 107/23/1 108/24/1
f 109/49/1 110/50/1 111/51/1 112/52/1
f 113/53/1 114/54/1 115/55/1 116/56/1
f 117/9/1 118/10/1 119/11/1 120/12/1
f 121/13/1 122/14/1 123/15/1 124/16/1
f 125/17/1 126/18/1 127/19/1 128/20/1
f 129/21/1 130/22/1 131/23/1 132/24/1
f 133/29/1 134/30/1 135/31/1 136/32/1
f 137/33/1 138/34/1 139/35/1 140/36/1
f 141/37/1 142/38/1 143/39/1 144/40/1
f 145/41/1 146/42/1 147/43/1 148/44/1
f 149/1/1 150/2/1 151/3/1 152/4/1
f 153/5/1 154/6/1 155/7/1 156/8/1
f 157/1/1 158/2/1 159/3/1 160/4/1
f 161/5/1 162/6/1 163/7/1 164/8/1
f 165/29/1 166/30/1 167/31/1 168/32/1
f 169/33/1 170/34/1 171/35/1 172/36/1
f 173/37/1 174/38/1 175/39/1 176/40/1
f 177/41/1 178/42/1 179/43/1 180/44/1
f 181/9/1 182/10/1 183/11/1 184/12/1
f 185/13/1 186/14/1 187/15/1 188/16/1
f 189/17/1 190/18/1 191/19/1 192/20/1
f 193/21/1 194/22/1 195/23/1 196/24/1
f 197/57/1 198/58/1 199/59/1 200/60/1
f 201/61/1 202/62/1 203/63/1 204/64/1
f 205/65/1 206/66/1 207/67/1 208/68/1
f 209/61/1 210/62/1 211/63/1 212/64/1
f 213/65/1 214/66/1 215/67/1 216/68/1
f 217/1/1 218/2/1 219/3/1 220/4/1
f 221/5/1 222/6/1 223/7/1 224/8/1
f 225/9/1 226/10/1 227/11/1 228/12/1
f 229/13/1 230/14/1 231/15/1 232/16/1
f 233/17/1 234/18/1 235/19/1 236/20/1
f 237/21/1 238/22/1 239/23/1 240/24/1
f 241/29/1 242/30/1 243/31/1 244/32/1
f 245/33/1 246/34/1 247/35/1 248/36/1
f 249/37/1 250/38/1 251/39/1 252/40/1
f 253/41/1 254/42/1 255/43/1 256/44/1
f 257/57/1 258/58/1 259/59/1 260/60/1
f 261/61/1 262/62/1 263/63/1 264/64/1
f 265/65/1 266/66/1 267/67/1 268/68/1
f 269/29/1 270/30/1 271/31/1 272/32/1
f 273/33/1 274/34/1 275/35/1 276/36/1
f 277/37/1 278/38/1 279/39/1 280/40/1
f 281/41/1 282/42/1 283/43/1 284/44/1
f 285/9/1 286/10/1 287/11/1 288/12/1
f 289/13/1 290/14/1 291/15/1 292/16/1
f 293/17/1 294/18/1 295/19/1 296/20/1
f 297/21/1 298/22/1 299/23/1 300/24/1
f 301/1/1 302/2/1 303/3/1 304/4/1
f 305/5/1 306/6/1 307/7/1 308/8/1
f 309/1/1 310/2/1 311/3/1 312/4/1
f 313/5/1 314/6/1 315/7/1 316/8/1
f 317/1/1 318/2/1 319/3/1 320/4/1
f 321/5/1 322/6/1 323/7/1 324/8/1
f 325/69/1 326/70/1 327/71/1 328/72/1
f 329/73/1 330/74/1 331/75/1 332/76/1
f 333/9/1 334/10/1 335/11/1 336/12/1
f 337/13/1 338/14/1 339/15/1 340/16/1
f 341/17/1 342/18/1 343/19/1 344/20/1
f 345/21/1 346/22/1 347/23/1 348/24/1
f 349/1/1 350/2/1 351/3/1 352/4/1
f 353/5/1 354/6/1 355/7/1 356/8/1
f 357/1/1 358/2/1 359/3/1 360/4/1
f 361/5/1 362/6/1 363/7/1 364/8/1
f 365/9/1 366/10/1 367/11/1 368/12/1
f 369/13/1 370/14/1 371/15/1 372/16/1
f 373/17/1 374/18/1 375/19/1 376/20/1
f 377/21/1 378/22/1 379/23/1 380/24/1
f 381/9/1 382/10/1 383/11/1 384/12/1
f 385/13/1 386/14/1 387/15/1 388/16/1
f 389/17/1 390/18/1 391/19/1 392/20/1
f 393/21/1 394/22/1 395/23/1 396/24/1
f 397/9/1 398/10/1 399/11/1 400/12/1
f 401/13/1 402/14/1 403/15/1 404/16/1
f 405/17/1 406/18/1 407/19/1 408/20/1
f 409/21/1 410/22/1 411/23/1 412/24/1

