# Tiled2Unity generated file. Do not modify by hand.
# Wavefront file for 'Bos-BigDaddy_mesh_0006.obj'

# Vertices (Count = 308)
v -80 -5 0
v -81 -5 0
v -81 -4 0
v -80 -4 0
v -79 -5 0
v -80 -5 0
v -80 -4 0
v -79 -4 0
v -80 -6 0
v -81 -6 0
v -81 -5 0
v -80 -5 0
v -79 -6 0
v -80 -6 0
v -80 -5 0
v -79 -5 0
v -52 -19 0
v -53 -19 0
v -53 -18 0
v -52 -18 0
v -51 -19 0
v -52 -19 0
v -52 -18 0
v -51 -18 0
v -23 -19 0
v -24 -19 0
v -24 -18 0
v -23 -18 0
v -22 -19 0
v -23 -19 0
v -23 -18 0
v -22 -18 0
v -52 -20 0
v -53 -20 0
v -53 -19 0
v -52 -19 0
v -51 -20 0
v -52 -20 0
v -52 -19 0
v -51 -19 0
v -23 -23 0
v -24 -23 0
v -24 -22 0
v -23 -22 0
v -23 -24 0
v -24 -24 0
v -24 -23 0
v -23 -23 0
v -22 -24 0
v -23 -24 0
v -23 -23 0
v -22 -23 0
v -18 -25 0
v -19 -25 0
v -19 -24 0
v -18 -24 0
v -17 -25 0
v -18 -25 0
v -18 -24 0
v -17 -24 0
v -18 -26 0
v -19 -26 0
v -19 -25 0
v -18 -25 0
v -17 -26 0
v -18 -26 0
v -18 -25 0
v -17 -25 0
v -51 -48 0
v -52 -48 0
v -52 -47 0
v -51 -47 0
v -50 -48 0
v -51 -48 0
v -51 -47 0
v -50 -47 0
v -49 -48 0
v -50 -48 0
v -50 -47 0
v -49 -47 0
v -48 -48 0
v -49 -48 0
v -49 -47 0
v -48 -47 0
v -51 -49 0
v -52 -49 0
v -52 -48 0
v -51 -48 0
v -46 -49 0
v -47 -49 0
v -47 -48 0
v -46 -48 0
v -45 -49 0
v -46 -49 0
v -46 -48 0
v -45 -48 0
v -44 -49 0
v -45 -49 0
v -45 -48 0
v -44 -48 0
v -43 -49 0
v -44 -49 0
v -44 -48 0
v -43 -48 0
v -42 -49 0
v -43 -49 0
v -43 -48 0
v -42 -48 0
v -41 -49 0
v -42 -49 0
v -42 -48 0
v -41 -48 0
v -40 -49 0
v -41 -49 0
v -41 -48 0
v -40 -48 0
v -39 -49 0
v -40 -49 0
v -40 -48 0
v -39 -48 0
v -51 -50 0
v -52 -50 0
v -52 -49 0
v -51 -49 0
v -39 -50 0
v -40 -50 0
v -40 -49 0
v -39 -49 0
v -51 -51 0
v -52 -51 0
v -52 -50 0
v -51 -50 0
v -39 -51 0
v -40 -51 0
v -40 -50 0
v -39 -50 0
v -51 -52 0
v -52 -52 0
v -52 -51 0
v -51 -51 0
v -39 -52 0
v -40 -52 0
v -40 -51 0
v -39 -51 0
v -51 -53 0
v -52 -53 0
v -52 -52 0
v -51 -52 0
v -39 -53 0
v -40 -53 0
v -40 -52 0
v -39 -52 0
v -51 -54 0
v -52 -54 0
v -52 -53 0
v -51 -53 0
v -39 -54 0
v -40 -54 0
v -40 -53 0
v -39 -53 0
v -51 -55 0
v -52 -55 0
v -52 -54 0
v -51 -54 0
v -39 -55 0
v -40 -55 0
v -40 -54 0
v -39 -54 0
v -68 -56 0
v -69 -56 0
v -69 -55 0
v -68 -55 0
v -67 -56 0
v -68 -56 0
v -68 -55 0
v -67 -55 0
v -51 -56 0
v -52 -56 0
v -52 -55 0
v -51 -55 0
v -39 -56 0
v -40 -56 0
v -40 -55 0
v -39 -55 0
v -68 -57 0
v -69 -57 0
v -69 -56 0
v -68 -56 0
v -67 -57 0
v -68 -57 0
v -68 -56 0
v -67 -56 0
v -51 -57 0
v -52 -57 0
v -52 -56 0
v -51 -56 0
v -50 -57 0
v -51 -57 0
v -51 -56 0
v -50 -56 0
v -49 -57 0
v -50 -57 0
v -50 -56 0
v -49 -56 0
v -48 -57 0
v -49 -57 0
v -49 -56 0
v -48 -56 0
v -47 -57 0
v -48 -57 0
v -48 -56 0
v -47 -56 0
v -46 -57 0
v -47 -57 0
v -47 -56 0
v -46 -56 0
v -45 -57 0
v -46 -57 0
v -46 -56 0
v -45 -56 0
v -44 -57 0
v -45 -57 0
v -45 -56 0
v -44 -56 0
v -43 -57 0
v -44 -57 0
v -44 -56 0
v -43 -56 0
v -42 -57 0
v -43 -57 0
v -43 -56 0
v -42 -56 0
v -41 -57 0
v -42 -57 0
v -42 -56 0
v -41 -56 0
v -40 -57 0
v -41 -57 0
v -41 -56 0
v -40 -56 0
v -39 -57 0
v -40 -57 0
v -40 -56 0
v -39 -56 0
v -85 -62 0
v -86 -62 0
v -86 -61 0
v -85 -61 0
v -84 -62 0
v -85 -62 0
v -85 -61 0
v -84 -61 0
v -85 -63 0
v -86 -63 0
v -86 -62 0
v -85 -62 0
v -84 -63 0
v -85 -63 0
v -85 -62 0
v -84 -62 0
v -28 -63 0
v -29 -63 0
v -29 -62 0
v -28 -62 0
v -27 -63 0
v -28 -63 0
v -28 -62 0
v -27 -62 0
v -28 -64 0
v -29 -64 0
v -29 -63 0
v -28 -63 0
v -27 -64 0
v -28 -64 0
v -28 -63 0
v -27 -63 0
v -7 -67 0
v -8 -67 0
v -8 -66 0
v -7 -66 0
v -6 -67 0
v -7 -67 0
v -7 -66 0
v -6 -66 0
v -7 -68 0
v -8 -68 0
v -8 -67 0
v -7 -67 0
v -6 -68 0
v -7 -68 0
v -7 -67 0
v -6 -67 0
v -3 -71 0
v -4 -71 0
v -4 -70 0
v -3 -70 0
v -2 -71 0
v -3 -71 0
v -3 -70 0
v -2 -70 0
v -3 -72 0
v -4 -72 0
v -4 -71 0
v -3 -71 0
v -2 -72 0
v -3 -72 0
v -3 -71 0
v -2 -71 0

# Texture cooridinates (Count = 60)
vt 0.2081845 0.6667887
vt 0.2287466 0.6667887
vt 0.2287466 0.6943223
vt 0.2081845 0.6943223
vt 0.1873782 0.6667887
vt 0.2079404 0.6667887
vt 0.2079404 0.6943223
vt 0.1873782 0.6943223
vt 0.2081845 0.639011
vt 0.2287466 0.639011
vt 0.2287466 0.6665446
vt 0.2081845 0.6665446
vt 0.1873782 0.639011
vt 0.2079404 0.639011
vt 0.2079404 0.6665446
vt 0.1873782 0.6665446
vt 0.8739842 0.0001220703
vt 0.8945463 0.0001220703
vt 0.8945463 0.02765572
vt 0.8739842 0.02765572
vt 0.853178 0.0001220703
vt 0.8737401 0.0001220703
vt 0.8737401 0.02765572
vt 0.853178 0.02765572
vt 0.5202781 0.02789986
vt 0.5408402 0.02789986
vt 0.5408402 0.05543351
vt 0.5202781 0.05543351
vt 0.5202781 0.0001220703
vt 0.5408402 0.0001220703
vt 0.5408402 0.02765572
vt 0.5202781 0.02765572
vt 0.5826969 0.0001220703
vt 0.603259 0.0001220703
vt 0.603259 0.02765572
vt 0.5826969 0.02765572
vt 0.0625408 0.5001221
vt 0.0831029 0.5001221
vt 0.0831029 0.5276557
vt 0.0625408 0.5276557
vt 0.02092831 0.5001221
vt 0.04149041 0.5001221
vt 0.04149041 0.5276557
vt 0.02092831 0.5276557
vt 0.04173455 0.5001221
vt 0.06229666 0.5001221
vt 0.06229666 0.5276557
vt 0.04173455 0.5276557
vt 0.02092831 0.4723443
vt 0.04149041 0.4723443
vt 0.04149041 0.4998779
vt 0.02092831 0.4998779
vt 0.0625408 0.4723443
vt 0.0831029 0.4723443
vt 0.0831029 0.4998779
vt 0.0625408 0.4998779
vt 0.04173455 0.4723443
vt 0.06229666 0.4723443
vt 0.06229666 0.4998779
vt 0.04173455 0.4998779

# Normal
vn 0 0 -1

# Mesh description
g Bos-BigDaddy_mesh_0006

# Faces
f 1/1/1 2/2/1 3/3/1 4/4/1
f 5/5/1 6/6/1 7/7/1 8/8/1
f 9/9/1 10/10/1 11/11/1 12/12/1
f 13/13/1 14/14/1 15/15/1 16/16/1
f 17/1/1 18/2/1 19/3/1 20/4/1
f 21/5/1 22/6/1 23/7/1 24/8/1
f 25/17/1 26/18/1 27/19/1 28/20/1
f 29/21/1 30/22/1 31/23/1 32/24/1
f 33/9/1 34/10/1 35/11/1 36/12/1
f 37/13/1 38/14/1 39/15/1 40/16/1
f 41/25/1 42/26/1 43/27/1 44/28/1
f 45/29/1 46/30/1 47/31/1 48/32/1
f 49/33/1 50/34/1 51/35/1 52/36/1
f 53/1/1 54/2/1 55/3/1 56/4/1
f 57/5/1 58/6/1 59/7/1 60/8/1
f 61/9/1 62/10/1 63/11/1 64/12/1
f 65/13/1 66/14/1 67/15/1 68/16/1
f 69/37/1 70/38/1 71/39/1 72/40/1
f 73/41/1 74/42/1 75/43/1 76/44/1
f 77/41/1 78/42/1 79/43/1 80/44/1
f 81/45/1 82/46/1 83/47/1 84/48/1
f 85/49/1 86/50/1 87/51/1 88/52/1
f 89/37/1 90/38/1 91/39/1 92/40/1
f 93/41/1 94/42/1 95/43/1 96/44/1
f 97/41/1 98/42/1 99/43/1 100/44/1
f 101/41/1 102/42/1 103/43/1 104/44/1
f 105/41/1 106/42/1 107/43/1 108/44/1
f 109/41/1 110/42/1 111/43/1 112/44/1
f 113/41/1 114/42/1 115/43/1 116/44/1
f 117/45/1 118/46/1 119/47/1 120/48/1
f 121/49/1 122/50/1 123/51/1 124/52/1
f 125/49/1 126/50/1 127/51/1 128/52/1
f 129/49/1 130/50/1 131/51/1 132/52/1
f 133/49/1 134/50/1 135/51/1 136/52/1
f 137/49/1 138/50/1 139/51/1 140/52/1
f 141/49/1 142/50/1 143/51/1 144/52/1
f 145/49/1 146/50/1 147/51/1 148/52/1
f 149/49/1 150/50/1 151/51/1 152/52/1
f 153/49/1 154/50/1 155/51/1 156/52/1
f 157/49/1 158/50/1 159/51/1 160/52/1
f 161/49/1 162/50/1 163/51/1 164/52/1
f 165/49/1 166/50/1 167/51/1 168/52/1
f 169/1/1 170/2/1 171/3/1 172/4/1
f 173/5/1 174/6/1 175/7/1 176/8/1
f 177/49/1 178/50/1 179/51/1 180/52/1
f 181/49/1 182/50/1 183/51/1 184/52/1
f 185/9/1 186/10/1 187/11/1 188/12/1
f 189/13/1 190/14/1 191/15/1 192/16/1
f 193/53/1 194/54/1 195/55/1 196/56/1
f 197/41/1 198/42/1 199/43/1 200/44/1
f 201/41/1 202/42/1 203/43/1 204/44/1
f 205/41/1 206/42/1 207/43/1 208/44/1
f 209/41/1 210/42/1 211/43/1 212/44/1
f 213/41/1 214/42/1 215/43/1 216/44/1
f 217/41/1 218/42/1 219/43/1 220/44/1
f 221/41/1 222/42/1 223/43/1 224/44/1
f 225/41/1 226/42/1 227/43/1 228/44/1
f 229/41/1 230/42/1 231/43/1 232/44/1
f 233/41/1 234/42/1 235/43/1 236/44/1
f 237/41/1 238/42/1 239/43/1 240/44/1
f 241/57/1 242/58/1 243/59/1 244/60/1
f 245/1/1 246/2/1 247/3/1 248/4/1
f 249/5/1 250/6/1 251/7/1 252/8/1
f 253/9/1 254/10/1 255/11/1 256/12/1
f 257/13/1 258/14/1 259/15/1 260/16/1
f 261/1/1 262/2/1 263/3/1 264/4/1
f 265/5/1 266/6/1 267/7/1 268/8/1
f 269/9/1 270/10/1 271/11/1 272/12/1
f 273/13/1 274/14/1 275/15/1 276/16/1
f 277/1/1 278/2/1 279/3/1 280/4/1
f 281/5/1 282/6/1 283/7/1 284/8/1
f 285/9/1 286/10/1 287/11/1 288/12/1
f 289/13/1 290/14/1 291/15/1 292/16/1
f 293/1/1 294/2/1 295/3/1 296/4/1
f 297/5/1 298/6/1 299/7/1 300/8/1
f 301/9/1 302/10/1 303/11/1 304/12/1
f 305/13/1 306/14/1 307/15/1 308/16/1

