# Tiled2Unity generated file. Do not modify by hand.
# Wavefront file for 'HallofJustice_mesh_0006.obj'

# Vertices (Count = 436)
v -34 -2 0
v -35 -2 0
v -35 -1 0
v -34 -1 0
v -33 -2 0
v -34 -2 0
v -34 -1 0
v -33 -1 0
v -32 -2 0
v -33 -2 0
v -33 -1 0
v -32 -1 0
v -31 -2 0
v -32 -2 0
v -32 -1 0
v -31 -1 0
v -30 -2 0
v -31 -2 0
v -31 -1 0
v -30 -1 0
v -29 -2 0
v -30 -2 0
v -30 -1 0
v -29 -1 0
v -28 -2 0
v -29 -2 0
v -29 -1 0
v -28 -1 0
v -34 -3 0
v -35 -3 0
v -35 -2 0
v -34 -2 0
v -33 -3 0
v -34 -3 0
v -34 -2 0
v -33 -2 0
v -32 -3 0
v -33 -3 0
v -33 -2 0
v -32 -2 0
v -31 -3 0
v -32 -3 0
v -32 -2 0
v -31 -2 0
v -30 -3 0
v -31 -3 0
v -31 -2 0
v -30 -2 0
v -29 -3 0
v -30 -3 0
v -30 -2 0
v -29 -2 0
v -28 -3 0
v -29 -3 0
v -29 -2 0
v -28 -2 0
v -41 -4 0
v -42 -4 0
v -42 -3 0
v -41 -3 0
v -40 -4 0
v -41 -4 0
v -41 -3 0
v -40 -3 0
v -39 -4 0
v -40 -4 0
v -40 -3 0
v -39 -3 0
v -38 -4 0
v -39 -4 0
v -39 -3 0
v -38 -3 0
v -37 -4 0
v -38 -4 0
v -38 -3 0
v -37 -3 0
v -36 -4 0
v -37 -4 0
v -37 -3 0
v -36 -3 0
v -35 -4 0
v -36 -4 0
v -36 -3 0
v -35 -3 0
v -34 -4 0
v -35 -4 0
v -35 -3 0
v -34 -3 0
v -33 -4 0
v -34 -4 0
v -34 -3 0
v -33 -3 0
v -32 -4 0
v -33 -4 0
v -33 -3 0
v -32 -3 0
v -31 -4 0
v -32 -4 0
v -32 -3 0
v -31 -3 0
v -30 -4 0
v -31 -4 0
v -31 -3 0
v -30 -3 0
v -29 -4 0
v -30 -4 0
v -30 -3 0
v -29 -3 0
v -28 -4 0
v -29 -4 0
v -29 -3 0
v -28 -3 0
v -41 -5 0
v -42 -5 0
v -42 -4 0
v -41 -4 0
v -40 -5 0
v -41 -5 0
v -41 -4 0
v -40 -4 0
v -39 -5 0
v -40 -5 0
v -40 -4 0
v -39 -4 0
v -38 -5 0
v -39 -5 0
v -39 -4 0
v -38 -4 0
v -37 -5 0
v -38 -5 0
v -38 -4 0
v -37 -4 0
v -36 -5 0
v -37 -5 0
v -37 -4 0
v -36 -4 0
v -35 -5 0
v -36 -5 0
v -36 -4 0
v -35 -4 0
v -34 -5 0
v -35 -5 0
v -35 -4 0
v -34 -4 0
v -33 -5 0
v -34 -5 0
v -34 -4 0
v -33 -4 0
v -32 -5 0
v -33 -5 0
v -33 -4 0
v -32 -4 0
v -31 -5 0
v -32 -5 0
v -32 -4 0
v -31 -4 0
v -30 -5 0
v -31 -5 0
v -31 -4 0
v -30 -4 0
v -29 -5 0
v -30 -5 0
v -30 -4 0
v -29 -4 0
v -28 -5 0
v -29 -5 0
v -29 -4 0
v -28 -4 0
v -41 -6 0
v -42 -6 0
v -42 -5 0
v -41 -5 0
v -40 -6 0
v -41 -6 0
v -41 -5 0
v -40 -5 0
v -39 -6 0
v -40 -6 0
v -40 -5 0
v -39 -5 0
v -38 -6 0
v -39 -6 0
v -39 -5 0
v -38 -5 0
v -37 -6 0
v -38 -6 0
v -38 -5 0
v -37 -5 0
v -36 -6 0
v -37 -6 0
v -37 -5 0
v -36 -5 0
v -35 -6 0
v -36 -6 0
v -36 -5 0
v -35 -5 0
v -41 -7 0
v -42 -7 0
v -42 -6 0
v -41 -6 0
v -40 -7 0
v -41 -7 0
v -41 -6 0
v -40 -6 0
v -39 -7 0
v -40 -7 0
v -40 -6 0
v -39 -6 0
v -38 -7 0
v -39 -7 0
v -39 -6 0
v -38 -6 0
v -37 -7 0
v -38 -7 0
v -38 -6 0
v -37 -6 0
v -36 -7 0
v -37 -7 0
v -37 -6 0
v -36 -6 0
v -35 -7 0
v -36 -7 0
v -36 -6 0
v -35 -6 0
v -36 -28 0
v -37 -28 0
v -37 -27 0
v -36 -27 0
v -35 -28 0
v -36 -28 0
v -36 -27 0
v -35 -27 0
v -34 -28 0
v -35 -28 0
v -35 -27 0
v -34 -27 0
v -33 -28 0
v -34 -28 0
v -34 -27 0
v -33 -27 0
v -36 -29 0
v -37 -29 0
v -37 -28 0
v -36 -28 0
v -35 -29 0
v -36 -29 0
v -36 -28 0
v -35 -28 0
v -34 -29 0
v -35 -29 0
v -35 -28 0
v -34 -28 0
v -33 -29 0
v -34 -29 0
v -34 -28 0
v -33 -28 0
v -36 -30 0
v -37 -30 0
v -37 -29 0
v -36 -29 0
v -35 -30 0
v -36 -30 0
v -36 -29 0
v -35 -29 0
v -34 -30 0
v -35 -30 0
v -35 -29 0
v -34 -29 0
v -33 -30 0
v -34 -30 0
v -34 -29 0
v -33 -29 0
v -36 -31 0
v -37 -31 0
v -37 -30 0
v -36 -30 0
v -35 -31 0
v -36 -31 0
v -36 -30 0
v -35 -30 0
v -34 -31 0
v -35 -31 0
v -35 -30 0
v -34 -30 0
v -33 -31 0
v -34 -31 0
v -34 -30 0
v -33 -30 0
v -36 -32 0
v -37 -32 0
v -37 -31 0
v -36 -31 0
v -35 -32 0
v -36 -32 0
v -36 -31 0
v -35 -31 0
v -34 -32 0
v -35 -32 0
v -35 -31 0
v -34 -31 0
v -33 -32 0
v -34 -32 0
v -34 -31 0
v -33 -31 0
v -22 -36 0
v -23 -36 0
v -23 -35 0
v -22 -35 0
v -21 -36 0
v -22 -36 0
v -22 -35 0
v -21 -35 0
v -20 -36 0
v -21 -36 0
v -21 -35 0
v -20 -35 0
v -19 -36 0
v -20 -36 0
v -20 -35 0
v -19 -35 0
v -18 -36 0
v -19 -36 0
v -19 -35 0
v -18 -35 0
v -25 -37 0
v -26 -37 0
v -26 -36 0
v -25 -36 0
v -25 -38 0
v -26 -38 0
v -26 -37 0
v -25 -37 0
v -25 -39 0
v -26 -39 0
v -26 -38 0
v -25 -38 0
v -25 -40 0
v -26 -40 0
v -26 -39 0
v -25 -39 0
v -16 -42 0
v -17 -42 0
v -17 -41 0
v -16 -41 0
v -15 -42 0
v -16 -42 0
v -16 -41 0
v -15 -41 0
v -14 -42 0
v -15 -42 0
v -15 -41 0
v -14 -41 0
v -13 -42 0
v -14 -42 0
v -14 -41 0
v -13 -41 0
v -12 -42 0
v -13 -42 0
v -13 -41 0
v -12 -41 0
v -11 -42 0
v -12 -42 0
v -12 -41 0
v -11 -41 0
v -16 -43 0
v -17 -43 0
v -17 -42 0
v -16 -42 0
v -15 -43 0
v -16 -43 0
v -16 -42 0
v -15 -42 0
v -14 -43 0
v -15 -43 0
v -15 -42 0
v -14 -42 0
v -13 -43 0
v -14 -43 0
v -14 -42 0
v -13 -42 0
v -12 -43 0
v -13 -43 0
v -13 -42 0
v -12 -42 0
v -11 -43 0
v -12 -43 0
v -12 -42 0
v -11 -42 0
v -16 -44 0
v -17 -44 0
v -17 -43 0
v -16 -43 0
v -15 -44 0
v -16 -44 0
v -16 -43 0
v -15 -43 0
v -14 -44 0
v -15 -44 0
v -15 -43 0
v -14 -43 0
v -13 -44 0
v -14 -44 0
v -14 -43 0
v -13 -43 0
v -12 -44 0
v -13 -44 0
v -13 -43 0
v -12 -43 0
v -11 -44 0
v -12 -44 0
v -12 -43 0
v -11 -43 0
v -16 -45 0
v -17 -45 0
v -17 -44 0
v -16 -44 0
v -15 -45 0
v -16 -45 0
v -16 -44 0
v -15 -44 0
v -14 -45 0
v -15 -45 0
v -15 -44 0
v -14 -44 0
v -13 -45 0
v -14 -45 0
v -14 -44 0
v -13 -44 0
v -12 -45 0
v -13 -45 0
v -13 -44 0
v -12 -44 0
v -11 -45 0
v -12 -45 0
v -12 -44 0
v -11 -44 0

# Texture cooridinates (Count = 428)
vt 0.3104669 0.8159115
vt 0.3274641 0.8159115
vt 0.3274641 0.8419832
vt 0.3104669 0.8419832
vt 0.2932255 0.8159115
vt 0.3102227 0.8159115
vt 0.3102227 0.8419832
vt 0.2932255 0.8419832
vt 0.2759841 0.8159115
vt 0.2929814 0.8159115
vt 0.2929814 0.8419832
vt 0.2759841 0.8419832
vt 0.2587427 0.8159115
vt 0.27574 0.8159115
vt 0.27574 0.8419832
vt 0.2587427 0.8419832
vt 0.2415014 0.8159115
vt 0.2584986 0.8159115
vt 0.2584986 0.8419832
vt 0.2415014 0.8419832
vt 0.22426 0.8159115
vt 0.2412572 0.8159115
vt 0.2412572 0.8419832
vt 0.22426 0.8419832
vt 0.2070186 0.8159115
vt 0.2240159 0.8159115
vt 0.2240159 0.8419832
vt 0.2070186 0.8419832
vt 0.3104669 0.7895957
vt 0.3274641 0.7895957
vt 0.3274641 0.8156674
vt 0.3104669 0.8156674
vt 0.2932255 0.7895957
vt 0.3102227 0.7895957
vt 0.3102227 0.8156674
vt 0.2932255 0.8156674
vt 0.2759841 0.7895957
vt 0.2929814 0.7895957
vt 0.2929814 0.8156674
vt 0.2759841 0.8156674
vt 0.2587427 0.7895957
vt 0.27574 0.7895957
vt 0.27574 0.8156674
vt 0.2587427 0.8156674
vt 0.2415014 0.7895957
vt 0.2584986 0.7895957
vt 0.2584986 0.8156674
vt 0.2415014 0.8156674
vt 0.22426 0.7895957
vt 0.2412572 0.7895957
vt 0.2412572 0.8156674
vt 0.22426 0.8156674
vt 0.2070186 0.7895957
vt 0.2240159 0.7895957
vt 0.2240159 0.8156674
vt 0.2070186 0.8156674
vt 0.3104669 0.9474905
vt 0.3274641 0.9474905
vt 0.3274641 0.9735621
vt 0.3104669 0.9735621
vt 0.2932255 0.9474905
vt 0.3102227 0.9474905
vt 0.3102227 0.9735621
vt 0.2932255 0.9735621
vt 0.2759841 0.9474905
vt 0.2929814 0.9474905
vt 0.2929814 0.9735621
vt 0.2759841 0.9735621
vt 0.2587427 0.9474905
vt 0.27574 0.9474905
vt 0.27574 0.9735621
vt 0.2587427 0.9735621
vt 0.2415014 0.9474905
vt 0.2584986 0.9474905
vt 0.2584986 0.9735621
vt 0.2415014 0.9735621
vt 0.22426 0.9474905
vt 0.2412572 0.9474905
vt 0.2412572 0.9735621
vt 0.22426 0.9735621
vt 0.2070186 0.9474905
vt 0.2240159 0.9474905
vt 0.2240159 0.9735621
vt 0.2070186 0.9735621
vt 0.3104669 0.76328
vt 0.3274641 0.76328
vt 0.3274641 0.7893516
vt 0.3104669 0.7893516
vt 0.2932255 0.76328
vt 0.3102227 0.76328
vt 0.3102227 0.7893516
vt 0.2932255 0.7893516
vt 0.2759841 0.76328
vt 0.2929814 0.76328
vt 0.2929814 0.7893516
vt 0.2759841 0.7893516
vt 0.2587427 0.76328
vt 0.27574 0.76328
vt 0.27574 0.7893516
vt 0.2587427 0.7893516
vt 0.2415014 0.76328
vt 0.2584986 0.76328
vt 0.2584986 0.7893516
vt 0.2415014 0.7893516
vt 0.22426 0.76328
vt 0.2412572 0.76328
vt 0.2412572 0.7893516
vt 0.22426 0.7893516
vt 0.2070186 0.76328
vt 0.2240159 0.76328
vt 0.2240159 0.7893516
vt 0.2070186 0.7893516
vt 0.3104669 0.9211747
vt 0.3274641 0.9211747
vt 0.3274641 0.9472464
vt 0.3104669 0.9472464
vt 0.2932255 0.9211747
vt 0.3102227 0.9211747
vt 0.3102227 0.9472464
vt 0.2932255 0.9472464
vt 0.2759841 0.9211747
vt 0.2929814 0.9211747
vt 0.2929814 0.9472464
vt 0.2759841 0.9472464
vt 0.2587427 0.9211747
vt 0.27574 0.9211747
vt 0.27574 0.9472464
vt 0.2587427 0.9472464
vt 0.2415014 0.9211747
vt 0.2584986 0.9211747
vt 0.2584986 0.9472464
vt 0.2415014 0.9472464
vt 0.22426 0.9211747
vt 0.2412572 0.9211747
vt 0.2412572 0.9472464
vt 0.22426 0.9472464
vt 0.2070186 0.9211747
vt 0.2240159 0.9211747
vt 0.2240159 0.9472464
vt 0.2070186 0.9472464
vt 0.3104669 0.7369642
vt 0.3274641 0.7369642
vt 0.3274641 0.7630358
vt 0.3104669 0.7630358
vt 0.2932255 0.7369642
vt 0.3102227 0.7369642
vt 0.3102227 0.7630358
vt 0.2932255 0.7630358
vt 0.2759841 0.7369642
vt 0.2929814 0.7369642
vt 0.2929814 0.7630358
vt 0.2759841 0.7630358
vt 0.2587427 0.7369642
vt 0.27574 0.7369642
vt 0.27574 0.7630358
vt 0.2587427 0.7630358
vt 0.2415014 0.7369642
vt 0.2584986 0.7369642
vt 0.2584986 0.7630358
vt 0.2415014 0.7630358
vt 0.22426 0.7369642
vt 0.2412572 0.7369642
vt 0.2412572 0.7630358
vt 0.22426 0.7630358
vt 0.2070186 0.7369642
vt 0.2240159 0.7369642
vt 0.2240159 0.7630358
vt 0.2070186 0.7630358
vt 0.3104669 0.8948589
vt 0.3274641 0.8948589
vt 0.3274641 0.9209306
vt 0.3104669 0.9209306
vt 0.2932255 0.8948589
vt 0.3102227 0.8948589
vt 0.3102227 0.9209306
vt 0.2932255 0.9209306
vt 0.2759841 0.8948589
vt 0.2929814 0.8948589
vt 0.2929814 0.9209306
vt 0.2759841 0.9209306
vt 0.2587427 0.8948589
vt 0.27574 0.8948589
vt 0.27574 0.9209306
vt 0.2587427 0.9209306
vt 0.2415014 0.8948589
vt 0.2584986 0.8948589
vt 0.2584986 0.9209306
vt 0.2415014 0.9209306
vt 0.22426 0.8948589
vt 0.2412572 0.8948589
vt 0.2412572 0.9209306
vt 0.22426 0.9209306
vt 0.2070186 0.8948589
vt 0.2240159 0.8948589
vt 0.2240159 0.9209306
vt 0.2070186 0.9209306
vt 0.3104669 0.8685431
vt 0.3274641 0.8685431
vt 0.3274641 0.8946148
vt 0.3104669 0.8946148
vt 0.2932255 0.8685431
vt 0.3102227 0.8685431
vt 0.3102227 0.8946148
vt 0.2932255 0.8946148
vt 0.2759841 0.8685431
vt 0.2929814 0.8685431
vt 0.2929814 0.8946148
vt 0.2759841 0.8946148
vt 0.2587427 0.8685431
vt 0.27574 0.8685431
vt 0.27574 0.8946148
vt 0.2587427 0.8946148
vt 0.2415014 0.8685431
vt 0.2584986 0.8685431
vt 0.2584986 0.8946148
vt 0.2415014 0.8946148
vt 0.22426 0.8685431
vt 0.2412572 0.8685431
vt 0.2412572 0.8946148
vt 0.22426 0.8946148
vt 0.2070186 0.8685431
vt 0.2240159 0.8685431
vt 0.2240159 0.8946148
vt 0.2070186 0.8946148
vt 0.6897773 0.2895958
vt 0.7067745 0.2895958
vt 0.7067745 0.3156674
vt 0.6897773 0.3156674
vt 0.6725358 0.2895958
vt 0.6895331 0.2895958
vt 0.6895331 0.3156674
vt 0.6725358 0.3156674
vt 0.6552945 0.2895958
vt 0.6722917 0.2895958
vt 0.6722917 0.3156674
vt 0.6552945 0.3156674
vt 0.6380531 0.2895958
vt 0.6550503 0.2895958
vt 0.6550503 0.3156674
vt 0.6380531 0.3156674
vt 0.6897773 0.26328
vt 0.7067745 0.26328
vt 0.7067745 0.2893516
vt 0.6897773 0.2893516
vt 0.6725358 0.26328
vt 0.6895331 0.26328
vt 0.6895331 0.2893516
vt 0.6725358 0.2893516
vt 0.6552945 0.26328
vt 0.6722917 0.26328
vt 0.6722917 0.2893516
vt 0.6552945 0.2893516
vt 0.6380531 0.26328
vt 0.6550503 0.26328
vt 0.6550503 0.2893516
vt 0.6380531 0.2893516
vt 0.6897773 0.2369642
vt 0.7067745 0.2369642
vt 0.7067745 0.2630358
vt 0.6897773 0.2630358
vt 0.6725358 0.2369642
vt 0.6895331 0.2369642
vt 0.6895331 0.2630358
vt 0.6725358 0.2630358
vt 0.6552945 0.2369642
vt 0.6722917 0.2369642
vt 0.6722917 0.2630358
vt 0.6552945 0.2630358
vt 0.6380531 0.2369642
vt 0.6550503 0.2369642
vt 0.6550503 0.2630358
vt 0.6380531 0.2630358
vt 0.6897773 0.2106484
vt 0.7067745 0.2106484
vt 0.7067745 0.23672
vt 0.6897773 0.23672
vt 0.6725358 0.2106484
vt 0.6895331 0.2106484
vt 0.6895331 0.23672
vt 0.6725358 0.23672
vt 0.6552945 0.2106484
vt 0.6722917 0.2106484
vt 0.6722917 0.23672
vt 0.6552945 0.23672
vt 0.6380531 0.2106484
vt 0.6550503 0.2106484
vt 0.6550503 0.23672
vt 0.6380531 0.23672
vt 0.6897773 0.1843326
vt 0.7067745 0.1843326
vt 0.7067745 0.2104042
vt 0.6897773 0.2104042
vt 0.6725358 0.1843326
vt 0.6895331 0.1843326
vt 0.6895331 0.2104042
vt 0.6725358 0.2104042
vt 0.6552945 0.1843326
vt 0.6722917 0.1843326
vt 0.6722917 0.2104042
vt 0.6552945 0.2104042
vt 0.6380531 0.1843326
vt 0.6550503 0.1843326
vt 0.6550503 0.2104042
vt 0.6380531 0.2104042
vt 0.6035703 0.3422273
vt 0.6205676 0.3422273
vt 0.6205676 0.368299
vt 0.6035703 0.368299
vt 0.586329 0.3422273
vt 0.6033262 0.3422273
vt 0.6033262 0.368299
vt 0.586329 0.368299
vt 0.5690876 0.3422273
vt 0.5860848 0.3422273
vt 0.5860848 0.368299
vt 0.5690876 0.368299
vt 0.5518462 0.3422273
vt 0.5688434 0.3422273
vt 0.5688434 0.368299
vt 0.5518462 0.368299
vt 0.5346048 0.3422273
vt 0.5516021 0.3422273
vt 0.5516021 0.368299
vt 0.5346048 0.368299
vt 0.7587427 0.4738063
vt 0.77574 0.4738063
vt 0.77574 0.4998779
vt 0.7587427 0.4998779
vt 0.7587427 0.4474905
vt 0.77574 0.4474905
vt 0.77574 0.4735621
vt 0.7587427 0.4735621
vt 0.6897773 0.5001221
vt 0.7067745 0.5001221
vt 0.7067745 0.5261937
vt 0.6897773 0.5261937
vt 0.6725358 0.5001221
vt 0.6895331 0.5001221
vt 0.6895331 0.5261937
vt 0.6725358 0.5261937
vt 0.6552945 0.5001221
vt 0.6722917 0.5001221
vt 0.6722917 0.5261937
vt 0.6552945 0.5261937
vt 0.6380531 0.5001221
vt 0.6550503 0.5001221
vt 0.6550503 0.5261937
vt 0.6380531 0.5261937
vt 0.6208117 0.5001221
vt 0.637809 0.5001221
vt 0.637809 0.5261937
vt 0.6208117 0.5261937
vt 0.6035703 0.5001221
vt 0.6205676 0.5001221
vt 0.6205676 0.5261937
vt 0.6035703 0.5261937
vt 0.6897773 0.4738063
vt 0.7067745 0.4738063
vt 0.7067745 0.4998779
vt 0.6897773 0.4998779
vt 0.6725358 0.4738063
vt 0.6895331 0.4738063
vt 0.6895331 0.4998779
vt 0.6725358 0.4998779
vt 0.6552945 0.4738063
vt 0.6722917 0.4738063
vt 0.6722917 0.4998779
vt 0.6552945 0.4998779
vt 0.6380531 0.4738063
vt 0.6550503 0.4738063
vt 0.6550503 0.4998779
vt 0.6380531 0.4998779
vt 0.6208117 0.4738063
vt 0.637809 0.4738063
vt 0.637809 0.4998779
vt 0.6208117 0.4998779
vt 0.6035703 0.4738063
vt 0.6205676 0.4738063
vt 0.6205676 0.4998779
vt 0.6035703 0.4998779
vt 0.6897773 0.4474905
vt 0.7067745 0.4474905
vt 0.7067745 0.4735621
vt 0.6897773 0.4735621
vt 0.6725358 0.4474905
vt 0.6895331 0.4474905
vt 0.6895331 0.4735621
vt 0.6725358 0.4735621
vt 0.6552945 0.4474905
vt 0.6722917 0.4474905
vt 0.6722917 0.4735621
vt 0.6552945 0.4735621
vt 0.6380531 0.4474905
vt 0.6550503 0.4474905
vt 0.6550503 0.4735621
vt 0.6380531 0.4735621
vt 0.6208117 0.4474905
vt 0.637809 0.4474905
vt 0.637809 0.4735621
vt 0.6208117 0.4735621
vt 0.6035703 0.4474905
vt 0.6205676 0.4474905
vt 0.6205676 0.4735621
vt 0.6035703 0.4735621
vt 0.6897773 0.4211747
vt 0.7067745 0.4211747
vt 0.7067745 0.4472464
vt 0.6897773 0.4472464
vt 0.6725358 0.4211747
vt 0.6895331 0.4211747
vt 0.6895331 0.4472464
vt 0.6725358 0.4472464
vt 0.6552945 0.4211747
vt 0.6722917 0.4211747
vt 0.6722917 0.4472464
vt 0.6552945 0.4472464
vt 0.6380531 0.4211747
vt 0.6550503 0.4211747
vt 0.6550503 0.4472464
vt 0.6380531 0.4472464
vt 0.6208117 0.4211747
vt 0.637809 0.4211747
vt 0.637809 0.4472464
vt 0.6208117 0.4472464
vt 0.6035703 0.4211747
vt 0.6205676 0.4211747
vt 0.6205676 0.4472464
vt 0.6035703 0.4472464

# Normal
vn 0 0 -1

# Mesh description
g HallofJustice_mesh_0006

# Faces
f 1/1/1 2/2/1 3/3/1 4/4/1
f 5/5/1 6/6/1 7/7/1 8/8/1
f 9/9/1 10/10/1 11/11/1 12/12/1
f 13/13/1 14/14/1 15/15/1 16/16/1
f 17/17/1 18/18/1 19/19/1 20/20/1
f 21/21/1 22/22/1 23/23/1 24/24/1
f 25/25/1 26/26/1 27/27/1 28/28/1
f 29/29/1 30/30/1 31/31/1 32/32/1
f 33/33/1 34/34/1 35/35/1 36/36/1
f 37/37/1 38/38/1 39/39/1 40/40/1
f 41/41/1 42/42/1 43/43/1 44/44/1
f 45/45/1 46/46/1 47/47/1 48/48/1
f 49/49/1 50/50/1 51/51/1 52/52/1
f 53/53/1 54/54/1 55/55/1 56/56/1
f 57/57/1 58/58/1 59/59/1 60/60/1
f 61/61/1 62/62/1 63/63/1 64/64/1
f 65/65/1 66/66/1 67/67/1 68/68/1
f 69/69/1 70/70/1 71/71/1 72/72/1
f 73/73/1 74/74/1 75/75/1 76/76/1
f 77/77/1 78/78/1 79/79/1 80/80/1
f 81/81/1 82/82/1 83/83/1 84/84/1
f 85/85/1 86/86/1 87/87/1 88/88/1
f 89/89/1 90/90/1 91/91/1 92/92/1
f 93/93/1 94/94/1 95/95/1 96/96/1
f 97/97/1 98/98/1 99/99/1 100/100/1
f 101/101/1 102/102/1 103/103/1 104/104/1
f 105/105/1 106/106/1 107/107/1 108/108/1
f 109/109/1 110/110/1 111/111/1 112/112/1
f 113/113/1 114/114/1 115/115/1 116/116/1
f 117/117/1 118/118/1 119/119/1 120/120/1
f 121/121/1 122/122/1 123/123/1 124/124/1
f 125/125/1 126/126/1 127/127/1 128/128/1
f 129/129/1 130/130/1 131/131/1 132/132/1
f 133/133/1 134/134/1 135/135/1 136/136/1
f 137/137/1 138/138/1 139/139/1 140/140/1
f 141/141/1 142/142/1 143/143/1 144/144/1
f 145/145/1 146/146/1 147/147/1 148/148/1
f 149/149/1 150/150/1 151/151/1 152/152/1
f 153/153/1 154/154/1 155/155/1 156/156/1
f 157/157/1 158/158/1 159/159/1 160/160/1
f 161/161/1 162/162/1 163/163/1 164/164/1
f 165/165/1 166/166/1 167/167/1 168/168/1
f 169/169/1 170/170/1 171/171/1 172/172/1
f 173/173/1 174/174/1 175/175/1 176/176/1
f 177/177/1 178/178/1 179/179/1 180/180/1
f 181/181/1 182/182/1 183/183/1 184/184/1
f 185/185/1 186/186/1 187/187/1 188/188/1
f 189/189/1 190/190/1 191/191/1 192/192/1
f 193/193/1 194/194/1 195/195/1 196/196/1
f 197/197/1 198/198/1 199/199/1 200/200/1
f 201/201/1 202/202/1 203/203/1 204/204/1
f 205/205/1 206/206/1 207/207/1 208/208/1
f 209/209/1 210/210/1 211/211/1 212/212/1
f 213/213/1 214/214/1 215/215/1 216/216/1
f 217/217/1 218/218/1 219/219/1 220/220/1
f 221/221/1 222/222/1 223/223/1 224/224/1
f 225/225/1 226/226/1 227/227/1 228/228/1
f 229/229/1 230/230/1 231/231/1 232/232/1
f 233/233/1 234/234/1 235/235/1 236/236/1
f 237/237/1 238/238/1 239/239/1 240/240/1
f 241/241/1 242/242/1 243/243/1 244/244/1
f 245/245/1 246/246/1 247/247/1 248/248/1
f 249/249/1 250/250/1 251/251/1 252/252/1
f 253/253/1 254/254/1 255/255/1 256/256/1
f 257/257/1 258/258/1 259/259/1 260/260/1
f 261/261/1 262/262/1 263/263/1 264/264/1
f 265/265/1 266/266/1 267/267/1 268/268/1
f 269/269/1 270/270/1 271/271/1 272/272/1
f 273/273/1 274/274/1 275/275/1 276/276/1
f 277/277/1 278/278/1 279/279/1 280/280/1
f 281/281/1 282/282/1 283/283/1 284/284/1
f 285/285/1 286/286/1 287/287/1 288/288/1
f 289/289/1 290/290/1 291/291/1 292/292/1
f 293/293/1 294/294/1 295/295/1 296/296/1
f 297/297/1 298/298/1 299/299/1 300/300/1
f 301/301/1 302/302/1 303/303/1 304/304/1
f 305/305/1 306/306/1 307/307/1 308/308/1
f 309/309/1 310/310/1 311/311/1 312/312/1
f 313/313/1 314/314/1 315/315/1 316/316/1
f 317/317/1 318/318/1 319/319/1 320/320/1
f 321/321/1 322/322/1 323/323/1 324/324/1
f 325/325/1 326/326/1 327/327/1 328/328/1
f 329/325/1 330/326/1 331/327/1 332/328/1
f 333/325/1 334/326/1 335/327/1 336/328/1
f 337/329/1 338/330/1 339/331/1 340/332/1
f 341/333/1 342/334/1 343/335/1 344/336/1
f 345/337/1 346/338/1 347/339/1 348/340/1
f 349/341/1 350/342/1 351/343/1 352/344/1
f 353/345/1 354/346/1 355/347/1 356/348/1
f 357/349/1 358/350/1 359/351/1 360/352/1
f 361/353/1 362/354/1 363/355/1 364/356/1
f 365/357/1 366/358/1 367/359/1 368/360/1
f 369/361/1 370/362/1 371/363/1 372/364/1
f 373/365/1 374/366/1 375/367/1 376/368/1
f 377/369/1 378/370/1 379/371/1 380/372/1
f 381/373/1 382/374/1 383/375/1 384/376/1
f 385/377/1 386/378/1 387/379/1 388/380/1
f 389/381/1 390/382/1 391/383/1 392/384/1
f 393/385/1 394/386/1 395/387/1 396/388/1
f 397/389/1 398/390/1 399/391/1 400/392/1
f 401/393/1 402/394/1 403/395/1 404/396/1
f 405/397/1 406/398/1 407/399/1 408/400/1
f 409/401/1 410/402/1 411/403/1 412/404/1
f 413/405/1 414/406/1 415/407/1 416/408/1
f 417/409/1 418/410/1 419/411/1 420/412/1
f 421/413/1 422/414/1 423/415/1 424/416/1
f 425/417/1 426/418/1 427/419/1 428/420/1
f 429/421/1 430/422/1 431/423/1 432/424/1
f 433/425/1 434/426/1 435/427/1 436/428/1

