# Tiled2Unity generated file. Do not modify by hand.
# Wavefront file for 'HallofJustice_mesh_0004.obj'

# Vertices (Count = 480)
v -32 -5 0
v -33 -5 0
v -33 -4 0
v -32 -4 0
v -31 -5 0
v -32 -5 0
v -32 -4 0
v -31 -4 0
v -32 -6 0
v -33 -6 0
v -33 -5 0
v -32 -5 0
v -31 -6 0
v -32 -6 0
v -32 -5 0
v -31 -5 0
v -26 -12 0
v -27 -12 0
v -27 -11 0
v -26 -11 0
v -25 -12 0
v -26 -12 0
v -26 -11 0
v -25 -11 0
v -24 -12 0
v -25 -12 0
v -25 -11 0
v -24 -11 0
v -23 -12 0
v -24 -12 0
v -24 -11 0
v -23 -11 0
v -48 -13 0
v -49 -13 0
v -49 -12 0
v -48 -12 0
v -47 -13 0
v -48 -13 0
v -48 -12 0
v -47 -12 0
v -46 -13 0
v -47 -13 0
v -47 -12 0
v -46 -12 0
v -45 -13 0
v -46 -13 0
v -46 -12 0
v -45 -12 0
v -26 -13 0
v -27 -13 0
v -27 -12 0
v -26 -12 0
v -25 -13 0
v -26 -13 0
v -26 -12 0
v -25 -12 0
v -24 -13 0
v -25 -13 0
v -25 -12 0
v -24 -12 0
v -23 -13 0
v -24 -13 0
v -24 -12 0
v -23 -12 0
v -48 -14 0
v -49 -14 0
v -49 -13 0
v -48 -13 0
v -47 -14 0
v -48 -14 0
v -48 -13 0
v -47 -13 0
v -46 -14 0
v -47 -14 0
v -47 -13 0
v -46 -13 0
v -45 -14 0
v -46 -14 0
v -46 -13 0
v -45 -13 0
v -26 -14 0
v -27 -14 0
v -27 -13 0
v -26 -13 0
v -25 -14 0
v -26 -14 0
v -26 -13 0
v -25 -13 0
v -24 -14 0
v -25 -14 0
v -25 -13 0
v -24 -13 0
v -23 -14 0
v -24 -14 0
v -24 -13 0
v -23 -13 0
v -7 -14 0
v -8 -14 0
v -8 -13 0
v -7 -13 0
v -6 -14 0
v -7 -14 0
v -7 -13 0
v -6 -13 0
v -48 -15 0
v -49 -15 0
v -49 -14 0
v -48 -14 0
v -47 -15 0
v -48 -15 0
v -48 -14 0
v -47 -14 0
v -46 -15 0
v -47 -15 0
v -47 -14 0
v -46 -14 0
v -45 -15 0
v -46 -15 0
v -46 -14 0
v -45 -14 0
v -30 -15 0
v -31 -15 0
v -31 -14 0
v -30 -14 0
v -29 -15 0
v -30 -15 0
v -30 -14 0
v -29 -14 0
v -26 -15 0
v -27 -15 0
v -27 -14 0
v -26 -14 0
v -25 -15 0
v -26 -15 0
v -26 -14 0
v -25 -14 0
v -24 -15 0
v -25 -15 0
v -25 -14 0
v -24 -14 0
v -23 -15 0
v -24 -15 0
v -24 -14 0
v -23 -14 0
v -7 -15 0
v -8 -15 0
v -8 -14 0
v -7 -14 0
v -6 -15 0
v -7 -15 0
v -7 -14 0
v -6 -14 0
v -48 -16 0
v -49 -16 0
v -49 -15 0
v -48 -15 0
v -47 -16 0
v -48 -16 0
v -48 -15 0
v -47 -15 0
v -46 -16 0
v -47 -16 0
v -47 -15 0
v -46 -15 0
v -45 -16 0
v -46 -16 0
v -46 -15 0
v -45 -15 0
v -30 -16 0
v -31 -16 0
v -31 -15 0
v -30 -15 0
v -29 -16 0
v -30 -16 0
v -30 -15 0
v -29 -15 0
v -40 -20 0
v -41 -20 0
v -41 -19 0
v -40 -19 0
v -39 -20 0
v -40 -20 0
v -40 -19 0
v -39 -19 0
v -40 -21 0
v -41 -21 0
v -41 -20 0
v -40 -20 0
v -39 -21 0
v -40 -21 0
v -40 -20 0
v -39 -20 0
v -31 -22 0
v -32 -22 0
v -32 -21 0
v -31 -21 0
v -30 -22 0
v -31 -22 0
v -31 -21 0
v -30 -21 0
v -29 -22 0
v -30 -22 0
v -30 -21 0
v -29 -21 0
v -28 -22 0
v -29 -22 0
v -29 -21 0
v -28 -21 0
v -31 -23 0
v -32 -23 0
v -32 -22 0
v -31 -22 0
v -30 -23 0
v -31 -23 0
v -31 -22 0
v -30 -22 0
v -29 -23 0
v -30 -23 0
v -30 -22 0
v -29 -22 0
v -28 -23 0
v -29 -23 0
v -29 -22 0
v -28 -22 0
v -31 -24 0
v -32 -24 0
v -32 -23 0
v -31 -23 0
v -30 -24 0
v -31 -24 0
v -31 -23 0
v -30 -23 0
v -29 -24 0
v -30 -24 0
v -30 -23 0
v -29 -23 0
v -28 -24 0
v -29 -24 0
v -29 -23 0
v -28 -23 0
v -31 -25 0
v -32 -25 0
v -32 -24 0
v -31 -24 0
v -30 -25 0
v -31 -25 0
v -31 -24 0
v -30 -24 0
v -29 -25 0
v -30 -25 0
v -30 -24 0
v -29 -24 0
v -28 -25 0
v -29 -25 0
v -29 -24 0
v -28 -24 0
v -41 -27 0
v -42 -27 0
v -42 -26 0
v -41 -26 0
v -40 -27 0
v -41 -27 0
v -41 -26 0
v -40 -26 0
v -39 -27 0
v -40 -27 0
v -40 -26 0
v -39 -26 0
v -43 -28 0
v -44 -28 0
v -44 -27 0
v -43 -27 0
v -42 -28 0
v -43 -28 0
v -43 -27 0
v -42 -27 0
v -41 -28 0
v -42 -28 0
v -42 -27 0
v -41 -27 0
v -35 -28 0
v -36 -28 0
v -36 -27 0
v -35 -27 0
v -34 -28 0
v -35 -28 0
v -35 -27 0
v -34 -27 0
v -35 -29 0
v -36 -29 0
v -36 -28 0
v -35 -28 0
v -34 -29 0
v -35 -29 0
v -35 -28 0
v -34 -28 0
v -14 -30 0
v -15 -30 0
v -15 -29 0
v -14 -29 0
v -13 -30 0
v -14 -30 0
v -14 -29 0
v -13 -29 0
v -14 -31 0
v -15 -31 0
v -15 -30 0
v -14 -30 0
v -13 -31 0
v -14 -31 0
v -14 -30 0
v -13 -30 0
v -15 -33 0
v -16 -33 0
v -16 -32 0
v -15 -32 0
v -14 -33 0
v -15 -33 0
v -15 -32 0
v -14 -32 0
v -13 -33 0
v -14 -33 0
v -14 -32 0
v -13 -32 0
v -12 -33 0
v -13 -33 0
v -13 -32 0
v -12 -32 0
v -15 -34 0
v -16 -34 0
v -16 -33 0
v -15 -33 0
v -14 -34 0
v -15 -34 0
v -15 -33 0
v -14 -33 0
v -13 -34 0
v -14 -34 0
v -14 -33 0
v -13 -33 0
v -12 -34 0
v -13 -34 0
v -13 -33 0
v -12 -33 0
v -15 -35 0
v -16 -35 0
v -16 -34 0
v -15 -34 0
v -14 -35 0
v -15 -35 0
v -15 -34 0
v -14 -34 0
v -13 -35 0
v -14 -35 0
v -14 -34 0
v -13 -34 0
v -12 -35 0
v -13 -35 0
v -13 -34 0
v -12 -34 0
v -15 -36 0
v -16 -36 0
v -16 -35 0
v -15 -35 0
v -14 -36 0
v -15 -36 0
v -15 -35 0
v -14 -35 0
v -13 -36 0
v -14 -36 0
v -14 -35 0
v -13 -35 0
v -12 -36 0
v -13 -36 0
v -13 -35 0
v -12 -35 0
v -25 -40 0
v -26 -40 0
v -26 -39 0
v -25 -39 0
v -24 -40 0
v -25 -40 0
v -25 -39 0
v -24 -39 0
v -23 -40 0
v -24 -40 0
v -24 -39 0
v -23 -39 0
v -24 -41 0
v -25 -41 0
v -25 -40 0
v -24 -40 0
v -23 -41 0
v -24 -41 0
v -24 -40 0
v -23 -40 0
v -22 -41 0
v -23 -41 0
v -23 -40 0
v -22 -40 0
v -21 -41 0
v -22 -41 0
v -22 -40 0
v -21 -40 0
v -20 -41 0
v -21 -41 0
v -21 -40 0
v -20 -40 0
v -21 -42 0
v -22 -42 0
v -22 -41 0
v -21 -41 0
v -20 -42 0
v -21 -42 0
v -21 -41 0
v -20 -41 0
v -48 -47 0
v -49 -47 0
v -49 -46 0
v -48 -46 0
v -47 -47 0
v -48 -47 0
v -48 -46 0
v -47 -46 0
v -46 -47 0
v -47 -47 0
v -47 -46 0
v -46 -46 0
v -45 -47 0
v -46 -47 0
v -46 -46 0
v -45 -46 0
v -48 -48 0
v -49 -48 0
v -49 -47 0
v -48 -47 0
v -47 -48 0
v -48 -48 0
v -48 -47 0
v -47 -47 0
v -46 -48 0
v -47 -48 0
v -47 -47 0
v -46 -47 0
v -45 -48 0
v -46 -48 0
v -46 -47 0
v -45 -47 0
v -48 -49 0
v -49 -49 0
v -49 -48 0
v -48 -48 0
v -47 -49 0
v -48 -49 0
v -48 -48 0
v -47 -48 0
v -46 -49 0
v -47 -49 0
v -47 -48 0
v -46 -48 0
v -45 -49 0
v -46 -49 0
v -46 -48 0
v -45 -48 0
v -48 -50 0
v -49 -50 0
v -49 -49 0
v -48 -49 0
v -47 -50 0
v -48 -50 0
v -48 -49 0
v -47 -49 0
v -46 -50 0
v -47 -50 0
v -47 -49 0
v -46 -49 0
v -45 -50 0
v -46 -50 0
v -46 -49 0
v -45 -49 0

# Texture cooridinates (Count = 92)
vt 0.6659218 0.889011
vt 0.6864839 0.889011
vt 0.6864839 0.9165446
vt 0.6659218 0.9165446
vt 0.6451156 0.889011
vt 0.6656777 0.889011
vt 0.6656777 0.9165446
vt 0.6451156 0.9165446
vt 0.6659218 0.8612332
vt 0.6864839 0.8612332
vt 0.6864839 0.8887668
vt 0.6659218 0.8887668
vt 0.6451156 0.8612332
vt 0.6656777 0.8612332
vt 0.6656777 0.8887668
vt 0.6451156 0.8887668
vt 0.3538282 0.1667888
vt 0.3743903 0.1667888
vt 0.3743903 0.1943223
vt 0.3538282 0.1943223
vt 0.3330219 0.1667888
vt 0.3535841 0.1667888
vt 0.3535841 0.1943223
vt 0.3330219 0.1943223
vt 0.3122157 0.1667888
vt 0.3327778 0.1667888
vt 0.3327778 0.1943223
vt 0.3122157 0.1943223
vt 0.2914095 0.1667888
vt 0.3119715 0.1667888
vt 0.3119715 0.1943223
vt 0.2914095 0.1943223
vt 0.3538282 0.139011
vt 0.3743903 0.139011
vt 0.3743903 0.1665446
vt 0.3538282 0.1665446
vt 0.3330219 0.139011
vt 0.3535841 0.139011
vt 0.3535841 0.1665446
vt 0.3330219 0.1665446
vt 0.3122157 0.139011
vt 0.3327778 0.139011
vt 0.3327778 0.1665446
vt 0.3122157 0.1665446
vt 0.2914095 0.139011
vt 0.3119715 0.139011
vt 0.3119715 0.1665446
vt 0.2914095 0.1665446
vt 0.3538282 0.1112332
vt 0.3743903 0.1112332
vt 0.3743903 0.1387668
vt 0.3538282 0.1387668
vt 0.3330219 0.1112332
vt 0.3535841 0.1112332
vt 0.3535841 0.1387668
vt 0.3330219 0.1387668
vt 0.3122157 0.1112332
vt 0.3327778 0.1112332
vt 0.3327778 0.1387668
vt 0.3122157 0.1387668
vt 0.2914095 0.1112332
vt 0.3119715 0.1112332
vt 0.3119715 0.1387668
vt 0.2914095 0.1387668
vt 0.3538282 0.08345538
vt 0.3743903 0.08345538
vt 0.3743903 0.110989
vt 0.3538282 0.110989
vt 0.3330219 0.08345538
vt 0.3535841 0.08345538
vt 0.3535841 0.110989
vt 0.3330219 0.110989
vt 0.3122157 0.08345538
vt 0.3327778 0.08345538
vt 0.3327778 0.110989
vt 0.3122157 0.110989
vt 0.2914095 0.08345538
vt 0.3119715 0.08345538
vt 0.3119715 0.110989
vt 0.2914095 0.110989
vt 0.1041533 0.8334554
vt 0.1247154 0.8334554
vt 0.1247154 0.860989
vt 0.1041533 0.860989
vt 0.08334704 0.8334554
vt 0.1039091 0.8334554
vt 0.1039091 0.860989
vt 0.08334704 0.860989
vt 0.0625408 0.8334554
vt 0.0831029 0.8334554
vt 0.0831029 0.860989
vt 0.0625408 0.860989

# Normal
vn 0 0 -1

# Mesh description
g HallofJustice_mesh_0004

# Faces
f 1/1/1 2/2/1 3/3/1 4/4/1
f 5/5/1 6/6/1 7/7/1 8/8/1
f 9/9/1 10/10/1 11/11/1 12/12/1
f 13/13/1 14/14/1 15/15/1 16/16/1
f 17/17/1 18/18/1 19/19/1 20/20/1
f 21/21/1 22/22/1 23/23/1 24/24/1
f 25/25/1 26/26/1 27/27/1 28/28/1
f 29/29/1 30/30/1 31/31/1 32/32/1
f 33/17/1 34/18/1 35/19/1 36/20/1
f 37/21/1 38/22/1 39/23/1 40/24/1
f 41/25/1 42/26/1 43/27/1 44/28/1
f 45/29/1 46/30/1 47/31/1 48/32/1
f 49/33/1 50/34/1 51/35/1 52/36/1
f 53/37/1 54/38/1 55/39/1 56/40/1
f 57/41/1 58/42/1 59/43/1 60/44/1
f 61/45/1 62/46/1 63/47/1 64/48/1
f 65/33/1 66/34/1 67/35/1 68/36/1
f 69/37/1 70/38/1 71/39/1 72/40/1
f 73/41/1 74/42/1 75/43/1 76/44/1
f 77/45/1 78/46/1 79/47/1 80/48/1
f 81/49/1 82/50/1 83/51/1 84/52/1
f 85/53/1 86/54/1 87/55/1 88/56/1
f 89/57/1 90/58/1 91/59/1 92/60/1
f 93/61/1 94/62/1 95/63/1 96/64/1
f 97/1/1 98/2/1 99/3/1 100/4/1
f 101/5/1 102/6/1 103/7/1 104/8/1
f 105/49/1 106/50/1 107/51/1 108/52/1
f 109/53/1 110/54/1 111/55/1 112/56/1
f 113/57/1 114/58/1 115/59/1 116/60/1
f 117/61/1 118/62/1 119/63/1 120/64/1
f 121/1/1 122/2/1 123/3/1 124/4/1
f 125/5/1 126/6/1 127/7/1 128/8/1
f 129/65/1 130/66/1 131/67/1 132/68/1
f 133/69/1 134/70/1 135/71/1 136/72/1
f 137/73/1 138/74/1 139/75/1 140/76/1
f 141/77/1 142/78/1 143/79/1 144/80/1
f 145/9/1 146/10/1 147/11/1 148/12/1
f 149/13/1 150/14/1 151/15/1 152/16/1
f 153/65/1 154/66/1 155/67/1 156/68/1
f 157/69/1 158/70/1 159/71/1 160/72/1
f 161/73/1 162/74/1 163/75/1 164/76/1
f 165/77/1 166/78/1 167/79/1 168/80/1
f 169/9/1 170/10/1 171/11/1 172/12/1
f 173/13/1 174/14/1 175/15/1 176/16/1
f 177/1/1 178/2/1 179/3/1 180/4/1
f 181/5/1 182/6/1 183/7/1 184/8/1
f 185/9/1 186/10/1 187/11/1 188/12/1
f 189/13/1 190/14/1 191/15/1 192/16/1
f 193/17/1 194/18/1 195/19/1 196/20/1
f 197/21/1 198/22/1 199/23/1 200/24/1
f 201/25/1 202/26/1 203/27/1 204/28/1
f 205/29/1 206/30/1 207/31/1 208/32/1
f 209/33/1 210/34/1 211/35/1 212/36/1
f 213/37/1 214/38/1 215/39/1 216/40/1
f 217/41/1 218/42/1 219/43/1 220/44/1
f 221/45/1 222/46/1 223/47/1 224/48/1
f 225/49/1 226/50/1 227/51/1 228/52/1
f 229/53/1 230/54/1 231/55/1 232/56/1
f 233/57/1 234/58/1 235/59/1 236/60/1
f 237/61/1 238/62/1 239/63/1 240/64/1
f 241/65/1 242/66/1 243/67/1 244/68/1
f 245/69/1 246/70/1 247/71/1 248/72/1
f 249/73/1 250/74/1 251/75/1 252/76/1
f 253/77/1 254/78/1 255/79/1 256/80/1
f 257/81/1 258/82/1 259/83/1 260/84/1
f 261/85/1 262/86/1 263/87/1 264/88/1
f 265/89/1 266/90/1 267/91/1 268/92/1
f 269/81/1 270/82/1 271/83/1 272/84/1
f 273/85/1 274/86/1 275/87/1 276/88/1
f 277/89/1 278/90/1 279/91/1 280/92/1
f 281/1/1 282/2/1 283/3/1 284/4/1
f 285/5/1 286/6/1 287/7/1 288/8/1
f 289/9/1 290/10/1 291/11/1 292/12/1
f 293/13/1 294/14/1 295/15/1 296/16/1
f 297/1/1 298/2/1 299/3/1 300/4/1
f 301/5/1 302/6/1 303/7/1 304/8/1
f 305/9/1 306/10/1 307/11/1 308/12/1
f 309/13/1 310/14/1 311/15/1 312/16/1
f 313/17/1 314/18/1 315/19/1 316/20/1
f 317/21/1 318/22/1 319/23/1 320/24/1
f 321/25/1 322/26/1 323/27/1 324/28/1
f 325/29/1 326/30/1 327/31/1 328/32/1
f 329/33/1 330/34/1 331/35/1 332/36/1
f 333/37/1 334/38/1 335/39/1 336/40/1
f 337/41/1 338/42/1 339/43/1 340/44/1
f 341/45/1 342/46/1 343/47/1 344/48/1
f 345/49/1 346/50/1 347/51/1 348/52/1
f 349/53/1 350/54/1 351/55/1 352/56/1
f 353/57/1 354/58/1 355/59/1 356/60/1
f 357/61/1 358/62/1 359/63/1 360/64/1
f 361/65/1 362/66/1 363/67/1 364/68/1
f 365/69/1 366/70/1 367/71/1 368/72/1
f 369/73/1 370/74/1 371/75/1 372/76/1
f 373/77/1 374/78/1 375/79/1 376/80/1
f 377/81/1 378/82/1 379/83/1 380/84/1
f 381/85/1 382/86/1 383/87/1 384/88/1
f 385/89/1 386/90/1 387/91/1 388/92/1
f 389/81/1 390/82/1 391/83/1 392/84/1
f 393/85/1 394/86/1 395/87/1 396/88/1
f 397/89/1 398/90/1 399/91/1 400/92/1
f 401/1/1 402/2/1 403/3/1 404/4/1
f 405/5/1 406/6/1 407/7/1 408/8/1
f 409/9/1 410/10/1 411/11/1 412/12/1
f 413/13/1 414/14/1 415/15/1 416/16/1
f 417/17/1 418/18/1 419/19/1 420/20/1
f 421/21/1 422/22/1 423/23/1 424/24/1
f 425/25/1 426/26/1 427/27/1 428/28/1
f 429/29/1 430/30/1 431/31/1 432/32/1
f 433/33/1 434/34/1 435/35/1 436/36/1
f 437/37/1 438/38/1 439/39/1 440/40/1
f 441/41/1 442/42/1 443/43/1 444/44/1
f 445/45/1 446/46/1 447/47/1 448/48/1
f 449/49/1 450/50/1 451/51/1 452/52/1
f 453/53/1 454/54/1 455/55/1 456/56/1
f 457/57/1 458/58/1 459/59/1 460/60/1
f 461/61/1 462/62/1 463/63/1 464/64/1
f 465/65/1 466/66/1 467/67/1 468/68/1
f 469/69/1 470/70/1 471/71/1 472/72/1
f 473/73/1 474/74/1 475/75/1 476/76/1
f 477/77/1 478/78/1 479/79/1 480/80/1

