# Tiled2Unity generated file. Do not modify by hand.
# Wavefront file for 'HallofJustice_mesh_0009.obj'

# Vertices (Count = 116)
v -33 -1 0
v -34 -1 0
v -34 0 0
v -33 0 0
v -32 -1 0
v -33 -1 0
v -33 0 0
v -32 0 0
v -31 -1 0
v -32 -1 0
v -32 0 0
v -31 0 0
v -30 -1 0
v -31 -1 0
v -31 0 0
v -30 0 0
v -29 -1 0
v -30 -1 0
v -30 0 0
v -29 0 0
v -41 -3 0
v -42 -3 0
v -42 -2 0
v -41 -2 0
v -40 -3 0
v -41 -3 0
v -41 -2 0
v -40 -2 0
v -39 -3 0
v -40 -3 0
v -40 -2 0
v -39 -2 0
v -38 -3 0
v -39 -3 0
v -39 -2 0
v -38 -2 0
v -37 -3 0
v -38 -3 0
v -38 -2 0
v -37 -2 0
v -36 -3 0
v -37 -3 0
v -37 -2 0
v -36 -2 0
v -35 -3 0
v -36 -3 0
v -36 -2 0
v -35 -2 0
v -36 -27 0
v -37 -27 0
v -37 -26 0
v -36 -26 0
v -35 -27 0
v -36 -27 0
v -36 -26 0
v -35 -26 0
v -34 -27 0
v -35 -27 0
v -35 -26 0
v -34 -26 0
v -33 -27 0
v -34 -27 0
v -34 -26 0
v -33 -26 0
v -22 -35 0
v -23 -35 0
v -23 -34 0
v -22 -34 0
v -21 -35 0
v -22 -35 0
v -22 -34 0
v -21 -34 0
v -20 -35 0
v -21 -35 0
v -21 -34 0
v -20 -34 0
v -19 -35 0
v -20 -35 0
v -20 -34 0
v -19 -34 0
v -18 -35 0
v -19 -35 0
v -19 -34 0
v -18 -34 0
v -17 -35 0
v -18 -35 0
v -18 -34 0
v -17 -34 0
v -25 -36 0
v -26 -36 0
v -26 -35 0
v -25 -35 0
v -16 -41 0
v -17 -41 0
v -17 -40 0
v -16 -40 0
v -15 -41 0
v -16 -41 0
v -16 -40 0
v -15 -40 0
v -14 -41 0
v -15 -41 0
v -15 -40 0
v -14 -40 0
v -13 -41 0
v -14 -41 0
v -14 -40 0
v -13 -40 0
v -12 -41 0
v -13 -41 0
v -13 -40 0
v -12 -40 0
v -11 -41 0
v -12 -41 0
v -12 -40 0
v -11 -40 0

# Texture cooridinates (Count = 116)
vt 0.2932255 0.8422273
vt 0.3102227 0.8422273
vt 0.3102227 0.868299
vt 0.2932255 0.868299
vt 0.2759841 0.8422273
vt 0.2929814 0.8422273
vt 0.2929814 0.868299
vt 0.2759841 0.868299
vt 0.2587427 0.8422273
vt 0.27574 0.8422273
vt 0.27574 0.868299
vt 0.2587427 0.868299
vt 0.2415014 0.8422273
vt 0.2584986 0.8422273
vt 0.2584986 0.868299
vt 0.2415014 0.868299
vt 0.22426 0.8422273
vt 0.2412572 0.8422273
vt 0.2412572 0.868299
vt 0.22426 0.868299
vt 0.3104669 0.9738063
vt 0.3274641 0.9738063
vt 0.3274641 0.9998779
vt 0.3104669 0.9998779
vt 0.2932255 0.9738063
vt 0.3102227 0.9738063
vt 0.3102227 0.9998779
vt 0.2932255 0.9998779
vt 0.2759841 0.9738063
vt 0.2929814 0.9738063
vt 0.2929814 0.9998779
vt 0.2759841 0.9998779
vt 0.2587427 0.9738063
vt 0.27574 0.9738063
vt 0.27574 0.9998779
vt 0.2587427 0.9998779
vt 0.2415014 0.9738063
vt 0.2584986 0.9738063
vt 0.2584986 0.9998779
vt 0.2415014 0.9998779
vt 0.22426 0.9738063
vt 0.2412572 0.9738063
vt 0.2412572 0.9998779
vt 0.22426 0.9998779
vt 0.2070186 0.9738063
vt 0.2240159 0.9738063
vt 0.2240159 0.9998779
vt 0.2070186 0.9998779
vt 0.6897773 0.3159115
vt 0.7067745 0.3159115
vt 0.7067745 0.3419832
vt 0.6897773 0.3419832
vt 0.6725358 0.3159115
vt 0.6895331 0.3159115
vt 0.6895331 0.3419832
vt 0.6725358 0.3419832
vt 0.6552945 0.3159115
vt 0.6722917 0.3159115
vt 0.6722917 0.3419832
vt 0.6552945 0.3419832
vt 0.6380531 0.3159115
vt 0.6550503 0.3159115
vt 0.6550503 0.3419832
vt 0.6380531 0.3419832
vt 0.6035703 0.3685431
vt 0.6205676 0.3685431
vt 0.6205676 0.3946148
vt 0.6035703 0.3946148
vt 0.586329 0.3685431
vt 0.6033262 0.3685431
vt 0.6033262 0.3946148
vt 0.586329 0.3946148
vt 0.5690876 0.3685431
vt 0.5860848 0.3685431
vt 0.5860848 0.3946148
vt 0.5690876 0.3946148
vt 0.5518462 0.3685431
vt 0.5688434 0.3685431
vt 0.5688434 0.3946148
vt 0.5518462 0.3946148
vt 0.5346048 0.3685431
vt 0.5516021 0.3685431
vt 0.5516021 0.3946148
vt 0.5346048 0.3946148
vt 0.5173634 0.3685431
vt 0.5343607 0.3685431
vt 0.5343607 0.3946148
vt 0.5173634 0.3946148
vt 0.7587427 0.5001221
vt 0.77574 0.5001221
vt 0.77574 0.5261937
vt 0.7587427 0.5261937
vt 0.6897773 0.5264379
vt 0.7067745 0.5264379
vt 0.7067745 0.5525095
vt 0.6897773 0.5525095
vt 0.6725358 0.5264379
vt 0.6895331 0.5264379
vt 0.6895331 0.5525095
vt 0.6725358 0.5525095
vt 0.6552945 0.5264379
vt 0.6722917 0.5264379
vt 0.6722917 0.5525095
vt 0.6552945 0.5525095
vt 0.6380531 0.5264379
vt 0.6550503 0.5264379
vt 0.6550503 0.5525095
vt 0.6380531 0.5525095
vt 0.6208117 0.5264379
vt 0.637809 0.5264379
vt 0.637809 0.5525095
vt 0.6208117 0.5525095
vt 0.6035703 0.5264379
vt 0.6205676 0.5264379
vt 0.6205676 0.5525095
vt 0.6035703 0.5525095

# Normal
vn 0 0 -1

# Mesh description
g HallofJustice_mesh_0009

# Faces
f 1/1/1 2/2/1 3/3/1 4/4/1
f 5/5/1 6/6/1 7/7/1 8/8/1
f 9/9/1 10/10/1 11/11/1 12/12/1
f 13/13/1 14/14/1 15/15/1 16/16/1
f 17/17/1 18/18/1 19/19/1 20/20/1
f 21/21/1 22/22/1 23/23/1 24/24/1
f 25/25/1 26/26/1 27/27/1 28/28/1
f 29/29/1 30/30/1 31/31/1 32/32/1
f 33/33/1 34/34/1 35/35/1 36/36/1
f 37/37/1 38/38/1 39/39/1 40/40/1
f 41/41/1 42/42/1 43/43/1 44/44/1
f 45/45/1 46/46/1 47/47/1 48/48/1
f 49/49/1 50/50/1 51/51/1 52/52/1
f 53/53/1 54/54/1 55/55/1 56/56/1
f 57/57/1 58/58/1 59/59/1 60/60/1
f 61/61/1 62/62/1 63/63/1 64/64/1
f 65/65/1 66/66/1 67/67/1 68/68/1
f 69/69/1 70/70/1 71/71/1 72/72/1
f 73/73/1 74/74/1 75/75/1 76/76/1
f 77/77/1 78/78/1 79/79/1 80/80/1
f 81/81/1 82/82/1 83/83/1 84/84/1
f 85/85/1 86/86/1 87/87/1 88/88/1
f 89/89/1 90/90/1 91/91/1 92/92/1
f 93/93/1 94/94/1 95/95/1 96/96/1
f 97/97/1 98/98/1 99/99/1 100/100/1
f 101/101/1 102/102/1 103/103/1 104/104/1
f 105/105/1 106/106/1 107/107/1 108/108/1
f 109/109/1 110/110/1 111/111/1 112/112/1
f 113/113/1 114/114/1 115/115/1 116/116/1

