# Tiled2Unity generated file. Do not modify by hand.
# Wavefront file for 'Agao_mesh_0011.obj'

# Vertices (Count = 336)
v -22 -2 0
v -23 -2 0
v -23 -1 0
v -22 -1 0
v -21 -2 0
v -22 -2 0
v -22 -1 0
v -21 -1 0
v -20 -2 0
v -21 -2 0
v -21 -1 0
v -20 -1 0
v -19 -2 0
v -20 -2 0
v -20 -1 0
v -19 -1 0
v -18 -2 0
v -19 -2 0
v -19 -1 0
v -18 -1 0
v -17 -2 0
v -18 -2 0
v -18 -1 0
v -17 -1 0
v -22 -3 0
v -23 -3 0
v -23 -2 0
v -22 -2 0
v -21 -3 0
v -22 -3 0
v -22 -2 0
v -21 -2 0
v -20 -3 0
v -21 -3 0
v -21 -2 0
v -20 -2 0
v -19 -3 0
v -20 -3 0
v -20 -2 0
v -19 -2 0
v -18 -3 0
v -19 -3 0
v -19 -2 0
v -18 -2 0
v -17 -3 0
v -18 -3 0
v -18 -2 0
v -17 -2 0
v -22 -4 0
v -23 -4 0
v -23 -3 0
v -22 -3 0
v -21 -4 0
v -22 -4 0
v -22 -3 0
v -21 -3 0
v -20 -4 0
v -21 -4 0
v -21 -3 0
v -20 -3 0
v -19 -4 0
v -20 -4 0
v -20 -3 0
v -19 -3 0
v -18 -4 0
v -19 -4 0
v -19 -3 0
v -18 -3 0
v -17 -4 0
v -18 -4 0
v -18 -3 0
v -17 -3 0
v -22 -5 0
v -23 -5 0
v -23 -4 0
v -22 -4 0
v -21 -5 0
v -22 -5 0
v -22 -4 0
v -21 -4 0
v -20 -5 0
v -21 -5 0
v -21 -4 0
v -20 -4 0
v -19 -5 0
v -20 -5 0
v -20 -4 0
v -19 -4 0
v -18 -5 0
v -19 -5 0
v -19 -4 0
v -18 -4 0
v -17 -5 0
v -18 -5 0
v -18 -4 0
v -17 -4 0
v -32 -14 0
v -33 -14 0
v -33 -13 0
v -32 -13 0
v -31 -14 0
v -32 -14 0
v -32 -13 0
v -31 -13 0
v -30 -14 0
v -31 -14 0
v -31 -13 0
v -30 -13 0
v -29 -14 0
v -30 -14 0
v -30 -13 0
v -29 -13 0
v -28 -14 0
v -29 -14 0
v -29 -13 0
v -28 -13 0
v -27 -14 0
v -28 -14 0
v -28 -13 0
v -27 -13 0
v -26 -14 0
v -27 -14 0
v -27 -13 0
v -26 -13 0
v -21 -14 0
v -22 -14 0
v -22 -13 0
v -21 -13 0
v -20 -14 0
v -21 -14 0
v -21 -13 0
v -20 -13 0
v -19 -14 0
v -20 -14 0
v -20 -13 0
v -19 -13 0
v -18 -14 0
v -19 -14 0
v -19 -13 0
v -18 -13 0
v -17 -14 0
v -18 -14 0
v -18 -13 0
v -17 -13 0
v -16 -14 0
v -17 -14 0
v -17 -13 0
v -16 -13 0
v -15 -14 0
v -16 -14 0
v -16 -13 0
v -15 -13 0
v -14 -14 0
v -15 -14 0
v -15 -13 0
v -14 -13 0
v -32 -15 0
v -33 -15 0
v -33 -14 0
v -32 -14 0
v -31 -15 0
v -32 -15 0
v -32 -14 0
v -31 -14 0
v -30 -15 0
v -31 -15 0
v -31 -14 0
v -30 -14 0
v -29 -15 0
v -30 -15 0
v -30 -14 0
v -29 -14 0
v -28 -15 0
v -29 -15 0
v -29 -14 0
v -28 -14 0
v -27 -15 0
v -28 -15 0
v -28 -14 0
v -27 -14 0
v -26 -15 0
v -27 -15 0
v -27 -14 0
v -26 -14 0
v -21 -15 0
v -22 -15 0
v -22 -14 0
v -21 -14 0
v -20 -15 0
v -21 -15 0
v -21 -14 0
v -20 -14 0
v -19 -15 0
v -20 -15 0
v -20 -14 0
v -19 -14 0
v -18 -15 0
v -19 -15 0
v -19 -14 0
v -18 -14 0
v -17 -15 0
v -18 -15 0
v -18 -14 0
v -17 -14 0
v -16 -15 0
v -17 -15 0
v -17 -14 0
v -16 -14 0
v -15 -15 0
v -16 -15 0
v -16 -14 0
v -15 -14 0
v -14 -15 0
v -15 -15 0
v -15 -14 0
v -14 -14 0
v -32 -16 0
v -33 -16 0
v -33 -15 0
v -32 -15 0
v -31 -16 0
v -32 -16 0
v -32 -15 0
v -31 -15 0
v -30 -16 0
v -31 -16 0
v -31 -15 0
v -30 -15 0
v -29 -16 0
v -30 -16 0
v -30 -15 0
v -29 -15 0
v -28 -16 0
v -29 -16 0
v -29 -15 0
v -28 -15 0
v -27 -16 0
v -28 -16 0
v -28 -15 0
v -27 -15 0
v -26 -16 0
v -27 -16 0
v -27 -15 0
v -26 -15 0
v -21 -16 0
v -22 -16 0
v -22 -15 0
v -21 -15 0
v -20 -16 0
v -21 -16 0
v -21 -15 0
v -20 -15 0
v -19 -16 0
v -20 -16 0
v -20 -15 0
v -19 -15 0
v -18 -16 0
v -19 -16 0
v -19 -15 0
v -18 -15 0
v -17 -16 0
v -18 -16 0
v -18 -15 0
v -17 -15 0
v -16 -16 0
v -17 -16 0
v -17 -15 0
v -16 -15 0
v -15 -16 0
v -16 -16 0
v -16 -15 0
v -15 -15 0
v -14 -16 0
v -15 -16 0
v -15 -15 0
v -14 -15 0
v -32 -17 0
v -33 -17 0
v -33 -16 0
v -32 -16 0
v -31 -17 0
v -32 -17 0
v -32 -16 0
v -31 -16 0
v -30 -17 0
v -31 -17 0
v -31 -16 0
v -30 -16 0
v -29 -17 0
v -30 -17 0
v -30 -16 0
v -29 -16 0
v -28 -17 0
v -29 -17 0
v -29 -16 0
v -28 -16 0
v -27 -17 0
v -28 -17 0
v -28 -16 0
v -27 -16 0
v -26 -17 0
v -27 -17 0
v -27 -16 0
v -26 -16 0
v -21 -17 0
v -22 -17 0
v -22 -16 0
v -21 -16 0
v -20 -17 0
v -21 -17 0
v -21 -16 0
v -20 -16 0
v -19 -17 0
v -20 -17 0
v -20 -16 0
v -19 -16 0
v -18 -17 0
v -19 -17 0
v -19 -16 0
v -18 -16 0
v -17 -17 0
v -18 -17 0
v -18 -16 0
v -17 -16 0
v -16 -17 0
v -17 -17 0
v -17 -16 0
v -16 -16 0
v -15 -17 0
v -16 -17 0
v -16 -16 0
v -15 -16 0
v -14 -17 0
v -15 -17 0
v -15 -16 0
v -14 -16 0

# Texture cooridinates (Count = 336)
vt 0.5690876 0.5527537
vt 0.5860848 0.5527537
vt 0.5860848 0.5788253
vt 0.5690876 0.5788253
vt 0.5518462 0.5527537
vt 0.5688434 0.5527537
vt 0.5688434 0.5788253
vt 0.5518462 0.5788253
vt 0.5346048 0.5527537
vt 0.5516021 0.5527537
vt 0.5516021 0.5788253
vt 0.5346048 0.5788253
vt 0.5173634 0.5527537
vt 0.5343607 0.5527537
vt 0.5343607 0.5788253
vt 0.5173634 0.5788253
vt 0.5001221 0.5527537
vt 0.5171193 0.5527537
vt 0.5171193 0.5788253
vt 0.5001221 0.5788253
vt 0.4828807 0.5527537
vt 0.4998779 0.5527537
vt 0.4998779 0.5788253
vt 0.4828807 0.5788253
vt 0.5690876 0.5264379
vt 0.5860848 0.5264379
vt 0.5860848 0.5525095
vt 0.5690876 0.5525095
vt 0.5518462 0.5264379
vt 0.5688434 0.5264379
vt 0.5688434 0.5525095
vt 0.5518462 0.5525095
vt 0.5346048 0.5264379
vt 0.5516021 0.5264379
vt 0.5516021 0.5525095
vt 0.5346048 0.5525095
vt 0.5173634 0.5264379
vt 0.5343607 0.5264379
vt 0.5343607 0.5525095
vt 0.5173634 0.5525095
vt 0.5001221 0.5264379
vt 0.5171193 0.5264379
vt 0.5171193 0.5525095
vt 0.5001221 0.5525095
vt 0.4828807 0.5264379
vt 0.4998779 0.5264379
vt 0.4998779 0.5525095
vt 0.4828807 0.5525095
vt 0.5690876 0.5001221
vt 0.5860848 0.5001221
vt 0.5860848 0.5261937
vt 0.5690876 0.5261937
vt 0.5518462 0.5001221
vt 0.5688434 0.5001221
vt 0.5688434 0.5261937
vt 0.5518462 0.5261937
vt 0.5346048 0.5001221
vt 0.5516021 0.5001221
vt 0.5516021 0.5261937
vt 0.5346048 0.5261937
vt 0.5173634 0.5001221
vt 0.5343607 0.5001221
vt 0.5343607 0.5261937
vt 0.5173634 0.5261937
vt 0.5001221 0.5001221
vt 0.5171193 0.5001221
vt 0.5171193 0.5261937
vt 0.5001221 0.5261937
vt 0.4828807 0.5001221
vt 0.4998779 0.5001221
vt 0.4998779 0.5261937
vt 0.4828807 0.5261937
vt 0.5690876 0.4738063
vt 0.5860848 0.4738063
vt 0.5860848 0.4998779
vt 0.5690876 0.4998779
vt 0.5518462 0.4738063
vt 0.5688434 0.4738063
vt 0.5688434 0.4998779
vt 0.5518462 0.4998779
vt 0.5346048 0.4738063
vt 0.5516021 0.4738063
vt 0.5516021 0.4998779
vt 0.5346048 0.4998779
vt 0.5173634 0.4738063
vt 0.5343607 0.4738063
vt 0.5343607 0.4998779
vt 0.5173634 0.4998779
vt 0.5001221 0.4738063
vt 0.5171193 0.4738063
vt 0.5171193 0.4998779
vt 0.5001221 0.4998779
vt 0.4828807 0.4738063
vt 0.4998779 0.4738063
vt 0.4998779 0.4998779
vt 0.4828807 0.4998779
vt 0.6208117 0.3159115
vt 0.637809 0.3159115
vt 0.637809 0.3419832
vt 0.6208117 0.3419832
vt 0.6035703 0.3159115
vt 0.6205676 0.3159115
vt 0.6205676 0.3419832
vt 0.6035703 0.3419832
vt 0.586329 0.3159115
vt 0.6033262 0.3159115
vt 0.6033262 0.3419832
vt 0.586329 0.3419832
vt 0.5690876 0.3159115
vt 0.5860848 0.3159115
vt 0.5860848 0.3419832
vt 0.5690876 0.3419832
vt 0.5518462 0.3159115
vt 0.5688434 0.3159115
vt 0.5688434 0.3419832
vt 0.5518462 0.3419832
vt 0.5346048 0.3159115
vt 0.5516021 0.3159115
vt 0.5516021 0.3419832
vt 0.5346048 0.3419832
vt 0.5173634 0.3159115
vt 0.5343607 0.3159115
vt 0.5343607 0.3419832
vt 0.5173634 0.3419832
vt 0.8277083 0.4211747
vt 0.8447055 0.4211747
vt 0.8447055 0.4472464
vt 0.8277083 0.4472464
vt 0.8104669 0.4211747
vt 0.8274642 0.4211747
vt 0.8274642 0.4472464
vt 0.8104669 0.4472464
vt 0.7932255 0.4211747
vt 0.8102227 0.4211747
vt 0.8102227 0.4472464
vt 0.7932255 0.4472464
vt 0.7759842 0.4211747
vt 0.7929814 0.4211747
vt 0.7929814 0.4472464
vt 0.7759842 0.4472464
vt 0.7587427 0.4211747
vt 0.77574 0.4211747
vt 0.77574 0.4472464
vt 0.7587427 0.4472464
vt 0.7415014 0.4211747
vt 0.7584986 0.4211747
vt 0.7584986 0.4472464
vt 0.7415014 0.4472464
vt 0.72426 0.4211747
vt 0.7412573 0.4211747
vt 0.7412573 0.4472464
vt 0.72426 0.4472464
vt 0.7070186 0.4211747
vt 0.7240158 0.4211747
vt 0.7240158 0.4472464
vt 0.7070186 0.4472464
vt 0.6208117 0.2895958
vt 0.637809 0.2895958
vt 0.637809 0.3156674
vt 0.6208117 0.3156674
vt 0.6035703 0.2895958
vt 0.6205676 0.2895958
vt 0.6205676 0.3156674
vt 0.6035703 0.3156674
vt 0.586329 0.2895958
vt 0.6033262 0.2895958
vt 0.6033262 0.3156674
vt 0.586329 0.3156674
vt 0.5690876 0.2895958
vt 0.5860848 0.2895958
vt 0.5860848 0.3156674
vt 0.5690876 0.3156674
vt 0.5518462 0.2895958
vt 0.5688434 0.2895958
vt 0.5688434 0.3156674
vt 0.5518462 0.3156674
vt 0.5346048 0.2895958
vt 0.5516021 0.2895958
vt 0.5516021 0.3156674
vt 0.5346048 0.3156674
vt 0.5173634 0.2895958
vt 0.5343607 0.2895958
vt 0.5343607 0.3156674
vt 0.5173634 0.3156674
vt 0.8277083 0.3948589
vt 0.8447055 0.3948589
vt 0.8447055 0.4209306
vt 0.8277083 0.4209306
vt 0.8104669 0.3948589
vt 0.8274642 0.3948589
vt 0.8274642 0.4209306
vt 0.8104669 0.4209306
vt 0.7932255 0.3948589
vt 0.8102227 0.3948589
vt 0.8102227 0.4209306
vt 0.7932255 0.4209306
vt 0.7759842 0.3948589
vt 0.7929814 0.3948589
vt 0.7929814 0.4209306
vt 0.7759842 0.4209306
vt 0.7587427 0.3948589
vt 0.77574 0.3948589
vt 0.77574 0.4209306
vt 0.7587427 0.4209306
vt 0.7415014 0.3948589
vt 0.7584986 0.3948589
vt 0.7584986 0.4209306
vt 0.7415014 0.4209306
vt 0.72426 0.3948589
vt 0.7412573 0.3948589
vt 0.7412573 0.4209306
vt 0.72426 0.4209306
vt 0.7070186 0.3948589
vt 0.7240158 0.3948589
vt 0.7240158 0.4209306
vt 0.7070186 0.4209306
vt 0.6208117 0.26328
vt 0.637809 0.26328
vt 0.637809 0.2893516
vt 0.6208117 0.2893516
vt 0.6035703 0.26328
vt 0.6205676 0.26328
vt 0.6205676 0.2893516
vt 0.6035703 0.2893516
vt 0.586329 0.26328
vt 0.6033262 0.26328
vt 0.6033262 0.2893516
vt 0.586329 0.2893516
vt 0.5690876 0.26328
vt 0.5860848 0.26328
vt 0.5860848 0.2893516
vt 0.5690876 0.2893516
vt 0.5518462 0.26328
vt 0.5688434 0.26328
vt 0.5688434 0.2893516
vt 0.5518462 0.2893516
vt 0.5346048 0.26328
vt 0.5516021 0.26328
vt 0.5516021 0.2893516
vt 0.5346048 0.2893516
vt 0.5173634 0.26328
vt 0.5343607 0.26328
vt 0.5343607 0.2893516
vt 0.5173634 0.2893516
vt 0.8277083 0.3685431
vt 0.8447055 0.3685431
vt 0.8447055 0.3946148
vt 0.8277083 0.3946148
vt 0.8104669 0.3685431
vt 0.8274642 0.3685431
vt 0.8274642 0.3946148
vt 0.8104669 0.3946148
vt 0.7932255 0.3685431
vt 0.8102227 0.3685431
vt 0.8102227 0.3946148
vt 0.7932255 0.3946148
vt 0.7759842 0.3685431
vt 0.7929814 0.3685431
vt 0.7929814 0.3946148
vt 0.7759842 0.3946148
vt 0.7587427 0.3685431
vt 0.77574 0.3685431
vt 0.77574 0.3946148
vt 0.7587427 0.3946148
vt 0.7415014 0.3685431
vt 0.7584986 0.3685431
vt 0.7584986 0.3946148
vt 0.7415014 0.3946148
vt 0.72426 0.3685431
vt 0.7412573 0.3685431
vt 0.7412573 0.3946148
vt 0.72426 0.3946148
vt 0.7070186 0.3685431
vt 0.7240158 0.3685431
vt 0.7240158 0.3946148
vt 0.7070186 0.3946148
vt 0.6208117 0.2369642
vt 0.637809 0.2369642
vt 0.637809 0.2630358
vt 0.6208117 0.2630358
vt 0.6035703 0.2369642
vt 0.6205676 0.2369642
vt 0.6205676 0.2630358
vt 0.6035703 0.2630358
vt 0.586329 0.2369642
vt 0.6033262 0.2369642
vt 0.6033262 0.2630358
vt 0.586329 0.2630358
vt 0.5690876 0.2369642
vt 0.5860848 0.2369642
vt 0.5860848 0.2630358
vt 0.5690876 0.2630358
vt 0.5518462 0.2369642
vt 0.5688434 0.2369642
vt 0.5688434 0.2630358
vt 0.5518462 0.2630358
vt 0.5346048 0.2369642
vt 0.5516021 0.2369642
vt 0.5516021 0.2630358
vt 0.5346048 0.2630358
vt 0.5173634 0.2369642
vt 0.5343607 0.2369642
vt 0.5343607 0.2630358
vt 0.5173634 0.2630358
vt 0.8277083 0.3422273
vt 0.8447055 0.3422273
vt 0.8447055 0.368299
vt 0.8277083 0.368299
vt 0.8104669 0.3422273
vt 0.8274642 0.3422273
vt 0.8274642 0.368299
vt 0.8104669 0.368299
vt 0.7932255 0.3422273
vt 0.8102227 0.3422273
vt 0.8102227 0.368299
vt 0.7932255 0.368299
vt 0.7759842 0.3422273
vt 0.7929814 0.3422273
vt 0.7929814 0.368299
vt 0.7759842 0.368299
vt 0.7587427 0.3422273
vt 0.77574 0.3422273
vt 0.77574 0.368299
vt 0.7587427 0.368299
vt 0.7415014 0.3422273
vt 0.7584986 0.3422273
vt 0.7584986 0.368299
vt 0.7415014 0.368299
vt 0.72426 0.3422273
vt 0.7412573 0.3422273
vt 0.7412573 0.368299
vt 0.72426 0.368299
vt 0.7070186 0.3422273
vt 0.7240158 0.3422273
vt 0.7240158 0.368299
vt 0.7070186 0.368299

# Normal
vn 0 0 -1

# Mesh description
g Agao_mesh_0011

# Faces
f 1/1/1 2/2/1 3/3/1 4/4/1
f 5/5/1 6/6/1 7/7/1 8/8/1
f 9/9/1 10/10/1 11/11/1 12/12/1
f 13/13/1 14/14/1 15/15/1 16/16/1
f 17/17/1 18/18/1 19/19/1 20/20/1
f 21/21/1 22/22/1 23/23/1 24/24/1
f 25/25/1 26/26/1 27/27/1 28/28/1
f 29/29/1 30/30/1 31/31/1 32/32/1
f 33/33/1 34/34/1 35/35/1 36/36/1
f 37/37/1 38/38/1 39/39/1 40/40/1
f 41/41/1 42/42/1 43/43/1 44/44/1
f 45/45/1 46/46/1 47/47/1 48/48/1
f 49/49/1 50/50/1 51/51/1 52/52/1
f 53/53/1 54/54/1 55/55/1 56/56/1
f 57/57/1 58/58/1 59/59/1 60/60/1
f 61/61/1 62/62/1 63/63/1 64/64/1
f 65/65/1 66/66/1 67/67/1 68/68/1
f 69/69/1 70/70/1 71/71/1 72/72/1
f 73/73/1 74/74/1 75/75/1 76/76/1
f 77/77/1 78/78/1 79/79/1 80/80/1
f 81/81/1 82/82/1 83/83/1 84/84/1
f 85/85/1 86/86/1 87/87/1 88/88/1
f 89/89/1 90/90/1 91/91/1 92/92/1
f 93/93/1 94/94/1 95/95/1 96/96/1
f 97/97/1 98/98/1 99/99/1 100/100/1
f 101/101/1 102/102/1 103/103/1 104/104/1
f 105/105/1 106/106/1 107/107/1 108/108/1
f 109/109/1 110/110/1 111/111/1 112/112/1
f 113/113/1 114/114/1 115/115/1 116/116/1
f 117/117/1 118/118/1 119/119/1 120/120/1
f 121/121/1 122/122/1 123/123/1 124/124/1
f 125/125/1 126/126/1 127/127/1 128/128/1
f 129/129/1 130/130/1 131/131/1 132/132/1
f 133/133/1 134/134/1 135/135/1 136/136/1
f 137/137/1 138/138/1 139/139/1 140/140/1
f 141/141/1 142/142/1 143/143/1 144/144/1
f 145/145/1 146/146/1 147/147/1 148/148/1
f 149/149/1 150/150/1 151/151/1 152/152/1
f 153/153/1 154/154/1 155/155/1 156/156/1
f 157/157/1 158/158/1 159/159/1 160/160/1
f 161/161/1 162/162/1 163/163/1 164/164/1
f 165/165/1 166/166/1 167/167/1 168/168/1
f 169/169/1 170/170/1 171/171/1 172/172/1
f 173/173/1 174/174/1 175/175/1 176/176/1
f 177/177/1 178/178/1 179/179/1 180/180/1
f 181/181/1 182/182/1 183/183/1 184/184/1
f 185/185/1 186/186/1 187/187/1 188/188/1
f 189/189/1 190/190/1 191/191/1 192/192/1
f 193/193/1 194/194/1 195/195/1 196/196/1
f 197/197/1 198/198/1 199/199/1 200/200/1
f 201/201/1 202/202/1 203/203/1 204/204/1
f 205/205/1 206/206/1 207/207/1 208/208/1
f 209/209/1 210/210/1 211/211/1 212/212/1
f 213/213/1 214/214/1 215/215/1 216/216/1
f 217/217/1 218/218/1 219/219/1 220/220/1
f 221/221/1 222/222/1 223/223/1 224/224/1
f 225/225/1 226/226/1 227/227/1 228/228/1
f 229/229/1 230/230/1 231/231/1 232/232/1
f 233/233/1 234/234/1 235/235/1 236/236/1
f 237/237/1 238/238/1 239/239/1 240/240/1
f 241/241/1 242/242/1 243/243/1 244/244/1
f 245/245/1 246/246/1 247/247/1 248/248/1
f 249/249/1 250/250/1 251/251/1 252/252/1
f 253/253/1 254/254/1 255/255/1 256/256/1
f 257/257/1 258/258/1 259/259/1 260/260/1
f 261/261/1 262/262/1 263/263/1 264/264/1
f 265/265/1 266/266/1 267/267/1 268/268/1
f 269/269/1 270/270/1 271/271/1 272/272/1
f 273/273/1 274/274/1 275/275/1 276/276/1
f 277/277/1 278/278/1 279/279/1 280/280/1
f 281/281/1 282/282/1 283/283/1 284/284/1
f 285/285/1 286/286/1 287/287/1 288/288/1
f 289/289/1 290/290/1 291/291/1 292/292/1
f 293/293/1 294/294/1 295/295/1 296/296/1
f 297/297/1 298/298/1 299/299/1 300/300/1
f 301/301/1 302/302/1 303/303/1 304/304/1
f 305/305/1 306/306/1 307/307/1 308/308/1
f 309/309/1 310/310/1 311/311/1 312/312/1
f 313/313/1 314/314/1 315/315/1 316/316/1
f 317/317/1 318/318/1 319/319/1 320/320/1
f 321/321/1 322/322/1 323/323/1 324/324/1
f 325/325/1 326/326/1 327/327/1 328/328/1
f 329/329/1 330/330/1 331/331/1 332/332/1
f 333/333/1 334/334/1 335/335/1 336/336/1

