# Tiled2Unity generated file. Do not modify by hand.
# Wavefront file for 'Agao_mesh_0011.obj'

# Vertices (Count = 196)
v -19 -8 0
v -20 -8 0
v -20 -7 0
v -19 -7 0
v -18 -8 0
v -19 -8 0
v -19 -7 0
v -18 -7 0
v -17 -8 0
v -18 -8 0
v -18 -7 0
v -17 -7 0
v -16 -8 0
v -17 -8 0
v -17 -7 0
v -16 -7 0
v -15 -8 0
v -16 -8 0
v -16 -7 0
v -15 -7 0
v -14 -8 0
v -15 -8 0
v -15 -7 0
v -14 -7 0
v -19 -9 0
v -20 -9 0
v -20 -8 0
v -19 -8 0
v -18 -9 0
v -19 -9 0
v -19 -8 0
v -18 -8 0
v -17 -9 0
v -18 -9 0
v -18 -8 0
v -17 -8 0
v -16 -9 0
v -17 -9 0
v -17 -8 0
v -16 -8 0
v -15 -9 0
v -16 -9 0
v -16 -8 0
v -15 -8 0
v -14 -9 0
v -15 -9 0
v -15 -8 0
v -14 -8 0
v -19 -10 0
v -20 -10 0
v -20 -9 0
v -19 -9 0
v -18 -10 0
v -19 -10 0
v -19 -9 0
v -18 -9 0
v -17 -10 0
v -18 -10 0
v -18 -9 0
v -17 -9 0
v -16 -10 0
v -17 -10 0
v -17 -9 0
v -16 -9 0
v -15 -10 0
v -16 -10 0
v -16 -9 0
v -15 -9 0
v -14 -10 0
v -15 -10 0
v -15 -9 0
v -14 -9 0
v -19 -11 0
v -20 -11 0
v -20 -10 0
v -19 -10 0
v -18 -11 0
v -19 -11 0
v -19 -10 0
v -18 -10 0
v -17 -11 0
v -18 -11 0
v -18 -10 0
v -17 -10 0
v -16 -11 0
v -17 -11 0
v -17 -10 0
v -16 -10 0
v -15 -11 0
v -16 -11 0
v -16 -10 0
v -15 -10 0
v -14 -11 0
v -15 -11 0
v -15 -10 0
v -14 -10 0
v -10 -22 0
v -11 -22 0
v -11 -21 0
v -10 -21 0
v -28 -23 0
v -29 -23 0
v -29 -22 0
v -28 -22 0
v -27 -23 0
v -28 -23 0
v -28 -22 0
v -27 -22 0
v -26 -23 0
v -27 -23 0
v -27 -22 0
v -26 -22 0
v -25 -23 0
v -26 -23 0
v -26 -22 0
v -25 -22 0
v -24 -23 0
v -25 -23 0
v -25 -22 0
v -24 -22 0
v -23 -23 0
v -24 -23 0
v -24 -22 0
v -23 -22 0
v -28 -24 0
v -29 -24 0
v -29 -23 0
v -28 -23 0
v -27 -24 0
v -28 -24 0
v -28 -23 0
v -27 -23 0
v -26 -24 0
v -27 -24 0
v -27 -23 0
v -26 -23 0
v -25 -24 0
v -26 -24 0
v -26 -23 0
v -25 -23 0
v -24 -24 0
v -25 -24 0
v -25 -23 0
v -24 -23 0
v -23 -24 0
v -24 -24 0
v -24 -23 0
v -23 -23 0
v -28 -25 0
v -29 -25 0
v -29 -24 0
v -28 -24 0
v -27 -25 0
v -28 -25 0
v -28 -24 0
v -27 -24 0
v -26 -25 0
v -27 -25 0
v -27 -24 0
v -26 -24 0
v -25 -25 0
v -26 -25 0
v -26 -24 0
v -25 -24 0
v -24 -25 0
v -25 -25 0
v -25 -24 0
v -24 -24 0
v -23 -25 0
v -24 -25 0
v -24 -24 0
v -23 -24 0
v -28 -26 0
v -29 -26 0
v -29 -25 0
v -28 -25 0
v -27 -26 0
v -28 -26 0
v -28 -25 0
v -27 -25 0
v -26 -26 0
v -27 -26 0
v -27 -25 0
v -26 -25 0
v -25 -26 0
v -26 -26 0
v -26 -25 0
v -25 -25 0
v -24 -26 0
v -25 -26 0
v -25 -25 0
v -24 -25 0
v -23 -26 0
v -24 -26 0
v -24 -25 0
v -23 -25 0

# Texture cooridinates (Count = 196)
vt 0.5624224 0.5527537
vt 0.5792177 0.5527537
vt 0.5792177 0.5788253
vt 0.5624224 0.5788253
vt 0.545383 0.5527537
vt 0.5621783 0.5527537
vt 0.5621783 0.5788253
vt 0.545383 0.5788253
vt 0.5283436 0.5527537
vt 0.5451388 0.5527537
vt 0.5451388 0.5788253
vt 0.5283436 0.5788253
vt 0.5113042 0.5527537
vt 0.5280994 0.5527537
vt 0.5280994 0.5788253
vt 0.5113042 0.5788253
vt 0.4942648 0.5527537
vt 0.5110601 0.5527537
vt 0.5110601 0.5788253
vt 0.4942648 0.5788253
vt 0.4772254 0.5527537
vt 0.4940206 0.5527537
vt 0.4940206 0.5788253
vt 0.4772254 0.5788253
vt 0.5624224 0.5264379
vt 0.5792177 0.5264379
vt 0.5792177 0.5525095
vt 0.5624224 0.5525095
vt 0.545383 0.5264379
vt 0.5621783 0.5264379
vt 0.5621783 0.5525095
vt 0.545383 0.5525095
vt 0.5283436 0.5264379
vt 0.5451388 0.5264379
vt 0.5451388 0.5525095
vt 0.5283436 0.5525095
vt 0.5113042 0.5264379
vt 0.5280994 0.5264379
vt 0.5280994 0.5525095
vt 0.5113042 0.5525095
vt 0.4942648 0.5264379
vt 0.5110601 0.5264379
vt 0.5110601 0.5525095
vt 0.4942648 0.5525095
vt 0.4772254 0.5264379
vt 0.4940206 0.5264379
vt 0.4940206 0.5525095
vt 0.4772254 0.5525095
vt 0.5624224 0.5001221
vt 0.5792177 0.5001221
vt 0.5792177 0.5261937
vt 0.5624224 0.5261937
vt 0.545383 0.5001221
vt 0.5621783 0.5001221
vt 0.5621783 0.5261937
vt 0.545383 0.5261937
vt 0.5283436 0.5001221
vt 0.5451388 0.5001221
vt 0.5451388 0.5261937
vt 0.5283436 0.5261937
vt 0.5113042 0.5001221
vt 0.5280994 0.5001221
vt 0.5280994 0.5261937
vt 0.5113042 0.5261937
vt 0.4942648 0.5001221
vt 0.5110601 0.5001221
vt 0.5110601 0.5261937
vt 0.4942648 0.5261937
vt 0.4772254 0.5001221
vt 0.4940206 0.5001221
vt 0.4940206 0.5261937
vt 0.4772254 0.5261937
vt 0.5624224 0.4738063
vt 0.5792177 0.4738063
vt 0.5792177 0.4998779
vt 0.5624224 0.4998779
vt 0.545383 0.4738063
vt 0.5621783 0.4738063
vt 0.5621783 0.4998779
vt 0.545383 0.4998779
vt 0.5283436 0.4738063
vt 0.5451388 0.4738063
vt 0.5451388 0.4998779
vt 0.5283436 0.4998779
vt 0.5113042 0.4738063
vt 0.5280994 0.4738063
vt 0.5280994 0.4998779
vt 0.5113042 0.4998779
vt 0.4942648 0.4738063
vt 0.5110601 0.4738063
vt 0.5110601 0.4998779
vt 0.4942648 0.4998779
vt 0.4772254 0.4738063
vt 0.4940206 0.4738063
vt 0.4940206 0.4998779
vt 0.4772254 0.4998779
vt 0.3579496 0.9738063
vt 0.3747448 0.9738063
vt 0.3747448 0.9998779
vt 0.3579496 0.9998779
vt 0.5965012 0.3159115
vt 0.6132964 0.3159115
vt 0.6132964 0.3419832
vt 0.5965012 0.3419832
vt 0.5794618 0.3159115
vt 0.596257 0.3159115
vt 0.596257 0.3419832
vt 0.5794618 0.3419832
vt 0.5624224 0.3159115
vt 0.5792177 0.3159115
vt 0.5792177 0.3419832
vt 0.5624224 0.3419832
vt 0.545383 0.3159115
vt 0.5621783 0.3159115
vt 0.5621783 0.3419832
vt 0.545383 0.3419832
vt 0.5283436 0.3159115
vt 0.5451388 0.3159115
vt 0.5451388 0.3419832
vt 0.5283436 0.3419832
vt 0.5113042 0.3159115
vt 0.5280994 0.3159115
vt 0.5280994 0.3419832
vt 0.5113042 0.3419832
vt 0.5965012 0.2895958
vt 0.6132964 0.2895958
vt 0.6132964 0.3156674
vt 0.5965012 0.3156674
vt 0.5794618 0.2895958
vt 0.596257 0.2895958
vt 0.596257 0.3156674
vt 0.5794618 0.3156674
vt 0.5624224 0.2895958
vt 0.5792177 0.2895958
vt 0.5792177 0.3156674
vt 0.5624224 0.3156674
vt 0.545383 0.2895958
vt 0.5621783 0.2895958
vt 0.5621783 0.3156674
vt 0.545383 0.3156674
vt 0.5283436 0.2895958
vt 0.5451388 0.2895958
vt 0.5451388 0.3156674
vt 0.5283436 0.3156674
vt 0.5113042 0.2895958
vt 0.5280994 0.2895958
vt 0.5280994 0.3156674
vt 0.5113042 0.3156674
vt 0.5965012 0.26328
vt 0.6132964 0.26328
vt 0.6132964 0.2893516
vt 0.5965012 0.2893516
vt 0.5794618 0.26328
vt 0.596257 0.26328
vt 0.596257 0.2893516
vt 0.5794618 0.2893516
vt 0.5624224 0.26328
vt 0.5792177 0.26328
vt 0.5792177 0.2893516
vt 0.5624224 0.2893516
vt 0.545383 0.26328
vt 0.5621783 0.26328
vt 0.5621783 0.2893516
vt 0.545383 0.2893516
vt 0.5283436 0.26328
vt 0.5451388 0.26328
vt 0.5451388 0.2893516
vt 0.5283436 0.2893516
vt 0.5113042 0.26328
vt 0.5280994 0.26328
vt 0.5280994 0.2893516
vt 0.5113042 0.2893516
vt 0.5965012 0.2369642
vt 0.6132964 0.2369642
vt 0.6132964 0.2630358
vt 0.5965012 0.2630358
vt 0.5794618 0.2369642
vt 0.596257 0.2369642
vt 0.596257 0.2630358
vt 0.5794618 0.2630358
vt 0.5624224 0.2369642
vt 0.5792177 0.2369642
vt 0.5792177 0.2630358
vt 0.5624224 0.2630358
vt 0.545383 0.2369642
vt 0.5621783 0.2369642
vt 0.5621783 0.2630358
vt 0.545383 0.2630358
vt 0.5283436 0.2369642
vt 0.5451388 0.2369642
vt 0.5451388 0.2630358
vt 0.5283436 0.2630358
vt 0.5113042 0.2369642
vt 0.5280994 0.2369642
vt 0.5280994 0.2630358
vt 0.5113042 0.2630358

# Normal
vn 0 0 -1

# Mesh description
g Agao_mesh_0011

# Faces
f 1/1/1 2/2/1 3/3/1 4/4/1
f 5/5/1 6/6/1 7/7/1 8/8/1
f 9/9/1 10/10/1 11/11/1 12/12/1
f 13/13/1 14/14/1 15/15/1 16/16/1
f 17/17/1 18/18/1 19/19/1 20/20/1
f 21/21/1 22/22/1 23/23/1 24/24/1
f 25/25/1 26/26/1 27/27/1 28/28/1
f 29/29/1 30/30/1 31/31/1 32/32/1
f 33/33/1 34/34/1 35/35/1 36/36/1
f 37/37/1 38/38/1 39/39/1 40/40/1
f 41/41/1 42/42/1 43/43/1 44/44/1
f 45/45/1 46/46/1 47/47/1 48/48/1
f 49/49/1 50/50/1 51/51/1 52/52/1
f 53/53/1 54/54/1 55/55/1 56/56/1
f 57/57/1 58/58/1 59/59/1 60/60/1
f 61/61/1 62/62/1 63/63/1 64/64/1
f 65/65/1 66/66/1 67/67/1 68/68/1
f 69/69/1 70/70/1 71/71/1 72/72/1
f 73/73/1 74/74/1 75/75/1 76/76/1
f 77/77/1 78/78/1 79/79/1 80/80/1
f 81/81/1 82/82/1 83/83/1 84/84/1
f 85/85/1 86/86/1 87/87/1 88/88/1
f 89/89/1 90/90/1 91/91/1 92/92/1
f 93/93/1 94/94/1 95/95/1 96/96/1
f 97/97/1 98/98/1 99/99/1 100/100/1
f 101/101/1 102/102/1 103/103/1 104/104/1
f 105/105/1 106/106/1 107/107/1 108/108/1
f 109/109/1 110/110/1 111/111/1 112/112/1
f 113/113/1 114/114/1 115/115/1 116/116/1
f 117/117/1 118/118/1 119/119/1 120/120/1
f 121/121/1 122/122/1 123/123/1 124/124/1
f 125/125/1 126/126/1 127/127/1 128/128/1
f 129/129/1 130/130/1 131/131/1 132/132/1
f 133/133/1 134/134/1 135/135/1 136/136/1
f 137/137/1 138/138/1 139/139/1 140/140/1
f 141/141/1 142/142/1 143/143/1 144/144/1
f 145/145/1 146/146/1 147/147/1 148/148/1
f 149/149/1 150/150/1 151/151/1 152/152/1
f 153/153/1 154/154/1 155/155/1 156/156/1
f 157/157/1 158/158/1 159/159/1 160/160/1
f 161/161/1 162/162/1 163/163/1 164/164/1
f 165/165/1 166/166/1 167/167/1 168/168/1
f 169/169/1 170/170/1 171/171/1 172/172/1
f 173/173/1 174/174/1 175/175/1 176/176/1
f 177/177/1 178/178/1 179/179/1 180/180/1
f 181/181/1 182/182/1 183/183/1 184/184/1
f 185/185/1 186/186/1 187/187/1 188/188/1
f 189/189/1 190/190/1 191/191/1 192/192/1
f 193/193/1 194/194/1 195/195/1 196/196/1

