# Tiled2Unity generated file. Do not modify by hand.
# Wavefront file for 'Agao_mesh_0005.obj'

# Vertices (Count = 260)
v -128 -64 0
v -144 -64 0
v -144 -48 0
v -128 -48 0
v -112 -64 0
v -128 -64 0
v -128 -48 0
v -112 -48 0
v -96 -64 0
v -112 -64 0
v -112 -48 0
v -96 -48 0
v -496 -80 0
v -512 -80 0
v -512 -64 0
v -496 -64 0
v -128 -80 0
v -144 -80 0
v -144 -64 0
v -128 -64 0
v -112 -80 0
v -128 -80 0
v -128 -64 0
v -112 -64 0
v -96 -80 0
v -112 -80 0
v -112 -64 0
v -96 -64 0
v -672 -96 0
v -688 -96 0
v -688 -80 0
v -672 -80 0
v -656 -96 0
v -672 -96 0
v -672 -80 0
v -656 -80 0
v -608 -96 0
v -624 -96 0
v -624 -80 0
v -608 -80 0
v -592 -96 0
v -608 -96 0
v -608 -80 0
v -592 -80 0
v -336 -96 0
v -352 -96 0
v -352 -80 0
v -336 -80 0
v -320 -96 0
v -336 -96 0
v -336 -80 0
v -320 -80 0
v -304 -96 0
v -320 -96 0
v -320 -80 0
v -304 -80 0
v -288 -96 0
v -304 -96 0
v -304 -80 0
v -288 -80 0
v -608 -112 0
v -624 -112 0
v -624 -96 0
v -608 -96 0
v -592 -112 0
v -608 -112 0
v -608 -96 0
v -592 -96 0
v -512 -128 0
v -528 -128 0
v -528 -112 0
v -512 -112 0
v -496 -128 0
v -512 -128 0
v -512 -112 0
v -496 -112 0
v -480 -128 0
v -496 -128 0
v -496 -112 0
v -480 -112 0
v -592 -144 0
v -608 -144 0
v -608 -128 0
v -592 -128 0
v -576 -144 0
v -592 -144 0
v -592 -128 0
v -576 -128 0
v -512 -144 0
v -528 -144 0
v -528 -128 0
v -512 -128 0
v -496 -144 0
v -512 -144 0
v -512 -128 0
v -496 -128 0
v -480 -144 0
v -496 -144 0
v -496 -128 0
v -480 -128 0
v -592 -160 0
v -608 -160 0
v -608 -144 0
v -592 -144 0
v -576 -160 0
v -592 -160 0
v -592 -144 0
v -576 -144 0
v -416 -160 0
v -432 -160 0
v -432 -144 0
v -416 -144 0
v -400 -160 0
v -416 -160 0
v -416 -144 0
v -400 -144 0
v -64 -160 0
v -80 -160 0
v -80 -144 0
v -64 -144 0
v -48 -160 0
v -64 -160 0
v -64 -144 0
v -48 -144 0
v -32 -160 0
v -48 -160 0
v -48 -144 0
v -32 -144 0
v -16 -160 0
v -32 -160 0
v -32 -144 0
v -16 -144 0
v -416 -176 0
v -432 -176 0
v -432 -160 0
v -416 -160 0
v -400 -176 0
v -416 -176 0
v -416 -160 0
v -400 -160 0
v -64 -176 0
v -80 -176 0
v -80 -160 0
v -64 -160 0
v -48 -176 0
v -64 -176 0
v -64 -160 0
v -48 -160 0
v -32 -176 0
v -48 -176 0
v -48 -160 0
v -32 -160 0
v -16 -176 0
v -32 -176 0
v -32 -160 0
v -16 -160 0
v -64 -192 0
v -80 -192 0
v -80 -176 0
v -64 -176 0
v -48 -192 0
v -64 -192 0
v -64 -176 0
v -48 -176 0
v -32 -192 0
v -48 -192 0
v -48 -176 0
v -32 -176 0
v -16 -192 0
v -32 -192 0
v -32 -176 0
v -16 -176 0
v -16 -208 0
v -32 -208 0
v -32 -192 0
v -16 -192 0
v -144 -288 0
v -160 -288 0
v -160 -272 0
v -144 -272 0
v -128 -288 0
v -144 -288 0
v -144 -272 0
v -128 -272 0
v -112 -288 0
v -128 -288 0
v -128 -272 0
v -112 -272 0
v -48 -288 0
v -64 -288 0
v -64 -272 0
v -48 -272 0
v -112 -304 0
v -128 -304 0
v -128 -288 0
v -112 -288 0
v -320 -384 0
v -336 -384 0
v -336 -368 0
v -320 -368 0
v -320 -400 0
v -336 -400 0
v -336 -384 0
v -320 -384 0
v -240 -400 0
v -256 -400 0
v -256 -384 0
v -240 -384 0
v -224 -400 0
v -240 -400 0
v -240 -384 0
v -224 -384 0
v -320 -416 0
v -336 -416 0
v -336 -400 0
v -320 -400 0
v -304 -416 0
v -320 -416 0
v -320 -400 0
v -304 -400 0
v -288 -416 0
v -304 -416 0
v -304 -400 0
v -288 -400 0
v -272 -416 0
v -288 -416 0
v -288 -400 0
v -272 -400 0
v -240 -416 0
v -256 -416 0
v -256 -400 0
v -240 -400 0
v -320 -432 0
v -336 -432 0
v -336 -416 0
v -320 -416 0
v -304 -432 0
v -320 -432 0
v -320 -416 0
v -304 -416 0
v -288 -432 0
v -304 -432 0
v -304 -416 0
v -288 -416 0
v -272 -432 0
v -288 -432 0
v -288 -416 0
v -272 -416 0
v -256 -432 0
v -272 -432 0
v -272 -416 0
v -256 -416 0
v -240 -432 0
v -256 -432 0
v -256 -416 0
v -240 -416 0
v -224 -432 0
v -240 -432 0
v -240 -416 0
v -224 -416 0

# Texture cooridinates (Count = 220)
vt 0.5202781 0.4167888
vt 0.5408402 0.4167888
vt 0.5408402 0.4443223
vt 0.5202781 0.4443223
vt 0.4994719 0.4167888
vt 0.520034 0.4167888
vt 0.520034 0.4443223
vt 0.4994719 0.4443223
vt 0.4786656 0.4167888
vt 0.4992277 0.4167888
vt 0.4992277 0.4443223
vt 0.4786656 0.4443223
vt 0.7907593 0.0001220703
vt 0.8113214 0.0001220703
vt 0.8113214 0.02765572
vt 0.7907593 0.02765572
vt 0.5202781 0.389011
vt 0.5408402 0.389011
vt 0.5408402 0.4165446
vt 0.5202781 0.4165446
vt 0.4994719 0.389011
vt 0.520034 0.389011
vt 0.520034 0.4165446
vt 0.4994719 0.4165446
vt 0.4786656 0.389011
vt 0.4992277 0.389011
vt 0.4992277 0.4165446
vt 0.4786656 0.4165446
vt 0.5618906 0.4167888
vt 0.5824527 0.4167888
vt 0.5824527 0.4443223
vt 0.5618906 0.4443223
vt 0.5410843 0.4167888
vt 0.5616465 0.4167888
vt 0.5616465 0.4443223
vt 0.5410843 0.4443223
vt 0.5826969 0.4167888
vt 0.603259 0.4167888
vt 0.603259 0.4443223
vt 0.5826969 0.4443223
vt 0.5410843 0.1667888
vt 0.5616465 0.1667888
vt 0.5616465 0.1943223
vt 0.5410843 0.1943223
vt 0.6035031 0.139011
vt 0.6240652 0.139011
vt 0.6240652 0.1665446
vt 0.6035031 0.1665446
vt 0.5826969 0.139011
vt 0.603259 0.139011
vt 0.603259 0.1665446
vt 0.5826969 0.1665446
vt 0.5618906 0.139011
vt 0.5824527 0.139011
vt 0.5824527 0.1665446
vt 0.5618906 0.1665446
vt 0.5826969 0.389011
vt 0.603259 0.389011
vt 0.603259 0.4165446
vt 0.5826969 0.4165446
vt 0.9780154 0.08345538
vt 0.9985775 0.08345538
vt 0.9985775 0.110989
vt 0.9780154 0.110989
vt 0.9155967 0.08345538
vt 0.9361588 0.08345538
vt 0.9361588 0.110989
vt 0.9155967 0.110989
vt 0.6451156 0.1667888
vt 0.6656777 0.1667888
vt 0.6656777 0.1943223
vt 0.6451156 0.1943223
vt 0.4578594 0.4167888
vt 0.4784215 0.4167888
vt 0.4784215 0.4443223
vt 0.4578594 0.4443223
vt 0.4370531 0.4167888
vt 0.4576153 0.4167888
vt 0.4576153 0.4443223
vt 0.4370531 0.4443223
vt 0.9780154 0.05567765
vt 0.9985775 0.05567765
vt 0.9985775 0.08321124
vt 0.9780154 0.08321124
vt 0.9155967 0.05567765
vt 0.9361588 0.05567765
vt 0.9361588 0.08321124
vt 0.9155967 0.08321124
vt 0.7283405 0.2223443
vt 0.7489026 0.2223443
vt 0.7489026 0.2498779
vt 0.7283405 0.2498779
vt 0.4578594 0.389011
vt 0.4784215 0.389011
vt 0.4784215 0.4165446
vt 0.4578594 0.4165446
vt 0.4370531 0.389011
vt 0.4576153 0.389011
vt 0.4576153 0.4165446
vt 0.4370531 0.4165446
vt 0.8739842 0.02789986
vt 0.8945463 0.02789986
vt 0.8945463 0.05543351
vt 0.8739842 0.05543351
vt 0.853178 0.02789986
vt 0.8737401 0.02789986
vt 0.8737401 0.05543351
vt 0.853178 0.05543351
vt 0.769953 0.6945665
vt 0.7905151 0.6945665
vt 0.7905151 0.7221001
vt 0.769953 0.7221001
vt 0.7491468 0.6945665
vt 0.7697089 0.6945665
vt 0.7697089 0.7221001
vt 0.7491468 0.7221001
vt 0.7283405 0.6945665
vt 0.7489026 0.6945665
vt 0.7489026 0.7221001
vt 0.7283405 0.7221001
vt 0.5410843 0.8612332
vt 0.5616465 0.8612332
vt 0.5616465 0.8887668
vt 0.5410843 0.8887668
vt 0.8739842 0.0001220703
vt 0.8945463 0.0001220703
vt 0.8945463 0.02765572
vt 0.8739842 0.02765572
vt 0.853178 0.0001220703
vt 0.8737401 0.0001220703
vt 0.8737401 0.02765572
vt 0.853178 0.02765572
vt 0.769953 0.6667887
vt 0.7905151 0.6667887
vt 0.7905151 0.6943223
vt 0.769953 0.6943223
vt 0.7491468 0.6667887
vt 0.7697089 0.6667887
vt 0.7697089 0.6943223
vt 0.7491468 0.6943223
vt 0.7283405 0.6667887
vt 0.7489026 0.6667887
vt 0.7489026 0.6943223
vt 0.7283405 0.6943223
vt 0.5410843 0.8334554
vt 0.5616465 0.8334554
vt 0.5616465 0.860989
vt 0.5410843 0.860989
vt 0.769953 0.639011
vt 0.7905151 0.639011
vt 0.7905151 0.6665446
vt 0.769953 0.6665446
vt 0.7491468 0.639011
vt 0.7697089 0.639011
vt 0.7697089 0.6665446
vt 0.7491468 0.6665446
vt 0.7283405 0.639011
vt 0.7489026 0.639011
vt 0.7489026 0.6665446
vt 0.7283405 0.6665446
vt 0.5410843 0.8056777
vt 0.5616465 0.8056777
vt 0.5616465 0.8332112
vt 0.5410843 0.8332112
vt 0.5410843 0.7778999
vt 0.5616465 0.7778999
vt 0.5616465 0.8054335
vt 0.5410843 0.8054335
vt 0.6867281 0.2223443
vt 0.7072902 0.2223443
vt 0.7072902 0.2498779
vt 0.6867281 0.2498779
vt 0.7907593 0.2223443
vt 0.8113214 0.2223443
vt 0.8113214 0.2498779
vt 0.7907593 0.2498779
vt 0.769953 0.2223443
vt 0.7905151 0.2223443
vt 0.7905151 0.2498779
vt 0.769953 0.2498779
vt 0.7491468 0.2223443
vt 0.7697089 0.2223443
vt 0.7697089 0.2498779
vt 0.7491468 0.2498779
vt 0.5618906 0.8612332
vt 0.5824527 0.8612332
vt 0.5824527 0.8887668
vt 0.5618906 0.8887668
vt 0.5618906 0.8334554
vt 0.5824527 0.8334554
vt 0.5824527 0.860989
vt 0.5618906 0.860989
vt 0.5202781 0.1667888
vt 0.5408402 0.1667888
vt 0.5408402 0.1943223
vt 0.5202781 0.1943223
vt 0.4994719 0.1667888
vt 0.520034 0.1667888
vt 0.520034 0.1943223
vt 0.4994719 0.1943223
vt 0.5618906 0.8056777
vt 0.5824527 0.8056777
vt 0.5824527 0.8332112
vt 0.5618906 0.8332112
vt 0.5618906 0.7778999
vt 0.5824527 0.7778999
vt 0.5824527 0.8054335
vt 0.5618906 0.8054335
vt 0.5410843 0.139011
vt 0.5616465 0.139011
vt 0.5616465 0.1665446
vt 0.5410843 0.1665446
vt 0.5202781 0.139011
vt 0.5408402 0.139011
vt 0.5408402 0.1665446
vt 0.5202781 0.1665446
vt 0.4994719 0.139011
vt 0.520034 0.139011
vt 0.520034 0.1665446
vt 0.4994719 0.1665446

# Normal
vn 0 0 -1

# Mesh description
g Agao_mesh_0005

# Faces
f 1/1/1 2/2/1 3/3/1 4/4/1
f 5/5/1 6/6/1 7/7/1 8/8/1
f 9/9/1 10/10/1 11/11/1 12/12/1
f 13/13/1 14/14/1 15/15/1 16/16/1
f 17/17/1 18/18/1 19/19/1 20/20/1
f 21/21/1 22/22/1 23/23/1 24/24/1
f 25/25/1 26/26/1 27/27/1 28/28/1
f 29/29/1 30/30/1 31/31/1 32/32/1
f 33/33/1 34/34/1 35/35/1 36/36/1
f 37/37/1 38/38/1 39/39/1 40/40/1
f 41/37/1 42/38/1 43/39/1 44/40/1
f 45/41/1 46/42/1 47/43/1 48/44/1
f 49/45/1 50/46/1 51/47/1 52/48/1
f 53/49/1 54/50/1 55/51/1 56/52/1
f 57/53/1 58/54/1 59/55/1 60/56/1
f 61/57/1 62/58/1 63/59/1 64/60/1
f 65/57/1 66/58/1 67/59/1 68/60/1
f 69/61/1 70/62/1 71/63/1 72/64/1
f 73/65/1 74/66/1 75/67/1 76/68/1
f 77/69/1 78/70/1 79/71/1 80/72/1
f 81/73/1 82/74/1 83/75/1 84/76/1
f 85/77/1 86/78/1 87/79/1 88/80/1
f 89/81/1 90/82/1 91/83/1 92/84/1
f 93/85/1 94/86/1 95/87/1 96/88/1
f 97/89/1 98/90/1 99/91/1 100/92/1
f 101/93/1 102/94/1 103/95/1 104/96/1
f 105/97/1 106/98/1 107/99/1 108/100/1
f 109/101/1 110/102/1 111/103/1 112/104/1
f 113/105/1 114/106/1 115/107/1 116/108/1
f 117/109/1 118/110/1 119/111/1 120/112/1
f 121/113/1 122/114/1 123/115/1 124/116/1
f 125/117/1 126/118/1 127/119/1 128/120/1
f 129/121/1 130/122/1 131/123/1 132/124/1
f 133/125/1 134/126/1 135/127/1 136/128/1
f 137/129/1 138/130/1 139/131/1 140/132/1
f 141/133/1 142/134/1 143/135/1 144/136/1
f 145/137/1 146/138/1 147/139/1 148/140/1
f 149/141/1 150/142/1 151/143/1 152/144/1
f 153/145/1 154/146/1 155/147/1 156/148/1
f 157/149/1 158/150/1 159/151/1 160/152/1
f 161/153/1 162/154/1 163/155/1 164/156/1
f 165/157/1 166/158/1 167/159/1 168/160/1
f 169/161/1 170/162/1 171/163/1 172/164/1
f 173/165/1 174/166/1 175/167/1 176/168/1
f 177/169/1 178/170/1 179/171/1 180/172/1
f 181/173/1 182/174/1 183/175/1 184/176/1
f 185/177/1 186/178/1 187/179/1 188/180/1
f 189/181/1 190/182/1 191/183/1 192/184/1
f 193/173/1 194/174/1 195/175/1 196/176/1
f 197/185/1 198/186/1 199/187/1 200/188/1
f 201/189/1 202/190/1 203/191/1 204/192/1
f 205/193/1 206/194/1 207/195/1 208/196/1
f 209/197/1 210/198/1 211/199/1 212/200/1
f 213/201/1 214/202/1 215/203/1 216/204/1
f 217/133/1 218/134/1 219/135/1 220/136/1
f 221/137/1 222/138/1 223/139/1 224/140/1
f 225/141/1 226/142/1 227/143/1 228/144/1
f 229/13/1 230/14/1 231/15/1 232/16/1
f 233/205/1 234/206/1 235/207/1 236/208/1
f 237/149/1 238/150/1 239/151/1 240/152/1
f 241/153/1 242/154/1 243/155/1 244/156/1
f 245/157/1 246/158/1 247/159/1 248/160/1
f 249/209/1 250/210/1 251/211/1 252/212/1
f 253/213/1 254/214/1 255/215/1 256/216/1
f 257/217/1 258/218/1 259/219/1 260/220/1

