# Tiled2Unity generated file. Do not modify by hand.
# Wavefront file for 'Agao_mesh_0004.obj'

# Vertices (Count = 268)
v -16 -5 0
v -17 -5 0
v -17 -4 0
v -16 -4 0
v -15 -5 0
v -16 -5 0
v -16 -4 0
v -15 -4 0
v -16 -6 0
v -17 -6 0
v -17 -5 0
v -16 -5 0
v -15 -6 0
v -16 -6 0
v -16 -5 0
v -15 -5 0
v -16 -7 0
v -17 -7 0
v -17 -6 0
v -16 -6 0
v -15 -7 0
v -16 -7 0
v -16 -6 0
v -15 -6 0
v -32 -8 0
v -33 -8 0
v -33 -7 0
v -32 -7 0
v -31 -8 0
v -32 -8 0
v -32 -7 0
v -31 -7 0
v -30 -8 0
v -31 -8 0
v -31 -7 0
v -30 -7 0
v -32 -9 0
v -33 -9 0
v -33 -8 0
v -32 -8 0
v -31 -9 0
v -32 -9 0
v -32 -8 0
v -31 -8 0
v -30 -9 0
v -31 -9 0
v -31 -8 0
v -30 -8 0
v -26 -9 0
v -27 -9 0
v -27 -8 0
v -26 -8 0
v -25 -9 0
v -26 -9 0
v -26 -8 0
v -25 -8 0
v -24 -9 0
v -25 -9 0
v -25 -8 0
v -24 -8 0
v -23 -9 0
v -24 -9 0
v -24 -8 0
v -23 -8 0
v -32 -10 0
v -33 -10 0
v -33 -9 0
v -32 -9 0
v -31 -10 0
v -32 -10 0
v -32 -9 0
v -31 -9 0
v -30 -10 0
v -31 -10 0
v -31 -9 0
v -30 -9 0
v -26 -10 0
v -27 -10 0
v -27 -9 0
v -26 -9 0
v -25 -10 0
v -26 -10 0
v -26 -9 0
v -25 -9 0
v -24 -10 0
v -25 -10 0
v -25 -9 0
v -24 -9 0
v -23 -10 0
v -24 -10 0
v -24 -9 0
v -23 -9 0
v -26 -11 0
v -27 -11 0
v -27 -10 0
v -26 -10 0
v -25 -11 0
v -26 -11 0
v -26 -10 0
v -25 -10 0
v -24 -11 0
v -25 -11 0
v -25 -10 0
v -24 -10 0
v -23 -11 0
v -24 -11 0
v -24 -10 0
v -23 -10 0
v -26 -12 0
v -27 -12 0
v -27 -11 0
v -26 -11 0
v -25 -12 0
v -26 -12 0
v -26 -11 0
v -25 -11 0
v -24 -12 0
v -25 -12 0
v -25 -11 0
v -24 -11 0
v -23 -12 0
v -24 -12 0
v -24 -11 0
v -23 -11 0
v -9 -18 0
v -10 -18 0
v -10 -17 0
v -9 -17 0
v -8 -18 0
v -9 -18 0
v -9 -17 0
v -8 -17 0
v -7 -18 0
v -8 -18 0
v -8 -17 0
v -7 -17 0
v -4 -18 0
v -5 -18 0
v -5 -17 0
v -4 -17 0
v -3 -18 0
v -4 -18 0
v -4 -17 0
v -3 -17 0
v -2 -18 0
v -3 -18 0
v -3 -17 0
v -2 -17 0
v -9 -19 0
v -10 -19 0
v -10 -18 0
v -9 -18 0
v -8 -19 0
v -9 -19 0
v -9 -18 0
v -8 -18 0
v -7 -19 0
v -8 -19 0
v -8 -18 0
v -7 -18 0
v -4 -19 0
v -5 -19 0
v -5 -18 0
v -4 -18 0
v -3 -19 0
v -4 -19 0
v -4 -18 0
v -3 -18 0
v -2 -19 0
v -3 -19 0
v -3 -18 0
v -2 -18 0
v -9 -20 0
v -10 -20 0
v -10 -19 0
v -9 -19 0
v -8 -20 0
v -9 -20 0
v -9 -19 0
v -8 -19 0
v -7 -20 0
v -8 -20 0
v -8 -19 0
v -7 -19 0
v -4 -20 0
v -5 -20 0
v -5 -19 0
v -4 -19 0
v -3 -20 0
v -4 -20 0
v -4 -19 0
v -3 -19 0
v -2 -20 0
v -3 -20 0
v -3 -19 0
v -2 -19 0
v -9 -30 0
v -10 -30 0
v -10 -29 0
v -9 -29 0
v -8 -30 0
v -9 -30 0
v -9 -29 0
v -8 -29 0
v -7 -30 0
v -8 -30 0
v -8 -29 0
v -7 -29 0
v -4 -30 0
v -5 -30 0
v -5 -29 0
v -4 -29 0
v -3 -30 0
v -4 -30 0
v -4 -29 0
v -3 -29 0
v -2 -30 0
v -3 -30 0
v -3 -29 0
v -2 -29 0
v -9 -31 0
v -10 -31 0
v -10 -30 0
v -9 -30 0
v -8 -31 0
v -9 -31 0
v -9 -30 0
v -8 -30 0
v -7 -31 0
v -8 -31 0
v -8 -30 0
v -7 -30 0
v -4 -31 0
v -5 -31 0
v -5 -30 0
v -4 -30 0
v -3 -31 0
v -4 -31 0
v -4 -30 0
v -3 -30 0
v -2 -31 0
v -3 -31 0
v -3 -30 0
v -2 -30 0
v -9 -32 0
v -10 -32 0
v -10 -31 0
v -9 -31 0
v -8 -32 0
v -9 -32 0
v -9 -31 0
v -8 -31 0
v -7 -32 0
v -8 -32 0
v -8 -31 0
v -7 -31 0
v -4 -32 0
v -5 -32 0
v -5 -31 0
v -4 -31 0
v -3 -32 0
v -4 -32 0
v -4 -31 0
v -3 -31 0
v -2 -32 0
v -3 -32 0
v -3 -31 0
v -2 -31 0

# Texture cooridinates (Count = 148)
vt 0.1201221 0.2436209
vt 0.1598779 0.2436209
vt 0.1598779 0.2812018
vt 0.1201221 0.2812018
vt 0.08012207 0.2436209
vt 0.1198779 0.2436209
vt 0.1198779 0.2812018
vt 0.08012207 0.2812018
vt 0.1201221 0.2057958
vt 0.1598779 0.2057958
vt 0.1598779 0.2433767
vt 0.1201221 0.2433767
vt 0.08012207 0.2057958
vt 0.1198779 0.2057958
vt 0.1198779 0.2433767
vt 0.08012207 0.2433767
vt 0.1201221 0.1679708
vt 0.1598779 0.1679708
vt 0.1598779 0.2055517
vt 0.1201221 0.2055517
vt 0.08012207 0.1679708
vt 0.1198779 0.1679708
vt 0.1198779 0.2055517
vt 0.08012207 0.2055517
vt 0.3201221 0.1301457
vt 0.3598779 0.1301457
vt 0.3598779 0.1677266
vt 0.3201221 0.1677266
vt 0.2801221 0.1301457
vt 0.3198779 0.1301457
vt 0.3198779 0.1677266
vt 0.2801221 0.1677266
vt 0.2401221 0.1301457
vt 0.2798779 0.1301457
vt 0.2798779 0.1677266
vt 0.2401221 0.1677266
vt 0.3201221 0.09232068
vt 0.3598779 0.09232068
vt 0.3598779 0.1299016
vt 0.3201221 0.1299016
vt 0.2801221 0.09232068
vt 0.3198779 0.09232068
vt 0.3198779 0.1299016
vt 0.2801221 0.1299016
vt 0.2401221 0.09232068
vt 0.2798779 0.09232068
vt 0.2798779 0.1299016
vt 0.2401221 0.1299016
vt 0.4401221 0.1301457
vt 0.4798779 0.1301457
vt 0.4798779 0.1677266
vt 0.4401221 0.1677266
vt 0.4001221 0.1301457
vt 0.4398779 0.1301457
vt 0.4398779 0.1677266
vt 0.4001221 0.1677266
vt 0.3601221 0.1301457
vt 0.3998779 0.1301457
vt 0.3998779 0.1677266
vt 0.3601221 0.1677266
vt 0.3201221 0.05449557
vt 0.3598779 0.05449557
vt 0.3598779 0.09207654
vt 0.3201221 0.09207654
vt 0.2801221 0.05449557
vt 0.3198779 0.05449557
vt 0.3198779 0.09207654
vt 0.2801221 0.09207654
vt 0.2401221 0.05449557
vt 0.2798779 0.05449557
vt 0.2798779 0.09207654
vt 0.2401221 0.09207654
vt 0.4401221 0.09232068
vt 0.4798779 0.09232068
vt 0.4798779 0.1299016
vt 0.4401221 0.1299016
vt 0.7201221 0.1301457
vt 0.7598779 0.1301457
vt 0.7598779 0.1677266
vt 0.7201221 0.1677266
vt 0.6801221 0.1301457
vt 0.719878 0.1301457
vt 0.719878 0.1677266
vt 0.6801221 0.1677266
vt 0.3601221 0.09232068
vt 0.3998779 0.09232068
vt 0.3998779 0.1299016
vt 0.3601221 0.1299016
vt 0.7201221 0.09232068
vt 0.7598779 0.09232068
vt 0.7598779 0.1299016
vt 0.7201221 0.1299016
vt 0.6801221 0.09232068
vt 0.719878 0.09232068
vt 0.719878 0.1299016
vt 0.6801221 0.1299016
vt 0.4401221 0.05449557
vt 0.4798779 0.05449557
vt 0.4798779 0.09207654
vt 0.4401221 0.09207654
vt 0.4001221 0.05449557
vt 0.4398779 0.05449557
vt 0.4398779 0.09207654
vt 0.4001221 0.09207654
vt 0.3601221 0.05449557
vt 0.3998779 0.05449557
vt 0.3998779 0.09207654
vt 0.3601221 0.09207654
vt 0.4001221 0.09232068
vt 0.4398779 0.09232068
vt 0.4398779 0.1299016
vt 0.4001221 0.1299016
vt 0.5601221 0.1301457
vt 0.599878 0.1301457
vt 0.599878 0.1677266
vt 0.5601221 0.1677266
vt 0.5201221 0.1301457
vt 0.5598779 0.1301457
vt 0.5598779 0.1677266
vt 0.5201221 0.1677266
vt 0.4801221 0.1301457
vt 0.5198779 0.1301457
vt 0.5198779 0.1677266
vt 0.4801221 0.1677266
vt 0.5601221 0.09232068
vt 0.599878 0.09232068
vt 0.599878 0.1299016
vt 0.5601221 0.1299016
vt 0.5201221 0.09232068
vt 0.5598779 0.09232068
vt 0.5598779 0.1299016
vt 0.5201221 0.1299016
vt 0.4801221 0.09232068
vt 0.5198779 0.09232068
vt 0.5198779 0.1299016
vt 0.4801221 0.1299016
vt 0.5601221 0.05449557
vt 0.599878 0.05449557
vt 0.599878 0.09207654
vt 0.5601221 0.09207654
vt 0.5201221 0.05449557
vt 0.5598779 0.05449557
vt 0.5598779 0.09207654
vt 0.5201221 0.09207654
vt 0.4801221 0.05449557
vt 0.5198779 0.05449557
vt 0.5198779 0.09207654
vt 0.4801221 0.09207654

# Normal
vn 0 0 -1

# Mesh description
g Agao_mesh_0004

# Faces
f 1/1/1 2/2/1 3/3/1 4/4/1
f 5/5/1 6/6/1 7/7/1 8/8/1
f 9/9/1 10/10/1 11/11/1 12/12/1
f 13/13/1 14/14/1 15/15/1 16/16/1
f 17/17/1 18/18/1 19/19/1 20/20/1
f 21/21/1 22/22/1 23/23/1 24/24/1
f 25/25/1 26/26/1 27/27/1 28/28/1
f 29/29/1 30/30/1 31/31/1 32/32/1
f 33/33/1 34/34/1 35/35/1 36/36/1
f 37/37/1 38/38/1 39/39/1 40/40/1
f 41/41/1 42/42/1 43/43/1 44/44/1
f 45/45/1 46/46/1 47/47/1 48/48/1
f 49/49/1 50/50/1 51/51/1 52/52/1
f 53/53/1 54/54/1 55/55/1 56/56/1
f 57/53/1 58/54/1 59/55/1 60/56/1
f 61/57/1 62/58/1 63/59/1 64/60/1
f 65/61/1 66/62/1 67/63/1 68/64/1
f 69/65/1 70/66/1 71/67/1 72/68/1
f 73/69/1 74/70/1 75/71/1 76/72/1
f 77/73/1 78/74/1 79/75/1 80/76/1
f 81/77/1 82/78/1 83/79/1 84/80/1
f 85/81/1 86/82/1 87/83/1 88/84/1
f 89/85/1 90/86/1 91/87/1 92/88/1
f 93/73/1 94/74/1 95/75/1 96/76/1
f 97/89/1 98/90/1 99/91/1 100/92/1
f 101/93/1 102/94/1 103/95/1 104/96/1
f 105/85/1 106/86/1 107/87/1 108/88/1
f 109/97/1 110/98/1 111/99/1 112/100/1
f 113/101/1 114/102/1 115/103/1 116/104/1
f 117/101/1 118/102/1 119/103/1 120/104/1
f 121/105/1 122/106/1 123/107/1 124/108/1
f 125/25/1 126/26/1 127/27/1 128/28/1
f 129/29/1 130/30/1 131/31/1 132/32/1
f 133/33/1 134/34/1 135/35/1 136/36/1
f 137/49/1 138/50/1 139/51/1 140/52/1
f 141/53/1 142/54/1 143/55/1 144/56/1
f 145/57/1 146/58/1 147/59/1 148/60/1
f 149/37/1 150/38/1 151/39/1 152/40/1
f 153/41/1 154/42/1 155/43/1 156/44/1
f 157/45/1 158/46/1 159/47/1 160/48/1
f 161/73/1 162/74/1 163/75/1 164/76/1
f 165/109/1 166/110/1 167/111/1 168/112/1
f 169/85/1 170/86/1 171/87/1 172/88/1
f 173/61/1 174/62/1 175/63/1 176/64/1
f 177/65/1 178/66/1 179/67/1 180/68/1
f 181/69/1 182/70/1 183/71/1 184/72/1
f 185/97/1 186/98/1 187/99/1 188/100/1
f 189/101/1 190/102/1 191/103/1 192/104/1
f 193/105/1 194/106/1 195/107/1 196/108/1
f 197/25/1 198/26/1 199/27/1 200/28/1
f 201/29/1 202/30/1 203/31/1 204/32/1
f 205/33/1 206/34/1 207/35/1 208/36/1
f 209/113/1 210/114/1 211/115/1 212/116/1
f 213/117/1 214/118/1 215/119/1 216/120/1
f 217/121/1 218/122/1 219/123/1 220/124/1
f 221/37/1 222/38/1 223/39/1 224/40/1
f 225/41/1 226/42/1 227/43/1 228/44/1
f 229/45/1 230/46/1 231/47/1 232/48/1
f 233/125/1 234/126/1 235/127/1 236/128/1
f 237/129/1 238/130/1 239/131/1 240/132/1
f 241/133/1 242/134/1 243/135/1 244/136/1
f 245/61/1 246/62/1 247/63/1 248/64/1
f 249/65/1 250/66/1 251/67/1 252/68/1
f 253/69/1 254/70/1 255/71/1 256/72/1
f 257/137/1 258/138/1 259/139/1 260/140/1
f 261/141/1 262/142/1 263/143/1 264/144/1
f 265/145/1 266/146/1 267/147/1 268/148/1

