# Tiled2Unity generated file. Do not modify by hand.
# Wavefront file for 'Agao_mesh_0009.obj'

# Vertices (Count = 248)
v -31 -5 0
v -32 -5 0
v -32 -4 0
v -31 -4 0
v -30 -5 0
v -31 -5 0
v -31 -4 0
v -30 -4 0
v -29 -5 0
v -30 -5 0
v -30 -4 0
v -29 -4 0
v -15 -5 0
v -16 -5 0
v -16 -4 0
v -15 -4 0
v -31 -6 0
v -32 -6 0
v -32 -5 0
v -31 -5 0
v -30 -6 0
v -31 -6 0
v -31 -5 0
v -30 -5 0
v -29 -6 0
v -30 -6 0
v -30 -5 0
v -29 -5 0
v -15 -6 0
v -16 -6 0
v -16 -5 0
v -15 -5 0
v -5 -6 0
v -6 -6 0
v -6 -5 0
v -5 -5 0
v -4 -6 0
v -5 -6 0
v -5 -5 0
v -4 -5 0
v -3 -6 0
v -4 -6 0
v -4 -5 0
v -3 -5 0
v -5 -7 0
v -6 -7 0
v -6 -6 0
v -5 -6 0
v -4 -7 0
v -5 -7 0
v -5 -6 0
v -4 -6 0
v -3 -7 0
v -4 -7 0
v -4 -6 0
v -3 -6 0
v -42 -11 0
v -43 -11 0
v -43 -10 0
v -42 -10 0
v -41 -11 0
v -42 -11 0
v -42 -10 0
v -41 -10 0
v -38 -11 0
v -39 -11 0
v -39 -10 0
v -38 -10 0
v -42 -12 0
v -43 -12 0
v -43 -11 0
v -42 -11 0
v -41 -12 0
v -42 -12 0
v -42 -11 0
v -41 -11 0
v -18 -12 0
v -19 -12 0
v -19 -11 0
v -18 -11 0
v -17 -12 0
v -18 -12 0
v -18 -11 0
v -17 -11 0
v -16 -12 0
v -17 -12 0
v -17 -11 0
v -16 -11 0
v -10 -12 0
v -11 -12 0
v -11 -11 0
v -10 -11 0
v -9 -12 0
v -10 -12 0
v -10 -11 0
v -9 -11 0
v -8 -12 0
v -9 -12 0
v -9 -11 0
v -8 -11 0
v -10 -13 0
v -11 -13 0
v -11 -12 0
v -10 -12 0
v -9 -13 0
v -10 -13 0
v -10 -12 0
v -9 -12 0
v -8 -13 0
v -9 -13 0
v -9 -12 0
v -8 -12 0
v -21 -17 0
v -22 -17 0
v -22 -16 0
v -21 -16 0
v -20 -17 0
v -21 -17 0
v -21 -16 0
v -20 -16 0
v -19 -17 0
v -20 -17 0
v -20 -16 0
v -19 -16 0
v -17 -17 0
v -18 -17 0
v -18 -16 0
v -17 -16 0
v -7 -17 0
v -8 -17 0
v -8 -16 0
v -7 -16 0
v -6 -17 0
v -7 -17 0
v -7 -16 0
v -6 -16 0
v -3 -17 0
v -4 -17 0
v -4 -16 0
v -3 -16 0
v -2 -17 0
v -3 -17 0
v -3 -16 0
v -2 -16 0
v -1 -17 0
v -2 -17 0
v -2 -16 0
v -1 -16 0
v -37 -18 0
v -38 -18 0
v -38 -17 0
v -37 -17 0
v -36 -18 0
v -37 -18 0
v -37 -17 0
v -36 -17 0
v -21 -18 0
v -22 -18 0
v -22 -17 0
v -21 -17 0
v -20 -18 0
v -21 -18 0
v -21 -17 0
v -20 -17 0
v -17 -18 0
v -18 -18 0
v -18 -17 0
v -17 -17 0
v -40 -19 0
v -41 -19 0
v -41 -18 0
v -40 -18 0
v -39 -19 0
v -40 -19 0
v -40 -18 0
v -39 -18 0
v -37 -19 0
v -38 -19 0
v -38 -18 0
v -37 -18 0
v -36 -19 0
v -37 -19 0
v -37 -18 0
v -36 -18 0
v -35 -19 0
v -36 -19 0
v -36 -18 0
v -35 -18 0
v -32 -19 0
v -33 -19 0
v -33 -18 0
v -32 -18 0
v -40 -20 0
v -41 -20 0
v -41 -19 0
v -40 -19 0
v -39 -20 0
v -40 -20 0
v -40 -19 0
v -39 -19 0
v -35 -20 0
v -36 -20 0
v -36 -19 0
v -35 -19 0
v -32 -20 0
v -33 -20 0
v -33 -19 0
v -32 -19 0
v -40 -21 0
v -41 -21 0
v -41 -20 0
v -40 -20 0
v -32 -22 0
v -33 -22 0
v -33 -21 0
v -32 -21 0
v -32 -23 0
v -33 -23 0
v -33 -22 0
v -32 -22 0
v -32 -24 0
v -33 -24 0
v -33 -23 0
v -32 -23 0
v -14 -30 0
v -15 -30 0
v -15 -29 0
v -14 -29 0
v -10 -30 0
v -11 -30 0
v -11 -29 0
v -10 -29 0
v -14 -31 0
v -15 -31 0
v -15 -30 0
v -14 -30 0
v -10 -31 0
v -11 -31 0
v -11 -30 0
v -10 -30 0
v -10 -32 0
v -11 -32 0
v -11 -31 0
v -10 -31 0
v -33 -34 0
v -34 -34 0
v -34 -33 0
v -33 -33 0

# Texture cooridinates (Count = 148)
vt 0.4786656 0.4167888
vt 0.4992277 0.4167888
vt 0.4992277 0.4443223
vt 0.4786656 0.4443223
vt 0.3538282 0.2778999
vt 0.3743903 0.2778999
vt 0.3743903 0.3054335
vt 0.3538282 0.3054335
vt 0.3330219 0.2778999
vt 0.3535841 0.2778999
vt 0.3535841 0.3054335
vt 0.3330219 0.3054335
vt 0.7075343 0.2223443
vt 0.7280964 0.2223443
vt 0.7280964 0.2498779
vt 0.7075343 0.2498779
vt 0.4786656 0.389011
vt 0.4992277 0.389011
vt 0.4992277 0.4165446
vt 0.4786656 0.4165446
vt 0.3538282 0.2501221
vt 0.3743903 0.2501221
vt 0.3743903 0.2776557
vt 0.3538282 0.2776557
vt 0.3330219 0.2501221
vt 0.3535841 0.2501221
vt 0.3535841 0.2776557
vt 0.3330219 0.2776557
vt 0.6867281 0.2223443
vt 0.7072902 0.2223443
vt 0.7072902 0.2498779
vt 0.6867281 0.2498779
vt 0.5202781 0.4167888
vt 0.5408402 0.4167888
vt 0.5408402 0.4443223
vt 0.5202781 0.4443223
vt 0.4994719 0.4167888
vt 0.520034 0.4167888
vt 0.520034 0.4443223
vt 0.4994719 0.4443223
vt 0.5202781 0.389011
vt 0.5408402 0.389011
vt 0.5408402 0.4165446
vt 0.5202781 0.4165446
vt 0.4994719 0.389011
vt 0.520034 0.389011
vt 0.520034 0.4165446
vt 0.4994719 0.4165446
vt 0.6867281 0.9723443
vt 0.7072902 0.9723443
vt 0.7072902 0.9998779
vt 0.6867281 0.9998779
vt 0.6659218 0.9723443
vt 0.6864839 0.9723443
vt 0.6864839 0.9998779
vt 0.6659218 0.9998779
vt 0.6867281 0.9445665
vt 0.7072902 0.9445665
vt 0.7072902 0.9721001
vt 0.6867281 0.9721001
vt 0.6035031 0.139011
vt 0.6240652 0.139011
vt 0.6240652 0.1665446
vt 0.6035031 0.1665446
vt 0.5826969 0.139011
vt 0.603259 0.139011
vt 0.603259 0.1665446
vt 0.5826969 0.1665446
vt 0.5618906 0.139011
vt 0.5824527 0.139011
vt 0.5824527 0.1665446
vt 0.5618906 0.1665446
vt 0.7907593 0.2223443
vt 0.8113214 0.2223443
vt 0.8113214 0.2498779
vt 0.7907593 0.2498779
vt 0.7491468 0.2223443
vt 0.7697089 0.2223443
vt 0.7697089 0.2498779
vt 0.7491468 0.2498779
vt 0.769953 0.2223443
vt 0.7905151 0.2223443
vt 0.7905151 0.2498779
vt 0.769953 0.2498779
vt 0.6659218 0.1667888
vt 0.6864839 0.1667888
vt 0.6864839 0.1943223
vt 0.6659218 0.1943223
vt 0.7907593 0.02789986
vt 0.8113214 0.02789986
vt 0.8113214 0.05543351
vt 0.7907593 0.05543351
vt 0.6451156 0.1667888
vt 0.6656777 0.1667888
vt 0.6656777 0.1943223
vt 0.6451156 0.1943223
vt 0.5410843 0.1667888
vt 0.5616465 0.1667888
vt 0.5616465 0.1943223
vt 0.5410843 0.1943223
vt 0.5618906 0.4167888
vt 0.5824527 0.4167888
vt 0.5824527 0.4443223
vt 0.5618906 0.4443223
vt 0.6035031 0.4167888
vt 0.6240652 0.4167888
vt 0.6240652 0.4443223
vt 0.6035031 0.4443223
vt 0.6451156 0.139011
vt 0.6656777 0.139011
vt 0.6656777 0.1665446
vt 0.6451156 0.1665446
vt 0.7907593 0.0001220703
vt 0.8113214 0.0001220703
vt 0.8113214 0.02765572
vt 0.7907593 0.02765572
vt 0.5826969 0.4167888
vt 0.603259 0.4167888
vt 0.603259 0.4443223
vt 0.5826969 0.4443223
vt 0.5618906 0.389011
vt 0.5824527 0.389011
vt 0.5824527 0.4165446
vt 0.5618906 0.4165446
vt 0.6035031 0.389011
vt 0.6240652 0.389011
vt 0.6240652 0.4165446
vt 0.6035031 0.4165446
vt 0.7283405 0.2223443
vt 0.7489026 0.2223443
vt 0.7489026 0.2498779
vt 0.7283405 0.2498779
vt 0.5410843 0.4167888
vt 0.5616465 0.4167888
vt 0.5616465 0.4443223
vt 0.5410843 0.4443223
vt 0.5410843 0.389011
vt 0.5616465 0.389011
vt 0.5616465 0.4165446
vt 0.5410843 0.4165446
vt 0.5202781 0.1667888
vt 0.5408402 0.1667888
vt 0.5408402 0.1943223
vt 0.5202781 0.1943223
vt 0.4994719 0.1667888
vt 0.520034 0.1667888
vt 0.520034 0.1943223
vt 0.4994719 0.1943223

# Normal
vn 0 0 -1

# Mesh description
g Agao_mesh_0009

# Faces
f 1/1/1 2/2/1 3/3/1 4/4/1
f 5/5/1 6/6/1 7/7/1 8/8/1
f 9/9/1 10/10/1 11/11/1 12/12/1
f 13/13/1 14/14/1 15/15/1 16/16/1
f 17/17/1 18/18/1 19/19/1 20/20/1
f 21/21/1 22/22/1 23/23/1 24/24/1
f 25/25/1 26/26/1 27/27/1 28/28/1
f 29/29/1 30/30/1 31/31/1 32/32/1
f 33/33/1 34/34/1 35/35/1 36/36/1
f 37/37/1 38/38/1 39/39/1 40/40/1
f 41/1/1 42/2/1 43/3/1 44/4/1
f 45/41/1 46/42/1 47/43/1 48/44/1
f 49/45/1 50/46/1 51/47/1 52/48/1
f 53/17/1 54/18/1 55/19/1 56/20/1
f 57/49/1 58/50/1 59/51/1 60/52/1
f 61/49/1 62/50/1 63/51/1 64/52/1
f 65/53/1 66/54/1 67/55/1 68/56/1
f 69/57/1 70/58/1 71/59/1 72/60/1
f 73/57/1 74/58/1 75/59/1 76/60/1
f 77/61/1 78/62/1 79/63/1 80/64/1
f 81/65/1 82/66/1 83/67/1 84/68/1
f 85/69/1 86/70/1 87/71/1 88/72/1
f 89/29/1 90/30/1 91/31/1 92/32/1
f 93/73/1 94/74/1 95/75/1 96/76/1
f 97/29/1 98/30/1 99/31/1 100/32/1
f 101/77/1 102/78/1 103/79/1 104/80/1
f 105/13/1 106/14/1 107/15/1 108/16/1
f 109/13/1 110/14/1 111/15/1 112/16/1
f 113/81/1 114/82/1 115/83/1 116/84/1
f 117/85/1 118/86/1 119/87/1 120/88/1
f 121/77/1 122/78/1 123/79/1 124/80/1
f 125/89/1 126/90/1 127/91/1 128/92/1
f 129/93/1 130/94/1 131/95/1 132/96/1
f 133/85/1 134/86/1 135/87/1 136/88/1
f 137/93/1 138/94/1 139/95/1 140/96/1
f 141/97/1 142/98/1 143/99/1 144/100/1
f 145/85/1 146/86/1 147/87/1 148/88/1
f 149/101/1 150/102/1 151/103/1 152/104/1
f 153/105/1 154/106/1 155/107/1 156/108/1
f 157/29/1 158/30/1 159/31/1 160/32/1
f 161/109/1 162/110/1 163/111/1 164/112/1
f 165/113/1 166/114/1 167/115/1 168/116/1
f 169/117/1 170/118/1 171/119/1 172/120/1
f 173/49/1 174/50/1 175/51/1 176/52/1
f 177/121/1 178/122/1 179/123/1 180/124/1
f 181/125/1 182/126/1 183/127/1 184/128/1
f 185/101/1 186/102/1 187/103/1 188/104/1
f 189/129/1 190/130/1 191/131/1 192/132/1
f 193/133/1 194/134/1 195/135/1 196/136/1
f 197/57/1 198/58/1 199/59/1 200/60/1
f 201/121/1 202/122/1 203/123/1 204/124/1
f 205/85/1 206/86/1 207/87/1 208/88/1
f 209/137/1 210/138/1 211/139/1 212/140/1
f 213/81/1 214/82/1 215/83/1 216/84/1
f 217/73/1 218/74/1 219/75/1 220/76/1
f 221/81/1 222/82/1 223/83/1 224/84/1
f 225/141/1 226/142/1 227/143/1 228/144/1
f 229/13/1 230/14/1 231/15/1 232/16/1
f 233/145/1 234/146/1 235/147/1 236/148/1
f 237/13/1 238/14/1 239/15/1 240/16/1
f 241/13/1 242/14/1 243/15/1 244/16/1
f 245/109/1 246/110/1 247/111/1 248/112/1

