# Tiled2Unity generated file. Do not modify by hand.
# Wavefront file for 'Agao_mesh_0009.obj'

# Vertices (Count = 24)
v -656 -240 0
v -672 -240 0
v -672 -224 0
v -656 -224 0
v -656 -256 0
v -672 -256 0
v -672 -240 0
v -656 -240 0
v -32 -288 0
v -48 -288 0
v -48 -272 0
v -32 -272 0
v -32 -304 0
v -48 -304 0
v -48 -288 0
v -32 -288 0
v -144 -480 0
v -160 -480 0
v -160 -464 0
v -144 -464 0
v -144 -496 0
v -160 -496 0
v -160 -480 0
v -144 -480 0

# Texture cooridinates (Count = 16)
vt 0.5601221 0.3570961
vt 0.599878 0.3570961
vt 0.599878 0.394677
vt 0.5601221 0.394677
vt 0.5601221 0.319271
vt 0.599878 0.319271
vt 0.599878 0.3568519
vt 0.5601221 0.3568519
vt 0.7601221 0.962297
vt 0.7998779 0.962297
vt 0.7998779 0.9998779
vt 0.7601221 0.9998779
vt 0.7601221 0.924472
vt 0.7998779 0.924472
vt 0.7998779 0.9620529
vt 0.7601221 0.9620529

# Normal
vn 0 0 -1

# Mesh description
g Agao_mesh_0009

# Faces
f 1/1/1 2/2/1 3/3/1 4/4/1
f 5/5/1 6/6/1 7/7/1 8/8/1
f 9/1/1 10/2/1 11/3/1 12/4/1
f 13/5/1 14/6/1 15/7/1 16/8/1
f 17/9/1 18/10/1 19/11/1 20/12/1
f 21/13/1 22/14/1 23/15/1 24/16/1

