# Tiled2Unity generated file. Do not modify by hand.
# Wavefront file for 'CemeteryDT_mesh_0002.obj'

# Vertices (Count = 280)
v -21 -43 0
v -22 -43 0
v -22 -42 0
v -21 -42 0
v -20 -43 0
v -21 -43 0
v -21 -42 0
v -20 -42 0
v -19 -43 0
v -20 -43 0
v -20 -42 0
v -19 -42 0
v -18 -43 0
v -19 -43 0
v -19 -42 0
v -18 -42 0
v -17 -43 0
v -18 -43 0
v -18 -42 0
v -17 -42 0
v -16 -43 0
v -17 -43 0
v -17 -42 0
v -16 -42 0
v -11 -43 0
v -12 -43 0
v -12 -42 0
v -11 -42 0
v -22 -44 0
v -23 -44 0
v -23 -43 0
v -22 -43 0
v -21 -44 0
v -22 -44 0
v -22 -43 0
v -21 -43 0
v -20 -44 0
v -21 -44 0
v -21 -43 0
v -20 -43 0
v -19 -44 0
v -20 -44 0
v -20 -43 0
v -19 -43 0
v -18 -44 0
v -19 -44 0
v -19 -43 0
v -18 -43 0
v -17 -44 0
v -18 -44 0
v -18 -43 0
v -17 -43 0
v -16 -44 0
v -17 -44 0
v -17 -43 0
v -16 -43 0
v -15 -44 0
v -16 -44 0
v -16 -43 0
v -15 -43 0
v -12 -44 0
v -13 -44 0
v -13 -43 0
v -12 -43 0
v -11 -44 0
v -12 -44 0
v -12 -43 0
v -11 -43 0
v -32 -45 0
v -33 -45 0
v -33 -44 0
v -32 -44 0
v -23 -45 0
v -24 -45 0
v -24 -44 0
v -23 -44 0
v -22 -45 0
v -23 -45 0
v -23 -44 0
v -22 -44 0
v -21 -45 0
v -22 -45 0
v -22 -44 0
v -21 -44 0
v -20 -45 0
v -21 -45 0
v -21 -44 0
v -20 -44 0
v -19 -45 0
v -20 -45 0
v -20 -44 0
v -19 -44 0
v -18 -45 0
v -19 -45 0
v -19 -44 0
v -18 -44 0
v -17 -45 0
v -18 -45 0
v -18 -44 0
v -17 -44 0
v -16 -45 0
v -17 -45 0
v -17 -44 0
v -16 -44 0
v -15 -45 0
v -16 -45 0
v -16 -44 0
v -15 -44 0
v -14 -45 0
v -15 -45 0
v -15 -44 0
v -14 -44 0
v -13 -45 0
v -14 -45 0
v -14 -44 0
v -13 -44 0
v -12 -45 0
v -13 -45 0
v -13 -44 0
v -12 -44 0
v -11 -45 0
v -12 -45 0
v -12 -44 0
v -11 -44 0
v -33 -46 0
v -34 -46 0
v -34 -45 0
v -33 -45 0
v -32 -46 0
v -33 -46 0
v -33 -45 0
v -32 -45 0
v -31 -46 0
v -32 -46 0
v -32 -45 0
v -31 -45 0
v -30 -46 0
v -31 -46 0
v -31 -45 0
v -30 -45 0
v -29 -46 0
v -30 -46 0
v -30 -45 0
v -29 -45 0
v -28 -46 0
v -29 -46 0
v -29 -45 0
v -28 -45 0
v -27 -46 0
v -28 -46 0
v -28 -45 0
v -27 -45 0
v -26 -46 0
v -27 -46 0
v -27 -45 0
v -26 -45 0
v -25 -46 0
v -26 -46 0
v -26 -45 0
v -25 -45 0
v -24 -46 0
v -25 -46 0
v -25 -45 0
v -24 -45 0
v -23 -46 0
v -24 -46 0
v -24 -45 0
v -23 -45 0
v -22 -46 0
v -23 -46 0
v -23 -45 0
v -22 -45 0
v -15 -46 0
v -16 -46 0
v -16 -45 0
v -15 -45 0
v -14 -46 0
v -15 -46 0
v -15 -45 0
v -14 -45 0
v -13 -46 0
v -14 -46 0
v -14 -45 0
v -13 -45 0
v -12 -46 0
v -13 -46 0
v -13 -45 0
v -12 -45 0
v -33 -47 0
v -34 -47 0
v -34 -46 0
v -33 -46 0
v -32 -47 0
v -33 -47 0
v -33 -46 0
v -32 -46 0
v -31 -47 0
v -32 -47 0
v -32 -46 0
v -31 -46 0
v -30 -47 0
v -31 -47 0
v -31 -46 0
v -30 -46 0
v -29 -47 0
v -30 -47 0
v -30 -46 0
v -29 -46 0
v -28 -47 0
v -29 -47 0
v -29 -46 0
v -28 -46 0
v -27 -47 0
v -28 -47 0
v -28 -46 0
v -27 -46 0
v -26 -47 0
v -27 -47 0
v -27 -46 0
v -26 -46 0
v -25 -47 0
v -26 -47 0
v -26 -46 0
v -25 -46 0
v -24 -47 0
v -25 -47 0
v -25 -46 0
v -24 -46 0
v -23 -47 0
v -24 -47 0
v -24 -46 0
v -23 -46 0
v -15 -47 0
v -16 -47 0
v -16 -46 0
v -15 -46 0
v -14 -47 0
v -15 -47 0
v -15 -46 0
v -14 -46 0
v -13 -47 0
v -14 -47 0
v -14 -46 0
v -13 -46 0
v -32 -48 0
v -33 -48 0
v -33 -47 0
v -32 -47 0
v -31 -48 0
v -32 -48 0
v -32 -47 0
v -31 -47 0
v -30 -48 0
v -31 -48 0
v -31 -47 0
v -30 -47 0
v -29 -48 0
v -30 -48 0
v -30 -47 0
v -29 -47 0
v -28 -48 0
v -29 -48 0
v -29 -47 0
v -28 -47 0
v -27 -48 0
v -28 -48 0
v -28 -47 0
v -27 -47 0
v -26 -48 0
v -27 -48 0
v -27 -47 0
v -26 -47 0
v -25 -48 0
v -26 -48 0
v -26 -47 0
v -25 -47 0
v -24 -48 0
v -25 -48 0
v -25 -47 0
v -24 -47 0

# Texture cooridinates (Count = 44)
vt 0.1041533 0.6667887
vt 0.1247154 0.6667887
vt 0.1247154 0.6943223
vt 0.1041533 0.6943223
vt 0.08334704 0.6667887
vt 0.1039091 0.6667887
vt 0.1039091 0.6943223
vt 0.08334704 0.6943223
vt 0.1041533 0.5834554
vt 0.1247154 0.5834554
vt 0.1247154 0.610989
vt 0.1041533 0.610989
vt 0.08334704 0.5834554
vt 0.1039091 0.5834554
vt 0.1039091 0.610989
vt 0.08334704 0.610989
vt 0.1249595 0.6667887
vt 0.1455216 0.6667887
vt 0.1455216 0.6943223
vt 0.1249595 0.6943223
vt 0.1041533 0.5556777
vt 0.1247154 0.5556777
vt 0.1247154 0.5832113
vt 0.1041533 0.5832113
vt 0.08334704 0.5556777
vt 0.1039091 0.5556777
vt 0.1039091 0.5832113
vt 0.08334704 0.5832113
vt 0.1249595 0.5834554
vt 0.1455216 0.5834554
vt 0.1455216 0.610989
vt 0.1249595 0.610989
vt 0.1457658 0.5834554
vt 0.1663279 0.5834554
vt 0.1663279 0.610989
vt 0.1457658 0.610989
vt 0.1457658 0.5556777
vt 0.1663279 0.5556777
vt 0.1663279 0.5832113
vt 0.1457658 0.5832113
vt 0.1249595 0.5556777
vt 0.1455216 0.5556777
vt 0.1455216 0.5832113
vt 0.1249595 0.5832113

# Normal
vn 0 0 -1

# Mesh description
g CemeteryDT_mesh_0002

# Faces
f 1/1/1 2/2/1 3/3/1 4/4/1
f 5/1/1 6/2/1 7/3/1 8/4/1
f 9/1/1 10/2/1 11/3/1 12/4/1
f 13/1/1 14/2/1 15/3/1 16/4/1
f 17/1/1 18/2/1 19/3/1 20/4/1
f 21/1/1 22/2/1 23/3/1 24/4/1
f 25/5/1 26/6/1 27/7/1 28/8/1
f 29/5/1 30/6/1 31/7/1 32/8/1
f 33/9/1 34/10/1 35/11/1 36/12/1
f 37/9/1 38/10/1 39/11/1 40/12/1
f 41/9/1 42/10/1 43/11/1 44/12/1
f 45/9/1 46/10/1 47/11/1 48/12/1
f 49/9/1 50/10/1 51/11/1 52/12/1
f 53/13/1 54/14/1 55/15/1 56/16/1
f 57/17/1 58/18/1 59/19/1 60/20/1
f 61/5/1 62/6/1 63/7/1 64/8/1
f 65/13/1 66/14/1 67/15/1 68/16/1
f 69/17/1 70/18/1 71/19/1 72/20/1
f 73/5/1 74/6/1 75/7/1 76/8/1
f 77/13/1 78/14/1 79/15/1 80/16/1
f 81/21/1 82/22/1 83/23/1 84/24/1
f 85/21/1 86/22/1 87/23/1 88/24/1
f 89/21/1 90/22/1 91/23/1 92/24/1
f 93/21/1 94/22/1 95/23/1 96/24/1
f 97/21/1 98/22/1 99/23/1 100/24/1
f 101/25/1 102/26/1 103/27/1 104/28/1
f 105/29/1 106/30/1 107/31/1 108/32/1
f 109/17/1 110/18/1 111/19/1 112/20/1
f 113/5/1 114/6/1 115/7/1 116/8/1
f 117/13/1 118/14/1 119/15/1 120/16/1
f 121/25/1 122/26/1 123/27/1 124/28/1
f 125/33/1 126/34/1 127/35/1 128/36/1
f 129/29/1 130/30/1 131/31/1 132/32/1
f 133/17/1 134/18/1 135/19/1 136/20/1
f 137/1/1 138/2/1 139/3/1 140/4/1
f 141/1/1 142/2/1 143/3/1 144/4/1
f 145/1/1 146/2/1 147/3/1 148/4/1
f 149/1/1 150/2/1 151/3/1 152/4/1
f 153/1/1 154/2/1 155/3/1 156/4/1
f 157/1/1 158/2/1 159/3/1 160/4/1
f 161/5/1 162/6/1 163/7/1 164/8/1
f 165/13/1 166/14/1 167/15/1 168/16/1
f 169/25/1 170/26/1 171/27/1 172/28/1
f 173/33/1 174/34/1 175/35/1 176/36/1
f 177/29/1 178/30/1 179/31/1 180/32/1
f 181/13/1 182/14/1 183/15/1 184/16/1
f 185/25/1 186/26/1 187/27/1 188/28/1
f 189/37/1 190/38/1 191/39/1 192/40/1
f 193/33/1 194/34/1 195/35/1 196/36/1
f 197/29/1 198/30/1 199/31/1 200/32/1
f 201/9/1 202/10/1 203/11/1 204/12/1
f 205/9/1 206/10/1 207/11/1 208/12/1
f 209/9/1 210/10/1 211/11/1 212/12/1
f 213/9/1 214/10/1 215/11/1 216/12/1
f 217/9/1 218/10/1 219/11/1 220/12/1
f 221/9/1 222/10/1 223/11/1 224/12/1
f 225/13/1 226/14/1 227/15/1 228/16/1
f 229/25/1 230/26/1 231/27/1 232/28/1
f 233/37/1 234/38/1 235/39/1 236/40/1
f 237/41/1 238/42/1 239/43/1 240/44/1
f 241/21/1 242/22/1 243/23/1 244/24/1
f 245/37/1 246/38/1 247/39/1 248/40/1
f 249/41/1 250/42/1 251/43/1 252/44/1
f 253/21/1 254/22/1 255/23/1 256/24/1
f 257/21/1 258/22/1 259/23/1 260/24/1
f 261/21/1 262/22/1 263/23/1 264/24/1
f 265/21/1 266/22/1 267/23/1 268/24/1
f 269/21/1 270/22/1 271/23/1 272/24/1
f 273/21/1 274/22/1 275/23/1 276/24/1
f 277/25/1 278/26/1 279/27/1 280/28/1

