# Tiled2Unity generated file. Do not modify by hand.
# Wavefront file for 'MasaoUpper_mesh_0007.obj'

# Vertices (Count = 108)
v -36 -28 0
v -37 -28 0
v -37 -27 0
v -36 -27 0
v -35 -28 0
v -36 -28 0
v -36 -27 0
v -35 -27 0
v -34 -28 0
v -35 -28 0
v -35 -27 0
v -34 -27 0
v -33 -28 0
v -34 -28 0
v -34 -27 0
v -33 -27 0
v -32 -28 0
v -33 -28 0
v -33 -27 0
v -32 -27 0
v -31 -28 0
v -32 -28 0
v -32 -27 0
v -31 -27 0
v -8 -51 0
v -9 -51 0
v -9 -50 0
v -8 -50 0
v -7 -51 0
v -8 -51 0
v -8 -50 0
v -7 -50 0
v -6 -51 0
v -7 -51 0
v -7 -50 0
v -6 -50 0
v -5 -51 0
v -6 -51 0
v -6 -50 0
v -5 -50 0
v -4 -51 0
v -5 -51 0
v -5 -50 0
v -4 -50 0
v -3 -51 0
v -4 -51 0
v -4 -50 0
v -3 -50 0
v -2 -51 0
v -3 -51 0
v -3 -50 0
v -2 -50 0
v -17 -55 0
v -18 -55 0
v -18 -54 0
v -17 -54 0
v -16 -55 0
v -17 -55 0
v -17 -54 0
v -16 -54 0
v -15 -55 0
v -16 -55 0
v -16 -54 0
v -15 -54 0
v -14 -55 0
v -15 -55 0
v -15 -54 0
v -14 -54 0
v -13 -55 0
v -14 -55 0
v -14 -54 0
v -13 -54 0
v -12 -55 0
v -13 -55 0
v -13 -54 0
v -12 -54 0
v -11 -55 0
v -12 -55 0
v -12 -54 0
v -11 -54 0
v -33 -56 0
v -34 -56 0
v -34 -55 0
v -33 -55 0
v -32 -56 0
v -33 -56 0
v -33 -55 0
v -32 -55 0
v -31 -56 0
v -32 -56 0
v -32 -55 0
v -31 -55 0
v -30 -56 0
v -31 -56 0
v -31 -55 0
v -30 -55 0
v -29 -56 0
v -30 -56 0
v -30 -55 0
v -29 -55 0
v -28 -56 0
v -29 -56 0
v -29 -55 0
v -28 -55 0
v -27 -56 0
v -28 -56 0
v -28 -55 0
v -27 -55 0

# Texture cooridinates (Count = 80)
vt 0.3966738 0.26328
vt 0.413671 0.26328
vt 0.413671 0.2893516
vt 0.3966738 0.2893516
vt 0.3794324 0.26328
vt 0.3964297 0.26328
vt 0.3964297 0.2893516
vt 0.3794324 0.2893516
vt 0.362191 0.26328
vt 0.3791883 0.26328
vt 0.3791883 0.2893516
vt 0.362191 0.2893516
vt 0.3449497 0.26328
vt 0.3619469 0.26328
vt 0.3619469 0.2893516
vt 0.3449497 0.2893516
vt 0.3277083 0.26328
vt 0.3447055 0.26328
vt 0.3447055 0.2893516
vt 0.3277083 0.2893516
vt 0.3104669 0.26328
vt 0.3274641 0.26328
vt 0.3274641 0.2893516
vt 0.3104669 0.2893516
vt 0.3966738 0.131701
vt 0.413671 0.131701
vt 0.413671 0.1577727
vt 0.3966738 0.1577727
vt 0.3794324 0.131701
vt 0.3964297 0.131701
vt 0.3964297 0.1577727
vt 0.3794324 0.1577727
vt 0.362191 0.131701
vt 0.3791883 0.131701
vt 0.3791883 0.1577727
vt 0.362191 0.1577727
vt 0.3449497 0.131701
vt 0.3619469 0.131701
vt 0.3619469 0.1577727
vt 0.3449497 0.1577727
vt 0.3277083 0.131701
vt 0.3447055 0.131701
vt 0.3447055 0.1577727
vt 0.3277083 0.1577727
vt 0.3104669 0.131701
vt 0.3274641 0.131701
vt 0.3274641 0.1577727
vt 0.3104669 0.1577727
vt 0.2932255 0.131701
vt 0.3102227 0.131701
vt 0.3102227 0.1577727
vt 0.2932255 0.1577727
vt 0.6380531 0.8159115
vt 0.6550503 0.8159115
vt 0.6550503 0.8419832
vt 0.6380531 0.8419832
vt 0.6208117 0.8159115
vt 0.637809 0.8159115
vt 0.637809 0.8419832
vt 0.6208117 0.8419832
vt 0.6035703 0.8159115
vt 0.6205676 0.8159115
vt 0.6205676 0.8419832
vt 0.6035703 0.8419832
vt 0.586329 0.8159115
vt 0.6033262 0.8159115
vt 0.6033262 0.8419832
vt 0.586329 0.8419832
vt 0.5690876 0.8159115
vt 0.5860848 0.8159115
vt 0.5860848 0.8419832
vt 0.5690876 0.8419832
vt 0.5518462 0.8159115
vt 0.5688434 0.8159115
vt 0.5688434 0.8419832
vt 0.5518462 0.8419832
vt 0.5346048 0.8159115
vt 0.5516021 0.8159115
vt 0.5516021 0.8419832
vt 0.5346048 0.8419832

# Normal
vn 0 0 -1

# Mesh description
g MasaoUpper_mesh_0007

# Faces
f 1/1/1 2/2/1 3/3/1 4/4/1
f 5/5/1 6/6/1 7/7/1 8/8/1
f 9/9/1 10/10/1 11/11/1 12/12/1
f 13/13/1 14/14/1 15/15/1 16/16/1
f 17/17/1 18/18/1 19/19/1 20/20/1
f 21/21/1 22/22/1 23/23/1 24/24/1
f 25/25/1 26/26/1 27/27/1 28/28/1
f 29/29/1 30/30/1 31/31/1 32/32/1
f 33/33/1 34/34/1 35/35/1 36/36/1
f 37/37/1 38/38/1 39/39/1 40/40/1
f 41/41/1 42/42/1 43/43/1 44/44/1
f 45/45/1 46/46/1 47/47/1 48/48/1
f 49/49/1 50/50/1 51/51/1 52/52/1
f 53/53/1 54/54/1 55/55/1 56/56/1
f 57/57/1 58/58/1 59/59/1 60/60/1
f 61/61/1 62/62/1 63/63/1 64/64/1
f 65/65/1 66/66/1 67/67/1 68/68/1
f 69/69/1 70/70/1 71/71/1 72/72/1
f 73/73/1 74/74/1 75/75/1 76/76/1
f 77/77/1 78/78/1 79/79/1 80/80/1
f 81/53/1 82/54/1 83/55/1 84/56/1
f 85/57/1 86/58/1 87/59/1 88/60/1
f 89/61/1 90/62/1 91/63/1 92/64/1
f 93/65/1 94/66/1 95/67/1 96/68/1
f 97/69/1 98/70/1 99/71/1 100/72/1
f 101/73/1 102/74/1 103/75/1 104/76/1
f 105/77/1 106/78/1 107/79/1 108/80/1

