# Tiled2Unity generated file. Do not modify by hand.
# Wavefront file for 'St.JosephChapel_mesh_0003.obj'

# Vertices (Count = 244)
v -18 -8 0
v -19 -8 0
v -19 -7 0
v -18 -7 0
v -17 -8 0
v -18 -8 0
v -18 -7 0
v -17 -7 0
v -16 -8 0
v -17 -8 0
v -17 -7 0
v -16 -7 0
v -15 -8 0
v -16 -8 0
v -16 -7 0
v -15 -7 0
v -14 -8 0
v -15 -8 0
v -15 -7 0
v -14 -7 0
v -13 -8 0
v -14 -8 0
v -14 -7 0
v -13 -7 0
v -12 -8 0
v -13 -8 0
v -13 -7 0
v -12 -7 0
v -11 -8 0
v -12 -8 0
v -12 -7 0
v -11 -7 0
v -10 -8 0
v -11 -8 0
v -11 -7 0
v -10 -7 0
v -18 -9 0
v -19 -9 0
v -19 -8 0
v -18 -8 0
v -17 -9 0
v -18 -9 0
v -18 -8 0
v -17 -8 0
v -16 -9 0
v -17 -9 0
v -17 -8 0
v -16 -8 0
v -15 -9 0
v -16 -9 0
v -16 -8 0
v -15 -8 0
v -14 -9 0
v -15 -9 0
v -15 -8 0
v -14 -8 0
v -13 -9 0
v -14 -9 0
v -14 -8 0
v -13 -8 0
v -12 -9 0
v -13 -9 0
v -13 -8 0
v -12 -8 0
v -11 -9 0
v -12 -9 0
v -12 -8 0
v -11 -8 0
v -10 -9 0
v -11 -9 0
v -11 -8 0
v -10 -8 0
v -18 -10 0
v -19 -10 0
v -19 -9 0
v -18 -9 0
v -17 -10 0
v -18 -10 0
v -18 -9 0
v -17 -9 0
v -16 -10 0
v -17 -10 0
v -17 -9 0
v -16 -9 0
v -15 -10 0
v -16 -10 0
v -16 -9 0
v -15 -9 0
v -14 -10 0
v -15 -10 0
v -15 -9 0
v -14 -9 0
v -13 -10 0
v -14 -10 0
v -14 -9 0
v -13 -9 0
v -12 -10 0
v -13 -10 0
v -13 -9 0
v -12 -9 0
v -11 -10 0
v -12 -10 0
v -12 -9 0
v -11 -9 0
v -10 -10 0
v -11 -10 0
v -11 -9 0
v -10 -9 0
v -18 -11 0
v -19 -11 0
v -19 -10 0
v -18 -10 0
v -17 -11 0
v -18 -11 0
v -18 -10 0
v -17 -10 0
v -16 -11 0
v -17 -11 0
v -17 -10 0
v -16 -10 0
v -15 -11 0
v -16 -11 0
v -16 -10 0
v -15 -10 0
v -14 -11 0
v -15 -11 0
v -15 -10 0
v -14 -10 0
v -13 -11 0
v -14 -11 0
v -14 -10 0
v -13 -10 0
v -12 -11 0
v -13 -11 0
v -13 -10 0
v -12 -10 0
v -11 -11 0
v -12 -11 0
v -12 -10 0
v -11 -10 0
v -10 -11 0
v -11 -11 0
v -11 -10 0
v -10 -10 0
v -5 -27 0
v -6 -27 0
v -6 -26 0
v -5 -26 0
v -4 -27 0
v -5 -27 0
v -5 -26 0
v -4 -26 0
v -3 -27 0
v -4 -27 0
v -4 -26 0
v -3 -26 0
v -2 -27 0
v -3 -27 0
v -3 -26 0
v -2 -26 0
v -1 -27 0
v -2 -27 0
v -2 -26 0
v -1 -26 0
v -5 -28 0
v -6 -28 0
v -6 -27 0
v -5 -27 0
v -4 -28 0
v -5 -28 0
v -5 -27 0
v -4 -27 0
v -3 -28 0
v -4 -28 0
v -4 -27 0
v -3 -27 0
v -2 -28 0
v -3 -28 0
v -3 -27 0
v -2 -27 0
v -1 -28 0
v -2 -28 0
v -2 -27 0
v -1 -27 0
v -5 -29 0
v -6 -29 0
v -6 -28 0
v -5 -28 0
v -4 -29 0
v -5 -29 0
v -5 -28 0
v -4 -28 0
v -3 -29 0
v -4 -29 0
v -4 -28 0
v -3 -28 0
v -2 -29 0
v -3 -29 0
v -3 -28 0
v -2 -28 0
v -1 -29 0
v -2 -29 0
v -2 -28 0
v -1 -28 0
v -5 -30 0
v -6 -30 0
v -6 -29 0
v -5 -29 0
v -4 -30 0
v -5 -30 0
v -5 -29 0
v -4 -29 0
v -3 -30 0
v -4 -30 0
v -4 -29 0
v -3 -29 0
v -2 -30 0
v -3 -30 0
v -3 -29 0
v -2 -29 0
v -1 -30 0
v -2 -30 0
v -2 -29 0
v -1 -29 0
v -5 -31 0
v -6 -31 0
v -6 -30 0
v -5 -30 0
v -4 -31 0
v -5 -31 0
v -5 -30 0
v -4 -30 0
v -3 -31 0
v -4 -31 0
v -4 -30 0
v -3 -30 0
v -2 -31 0
v -3 -31 0
v -3 -30 0
v -2 -30 0
v -1 -31 0
v -2 -31 0
v -2 -30 0
v -1 -30 0

# Texture cooridinates (Count = 244)
vt 0.3104669 0.6843326
vt 0.3274641 0.6843326
vt 0.3274641 0.7104043
vt 0.3104669 0.7104043
vt 0.2932255 0.6843326
vt 0.3102227 0.6843326
vt 0.3102227 0.7104043
vt 0.2932255 0.7104043
vt 0.2759841 0.6843326
vt 0.2929814 0.6843326
vt 0.2929814 0.7104043
vt 0.2759841 0.7104043
vt 0.2587427 0.6843326
vt 0.27574 0.6843326
vt 0.27574 0.7104043
vt 0.2587427 0.7104043
vt 0.2415014 0.6843326
vt 0.2584986 0.6843326
vt 0.2584986 0.7104043
vt 0.2415014 0.7104043
vt 0.22426 0.6843326
vt 0.2412572 0.6843326
vt 0.2412572 0.7104043
vt 0.22426 0.7104043
vt 0.2070186 0.6843326
vt 0.2240159 0.6843326
vt 0.2240159 0.7104043
vt 0.2070186 0.7104043
vt 0.1897772 0.6843326
vt 0.2067745 0.6843326
vt 0.2067745 0.7104043
vt 0.1897772 0.7104043
vt 0.1725359 0.6843326
vt 0.1895331 0.6843326
vt 0.1895331 0.7104043
vt 0.1725359 0.7104043
vt 0.3104669 0.6580168
vt 0.3274641 0.6580168
vt 0.3274641 0.6840885
vt 0.3104669 0.6840885
vt 0.2932255 0.6580168
vt 0.3102227 0.6580168
vt 0.3102227 0.6840885
vt 0.2932255 0.6840885
vt 0.2759841 0.6580168
vt 0.2929814 0.6580168
vt 0.2929814 0.6840885
vt 0.2759841 0.6840885
vt 0.2587427 0.6580168
vt 0.27574 0.6580168
vt 0.27574 0.6840885
vt 0.2587427 0.6840885
vt 0.2415014 0.6580168
vt 0.2584986 0.6580168
vt 0.2584986 0.6840885
vt 0.2415014 0.6840885
vt 0.22426 0.6580168
vt 0.2412572 0.6580168
vt 0.2412572 0.6840885
vt 0.22426 0.6840885
vt 0.2070186 0.6580168
vt 0.2240159 0.6580168
vt 0.2240159 0.6840885
vt 0.2070186 0.6840885
vt 0.1897772 0.6580168
vt 0.2067745 0.6580168
vt 0.2067745 0.6840885
vt 0.1897772 0.6840885
vt 0.1725359 0.6580168
vt 0.1895331 0.6580168
vt 0.1895331 0.6840885
vt 0.1725359 0.6840885
vt 0.3104669 0.631701
vt 0.3274641 0.631701
vt 0.3274641 0.6577727
vt 0.3104669 0.6577727
vt 0.2932255 0.631701
vt 0.3102227 0.631701
vt 0.3102227 0.6577727
vt 0.2932255 0.6577727
vt 0.2759841 0.631701
vt 0.2929814 0.631701
vt 0.2929814 0.6577727
vt 0.2759841 0.6577727
vt 0.2587427 0.631701
vt 0.27574 0.631701
vt 0.27574 0.6577727
vt 0.2587427 0.6577727
vt 0.2415014 0.631701
vt 0.2584986 0.631701
vt 0.2584986 0.6577727
vt 0.2415014 0.6577727
vt 0.22426 0.631701
vt 0.2412572 0.631701
vt 0.2412572 0.6577727
vt 0.22426 0.6577727
vt 0.2070186 0.631701
vt 0.2240159 0.631701
vt 0.2240159 0.6577727
vt 0.2070186 0.6577727
vt 0.1897772 0.631701
vt 0.2067745 0.631701
vt 0.2067745 0.6577727
vt 0.1897772 0.6577727
vt 0.1725359 0.631701
vt 0.1895331 0.631701
vt 0.1895331 0.6577727
vt 0.1725359 0.6577727
vt 0.3104669 0.6053852
vt 0.3274641 0.6053852
vt 0.3274641 0.6314569
vt 0.3104669 0.6314569
vt 0.2932255 0.6053852
vt 0.3102227 0.6053852
vt 0.3102227 0.6314569
vt 0.2932255 0.6314569
vt 0.2759841 0.6053852
vt 0.2929814 0.6053852
vt 0.2929814 0.6314569
vt 0.2759841 0.6314569
vt 0.2587427 0.6053852
vt 0.27574 0.6053852
vt 0.27574 0.6314569
vt 0.2587427 0.6314569
vt 0.2415014 0.6053852
vt 0.2584986 0.6053852
vt 0.2584986 0.6314569
vt 0.2415014 0.6314569
vt 0.22426 0.6053852
vt 0.2412572 0.6053852
vt 0.2412572 0.6314569
vt 0.22426 0.6314569
vt 0.2070186 0.6053852
vt 0.2240159 0.6053852
vt 0.2240159 0.6314569
vt 0.2070186 0.6314569
vt 0.1897772 0.6053852
vt 0.2067745 0.6053852
vt 0.2067745 0.6314569
vt 0.1897772 0.6314569
vt 0.1725359 0.6053852
vt 0.1895331 0.6053852
vt 0.1895331 0.6314569
vt 0.1725359 0.6314569
vt 0.3966738 0.8422273
vt 0.413671 0.8422273
vt 0.413671 0.868299
vt 0.3966738 0.868299
vt 0.3794324 0.8422273
vt 0.3964297 0.8422273
vt 0.3964297 0.868299
vt 0.3794324 0.868299
vt 0.362191 0.8422273
vt 0.3791883 0.8422273
vt 0.3791883 0.868299
vt 0.362191 0.868299
vt 0.3449497 0.8422273
vt 0.3619469 0.8422273
vt 0.3619469 0.868299
vt 0.3449497 0.868299
vt 0.3277083 0.8422273
vt 0.3447055 0.8422273
vt 0.3447055 0.868299
vt 0.3277083 0.868299
vt 0.3966738 0.8159115
vt 0.413671 0.8159115
vt 0.413671 0.8419832
vt 0.3966738 0.8419832
vt 0.3794324 0.8159115
vt 0.3964297 0.8159115
vt 0.3964297 0.8419832
vt 0.3794324 0.8419832
vt 0.362191 0.8159115
vt 0.3791883 0.8159115
vt 0.3791883 0.8419832
vt 0.362191 0.8419832
vt 0.3449497 0.8159115
vt 0.3619469 0.8159115
vt 0.3619469 0.8419832
vt 0.3449497 0.8419832
vt 0.3277083 0.8159115
vt 0.3447055 0.8159115
vt 0.3447055 0.8419832
vt 0.3277083 0.8419832
vt 0.3966738 0.7895957
vt 0.413671 0.7895957
vt 0.413671 0.8156674
vt 0.3966738 0.8156674
vt 0.3794324 0.7895957
vt 0.3964297 0.7895957
vt 0.3964297 0.8156674
vt 0.3794324 0.8156674
vt 0.362191 0.7895957
vt 0.3791883 0.7895957
vt 0.3791883 0.8156674
vt 0.362191 0.8156674
vt 0.3449497 0.7895957
vt 0.3619469 0.7895957
vt 0.3619469 0.8156674
vt 0.3449497 0.8156674
vt 0.3277083 0.7895957
vt 0.3447055 0.7895957
vt 0.3447055 0.8156674
vt 0.3277083 0.8156674
vt 0.3966738 0.76328
vt 0.413671 0.76328
vt 0.413671 0.7893516
vt 0.3966738 0.7893516
vt 0.3794324 0.76328
vt 0.3964297 0.76328
vt 0.3964297 0.7893516
vt 0.3794324 0.7893516
vt 0.362191 0.76328
vt 0.3791883 0.76328
vt 0.3791883 0.7893516
vt 0.362191 0.7893516
vt 0.3449497 0.76328
vt 0.3619469 0.76328
vt 0.3619469 0.7893516
vt 0.3449497 0.7893516
vt 0.3277083 0.76328
vt 0.3447055 0.76328
vt 0.3447055 0.7893516
vt 0.3277083 0.7893516
vt 0.3966738 0.7369642
vt 0.413671 0.7369642
vt 0.413671 0.7630358
vt 0.3966738 0.7630358
vt 0.3794324 0.7369642
vt 0.3964297 0.7369642
vt 0.3964297 0.7630358
vt 0.3794324 0.7630358
vt 0.362191 0.7369642
vt 0.3791883 0.7369642
vt 0.3791883 0.7630358
vt 0.362191 0.7630358
vt 0.3449497 0.7369642
vt 0.3619469 0.7369642
vt 0.3619469 0.7630358
vt 0.3449497 0.7630358
vt 0.3277083 0.7369642
vt 0.3447055 0.7369642
vt 0.3447055 0.7630358
vt 0.3277083 0.7630358

# Normal
vn 0 0 -1

# Mesh description
g St.JosephChapel_mesh_0003

# Faces
f 1/1/1 2/2/1 3/3/1 4/4/1
f 5/5/1 6/6/1 7/7/1 8/8/1
f 9/9/1 10/10/1 11/11/1 12/12/1
f 13/13/1 14/14/1 15/15/1 16/16/1
f 17/17/1 18/18/1 19/19/1 20/20/1
f 21/21/1 22/22/1 23/23/1 24/24/1
f 25/25/1 26/26/1 27/27/1 28/28/1
f 29/29/1 30/30/1 31/31/1 32/32/1
f 33/33/1 34/34/1 35/35/1 36/36/1
f 37/37/1 38/38/1 39/39/1 40/40/1
f 41/41/1 42/42/1 43/43/1 44/44/1
f 45/45/1 46/46/1 47/47/1 48/48/1
f 49/49/1 50/50/1 51/51/1 52/52/1
f 53/53/1 54/54/1 55/55/1 56/56/1
f 57/57/1 58/58/1 59/59/1 60/60/1
f 61/61/1 62/62/1 63/63/1 64/64/1
f 65/65/1 66/66/1 67/67/1 68/68/1
f 69/69/1 70/70/1 71/71/1 72/72/1
f 73/73/1 74/74/1 75/75/1 76/76/1
f 77/77/1 78/78/1 79/79/1 80/80/1
f 81/81/1 82/82/1 83/83/1 84/84/1
f 85/85/1 86/86/1 87/87/1 88/88/1
f 89/89/1 90/90/1 91/91/1 92/92/1
f 93/93/1 94/94/1 95/95/1 96/96/1
f 97/97/1 98/98/1 99/99/1 100/100/1
f 101/101/1 102/102/1 103/103/1 104/104/1
f 105/105/1 106/106/1 107/107/1 108/108/1
f 109/109/1 110/110/1 111/111/1 112/112/1
f 113/113/1 114/114/1 115/115/1 116/116/1
f 117/117/1 118/118/1 119/119/1 120/120/1
f 121/121/1 122/122/1 123/123/1 124/124/1
f 125/125/1 126/126/1 127/127/1 128/128/1
f 129/129/1 130/130/1 131/131/1 132/132/1
f 133/133/1 134/134/1 135/135/1 136/136/1
f 137/137/1 138/138/1 139/139/1 140/140/1
f 141/141/1 142/142/1 143/143/1 144/144/1
f 145/145/1 146/146/1 147/147/1 148/148/1
f 149/149/1 150/150/1 151/151/1 152/152/1
f 153/153/1 154/154/1 155/155/1 156/156/1
f 157/157/1 158/158/1 159/159/1 160/160/1
f 161/161/1 162/162/1 163/163/1 164/164/1
f 165/165/1 166/166/1 167/167/1 168/168/1
f 169/169/1 170/170/1 171/171/1 172/172/1
f 173/173/1 174/174/1 175/175/1 176/176/1
f 177/177/1 178/178/1 179/179/1 180/180/1
f 181/181/1 182/182/1 183/183/1 184/184/1
f 185/185/1 186/186/1 187/187/1 188/188/1
f 189/189/1 190/190/1 191/191/1 192/192/1
f 193/193/1 194/194/1 195/195/1 196/196/1
f 197/197/1 198/198/1 199/199/1 200/200/1
f 201/201/1 202/202/1 203/203/1 204/204/1
f 205/205/1 206/206/1 207/207/1 208/208/1
f 209/209/1 210/210/1 211/211/1 212/212/1
f 213/213/1 214/214/1 215/215/1 216/216/1
f 217/217/1 218/218/1 219/219/1 220/220/1
f 221/221/1 222/222/1 223/223/1 224/224/1
f 225/225/1 226/226/1 227/227/1 228/228/1
f 229/229/1 230/230/1 231/231/1 232/232/1
f 233/233/1 234/234/1 235/235/1 236/236/1
f 237/237/1 238/238/1 239/239/1 240/240/1
f 241/241/1 242/242/1 243/243/1 244/244/1

