# Tiled2Unity generated file. Do not modify by hand.
# Wavefront file for 'AtbangJobeeDT_mesh_0005.obj'

# Vertices (Count = 436)
v -18 -3 0
v -19 -3 0
v -19 -2 0
v -18 -2 0
v -17 -3 0
v -18 -3 0
v -18 -2 0
v -17 -2 0
v -16 -3 0
v -17 -3 0
v -17 -2 0
v -16 -2 0
v -15 -3 0
v -16 -3 0
v -16 -2 0
v -15 -2 0
v -14 -3 0
v -15 -3 0
v -15 -2 0
v -14 -2 0
v -13 -3 0
v -14 -3 0
v -14 -2 0
v -13 -2 0
v -12 -3 0
v -13 -3 0
v -13 -2 0
v -12 -2 0
v -18 -4 0
v -19 -4 0
v -19 -3 0
v -18 -3 0
v -17 -4 0
v -18 -4 0
v -18 -3 0
v -17 -3 0
v -16 -4 0
v -17 -4 0
v -17 -3 0
v -16 -3 0
v -15 -4 0
v -16 -4 0
v -16 -3 0
v -15 -3 0
v -14 -4 0
v -15 -4 0
v -15 -3 0
v -14 -3 0
v -13 -4 0
v -14 -4 0
v -14 -3 0
v -13 -3 0
v -12 -4 0
v -13 -4 0
v -13 -3 0
v -12 -3 0
v -18 -5 0
v -19 -5 0
v -19 -4 0
v -18 -4 0
v -17 -5 0
v -18 -5 0
v -18 -4 0
v -17 -4 0
v -16 -5 0
v -17 -5 0
v -17 -4 0
v -16 -4 0
v -15 -5 0
v -16 -5 0
v -16 -4 0
v -15 -4 0
v -14 -5 0
v -15 -5 0
v -15 -4 0
v -14 -4 0
v -13 -5 0
v -14 -5 0
v -14 -4 0
v -13 -4 0
v -12 -5 0
v -13 -5 0
v -13 -4 0
v -12 -4 0
v -18 -6 0
v -19 -6 0
v -19 -5 0
v -18 -5 0
v -17 -6 0
v -18 -6 0
v -18 -5 0
v -17 -5 0
v -16 -6 0
v -17 -6 0
v -17 -5 0
v -16 -5 0
v -15 -6 0
v -16 -6 0
v -16 -5 0
v -15 -5 0
v -14 -6 0
v -15 -6 0
v -15 -5 0
v -14 -5 0
v -13 -6 0
v -14 -6 0
v -14 -5 0
v -13 -5 0
v -12 -6 0
v -13 -6 0
v -13 -5 0
v -12 -5 0
v -27 -15 0
v -28 -15 0
v -28 -14 0
v -27 -14 0
v -26 -15 0
v -27 -15 0
v -27 -14 0
v -26 -14 0
v -25 -15 0
v -26 -15 0
v -26 -14 0
v -25 -14 0
v -24 -15 0
v -25 -15 0
v -25 -14 0
v -24 -14 0
v -23 -15 0
v -24 -15 0
v -24 -14 0
v -23 -14 0
v -22 -15 0
v -23 -15 0
v -23 -14 0
v -22 -14 0
v -21 -15 0
v -22 -15 0
v -22 -14 0
v -21 -14 0
v -27 -16 0
v -28 -16 0
v -28 -15 0
v -27 -15 0
v -26 -16 0
v -27 -16 0
v -27 -15 0
v -26 -15 0
v -25 -16 0
v -26 -16 0
v -26 -15 0
v -25 -15 0
v -24 -16 0
v -25 -16 0
v -25 -15 0
v -24 -15 0
v -23 -16 0
v -24 -16 0
v -24 -15 0
v -23 -15 0
v -22 -16 0
v -23 -16 0
v -23 -15 0
v -22 -15 0
v -21 -16 0
v -22 -16 0
v -22 -15 0
v -21 -15 0
v -27 -17 0
v -28 -17 0
v -28 -16 0
v -27 -16 0
v -26 -17 0
v -27 -17 0
v -27 -16 0
v -26 -16 0
v -25 -17 0
v -26 -17 0
v -26 -16 0
v -25 -16 0
v -24 -17 0
v -25 -17 0
v -25 -16 0
v -24 -16 0
v -23 -17 0
v -24 -17 0
v -24 -16 0
v -23 -16 0
v -22 -17 0
v -23 -17 0
v -23 -16 0
v -22 -16 0
v -21 -17 0
v -22 -17 0
v -22 -16 0
v -21 -16 0
v -27 -18 0
v -28 -18 0
v -28 -17 0
v -27 -17 0
v -26 -18 0
v -27 -18 0
v -27 -17 0
v -26 -17 0
v -25 -18 0
v -26 -18 0
v -26 -17 0
v -25 -17 0
v -24 -18 0
v -25 -18 0
v -25 -17 0
v -24 -17 0
v -23 -18 0
v -24 -18 0
v -24 -17 0
v -23 -17 0
v -22 -18 0
v -23 -18 0
v -23 -17 0
v -22 -17 0
v -21 -18 0
v -22 -18 0
v -22 -17 0
v -21 -17 0
v -41 -32 0
v -42 -32 0
v -42 -31 0
v -41 -31 0
v -40 -32 0
v -41 -32 0
v -41 -31 0
v -40 -31 0
v -39 -32 0
v -40 -32 0
v -40 -31 0
v -39 -31 0
v -38 -32 0
v -39 -32 0
v -39 -31 0
v -38 -31 0
v -37 -32 0
v -38 -32 0
v -38 -31 0
v -37 -31 0
v -16 -32 0
v -17 -32 0
v -17 -31 0
v -16 -31 0
v -15 -32 0
v -16 -32 0
v -16 -31 0
v -15 -31 0
v -14 -32 0
v -15 -32 0
v -15 -31 0
v -14 -31 0
v -13 -32 0
v -14 -32 0
v -14 -31 0
v -13 -31 0
v -12 -32 0
v -13 -32 0
v -13 -31 0
v -12 -31 0
v -11 -32 0
v -12 -32 0
v -12 -31 0
v -11 -31 0
v -10 -32 0
v -11 -32 0
v -11 -31 0
v -10 -31 0
v -41 -33 0
v -42 -33 0
v -42 -32 0
v -41 -32 0
v -40 -33 0
v -41 -33 0
v -41 -32 0
v -40 -32 0
v -39 -33 0
v -40 -33 0
v -40 -32 0
v -39 -32 0
v -38 -33 0
v -39 -33 0
v -39 -32 0
v -38 -32 0
v -37 -33 0
v -38 -33 0
v -38 -32 0
v -37 -32 0
v -16 -33 0
v -17 -33 0
v -17 -32 0
v -16 -32 0
v -15 -33 0
v -16 -33 0
v -16 -32 0
v -15 -32 0
v -14 -33 0
v -15 -33 0
v -15 -32 0
v -14 -32 0
v -13 -33 0
v -14 -33 0
v -14 -32 0
v -13 -32 0
v -12 -33 0
v -13 -33 0
v -13 -32 0
v -12 -32 0
v -11 -33 0
v -12 -33 0
v -12 -32 0
v -11 -32 0
v -10 -33 0
v -11 -33 0
v -11 -32 0
v -10 -32 0
v -41 -34 0
v -42 -34 0
v -42 -33 0
v -41 -33 0
v -40 -34 0
v -41 -34 0
v -41 -33 0
v -40 -33 0
v -39 -34 0
v -40 -34 0
v -40 -33 0
v -39 -33 0
v -38 -34 0
v -39 -34 0
v -39 -33 0
v -38 -33 0
v -37 -34 0
v -38 -34 0
v -38 -33 0
v -37 -33 0
v -16 -34 0
v -17 -34 0
v -17 -33 0
v -16 -33 0
v -15 -34 0
v -16 -34 0
v -16 -33 0
v -15 -33 0
v -14 -34 0
v -15 -34 0
v -15 -33 0
v -14 -33 0
v -13 -34 0
v -14 -34 0
v -14 -33 0
v -13 -33 0
v -12 -34 0
v -13 -34 0
v -13 -33 0
v -12 -33 0
v -11 -34 0
v -12 -34 0
v -12 -33 0
v -11 -33 0
v -10 -34 0
v -11 -34 0
v -11 -33 0
v -10 -33 0
v -41 -35 0
v -42 -35 0
v -42 -34 0
v -41 -34 0
v -40 -35 0
v -41 -35 0
v -41 -34 0
v -40 -34 0
v -39 -35 0
v -40 -35 0
v -40 -34 0
v -39 -34 0
v -38 -35 0
v -39 -35 0
v -39 -34 0
v -38 -34 0
v -37 -35 0
v -38 -35 0
v -38 -34 0
v -37 -34 0
v -16 -35 0
v -17 -35 0
v -17 -34 0
v -16 -34 0
v -15 -35 0
v -16 -35 0
v -16 -34 0
v -15 -34 0
v -14 -35 0
v -15 -35 0
v -15 -34 0
v -14 -34 0
v -13 -35 0
v -14 -35 0
v -14 -34 0
v -13 -34 0
v -12 -35 0
v -13 -35 0
v -13 -34 0
v -12 -34 0
v -11 -35 0
v -12 -35 0
v -12 -34 0
v -11 -34 0
v -10 -35 0
v -11 -35 0
v -11 -34 0
v -10 -34 0
v -41 -36 0
v -42 -36 0
v -42 -35 0
v -41 -35 0
v -40 -36 0
v -41 -36 0
v -41 -35 0
v -40 -35 0
v -39 -36 0
v -40 -36 0
v -40 -35 0
v -39 -35 0
v -38 -36 0
v -39 -36 0
v -39 -35 0
v -38 -35 0
v -37 -36 0
v -38 -36 0
v -38 -35 0
v -37 -35 0

# Texture cooridinates (Count = 324)
vt 0.2727525 0.2369642
vt 0.2895478 0.2369642
vt 0.2895478 0.2630358
vt 0.2727525 0.2630358
vt 0.2557131 0.2369642
vt 0.2725084 0.2369642
vt 0.2725084 0.2630358
vt 0.2557131 0.2630358
vt 0.2386737 0.2369642
vt 0.255469 0.2369642
vt 0.255469 0.2630358
vt 0.2386737 0.2630358
vt 0.2216343 0.2369642
vt 0.2384296 0.2369642
vt 0.2384296 0.2630358
vt 0.2216343 0.2630358
vt 0.2045949 0.2369642
vt 0.2213902 0.2369642
vt 0.2213902 0.2630358
vt 0.2045949 0.2630358
vt 0.1875555 0.2369642
vt 0.2043508 0.2369642
vt 0.2043508 0.2630358
vt 0.1875555 0.2630358
vt 0.1705161 0.2369642
vt 0.1873114 0.2369642
vt 0.1873114 0.2630358
vt 0.1705161 0.2630358
vt 0.2727525 0.2106484
vt 0.2895478 0.2106484
vt 0.2895478 0.23672
vt 0.2727525 0.23672
vt 0.2557131 0.2106484
vt 0.2725084 0.2106484
vt 0.2725084 0.23672
vt 0.2557131 0.23672
vt 0.2386737 0.2106484
vt 0.255469 0.2106484
vt 0.255469 0.23672
vt 0.2386737 0.23672
vt 0.2216343 0.2106484
vt 0.2384296 0.2106484
vt 0.2384296 0.23672
vt 0.2216343 0.23672
vt 0.2045949 0.2106484
vt 0.2213902 0.2106484
vt 0.2213902 0.23672
vt 0.2045949 0.23672
vt 0.1875555 0.2106484
vt 0.2043508 0.2106484
vt 0.2043508 0.23672
vt 0.1875555 0.23672
vt 0.1705161 0.2106484
vt 0.1873114 0.2106484
vt 0.1873114 0.23672
vt 0.1705161 0.23672
vt 0.2727525 0.1843326
vt 0.2895478 0.1843326
vt 0.2895478 0.2104042
vt 0.2727525 0.2104042
vt 0.2557131 0.1843326
vt 0.2725084 0.1843326
vt 0.2725084 0.2104042
vt 0.2557131 0.2104042
vt 0.2386737 0.1843326
vt 0.255469 0.1843326
vt 0.255469 0.2104042
vt 0.2386737 0.2104042
vt 0.2216343 0.1843326
vt 0.2384296 0.1843326
vt 0.2384296 0.2104042
vt 0.2216343 0.2104042
vt 0.2045949 0.1843326
vt 0.2213902 0.1843326
vt 0.2213902 0.2104042
vt 0.2045949 0.2104042
vt 0.1875555 0.1843326
vt 0.2043508 0.1843326
vt 0.2043508 0.2104042
vt 0.1875555 0.2104042
vt 0.1705161 0.1843326
vt 0.1873114 0.1843326
vt 0.1873114 0.2104042
vt 0.1705161 0.2104042
vt 0.2727525 0.1580168
vt 0.2895478 0.1580168
vt 0.2895478 0.1840885
vt 0.2727525 0.1840885
vt 0.2557131 0.1580168
vt 0.2725084 0.1580168
vt 0.2725084 0.1840885
vt 0.2557131 0.1840885
vt 0.2386737 0.1580168
vt 0.255469 0.1580168
vt 0.255469 0.1840885
vt 0.2386737 0.1840885
vt 0.2216343 0.1580168
vt 0.2384296 0.1580168
vt 0.2384296 0.1840885
vt 0.2216343 0.1840885
vt 0.2045949 0.1580168
vt 0.2213902 0.1580168
vt 0.2213902 0.1840885
vt 0.2045949 0.1840885
vt 0.1875555 0.1580168
vt 0.2043508 0.1580168
vt 0.2043508 0.1840885
vt 0.1875555 0.1840885
vt 0.1705161 0.1580168
vt 0.1873114 0.1580168
vt 0.1873114 0.1840885
vt 0.1705161 0.1840885
vt 0.2557131 0.5527537
vt 0.2725084 0.5527537
vt 0.2725084 0.5788253
vt 0.2557131 0.5788253
vt 0.2386737 0.5527537
vt 0.255469 0.5527537
vt 0.255469 0.5788253
vt 0.2386737 0.5788253
vt 0.2216343 0.5527537
vt 0.2384296 0.5527537
vt 0.2384296 0.5788253
vt 0.2216343 0.5788253
vt 0.2045949 0.5527537
vt 0.2213902 0.5527537
vt 0.2213902 0.5788253
vt 0.2045949 0.5788253
vt 0.1875555 0.5527537
vt 0.2043508 0.5527537
vt 0.2043508 0.5788253
vt 0.1875555 0.5788253
vt 0.3920284 0.3685431
vt 0.4088236 0.3685431
vt 0.4088236 0.3946148
vt 0.3920284 0.3946148
vt 0.3749889 0.3685431
vt 0.3917842 0.3685431
vt 0.3917842 0.3946148
vt 0.3749889 0.3946148
vt 0.3579496 0.3685431
vt 0.3747448 0.3685431
vt 0.3747448 0.3946148
vt 0.3579496 0.3946148
vt 0.3409101 0.3685431
vt 0.3577054 0.3685431
vt 0.3577054 0.3946148
vt 0.3409101 0.3946148
vt 0.3238707 0.3685431
vt 0.340666 0.3685431
vt 0.340666 0.3946148
vt 0.3238707 0.3946148
vt 0.3068313 0.3685431
vt 0.3236266 0.3685431
vt 0.3236266 0.3946148
vt 0.3068313 0.3946148
vt 0.2897919 0.3685431
vt 0.3065872 0.3685431
vt 0.3065872 0.3946148
vt 0.2897919 0.3946148
vt 0.2557131 0.5264379
vt 0.2725084 0.5264379
vt 0.2725084 0.5525095
vt 0.2557131 0.5525095
vt 0.2386737 0.5264379
vt 0.255469 0.5264379
vt 0.255469 0.5525095
vt 0.2386737 0.5525095
vt 0.2216343 0.5264379
vt 0.2384296 0.5264379
vt 0.2384296 0.5525095
vt 0.2216343 0.5525095
vt 0.2045949 0.5264379
vt 0.2213902 0.5264379
vt 0.2213902 0.5525095
vt 0.2045949 0.5525095
vt 0.1875555 0.5264379
vt 0.2043508 0.5264379
vt 0.2043508 0.5525095
vt 0.1875555 0.5525095
vt 0.3920284 0.3422273
vt 0.4088236 0.3422273
vt 0.4088236 0.368299
vt 0.3920284 0.368299
vt 0.3749889 0.3422273
vt 0.3917842 0.3422273
vt 0.3917842 0.368299
vt 0.3749889 0.368299
vt 0.3579496 0.3422273
vt 0.3747448 0.3422273
vt 0.3747448 0.368299
vt 0.3579496 0.368299
vt 0.3409101 0.3422273
vt 0.3577054 0.3422273
vt 0.3577054 0.368299
vt 0.3409101 0.368299
vt 0.3238707 0.3422273
vt 0.340666 0.3422273
vt 0.340666 0.368299
vt 0.3238707 0.368299
vt 0.3068313 0.3422273
vt 0.3236266 0.3422273
vt 0.3236266 0.368299
vt 0.3068313 0.368299
vt 0.2897919 0.3422273
vt 0.3065872 0.3422273
vt 0.3065872 0.368299
vt 0.2897919 0.368299
vt 0.2557131 0.5001221
vt 0.2725084 0.5001221
vt 0.2725084 0.5261937
vt 0.2557131 0.5261937
vt 0.2386737 0.5001221
vt 0.255469 0.5001221
vt 0.255469 0.5261937
vt 0.2386737 0.5261937
vt 0.2216343 0.5001221
vt 0.2384296 0.5001221
vt 0.2384296 0.5261937
vt 0.2216343 0.5261937
vt 0.2045949 0.5001221
vt 0.2213902 0.5001221
vt 0.2213902 0.5261937
vt 0.2045949 0.5261937
vt 0.1875555 0.5001221
vt 0.2043508 0.5001221
vt 0.2043508 0.5261937
vt 0.1875555 0.5261937
vt 0.3920284 0.3159115
vt 0.4088236 0.3159115
vt 0.4088236 0.3419832
vt 0.3920284 0.3419832
vt 0.3749889 0.3159115
vt 0.3917842 0.3159115
vt 0.3917842 0.3419832
vt 0.3749889 0.3419832
vt 0.3579496 0.3159115
vt 0.3747448 0.3159115
vt 0.3747448 0.3419832
vt 0.3579496 0.3419832
vt 0.3409101 0.3159115
vt 0.3577054 0.3159115
vt 0.3577054 0.3419832
vt 0.3409101 0.3419832
vt 0.3238707 0.3159115
vt 0.340666 0.3159115
vt 0.340666 0.3419832
vt 0.3238707 0.3419832
vt 0.3068313 0.3159115
vt 0.3236266 0.3159115
vt 0.3236266 0.3419832
vt 0.3068313 0.3419832
vt 0.2897919 0.3159115
vt 0.3065872 0.3159115
vt 0.3065872 0.3419832
vt 0.2897919 0.3419832
vt 0.2557131 0.4738063
vt 0.2725084 0.4738063
vt 0.2725084 0.4998779
vt 0.2557131 0.4998779
vt 0.2386737 0.4738063
vt 0.255469 0.4738063
vt 0.255469 0.4998779
vt 0.2386737 0.4998779
vt 0.2216343 0.4738063
vt 0.2384296 0.4738063
vt 0.2384296 0.4998779
vt 0.2216343 0.4998779
vt 0.2045949 0.4738063
vt 0.2213902 0.4738063
vt 0.2213902 0.4998779
vt 0.2045949 0.4998779
vt 0.1875555 0.4738063
vt 0.2043508 0.4738063
vt 0.2043508 0.4998779
vt 0.1875555 0.4998779
vt 0.3920284 0.2895958
vt 0.4088236 0.2895958
vt 0.4088236 0.3156674
vt 0.3920284 0.3156674
vt 0.3749889 0.2895958
vt 0.3917842 0.2895958
vt 0.3917842 0.3156674
vt 0.3749889 0.3156674
vt 0.3579496 0.2895958
vt 0.3747448 0.2895958
vt 0.3747448 0.3156674
vt 0.3579496 0.3156674
vt 0.3409101 0.2895958
vt 0.3577054 0.2895958
vt 0.3577054 0.3156674
vt 0.3409101 0.3156674
vt 0.3238707 0.2895958
vt 0.340666 0.2895958
vt 0.340666 0.3156674
vt 0.3238707 0.3156674
vt 0.3068313 0.2895958
vt 0.3236266 0.2895958
vt 0.3236266 0.3156674
vt 0.3068313 0.3156674
vt 0.2897919 0.2895958
vt 0.3065872 0.2895958
vt 0.3065872 0.3156674
vt 0.2897919 0.3156674
vt 0.2557131 0.4474905
vt 0.2725084 0.4474905
vt 0.2725084 0.4735621
vt 0.2557131 0.4735621
vt 0.2386737 0.4474905
vt 0.255469 0.4474905
vt 0.255469 0.4735621
vt 0.2386737 0.4735621
vt 0.2216343 0.4474905
vt 0.2384296 0.4474905
vt 0.2384296 0.4735621
vt 0.2216343 0.4735621
vt 0.2045949 0.4474905
vt 0.2213902 0.4474905
vt 0.2213902 0.4735621
vt 0.2045949 0.4735621
vt 0.1875555 0.4474905
vt 0.2043508 0.4474905
vt 0.2043508 0.4735621
vt 0.1875555 0.4735621

# Normal
vn 0 0 -1

# Mesh description
g AtbangJobeeDT_mesh_0005

# Faces
f 1/1/1 2/2/1 3/3/1 4/4/1
f 5/5/1 6/6/1 7/7/1 8/8/1
f 9/9/1 10/10/1 11/11/1 12/12/1
f 13/13/1 14/14/1 15/15/1 16/16/1
f 17/17/1 18/18/1 19/19/1 20/20/1
f 21/21/1 22/22/1 23/23/1 24/24/1
f 25/25/1 26/26/1 27/27/1 28/28/1
f 29/29/1 30/30/1 31/31/1 32/32/1
f 33/33/1 34/34/1 35/35/1 36/36/1
f 37/37/1 38/38/1 39/39/1 40/40/1
f 41/41/1 42/42/1 43/43/1 44/44/1
f 45/45/1 46/46/1 47/47/1 48/48/1
f 49/49/1 50/50/1 51/51/1 52/52/1
f 53/53/1 54/54/1 55/55/1 56/56/1
f 57/57/1 58/58/1 59/59/1 60/60/1
f 61/61/1 62/62/1 63/63/1 64/64/1
f 65/65/1 66/66/1 67/67/1 68/68/1
f 69/69/1 70/70/1 71/71/1 72/72/1
f 73/73/1 74/74/1 75/75/1 76/76/1
f 77/77/1 78/78/1 79/79/1 80/80/1
f 81/81/1 82/82/1 83/83/1 84/84/1
f 85/85/1 86/86/1 87/87/1 88/88/1
f 89/89/1 90/90/1 91/91/1 92/92/1
f 93/93/1 94/94/1 95/95/1 96/96/1
f 97/97/1 98/98/1 99/99/1 100/100/1
f 101/101/1 102/102/1 103/103/1 104/104/1
f 105/105/1 106/106/1 107/107/1 108/108/1
f 109/109/1 110/110/1 111/111/1 112/112/1
f 113/1/1 114/2/1 115/3/1 116/4/1
f 117/5/1 118/6/1 119/7/1 120/8/1
f 121/9/1 122/10/1 123/11/1 124/12/1
f 125/13/1 126/14/1 127/15/1 128/16/1
f 129/17/1 130/18/1 131/19/1 132/20/1
f 133/21/1 134/22/1 135/23/1 136/24/1
f 137/25/1 138/26/1 139/27/1 140/28/1
f 141/29/1 142/30/1 143/31/1 144/32/1
f 145/33/1 146/34/1 147/35/1 148/36/1
f 149/37/1 150/38/1 151/39/1 152/40/1
f 153/41/1 154/42/1 155/43/1 156/44/1
f 157/45/1 158/46/1 159/47/1 160/48/1
f 161/49/1 162/50/1 163/51/1 164/52/1
f 165/53/1 166/54/1 167/55/1 168/56/1
f 169/57/1 170/58/1 171/59/1 172/60/1
f 173/61/1 174/62/1 175/63/1 176/64/1
f 177/65/1 178/66/1 179/67/1 180/68/1
f 181/69/1 182/70/1 183/71/1 184/72/1
f 185/73/1 186/74/1 187/75/1 188/76/1
f 189/77/1 190/78/1 191/79/1 192/80/1
f 193/81/1 194/82/1 195/83/1 196/84/1
f 197/85/1 198/86/1 199/87/1 200/88/1
f 201/89/1 202/90/1 203/91/1 204/92/1
f 205/93/1 206/94/1 207/95/1 208/96/1
f 209/97/1 210/98/1 211/99/1 212/100/1
f 213/101/1 214/102/1 215/103/1 216/104/1
f 217/105/1 218/106/1 219/107/1 220/108/1
f 221/109/1 222/110/1 223/111/1 224/112/1
f 225/113/1 226/114/1 227/115/1 228/116/1
f 229/117/1 230/118/1 231/119/1 232/120/1
f 233/121/1 234/122/1 235/123/1 236/124/1
f 237/125/1 238/126/1 239/127/1 240/128/1
f 241/129/1 242/130/1 243/131/1 244/132/1
f 245/133/1 246/134/1 247/135/1 248/136/1
f 249/137/1 250/138/1 251/139/1 252/140/1
f 253/141/1 254/142/1 255/143/1 256/144/1
f 257/145/1 258/146/1 259/147/1 260/148/1
f 261/149/1 262/150/1 263/151/1 264/152/1
f 265/153/1 266/154/1 267/155/1 268/156/1
f 269/157/1 270/158/1 271/159/1 272/160/1
f 273/161/1 274/162/1 275/163/1 276/164/1
f 277/165/1 278/166/1 279/167/1 280/168/1
f 281/169/1 282/170/1 283/171/1 284/172/1
f 285/173/1 286/174/1 287/175/1 288/176/1
f 289/177/1 290/178/1 291/179/1 292/180/1
f 293/181/1 294/182/1 295/183/1 296/184/1
f 297/185/1 298/186/1 299/187/1 300/188/1
f 301/189/1 302/190/1 303/191/1 304/192/1
f 305/193/1 306/194/1 307/195/1 308/196/1
f 309/197/1 310/198/1 311/199/1 312/200/1
f 313/201/1 314/202/1 315/203/1 316/204/1
f 317/205/1 318/206/1 319/207/1 320/208/1
f 321/209/1 322/210/1 323/211/1 324/212/1
f 325/213/1 326/214/1 327/215/1 328/216/1
f 329/217/1 330/218/1 331/219/1 332/220/1
f 333/221/1 334/222/1 335/223/1 336/224/1
f 337/225/1 338/226/1 339/227/1 340/228/1
f 341/229/1 342/230/1 343/231/1 344/232/1
f 345/233/1 346/234/1 347/235/1 348/236/1
f 349/237/1 350/238/1 351/239/1 352/240/1
f 353/241/1 354/242/1 355/243/1 356/244/1
f 357/245/1 358/246/1 359/247/1 360/248/1
f 361/249/1 362/250/1 363/251/1 364/252/1
f 365/253/1 366/254/1 367/255/1 368/256/1
f 369/257/1 370/258/1 371/259/1 372/260/1
f 373/261/1 374/262/1 375/263/1 376/264/1
f 377/265/1 378/266/1 379/267/1 380/268/1
f 381/269/1 382/270/1 383/271/1 384/272/1
f 385/273/1 386/274/1 387/275/1 388/276/1
f 389/277/1 390/278/1 391/279/1 392/280/1
f 393/281/1 394/282/1 395/283/1 396/284/1
f 397/285/1 398/286/1 399/287/1 400/288/1
f 401/289/1 402/290/1 403/291/1 404/292/1
f 405/293/1 406/294/1 407/295/1 408/296/1
f 409/297/1 410/298/1 411/299/1 412/300/1
f 413/301/1 414/302/1 415/303/1 416/304/1
f 417/305/1 418/306/1 419/307/1 420/308/1
f 421/309/1 422/310/1 423/311/1 424/312/1
f 425/313/1 426/314/1 427/315/1 428/316/1
f 429/317/1 430/318/1 431/319/1 432/320/1
f 433/321/1 434/322/1 435/323/1 436/324/1

