# Tiled2Unity generated file. Do not modify by hand.
# Wavefront file for 'BarangayMaugRight_mesh_0005.obj'

# Vertices (Count = 260)
v -23 -8 0
v -24 -8 0
v -24 -7 0
v -23 -7 0
v -24 -8 0
v -25 -8 0
v -25 -7 0
v -24 -7 0
v -25 -8 0
v -26 -8 0
v -26 -7 0
v -25 -7 0
v -26 -8 0
v -27 -8 0
v -27 -7 0
v -26 -7 0
v -27 -8 0
v -28 -8 0
v -28 -7 0
v -27 -7 0
v -28 -8 0
v -29 -8 0
v -29 -7 0
v -28 -7 0
v -29 -8 0
v -30 -8 0
v -30 -7 0
v -29 -7 0
v -30 -8 0
v -31 -8 0
v -31 -7 0
v -30 -7 0
v -23 -9 0
v -24 -9 0
v -24 -8 0
v -23 -8 0
v -24 -9 0
v -25 -9 0
v -25 -8 0
v -24 -8 0
v -25 -9 0
v -26 -9 0
v -26 -8 0
v -25 -8 0
v -26 -9 0
v -27 -9 0
v -27 -8 0
v -26 -8 0
v -27 -9 0
v -28 -9 0
v -28 -8 0
v -27 -8 0
v -28 -9 0
v -29 -9 0
v -29 -8 0
v -28 -8 0
v -29 -9 0
v -30 -9 0
v -30 -8 0
v -29 -8 0
v -30 -9 0
v -31 -9 0
v -31 -8 0
v -30 -8 0
v -23 -10 0
v -24 -10 0
v -24 -9 0
v -23 -9 0
v -24 -10 0
v -25 -10 0
v -25 -9 0
v -24 -9 0
v -25 -10 0
v -26 -10 0
v -26 -9 0
v -25 -9 0
v -26 -10 0
v -27 -10 0
v -27 -9 0
v -26 -9 0
v -27 -10 0
v -28 -10 0
v -28 -9 0
v -27 -9 0
v -28 -10 0
v -29 -10 0
v -29 -9 0
v -28 -9 0
v -29 -10 0
v -30 -10 0
v -30 -9 0
v -29 -9 0
v -30 -10 0
v -31 -10 0
v -31 -9 0
v -30 -9 0
v -2 -33 0
v -3 -33 0
v -3 -32 0
v -2 -32 0
v -3 -33 0
v -4 -33 0
v -4 -32 0
v -3 -32 0
v -4 -33 0
v -5 -33 0
v -5 -32 0
v -4 -32 0
v -5 -33 0
v -6 -33 0
v -6 -32 0
v -5 -32 0
v -6 -33 0
v -7 -33 0
v -7 -32 0
v -6 -32 0
v -7 -33 0
v -8 -33 0
v -8 -32 0
v -7 -32 0
v -8 -33 0
v -9 -33 0
v -9 -32 0
v -8 -32 0
v -2 -34 0
v -3 -34 0
v -3 -33 0
v -2 -33 0
v -3 -34 0
v -4 -34 0
v -4 -33 0
v -3 -33 0
v -4 -34 0
v -5 -34 0
v -5 -33 0
v -4 -33 0
v -5 -34 0
v -6 -34 0
v -6 -33 0
v -5 -33 0
v -6 -34 0
v -7 -34 0
v -7 -33 0
v -6 -33 0
v -7 -34 0
v -8 -34 0
v -8 -33 0
v -7 -33 0
v -8 -34 0
v -9 -34 0
v -9 -33 0
v -8 -33 0
v -2 -35 0
v -3 -35 0
v -3 -34 0
v -2 -34 0
v -3 -35 0
v -4 -35 0
v -4 -34 0
v -3 -34 0
v -4 -35 0
v -5 -35 0
v -5 -34 0
v -4 -34 0
v -5 -35 0
v -6 -35 0
v -6 -34 0
v -5 -34 0
v -6 -35 0
v -7 -35 0
v -7 -34 0
v -6 -34 0
v -7 -35 0
v -8 -35 0
v -8 -34 0
v -7 -34 0
v -8 -35 0
v -9 -35 0
v -9 -34 0
v -8 -34 0
v -36 -39 0
v -37 -39 0
v -37 -38 0
v -36 -38 0
v -37 -39 0
v -38 -39 0
v -38 -38 0
v -37 -38 0
v -38 -39 0
v -39 -39 0
v -39 -38 0
v -38 -38 0
v -39 -39 0
v -40 -39 0
v -40 -38 0
v -39 -38 0
v -40 -39 0
v -41 -39 0
v -41 -38 0
v -40 -38 0
v -41 -39 0
v -42 -39 0
v -42 -38 0
v -41 -38 0
v -42 -39 0
v -43 -39 0
v -43 -38 0
v -42 -38 0
v -43 -39 0
v -44 -39 0
v -44 -38 0
v -43 -38 0
v -44 -39 0
v -45 -39 0
v -45 -38 0
v -44 -38 0
v -45 -39 0
v -46 -39 0
v -46 -38 0
v -45 -38 0
v -36 -40 0
v -37 -40 0
v -37 -39 0
v -36 -39 0
v -37 -40 0
v -38 -40 0
v -38 -39 0
v -37 -39 0
v -38 -40 0
v -39 -40 0
v -39 -39 0
v -38 -39 0
v -39 -40 0
v -40 -40 0
v -40 -39 0
v -39 -39 0
v -40 -40 0
v -41 -40 0
v -41 -39 0
v -40 -39 0
v -41 -40 0
v -42 -40 0
v -42 -39 0
v -41 -39 0
v -42 -40 0
v -43 -40 0
v -43 -39 0
v -42 -39 0
v -43 -40 0
v -44 -40 0
v -44 -39 0
v -43 -39 0
v -44 -40 0
v -45 -40 0
v -45 -39 0
v -44 -39 0
v -45 -40 0
v -46 -40 0
v -46 -39 0
v -45 -39 0

# Texture cooridinates (Count = 101)
vt 0.8448276 0.7368421
vt 0.862069 0.7368421
vt 0.862069 0.7631579
vt 0.8448276 0.7631579
vt 0.8793104 0.7368421
vt 0.8793104 0.7631579
vt 0.8965517 0.7368421
vt 0.8965517 0.7631579
vt 0.9137931 0.7368421
vt 0.9137931 0.7631579
vt 0.9310345 0.7368421
vt 0.9310345 0.7631579
vt 0.9482759 0.7368421
vt 0.9482759 0.7631579
vt 0.9655172 0.7368421
vt 0.9655172 0.7631579
vt 0.9827586 0.7368421
vt 0.9827586 0.7631579
vt 0.8448276 0.7105263
vt 0.862069 0.7105263
vt 0.8793104 0.7105263
vt 0.8965517 0.7105263
vt 0.9137931 0.7105263
vt 0.9310345 0.7105263
vt 0.9482759 0.7105263
vt 0.9655172 0.7105263
vt 0.9827586 0.7105263
vt 0.8448276 0.6842105
vt 0.862069 0.6842105
vt 0.8793104 0.6842105
vt 0.8965517 0.6842105
vt 0.9137931 0.6842105
vt 0.9310345 0.6842105
vt 0.9482759 0.6842105
vt 0.9655172 0.6842105
vt 0.9827586 0.6842105
vt 0.2068966 0.8421053
vt 0.2241379 0.8421053
vt 0.2241379 0.8684211
vt 0.2068966 0.8684211
vt 0.2413793 0.8421053
vt 0.2413793 0.8684211
vt 0.2586207 0.8421053
vt 0.2586207 0.8684211
vt 0.2758621 0.8421053
vt 0.2758621 0.8684211
vt 0.2931035 0.8421053
vt 0.2931035 0.8684211
vt 0.3103448 0.8421053
vt 0.3103448 0.8684211
vt 0.3275862 0.8421053
vt 0.3275862 0.8684211
vt 0.2068966 0.8157895
vt 0.2241379 0.8157895
vt 0.2413793 0.8157895
vt 0.2586207 0.8157895
vt 0.2758621 0.8157895
vt 0.2931035 0.8157895
vt 0.3103448 0.8157895
vt 0.3275862 0.8157895
vt 0.2068966 0.7894737
vt 0.2241379 0.7894737
vt 0.2413793 0.7894737
vt 0.2586207 0.7894737
vt 0.2758621 0.7894737
vt 0.2931035 0.7894737
vt 0.3103448 0.7894737
vt 0.3275862 0.7894737
vt 0 0.7105263
vt 0.01724138 0.7105263
vt 0.01724138 0.7368421
vt 0 0.7368421
vt 0.03448276 0.7105263
vt 0.03448276 0.7368421
vt 0.05172414 0.7105263
vt 0.05172414 0.7368421
vt 0.06896552 0.7105263
vt 0.06896552 0.7368421
vt 0.0862069 0.7105263
vt 0.0862069 0.7368421
vt 0.1034483 0.7105263
vt 0.1034483 0.7368421
vt 0.1206897 0.7105263
vt 0.1206897 0.7368421
vt 0.137931 0.7105263
vt 0.137931 0.7368421
vt 0.1551724 0.7105263
vt 0.1551724 0.7368421
vt 0.1724138 0.7105263
vt 0.1724138 0.7368421
vt 0 0.6842105
vt 0.01724138 0.6842105
vt 0.03448276 0.6842105
vt 0.05172414 0.6842105
vt 0.06896552 0.6842105
vt 0.0862069 0.6842105
vt 0.1034483 0.6842105
vt 0.1206897 0.6842105
vt 0.137931 0.6842105
vt 0.1551724 0.6842105
vt 0.1724138 0.6842105

# Normal
vn 0 0 -1

# Mesh description
g BarangayMaugRight_mesh_0005

# Faces
f 1/1/1 2/2/1 3/3/1 4/4/1
f 5/2/1 6/5/1 7/6/1 8/3/1
f 9/5/1 10/7/1 11/8/1 12/6/1
f 13/7/1 14/9/1 15/10/1 16/8/1
f 17/9/1 18/11/1 19/12/1 20/10/1
f 21/11/1 22/13/1 23/14/1 24/12/1
f 25/13/1 26/15/1 27/16/1 28/14/1
f 29/15/1 30/17/1 31/18/1 32/16/1
f 33/19/1 34/20/1 35/2/1 36/1/1
f 37/20/1 38/21/1 39/5/1 40/2/1
f 41/21/1 42/22/1 43/7/1 44/5/1
f 45/22/1 46/23/1 47/9/1 48/7/1
f 49/23/1 50/24/1 51/11/1 52/9/1
f 53/24/1 54/25/1 55/13/1 56/11/1
f 57/25/1 58/26/1 59/15/1 60/13/1
f 61/26/1 62/27/1 63/17/1 64/15/1
f 65/28/1 66/29/1 67/20/1 68/19/1
f 69/29/1 70/30/1 71/21/1 72/20/1
f 73/30/1 74/31/1 75/22/1 76/21/1
f 77/31/1 78/32/1 79/23/1 80/22/1
f 81/32/1 82/33/1 83/24/1 84/23/1
f 85/33/1 86/34/1 87/25/1 88/24/1
f 89/34/1 90/35/1 91/26/1 92/25/1
f 93/35/1 94/36/1 95/27/1 96/26/1
f 97/37/1 98/38/1 99/39/1 100/40/1
f 101/38/1 102/41/1 103/42/1 104/39/1
f 105/41/1 106/43/1 107/44/1 108/42/1
f 109/43/1 110/45/1 111/46/1 112/44/1
f 113/45/1 114/47/1 115/48/1 116/46/1
f 117/47/1 118/49/1 119/50/1 120/48/1
f 121/49/1 122/51/1 123/52/1 124/50/1
f 125/53/1 126/54/1 127/38/1 128/37/1
f 129/54/1 130/55/1 131/41/1 132/38/1
f 133/55/1 134/56/1 135/43/1 136/41/1
f 137/56/1 138/57/1 139/45/1 140/43/1
f 141/57/1 142/58/1 143/47/1 144/45/1
f 145/58/1 146/59/1 147/49/1 148/47/1
f 149/59/1 150/60/1 151/51/1 152/49/1
f 153/61/1 154/62/1 155/54/1 156/53/1
f 157/62/1 158/63/1 159/55/1 160/54/1
f 161/63/1 162/64/1 163/56/1 164/55/1
f 165/64/1 166/65/1 167/57/1 168/56/1
f 169/65/1 170/66/1 171/58/1 172/57/1
f 173/66/1 174/67/1 175/59/1 176/58/1
f 177/67/1 178/68/1 179/60/1 180/59/1
f 181/69/1 182/70/1 183/71/1 184/72/1
f 185/70/1 186/73/1 187/74/1 188/71/1
f 189/73/1 190/75/1 191/76/1 192/74/1
f 193/75/1 194/77/1 195/78/1 196/76/1
f 197/77/1 198/79/1 199/80/1 200/78/1
f 201/79/1 202/81/1 203/82/1 204/80/1
f 205/81/1 206/83/1 207/84/1 208/82/1
f 209/83/1 210/85/1 211/86/1 212/84/1
f 213/85/1 214/87/1 215/88/1 216/86/1
f 217/87/1 218/89/1 219/90/1 220/88/1
f 221/91/1 222/92/1 223/70/1 224/69/1
f 225/92/1 226/93/1 227/73/1 228/70/1
f 229/93/1 230/94/1 231/75/1 232/73/1
f 233/94/1 234/95/1 235/77/1 236/75/1
f 237/95/1 238/96/1 239/79/1 240/77/1
f 241/96/1 242/97/1 243/81/1 244/79/1
f 245/97/1 246/98/1 247/83/1 248/81/1
f 249/98/1 250/99/1 251/85/1 252/83/1
f 253/99/1 254/100/1 255/87/1 256/85/1
f 257/100/1 258/101/1 259/89/1 260/87/1

