# Tiled2Unity generated file. Do not modify by hand.
# Wavefront file for 'UpperKilidMasao_mesh_0005.obj'

# Vertices (Count = 952)
v -39 -15 0
v -40 -15 0
v -40 -14 0
v -39 -14 0
v -38 -15 0
v -39 -15 0
v -39 -14 0
v -38 -14 0
v -37 -15 0
v -38 -15 0
v -38 -14 0
v -37 -14 0
v -35 -15 0
v -36 -15 0
v -36 -14 0
v -35 -14 0
v -34 -15 0
v -35 -15 0
v -35 -14 0
v -34 -14 0
v -33 -15 0
v -34 -15 0
v -34 -14 0
v -33 -14 0
v -32 -15 0
v -33 -15 0
v -33 -14 0
v -32 -14 0
v -31 -15 0
v -32 -15 0
v -32 -14 0
v -31 -14 0
v -30 -15 0
v -31 -15 0
v -31 -14 0
v -30 -14 0
v -29 -15 0
v -30 -15 0
v -30 -14 0
v -29 -14 0
v -28 -15 0
v -29 -15 0
v -29 -14 0
v -28 -14 0
v -27 -15 0
v -28 -15 0
v -28 -14 0
v -27 -14 0
v -25 -15 0
v -26 -15 0
v -26 -14 0
v -25 -14 0
v -24 -15 0
v -25 -15 0
v -25 -14 0
v -24 -14 0
v -23 -15 0
v -24 -15 0
v -24 -14 0
v -23 -14 0
v -22 -15 0
v -23 -15 0
v -23 -14 0
v -22 -14 0
v -39 -16 0
v -40 -16 0
v -40 -15 0
v -39 -15 0
v -38 -16 0
v -39 -16 0
v -39 -15 0
v -38 -15 0
v -37 -16 0
v -38 -16 0
v -38 -15 0
v -37 -15 0
v -35 -16 0
v -36 -16 0
v -36 -15 0
v -35 -15 0
v -34 -16 0
v -35 -16 0
v -35 -15 0
v -34 -15 0
v -33 -16 0
v -34 -16 0
v -34 -15 0
v -33 -15 0
v -32 -16 0
v -33 -16 0
v -33 -15 0
v -32 -15 0
v -31 -16 0
v -32 -16 0
v -32 -15 0
v -31 -15 0
v -30 -16 0
v -31 -16 0
v -31 -15 0
v -30 -15 0
v -29 -16 0
v -30 -16 0
v -30 -15 0
v -29 -15 0
v -28 -16 0
v -29 -16 0
v -29 -15 0
v -28 -15 0
v -27 -16 0
v -28 -16 0
v -28 -15 0
v -27 -15 0
v -25 -16 0
v -26 -16 0
v -26 -15 0
v -25 -15 0
v -24 -16 0
v -25 -16 0
v -25 -15 0
v -24 -15 0
v -23 -16 0
v -24 -16 0
v -24 -15 0
v -23 -15 0
v -22 -16 0
v -23 -16 0
v -23 -15 0
v -22 -15 0
v -21 -16 0
v -22 -16 0
v -22 -15 0
v -21 -15 0
v -20 -16 0
v -21 -16 0
v -21 -15 0
v -20 -15 0
v -19 -16 0
v -20 -16 0
v -20 -15 0
v -19 -15 0
v -18 -16 0
v -19 -16 0
v -19 -15 0
v -18 -15 0
v -17 -16 0
v -18 -16 0
v -18 -15 0
v -17 -15 0
v -16 -16 0
v -17 -16 0
v -17 -15 0
v -16 -15 0
v -15 -16 0
v -16 -16 0
v -16 -15 0
v -15 -15 0
v -14 -16 0
v -15 -16 0
v -15 -15 0
v -14 -15 0
v -13 -16 0
v -14 -16 0
v -14 -15 0
v -13 -15 0
v -12 -16 0
v -13 -16 0
v -13 -15 0
v -12 -15 0
v -39 -17 0
v -40 -17 0
v -40 -16 0
v -39 -16 0
v -38 -17 0
v -39 -17 0
v -39 -16 0
v -38 -16 0
v -37 -17 0
v -38 -17 0
v -38 -16 0
v -37 -16 0
v -35 -17 0
v -36 -17 0
v -36 -16 0
v -35 -16 0
v -34 -17 0
v -35 -17 0
v -35 -16 0
v -34 -16 0
v -33 -17 0
v -34 -17 0
v -34 -16 0
v -33 -16 0
v -32 -17 0
v -33 -17 0
v -33 -16 0
v -32 -16 0
v -31 -17 0
v -32 -17 0
v -32 -16 0
v -31 -16 0
v -30 -17 0
v -31 -17 0
v -31 -16 0
v -30 -16 0
v -29 -17 0
v -30 -17 0
v -30 -16 0
v -29 -16 0
v -28 -17 0
v -29 -17 0
v -29 -16 0
v -28 -16 0
v -27 -17 0
v -28 -17 0
v -28 -16 0
v -27 -16 0
v -25 -17 0
v -26 -17 0
v -26 -16 0
v -25 -16 0
v -24 -17 0
v -25 -17 0
v -25 -16 0
v -24 -16 0
v -23 -17 0
v -24 -17 0
v -24 -16 0
v -23 -16 0
v -22 -17 0
v -23 -17 0
v -23 -16 0
v -22 -16 0
v -21 -17 0
v -22 -17 0
v -22 -16 0
v -21 -16 0
v -20 -17 0
v -21 -17 0
v -21 -16 0
v -20 -16 0
v -19 -17 0
v -20 -17 0
v -20 -16 0
v -19 -16 0
v -18 -17 0
v -19 -17 0
v -19 -16 0
v -18 -16 0
v -17 -17 0
v -18 -17 0
v -18 -16 0
v -17 -16 0
v -16 -17 0
v -17 -17 0
v -17 -16 0
v -16 -16 0
v -15 -17 0
v -16 -17 0
v -16 -16 0
v -15 -16 0
v -14 -17 0
v -15 -17 0
v -15 -16 0
v -14 -16 0
v -13 -17 0
v -14 -17 0
v -14 -16 0
v -13 -16 0
v -12 -17 0
v -13 -17 0
v -13 -16 0
v -12 -16 0
v -11 -17 0
v -12 -17 0
v -12 -16 0
v -11 -16 0
v -10 -17 0
v -11 -17 0
v -11 -16 0
v -10 -16 0
v -9 -17 0
v -10 -17 0
v -10 -16 0
v -9 -16 0
v -8 -17 0
v -9 -17 0
v -9 -16 0
v -8 -16 0
v -21 -18 0
v -22 -18 0
v -22 -17 0
v -21 -17 0
v -20 -18 0
v -21 -18 0
v -21 -17 0
v -20 -17 0
v -19 -18 0
v -20 -18 0
v -20 -17 0
v -19 -17 0
v -18 -18 0
v -19 -18 0
v -19 -17 0
v -18 -17 0
v -17 -18 0
v -18 -18 0
v -18 -17 0
v -17 -17 0
v -16 -18 0
v -17 -18 0
v -17 -17 0
v -16 -17 0
v -15 -18 0
v -16 -18 0
v -16 -17 0
v -15 -17 0
v -14 -18 0
v -15 -18 0
v -15 -17 0
v -14 -17 0
v -13 -18 0
v -14 -18 0
v -14 -17 0
v -13 -17 0
v -12 -18 0
v -13 -18 0
v -13 -17 0
v -12 -17 0
v -11 -18 0
v -12 -18 0
v -12 -17 0
v -11 -17 0
v -10 -18 0
v -11 -18 0
v -11 -17 0
v -10 -17 0
v -9 -18 0
v -10 -18 0
v -10 -17 0
v -9 -17 0
v -8 -18 0
v -9 -18 0
v -9 -17 0
v -8 -17 0
v -12 -19 0
v -13 -19 0
v -13 -18 0
v -12 -18 0
v -11 -19 0
v -12 -19 0
v -12 -18 0
v -11 -18 0
v -10 -19 0
v -11 -19 0
v -11 -18 0
v -10 -18 0
v -9 -19 0
v -10 -19 0
v -10 -18 0
v -9 -18 0
v -8 -19 0
v -9 -19 0
v -9 -18 0
v -8 -18 0
v -9 -20 0
v -10 -20 0
v -10 -19 0
v -9 -19 0
v -8 -20 0
v -9 -20 0
v -9 -19 0
v -8 -19 0
v -7 -20 0
v -8 -20 0
v -8 -19 0
v -7 -19 0
v -6 -20 0
v -7 -20 0
v -7 -19 0
v -6 -19 0
v -5 -20 0
v -6 -20 0
v -6 -19 0
v -5 -19 0
v -9 -21 0
v -10 -21 0
v -10 -20 0
v -9 -20 0
v -8 -21 0
v -9 -21 0
v -9 -20 0
v -8 -20 0
v -7 -21 0
v -8 -21 0
v -8 -20 0
v -7 -20 0
v -6 -21 0
v -7 -21 0
v -7 -20 0
v -6 -20 0
v -5 -21 0
v -6 -21 0
v -6 -20 0
v -5 -20 0
v -8 -22 0
v -9 -22 0
v -9 -21 0
v -8 -21 0
v -7 -22 0
v -8 -22 0
v -8 -21 0
v -7 -21 0
v -6 -22 0
v -7 -22 0
v -7 -21 0
v -6 -21 0
v -5 -22 0
v -6 -22 0
v -6 -21 0
v -5 -21 0
v -4 -22 0
v -5 -22 0
v -5 -21 0
v -4 -21 0
v -3 -22 0
v -4 -22 0
v -4 -21 0
v -3 -21 0
v -2 -22 0
v -3 -22 0
v -3 -21 0
v -2 -21 0
v -6 -23 0
v -7 -23 0
v -7 -22 0
v -6 -22 0
v -5 -23 0
v -6 -23 0
v -6 -22 0
v -5 -22 0
v -4 -23 0
v -5 -23 0
v -5 -22 0
v -4 -22 0
v -3 -23 0
v -4 -23 0
v -4 -22 0
v -3 -22 0
v -2 -23 0
v -3 -23 0
v -3 -22 0
v -2 -22 0
v -6 -24 0
v -7 -24 0
v -7 -23 0
v -6 -23 0
v -5 -24 0
v -6 -24 0
v -6 -23 0
v -5 -23 0
v -4 -24 0
v -5 -24 0
v -5 -23 0
v -4 -23 0
v -3 -24 0
v -4 -24 0
v -4 -23 0
v -3 -23 0
v -2 -24 0
v -3 -24 0
v -3 -23 0
v -2 -23 0
v -4 -25 0
v -5 -25 0
v -5 -24 0
v -4 -24 0
v -3 -25 0
v -4 -25 0
v -4 -24 0
v -3 -24 0
v -2 -25 0
v -3 -25 0
v -3 -24 0
v -2 -24 0
v -1 -25 0
v -2 -25 0
v -2 -24 0
v -1 -24 0
v -4 -26 0
v -5 -26 0
v -5 -25 0
v -4 -25 0
v -3 -26 0
v -4 -26 0
v -4 -25 0
v -3 -25 0
v -2 -26 0
v -3 -26 0
v -3 -25 0
v -2 -25 0
v -1 -26 0
v -2 -26 0
v -2 -25 0
v -1 -25 0
v -28 -27 0
v -29 -27 0
v -29 -26 0
v -28 -26 0
v -27 -27 0
v -28 -27 0
v -28 -26 0
v -27 -26 0
v -26 -27 0
v -27 -27 0
v -27 -26 0
v -26 -26 0
v -22 -27 0
v -23 -27 0
v -23 -26 0
v -22 -26 0
v -21 -27 0
v -22 -27 0
v -22 -26 0
v -21 -26 0
v -20 -27 0
v -21 -27 0
v -21 -26 0
v -20 -26 0
v -4 -27 0
v -5 -27 0
v -5 -26 0
v -4 -26 0
v -3 -27 0
v -4 -27 0
v -4 -26 0
v -3 -26 0
v -2 -27 0
v -3 -27 0
v -3 -26 0
v -2 -26 0
v -1 -27 0
v -2 -27 0
v -2 -26 0
v -1 -26 0
v -34 -29 0
v -35 -29 0
v -35 -28 0
v -34 -28 0
v -33 -29 0
v -34 -29 0
v -34 -28 0
v -33 -28 0
v -32 -29 0
v -33 -29 0
v -33 -28 0
v -32 -28 0
v -17 -29 0
v -18 -29 0
v -18 -28 0
v -17 -28 0
v -16 -29 0
v -17 -29 0
v -17 -28 0
v -16 -28 0
v -15 -29 0
v -16 -29 0
v -16 -28 0
v -15 -28 0
v -6 -38 0
v -7 -38 0
v -7 -37 0
v -6 -37 0
v -5 -38 0
v -6 -38 0
v -6 -37 0
v -5 -37 0
v -4 -38 0
v -5 -38 0
v -5 -37 0
v -4 -37 0
v -3 -38 0
v -4 -38 0
v -4 -37 0
v -3 -37 0
v -6 -39 0
v -7 -39 0
v -7 -38 0
v -6 -38 0
v -5 -39 0
v -6 -39 0
v -6 -38 0
v -5 -38 0
v -4 -39 0
v -5 -39 0
v -5 -38 0
v -4 -38 0
v -3 -39 0
v -4 -39 0
v -4 -38 0
v -3 -38 0
v -6 -40 0
v -7 -40 0
v -7 -39 0
v -6 -39 0
v -5 -40 0
v -6 -40 0
v -6 -39 0
v -5 -39 0
v -4 -40 0
v -5 -40 0
v -5 -39 0
v -4 -39 0
v -3 -40 0
v -4 -40 0
v -4 -39 0
v -3 -39 0
v -10 -43 0
v -11 -43 0
v -11 -42 0
v -10 -42 0
v -9 -43 0
v -10 -43 0
v -10 -42 0
v -9 -42 0
v -8 -43 0
v -9 -43 0
v -9 -42 0
v -8 -42 0
v -7 -43 0
v -8 -43 0
v -8 -42 0
v -7 -42 0
v -39 -44 0
v -40 -44 0
v -40 -43 0
v -39 -43 0
v -38 -44 0
v -39 -44 0
v -39 -43 0
v -38 -43 0
v -37 -44 0
v -38 -44 0
v -38 -43 0
v -37 -43 0
v -36 -44 0
v -37 -44 0
v -37 -43 0
v -36 -43 0
v -35 -44 0
v -36 -44 0
v -36 -43 0
v -35 -43 0
v -34 -44 0
v -35 -44 0
v -35 -43 0
v -34 -43 0
v -33 -44 0
v -34 -44 0
v -34 -43 0
v -33 -43 0
v -32 -44 0
v -33 -44 0
v -33 -43 0
v -32 -43 0
v -30 -44 0
v -31 -44 0
v -31 -43 0
v -30 -43 0
v -29 -44 0
v -30 -44 0
v -30 -43 0
v -29 -43 0
v -28 -44 0
v -29 -44 0
v -29 -43 0
v -28 -43 0
v -27 -44 0
v -28 -44 0
v -28 -43 0
v -27 -43 0
v -26 -44 0
v -27 -44 0
v -27 -43 0
v -26 -43 0
v -25 -44 0
v -26 -44 0
v -26 -43 0
v -25 -43 0
v -24 -44 0
v -25 -44 0
v -25 -43 0
v -24 -43 0
v -23 -44 0
v -24 -44 0
v -24 -43 0
v -23 -43 0
v -21 -44 0
v -22 -44 0
v -22 -43 0
v -21 -43 0
v -20 -44 0
v -21 -44 0
v -21 -43 0
v -20 -43 0
v -19 -44 0
v -20 -44 0
v -20 -43 0
v -19 -43 0
v -18 -44 0
v -19 -44 0
v -19 -43 0
v -18 -43 0
v -16 -44 0
v -17 -44 0
v -17 -43 0
v -16 -43 0
v -15 -44 0
v -16 -44 0
v -16 -43 0
v -15 -43 0
v -14 -44 0
v -15 -44 0
v -15 -43 0
v -14 -43 0
v -13 -44 0
v -14 -44 0
v -14 -43 0
v -13 -43 0
v -10 -44 0
v -11 -44 0
v -11 -43 0
v -10 -43 0
v -9 -44 0
v -10 -44 0
v -10 -43 0
v -9 -43 0
v -8 -44 0
v -9 -44 0
v -9 -43 0
v -8 -43 0
v -7 -44 0
v -8 -44 0
v -8 -43 0
v -7 -43 0
v -39 -45 0
v -40 -45 0
v -40 -44 0
v -39 -44 0
v -38 -45 0
v -39 -45 0
v -39 -44 0
v -38 -44 0
v -37 -45 0
v -38 -45 0
v -38 -44 0
v -37 -44 0
v -36 -45 0
v -37 -45 0
v -37 -44 0
v -36 -44 0
v -35 -45 0
v -36 -45 0
v -36 -44 0
v -35 -44 0
v -34 -45 0
v -35 -45 0
v -35 -44 0
v -34 -44 0
v -33 -45 0
v -34 -45 0
v -34 -44 0
v -33 -44 0
v -32 -45 0
v -33 -45 0
v -33 -44 0
v -32 -44 0
v -30 -45 0
v -31 -45 0
v -31 -44 0
v -30 -44 0
v -29 -45 0
v -30 -45 0
v -30 -44 0
v -29 -44 0
v -28 -45 0
v -29 -45 0
v -29 -44 0
v -28 -44 0
v -27 -45 0
v -28 -45 0
v -28 -44 0
v -27 -44 0
v -26 -45 0
v -27 -45 0
v -27 -44 0
v -26 -44 0
v -25 -45 0
v -26 -45 0
v -26 -44 0
v -25 -44 0
v -24 -45 0
v -25 -45 0
v -25 -44 0
v -24 -44 0
v -23 -45 0
v -24 -45 0
v -24 -44 0
v -23 -44 0
v -21 -45 0
v -22 -45 0
v -22 -44 0
v -21 -44 0
v -20 -45 0
v -21 -45 0
v -21 -44 0
v -20 -44 0
v -19 -45 0
v -20 -45 0
v -20 -44 0
v -19 -44 0
v -18 -45 0
v -19 -45 0
v -19 -44 0
v -18 -44 0
v -16 -45 0
v -17 -45 0
v -17 -44 0
v -16 -44 0
v -15 -45 0
v -16 -45 0
v -16 -44 0
v -15 -44 0
v -14 -45 0
v -15 -45 0
v -15 -44 0
v -14 -44 0
v -13 -45 0
v -14 -45 0
v -14 -44 0
v -13 -44 0
v -10 -45 0
v -11 -45 0
v -11 -44 0
v -10 -44 0
v -9 -45 0
v -10 -45 0
v -10 -44 0
v -9 -44 0
v -8 -45 0
v -9 -45 0
v -9 -44 0
v -8 -44 0
v -7 -45 0
v -8 -45 0
v -8 -44 0
v -7 -44 0
v -39 -46 0
v -40 -46 0
v -40 -45 0
v -39 -45 0
v -38 -46 0
v -39 -46 0
v -39 -45 0
v -38 -45 0
v -37 -46 0
v -38 -46 0
v -38 -45 0
v -37 -45 0
v -36 -46 0
v -37 -46 0
v -37 -45 0
v -36 -45 0
v -35 -46 0
v -36 -46 0
v -36 -45 0
v -35 -45 0
v -34 -46 0
v -35 -46 0
v -35 -45 0
v -34 -45 0
v -33 -46 0
v -34 -46 0
v -34 -45 0
v -33 -45 0
v -32 -46 0
v -33 -46 0
v -33 -45 0
v -32 -45 0
v -30 -46 0
v -31 -46 0
v -31 -45 0
v -30 -45 0
v -29 -46 0
v -30 -46 0
v -30 -45 0
v -29 -45 0
v -28 -46 0
v -29 -46 0
v -29 -45 0
v -28 -45 0
v -27 -46 0
v -28 -46 0
v -28 -45 0
v -27 -45 0
v -26 -46 0
v -27 -46 0
v -27 -45 0
v -26 -45 0
v -25 -46 0
v -26 -46 0
v -26 -45 0
v -25 -45 0
v -24 -46 0
v -25 -46 0
v -25 -45 0
v -24 -45 0
v -23 -46 0
v -24 -46 0
v -24 -45 0
v -23 -45 0
v -21 -46 0
v -22 -46 0
v -22 -45 0
v -21 -45 0
v -20 -46 0
v -21 -46 0
v -21 -45 0
v -20 -45 0
v -19 -46 0
v -20 -46 0
v -20 -45 0
v -19 -45 0
v -18 -46 0
v -19 -46 0
v -19 -45 0
v -18 -45 0
v -16 -46 0
v -17 -46 0
v -17 -45 0
v -16 -45 0
v -15 -46 0
v -16 -46 0
v -16 -45 0
v -15 -45 0
v -14 -46 0
v -15 -46 0
v -15 -45 0
v -14 -45 0
v -13 -46 0
v -14 -46 0
v -14 -45 0
v -13 -45 0

# Texture cooridinates (Count = 72)
vt 0.3330219 0.1667888
vt 0.3535841 0.1667888
vt 0.3535841 0.1943223
vt 0.3330219 0.1943223
vt 0.3122157 0.1667888
vt 0.3327778 0.1667888
vt 0.3327778 0.1943223
vt 0.3122157 0.1943223
vt 0.2914095 0.1667888
vt 0.3119715 0.1667888
vt 0.3119715 0.1943223
vt 0.2914095 0.1943223
vt 0.3538282 0.1667888
vt 0.3743903 0.1667888
vt 0.3743903 0.1943223
vt 0.3538282 0.1943223
vt 0.2706032 0.1667888
vt 0.2911653 0.1667888
vt 0.2911653 0.1943223
vt 0.2706032 0.1943223
vt 0.3330219 0.139011
vt 0.3535841 0.139011
vt 0.3535841 0.1665446
vt 0.3330219 0.1665446
vt 0.3122157 0.139011
vt 0.3327778 0.139011
vt 0.3327778 0.1665446
vt 0.3122157 0.1665446
vt 0.2914095 0.139011
vt 0.3119715 0.139011
vt 0.3119715 0.1665446
vt 0.2914095 0.1665446
vt 0.3538282 0.139011
vt 0.3743903 0.139011
vt 0.3743903 0.1665446
vt 0.3538282 0.1665446
vt 0.2706032 0.139011
vt 0.2911653 0.139011
vt 0.2911653 0.1665446
vt 0.2706032 0.1665446
vt 0.3330219 0.1112332
vt 0.3535841 0.1112332
vt 0.3535841 0.1387668
vt 0.3330219 0.1387668
vt 0.3122157 0.1112332
vt 0.3327778 0.1112332
vt 0.3327778 0.1387668
vt 0.3122157 0.1387668
vt 0.2914095 0.1112332
vt 0.3119715 0.1112332
vt 0.3119715 0.1387668
vt 0.2914095 0.1387668
vt 0.3538282 0.1112332
vt 0.3743903 0.1112332
vt 0.3743903 0.1387668
vt 0.3538282 0.1387668
vt 0.2706032 0.1112332
vt 0.2911653 0.1112332
vt 0.2911653 0.1387668
vt 0.2706032 0.1387668
vt 0.6243093 0.8612332
vt 0.6448714 0.8612332
vt 0.6448714 0.8887668
vt 0.6243093 0.8887668
vt 0.6035031 0.8612332
vt 0.6240652 0.8612332
vt 0.6240652 0.8887668
vt 0.6035031 0.8887668
vt 0.5826969 0.8612332
vt 0.603259 0.8612332
vt 0.603259 0.8887668
vt 0.5826969 0.8887668

# Normal
vn 0 0 -1

# Mesh description
g UpperKilidMasao_mesh_0005

# Faces
f 1/1/1 2/2/1 3/3/1 4/4/1
f 5/5/1 6/6/1 7/7/1 8/8/1
f 9/9/1 10/10/1 11/11/1 12/12/1
f 13/13/1 14/14/1 15/15/1 16/16/1
f 17/1/1 18/2/1 19/3/1 20/4/1
f 21/5/1 22/6/1 23/7/1 24/8/1
f 25/9/1 26/10/1 27/11/1 28/12/1
f 29/13/1 30/14/1 31/15/1 32/16/1
f 33/1/1 34/2/1 35/3/1 36/4/1
f 37/5/1 38/6/1 39/7/1 40/8/1
f 41/9/1 42/10/1 43/11/1 44/12/1
f 45/17/1 46/18/1 47/19/1 48/20/1
f 49/13/1 50/14/1 51/15/1 52/16/1
f 53/1/1 54/2/1 55/3/1 56/4/1
f 57/5/1 58/6/1 59/7/1 60/8/1
f 61/9/1 62/10/1 63/11/1 64/12/1
f 65/21/1 66/22/1 67/23/1 68/24/1
f 69/25/1 70/26/1 71/27/1 72/28/1
f 73/29/1 74/30/1 75/31/1 76/32/1
f 77/33/1 78/34/1 79/35/1 80/36/1
f 81/21/1 82/22/1 83/23/1 84/24/1
f 85/25/1 86/26/1 87/27/1 88/28/1
f 89/29/1 90/30/1 91/31/1 92/32/1
f 93/33/1 94/34/1 95/35/1 96/36/1
f 97/21/1 98/22/1 99/23/1 100/24/1
f 101/25/1 102/26/1 103/27/1 104/28/1
f 105/29/1 106/30/1 107/31/1 108/32/1
f 109/37/1 110/38/1 111/39/1 112/40/1
f 113/33/1 114/34/1 115/35/1 116/36/1
f 117/21/1 118/22/1 119/23/1 120/24/1
f 121/25/1 122/26/1 123/27/1 124/28/1
f 125/29/1 126/30/1 127/31/1 128/32/1
f 129/13/1 130/14/1 131/15/1 132/16/1
f 133/1/1 134/2/1 135/3/1 136/4/1
f 137/5/1 138/6/1 139/7/1 140/8/1
f 141/9/1 142/10/1 143/11/1 144/12/1
f 145/17/1 146/18/1 147/19/1 148/20/1
f 149/13/1 150/14/1 151/15/1 152/16/1
f 153/1/1 154/2/1 155/3/1 156/4/1
f 157/5/1 158/6/1 159/7/1 160/8/1
f 161/9/1 162/10/1 163/11/1 164/12/1
f 165/17/1 166/18/1 167/19/1 168/20/1
f 169/41/1 170/42/1 171/43/1 172/44/1
f 173/45/1 174/46/1 175/47/1 176/48/1
f 177/49/1 178/50/1 179/51/1 180/52/1
f 181/53/1 182/54/1 183/55/1 184/56/1
f 185/41/1 186/42/1 187/43/1 188/44/1
f 189/45/1 190/46/1 191/47/1 192/48/1
f 193/49/1 194/50/1 195/51/1 196/52/1
f 197/53/1 198/54/1 199/55/1 200/56/1
f 201/41/1 202/42/1 203/43/1 204/44/1
f 205/45/1 206/46/1 207/47/1 208/48/1
f 209/49/1 210/50/1 211/51/1 212/52/1
f 213/57/1 214/58/1 215/59/1 216/60/1
f 217/53/1 218/54/1 219/55/1 220/56/1
f 221/41/1 222/42/1 223/43/1 224/44/1
f 225/45/1 226/46/1 227/47/1 228/48/1
f 229/49/1 230/50/1 231/51/1 232/52/1
f 233/33/1 234/34/1 235/35/1 236/36/1
f 237/21/1 238/22/1 239/23/1 240/24/1
f 241/25/1 242/26/1 243/27/1 244/28/1
f 245/29/1 246/30/1 247/31/1 248/32/1
f 249/37/1 250/38/1 251/39/1 252/40/1
f 253/33/1 254/34/1 255/35/1 256/36/1
f 257/21/1 258/22/1 259/23/1 260/24/1
f 261/25/1 262/26/1 263/27/1 264/28/1
f 265/29/1 266/30/1 267/31/1 268/32/1
f 269/37/1 270/38/1 271/39/1 272/40/1
f 273/1/1 274/2/1 275/3/1 276/4/1
f 277/5/1 278/6/1 279/7/1 280/8/1
f 281/9/1 282/10/1 283/11/1 284/12/1
f 285/17/1 286/18/1 287/19/1 288/20/1
f 289/53/1 290/54/1 291/55/1 292/56/1
f 293/41/1 294/42/1 295/43/1 296/44/1
f 297/45/1 298/46/1 299/47/1 300/48/1
f 301/49/1 302/50/1 303/51/1 304/52/1
f 305/57/1 306/58/1 307/59/1 308/60/1
f 309/53/1 310/54/1 311/55/1 312/56/1
f 313/41/1 314/42/1 315/43/1 316/44/1
f 317/45/1 318/46/1 319/47/1 320/48/1
f 321/49/1 322/50/1 323/51/1 324/52/1
f 325/57/1 326/58/1 327/59/1 328/60/1
f 329/21/1 330/22/1 331/23/1 332/24/1
f 333/25/1 334/26/1 335/27/1 336/28/1
f 337/29/1 338/30/1 339/31/1 340/32/1
f 341/37/1 342/38/1 343/39/1 344/40/1
f 345/53/1 346/54/1 347/55/1 348/56/1
f 349/41/1 350/42/1 351/43/1 352/44/1
f 353/45/1 354/46/1 355/47/1 356/48/1
f 357/49/1 358/50/1 359/51/1 360/52/1
f 361/57/1 362/58/1 363/59/1 364/60/1
f 365/13/1 366/14/1 367/15/1 368/16/1
f 369/1/1 370/2/1 371/3/1 372/4/1
f 373/5/1 374/6/1 375/7/1 376/8/1
f 377/9/1 378/10/1 379/11/1 380/12/1
f 381/17/1 382/18/1 383/19/1 384/20/1
f 385/33/1 386/34/1 387/35/1 388/36/1
f 389/21/1 390/22/1 391/23/1 392/24/1
f 393/25/1 394/26/1 395/27/1 396/28/1
f 397/29/1 398/30/1 399/31/1 400/32/1
f 401/37/1 402/38/1 403/39/1 404/40/1
f 405/41/1 406/42/1 407/43/1 408/44/1
f 409/45/1 410/46/1 411/47/1 412/48/1
f 413/49/1 414/50/1 415/51/1 416/52/1
f 417/57/1 418/58/1 419/59/1 420/60/1
f 421/5/1 422/6/1 423/7/1 424/8/1
f 425/9/1 426/10/1 427/11/1 428/12/1
f 429/17/1 430/18/1 431/19/1 432/20/1
f 433/33/1 434/34/1 435/35/1 436/36/1
f 437/21/1 438/22/1 439/23/1 440/24/1
f 441/25/1 442/26/1 443/27/1 444/28/1
f 445/29/1 446/30/1 447/31/1 448/32/1
f 449/37/1 450/38/1 451/39/1 452/40/1
f 453/53/1 454/54/1 455/55/1 456/56/1
f 457/41/1 458/42/1 459/43/1 460/44/1
f 461/45/1 462/46/1 463/47/1 464/48/1
f 465/49/1 466/50/1 467/51/1 468/52/1
f 469/57/1 470/58/1 471/59/1 472/60/1
f 473/13/1 474/14/1 475/15/1 476/16/1
f 477/1/1 478/2/1 479/3/1 480/4/1
f 481/5/1 482/6/1 483/7/1 484/8/1
f 485/9/1 486/10/1 487/11/1 488/12/1
f 489/33/1 490/34/1 491/35/1 492/36/1
f 493/21/1 494/22/1 495/23/1 496/24/1
f 497/25/1 498/26/1 499/27/1 500/28/1
f 501/29/1 502/30/1 503/31/1 504/32/1
f 505/61/1 506/62/1 507/63/1 508/64/1
f 509/65/1 510/66/1 511/67/1 512/68/1
f 513/69/1 514/70/1 515/71/1 516/72/1
f 517/61/1 518/62/1 519/63/1 520/64/1
f 521/65/1 522/66/1 523/67/1 524/68/1
f 525/69/1 526/70/1 527/71/1 528/72/1
f 529/53/1 530/54/1 531/55/1 532/56/1
f 533/41/1 534/42/1 535/43/1 536/44/1
f 537/45/1 538/46/1 539/47/1 540/48/1
f 541/49/1 542/50/1 543/51/1 544/52/1
f 545/61/1 546/62/1 547/63/1 548/64/1
f 549/65/1 550/66/1 551/67/1 552/68/1
f 553/69/1 554/70/1 555/71/1 556/72/1
f 557/61/1 558/62/1 559/63/1 560/64/1
f 561/65/1 562/66/1 563/67/1 564/68/1
f 565/69/1 566/70/1 567/71/1 568/72/1
f 569/13/1 570/14/1 571/15/1 572/16/1
f 573/1/1 574/2/1 575/3/1 576/4/1
f 577/5/1 578/6/1 579/7/1 580/8/1
f 581/9/1 582/10/1 583/11/1 584/12/1
f 585/33/1 586/34/1 587/35/1 588/36/1
f 589/21/1 590/22/1 591/23/1 592/24/1
f 593/25/1 594/26/1 595/27/1 596/28/1
f 597/29/1 598/30/1 599/31/1 600/32/1
f 601/53/1 602/54/1 603/55/1 604/56/1
f 605/41/1 606/42/1 607/43/1 608/44/1
f 609/45/1 610/46/1 611/47/1 612/48/1
f 613/49/1 614/50/1 615/51/1 616/52/1
f 617/13/1 618/14/1 619/15/1 620/16/1
f 621/1/1 622/2/1 623/3/1 624/4/1
f 625/5/1 626/6/1 627/7/1 628/8/1
f 629/9/1 630/10/1 631/11/1 632/12/1
f 633/13/1 634/14/1 635/15/1 636/16/1
f 637/1/1 638/2/1 639/3/1 640/4/1
f 641/5/1 642/6/1 643/7/1 644/8/1
f 645/9/1 646/10/1 647/11/1 648/12/1
f 649/13/1 650/14/1 651/15/1 652/16/1
f 653/1/1 654/2/1 655/3/1 656/4/1
f 657/5/1 658/6/1 659/7/1 660/8/1
f 661/9/1 662/10/1 663/11/1 664/12/1
f 665/13/1 666/14/1 667/15/1 668/16/1
f 669/1/1 670/2/1 671/3/1 672/4/1
f 673/5/1 674/6/1 675/7/1 676/8/1
f 677/9/1 678/10/1 679/11/1 680/12/1
f 681/13/1 682/14/1 683/15/1 684/16/1
f 685/1/1 686/2/1 687/3/1 688/4/1
f 689/5/1 690/6/1 691/7/1 692/8/1
f 693/9/1 694/10/1 695/11/1 696/12/1
f 697/13/1 698/14/1 699/15/1 700/16/1
f 701/1/1 702/2/1 703/3/1 704/4/1
f 705/5/1 706/6/1 707/7/1 708/8/1
f 709/9/1 710/10/1 711/11/1 712/12/1
f 713/13/1 714/14/1 715/15/1 716/16/1
f 717/1/1 718/2/1 719/3/1 720/4/1
f 721/5/1 722/6/1 723/7/1 724/8/1
f 725/9/1 726/10/1 727/11/1 728/12/1
f 729/33/1 730/34/1 731/35/1 732/36/1
f 733/21/1 734/22/1 735/23/1 736/24/1
f 737/25/1 738/26/1 739/27/1 740/28/1
f 741/29/1 742/30/1 743/31/1 744/32/1
f 745/33/1 746/34/1 747/35/1 748/36/1
f 749/21/1 750/22/1 751/23/1 752/24/1
f 753/25/1 754/26/1 755/27/1 756/28/1
f 757/29/1 758/30/1 759/31/1 760/32/1
f 761/33/1 762/34/1 763/35/1 764/36/1
f 765/21/1 766/22/1 767/23/1 768/24/1
f 769/25/1 770/26/1 771/27/1 772/28/1
f 773/29/1 774/30/1 775/31/1 776/32/1
f 777/33/1 778/34/1 779/35/1 780/36/1
f 781/21/1 782/22/1 783/23/1 784/24/1
f 785/25/1 786/26/1 787/27/1 788/28/1
f 789/29/1 790/30/1 791/31/1 792/32/1
f 793/33/1 794/34/1 795/35/1 796/36/1
f 797/21/1 798/22/1 799/23/1 800/24/1
f 801/25/1 802/26/1 803/27/1 804/28/1
f 805/29/1 806/30/1 807/31/1 808/32/1
f 809/33/1 810/34/1 811/35/1 812/36/1
f 813/21/1 814/22/1 815/23/1 816/24/1
f 817/25/1 818/26/1 819/27/1 820/28/1
f 821/29/1 822/30/1 823/31/1 824/32/1
f 825/33/1 826/34/1 827/35/1 828/36/1
f 829/21/1 830/22/1 831/23/1 832/24/1
f 833/25/1 834/26/1 835/27/1 836/28/1
f 837/29/1 838/30/1 839/31/1 840/32/1
f 841/53/1 842/54/1 843/55/1 844/56/1
f 845/41/1 846/42/1 847/43/1 848/44/1
f 849/45/1 850/46/1 851/47/1 852/48/1
f 853/49/1 854/50/1 855/51/1 856/52/1
f 857/53/1 858/54/1 859/55/1 860/56/1
f 861/41/1 862/42/1 863/43/1 864/44/1
f 865/45/1 866/46/1 867/47/1 868/48/1
f 869/49/1 870/50/1 871/51/1 872/52/1
f 873/53/1 874/54/1 875/55/1 876/56/1
f 877/41/1 878/42/1 879/43/1 880/44/1
f 881/45/1 882/46/1 883/47/1 884/48/1
f 885/49/1 886/50/1 887/51/1 888/52/1
f 889/53/1 890/54/1 891/55/1 892/56/1
f 893/41/1 894/42/1 895/43/1 896/44/1
f 897/45/1 898/46/1 899/47/1 900/48/1
f 901/49/1 902/50/1 903/51/1 904/52/1
f 905/53/1 906/54/1 907/55/1 908/56/1
f 909/41/1 910/42/1 911/43/1 912/44/1
f 913/45/1 914/46/1 915/47/1 916/48/1
f 917/49/1 918/50/1 919/51/1 920/52/1
f 921/53/1 922/54/1 923/55/1 924/56/1
f 925/41/1 926/42/1 927/43/1 928/44/1
f 929/45/1 930/46/1 931/47/1 932/48/1
f 933/49/1 934/50/1 935/51/1 936/52/1
f 937/53/1 938/54/1 939/55/1 940/56/1
f 941/41/1 942/42/1 943/43/1 944/44/1
f 945/45/1 946/46/1 947/47/1 948/48/1
f 949/49/1 950/50/1 951/51/1 952/52/1

