# Tiled2Unity generated file. Do not modify by hand.
# Wavefront file for 'UpperKilidMasao_mesh_0002.obj'

# Vertices (Count = 848)
v -39 -19 0
v -40 -19 0
v -40 -18 0
v -39 -18 0
v -39 -20 0
v -40 -20 0
v -40 -19 0
v -39 -19 0
v -39 -21 0
v -40 -21 0
v -40 -20 0
v -39 -20 0
v -39 -22 0
v -40 -22 0
v -40 -21 0
v -39 -21 0
v -39 -23 0
v -40 -23 0
v -40 -22 0
v -39 -22 0
v -39 -24 0
v -40 -24 0
v -40 -23 0
v -39 -23 0
v -39 -25 0
v -40 -25 0
v -40 -24 0
v -39 -24 0
v -39 -26 0
v -40 -26 0
v -40 -25 0
v -39 -25 0
v -39 -27 0
v -40 -27 0
v -40 -26 0
v -39 -26 0
v -39 -28 0
v -40 -28 0
v -40 -27 0
v -39 -27 0
v -28 -28 0
v -29 -28 0
v -29 -27 0
v -28 -27 0
v -27 -28 0
v -28 -28 0
v -28 -27 0
v -27 -27 0
v -26 -28 0
v -27 -28 0
v -27 -27 0
v -26 -27 0
v -22 -28 0
v -23 -28 0
v -23 -27 0
v -22 -27 0
v -21 -28 0
v -22 -28 0
v -22 -27 0
v -21 -27 0
v -20 -28 0
v -21 -28 0
v -21 -27 0
v -20 -27 0
v -39 -29 0
v -40 -29 0
v -40 -28 0
v -39 -28 0
v -39 -30 0
v -40 -30 0
v -40 -29 0
v -39 -29 0
v -34 -30 0
v -35 -30 0
v -35 -29 0
v -34 -29 0
v -33 -30 0
v -34 -30 0
v -34 -29 0
v -33 -29 0
v -32 -30 0
v -33 -30 0
v -33 -29 0
v -32 -29 0
v -17 -30 0
v -18 -30 0
v -18 -29 0
v -17 -29 0
v -16 -30 0
v -17 -30 0
v -17 -29 0
v -16 -29 0
v -15 -30 0
v -16 -30 0
v -16 -29 0
v -15 -29 0
v -39 -31 0
v -40 -31 0
v -40 -30 0
v -39 -30 0
v -39 -32 0
v -40 -32 0
v -40 -31 0
v -39 -31 0
v 0 -32 0
v -1 -32 0
v -1 -31 0
v 0 -31 0
v -39 -33 0
v -40 -33 0
v -40 -32 0
v -39 -32 0
v 0 -33 0
v -1 -33 0
v -1 -32 0
v 0 -32 0
v -39 -34 0
v -40 -34 0
v -40 -33 0
v -39 -33 0
v 0 -34 0
v -1 -34 0
v -1 -33 0
v 0 -33 0
v 0 -35 0
v -1 -35 0
v -1 -34 0
v 0 -34 0
v 0 -36 0
v -1 -36 0
v -1 -35 0
v 0 -35 0
v 0 -37 0
v -1 -37 0
v -1 -36 0
v 0 -36 0
v -7 -38 0
v -8 -38 0
v -8 -37 0
v -7 -37 0
v 0 -38 0
v -1 -38 0
v -1 -37 0
v 0 -37 0
v -8 -39 0
v -9 -39 0
v -9 -38 0
v -8 -38 0
v -7 -39 0
v -8 -39 0
v -8 -38 0
v -7 -38 0
v 0 -39 0
v -1 -39 0
v -1 -38 0
v 0 -38 0
v -39 -40 0
v -40 -40 0
v -40 -39 0
v -39 -39 0
v -9 -40 0
v -10 -40 0
v -10 -39 0
v -9 -39 0
v -8 -40 0
v -9 -40 0
v -9 -39 0
v -8 -39 0
v 0 -40 0
v -1 -40 0
v -1 -39 0
v 0 -39 0
v -39 -41 0
v -40 -41 0
v -40 -40 0
v -39 -40 0
v -37 -41 0
v -38 -41 0
v -38 -40 0
v -37 -40 0
v -36 -41 0
v -37 -41 0
v -37 -40 0
v -36 -40 0
v -35 -41 0
v -36 -41 0
v -36 -40 0
v -35 -40 0
v -9 -41 0
v -10 -41 0
v -10 -40 0
v -9 -40 0
v -4 -41 0
v -5 -41 0
v -5 -40 0
v -4 -40 0
v -3 -41 0
v -4 -41 0
v -4 -40 0
v -3 -40 0
v -2 -41 0
v -3 -41 0
v -3 -40 0
v -2 -40 0
v 0 -41 0
v -1 -41 0
v -1 -40 0
v 0 -40 0
v -39 -42 0
v -40 -42 0
v -40 -41 0
v -39 -41 0
v -37 -42 0
v -38 -42 0
v -38 -41 0
v -37 -41 0
v -36 -42 0
v -37 -42 0
v -37 -41 0
v -36 -41 0
v -35 -42 0
v -36 -42 0
v -36 -41 0
v -35 -41 0
v -34 -42 0
v -35 -42 0
v -35 -41 0
v -34 -41 0
v -33 -42 0
v -34 -42 0
v -34 -41 0
v -33 -41 0
v -5 -42 0
v -6 -42 0
v -6 -41 0
v -5 -41 0
v -4 -42 0
v -5 -42 0
v -5 -41 0
v -4 -41 0
v -3 -42 0
v -4 -42 0
v -4 -41 0
v -3 -41 0
v -2 -42 0
v -3 -42 0
v -3 -41 0
v -2 -41 0
v 0 -42 0
v -1 -42 0
v -1 -41 0
v 0 -41 0
v -39 -43 0
v -40 -43 0
v -40 -42 0
v -39 -42 0
v -37 -43 0
v -38 -43 0
v -38 -42 0
v -37 -42 0
v -36 -43 0
v -37 -43 0
v -37 -42 0
v -36 -42 0
v -35 -43 0
v -36 -43 0
v -36 -42 0
v -35 -42 0
v -33 -43 0
v -34 -43 0
v -34 -42 0
v -33 -42 0
v -32 -43 0
v -33 -43 0
v -33 -42 0
v -32 -42 0
v -5 -43 0
v -6 -43 0
v -6 -42 0
v -5 -42 0
v -4 -43 0
v -5 -43 0
v -5 -42 0
v -4 -42 0
v -3 -43 0
v -4 -43 0
v -4 -42 0
v -3 -42 0
v -2 -43 0
v -3 -43 0
v -3 -42 0
v -2 -42 0
v 0 -43 0
v -1 -43 0
v -1 -42 0
v 0 -42 0
v -39 -44 0
v -40 -44 0
v -40 -43 0
v -39 -43 0
v -35 -44 0
v -36 -44 0
v -36 -43 0
v -35 -43 0
v -34 -44 0
v -35 -44 0
v -35 -43 0
v -34 -43 0
v -5 -44 0
v -6 -44 0
v -6 -43 0
v -5 -43 0
v -4 -44 0
v -5 -44 0
v -5 -43 0
v -4 -43 0
v -3 -44 0
v -4 -44 0
v -4 -43 0
v -3 -43 0
v -2 -44 0
v -3 -44 0
v -3 -43 0
v -2 -43 0
v 0 -44 0
v -1 -44 0
v -1 -43 0
v 0 -43 0
v -39 -45 0
v -40 -45 0
v -40 -44 0
v -39 -44 0
v -33 -45 0
v -34 -45 0
v -34 -44 0
v -33 -44 0
v -32 -45 0
v -33 -45 0
v -33 -44 0
v -32 -44 0
v -6 -45 0
v -7 -45 0
v -7 -44 0
v -6 -44 0
v -5 -45 0
v -6 -45 0
v -6 -44 0
v -5 -44 0
v -4 -45 0
v -5 -45 0
v -5 -44 0
v -4 -44 0
v -3 -45 0
v -4 -45 0
v -4 -44 0
v -3 -44 0
v 0 -45 0
v -1 -45 0
v -1 -44 0
v 0 -44 0
v -39 -46 0
v -40 -46 0
v -40 -45 0
v -39 -45 0
v -7 -46 0
v -8 -46 0
v -8 -45 0
v -7 -45 0
v -6 -46 0
v -7 -46 0
v -7 -45 0
v -6 -45 0
v -5 -46 0
v -6 -46 0
v -6 -45 0
v -5 -45 0
v -4 -46 0
v -5 -46 0
v -5 -45 0
v -4 -45 0
v -3 -46 0
v -4 -46 0
v -4 -45 0
v -3 -45 0
v 0 -46 0
v -1 -46 0
v -1 -45 0
v 0 -45 0
v -39 -47 0
v -40 -47 0
v -40 -46 0
v -39 -46 0
v -10 -47 0
v -11 -47 0
v -11 -46 0
v -10 -46 0
v -9 -47 0
v -10 -47 0
v -10 -46 0
v -9 -46 0
v -8 -47 0
v -9 -47 0
v -9 -46 0
v -8 -46 0
v -7 -47 0
v -8 -47 0
v -8 -46 0
v -7 -46 0
v -6 -47 0
v -7 -47 0
v -7 -46 0
v -6 -46 0
v -5 -47 0
v -6 -47 0
v -6 -46 0
v -5 -46 0
v -4 -47 0
v -5 -47 0
v -5 -46 0
v -4 -46 0
v -3 -47 0
v -4 -47 0
v -4 -46 0
v -3 -46 0
v 0 -47 0
v -1 -47 0
v -1 -46 0
v 0 -46 0
v -39 -48 0
v -40 -48 0
v -40 -47 0
v -39 -47 0
v -38 -48 0
v -39 -48 0
v -39 -47 0
v -38 -47 0
v -37 -48 0
v -38 -48 0
v -38 -47 0
v -37 -47 0
v -36 -48 0
v -37 -48 0
v -37 -47 0
v -36 -47 0
v -35 -48 0
v -36 -48 0
v -36 -47 0
v -35 -47 0
v -34 -48 0
v -35 -48 0
v -35 -47 0
v -34 -47 0
v -33 -48 0
v -34 -48 0
v -34 -47 0
v -33 -47 0
v -32 -48 0
v -33 -48 0
v -33 -47 0
v -32 -47 0
v -31 -48 0
v -32 -48 0
v -32 -47 0
v -31 -47 0
v -30 -48 0
v -31 -48 0
v -31 -47 0
v -30 -47 0
v -29 -48 0
v -30 -48 0
v -30 -47 0
v -29 -47 0
v -28 -48 0
v -29 -48 0
v -29 -47 0
v -28 -47 0
v -27 -48 0
v -28 -48 0
v -28 -47 0
v -27 -47 0
v -26 -48 0
v -27 -48 0
v -27 -47 0
v -26 -47 0
v -25 -48 0
v -26 -48 0
v -26 -47 0
v -25 -47 0
v -24 -48 0
v -25 -48 0
v -25 -47 0
v -24 -47 0
v -23 -48 0
v -24 -48 0
v -24 -47 0
v -23 -47 0
v -22 -48 0
v -23 -48 0
v -23 -47 0
v -22 -47 0
v -21 -48 0
v -22 -48 0
v -22 -47 0
v -21 -47 0
v -20 -48 0
v -21 -48 0
v -21 -47 0
v -20 -47 0
v -19 -48 0
v -20 -48 0
v -20 -47 0
v -19 -47 0
v -18 -48 0
v -19 -48 0
v -19 -47 0
v -18 -47 0
v -17 -48 0
v -18 -48 0
v -18 -47 0
v -17 -47 0
v -16 -48 0
v -17 -48 0
v -17 -47 0
v -16 -47 0
v -15 -48 0
v -16 -48 0
v -16 -47 0
v -15 -47 0
v -14 -48 0
v -15 -48 0
v -15 -47 0
v -14 -47 0
v -13 -48 0
v -14 -48 0
v -14 -47 0
v -13 -47 0
v -12 -48 0
v -13 -48 0
v -13 -47 0
v -12 -47 0
v -11 -48 0
v -12 -48 0
v -12 -47 0
v -11 -47 0
v -10 -48 0
v -11 -48 0
v -11 -47 0
v -10 -47 0
v -9 -48 0
v -10 -48 0
v -10 -47 0
v -9 -47 0
v -8 -48 0
v -9 -48 0
v -9 -47 0
v -8 -47 0
v -7 -48 0
v -8 -48 0
v -8 -47 0
v -7 -47 0
v -6 -48 0
v -7 -48 0
v -7 -47 0
v -6 -47 0
v -5 -48 0
v -6 -48 0
v -6 -47 0
v -5 -47 0
v -4 -48 0
v -5 -48 0
v -5 -47 0
v -4 -47 0
v 0 -48 0
v -1 -48 0
v -1 -47 0
v 0 -47 0
v -39 -49 0
v -40 -49 0
v -40 -48 0
v -39 -48 0
v -38 -49 0
v -39 -49 0
v -39 -48 0
v -38 -48 0
v -37 -49 0
v -38 -49 0
v -38 -48 0
v -37 -48 0
v -36 -49 0
v -37 -49 0
v -37 -48 0
v -36 -48 0
v -35 -49 0
v -36 -49 0
v -36 -48 0
v -35 -48 0
v -34 -49 0
v -35 -49 0
v -35 -48 0
v -34 -48 0
v -33 -49 0
v -34 -49 0
v -34 -48 0
v -33 -48 0
v -32 -49 0
v -33 -49 0
v -33 -48 0
v -32 -48 0
v -31 -49 0
v -32 -49 0
v -32 -48 0
v -31 -48 0
v -30 -49 0
v -31 -49 0
v -31 -48 0
v -30 -48 0
v -29 -49 0
v -30 -49 0
v -30 -48 0
v -29 -48 0
v -28 -49 0
v -29 -49 0
v -29 -48 0
v -28 -48 0
v -27 -49 0
v -28 -49 0
v -28 -48 0
v -27 -48 0
v -26 -49 0
v -27 -49 0
v -27 -48 0
v -26 -48 0
v -25 -49 0
v -26 -49 0
v -26 -48 0
v -25 -48 0
v -24 -49 0
v -25 -49 0
v -25 -48 0
v -24 -48 0
v -23 -49 0
v -24 -49 0
v -24 -48 0
v -23 -48 0
v -22 -49 0
v -23 -49 0
v -23 -48 0
v -22 -48 0
v -21 -49 0
v -22 -49 0
v -22 -48 0
v -21 -48 0
v -20 -49 0
v -21 -49 0
v -21 -48 0
v -20 -48 0
v -19 -49 0
v -20 -49 0
v -20 -48 0
v -19 -48 0
v -18 -49 0
v -19 -49 0
v -19 -48 0
v -18 -48 0
v -17 -49 0
v -18 -49 0
v -18 -48 0
v -17 -48 0
v -16 -49 0
v -17 -49 0
v -17 -48 0
v -16 -48 0
v -15 -49 0
v -16 -49 0
v -16 -48 0
v -15 -48 0
v -14 -49 0
v -15 -49 0
v -15 -48 0
v -14 -48 0
v -13 -49 0
v -14 -49 0
v -14 -48 0
v -13 -48 0
v -12 -49 0
v -13 -49 0
v -13 -48 0
v -12 -48 0
v -11 -49 0
v -12 -49 0
v -12 -48 0
v -11 -48 0
v -10 -49 0
v -11 -49 0
v -11 -48 0
v -10 -48 0
v -9 -49 0
v -10 -49 0
v -10 -48 0
v -9 -48 0
v -8 -49 0
v -9 -49 0
v -9 -48 0
v -8 -48 0
v -7 -49 0
v -8 -49 0
v -8 -48 0
v -7 -48 0
v -6 -49 0
v -7 -49 0
v -7 -48 0
v -6 -48 0
v 0 -49 0
v -1 -49 0
v -1 -48 0
v 0 -48 0
v -39 -50 0
v -40 -50 0
v -40 -49 0
v -39 -49 0
v -38 -50 0
v -39 -50 0
v -39 -49 0
v -38 -49 0
v -37 -50 0
v -38 -50 0
v -38 -49 0
v -37 -49 0
v -36 -50 0
v -37 -50 0
v -37 -49 0
v -36 -49 0
v -35 -50 0
v -36 -50 0
v -36 -49 0
v -35 -49 0
v -34 -50 0
v -35 -50 0
v -35 -49 0
v -34 -49 0
v -33 -50 0
v -34 -50 0
v -34 -49 0
v -33 -49 0
v -32 -50 0
v -33 -50 0
v -33 -49 0
v -32 -49 0
v -31 -50 0
v -32 -50 0
v -32 -49 0
v -31 -49 0
v -30 -50 0
v -31 -50 0
v -31 -49 0
v -30 -49 0
v -29 -50 0
v -30 -50 0
v -30 -49 0
v -29 -49 0
v -28 -50 0
v -29 -50 0
v -29 -49 0
v -28 -49 0
v -27 -50 0
v -28 -50 0
v -28 -49 0
v -27 -49 0
v -26 -50 0
v -27 -50 0
v -27 -49 0
v -26 -49 0
v -25 -50 0
v -26 -50 0
v -26 -49 0
v -25 -49 0
v -24 -50 0
v -25 -50 0
v -25 -49 0
v -24 -49 0
v -23 -50 0
v -24 -50 0
v -24 -49 0
v -23 -49 0
v -22 -50 0
v -23 -50 0
v -23 -49 0
v -22 -49 0
v -21 -50 0
v -22 -50 0
v -22 -49 0
v -21 -49 0
v -20 -50 0
v -21 -50 0
v -21 -49 0
v -20 -49 0
v -19 -50 0
v -20 -50 0
v -20 -49 0
v -19 -49 0
v -18 -50 0
v -19 -50 0
v -19 -49 0
v -18 -49 0
v -17 -50 0
v -18 -50 0
v -18 -49 0
v -17 -49 0
v -16 -50 0
v -17 -50 0
v -17 -49 0
v -16 -49 0
v -15 -50 0
v -16 -50 0
v -16 -49 0
v -15 -49 0
v -14 -50 0
v -15 -50 0
v -15 -49 0
v -14 -49 0
v -13 -50 0
v -14 -50 0
v -14 -49 0
v -13 -49 0
v -12 -50 0
v -13 -50 0
v -13 -49 0
v -12 -49 0
v -11 -50 0
v -12 -50 0
v -12 -49 0
v -11 -49 0
v -10 -50 0
v -11 -50 0
v -11 -49 0
v -10 -49 0
v -9 -50 0
v -10 -50 0
v -10 -49 0
v -9 -49 0
v -8 -50 0
v -9 -50 0
v -9 -49 0
v -8 -49 0
v 0 -50 0
v -1 -50 0
v -1 -49 0
v 0 -49 0

# Texture cooridinates (Count = 60)
vt 0.04173455 0.610989
vt 0.04173455 0.5834554
vt 0.06229666 0.5834554
vt 0.06229666 0.610989
vt 0.6243093 0.8334554
vt 0.6448714 0.8334554
vt 0.6448714 0.860989
vt 0.6243093 0.860989
vt 0.6035031 0.8334554
vt 0.6240652 0.8334554
vt 0.6240652 0.860989
vt 0.6035031 0.860989
vt 0.5826969 0.8334554
vt 0.603259 0.8334554
vt 0.603259 0.860989
vt 0.5826969 0.860989
vt 0.0001220703 0.7501221
vt 0.02068417 0.7501221
vt 0.02068417 0.7776557
vt 0.0001220703 0.7776557
vt 0.1249595 0.1667888
vt 0.1455216 0.1667888
vt 0.1455216 0.1943223
vt 0.1249595 0.1943223
vt 0.1041533 0.1667888
vt 0.1247154 0.1667888
vt 0.1247154 0.1943223
vt 0.1041533 0.1943223
vt 0.08334704 0.1667888
vt 0.1039091 0.1667888
vt 0.1039091 0.1943223
vt 0.08334704 0.1943223
vt 0.04173455 0.1667888
vt 0.06229666 0.1667888
vt 0.06229666 0.1943223
vt 0.04173455 0.1943223
vt 0.1041533 0.139011
vt 0.1247154 0.139011
vt 0.1247154 0.1665446
vt 0.1041533 0.1665446
vt 0.08334704 0.139011
vt 0.1039091 0.139011
vt 0.1039091 0.1665446
vt 0.08334704 0.1665446
vt 0.1249595 0.139011
vt 0.1455216 0.139011
vt 0.1455216 0.1665446
vt 0.1249595 0.1665446
vt 0.0625408 0.1945665
vt 0.0831029 0.1945665
vt 0.0831029 0.2221001
vt 0.0625408 0.2221001
vt 0.08334704 0.1112332
vt 0.1039091 0.1112332
vt 0.1039091 0.1387668
vt 0.08334704 0.1387668
vt 0.1041533 0.1112332
vt 0.1247154 0.1112332
vt 0.1247154 0.1387668
vt 0.1041533 0.1387668

# Normal
vn 0 0 -1

# Mesh description
g UpperKilidMasao_mesh_0002

# Faces
f 1/1/1 2/2/1 3/3/1 4/4/1
f 5/1/1 6/2/1 7/3/1 8/4/1
f 9/1/1 10/2/1 11/3/1 12/4/1
f 13/1/1 14/2/1 15/3/1 16/4/1
f 17/1/1 18/2/1 19/3/1 20/4/1
f 21/1/1 22/2/1 23/3/1 24/4/1
f 25/1/1 26/2/1 27/3/1 28/4/1
f 29/1/1 30/2/1 31/3/1 32/4/1
f 33/1/1 34/2/1 35/3/1 36/4/1
f 37/1/1 38/2/1 39/3/1 40/4/1
f 41/5/1 42/6/1 43/7/1 44/8/1
f 45/9/1 46/10/1 47/11/1 48/12/1
f 49/13/1 50/14/1 51/15/1 52/16/1
f 53/5/1 54/6/1 55/7/1 56/8/1
f 57/9/1 58/10/1 59/11/1 60/12/1
f 61/13/1 62/14/1 63/15/1 64/16/1
f 65/1/1 66/2/1 67/3/1 68/4/1
f 69/1/1 70/2/1 71/3/1 72/4/1
f 73/5/1 74/6/1 75/7/1 76/8/1
f 77/9/1 78/10/1 79/11/1 80/12/1
f 81/13/1 82/14/1 83/15/1 84/16/1
f 85/5/1 86/6/1 87/7/1 88/8/1
f 89/9/1 90/10/1 91/11/1 92/12/1
f 93/13/1 94/14/1 95/15/1 96/16/1
f 97/1/1 98/2/1 99/3/1 100/4/1
f 101/1/1 102/2/1 103/3/1 104/4/1
f 105/2/1 106/3/1 107/4/1 108/1/1
f 109/1/1 110/2/1 111/3/1 112/4/1
f 113/2/1 114/3/1 115/4/1 116/1/1
f 117/1/1 118/2/1 119/3/1 120/4/1
f 121/2/1 122/3/1 123/4/1 124/1/1
f 125/2/1 126/3/1 127/4/1 128/1/1
f 129/2/1 130/3/1 131/4/1 132/1/1
f 133/2/1 134/3/1 135/4/1 136/1/1
f 137/17/1 138/18/1 139/19/1 140/20/1
f 141/2/1 142/3/1 143/4/1 144/1/1
f 145/17/1 146/18/1 147/19/1 148/20/1
f 149/17/1 150/18/1 151/19/1 152/20/1
f 153/2/1 154/3/1 155/4/1 156/1/1
f 157/1/1 158/2/1 159/3/1 160/4/1
f 161/17/1 162/18/1 163/19/1 164/20/1
f 165/17/1 166/18/1 167/19/1 168/20/1
f 169/2/1 170/3/1 171/4/1 172/1/1
f 173/1/1 174/2/1 175/3/1 176/4/1
f 177/17/1 178/18/1 179/19/1 180/20/1
f 181/17/1 182/18/1 183/19/1 184/20/1
f 185/17/1 186/18/1 187/19/1 188/20/1
f 189/17/1 190/18/1 191/19/1 192/20/1
f 193/21/1 194/22/1 195/23/1 196/24/1
f 197/25/1 198/26/1 199/27/1 200/28/1
f 201/29/1 202/30/1 203/31/1 204/32/1
f 205/2/1 206/3/1 207/4/1 208/1/1
f 209/1/1 210/2/1 211/3/1 212/4/1
f 213/17/1 214/18/1 215/19/1 216/20/1
f 217/17/1 218/18/1 219/19/1 220/20/1
f 221/17/1 222/18/1 223/19/1 224/20/1
f 225/17/1 226/18/1 227/19/1 228/20/1
f 229/17/1 230/18/1 231/19/1 232/20/1
f 233/21/1 234/22/1 235/23/1 236/24/1
f 237/33/1 238/34/1 239/35/1 240/36/1
f 241/37/1 242/38/1 243/39/1 244/40/1
f 245/41/1 246/42/1 247/43/1 248/44/1
f 249/2/1 250/3/1 251/4/1 252/1/1
f 253/1/1 254/2/1 255/3/1 256/4/1
f 257/17/1 258/18/1 259/19/1 260/20/1
f 261/17/1 262/18/1 263/19/1 264/20/1
f 265/17/1 266/18/1 267/19/1 268/20/1
f 269/17/1 270/18/1 271/19/1 272/20/1
f 273/17/1 274/18/1 275/19/1 276/20/1
f 277/45/1 278/46/1 279/47/1 280/48/1
f 281/37/1 282/38/1 283/39/1 284/40/1
f 285/37/1 286/38/1 287/39/1 288/40/1
f 289/41/1 290/42/1 291/43/1 292/44/1
f 293/2/1 294/3/1 295/4/1 296/1/1
f 297/1/1 298/2/1 299/3/1 300/4/1
f 301/17/1 302/18/1 303/19/1 304/20/1
f 305/17/1 306/18/1 307/19/1 308/20/1
f 309/45/1 310/46/1 311/47/1 312/48/1
f 313/37/1 314/38/1 315/39/1 316/40/1
f 317/49/1 318/50/1 319/51/1 320/52/1
f 321/53/1 322/54/1 323/55/1 324/56/1
f 325/2/1 326/3/1 327/4/1 328/1/1
f 329/1/1 330/2/1 331/3/1 332/4/1
f 333/17/1 334/18/1 335/19/1 336/20/1
f 337/17/1 338/18/1 339/19/1 340/20/1
f 341/21/1 342/22/1 343/23/1 344/24/1
f 345/33/1 346/34/1 347/35/1 348/36/1
f 349/37/1 350/38/1 351/39/1 352/40/1
f 353/41/1 354/42/1 355/43/1 356/44/1
f 357/2/1 358/3/1 359/4/1 360/1/1
f 361/1/1 362/2/1 363/3/1 364/4/1
f 365/21/1 366/22/1 367/23/1 368/24/1
f 369/33/1 370/34/1 371/35/1 372/36/1
f 373/37/1 374/38/1 375/39/1 376/40/1
f 377/37/1 378/38/1 379/39/1 380/40/1
f 381/41/1 382/42/1 383/43/1 384/44/1
f 385/2/1 386/3/1 387/4/1 388/1/1
f 389/1/1 390/2/1 391/3/1 392/4/1
f 393/21/1 394/22/1 395/23/1 396/24/1
f 397/25/1 398/26/1 399/27/1 400/28/1
f 401/25/1 402/26/1 403/27/1 404/28/1
f 405/33/1 406/34/1 407/35/1 408/36/1
f 409/37/1 410/38/1 411/39/1 412/40/1
f 413/37/1 414/38/1 415/39/1 416/40/1
f 417/49/1 418/50/1 419/51/1 420/52/1
f 421/53/1 422/54/1 423/55/1 424/56/1
f 425/2/1 426/3/1 427/4/1 428/1/1
f 429/1/1 430/2/1 431/3/1 432/4/1
f 433/25/1 434/26/1 435/27/1 436/28/1
f 437/25/1 438/26/1 439/27/1 440/28/1
f 441/25/1 442/26/1 443/27/1 444/28/1
f 445/25/1 446/26/1 447/27/1 448/28/1
f 449/25/1 450/26/1 451/27/1 452/28/1
f 453/25/1 454/26/1 455/27/1 456/28/1
f 457/25/1 458/26/1 459/27/1 460/28/1
f 461/25/1 462/26/1 463/27/1 464/28/1
f 465/25/1 466/26/1 467/27/1 468/28/1
f 469/25/1 470/26/1 471/27/1 472/28/1
f 473/25/1 474/26/1 475/27/1 476/28/1
f 477/25/1 478/26/1 479/27/1 480/28/1
f 481/25/1 482/26/1 483/27/1 484/28/1
f 485/25/1 486/26/1 487/27/1 488/28/1
f 489/25/1 490/26/1 491/27/1 492/28/1
f 493/25/1 494/26/1 495/27/1 496/28/1
f 497/25/1 498/26/1 499/27/1 500/28/1
f 501/25/1 502/26/1 503/27/1 504/28/1
f 505/25/1 506/26/1 507/27/1 508/28/1
f 509/25/1 510/26/1 511/27/1 512/28/1
f 513/25/1 514/26/1 515/27/1 516/28/1
f 517/25/1 518/26/1 519/27/1 520/28/1
f 521/25/1 522/26/1 523/27/1 524/28/1
f 525/25/1 526/26/1 527/27/1 528/28/1
f 529/25/1 530/26/1 531/27/1 532/28/1
f 533/25/1 534/26/1 535/27/1 536/28/1
f 537/25/1 538/26/1 539/27/1 540/28/1
f 541/25/1 542/26/1 543/27/1 544/28/1
f 545/33/1 546/34/1 547/35/1 548/36/1
f 549/37/1 550/38/1 551/39/1 552/40/1
f 553/37/1 554/38/1 555/39/1 556/40/1
f 557/37/1 558/38/1 559/39/1 560/40/1
f 561/49/1 562/50/1 563/51/1 564/52/1
f 565/57/1 566/58/1 567/59/1 568/60/1
f 569/53/1 570/54/1 571/55/1 572/56/1
f 573/2/1 574/3/1 575/4/1 576/1/1
f 577/33/1 578/34/1 579/35/1 580/36/1
f 581/37/1 582/38/1 583/39/1 584/40/1
f 585/37/1 586/38/1 587/39/1 588/40/1
f 589/37/1 590/38/1 591/39/1 592/40/1
f 593/37/1 594/38/1 595/39/1 596/40/1
f 597/37/1 598/38/1 599/39/1 600/40/1
f 601/37/1 602/38/1 603/39/1 604/40/1
f 605/37/1 606/38/1 607/39/1 608/40/1
f 609/37/1 610/38/1 611/39/1 612/40/1
f 613/37/1 614/38/1 615/39/1 616/40/1
f 617/37/1 618/38/1 619/39/1 620/40/1
f 621/37/1 622/38/1 623/39/1 624/40/1
f 625/37/1 626/38/1 627/39/1 628/40/1
f 629/37/1 630/38/1 631/39/1 632/40/1
f 633/37/1 634/38/1 635/39/1 636/40/1
f 637/37/1 638/38/1 639/39/1 640/40/1
f 641/37/1 642/38/1 643/39/1 644/40/1
f 645/37/1 646/38/1 647/39/1 648/40/1
f 649/37/1 650/38/1 651/39/1 652/40/1
f 653/37/1 654/38/1 655/39/1 656/40/1
f 657/37/1 658/38/1 659/39/1 660/40/1
f 661/37/1 662/38/1 663/39/1 664/40/1
f 665/37/1 666/38/1 667/39/1 668/40/1
f 669/37/1 670/38/1 671/39/1 672/40/1
f 673/37/1 674/38/1 675/39/1 676/40/1
f 677/37/1 678/38/1 679/39/1 680/40/1
f 681/37/1 682/38/1 683/39/1 684/40/1
f 685/37/1 686/38/1 687/39/1 688/40/1
f 689/37/1 690/38/1 691/39/1 692/40/1
f 693/37/1 694/38/1 695/39/1 696/40/1
f 697/37/1 698/38/1 699/39/1 700/40/1
f 701/49/1 702/50/1 703/51/1 704/52/1
f 705/57/1 706/58/1 707/59/1 708/60/1
f 709/53/1 710/54/1 711/55/1 712/56/1
f 713/2/1 714/3/1 715/4/1 716/1/1
f 717/37/1 718/38/1 719/39/1 720/40/1
f 721/37/1 722/38/1 723/39/1 724/40/1
f 725/49/1 726/50/1 727/51/1 728/52/1
f 729/57/1 730/58/1 731/59/1 732/60/1
f 733/57/1 734/58/1 735/59/1 736/60/1
f 737/57/1 738/58/1 739/59/1 740/60/1
f 741/57/1 742/58/1 743/59/1 744/60/1
f 745/57/1 746/58/1 747/59/1 748/60/1
f 749/57/1 750/58/1 751/59/1 752/60/1
f 753/57/1 754/58/1 755/59/1 756/60/1
f 757/57/1 758/58/1 759/59/1 760/60/1
f 761/57/1 762/58/1 763/59/1 764/60/1
f 765/57/1 766/58/1 767/59/1 768/60/1
f 769/57/1 770/58/1 771/59/1 772/60/1
f 773/57/1 774/58/1 775/59/1 776/60/1
f 777/57/1 778/58/1 779/59/1 780/60/1
f 781/57/1 782/58/1 783/59/1 784/60/1
f 785/57/1 786/58/1 787/59/1 788/60/1
f 789/57/1 790/58/1 791/59/1 792/60/1
f 793/57/1 794/58/1 795/59/1 796/60/1
f 797/57/1 798/58/1 799/59/1 800/60/1
f 801/57/1 802/58/1 803/59/1 804/60/1
f 805/57/1 806/58/1 807/59/1 808/60/1
f 809/57/1 810/58/1 811/59/1 812/60/1
f 813/57/1 814/58/1 815/59/1 816/60/1
f 817/57/1 818/58/1 819/59/1 820/60/1
f 821/57/1 822/58/1 823/59/1 824/60/1
f 825/57/1 826/58/1 827/59/1 828/60/1
f 829/57/1 830/58/1 831/59/1 832/60/1
f 833/57/1 834/58/1 835/59/1 836/60/1
f 837/57/1 838/58/1 839/59/1 840/60/1
f 841/53/1 842/54/1 843/55/1 844/56/1
f 845/2/1 846/3/1 847/4/1 848/1/1

