# Tiled2Unity generated file. Do not modify by hand.
# Wavefront file for 'UpperKilidMasao_mesh_0004.obj'

# Vertices (Count = 612)
v -33 -19 0
v -34 -19 0
v -34 -18 0
v -33 -18 0
v -32 -19 0
v -33 -19 0
v -33 -18 0
v -32 -18 0
v -31 -19 0
v -32 -19 0
v -32 -18 0
v -31 -18 0
v -30 -19 0
v -31 -19 0
v -31 -18 0
v -30 -18 0
v -33 -20 0
v -34 -20 0
v -34 -19 0
v -33 -19 0
v -32 -20 0
v -33 -20 0
v -33 -19 0
v -32 -19 0
v -31 -20 0
v -32 -20 0
v -32 -19 0
v -31 -19 0
v -30 -20 0
v -31 -20 0
v -31 -19 0
v -30 -19 0
v -21 -20 0
v -22 -20 0
v -22 -19 0
v -21 -19 0
v -20 -20 0
v -21 -20 0
v -21 -19 0
v -20 -19 0
v -19 -20 0
v -20 -20 0
v -20 -19 0
v -19 -19 0
v -18 -20 0
v -19 -20 0
v -19 -19 0
v -18 -19 0
v -33 -21 0
v -34 -21 0
v -34 -20 0
v -33 -20 0
v -32 -21 0
v -33 -21 0
v -33 -20 0
v -32 -20 0
v -31 -21 0
v -32 -21 0
v -32 -20 0
v -31 -20 0
v -30 -21 0
v -31 -21 0
v -31 -20 0
v -30 -20 0
v -21 -21 0
v -22 -21 0
v -22 -20 0
v -21 -20 0
v -20 -21 0
v -21 -21 0
v -21 -20 0
v -20 -20 0
v -19 -21 0
v -20 -21 0
v -20 -20 0
v -19 -20 0
v -18 -21 0
v -19 -21 0
v -19 -20 0
v -18 -20 0
v -33 -22 0
v -34 -22 0
v -34 -21 0
v -33 -21 0
v -32 -22 0
v -33 -22 0
v -33 -21 0
v -32 -21 0
v -31 -22 0
v -32 -22 0
v -32 -21 0
v -31 -21 0
v -30 -22 0
v -31 -22 0
v -31 -21 0
v -30 -21 0
v -21 -22 0
v -22 -22 0
v -22 -21 0
v -21 -21 0
v -20 -22 0
v -21 -22 0
v -21 -21 0
v -20 -21 0
v -19 -22 0
v -20 -22 0
v -20 -21 0
v -19 -21 0
v -18 -22 0
v -19 -22 0
v -19 -21 0
v -18 -21 0
v -33 -23 0
v -34 -23 0
v -34 -22 0
v -33 -22 0
v -32 -23 0
v -33 -23 0
v -33 -22 0
v -32 -22 0
v -31 -23 0
v -32 -23 0
v -32 -22 0
v -31 -22 0
v -30 -23 0
v -31 -23 0
v -31 -22 0
v -30 -22 0
v -21 -23 0
v -22 -23 0
v -22 -22 0
v -21 -22 0
v -20 -23 0
v -21 -23 0
v -21 -22 0
v -20 -22 0
v -19 -23 0
v -20 -23 0
v -20 -22 0
v -19 -22 0
v -18 -23 0
v -19 -23 0
v -19 -22 0
v -18 -22 0
v -12 -23 0
v -13 -23 0
v -13 -22 0
v -12 -22 0
v -11 -23 0
v -12 -23 0
v -12 -22 0
v -11 -22 0
v -10 -23 0
v -11 -23 0
v -11 -22 0
v -10 -22 0
v -9 -23 0
v -10 -23 0
v -10 -22 0
v -9 -22 0
v -21 -24 0
v -22 -24 0
v -22 -23 0
v -21 -23 0
v -20 -24 0
v -21 -24 0
v -21 -23 0
v -20 -23 0
v -19 -24 0
v -20 -24 0
v -20 -23 0
v -19 -23 0
v -18 -24 0
v -19 -24 0
v -19 -23 0
v -18 -23 0
v -12 -24 0
v -13 -24 0
v -13 -23 0
v -12 -23 0
v -11 -24 0
v -12 -24 0
v -12 -23 0
v -11 -23 0
v -10 -24 0
v -11 -24 0
v -11 -23 0
v -10 -23 0
v -9 -24 0
v -10 -24 0
v -10 -23 0
v -9 -23 0
v -12 -25 0
v -13 -25 0
v -13 -24 0
v -12 -24 0
v -11 -25 0
v -12 -25 0
v -12 -24 0
v -11 -24 0
v -10 -25 0
v -11 -25 0
v -11 -24 0
v -10 -24 0
v -9 -25 0
v -10 -25 0
v -10 -24 0
v -9 -24 0
v -12 -26 0
v -13 -26 0
v -13 -25 0
v -12 -25 0
v -11 -26 0
v -12 -26 0
v -12 -25 0
v -11 -25 0
v -10 -26 0
v -11 -26 0
v -11 -25 0
v -10 -25 0
v -9 -26 0
v -10 -26 0
v -10 -25 0
v -9 -25 0
v -12 -27 0
v -13 -27 0
v -13 -26 0
v -12 -26 0
v -11 -27 0
v -12 -27 0
v -12 -26 0
v -11 -26 0
v -10 -27 0
v -11 -27 0
v -11 -26 0
v -10 -26 0
v -9 -27 0
v -10 -27 0
v -10 -26 0
v -9 -26 0
v -6 -29 0
v -7 -29 0
v -7 -28 0
v -6 -28 0
v -5 -29 0
v -6 -29 0
v -6 -28 0
v -5 -28 0
v -4 -29 0
v -5 -29 0
v -5 -28 0
v -4 -28 0
v -3 -29 0
v -4 -29 0
v -4 -28 0
v -3 -28 0
v -6 -30 0
v -7 -30 0
v -7 -29 0
v -6 -29 0
v -5 -30 0
v -6 -30 0
v -6 -29 0
v -5 -29 0
v -4 -30 0
v -5 -30 0
v -5 -29 0
v -4 -29 0
v -3 -30 0
v -4 -30 0
v -4 -29 0
v -3 -29 0
v -6 -31 0
v -7 -31 0
v -7 -30 0
v -6 -30 0
v -5 -31 0
v -6 -31 0
v -6 -30 0
v -5 -30 0
v -4 -31 0
v -5 -31 0
v -5 -30 0
v -4 -30 0
v -3 -31 0
v -4 -31 0
v -4 -30 0
v -3 -30 0
v -6 -32 0
v -7 -32 0
v -7 -31 0
v -6 -31 0
v -5 -32 0
v -6 -32 0
v -6 -31 0
v -5 -31 0
v -4 -32 0
v -5 -32 0
v -5 -31 0
v -4 -31 0
v -3 -32 0
v -4 -32 0
v -4 -31 0
v -3 -31 0
v -6 -33 0
v -7 -33 0
v -7 -32 0
v -6 -32 0
v -5 -33 0
v -6 -33 0
v -6 -32 0
v -5 -32 0
v -4 -33 0
v -5 -33 0
v -5 -32 0
v -4 -32 0
v -3 -33 0
v -4 -33 0
v -4 -32 0
v -3 -32 0
v -12 -40 0
v -13 -40 0
v -13 -39 0
v -12 -39 0
v -11 -40 0
v -12 -40 0
v -12 -39 0
v -11 -39 0
v -10 -40 0
v -11 -40 0
v -11 -39 0
v -10 -39 0
v -12 -41 0
v -13 -41 0
v -13 -40 0
v -12 -40 0
v -11 -41 0
v -12 -41 0
v -12 -40 0
v -11 -40 0
v -10 -41 0
v -11 -41 0
v -11 -40 0
v -10 -40 0
v -30 -42 0
v -31 -42 0
v -31 -41 0
v -30 -41 0
v -29 -42 0
v -30 -42 0
v -30 -41 0
v -29 -41 0
v -28 -42 0
v -29 -42 0
v -29 -41 0
v -28 -41 0
v -27 -42 0
v -28 -42 0
v -28 -41 0
v -27 -41 0
v -26 -42 0
v -27 -42 0
v -27 -41 0
v -26 -41 0
v -25 -42 0
v -26 -42 0
v -26 -41 0
v -25 -41 0
v -24 -42 0
v -25 -42 0
v -25 -41 0
v -24 -41 0
v -23 -42 0
v -24 -42 0
v -24 -41 0
v -23 -41 0
v -22 -42 0
v -23 -42 0
v -23 -41 0
v -22 -41 0
v -12 -42 0
v -13 -42 0
v -13 -41 0
v -12 -41 0
v -11 -42 0
v -12 -42 0
v -12 -41 0
v -11 -41 0
v -10 -42 0
v -11 -42 0
v -11 -41 0
v -10 -41 0
v -30 -43 0
v -31 -43 0
v -31 -42 0
v -30 -42 0
v -29 -43 0
v -30 -43 0
v -30 -42 0
v -29 -42 0
v -28 -43 0
v -29 -43 0
v -29 -42 0
v -28 -42 0
v -27 -43 0
v -28 -43 0
v -28 -42 0
v -27 -42 0
v -26 -43 0
v -27 -43 0
v -27 -42 0
v -26 -42 0
v -25 -43 0
v -26 -43 0
v -26 -42 0
v -25 -42 0
v -24 -43 0
v -25 -43 0
v -25 -42 0
v -24 -42 0
v -23 -43 0
v -24 -43 0
v -24 -42 0
v -23 -42 0
v -22 -43 0
v -23 -43 0
v -23 -42 0
v -22 -42 0
v -20 -43 0
v -21 -43 0
v -21 -42 0
v -20 -42 0
v -19 -43 0
v -20 -43 0
v -20 -42 0
v -19 -42 0
v -18 -43 0
v -19 -43 0
v -19 -42 0
v -18 -42 0
v -17 -43 0
v -18 -43 0
v -18 -42 0
v -17 -42 0
v -16 -43 0
v -17 -43 0
v -17 -42 0
v -16 -42 0
v -15 -43 0
v -16 -43 0
v -16 -42 0
v -15 -42 0
v -14 -43 0
v -15 -43 0
v -15 -42 0
v -14 -42 0
v -30 -44 0
v -31 -44 0
v -31 -43 0
v -30 -43 0
v -29 -44 0
v -30 -44 0
v -30 -43 0
v -29 -43 0
v -28 -44 0
v -29 -44 0
v -29 -43 0
v -28 -43 0
v -27 -44 0
v -28 -44 0
v -28 -43 0
v -27 -43 0
v -26 -44 0
v -27 -44 0
v -27 -43 0
v -26 -43 0
v -25 -44 0
v -26 -44 0
v -26 -43 0
v -25 -43 0
v -24 -44 0
v -25 -44 0
v -25 -43 0
v -24 -43 0
v -23 -44 0
v -24 -44 0
v -24 -43 0
v -23 -43 0
v -22 -44 0
v -23 -44 0
v -23 -43 0
v -22 -43 0
v -20 -44 0
v -21 -44 0
v -21 -43 0
v -20 -43 0
v -19 -44 0
v -20 -44 0
v -20 -43 0
v -19 -43 0
v -18 -44 0
v -19 -44 0
v -19 -43 0
v -18 -43 0
v -17 -44 0
v -18 -44 0
v -18 -43 0
v -17 -43 0
v -16 -44 0
v -17 -44 0
v -17 -43 0
v -16 -43 0
v -15 -44 0
v -16 -44 0
v -16 -43 0
v -15 -43 0
v -14 -44 0
v -15 -44 0
v -15 -43 0
v -14 -43 0
v -30 -45 0
v -31 -45 0
v -31 -44 0
v -30 -44 0
v -29 -45 0
v -30 -45 0
v -30 -44 0
v -29 -44 0
v -28 -45 0
v -29 -45 0
v -29 -44 0
v -28 -44 0
v -27 -45 0
v -28 -45 0
v -28 -44 0
v -27 -44 0
v -26 -45 0
v -27 -45 0
v -27 -44 0
v -26 -44 0
v -25 -45 0
v -26 -45 0
v -26 -44 0
v -25 -44 0
v -24 -45 0
v -25 -45 0
v -25 -44 0
v -24 -44 0
v -23 -45 0
v -24 -45 0
v -24 -44 0
v -23 -44 0
v -22 -45 0
v -23 -45 0
v -23 -44 0
v -22 -44 0
v -20 -45 0
v -21 -45 0
v -21 -44 0
v -20 -44 0
v -19 -45 0
v -20 -45 0
v -20 -44 0
v -19 -44 0
v -18 -45 0
v -19 -45 0
v -19 -44 0
v -18 -44 0
v -17 -45 0
v -18 -45 0
v -18 -44 0
v -17 -44 0
v -16 -45 0
v -17 -45 0
v -17 -44 0
v -16 -44 0
v -15 -45 0
v -16 -45 0
v -16 -44 0
v -15 -44 0
v -14 -45 0
v -15 -45 0
v -15 -44 0
v -14 -44 0
v -20 -46 0
v -21 -46 0
v -21 -45 0
v -20 -45 0
v -19 -46 0
v -20 -46 0
v -20 -45 0
v -19 -45 0
v -18 -46 0
v -19 -46 0
v -19 -45 0
v -18 -45 0
v -17 -46 0
v -18 -46 0
v -18 -45 0
v -17 -45 0
v -16 -46 0
v -17 -46 0
v -17 -45 0
v -16 -45 0
v -15 -46 0
v -16 -46 0
v -16 -45 0
v -15 -45 0
v -14 -46 0
v -15 -46 0
v -15 -45 0
v -14 -45 0

# Texture cooridinates (Count = 131)
vt 0.6896552 0.2894737
vt 0.7068965 0.2894737
vt 0.7068965 0.3157895
vt 0.6896552 0.3157895
vt 0.6724138 0.2894737
vt 0.6724138 0.3157895
vt 0.6551724 0.2894737
vt 0.6551724 0.3157895
vt 0.637931 0.2894737
vt 0.637931 0.3157895
vt 0.6896552 0.2631579
vt 0.7068965 0.2631579
vt 0.6724138 0.2631579
vt 0.6551724 0.2631579
vt 0.637931 0.2631579
vt 0.6896552 0.2368421
vt 0.7068965 0.2368421
vt 0.6724138 0.2368421
vt 0.6551724 0.2368421
vt 0.637931 0.2368421
vt 0.6896552 0.2105263
vt 0.7068965 0.2105263
vt 0.6724138 0.2105263
vt 0.6551724 0.2105263
vt 0.637931 0.2105263
vt 0.6896552 0.1842105
vt 0.7068965 0.1842105
vt 0.6724138 0.1842105
vt 0.6551724 0.1842105
vt 0.637931 0.1842105
vt 0.362069 0.9473684
vt 0.3793103 0.9473684
vt 0.3793103 0.9736842
vt 0.362069 0.9736842
vt 0.3448276 0.9473684
vt 0.3448276 0.9736842
vt 0.3275862 0.9473684
vt 0.3275862 0.9736842
vt 0.362069 0.9210526
vt 0.3793103 0.9210526
vt 0.3448276 0.9210526
vt 0.3275862 0.9210526
vt 0.1551724 0.1052632
vt 0.1724138 0.1052632
vt 0.1724138 0.1315789
vt 0.1551724 0.1315789
vt 0.137931 0.1052632
vt 0.137931 0.1315789
vt 0.1206897 0.1052632
vt 0.1206897 0.1315789
vt 0.1034483 0.1052632
vt 0.1034483 0.1315789
vt 0.0862069 0.1052632
vt 0.0862069 0.1315789
vt 0.06896552 0.1052632
vt 0.06896552 0.1315789
vt 0.05172414 0.1052632
vt 0.05172414 0.1315789
vt 0.03448276 0.1052632
vt 0.03448276 0.1315789
vt 0.01724138 0.1052632
vt 0.01724138 0.1315789
vt 0.362069 0.8947368
vt 0.3793103 0.8947368
vt 0.3448276 0.8947368
vt 0.3275862 0.8947368
vt 0.1551724 0.07894737
vt 0.1724138 0.07894737
vt 0.137931 0.07894737
vt 0.1206897 0.07894737
vt 0.1034483 0.07894737
vt 0.0862069 0.07894737
vt 0.06896552 0.07894737
vt 0.05172414 0.07894737
vt 0.03448276 0.07894737
vt 0.01724138 0.07894737
vt 0.2758621 0.1052632
vt 0.2931035 0.1052632
vt 0.2931035 0.1315789
vt 0.2758621 0.1315789
vt 0.2586207 0.1052632
vt 0.2586207 0.1315789
vt 0.2413793 0.1052632
vt 0.2413793 0.1315789
vt 0.2241379 0.1052632
vt 0.2241379 0.1315789
vt 0.2068966 0.1052632
vt 0.2068966 0.1315789
vt 0.1896552 0.1052632
vt 0.1896552 0.1315789
vt 0.1551724 0.05263156
vt 0.1724138 0.05263156
vt 0.137931 0.05263156
vt 0.1206897 0.05263156
vt 0.1034483 0.05263156
vt 0.0862069 0.05263156
vt 0.06896552 0.05263156
vt 0.05172414 0.05263156
vt 0.03448276 0.05263156
vt 0.01724138 0.05263156
vt 0.2758621 0.07894737
vt 0.2931035 0.07894737
vt 0.2586207 0.07894737
vt 0.2413793 0.07894737
vt 0.2241379 0.07894737
vt 0.2068966 0.07894737
vt 0.1896552 0.07894737
vt 0.1551724 0.02631581
vt 0.1724138 0.02631581
vt 0.137931 0.02631581
vt 0.1206897 0.02631581
vt 0.1034483 0.02631581
vt 0.0862069 0.02631581
vt 0.06896552 0.02631581
vt 0.05172414 0.02631581
vt 0.03448276 0.02631581
vt 0.01724138 0.02631581
vt 0.2758621 0.05263156
vt 0.2931035 0.05263156
vt 0.2586207 0.05263156
vt 0.2413793 0.05263156
vt 0.2241379 0.05263156
vt 0.2068966 0.05263156
vt 0.1896552 0.05263156
vt 0.2758621 0.02631581
vt 0.2931035 0.02631581
vt 0.2586207 0.02631581
vt 0.2413793 0.02631581
vt 0.2241379 0.02631581
vt 0.2068966 0.02631581
vt 0.1896552 0.02631581

# Normal
vn 0 0 -1

# Mesh description
g UpperKilidMasao_mesh_0004

# Faces
f 1/1/1 2/2/1 3/3/1 4/4/1
f 5/5/1 6/1/1 7/4/1 8/6/1
f 9/7/1 10/5/1 11/6/1 12/8/1
f 13/9/1 14/7/1 15/8/1 16/10/1
f 17/11/1 18/12/1 19/2/1 20/1/1
f 21/13/1 22/11/1 23/1/1 24/5/1
f 25/14/1 26/13/1 27/5/1 28/7/1
f 29/15/1 30/14/1 31/7/1 32/9/1
f 33/1/1 34/2/1 35/3/1 36/4/1
f 37/5/1 38/1/1 39/4/1 40/6/1
f 41/7/1 42/5/1 43/6/1 44/8/1
f 45/9/1 46/7/1 47/8/1 48/10/1
f 49/16/1 50/17/1 51/12/1 52/11/1
f 53/18/1 54/16/1 55/11/1 56/13/1
f 57/19/1 58/18/1 59/13/1 60/14/1
f 61/20/1 62/19/1 63/14/1 64/15/1
f 65/11/1 66/12/1 67/2/1 68/1/1
f 69/13/1 70/11/1 71/1/1 72/5/1
f 73/14/1 74/13/1 75/5/1 76/7/1
f 77/15/1 78/14/1 79/7/1 80/9/1
f 81/21/1 82/22/1 83/17/1 84/16/1
f 85/23/1 86/21/1 87/16/1 88/18/1
f 89/24/1 90/23/1 91/18/1 92/19/1
f 93/25/1 94/24/1 95/19/1 96/20/1
f 97/16/1 98/17/1 99/12/1 100/11/1
f 101/18/1 102/16/1 103/11/1 104/13/1
f 105/19/1 106/18/1 107/13/1 108/14/1
f 109/20/1 110/19/1 111/14/1 112/15/1
f 113/26/1 114/27/1 115/22/1 116/21/1
f 117/28/1 118/26/1 119/21/1 120/23/1
f 121/29/1 122/28/1 123/23/1 124/24/1
f 125/30/1 126/29/1 127/24/1 128/25/1
f 129/21/1 130/22/1 131/17/1 132/16/1
f 133/23/1 134/21/1 135/16/1 136/18/1
f 137/24/1 138/23/1 139/18/1 140/19/1
f 141/25/1 142/24/1 143/19/1 144/20/1
f 145/1/1 146/2/1 147/3/1 148/4/1
f 149/5/1 150/1/1 151/4/1 152/6/1
f 153/7/1 154/5/1 155/6/1 156/8/1
f 157/9/1 158/7/1 159/8/1 160/10/1
f 161/26/1 162/27/1 163/22/1 164/21/1
f 165/28/1 166/26/1 167/21/1 168/23/1
f 169/29/1 170/28/1 171/23/1 172/24/1
f 173/30/1 174/29/1 175/24/1 176/25/1
f 177/11/1 178/12/1 179/2/1 180/1/1
f 181/13/1 182/11/1 183/1/1 184/5/1
f 185/14/1 186/13/1 187/5/1 188/7/1
f 189/15/1 190/14/1 191/7/1 192/9/1
f 193/16/1 194/17/1 195/12/1 196/11/1
f 197/18/1 198/16/1 199/11/1 200/13/1
f 201/19/1 202/18/1 203/13/1 204/14/1
f 205/20/1 206/19/1 207/14/1 208/15/1
f 209/21/1 210/22/1 211/17/1 212/16/1
f 213/23/1 214/21/1 215/16/1 216/18/1
f 217/24/1 218/23/1 219/18/1 220/19/1
f 221/25/1 222/24/1 223/19/1 224/20/1
f 225/26/1 226/27/1 227/22/1 228/21/1
f 229/28/1 230/26/1 231/21/1 232/23/1
f 233/29/1 234/28/1 235/23/1 236/24/1
f 237/30/1 238/29/1 239/24/1 240/25/1
f 241/1/1 242/2/1 243/3/1 244/4/1
f 245/5/1 246/1/1 247/4/1 248/6/1
f 249/7/1 250/5/1 251/6/1 252/8/1
f 253/9/1 254/7/1 255/8/1 256/10/1
f 257/11/1 258/12/1 259/2/1 260/1/1
f 261/13/1 262/11/1 263/1/1 264/5/1
f 265/14/1 266/13/1 267/5/1 268/7/1
f 269/15/1 270/14/1 271/7/1 272/9/1
f 273/16/1 274/17/1 275/12/1 276/11/1
f 277/18/1 278/16/1 279/11/1 280/13/1
f 281/19/1 282/18/1 283/13/1 284/14/1
f 285/20/1 286/19/1 287/14/1 288/15/1
f 289/21/1 290/22/1 291/17/1 292/16/1
f 293/23/1 294/21/1 295/16/1 296/18/1
f 297/24/1 298/23/1 299/18/1 300/19/1
f 301/25/1 302/24/1 303/19/1 304/20/1
f 305/26/1 306/27/1 307/22/1 308/21/1
f 309/28/1 310/26/1 311/21/1 312/23/1
f 313/29/1 314/28/1 315/23/1 316/24/1
f 317/30/1 318/29/1 319/24/1 320/25/1
f 321/31/1 322/32/1 323/33/1 324/34/1
f 325/35/1 326/31/1 327/34/1 328/36/1
f 329/37/1 330/35/1 331/36/1 332/38/1
f 333/39/1 334/40/1 335/32/1 336/31/1
f 337/41/1 338/39/1 339/31/1 340/35/1
f 341/42/1 342/41/1 343/35/1 344/37/1
f 345/43/1 346/44/1 347/45/1 348/46/1
f 349/47/1 350/43/1 351/46/1 352/48/1
f 353/49/1 354/47/1 355/48/1 356/50/1
f 357/51/1 358/49/1 359/50/1 360/52/1
f 361/53/1 362/51/1 363/52/1 364/54/1
f 365/55/1 366/53/1 367/54/1 368/56/1
f 369/57/1 370/55/1 371/56/1 372/58/1
f 373/59/1 374/57/1 375/58/1 376/60/1
f 377/61/1 378/59/1 379/60/1 380/62/1
f 381/63/1 382/64/1 383/40/1 384/39/1
f 385/65/1 386/63/1 387/39/1 388/41/1
f 389/66/1 390/65/1 391/41/1 392/42/1
f 393/67/1 394/68/1 395/44/1 396/43/1
f 397/69/1 398/67/1 399/43/1 400/47/1
f 401/70/1 402/69/1 403/47/1 404/49/1
f 405/71/1 406/70/1 407/49/1 408/51/1
f 409/72/1 410/71/1 411/51/1 412/53/1
f 413/73/1 414/72/1 415/53/1 416/55/1
f 417/74/1 418/73/1 419/55/1 420/57/1
f 421/75/1 422/74/1 423/57/1 424/59/1
f 425/76/1 426/75/1 427/59/1 428/61/1
f 429/77/1 430/78/1 431/79/1 432/80/1
f 433/81/1 434/77/1 435/80/1 436/82/1
f 437/83/1 438/81/1 439/82/1 440/84/1
f 441/85/1 442/83/1 443/84/1 444/86/1
f 445/87/1 446/85/1 447/86/1 448/88/1
f 449/89/1 450/87/1 451/88/1 452/90/1
f 453/44/1 454/89/1 455/90/1 456/45/1
f 457/91/1 458/92/1 459/68/1 460/67/1
f 461/93/1 462/91/1 463/67/1 464/69/1
f 465/94/1 466/93/1 467/69/1 468/70/1
f 469/95/1 470/94/1 471/70/1 472/71/1
f 473/96/1 474/95/1 475/71/1 476/72/1
f 477/97/1 478/96/1 479/72/1 480/73/1
f 481/98/1 482/97/1 483/73/1 484/74/1
f 485/99/1 486/98/1 487/74/1 488/75/1
f 489/100/1 490/99/1 491/75/1 492/76/1
f 493/101/1 494/102/1 495/78/1 496/77/1
f 497/103/1 498/101/1 499/77/1 500/81/1
f 501/104/1 502/103/1 503/81/1 504/83/1
f 505/105/1 506/104/1 507/83/1 508/85/1
f 509/106/1 510/105/1 511/85/1 512/87/1
f 513/107/1 514/106/1 515/87/1 516/89/1
f 517/68/1 518/107/1 519/89/1 520/44/1
f 521/108/1 522/109/1 523/92/1 524/91/1
f 525/110/1 526/108/1 527/91/1 528/93/1
f 529/111/1 530/110/1 531/93/1 532/94/1
f 533/112/1 534/111/1 535/94/1 536/95/1
f 537/113/1 538/112/1 539/95/1 540/96/1
f 541/114/1 542/113/1 543/96/1 544/97/1
f 545/115/1 546/114/1 547/97/1 548/98/1
f 549/116/1 550/115/1 551/98/1 552/99/1
f 553/117/1 554/116/1 555/99/1 556/100/1
f 557/118/1 558/119/1 559/102/1 560/101/1
f 561/120/1 562/118/1 563/101/1 564/103/1
f 565/121/1 566/120/1 567/103/1 568/104/1
f 569/122/1 570/121/1 571/104/1 572/105/1
f 573/123/1 574/122/1 575/105/1 576/106/1
f 577/124/1 578/123/1 579/106/1 580/107/1
f 581/92/1 582/124/1 583/107/1 584/68/1
f 585/125/1 586/126/1 587/119/1 588/118/1
f 589/127/1 590/125/1 591/118/1 592/120/1
f 593/128/1 594/127/1 595/120/1 596/121/1
f 597/129/1 598/128/1 599/121/1 600/122/1
f 601/130/1 602/129/1 603/122/1 604/123/1
f 605/131/1 606/130/1 607/123/1 608/124/1
f 609/109/1 610/131/1 611/124/1 612/92/1

