# Tiled2Unity generated file. Do not modify by hand.
# Wavefront file for 'TaasButuanGardens_mesh_0006.obj'

# Vertices (Count = 448)
v -29 -6 0
v -30 -6 0
v -30 -5 0
v -29 -5 0
v -28 -6 0
v -29 -6 0
v -29 -5 0
v -28 -5 0
v -27 -6 0
v -28 -6 0
v -28 -5 0
v -27 -5 0
v -26 -6 0
v -27 -6 0
v -27 -5 0
v -26 -5 0
v -25 -6 0
v -26 -6 0
v -26 -5 0
v -25 -5 0
v -24 -6 0
v -25 -6 0
v -25 -5 0
v -24 -5 0
v -23 -6 0
v -24 -6 0
v -24 -5 0
v -23 -5 0
v -29 -7 0
v -30 -7 0
v -30 -6 0
v -29 -6 0
v -28 -7 0
v -29 -7 0
v -29 -6 0
v -28 -6 0
v -27 -7 0
v -28 -7 0
v -28 -6 0
v -27 -6 0
v -26 -7 0
v -27 -7 0
v -27 -6 0
v -26 -6 0
v -25 -7 0
v -26 -7 0
v -26 -6 0
v -25 -6 0
v -24 -7 0
v -25 -7 0
v -25 -6 0
v -24 -6 0
v -23 -7 0
v -24 -7 0
v -24 -6 0
v -23 -6 0
v -29 -8 0
v -30 -8 0
v -30 -7 0
v -29 -7 0
v -28 -8 0
v -29 -8 0
v -29 -7 0
v -28 -7 0
v -27 -8 0
v -28 -8 0
v -28 -7 0
v -27 -7 0
v -26 -8 0
v -27 -8 0
v -27 -7 0
v -26 -7 0
v -25 -8 0
v -26 -8 0
v -26 -7 0
v -25 -7 0
v -24 -8 0
v -25 -8 0
v -25 -7 0
v -24 -7 0
v -23 -8 0
v -24 -8 0
v -24 -7 0
v -23 -7 0
v -29 -9 0
v -30 -9 0
v -30 -8 0
v -29 -8 0
v -28 -9 0
v -29 -9 0
v -29 -8 0
v -28 -8 0
v -27 -9 0
v -28 -9 0
v -28 -8 0
v -27 -8 0
v -26 -9 0
v -27 -9 0
v -27 -8 0
v -26 -8 0
v -25 -9 0
v -26 -9 0
v -26 -8 0
v -25 -8 0
v -24 -9 0
v -25 -9 0
v -25 -8 0
v -24 -8 0
v -23 -9 0
v -24 -9 0
v -24 -8 0
v -23 -8 0
v -41 -18 0
v -42 -18 0
v -42 -17 0
v -41 -17 0
v -40 -18 0
v -41 -18 0
v -41 -17 0
v -40 -17 0
v -39 -18 0
v -40 -18 0
v -40 -17 0
v -39 -17 0
v -38 -18 0
v -39 -18 0
v -39 -17 0
v -38 -17 0
v -37 -18 0
v -38 -18 0
v -38 -17 0
v -37 -17 0
v -36 -18 0
v -37 -18 0
v -37 -17 0
v -36 -17 0
v -35 -18 0
v -36 -18 0
v -36 -17 0
v -35 -17 0
v -41 -19 0
v -42 -19 0
v -42 -18 0
v -41 -18 0
v -40 -19 0
v -41 -19 0
v -41 -18 0
v -40 -18 0
v -39 -19 0
v -40 -19 0
v -40 -18 0
v -39 -18 0
v -38 -19 0
v -39 -19 0
v -39 -18 0
v -38 -18 0
v -37 -19 0
v -38 -19 0
v -38 -18 0
v -37 -18 0
v -36 -19 0
v -37 -19 0
v -37 -18 0
v -36 -18 0
v -35 -19 0
v -36 -19 0
v -36 -18 0
v -35 -18 0
v -41 -20 0
v -42 -20 0
v -42 -19 0
v -41 -19 0
v -40 -20 0
v -41 -20 0
v -41 -19 0
v -40 -19 0
v -39 -20 0
v -40 -20 0
v -40 -19 0
v -39 -19 0
v -38 -20 0
v -39 -20 0
v -39 -19 0
v -38 -19 0
v -37 -20 0
v -38 -20 0
v -38 -19 0
v -37 -19 0
v -36 -20 0
v -37 -20 0
v -37 -19 0
v -36 -19 0
v -35 -20 0
v -36 -20 0
v -36 -19 0
v -35 -19 0
v -41 -21 0
v -42 -21 0
v -42 -20 0
v -41 -20 0
v -40 -21 0
v -41 -21 0
v -41 -20 0
v -40 -20 0
v -39 -21 0
v -40 -21 0
v -40 -20 0
v -39 -20 0
v -38 -21 0
v -39 -21 0
v -39 -20 0
v -38 -20 0
v -37 -21 0
v -38 -21 0
v -38 -20 0
v -37 -20 0
v -36 -21 0
v -37 -21 0
v -37 -20 0
v -36 -20 0
v -35 -21 0
v -36 -21 0
v -36 -20 0
v -35 -20 0
v -17 -22 0
v -18 -22 0
v -18 -21 0
v -17 -21 0
v -16 -22 0
v -17 -22 0
v -17 -21 0
v -16 -21 0
v -15 -22 0
v -16 -22 0
v -16 -21 0
v -15 -21 0
v -14 -22 0
v -15 -22 0
v -15 -21 0
v -14 -21 0
v -13 -22 0
v -14 -22 0
v -14 -21 0
v -13 -21 0
v -12 -22 0
v -13 -22 0
v -13 -21 0
v -12 -21 0
v -11 -22 0
v -12 -22 0
v -12 -21 0
v -11 -21 0
v -17 -23 0
v -18 -23 0
v -18 -22 0
v -17 -22 0
v -16 -23 0
v -17 -23 0
v -17 -22 0
v -16 -22 0
v -15 -23 0
v -16 -23 0
v -16 -22 0
v -15 -22 0
v -14 -23 0
v -15 -23 0
v -15 -22 0
v -14 -22 0
v -13 -23 0
v -14 -23 0
v -14 -22 0
v -13 -22 0
v -12 -23 0
v -13 -23 0
v -13 -22 0
v -12 -22 0
v -11 -23 0
v -12 -23 0
v -12 -22 0
v -11 -22 0
v -17 -24 0
v -18 -24 0
v -18 -23 0
v -17 -23 0
v -16 -24 0
v -17 -24 0
v -17 -23 0
v -16 -23 0
v -15 -24 0
v -16 -24 0
v -16 -23 0
v -15 -23 0
v -14 -24 0
v -15 -24 0
v -15 -23 0
v -14 -23 0
v -13 -24 0
v -14 -24 0
v -14 -23 0
v -13 -23 0
v -12 -24 0
v -13 -24 0
v -13 -23 0
v -12 -23 0
v -11 -24 0
v -12 -24 0
v -12 -23 0
v -11 -23 0
v -17 -25 0
v -18 -25 0
v -18 -24 0
v -17 -24 0
v -16 -25 0
v -17 -25 0
v -17 -24 0
v -16 -24 0
v -15 -25 0
v -16 -25 0
v -16 -24 0
v -15 -24 0
v -14 -25 0
v -15 -25 0
v -15 -24 0
v -14 -24 0
v -13 -25 0
v -14 -25 0
v -14 -24 0
v -13 -24 0
v -12 -25 0
v -13 -25 0
v -13 -24 0
v -12 -24 0
v -11 -25 0
v -12 -25 0
v -12 -24 0
v -11 -24 0
v -47 -58 0
v -48 -58 0
v -48 -57 0
v -47 -57 0
v -46 -58 0
v -47 -58 0
v -47 -57 0
v -46 -57 0
v -45 -58 0
v -46 -58 0
v -46 -57 0
v -45 -57 0
v -44 -58 0
v -45 -58 0
v -45 -57 0
v -44 -57 0
v -43 -58 0
v -44 -58 0
v -44 -57 0
v -43 -57 0
v -42 -58 0
v -43 -58 0
v -43 -57 0
v -42 -57 0
v -41 -58 0
v -42 -58 0
v -42 -57 0
v -41 -57 0
v -47 -59 0
v -48 -59 0
v -48 -58 0
v -47 -58 0
v -46 -59 0
v -47 -59 0
v -47 -58 0
v -46 -58 0
v -45 -59 0
v -46 -59 0
v -46 -58 0
v -45 -58 0
v -44 -59 0
v -45 -59 0
v -45 -58 0
v -44 -58 0
v -43 -59 0
v -44 -59 0
v -44 -58 0
v -43 -58 0
v -42 -59 0
v -43 -59 0
v -43 -58 0
v -42 -58 0
v -41 -59 0
v -42 -59 0
v -42 -58 0
v -41 -58 0
v -47 -60 0
v -48 -60 0
v -48 -59 0
v -47 -59 0
v -46 -60 0
v -47 -60 0
v -47 -59 0
v -46 -59 0
v -45 -60 0
v -46 -60 0
v -46 -59 0
v -45 -59 0
v -44 -60 0
v -45 -60 0
v -45 -59 0
v -44 -59 0
v -43 -60 0
v -44 -60 0
v -44 -59 0
v -43 -59 0
v -42 -60 0
v -43 -60 0
v -43 -59 0
v -42 -59 0
v -41 -60 0
v -42 -60 0
v -42 -59 0
v -41 -59 0
v -47 -61 0
v -48 -61 0
v -48 -60 0
v -47 -60 0
v -46 -61 0
v -47 -61 0
v -47 -60 0
v -46 -60 0
v -45 -61 0
v -46 -61 0
v -46 -60 0
v -45 -60 0
v -44 -61 0
v -45 -61 0
v -45 -60 0
v -44 -60 0
v -43 -61 0
v -44 -61 0
v -44 -60 0
v -43 -60 0
v -42 -61 0
v -43 -61 0
v -43 -60 0
v -42 -60 0
v -41 -61 0
v -42 -61 0
v -42 -60 0
v -41 -60 0

# Texture cooridinates (Count = 336)
vt 0.3920284 0.2369642
vt 0.4088236 0.2369642
vt 0.4088236 0.2630358
vt 0.3920284 0.2630358
vt 0.3749889 0.2369642
vt 0.3917842 0.2369642
vt 0.3917842 0.2630358
vt 0.3749889 0.2630358
vt 0.3579496 0.2369642
vt 0.3747448 0.2369642
vt 0.3747448 0.2630358
vt 0.3579496 0.2630358
vt 0.3409101 0.2369642
vt 0.3577054 0.2369642
vt 0.3577054 0.2630358
vt 0.3409101 0.2630358
vt 0.3238707 0.2369642
vt 0.340666 0.2369642
vt 0.340666 0.2630358
vt 0.3238707 0.2630358
vt 0.3068313 0.2369642
vt 0.3236266 0.2369642
vt 0.3236266 0.2630358
vt 0.3068313 0.2630358
vt 0.2897919 0.2369642
vt 0.3065872 0.2369642
vt 0.3065872 0.2630358
vt 0.2897919 0.2630358
vt 0.3920284 0.2106484
vt 0.4088236 0.2106484
vt 0.4088236 0.23672
vt 0.3920284 0.23672
vt 0.3749889 0.2106484
vt 0.3917842 0.2106484
vt 0.3917842 0.23672
vt 0.3749889 0.23672
vt 0.3579496 0.2106484
vt 0.3747448 0.2106484
vt 0.3747448 0.23672
vt 0.3579496 0.23672
vt 0.3409101 0.2106484
vt 0.3577054 0.2106484
vt 0.3577054 0.23672
vt 0.3409101 0.23672
vt 0.3238707 0.2106484
vt 0.340666 0.2106484
vt 0.340666 0.23672
vt 0.3238707 0.23672
vt 0.3068313 0.2106484
vt 0.3236266 0.2106484
vt 0.3236266 0.23672
vt 0.3068313 0.23672
vt 0.2897919 0.2106484
vt 0.3065872 0.2106484
vt 0.3065872 0.23672
vt 0.2897919 0.23672
vt 0.3920284 0.1843326
vt 0.4088236 0.1843326
vt 0.4088236 0.2104042
vt 0.3920284 0.2104042
vt 0.3749889 0.1843326
vt 0.3917842 0.1843326
vt 0.3917842 0.2104042
vt 0.3749889 0.2104042
vt 0.3579496 0.1843326
vt 0.3747448 0.1843326
vt 0.3747448 0.2104042
vt 0.3579496 0.2104042
vt 0.3409101 0.1843326
vt 0.3577054 0.1843326
vt 0.3577054 0.2104042
vt 0.3409101 0.2104042
vt 0.3238707 0.1843326
vt 0.340666 0.1843326
vt 0.340666 0.2104042
vt 0.3238707 0.2104042
vt 0.3068313 0.1843326
vt 0.3236266 0.1843326
vt 0.3236266 0.2104042
vt 0.3068313 0.2104042
vt 0.2897919 0.1843326
vt 0.3065872 0.1843326
vt 0.3065872 0.2104042
vt 0.2897919 0.2104042
vt 0.3920284 0.1580168
vt 0.4088236 0.1580168
vt 0.4088236 0.1840885
vt 0.3920284 0.1840885
vt 0.3749889 0.1580168
vt 0.3917842 0.1580168
vt 0.3917842 0.1840885
vt 0.3749889 0.1840885
vt 0.3579496 0.1580168
vt 0.3747448 0.1580168
vt 0.3747448 0.1840885
vt 0.3579496 0.1840885
vt 0.3409101 0.1580168
vt 0.3577054 0.1580168
vt 0.3577054 0.1840885
vt 0.3409101 0.1840885
vt 0.3238707 0.1580168
vt 0.340666 0.1580168
vt 0.340666 0.1840885
vt 0.3238707 0.1840885
vt 0.3068313 0.1580168
vt 0.3236266 0.1580168
vt 0.3236266 0.1840885
vt 0.3068313 0.1840885
vt 0.2897919 0.1580168
vt 0.3065872 0.1580168
vt 0.3065872 0.1840885
vt 0.2897919 0.1840885
vt 0.2727525 0.2369642
vt 0.2895478 0.2369642
vt 0.2895478 0.2630358
vt 0.2727525 0.2630358
vt 0.2557131 0.2369642
vt 0.2725084 0.2369642
vt 0.2725084 0.2630358
vt 0.2557131 0.2630358
vt 0.2386737 0.2369642
vt 0.255469 0.2369642
vt 0.255469 0.2630358
vt 0.2386737 0.2630358
vt 0.2216343 0.2369642
vt 0.2384296 0.2369642
vt 0.2384296 0.2630358
vt 0.2216343 0.2630358
vt 0.2045949 0.2369642
vt 0.2213902 0.2369642
vt 0.2213902 0.2630358
vt 0.2045949 0.2630358
vt 0.1875555 0.2369642
vt 0.2043508 0.2369642
vt 0.2043508 0.2630358
vt 0.1875555 0.2630358
vt 0.1705161 0.2369642
vt 0.1873114 0.2369642
vt 0.1873114 0.2630358
vt 0.1705161 0.2630358
vt 0.2727525 0.2106484
vt 0.2895478 0.2106484
vt 0.2895478 0.23672
vt 0.2727525 0.23672
vt 0.2557131 0.2106484
vt 0.2725084 0.2106484
vt 0.2725084 0.23672
vt 0.2557131 0.23672
vt 0.2386737 0.2106484
vt 0.255469 0.2106484
vt 0.255469 0.23672
vt 0.2386737 0.23672
vt 0.2216343 0.2106484
vt 0.2384296 0.2106484
vt 0.2384296 0.23672
vt 0.2216343 0.23672
vt 0.2045949 0.2106484
vt 0.2213902 0.2106484
vt 0.2213902 0.23672
vt 0.2045949 0.23672
vt 0.1875555 0.2106484
vt 0.2043508 0.2106484
vt 0.2043508 0.23672
vt 0.1875555 0.23672
vt 0.1705161 0.2106484
vt 0.1873114 0.2106484
vt 0.1873114 0.23672
vt 0.1705161 0.23672
vt 0.2727525 0.1843326
vt 0.2895478 0.1843326
vt 0.2895478 0.2104042
vt 0.2727525 0.2104042
vt 0.2557131 0.1843326
vt 0.2725084 0.1843326
vt 0.2725084 0.2104042
vt 0.2557131 0.2104042
vt 0.2386737 0.1843326
vt 0.255469 0.1843326
vt 0.255469 0.2104042
vt 0.2386737 0.2104042
vt 0.2216343 0.1843326
vt 0.2384296 0.1843326
vt 0.2384296 0.2104042
vt 0.2216343 0.2104042
vt 0.2045949 0.1843326
vt 0.2213902 0.1843326
vt 0.2213902 0.2104042
vt 0.2045949 0.2104042
vt 0.1875555 0.1843326
vt 0.2043508 0.1843326
vt 0.2043508 0.2104042
vt 0.1875555 0.2104042
vt 0.1705161 0.1843326
vt 0.1873114 0.1843326
vt 0.1873114 0.2104042
vt 0.1705161 0.2104042
vt 0.2727525 0.1580168
vt 0.2895478 0.1580168
vt 0.2895478 0.1840885
vt 0.2727525 0.1840885
vt 0.2557131 0.1580168
vt 0.2725084 0.1580168
vt 0.2725084 0.1840885
vt 0.2557131 0.1840885
vt 0.2386737 0.1580168
vt 0.255469 0.1580168
vt 0.255469 0.1840885
vt 0.2386737 0.1840885
vt 0.2216343 0.1580168
vt 0.2384296 0.1580168
vt 0.2384296 0.1840885
vt 0.2216343 0.1840885
vt 0.2045949 0.1580168
vt 0.2213902 0.1580168
vt 0.2213902 0.1840885
vt 0.2045949 0.1840885
vt 0.1875555 0.1580168
vt 0.2043508 0.1580168
vt 0.2043508 0.1840885
vt 0.1875555 0.1840885
vt 0.1705161 0.1580168
vt 0.1873114 0.1580168
vt 0.1873114 0.1840885
vt 0.1705161 0.1840885
vt 0.63058 0.7895957
vt 0.6473753 0.7895957
vt 0.6473753 0.8156674
vt 0.63058 0.8156674
vt 0.6135406 0.7895957
vt 0.6303359 0.7895957
vt 0.6303359 0.8156674
vt 0.6135406 0.8156674
vt 0.5965012 0.7895957
vt 0.6132964 0.7895957
vt 0.6132964 0.8156674
vt 0.5965012 0.8156674
vt 0.5794618 0.7895957
vt 0.596257 0.7895957
vt 0.596257 0.8156674
vt 0.5794618 0.8156674
vt 0.5624224 0.7895957
vt 0.5792177 0.7895957
vt 0.5792177 0.8156674
vt 0.5624224 0.8156674
vt 0.545383 0.7895957
vt 0.5621783 0.7895957
vt 0.5621783 0.8156674
vt 0.545383 0.8156674
vt 0.5283436 0.7895957
vt 0.5451388 0.7895957
vt 0.5451388 0.8156674
vt 0.5283436 0.8156674
vt 0.63058 0.76328
vt 0.6473753 0.76328
vt 0.6473753 0.7893516
vt 0.63058 0.7893516
vt 0.6135406 0.76328
vt 0.6303359 0.76328
vt 0.6303359 0.7893516
vt 0.6135406 0.7893516
vt 0.5965012 0.76328
vt 0.6132964 0.76328
vt 0.6132964 0.7893516
vt 0.5965012 0.7893516
vt 0.5794618 0.76328
vt 0.596257 0.76328
vt 0.596257 0.7893516
vt 0.5794618 0.7893516
vt 0.5624224 0.76328
vt 0.5792177 0.76328
vt 0.5792177 0.7893516
vt 0.5624224 0.7893516
vt 0.545383 0.76328
vt 0.5621783 0.76328
vt 0.5621783 0.7893516
vt 0.545383 0.7893516
vt 0.5283436 0.76328
vt 0.5451388 0.76328
vt 0.5451388 0.7893516
vt 0.5283436 0.7893516
vt 0.63058 0.7369642
vt 0.6473753 0.7369642
vt 0.6473753 0.7630358
vt 0.63058 0.7630358
vt 0.6135406 0.7369642
vt 0.6303359 0.7369642
vt 0.6303359 0.7630358
vt 0.6135406 0.7630358
vt 0.5965012 0.7369642
vt 0.6132964 0.7369642
vt 0.6132964 0.7630358
vt 0.5965012 0.7630358
vt 0.5794618 0.7369642
vt 0.596257 0.7369642
vt 0.596257 0.7630358
vt 0.5794618 0.7630358
vt 0.5624224 0.7369642
vt 0.5792177 0.7369642
vt 0.5792177 0.7630358
vt 0.5624224 0.7630358
vt 0.545383 0.7369642
vt 0.5621783 0.7369642
vt 0.5621783 0.7630358
vt 0.545383 0.7630358
vt 0.5283436 0.7369642
vt 0.5451388 0.7369642
vt 0.5451388 0.7630358
vt 0.5283436 0.7630358
vt 0.63058 0.7106484
vt 0.6473753 0.7106484
vt 0.6473753 0.73672
vt 0.63058 0.73672
vt 0.6135406 0.7106484
vt 0.6303359 0.7106484
vt 0.6303359 0.73672
vt 0.6135406 0.73672
vt 0.5965012 0.7106484
vt 0.6132964 0.7106484
vt 0.6132964 0.73672
vt 0.5965012 0.73672
vt 0.5794618 0.7106484
vt 0.596257 0.7106484
vt 0.596257 0.73672
vt 0.5794618 0.73672
vt 0.5624224 0.7106484
vt 0.5792177 0.7106484
vt 0.5792177 0.73672
vt 0.5624224 0.73672
vt 0.545383 0.7106484
vt 0.5621783 0.7106484
vt 0.5621783 0.73672
vt 0.545383 0.73672
vt 0.5283436 0.7106484
vt 0.5451388 0.7106484
vt 0.5451388 0.73672
vt 0.5283436 0.73672

# Normal
vn 0 0 -1

# Mesh description
g TaasButuanGardens_mesh_0006

# Faces
f 1/1/1 2/2/1 3/3/1 4/4/1
f 5/5/1 6/6/1 7/7/1 8/8/1
f 9/9/1 10/10/1 11/11/1 12/12/1
f 13/13/1 14/14/1 15/15/1 16/16/1
f 17/17/1 18/18/1 19/19/1 20/20/1
f 21/21/1 22/22/1 23/23/1 24/24/1
f 25/25/1 26/26/1 27/27/1 28/28/1
f 29/29/1 30/30/1 31/31/1 32/32/1
f 33/33/1 34/34/1 35/35/1 36/36/1
f 37/37/1 38/38/1 39/39/1 40/40/1
f 41/41/1 42/42/1 43/43/1 44/44/1
f 45/45/1 46/46/1 47/47/1 48/48/1
f 49/49/1 50/50/1 51/51/1 52/52/1
f 53/53/1 54/54/1 55/55/1 56/56/1
f 57/57/1 58/58/1 59/59/1 60/60/1
f 61/61/1 62/62/1 63/63/1 64/64/1
f 65/65/1 66/66/1 67/67/1 68/68/1
f 69/69/1 70/70/1 71/71/1 72/72/1
f 73/73/1 74/74/1 75/75/1 76/76/1
f 77/77/1 78/78/1 79/79/1 80/80/1
f 81/81/1 82/82/1 83/83/1 84/84/1
f 85/85/1 86/86/1 87/87/1 88/88/1
f 89/89/1 90/90/1 91/91/1 92/92/1
f 93/93/1 94/94/1 95/95/1 96/96/1
f 97/97/1 98/98/1 99/99/1 100/100/1
f 101/101/1 102/102/1 103/103/1 104/104/1
f 105/105/1 106/106/1 107/107/1 108/108/1
f 109/109/1 110/110/1 111/111/1 112/112/1
f 113/113/1 114/114/1 115/115/1 116/116/1
f 117/117/1 118/118/1 119/119/1 120/120/1
f 121/121/1 122/122/1 123/123/1 124/124/1
f 125/125/1 126/126/1 127/127/1 128/128/1
f 129/129/1 130/130/1 131/131/1 132/132/1
f 133/133/1 134/134/1 135/135/1 136/136/1
f 137/137/1 138/138/1 139/139/1 140/140/1
f 141/141/1 142/142/1 143/143/1 144/144/1
f 145/145/1 146/146/1 147/147/1 148/148/1
f 149/149/1 150/150/1 151/151/1 152/152/1
f 153/153/1 154/154/1 155/155/1 156/156/1
f 157/157/1 158/158/1 159/159/1 160/160/1
f 161/161/1 162/162/1 163/163/1 164/164/1
f 165/165/1 166/166/1 167/167/1 168/168/1
f 169/169/1 170/170/1 171/171/1 172/172/1
f 173/173/1 174/174/1 175/175/1 176/176/1
f 177/177/1 178/178/1 179/179/1 180/180/1
f 181/181/1 182/182/1 183/183/1 184/184/1
f 185/185/1 186/186/1 187/187/1 188/188/1
f 189/189/1 190/190/1 191/191/1 192/192/1
f 193/193/1 194/194/1 195/195/1 196/196/1
f 197/197/1 198/198/1 199/199/1 200/200/1
f 201/201/1 202/202/1 203/203/1 204/204/1
f 205/205/1 206/206/1 207/207/1 208/208/1
f 209/209/1 210/210/1 211/211/1 212/212/1
f 213/213/1 214/214/1 215/215/1 216/216/1
f 217/217/1 218/218/1 219/219/1 220/220/1
f 221/221/1 222/222/1 223/223/1 224/224/1
f 225/113/1 226/114/1 227/115/1 228/116/1
f 229/117/1 230/118/1 231/119/1 232/120/1
f 233/121/1 234/122/1 235/123/1 236/124/1
f 237/125/1 238/126/1 239/127/1 240/128/1
f 241/129/1 242/130/1 243/131/1 244/132/1
f 245/133/1 246/134/1 247/135/1 248/136/1
f 249/137/1 250/138/1 251/139/1 252/140/1
f 253/141/1 254/142/1 255/143/1 256/144/1
f 257/145/1 258/146/1 259/147/1 260/148/1
f 261/149/1 262/150/1 263/151/1 264/152/1
f 265/153/1 266/154/1 267/155/1 268/156/1
f 269/157/1 270/158/1 271/159/1 272/160/1
f 273/161/1 274/162/1 275/163/1 276/164/1
f 277/165/1 278/166/1 279/167/1 280/168/1
f 281/169/1 282/170/1 283/171/1 284/172/1
f 285/173/1 286/174/1 287/175/1 288/176/1
f 289/177/1 290/178/1 291/179/1 292/180/1
f 293/181/1 294/182/1 295/183/1 296/184/1
f 297/185/1 298/186/1 299/187/1 300/188/1
f 301/189/1 302/190/1 303/191/1 304/192/1
f 305/193/1 306/194/1 307/195/1 308/196/1
f 309/197/1 310/198/1 311/199/1 312/200/1
f 313/201/1 314/202/1 315/203/1 316/204/1
f 317/205/1 318/206/1 319/207/1 320/208/1
f 321/209/1 322/210/1 323/211/1 324/212/1
f 325/213/1 326/214/1 327/215/1 328/216/1
f 329/217/1 330/218/1 331/219/1 332/220/1
f 333/221/1 334/222/1 335/223/1 336/224/1
f 337/225/1 338/226/1 339/227/1 340/228/1
f 341/229/1 342/230/1 343/231/1 344/232/1
f 345/233/1 346/234/1 347/235/1 348/236/1
f 349/237/1 350/238/1 351/239/1 352/240/1
f 353/241/1 354/242/1 355/243/1 356/244/1
f 357/245/1 358/246/1 359/247/1 360/248/1
f 361/249/1 362/250/1 363/251/1 364/252/1
f 365/253/1 366/254/1 367/255/1 368/256/1
f 369/257/1 370/258/1 371/259/1 372/260/1
f 373/261/1 374/262/1 375/263/1 376/264/1
f 377/265/1 378/266/1 379/267/1 380/268/1
f 381/269/1 382/270/1 383/271/1 384/272/1
f 385/273/1 386/274/1 387/275/1 388/276/1
f 389/277/1 390/278/1 391/279/1 392/280/1
f 393/281/1 394/282/1 395/283/1 396/284/1
f 397/285/1 398/286/1 399/287/1 400/288/1
f 401/289/1 402/290/1 403/291/1 404/292/1
f 405/293/1 406/294/1 407/295/1 408/296/1
f 409/297/1 410/298/1 411/299/1 412/300/1
f 413/301/1 414/302/1 415/303/1 416/304/1
f 417/305/1 418/306/1 419/307/1 420/308/1
f 421/309/1 422/310/1 423/311/1 424/312/1
f 425/313/1 426/314/1 427/315/1 428/316/1
f 429/317/1 430/318/1 431/319/1 432/320/1
f 433/321/1 434/322/1 435/323/1 436/324/1
f 437/325/1 438/326/1 439/327/1 440/328/1
f 441/329/1 442/330/1 443/331/1 444/332/1
f 445/333/1 446/334/1 447/335/1 448/336/1

