# Tiled2Unity generated file. Do not modify by hand.
# Wavefront file for 'TaasButuanGardens_mesh_0007.obj'

# Vertices (Count = 896)
v -57 -1 0
v -58 -1 0
v -58 0 0
v -57 0 0
v -56 -1 0
v -57 -1 0
v -57 0 0
v -56 0 0
v -62 -2 0
v -63 -2 0
v -63 -1 0
v -62 -1 0
v -61 -2 0
v -62 -2 0
v -62 -1 0
v -61 -1 0
v -57 -2 0
v -58 -2 0
v -58 -1 0
v -57 -1 0
v -56 -2 0
v -57 -2 0
v -57 -1 0
v -56 -1 0
v -62 -3 0
v -63 -3 0
v -63 -2 0
v -62 -2 0
v -61 -3 0
v -62 -3 0
v -62 -2 0
v -61 -2 0
v -17 -4 0
v -18 -4 0
v -18 -3 0
v -17 -3 0
v -16 -4 0
v -17 -4 0
v -17 -3 0
v -16 -3 0
v -15 -4 0
v -16 -4 0
v -16 -3 0
v -15 -3 0
v -14 -4 0
v -15 -4 0
v -15 -3 0
v -14 -3 0
v -56 -6 0
v -57 -6 0
v -57 -5 0
v -56 -5 0
v -55 -6 0
v -56 -6 0
v -56 -5 0
v -55 -5 0
v -9 -6 0
v -10 -6 0
v -10 -5 0
v -9 -5 0
v -8 -6 0
v -9 -6 0
v -9 -5 0
v -8 -5 0
v -7 -6 0
v -8 -6 0
v -8 -5 0
v -7 -5 0
v -6 -6 0
v -7 -6 0
v -7 -5 0
v -6 -5 0
v -56 -7 0
v -57 -7 0
v -57 -6 0
v -56 -6 0
v -55 -7 0
v -56 -7 0
v -56 -6 0
v -55 -6 0
v -49 -8 0
v -50 -8 0
v -50 -7 0
v -49 -7 0
v -48 -8 0
v -49 -8 0
v -49 -7 0
v -48 -7 0
v -52 -9 0
v -53 -9 0
v -53 -8 0
v -52 -8 0
v -51 -9 0
v -52 -9 0
v -52 -8 0
v -51 -8 0
v -49 -9 0
v -50 -9 0
v -50 -8 0
v -49 -8 0
v -48 -9 0
v -49 -9 0
v -49 -8 0
v -48 -8 0
v -52 -10 0
v -53 -10 0
v -53 -9 0
v -52 -9 0
v -51 -10 0
v -52 -10 0
v -52 -9 0
v -51 -9 0
v -49 -10 0
v -50 -10 0
v -50 -9 0
v -49 -9 0
v -48 -10 0
v -49 -10 0
v -49 -9 0
v -48 -9 0
v -60 -11 0
v -61 -11 0
v -61 -10 0
v -60 -10 0
v -59 -11 0
v -60 -11 0
v -60 -10 0
v -59 -10 0
v -54 -11 0
v -55 -11 0
v -55 -10 0
v -54 -10 0
v -53 -11 0
v -54 -11 0
v -54 -10 0
v -53 -10 0
v -49 -11 0
v -50 -11 0
v -50 -10 0
v -49 -10 0
v -48 -11 0
v -49 -11 0
v -49 -10 0
v -48 -10 0
v -60 -12 0
v -61 -12 0
v -61 -11 0
v -60 -11 0
v -59 -12 0
v -60 -12 0
v -60 -11 0
v -59 -11 0
v -54 -12 0
v -55 -12 0
v -55 -11 0
v -54 -11 0
v -53 -12 0
v -54 -12 0
v -54 -11 0
v -53 -11 0
v -37 -12 0
v -38 -12 0
v -38 -11 0
v -37 -11 0
v -36 -12 0
v -37 -12 0
v -37 -11 0
v -36 -11 0
v -4 -12 0
v -5 -12 0
v -5 -11 0
v -4 -11 0
v -3 -12 0
v -4 -12 0
v -4 -11 0
v -3 -11 0
v -2 -12 0
v -3 -12 0
v -3 -11 0
v -2 -11 0
v -1 -12 0
v -2 -12 0
v -2 -11 0
v -1 -11 0
v -37 -13 0
v -38 -13 0
v -38 -12 0
v -37 -12 0
v -36 -13 0
v -37 -13 0
v -37 -12 0
v -36 -12 0
v -35 -13 0
v -36 -13 0
v -36 -12 0
v -35 -12 0
v -34 -13 0
v -35 -13 0
v -35 -12 0
v -34 -12 0
v -35 -14 0
v -36 -14 0
v -36 -13 0
v -35 -13 0
v -34 -14 0
v -35 -14 0
v -35 -13 0
v -34 -13 0
v -13 -14 0
v -14 -14 0
v -14 -13 0
v -13 -13 0
v -12 -14 0
v -13 -14 0
v -13 -13 0
v -12 -13 0
v -42 -15 0
v -43 -15 0
v -43 -14 0
v -42 -14 0
v -41 -15 0
v -42 -15 0
v -42 -14 0
v -41 -14 0
v -24 -15 0
v -25 -15 0
v -25 -14 0
v -24 -14 0
v -23 -15 0
v -24 -15 0
v -24 -14 0
v -23 -14 0
v -22 -15 0
v -23 -15 0
v -23 -14 0
v -22 -14 0
v -21 -15 0
v -22 -15 0
v -22 -14 0
v -21 -14 0
v -13 -15 0
v -14 -15 0
v -14 -14 0
v -13 -14 0
v -12 -15 0
v -13 -15 0
v -13 -14 0
v -12 -14 0
v -10 -15 0
v -11 -15 0
v -11 -14 0
v -10 -14 0
v -9 -15 0
v -10 -15 0
v -10 -14 0
v -9 -14 0
v -60 -16 0
v -61 -16 0
v -61 -15 0
v -60 -15 0
v -59 -16 0
v -60 -16 0
v -60 -15 0
v -59 -15 0
v -42 -16 0
v -43 -16 0
v -43 -15 0
v -42 -15 0
v -41 -16 0
v -42 -16 0
v -42 -15 0
v -41 -15 0
v -10 -16 0
v -11 -16 0
v -11 -15 0
v -10 -15 0
v -9 -16 0
v -10 -16 0
v -10 -15 0
v -9 -15 0
v -60 -17 0
v -61 -17 0
v -61 -16 0
v -60 -16 0
v -59 -17 0
v -60 -17 0
v -60 -16 0
v -59 -16 0
v -30 -17 0
v -31 -17 0
v -31 -16 0
v -30 -16 0
v -29 -17 0
v -30 -17 0
v -30 -16 0
v -29 -16 0
v -28 -17 0
v -29 -17 0
v -29 -16 0
v -28 -16 0
v -27 -17 0
v -28 -17 0
v -28 -16 0
v -27 -16 0
v -11 -19 0
v -12 -19 0
v -12 -18 0
v -11 -18 0
v -10 -19 0
v -11 -19 0
v -11 -18 0
v -10 -18 0
v -48 -20 0
v -49 -20 0
v -49 -19 0
v -48 -19 0
v -47 -20 0
v -48 -20 0
v -48 -19 0
v -47 -19 0
v -46 -20 0
v -47 -20 0
v -47 -19 0
v -46 -19 0
v -45 -20 0
v -46 -20 0
v -46 -19 0
v -45 -19 0
v -11 -20 0
v -12 -20 0
v -12 -19 0
v -11 -19 0
v -10 -20 0
v -11 -20 0
v -11 -19 0
v -10 -19 0
v -28 -22 0
v -29 -22 0
v -29 -21 0
v -28 -21 0
v -27 -22 0
v -28 -22 0
v -28 -21 0
v -27 -21 0
v -28 -23 0
v -29 -23 0
v -29 -22 0
v -28 -22 0
v -27 -23 0
v -28 -23 0
v -28 -22 0
v -27 -22 0
v -30 -24 0
v -31 -24 0
v -31 -23 0
v -30 -23 0
v -29 -24 0
v -30 -24 0
v -30 -23 0
v -29 -23 0
v -42 -25 0
v -43 -25 0
v -43 -24 0
v -42 -24 0
v -41 -25 0
v -42 -25 0
v -42 -24 0
v -41 -24 0
v -40 -25 0
v -41 -25 0
v -41 -24 0
v -40 -24 0
v -39 -25 0
v -40 -25 0
v -40 -24 0
v -39 -24 0
v -33 -25 0
v -34 -25 0
v -34 -24 0
v -33 -24 0
v -32 -25 0
v -33 -25 0
v -33 -24 0
v -32 -24 0
v -30 -25 0
v -31 -25 0
v -31 -24 0
v -30 -24 0
v -29 -25 0
v -30 -25 0
v -30 -24 0
v -29 -24 0
v -33 -26 0
v -34 -26 0
v -34 -25 0
v -33 -25 0
v -32 -26 0
v -33 -26 0
v -33 -25 0
v -32 -25 0
v -9 -26 0
v -10 -26 0
v -10 -25 0
v -9 -25 0
v -8 -26 0
v -9 -26 0
v -9 -25 0
v -8 -25 0
v -7 -26 0
v -8 -26 0
v -8 -25 0
v -7 -25 0
v -6 -26 0
v -7 -26 0
v -7 -25 0
v -6 -25 0
v -60 -27 0
v -61 -27 0
v -61 -26 0
v -60 -26 0
v -59 -27 0
v -60 -27 0
v -60 -26 0
v -59 -26 0
v -58 -27 0
v -59 -27 0
v -59 -26 0
v -58 -26 0
v -57 -27 0
v -58 -27 0
v -58 -26 0
v -57 -26 0
v -28 -29 0
v -29 -29 0
v -29 -28 0
v -28 -28 0
v -27 -29 0
v -28 -29 0
v -28 -28 0
v -27 -28 0
v -26 -29 0
v -27 -29 0
v -27 -28 0
v -26 -28 0
v -25 -29 0
v -26 -29 0
v -26 -28 0
v -25 -28 0
v -28 -30 0
v -29 -30 0
v -29 -29 0
v -28 -29 0
v -27 -30 0
v -28 -30 0
v -28 -29 0
v -27 -29 0
v -26 -30 0
v -27 -30 0
v -27 -29 0
v -26 -29 0
v -25 -30 0
v -26 -30 0
v -26 -29 0
v -25 -29 0
v -42 -33 0
v -43 -33 0
v -43 -32 0
v -42 -32 0
v -41 -33 0
v -42 -33 0
v -42 -32 0
v -41 -32 0
v -64 -34 0
v -65 -34 0
v -65 -33 0
v -64 -33 0
v -63 -34 0
v -64 -34 0
v -64 -33 0
v -63 -33 0
v -62 -34 0
v -63 -34 0
v -63 -33 0
v -62 -33 0
v -61 -34 0
v -62 -34 0
v -62 -33 0
v -61 -33 0
v -42 -34 0
v -43 -34 0
v -43 -33 0
v -42 -33 0
v -41 -34 0
v -42 -34 0
v -42 -33 0
v -41 -33 0
v -54 -36 0
v -55 -36 0
v -55 -35 0
v -54 -35 0
v -53 -36 0
v -54 -36 0
v -54 -35 0
v -53 -35 0
v -52 -36 0
v -53 -36 0
v -53 -35 0
v -52 -35 0
v -51 -36 0
v -52 -36 0
v -52 -35 0
v -51 -35 0
v -44 -37 0
v -45 -37 0
v -45 -36 0
v -44 -36 0
v -43 -37 0
v -44 -37 0
v -44 -36 0
v -43 -36 0
v -44 -38 0
v -45 -38 0
v -45 -37 0
v -44 -37 0
v -43 -38 0
v -44 -38 0
v -44 -37 0
v -43 -37 0
v -16 -38 0
v -17 -38 0
v -17 -37 0
v -16 -37 0
v -15 -38 0
v -16 -38 0
v -16 -37 0
v -15 -37 0
v -28 -39 0
v -29 -39 0
v -29 -38 0
v -28 -38 0
v -27 -39 0
v -28 -39 0
v -28 -38 0
v -27 -38 0
v -16 -39 0
v -17 -39 0
v -17 -38 0
v -16 -38 0
v -15 -39 0
v -16 -39 0
v -16 -38 0
v -15 -38 0
v -4 -39 0
v -5 -39 0
v -5 -38 0
v -4 -38 0
v -3 -39 0
v -4 -39 0
v -4 -38 0
v -3 -38 0
v -2 -39 0
v -3 -39 0
v -3 -38 0
v -2 -38 0
v -1 -39 0
v -2 -39 0
v -2 -38 0
v -1 -38 0
v -28 -40 0
v -29 -40 0
v -29 -39 0
v -28 -39 0
v -27 -40 0
v -28 -40 0
v -28 -39 0
v -27 -39 0
v -18 -42 0
v -19 -42 0
v -19 -41 0
v -18 -41 0
v -17 -42 0
v -18 -42 0
v -18 -41 0
v -17 -41 0
v -18 -43 0
v -19 -43 0
v -19 -42 0
v -18 -42 0
v -17 -43 0
v -18 -43 0
v -18 -42 0
v -17 -42 0
v -11 -43 0
v -12 -43 0
v -12 -42 0
v -11 -42 0
v -10 -43 0
v -11 -43 0
v -11 -42 0
v -10 -42 0
v -9 -43 0
v -10 -43 0
v -10 -42 0
v -9 -42 0
v -8 -43 0
v -9 -43 0
v -9 -42 0
v -8 -42 0
v -32 -45 0
v -33 -45 0
v -33 -44 0
v -32 -44 0
v -31 -45 0
v -32 -45 0
v -32 -44 0
v -31 -44 0
v -5 -45 0
v -6 -45 0
v -6 -44 0
v -5 -44 0
v -4 -45 0
v -5 -45 0
v -5 -44 0
v -4 -44 0
v -32 -46 0
v -33 -46 0
v -33 -45 0
v -32 -45 0
v -31 -46 0
v -32 -46 0
v -32 -45 0
v -31 -45 0
v -5 -46 0
v -6 -46 0
v -6 -45 0
v -5 -45 0
v -4 -46 0
v -5 -46 0
v -5 -45 0
v -4 -45 0
v -27 -52 0
v -28 -52 0
v -28 -51 0
v -27 -51 0
v -26 -52 0
v -27 -52 0
v -27 -51 0
v -26 -51 0
v -25 -52 0
v -26 -52 0
v -26 -51 0
v -25 -51 0
v -24 -52 0
v -25 -52 0
v -25 -51 0
v -24 -51 0
v -60 -53 0
v -61 -53 0
v -61 -52 0
v -60 -52 0
v -59 -53 0
v -60 -53 0
v -60 -52 0
v -59 -52 0
v -60 -54 0
v -61 -54 0
v -61 -53 0
v -60 -53 0
v -59 -54 0
v -60 -54 0
v -60 -53 0
v -59 -53 0
v -53 -55 0
v -54 -55 0
v -54 -54 0
v -53 -54 0
v -52 -55 0
v -53 -55 0
v -53 -54 0
v -52 -54 0
v -53 -56 0
v -54 -56 0
v -54 -55 0
v -53 -55 0
v -52 -56 0
v -53 -56 0
v -53 -55 0
v -52 -55 0
v -35 -56 0
v -36 -56 0
v -36 -55 0
v -35 -55 0
v -34 -56 0
v -35 -56 0
v -35 -55 0
v -34 -55 0
v -31 -56 0
v -32 -56 0
v -32 -55 0
v -31 -55 0
v -30 -56 0
v -31 -56 0
v -31 -55 0
v -30 -55 0
v -59 -57 0
v -60 -57 0
v -60 -56 0
v -59 -56 0
v -58 -57 0
v -59 -57 0
v -59 -56 0
v -58 -56 0
v -35 -57 0
v -36 -57 0
v -36 -56 0
v -35 -56 0
v -34 -57 0
v -35 -57 0
v -35 -56 0
v -34 -56 0
v -31 -57 0
v -32 -57 0
v -32 -56 0
v -31 -56 0
v -30 -57 0
v -31 -57 0
v -31 -56 0
v -30 -56 0
v -59 -58 0
v -60 -58 0
v -60 -57 0
v -59 -57 0
v -58 -58 0
v -59 -58 0
v -59 -57 0
v -58 -57 0
v -55 -58 0
v -56 -58 0
v -56 -57 0
v -55 -57 0
v -54 -58 0
v -55 -58 0
v -55 -57 0
v -54 -57 0
v -3 -58 0
v -4 -58 0
v -4 -57 0
v -3 -57 0
v -2 -58 0
v -3 -58 0
v -3 -57 0
v -2 -57 0
v -1 -58 0
v -2 -58 0
v -2 -57 0
v -1 -57 0
v 0 -58 0
v -1 -58 0
v -1 -57 0
v 0 -57 0
v -55 -59 0
v -56 -59 0
v -56 -58 0
v -55 -58 0
v -54 -59 0
v -55 -59 0
v -55 -58 0
v -54 -58 0
v -60 -60 0
v -61 -60 0
v -61 -59 0
v -60 -59 0
v -59 -60 0
v -60 -60 0
v -60 -59 0
v -59 -59 0
v -8 -60 0
v -9 -60 0
v -9 -59 0
v -8 -59 0
v -7 -60 0
v -8 -60 0
v -8 -59 0
v -7 -59 0
v -60 -61 0
v -61 -61 0
v -61 -60 0
v -60 -60 0
v -59 -61 0
v -60 -61 0
v -60 -60 0
v -59 -60 0
v -23 -61 0
v -24 -61 0
v -24 -60 0
v -23 -60 0
v -22 -61 0
v -23 -61 0
v -23 -60 0
v -22 -60 0
v -21 -61 0
v -22 -61 0
v -22 -60 0
v -21 -60 0
v -20 -61 0
v -21 -61 0
v -21 -60 0
v -20 -60 0
v -8 -61 0
v -9 -61 0
v -9 -60 0
v -8 -60 0
v -7 -61 0
v -8 -61 0
v -8 -60 0
v -7 -60 0
v -38 -62 0
v -39 -62 0
v -39 -61 0
v -38 -61 0
v -37 -62 0
v -38 -62 0
v -38 -61 0
v -37 -61 0
v -36 -62 0
v -37 -62 0
v -37 -61 0
v -36 -61 0
v -35 -62 0
v -36 -62 0
v -36 -61 0
v -35 -61 0
v -3 -63 0
v -4 -63 0
v -4 -62 0
v -3 -62 0
v -2 -63 0
v -3 -63 0
v -3 -62 0
v -2 -62 0
v -3 -64 0
v -4 -64 0
v -4 -63 0
v -3 -63 0
v -2 -64 0
v -3 -64 0
v -3 -63 0
v -2 -63 0
v -35 -66 0
v -36 -66 0
v -36 -65 0
v -35 -65 0
v -34 -66 0
v -35 -66 0
v -35 -65 0
v -34 -65 0
v -33 -66 0
v -34 -66 0
v -34 -65 0
v -33 -65 0
v -32 -66 0
v -33 -66 0
v -33 -65 0
v -32 -65 0
v -16 -69 0
v -17 -69 0
v -17 -68 0
v -16 -68 0
v -15 -69 0
v -16 -69 0
v -16 -68 0
v -15 -68 0
v -14 -69 0
v -15 -69 0
v -15 -68 0
v -14 -68 0
v -13 -69 0
v -14 -69 0
v -14 -68 0
v -13 -68 0
v -4 -69 0
v -5 -69 0
v -5 -68 0
v -4 -68 0
v -3 -69 0
v -4 -69 0
v -4 -68 0
v -3 -68 0
v -2 -69 0
v -3 -69 0
v -3 -68 0
v -2 -68 0
v -1 -69 0
v -2 -69 0
v -2 -68 0
v -1 -68 0

# Texture cooridinates (Count = 32)
vt 0.1249595 0.5278999
vt 0.1455216 0.5278999
vt 0.1455216 0.5554335
vt 0.1249595 0.5554335
vt 0.1041533 0.5278999
vt 0.1247154 0.5278999
vt 0.1247154 0.5554335
vt 0.1041533 0.5554335
vt 0.1249595 0.5001221
vt 0.1455216 0.5001221
vt 0.1455216 0.5276557
vt 0.1249595 0.5276557
vt 0.1041533 0.5001221
vt 0.1247154 0.5001221
vt 0.1247154 0.5276557
vt 0.1041533 0.5276557
vt 0.3538282 0.08345538
vt 0.3743903 0.08345538
vt 0.3743903 0.110989
vt 0.3538282 0.110989
vt 0.3330219 0.08345538
vt 0.3535841 0.08345538
vt 0.3535841 0.110989
vt 0.3330219 0.110989
vt 0.3122157 0.08345538
vt 0.3327778 0.08345538
vt 0.3327778 0.110989
vt 0.3122157 0.110989
vt 0.2914095 0.08345538
vt 0.3119715 0.08345538
vt 0.3119715 0.110989
vt 0.2914095 0.110989

# Normal
vn 0 0 -1

# Mesh description
g TaasButuanGardens_mesh_0007

# Faces
f 1/1/1 2/2/1 3/3/1 4/4/1
f 5/5/1 6/6/1 7/7/1 8/8/1
f 9/1/1 10/2/1 11/3/1 12/4/1
f 13/5/1 14/6/1 15/7/1 16/8/1
f 17/9/1 18/10/1 19/11/1 20/12/1
f 21/13/1 22/14/1 23/15/1 24/16/1
f 25/9/1 26/10/1 27/11/1 28/12/1
f 29/13/1 30/14/1 31/15/1 32/16/1
f 33/17/1 34/18/1 35/19/1 36/20/1
f 37/21/1 38/22/1 39/23/1 40/24/1
f 41/25/1 42/26/1 43/27/1 44/28/1
f 45/29/1 46/30/1 47/31/1 48/32/1
f 49/1/1 50/2/1 51/3/1 52/4/1
f 53/5/1 54/6/1 55/7/1 56/8/1
f 57/17/1 58/18/1 59/19/1 60/20/1
f 61/21/1 62/22/1 63/23/1 64/24/1
f 65/25/1 66/26/1 67/27/1 68/28/1
f 69/29/1 70/30/1 71/31/1 72/32/1
f 73/9/1 74/10/1 75/11/1 76/12/1
f 77/13/1 78/14/1 79/15/1 80/16/1
f 81/1/1 82/2/1 83/3/1 84/4/1
f 85/5/1 86/6/1 87/7/1 88/8/1
f 89/1/1 90/2/1 91/3/1 92/4/1
f 93/5/1 94/6/1 95/7/1 96/8/1
f 97/9/1 98/10/1 99/11/1 100/12/1
f 101/13/1 102/14/1 103/15/1 104/16/1
f 105/9/1 106/10/1 107/11/1 108/12/1
f 109/13/1 110/14/1 111/15/1 112/16/1
f 113/1/1 114/2/1 115/3/1 116/4/1
f 117/5/1 118/6/1 119/7/1 120/8/1
f 121/1/1 122/2/1 123/3/1 124/4/1
f 125/5/1 126/6/1 127/7/1 128/8/1
f 129/1/1 130/2/1 131/3/1 132/4/1
f 133/5/1 134/6/1 135/7/1 136/8/1
f 137/9/1 138/10/1 139/11/1 140/12/1
f 141/13/1 142/14/1 143/15/1 144/16/1
f 145/9/1 146/10/1 147/11/1 148/12/1
f 149/13/1 150/14/1 151/15/1 152/16/1
f 153/9/1 154/10/1 155/11/1 156/12/1
f 157/13/1 158/14/1 159/15/1 160/16/1
f 161/1/1 162/2/1 163/3/1 164/4/1
f 165/5/1 166/6/1 167/7/1 168/8/1
f 169/17/1 170/18/1 171/19/1 172/20/1
f 173/21/1 174/22/1 175/23/1 176/24/1
f 177/25/1 178/26/1 179/27/1 180/28/1
f 181/29/1 182/30/1 183/31/1 184/32/1
f 185/9/1 186/10/1 187/11/1 188/12/1
f 189/13/1 190/14/1 191/15/1 192/16/1
f 193/1/1 194/2/1 195/3/1 196/4/1
f 197/5/1 198/6/1 199/7/1 200/8/1
f 201/9/1 202/10/1 203/11/1 204/12/1
f 205/13/1 206/14/1 207/15/1 208/16/1
f 209/1/1 210/2/1 211/3/1 212/4/1
f 213/5/1 214/6/1 215/7/1 216/8/1
f 217/1/1 218/2/1 219/3/1 220/4/1
f 221/5/1 222/6/1 223/7/1 224/8/1
f 225/17/1 226/18/1 227/19/1 228/20/1
f 229/21/1 230/22/1 231/23/1 232/24/1
f 233/25/1 234/26/1 235/27/1 236/28/1
f 237/29/1 238/30/1 239/31/1 240/32/1
f 241/9/1 242/10/1 243/11/1 244/12/1
f 245/13/1 246/14/1 247/15/1 248/16/1
f 249/1/1 250/2/1 251/3/1 252/4/1
f 253/5/1 254/6/1 255/7/1 256/8/1
f 257/1/1 258/2/1 259/3/1 260/4/1
f 261/5/1 262/6/1 263/7/1 264/8/1
f 265/9/1 266/10/1 267/11/1 268/12/1
f 269/13/1 270/14/1 271/15/1 272/16/1
f 273/9/1 274/10/1 275/11/1 276/12/1
f 277/13/1 278/14/1 279/15/1 280/16/1
f 281/9/1 282/10/1 283/11/1 284/12/1
f 285/13/1 286/14/1 287/15/1 288/16/1
f 289/17/1 290/18/1 291/19/1 292/20/1
f 293/21/1 294/22/1 295/23/1 296/24/1
f 297/25/1 298/26/1 299/27/1 300/28/1
f 301/29/1 302/30/1 303/31/1 304/32/1
f 305/1/1 306/2/1 307/3/1 308/4/1
f 309/5/1 310/6/1 311/7/1 312/8/1
f 313/17/1 314/18/1 315/19/1 316/20/1
f 317/21/1 318/22/1 319/23/1 320/24/1
f 321/25/1 322/26/1 323/27/1 324/28/1
f 325/29/1 326/30/1 327/31/1 328/32/1
f 329/9/1 330/10/1 331/11/1 332/12/1
f 333/13/1 334/14/1 335/15/1 336/16/1
f 337/1/1 338/2/1 339/3/1 340/4/1
f 341/5/1 342/6/1 343/7/1 344/8/1
f 345/9/1 346/10/1 347/11/1 348/12/1
f 349/13/1 350/14/1 351/15/1 352/16/1
f 353/1/1 354/2/1 355/3/1 356/4/1
f 357/5/1 358/6/1 359/7/1 360/8/1
f 361/17/1 362/18/1 363/19/1 364/20/1
f 365/21/1 366/22/1 367/23/1 368/24/1
f 369/25/1 370/26/1 371/27/1 372/28/1
f 373/29/1 374/30/1 375/31/1 376/32/1
f 377/1/1 378/2/1 379/3/1 380/4/1
f 381/5/1 382/6/1 383/7/1 384/8/1
f 385/9/1 386/10/1 387/11/1 388/12/1
f 389/13/1 390/14/1 391/15/1 392/16/1
f 393/9/1 394/10/1 395/11/1 396/12/1
f 397/13/1 398/14/1 399/15/1 400/16/1
f 401/17/1 402/18/1 403/19/1 404/20/1
f 405/21/1 406/22/1 407/23/1 408/24/1
f 409/25/1 410/26/1 411/27/1 412/28/1
f 413/29/1 414/30/1 415/31/1 416/32/1
f 417/17/1 418/18/1 419/19/1 420/20/1
f 421/21/1 422/22/1 423/23/1 424/24/1
f 425/25/1 426/26/1 427/27/1 428/28/1
f 429/29/1 430/30/1 431/31/1 432/32/1
f 433/1/1 434/2/1 435/3/1 436/4/1
f 437/5/1 438/6/1 439/7/1 440/8/1
f 441/1/1 442/2/1 443/3/1 444/4/1
f 445/5/1 446/6/1 447/7/1 448/8/1
f 449/9/1 450/10/1 451/11/1 452/12/1
f 453/13/1 454/14/1 455/15/1 456/16/1
f 457/9/1 458/10/1 459/11/1 460/12/1
f 461/13/1 462/14/1 463/15/1 464/16/1
f 465/1/1 466/2/1 467/3/1 468/4/1
f 469/5/1 470/6/1 471/7/1 472/8/1
f 473/17/1 474/18/1 475/19/1 476/20/1
f 477/21/1 478/22/1 479/23/1 480/24/1
f 481/25/1 482/26/1 483/27/1 484/28/1
f 485/29/1 486/30/1 487/31/1 488/32/1
f 489/9/1 490/10/1 491/11/1 492/12/1
f 493/13/1 494/14/1 495/15/1 496/16/1
f 497/17/1 498/18/1 499/19/1 500/20/1
f 501/21/1 502/22/1 503/23/1 504/24/1
f 505/25/1 506/26/1 507/27/1 508/28/1
f 509/29/1 510/30/1 511/31/1 512/32/1
f 513/1/1 514/2/1 515/3/1 516/4/1
f 517/5/1 518/6/1 519/7/1 520/8/1
f 521/9/1 522/10/1 523/11/1 524/12/1
f 525/13/1 526/14/1 527/15/1 528/16/1
f 529/1/1 530/2/1 531/3/1 532/4/1
f 533/5/1 534/6/1 535/7/1 536/8/1
f 537/1/1 538/2/1 539/3/1 540/4/1
f 541/5/1 542/6/1 543/7/1 544/8/1
f 545/9/1 546/10/1 547/11/1 548/12/1
f 549/13/1 550/14/1 551/15/1 552/16/1
f 553/17/1 554/18/1 555/19/1 556/20/1
f 557/21/1 558/22/1 559/23/1 560/24/1
f 561/25/1 562/26/1 563/27/1 564/28/1
f 565/29/1 566/30/1 567/31/1 568/32/1
f 569/9/1 570/10/1 571/11/1 572/12/1
f 573/13/1 574/14/1 575/15/1 576/16/1
f 577/1/1 578/2/1 579/3/1 580/4/1
f 581/5/1 582/6/1 583/7/1 584/8/1
f 585/9/1 586/10/1 587/11/1 588/12/1
f 589/13/1 590/14/1 591/15/1 592/16/1
f 593/17/1 594/18/1 595/19/1 596/20/1
f 597/21/1 598/22/1 599/23/1 600/24/1
f 601/25/1 602/26/1 603/27/1 604/28/1
f 605/29/1 606/30/1 607/31/1 608/32/1
f 609/1/1 610/2/1 611/3/1 612/4/1
f 613/5/1 614/6/1 615/7/1 616/8/1
f 617/1/1 618/2/1 619/3/1 620/4/1
f 621/5/1 622/6/1 623/7/1 624/8/1
f 625/9/1 626/10/1 627/11/1 628/12/1
f 629/13/1 630/14/1 631/15/1 632/16/1
f 633/9/1 634/10/1 635/11/1 636/12/1
f 637/13/1 638/14/1 639/15/1 640/16/1
f 641/17/1 642/18/1 643/19/1 644/20/1
f 645/21/1 646/22/1 647/23/1 648/24/1
f 649/25/1 650/26/1 651/27/1 652/28/1
f 653/29/1 654/30/1 655/31/1 656/32/1
f 657/1/1 658/2/1 659/3/1 660/4/1
f 661/5/1 662/6/1 663/7/1 664/8/1
f 665/9/1 666/10/1 667/11/1 668/12/1
f 669/13/1 670/14/1 671/15/1 672/16/1
f 673/1/1 674/2/1 675/3/1 676/4/1
f 677/5/1 678/6/1 679/7/1 680/8/1
f 681/9/1 682/10/1 683/11/1 684/12/1
f 685/13/1 686/14/1 687/15/1 688/16/1
f 689/1/1 690/2/1 691/3/1 692/4/1
f 693/5/1 694/6/1 695/7/1 696/8/1
f 697/1/1 698/2/1 699/3/1 700/4/1
f 701/5/1 702/6/1 703/7/1 704/8/1
f 705/1/1 706/2/1 707/3/1 708/4/1
f 709/5/1 710/6/1 711/7/1 712/8/1
f 713/9/1 714/10/1 715/11/1 716/12/1
f 717/13/1 718/14/1 719/15/1 720/16/1
f 721/9/1 722/10/1 723/11/1 724/12/1
f 725/13/1 726/14/1 727/15/1 728/16/1
f 729/9/1 730/10/1 731/11/1 732/12/1
f 733/13/1 734/14/1 735/15/1 736/16/1
f 737/1/1 738/2/1 739/3/1 740/4/1
f 741/5/1 742/6/1 743/7/1 744/8/1
f 745/17/1 746/18/1 747/19/1 748/20/1
f 749/21/1 750/22/1 751/23/1 752/24/1
f 753/25/1 754/26/1 755/27/1 756/28/1
f 757/29/1 758/30/1 759/31/1 760/32/1
f 761/9/1 762/10/1 763/11/1 764/12/1
f 765/13/1 766/14/1 767/15/1 768/16/1
f 769/1/1 770/2/1 771/3/1 772/4/1
f 773/5/1 774/6/1 775/7/1 776/8/1
f 777/1/1 778/2/1 779/3/1 780/4/1
f 781/5/1 782/6/1 783/7/1 784/8/1
f 785/9/1 786/10/1 787/11/1 788/12/1
f 789/13/1 790/14/1 791/15/1 792/16/1
f 793/17/1 794/18/1 795/19/1 796/20/1
f 797/21/1 798/22/1 799/23/1 800/24/1
f 801/25/1 802/26/1 803/27/1 804/28/1
f 805/29/1 806/30/1 807/31/1 808/32/1
f 809/9/1 810/10/1 811/11/1 812/12/1
f 813/13/1 814/14/1 815/15/1 816/16/1
f 817/17/1 818/18/1 819/19/1 820/20/1
f 821/21/1 822/22/1 823/23/1 824/24/1
f 825/25/1 826/26/1 827/27/1 828/28/1
f 829/29/1 830/30/1 831/31/1 832/32/1
f 833/1/1 834/2/1 835/3/1 836/4/1
f 837/5/1 838/6/1 839/7/1 840/8/1
f 841/9/1 842/10/1 843/11/1 844/12/1
f 845/13/1 846/14/1 847/15/1 848/16/1
f 849/17/1 850/18/1 851/19/1 852/20/1
f 853/21/1 854/22/1 855/23/1 856/24/1
f 857/25/1 858/26/1 859/27/1 860/28/1
f 861/29/1 862/30/1 863/31/1 864/32/1
f 865/17/1 866/18/1 867/19/1 868/20/1
f 869/21/1 870/22/1 871/23/1 872/24/1
f 873/25/1 874/26/1 875/27/1 876/28/1
f 877/29/1 878/30/1 879/31/1 880/32/1
f 881/17/1 882/18/1 883/19/1 884/20/1
f 885/21/1 886/22/1 887/23/1 888/24/1
f 889/25/1 890/26/1 891/27/1 892/28/1
f 893/29/1 894/30/1 895/31/1 896/32/1

