# Tiled2Unity generated file. Do not modify by hand.
# Wavefront file for 'OngYiu_mesh_0003.obj'

# Vertices (Count = 288)
v -41 -12 0
v -42 -12 0
v -42 -11 0
v -41 -11 0
v -40 -12 0
v -41 -12 0
v -41 -11 0
v -40 -11 0
v -39 -12 0
v -40 -12 0
v -40 -11 0
v -39 -11 0
v -38 -12 0
v -39 -12 0
v -39 -11 0
v -38 -11 0
v -37 -12 0
v -38 -12 0
v -38 -11 0
v -37 -11 0
v -36 -12 0
v -37 -12 0
v -37 -11 0
v -36 -11 0
v -35 -12 0
v -36 -12 0
v -36 -11 0
v -35 -11 0
v -41 -13 0
v -42 -13 0
v -42 -12 0
v -41 -12 0
v -40 -13 0
v -41 -13 0
v -41 -12 0
v -40 -12 0
v -39 -13 0
v -40 -13 0
v -40 -12 0
v -39 -12 0
v -38 -13 0
v -39 -13 0
v -39 -12 0
v -38 -12 0
v -37 -13 0
v -38 -13 0
v -38 -12 0
v -37 -12 0
v -36 -13 0
v -37 -13 0
v -37 -12 0
v -36 -12 0
v -35 -13 0
v -36 -13 0
v -36 -12 0
v -35 -12 0
v -41 -14 0
v -42 -14 0
v -42 -13 0
v -41 -13 0
v -40 -14 0
v -41 -14 0
v -41 -13 0
v -40 -13 0
v -39 -14 0
v -40 -14 0
v -40 -13 0
v -39 -13 0
v -38 -14 0
v -39 -14 0
v -39 -13 0
v -38 -13 0
v -37 -14 0
v -38 -14 0
v -38 -13 0
v -37 -13 0
v -36 -14 0
v -37 -14 0
v -37 -13 0
v -36 -13 0
v -35 -14 0
v -36 -14 0
v -36 -13 0
v -35 -13 0
v -18 -30 0
v -19 -30 0
v -19 -29 0
v -18 -29 0
v -17 -30 0
v -18 -30 0
v -18 -29 0
v -17 -29 0
v -16 -30 0
v -17 -30 0
v -17 -29 0
v -16 -29 0
v -15 -30 0
v -16 -30 0
v -16 -29 0
v -15 -29 0
v -14 -30 0
v -15 -30 0
v -15 -29 0
v -14 -29 0
v -18 -31 0
v -19 -31 0
v -19 -30 0
v -18 -30 0
v -17 -31 0
v -18 -31 0
v -18 -30 0
v -17 -30 0
v -16 -31 0
v -17 -31 0
v -17 -30 0
v -16 -30 0
v -15 -31 0
v -16 -31 0
v -16 -30 0
v -15 -30 0
v -14 -31 0
v -15 -31 0
v -15 -30 0
v -14 -30 0
v -18 -32 0
v -19 -32 0
v -19 -31 0
v -18 -31 0
v -17 -32 0
v -18 -32 0
v -18 -31 0
v -17 -31 0
v -16 -32 0
v -17 -32 0
v -17 -31 0
v -16 -31 0
v -15 -32 0
v -16 -32 0
v -16 -31 0
v -15 -31 0
v -14 -32 0
v -15 -32 0
v -15 -31 0
v -14 -31 0
v -18 -33 0
v -19 -33 0
v -19 -32 0
v -18 -32 0
v -17 -33 0
v -18 -33 0
v -18 -32 0
v -17 -32 0
v -16 -33 0
v -17 -33 0
v -17 -32 0
v -16 -32 0
v -15 -33 0
v -16 -33 0
v -16 -32 0
v -15 -32 0
v -14 -33 0
v -15 -33 0
v -15 -32 0
v -14 -32 0
v -18 -34 0
v -19 -34 0
v -19 -33 0
v -18 -33 0
v -17 -34 0
v -18 -34 0
v -18 -33 0
v -17 -33 0
v -16 -34 0
v -17 -34 0
v -17 -33 0
v -16 -33 0
v -15 -34 0
v -16 -34 0
v -16 -33 0
v -15 -33 0
v -14 -34 0
v -15 -34 0
v -15 -33 0
v -14 -33 0
v -18 -35 0
v -19 -35 0
v -19 -34 0
v -18 -34 0
v -17 -35 0
v -18 -35 0
v -18 -34 0
v -17 -34 0
v -16 -35 0
v -17 -35 0
v -17 -34 0
v -16 -34 0
v -15 -35 0
v -16 -35 0
v -16 -34 0
v -15 -34 0
v -14 -35 0
v -15 -35 0
v -15 -34 0
v -14 -34 0
v -35 -37 0
v -36 -37 0
v -36 -36 0
v -35 -36 0
v -34 -37 0
v -35 -37 0
v -35 -36 0
v -34 -36 0
v -33 -37 0
v -34 -37 0
v -34 -36 0
v -33 -36 0
v -32 -37 0
v -33 -37 0
v -33 -36 0
v -32 -36 0
v -31 -37 0
v -32 -37 0
v -32 -36 0
v -31 -36 0
v -30 -37 0
v -31 -37 0
v -31 -36 0
v -30 -36 0
v -29 -37 0
v -30 -37 0
v -30 -36 0
v -29 -36 0
v -35 -38 0
v -36 -38 0
v -36 -37 0
v -35 -37 0
v -34 -38 0
v -35 -38 0
v -35 -37 0
v -34 -37 0
v -33 -38 0
v -34 -38 0
v -34 -37 0
v -33 -37 0
v -32 -38 0
v -33 -38 0
v -33 -37 0
v -32 -37 0
v -31 -38 0
v -32 -38 0
v -32 -37 0
v -31 -37 0
v -30 -38 0
v -31 -38 0
v -31 -37 0
v -30 -37 0
v -29 -38 0
v -30 -38 0
v -30 -37 0
v -29 -37 0
v -35 -39 0
v -36 -39 0
v -36 -38 0
v -35 -38 0
v -34 -39 0
v -35 -39 0
v -35 -38 0
v -34 -38 0
v -33 -39 0
v -34 -39 0
v -34 -38 0
v -33 -38 0
v -32 -39 0
v -33 -39 0
v -33 -38 0
v -32 -38 0
v -31 -39 0
v -32 -39 0
v -32 -38 0
v -31 -38 0
v -30 -39 0
v -31 -39 0
v -31 -38 0
v -30 -38 0
v -29 -39 0
v -30 -39 0
v -30 -38 0
v -29 -38 0

# Texture cooridinates (Count = 288)
vt 0.2727525 0.3422273
vt 0.2895478 0.3422273
vt 0.2895478 0.368299
vt 0.2727525 0.368299
vt 0.2557131 0.3422273
vt 0.2725084 0.3422273
vt 0.2725084 0.368299
vt 0.2557131 0.368299
vt 0.2386737 0.3422273
vt 0.255469 0.3422273
vt 0.255469 0.368299
vt 0.2386737 0.368299
vt 0.2216343 0.3422273
vt 0.2384296 0.3422273
vt 0.2384296 0.368299
vt 0.2216343 0.368299
vt 0.2045949 0.3422273
vt 0.2213902 0.3422273
vt 0.2213902 0.368299
vt 0.2045949 0.368299
vt 0.1875555 0.3422273
vt 0.2043508 0.3422273
vt 0.2043508 0.368299
vt 0.1875555 0.368299
vt 0.1705161 0.3422273
vt 0.1873114 0.3422273
vt 0.1873114 0.368299
vt 0.1705161 0.368299
vt 0.2727525 0.3159115
vt 0.2895478 0.3159115
vt 0.2895478 0.3419832
vt 0.2727525 0.3419832
vt 0.2557131 0.3159115
vt 0.2725084 0.3159115
vt 0.2725084 0.3419832
vt 0.2557131 0.3419832
vt 0.2386737 0.3159115
vt 0.255469 0.3159115
vt 0.255469 0.3419832
vt 0.2386737 0.3419832
vt 0.2216343 0.3159115
vt 0.2384296 0.3159115
vt 0.2384296 0.3419832
vt 0.2216343 0.3419832
vt 0.2045949 0.3159115
vt 0.2213902 0.3159115
vt 0.2213902 0.3419832
vt 0.2045949 0.3419832
vt 0.1875555 0.3159115
vt 0.2043508 0.3159115
vt 0.2043508 0.3419832
vt 0.1875555 0.3419832
vt 0.1705161 0.3159115
vt 0.1873114 0.3159115
vt 0.1873114 0.3419832
vt 0.1705161 0.3419832
vt 0.2727525 0.2895958
vt 0.2895478 0.2895958
vt 0.2895478 0.3156674
vt 0.2727525 0.3156674
vt 0.2557131 0.2895958
vt 0.2725084 0.2895958
vt 0.2725084 0.3156674
vt 0.2557131 0.3156674
vt 0.2386737 0.2895958
vt 0.255469 0.2895958
vt 0.255469 0.3156674
vt 0.2386737 0.3156674
vt 0.2216343 0.2895958
vt 0.2384296 0.2895958
vt 0.2384296 0.3156674
vt 0.2216343 0.3156674
vt 0.2045949 0.2895958
vt 0.2213902 0.2895958
vt 0.2213902 0.3156674
vt 0.2045949 0.3156674
vt 0.1875555 0.2895958
vt 0.2043508 0.2895958
vt 0.2043508 0.3156674
vt 0.1875555 0.3156674
vt 0.1705161 0.2895958
vt 0.1873114 0.2895958
vt 0.1873114 0.3156674
vt 0.1705161 0.3156674
vt 0.3920284 0.8422273
vt 0.4088236 0.8422273
vt 0.4088236 0.868299
vt 0.3920284 0.868299
vt 0.3749889 0.8422273
vt 0.3917842 0.8422273
vt 0.3917842 0.868299
vt 0.3749889 0.868299
vt 0.3579496 0.8422273
vt 0.3747448 0.8422273
vt 0.3747448 0.868299
vt 0.3579496 0.868299
vt 0.3409101 0.8422273
vt 0.3577054 0.8422273
vt 0.3577054 0.868299
vt 0.3409101 0.868299
vt 0.3238707 0.8422273
vt 0.340666 0.8422273
vt 0.340666 0.868299
vt 0.3238707 0.868299
vt 0.3920284 0.8159115
vt 0.4088236 0.8159115
vt 0.4088236 0.8419832
vt 0.3920284 0.8419832
vt 0.3749889 0.8159115
vt 0.3917842 0.8159115
vt 0.3917842 0.8419832
vt 0.3749889 0.8419832
vt 0.3579496 0.8159115
vt 0.3747448 0.8159115
vt 0.3747448 0.8419832
vt 0.3579496 0.8419832
vt 0.3409101 0.8159115
vt 0.3577054 0.8159115
vt 0.3577054 0.8419832
vt 0.3409101 0.8419832
vt 0.3238707 0.8159115
vt 0.340666 0.8159115
vt 0.340666 0.8419832
vt 0.3238707 0.8419832
vt 0.3920284 0.7895957
vt 0.4088236 0.7895957
vt 0.4088236 0.8156674
vt 0.3920284 0.8156674
vt 0.3749889 0.7895957
vt 0.3917842 0.7895957
vt 0.3917842 0.8156674
vt 0.3749889 0.8156674
vt 0.3579496 0.7895957
vt 0.3747448 0.7895957
vt 0.3747448 0.8156674
vt 0.3579496 0.8156674
vt 0.3409101 0.7895957
vt 0.3577054 0.7895957
vt 0.3577054 0.8156674
vt 0.3409101 0.8156674
vt 0.3238707 0.7895957
vt 0.340666 0.7895957
vt 0.340666 0.8156674
vt 0.3238707 0.8156674
vt 0.3920284 0.76328
vt 0.4088236 0.76328
vt 0.4088236 0.7893516
vt 0.3920284 0.7893516
vt 0.3749889 0.76328
vt 0.3917842 0.76328
vt 0.3917842 0.7893516
vt 0.3749889 0.7893516
vt 0.3579496 0.76328
vt 0.3747448 0.76328
vt 0.3747448 0.7893516
vt 0.3579496 0.7893516
vt 0.3409101 0.76328
vt 0.3577054 0.76328
vt 0.3577054 0.7893516
vt 0.3409101 0.7893516
vt 0.3238707 0.76328
vt 0.340666 0.76328
vt 0.340666 0.7893516
vt 0.3238707 0.7893516
vt 0.3920284 0.7369642
vt 0.4088236 0.7369642
vt 0.4088236 0.7630358
vt 0.3920284 0.7630358
vt 0.3749889 0.7369642
vt 0.3917842 0.7369642
vt 0.3917842 0.7630358
vt 0.3749889 0.7630358
vt 0.3579496 0.7369642
vt 0.3747448 0.7369642
vt 0.3747448 0.7630358
vt 0.3579496 0.7630358
vt 0.3409101 0.7369642
vt 0.3577054 0.7369642
vt 0.3577054 0.7630358
vt 0.3409101 0.7630358
vt 0.3238707 0.7369642
vt 0.340666 0.7369642
vt 0.340666 0.7630358
vt 0.3238707 0.7630358
vt 0.3920284 0.7106484
vt 0.4088236 0.7106484
vt 0.4088236 0.73672
vt 0.3920284 0.73672
vt 0.3749889 0.7106484
vt 0.3917842 0.7106484
vt 0.3917842 0.73672
vt 0.3749889 0.73672
vt 0.3579496 0.7106484
vt 0.3747448 0.7106484
vt 0.3747448 0.73672
vt 0.3579496 0.73672
vt 0.3409101 0.7106484
vt 0.3577054 0.7106484
vt 0.3577054 0.73672
vt 0.3409101 0.73672
vt 0.3238707 0.7106484
vt 0.340666 0.7106484
vt 0.340666 0.73672
vt 0.3238707 0.73672
vt 0.3920284 0.07906944
vt 0.4088236 0.07906944
vt 0.4088236 0.1051411
vt 0.3920284 0.1051411
vt 0.3749889 0.07906944
vt 0.3917842 0.07906944
vt 0.3917842 0.1051411
vt 0.3749889 0.1051411
vt 0.3579496 0.07906944
vt 0.3747448 0.07906944
vt 0.3747448 0.1051411
vt 0.3579496 0.1051411
vt 0.3409101 0.07906944
vt 0.3577054 0.07906944
vt 0.3577054 0.1051411
vt 0.3409101 0.1051411
vt 0.3238707 0.07906944
vt 0.340666 0.07906944
vt 0.340666 0.1051411
vt 0.3238707 0.1051411
vt 0.3068313 0.07906944
vt 0.3236266 0.07906944
vt 0.3236266 0.1051411
vt 0.3068313 0.1051411
vt 0.2897919 0.07906944
vt 0.3065872 0.07906944
vt 0.3065872 0.1051411
vt 0.2897919 0.1051411
vt 0.3920284 0.05275363
vt 0.4088236 0.05275363
vt 0.4088236 0.07882529
vt 0.3920284 0.07882529
vt 0.3749889 0.05275363
vt 0.3917842 0.05275363
vt 0.3917842 0.07882529
vt 0.3749889 0.07882529
vt 0.3579496 0.05275363
vt 0.3747448 0.05275363
vt 0.3747448 0.07882529
vt 0.3579496 0.07882529
vt 0.3409101 0.05275363
vt 0.3577054 0.05275363
vt 0.3577054 0.07882529
vt 0.3409101 0.07882529
vt 0.3238707 0.05275363
vt 0.340666 0.05275363
vt 0.340666 0.07882529
vt 0.3238707 0.07882529
vt 0.3068313 0.05275363
vt 0.3236266 0.05275363
vt 0.3236266 0.07882529
vt 0.3068313 0.07882529
vt 0.2897919 0.05275363
vt 0.3065872 0.05275363
vt 0.3065872 0.07882529
vt 0.2897919 0.07882529
vt 0.3920284 0.02643788
vt 0.4088236 0.02643788
vt 0.4088236 0.05250949
vt 0.3920284 0.05250949
vt 0.3749889 0.02643788
vt 0.3917842 0.02643788
vt 0.3917842 0.05250949
vt 0.3749889 0.05250949
vt 0.3579496 0.02643788
vt 0.3747448 0.02643788
vt 0.3747448 0.05250949
vt 0.3579496 0.05250949
vt 0.3409101 0.02643788
vt 0.3577054 0.02643788
vt 0.3577054 0.05250949
vt 0.3409101 0.05250949
vt 0.3238707 0.02643788
vt 0.340666 0.02643788
vt 0.340666 0.05250949
vt 0.3238707 0.05250949
vt 0.3068313 0.02643788
vt 0.3236266 0.02643788
vt 0.3236266 0.05250949
vt 0.3068313 0.05250949
vt 0.2897919 0.02643788
vt 0.3065872 0.02643788
vt 0.3065872 0.05250949
vt 0.2897919 0.05250949

# Normal
vn 0 0 -1

# Mesh description
g OngYiu_mesh_0003

# Faces
f 1/1/1 2/2/1 3/3/1 4/4/1
f 5/5/1 6/6/1 7/7/1 8/8/1
f 9/9/1 10/10/1 11/11/1 12/12/1
f 13/13/1 14/14/1 15/15/1 16/16/1
f 17/17/1 18/18/1 19/19/1 20/20/1
f 21/21/1 22/22/1 23/23/1 24/24/1
f 25/25/1 26/26/1 27/27/1 28/28/1
f 29/29/1 30/30/1 31/31/1 32/32/1
f 33/33/1 34/34/1 35/35/1 36/36/1
f 37/37/1 38/38/1 39/39/1 40/40/1
f 41/41/1 42/42/1 43/43/1 44/44/1
f 45/45/1 46/46/1 47/47/1 48/48/1
f 49/49/1 50/50/1 51/51/1 52/52/1
f 53/53/1 54/54/1 55/55/1 56/56/1
f 57/57/1 58/58/1 59/59/1 60/60/1
f 61/61/1 62/62/1 63/63/1 64/64/1
f 65/65/1 66/66/1 67/67/1 68/68/1
f 69/69/1 70/70/1 71/71/1 72/72/1
f 73/73/1 74/74/1 75/75/1 76/76/1
f 77/77/1 78/78/1 79/79/1 80/80/1
f 81/81/1 82/82/1 83/83/1 84/84/1
f 85/85/1 86/86/1 87/87/1 88/88/1
f 89/89/1 90/90/1 91/91/1 92/92/1
f 93/93/1 94/94/1 95/95/1 96/96/1
f 97/97/1 98/98/1 99/99/1 100/100/1
f 101/101/1 102/102/1 103/103/1 104/104/1
f 105/105/1 106/106/1 107/107/1 108/108/1
f 109/109/1 110/110/1 111/111/1 112/112/1
f 113/113/1 114/114/1 115/115/1 116/116/1
f 117/117/1 118/118/1 119/119/1 120/120/1
f 121/121/1 122/122/1 123/123/1 124/124/1
f 125/125/1 126/126/1 127/127/1 128/128/1
f 129/129/1 130/130/1 131/131/1 132/132/1
f 133/133/1 134/134/1 135/135/1 136/136/1
f 137/137/1 138/138/1 139/139/1 140/140/1
f 141/141/1 142/142/1 143/143/1 144/144/1
f 145/145/1 146/146/1 147/147/1 148/148/1
f 149/149/1 150/150/1 151/151/1 152/152/1
f 153/153/1 154/154/1 155/155/1 156/156/1
f 157/157/1 158/158/1 159/159/1 160/160/1
f 161/161/1 162/162/1 163/163/1 164/164/1
f 165/165/1 166/166/1 167/167/1 168/168/1
f 169/169/1 170/170/1 171/171/1 172/172/1
f 173/173/1 174/174/1 175/175/1 176/176/1
f 177/177/1 178/178/1 179/179/1 180/180/1
f 181/181/1 182/182/1 183/183/1 184/184/1
f 185/185/1 186/186/1 187/187/1 188/188/1
f 189/189/1 190/190/1 191/191/1 192/192/1
f 193/193/1 194/194/1 195/195/1 196/196/1
f 197/197/1 198/198/1 199/199/1 200/200/1
f 201/201/1 202/202/1 203/203/1 204/204/1
f 205/205/1 206/206/1 207/207/1 208/208/1
f 209/209/1 210/210/1 211/211/1 212/212/1
f 213/213/1 214/214/1 215/215/1 216/216/1
f 217/217/1 218/218/1 219/219/1 220/220/1
f 221/221/1 222/222/1 223/223/1 224/224/1
f 225/225/1 226/226/1 227/227/1 228/228/1
f 229/229/1 230/230/1 231/231/1 232/232/1
f 233/233/1 234/234/1 235/235/1 236/236/1
f 237/237/1 238/238/1 239/239/1 240/240/1
f 241/241/1 242/242/1 243/243/1 244/244/1
f 245/245/1 246/246/1 247/247/1 248/248/1
f 249/249/1 250/250/1 251/251/1 252/252/1
f 253/253/1 254/254/1 255/255/1 256/256/1
f 257/257/1 258/258/1 259/259/1 260/260/1
f 261/261/1 262/262/1 263/263/1 264/264/1
f 265/265/1 266/266/1 267/267/1 268/268/1
f 269/269/1 270/270/1 271/271/1 272/272/1
f 273/273/1 274/274/1 275/275/1 276/276/1
f 277/277/1 278/278/1 279/279/1 280/280/1
f 281/281/1 282/282/1 283/283/1 284/284/1
f 285/285/1 286/286/1 287/287/1 288/288/1

