# Tiled2Unity generated file. Do not modify by hand.
# Wavefront file for 'PoliceRegionalOffice_mesh_0004.obj'

# Vertices (Count = 192)
v -3 -3 0
v -4 -3 0
v -4 -2 0
v -3 -2 0
v -2 -3 0
v -3 -3 0
v -3 -2 0
v -2 -2 0
v -1 -3 0
v -2 -3 0
v -2 -2 0
v -1 -2 0
v -3 -4 0
v -4 -4 0
v -4 -3 0
v -3 -3 0
v -2 -4 0
v -3 -4 0
v -3 -3 0
v -2 -3 0
v -1 -4 0
v -2 -4 0
v -2 -3 0
v -1 -3 0
v -3 -5 0
v -4 -5 0
v -4 -4 0
v -3 -4 0
v -2 -5 0
v -3 -5 0
v -3 -4 0
v -2 -4 0
v -1 -5 0
v -2 -5 0
v -2 -4 0
v -1 -4 0
v -37 -22 0
v -38 -22 0
v -38 -21 0
v -37 -21 0
v -36 -22 0
v -37 -22 0
v -37 -21 0
v -36 -21 0
v -35 -22 0
v -36 -22 0
v -36 -21 0
v -35 -21 0
v -34 -22 0
v -35 -22 0
v -35 -21 0
v -34 -21 0
v -33 -22 0
v -34 -22 0
v -34 -21 0
v -33 -21 0
v -32 -22 0
v -33 -22 0
v -33 -21 0
v -32 -21 0
v -31 -22 0
v -32 -22 0
v -32 -21 0
v -31 -21 0
v -30 -22 0
v -31 -22 0
v -31 -21 0
v -30 -21 0
v -29 -22 0
v -30 -22 0
v -30 -21 0
v -29 -21 0
v -28 -22 0
v -29 -22 0
v -29 -21 0
v -28 -21 0
v -37 -23 0
v -38 -23 0
v -38 -22 0
v -37 -22 0
v -36 -23 0
v -37 -23 0
v -37 -22 0
v -36 -22 0
v -35 -23 0
v -36 -23 0
v -36 -22 0
v -35 -22 0
v -34 -23 0
v -35 -23 0
v -35 -22 0
v -34 -22 0
v -33 -23 0
v -34 -23 0
v -34 -22 0
v -33 -22 0
v -32 -23 0
v -33 -23 0
v -33 -22 0
v -32 -22 0
v -31 -23 0
v -32 -23 0
v -32 -22 0
v -31 -22 0
v -30 -23 0
v -31 -23 0
v -31 -22 0
v -30 -22 0
v -29 -23 0
v -30 -23 0
v -30 -22 0
v -29 -22 0
v -28 -23 0
v -29 -23 0
v -29 -22 0
v -28 -22 0
v -37 -24 0
v -38 -24 0
v -38 -23 0
v -37 -23 0
v -36 -24 0
v -37 -24 0
v -37 -23 0
v -36 -23 0
v -35 -24 0
v -36 -24 0
v -36 -23 0
v -35 -23 0
v -34 -24 0
v -35 -24 0
v -35 -23 0
v -34 -23 0
v -33 -24 0
v -34 -24 0
v -34 -23 0
v -33 -23 0
v -32 -24 0
v -33 -24 0
v -33 -23 0
v -32 -23 0
v -31 -24 0
v -32 -24 0
v -32 -23 0
v -31 -23 0
v -30 -24 0
v -31 -24 0
v -31 -23 0
v -30 -23 0
v -29 -24 0
v -30 -24 0
v -30 -23 0
v -29 -23 0
v -28 -24 0
v -29 -24 0
v -29 -23 0
v -28 -23 0
v -20 -33 0
v -21 -33 0
v -21 -32 0
v -20 -32 0
v -19 -33 0
v -20 -33 0
v -20 -32 0
v -19 -32 0
v -18 -33 0
v -19 -33 0
v -19 -32 0
v -18 -32 0
v -20 -34 0
v -21 -34 0
v -21 -33 0
v -20 -33 0
v -19 -34 0
v -20 -34 0
v -20 -33 0
v -19 -33 0
v -18 -34 0
v -19 -34 0
v -19 -33 0
v -18 -33 0
v -20 -35 0
v -21 -35 0
v -21 -34 0
v -20 -34 0
v -19 -35 0
v -20 -35 0
v -20 -34 0
v -19 -34 0
v -18 -35 0
v -19 -35 0
v -19 -34 0
v -18 -34 0

# Texture cooridinates (Count = 156)
vt 0.3579496 0.9474905
vt 0.3747448 0.9474905
vt 0.3747448 0.9735621
vt 0.3579496 0.9735621
vt 0.3409101 0.9474905
vt 0.3577054 0.9474905
vt 0.3577054 0.9735621
vt 0.3409101 0.9735621
vt 0.3238707 0.9474905
vt 0.340666 0.9474905
vt 0.340666 0.9735621
vt 0.3238707 0.9735621
vt 0.3579496 0.9211747
vt 0.3747448 0.9211747
vt 0.3747448 0.9472464
vt 0.3579496 0.9472464
vt 0.3409101 0.9211747
vt 0.3577054 0.9211747
vt 0.3577054 0.9472464
vt 0.3409101 0.9472464
vt 0.3238707 0.9211747
vt 0.340666 0.9211747
vt 0.340666 0.9472464
vt 0.3238707 0.9472464
vt 0.3579496 0.8948589
vt 0.3747448 0.8948589
vt 0.3747448 0.9209306
vt 0.3579496 0.9209306
vt 0.3409101 0.8948589
vt 0.3577054 0.8948589
vt 0.3577054 0.9209306
vt 0.3409101 0.9209306
vt 0.3238707 0.8948589
vt 0.340666 0.8948589
vt 0.340666 0.9209306
vt 0.3238707 0.9209306
vt 0.1534767 0.6843326
vt 0.170272 0.6843326
vt 0.170272 0.7104043
vt 0.1534767 0.7104043
vt 0.1364373 0.6843326
vt 0.1532326 0.6843326
vt 0.1532326 0.7104043
vt 0.1364373 0.7104043
vt 0.1193979 0.6843326
vt 0.1361932 0.6843326
vt 0.1361932 0.7104043
vt 0.1193979 0.7104043
vt 0.1023585 0.6843326
vt 0.1191538 0.6843326
vt 0.1191538 0.7104043
vt 0.1023585 0.7104043
vt 0.08531909 0.6843326
vt 0.1021143 0.6843326
vt 0.1021143 0.7104043
vt 0.08531909 0.7104043
vt 0.06827968 0.6843326
vt 0.08507495 0.6843326
vt 0.08507495 0.7104043
vt 0.06827968 0.7104043
vt 0.05124028 0.6843326
vt 0.06803554 0.6843326
vt 0.06803554 0.7104043
vt 0.05124028 0.7104043
vt 0.03420088 0.6843326
vt 0.05099614 0.6843326
vt 0.05099614 0.7104043
vt 0.03420088 0.7104043
vt 0.01716147 0.6843326
vt 0.03395674 0.6843326
vt 0.03395674 0.7104043
vt 0.01716147 0.7104043
vt 0.0001220703 0.6843326
vt 0.01691733 0.6843326
vt 0.01691733 0.7104043
vt 0.0001220703 0.7104043
vt 0.1534767 0.6580168
vt 0.170272 0.6580168
vt 0.170272 0.6840885
vt 0.1534767 0.6840885
vt 0.1364373 0.6580168
vt 0.1532326 0.6580168
vt 0.1532326 0.6840885
vt 0.1364373 0.6840885
vt 0.1193979 0.6580168
vt 0.1361932 0.6580168
vt 0.1361932 0.6840885
vt 0.1193979 0.6840885
vt 0.1023585 0.6580168
vt 0.1191538 0.6580168
vt 0.1191538 0.6840885
vt 0.1023585 0.6840885
vt 0.08531909 0.6580168
vt 0.1021143 0.6580168
vt 0.1021143 0.6840885
vt 0.08531909 0.6840885
vt 0.06827968 0.6580168
vt 0.08507495 0.6580168
vt 0.08507495 0.6840885
vt 0.06827968 0.6840885
vt 0.05124028 0.6580168
vt 0.06803554 0.6580168
vt 0.06803554 0.6840885
vt 0.05124028 0.6840885
vt 0.03420088 0.6580168
vt 0.05099614 0.6580168
vt 0.05099614 0.6840885
vt 0.03420088 0.6840885
vt 0.01716147 0.6580168
vt 0.03395674 0.6580168
vt 0.03395674 0.6840885
vt 0.01716147 0.6840885
vt 0.0001220703 0.6580168
vt 0.01691733 0.6580168
vt 0.01691733 0.6840885
vt 0.0001220703 0.6840885
vt 0.1534767 0.631701
vt 0.170272 0.631701
vt 0.170272 0.6577727
vt 0.1534767 0.6577727
vt 0.1364373 0.631701
vt 0.1532326 0.631701
vt 0.1532326 0.6577727
vt 0.1364373 0.6577727
vt 0.1193979 0.631701
vt 0.1361932 0.631701
vt 0.1361932 0.6577727
vt 0.1193979 0.6577727
vt 0.1023585 0.631701
vt 0.1191538 0.631701
vt 0.1191538 0.6577727
vt 0.1023585 0.6577727
vt 0.08531909 0.631701
vt 0.1021143 0.631701
vt 0.1021143 0.6577727
vt 0.08531909 0.6577727
vt 0.06827968 0.631701
vt 0.08507495 0.631701
vt 0.08507495 0.6577727
vt 0.06827968 0.6577727
vt 0.05124028 0.631701
vt 0.06803554 0.631701
vt 0.06803554 0.6577727
vt 0.05124028 0.6577727
vt 0.03420088 0.631701
vt 0.05099614 0.631701
vt 0.05099614 0.6577727
vt 0.03420088 0.6577727
vt 0.01716147 0.631701
vt 0.03395674 0.631701
vt 0.03395674 0.6577727
vt 0.01716147 0.6577727
vt 0.0001220703 0.631701
vt 0.01691733 0.631701
vt 0.01691733 0.6577727
vt 0.0001220703 0.6577727

# Normal
vn 0 0 -1

# Mesh description
g PoliceRegionalOffice_mesh_0004

# Faces
f 1/1/1 2/2/1 3/3/1 4/4/1
f 5/5/1 6/6/1 7/7/1 8/8/1
f 9/9/1 10/10/1 11/11/1 12/12/1
f 13/13/1 14/14/1 15/15/1 16/16/1
f 17/17/1 18/18/1 19/19/1 20/20/1
f 21/21/1 22/22/1 23/23/1 24/24/1
f 25/25/1 26/26/1 27/27/1 28/28/1
f 29/29/1 30/30/1 31/31/1 32/32/1
f 33/33/1 34/34/1 35/35/1 36/36/1
f 37/37/1 38/38/1 39/39/1 40/40/1
f 41/41/1 42/42/1 43/43/1 44/44/1
f 45/45/1 46/46/1 47/47/1 48/48/1
f 49/49/1 50/50/1 51/51/1 52/52/1
f 53/53/1 54/54/1 55/55/1 56/56/1
f 57/57/1 58/58/1 59/59/1 60/60/1
f 61/61/1 62/62/1 63/63/1 64/64/1
f 65/65/1 66/66/1 67/67/1 68/68/1
f 69/69/1 70/70/1 71/71/1 72/72/1
f 73/73/1 74/74/1 75/75/1 76/76/1
f 77/77/1 78/78/1 79/79/1 80/80/1
f 81/81/1 82/82/1 83/83/1 84/84/1
f 85/85/1 86/86/1 87/87/1 88/88/1
f 89/89/1 90/90/1 91/91/1 92/92/1
f 93/93/1 94/94/1 95/95/1 96/96/1
f 97/97/1 98/98/1 99/99/1 100/100/1
f 101/101/1 102/102/1 103/103/1 104/104/1
f 105/105/1 106/106/1 107/107/1 108/108/1
f 109/109/1 110/110/1 111/111/1 112/112/1
f 113/113/1 114/114/1 115/115/1 116/116/1
f 117/117/1 118/118/1 119/119/1 120/120/1
f 121/121/1 122/122/1 123/123/1 124/124/1
f 125/125/1 126/126/1 127/127/1 128/128/1
f 129/129/1 130/130/1 131/131/1 132/132/1
f 133/133/1 134/134/1 135/135/1 136/136/1
f 137/137/1 138/138/1 139/139/1 140/140/1
f 141/141/1 142/142/1 143/143/1 144/144/1
f 145/145/1 146/146/1 147/147/1 148/148/1
f 149/149/1 150/150/1 151/151/1 152/152/1
f 153/153/1 154/154/1 155/155/1 156/156/1
f 157/1/1 158/2/1 159/3/1 160/4/1
f 161/5/1 162/6/1 163/7/1 164/8/1
f 165/9/1 166/10/1 167/11/1 168/12/1
f 169/13/1 170/14/1 171/15/1 172/16/1
f 173/17/1 174/18/1 175/19/1 176/20/1
f 177/21/1 178/22/1 179/23/1 180/24/1
f 181/25/1 182/26/1 183/27/1 184/28/1
f 185/29/1 186/30/1 187/31/1 188/32/1
f 189/33/1 190/34/1 191/35/1 192/36/1

