# Tiled2Unity generated file. Do not modify by hand.
# Wavefront file for 'VictoriaAve_mesh_0002.obj'

# Vertices (Count = 768)
v -17 -2 0
v -18 -2 0
v -18 -1 0
v -17 -1 0
v -16 -2 0
v -17 -2 0
v -17 -1 0
v -16 -1 0
v -58 -3 0
v -59 -3 0
v -59 -2 0
v -58 -2 0
v -57 -3 0
v -58 -3 0
v -58 -2 0
v -57 -2 0
v -37 -3 0
v -38 -3 0
v -38 -2 0
v -37 -2 0
v -36 -3 0
v -37 -3 0
v -37 -2 0
v -36 -2 0
v -17 -3 0
v -18 -3 0
v -18 -2 0
v -17 -2 0
v -16 -3 0
v -17 -3 0
v -17 -2 0
v -16 -2 0
v -58 -4 0
v -59 -4 0
v -59 -3 0
v -58 -3 0
v -57 -4 0
v -58 -4 0
v -58 -3 0
v -57 -3 0
v -37 -4 0
v -38 -4 0
v -38 -3 0
v -37 -3 0
v -36 -4 0
v -37 -4 0
v -37 -3 0
v -36 -3 0
v -42 -5 0
v -43 -5 0
v -43 -4 0
v -42 -4 0
v -41 -5 0
v -42 -5 0
v -42 -4 0
v -41 -4 0
v -31 -5 0
v -32 -5 0
v -32 -4 0
v -31 -4 0
v -30 -5 0
v -31 -5 0
v -31 -4 0
v -30 -4 0
v -1 -5 0
v -2 -5 0
v -2 -4 0
v -1 -4 0
v 0 -5 0
v -1 -5 0
v -1 -4 0
v 0 -4 0
v -42 -6 0
v -43 -6 0
v -43 -5 0
v -42 -5 0
v -41 -6 0
v -42 -6 0
v -42 -5 0
v -41 -5 0
v -31 -6 0
v -32 -6 0
v -32 -5 0
v -31 -5 0
v -30 -6 0
v -31 -6 0
v -31 -5 0
v -30 -5 0
v -1 -6 0
v -2 -6 0
v -2 -5 0
v -1 -5 0
v 0 -6 0
v -1 -6 0
v -1 -5 0
v 0 -5 0
v -34 -7 0
v -35 -7 0
v -35 -6 0
v -34 -6 0
v -33 -7 0
v -34 -7 0
v -34 -6 0
v -33 -6 0
v -19 -7 0
v -20 -7 0
v -20 -6 0
v -19 -6 0
v -18 -7 0
v -19 -7 0
v -19 -6 0
v -18 -6 0
v -37 -8 0
v -38 -8 0
v -38 -7 0
v -37 -7 0
v -36 -8 0
v -37 -8 0
v -37 -7 0
v -36 -7 0
v -34 -8 0
v -35 -8 0
v -35 -7 0
v -34 -7 0
v -33 -8 0
v -34 -8 0
v -34 -7 0
v -33 -7 0
v -19 -8 0
v -20 -8 0
v -20 -7 0
v -19 -7 0
v -18 -8 0
v -19 -8 0
v -19 -7 0
v -18 -7 0
v -3 -8 0
v -4 -8 0
v -4 -7 0
v -3 -7 0
v -2 -8 0
v -3 -8 0
v -3 -7 0
v -2 -7 0
v -40 -9 0
v -41 -9 0
v -41 -8 0
v -40 -8 0
v -39 -9 0
v -40 -9 0
v -40 -8 0
v -39 -8 0
v -37 -9 0
v -38 -9 0
v -38 -8 0
v -37 -8 0
v -36 -9 0
v -37 -9 0
v -37 -8 0
v -36 -8 0
v -3 -9 0
v -4 -9 0
v -4 -8 0
v -3 -8 0
v -2 -9 0
v -3 -9 0
v -3 -8 0
v -2 -8 0
v -40 -10 0
v -41 -10 0
v -41 -9 0
v -40 -9 0
v -39 -10 0
v -40 -10 0
v -40 -9 0
v -39 -9 0
v -50 -13 0
v -51 -13 0
v -51 -12 0
v -50 -12 0
v -49 -13 0
v -50 -13 0
v -50 -12 0
v -49 -12 0
v -50 -14 0
v -51 -14 0
v -51 -13 0
v -50 -13 0
v -49 -14 0
v -50 -14 0
v -50 -13 0
v -49 -13 0
v -28 -14 0
v -29 -14 0
v -29 -13 0
v -28 -13 0
v -27 -14 0
v -28 -14 0
v -28 -13 0
v -27 -13 0
v -7 -14 0
v -8 -14 0
v -8 -13 0
v -7 -13 0
v -6 -14 0
v -7 -14 0
v -7 -13 0
v -6 -13 0
v -28 -15 0
v -29 -15 0
v -29 -14 0
v -28 -14 0
v -27 -15 0
v -28 -15 0
v -28 -14 0
v -27 -14 0
v -7 -15 0
v -8 -15 0
v -8 -14 0
v -7 -14 0
v -6 -15 0
v -7 -15 0
v -7 -14 0
v -6 -14 0
v -21 -16 0
v -22 -16 0
v -22 -15 0
v -21 -15 0
v -20 -16 0
v -21 -16 0
v -21 -15 0
v -20 -15 0
v -15 -16 0
v -16 -16 0
v -16 -15 0
v -15 -15 0
v -14 -16 0
v -15 -16 0
v -15 -15 0
v -14 -15 0
v -32 -17 0
v -33 -17 0
v -33 -16 0
v -32 -16 0
v -31 -17 0
v -32 -17 0
v -32 -16 0
v -31 -16 0
v -21 -17 0
v -22 -17 0
v -22 -16 0
v -21 -16 0
v -20 -17 0
v -21 -17 0
v -21 -16 0
v -20 -16 0
v -15 -17 0
v -16 -17 0
v -16 -16 0
v -15 -16 0
v -14 -17 0
v -15 -17 0
v -15 -16 0
v -14 -16 0
v -32 -18 0
v -33 -18 0
v -33 -17 0
v -32 -17 0
v -31 -18 0
v -32 -18 0
v -32 -17 0
v -31 -17 0
v -26 -18 0
v -27 -18 0
v -27 -17 0
v -26 -17 0
v -25 -18 0
v -26 -18 0
v -26 -17 0
v -25 -17 0
v -26 -19 0
v -27 -19 0
v -27 -18 0
v -26 -18 0
v -25 -19 0
v -26 -19 0
v -26 -18 0
v -25 -18 0
v -43 -21 0
v -44 -21 0
v -44 -20 0
v -43 -20 0
v -42 -21 0
v -43 -21 0
v -43 -20 0
v -42 -20 0
v -43 -22 0
v -44 -22 0
v -44 -21 0
v -43 -21 0
v -42 -22 0
v -43 -22 0
v -43 -21 0
v -42 -21 0
v -17 -22 0
v -18 -22 0
v -18 -21 0
v -17 -21 0
v -16 -22 0
v -17 -22 0
v -17 -21 0
v -16 -21 0
v -17 -23 0
v -18 -23 0
v -18 -22 0
v -17 -22 0
v -16 -23 0
v -17 -23 0
v -17 -22 0
v -16 -22 0
v -14 -24 0
v -15 -24 0
v -15 -23 0
v -14 -23 0
v -13 -24 0
v -14 -24 0
v -14 -23 0
v -13 -23 0
v -14 -25 0
v -15 -25 0
v -15 -24 0
v -14 -24 0
v -13 -25 0
v -14 -25 0
v -14 -24 0
v -13 -24 0
v -14 -29 0
v -15 -29 0
v -15 -28 0
v -14 -28 0
v -13 -29 0
v -14 -29 0
v -14 -28 0
v -13 -28 0
v -14 -30 0
v -15 -30 0
v -15 -29 0
v -14 -29 0
v -13 -30 0
v -14 -30 0
v -14 -29 0
v -13 -29 0
v -26 -31 0
v -27 -31 0
v -27 -30 0
v -26 -30 0
v -25 -31 0
v -26 -31 0
v -26 -30 0
v -25 -30 0
v -54 -32 0
v -55 -32 0
v -55 -31 0
v -54 -31 0
v -53 -32 0
v -54 -32 0
v -54 -31 0
v -53 -31 0
v -26 -32 0
v -27 -32 0
v -27 -31 0
v -26 -31 0
v -25 -32 0
v -26 -32 0
v -26 -31 0
v -25 -31 0
v -54 -33 0
v -55 -33 0
v -55 -32 0
v -54 -32 0
v -53 -33 0
v -54 -33 0
v -54 -32 0
v -53 -32 0
v -32 -34 0
v -33 -34 0
v -33 -33 0
v -32 -33 0
v -31 -34 0
v -32 -34 0
v -32 -33 0
v -31 -33 0
v -7 -34 0
v -8 -34 0
v -8 -33 0
v -7 -33 0
v -6 -34 0
v -7 -34 0
v -7 -33 0
v -6 -33 0
v -52 -35 0
v -53 -35 0
v -53 -34 0
v -52 -34 0
v -51 -35 0
v -52 -35 0
v -52 -34 0
v -51 -34 0
v -32 -35 0
v -33 -35 0
v -33 -34 0
v -32 -34 0
v -31 -35 0
v -32 -35 0
v -32 -34 0
v -31 -34 0
v -7 -35 0
v -8 -35 0
v -8 -34 0
v -7 -34 0
v -6 -35 0
v -7 -35 0
v -7 -34 0
v -6 -34 0
v -52 -36 0
v -53 -36 0
v -53 -35 0
v -52 -35 0
v -51 -36 0
v -52 -36 0
v -52 -35 0
v -51 -35 0
v -27 -37 0
v -28 -37 0
v -28 -36 0
v -27 -36 0
v -26 -37 0
v -27 -37 0
v -27 -36 0
v -26 -36 0
v -9 -37 0
v -10 -37 0
v -10 -36 0
v -9 -36 0
v -8 -37 0
v -9 -37 0
v -9 -36 0
v -8 -36 0
v -27 -38 0
v -28 -38 0
v -28 -37 0
v -27 -37 0
v -26 -38 0
v -27 -38 0
v -27 -37 0
v -26 -37 0
v -9 -38 0
v -10 -38 0
v -10 -37 0
v -9 -37 0
v -8 -38 0
v -9 -38 0
v -9 -37 0
v -8 -37 0
v -41 -39 0
v -42 -39 0
v -42 -38 0
v -41 -38 0
v -40 -39 0
v -41 -39 0
v -41 -38 0
v -40 -38 0
v -33 -39 0
v -34 -39 0
v -34 -38 0
v -33 -38 0
v -32 -39 0
v -33 -39 0
v -33 -38 0
v -32 -38 0
v -41 -40 0
v -42 -40 0
v -42 -39 0
v -41 -39 0
v -40 -40 0
v -41 -40 0
v -41 -39 0
v -40 -39 0
v -33 -40 0
v -34 -40 0
v -34 -39 0
v -33 -39 0
v -32 -40 0
v -33 -40 0
v -33 -39 0
v -32 -39 0
v -30 -41 0
v -31 -41 0
v -31 -40 0
v -30 -40 0
v -29 -41 0
v -30 -41 0
v -30 -40 0
v -29 -40 0
v -30 -42 0
v -31 -42 0
v -31 -41 0
v -30 -41 0
v -29 -42 0
v -30 -42 0
v -30 -41 0
v -29 -41 0
v -34 -43 0
v -35 -43 0
v -35 -42 0
v -34 -42 0
v -33 -43 0
v -34 -43 0
v -34 -42 0
v -33 -42 0
v -34 -44 0
v -35 -44 0
v -35 -43 0
v -34 -43 0
v -33 -44 0
v -34 -44 0
v -34 -43 0
v -33 -43 0
v -22 -44 0
v -23 -44 0
v -23 -43 0
v -22 -43 0
v -21 -44 0
v -22 -44 0
v -22 -43 0
v -21 -43 0
v -22 -45 0
v -23 -45 0
v -23 -44 0
v -22 -44 0
v -21 -45 0
v -22 -45 0
v -22 -44 0
v -21 -44 0
v -50 -46 0
v -51 -46 0
v -51 -45 0
v -50 -45 0
v -49 -46 0
v -50 -46 0
v -50 -45 0
v -49 -45 0
v -50 -47 0
v -51 -47 0
v -51 -46 0
v -50 -46 0
v -49 -47 0
v -50 -47 0
v -50 -46 0
v -49 -46 0
v -50 -50 0
v -51 -50 0
v -51 -49 0
v -50 -49 0
v -49 -50 0
v -50 -50 0
v -50 -49 0
v -49 -49 0
v -50 -51 0
v -51 -51 0
v -51 -50 0
v -50 -50 0
v -49 -51 0
v -50 -51 0
v -50 -50 0
v -49 -50 0
v -17 -51 0
v -18 -51 0
v -18 -50 0
v -17 -50 0
v -16 -51 0
v -17 -51 0
v -17 -50 0
v -16 -50 0
v -7 -51 0
v -8 -51 0
v -8 -50 0
v -7 -50 0
v -6 -51 0
v -7 -51 0
v -7 -50 0
v -6 -50 0
v -46 -52 0
v -47 -52 0
v -47 -51 0
v -46 -51 0
v -45 -52 0
v -46 -52 0
v -46 -51 0
v -45 -51 0
v -17 -52 0
v -18 -52 0
v -18 -51 0
v -17 -51 0
v -16 -52 0
v -17 -52 0
v -17 -51 0
v -16 -51 0
v -7 -52 0
v -8 -52 0
v -8 -51 0
v -7 -51 0
v -6 -52 0
v -7 -52 0
v -7 -51 0
v -6 -51 0
v -46 -53 0
v -47 -53 0
v -47 -52 0
v -46 -52 0
v -45 -53 0
v -46 -53 0
v -46 -52 0
v -45 -52 0
v -42 -53 0
v -43 -53 0
v -43 -52 0
v -42 -52 0
v -41 -53 0
v -42 -53 0
v -42 -52 0
v -41 -52 0
v -35 -53 0
v -36 -53 0
v -36 -52 0
v -35 -52 0
v -34 -53 0
v -35 -53 0
v -35 -52 0
v -34 -52 0
v -51 -54 0
v -52 -54 0
v -52 -53 0
v -51 -53 0
v -50 -54 0
v -51 -54 0
v -51 -53 0
v -50 -53 0
v -42 -54 0
v -43 -54 0
v -43 -53 0
v -42 -53 0
v -41 -54 0
v -42 -54 0
v -42 -53 0
v -41 -53 0
v -35 -54 0
v -36 -54 0
v -36 -53 0
v -35 -53 0
v -34 -54 0
v -35 -54 0
v -35 -53 0
v -34 -53 0
v -29 -54 0
v -30 -54 0
v -30 -53 0
v -29 -53 0
v -28 -54 0
v -29 -54 0
v -29 -53 0
v -28 -53 0
v -13 -54 0
v -14 -54 0
v -14 -53 0
v -13 -53 0
v -12 -54 0
v -13 -54 0
v -13 -53 0
v -12 -53 0
v -51 -55 0
v -52 -55 0
v -52 -54 0
v -51 -54 0
v -50 -55 0
v -51 -55 0
v -51 -54 0
v -50 -54 0
v -39 -55 0
v -40 -55 0
v -40 -54 0
v -39 -54 0
v -38 -55 0
v -39 -55 0
v -39 -54 0
v -38 -54 0
v -29 -55 0
v -30 -55 0
v -30 -54 0
v -29 -54 0
v -28 -55 0
v -29 -55 0
v -29 -54 0
v -28 -54 0
v -12 -55 0
v -13 -55 0
v -13 -54 0
v -12 -54 0
v -11 -55 0
v -12 -55 0
v -12 -54 0
v -11 -54 0
v -10 -55 0
v -11 -55 0
v -11 -54 0
v -10 -54 0
v -39 -56 0
v -40 -56 0
v -40 -55 0
v -39 -55 0
v -38 -56 0
v -39 -56 0
v -39 -55 0
v -38 -55 0
v -22 -56 0
v -23 -56 0
v -23 -55 0
v -22 -55 0
v -21 -56 0
v -22 -56 0
v -22 -55 0
v -21 -55 0
v -10 -56 0
v -11 -56 0
v -11 -55 0
v -10 -55 0
v -9 -56 0
v -10 -56 0
v -10 -55 0
v -9 -55 0
v -8 -56 0
v -9 -56 0
v -9 -55 0
v -8 -55 0
v -7 -56 0
v -8 -56 0
v -8 -55 0
v -7 -55 0
v -21 -57 0
v -22 -57 0
v -22 -56 0
v -21 -56 0
v -20 -57 0
v -21 -57 0
v -21 -56 0
v -20 -56 0
v -19 -57 0
v -20 -57 0
v -20 -56 0
v -19 -56 0
v -7 -57 0
v -8 -57 0
v -8 -56 0
v -7 -56 0
v -6 -57 0
v -7 -57 0
v -7 -56 0
v -6 -56 0

# Texture cooridinates (Count = 52)
vt 0.1249595 0.5278999
vt 0.1455216 0.5278999
vt 0.1455216 0.5554335
vt 0.1249595 0.5554335
vt 0.1041533 0.5278999
vt 0.1247154 0.5278999
vt 0.1247154 0.5554335
vt 0.1041533 0.5554335
vt 0.1249595 0.5001221
vt 0.1455216 0.5001221
vt 0.1455216 0.5276557
vt 0.1249595 0.5276557
vt 0.1041533 0.5001221
vt 0.1247154 0.5001221
vt 0.1247154 0.5276557
vt 0.1041533 0.5276557
vt 0.1041533 0.9445665
vt 0.1247154 0.9445665
vt 0.1247154 0.9721001
vt 0.1041533 0.9721001
vt 0.08334704 0.9445665
vt 0.1039091 0.9445665
vt 0.1039091 0.9721001
vt 0.08334704 0.9721001
vt 0.1041533 0.9167888
vt 0.1247154 0.9167888
vt 0.1247154 0.9443223
vt 0.1041533 0.9443223
vt 0.08334704 0.9167888
vt 0.1039091 0.9167888
vt 0.1039091 0.9443223
vt 0.08334704 0.9443223
vt 0.2081845 0.6667887
vt 0.2287466 0.6667887
vt 0.2287466 0.6943223
vt 0.2081845 0.6943223
vt 0.1873782 0.6667887
vt 0.2079404 0.6667887
vt 0.2079404 0.6943223
vt 0.1873782 0.6943223
vt 0.2081845 0.639011
vt 0.2287466 0.639011
vt 0.2287466 0.6665446
vt 0.2081845 0.6665446
vt 0.1873782 0.639011
vt 0.2079404 0.639011
vt 0.2079404 0.6665446
vt 0.1873782 0.6665446
vt 0.04173455 0.5834554
vt 0.06229666 0.5834554
vt 0.06229666 0.610989
vt 0.04173455 0.610989

# Normal
vn 0 0 -1

# Mesh description
g VictoriaAve_mesh_0002

# Faces
f 1/1/1 2/2/1 3/3/1 4/4/1
f 5/5/1 6/6/1 7/7/1 8/8/1
f 9/1/1 10/2/1 11/3/1 12/4/1
f 13/5/1 14/6/1 15/7/1 16/8/1
f 17/1/1 18/2/1 19/3/1 20/4/1
f 21/5/1 22/6/1 23/7/1 24/8/1
f 25/9/1 26/10/1 27/11/1 28/12/1
f 29/13/1 30/14/1 31/15/1 32/16/1
f 33/9/1 34/10/1 35/11/1 36/12/1
f 37/13/1 38/14/1 39/15/1 40/16/1
f 41/9/1 42/10/1 43/11/1 44/12/1
f 45/13/1 46/14/1 47/15/1 48/16/1
f 49/1/1 50/2/1 51/3/1 52/4/1
f 53/5/1 54/6/1 55/7/1 56/8/1
f 57/1/1 58/2/1 59/3/1 60/4/1
f 61/5/1 62/6/1 63/7/1 64/8/1
f 65/1/1 66/2/1 67/3/1 68/4/1
f 69/5/1 70/6/1 71/7/1 72/8/1
f 73/9/1 74/10/1 75/11/1 76/12/1
f 77/13/1 78/14/1 79/15/1 80/16/1
f 81/9/1 82/10/1 83/11/1 84/12/1
f 85/13/1 86/14/1 87/15/1 88/16/1
f 89/9/1 90/10/1 91/11/1 92/12/1
f 93/13/1 94/14/1 95/15/1 96/16/1
f 97/17/1 98/18/1 99/19/1 100/20/1
f 101/21/1 102/22/1 103/23/1 104/24/1
f 105/1/1 106/2/1 107/3/1 108/4/1
f 109/5/1 110/6/1 111/7/1 112/8/1
f 113/1/1 114/2/1 115/3/1 116/4/1
f 117/5/1 118/6/1 119/7/1 120/8/1
f 121/25/1 122/26/1 123/27/1 124/28/1
f 125/29/1 126/30/1 127/31/1 128/32/1
f 129/9/1 130/10/1 131/11/1 132/12/1
f 133/13/1 134/14/1 135/15/1 136/16/1
f 137/1/1 138/2/1 139/3/1 140/4/1
f 141/5/1 142/6/1 143/7/1 144/8/1
f 145/1/1 146/2/1 147/3/1 148/4/1
f 149/5/1 150/6/1 151/7/1 152/8/1
f 153/9/1 154/10/1 155/11/1 156/12/1
f 157/13/1 158/14/1 159/15/1 160/16/1
f 161/9/1 162/10/1 163/11/1 164/12/1
f 165/13/1 166/14/1 167/15/1 168/16/1
f 169/9/1 170/10/1 171/11/1 172/12/1
f 173/13/1 174/14/1 175/15/1 176/16/1
f 177/1/1 178/2/1 179/3/1 180/4/1
f 181/5/1 182/6/1 183/7/1 184/8/1
f 185/9/1 186/10/1 187/11/1 188/12/1
f 189/13/1 190/14/1 191/15/1 192/16/1
f 193/1/1 194/2/1 195/3/1 196/4/1
f 197/5/1 198/6/1 199/7/1 200/8/1
f 201/33/1 202/34/1 203/35/1 204/36/1
f 205/37/1 206/38/1 207/39/1 208/40/1
f 209/9/1 210/10/1 211/11/1 212/12/1
f 213/13/1 214/14/1 215/15/1 216/16/1
f 217/41/1 218/42/1 219/43/1 220/44/1
f 221/45/1 222/46/1 223/47/1 224/48/1
f 225/1/1 226/2/1 227/3/1 228/4/1
f 229/5/1 230/6/1 231/7/1 232/8/1
f 233/1/1 234/2/1 235/3/1 236/4/1
f 237/5/1 238/6/1 239/7/1 240/8/1
f 241/1/1 242/2/1 243/3/1 244/4/1
f 245/5/1 246/6/1 247/7/1 248/8/1
f 249/9/1 250/10/1 251/11/1 252/12/1
f 253/13/1 254/14/1 255/15/1 256/16/1
f 257/9/1 258/10/1 259/11/1 260/12/1
f 261/13/1 262/14/1 263/15/1 264/16/1
f 265/9/1 266/10/1 267/11/1 268/12/1
f 269/13/1 270/14/1 271/15/1 272/16/1
f 273/17/1 274/18/1 275/19/1 276/20/1
f 277/21/1 278/22/1 279/23/1 280/24/1
f 281/25/1 282/26/1 283/27/1 284/28/1
f 285/29/1 286/30/1 287/31/1 288/32/1
f 289/1/1 290/2/1 291/3/1 292/4/1
f 293/5/1 294/6/1 295/7/1 296/8/1
f 297/9/1 298/10/1 299/11/1 300/12/1
f 301/13/1 302/14/1 303/15/1 304/16/1
f 305/1/1 306/2/1 307/3/1 308/4/1
f 309/5/1 310/6/1 311/7/1 312/8/1
f 313/9/1 314/10/1 315/11/1 316/12/1
f 317/13/1 318/14/1 319/15/1 320/16/1
f 321/1/1 322/2/1 323/3/1 324/4/1
f 325/5/1 326/6/1 327/7/1 328/8/1
f 329/9/1 330/10/1 331/11/1 332/12/1
f 333/13/1 334/14/1 335/15/1 336/16/1
f 337/33/1 338/34/1 339/35/1 340/36/1
f 341/37/1 342/38/1 343/39/1 344/40/1
f 345/41/1 346/42/1 347/43/1 348/44/1
f 349/45/1 350/46/1 351/47/1 352/48/1
f 353/1/1 354/2/1 355/3/1 356/4/1
f 357/5/1 358/6/1 359/7/1 360/8/1
f 361/1/1 362/2/1 363/3/1 364/4/1
f 365/5/1 366/6/1 367/7/1 368/8/1
f 369/9/1 370/10/1 371/11/1 372/12/1
f 373/13/1 374/14/1 375/15/1 376/16/1
f 377/9/1 378/10/1 379/11/1 380/12/1
f 381/13/1 382/14/1 383/15/1 384/16/1
f 385/17/1 386/18/1 387/19/1 388/20/1
f 389/21/1 390/22/1 391/23/1 392/24/1
f 393/1/1 394/2/1 395/3/1 396/4/1
f 397/5/1 398/6/1 399/7/1 400/8/1
f 401/1/1 402/2/1 403/3/1 404/4/1
f 405/5/1 406/6/1 407/7/1 408/8/1
f 409/25/1 410/26/1 411/27/1 412/28/1
f 413/29/1 414/30/1 415/31/1 416/32/1
f 417/9/1 418/10/1 419/11/1 420/12/1
f 421/13/1 422/14/1 423/15/1 424/16/1
f 425/9/1 426/10/1 427/11/1 428/12/1
f 429/13/1 430/14/1 431/15/1 432/16/1
f 433/1/1 434/2/1 435/3/1 436/4/1
f 437/5/1 438/6/1 439/7/1 440/8/1
f 441/1/1 442/2/1 443/3/1 444/4/1
f 445/5/1 446/6/1 447/7/1 448/8/1
f 449/9/1 450/10/1 451/11/1 452/12/1
f 453/13/1 454/14/1 455/15/1 456/16/1
f 457/9/1 458/10/1 459/11/1 460/12/1
f 461/13/1 462/14/1 463/15/1 464/16/1
f 465/17/1 466/18/1 467/19/1 468/20/1
f 469/21/1 470/22/1 471/23/1 472/24/1
f 473/1/1 474/2/1 475/3/1 476/4/1
f 477/5/1 478/6/1 479/7/1 480/8/1
f 481/25/1 482/26/1 483/27/1 484/28/1
f 485/29/1 486/30/1 487/31/1 488/32/1
f 489/9/1 490/10/1 491/11/1 492/12/1
f 493/13/1 494/14/1 495/15/1 496/16/1
f 497/1/1 498/2/1 499/3/1 500/4/1
f 501/5/1 502/6/1 503/7/1 504/8/1
f 505/9/1 506/10/1 507/11/1 508/12/1
f 509/13/1 510/14/1 511/15/1 512/16/1
f 513/1/1 514/2/1 515/3/1 516/4/1
f 517/5/1 518/6/1 519/7/1 520/8/1
f 521/9/1 522/10/1 523/11/1 524/12/1
f 525/13/1 526/14/1 527/15/1 528/16/1
f 529/33/1 530/34/1 531/35/1 532/36/1
f 533/37/1 534/38/1 535/39/1 536/40/1
f 537/41/1 538/42/1 539/43/1 540/44/1
f 541/45/1 542/46/1 543/47/1 544/48/1
f 545/1/1 546/2/1 547/3/1 548/4/1
f 549/5/1 550/6/1 551/7/1 552/8/1
f 553/9/1 554/10/1 555/11/1 556/12/1
f 557/13/1 558/14/1 559/15/1 560/16/1
f 561/1/1 562/2/1 563/3/1 564/4/1
f 565/5/1 566/6/1 567/7/1 568/8/1
f 569/9/1 570/10/1 571/11/1 572/12/1
f 573/13/1 574/14/1 575/15/1 576/16/1
f 577/1/1 578/2/1 579/3/1 580/4/1
f 581/5/1 582/6/1 583/7/1 584/8/1
f 585/33/1 586/34/1 587/35/1 588/36/1
f 589/37/1 590/38/1 591/39/1 592/40/1
f 593/1/1 594/2/1 595/3/1 596/4/1
f 597/5/1 598/6/1 599/7/1 600/8/1
f 601/9/1 602/10/1 603/11/1 604/12/1
f 605/13/1 606/14/1 607/15/1 608/16/1
f 609/41/1 610/42/1 611/43/1 612/44/1
f 613/45/1 614/46/1 615/47/1 616/48/1
f 617/9/1 618/10/1 619/11/1 620/12/1
f 621/13/1 622/14/1 623/15/1 624/16/1
f 625/1/1 626/2/1 627/3/1 628/4/1
f 629/5/1 630/6/1 631/7/1 632/8/1
f 633/1/1 634/2/1 635/3/1 636/4/1
f 637/5/1 638/6/1 639/7/1 640/8/1
f 641/1/1 642/2/1 643/3/1 644/4/1
f 645/5/1 646/6/1 647/7/1 648/8/1
f 649/9/1 650/10/1 651/11/1 652/12/1
f 653/13/1 654/14/1 655/15/1 656/16/1
f 657/9/1 658/10/1 659/11/1 660/12/1
f 661/13/1 662/14/1 663/15/1 664/16/1
f 665/33/1 666/34/1 667/35/1 668/36/1
f 669/37/1 670/38/1 671/39/1 672/40/1
f 673/49/1 674/50/1 675/51/1 676/52/1
f 677/49/1 678/50/1 679/51/1 680/52/1
f 681/9/1 682/10/1 683/11/1 684/12/1
f 685/13/1 686/14/1 687/15/1 688/16/1
f 689/17/1 690/18/1 691/19/1 692/20/1
f 693/21/1 694/22/1 695/23/1 696/24/1
f 697/41/1 698/42/1 699/43/1 700/44/1
f 701/45/1 702/46/1 703/47/1 704/48/1
f 705/49/1 706/50/1 707/51/1 708/52/1
f 709/49/1 710/50/1 711/51/1 712/52/1
f 713/49/1 714/50/1 715/51/1 716/52/1
f 717/25/1 718/26/1 719/27/1 720/28/1
f 721/29/1 722/30/1 723/31/1 724/32/1
f 725/49/1 726/50/1 727/51/1 728/52/1
f 729/49/1 730/50/1 731/51/1 732/52/1
f 733/49/1 734/50/1 735/51/1 736/52/1
f 737/49/1 738/50/1 739/51/1 740/52/1
f 741/49/1 742/50/1 743/51/1 744/52/1
f 745/49/1 746/50/1 747/51/1 748/52/1
f 749/49/1 750/50/1 751/51/1 752/52/1
f 753/49/1 754/50/1 755/51/1 756/52/1
f 757/49/1 758/50/1 759/51/1 760/52/1
f 761/49/1 762/50/1 763/51/1 764/52/1
f 765/49/1 766/50/1 767/51/1 768/52/1

