# Tiled2Unity generated file. Do not modify by hand.
# Wavefront file for 'VictoriaAve_mesh_0006.obj'

# Vertices (Count = 452)
v -17 -7 0
v -18 -7 0
v -18 -6 0
v -17 -6 0
v -16 -7 0
v -17 -7 0
v -17 -6 0
v -16 -6 0
v -15 -7 0
v -16 -7 0
v -16 -6 0
v -15 -6 0
v -14 -7 0
v -15 -7 0
v -15 -6 0
v -14 -6 0
v -8 -7 0
v -9 -7 0
v -9 -6 0
v -8 -6 0
v -21 -8 0
v -22 -8 0
v -22 -7 0
v -21 -7 0
v -20 -8 0
v -21 -8 0
v -21 -7 0
v -20 -7 0
v -17 -8 0
v -18 -8 0
v -18 -7 0
v -17 -7 0
v -16 -8 0
v -17 -8 0
v -17 -7 0
v -16 -7 0
v -15 -8 0
v -16 -8 0
v -16 -7 0
v -15 -7 0
v -14 -8 0
v -15 -8 0
v -15 -7 0
v -14 -7 0
v -17 -9 0
v -18 -9 0
v -18 -8 0
v -17 -8 0
v -16 -9 0
v -17 -9 0
v -17 -8 0
v -16 -8 0
v -15 -9 0
v -16 -9 0
v -16 -8 0
v -15 -8 0
v -14 -9 0
v -15 -9 0
v -15 -8 0
v -14 -8 0
v -27 -13 0
v -28 -13 0
v -28 -12 0
v -27 -12 0
v -28 -19 0
v -29 -19 0
v -29 -18 0
v -28 -18 0
v -27 -19 0
v -28 -19 0
v -28 -18 0
v -27 -18 0
v -10 -20 0
v -11 -20 0
v -11 -19 0
v -10 -19 0
v -9 -20 0
v -10 -20 0
v -10 -19 0
v -9 -19 0
v -8 -20 0
v -9 -20 0
v -9 -19 0
v -8 -19 0
v -7 -20 0
v -8 -20 0
v -8 -19 0
v -7 -19 0
v -2 -20 0
v -3 -20 0
v -3 -19 0
v -2 -19 0
v -1 -20 0
v -2 -20 0
v -2 -19 0
v -1 -19 0
v -10 -21 0
v -11 -21 0
v -11 -20 0
v -10 -20 0
v -9 -21 0
v -10 -21 0
v -10 -20 0
v -9 -20 0
v -8 -21 0
v -9 -21 0
v -9 -20 0
v -8 -20 0
v -7 -21 0
v -8 -21 0
v -8 -20 0
v -7 -20 0
v -16 -22 0
v -17 -22 0
v -17 -21 0
v -16 -21 0
v -15 -22 0
v -16 -22 0
v -16 -21 0
v -15 -21 0
v -10 -22 0
v -11 -22 0
v -11 -21 0
v -10 -21 0
v -9 -22 0
v -10 -22 0
v -10 -21 0
v -9 -21 0
v -8 -22 0
v -9 -22 0
v -9 -21 0
v -8 -21 0
v -7 -22 0
v -8 -22 0
v -8 -21 0
v -7 -21 0
v -21 -23 0
v -22 -23 0
v -22 -22 0
v -21 -22 0
v -20 -23 0
v -21 -23 0
v -21 -22 0
v -20 -22 0
v -28 -24 0
v -29 -24 0
v -29 -23 0
v -28 -23 0
v -27 -24 0
v -28 -24 0
v -28 -23 0
v -27 -23 0
v -26 -24 0
v -27 -24 0
v -27 -23 0
v -26 -23 0
v -25 -24 0
v -26 -24 0
v -26 -23 0
v -25 -23 0
v -10 -24 0
v -11 -24 0
v -11 -23 0
v -10 -23 0
v -8 -24 0
v -9 -24 0
v -9 -23 0
v -8 -23 0
v -7 -24 0
v -8 -24 0
v -8 -23 0
v -7 -23 0
v -6 -24 0
v -7 -24 0
v -7 -23 0
v -6 -23 0
v -5 -24 0
v -6 -24 0
v -6 -23 0
v -5 -23 0
v -28 -25 0
v -29 -25 0
v -29 -24 0
v -28 -24 0
v -27 -25 0
v -28 -25 0
v -28 -24 0
v -27 -24 0
v -26 -25 0
v -27 -25 0
v -27 -24 0
v -26 -24 0
v -25 -25 0
v -26 -25 0
v -26 -24 0
v -25 -24 0
v -10 -25 0
v -11 -25 0
v -11 -24 0
v -10 -24 0
v -8 -25 0
v -9 -25 0
v -9 -24 0
v -8 -24 0
v -7 -25 0
v -8 -25 0
v -8 -24 0
v -7 -24 0
v -6 -25 0
v -7 -25 0
v -7 -24 0
v -6 -24 0
v -5 -25 0
v -6 -25 0
v -6 -24 0
v -5 -24 0
v -28 -26 0
v -29 -26 0
v -29 -25 0
v -28 -25 0
v -27 -26 0
v -28 -26 0
v -28 -25 0
v -27 -25 0
v -26 -26 0
v -27 -26 0
v -27 -25 0
v -26 -25 0
v -25 -26 0
v -26 -26 0
v -26 -25 0
v -25 -25 0
v -10 -26 0
v -11 -26 0
v -11 -25 0
v -10 -25 0
v -8 -26 0
v -9 -26 0
v -9 -25 0
v -8 -25 0
v -7 -26 0
v -8 -26 0
v -8 -25 0
v -7 -25 0
v -6 -26 0
v -7 -26 0
v -7 -25 0
v -6 -25 0
v -5 -26 0
v -6 -26 0
v -6 -25 0
v -5 -25 0
v -1 -27 0
v -2 -27 0
v -2 -26 0
v -1 -26 0
v 0 -27 0
v -1 -27 0
v -1 -26 0
v 0 -26 0
v -1 -28 0
v -2 -28 0
v -2 -27 0
v -1 -27 0
v 0 -28 0
v -1 -28 0
v -1 -27 0
v 0 -27 0
v -33 -36 0
v -34 -36 0
v -34 -35 0
v -33 -35 0
v -32 -36 0
v -33 -36 0
v -33 -35 0
v -32 -35 0
v -20 -36 0
v -21 -36 0
v -21 -35 0
v -20 -35 0
v -2 -37 0
v -3 -37 0
v -3 -36 0
v -2 -36 0
v -1 -37 0
v -2 -37 0
v -2 -36 0
v -1 -36 0
v 0 -37 0
v -1 -37 0
v -1 -36 0
v 0 -36 0
v -2 -38 0
v -3 -38 0
v -3 -37 0
v -2 -37 0
v -1 -38 0
v -2 -38 0
v -2 -37 0
v -1 -37 0
v 0 -38 0
v -1 -38 0
v -1 -37 0
v 0 -37 0
v -2 -39 0
v -3 -39 0
v -3 -38 0
v -2 -38 0
v -1 -39 0
v -2 -39 0
v -2 -38 0
v -1 -38 0
v 0 -39 0
v -1 -39 0
v -1 -38 0
v 0 -38 0
v -29 -40 0
v -30 -40 0
v -30 -39 0
v -29 -39 0
v -28 -40 0
v -29 -40 0
v -29 -39 0
v -28 -39 0
v -28 -42 0
v -29 -42 0
v -29 -41 0
v -28 -41 0
v -27 -42 0
v -28 -42 0
v -28 -41 0
v -27 -41 0
v -26 -42 0
v -27 -42 0
v -27 -41 0
v -26 -41 0
v -25 -42 0
v -26 -42 0
v -26 -41 0
v -25 -41 0
v -7 -42 0
v -8 -42 0
v -8 -41 0
v -7 -41 0
v -28 -43 0
v -29 -43 0
v -29 -42 0
v -28 -42 0
v -27 -43 0
v -28 -43 0
v -28 -42 0
v -27 -42 0
v -26 -43 0
v -27 -43 0
v -27 -42 0
v -26 -42 0
v -25 -43 0
v -26 -43 0
v -26 -42 0
v -25 -42 0
v -28 -44 0
v -29 -44 0
v -29 -43 0
v -28 -43 0
v -27 -44 0
v -28 -44 0
v -28 -43 0
v -27 -43 0
v -26 -44 0
v -27 -44 0
v -27 -43 0
v -26 -43 0
v -25 -44 0
v -26 -44 0
v -26 -43 0
v -25 -43 0
v -1 -45 0
v -2 -45 0
v -2 -44 0
v -1 -44 0
v 0 -45 0
v -1 -45 0
v -1 -44 0
v 0 -44 0
v -32 -48 0
v -33 -48 0
v -33 -47 0
v -32 -47 0
v -18 -49 0
v -19 -49 0
v -19 -48 0
v -18 -48 0
v -17 -49 0
v -18 -49 0
v -18 -48 0
v -17 -48 0
v -16 -49 0
v -17 -49 0
v -17 -48 0
v -16 -48 0
v -15 -49 0
v -16 -49 0
v -16 -48 0
v -15 -48 0
v -18 -50 0
v -19 -50 0
v -19 -49 0
v -18 -49 0
v -17 -50 0
v -18 -50 0
v -18 -49 0
v -17 -49 0
v -16 -50 0
v -17 -50 0
v -17 -49 0
v -16 -49 0
v -15 -50 0
v -16 -50 0
v -16 -49 0
v -15 -49 0
v -18 -51 0
v -19 -51 0
v -19 -50 0
v -18 -50 0
v -17 -51 0
v -18 -51 0
v -18 -50 0
v -17 -50 0
v -16 -51 0
v -17 -51 0
v -17 -50 0
v -16 -50 0
v -15 -51 0
v -16 -51 0
v -16 -50 0
v -15 -50 0
v -3 -54 0
v -4 -54 0
v -4 -53 0
v -3 -53 0
v -2 -54 0
v -3 -54 0
v -3 -53 0
v -2 -53 0
v -1 -54 0
v -2 -54 0
v -2 -53 0
v -1 -53 0
v 0 -54 0
v -1 -54 0
v -1 -53 0
v 0 -53 0

# Texture cooridinates (Count = 84)
vt 0.0625408 0.08345538
vt 0.0831029 0.08345538
vt 0.0831029 0.110989
vt 0.0625408 0.110989
vt 0.04173455 0.08345538
vt 0.06229666 0.08345538
vt 0.06229666 0.110989
vt 0.04173455 0.110989
vt 0.02092831 0.08345538
vt 0.04149041 0.08345538
vt 0.04149041 0.110989
vt 0.02092831 0.110989
vt 0.0001220703 0.08345538
vt 0.02068417 0.08345538
vt 0.02068417 0.110989
vt 0.0001220703 0.110989
vt 0.3122157 0.1667888
vt 0.3327778 0.1667888
vt 0.3327778 0.1943223
vt 0.3122157 0.1943223
vt 0.1249595 0.5278999
vt 0.1455216 0.5278999
vt 0.1455216 0.5554335
vt 0.1249595 0.5554335
vt 0.1041533 0.5278999
vt 0.1247154 0.5278999
vt 0.1247154 0.5554335
vt 0.1041533 0.5554335
vt 0.0625408 0.05567765
vt 0.0831029 0.05567765
vt 0.0831029 0.08321124
vt 0.0625408 0.08321124
vt 0.04173455 0.05567765
vt 0.06229666 0.05567765
vt 0.06229666 0.08321124
vt 0.04173455 0.08321124
vt 0.02092831 0.05567765
vt 0.04149041 0.05567765
vt 0.04149041 0.08321124
vt 0.02092831 0.08321124
vt 0.0001220703 0.05567765
vt 0.02068417 0.05567765
vt 0.02068417 0.08321124
vt 0.0001220703 0.08321124
vt 0.0625408 0.02789986
vt 0.0831029 0.02789986
vt 0.0831029 0.05543351
vt 0.0625408 0.05543351
vt 0.04173455 0.02789986
vt 0.06229666 0.02789986
vt 0.06229666 0.05543351
vt 0.04173455 0.05543351
vt 0.02092831 0.02789986
vt 0.04149041 0.02789986
vt 0.04149041 0.05543351
vt 0.02092831 0.05543351
vt 0.0001220703 0.02789986
vt 0.02068417 0.02789986
vt 0.02068417 0.05543351
vt 0.0001220703 0.05543351
vt 0.3330219 0.1667888
vt 0.3535841 0.1667888
vt 0.3535841 0.1943223
vt 0.3330219 0.1943223
vt 0.2706032 0.9167888
vt 0.2911653 0.9167888
vt 0.2911653 0.9443223
vt 0.2706032 0.9443223
vt 0.249797 0.9167888
vt 0.2703591 0.9167888
vt 0.2703591 0.9443223
vt 0.249797 0.9443223
vt 0.04173455 0.639011
vt 0.06229666 0.639011
vt 0.06229666 0.6665446
vt 0.04173455 0.6665446
vt 0.0625408 0.6667887
vt 0.0831029 0.6667887
vt 0.0831029 0.6943223
vt 0.0625408 0.6943223
vt 0.0625408 0.639011
vt 0.0831029 0.639011
vt 0.0831029 0.6665446
vt 0.0625408 0.6665446

# Normal
vn 0 0 -1

# Mesh description
g VictoriaAve_mesh_0006

# Faces
f 1/1/1 2/2/1 3/3/1 4/4/1
f 5/5/1 6/6/1 7/7/1 8/8/1
f 9/9/1 10/10/1 11/11/1 12/12/1
f 13/13/1 14/14/1 15/15/1 16/16/1
f 17/17/1 18/18/1 19/19/1 20/20/1
f 21/21/1 22/22/1 23/23/1 24/24/1
f 25/25/1 26/26/1 27/27/1 28/28/1
f 29/29/1 30/30/1 31/31/1 32/32/1
f 33/33/1 34/34/1 35/35/1 36/36/1
f 37/37/1 38/38/1 39/39/1 40/40/1
f 41/41/1 42/42/1 43/43/1 44/44/1
f 45/45/1 46/46/1 47/47/1 48/48/1
f 49/49/1 50/50/1 51/51/1 52/52/1
f 53/53/1 54/54/1 55/55/1 56/56/1
f 57/57/1 58/58/1 59/59/1 60/60/1
f 61/17/1 62/18/1 63/19/1 64/20/1
f 65/21/1 66/22/1 67/23/1 68/24/1
f 69/25/1 70/26/1 71/27/1 72/28/1
f 73/1/1 74/2/1 75/3/1 76/4/1
f 77/5/1 78/6/1 79/7/1 80/8/1
f 81/9/1 82/10/1 83/11/1 84/12/1
f 85/13/1 86/14/1 87/15/1 88/16/1
f 89/21/1 90/22/1 91/23/1 92/24/1
f 93/25/1 94/26/1 95/27/1 96/28/1
f 97/29/1 98/30/1 99/31/1 100/32/1
f 101/33/1 102/34/1 103/35/1 104/36/1
f 105/37/1 106/38/1 107/39/1 108/40/1
f 109/41/1 110/42/1 111/43/1 112/44/1
f 113/61/1 114/62/1 115/63/1 116/64/1
f 117/17/1 118/18/1 119/19/1 120/20/1
f 121/45/1 122/46/1 123/47/1 124/48/1
f 125/49/1 126/50/1 127/51/1 128/52/1
f 129/53/1 130/54/1 131/55/1 132/56/1
f 133/57/1 134/58/1 135/59/1 136/60/1
f 137/65/1 138/66/1 139/67/1 140/68/1
f 141/69/1 142/70/1 143/71/1 144/72/1
f 145/1/1 146/2/1 147/3/1 148/4/1
f 149/5/1 150/6/1 151/7/1 152/8/1
f 153/9/1 154/10/1 155/11/1 156/12/1
f 157/13/1 158/14/1 159/15/1 160/16/1
f 161/73/1 162/74/1 163/75/1 164/76/1
f 165/1/1 166/2/1 167/3/1 168/4/1
f 169/5/1 170/6/1 171/7/1 172/8/1
f 173/9/1 174/10/1 175/11/1 176/12/1
f 177/13/1 178/14/1 179/15/1 180/16/1
f 181/29/1 182/30/1 183/31/1 184/32/1
f 185/33/1 186/34/1 187/35/1 188/36/1
f 189/37/1 190/38/1 191/39/1 192/40/1
f 193/41/1 194/42/1 195/43/1 196/44/1
f 197/77/1 198/78/1 199/79/1 200/80/1
f 201/29/1 202/30/1 203/31/1 204/32/1
f 205/33/1 206/34/1 207/35/1 208/36/1
f 209/37/1 210/38/1 211/39/1 212/40/1
f 213/41/1 214/42/1 215/43/1 216/44/1
f 217/45/1 218/46/1 219/47/1 220/48/1
f 221/49/1 222/50/1 223/51/1 224/52/1
f 225/53/1 226/54/1 227/55/1 228/56/1
f 229/57/1 230/58/1 231/59/1 232/60/1
f 233/81/1 234/82/1 235/83/1 236/84/1
f 237/45/1 238/46/1 239/47/1 240/48/1
f 241/49/1 242/50/1 243/51/1 244/52/1
f 245/53/1 246/54/1 247/55/1 248/56/1
f 249/57/1 250/58/1 251/59/1 252/60/1
f 253/29/1 254/30/1 255/31/1 256/32/1
f 257/33/1 258/34/1 259/35/1 260/36/1
f 261/45/1 262/46/1 263/47/1 264/48/1
f 265/49/1 266/50/1 267/51/1 268/52/1
f 269/21/1 270/22/1 271/23/1 272/24/1
f 273/25/1 274/26/1 275/27/1 276/28/1
f 277/17/1 278/18/1 279/19/1 280/20/1
f 281/1/1 282/2/1 283/3/1 284/4/1
f 285/5/1 286/6/1 287/7/1 288/8/1
f 289/9/1 290/10/1 291/11/1 292/12/1
f 293/29/1 294/30/1 295/31/1 296/32/1
f 297/33/1 298/34/1 299/35/1 300/36/1
f 301/37/1 302/38/1 303/39/1 304/40/1
f 305/45/1 306/46/1 307/47/1 308/48/1
f 309/49/1 310/50/1 311/51/1 312/52/1
f 313/53/1 314/54/1 315/55/1 316/56/1
f 317/21/1 318/22/1 319/23/1 320/24/1
f 321/25/1 322/26/1 323/27/1 324/28/1
f 325/1/1 326/2/1 327/3/1 328/4/1
f 329/5/1 330/6/1 331/7/1 332/8/1
f 333/9/1 334/10/1 335/11/1 336/12/1
f 337/13/1 338/14/1 339/15/1 340/16/1
f 341/17/1 342/18/1 343/19/1 344/20/1
f 345/29/1 346/30/1 347/31/1 348/32/1
f 349/33/1 350/34/1 351/35/1 352/36/1
f 353/37/1 354/38/1 355/39/1 356/40/1
f 357/41/1 358/42/1 359/43/1 360/44/1
f 361/45/1 362/46/1 363/47/1 364/48/1
f 365/49/1 366/50/1 367/51/1 368/52/1
f 369/53/1 370/54/1 371/55/1 372/56/1
f 373/57/1 374/58/1 375/59/1 376/60/1
f 377/1/1 378/2/1 379/3/1 380/4/1
f 381/5/1 382/6/1 383/7/1 384/8/1
f 385/17/1 386/18/1 387/19/1 388/20/1
f 389/1/1 390/2/1 391/3/1 392/4/1
f 393/5/1 394/6/1 395/7/1 396/8/1
f 397/9/1 398/10/1 399/11/1 400/12/1
f 401/13/1 402/14/1 403/15/1 404/16/1
f 405/29/1 406/30/1 407/31/1 408/32/1
f 409/33/1 410/34/1 411/35/1 412/36/1
f 413/37/1 414/38/1 415/39/1 416/40/1
f 417/41/1 418/42/1 419/43/1 420/44/1
f 421/45/1 422/46/1 423/47/1 424/48/1
f 425/49/1 426/50/1 427/51/1 428/52/1
f 429/53/1 430/54/1 431/55/1 432/56/1
f 433/57/1 434/58/1 435/59/1 436/60/1
f 437/1/1 438/2/1 439/3/1 440/4/1
f 441/5/1 442/6/1 443/7/1 444/8/1
f 445/9/1 446/10/1 447/11/1 448/12/1
f 449/13/1 450/14/1 451/15/1 452/16/1

