# Tiled2Unity generated file. Do not modify by hand.
# Wavefront file for 'RandomHouse1_mesh_0003.obj'

# Vertices (Count = 8)
v -12 -2 0
v -13 -2 0
v -13 -1 0
v -12 -1 0
v -12 -3 0
v -13 -3 0
v -13 -2 0
v -12 -2 0

# Texture cooridinates (Count = 8)
vt 0.6243093 0.9723443
vt 0.6448714 0.9723443
vt 0.6448714 0.9998779
vt 0.6243093 0.9998779
vt 0.6243093 0.9445665
vt 0.6448714 0.9445665
vt 0.6448714 0.9721001
vt 0.6243093 0.9721001

# Normal
vn 0 0 -1

# Mesh description
g RandomHouse1_mesh_0003

# Faces
f 1/1/1 2/2/1 3/3/1 4/4/1
f 5/5/1 6/6/1 7/7/1 8/8/1

