# Tiled2Unity generated file. Do not modify by hand.
# Wavefront file for '0-Buhangin_mesh_0006.obj'

# Vertices (Count = 320)
v -42 -4 0
v -43 -4 0
v -43 -3 0
v -42 -3 0
v -41 -4 0
v -42 -4 0
v -42 -3 0
v -41 -3 0
v -42 -5 0
v -43 -5 0
v -43 -4 0
v -42 -4 0
v -41 -5 0
v -42 -5 0
v -42 -4 0
v -41 -4 0
v -69 -9 0
v -70 -9 0
v -70 -8 0
v -69 -8 0
v -68 -9 0
v -69 -9 0
v -69 -8 0
v -68 -8 0
v -69 -10 0
v -70 -10 0
v -70 -9 0
v -69 -9 0
v -68 -10 0
v -69 -10 0
v -69 -9 0
v -68 -9 0
v -158 -13 0
v -159 -13 0
v -159 -12 0
v -158 -12 0
v -157 -13 0
v -158 -13 0
v -158 -12 0
v -157 -12 0
v -158 -14 0
v -159 -14 0
v -159 -13 0
v -158 -13 0
v -157 -14 0
v -158 -14 0
v -158 -13 0
v -157 -13 0
v -106 -16 0
v -107 -16 0
v -107 -15 0
v -106 -15 0
v -105 -16 0
v -106 -16 0
v -106 -15 0
v -105 -15 0
v -106 -17 0
v -107 -17 0
v -107 -16 0
v -106 -16 0
v -105 -17 0
v -106 -17 0
v -106 -16 0
v -105 -16 0
v -78 -17 0
v -79 -17 0
v -79 -16 0
v -78 -16 0
v -77 -17 0
v -78 -17 0
v -78 -16 0
v -77 -16 0
v -78 -18 0
v -79 -18 0
v -79 -17 0
v -78 -17 0
v -77 -18 0
v -78 -18 0
v -78 -17 0
v -77 -17 0
v -37 -20 0
v -38 -20 0
v -38 -19 0
v -37 -19 0
v -36 -20 0
v -37 -20 0
v -37 -19 0
v -36 -19 0
v -84 -21 0
v -85 -21 0
v -85 -20 0
v -84 -20 0
v -83 -21 0
v -84 -21 0
v -84 -20 0
v -83 -20 0
v -37 -21 0
v -38 -21 0
v -38 -20 0
v -37 -20 0
v -36 -21 0
v -37 -21 0
v -37 -20 0
v -36 -20 0
v -84 -22 0
v -85 -22 0
v -85 -21 0
v -84 -21 0
v -83 -22 0
v -84 -22 0
v -84 -21 0
v -83 -21 0
v -79 -29 0
v -80 -29 0
v -80 -28 0
v -79 -28 0
v -78 -29 0
v -79 -29 0
v -79 -28 0
v -78 -28 0
v -77 -29 0
v -78 -29 0
v -78 -28 0
v -77 -28 0
v -53 -31 0
v -54 -31 0
v -54 -30 0
v -53 -30 0
v -52 -31 0
v -53 -31 0
v -53 -30 0
v -52 -30 0
v -53 -32 0
v -54 -32 0
v -54 -31 0
v -53 -31 0
v -52 -32 0
v -53 -32 0
v -53 -31 0
v -52 -31 0
v -170 -38 0
v -171 -38 0
v -171 -37 0
v -170 -37 0
v -169 -38 0
v -170 -38 0
v -170 -37 0
v -169 -37 0
v -168 -38 0
v -169 -38 0
v -169 -37 0
v -168 -37 0
v -103 -46 0
v -104 -46 0
v -104 -45 0
v -103 -45 0
v -102 -46 0
v -103 -46 0
v -103 -45 0
v -102 -45 0
v -103 -47 0
v -104 -47 0
v -104 -46 0
v -103 -46 0
v -102 -47 0
v -103 -47 0
v -103 -46 0
v -102 -46 0
v -157 -48 0
v -158 -48 0
v -158 -47 0
v -157 -47 0
v -156 -48 0
v -157 -48 0
v -157 -47 0
v -156 -47 0
v -155 -48 0
v -156 -48 0
v -156 -47 0
v -155 -47 0
v -170 -49 0
v -171 -49 0
v -171 -48 0
v -170 -48 0
v -169 -49 0
v -170 -49 0
v -170 -48 0
v -169 -48 0
v -170 -50 0
v -171 -50 0
v -171 -49 0
v -170 -49 0
v -169 -50 0
v -170 -50 0
v -170 -49 0
v -169 -49 0
v -103 -61 0
v -104 -61 0
v -104 -60 0
v -103 -60 0
v -102 -61 0
v -103 -61 0
v -103 -60 0
v -102 -60 0
v -103 -62 0
v -104 -62 0
v -104 -61 0
v -103 -61 0
v -102 -62 0
v -103 -62 0
v -103 -61 0
v -102 -61 0
v -171 -65 0
v -172 -65 0
v -172 -64 0
v -171 -64 0
v -170 -65 0
v -171 -65 0
v -171 -64 0
v -170 -64 0
v -171 -66 0
v -172 -66 0
v -172 -65 0
v -171 -65 0
v -170 -66 0
v -171 -66 0
v -171 -65 0
v -170 -65 0
v -37 -76 0
v -38 -76 0
v -38 -75 0
v -37 -75 0
v -36 -76 0
v -37 -76 0
v -37 -75 0
v -36 -75 0
v -35 -76 0
v -36 -76 0
v -36 -75 0
v -35 -75 0
v -90 -77 0
v -91 -77 0
v -91 -76 0
v -90 -76 0
v -89 -77 0
v -90 -77 0
v -90 -76 0
v -89 -76 0
v -90 -78 0
v -91 -78 0
v -91 -77 0
v -90 -77 0
v -89 -78 0
v -90 -78 0
v -90 -77 0
v -89 -77 0
v -39 -85 0
v -40 -85 0
v -40 -84 0
v -39 -84 0
v -38 -85 0
v -39 -85 0
v -39 -84 0
v -38 -84 0
v -39 -86 0
v -40 -86 0
v -40 -85 0
v -39 -85 0
v -38 -86 0
v -39 -86 0
v -39 -85 0
v -38 -85 0
v -25 -90 0
v -26 -90 0
v -26 -89 0
v -25 -89 0
v -24 -90 0
v -25 -90 0
v -25 -89 0
v -24 -89 0
v -23 -90 0
v -24 -90 0
v -24 -89 0
v -23 -89 0
v -90 -97 0
v -91 -97 0
v -91 -96 0
v -90 -96 0
v -89 -97 0
v -90 -97 0
v -90 -96 0
v -89 -96 0
v -88 -97 0
v -89 -97 0
v -89 -96 0
v -88 -96 0
v -103 -105 0
v -104 -105 0
v -104 -104 0
v -103 -104 0
v -102 -105 0
v -103 -105 0
v -103 -104 0
v -102 -104 0
v -101 -105 0
v -102 -105 0
v -102 -104 0
v -101 -104 0
v -98 -117 0
v -99 -117 0
v -99 -116 0
v -98 -116 0
v -97 -117 0
v -98 -117 0
v -98 -116 0
v -97 -116 0
v -96 -117 0
v -97 -117 0
v -97 -116 0
v -96 -116 0

# Texture cooridinates (Count = 17)
vt 0.6657997 0.8888889
vt 0.686606 0.8888889
vt 0.686606 0.9166667
vt 0.6657997 0.9166667
vt 0.6449935 0.8888889
vt 0.6449935 0.9166667
vt 0.6657997 0.8611111
vt 0.686606 0.8611111
vt 0.6449935 0.8611111
vt 0.1040312 0.8333333
vt 0.1248375 0.8333333
vt 0.1248375 0.8611111
vt 0.1040312 0.8611111
vt 0.08322497 0.8333333
vt 0.08322497 0.8611111
vt 0.06241873 0.8333333
vt 0.06241873 0.8611111

# Normal
vn 0 0 -1

# Mesh description
g 0-Buhangin_mesh_0006

# Faces
f 1/1/1 2/2/1 3/3/1 4/4/1
f 5/5/1 6/1/1 7/4/1 8/6/1
f 9/7/1 10/8/1 11/2/1 12/1/1
f 13/9/1 14/7/1 15/1/1 16/5/1
f 17/1/1 18/2/1 19/3/1 20/4/1
f 21/5/1 22/1/1 23/4/1 24/6/1
f 25/7/1 26/8/1 27/2/1 28/1/1
f 29/9/1 30/7/1 31/1/1 32/5/1
f 33/1/1 34/2/1 35/3/1 36/4/1
f 37/5/1 38/1/1 39/4/1 40/6/1
f 41/7/1 42/8/1 43/2/1 44/1/1
f 45/9/1 46/7/1 47/1/1 48/5/1
f 49/1/1 50/2/1 51/3/1 52/4/1
f 53/5/1 54/1/1 55/4/1 56/6/1
f 57/7/1 58/8/1 59/2/1 60/1/1
f 61/9/1 62/7/1 63/1/1 64/5/1
f 65/1/1 66/2/1 67/3/1 68/4/1
f 69/5/1 70/1/1 71/4/1 72/6/1
f 73/7/1 74/8/1 75/2/1 76/1/1
f 77/9/1 78/7/1 79/1/1 80/5/1
f 81/1/1 82/2/1 83/3/1 84/4/1
f 85/5/1 86/1/1 87/4/1 88/6/1
f 89/1/1 90/2/1 91/3/1 92/4/1
f 93/5/1 94/1/1 95/4/1 96/6/1
f 97/7/1 98/8/1 99/2/1 100/1/1
f 101/9/1 102/7/1 103/1/1 104/5/1
f 105/7/1 106/8/1 107/2/1 108/1/1
f 109/9/1 110/7/1 111/1/1 112/5/1
f 113/10/1 114/11/1 115/12/1 116/13/1
f 117/14/1 118/10/1 119/13/1 120/15/1
f 121/16/1 122/14/1 123/15/1 124/17/1
f 125/1/1 126/2/1 127/3/1 128/4/1
f 129/5/1 130/1/1 131/4/1 132/6/1
f 133/7/1 134/8/1 135/2/1 136/1/1
f 137/9/1 138/7/1 139/1/1 140/5/1
f 141/10/1 142/11/1 143/12/1 144/13/1
f 145/14/1 146/10/1 147/13/1 148/15/1
f 149/16/1 150/14/1 151/15/1 152/17/1
f 153/1/1 154/2/1 155/3/1 156/4/1
f 157/5/1 158/1/1 159/4/1 160/6/1
f 161/7/1 162/8/1 163/2/1 164/1/1
f 165/9/1 166/7/1 167/1/1 168/5/1
f 169/10/1 170/11/1 171/12/1 172/13/1
f 173/14/1 174/10/1 175/13/1 176/15/1
f 177/16/1 178/14/1 179/15/1 180/17/1
f 181/1/1 182/2/1 183/3/1 184/4/1
f 185/5/1 186/1/1 187/4/1 188/6/1
f 189/7/1 190/8/1 191/2/1 192/1/1
f 193/9/1 194/7/1 195/1/1 196/5/1
f 197/1/1 198/2/1 199/3/1 200/4/1
f 201/5/1 202/1/1 203/4/1 204/6/1
f 205/7/1 206/8/1 207/2/1 208/1/1
f 209/9/1 210/7/1 211/1/1 212/5/1
f 213/1/1 214/2/1 215/3/1 216/4/1
f 217/5/1 218/1/1 219/4/1 220/6/1
f 221/7/1 222/8/1 223/2/1 224/1/1
f 225/9/1 226/7/1 227/1/1 228/5/1
f 229/10/1 230/11/1 231/12/1 232/13/1
f 233/14/1 234/10/1 235/13/1 236/15/1
f 237/16/1 238/14/1 239/15/1 240/17/1
f 241/1/1 242/2/1 243/3/1 244/4/1
f 245/5/1 246/1/1 247/4/1 248/6/1
f 249/7/1 250/8/1 251/2/1 252/1/1
f 253/9/1 254/7/1 255/1/1 256/5/1
f 257/1/1 258/2/1 259/3/1 260/4/1
f 261/5/1 262/1/1 263/4/1 264/6/1
f 265/7/1 266/8/1 267/2/1 268/1/1
f 269/9/1 270/7/1 271/1/1 272/5/1
f 273/10/1 274/11/1 275/12/1 276/13/1
f 277/14/1 278/10/1 279/13/1 280/15/1
f 281/16/1 282/14/1 283/15/1 284/17/1
f 285/10/1 286/11/1 287/12/1 288/13/1
f 289/14/1 290/10/1 291/13/1 292/15/1
f 293/16/1 294/14/1 295/15/1 296/17/1
f 297/10/1 298/11/1 299/12/1 300/13/1
f 301/14/1 302/10/1 303/13/1 304/15/1
f 305/16/1 306/14/1 307/15/1 308/17/1
f 309/10/1 310/11/1 311/12/1 312/13/1
f 313/14/1 314/10/1 315/13/1 316/15/1
f 317/16/1 318/14/1 319/15/1 320/17/1

