# Tiled2Unity generated file. Do not modify by hand.
# Wavefront file for '0-Buhangin_mesh_0011.obj'

# Vertices (Count = 600)
v -155 -7 0
v -156 -7 0
v -156 -6 0
v -155 -6 0
v -154 -7 0
v -155 -7 0
v -155 -6 0
v -154 -6 0
v -153 -7 0
v -154 -7 0
v -154 -6 0
v -153 -6 0
v -152 -7 0
v -153 -7 0
v -153 -6 0
v -152 -6 0
v -151 -7 0
v -152 -7 0
v -152 -6 0
v -151 -6 0
v -155 -8 0
v -156 -8 0
v -156 -7 0
v -155 -7 0
v -154 -8 0
v -155 -8 0
v -155 -7 0
v -154 -7 0
v -153 -8 0
v -154 -8 0
v -154 -7 0
v -153 -7 0
v -152 -8 0
v -153 -8 0
v -153 -7 0
v -152 -7 0
v -151 -8 0
v -152 -8 0
v -152 -7 0
v -151 -7 0
v -97 -17 0
v -98 -17 0
v -98 -16 0
v -97 -16 0
v -96 -17 0
v -97 -17 0
v -97 -16 0
v -96 -16 0
v -95 -17 0
v -96 -17 0
v -96 -16 0
v -95 -16 0
v -94 -17 0
v -95 -17 0
v -95 -16 0
v -94 -16 0
v -93 -17 0
v -94 -17 0
v -94 -16 0
v -93 -16 0
v -92 -17 0
v -93 -17 0
v -93 -16 0
v -92 -16 0
v -91 -17 0
v -92 -17 0
v -92 -16 0
v -91 -16 0
v -90 -17 0
v -91 -17 0
v -91 -16 0
v -90 -16 0
v -89 -17 0
v -90 -17 0
v -90 -16 0
v -89 -16 0
v -97 -18 0
v -98 -18 0
v -98 -17 0
v -97 -17 0
v -96 -18 0
v -97 -18 0
v -97 -17 0
v -96 -17 0
v -95 -18 0
v -96 -18 0
v -96 -17 0
v -95 -17 0
v -94 -18 0
v -95 -18 0
v -95 -17 0
v -94 -17 0
v -93 -18 0
v -94 -18 0
v -94 -17 0
v -93 -17 0
v -92 -18 0
v -93 -18 0
v -93 -17 0
v -92 -17 0
v -91 -18 0
v -92 -18 0
v -92 -17 0
v -91 -17 0
v -90 -18 0
v -91 -18 0
v -91 -17 0
v -90 -17 0
v -89 -18 0
v -90 -18 0
v -90 -17 0
v -89 -17 0
v -138 -39 0
v -139 -39 0
v -139 -38 0
v -138 -38 0
v -137 -39 0
v -138 -39 0
v -138 -38 0
v -137 -38 0
v -136 -39 0
v -137 -39 0
v -137 -38 0
v -136 -38 0
v -135 -39 0
v -136 -39 0
v -136 -38 0
v -135 -38 0
v -134 -39 0
v -135 -39 0
v -135 -38 0
v -134 -38 0
v -133 -39 0
v -134 -39 0
v -134 -38 0
v -133 -38 0
v -132 -39 0
v -133 -39 0
v -133 -38 0
v -132 -38 0
v -138 -40 0
v -139 -40 0
v -139 -39 0
v -138 -39 0
v -137 -40 0
v -138 -40 0
v -138 -39 0
v -137 -39 0
v -136 -40 0
v -137 -40 0
v -137 -39 0
v -136 -39 0
v -135 -40 0
v -136 -40 0
v -136 -39 0
v -135 -39 0
v -134 -40 0
v -135 -40 0
v -135 -39 0
v -134 -39 0
v -133 -40 0
v -134 -40 0
v -134 -39 0
v -133 -39 0
v -132 -40 0
v -133 -40 0
v -133 -39 0
v -132 -39 0
v -161 -51 0
v -162 -51 0
v -162 -50 0
v -161 -50 0
v -160 -51 0
v -161 -51 0
v -161 -50 0
v -160 -50 0
v -159 -51 0
v -160 -51 0
v -160 -50 0
v -159 -50 0
v -158 -51 0
v -159 -51 0
v -159 -50 0
v -158 -50 0
v -157 -51 0
v -158 -51 0
v -158 -50 0
v -157 -50 0
v -156 -51 0
v -157 -51 0
v -157 -50 0
v -156 -50 0
v -155 -51 0
v -156 -51 0
v -156 -50 0
v -155 -50 0
v -161 -52 0
v -162 -52 0
v -162 -51 0
v -161 -51 0
v -160 -52 0
v -161 -52 0
v -161 -51 0
v -160 -51 0
v -159 -52 0
v -160 -52 0
v -160 -51 0
v -159 -51 0
v -158 -52 0
v -159 -52 0
v -159 -51 0
v -158 -51 0
v -157 -52 0
v -158 -52 0
v -158 -51 0
v -157 -51 0
v -156 -52 0
v -157 -52 0
v -157 -51 0
v -156 -51 0
v -155 -52 0
v -156 -52 0
v -156 -51 0
v -155 -51 0
v -90 -55 0
v -91 -55 0
v -91 -54 0
v -90 -54 0
v -89 -55 0
v -90 -55 0
v -90 -54 0
v -89 -54 0
v -88 -55 0
v -89 -55 0
v -89 -54 0
v -88 -54 0
v -87 -55 0
v -88 -55 0
v -88 -54 0
v -87 -54 0
v -86 -55 0
v -87 -55 0
v -87 -54 0
v -86 -54 0
v -85 -55 0
v -86 -55 0
v -86 -54 0
v -85 -54 0
v -84 -55 0
v -85 -55 0
v -85 -54 0
v -84 -54 0
v -83 -55 0
v -84 -55 0
v -84 -54 0
v -83 -54 0
v -90 -56 0
v -91 -56 0
v -91 -55 0
v -90 -55 0
v -89 -56 0
v -90 -56 0
v -90 -55 0
v -89 -55 0
v -88 -56 0
v -89 -56 0
v -89 -55 0
v -88 -55 0
v -87 -56 0
v -88 -56 0
v -88 -55 0
v -87 -55 0
v -86 -56 0
v -87 -56 0
v -87 -55 0
v -86 -55 0
v -85 -56 0
v -86 -56 0
v -86 -55 0
v -85 -55 0
v -84 -56 0
v -85 -56 0
v -85 -55 0
v -84 -55 0
v -83 -56 0
v -84 -56 0
v -84 -55 0
v -83 -55 0
v -129 -64 0
v -130 -64 0
v -130 -63 0
v -129 -63 0
v -128 -64 0
v -129 -64 0
v -129 -63 0
v -128 -63 0
v -127 -64 0
v -128 -64 0
v -128 -63 0
v -127 -63 0
v -126 -64 0
v -127 -64 0
v -127 -63 0
v -126 -63 0
v -125 -64 0
v -126 -64 0
v -126 -63 0
v -125 -63 0
v -124 -64 0
v -125 -64 0
v -125 -63 0
v -124 -63 0
v -123 -64 0
v -124 -64 0
v -124 -63 0
v -123 -63 0
v -64 -64 0
v -65 -64 0
v -65 -63 0
v -64 -63 0
v -63 -64 0
v -64 -64 0
v -64 -63 0
v -63 -63 0
v -62 -64 0
v -63 -64 0
v -63 -63 0
v -62 -63 0
v -61 -64 0
v -62 -64 0
v -62 -63 0
v -61 -63 0
v -60 -64 0
v -61 -64 0
v -61 -63 0
v -60 -63 0
v -59 -64 0
v -60 -64 0
v -60 -63 0
v -59 -63 0
v -58 -64 0
v -59 -64 0
v -59 -63 0
v -58 -63 0
v -57 -64 0
v -58 -64 0
v -58 -63 0
v -57 -63 0
v -56 -64 0
v -57 -64 0
v -57 -63 0
v -56 -63 0
v -129 -65 0
v -130 -65 0
v -130 -64 0
v -129 -64 0
v -128 -65 0
v -129 -65 0
v -129 -64 0
v -128 -64 0
v -127 -65 0
v -128 -65 0
v -128 -64 0
v -127 -64 0
v -126 -65 0
v -127 -65 0
v -127 -64 0
v -126 -64 0
v -125 -65 0
v -126 -65 0
v -126 -64 0
v -125 -64 0
v -124 -65 0
v -125 -65 0
v -125 -64 0
v -124 -64 0
v -123 -65 0
v -124 -65 0
v -124 -64 0
v -123 -64 0
v -64 -65 0
v -65 -65 0
v -65 -64 0
v -64 -64 0
v -63 -65 0
v -64 -65 0
v -64 -64 0
v -63 -64 0
v -62 -65 0
v -63 -65 0
v -63 -64 0
v -62 -64 0
v -61 -65 0
v -62 -65 0
v -62 -64 0
v -61 -64 0
v -60 -65 0
v -61 -65 0
v -61 -64 0
v -60 -64 0
v -59 -65 0
v -60 -65 0
v -60 -64 0
v -59 -64 0
v -58 -65 0
v -59 -65 0
v -59 -64 0
v -58 -64 0
v -57 -65 0
v -58 -65 0
v -58 -64 0
v -57 -64 0
v -56 -65 0
v -57 -65 0
v -57 -64 0
v -56 -64 0
v -17 -89 0
v -18 -89 0
v -18 -88 0
v -17 -88 0
v -16 -89 0
v -17 -89 0
v -17 -88 0
v -16 -88 0
v -15 -89 0
v -16 -89 0
v -16 -88 0
v -15 -88 0
v -14 -89 0
v -15 -89 0
v -15 -88 0
v -14 -88 0
v -13 -89 0
v -14 -89 0
v -14 -88 0
v -13 -88 0
v -12 -89 0
v -13 -89 0
v -13 -88 0
v -12 -88 0
v -11 -89 0
v -12 -89 0
v -12 -88 0
v -11 -88 0
v -17 -90 0
v -18 -90 0
v -18 -89 0
v -17 -89 0
v -16 -90 0
v -17 -90 0
v -17 -89 0
v -16 -89 0
v -15 -90 0
v -16 -90 0
v -16 -89 0
v -15 -89 0
v -14 -90 0
v -15 -90 0
v -15 -89 0
v -14 -89 0
v -13 -90 0
v -14 -90 0
v -14 -89 0
v -13 -89 0
v -12 -90 0
v -13 -90 0
v -13 -89 0
v -12 -89 0
v -11 -90 0
v -12 -90 0
v -12 -89 0
v -11 -89 0
v -62 -91 0
v -63 -91 0
v -63 -90 0
v -62 -90 0
v -61 -91 0
v -62 -91 0
v -62 -90 0
v -61 -90 0
v -60 -91 0
v -61 -91 0
v -61 -90 0
v -60 -90 0
v -59 -91 0
v -60 -91 0
v -60 -90 0
v -59 -90 0
v -58 -91 0
v -59 -91 0
v -59 -90 0
v -58 -90 0
v -57 -91 0
v -58 -91 0
v -58 -90 0
v -57 -90 0
v -56 -91 0
v -57 -91 0
v -57 -90 0
v -56 -90 0
v -62 -92 0
v -63 -92 0
v -63 -91 0
v -62 -91 0
v -61 -92 0
v -62 -92 0
v -62 -91 0
v -61 -91 0
v -60 -92 0
v -61 -92 0
v -61 -91 0
v -60 -91 0
v -59 -92 0
v -60 -92 0
v -60 -91 0
v -59 -91 0
v -58 -92 0
v -59 -92 0
v -59 -91 0
v -58 -91 0
v -57 -92 0
v -58 -92 0
v -58 -91 0
v -57 -91 0
v -56 -92 0
v -57 -92 0
v -57 -91 0
v -56 -91 0
v -139 -104 0
v -140 -104 0
v -140 -103 0
v -139 -103 0
v -138 -104 0
v -139 -104 0
v -139 -103 0
v -138 -103 0
v -137 -104 0
v -138 -104 0
v -138 -103 0
v -137 -103 0
v -136 -104 0
v -137 -104 0
v -137 -103 0
v -136 -103 0
v -135 -104 0
v -136 -104 0
v -136 -103 0
v -135 -103 0
v -134 -104 0
v -135 -104 0
v -135 -103 0
v -134 -103 0
v -133 -104 0
v -134 -104 0
v -134 -103 0
v -133 -103 0
v -132 -104 0
v -133 -104 0
v -133 -103 0
v -132 -103 0
v -131 -104 0
v -132 -104 0
v -132 -103 0
v -131 -103 0
v -139 -105 0
v -140 -105 0
v -140 -104 0
v -139 -104 0
v -138 -105 0
v -139 -105 0
v -139 -104 0
v -138 -104 0
v -137 -105 0
v -138 -105 0
v -138 -104 0
v -137 -104 0
v -136 -105 0
v -137 -105 0
v -137 -104 0
v -136 -104 0
v -135 -105 0
v -136 -105 0
v -136 -104 0
v -135 -104 0
v -134 -105 0
v -135 -105 0
v -135 -104 0
v -134 -104 0
v -133 -105 0
v -134 -105 0
v -134 -104 0
v -133 -104 0
v -132 -105 0
v -133 -105 0
v -133 -104 0
v -132 -104 0
v -131 -105 0
v -132 -105 0
v -132 -104 0
v -131 -104 0

# Texture cooridinates (Count = 96)
vt 0.8103448 0.7631579
vt 0.8275862 0.7631579
vt 0.8275862 0.7894737
vt 0.8103448 0.7894737
vt 0.7931035 0.7631579
vt 0.7931035 0.7894737
vt 0.7758621 0.7631579
vt 0.7758621 0.7894737
vt 0.7586207 0.7631579
vt 0.7586207 0.7894737
vt 0.7413793 0.7631579
vt 0.7413793 0.7894737
vt 0.8103448 0.7368421
vt 0.8275862 0.7368421
vt 0.7931035 0.7368421
vt 0.7758621 0.7368421
vt 0.7586207 0.7368421
vt 0.7413793 0.7368421
vt 0.1551724 0.2631579
vt 0.1724138 0.2631579
vt 0.1724138 0.2894737
vt 0.1551724 0.2894737
vt 0.137931 0.2631579
vt 0.137931 0.2894737
vt 0.1206897 0.2631579
vt 0.1206897 0.2894737
vt 0.1034483 0.2631579
vt 0.1034483 0.2894737
vt 0.0862069 0.2631579
vt 0.0862069 0.2894737
vt 0.06896552 0.2631579
vt 0.06896552 0.2894737
vt 0.05172414 0.2631579
vt 0.05172414 0.2894737
vt 0.03448276 0.2631579
vt 0.03448276 0.2894737
vt 0.01724138 0.2631579
vt 0.01724138 0.2894737
vt 0.1551724 0.2368421
vt 0.1724138 0.2368421
vt 0.137931 0.2368421
vt 0.1206897 0.2368421
vt 0.1034483 0.2368421
vt 0.0862069 0.2368421
vt 0.06896552 0.2368421
vt 0.05172414 0.2368421
vt 0.03448276 0.2368421
vt 0.01724138 0.2368421
vt 0.2758621 0.2631579
vt 0.2931035 0.2631579
vt 0.2931035 0.2894737
vt 0.2758621 0.2894737
vt 0.2586207 0.2631579
vt 0.2586207 0.2894737
vt 0.2413793 0.2631579
vt 0.2413793 0.2894737
vt 0.2241379 0.2631579
vt 0.2241379 0.2894737
vt 0.2068966 0.2631579
vt 0.2068966 0.2894737
vt 0.1896552 0.2631579
vt 0.1896552 0.2894737
vt 0.2758621 0.2368421
vt 0.2931035 0.2368421
vt 0.2586207 0.2368421
vt 0.2413793 0.2368421
vt 0.2241379 0.2368421
vt 0.2068966 0.2368421
vt 0.1896552 0.2368421
vt 0.8275862 0.4210526
vt 0.8448276 0.4210526
vt 0.8448276 0.4473684
vt 0.8275862 0.4473684
vt 0.8103448 0.4210526
vt 0.8103448 0.4473684
vt 0.7931035 0.4210526
vt 0.7931035 0.4473684
vt 0.7758621 0.4210526
vt 0.7758621 0.4473684
vt 0.7586207 0.4210526
vt 0.7586207 0.4473684
vt 0.7413793 0.4210526
vt 0.7413793 0.4473684
vt 0.7241379 0.4210526
vt 0.7241379 0.4473684
vt 0.7068965 0.4210526
vt 0.7068965 0.4473684
vt 0.8275862 0.3947368
vt 0.8448276 0.3947368
vt 0.8103448 0.3947368
vt 0.7931035 0.3947368
vt 0.7758621 0.3947368
vt 0.7586207 0.3947368
vt 0.7413793 0.3947368
vt 0.7241379 0.3947368
vt 0.7068965 0.3947368

# Normal
vn 0 0 -1

# Mesh description
g 0-Buhangin_mesh_0011

# Faces
f 1/1/1 2/2/1 3/3/1 4/4/1
f 5/5/1 6/1/1 7/4/1 8/6/1
f 9/7/1 10/5/1 11/6/1 12/8/1
f 13/9/1 14/7/1 15/8/1 16/10/1
f 17/11/1 18/9/1 19/10/1 20/12/1
f 21/13/1 22/14/1 23/2/1 24/1/1
f 25/15/1 26/13/1 27/1/1 28/5/1
f 29/16/1 30/15/1 31/5/1 32/7/1
f 33/17/1 34/16/1 35/7/1 36/9/1
f 37/18/1 38/17/1 39/9/1 40/11/1
f 41/19/1 42/20/1 43/21/1 44/22/1
f 45/23/1 46/19/1 47/22/1 48/24/1
f 49/25/1 50/23/1 51/24/1 52/26/1
f 53/27/1 54/25/1 55/26/1 56/28/1
f 57/29/1 58/27/1 59/28/1 60/30/1
f 61/31/1 62/29/1 63/30/1 64/32/1
f 65/33/1 66/31/1 67/32/1 68/34/1
f 69/35/1 70/33/1 71/34/1 72/36/1
f 73/37/1 74/35/1 75/36/1 76/38/1
f 77/39/1 78/40/1 79/20/1 80/19/1
f 81/41/1 82/39/1 83/19/1 84/23/1
f 85/42/1 86/41/1 87/23/1 88/25/1
f 89/43/1 90/42/1 91/25/1 92/27/1
f 93/44/1 94/43/1 95/27/1 96/29/1
f 97/45/1 98/44/1 99/29/1 100/31/1
f 101/46/1 102/45/1 103/31/1 104/33/1
f 105/47/1 106/46/1 107/33/1 108/35/1
f 109/48/1 110/47/1 111/35/1 112/37/1
f 113/49/1 114/50/1 115/51/1 116/52/1
f 117/53/1 118/49/1 119/52/1 120/54/1
f 121/55/1 122/53/1 123/54/1 124/56/1
f 125/57/1 126/55/1 127/56/1 128/58/1
f 129/59/1 130/57/1 131/58/1 132/60/1
f 133/61/1 134/59/1 135/60/1 136/62/1
f 137/20/1 138/61/1 139/62/1 140/21/1
f 141/63/1 142/64/1 143/50/1 144/49/1
f 145/65/1 146/63/1 147/49/1 148/53/1
f 149/66/1 150/65/1 151/53/1 152/55/1
f 153/67/1 154/66/1 155/55/1 156/57/1
f 157/68/1 158/67/1 159/57/1 160/59/1
f 161/69/1 162/68/1 163/59/1 164/61/1
f 165/40/1 166/69/1 167/61/1 168/20/1
f 169/49/1 170/50/1 171/51/1 172/52/1
f 173/53/1 174/49/1 175/52/1 176/54/1
f 177/55/1 178/53/1 179/54/1 180/56/1
f 181/57/1 182/55/1 183/56/1 184/58/1
f 185/59/1 186/57/1 187/58/1 188/60/1
f 189/61/1 190/59/1 191/60/1 192/62/1
f 193/20/1 194/61/1 195/62/1 196/21/1
f 197/63/1 198/64/1 199/50/1 200/49/1
f 201/65/1 202/63/1 203/49/1 204/53/1
f 205/66/1 206/65/1 207/53/1 208/55/1
f 209/67/1 210/66/1 211/55/1 212/57/1
f 213/68/1 214/67/1 215/57/1 216/59/1
f 217/69/1 218/68/1 219/59/1 220/61/1
f 221/40/1 222/69/1 223/61/1 224/20/1
f 225/70/1 226/71/1 227/72/1 228/73/1
f 229/74/1 230/70/1 231/73/1 232/75/1
f 233/76/1 234/74/1 235/75/1 236/77/1
f 237/78/1 238/76/1 239/77/1 240/79/1
f 241/80/1 242/78/1 243/79/1 244/81/1
f 245/82/1 246/80/1 247/81/1 248/83/1
f 249/84/1 250/82/1 251/83/1 252/85/1
f 253/86/1 254/84/1 255/85/1 256/87/1
f 257/88/1 258/89/1 259/71/1 260/70/1
f 261/90/1 262/88/1 263/70/1 264/74/1
f 265/91/1 266/90/1 267/74/1 268/76/1
f 269/92/1 270/91/1 271/76/1 272/78/1
f 273/93/1 274/92/1 275/78/1 276/80/1
f 277/94/1 278/93/1 279/80/1 280/82/1
f 281/95/1 282/94/1 283/82/1 284/84/1
f 285/96/1 286/95/1 287/84/1 288/86/1
f 289/49/1 290/50/1 291/51/1 292/52/1
f 293/53/1 294/49/1 295/52/1 296/54/1
f 297/55/1 298/53/1 299/54/1 300/56/1
f 301/57/1 302/55/1 303/56/1 304/58/1
f 305/59/1 306/57/1 307/58/1 308/60/1
f 309/61/1 310/59/1 311/60/1 312/62/1
f 313/20/1 314/61/1 315/62/1 316/21/1
f 317/19/1 318/20/1 319/21/1 320/22/1
f 321/23/1 322/19/1 323/22/1 324/24/1
f 325/25/1 326/23/1 327/24/1 328/26/1
f 329/27/1 330/25/1 331/26/1 332/28/1
f 333/29/1 334/27/1 335/28/1 336/30/1
f 337/31/1 338/29/1 339/30/1 340/32/1
f 341/33/1 342/31/1 343/32/1 344/34/1
f 345/35/1 346/33/1 347/34/1 348/36/1
f 349/37/1 350/35/1 351/36/1 352/38/1
f 353/63/1 354/64/1 355/50/1 356/49/1
f 357/65/1 358/63/1 359/49/1 360/53/1
f 361/66/1 362/65/1 363/53/1 364/55/1
f 365/67/1 366/66/1 367/55/1 368/57/1
f 369/68/1 370/67/1 371/57/1 372/59/1
f 373/69/1 374/68/1 375/59/1 376/61/1
f 377/40/1 378/69/1 379/61/1 380/20/1
f 381/39/1 382/40/1 383/20/1 384/19/1
f 385/41/1 386/39/1 387/19/1 388/23/1
f 389/42/1 390/41/1 391/23/1 392/25/1
f 393/43/1 394/42/1 395/25/1 396/27/1
f 397/44/1 398/43/1 399/27/1 400/29/1
f 401/45/1 402/44/1 403/29/1 404/31/1
f 405/46/1 406/45/1 407/31/1 408/33/1
f 409/47/1 410/46/1 411/33/1 412/35/1
f 413/48/1 414/47/1 415/35/1 416/37/1
f 417/49/1 418/50/1 419/51/1 420/52/1
f 421/53/1 422/49/1 423/52/1 424/54/1
f 425/55/1 426/53/1 427/54/1 428/56/1
f 429/57/1 430/55/1 431/56/1 432/58/1
f 433/59/1 434/57/1 435/58/1 436/60/1
f 437/61/1 438/59/1 439/60/1 440/62/1
f 441/20/1 442/61/1 443/62/1 444/21/1
f 445/63/1 446/64/1 447/50/1 448/49/1
f 449/65/1 450/63/1 451/49/1 452/53/1
f 453/66/1 454/65/1 455/53/1 456/55/1
f 457/67/1 458/66/1 459/55/1 460/57/1
f 461/68/1 462/67/1 463/57/1 464/59/1
f 465/69/1 466/68/1 467/59/1 468/61/1
f 469/40/1 470/69/1 471/61/1 472/20/1
f 473/49/1 474/50/1 475/51/1 476/52/1
f 477/53/1 478/49/1 479/52/1 480/54/1
f 481/55/1 482/53/1 483/54/1 484/56/1
f 485/57/1 486/55/1 487/56/1 488/58/1
f 489/59/1 490/57/1 491/58/1 492/60/1
f 493/61/1 494/59/1 495/60/1 496/62/1
f 497/20/1 498/61/1 499/62/1 500/21/1
f 501/63/1 502/64/1 503/50/1 504/49/1
f 505/65/1 506/63/1 507/49/1 508/53/1
f 509/66/1 510/65/1 511/53/1 512/55/1
f 513/67/1 514/66/1 515/55/1 516/57/1
f 517/68/1 518/67/1 519/57/1 520/59/1
f 521/69/1 522/68/1 523/59/1 524/61/1
f 525/40/1 526/69/1 527/61/1 528/20/1
f 529/19/1 530/20/1 531/21/1 532/22/1
f 533/23/1 534/19/1 535/22/1 536/24/1
f 537/25/1 538/23/1 539/24/1 540/26/1
f 541/27/1 542/25/1 543/26/1 544/28/1
f 545/29/1 546/27/1 547/28/1 548/30/1
f 549/31/1 550/29/1 551/30/1 552/32/1
f 553/33/1 554/31/1 555/32/1 556/34/1
f 557/35/1 558/33/1 559/34/1 560/36/1
f 561/37/1 562/35/1 563/36/1 564/38/1
f 565/39/1 566/40/1 567/20/1 568/19/1
f 569/41/1 570/39/1 571/19/1 572/23/1
f 573/42/1 574/41/1 575/23/1 576/25/1
f 577/43/1 578/42/1 579/25/1 580/27/1
f 581/44/1 582/43/1 583/27/1 584/29/1
f 585/45/1 586/44/1 587/29/1 588/31/1
f 589/46/1 590/45/1 591/31/1 592/33/1
f 593/47/1 594/46/1 595/33/1 596/35/1
f 597/48/1 598/47/1 599/35/1 600/37/1

