# Tiled2Unity generated file. Do not modify by hand.
# Wavefront file for 'RoseBakeshop_mesh_0006.obj'

# Vertices (Count = 696)
v -13 -6 0
v -14 -6 0
v -14 -5 0
v -13 -5 0
v -12 -6 0
v -13 -6 0
v -13 -5 0
v -12 -5 0
v -11 -6 0
v -12 -6 0
v -12 -5 0
v -11 -5 0
v -13 -7 0
v -14 -7 0
v -14 -6 0
v -13 -6 0
v -12 -7 0
v -13 -7 0
v -13 -6 0
v -12 -6 0
v -11 -7 0
v -12 -7 0
v -12 -6 0
v -11 -6 0
v -13 -8 0
v -14 -8 0
v -14 -7 0
v -13 -7 0
v -12 -8 0
v -13 -8 0
v -13 -7 0
v -12 -7 0
v -11 -8 0
v -12 -8 0
v -12 -7 0
v -11 -7 0
v -18 -9 0
v -19 -9 0
v -19 -8 0
v -18 -8 0
v -17 -9 0
v -18 -9 0
v -18 -8 0
v -17 -8 0
v -16 -9 0
v -17 -9 0
v -17 -8 0
v -16 -8 0
v -18 -10 0
v -19 -10 0
v -19 -9 0
v -18 -9 0
v -17 -10 0
v -18 -10 0
v -18 -9 0
v -17 -9 0
v -16 -10 0
v -17 -10 0
v -17 -9 0
v -16 -9 0
v -11 -10 0
v -12 -10 0
v -12 -9 0
v -11 -9 0
v -10 -10 0
v -11 -10 0
v -11 -9 0
v -10 -9 0
v -9 -10 0
v -10 -10 0
v -10 -9 0
v -9 -9 0
v -18 -11 0
v -19 -11 0
v -19 -10 0
v -18 -10 0
v -17 -11 0
v -18 -11 0
v -18 -10 0
v -17 -10 0
v -16 -11 0
v -17 -11 0
v -17 -10 0
v -16 -10 0
v -11 -11 0
v -12 -11 0
v -12 -10 0
v -11 -10 0
v -10 -11 0
v -11 -11 0
v -11 -10 0
v -10 -10 0
v -9 -11 0
v -10 -11 0
v -10 -10 0
v -9 -10 0
v -15 -12 0
v -16 -12 0
v -16 -11 0
v -15 -11 0
v -14 -12 0
v -15 -12 0
v -15 -11 0
v -14 -11 0
v -13 -12 0
v -14 -12 0
v -14 -11 0
v -13 -11 0
v -11 -12 0
v -12 -12 0
v -12 -11 0
v -11 -11 0
v -10 -12 0
v -11 -12 0
v -11 -11 0
v -10 -11 0
v -9 -12 0
v -10 -12 0
v -10 -11 0
v -9 -11 0
v -15 -13 0
v -16 -13 0
v -16 -12 0
v -15 -12 0
v -14 -13 0
v -15 -13 0
v -15 -12 0
v -14 -12 0
v -13 -13 0
v -14 -13 0
v -14 -12 0
v -13 -12 0
v -15 -14 0
v -16 -14 0
v -16 -13 0
v -15 -13 0
v -14 -14 0
v -15 -14 0
v -15 -13 0
v -14 -13 0
v -13 -14 0
v -14 -14 0
v -14 -13 0
v -13 -13 0
v -12 -15 0
v -13 -15 0
v -13 -14 0
v -12 -14 0
v -11 -15 0
v -12 -15 0
v -12 -14 0
v -11 -14 0
v -10 -15 0
v -11 -15 0
v -11 -14 0
v -10 -14 0
v -12 -16 0
v -13 -16 0
v -13 -15 0
v -12 -15 0
v -11 -16 0
v -12 -16 0
v -12 -15 0
v -11 -15 0
v -10 -16 0
v -11 -16 0
v -11 -15 0
v -10 -15 0
v -12 -17 0
v -13 -17 0
v -13 -16 0
v -12 -16 0
v -11 -17 0
v -12 -17 0
v -12 -16 0
v -11 -16 0
v -10 -17 0
v -11 -17 0
v -11 -16 0
v -10 -16 0
v -43 -20 0
v -44 -20 0
v -44 -19 0
v -43 -19 0
v -42 -20 0
v -43 -20 0
v -43 -19 0
v -42 -19 0
v -41 -20 0
v -42 -20 0
v -42 -19 0
v -41 -19 0
v -40 -20 0
v -41 -20 0
v -41 -19 0
v -40 -19 0
v -43 -21 0
v -44 -21 0
v -44 -20 0
v -43 -20 0
v -42 -21 0
v -43 -21 0
v -43 -20 0
v -42 -20 0
v -41 -21 0
v -42 -21 0
v -42 -20 0
v -41 -20 0
v -40 -21 0
v -41 -21 0
v -41 -20 0
v -40 -20 0
v -43 -22 0
v -44 -22 0
v -44 -21 0
v -43 -21 0
v -42 -22 0
v -43 -22 0
v -43 -21 0
v -42 -21 0
v -41 -22 0
v -42 -22 0
v -42 -21 0
v -41 -21 0
v -40 -22 0
v -41 -22 0
v -41 -21 0
v -40 -21 0
v -10 -23 0
v -11 -23 0
v -11 -22 0
v -10 -22 0
v -9 -23 0
v -10 -23 0
v -10 -22 0
v -9 -22 0
v -8 -23 0
v -9 -23 0
v -9 -22 0
v -8 -22 0
v -7 -23 0
v -8 -23 0
v -8 -22 0
v -7 -22 0
v -24 -24 0
v -25 -24 0
v -25 -23 0
v -24 -23 0
v -23 -24 0
v -24 -24 0
v -24 -23 0
v -23 -23 0
v -22 -24 0
v -23 -24 0
v -23 -23 0
v -22 -23 0
v -21 -24 0
v -22 -24 0
v -22 -23 0
v -21 -23 0
v -10 -24 0
v -11 -24 0
v -11 -23 0
v -10 -23 0
v -9 -24 0
v -10 -24 0
v -10 -23 0
v -9 -23 0
v -8 -24 0
v -9 -24 0
v -9 -23 0
v -8 -23 0
v -7 -24 0
v -8 -24 0
v -8 -23 0
v -7 -23 0
v -24 -25 0
v -25 -25 0
v -25 -24 0
v -24 -24 0
v -23 -25 0
v -24 -25 0
v -24 -24 0
v -23 -24 0
v -22 -25 0
v -23 -25 0
v -23 -24 0
v -22 -24 0
v -21 -25 0
v -22 -25 0
v -22 -24 0
v -21 -24 0
v -10 -25 0
v -11 -25 0
v -11 -24 0
v -10 -24 0
v -9 -25 0
v -10 -25 0
v -10 -24 0
v -9 -24 0
v -8 -25 0
v -9 -25 0
v -9 -24 0
v -8 -24 0
v -7 -25 0
v -8 -25 0
v -8 -24 0
v -7 -24 0
v -24 -26 0
v -25 -26 0
v -25 -25 0
v -24 -25 0
v -23 -26 0
v -24 -26 0
v -24 -25 0
v -23 -25 0
v -22 -26 0
v -23 -26 0
v -23 -25 0
v -22 -25 0
v -21 -26 0
v -22 -26 0
v -22 -25 0
v -21 -25 0
v -12 -29 0
v -13 -29 0
v -13 -28 0
v -12 -28 0
v -11 -29 0
v -12 -29 0
v -12 -28 0
v -11 -28 0
v -10 -29 0
v -11 -29 0
v -11 -28 0
v -10 -28 0
v -12 -30 0
v -13 -30 0
v -13 -29 0
v -12 -29 0
v -11 -30 0
v -12 -30 0
v -12 -29 0
v -11 -29 0
v -10 -30 0
v -11 -30 0
v -11 -29 0
v -10 -29 0
v -12 -31 0
v -13 -31 0
v -13 -30 0
v -12 -30 0
v -11 -31 0
v -12 -31 0
v -12 -30 0
v -11 -30 0
v -10 -31 0
v -11 -31 0
v -11 -30 0
v -10 -30 0
v -3 -31 0
v -4 -31 0
v -4 -30 0
v -3 -30 0
v -2 -31 0
v -3 -31 0
v -3 -30 0
v -2 -30 0
v -1 -31 0
v -2 -31 0
v -2 -30 0
v -1 -30 0
v 0 -31 0
v -1 -31 0
v -1 -30 0
v 0 -30 0
v -3 -32 0
v -4 -32 0
v -4 -31 0
v -3 -31 0
v -2 -32 0
v -3 -32 0
v -3 -31 0
v -2 -31 0
v -1 -32 0
v -2 -32 0
v -2 -31 0
v -1 -31 0
v 0 -32 0
v -1 -32 0
v -1 -31 0
v 0 -31 0
v -3 -33 0
v -4 -33 0
v -4 -32 0
v -3 -32 0
v -2 -33 0
v -3 -33 0
v -3 -32 0
v -2 -32 0
v -1 -33 0
v -2 -33 0
v -2 -32 0
v -1 -32 0
v 0 -33 0
v -1 -33 0
v -1 -32 0
v 0 -32 0
v -16 -34 0
v -17 -34 0
v -17 -33 0
v -16 -33 0
v -15 -34 0
v -16 -34 0
v -16 -33 0
v -15 -33 0
v -14 -34 0
v -15 -34 0
v -15 -33 0
v -14 -33 0
v -13 -34 0
v -14 -34 0
v -14 -33 0
v -13 -33 0
v -16 -35 0
v -17 -35 0
v -17 -34 0
v -16 -34 0
v -15 -35 0
v -16 -35 0
v -16 -34 0
v -15 -34 0
v -14 -35 0
v -15 -35 0
v -15 -34 0
v -14 -34 0
v -13 -35 0
v -14 -35 0
v -14 -34 0
v -13 -34 0
v -36 -36 0
v -37 -36 0
v -37 -35 0
v -36 -35 0
v -35 -36 0
v -36 -36 0
v -36 -35 0
v -35 -35 0
v -34 -36 0
v -35 -36 0
v -35 -35 0
v -34 -35 0
v -33 -36 0
v -34 -36 0
v -34 -35 0
v -33 -35 0
v -16 -36 0
v -17 -36 0
v -17 -35 0
v -16 -35 0
v -15 -36 0
v -16 -36 0
v -16 -35 0
v -15 -35 0
v -14 -36 0
v -15 -36 0
v -15 -35 0
v -14 -35 0
v -13 -36 0
v -14 -36 0
v -14 -35 0
v -13 -35 0
v -36 -37 0
v -37 -37 0
v -37 -36 0
v -36 -36 0
v -35 -37 0
v -36 -37 0
v -36 -36 0
v -35 -36 0
v -34 -37 0
v -35 -37 0
v -35 -36 0
v -34 -36 0
v -33 -37 0
v -34 -37 0
v -34 -36 0
v -33 -36 0
v -36 -38 0
v -37 -38 0
v -37 -37 0
v -36 -37 0
v -35 -38 0
v -36 -38 0
v -36 -37 0
v -35 -37 0
v -34 -38 0
v -35 -38 0
v -35 -37 0
v -34 -37 0
v -33 -38 0
v -34 -38 0
v -34 -37 0
v -33 -37 0
v -23 -45 0
v -24 -45 0
v -24 -44 0
v -23 -44 0
v -22 -45 0
v -23 -45 0
v -23 -44 0
v -22 -44 0
v -21 -45 0
v -22 -45 0
v -22 -44 0
v -21 -44 0
v -20 -45 0
v -21 -45 0
v -21 -44 0
v -20 -44 0
v -23 -46 0
v -24 -46 0
v -24 -45 0
v -23 -45 0
v -22 -46 0
v -23 -46 0
v -23 -45 0
v -22 -45 0
v -21 -46 0
v -22 -46 0
v -22 -45 0
v -21 -45 0
v -20 -46 0
v -21 -46 0
v -21 -45 0
v -20 -45 0
v -30 -47 0
v -31 -47 0
v -31 -46 0
v -30 -46 0
v -29 -47 0
v -30 -47 0
v -30 -46 0
v -29 -46 0
v -28 -47 0
v -29 -47 0
v -29 -46 0
v -28 -46 0
v -27 -47 0
v -28 -47 0
v -28 -46 0
v -27 -46 0
v -23 -47 0
v -24 -47 0
v -24 -46 0
v -23 -46 0
v -22 -47 0
v -23 -47 0
v -23 -46 0
v -22 -46 0
v -21 -47 0
v -22 -47 0
v -22 -46 0
v -21 -46 0
v -20 -47 0
v -21 -47 0
v -21 -46 0
v -20 -46 0
v -30 -48 0
v -31 -48 0
v -31 -47 0
v -30 -47 0
v -29 -48 0
v -30 -48 0
v -30 -47 0
v -29 -47 0
v -28 -48 0
v -29 -48 0
v -29 -47 0
v -28 -47 0
v -27 -48 0
v -28 -48 0
v -28 -47 0
v -27 -47 0
v -16 -48 0
v -17 -48 0
v -17 -47 0
v -16 -47 0
v -15 -48 0
v -16 -48 0
v -16 -47 0
v -15 -47 0
v -14 -48 0
v -15 -48 0
v -15 -47 0
v -14 -47 0
v -13 -48 0
v -14 -48 0
v -14 -47 0
v -13 -47 0
v -3 -48 0
v -4 -48 0
v -4 -47 0
v -3 -47 0
v -2 -48 0
v -3 -48 0
v -3 -47 0
v -2 -47 0
v -1 -48 0
v -2 -48 0
v -2 -47 0
v -1 -47 0
v 0 -48 0
v -1 -48 0
v -1 -47 0
v 0 -47 0
v -30 -49 0
v -31 -49 0
v -31 -48 0
v -30 -48 0
v -29 -49 0
v -30 -49 0
v -30 -48 0
v -29 -48 0
v -28 -49 0
v -29 -49 0
v -29 -48 0
v -28 -48 0
v -27 -49 0
v -28 -49 0
v -28 -48 0
v -27 -48 0
v -16 -49 0
v -17 -49 0
v -17 -48 0
v -16 -48 0
v -15 -49 0
v -16 -49 0
v -16 -48 0
v -15 -48 0
v -14 -49 0
v -15 -49 0
v -15 -48 0
v -14 -48 0
v -13 -49 0
v -14 -49 0
v -14 -48 0
v -13 -48 0
v -3 -49 0
v -4 -49 0
v -4 -48 0
v -3 -48 0
v -2 -49 0
v -3 -49 0
v -3 -48 0
v -2 -48 0
v -1 -49 0
v -2 -49 0
v -2 -48 0
v -1 -48 0
v 0 -49 0
v -1 -49 0
v -1 -48 0
v 0 -48 0
v -16 -50 0
v -17 -50 0
v -17 -49 0
v -16 -49 0
v -15 -50 0
v -16 -50 0
v -16 -49 0
v -15 -49 0
v -14 -50 0
v -15 -50 0
v -15 -49 0
v -14 -49 0
v -13 -50 0
v -14 -50 0
v -14 -49 0
v -13 -49 0
v -3 -50 0
v -4 -50 0
v -4 -49 0
v -3 -49 0
v -2 -50 0
v -3 -50 0
v -3 -49 0
v -2 -49 0
v -1 -50 0
v -2 -50 0
v -2 -49 0
v -1 -49 0
v 0 -50 0
v -1 -50 0
v -1 -49 0
v 0 -49 0

# Texture cooridinates (Count = 132)
vt 0.1249595 0.08345538
vt 0.1455216 0.08345538
vt 0.1455216 0.110989
vt 0.1249595 0.110989
vt 0.1041533 0.08345538
vt 0.1247154 0.08345538
vt 0.1247154 0.110989
vt 0.1041533 0.110989
vt 0.08334704 0.08345538
vt 0.1039091 0.08345538
vt 0.1039091 0.110989
vt 0.08334704 0.110989
vt 0.1249595 0.05567765
vt 0.1455216 0.05567765
vt 0.1455216 0.08321124
vt 0.1249595 0.08321124
vt 0.1041533 0.05567765
vt 0.1247154 0.05567765
vt 0.1247154 0.08321124
vt 0.1041533 0.08321124
vt 0.08334704 0.05567765
vt 0.1039091 0.05567765
vt 0.1039091 0.08321124
vt 0.08334704 0.08321124
vt 0.1249595 0.02789986
vt 0.1455216 0.02789986
vt 0.1455216 0.05543351
vt 0.1249595 0.05543351
vt 0.1041533 0.02789986
vt 0.1247154 0.02789986
vt 0.1247154 0.05543351
vt 0.1041533 0.05543351
vt 0.08334704 0.02789986
vt 0.1039091 0.02789986
vt 0.1039091 0.05543351
vt 0.08334704 0.05543351
vt 0.3538282 0.1667888
vt 0.3743903 0.1667888
vt 0.3743903 0.1943223
vt 0.3538282 0.1943223
vt 0.3330219 0.1667888
vt 0.3535841 0.1667888
vt 0.3535841 0.1943223
vt 0.3330219 0.1943223
vt 0.3122157 0.1667888
vt 0.3327778 0.1667888
vt 0.3327778 0.1943223
vt 0.3122157 0.1943223
vt 0.2914095 0.1667888
vt 0.3119715 0.1667888
vt 0.3119715 0.1943223
vt 0.2914095 0.1943223
vt 0.3538282 0.139011
vt 0.3743903 0.139011
vt 0.3743903 0.1665446
vt 0.3538282 0.1665446
vt 0.3330219 0.139011
vt 0.3535841 0.139011
vt 0.3535841 0.1665446
vt 0.3330219 0.1665446
vt 0.3122157 0.139011
vt 0.3327778 0.139011
vt 0.3327778 0.1665446
vt 0.3122157 0.1665446
vt 0.2914095 0.139011
vt 0.3119715 0.139011
vt 0.3119715 0.1665446
vt 0.2914095 0.1665446
vt 0.3538282 0.1112332
vt 0.3743903 0.1112332
vt 0.3743903 0.1387668
vt 0.3538282 0.1387668
vt 0.3330219 0.1112332
vt 0.3535841 0.1112332
vt 0.3535841 0.1387668
vt 0.3330219 0.1387668
vt 0.3122157 0.1112332
vt 0.3327778 0.1112332
vt 0.3327778 0.1387668
vt 0.3122157 0.1387668
vt 0.2914095 0.1112332
vt 0.3119715 0.1112332
vt 0.3119715 0.1387668
vt 0.2914095 0.1387668
vt 0.0625408 0.08345538
vt 0.0831029 0.08345538
vt 0.0831029 0.110989
vt 0.0625408 0.110989
vt 0.04173455 0.08345538
vt 0.06229666 0.08345538
vt 0.06229666 0.110989
vt 0.04173455 0.110989
vt 0.02092831 0.08345538
vt 0.04149041 0.08345538
vt 0.04149041 0.110989
vt 0.02092831 0.110989
vt 0.0001220703 0.08345538
vt 0.02068417 0.08345538
vt 0.02068417 0.110989
vt 0.0001220703 0.110989
vt 0.0625408 0.05567765
vt 0.0831029 0.05567765
vt 0.0831029 0.08321124
vt 0.0625408 0.08321124
vt 0.04173455 0.05567765
vt 0.06229666 0.05567765
vt 0.06229666 0.08321124
vt 0.04173455 0.08321124
vt 0.02092831 0.05567765
vt 0.04149041 0.05567765
vt 0.04149041 0.08321124
vt 0.02092831 0.08321124
vt 0.0001220703 0.05567765
vt 0.02068417 0.05567765
vt 0.02068417 0.08321124
vt 0.0001220703 0.08321124
vt 0.0625408 0.02789986
vt 0.0831029 0.02789986
vt 0.0831029 0.05543351
vt 0.0625408 0.05543351
vt 0.04173455 0.02789986
vt 0.06229666 0.02789986
vt 0.06229666 0.05543351
vt 0.04173455 0.05543351
vt 0.02092831 0.02789986
vt 0.04149041 0.02789986
vt 0.04149041 0.05543351
vt 0.02092831 0.05543351
vt 0.0001220703 0.02789986
vt 0.02068417 0.02789986
vt 0.02068417 0.05543351
vt 0.0001220703 0.05543351

# Normal
vn 0 0 -1

# Mesh description
g RoseBakeshop_mesh_0006

# Faces
f 1/1/1 2/2/1 3/3/1 4/4/1
f 5/5/1 6/6/1 7/7/1 8/8/1
f 9/9/1 10/10/1 11/11/1 12/12/1
f 13/13/1 14/14/1 15/15/1 16/16/1
f 17/17/1 18/18/1 19/19/1 20/20/1
f 21/21/1 22/22/1 23/23/1 24/24/1
f 25/25/1 26/26/1 27/27/1 28/28/1
f 29/29/1 30/30/1 31/31/1 32/32/1
f 33/33/1 34/34/1 35/35/1 36/36/1
f 37/1/1 38/2/1 39/3/1 40/4/1
f 41/5/1 42/6/1 43/7/1 44/8/1
f 45/9/1 46/10/1 47/11/1 48/12/1
f 49/13/1 50/14/1 51/15/1 52/16/1
f 53/17/1 54/18/1 55/19/1 56/20/1
f 57/21/1 58/22/1 59/23/1 60/24/1
f 61/1/1 62/2/1 63/3/1 64/4/1
f 65/5/1 66/6/1 67/7/1 68/8/1
f 69/9/1 70/10/1 71/11/1 72/12/1
f 73/25/1 74/26/1 75/27/1 76/28/1
f 77/29/1 78/30/1 79/31/1 80/32/1
f 81/33/1 82/34/1 83/35/1 84/36/1
f 85/13/1 86/14/1 87/15/1 88/16/1
f 89/17/1 90/18/1 91/19/1 92/20/1
f 93/21/1 94/22/1 95/23/1 96/24/1
f 97/1/1 98/2/1 99/3/1 100/4/1
f 101/5/1 102/6/1 103/7/1 104/8/1
f 105/9/1 106/10/1 107/11/1 108/12/1
f 109/25/1 110/26/1 111/27/1 112/28/1
f 113/29/1 114/30/1 115/31/1 116/32/1
f 117/33/1 118/34/1 119/35/1 120/36/1
f 121/13/1 122/14/1 123/15/1 124/16/1
f 125/17/1 126/18/1 127/19/1 128/20/1
f 129/21/1 130/22/1 131/23/1 132/24/1
f 133/25/1 134/26/1 135/27/1 136/28/1
f 137/29/1 138/30/1 139/31/1 140/32/1
f 141/33/1 142/34/1 143/35/1 144/36/1
f 145/1/1 146/2/1 147/3/1 148/4/1
f 149/5/1 150/6/1 151/7/1 152/8/1
f 153/9/1 154/10/1 155/11/1 156/12/1
f 157/13/1 158/14/1 159/15/1 160/16/1
f 161/17/1 162/18/1 163/19/1 164/20/1
f 165/21/1 166/22/1 167/23/1 168/24/1
f 169/25/1 170/26/1 171/27/1 172/28/1
f 173/29/1 174/30/1 175/31/1 176/32/1
f 177/33/1 178/34/1 179/35/1 180/36/1
f 181/37/1 182/38/1 183/39/1 184/40/1
f 185/41/1 186/42/1 187/43/1 188/44/1
f 189/45/1 190/46/1 191/47/1 192/48/1
f 193/49/1 194/50/1 195/51/1 196/52/1
f 197/53/1 198/54/1 199/55/1 200/56/1
f 201/57/1 202/58/1 203/59/1 204/60/1
f 205/61/1 206/62/1 207/63/1 208/64/1
f 209/65/1 210/66/1 211/67/1 212/68/1
f 213/69/1 214/70/1 215/71/1 216/72/1
f 217/73/1 218/74/1 219/75/1 220/76/1
f 221/77/1 222/78/1 223/79/1 224/80/1
f 225/81/1 226/82/1 227/83/1 228/84/1
f 229/85/1 230/86/1 231/87/1 232/88/1
f 233/89/1 234/90/1 235/91/1 236/92/1
f 237/93/1 238/94/1 239/95/1 240/96/1
f 241/97/1 242/98/1 243/99/1 244/100/1
f 245/85/1 246/86/1 247/87/1 248/88/1
f 249/89/1 250/90/1 251/91/1 252/92/1
f 253/93/1 254/94/1 255/95/1 256/96/1
f 257/97/1 258/98/1 259/99/1 260/100/1
f 261/101/1 262/102/1 263/103/1 264/104/1
f 265/105/1 266/106/1 267/107/1 268/108/1
f 269/109/1 270/110/1 271/111/1 272/112/1
f 273/113/1 274/114/1 275/115/1 276/116/1
f 277/101/1 278/102/1 279/103/1 280/104/1
f 281/105/1 282/106/1 283/107/1 284/108/1
f 285/109/1 286/110/1 287/111/1 288/112/1
f 289/113/1 290/114/1 291/115/1 292/116/1
f 293/117/1 294/118/1 295/119/1 296/120/1
f 297/121/1 298/122/1 299/123/1 300/124/1
f 301/125/1 302/126/1 303/127/1 304/128/1
f 305/129/1 306/130/1 307/131/1 308/132/1
f 309/117/1 310/118/1 311/119/1 312/120/1
f 313/121/1 314/122/1 315/123/1 316/124/1
f 317/125/1 318/126/1 319/127/1 320/128/1
f 321/129/1 322/130/1 323/131/1 324/132/1
f 325/1/1 326/2/1 327/3/1 328/4/1
f 329/5/1 330/6/1 331/7/1 332/8/1
f 333/9/1 334/10/1 335/11/1 336/12/1
f 337/13/1 338/14/1 339/15/1 340/16/1
f 341/17/1 342/18/1 343/19/1 344/20/1
f 345/21/1 346/22/1 347/23/1 348/24/1
f 349/25/1 350/26/1 351/27/1 352/28/1
f 353/29/1 354/30/1 355/31/1 356/32/1
f 357/33/1 358/34/1 359/35/1 360/36/1
f 361/85/1 362/86/1 363/87/1 364/88/1
f 365/89/1 366/90/1 367/91/1 368/92/1
f 369/93/1 370/94/1 371/95/1 372/96/1
f 373/97/1 374/98/1 375/99/1 376/100/1
f 377/101/1 378/102/1 379/103/1 380/104/1
f 381/105/1 382/106/1 383/107/1 384/108/1
f 385/109/1 386/110/1 387/111/1 388/112/1
f 389/113/1 390/114/1 391/115/1 392/116/1
f 393/117/1 394/118/1 395/119/1 396/120/1
f 397/121/1 398/122/1 399/123/1 400/124/1
f 401/125/1 402/126/1 403/127/1 404/128/1
f 405/129/1 406/130/1 407/131/1 408/132/1
f 409/37/1 410/38/1 411/39/1 412/40/1
f 413/41/1 414/42/1 415/43/1 416/44/1
f 417/45/1 418/46/1 419/47/1 420/48/1
f 421/49/1 422/50/1 423/51/1 424/52/1
f 425/53/1 426/54/1 427/55/1 428/56/1
f 429/57/1 430/58/1 431/59/1 432/60/1
f 433/61/1 434/62/1 435/63/1 436/64/1
f 437/65/1 438/66/1 439/67/1 440/68/1
f 441/85/1 442/86/1 443/87/1 444/88/1
f 445/89/1 446/90/1 447/91/1 448/92/1
f 449/93/1 450/94/1 451/95/1 452/96/1
f 453/97/1 454/98/1 455/99/1 456/100/1
f 457/69/1 458/70/1 459/71/1 460/72/1
f 461/73/1 462/74/1 463/75/1 464/76/1
f 465/77/1 466/78/1 467/79/1 468/80/1
f 469/81/1 470/82/1 471/83/1 472/84/1
f 473/101/1 474/102/1 475/103/1 476/104/1
f 477/105/1 478/106/1 479/107/1 480/108/1
f 481/109/1 482/110/1 483/111/1 484/112/1
f 485/113/1 486/114/1 487/115/1 488/116/1
f 489/117/1 490/118/1 491/119/1 492/120/1
f 493/121/1 494/122/1 495/123/1 496/124/1
f 497/125/1 498/126/1 499/127/1 500/128/1
f 501/129/1 502/130/1 503/131/1 504/132/1
f 505/85/1 506/86/1 507/87/1 508/88/1
f 509/89/1 510/90/1 511/91/1 512/92/1
f 513/93/1 514/94/1 515/95/1 516/96/1
f 517/97/1 518/98/1 519/99/1 520/100/1
f 521/101/1 522/102/1 523/103/1 524/104/1
f 525/105/1 526/106/1 527/107/1 528/108/1
f 529/109/1 530/110/1 531/111/1 532/112/1
f 533/113/1 534/114/1 535/115/1 536/116/1
f 537/85/1 538/86/1 539/87/1 540/88/1
f 541/89/1 542/90/1 543/91/1 544/92/1
f 545/93/1 546/94/1 547/95/1 548/96/1
f 549/97/1 550/98/1 551/99/1 552/100/1
f 553/117/1 554/118/1 555/119/1 556/120/1
f 557/121/1 558/122/1 559/123/1 560/124/1
f 561/125/1 562/126/1 563/127/1 564/128/1
f 565/129/1 566/130/1 567/131/1 568/132/1
f 569/101/1 570/102/1 571/103/1 572/104/1
f 573/105/1 574/106/1 575/107/1 576/108/1
f 577/109/1 578/110/1 579/111/1 580/112/1
f 581/113/1 582/114/1 583/115/1 584/116/1
f 585/85/1 586/86/1 587/87/1 588/88/1
f 589/89/1 590/90/1 591/91/1 592/92/1
f 593/93/1 594/94/1 595/95/1 596/96/1
f 597/97/1 598/98/1 599/99/1 600/100/1
f 601/85/1 602/86/1 603/87/1 604/88/1
f 605/89/1 606/90/1 607/91/1 608/92/1
f 609/93/1 610/94/1 611/95/1 612/96/1
f 613/97/1 614/98/1 615/99/1 616/100/1
f 617/117/1 618/118/1 619/119/1 620/120/1
f 621/121/1 622/122/1 623/123/1 624/124/1
f 625/125/1 626/126/1 627/127/1 628/128/1
f 629/129/1 630/130/1 631/131/1 632/132/1
f 633/101/1 634/102/1 635/103/1 636/104/1
f 637/105/1 638/106/1 639/107/1 640/108/1
f 641/109/1 642/110/1 643/111/1 644/112/1
f 645/113/1 646/114/1 647/115/1 648/116/1
f 649/101/1 650/102/1 651/103/1 652/104/1
f 653/105/1 654/106/1 655/107/1 656/108/1
f 657/109/1 658/110/1 659/111/1 660/112/1
f 661/113/1 662/114/1 663/115/1 664/116/1
f 665/117/1 666/118/1 667/119/1 668/120/1
f 669/121/1 670/122/1 671/123/1 672/124/1
f 673/125/1 674/126/1 675/127/1 676/128/1
f 677/129/1 678/130/1 679/131/1 680/132/1
f 681/117/1 682/118/1 683/119/1 684/120/1
f 685/121/1 686/122/1 687/123/1 688/124/1
f 689/125/1 690/126/1 691/127/1 692/128/1
f 693/129/1 694/130/1 695/131/1 696/132/1

