# Tiled2Unity generated file. Do not modify by hand.
# Wavefront file for 'TaasSaJolibee_mesh_0003.obj'

# Vertices (Count = 1072)
v -24 -4 0
v -25 -4 0
v -25 -3 0
v -24 -3 0
v -23 -4 0
v -24 -4 0
v -24 -3 0
v -23 -3 0
v -22 -4 0
v -23 -4 0
v -23 -3 0
v -22 -3 0
v -21 -4 0
v -22 -4 0
v -22 -3 0
v -21 -3 0
v -27 -5 0
v -28 -5 0
v -28 -4 0
v -27 -4 0
v -26 -5 0
v -27 -5 0
v -27 -4 0
v -26 -4 0
v -25 -5 0
v -26 -5 0
v -26 -4 0
v -25 -4 0
v -24 -5 0
v -25 -5 0
v -25 -4 0
v -24 -4 0
v -32 -7 0
v -33 -7 0
v -33 -6 0
v -32 -6 0
v -31 -7 0
v -32 -7 0
v -32 -6 0
v -31 -6 0
v -30 -7 0
v -31 -7 0
v -31 -6 0
v -30 -6 0
v -29 -7 0
v -30 -7 0
v -30 -6 0
v -29 -6 0
v -105 -9 0
v -106 -9 0
v -106 -8 0
v -105 -8 0
v -104 -9 0
v -105 -9 0
v -105 -8 0
v -104 -8 0
v -103 -9 0
v -104 -9 0
v -104 -8 0
v -103 -8 0
v -102 -9 0
v -103 -9 0
v -103 -8 0
v -102 -8 0
v -55 -11 0
v -56 -11 0
v -56 -10 0
v -55 -10 0
v -54 -11 0
v -55 -11 0
v -55 -10 0
v -54 -10 0
v -53 -11 0
v -54 -11 0
v -54 -10 0
v -53 -10 0
v -52 -11 0
v -53 -11 0
v -53 -10 0
v -52 -10 0
v -101 -13 0
v -102 -13 0
v -102 -12 0
v -101 -12 0
v -100 -13 0
v -101 -13 0
v -101 -12 0
v -100 -12 0
v -99 -13 0
v -100 -13 0
v -100 -12 0
v -99 -12 0
v -98 -13 0
v -99 -13 0
v -99 -12 0
v -98 -12 0
v -52 -13 0
v -53 -13 0
v -53 -12 0
v -52 -12 0
v -51 -13 0
v -52 -13 0
v -52 -12 0
v -51 -12 0
v -50 -13 0
v -51 -13 0
v -51 -12 0
v -50 -12 0
v -49 -13 0
v -50 -13 0
v -50 -12 0
v -49 -12 0
v -34 -13 0
v -35 -13 0
v -35 -12 0
v -34 -12 0
v -33 -13 0
v -34 -13 0
v -34 -12 0
v -33 -12 0
v -32 -13 0
v -33 -13 0
v -33 -12 0
v -32 -12 0
v -31 -13 0
v -32 -13 0
v -32 -12 0
v -31 -12 0
v -57 -14 0
v -58 -14 0
v -58 -13 0
v -57 -13 0
v -56 -14 0
v -57 -14 0
v -57 -13 0
v -56 -13 0
v -55 -14 0
v -56 -14 0
v -56 -13 0
v -55 -13 0
v -54 -14 0
v -55 -14 0
v -55 -13 0
v -54 -13 0
v -30 -14 0
v -31 -14 0
v -31 -13 0
v -30 -13 0
v -29 -14 0
v -30 -14 0
v -30 -13 0
v -29 -13 0
v -28 -14 0
v -29 -14 0
v -29 -13 0
v -28 -13 0
v -27 -14 0
v -28 -14 0
v -28 -13 0
v -27 -13 0
v -105 -15 0
v -106 -15 0
v -106 -14 0
v -105 -14 0
v -104 -15 0
v -105 -15 0
v -105 -14 0
v -104 -14 0
v -103 -15 0
v -104 -15 0
v -104 -14 0
v -103 -14 0
v -102 -15 0
v -103 -15 0
v -103 -14 0
v -102 -14 0
v -74 -15 0
v -75 -15 0
v -75 -14 0
v -74 -14 0
v -73 -15 0
v -74 -15 0
v -74 -14 0
v -73 -14 0
v -72 -15 0
v -73 -15 0
v -73 -14 0
v -72 -14 0
v -71 -15 0
v -72 -15 0
v -72 -14 0
v -71 -14 0
v -100 -18 0
v -101 -18 0
v -101 -17 0
v -100 -17 0
v -99 -18 0
v -100 -18 0
v -100 -17 0
v -99 -17 0
v -98 -18 0
v -99 -18 0
v -99 -17 0
v -98 -17 0
v -97 -18 0
v -98 -18 0
v -98 -17 0
v -97 -17 0
v -58 -18 0
v -59 -18 0
v -59 -17 0
v -58 -17 0
v -57 -18 0
v -58 -18 0
v -58 -17 0
v -57 -17 0
v -56 -18 0
v -57 -18 0
v -57 -17 0
v -56 -17 0
v -55 -18 0
v -56 -18 0
v -56 -17 0
v -55 -17 0
v -45 -18 0
v -46 -18 0
v -46 -17 0
v -45 -17 0
v -44 -18 0
v -45 -18 0
v -45 -17 0
v -44 -17 0
v -43 -18 0
v -44 -18 0
v -44 -17 0
v -43 -17 0
v -42 -18 0
v -43 -18 0
v -43 -17 0
v -42 -17 0
v -105 -19 0
v -106 -19 0
v -106 -18 0
v -105 -18 0
v -104 -19 0
v -105 -19 0
v -105 -18 0
v -104 -18 0
v -103 -19 0
v -104 -19 0
v -104 -18 0
v -103 -18 0
v -102 -19 0
v -103 -19 0
v -103 -18 0
v -102 -18 0
v -58 -19 0
v -59 -19 0
v -59 -18 0
v -58 -18 0
v -57 -19 0
v -58 -19 0
v -58 -18 0
v -57 -18 0
v -56 -19 0
v -57 -19 0
v -57 -18 0
v -56 -18 0
v -55 -19 0
v -56 -19 0
v -56 -18 0
v -55 -18 0
v -27 -20 0
v -28 -20 0
v -28 -19 0
v -27 -19 0
v -26 -20 0
v -27 -20 0
v -27 -19 0
v -26 -19 0
v -25 -20 0
v -26 -20 0
v -26 -19 0
v -25 -19 0
v -24 -20 0
v -25 -20 0
v -25 -19 0
v -24 -19 0
v -78 -23 0
v -79 -23 0
v -79 -22 0
v -78 -22 0
v -77 -23 0
v -78 -23 0
v -78 -22 0
v -77 -22 0
v -76 -23 0
v -77 -23 0
v -77 -22 0
v -76 -22 0
v -75 -23 0
v -76 -23 0
v -76 -22 0
v -75 -22 0
v -101 -26 0
v -102 -26 0
v -102 -25 0
v -101 -25 0
v -100 -26 0
v -101 -26 0
v -101 -25 0
v -100 -25 0
v -99 -26 0
v -100 -26 0
v -100 -25 0
v -99 -25 0
v -98 -26 0
v -99 -26 0
v -99 -25 0
v -98 -25 0
v -73 -26 0
v -74 -26 0
v -74 -25 0
v -73 -25 0
v -72 -26 0
v -73 -26 0
v -73 -25 0
v -72 -25 0
v -71 -26 0
v -72 -26 0
v -72 -25 0
v -71 -25 0
v -70 -26 0
v -71 -26 0
v -71 -25 0
v -70 -25 0
v -44 -27 0
v -45 -27 0
v -45 -26 0
v -44 -26 0
v -43 -27 0
v -44 -27 0
v -44 -26 0
v -43 -26 0
v -42 -27 0
v -43 -27 0
v -43 -26 0
v -42 -26 0
v -41 -27 0
v -42 -27 0
v -42 -26 0
v -41 -26 0
v -93 -28 0
v -94 -28 0
v -94 -27 0
v -93 -27 0
v -92 -28 0
v -93 -28 0
v -93 -27 0
v -92 -27 0
v -91 -28 0
v -92 -28 0
v -92 -27 0
v -91 -27 0
v -78 -28 0
v -79 -28 0
v -79 -27 0
v -78 -27 0
v -77 -28 0
v -78 -28 0
v -78 -27 0
v -77 -27 0
v -76 -28 0
v -77 -28 0
v -77 -27 0
v -76 -27 0
v -75 -28 0
v -76 -28 0
v -76 -27 0
v -75 -27 0
v -93 -29 0
v -94 -29 0
v -94 -28 0
v -93 -28 0
v -92 -29 0
v -93 -29 0
v -93 -28 0
v -92 -28 0
v -91 -29 0
v -92 -29 0
v -92 -28 0
v -91 -28 0
v -51 -29 0
v -52 -29 0
v -52 -28 0
v -51 -28 0
v -50 -29 0
v -51 -29 0
v -51 -28 0
v -50 -28 0
v -49 -29 0
v -50 -29 0
v -50 -28 0
v -49 -28 0
v -48 -29 0
v -49 -29 0
v -49 -28 0
v -48 -28 0
v -90 -30 0
v -91 -30 0
v -91 -29 0
v -90 -29 0
v -89 -30 0
v -90 -30 0
v -90 -29 0
v -89 -29 0
v -88 -30 0
v -89 -30 0
v -89 -29 0
v -88 -29 0
v -87 -30 0
v -88 -30 0
v -88 -29 0
v -87 -29 0
v -39 -30 0
v -40 -30 0
v -40 -29 0
v -39 -29 0
v -38 -30 0
v -39 -30 0
v -39 -29 0
v -38 -29 0
v -37 -30 0
v -38 -30 0
v -38 -29 0
v -37 -29 0
v -36 -30 0
v -37 -30 0
v -37 -29 0
v -36 -29 0
v -84 -35 0
v -85 -35 0
v -85 -34 0
v -84 -34 0
v -83 -35 0
v -84 -35 0
v -84 -34 0
v -83 -34 0
v -82 -35 0
v -83 -35 0
v -83 -34 0
v -82 -34 0
v -81 -35 0
v -82 -35 0
v -82 -34 0
v -81 -34 0
v -76 -36 0
v -77 -36 0
v -77 -35 0
v -76 -35 0
v -75 -36 0
v -76 -36 0
v -76 -35 0
v -75 -35 0
v -74 -36 0
v -75 -36 0
v -75 -35 0
v -74 -35 0
v -73 -36 0
v -74 -36 0
v -74 -35 0
v -73 -35 0
v -83 -38 0
v -84 -38 0
v -84 -37 0
v -83 -37 0
v -82 -38 0
v -83 -38 0
v -83 -37 0
v -82 -37 0
v -81 -38 0
v -82 -38 0
v -82 -37 0
v -81 -37 0
v -83 -39 0
v -84 -39 0
v -84 -38 0
v -83 -38 0
v -82 -39 0
v -83 -39 0
v -83 -38 0
v -82 -38 0
v -81 -39 0
v -82 -39 0
v -82 -38 0
v -81 -38 0
v -79 -39 0
v -80 -39 0
v -80 -38 0
v -79 -38 0
v -78 -39 0
v -79 -39 0
v -79 -38 0
v -78 -38 0
v -77 -39 0
v -78 -39 0
v -78 -38 0
v -77 -38 0
v -76 -39 0
v -77 -39 0
v -77 -38 0
v -76 -38 0
v -91 -40 0
v -92 -40 0
v -92 -39 0
v -91 -39 0
v -90 -40 0
v -91 -40 0
v -91 -39 0
v -90 -39 0
v -89 -40 0
v -90 -40 0
v -90 -39 0
v -89 -39 0
v -91 -41 0
v -92 -41 0
v -92 -40 0
v -91 -40 0
v -90 -41 0
v -91 -41 0
v -91 -40 0
v -90 -40 0
v -89 -41 0
v -90 -41 0
v -90 -40 0
v -89 -40 0
v -66 -43 0
v -67 -43 0
v -67 -42 0
v -66 -42 0
v -65 -43 0
v -66 -43 0
v -66 -42 0
v -65 -42 0
v -64 -43 0
v -65 -43 0
v -65 -42 0
v -64 -42 0
v -63 -43 0
v -64 -43 0
v -64 -42 0
v -63 -42 0
v -73 -44 0
v -74 -44 0
v -74 -43 0
v -73 -43 0
v -72 -44 0
v -73 -44 0
v -73 -43 0
v -72 -43 0
v -71 -44 0
v -72 -44 0
v -72 -43 0
v -71 -43 0
v -70 -44 0
v -71 -44 0
v -71 -43 0
v -70 -43 0
v -96 -45 0
v -97 -45 0
v -97 -44 0
v -96 -44 0
v -95 -45 0
v -96 -45 0
v -96 -44 0
v -95 -44 0
v -94 -45 0
v -95 -45 0
v -95 -44 0
v -94 -44 0
v -93 -45 0
v -94 -45 0
v -94 -44 0
v -93 -44 0
v -85 -45 0
v -86 -45 0
v -86 -44 0
v -85 -44 0
v -84 -45 0
v -85 -45 0
v -85 -44 0
v -84 -44 0
v -83 -45 0
v -84 -45 0
v -84 -44 0
v -83 -44 0
v -77 -45 0
v -78 -45 0
v -78 -44 0
v -77 -44 0
v -76 -45 0
v -77 -45 0
v -77 -44 0
v -76 -44 0
v -75 -45 0
v -76 -45 0
v -76 -44 0
v -75 -44 0
v -74 -45 0
v -75 -45 0
v -75 -44 0
v -74 -44 0
v -63 -45 0
v -64 -45 0
v -64 -44 0
v -63 -44 0
v -62 -45 0
v -63 -45 0
v -63 -44 0
v -62 -44 0
v -61 -45 0
v -62 -45 0
v -62 -44 0
v -61 -44 0
v -60 -45 0
v -61 -45 0
v -61 -44 0
v -60 -44 0
v -85 -46 0
v -86 -46 0
v -86 -45 0
v -85 -45 0
v -84 -46 0
v -85 -46 0
v -85 -45 0
v -84 -45 0
v -83 -46 0
v -84 -46 0
v -84 -45 0
v -83 -45 0
v -69 -46 0
v -70 -46 0
v -70 -45 0
v -69 -45 0
v -68 -46 0
v -69 -46 0
v -69 -45 0
v -68 -45 0
v -67 -46 0
v -68 -46 0
v -68 -45 0
v -67 -45 0
v -66 -46 0
v -67 -46 0
v -67 -45 0
v -66 -45 0
v -68 -50 0
v -69 -50 0
v -69 -49 0
v -68 -49 0
v -67 -50 0
v -68 -50 0
v -68 -49 0
v -67 -49 0
v -66 -50 0
v -67 -50 0
v -67 -49 0
v -66 -49 0
v -65 -50 0
v -66 -50 0
v -66 -49 0
v -65 -49 0
v -64 -52 0
v -65 -52 0
v -65 -51 0
v -64 -51 0
v -63 -52 0
v -64 -52 0
v -64 -51 0
v -63 -51 0
v -62 -52 0
v -63 -52 0
v -63 -51 0
v -62 -51 0
v -61 -52 0
v -62 -52 0
v -62 -51 0
v -61 -51 0
v -80 -53 0
v -81 -53 0
v -81 -52 0
v -80 -52 0
v -79 -53 0
v -80 -53 0
v -80 -52 0
v -79 -52 0
v -78 -53 0
v -79 -53 0
v -79 -52 0
v -78 -52 0
v -77 -53 0
v -78 -53 0
v -78 -52 0
v -77 -52 0
v -42 -56 0
v -43 -56 0
v -43 -55 0
v -42 -55 0
v -41 -56 0
v -42 -56 0
v -42 -55 0
v -41 -55 0
v -40 -56 0
v -41 -56 0
v -41 -55 0
v -40 -55 0
v -39 -56 0
v -40 -56 0
v -40 -55 0
v -39 -55 0
v -52 -59 0
v -53 -59 0
v -53 -58 0
v -52 -58 0
v -51 -59 0
v -52 -59 0
v -52 -58 0
v -51 -58 0
v -50 -59 0
v -51 -59 0
v -51 -58 0
v -50 -58 0
v -49 -59 0
v -50 -59 0
v -50 -58 0
v -49 -58 0
v -46 -63 0
v -47 -63 0
v -47 -62 0
v -46 -62 0
v -45 -63 0
v -46 -63 0
v -46 -62 0
v -45 -62 0
v -44 -63 0
v -45 -63 0
v -45 -62 0
v -44 -62 0
v -43 -63 0
v -44 -63 0
v -44 -62 0
v -43 -62 0
v -37 -65 0
v -38 -65 0
v -38 -64 0
v -37 -64 0
v -36 -65 0
v -37 -65 0
v -37 -64 0
v -36 -64 0
v -35 -65 0
v -36 -65 0
v -36 -64 0
v -35 -64 0
v -34 -65 0
v -35 -65 0
v -35 -64 0
v -34 -64 0
v -14 -71 0
v -15 -71 0
v -15 -70 0
v -14 -70 0
v -13 -71 0
v -14 -71 0
v -14 -70 0
v -13 -70 0
v -12 -71 0
v -13 -71 0
v -13 -70 0
v -12 -70 0
v -11 -71 0
v -12 -71 0
v -12 -70 0
v -11 -70 0
v -29 -75 0
v -30 -75 0
v -30 -74 0
v -29 -74 0
v -28 -75 0
v -29 -75 0
v -29 -74 0
v -28 -74 0
v -27 -75 0
v -28 -75 0
v -28 -74 0
v -27 -74 0
v -26 -75 0
v -27 -75 0
v -27 -74 0
v -26 -74 0
v -19 -76 0
v -20 -76 0
v -20 -75 0
v -19 -75 0
v -18 -76 0
v -19 -76 0
v -19 -75 0
v -18 -75 0
v -17 -76 0
v -18 -76 0
v -18 -75 0
v -17 -75 0
v -16 -76 0
v -17 -76 0
v -17 -75 0
v -16 -75 0
v -31 -80 0
v -32 -80 0
v -32 -79 0
v -31 -79 0
v -30 -80 0
v -31 -80 0
v -31 -79 0
v -30 -79 0
v -29 -80 0
v -30 -80 0
v -30 -79 0
v -29 -79 0
v -28 -80 0
v -29 -80 0
v -29 -79 0
v -28 -79 0
v -90 -81 0
v -91 -81 0
v -91 -80 0
v -90 -80 0
v -89 -81 0
v -90 -81 0
v -90 -80 0
v -89 -80 0
v -88 -81 0
v -89 -81 0
v -89 -80 0
v -88 -80 0
v -87 -81 0
v -88 -81 0
v -88 -80 0
v -87 -80 0
v -76 -81 0
v -77 -81 0
v -77 -80 0
v -76 -80 0
v -75 -81 0
v -76 -81 0
v -76 -80 0
v -75 -80 0
v -74 -81 0
v -75 -81 0
v -75 -80 0
v -74 -80 0
v -73 -81 0
v -74 -81 0
v -74 -80 0
v -73 -80 0
v -24 -81 0
v -25 -81 0
v -25 -80 0
v -24 -80 0
v -23 -81 0
v -24 -81 0
v -24 -80 0
v -23 -80 0
v -22 -81 0
v -23 -81 0
v -23 -80 0
v -22 -80 0
v -21 -81 0
v -22 -81 0
v -22 -80 0
v -21 -80 0
v -96 -82 0
v -97 -82 0
v -97 -81 0
v -96 -81 0
v -95 -82 0
v -96 -82 0
v -96 -81 0
v -95 -81 0
v -94 -82 0
v -95 -82 0
v -95 -81 0
v -94 -81 0
v -93 -82 0
v -94 -82 0
v -94 -81 0
v -93 -81 0
v -81 -83 0
v -82 -83 0
v -82 -82 0
v -81 -82 0
v -80 -83 0
v -81 -83 0
v -81 -82 0
v -80 -82 0
v -79 -83 0
v -80 -83 0
v -80 -82 0
v -79 -82 0
v -78 -83 0
v -79 -83 0
v -79 -82 0
v -78 -82 0
v -85 -85 0
v -86 -85 0
v -86 -84 0
v -85 -84 0
v -84 -85 0
v -85 -85 0
v -85 -84 0
v -84 -84 0
v -83 -85 0
v -84 -85 0
v -84 -84 0
v -83 -84 0
v -82 -85 0
v -83 -85 0
v -83 -84 0
v -82 -84 0
v -34 -85 0
v -35 -85 0
v -35 -84 0
v -34 -84 0
v -33 -85 0
v -34 -85 0
v -34 -84 0
v -33 -84 0
v -32 -85 0
v -33 -85 0
v -33 -84 0
v -32 -84 0
v -31 -85 0
v -32 -85 0
v -32 -84 0
v -31 -84 0
v -104 -86 0
v -105 -86 0
v -105 -85 0
v -104 -85 0
v -103 -86 0
v -104 -86 0
v -104 -85 0
v -103 -85 0
v -102 -86 0
v -103 -86 0
v -103 -85 0
v -102 -85 0
v -101 -86 0
v -102 -86 0
v -102 -85 0
v -101 -85 0
v -96 -87 0
v -97 -87 0
v -97 -86 0
v -96 -86 0
v -95 -87 0
v -96 -87 0
v -96 -86 0
v -95 -86 0
v -94 -87 0
v -95 -87 0
v -95 -86 0
v -94 -86 0
v -93 -87 0
v -94 -87 0
v -94 -86 0
v -93 -86 0
v -89 -87 0
v -90 -87 0
v -90 -86 0
v -89 -86 0
v -88 -87 0
v -89 -87 0
v -89 -86 0
v -88 -86 0
v -87 -87 0
v -88 -87 0
v -88 -86 0
v -87 -86 0
v -86 -87 0
v -87 -87 0
v -87 -86 0
v -86 -86 0
v -57 -87 0
v -58 -87 0
v -58 -86 0
v -57 -86 0
v -56 -87 0
v -57 -87 0
v -57 -86 0
v -56 -86 0
v -55 -87 0
v -56 -87 0
v -56 -86 0
v -55 -86 0
v -54 -87 0
v -55 -87 0
v -55 -86 0
v -54 -86 0
v -49 -88 0
v -50 -88 0
v -50 -87 0
v -49 -87 0
v -48 -88 0
v -49 -88 0
v -49 -87 0
v -48 -87 0
v -47 -88 0
v -48 -88 0
v -48 -87 0
v -47 -87 0
v -46 -88 0
v -47 -88 0
v -47 -87 0
v -46 -87 0
v -105 -90 0
v -106 -90 0
v -106 -89 0
v -105 -89 0
v -104 -90 0
v -105 -90 0
v -105 -89 0
v -104 -89 0
v -103 -90 0
v -104 -90 0
v -104 -89 0
v -103 -89 0
v -102 -90 0
v -103 -90 0
v -103 -89 0
v -102 -89 0
v -26 -90 0
v -27 -90 0
v -27 -89 0
v -26 -89 0
v -25 -90 0
v -26 -90 0
v -26 -89 0
v -25 -89 0
v -24 -90 0
v -25 -90 0
v -25 -89 0
v -24 -89 0
v -23 -90 0
v -24 -90 0
v -24 -89 0
v -23 -89 0
v -22 -91 0
v -23 -91 0
v -23 -90 0
v -22 -90 0
v -21 -91 0
v -22 -91 0
v -22 -90 0
v -21 -90 0
v -20 -91 0
v -21 -91 0
v -21 -90 0
v -20 -90 0
v -19 -91 0
v -20 -91 0
v -20 -90 0
v -19 -90 0

# Texture cooridinates (Count = 72)
vt 0.0625408 0.0001220703
vt 0.0831029 0.0001220703
vt 0.0831029 0.02765572
vt 0.0625408 0.02765572
vt 0.04173455 0.0001220703
vt 0.06229666 0.0001220703
vt 0.06229666 0.02765572
vt 0.04173455 0.02765572
vt 0.02092831 0.0001220703
vt 0.04149041 0.0001220703
vt 0.04149041 0.02765572
vt 0.02092831 0.02765572
vt 0.0001220703 0.0001220703
vt 0.02068417 0.0001220703
vt 0.02068417 0.02765572
vt 0.0001220703 0.02765572
vt 0.3538282 0.08345538
vt 0.3743903 0.08345538
vt 0.3743903 0.110989
vt 0.3538282 0.110989
vt 0.3330219 0.08345538
vt 0.3535841 0.08345538
vt 0.3535841 0.110989
vt 0.3330219 0.110989
vt 0.3122157 0.08345538
vt 0.3327778 0.08345538
vt 0.3327778 0.110989
vt 0.3122157 0.110989
vt 0.2914095 0.08345538
vt 0.3119715 0.08345538
vt 0.3119715 0.110989
vt 0.2914095 0.110989
vt 0.0625408 0.02789986
vt 0.0831029 0.02789986
vt 0.0831029 0.05543351
vt 0.0625408 0.05543351
vt 0.04173455 0.02789986
vt 0.06229666 0.02789986
vt 0.06229666 0.05543351
vt 0.04173455 0.05543351
vt 0.02092831 0.02789986
vt 0.04149041 0.02789986
vt 0.04149041 0.05543351
vt 0.02092831 0.05543351
vt 0.0001220703 0.02789986
vt 0.02068417 0.02789986
vt 0.02068417 0.05543351
vt 0.0001220703 0.05543351
vt 0.1249595 0.02789986
vt 0.1455216 0.02789986
vt 0.1455216 0.05543351
vt 0.1249595 0.05543351
vt 0.1041533 0.02789986
vt 0.1247154 0.02789986
vt 0.1247154 0.05543351
vt 0.1041533 0.05543351
vt 0.08334704 0.02789986
vt 0.1039091 0.02789986
vt 0.1039091 0.05543351
vt 0.08334704 0.05543351
vt 0.1249595 0.0001220703
vt 0.1455216 0.0001220703
vt 0.1455216 0.02765572
vt 0.1249595 0.02765572
vt 0.1041533 0.0001220703
vt 0.1247154 0.0001220703
vt 0.1247154 0.02765572
vt 0.1041533 0.02765572
vt 0.08334704 0.0001220703
vt 0.1039091 0.0001220703
vt 0.1039091 0.02765572
vt 0.08334704 0.02765572

# Normal
vn 0 0 -1

# Mesh description
g TaasSaJolibee_mesh_0003

# Faces
f 1/1/1 2/2/1 3/3/1 4/4/1
f 5/5/1 6/6/1 7/7/1 8/8/1
f 9/9/1 10/10/1 11/11/1 12/12/1
f 13/13/1 14/14/1 15/15/1 16/16/1
f 17/17/1 18/18/1 19/19/1 20/20/1
f 21/21/1 22/22/1 23/23/1 24/24/1
f 25/25/1 26/26/1 27/27/1 28/28/1
f 29/29/1 30/30/1 31/31/1 32/32/1
f 33/1/1 34/2/1 35/3/1 36/4/1
f 37/5/1 38/6/1 39/7/1 40/8/1
f 41/9/1 42/10/1 43/11/1 44/12/1
f 45/13/1 46/14/1 47/15/1 48/16/1
f 49/1/1 50/2/1 51/3/1 52/4/1
f 53/5/1 54/6/1 55/7/1 56/8/1
f 57/9/1 58/10/1 59/11/1 60/12/1
f 61/13/1 62/14/1 63/15/1 64/16/1
f 65/1/1 66/2/1 67/3/1 68/4/1
f 69/5/1 70/6/1 71/7/1 72/8/1
f 73/9/1 74/10/1 75/11/1 76/12/1
f 77/13/1 78/14/1 79/15/1 80/16/1
f 81/1/1 82/2/1 83/3/1 84/4/1
f 85/5/1 86/6/1 87/7/1 88/8/1
f 89/9/1 90/10/1 91/11/1 92/12/1
f 93/13/1 94/14/1 95/15/1 96/16/1
f 97/1/1 98/2/1 99/3/1 100/4/1
f 101/5/1 102/6/1 103/7/1 104/8/1
f 105/9/1 106/10/1 107/11/1 108/12/1
f 109/13/1 110/14/1 111/15/1 112/16/1
f 113/1/1 114/2/1 115/3/1 116/4/1
f 117/5/1 118/6/1 119/7/1 120/8/1
f 121/9/1 122/10/1 123/11/1 124/12/1
f 125/13/1 126/14/1 127/15/1 128/16/1
f 129/17/1 130/18/1 131/19/1 132/20/1
f 133/21/1 134/22/1 135/23/1 136/24/1
f 137/25/1 138/26/1 139/27/1 140/28/1
f 141/29/1 142/30/1 143/31/1 144/32/1
f 145/17/1 146/18/1 147/19/1 148/20/1
f 149/21/1 150/22/1 151/23/1 152/24/1
f 153/25/1 154/26/1 155/27/1 156/28/1
f 157/29/1 158/30/1 159/31/1 160/32/1
f 161/17/1 162/18/1 163/19/1 164/20/1
f 165/21/1 166/22/1 167/23/1 168/24/1
f 169/25/1 170/26/1 171/27/1 172/28/1
f 173/29/1 174/30/1 175/31/1 176/32/1
f 177/17/1 178/18/1 179/19/1 180/20/1
f 181/21/1 182/22/1 183/23/1 184/24/1
f 185/25/1 186/26/1 187/27/1 188/28/1
f 189/29/1 190/30/1 191/31/1 192/32/1
f 193/1/1 194/2/1 195/3/1 196/4/1
f 197/5/1 198/6/1 199/7/1 200/8/1
f 201/9/1 202/10/1 203/11/1 204/12/1
f 205/13/1 206/14/1 207/15/1 208/16/1
f 209/33/1 210/34/1 211/35/1 212/36/1
f 213/37/1 214/38/1 215/39/1 216/40/1
f 217/41/1 218/42/1 219/43/1 220/44/1
f 221/45/1 222/46/1 223/47/1 224/48/1
f 225/1/1 226/2/1 227/3/1 228/4/1
f 229/5/1 230/6/1 231/7/1 232/8/1
f 233/9/1 234/10/1 235/11/1 236/12/1
f 237/13/1 238/14/1 239/15/1 240/16/1
f 241/1/1 242/2/1 243/3/1 244/4/1
f 245/5/1 246/6/1 247/7/1 248/8/1
f 249/9/1 250/10/1 251/11/1 252/12/1
f 253/13/1 254/14/1 255/15/1 256/16/1
f 257/1/1 258/2/1 259/3/1 260/4/1
f 261/5/1 262/6/1 263/7/1 264/8/1
f 265/9/1 266/10/1 267/11/1 268/12/1
f 269/13/1 270/14/1 271/15/1 272/16/1
f 273/1/1 274/2/1 275/3/1 276/4/1
f 277/5/1 278/6/1 279/7/1 280/8/1
f 281/9/1 282/10/1 283/11/1 284/12/1
f 285/13/1 286/14/1 287/15/1 288/16/1
f 289/1/1 290/2/1 291/3/1 292/4/1
f 293/5/1 294/6/1 295/7/1 296/8/1
f 297/9/1 298/10/1 299/11/1 300/12/1
f 301/13/1 302/14/1 303/15/1 304/16/1
f 305/17/1 306/18/1 307/19/1 308/20/1
f 309/21/1 310/22/1 311/23/1 312/24/1
f 313/25/1 314/26/1 315/27/1 316/28/1
f 317/29/1 318/30/1 319/31/1 320/32/1
f 321/1/1 322/2/1 323/3/1 324/4/1
f 325/5/1 326/6/1 327/7/1 328/8/1
f 329/9/1 330/10/1 331/11/1 332/12/1
f 333/13/1 334/14/1 335/15/1 336/16/1
f 337/1/1 338/2/1 339/3/1 340/4/1
f 341/5/1 342/6/1 343/7/1 344/8/1
f 345/9/1 346/10/1 347/11/1 348/12/1
f 349/13/1 350/14/1 351/15/1 352/16/1
f 353/49/1 354/50/1 355/51/1 356/52/1
f 357/53/1 358/54/1 359/55/1 360/56/1
f 361/57/1 362/58/1 363/59/1 364/60/1
f 365/1/1 366/2/1 367/3/1 368/4/1
f 369/5/1 370/6/1 371/7/1 372/8/1
f 373/9/1 374/10/1 375/11/1 376/12/1
f 377/13/1 378/14/1 379/15/1 380/16/1
f 381/61/1 382/62/1 383/63/1 384/64/1
f 385/65/1 386/66/1 387/67/1 388/68/1
f 389/69/1 390/70/1 391/71/1 392/72/1
f 393/1/1 394/2/1 395/3/1 396/4/1
f 397/5/1 398/6/1 399/7/1 400/8/1
f 401/9/1 402/10/1 403/11/1 404/12/1
f 405/13/1 406/14/1 407/15/1 408/16/1
f 409/17/1 410/18/1 411/19/1 412/20/1
f 413/21/1 414/22/1 415/23/1 416/24/1
f 417/25/1 418/26/1 419/27/1 420/28/1
f 421/29/1 422/30/1 423/31/1 424/32/1
f 425/1/1 426/2/1 427/3/1 428/4/1
f 429/5/1 430/6/1 431/7/1 432/8/1
f 433/9/1 434/10/1 435/11/1 436/12/1
f 437/13/1 438/14/1 439/15/1 440/16/1
f 441/1/1 442/2/1 443/3/1 444/4/1
f 445/5/1 446/6/1 447/7/1 448/8/1
f 449/9/1 450/10/1 451/11/1 452/12/1
f 453/13/1 454/14/1 455/15/1 456/16/1
f 457/1/1 458/2/1 459/3/1 460/4/1
f 461/5/1 462/6/1 463/7/1 464/8/1
f 465/9/1 466/10/1 467/11/1 468/12/1
f 469/13/1 470/14/1 471/15/1 472/16/1
f 473/49/1 474/50/1 475/51/1 476/52/1
f 477/53/1 478/54/1 479/55/1 480/56/1
f 481/57/1 482/58/1 483/59/1 484/60/1
f 485/61/1 486/62/1 487/63/1 488/64/1
f 489/65/1 490/66/1 491/67/1 492/68/1
f 493/69/1 494/70/1 495/71/1 496/72/1
f 497/17/1 498/18/1 499/19/1 500/20/1
f 501/21/1 502/22/1 503/23/1 504/24/1
f 505/25/1 506/26/1 507/27/1 508/28/1
f 509/29/1 510/30/1 511/31/1 512/32/1
f 513/49/1 514/50/1 515/51/1 516/52/1
f 517/53/1 518/54/1 519/55/1 520/56/1
f 521/57/1 522/58/1 523/59/1 524/60/1
f 525/61/1 526/62/1 527/63/1 528/64/1
f 529/65/1 530/66/1 531/67/1 532/68/1
f 533/69/1 534/70/1 535/71/1 536/72/1
f 537/17/1 538/18/1 539/19/1 540/20/1
f 541/21/1 542/22/1 543/23/1 544/24/1
f 545/25/1 546/26/1 547/27/1 548/28/1
f 549/29/1 550/30/1 551/31/1 552/32/1
f 553/1/1 554/2/1 555/3/1 556/4/1
f 557/5/1 558/6/1 559/7/1 560/8/1
f 561/9/1 562/10/1 563/11/1 564/12/1
f 565/13/1 566/14/1 567/15/1 568/16/1
f 569/1/1 570/2/1 571/3/1 572/4/1
f 573/5/1 574/6/1 575/7/1 576/8/1
f 577/9/1 578/10/1 579/11/1 580/12/1
f 581/13/1 582/14/1 583/15/1 584/16/1
f 585/49/1 586/50/1 587/51/1 588/52/1
f 589/53/1 590/54/1 591/55/1 592/56/1
f 593/57/1 594/58/1 595/59/1 596/60/1
f 597/1/1 598/2/1 599/3/1 600/4/1
f 601/5/1 602/6/1 603/7/1 604/8/1
f 605/9/1 606/10/1 607/11/1 608/12/1
f 609/13/1 610/14/1 611/15/1 612/16/1
f 613/1/1 614/2/1 615/3/1 616/4/1
f 617/5/1 618/6/1 619/7/1 620/8/1
f 621/9/1 622/10/1 623/11/1 624/12/1
f 625/13/1 626/14/1 627/15/1 628/16/1
f 629/61/1 630/62/1 631/63/1 632/64/1
f 633/65/1 634/66/1 635/67/1 636/68/1
f 637/69/1 638/70/1 639/71/1 640/72/1
f 641/1/1 642/2/1 643/3/1 644/4/1
f 645/5/1 646/6/1 647/7/1 648/8/1
f 649/9/1 650/10/1 651/11/1 652/12/1
f 653/13/1 654/14/1 655/15/1 656/16/1
f 657/1/1 658/2/1 659/3/1 660/4/1
f 661/5/1 662/6/1 663/7/1 664/8/1
f 665/9/1 666/10/1 667/11/1 668/12/1
f 669/13/1 670/14/1 671/15/1 672/16/1
f 673/17/1 674/18/1 675/19/1 676/20/1
f 677/21/1 678/22/1 679/23/1 680/24/1
f 681/25/1 682/26/1 683/27/1 684/28/1
f 685/29/1 686/30/1 687/31/1 688/32/1
f 689/1/1 690/2/1 691/3/1 692/4/1
f 693/5/1 694/6/1 695/7/1 696/8/1
f 697/9/1 698/10/1 699/11/1 700/12/1
f 701/13/1 702/14/1 703/15/1 704/16/1
f 705/1/1 706/2/1 707/3/1 708/4/1
f 709/5/1 710/6/1 711/7/1 712/8/1
f 713/9/1 714/10/1 715/11/1 716/12/1
f 717/13/1 718/14/1 719/15/1 720/16/1
f 721/1/1 722/2/1 723/3/1 724/4/1
f 725/5/1 726/6/1 727/7/1 728/8/1
f 729/9/1 730/10/1 731/11/1 732/12/1
f 733/13/1 734/14/1 735/15/1 736/16/1
f 737/1/1 738/2/1 739/3/1 740/4/1
f 741/5/1 742/6/1 743/7/1 744/8/1
f 745/9/1 746/10/1 747/11/1 748/12/1
f 749/13/1 750/14/1 751/15/1 752/16/1
f 753/1/1 754/2/1 755/3/1 756/4/1
f 757/5/1 758/6/1 759/7/1 760/8/1
f 761/9/1 762/10/1 763/11/1 764/12/1
f 765/13/1 766/14/1 767/15/1 768/16/1
f 769/1/1 770/2/1 771/3/1 772/4/1
f 773/5/1 774/6/1 775/7/1 776/8/1
f 777/9/1 778/10/1 779/11/1 780/12/1
f 781/13/1 782/14/1 783/15/1 784/16/1
f 785/1/1 786/2/1 787/3/1 788/4/1
f 789/5/1 790/6/1 791/7/1 792/8/1
f 793/9/1 794/10/1 795/11/1 796/12/1
f 797/13/1 798/14/1 799/15/1 800/16/1
f 801/17/1 802/18/1 803/19/1 804/20/1
f 805/21/1 806/22/1 807/23/1 808/24/1
f 809/25/1 810/26/1 811/27/1 812/28/1
f 813/29/1 814/30/1 815/31/1 816/32/1
f 817/1/1 818/2/1 819/3/1 820/4/1
f 821/5/1 822/6/1 823/7/1 824/8/1
f 825/9/1 826/10/1 827/11/1 828/12/1
f 829/13/1 830/14/1 831/15/1 832/16/1
f 833/1/1 834/2/1 835/3/1 836/4/1
f 837/5/1 838/6/1 839/7/1 840/8/1
f 841/9/1 842/10/1 843/11/1 844/12/1
f 845/13/1 846/14/1 847/15/1 848/16/1
f 849/17/1 850/18/1 851/19/1 852/20/1
f 853/21/1 854/22/1 855/23/1 856/24/1
f 857/25/1 858/26/1 859/27/1 860/28/1
f 861/29/1 862/30/1 863/31/1 864/32/1
f 865/1/1 866/2/1 867/3/1 868/4/1
f 869/5/1 870/6/1 871/7/1 872/8/1
f 873/9/1 874/10/1 875/11/1 876/12/1
f 877/13/1 878/14/1 879/15/1 880/16/1
f 881/1/1 882/2/1 883/3/1 884/4/1
f 885/5/1 886/6/1 887/7/1 888/8/1
f 889/9/1 890/10/1 891/11/1 892/12/1
f 893/13/1 894/14/1 895/15/1 896/16/1
f 897/1/1 898/2/1 899/3/1 900/4/1
f 901/5/1 902/6/1 903/7/1 904/8/1
f 905/9/1 906/10/1 907/11/1 908/12/1
f 909/13/1 910/14/1 911/15/1 912/16/1
f 913/17/1 914/18/1 915/19/1 916/20/1
f 917/21/1 918/22/1 919/23/1 920/24/1
f 921/25/1 922/26/1 923/27/1 924/28/1
f 925/29/1 926/30/1 927/31/1 928/32/1
f 929/1/1 930/2/1 931/3/1 932/4/1
f 933/5/1 934/6/1 935/7/1 936/8/1
f 937/9/1 938/10/1 939/11/1 940/12/1
f 941/13/1 942/14/1 943/15/1 944/16/1
f 945/17/1 946/18/1 947/19/1 948/20/1
f 949/21/1 950/22/1 951/23/1 952/24/1
f 953/25/1 954/26/1 955/27/1 956/28/1
f 957/29/1 958/30/1 959/31/1 960/32/1
f 961/1/1 962/2/1 963/3/1 964/4/1
f 965/5/1 966/6/1 967/7/1 968/8/1
f 969/9/1 970/10/1 971/11/1 972/12/1
f 973/13/1 974/14/1 975/15/1 976/16/1
f 977/1/1 978/2/1 979/3/1 980/4/1
f 981/5/1 982/6/1 983/7/1 984/8/1
f 985/9/1 986/10/1 987/11/1 988/12/1
f 989/13/1 990/14/1 991/15/1 992/16/1
f 993/1/1 994/2/1 995/3/1 996/4/1
f 997/5/1 998/6/1 999/7/1 1000/8/1
f 1001/9/1 1002/10/1 1003/11/1 1004/12/1
f 1005/13/1 1006/14/1 1007/15/1 1008/16/1
f 1009/1/1 1010/2/1 1011/3/1 1012/4/1
f 1013/5/1 1014/6/1 1015/7/1 1016/8/1
f 1017/9/1 1018/10/1 1019/11/1 1020/12/1
f 1021/13/1 1022/14/1 1023/15/1 1024/16/1
f 1025/1/1 1026/2/1 1027/3/1 1028/4/1
f 1029/5/1 1030/6/1 1031/7/1 1032/8/1
f 1033/9/1 1034/10/1 1035/11/1 1036/12/1
f 1037/13/1 1038/14/1 1039/15/1 1040/16/1
f 1041/1/1 1042/2/1 1043/3/1 1044/4/1
f 1045/5/1 1046/6/1 1047/7/1 1048/8/1
f 1049/9/1 1050/10/1 1051/11/1 1052/12/1
f 1053/13/1 1054/14/1 1055/15/1 1056/16/1
f 1057/17/1 1058/18/1 1059/19/1 1060/20/1
f 1061/21/1 1062/22/1 1063/23/1 1064/24/1
f 1065/25/1 1066/26/1 1067/27/1 1068/28/1
f 1069/29/1 1070/30/1 1071/31/1 1072/32/1

