# Tiled2Unity generated file. Do not modify by hand.
# Wavefront file for 'TaasSaJolibee_mesh_0010.obj'

# Vertices (Count = 280)
v -86 -1 0
v -87 -1 0
v -87 0 0
v -86 0 0
v -85 -1 0
v -86 -1 0
v -86 0 0
v -85 0 0
v -84 -1 0
v -85 -1 0
v -85 0 0
v -84 0 0
v -15 -4 0
v -16 -4 0
v -16 -3 0
v -15 -3 0
v -14 -4 0
v -15 -4 0
v -15 -3 0
v -14 -3 0
v -13 -4 0
v -14 -4 0
v -14 -3 0
v -13 -3 0
v -41 -14 0
v -42 -14 0
v -42 -13 0
v -41 -13 0
v -40 -14 0
v -41 -14 0
v -41 -13 0
v -40 -13 0
v -39 -14 0
v -40 -14 0
v -40 -13 0
v -39 -13 0
v -38 -14 0
v -39 -14 0
v -39 -13 0
v -38 -13 0
v -37 -14 0
v -38 -14 0
v -38 -13 0
v -37 -13 0
v -36 -14 0
v -37 -14 0
v -37 -13 0
v -36 -13 0
v -35 -14 0
v -36 -14 0
v -36 -13 0
v -35 -13 0
v -34 -14 0
v -35 -14 0
v -35 -13 0
v -34 -13 0
v -93 -15 0
v -94 -15 0
v -94 -14 0
v -93 -14 0
v -92 -15 0
v -93 -15 0
v -93 -14 0
v -92 -14 0
v -91 -15 0
v -92 -15 0
v -92 -14 0
v -91 -14 0
v -90 -15 0
v -91 -15 0
v -91 -14 0
v -90 -14 0
v -89 -15 0
v -90 -15 0
v -90 -14 0
v -89 -14 0
v -65 -16 0
v -66 -16 0
v -66 -15 0
v -65 -15 0
v -64 -16 0
v -65 -16 0
v -65 -15 0
v -64 -15 0
v -63 -16 0
v -64 -16 0
v -64 -15 0
v -63 -15 0
v -66 -31 0
v -67 -31 0
v -67 -30 0
v -66 -30 0
v -65 -31 0
v -66 -31 0
v -66 -30 0
v -65 -30 0
v -64 -31 0
v -65 -31 0
v -65 -30 0
v -64 -30 0
v -63 -31 0
v -64 -31 0
v -64 -30 0
v -63 -30 0
v -62 -31 0
v -63 -31 0
v -63 -30 0
v -62 -30 0
v -54 -42 0
v -55 -42 0
v -55 -41 0
v -54 -41 0
v -53 -42 0
v -54 -42 0
v -54 -41 0
v -53 -41 0
v -52 -42 0
v -53 -42 0
v -53 -41 0
v -52 -41 0
v -104 -44 0
v -105 -44 0
v -105 -43 0
v -104 -43 0
v -103 -44 0
v -104 -44 0
v -104 -43 0
v -103 -43 0
v -102 -44 0
v -103 -44 0
v -103 -43 0
v -102 -43 0
v -101 -44 0
v -102 -44 0
v -102 -43 0
v -101 -43 0
v -100 -44 0
v -101 -44 0
v -101 -43 0
v -100 -43 0
v -99 -44 0
v -100 -44 0
v -100 -43 0
v -99 -43 0
v -98 -44 0
v -99 -44 0
v -99 -43 0
v -98 -43 0
v -97 -44 0
v -98 -44 0
v -98 -43 0
v -97 -43 0
v -27 -47 0
v -28 -47 0
v -28 -46 0
v -27 -46 0
v -26 -47 0
v -27 -47 0
v -27 -46 0
v -26 -46 0
v -25 -47 0
v -26 -47 0
v -26 -46 0
v -25 -46 0
v -24 -47 0
v -25 -47 0
v -25 -46 0
v -24 -46 0
v -23 -47 0
v -24 -47 0
v -24 -46 0
v -23 -46 0
v -22 -47 0
v -23 -47 0
v -23 -46 0
v -22 -46 0
v -75 -49 0
v -76 -49 0
v -76 -48 0
v -75 -48 0
v -74 -49 0
v -75 -49 0
v -75 -48 0
v -74 -48 0
v -73 -49 0
v -74 -49 0
v -74 -48 0
v -73 -48 0
v -72 -49 0
v -73 -49 0
v -73 -48 0
v -72 -48 0
v -71 -49 0
v -72 -49 0
v -72 -48 0
v -71 -48 0
v -70 -49 0
v -71 -49 0
v -71 -48 0
v -70 -48 0
v -72 -69 0
v -73 -69 0
v -73 -68 0
v -72 -68 0
v -71 -69 0
v -72 -69 0
v -72 -68 0
v -71 -68 0
v -70 -69 0
v -71 -69 0
v -71 -68 0
v -70 -68 0
v -69 -69 0
v -70 -69 0
v -70 -68 0
v -69 -68 0
v -68 -69 0
v -69 -69 0
v -69 -68 0
v -68 -68 0
v -67 -69 0
v -68 -69 0
v -68 -68 0
v -67 -68 0
v -66 -69 0
v -67 -69 0
v -67 -68 0
v -66 -68 0
v -65 -69 0
v -66 -69 0
v -66 -68 0
v -65 -68 0
v -101 -71 0
v -102 -71 0
v -102 -70 0
v -101 -70 0
v -100 -71 0
v -101 -71 0
v -101 -70 0
v -100 -70 0
v -99 -71 0
v -100 -71 0
v -100 -70 0
v -99 -70 0
v -98 -71 0
v -99 -71 0
v -99 -70 0
v -98 -70 0
v -97 -71 0
v -98 -71 0
v -98 -70 0
v -97 -70 0
v -96 -71 0
v -97 -71 0
v -97 -70 0
v -96 -70 0
v -40 -72 0
v -41 -72 0
v -41 -71 0
v -40 -71 0
v -39 -72 0
v -40 -72 0
v -40 -71 0
v -39 -71 0
v -38 -72 0
v -39 -72 0
v -39 -71 0
v -38 -71 0
v -37 -72 0
v -38 -72 0
v -38 -71 0
v -37 -71 0
v -36 -72 0
v -37 -72 0
v -37 -71 0
v -36 -71 0
v -35 -72 0
v -36 -72 0
v -36 -71 0
v -35 -71 0

# Texture cooridinates (Count = 112)
vt 0.3579496 0.9738063
vt 0.3747448 0.9738063
vt 0.3747448 0.9998779
vt 0.3579496 0.9998779
vt 0.3409101 0.9738063
vt 0.3577054 0.9738063
vt 0.3577054 0.9998779
vt 0.3409101 0.9998779
vt 0.3238707 0.9738063
vt 0.340666 0.9738063
vt 0.340666 0.9998779
vt 0.3238707 0.9998779
vt 0.6987376 0.5264379
vt 0.7155329 0.5264379
vt 0.7155329 0.5525095
vt 0.6987376 0.5525095
vt 0.6816982 0.5264379
vt 0.6984935 0.5264379
vt 0.6984935 0.5525095
vt 0.6816982 0.5525095
vt 0.6646588 0.5264379
vt 0.6814541 0.5264379
vt 0.6814541 0.5525095
vt 0.6646588 0.5525095
vt 0.6476194 0.5264379
vt 0.6644146 0.5264379
vt 0.6644146 0.5525095
vt 0.6476194 0.5525095
vt 0.63058 0.5264379
vt 0.6473753 0.5264379
vt 0.6473753 0.5525095
vt 0.63058 0.5525095
vt 0.6135406 0.5264379
vt 0.6303359 0.5264379
vt 0.6303359 0.5525095
vt 0.6135406 0.5525095
vt 0.5965012 0.5264379
vt 0.6132964 0.5264379
vt 0.6132964 0.5525095
vt 0.5965012 0.5525095
vt 0.5794618 0.5264379
vt 0.596257 0.5264379
vt 0.596257 0.5525095
vt 0.5794618 0.5525095
vt 0.2557131 0.26328
vt 0.2725084 0.26328
vt 0.2725084 0.2893516
vt 0.2557131 0.2893516
vt 0.2386737 0.26328
vt 0.255469 0.26328
vt 0.255469 0.2893516
vt 0.2386737 0.2893516
vt 0.2216343 0.26328
vt 0.2384296 0.26328
vt 0.2384296 0.2893516
vt 0.2216343 0.2893516
vt 0.2045949 0.26328
vt 0.2213902 0.26328
vt 0.2213902 0.2893516
vt 0.2045949 0.2893516
vt 0.1875555 0.26328
vt 0.2043508 0.26328
vt 0.2043508 0.2893516
vt 0.1875555 0.2893516
vt 0.4942648 0.131701
vt 0.5110601 0.131701
vt 0.5110601 0.1577727
vt 0.4942648 0.1577727
vt 0.4772254 0.131701
vt 0.4940206 0.131701
vt 0.4940206 0.1577727
vt 0.4772254 0.1577727
vt 0.460186 0.131701
vt 0.4769812 0.131701
vt 0.4769812 0.1577727
vt 0.460186 0.1577727
vt 0.4431466 0.131701
vt 0.4599418 0.131701
vt 0.4599418 0.1577727
vt 0.4431466 0.1577727
vt 0.4261072 0.131701
vt 0.4429024 0.131701
vt 0.4429024 0.1577727
vt 0.4261072 0.1577727
vt 0.4090677 0.131701
vt 0.425863 0.131701
vt 0.425863 0.1577727
vt 0.4090677 0.1577727
vt 0.5965012 0.3159115
vt 0.6132964 0.3159115
vt 0.6132964 0.3419832
vt 0.5965012 0.3419832
vt 0.5794618 0.3159115
vt 0.596257 0.3159115
vt 0.596257 0.3419832
vt 0.5794618 0.3419832
vt 0.5624224 0.3159115
vt 0.5792177 0.3159115
vt 0.5792177 0.3419832
vt 0.5624224 0.3419832
vt 0.545383 0.3159115
vt 0.5621783 0.3159115
vt 0.5621783 0.3419832
vt 0.545383 0.3419832
vt 0.5283436 0.3159115
vt 0.5451388 0.3159115
vt 0.5451388 0.3419832
vt 0.5283436 0.3419832
vt 0.5113042 0.3159115
vt 0.5280994 0.3159115
vt 0.5280994 0.3419832
vt 0.5113042 0.3419832

# Normal
vn 0 0 -1

# Mesh description
g TaasSaJolibee_mesh_0010

# Faces
f 1/1/1 2/2/1 3/3/1 4/4/1
f 5/5/1 6/6/1 7/7/1 8/8/1
f 9/9/1 10/10/1 11/11/1 12/12/1
f 13/1/1 14/2/1 15/3/1 16/4/1
f 17/5/1 18/6/1 19/7/1 20/8/1
f 21/9/1 22/10/1 23/11/1 24/12/1
f 25/13/1 26/14/1 27/15/1 28/16/1
f 29/17/1 30/18/1 31/19/1 32/20/1
f 33/21/1 34/22/1 35/23/1 36/24/1
f 37/25/1 38/26/1 39/27/1 40/28/1
f 41/29/1 42/30/1 43/31/1 44/32/1
f 45/33/1 46/34/1 47/35/1 48/36/1
f 49/37/1 50/38/1 51/39/1 52/40/1
f 53/41/1 54/42/1 55/43/1 56/44/1
f 57/45/1 58/46/1 59/47/1 60/48/1
f 61/49/1 62/50/1 63/51/1 64/52/1
f 65/53/1 66/54/1 67/55/1 68/56/1
f 69/57/1 70/58/1 71/59/1 72/60/1
f 73/61/1 74/62/1 75/63/1 76/64/1
f 77/1/1 78/2/1 79/3/1 80/4/1
f 81/5/1 82/6/1 83/7/1 84/8/1
f 85/9/1 86/10/1 87/11/1 88/12/1
f 89/45/1 90/46/1 91/47/1 92/48/1
f 93/49/1 94/50/1 95/51/1 96/52/1
f 97/53/1 98/54/1 99/55/1 100/56/1
f 101/57/1 102/58/1 103/59/1 104/60/1
f 105/61/1 106/62/1 107/63/1 108/64/1
f 109/1/1 110/2/1 111/3/1 112/4/1
f 113/5/1 114/6/1 115/7/1 116/8/1
f 117/9/1 118/10/1 119/11/1 120/12/1
f 121/13/1 122/14/1 123/15/1 124/16/1
f 125/17/1 126/18/1 127/19/1 128/20/1
f 129/21/1 130/22/1 131/23/1 132/24/1
f 133/25/1 134/26/1 135/27/1 136/28/1
f 137/29/1 138/30/1 139/31/1 140/32/1
f 141/33/1 142/34/1 143/35/1 144/36/1
f 145/37/1 146/38/1 147/39/1 148/40/1
f 149/41/1 150/42/1 151/43/1 152/44/1
f 153/65/1 154/66/1 155/67/1 156/68/1
f 157/69/1 158/70/1 159/71/1 160/72/1
f 161/73/1 162/74/1 163/75/1 164/76/1
f 165/77/1 166/78/1 167/79/1 168/80/1
f 169/81/1 170/82/1 171/83/1 172/84/1
f 173/85/1 174/86/1 175/87/1 176/88/1
f 177/89/1 178/90/1 179/91/1 180/92/1
f 181/93/1 182/94/1 183/95/1 184/96/1
f 185/97/1 186/98/1 187/99/1 188/100/1
f 189/101/1 190/102/1 191/103/1 192/104/1
f 193/105/1 194/106/1 195/107/1 196/108/1
f 197/109/1 198/110/1 199/111/1 200/112/1
f 201/13/1 202/14/1 203/15/1 204/16/1
f 205/17/1 206/18/1 207/19/1 208/20/1
f 209/21/1 210/22/1 211/23/1 212/24/1
f 213/25/1 214/26/1 215/27/1 216/28/1
f 217/29/1 218/30/1 219/31/1 220/32/1
f 221/33/1 222/34/1 223/35/1 224/36/1
f 225/37/1 226/38/1 227/39/1 228/40/1
f 229/41/1 230/42/1 231/43/1 232/44/1
f 233/65/1 234/66/1 235/67/1 236/68/1
f 237/69/1 238/70/1 239/71/1 240/72/1
f 241/73/1 242/74/1 243/75/1 244/76/1
f 245/77/1 246/78/1 247/79/1 248/80/1
f 249/81/1 250/82/1 251/83/1 252/84/1
f 253/85/1 254/86/1 255/87/1 256/88/1
f 257/89/1 258/90/1 259/91/1 260/92/1
f 261/93/1 262/94/1 263/95/1 264/96/1
f 265/97/1 266/98/1 267/99/1 268/100/1
f 269/101/1 270/102/1 271/103/1 272/104/1
f 273/105/1 274/106/1 275/107/1 276/108/1
f 277/109/1 278/110/1 279/111/1 280/112/1

