# Tiled2Unity generated file. Do not modify by hand.
# Wavefront file for 'TaasSaJolibee_mesh_0005.obj'

# Vertices (Count = 120)
v -83 -60 0
v -84 -60 0
v -84 -59 0
v -83 -59 0
v -85 -61 0
v -86 -61 0
v -86 -60 0
v -85 -60 0
v -84 -61 0
v -85 -61 0
v -85 -60 0
v -84 -60 0
v -83 -61 0
v -84 -61 0
v -84 -60 0
v -83 -60 0
v -102 -62 0
v -103 -62 0
v -103 -61 0
v -102 -61 0
v -104 -63 0
v -105 -63 0
v -105 -62 0
v -104 -62 0
v -103 -63 0
v -104 -63 0
v -104 -62 0
v -103 -62 0
v -102 -63 0
v -103 -63 0
v -103 -62 0
v -102 -62 0
v -66 -79 0
v -67 -79 0
v -67 -78 0
v -66 -78 0
v -65 -79 0
v -66 -79 0
v -66 -78 0
v -65 -78 0
v -69 -80 0
v -70 -80 0
v -70 -79 0
v -69 -79 0
v -68 -80 0
v -69 -80 0
v -69 -79 0
v -68 -79 0
v -67 -80 0
v -68 -80 0
v -68 -79 0
v -67 -79 0
v -66 -80 0
v -67 -80 0
v -67 -79 0
v -66 -79 0
v -65 -80 0
v -66 -80 0
v -66 -79 0
v -65 -79 0
v -58 -80 0
v -59 -80 0
v -59 -79 0
v -58 -79 0
v -57 -80 0
v -58 -80 0
v -58 -79 0
v -57 -79 0
v -56 -80 0
v -57 -80 0
v -57 -79 0
v -56 -79 0
v -55 -80 0
v -56 -80 0
v -56 -79 0
v -55 -79 0
v -54 -80 0
v -55 -80 0
v -55 -79 0
v -54 -79 0
v -52 -80 0
v -53 -80 0
v -53 -79 0
v -52 -79 0
v -66 -81 0
v -67 -81 0
v -67 -80 0
v -66 -80 0
v -65 -81 0
v -66 -81 0
v -66 -80 0
v -65 -80 0
v -59 -81 0
v -60 -81 0
v -60 -80 0
v -59 -80 0
v -58 -81 0
v -59 -81 0
v -59 -80 0
v -58 -80 0
v -57 -81 0
v -58 -81 0
v -58 -80 0
v -57 -80 0
v -52 -81 0
v -53 -81 0
v -53 -80 0
v -52 -80 0
v -66 -82 0
v -67 -82 0
v -67 -81 0
v -66 -81 0
v -65 -82 0
v -66 -82 0
v -66 -81 0
v -65 -81 0
v -59 -82 0
v -60 -82 0
v -60 -81 0
v -59 -81 0

# Texture cooridinates (Count = 88)
vt 0.5410843 0.139011
vt 0.5616465 0.139011
vt 0.5616465 0.1665446
vt 0.5410843 0.1665446
vt 0.5202781 0.139011
vt 0.5408402 0.139011
vt 0.5408402 0.1665446
vt 0.5202781 0.1665446
vt 0.4994719 0.139011
vt 0.520034 0.139011
vt 0.520034 0.1665446
vt 0.4994719 0.1665446
vt 0.4994719 0.1667888
vt 0.520034 0.1667888
vt 0.520034 0.1943223
vt 0.4994719 0.1943223
vt 0.7075343 0.2223443
vt 0.7280964 0.2223443
vt 0.7280964 0.2498779
vt 0.7075343 0.2498779
vt 0.7491468 0.2223443
vt 0.7697089 0.2223443
vt 0.7697089 0.2498779
vt 0.7491468 0.2498779
vt 0.6867281 0.2223443
vt 0.7072902 0.2223443
vt 0.7072902 0.2498779
vt 0.6867281 0.2498779
vt 0.6451156 0.1667888
vt 0.6656777 0.1667888
vt 0.6656777 0.1943223
vt 0.6451156 0.1943223
vt 0.4578594 0.4167888
vt 0.4784215 0.4167888
vt 0.4784215 0.4443223
vt 0.4578594 0.4443223
vt 0.4370531 0.4167888
vt 0.4576153 0.4167888
vt 0.4576153 0.4443223
vt 0.4370531 0.4443223
vt 0.4578594 0.389011
vt 0.4784215 0.389011
vt 0.4784215 0.4165446
vt 0.4578594 0.4165446
vt 0.4370531 0.389011
vt 0.4576153 0.389011
vt 0.4576153 0.4165446
vt 0.4370531 0.4165446
vt 0.6035031 0.4167888
vt 0.6240652 0.4167888
vt 0.6240652 0.4443223
vt 0.6035031 0.4443223
vt 0.5826969 0.4167888
vt 0.603259 0.4167888
vt 0.603259 0.4443223
vt 0.5826969 0.4443223
vt 0.5410843 0.1667888
vt 0.5616465 0.1667888
vt 0.5616465 0.1943223
vt 0.5410843 0.1943223
vt 0.5202781 0.1667888
vt 0.5408402 0.1667888
vt 0.5408402 0.1943223
vt 0.5202781 0.1943223
vt 0.5618906 0.4167888
vt 0.5824527 0.4167888
vt 0.5824527 0.4443223
vt 0.5618906 0.4443223
vt 0.5410843 0.4167888
vt 0.5616465 0.4167888
vt 0.5616465 0.4443223
vt 0.5410843 0.4443223
vt 0.6035031 0.389011
vt 0.6240652 0.389011
vt 0.6240652 0.4165446
vt 0.6035031 0.4165446
vt 0.5826969 0.389011
vt 0.603259 0.389011
vt 0.603259 0.4165446
vt 0.5826969 0.4165446
vt 0.5618906 0.389011
vt 0.5824527 0.389011
vt 0.5824527 0.4165446
vt 0.5618906 0.4165446
vt 0.5410843 0.389011
vt 0.5616465 0.389011
vt 0.5616465 0.4165446
vt 0.5410843 0.4165446

# Normal
vn 0 0 -1

# Mesh description
g TaasSaJolibee_mesh_0005

# Faces
f 1/1/1 2/2/1 3/3/1 4/4/1
f 5/5/1 6/6/1 7/7/1 8/8/1
f 9/9/1 10/10/1 11/11/1 12/12/1
f 13/13/1 14/14/1 15/15/1 16/16/1
f 17/17/1 18/18/1 19/19/1 20/20/1
f 21/21/1 22/22/1 23/23/1 24/24/1
f 25/25/1 26/26/1 27/27/1 28/28/1
f 29/29/1 30/30/1 31/31/1 32/32/1
f 33/33/1 34/34/1 35/35/1 36/36/1
f 37/37/1 38/38/1 39/39/1 40/40/1
f 41/1/1 42/2/1 43/3/1 44/4/1
f 45/5/1 46/6/1 47/7/1 48/8/1
f 49/9/1 50/10/1 51/11/1 52/12/1
f 53/41/1 54/42/1 55/43/1 56/44/1
f 57/45/1 58/46/1 59/47/1 60/48/1
f 61/49/1 62/50/1 63/51/1 64/52/1
f 65/53/1 66/54/1 67/55/1 68/56/1
f 69/57/1 70/58/1 71/59/1 72/60/1
f 73/61/1 74/62/1 75/63/1 76/64/1
f 77/13/1 78/14/1 79/15/1 80/16/1
f 81/53/1 82/54/1 83/55/1 84/56/1
f 85/65/1 86/66/1 87/67/1 88/68/1
f 89/69/1 90/70/1 91/71/1 92/72/1
f 93/69/1 94/70/1 95/71/1 96/72/1
f 97/73/1 98/74/1 99/75/1 100/76/1
f 101/77/1 102/78/1 103/79/1 104/80/1
f 105/77/1 106/78/1 107/79/1 108/80/1
f 109/81/1 110/82/1 111/83/1 112/84/1
f 113/85/1 114/86/1 115/87/1 116/88/1
f 117/85/1 118/86/1 119/87/1 120/88/1

