# Tiled2Unity generated file. Do not modify by hand.
# Wavefront file for 'LeftMontilla3_mesh_0004.obj'

# Vertices (Count = 252)
v -13 -8 0
v -14 -8 0
v -14 -7 0
v -13 -7 0
v -12 -8 0
v -13 -8 0
v -13 -7 0
v -12 -7 0
v -11 -8 0
v -12 -8 0
v -12 -7 0
v -11 -7 0
v -10 -8 0
v -11 -8 0
v -11 -7 0
v -10 -7 0
v -9 -8 0
v -10 -8 0
v -10 -7 0
v -9 -7 0
v -8 -8 0
v -9 -8 0
v -9 -7 0
v -8 -7 0
v -7 -8 0
v -8 -8 0
v -8 -7 0
v -7 -7 0
v -13 -9 0
v -14 -9 0
v -14 -8 0
v -13 -8 0
v -12 -9 0
v -13 -9 0
v -13 -8 0
v -12 -8 0
v -11 -9 0
v -12 -9 0
v -12 -8 0
v -11 -8 0
v -10 -9 0
v -11 -9 0
v -11 -8 0
v -10 -8 0
v -9 -9 0
v -10 -9 0
v -10 -8 0
v -9 -8 0
v -8 -9 0
v -9 -9 0
v -9 -8 0
v -8 -8 0
v -7 -9 0
v -8 -9 0
v -8 -8 0
v -7 -8 0
v -13 -10 0
v -14 -10 0
v -14 -9 0
v -13 -9 0
v -12 -10 0
v -13 -10 0
v -13 -9 0
v -12 -9 0
v -11 -10 0
v -12 -10 0
v -12 -9 0
v -11 -9 0
v -10 -10 0
v -11 -10 0
v -11 -9 0
v -10 -9 0
v -9 -10 0
v -10 -10 0
v -10 -9 0
v -9 -9 0
v -8 -10 0
v -9 -10 0
v -9 -9 0
v -8 -9 0
v -7 -10 0
v -8 -10 0
v -8 -9 0
v -7 -9 0
v -35 -18 0
v -36 -18 0
v -36 -17 0
v -35 -17 0
v -34 -18 0
v -35 -18 0
v -35 -17 0
v -34 -17 0
v -33 -18 0
v -34 -18 0
v -34 -17 0
v -33 -17 0
v -32 -18 0
v -33 -18 0
v -33 -17 0
v -32 -17 0
v -31 -18 0
v -32 -18 0
v -32 -17 0
v -31 -17 0
v -30 -18 0
v -31 -18 0
v -31 -17 0
v -30 -17 0
v -29 -18 0
v -30 -18 0
v -30 -17 0
v -29 -17 0
v -35 -19 0
v -36 -19 0
v -36 -18 0
v -35 -18 0
v -34 -19 0
v -35 -19 0
v -35 -18 0
v -34 -18 0
v -33 -19 0
v -34 -19 0
v -34 -18 0
v -33 -18 0
v -32 -19 0
v -33 -19 0
v -33 -18 0
v -32 -18 0
v -31 -19 0
v -32 -19 0
v -32 -18 0
v -31 -18 0
v -30 -19 0
v -31 -19 0
v -31 -18 0
v -30 -18 0
v -29 -19 0
v -30 -19 0
v -30 -18 0
v -29 -18 0
v -35 -20 0
v -36 -20 0
v -36 -19 0
v -35 -19 0
v -34 -20 0
v -35 -20 0
v -35 -19 0
v -34 -19 0
v -33 -20 0
v -34 -20 0
v -34 -19 0
v -33 -19 0
v -32 -20 0
v -33 -20 0
v -33 -19 0
v -32 -19 0
v -31 -20 0
v -32 -20 0
v -32 -19 0
v -31 -19 0
v -30 -20 0
v -31 -20 0
v -31 -19 0
v -30 -19 0
v -29 -20 0
v -30 -20 0
v -30 -19 0
v -29 -19 0
v -8 -35 0
v -9 -35 0
v -9 -34 0
v -8 -34 0
v -7 -35 0
v -8 -35 0
v -8 -34 0
v -7 -34 0
v -6 -35 0
v -7 -35 0
v -7 -34 0
v -6 -34 0
v -5 -35 0
v -6 -35 0
v -6 -34 0
v -5 -34 0
v -4 -35 0
v -5 -35 0
v -5 -34 0
v -4 -34 0
v -3 -35 0
v -4 -35 0
v -4 -34 0
v -3 -34 0
v -2 -35 0
v -3 -35 0
v -3 -34 0
v -2 -34 0
v -8 -36 0
v -9 -36 0
v -9 -35 0
v -8 -35 0
v -7 -36 0
v -8 -36 0
v -8 -35 0
v -7 -35 0
v -6 -36 0
v -7 -36 0
v -7 -35 0
v -6 -35 0
v -5 -36 0
v -6 -36 0
v -6 -35 0
v -5 -35 0
v -4 -36 0
v -5 -36 0
v -5 -35 0
v -4 -35 0
v -3 -36 0
v -4 -36 0
v -4 -35 0
v -3 -35 0
v -2 -36 0
v -3 -36 0
v -3 -35 0
v -2 -35 0
v -8 -37 0
v -9 -37 0
v -9 -36 0
v -8 -36 0
v -7 -37 0
v -8 -37 0
v -8 -36 0
v -7 -36 0
v -6 -37 0
v -7 -37 0
v -7 -36 0
v -6 -36 0
v -5 -37 0
v -6 -37 0
v -6 -36 0
v -5 -36 0
v -4 -37 0
v -5 -37 0
v -5 -36 0
v -4 -36 0
v -3 -37 0
v -4 -37 0
v -4 -36 0
v -3 -36 0
v -2 -37 0
v -3 -37 0
v -3 -36 0
v -2 -36 0

# Texture cooridinates (Count = 168)
vt 0.3966738 0.3422273
vt 0.413671 0.3422273
vt 0.413671 0.368299
vt 0.3966738 0.368299
vt 0.3794324 0.3422273
vt 0.3964297 0.3422273
vt 0.3964297 0.368299
vt 0.3794324 0.368299
vt 0.362191 0.3422273
vt 0.3791883 0.3422273
vt 0.3791883 0.368299
vt 0.362191 0.368299
vt 0.3449497 0.3422273
vt 0.3619469 0.3422273
vt 0.3619469 0.368299
vt 0.3449497 0.368299
vt 0.3277083 0.3422273
vt 0.3447055 0.3422273
vt 0.3447055 0.368299
vt 0.3277083 0.368299
vt 0.3104669 0.3422273
vt 0.3274641 0.3422273
vt 0.3274641 0.368299
vt 0.3104669 0.368299
vt 0.2932255 0.3422273
vt 0.3102227 0.3422273
vt 0.3102227 0.368299
vt 0.2932255 0.368299
vt 0.3966738 0.3159115
vt 0.413671 0.3159115
vt 0.413671 0.3419832
vt 0.3966738 0.3419832
vt 0.3794324 0.3159115
vt 0.3964297 0.3159115
vt 0.3964297 0.3419832
vt 0.3794324 0.3419832
vt 0.362191 0.3159115
vt 0.3791883 0.3159115
vt 0.3791883 0.3419832
vt 0.362191 0.3419832
vt 0.3449497 0.3159115
vt 0.3619469 0.3159115
vt 0.3619469 0.3419832
vt 0.3449497 0.3419832
vt 0.3277083 0.3159115
vt 0.3447055 0.3159115
vt 0.3447055 0.3419832
vt 0.3277083 0.3419832
vt 0.3104669 0.3159115
vt 0.3274641 0.3159115
vt 0.3274641 0.3419832
vt 0.3104669 0.3419832
vt 0.2932255 0.3159115
vt 0.3102227 0.3159115
vt 0.3102227 0.3419832
vt 0.2932255 0.3419832
vt 0.3966738 0.2895958
vt 0.413671 0.2895958
vt 0.413671 0.3156674
vt 0.3966738 0.3156674
vt 0.3794324 0.2895958
vt 0.3964297 0.2895958
vt 0.3964297 0.3156674
vt 0.3794324 0.3156674
vt 0.362191 0.2895958
vt 0.3791883 0.2895958
vt 0.3791883 0.3156674
vt 0.362191 0.3156674
vt 0.3449497 0.2895958
vt 0.3619469 0.2895958
vt 0.3619469 0.3156674
vt 0.3449497 0.3156674
vt 0.3277083 0.2895958
vt 0.3447055 0.2895958
vt 0.3447055 0.3156674
vt 0.3277083 0.3156674
vt 0.3104669 0.2895958
vt 0.3274641 0.2895958
vt 0.3274641 0.3156674
vt 0.3104669 0.3156674
vt 0.2932255 0.2895958
vt 0.3102227 0.2895958
vt 0.3102227 0.3156674
vt 0.2932255 0.3156674
vt 0.2759841 0.2106484
vt 0.2929814 0.2106484
vt 0.2929814 0.23672
vt 0.2759841 0.23672
vt 0.2587427 0.2106484
vt 0.27574 0.2106484
vt 0.27574 0.23672
vt 0.2587427 0.23672
vt 0.2415014 0.2106484
vt 0.2584986 0.2106484
vt 0.2584986 0.23672
vt 0.2415014 0.23672
vt 0.22426 0.2106484
vt 0.2412572 0.2106484
vt 0.2412572 0.23672
vt 0.22426 0.23672
vt 0.2070186 0.2106484
vt 0.2240159 0.2106484
vt 0.2240159 0.23672
vt 0.2070186 0.23672
vt 0.1897772 0.2106484
vt 0.2067745 0.2106484
vt 0.2067745 0.23672
vt 0.1897772 0.23672
vt 0.1725359 0.2106484
vt 0.1895331 0.2106484
vt 0.1895331 0.23672
vt 0.1725359 0.23672
vt 0.2759841 0.1843326
vt 0.2929814 0.1843326
vt 0.2929814 0.2104042
vt 0.2759841 0.2104042
vt 0.2587427 0.1843326
vt 0.27574 0.1843326
vt 0.27574 0.2104042
vt 0.2587427 0.2104042
vt 0.2415014 0.1843326
vt 0.2584986 0.1843326
vt 0.2584986 0.2104042
vt 0.2415014 0.2104042
vt 0.22426 0.1843326
vt 0.2412572 0.1843326
vt 0.2412572 0.2104042
vt 0.22426 0.2104042
vt 0.2070186 0.1843326
vt 0.2240159 0.1843326
vt 0.2240159 0.2104042
vt 0.2070186 0.2104042
vt 0.1897772 0.1843326
vt 0.2067745 0.1843326
vt 0.2067745 0.2104042
vt 0.1897772 0.2104042
vt 0.1725359 0.1843326
vt 0.1895331 0.1843326
vt 0.1895331 0.2104042
vt 0.1725359 0.2104042
vt 0.2759841 0.1580168
vt 0.2929814 0.1580168
vt 0.2929814 0.1840885
vt 0.2759841 0.1840885
vt 0.2587427 0.1580168
vt 0.27574 0.1580168
vt 0.27574 0.1840885
vt 0.2587427 0.1840885
vt 0.2415014 0.1580168
vt 0.2584986 0.1580168
vt 0.2584986 0.1840885
vt 0.2415014 0.1840885
vt 0.22426 0.1580168
vt 0.2412572 0.1580168
vt 0.2412572 0.1840885
vt 0.22426 0.1840885
vt 0.2070186 0.1580168
vt 0.2240159 0.1580168
vt 0.2240159 0.1840885
vt 0.2070186 0.1840885
vt 0.1897772 0.1580168
vt 0.2067745 0.1580168
vt 0.2067745 0.1840885
vt 0.1897772 0.1840885
vt 0.1725359 0.1580168
vt 0.1895331 0.1580168
vt 0.1895331 0.1840885
vt 0.1725359 0.1840885

# Normal
vn 0 0 -1

# Mesh description
g LeftMontilla3_mesh_0004

# Faces
f 1/1/1 2/2/1 3/3/1 4/4/1
f 5/5/1 6/6/1 7/7/1 8/8/1
f 9/9/1 10/10/1 11/11/1 12/12/1
f 13/13/1 14/14/1 15/15/1 16/16/1
f 17/17/1 18/18/1 19/19/1 20/20/1
f 21/21/1 22/22/1 23/23/1 24/24/1
f 25/25/1 26/26/1 27/27/1 28/28/1
f 29/29/1 30/30/1 31/31/1 32/32/1
f 33/33/1 34/34/1 35/35/1 36/36/1
f 37/37/1 38/38/1 39/39/1 40/40/1
f 41/41/1 42/42/1 43/43/1 44/44/1
f 45/45/1 46/46/1 47/47/1 48/48/1
f 49/49/1 50/50/1 51/51/1 52/52/1
f 53/53/1 54/54/1 55/55/1 56/56/1
f 57/57/1 58/58/1 59/59/1 60/60/1
f 61/61/1 62/62/1 63/63/1 64/64/1
f 65/65/1 66/66/1 67/67/1 68/68/1
f 69/69/1 70/70/1 71/71/1 72/72/1
f 73/73/1 74/74/1 75/75/1 76/76/1
f 77/77/1 78/78/1 79/79/1 80/80/1
f 81/81/1 82/82/1 83/83/1 84/84/1
f 85/85/1 86/86/1 87/87/1 88/88/1
f 89/89/1 90/90/1 91/91/1 92/92/1
f 93/93/1 94/94/1 95/95/1 96/96/1
f 97/97/1 98/98/1 99/99/1 100/100/1
f 101/101/1 102/102/1 103/103/1 104/104/1
f 105/105/1 106/106/1 107/107/1 108/108/1
f 109/109/1 110/110/1 111/111/1 112/112/1
f 113/113/1 114/114/1 115/115/1 116/116/1
f 117/117/1 118/118/1 119/119/1 120/120/1
f 121/121/1 122/122/1 123/123/1 124/124/1
f 125/125/1 126/126/1 127/127/1 128/128/1
f 129/129/1 130/130/1 131/131/1 132/132/1
f 133/133/1 134/134/1 135/135/1 136/136/1
f 137/137/1 138/138/1 139/139/1 140/140/1
f 141/141/1 142/142/1 143/143/1 144/144/1
f 145/145/1 146/146/1 147/147/1 148/148/1
f 149/149/1 150/150/1 151/151/1 152/152/1
f 153/153/1 154/154/1 155/155/1 156/156/1
f 157/157/1 158/158/1 159/159/1 160/160/1
f 161/161/1 162/162/1 163/163/1 164/164/1
f 165/165/1 166/166/1 167/167/1 168/168/1
f 169/1/1 170/2/1 171/3/1 172/4/1
f 173/5/1 174/6/1 175/7/1 176/8/1
f 177/9/1 178/10/1 179/11/1 180/12/1
f 181/13/1 182/14/1 183/15/1 184/16/1
f 185/17/1 186/18/1 187/19/1 188/20/1
f 189/21/1 190/22/1 191/23/1 192/24/1
f 193/25/1 194/26/1 195/27/1 196/28/1
f 197/29/1 198/30/1 199/31/1 200/32/1
f 201/33/1 202/34/1 203/35/1 204/36/1
f 205/37/1 206/38/1 207/39/1 208/40/1
f 209/41/1 210/42/1 211/43/1 212/44/1
f 213/45/1 214/46/1 215/47/1 216/48/1
f 217/49/1 218/50/1 219/51/1 220/52/1
f 221/53/1 222/54/1 223/55/1 224/56/1
f 225/57/1 226/58/1 227/59/1 228/60/1
f 229/61/1 230/62/1 231/63/1 232/64/1
f 233/65/1 234/66/1 235/67/1 236/68/1
f 237/69/1 238/70/1 239/71/1 240/72/1
f 241/73/1 242/74/1 243/75/1 244/76/1
f 245/77/1 246/78/1 247/79/1 248/80/1
f 249/81/1 250/82/1 251/83/1 252/84/1

