# Tiled2Unity generated file. Do not modify by hand.
# Wavefront file for 'LeftMontilla3_mesh_0006.obj'

# Vertices (Count = 168)
v -13 -6 0
v -14 -6 0
v -14 -5 0
v -13 -5 0
v -12 -6 0
v -13 -6 0
v -13 -5 0
v -12 -5 0
v -11 -6 0
v -12 -6 0
v -12 -5 0
v -11 -5 0
v -10 -6 0
v -11 -6 0
v -11 -5 0
v -10 -5 0
v -9 -6 0
v -10 -6 0
v -10 -5 0
v -9 -5 0
v -8 -6 0
v -9 -6 0
v -9 -5 0
v -8 -5 0
v -7 -6 0
v -8 -6 0
v -8 -5 0
v -7 -5 0
v -13 -7 0
v -14 -7 0
v -14 -6 0
v -13 -6 0
v -12 -7 0
v -13 -7 0
v -13 -6 0
v -12 -6 0
v -11 -7 0
v -12 -7 0
v -12 -6 0
v -11 -6 0
v -10 -7 0
v -11 -7 0
v -11 -6 0
v -10 -6 0
v -9 -7 0
v -10 -7 0
v -10 -6 0
v -9 -6 0
v -8 -7 0
v -9 -7 0
v -9 -6 0
v -8 -6 0
v -7 -7 0
v -8 -7 0
v -8 -6 0
v -7 -6 0
v -35 -16 0
v -36 -16 0
v -36 -15 0
v -35 -15 0
v -34 -16 0
v -35 -16 0
v -35 -15 0
v -34 -15 0
v -33 -16 0
v -34 -16 0
v -34 -15 0
v -33 -15 0
v -32 -16 0
v -33 -16 0
v -33 -15 0
v -32 -15 0
v -31 -16 0
v -32 -16 0
v -32 -15 0
v -31 -15 0
v -30 -16 0
v -31 -16 0
v -31 -15 0
v -30 -15 0
v -29 -16 0
v -30 -16 0
v -30 -15 0
v -29 -15 0
v -35 -17 0
v -36 -17 0
v -36 -16 0
v -35 -16 0
v -34 -17 0
v -35 -17 0
v -35 -16 0
v -34 -16 0
v -33 -17 0
v -34 -17 0
v -34 -16 0
v -33 -16 0
v -32 -17 0
v -33 -17 0
v -33 -16 0
v -32 -16 0
v -31 -17 0
v -32 -17 0
v -32 -16 0
v -31 -16 0
v -30 -17 0
v -31 -17 0
v -31 -16 0
v -30 -16 0
v -29 -17 0
v -30 -17 0
v -30 -16 0
v -29 -16 0
v -8 -33 0
v -9 -33 0
v -9 -32 0
v -8 -32 0
v -7 -33 0
v -8 -33 0
v -8 -32 0
v -7 -32 0
v -6 -33 0
v -7 -33 0
v -7 -32 0
v -6 -32 0
v -5 -33 0
v -6 -33 0
v -6 -32 0
v -5 -32 0
v -4 -33 0
v -5 -33 0
v -5 -32 0
v -4 -32 0
v -3 -33 0
v -4 -33 0
v -4 -32 0
v -3 -32 0
v -2 -33 0
v -3 -33 0
v -3 -32 0
v -2 -32 0
v -8 -34 0
v -9 -34 0
v -9 -33 0
v -8 -33 0
v -7 -34 0
v -8 -34 0
v -8 -33 0
v -7 -33 0
v -6 -34 0
v -7 -34 0
v -7 -33 0
v -6 -33 0
v -5 -34 0
v -6 -34 0
v -6 -33 0
v -5 -33 0
v -4 -34 0
v -5 -34 0
v -5 -33 0
v -4 -33 0
v -3 -34 0
v -4 -34 0
v -4 -33 0
v -3 -33 0
v -2 -34 0
v -3 -34 0
v -3 -33 0
v -2 -33 0

# Texture cooridinates (Count = 112)
vt 0.3966738 0.3948589
vt 0.413671 0.3948589
vt 0.413671 0.4209306
vt 0.3966738 0.4209306
vt 0.3794324 0.3948589
vt 0.3964297 0.3948589
vt 0.3964297 0.4209306
vt 0.3794324 0.4209306
vt 0.362191 0.3948589
vt 0.3791883 0.3948589
vt 0.3791883 0.4209306
vt 0.362191 0.4209306
vt 0.3449497 0.3948589
vt 0.3619469 0.3948589
vt 0.3619469 0.4209306
vt 0.3449497 0.4209306
vt 0.3277083 0.3948589
vt 0.3447055 0.3948589
vt 0.3447055 0.4209306
vt 0.3277083 0.4209306
vt 0.3104669 0.3948589
vt 0.3274641 0.3948589
vt 0.3274641 0.4209306
vt 0.3104669 0.4209306
vt 0.2932255 0.3948589
vt 0.3102227 0.3948589
vt 0.3102227 0.4209306
vt 0.2932255 0.4209306
vt 0.3966738 0.3685431
vt 0.413671 0.3685431
vt 0.413671 0.3946148
vt 0.3966738 0.3946148
vt 0.3794324 0.3685431
vt 0.3964297 0.3685431
vt 0.3964297 0.3946148
vt 0.3794324 0.3946148
vt 0.362191 0.3685431
vt 0.3791883 0.3685431
vt 0.3791883 0.3946148
vt 0.362191 0.3946148
vt 0.3449497 0.3685431
vt 0.3619469 0.3685431
vt 0.3619469 0.3946148
vt 0.3449497 0.3946148
vt 0.3277083 0.3685431
vt 0.3447055 0.3685431
vt 0.3447055 0.3946148
vt 0.3277083 0.3946148
vt 0.3104669 0.3685431
vt 0.3274641 0.3685431
vt 0.3274641 0.3946148
vt 0.3104669 0.3946148
vt 0.2932255 0.3685431
vt 0.3102227 0.3685431
vt 0.3102227 0.3946148
vt 0.2932255 0.3946148
vt 0.2759841 0.26328
vt 0.2929814 0.26328
vt 0.2929814 0.2893516
vt 0.2759841 0.2893516
vt 0.2587427 0.26328
vt 0.27574 0.26328
vt 0.27574 0.2893516
vt 0.2587427 0.2893516
vt 0.2415014 0.26328
vt 0.2584986 0.26328
vt 0.2584986 0.2893516
vt 0.2415014 0.2893516
vt 0.22426 0.26328
vt 0.2412572 0.26328
vt 0.2412572 0.2893516
vt 0.22426 0.2893516
vt 0.2070186 0.26328
vt 0.2240159 0.26328
vt 0.2240159 0.2893516
vt 0.2070186 0.2893516
vt 0.1897772 0.26328
vt 0.2067745 0.26328
vt 0.2067745 0.2893516
vt 0.1897772 0.2893516
vt 0.1725359 0.26328
vt 0.1895331 0.26328
vt 0.1895331 0.2893516
vt 0.1725359 0.2893516
vt 0.2759841 0.2369642
vt 0.2929814 0.2369642
vt 0.2929814 0.2630358
vt 0.2759841 0.2630358
vt 0.2587427 0.2369642
vt 0.27574 0.2369642
vt 0.27574 0.2630358
vt 0.2587427 0.2630358
vt 0.2415014 0.2369642
vt 0.2584986 0.2369642
vt 0.2584986 0.2630358
vt 0.2415014 0.2630358
vt 0.22426 0.2369642
vt 0.2412572 0.2369642
vt 0.2412572 0.2630358
vt 0.22426 0.2630358
vt 0.2070186 0.2369642
vt 0.2240159 0.2369642
vt 0.2240159 0.2630358
vt 0.2070186 0.2630358
vt 0.1897772 0.2369642
vt 0.2067745 0.2369642
vt 0.2067745 0.2630358
vt 0.1897772 0.2630358
vt 0.1725359 0.2369642
vt 0.1895331 0.2369642
vt 0.1895331 0.2630358
vt 0.1725359 0.2630358

# Normal
vn 0 0 -1

# Mesh description
g LeftMontilla3_mesh_0006

# Faces
f 1/1/1 2/2/1 3/3/1 4/4/1
f 5/5/1 6/6/1 7/7/1 8/8/1
f 9/9/1 10/10/1 11/11/1 12/12/1
f 13/13/1 14/14/1 15/15/1 16/16/1
f 17/17/1 18/18/1 19/19/1 20/20/1
f 21/21/1 22/22/1 23/23/1 24/24/1
f 25/25/1 26/26/1 27/27/1 28/28/1
f 29/29/1 30/30/1 31/31/1 32/32/1
f 33/33/1 34/34/1 35/35/1 36/36/1
f 37/37/1 38/38/1 39/39/1 40/40/1
f 41/41/1 42/42/1 43/43/1 44/44/1
f 45/45/1 46/46/1 47/47/1 48/48/1
f 49/49/1 50/50/1 51/51/1 52/52/1
f 53/53/1 54/54/1 55/55/1 56/56/1
f 57/57/1 58/58/1 59/59/1 60/60/1
f 61/61/1 62/62/1 63/63/1 64/64/1
f 65/65/1 66/66/1 67/67/1 68/68/1
f 69/69/1 70/70/1 71/71/1 72/72/1
f 73/73/1 74/74/1 75/75/1 76/76/1
f 77/77/1 78/78/1 79/79/1 80/80/1
f 81/81/1 82/82/1 83/83/1 84/84/1
f 85/85/1 86/86/1 87/87/1 88/88/1
f 89/89/1 90/90/1 91/91/1 92/92/1
f 93/93/1 94/94/1 95/95/1 96/96/1
f 97/97/1 98/98/1 99/99/1 100/100/1
f 101/101/1 102/102/1 103/103/1 104/104/1
f 105/105/1 106/106/1 107/107/1 108/108/1
f 109/109/1 110/110/1 111/111/1 112/112/1
f 113/1/1 114/2/1 115/3/1 116/4/1
f 117/5/1 118/6/1 119/7/1 120/8/1
f 121/9/1 122/10/1 123/11/1 124/12/1
f 125/13/1 126/14/1 127/15/1 128/16/1
f 129/17/1 130/18/1 131/19/1 132/20/1
f 133/21/1 134/22/1 135/23/1 136/24/1
f 137/25/1 138/26/1 139/27/1 140/28/1
f 141/29/1 142/30/1 143/31/1 144/32/1
f 145/33/1 146/34/1 147/35/1 148/36/1
f 149/37/1 150/38/1 151/39/1 152/40/1
f 153/41/1 154/42/1 155/43/1 156/44/1
f 157/45/1 158/46/1 159/47/1 160/48/1
f 161/49/1 162/50/1 163/51/1 164/52/1
f 165/53/1 166/54/1 167/55/1 168/56/1

