# Tiled2Unity generated file. Do not modify by hand.
# Wavefront file for 'LeftMontilla3_mesh_0002.obj'

# Vertices (Count = 880)
v -34 -1 0
v -35 -1 0
v -35 0 0
v -34 0 0
v -33 -1 0
v -34 -1 0
v -34 0 0
v -33 0 0
v -34 -2 0
v -35 -2 0
v -35 -1 0
v -34 -1 0
v -33 -2 0
v -34 -2 0
v -34 -1 0
v -33 -1 0
v -8 -2 0
v -9 -2 0
v -9 -1 0
v -8 -1 0
v -25 -3 0
v -26 -3 0
v -26 -2 0
v -25 -2 0
v -46 -4 0
v -47 -4 0
v -47 -3 0
v -46 -3 0
v -40 -7 0
v -41 -7 0
v -41 -6 0
v -40 -6 0
v -49 -9 0
v -50 -9 0
v -50 -8 0
v -49 -8 0
v -15 -9 0
v -16 -9 0
v -16 -8 0
v -15 -8 0
v -14 -9 0
v -15 -9 0
v -15 -8 0
v -14 -8 0
v -49 -10 0
v -50 -10 0
v -50 -9 0
v -49 -9 0
v -15 -10 0
v -16 -10 0
v -16 -9 0
v -15 -9 0
v -14 -10 0
v -15 -10 0
v -15 -9 0
v -14 -9 0
v -1 -10 0
v -2 -10 0
v -2 -9 0
v -1 -9 0
v 0 -10 0
v -1 -10 0
v -1 -9 0
v 0 -9 0
v -2 -11 0
v -3 -11 0
v -3 -10 0
v -2 -10 0
v -1 -11 0
v -2 -11 0
v -2 -10 0
v -1 -10 0
v 0 -11 0
v -1 -11 0
v -1 -10 0
v 0 -10 0
v -23 -12 0
v -24 -12 0
v -24 -11 0
v -23 -11 0
v -2 -12 0
v -3 -12 0
v -3 -11 0
v -2 -11 0
v -1 -12 0
v -2 -12 0
v -2 -11 0
v -1 -11 0
v -2 -13 0
v -3 -13 0
v -3 -12 0
v -2 -12 0
v -1 -13 0
v -2 -13 0
v -2 -12 0
v -1 -12 0
v -10 -14 0
v -11 -14 0
v -11 -13 0
v -10 -13 0
v -2 -14 0
v -3 -14 0
v -3 -13 0
v -2 -13 0
v -1 -14 0
v -2 -14 0
v -2 -13 0
v -1 -13 0
v -40 -15 0
v -41 -15 0
v -41 -14 0
v -40 -14 0
v -39 -15 0
v -40 -15 0
v -40 -14 0
v -39 -14 0
v -4 -15 0
v -5 -15 0
v -5 -14 0
v -4 -14 0
v -2 -15 0
v -3 -15 0
v -3 -14 0
v -2 -14 0
v -1 -15 0
v -2 -15 0
v -2 -14 0
v -1 -14 0
v -40 -16 0
v -41 -16 0
v -41 -15 0
v -40 -15 0
v -39 -16 0
v -40 -16 0
v -40 -15 0
v -39 -15 0
v -36 -16 0
v -37 -16 0
v -37 -15 0
v -36 -15 0
v -35 -16 0
v -36 -16 0
v -36 -15 0
v -35 -15 0
v -34 -16 0
v -35 -16 0
v -35 -15 0
v -34 -15 0
v -33 -16 0
v -34 -16 0
v -34 -15 0
v -33 -15 0
v -32 -16 0
v -33 -16 0
v -33 -15 0
v -32 -15 0
v -31 -16 0
v -32 -16 0
v -32 -15 0
v -31 -15 0
v -30 -16 0
v -31 -16 0
v -31 -15 0
v -30 -15 0
v -29 -16 0
v -30 -16 0
v -30 -15 0
v -29 -15 0
v -28 -16 0
v -29 -16 0
v -29 -15 0
v -28 -15 0
v -2 -16 0
v -3 -16 0
v -3 -15 0
v -2 -15 0
v -1 -16 0
v -2 -16 0
v -2 -15 0
v -1 -15 0
v -36 -17 0
v -37 -17 0
v -37 -16 0
v -36 -16 0
v -28 -17 0
v -29 -17 0
v -29 -16 0
v -28 -16 0
v -1 -17 0
v -2 -17 0
v -2 -16 0
v -1 -16 0
v -49 -18 0
v -50 -18 0
v -50 -17 0
v -49 -17 0
v -48 -18 0
v -49 -18 0
v -49 -17 0
v -48 -17 0
v -36 -18 0
v -37 -18 0
v -37 -17 0
v -36 -17 0
v -28 -18 0
v -29 -18 0
v -29 -17 0
v -28 -17 0
v -1 -18 0
v -2 -18 0
v -2 -17 0
v -1 -17 0
v 0 -18 0
v -1 -18 0
v -1 -17 0
v 0 -17 0
v -48 -19 0
v -49 -19 0
v -49 -18 0
v -48 -18 0
v -36 -19 0
v -37 -19 0
v -37 -18 0
v -36 -18 0
v -28 -19 0
v -29 -19 0
v -29 -18 0
v -28 -18 0
v 0 -19 0
v -1 -19 0
v -1 -18 0
v 0 -18 0
v -48 -20 0
v -49 -20 0
v -49 -19 0
v -48 -19 0
v -36 -20 0
v -37 -20 0
v -37 -19 0
v -36 -19 0
v -28 -20 0
v -29 -20 0
v -29 -19 0
v -28 -19 0
v 0 -20 0
v -1 -20 0
v -1 -19 0
v 0 -19 0
v -48 -21 0
v -49 -21 0
v -49 -20 0
v -48 -20 0
v -35 -21 0
v -36 -21 0
v -36 -20 0
v -35 -20 0
v -34 -21 0
v -35 -21 0
v -35 -20 0
v -34 -20 0
v -30 -21 0
v -31 -21 0
v -31 -20 0
v -30 -20 0
v -29 -21 0
v -30 -21 0
v -30 -20 0
v -29 -20 0
v -23 -21 0
v -24 -21 0
v -24 -20 0
v -23 -20 0
v -4 -21 0
v -5 -21 0
v -5 -20 0
v -4 -20 0
v -3 -21 0
v -4 -21 0
v -4 -20 0
v -3 -20 0
v -1 -21 0
v -2 -21 0
v -2 -20 0
v -1 -20 0
v 0 -21 0
v -1 -21 0
v -1 -20 0
v 0 -20 0
v -48 -22 0
v -49 -22 0
v -49 -21 0
v -48 -21 0
v -47 -22 0
v -48 -22 0
v -48 -21 0
v -47 -21 0
v -4 -22 0
v -5 -22 0
v -5 -21 0
v -4 -21 0
v -3 -22 0
v -4 -22 0
v -4 -21 0
v -3 -21 0
v -2 -22 0
v -3 -22 0
v -3 -21 0
v -2 -21 0
v -1 -22 0
v -2 -22 0
v -2 -21 0
v -1 -21 0
v 0 -22 0
v -1 -22 0
v -1 -21 0
v 0 -21 0
v -47 -23 0
v -48 -23 0
v -48 -22 0
v -47 -22 0
v -24 -23 0
v -25 -23 0
v -25 -22 0
v -24 -22 0
v -23 -23 0
v -24 -23 0
v -24 -22 0
v -23 -22 0
v -21 -23 0
v -22 -23 0
v -22 -22 0
v -21 -22 0
v -20 -23 0
v -21 -23 0
v -21 -22 0
v -20 -22 0
v -19 -23 0
v -20 -23 0
v -20 -22 0
v -19 -22 0
v -2 -23 0
v -3 -23 0
v -3 -22 0
v -2 -22 0
v -1 -23 0
v -2 -23 0
v -2 -22 0
v -1 -22 0
v -49 -24 0
v -50 -24 0
v -50 -23 0
v -49 -23 0
v -47 -24 0
v -48 -24 0
v -48 -23 0
v -47 -23 0
v -23 -24 0
v -24 -24 0
v -24 -23 0
v -23 -23 0
v -21 -24 0
v -22 -24 0
v -22 -23 0
v -21 -23 0
v -2 -24 0
v -3 -24 0
v -3 -23 0
v -2 -23 0
v -1 -24 0
v -2 -24 0
v -2 -23 0
v -1 -23 0
v 0 -24 0
v -1 -24 0
v -1 -23 0
v 0 -23 0
v -49 -25 0
v -50 -25 0
v -50 -24 0
v -49 -24 0
v -48 -25 0
v -49 -25 0
v -49 -24 0
v -48 -24 0
v -47 -25 0
v -48 -25 0
v -48 -24 0
v -47 -24 0
v -26 -25 0
v -27 -25 0
v -27 -24 0
v -26 -24 0
v -25 -25 0
v -26 -25 0
v -26 -24 0
v -25 -24 0
v -2 -25 0
v -3 -25 0
v -3 -24 0
v -2 -24 0
v -1 -25 0
v -2 -25 0
v -2 -24 0
v -1 -24 0
v 0 -25 0
v -1 -25 0
v -1 -24 0
v 0 -24 0
v -48 -26 0
v -49 -26 0
v -49 -25 0
v -48 -25 0
v -47 -26 0
v -48 -26 0
v -48 -25 0
v -47 -25 0
v -44 -26 0
v -45 -26 0
v -45 -25 0
v -44 -25 0
v -43 -26 0
v -44 -26 0
v -44 -25 0
v -43 -25 0
v -42 -26 0
v -43 -26 0
v -43 -25 0
v -42 -25 0
v -27 -26 0
v -28 -26 0
v -28 -25 0
v -27 -25 0
v -26 -26 0
v -27 -26 0
v -27 -25 0
v -26 -25 0
v -2 -26 0
v -3 -26 0
v -3 -25 0
v -2 -25 0
v -1 -26 0
v -2 -26 0
v -2 -25 0
v -1 -25 0
v 0 -26 0
v -1 -26 0
v -1 -25 0
v 0 -25 0
v -48 -27 0
v -49 -27 0
v -49 -26 0
v -48 -26 0
v -47 -27 0
v -48 -27 0
v -48 -26 0
v -47 -26 0
v -27 -27 0
v -28 -27 0
v -28 -26 0
v -27 -26 0
v -26 -27 0
v -27 -27 0
v -27 -26 0
v -26 -26 0
v -23 -27 0
v -24 -27 0
v -24 -26 0
v -23 -26 0
v -2 -27 0
v -3 -27 0
v -3 -26 0
v -2 -26 0
v -1 -27 0
v -2 -27 0
v -2 -26 0
v -1 -26 0
v 0 -27 0
v -1 -27 0
v -1 -26 0
v 0 -26 0
v -48 -28 0
v -49 -28 0
v -49 -27 0
v -48 -27 0
v -27 -28 0
v -28 -28 0
v -28 -27 0
v -27 -27 0
v -26 -28 0
v -27 -28 0
v -27 -27 0
v -26 -27 0
v -24 -28 0
v -25 -28 0
v -25 -27 0
v -24 -27 0
v -23 -28 0
v -24 -28 0
v -24 -27 0
v -23 -27 0
v -2 -28 0
v -3 -28 0
v -3 -27 0
v -2 -27 0
v -1 -28 0
v -2 -28 0
v -2 -27 0
v -1 -27 0
v 0 -28 0
v -1 -28 0
v -1 -27 0
v 0 -27 0
v -48 -29 0
v -49 -29 0
v -49 -28 0
v -48 -28 0
v -37 -29 0
v -38 -29 0
v -38 -28 0
v -37 -28 0
v -36 -29 0
v -37 -29 0
v -37 -28 0
v -36 -28 0
v -27 -29 0
v -28 -29 0
v -28 -28 0
v -27 -28 0
v -26 -29 0
v -27 -29 0
v -27 -28 0
v -26 -28 0
v -2 -29 0
v -3 -29 0
v -3 -28 0
v -2 -28 0
v 0 -29 0
v -1 -29 0
v -1 -28 0
v 0 -28 0
v -48 -30 0
v -49 -30 0
v -49 -29 0
v -48 -29 0
v -23 -30 0
v -24 -30 0
v -24 -29 0
v -23 -29 0
v -2 -30 0
v -3 -30 0
v -3 -29 0
v -2 -29 0
v -1 -30 0
v -2 -30 0
v -2 -29 0
v -1 -29 0
v -49 -31 0
v -50 -31 0
v -50 -30 0
v -49 -30 0
v -17 -32 0
v -18 -32 0
v -18 -31 0
v -17 -31 0
v 0 -32 0
v -1 -32 0
v -1 -31 0
v 0 -31 0
v -25 -34 0
v -26 -34 0
v -26 -33 0
v -25 -33 0
v -24 -34 0
v -25 -34 0
v -25 -33 0
v -24 -33 0
v -12 -34 0
v -13 -34 0
v -13 -33 0
v -12 -33 0
v -11 -34 0
v -12 -34 0
v -12 -33 0
v -11 -33 0
v -46 -35 0
v -47 -35 0
v -47 -34 0
v -46 -34 0
v -45 -35 0
v -46 -35 0
v -46 -34 0
v -45 -34 0
v -44 -35 0
v -45 -35 0
v -45 -34 0
v -44 -34 0
v -24 -35 0
v -25 -35 0
v -25 -34 0
v -24 -34 0
v -23 -35 0
v -24 -35 0
v -24 -34 0
v -23 -34 0
v -12 -35 0
v -13 -35 0
v -13 -34 0
v -12 -34 0
v -11 -35 0
v -12 -35 0
v -12 -34 0
v -11 -34 0
v -24 -36 0
v -25 -36 0
v -25 -35 0
v -24 -35 0
v -23 -36 0
v -24 -36 0
v -24 -35 0
v -23 -35 0
v -39 -37 0
v -40 -37 0
v -40 -36 0
v -39 -36 0
v -38 -37 0
v -39 -37 0
v -39 -36 0
v -38 -36 0
v -43 -38 0
v -44 -38 0
v -44 -37 0
v -43 -37 0
v -42 -38 0
v -43 -38 0
v -43 -37 0
v -42 -37 0
v -41 -38 0
v -42 -38 0
v -42 -37 0
v -41 -37 0
v -38 -38 0
v -39 -38 0
v -39 -37 0
v -38 -37 0
v -37 -38 0
v -38 -38 0
v -38 -37 0
v -37 -37 0
v -14 -38 0
v -15 -38 0
v -15 -37 0
v -14 -37 0
v -1 -38 0
v -2 -38 0
v -2 -37 0
v -1 -37 0
v 0 -38 0
v -1 -38 0
v -1 -37 0
v 0 -37 0
v -42 -39 0
v -43 -39 0
v -43 -38 0
v -42 -38 0
v -41 -39 0
v -42 -39 0
v -42 -38 0
v -41 -38 0
v -40 -39 0
v -41 -39 0
v -41 -38 0
v -40 -38 0
v -1 -39 0
v -2 -39 0
v -2 -38 0
v -1 -38 0
v 0 -39 0
v -1 -39 0
v -1 -38 0
v 0 -38 0
v -42 -40 0
v -43 -40 0
v -43 -39 0
v -42 -39 0
v -39 -40 0
v -40 -40 0
v -40 -39 0
v -39 -39 0
v -39 -42 0
v -40 -42 0
v -40 -41 0
v -39 -41 0
v -38 -42 0
v -39 -42 0
v -39 -41 0
v -38 -41 0
v -37 -42 0
v -38 -42 0
v -38 -41 0
v -37 -41 0
v -49 -43 0
v -50 -43 0
v -50 -42 0
v -49 -42 0
v -41 -43 0
v -42 -43 0
v -42 -42 0
v -41 -42 0
v -40 -43 0
v -41 -43 0
v -41 -42 0
v -40 -42 0
v -39 -43 0
v -40 -43 0
v -40 -42 0
v -39 -42 0
v -2 -43 0
v -3 -43 0
v -3 -42 0
v -2 -42 0
v -1 -43 0
v -2 -43 0
v -2 -42 0
v -1 -42 0
v 0 -43 0
v -1 -43 0
v -1 -42 0
v 0 -42 0
v -49 -44 0
v -50 -44 0
v -50 -43 0
v -49 -43 0
v -1 -44 0
v -2 -44 0
v -2 -43 0
v -1 -43 0
v -49 -45 0
v -50 -45 0
v -50 -44 0
v -49 -44 0
v -2 -45 0
v -3 -45 0
v -3 -44 0
v -2 -44 0
v -1 -45 0
v -2 -45 0
v -2 -44 0
v -1 -44 0
v -49 -46 0
v -50 -46 0
v -50 -45 0
v -49 -45 0
v -48 -46 0
v -49 -46 0
v -49 -45 0
v -48 -45 0
v -2 -46 0
v -3 -46 0
v -3 -45 0
v -2 -45 0
v -1 -46 0
v -2 -46 0
v -2 -45 0
v -1 -45 0
v -34 -47 0
v -35 -47 0
v -35 -46 0
v -34 -46 0
v -1 -47 0
v -2 -47 0
v -2 -46 0
v -1 -46 0
v -14 -48 0
v -15 -48 0
v -15 -47 0
v -14 -47 0
v -13 -48 0
v -14 -48 0
v -14 -47 0
v -13 -47 0
v -12 -48 0
v -13 -48 0
v -13 -47 0
v -12 -47 0
v -11 -48 0
v -12 -48 0
v -12 -47 0
v -11 -47 0
v -10 -48 0
v -11 -48 0
v -11 -47 0
v -10 -47 0
v -9 -48 0
v -10 -48 0
v -10 -47 0
v -9 -47 0
v -8 -48 0
v -9 -48 0
v -9 -47 0
v -8 -47 0
v -7 -48 0
v -8 -48 0
v -8 -47 0
v -7 -47 0
v -6 -48 0
v -7 -48 0
v -7 -47 0
v -6 -47 0
v -5 -48 0
v -6 -48 0
v -6 -47 0
v -5 -47 0
v -4 -48 0
v -5 -48 0
v -5 -47 0
v -4 -47 0
v -3 -48 0
v -4 -48 0
v -4 -47 0
v -3 -47 0
v -2 -48 0
v -3 -48 0
v -3 -47 0
v -2 -47 0
v -1 -48 0
v -2 -48 0
v -2 -47 0
v -1 -47 0
v -39 -49 0
v -40 -49 0
v -40 -48 0
v -39 -48 0
v -14 -49 0
v -15 -49 0
v -15 -48 0
v -14 -48 0
v -12 -49 0
v -13 -49 0
v -13 -48 0
v -12 -48 0
v -11 -49 0
v -12 -49 0
v -12 -48 0
v -11 -48 0
v -10 -49 0
v -11 -49 0
v -11 -48 0
v -10 -48 0
v -9 -49 0
v -10 -49 0
v -10 -48 0
v -9 -48 0
v -8 -49 0
v -9 -49 0
v -9 -48 0
v -8 -48 0
v -7 -49 0
v -8 -49 0
v -8 -48 0
v -7 -48 0
v -6 -49 0
v -7 -49 0
v -7 -48 0
v -6 -48 0
v -5 -49 0
v -6 -49 0
v -6 -48 0
v -5 -48 0
v -1 -49 0
v -2 -49 0
v -2 -48 0
v -1 -48 0
v -13 -50 0
v -14 -50 0
v -14 -49 0
v -13 -49 0
v -5 -50 0
v -6 -50 0
v -6 -49 0
v -5 -49 0

# Texture cooridinates (Count = 96)
vt 0.2081845 0.6667887
vt 0.2287466 0.6667887
vt 0.2287466 0.6943223
vt 0.2081845 0.6943223
vt 0.1873782 0.6667887
vt 0.2079404 0.6667887
vt 0.2079404 0.6943223
vt 0.1873782 0.6943223
vt 0.2081845 0.639011
vt 0.2287466 0.639011
vt 0.2287466 0.6665446
vt 0.2081845 0.6665446
vt 0.1873782 0.639011
vt 0.2079404 0.639011
vt 0.2079404 0.6665446
vt 0.1873782 0.6665446
vt 0.02092831 0.9723443
vt 0.04149041 0.9723443
vt 0.04149041 0.9998779
vt 0.02092831 0.9998779
vt 0.04173455 0.5834554
vt 0.06229666 0.5834554
vt 0.06229666 0.610989
vt 0.04173455 0.610989
vt 0.1457658 0.9723443
vt 0.1663279 0.9723443
vt 0.1663279 0.9998779
vt 0.1457658 0.9998779
vt 0.0625408 0.6112332
vt 0.0831029 0.6112332
vt 0.0831029 0.6387668
vt 0.0625408 0.6387668
vt 0.04173455 0.6112332
vt 0.06229666 0.6112332
vt 0.06229666 0.6387668
vt 0.04173455 0.6387668
vt 0.02092831 0.6112332
vt 0.04149041 0.6112332
vt 0.04149041 0.6387668
vt 0.02092831 0.6387668
vt 0.0625408 0.5834554
vt 0.0831029 0.5834554
vt 0.0831029 0.610989
vt 0.0625408 0.610989
vt 0.02092831 0.5834554
vt 0.04149041 0.5834554
vt 0.04149041 0.610989
vt 0.02092831 0.610989
vt 0.0001220703 0.5556777
vt 0.02068417 0.5556777
vt 0.02068417 0.5832113
vt 0.0001220703 0.5832113
vt 0.0625408 0.6667887
vt 0.0831029 0.6667887
vt 0.0831029 0.6943223
vt 0.0625408 0.6943223
vt 0.0625408 0.639011
vt 0.0831029 0.639011
vt 0.0831029 0.6665446
vt 0.0625408 0.6665446
vt 0.04173455 0.639011
vt 0.06229666 0.639011
vt 0.06229666 0.6665446
vt 0.04173455 0.6665446
vt 0.02092831 0.7501221
vt 0.04149041 0.7501221
vt 0.04149041 0.7776557
vt 0.02092831 0.7776557
vt 0.1041533 0.8334554
vt 0.1247154 0.8334554
vt 0.1247154 0.860989
vt 0.1041533 0.860989
vt 0.08334704 0.8334554
vt 0.1039091 0.8334554
vt 0.1039091 0.860989
vt 0.08334704 0.860989
vt 0.0625408 0.8334554
vt 0.0831029 0.8334554
vt 0.0831029 0.860989
vt 0.0625408 0.860989
vt 0.1041533 0.9167888
vt 0.1247154 0.9167888
vt 0.1247154 0.9443223
vt 0.1041533 0.9443223
vt 0.08334704 0.9167888
vt 0.1039091 0.9167888
vt 0.1039091 0.9443223
vt 0.08334704 0.9443223
vt 0.0001220703 0.7501221
vt 0.02068417 0.7501221
vt 0.02068417 0.7776557
vt 0.0001220703 0.7776557
vt 0.2081845 0.9723443
vt 0.2287466 0.9723443
vt 0.2287466 0.9998779
vt 0.2081845 0.9998779

# Normal
vn 0 0 -1

# Mesh description
g LeftMontilla3_mesh_0002

# Faces
f 1/1/1 2/2/1 3/3/1 4/4/1
f 5/5/1 6/6/1 7/7/1 8/8/1
f 9/9/1 10/10/1 11/11/1 12/12/1
f 13/13/1 14/14/1 15/15/1 16/16/1
f 17/17/1 18/18/1 19/19/1 20/20/1
f 21/17/1 22/18/1 23/19/1 24/20/1
f 25/17/1 26/18/1 27/19/1 28/20/1
f 29/17/1 30/18/1 31/19/1 32/20/1
f 33/5/1 34/6/1 35/7/1 36/8/1
f 37/1/1 38/2/1 39/3/1 40/4/1
f 41/5/1 42/6/1 43/7/1 44/8/1
f 45/13/1 46/14/1 47/15/1 48/16/1
f 49/9/1 50/10/1 51/11/1 52/12/1
f 53/13/1 54/14/1 55/15/1 56/16/1
f 57/21/1 58/22/1 59/23/1 60/24/1
f 61/21/1 62/22/1 63/23/1 64/24/1
f 65/21/1 66/22/1 67/23/1 68/24/1
f 69/21/1 70/22/1 71/23/1 72/24/1
f 73/21/1 74/22/1 75/23/1 76/24/1
f 77/25/1 78/26/1 79/27/1 80/28/1
f 81/21/1 82/22/1 83/23/1 84/24/1
f 85/21/1 86/22/1 87/23/1 88/24/1
f 89/21/1 90/22/1 91/23/1 92/24/1
f 93/21/1 94/22/1 95/23/1 96/24/1
f 97/17/1 98/18/1 99/19/1 100/20/1
f 101/21/1 102/22/1 103/23/1 104/24/1
f 105/21/1 106/22/1 107/23/1 108/24/1
f 109/1/1 110/2/1 111/3/1 112/4/1
f 113/5/1 114/6/1 115/7/1 116/8/1
f 117/17/1 118/18/1 119/19/1 120/20/1
f 121/21/1 122/22/1 123/23/1 124/24/1
f 125/21/1 126/22/1 127/23/1 128/24/1
f 129/9/1 130/10/1 131/11/1 132/12/1
f 133/13/1 134/14/1 135/15/1 136/16/1
f 137/29/1 138/30/1 139/31/1 140/32/1
f 141/33/1 142/34/1 143/35/1 144/36/1
f 145/33/1 146/34/1 147/35/1 148/36/1
f 149/33/1 150/34/1 151/35/1 152/36/1
f 153/33/1 154/34/1 155/35/1 156/36/1
f 157/33/1 158/34/1 159/35/1 160/36/1
f 161/33/1 162/34/1 163/35/1 164/36/1
f 165/33/1 166/34/1 167/35/1 168/36/1
f 169/37/1 170/38/1 171/39/1 172/40/1
f 173/21/1 174/22/1 175/23/1 176/24/1
f 177/21/1 178/22/1 179/23/1 180/24/1
f 181/41/1 182/42/1 183/43/1 184/44/1
f 185/45/1 186/46/1 187/47/1 188/48/1
f 189/21/1 190/22/1 191/23/1 192/24/1
f 193/21/1 194/22/1 195/23/1 196/24/1
f 197/21/1 198/22/1 199/23/1 200/24/1
f 201/41/1 202/42/1 203/43/1 204/44/1
f 205/45/1 206/46/1 207/47/1 208/48/1
f 209/21/1 210/22/1 211/23/1 212/24/1
f 213/21/1 214/22/1 215/23/1 216/24/1
f 217/21/1 218/22/1 219/23/1 220/24/1
f 221/41/1 222/42/1 223/43/1 224/44/1
f 225/45/1 226/46/1 227/47/1 228/48/1
f 229/21/1 230/22/1 231/23/1 232/24/1
f 233/21/1 234/22/1 235/23/1 236/24/1
f 237/49/1 238/50/1 239/51/1 240/52/1
f 241/49/1 242/50/1 243/51/1 244/52/1
f 245/21/1 246/22/1 247/23/1 248/24/1
f 249/21/1 250/22/1 251/23/1 252/24/1
f 253/21/1 254/22/1 255/23/1 256/24/1
f 257/21/1 258/22/1 259/23/1 260/24/1
f 261/21/1 262/22/1 263/23/1 264/24/1
f 265/21/1 266/22/1 267/23/1 268/24/1
f 269/53/1 270/54/1 271/55/1 272/56/1
f 273/1/1 274/2/1 275/3/1 276/4/1
f 277/5/1 278/6/1 279/7/1 280/8/1
f 281/21/1 282/22/1 283/23/1 284/24/1
f 285/21/1 286/22/1 287/23/1 288/24/1
f 289/21/1 290/22/1 291/23/1 292/24/1
f 293/21/1 294/22/1 295/23/1 296/24/1
f 297/9/1 298/10/1 299/11/1 300/12/1
f 301/13/1 302/14/1 303/15/1 304/16/1
f 305/21/1 306/22/1 307/23/1 308/24/1
f 309/21/1 310/22/1 311/23/1 312/24/1
f 313/21/1 314/22/1 315/23/1 316/24/1
f 317/21/1 318/22/1 319/23/1 320/24/1
f 321/57/1 322/58/1 323/59/1 324/60/1
f 325/17/1 326/18/1 327/19/1 328/20/1
f 329/61/1 330/62/1 331/63/1 332/64/1
f 333/53/1 334/54/1 335/55/1 336/56/1
f 337/65/1 338/66/1 339/67/1 340/68/1
f 341/21/1 342/22/1 343/23/1 344/24/1
f 345/21/1 346/22/1 347/23/1 348/24/1
f 349/21/1 350/22/1 351/23/1 352/24/1
f 353/21/1 354/22/1 355/23/1 356/24/1
f 357/65/1 358/66/1 359/67/1 360/68/1
f 361/65/1 362/66/1 363/67/1 364/68/1
f 365/21/1 366/22/1 367/23/1 368/24/1
f 369/21/1 370/22/1 371/23/1 372/24/1
f 373/21/1 374/22/1 375/23/1 376/24/1
f 377/21/1 378/22/1 379/23/1 380/24/1
f 381/21/1 382/22/1 383/23/1 384/24/1
f 385/21/1 386/22/1 387/23/1 388/24/1
f 389/21/1 390/22/1 391/23/1 392/24/1
f 393/21/1 394/22/1 395/23/1 396/24/1
f 397/21/1 398/22/1 399/23/1 400/24/1
f 401/21/1 402/22/1 403/23/1 404/24/1
f 405/21/1 406/22/1 407/23/1 408/24/1
f 409/21/1 410/22/1 411/23/1 412/24/1
f 413/21/1 414/22/1 415/23/1 416/24/1
f 417/69/1 418/70/1 419/71/1 420/72/1
f 421/73/1 422/74/1 423/75/1 424/76/1
f 425/77/1 426/78/1 427/79/1 428/80/1
f 429/21/1 430/22/1 431/23/1 432/24/1
f 433/21/1 434/22/1 435/23/1 436/24/1
f 437/21/1 438/22/1 439/23/1 440/24/1
f 441/21/1 442/22/1 443/23/1 444/24/1
f 445/21/1 446/22/1 447/23/1 448/24/1
f 449/21/1 450/22/1 451/23/1 452/24/1
f 453/21/1 454/22/1 455/23/1 456/24/1
f 457/21/1 458/22/1 459/23/1 460/24/1
f 461/21/1 462/22/1 463/23/1 464/24/1
f 465/65/1 466/66/1 467/67/1 468/68/1
f 469/21/1 470/22/1 471/23/1 472/24/1
f 473/21/1 474/22/1 475/23/1 476/24/1
f 477/21/1 478/22/1 479/23/1 480/24/1
f 481/21/1 482/22/1 483/23/1 484/24/1
f 485/21/1 486/22/1 487/23/1 488/24/1
f 489/21/1 490/22/1 491/23/1 492/24/1
f 493/57/1 494/58/1 495/59/1 496/60/1
f 497/65/1 498/66/1 499/67/1 500/68/1
f 501/21/1 502/22/1 503/23/1 504/24/1
f 505/21/1 506/22/1 507/23/1 508/24/1
f 509/21/1 510/22/1 511/23/1 512/24/1
f 513/21/1 514/22/1 515/23/1 516/24/1
f 517/81/1 518/82/1 519/83/1 520/84/1
f 521/85/1 522/86/1 523/87/1 524/88/1
f 525/21/1 526/22/1 527/23/1 528/24/1
f 529/21/1 530/22/1 531/23/1 532/24/1
f 533/21/1 534/22/1 535/23/1 536/24/1
f 537/21/1 538/22/1 539/23/1 540/24/1
f 541/21/1 542/22/1 543/23/1 544/24/1
f 545/53/1 546/54/1 547/55/1 548/56/1
f 549/21/1 550/22/1 551/23/1 552/24/1
f 553/21/1 554/22/1 555/23/1 556/24/1
f 557/21/1 558/22/1 559/23/1 560/24/1
f 561/17/1 562/18/1 563/19/1 564/20/1
f 565/21/1 566/22/1 567/23/1 568/24/1
f 569/81/1 570/82/1 571/83/1 572/84/1
f 573/85/1 574/86/1 575/87/1 576/88/1
f 577/1/1 578/2/1 579/3/1 580/4/1
f 581/5/1 582/6/1 583/7/1 584/8/1
f 585/69/1 586/70/1 587/71/1 588/72/1
f 589/73/1 590/74/1 591/75/1 592/76/1
f 593/77/1 594/78/1 595/79/1 596/80/1
f 597/1/1 598/2/1 599/3/1 600/4/1
f 601/5/1 602/6/1 603/7/1 604/8/1
f 605/9/1 606/10/1 607/11/1 608/12/1
f 609/13/1 610/14/1 611/15/1 612/16/1
f 613/9/1 614/10/1 615/11/1 616/12/1
f 617/13/1 618/14/1 619/15/1 620/16/1
f 621/53/1 622/54/1 623/55/1 624/56/1
f 625/65/1 626/66/1 627/67/1 628/68/1
f 629/69/1 630/70/1 631/71/1 632/72/1
f 633/73/1 634/74/1 635/75/1 636/76/1
f 637/77/1 638/78/1 639/79/1 640/80/1
f 641/65/1 642/66/1 643/67/1 644/68/1
f 645/57/1 646/58/1 647/59/1 648/60/1
f 649/25/1 650/26/1 651/27/1 652/28/1
f 653/1/1 654/2/1 655/3/1 656/4/1
f 657/5/1 658/6/1 659/7/1 660/8/1
f 661/61/1 662/62/1 663/63/1 664/64/1
f 665/57/1 666/58/1 667/59/1 668/60/1
f 669/89/1 670/90/1 671/91/1 672/92/1
f 673/9/1 674/10/1 675/11/1 676/12/1
f 677/13/1 678/14/1 679/15/1 680/16/1
f 681/65/1 682/66/1 683/67/1 684/68/1
f 685/57/1 686/58/1 687/59/1 688/60/1
f 689/57/1 690/58/1 691/59/1 692/60/1
f 693/53/1 694/54/1 695/55/1 696/56/1
f 697/65/1 698/66/1 699/67/1 700/68/1
f 701/25/1 702/26/1 703/27/1 704/28/1
f 705/65/1 706/66/1 707/67/1 708/68/1
f 709/81/1 710/82/1 711/83/1 712/84/1
f 713/85/1 714/86/1 715/87/1 716/88/1
f 717/17/1 718/18/1 719/19/1 720/20/1
f 721/21/1 722/22/1 723/23/1 724/24/1
f 725/21/1 726/22/1 727/23/1 728/24/1
f 729/21/1 730/22/1 731/23/1 732/24/1
f 733/21/1 734/22/1 735/23/1 736/24/1
f 737/21/1 738/22/1 739/23/1 740/24/1
f 741/21/1 742/22/1 743/23/1 744/24/1
f 745/21/1 746/22/1 747/23/1 748/24/1
f 749/21/1 750/22/1 751/23/1 752/24/1
f 753/21/1 754/22/1 755/23/1 756/24/1
f 757/21/1 758/22/1 759/23/1 760/24/1
f 761/21/1 762/22/1 763/23/1 764/24/1
f 765/25/1 766/26/1 767/27/1 768/28/1
f 769/21/1 770/22/1 771/23/1 772/24/1
f 773/93/1 774/94/1 775/95/1 776/96/1
f 777/25/1 778/26/1 779/27/1 780/28/1
f 781/21/1 782/22/1 783/23/1 784/24/1
f 785/21/1 786/22/1 787/23/1 788/24/1
f 789/21/1 790/22/1 791/23/1 792/24/1
f 793/21/1 794/22/1 795/23/1 796/24/1
f 797/21/1 798/22/1 799/23/1 800/24/1
f 801/21/1 802/22/1 803/23/1 804/24/1
f 805/21/1 806/22/1 807/23/1 808/24/1
f 809/21/1 810/22/1 811/23/1 812/24/1
f 813/21/1 814/22/1 815/23/1 816/24/1
f 817/21/1 818/22/1 819/23/1 820/24/1
f 821/21/1 822/22/1 823/23/1 824/24/1
f 825/21/1 826/22/1 827/23/1 828/24/1
f 829/17/1 830/18/1 831/19/1 832/20/1
f 833/25/1 834/26/1 835/27/1 836/28/1
f 837/21/1 838/22/1 839/23/1 840/24/1
f 841/21/1 842/22/1 843/23/1 844/24/1
f 845/21/1 846/22/1 847/23/1 848/24/1
f 849/21/1 850/22/1 851/23/1 852/24/1
f 853/21/1 854/22/1 855/23/1 856/24/1
f 857/21/1 858/22/1 859/23/1 860/24/1
f 861/21/1 862/22/1 863/23/1 864/24/1
f 865/21/1 866/22/1 867/23/1 868/24/1
f 869/25/1 870/26/1 871/27/1 872/28/1
f 873/21/1 874/22/1 875/23/1 876/24/1
f 877/21/1 878/22/1 879/23/1 880/24/1

