# Tiled2Unity generated file. Do not modify by hand.
# Wavefront file for 'OngYiuRight_mesh_0005.obj'

# Vertices (Count = 548)
v -9 -3 0
v -10 -3 0
v -10 -2 0
v -9 -2 0
v -8 -3 0
v -9 -3 0
v -9 -2 0
v -8 -2 0
v -7 -3 0
v -8 -3 0
v -8 -2 0
v -7 -2 0
v -6 -3 0
v -7 -3 0
v -7 -2 0
v -6 -2 0
v -26 -4 0
v -27 -4 0
v -27 -3 0
v -26 -3 0
v -25 -4 0
v -26 -4 0
v -26 -3 0
v -25 -3 0
v -24 -4 0
v -25 -4 0
v -25 -3 0
v -24 -3 0
v -23 -4 0
v -24 -4 0
v -24 -3 0
v -23 -3 0
v -21 -4 0
v -22 -4 0
v -22 -3 0
v -21 -3 0
v -20 -4 0
v -21 -4 0
v -21 -3 0
v -20 -3 0
v -19 -4 0
v -20 -4 0
v -20 -3 0
v -19 -3 0
v -18 -4 0
v -19 -4 0
v -19 -3 0
v -18 -3 0
v -22 -5 0
v -23 -5 0
v -23 -4 0
v -22 -4 0
v -21 -5 0
v -22 -5 0
v -22 -4 0
v -21 -4 0
v -4 -5 0
v -5 -5 0
v -5 -4 0
v -4 -4 0
v -3 -5 0
v -4 -5 0
v -4 -4 0
v -3 -4 0
v -2 -5 0
v -3 -5 0
v -3 -4 0
v -2 -4 0
v -1 -5 0
v -2 -5 0
v -2 -4 0
v -1 -4 0
v -27 -6 0
v -28 -6 0
v -28 -5 0
v -27 -5 0
v -26 -6 0
v -27 -6 0
v -27 -5 0
v -26 -5 0
v -22 -6 0
v -23 -6 0
v -23 -5 0
v -22 -5 0
v -27 -7 0
v -28 -7 0
v -28 -6 0
v -27 -6 0
v -26 -7 0
v -27 -7 0
v -27 -6 0
v -26 -6 0
v -22 -7 0
v -23 -7 0
v -23 -6 0
v -22 -6 0
v -21 -7 0
v -22 -7 0
v -22 -6 0
v -21 -6 0
v -20 -7 0
v -21 -7 0
v -21 -6 0
v -20 -6 0
v -19 -7 0
v -20 -7 0
v -20 -6 0
v -19 -6 0
v -18 -7 0
v -19 -7 0
v -19 -6 0
v -18 -6 0
v -22 -8 0
v -23 -8 0
v -23 -7 0
v -22 -7 0
v -21 -8 0
v -22 -8 0
v -22 -7 0
v -21 -7 0
v -18 -8 0
v -19 -8 0
v -19 -7 0
v -18 -7 0
v -17 -8 0
v -18 -8 0
v -18 -7 0
v -17 -7 0
v -23 -9 0
v -24 -9 0
v -24 -8 0
v -23 -8 0
v -22 -9 0
v -23 -9 0
v -23 -8 0
v -22 -8 0
v -21 -9 0
v -22 -9 0
v -22 -8 0
v -21 -8 0
v -20 -9 0
v -21 -9 0
v -21 -8 0
v -20 -8 0
v -19 -9 0
v -20 -9 0
v -20 -8 0
v -19 -8 0
v -18 -9 0
v -19 -9 0
v -19 -8 0
v -18 -8 0
v -17 -9 0
v -18 -9 0
v -18 -8 0
v -17 -8 0
v -14 -9 0
v -15 -9 0
v -15 -8 0
v -14 -8 0
v -13 -9 0
v -14 -9 0
v -14 -8 0
v -13 -8 0
v -29 -10 0
v -30 -10 0
v -30 -9 0
v -29 -9 0
v -28 -10 0
v -29 -10 0
v -29 -9 0
v -28 -9 0
v -27 -10 0
v -28 -10 0
v -28 -9 0
v -27 -9 0
v -26 -10 0
v -27 -10 0
v -27 -9 0
v -26 -9 0
v -25 -10 0
v -26 -10 0
v -26 -9 0
v -25 -9 0
v -24 -10 0
v -25 -10 0
v -25 -9 0
v -24 -9 0
v -23 -10 0
v -24 -10 0
v -24 -9 0
v -23 -9 0
v -22 -10 0
v -23 -10 0
v -23 -9 0
v -22 -9 0
v -29 -11 0
v -30 -11 0
v -30 -10 0
v -29 -10 0
v -28 -11 0
v -29 -11 0
v -29 -10 0
v -28 -10 0
v -29 -12 0
v -30 -12 0
v -30 -11 0
v -29 -11 0
v -28 -12 0
v -29 -12 0
v -29 -11 0
v -28 -11 0
v -29 -13 0
v -30 -13 0
v -30 -12 0
v -29 -12 0
v -28 -13 0
v -29 -13 0
v -29 -12 0
v -28 -12 0
v -14 -28 0
v -15 -28 0
v -15 -27 0
v -14 -27 0
v -13 -28 0
v -14 -28 0
v -14 -27 0
v -13 -27 0
v -18 -30 0
v -19 -30 0
v -19 -29 0
v -18 -29 0
v -17 -30 0
v -18 -30 0
v -18 -29 0
v -17 -29 0
v -10 -30 0
v -11 -30 0
v -11 -29 0
v -10 -29 0
v -5 -30 0
v -6 -30 0
v -6 -29 0
v -5 -29 0
v -10 -31 0
v -11 -31 0
v -11 -30 0
v -10 -30 0
v -9 -31 0
v -10 -31 0
v -10 -30 0
v -9 -30 0
v -8 -31 0
v -9 -31 0
v -9 -30 0
v -8 -30 0
v -7 -31 0
v -8 -31 0
v -8 -30 0
v -7 -30 0
v -6 -31 0
v -7 -31 0
v -7 -30 0
v -6 -30 0
v -5 -31 0
v -6 -31 0
v -6 -30 0
v -5 -30 0
v -28 -32 0
v -29 -32 0
v -29 -31 0
v -28 -31 0
v -27 -32 0
v -28 -32 0
v -28 -31 0
v -27 -31 0
v -26 -32 0
v -27 -32 0
v -27 -31 0
v -26 -31 0
v -25 -32 0
v -26 -32 0
v -26 -31 0
v -25 -31 0
v -10 -32 0
v -11 -32 0
v -11 -31 0
v -10 -31 0
v -5 -32 0
v -6 -32 0
v -6 -31 0
v -5 -31 0
v -10 -33 0
v -11 -33 0
v -11 -32 0
v -10 -32 0
v -9 -33 0
v -10 -33 0
v -10 -32 0
v -9 -32 0
v -8 -33 0
v -9 -33 0
v -9 -32 0
v -8 -32 0
v -7 -33 0
v -8 -33 0
v -8 -32 0
v -7 -32 0
v -6 -33 0
v -7 -33 0
v -7 -32 0
v -6 -32 0
v -5 -33 0
v -6 -33 0
v -6 -32 0
v -5 -32 0
v -26 -43 0
v -27 -43 0
v -27 -42 0
v -26 -42 0
v -25 -43 0
v -26 -43 0
v -26 -42 0
v -25 -42 0
v -24 -43 0
v -25 -43 0
v -25 -42 0
v -24 -42 0
v -23 -43 0
v -24 -43 0
v -24 -42 0
v -23 -42 0
v -25 -46 0
v -26 -46 0
v -26 -45 0
v -25 -45 0
v -24 -46 0
v -25 -46 0
v -25 -45 0
v -24 -45 0
v -27 -47 0
v -28 -47 0
v -28 -46 0
v -27 -46 0
v -26 -47 0
v -27 -47 0
v -27 -46 0
v -26 -46 0
v -27 -48 0
v -28 -48 0
v -28 -47 0
v -27 -47 0
v -26 -48 0
v -27 -48 0
v -27 -47 0
v -26 -47 0
v -28 -50 0
v -29 -50 0
v -29 -49 0
v -28 -49 0
v -27 -50 0
v -28 -50 0
v -28 -49 0
v -27 -49 0
v -28 -51 0
v -29 -51 0
v -29 -50 0
v -28 -50 0
v -27 -51 0
v -28 -51 0
v -28 -50 0
v -27 -50 0
v -6 -51 0
v -7 -51 0
v -7 -50 0
v -6 -50 0
v -5 -51 0
v -6 -51 0
v -6 -50 0
v -5 -50 0
v -8 -52 0
v -9 -52 0
v -9 -51 0
v -8 -51 0
v -7 -52 0
v -8 -52 0
v -8 -51 0
v -7 -51 0
v -23 -53 0
v -24 -53 0
v -24 -52 0
v -23 -52 0
v -22 -53 0
v -23 -53 0
v -23 -52 0
v -22 -52 0
v -20 -53 0
v -21 -53 0
v -21 -52 0
v -20 -52 0
v -19 -53 0
v -20 -53 0
v -20 -52 0
v -19 -52 0
v -4 -53 0
v -5 -53 0
v -5 -52 0
v -4 -52 0
v -3 -53 0
v -4 -53 0
v -4 -52 0
v -3 -52 0
v -28 -54 0
v -29 -54 0
v -29 -53 0
v -28 -53 0
v -27 -54 0
v -28 -54 0
v -28 -53 0
v -27 -53 0
v -26 -54 0
v -27 -54 0
v -27 -53 0
v -26 -53 0
v -25 -54 0
v -26 -54 0
v -26 -53 0
v -25 -53 0
v -11 -55 0
v -12 -55 0
v -12 -54 0
v -11 -54 0
v -10 -55 0
v -11 -55 0
v -11 -54 0
v -10 -54 0
v -9 -55 0
v -10 -55 0
v -10 -54 0
v -9 -54 0
v -8 -55 0
v -9 -55 0
v -9 -54 0
v -8 -54 0
v -7 -55 0
v -8 -55 0
v -8 -54 0
v -7 -54 0
v -6 -55 0
v -7 -55 0
v -7 -54 0
v -6 -54 0
v -24 -56 0
v -25 -56 0
v -25 -55 0
v -24 -55 0
v -23 -56 0
v -24 -56 0
v -24 -55 0
v -23 -55 0
v -22 -56 0
v -23 -56 0
v -23 -55 0
v -22 -55 0
v -21 -56 0
v -22 -56 0
v -22 -55 0
v -21 -55 0
v -20 -56 0
v -21 -56 0
v -21 -55 0
v -20 -55 0
v -19 -56 0
v -20 -56 0
v -20 -55 0
v -19 -55 0
v -14 -57 0
v -15 -57 0
v -15 -56 0
v -14 -56 0
v -13 -57 0
v -14 -57 0
v -14 -56 0
v -13 -56 0
v -10 -57 0
v -11 -57 0
v -11 -56 0
v -10 -56 0
v -9 -57 0
v -10 -57 0
v -10 -56 0
v -9 -56 0
v -6 -57 0
v -7 -57 0
v -7 -56 0
v -6 -56 0
v -5 -57 0
v -6 -57 0
v -6 -56 0
v -5 -56 0
v -4 -57 0
v -5 -57 0
v -5 -56 0
v -4 -56 0
v -3 -57 0
v -4 -57 0
v -4 -56 0
v -3 -56 0
v -2 -57 0
v -3 -57 0
v -3 -56 0
v -2 -56 0
v -1 -57 0
v -2 -57 0
v -2 -56 0
v -1 -56 0
v -27 -58 0
v -28 -58 0
v -28 -57 0
v -27 -57 0
v -26 -58 0
v -27 -58 0
v -27 -57 0
v -26 -57 0
v -25 -58 0
v -26 -58 0
v -26 -57 0
v -25 -57 0
v -24 -58 0
v -25 -58 0
v -25 -57 0
v -24 -57 0
v -27 -59 0
v -28 -59 0
v -28 -58 0
v -27 -58 0
v -26 -59 0
v -27 -59 0
v -27 -58 0
v -26 -58 0
v -25 -59 0
v -26 -59 0
v -26 -58 0
v -25 -58 0
v -24 -59 0
v -25 -59 0
v -25 -58 0
v -24 -58 0

# Texture cooridinates (Count = 52)
vt 0.0625408 0.0001220703
vt 0.0831029 0.0001220703
vt 0.0831029 0.02765572
vt 0.0625408 0.02765572
vt 0.04173455 0.0001220703
vt 0.06229666 0.0001220703
vt 0.06229666 0.02765572
vt 0.04173455 0.02765572
vt 0.02092831 0.0001220703
vt 0.04149041 0.0001220703
vt 0.04149041 0.02765572
vt 0.02092831 0.02765572
vt 0.0001220703 0.0001220703
vt 0.02068417 0.0001220703
vt 0.02068417 0.02765572
vt 0.0001220703 0.02765572
vt 0.04173455 0.5834554
vt 0.06229666 0.5834554
vt 0.06229666 0.610989
vt 0.04173455 0.610989
vt 0.1249595 0.5278999
vt 0.1455216 0.5278999
vt 0.1455216 0.5554335
vt 0.1249595 0.5554335
vt 0.1041533 0.5278999
vt 0.1247154 0.5278999
vt 0.1247154 0.5554335
vt 0.1041533 0.5554335
vt 0.1249595 0.5001221
vt 0.1455216 0.5001221
vt 0.1455216 0.5276557
vt 0.1249595 0.5276557
vt 0.1041533 0.5001221
vt 0.1247154 0.5001221
vt 0.1247154 0.5276557
vt 0.1041533 0.5276557
vt 0.0625408 0.02789986
vt 0.0831029 0.02789986
vt 0.0831029 0.05543351
vt 0.0625408 0.05543351
vt 0.04173455 0.02789986
vt 0.06229666 0.02789986
vt 0.06229666 0.05543351
vt 0.04173455 0.05543351
vt 0.02092831 0.02789986
vt 0.04149041 0.02789986
vt 0.04149041 0.05543351
vt 0.02092831 0.05543351
vt 0.0001220703 0.02789986
vt 0.02068417 0.02789986
vt 0.02068417 0.05543351
vt 0.0001220703 0.05543351

# Normal
vn 0 0 -1

# Mesh description
g OngYiuRight_mesh_0005

# Faces
f 1/1/1 2/2/1 3/3/1 4/4/1
f 5/5/1 6/6/1 7/7/1 8/8/1
f 9/9/1 10/10/1 11/11/1 12/12/1
f 13/13/1 14/14/1 15/15/1 16/16/1
f 17/1/1 18/2/1 19/3/1 20/4/1
f 21/5/1 22/6/1 23/7/1 24/8/1
f 25/9/1 26/10/1 27/11/1 28/12/1
f 29/13/1 30/14/1 31/15/1 32/16/1
f 33/17/1 34/18/1 35/19/1 36/20/1
f 37/17/1 38/18/1 39/19/1 40/20/1
f 41/17/1 42/18/1 43/19/1 44/20/1
f 45/17/1 46/18/1 47/19/1 48/20/1
f 49/17/1 50/18/1 51/19/1 52/20/1
f 53/17/1 54/18/1 55/19/1 56/20/1
f 57/1/1 58/2/1 59/3/1 60/4/1
f 61/5/1 62/6/1 63/7/1 64/8/1
f 65/9/1 66/10/1 67/11/1 68/12/1
f 69/13/1 70/14/1 71/15/1 72/16/1
f 73/21/1 74/22/1 75/23/1 76/24/1
f 77/25/1 78/26/1 79/27/1 80/28/1
f 81/17/1 82/18/1 83/19/1 84/20/1
f 85/29/1 86/30/1 87/31/1 88/32/1
f 89/33/1 90/34/1 91/35/1 92/36/1
f 93/17/1 94/18/1 95/19/1 96/20/1
f 97/1/1 98/2/1 99/3/1 100/4/1
f 101/5/1 102/6/1 103/7/1 104/8/1
f 105/9/1 106/10/1 107/11/1 108/12/1
f 109/13/1 110/14/1 111/15/1 112/16/1
f 113/17/1 114/18/1 115/19/1 116/20/1
f 117/17/1 118/18/1 119/19/1 120/20/1
f 121/17/1 122/18/1 123/19/1 124/20/1
f 125/17/1 126/18/1 127/19/1 128/20/1
f 129/21/1 130/22/1 131/23/1 132/24/1
f 133/25/1 134/26/1 135/27/1 136/28/1
f 137/17/1 138/18/1 139/19/1 140/20/1
f 141/17/1 142/18/1 143/19/1 144/20/1
f 145/17/1 146/18/1 147/19/1 148/20/1
f 149/17/1 150/18/1 151/19/1 152/20/1
f 153/17/1 154/18/1 155/19/1 156/20/1
f 157/29/1 158/30/1 159/31/1 160/32/1
f 161/33/1 162/34/1 163/35/1 164/36/1
f 165/21/1 166/22/1 167/23/1 168/24/1
f 169/25/1 170/26/1 171/27/1 172/28/1
f 173/1/1 174/2/1 175/3/1 176/4/1
f 177/5/1 178/6/1 179/7/1 180/8/1
f 181/9/1 182/10/1 183/11/1 184/12/1
f 185/13/1 186/14/1 187/15/1 188/16/1
f 189/29/1 190/30/1 191/31/1 192/32/1
f 193/33/1 194/34/1 195/35/1 196/36/1
f 197/29/1 198/30/1 199/31/1 200/32/1
f 201/33/1 202/34/1 203/35/1 204/36/1
f 205/21/1 206/22/1 207/23/1 208/24/1
f 209/25/1 210/26/1 211/27/1 212/28/1
f 213/29/1 214/30/1 215/31/1 216/32/1
f 217/33/1 218/34/1 219/35/1 220/36/1
f 221/29/1 222/30/1 223/31/1 224/32/1
f 225/33/1 226/34/1 227/35/1 228/36/1
f 229/29/1 230/30/1 231/31/1 232/32/1
f 233/33/1 234/34/1 235/35/1 236/36/1
f 237/17/1 238/18/1 239/19/1 240/20/1
f 241/17/1 242/18/1 243/19/1 244/20/1
f 245/17/1 246/18/1 247/19/1 248/20/1
f 249/1/1 250/2/1 251/3/1 252/4/1
f 253/5/1 254/6/1 255/7/1 256/8/1
f 257/9/1 258/10/1 259/11/1 260/12/1
f 261/13/1 262/14/1 263/15/1 264/16/1
f 265/17/1 266/18/1 267/19/1 268/20/1
f 269/1/1 270/2/1 271/3/1 272/4/1
f 273/5/1 274/6/1 275/7/1 276/8/1
f 277/9/1 278/10/1 279/11/1 280/12/1
f 281/13/1 282/14/1 283/15/1 284/16/1
f 285/17/1 286/18/1 287/19/1 288/20/1
f 289/17/1 290/18/1 291/19/1 292/20/1
f 293/17/1 294/18/1 295/19/1 296/20/1
f 297/17/1 298/18/1 299/19/1 300/20/1
f 301/17/1 302/18/1 303/19/1 304/20/1
f 305/17/1 306/18/1 307/19/1 308/20/1
f 309/17/1 310/18/1 311/19/1 312/20/1
f 313/17/1 314/18/1 315/19/1 316/20/1
f 317/1/1 318/2/1 319/3/1 320/4/1
f 321/5/1 322/6/1 323/7/1 324/8/1
f 325/9/1 326/10/1 327/11/1 328/12/1
f 329/13/1 330/14/1 331/15/1 332/16/1
f 333/29/1 334/30/1 335/31/1 336/32/1
f 337/33/1 338/34/1 339/35/1 340/36/1
f 341/21/1 342/22/1 343/23/1 344/24/1
f 345/25/1 346/26/1 347/27/1 348/28/1
f 349/29/1 350/30/1 351/31/1 352/32/1
f 353/33/1 354/34/1 355/35/1 356/36/1
f 357/21/1 358/22/1 359/23/1 360/24/1
f 361/25/1 362/26/1 363/27/1 364/28/1
f 365/29/1 366/30/1 367/31/1 368/32/1
f 369/33/1 370/34/1 371/35/1 372/36/1
f 373/29/1 374/30/1 375/31/1 376/32/1
f 377/33/1 378/34/1 379/35/1 380/36/1
f 381/29/1 382/30/1 383/31/1 384/32/1
f 385/33/1 386/34/1 387/35/1 388/36/1
f 389/29/1 390/30/1 391/31/1 392/32/1
f 393/33/1 394/34/1 395/35/1 396/36/1
f 397/29/1 398/30/1 399/31/1 400/32/1
f 401/33/1 402/34/1 403/35/1 404/36/1
f 405/29/1 406/30/1 407/31/1 408/32/1
f 409/33/1 410/34/1 411/35/1 412/36/1
f 413/1/1 414/2/1 415/3/1 416/4/1
f 417/5/1 418/6/1 419/7/1 420/8/1
f 421/9/1 422/10/1 423/11/1 424/12/1
f 425/13/1 426/14/1 427/15/1 428/16/1
f 429/29/1 430/30/1 431/31/1 432/32/1
f 433/33/1 434/34/1 435/35/1 436/36/1
f 437/1/1 438/2/1 439/3/1 440/4/1
f 441/5/1 442/6/1 443/7/1 444/8/1
f 445/9/1 446/10/1 447/11/1 448/12/1
f 449/13/1 450/14/1 451/15/1 452/16/1
f 453/29/1 454/30/1 455/31/1 456/32/1
f 457/33/1 458/34/1 459/35/1 460/36/1
f 461/1/1 462/2/1 463/3/1 464/4/1
f 465/5/1 466/6/1 467/7/1 468/8/1
f 469/9/1 470/10/1 471/11/1 472/12/1
f 473/13/1 474/14/1 475/15/1 476/16/1
f 477/29/1 478/30/1 479/31/1 480/32/1
f 481/33/1 482/34/1 483/35/1 484/36/1
f 485/29/1 486/30/1 487/31/1 488/32/1
f 489/33/1 490/34/1 491/35/1 492/36/1
f 493/29/1 494/30/1 495/31/1 496/32/1
f 497/33/1 498/34/1 499/35/1 500/36/1
f 501/1/1 502/2/1 503/3/1 504/4/1
f 505/5/1 506/6/1 507/7/1 508/8/1
f 509/9/1 510/10/1 511/11/1 512/12/1
f 513/13/1 514/14/1 515/15/1 516/16/1
f 517/37/1 518/38/1 519/39/1 520/40/1
f 521/41/1 522/42/1 523/43/1 524/44/1
f 525/45/1 526/46/1 527/47/1 528/48/1
f 529/49/1 530/50/1 531/51/1 532/52/1
f 533/1/1 534/2/1 535/3/1 536/4/1
f 537/5/1 538/6/1 539/7/1 540/8/1
f 541/9/1 542/10/1 543/11/1 544/12/1
f 545/13/1 546/14/1 547/15/1 548/16/1

