# Tiled2Unity generated file. Do not modify by hand.
# Wavefront file for 'ButuanGardens_mesh_0003.obj'

# Vertices (Count = 204)
v -89 -11 0
v -90 -11 0
v -90 -10 0
v -89 -10 0
v -88 -11 0
v -89 -11 0
v -89 -10 0
v -88 -10 0
v -89 -12 0
v -90 -12 0
v -90 -11 0
v -89 -11 0
v -88 -12 0
v -89 -12 0
v -89 -11 0
v -88 -11 0
v -89 -13 0
v -90 -13 0
v -90 -12 0
v -89 -12 0
v -88 -13 0
v -89 -13 0
v -89 -12 0
v -88 -12 0
v -89 -14 0
v -90 -14 0
v -90 -13 0
v -89 -13 0
v -88 -14 0
v -89 -14 0
v -89 -13 0
v -88 -13 0
v -89 -15 0
v -90 -15 0
v -90 -14 0
v -89 -14 0
v -88 -15 0
v -89 -15 0
v -89 -14 0
v -88 -14 0
v -89 -16 0
v -90 -16 0
v -90 -15 0
v -89 -15 0
v -88 -16 0
v -89 -16 0
v -89 -15 0
v -88 -15 0
v -89 -34 0
v -90 -34 0
v -90 -33 0
v -89 -33 0
v -88 -34 0
v -89 -34 0
v -89 -33 0
v -88 -33 0
v -89 -35 0
v -90 -35 0
v -90 -34 0
v -89 -34 0
v -88 -35 0
v -89 -35 0
v -89 -34 0
v -88 -34 0
v -89 -36 0
v -90 -36 0
v -90 -35 0
v -89 -35 0
v -88 -36 0
v -89 -36 0
v -89 -35 0
v -88 -35 0
v -89 -37 0
v -90 -37 0
v -90 -36 0
v -89 -36 0
v -88 -37 0
v -89 -37 0
v -89 -36 0
v -88 -36 0
v -89 -38 0
v -90 -38 0
v -90 -37 0
v -89 -37 0
v -88 -38 0
v -89 -38 0
v -89 -37 0
v -88 -37 0
v -89 -39 0
v -90 -39 0
v -90 -38 0
v -89 -38 0
v -88 -39 0
v -89 -39 0
v -89 -38 0
v -88 -38 0
v -16 -57 0
v -17 -57 0
v -17 -56 0
v -16 -56 0
v -15 -57 0
v -16 -57 0
v -16 -56 0
v -15 -56 0
v -14 -57 0
v -15 -57 0
v -15 -56 0
v -14 -56 0
v -13 -57 0
v -14 -57 0
v -14 -56 0
v -13 -56 0
v -12 -57 0
v -13 -57 0
v -13 -56 0
v -12 -56 0
v -11 -57 0
v -12 -57 0
v -12 -56 0
v -11 -56 0
v -10 -57 0
v -11 -57 0
v -11 -56 0
v -10 -56 0
v -16 -58 0
v -17 -58 0
v -17 -57 0
v -16 -57 0
v -15 -58 0
v -16 -58 0
v -16 -57 0
v -15 -57 0
v -14 -58 0
v -15 -58 0
v -15 -57 0
v -14 -57 0
v -13 -58 0
v -14 -58 0
v -14 -57 0
v -13 -57 0
v -12 -58 0
v -13 -58 0
v -13 -57 0
v -12 -57 0
v -11 -58 0
v -12 -58 0
v -12 -57 0
v -11 -57 0
v -10 -58 0
v -11 -58 0
v -11 -57 0
v -10 -57 0
v -16 -59 0
v -17 -59 0
v -17 -58 0
v -16 -58 0
v -15 -59 0
v -16 -59 0
v -16 -58 0
v -15 -58 0
v -14 -59 0
v -15 -59 0
v -15 -58 0
v -14 -58 0
v -13 -59 0
v -14 -59 0
v -14 -58 0
v -13 -58 0
v -12 -59 0
v -13 -59 0
v -13 -58 0
v -12 -58 0
v -11 -59 0
v -12 -59 0
v -12 -58 0
v -11 -58 0
v -10 -59 0
v -11 -59 0
v -11 -58 0
v -10 -58 0
v -16 -60 0
v -17 -60 0
v -17 -59 0
v -16 -59 0
v -15 -60 0
v -16 -60 0
v -16 -59 0
v -15 -59 0
v -14 -60 0
v -15 -60 0
v -15 -59 0
v -14 -59 0
v -13 -60 0
v -14 -60 0
v -14 -59 0
v -13 -59 0
v -12 -60 0
v -13 -60 0
v -13 -59 0
v -12 -59 0
v -11 -60 0
v -12 -60 0
v -12 -59 0
v -11 -59 0

# Texture cooridinates (Count = 156)
vt 0.3409101 0.8685431
vt 0.3577054 0.8685431
vt 0.3577054 0.8946148
vt 0.3409101 0.8946148
vt 0.3238707 0.8685431
vt 0.340666 0.8685431
vt 0.340666 0.8946148
vt 0.3238707 0.8946148
vt 0.3409101 0.8422273
vt 0.3577054 0.8422273
vt 0.3577054 0.868299
vt 0.3409101 0.868299
vt 0.3238707 0.8422273
vt 0.340666 0.8422273
vt 0.340666 0.868299
vt 0.3238707 0.868299
vt 0.3409101 0.8159115
vt 0.3577054 0.8159115
vt 0.3577054 0.8419832
vt 0.3409101 0.8419832
vt 0.3238707 0.8159115
vt 0.340666 0.8159115
vt 0.340666 0.8419832
vt 0.3238707 0.8419832
vt 0.3409101 0.7895957
vt 0.3577054 0.7895957
vt 0.3577054 0.8156674
vt 0.3409101 0.8156674
vt 0.3238707 0.7895957
vt 0.340666 0.7895957
vt 0.340666 0.8156674
vt 0.3238707 0.8156674
vt 0.3409101 0.76328
vt 0.3577054 0.76328
vt 0.3577054 0.7893516
vt 0.3409101 0.7893516
vt 0.3238707 0.76328
vt 0.340666 0.76328
vt 0.340666 0.7893516
vt 0.3238707 0.7893516
vt 0.3409101 0.7369642
vt 0.3577054 0.7369642
vt 0.3577054 0.7630358
vt 0.3409101 0.7630358
vt 0.3238707 0.7369642
vt 0.340666 0.7369642
vt 0.340666 0.7630358
vt 0.3238707 0.7630358
vt 0.2727525 0.131701
vt 0.2895478 0.131701
vt 0.2895478 0.1577727
vt 0.2727525 0.1577727
vt 0.2557131 0.131701
vt 0.2725084 0.131701
vt 0.2725084 0.1577727
vt 0.2557131 0.1577727
vt 0.2386737 0.131701
vt 0.255469 0.131701
vt 0.255469 0.1577727
vt 0.2386737 0.1577727
vt 0.2216343 0.131701
vt 0.2384296 0.131701
vt 0.2384296 0.1577727
vt 0.2216343 0.1577727
vt 0.2045949 0.131701
vt 0.2213902 0.131701
vt 0.2213902 0.1577727
vt 0.2045949 0.1577727
vt 0.1875555 0.131701
vt 0.2043508 0.131701
vt 0.2043508 0.1577727
vt 0.1875555 0.1577727
vt 0.1705161 0.131701
vt 0.1873114 0.131701
vt 0.1873114 0.1577727
vt 0.1705161 0.1577727
vt 0.2727525 0.1053852
vt 0.2895478 0.1053852
vt 0.2895478 0.1314569
vt 0.2727525 0.1314569
vt 0.2557131 0.1053852
vt 0.2725084 0.1053852
vt 0.2725084 0.1314569
vt 0.2557131 0.1314569
vt 0.2386737 0.1053852
vt 0.255469 0.1053852
vt 0.255469 0.1314569
vt 0.2386737 0.1314569
vt 0.2216343 0.1053852
vt 0.2384296 0.1053852
vt 0.2384296 0.1314569
vt 0.2216343 0.1314569
vt 0.2045949 0.1053852
vt 0.2213902 0.1053852
vt 0.2213902 0.1314569
vt 0.2045949 0.1314569
vt 0.1875555 0.1053852
vt 0.2043508 0.1053852
vt 0.2043508 0.1314569
vt 0.1875555 0.1314569
vt 0.1705161 0.1053852
vt 0.1873114 0.1053852
vt 0.1873114 0.1314569
vt 0.1705161 0.1314569
vt 0.2727525 0.07906944
vt 0.2895478 0.07906944
vt 0.2895478 0.1051411
vt 0.2727525 0.1051411
vt 0.2557131 0.07906944
vt 0.2725084 0.07906944
vt 0.2725084 0.1051411
vt 0.2557131 0.1051411
vt 0.2386737 0.07906944
vt 0.255469 0.07906944
vt 0.255469 0.1051411
vt 0.2386737 0.1051411
vt 0.2216343 0.07906944
vt 0.2384296 0.07906944
vt 0.2384296 0.1051411
vt 0.2216343 0.1051411
vt 0.2045949 0.07906944
vt 0.2213902 0.07906944
vt 0.2213902 0.1051411
vt 0.2045949 0.1051411
vt 0.1875555 0.07906944
vt 0.2043508 0.07906944
vt 0.2043508 0.1051411
vt 0.1875555 0.1051411
vt 0.1705161 0.07906944
vt 0.1873114 0.07906944
vt 0.1873114 0.1051411
vt 0.1705161 0.1051411
vt 0.2727525 0.05275363
vt 0.2895478 0.05275363
vt 0.2895478 0.07882529
vt 0.2727525 0.07882529
vt 0.2557131 0.05275363
vt 0.2725084 0.05275363
vt 0.2725084 0.07882529
vt 0.2557131 0.07882529
vt 0.2386737 0.05275363
vt 0.255469 0.05275363
vt 0.255469 0.07882529
vt 0.2386737 0.07882529
vt 0.2216343 0.05275363
vt 0.2384296 0.05275363
vt 0.2384296 0.07882529
vt 0.2216343 0.07882529
vt 0.2045949 0.05275363
vt 0.2213902 0.05275363
vt 0.2213902 0.07882529
vt 0.2045949 0.07882529
vt 0.1875555 0.05275363
vt 0.2043508 0.05275363
vt 0.2043508 0.07882529
vt 0.1875555 0.07882529

# Normal
vn 0 0 -1

# Mesh description
g ButuanGardens_mesh_0003

# Faces
f 1/1/1 2/2/1 3/3/1 4/4/1
f 5/5/1 6/6/1 7/7/1 8/8/1
f 9/9/1 10/10/1 11/11/1 12/12/1
f 13/13/1 14/14/1 15/15/1 16/16/1
f 17/17/1 18/18/1 19/19/1 20/20/1
f 21/21/1 22/22/1 23/23/1 24/24/1
f 25/25/1 26/26/1 27/27/1 28/28/1
f 29/29/1 30/30/1 31/31/1 32/32/1
f 33/33/1 34/34/1 35/35/1 36/36/1
f 37/37/1 38/38/1 39/39/1 40/40/1
f 41/41/1 42/42/1 43/43/1 44/44/1
f 45/45/1 46/46/1 47/47/1 48/48/1
f 49/1/1 50/2/1 51/3/1 52/4/1
f 53/5/1 54/6/1 55/7/1 56/8/1
f 57/9/1 58/10/1 59/11/1 60/12/1
f 61/13/1 62/14/1 63/15/1 64/16/1
f 65/17/1 66/18/1 67/19/1 68/20/1
f 69/21/1 70/22/1 71/23/1 72/24/1
f 73/25/1 74/26/1 75/27/1 76/28/1
f 77/29/1 78/30/1 79/31/1 80/32/1
f 81/33/1 82/34/1 83/35/1 84/36/1
f 85/37/1 86/38/1 87/39/1 88/40/1
f 89/41/1 90/42/1 91/43/1 92/44/1
f 93/45/1 94/46/1 95/47/1 96/48/1
f 97/49/1 98/50/1 99/51/1 100/52/1
f 101/53/1 102/54/1 103/55/1 104/56/1
f 105/57/1 106/58/1 107/59/1 108/60/1
f 109/61/1 110/62/1 111/63/1 112/64/1
f 113/65/1 114/66/1 115/67/1 116/68/1
f 117/69/1 118/70/1 119/71/1 120/72/1
f 121/73/1 122/74/1 123/75/1 124/76/1
f 125/77/1 126/78/1 127/79/1 128/80/1
f 129/81/1 130/82/1 131/83/1 132/84/1
f 133/85/1 134/86/1 135/87/1 136/88/1
f 137/89/1 138/90/1 139/91/1 140/92/1
f 141/93/1 142/94/1 143/95/1 144/96/1
f 145/97/1 146/98/1 147/99/1 148/100/1
f 149/101/1 150/102/1 151/103/1 152/104/1
f 153/105/1 154/106/1 155/107/1 156/108/1
f 157/109/1 158/110/1 159/111/1 160/112/1
f 161/113/1 162/114/1 163/115/1 164/116/1
f 165/117/1 166/118/1 167/119/1 168/120/1
f 169/121/1 170/122/1 171/123/1 172/124/1
f 173/125/1 174/126/1 175/127/1 176/128/1
f 177/129/1 178/130/1 179/131/1 180/132/1
f 181/133/1 182/134/1 183/135/1 184/136/1
f 185/137/1 186/138/1 187/139/1 188/140/1
f 189/141/1 190/142/1 191/143/1 192/144/1
f 193/145/1 194/146/1 195/147/1 196/148/1
f 197/149/1 198/150/1 199/151/1 200/152/1
f 201/153/1 202/154/1 203/155/1 204/156/1

