# Tiled2Unity generated file. Do not modify by hand.
# Wavefront file for 'ButuanGardens_mesh_0004.obj'

# Vertices (Count = 136)
v -39 -32 0
v -40 -32 0
v -40 -31 0
v -39 -31 0
v -38 -32 0
v -39 -32 0
v -39 -31 0
v -38 -31 0
v -37 -32 0
v -38 -32 0
v -38 -31 0
v -37 -31 0
v -36 -32 0
v -37 -32 0
v -37 -31 0
v -36 -31 0
v -35 -32 0
v -36 -32 0
v -36 -31 0
v -35 -31 0
v -42 -33 0
v -43 -33 0
v -43 -32 0
v -42 -32 0
v -40 -33 0
v -41 -33 0
v -41 -32 0
v -40 -32 0
v -42 -34 0
v -43 -34 0
v -43 -33 0
v -42 -33 0
v -44 -35 0
v -45 -35 0
v -45 -34 0
v -44 -34 0
v -43 -35 0
v -44 -35 0
v -44 -34 0
v -43 -34 0
v -42 -35 0
v -43 -35 0
v -43 -34 0
v -42 -34 0
v -44 -36 0
v -45 -36 0
v -45 -35 0
v -44 -35 0
v -43 -36 0
v -44 -36 0
v -44 -35 0
v -43 -35 0
v -42 -36 0
v -43 -36 0
v -43 -35 0
v -42 -35 0
v -35 -36 0
v -36 -36 0
v -36 -35 0
v -35 -35 0
v -36 -37 0
v -37 -37 0
v -37 -36 0
v -36 -36 0
v -35 -37 0
v -36 -37 0
v -36 -36 0
v -35 -36 0
v -32 -37 0
v -33 -37 0
v -33 -36 0
v -32 -36 0
v -31 -37 0
v -32 -37 0
v -32 -36 0
v -31 -36 0
v -30 -37 0
v -31 -37 0
v -31 -36 0
v -30 -36 0
v -36 -38 0
v -37 -38 0
v -37 -37 0
v -36 -37 0
v -35 -38 0
v -36 -38 0
v -36 -37 0
v -35 -37 0
v -32 -38 0
v -33 -38 0
v -33 -37 0
v -32 -37 0
v -30 -38 0
v -31 -38 0
v -31 -37 0
v -30 -37 0
v -33 -39 0
v -34 -39 0
v -34 -38 0
v -33 -38 0
v -32 -39 0
v -33 -39 0
v -33 -38 0
v -32 -38 0
v -31 -39 0
v -32 -39 0
v -32 -38 0
v -31 -38 0
v -30 -39 0
v -31 -39 0
v -31 -38 0
v -30 -38 0
v -34 -40 0
v -35 -40 0
v -35 -39 0
v -34 -39 0
v -33 -40 0
v -34 -40 0
v -34 -39 0
v -33 -39 0
v -32 -40 0
v -33 -40 0
v -33 -39 0
v -32 -39 0
v -34 -41 0
v -35 -41 0
v -35 -40 0
v -34 -40 0
v -33 -41 0
v -34 -41 0
v -34 -40 0
v -33 -40 0
v -32 -41 0
v -33 -41 0
v -33 -40 0
v -32 -40 0

# Texture cooridinates (Count = 44)
vt 0.1457658 0.9723443
vt 0.1663279 0.9723443
vt 0.1663279 0.9998779
vt 0.1457658 0.9998779
vt 0.1249595 0.8334554
vt 0.1455216 0.8334554
vt 0.1455216 0.860989
vt 0.1249595 0.860989
vt 0.1041533 0.8334554
vt 0.1247154 0.8334554
vt 0.1247154 0.860989
vt 0.1041533 0.860989
vt 0.08334704 0.8334554
vt 0.1039091 0.8334554
vt 0.1039091 0.860989
vt 0.08334704 0.860989
vt 0.0625408 0.8334554
vt 0.0831029 0.8334554
vt 0.0831029 0.860989
vt 0.0625408 0.860989
vt 0.04173455 0.5834554
vt 0.06229666 0.5834554
vt 0.06229666 0.610989
vt 0.04173455 0.610989
vt 0.166572 0.9723443
vt 0.1871341 0.9723443
vt 0.1871341 0.9998779
vt 0.166572 0.9998779
vt 0.1041533 0.9445665
vt 0.1247154 0.9445665
vt 0.1247154 0.9721001
vt 0.1041533 0.9721001
vt 0.08334704 0.9445665
vt 0.1039091 0.9445665
vt 0.1039091 0.9721001
vt 0.08334704 0.9721001
vt 0.1041533 0.9167888
vt 0.1247154 0.9167888
vt 0.1247154 0.9443223
vt 0.1041533 0.9443223
vt 0.08334704 0.9167888
vt 0.1039091 0.9167888
vt 0.1039091 0.9443223
vt 0.08334704 0.9443223

# Normal
vn 0 0 -1

# Mesh description
g ButuanGardens_mesh_0004

# Faces
f 1/1/1 2/2/1 3/3/1 4/4/1
f 5/5/1 6/6/1 7/7/1 8/8/1
f 9/9/1 10/10/1 11/11/1 12/12/1
f 13/13/1 14/14/1 15/15/1 16/16/1
f 17/17/1 18/18/1 19/19/1 20/20/1
f 21/21/1 22/22/1 23/23/1 24/24/1
f 25/25/1 26/26/1 27/27/1 28/28/1
f 29/21/1 30/22/1 31/23/1 32/24/1
f 33/21/1 34/22/1 35/23/1 36/24/1
f 37/21/1 38/22/1 39/23/1 40/24/1
f 41/21/1 42/22/1 43/23/1 44/24/1
f 45/21/1 46/22/1 47/23/1 48/24/1
f 49/21/1 50/22/1 51/23/1 52/24/1
f 53/21/1 54/22/1 55/23/1 56/24/1
f 57/25/1 58/26/1 59/27/1 60/28/1
f 61/29/1 62/30/1 63/31/1 64/32/1
f 65/33/1 66/34/1 67/35/1 68/36/1
f 69/21/1 70/22/1 71/23/1 72/24/1
f 73/21/1 74/22/1 75/23/1 76/24/1
f 77/21/1 78/22/1 79/23/1 80/24/1
f 81/37/1 82/38/1 83/39/1 84/40/1
f 85/41/1 86/42/1 87/43/1 88/44/1
f 89/21/1 90/22/1 91/23/1 92/24/1
f 93/21/1 94/22/1 95/23/1 96/24/1
f 97/21/1 98/22/1 99/23/1 100/24/1
f 101/21/1 102/22/1 103/23/1 104/24/1
f 105/21/1 106/22/1 107/23/1 108/24/1
f 109/21/1 110/22/1 111/23/1 112/24/1
f 113/21/1 114/22/1 115/23/1 116/24/1
f 117/21/1 118/22/1 119/23/1 120/24/1
f 121/21/1 122/22/1 123/23/1 124/24/1
f 125/21/1 126/22/1 127/23/1 128/24/1
f 129/21/1 130/22/1 131/23/1 132/24/1
f 133/21/1 134/22/1 135/23/1 136/24/1

