# Tiled2Unity generated file. Do not modify by hand.
# Wavefront file for 'AtbangLangihan_mesh_0003.obj'

# Vertices (Count = 320)
v -19 -13 0
v -20 -13 0
v -20 -12 0
v -19 -12 0
v -18 -13 0
v -19 -13 0
v -19 -12 0
v -18 -12 0
v -17 -13 0
v -18 -13 0
v -18 -12 0
v -17 -12 0
v -16 -13 0
v -17 -13 0
v -17 -12 0
v -16 -12 0
v -15 -13 0
v -16 -13 0
v -16 -12 0
v -15 -12 0
v -14 -13 0
v -15 -13 0
v -15 -12 0
v -14 -12 0
v -13 -13 0
v -14 -13 0
v -14 -12 0
v -13 -12 0
v -19 -14 0
v -20 -14 0
v -20 -13 0
v -19 -13 0
v -18 -14 0
v -19 -14 0
v -19 -13 0
v -18 -13 0
v -17 -14 0
v -18 -14 0
v -18 -13 0
v -17 -13 0
v -16 -14 0
v -17 -14 0
v -17 -13 0
v -16 -13 0
v -15 -14 0
v -16 -14 0
v -16 -13 0
v -15 -13 0
v -14 -14 0
v -15 -14 0
v -15 -13 0
v -14 -13 0
v -13 -14 0
v -14 -14 0
v -14 -13 0
v -13 -13 0
v -46 -18 0
v -47 -18 0
v -47 -17 0
v -46 -17 0
v -45 -18 0
v -46 -18 0
v -46 -17 0
v -45 -17 0
v -44 -18 0
v -45 -18 0
v -45 -17 0
v -44 -17 0
v -43 -18 0
v -44 -18 0
v -44 -17 0
v -43 -17 0
v -42 -18 0
v -43 -18 0
v -43 -17 0
v -42 -17 0
v -41 -18 0
v -42 -18 0
v -42 -17 0
v -41 -17 0
v -40 -18 0
v -41 -18 0
v -41 -17 0
v -40 -17 0
v -7 -18 0
v -8 -18 0
v -8 -17 0
v -7 -17 0
v -6 -18 0
v -7 -18 0
v -7 -17 0
v -6 -17 0
v -5 -18 0
v -6 -18 0
v -6 -17 0
v -5 -17 0
v -4 -18 0
v -5 -18 0
v -5 -17 0
v -4 -17 0
v -3 -18 0
v -4 -18 0
v -4 -17 0
v -3 -17 0
v -2 -18 0
v -3 -18 0
v -3 -17 0
v -2 -17 0
v -46 -19 0
v -47 -19 0
v -47 -18 0
v -46 -18 0
v -45 -19 0
v -46 -19 0
v -46 -18 0
v -45 -18 0
v -44 -19 0
v -45 -19 0
v -45 -18 0
v -44 -18 0
v -43 -19 0
v -44 -19 0
v -44 -18 0
v -43 -18 0
v -42 -19 0
v -43 -19 0
v -43 -18 0
v -42 -18 0
v -41 -19 0
v -42 -19 0
v -42 -18 0
v -41 -18 0
v -40 -19 0
v -41 -19 0
v -41 -18 0
v -40 -18 0
v -7 -19 0
v -8 -19 0
v -8 -18 0
v -7 -18 0
v -6 -19 0
v -7 -19 0
v -7 -18 0
v -6 -18 0
v -5 -19 0
v -6 -19 0
v -6 -18 0
v -5 -18 0
v -4 -19 0
v -5 -19 0
v -5 -18 0
v -4 -18 0
v -3 -19 0
v -4 -19 0
v -4 -18 0
v -3 -18 0
v -2 -19 0
v -3 -19 0
v -3 -18 0
v -2 -18 0
v -7 -20 0
v -8 -20 0
v -8 -19 0
v -7 -19 0
v -6 -20 0
v -7 -20 0
v -7 -19 0
v -6 -19 0
v -5 -20 0
v -6 -20 0
v -6 -19 0
v -5 -19 0
v -4 -20 0
v -5 -20 0
v -5 -19 0
v -4 -19 0
v -3 -20 0
v -4 -20 0
v -4 -19 0
v -3 -19 0
v -2 -20 0
v -3 -20 0
v -3 -19 0
v -2 -19 0
v -21 -27 0
v -22 -27 0
v -22 -26 0
v -21 -26 0
v -20 -27 0
v -21 -27 0
v -21 -26 0
v -20 -26 0
v -19 -27 0
v -20 -27 0
v -20 -26 0
v -19 -26 0
v -21 -28 0
v -22 -28 0
v -22 -27 0
v -21 -27 0
v -20 -28 0
v -21 -28 0
v -21 -27 0
v -20 -27 0
v -19 -28 0
v -20 -28 0
v -20 -27 0
v -19 -27 0
v -21 -29 0
v -22 -29 0
v -22 -28 0
v -21 -28 0
v -20 -29 0
v -21 -29 0
v -21 -28 0
v -20 -28 0
v -19 -29 0
v -20 -29 0
v -20 -28 0
v -19 -28 0
v -37 -37 0
v -38 -37 0
v -38 -36 0
v -37 -36 0
v -36 -37 0
v -37 -37 0
v -37 -36 0
v -36 -36 0
v -35 -37 0
v -36 -37 0
v -36 -36 0
v -35 -36 0
v -37 -38 0
v -38 -38 0
v -38 -37 0
v -37 -37 0
v -36 -38 0
v -37 -38 0
v -37 -37 0
v -36 -37 0
v -35 -38 0
v -36 -38 0
v -36 -37 0
v -35 -37 0
v -37 -39 0
v -38 -39 0
v -38 -38 0
v -37 -38 0
v -36 -39 0
v -37 -39 0
v -37 -38 0
v -36 -38 0
v -35 -39 0
v -36 -39 0
v -36 -38 0
v -35 -38 0
v -19 -41 0
v -20 -41 0
v -20 -40 0
v -19 -40 0
v -18 -41 0
v -19 -41 0
v -19 -40 0
v -18 -40 0
v -17 -41 0
v -18 -41 0
v -18 -40 0
v -17 -40 0
v -16 -41 0
v -17 -41 0
v -17 -40 0
v -16 -40 0
v -15 -41 0
v -16 -41 0
v -16 -40 0
v -15 -40 0
v -14 -41 0
v -15 -41 0
v -15 -40 0
v -14 -40 0
v -13 -41 0
v -14 -41 0
v -14 -40 0
v -13 -40 0
v -12 -41 0
v -13 -41 0
v -13 -40 0
v -12 -40 0
v -19 -42 0
v -20 -42 0
v -20 -41 0
v -19 -41 0
v -18 -42 0
v -19 -42 0
v -19 -41 0
v -18 -41 0
v -17 -42 0
v -18 -42 0
v -18 -41 0
v -17 -41 0
v -16 -42 0
v -17 -42 0
v -17 -41 0
v -16 -41 0
v -15 -42 0
v -16 -42 0
v -16 -41 0
v -15 -41 0
v -14 -42 0
v -15 -42 0
v -15 -41 0
v -14 -41 0
v -13 -42 0
v -14 -42 0
v -14 -41 0
v -13 -41 0
v -12 -42 0
v -13 -42 0
v -13 -41 0
v -12 -41 0

# Texture cooridinates (Count = 228)
vt 0.2727525 0.1843326
vt 0.2895478 0.1843326
vt 0.2895478 0.2104042
vt 0.2727525 0.2104042
vt 0.2557131 0.1843326
vt 0.2725084 0.1843326
vt 0.2725084 0.2104042
vt 0.2557131 0.2104042
vt 0.2386737 0.1843326
vt 0.255469 0.1843326
vt 0.255469 0.2104042
vt 0.2386737 0.2104042
vt 0.2216343 0.1843326
vt 0.2384296 0.1843326
vt 0.2384296 0.2104042
vt 0.2216343 0.2104042
vt 0.2045949 0.1843326
vt 0.2213902 0.1843326
vt 0.2213902 0.2104042
vt 0.2045949 0.2104042
vt 0.1875555 0.1843326
vt 0.2043508 0.1843326
vt 0.2043508 0.2104042
vt 0.1875555 0.2104042
vt 0.1705161 0.1843326
vt 0.1873114 0.1843326
vt 0.1873114 0.2104042
vt 0.1705161 0.2104042
vt 0.2727525 0.1580168
vt 0.2895478 0.1580168
vt 0.2895478 0.1840885
vt 0.2727525 0.1840885
vt 0.2557131 0.1580168
vt 0.2725084 0.1580168
vt 0.2725084 0.1840885
vt 0.2557131 0.1840885
vt 0.2386737 0.1580168
vt 0.255469 0.1580168
vt 0.255469 0.1840885
vt 0.2386737 0.1840885
vt 0.2216343 0.1580168
vt 0.2384296 0.1580168
vt 0.2384296 0.1840885
vt 0.2216343 0.1840885
vt 0.2045949 0.1580168
vt 0.2213902 0.1580168
vt 0.2213902 0.1840885
vt 0.2045949 0.1840885
vt 0.1875555 0.1580168
vt 0.2043508 0.1580168
vt 0.2043508 0.1840885
vt 0.1875555 0.1840885
vt 0.1705161 0.1580168
vt 0.1873114 0.1580168
vt 0.1873114 0.1840885
vt 0.1705161 0.1840885
vt 0.6816982 0.4738063
vt 0.6984935 0.4738063
vt 0.6984935 0.4998779
vt 0.6816982 0.4998779
vt 0.6646588 0.4738063
vt 0.6814541 0.4738063
vt 0.6814541 0.4998779
vt 0.6646588 0.4998779
vt 0.6476194 0.4738063
vt 0.6644146 0.4738063
vt 0.6644146 0.4998779
vt 0.6476194 0.4998779
vt 0.63058 0.4738063
vt 0.6473753 0.4738063
vt 0.6473753 0.4998779
vt 0.63058 0.4998779
vt 0.6135406 0.4738063
vt 0.6303359 0.4738063
vt 0.6303359 0.4998779
vt 0.6135406 0.4998779
vt 0.5965012 0.4738063
vt 0.6132964 0.4738063
vt 0.6132964 0.4998779
vt 0.5965012 0.4998779
vt 0.6816982 0.4474905
vt 0.6984935 0.4474905
vt 0.6984935 0.4735621
vt 0.6816982 0.4735621
vt 0.6646588 0.4474905
vt 0.6814541 0.4474905
vt 0.6814541 0.4735621
vt 0.6646588 0.4735621
vt 0.6476194 0.4474905
vt 0.6644146 0.4474905
vt 0.6644146 0.4735621
vt 0.6476194 0.4735621
vt 0.63058 0.4474905
vt 0.6473753 0.4474905
vt 0.6473753 0.4735621
vt 0.63058 0.4735621
vt 0.6135406 0.4474905
vt 0.6303359 0.4474905
vt 0.6303359 0.4735621
vt 0.6135406 0.4735621
vt 0.5965012 0.4474905
vt 0.6132964 0.4474905
vt 0.6132964 0.4735621
vt 0.5965012 0.4735621
vt 0.6816982 0.4211747
vt 0.6984935 0.4211747
vt 0.6984935 0.4472464
vt 0.6816982 0.4472464
vt 0.6646588 0.4211747
vt 0.6814541 0.4211747
vt 0.6814541 0.4472464
vt 0.6646588 0.4472464
vt 0.6476194 0.4211747
vt 0.6644146 0.4211747
vt 0.6644146 0.4472464
vt 0.6476194 0.4472464
vt 0.63058 0.4211747
vt 0.6473753 0.4211747
vt 0.6473753 0.4472464
vt 0.63058 0.4472464
vt 0.6135406 0.4211747
vt 0.6303359 0.4211747
vt 0.6303359 0.4472464
vt 0.6135406 0.4472464
vt 0.5965012 0.4211747
vt 0.6132964 0.4211747
vt 0.6132964 0.4472464
vt 0.5965012 0.4472464
vt 0.3579496 0.9474905
vt 0.3747448 0.9474905
vt 0.3747448 0.9735621
vt 0.3579496 0.9735621
vt 0.3409101 0.9474905
vt 0.3577054 0.9474905
vt 0.3577054 0.9735621
vt 0.3409101 0.9735621
vt 0.3238707 0.9474905
vt 0.340666 0.9474905
vt 0.340666 0.9735621
vt 0.3238707 0.9735621
vt 0.3579496 0.9211747
vt 0.3747448 0.9211747
vt 0.3747448 0.9472464
vt 0.3579496 0.9472464
vt 0.3409101 0.9211747
vt 0.3577054 0.9211747
vt 0.3577054 0.9472464
vt 0.3409101 0.9472464
vt 0.3238707 0.9211747
vt 0.340666 0.9211747
vt 0.340666 0.9472464
vt 0.3238707 0.9472464
vt 0.3579496 0.8948589
vt 0.3747448 0.8948589
vt 0.3747448 0.9209306
vt 0.3579496 0.9209306
vt 0.3409101 0.8948589
vt 0.3577054 0.8948589
vt 0.3577054 0.9209306
vt 0.3409101 0.9209306
vt 0.3238707 0.8948589
vt 0.340666 0.8948589
vt 0.340666 0.9209306
vt 0.3238707 0.9209306
vt 0.8180134 0.3159115
vt 0.8348087 0.3159115
vt 0.8348087 0.3419832
vt 0.8180134 0.3419832
vt 0.800974 0.3159115
vt 0.8177693 0.3159115
vt 0.8177693 0.3419832
vt 0.800974 0.3419832
vt 0.7839347 0.3159115
vt 0.8007299 0.3159115
vt 0.8007299 0.3419832
vt 0.7839347 0.3419832
vt 0.7668952 0.3159115
vt 0.7836905 0.3159115
vt 0.7836905 0.3419832
vt 0.7668952 0.3419832
vt 0.7498558 0.3159115
vt 0.7666511 0.3159115
vt 0.7666511 0.3419832
vt 0.7498558 0.3419832
vt 0.7328164 0.3159115
vt 0.7496117 0.3159115
vt 0.7496117 0.3419832
vt 0.7328164 0.3419832
vt 0.715777 0.3159115
vt 0.7325723 0.3159115
vt 0.7325723 0.3419832
vt 0.715777 0.3419832
vt 0.6987376 0.3159115
vt 0.7155329 0.3159115
vt 0.7155329 0.3419832
vt 0.6987376 0.3419832
vt 0.8180134 0.2895958
vt 0.8348087 0.2895958
vt 0.8348087 0.3156674
vt 0.8180134 0.3156674
vt 0.800974 0.2895958
vt 0.8177693 0.2895958
vt 0.8177693 0.3156674
vt 0.800974 0.3156674
vt 0.7839347 0.2895958
vt 0.8007299 0.2895958
vt 0.8007299 0.3156674
vt 0.7839347 0.3156674
vt 0.7668952 0.2895958
vt 0.7836905 0.2895958
vt 0.7836905 0.3156674
vt 0.7668952 0.3156674
vt 0.7498558 0.2895958
vt 0.7666511 0.2895958
vt 0.7666511 0.3156674
vt 0.7498558 0.3156674
vt 0.7328164 0.2895958
vt 0.7496117 0.2895958
vt 0.7496117 0.3156674
vt 0.7328164 0.3156674
vt 0.715777 0.2895958
vt 0.7325723 0.2895958
vt 0.7325723 0.3156674
vt 0.715777 0.3156674
vt 0.6987376 0.2895958
vt 0.7155329 0.2895958
vt 0.7155329 0.3156674
vt 0.6987376 0.3156674

# Normal
vn 0 0 -1

# Mesh description
g AtbangLangihan_mesh_0003

# Faces
f 1/1/1 2/2/1 3/3/1 4/4/1
f 5/5/1 6/6/1 7/7/1 8/8/1
f 9/9/1 10/10/1 11/11/1 12/12/1
f 13/13/1 14/14/1 15/15/1 16/16/1
f 17/17/1 18/18/1 19/19/1 20/20/1
f 21/21/1 22/22/1 23/23/1 24/24/1
f 25/25/1 26/26/1 27/27/1 28/28/1
f 29/29/1 30/30/1 31/31/1 32/32/1
f 33/33/1 34/34/1 35/35/1 36/36/1
f 37/37/1 38/38/1 39/39/1 40/40/1
f 41/41/1 42/42/1 43/43/1 44/44/1
f 45/45/1 46/46/1 47/47/1 48/48/1
f 49/49/1 50/50/1 51/51/1 52/52/1
f 53/53/1 54/54/1 55/55/1 56/56/1
f 57/1/1 58/2/1 59/3/1 60/4/1
f 61/5/1 62/6/1 63/7/1 64/8/1
f 65/9/1 66/10/1 67/11/1 68/12/1
f 69/13/1 70/14/1 71/15/1 72/16/1
f 73/17/1 74/18/1 75/19/1 76/20/1
f 77/21/1 78/22/1 79/23/1 80/24/1
f 81/25/1 82/26/1 83/27/1 84/28/1
f 85/57/1 86/58/1 87/59/1 88/60/1
f 89/61/1 90/62/1 91/63/1 92/64/1
f 93/65/1 94/66/1 95/67/1 96/68/1
f 97/69/1 98/70/1 99/71/1 100/72/1
f 101/73/1 102/74/1 103/75/1 104/76/1
f 105/77/1 106/78/1 107/79/1 108/80/1
f 109/29/1 110/30/1 111/31/1 112/32/1
f 113/33/1 114/34/1 115/35/1 116/36/1
f 117/37/1 118/38/1 119/39/1 120/40/1
f 121/41/1 122/42/1 123/43/1 124/44/1
f 125/45/1 126/46/1 127/47/1 128/48/1
f 129/49/1 130/50/1 131/51/1 132/52/1
f 133/53/1 134/54/1 135/55/1 136/56/1
f 137/81/1 138/82/1 139/83/1 140/84/1
f 141/85/1 142/86/1 143/87/1 144/88/1
f 145/89/1 146/90/1 147/91/1 148/92/1
f 149/93/1 150/94/1 151/95/1 152/96/1
f 153/97/1 154/98/1 155/99/1 156/100/1
f 157/101/1 158/102/1 159/103/1 160/104/1
f 161/105/1 162/106/1 163/107/1 164/108/1
f 165/109/1 166/110/1 167/111/1 168/112/1
f 169/113/1 170/114/1 171/115/1 172/116/1
f 173/117/1 174/118/1 175/119/1 176/120/1
f 177/121/1 178/122/1 179/123/1 180/124/1
f 181/125/1 182/126/1 183/127/1 184/128/1
f 185/129/1 186/130/1 187/131/1 188/132/1
f 189/133/1 190/134/1 191/135/1 192/136/1
f 193/137/1 194/138/1 195/139/1 196/140/1
f 197/141/1 198/142/1 199/143/1 200/144/1
f 201/145/1 202/146/1 203/147/1 204/148/1
f 205/149/1 206/150/1 207/151/1 208/152/1
f 209/153/1 210/154/1 211/155/1 212/156/1
f 213/157/1 214/158/1 215/159/1 216/160/1
f 217/161/1 218/162/1 219/163/1 220/164/1
f 221/129/1 222/130/1 223/131/1 224/132/1
f 225/133/1 226/134/1 227/135/1 228/136/1
f 229/137/1 230/138/1 231/139/1 232/140/1
f 233/141/1 234/142/1 235/143/1 236/144/1
f 237/145/1 238/146/1 239/147/1 240/148/1
f 241/149/1 242/150/1 243/151/1 244/152/1
f 245/153/1 246/154/1 247/155/1 248/156/1
f 249/157/1 250/158/1 251/159/1 252/160/1
f 253/161/1 254/162/1 255/163/1 256/164/1
f 257/165/1 258/166/1 259/167/1 260/168/1
f 261/169/1 262/170/1 263/171/1 264/172/1
f 265/173/1 266/174/1 267/175/1 268/176/1
f 269/177/1 270/178/1 271/179/1 272/180/1
f 273/181/1 274/182/1 275/183/1 276/184/1
f 277/185/1 278/186/1 279/187/1 280/188/1
f 281/189/1 282/190/1 283/191/1 284/192/1
f 285/193/1 286/194/1 287/195/1 288/196/1
f 289/197/1 290/198/1 291/199/1 292/200/1
f 293/201/1 294/202/1 295/203/1 296/204/1
f 297/205/1 298/206/1 299/207/1 300/208/1
f 301/209/1 302/210/1 303/211/1 304/212/1
f 305/213/1 306/214/1 307/215/1 308/216/1
f 309/217/1 310/218/1 311/219/1 312/220/1
f 313/221/1 314/222/1 315/223/1 316/224/1
f 317/225/1 318/226/1 319/227/1 320/228/1

