# Tiled2Unity generated file. Do not modify by hand.
# Wavefront file for 'AtbangSanVicenteMemorial_mesh_0005.obj'

# Vertices (Count = 972)
v -8 -3 0
v -9 -3 0
v -9 -2 0
v -8 -2 0
v -7 -3 0
v -8 -3 0
v -8 -2 0
v -7 -2 0
v -14 -4 0
v -15 -4 0
v -15 -3 0
v -14 -3 0
v -13 -4 0
v -14 -4 0
v -14 -3 0
v -13 -3 0
v -8 -4 0
v -9 -4 0
v -9 -3 0
v -8 -3 0
v -7 -4 0
v -8 -4 0
v -8 -3 0
v -7 -3 0
v -14 -5 0
v -15 -5 0
v -15 -4 0
v -14 -4 0
v -13 -5 0
v -14 -5 0
v -14 -4 0
v -13 -4 0
v -5 -5 0
v -6 -5 0
v -6 -4 0
v -5 -4 0
v -4 -5 0
v -5 -5 0
v -5 -4 0
v -4 -4 0
v -3 -5 0
v -4 -5 0
v -4 -4 0
v -3 -4 0
v -2 -5 0
v -3 -5 0
v -3 -4 0
v -2 -4 0
v -11 -6 0
v -12 -6 0
v -12 -5 0
v -11 -5 0
v -10 -6 0
v -11 -6 0
v -11 -5 0
v -10 -5 0
v -9 -6 0
v -10 -6 0
v -10 -5 0
v -9 -5 0
v -8 -6 0
v -9 -6 0
v -9 -5 0
v -8 -5 0
v -5 -6 0
v -6 -6 0
v -6 -5 0
v -5 -5 0
v -4 -6 0
v -5 -6 0
v -5 -5 0
v -4 -5 0
v -3 -6 0
v -4 -6 0
v -4 -5 0
v -3 -5 0
v -2 -6 0
v -3 -6 0
v -3 -5 0
v -2 -5 0
v -11 -7 0
v -12 -7 0
v -12 -6 0
v -11 -6 0
v -10 -7 0
v -11 -7 0
v -11 -6 0
v -10 -6 0
v -9 -7 0
v -10 -7 0
v -10 -6 0
v -9 -6 0
v -8 -7 0
v -9 -7 0
v -9 -6 0
v -8 -6 0
v -6 -8 0
v -7 -8 0
v -7 -7 0
v -6 -7 0
v -5 -8 0
v -6 -8 0
v -6 -7 0
v -5 -7 0
v -4 -8 0
v -5 -8 0
v -5 -7 0
v -4 -7 0
v -3 -8 0
v -4 -8 0
v -4 -7 0
v -3 -7 0
v -6 -9 0
v -7 -9 0
v -7 -8 0
v -6 -8 0
v -5 -9 0
v -6 -9 0
v -6 -8 0
v -5 -8 0
v -4 -9 0
v -5 -9 0
v -5 -8 0
v -4 -8 0
v -3 -9 0
v -4 -9 0
v -4 -8 0
v -3 -8 0
v -27 -17 0
v -28 -17 0
v -28 -16 0
v -27 -16 0
v -26 -17 0
v -27 -17 0
v -27 -16 0
v -26 -16 0
v -25 -17 0
v -26 -17 0
v -26 -16 0
v -25 -16 0
v -24 -17 0
v -25 -17 0
v -25 -16 0
v -24 -16 0
v -27 -18 0
v -28 -18 0
v -28 -17 0
v -27 -17 0
v -26 -18 0
v -27 -18 0
v -27 -17 0
v -26 -17 0
v -25 -18 0
v -26 -18 0
v -26 -17 0
v -25 -17 0
v -24 -18 0
v -25 -18 0
v -25 -17 0
v -24 -17 0
v -24 -19 0
v -25 -19 0
v -25 -18 0
v -24 -18 0
v -23 -19 0
v -24 -19 0
v -24 -18 0
v -23 -18 0
v -29 -20 0
v -30 -20 0
v -30 -19 0
v -29 -19 0
v -28 -20 0
v -29 -20 0
v -29 -19 0
v -28 -19 0
v -27 -20 0
v -28 -20 0
v -28 -19 0
v -27 -19 0
v -24 -20 0
v -25 -20 0
v -25 -19 0
v -24 -19 0
v -23 -20 0
v -24 -20 0
v -24 -19 0
v -23 -19 0
v -29 -21 0
v -30 -21 0
v -30 -20 0
v -29 -20 0
v -28 -21 0
v -29 -21 0
v -29 -20 0
v -28 -20 0
v -27 -21 0
v -28 -21 0
v -28 -20 0
v -27 -20 0
v -26 -22 0
v -27 -22 0
v -27 -21 0
v -26 -21 0
v -25 -22 0
v -26 -22 0
v -26 -21 0
v -25 -21 0
v -24 -22 0
v -25 -22 0
v -25 -21 0
v -24 -21 0
v -23 -22 0
v -24 -22 0
v -24 -21 0
v -23 -21 0
v -29 -23 0
v -30 -23 0
v -30 -22 0
v -29 -22 0
v -28 -23 0
v -29 -23 0
v -29 -22 0
v -28 -22 0
v -26 -23 0
v -27 -23 0
v -27 -22 0
v -26 -22 0
v -25 -23 0
v -26 -23 0
v -26 -22 0
v -25 -22 0
v -24 -23 0
v -25 -23 0
v -25 -22 0
v -24 -22 0
v -23 -23 0
v -24 -23 0
v -24 -22 0
v -23 -22 0
v -29 -24 0
v -30 -24 0
v -30 -23 0
v -29 -23 0
v -28 -24 0
v -29 -24 0
v -29 -23 0
v -28 -23 0
v -27 -25 0
v -28 -25 0
v -28 -24 0
v -27 -24 0
v -26 -25 0
v -27 -25 0
v -27 -24 0
v -26 -24 0
v -27 -26 0
v -28 -26 0
v -28 -25 0
v -27 -25 0
v -26 -26 0
v -27 -26 0
v -27 -25 0
v -26 -25 0
v -12 -27 0
v -13 -27 0
v -13 -26 0
v -12 -26 0
v -11 -27 0
v -12 -27 0
v -12 -26 0
v -11 -26 0
v -10 -27 0
v -11 -27 0
v -11 -26 0
v -10 -26 0
v -9 -27 0
v -10 -27 0
v -10 -26 0
v -9 -26 0
v -12 -28 0
v -13 -28 0
v -13 -27 0
v -12 -27 0
v -11 -28 0
v -12 -28 0
v -12 -27 0
v -11 -27 0
v -10 -28 0
v -11 -28 0
v -11 -27 0
v -10 -27 0
v -9 -28 0
v -10 -28 0
v -10 -27 0
v -9 -27 0
v -28 -29 0
v -29 -29 0
v -29 -28 0
v -28 -28 0
v -27 -29 0
v -28 -29 0
v -28 -28 0
v -27 -28 0
v -28 -30 0
v -29 -30 0
v -29 -29 0
v -28 -29 0
v -27 -30 0
v -28 -30 0
v -28 -29 0
v -27 -29 0
v -15 -30 0
v -16 -30 0
v -16 -29 0
v -15 -29 0
v -14 -30 0
v -15 -30 0
v -15 -29 0
v -14 -29 0
v -13 -30 0
v -14 -30 0
v -14 -29 0
v -13 -29 0
v -12 -30 0
v -13 -30 0
v -13 -29 0
v -12 -29 0
v -15 -31 0
v -16 -31 0
v -16 -30 0
v -15 -30 0
v -14 -31 0
v -15 -31 0
v -15 -30 0
v -14 -30 0
v -13 -31 0
v -14 -31 0
v -14 -30 0
v -13 -30 0
v -12 -31 0
v -13 -31 0
v -13 -30 0
v -12 -30 0
v -4 -41 0
v -5 -41 0
v -5 -40 0
v -4 -40 0
v -3 -41 0
v -4 -41 0
v -4 -40 0
v -3 -40 0
v -2 -41 0
v -3 -41 0
v -3 -40 0
v -2 -40 0
v -1 -41 0
v -2 -41 0
v -2 -40 0
v -1 -40 0
v -4 -42 0
v -5 -42 0
v -5 -41 0
v -4 -41 0
v -3 -42 0
v -4 -42 0
v -4 -41 0
v -3 -41 0
v -2 -42 0
v -3 -42 0
v -3 -41 0
v -2 -41 0
v -1 -42 0
v -2 -42 0
v -2 -41 0
v -1 -41 0
v -2 -47 0
v -3 -47 0
v -3 -46 0
v -2 -46 0
v -1 -47 0
v -2 -47 0
v -2 -46 0
v -1 -46 0
v 0 -47 0
v -1 -47 0
v -1 -46 0
v 0 -46 0
v -2 -48 0
v -3 -48 0
v -3 -47 0
v -2 -47 0
v -1 -48 0
v -2 -48 0
v -2 -47 0
v -1 -47 0
v 0 -48 0
v -1 -48 0
v -1 -47 0
v 0 -47 0
v -28 -50 0
v -29 -50 0
v -29 -49 0
v -28 -49 0
v -27 -50 0
v -28 -50 0
v -28 -49 0
v -27 -49 0
v -26 -50 0
v -27 -50 0
v -27 -49 0
v -26 -49 0
v -25 -50 0
v -26 -50 0
v -26 -49 0
v -25 -49 0
v -4 -50 0
v -5 -50 0
v -5 -49 0
v -4 -49 0
v -3 -50 0
v -4 -50 0
v -4 -49 0
v -3 -49 0
v -2 -50 0
v -3 -50 0
v -3 -49 0
v -2 -49 0
v -1 -50 0
v -2 -50 0
v -2 -49 0
v -1 -49 0
v -28 -51 0
v -29 -51 0
v -29 -50 0
v -28 -50 0
v -27 -51 0
v -28 -51 0
v -28 -50 0
v -27 -50 0
v -26 -51 0
v -27 -51 0
v -27 -50 0
v -26 -50 0
v -25 -51 0
v -26 -51 0
v -26 -50 0
v -25 -50 0
v -4 -51 0
v -5 -51 0
v -5 -50 0
v -4 -50 0
v -3 -51 0
v -4 -51 0
v -4 -50 0
v -3 -50 0
v -2 -51 0
v -3 -51 0
v -3 -50 0
v -2 -50 0
v -1 -51 0
v -2 -51 0
v -2 -50 0
v -1 -50 0
v -25 -52 0
v -26 -52 0
v -26 -51 0
v -25 -51 0
v -24 -52 0
v -25 -52 0
v -25 -51 0
v -24 -51 0
v -23 -52 0
v -24 -52 0
v -24 -51 0
v -23 -51 0
v -22 -52 0
v -23 -52 0
v -23 -51 0
v -22 -51 0
v -25 -53 0
v -26 -53 0
v -26 -52 0
v -25 -52 0
v -24 -53 0
v -25 -53 0
v -25 -52 0
v -24 -52 0
v -23 -53 0
v -24 -53 0
v -24 -52 0
v -23 -52 0
v -22 -53 0
v -23 -53 0
v -23 -52 0
v -22 -52 0
v -28 -56 0
v -29 -56 0
v -29 -55 0
v -28 -55 0
v -27 -56 0
v -28 -56 0
v -28 -55 0
v -27 -55 0
v -26 -56 0
v -27 -56 0
v -27 -55 0
v -26 -55 0
v -25 -56 0
v -26 -56 0
v -26 -55 0
v -25 -55 0
v -28 -57 0
v -29 -57 0
v -29 -56 0
v -28 -56 0
v -27 -57 0
v -28 -57 0
v -28 -56 0
v -27 -56 0
v -26 -57 0
v -27 -57 0
v -27 -56 0
v -26 -56 0
v -25 -57 0
v -26 -57 0
v -26 -56 0
v -25 -56 0
v -10 -60 0
v -11 -60 0
v -11 -59 0
v -10 -59 0
v -9 -60 0
v -10 -60 0
v -10 -59 0
v -9 -59 0
v -8 -60 0
v -9 -60 0
v -9 -59 0
v -8 -59 0
v -7 -60 0
v -8 -60 0
v -8 -59 0
v -7 -59 0
v -14 -61 0
v -15 -61 0
v -15 -60 0
v -14 -60 0
v -13 -61 0
v -14 -61 0
v -14 -60 0
v -13 -60 0
v -12 -61 0
v -13 -61 0
v -13 -60 0
v -12 -60 0
v -11 -61 0
v -12 -61 0
v -12 -60 0
v -11 -60 0
v -10 -61 0
v -11 -61 0
v -11 -60 0
v -10 -60 0
v -9 -61 0
v -10 -61 0
v -10 -60 0
v -9 -60 0
v -8 -61 0
v -9 -61 0
v -9 -60 0
v -8 -60 0
v -7 -61 0
v -8 -61 0
v -8 -60 0
v -7 -60 0
v -14 -62 0
v -15 -62 0
v -15 -61 0
v -14 -61 0
v -13 -62 0
v -14 -62 0
v -14 -61 0
v -13 -61 0
v -12 -62 0
v -13 -62 0
v -13 -61 0
v -12 -61 0
v -11 -62 0
v -12 -62 0
v -12 -61 0
v -11 -61 0
v -5 -62 0
v -6 -62 0
v -6 -61 0
v -5 -61 0
v -4 -62 0
v -5 -62 0
v -5 -61 0
v -4 -61 0
v -3 -62 0
v -4 -62 0
v -4 -61 0
v -3 -61 0
v -2 -62 0
v -3 -62 0
v -3 -61 0
v -2 -61 0
v -5 -63 0
v -6 -63 0
v -6 -62 0
v -5 -62 0
v -4 -63 0
v -5 -63 0
v -5 -62 0
v -4 -62 0
v -3 -63 0
v -4 -63 0
v -4 -62 0
v -3 -62 0
v -2 -63 0
v -3 -63 0
v -3 -62 0
v -2 -62 0
v -15 -72 0
v -16 -72 0
v -16 -71 0
v -15 -71 0
v -14 -72 0
v -15 -72 0
v -15 -71 0
v -14 -71 0
v -15 -73 0
v -16 -73 0
v -16 -72 0
v -15 -72 0
v -14 -73 0
v -15 -73 0
v -15 -72 0
v -14 -72 0
v -14 -74 0
v -15 -74 0
v -15 -73 0
v -14 -73 0
v -13 -74 0
v -14 -74 0
v -14 -73 0
v -13 -73 0
v -14 -75 0
v -15 -75 0
v -15 -74 0
v -14 -74 0
v -13 -75 0
v -14 -75 0
v -14 -74 0
v -13 -74 0
v -14 -77 0
v -15 -77 0
v -15 -76 0
v -14 -76 0
v -14 -78 0
v -15 -78 0
v -15 -77 0
v -14 -77 0
v -13 -78 0
v -14 -78 0
v -14 -77 0
v -13 -77 0
v -14 -79 0
v -15 -79 0
v -15 -78 0
v -14 -78 0
v -13 -79 0
v -14 -79 0
v -14 -78 0
v -13 -78 0
v -12 -79 0
v -13 -79 0
v -13 -78 0
v -12 -78 0
v -11 -79 0
v -12 -79 0
v -12 -78 0
v -11 -78 0
v -10 -79 0
v -11 -79 0
v -11 -78 0
v -10 -78 0
v -9 -79 0
v -10 -79 0
v -10 -78 0
v -9 -78 0
v -8 -79 0
v -9 -79 0
v -9 -78 0
v -8 -78 0
v -7 -79 0
v -8 -79 0
v -8 -78 0
v -7 -78 0
v -27 -82 0
v -28 -82 0
v -28 -81 0
v -27 -81 0
v -26 -82 0
v -27 -82 0
v -27 -81 0
v -26 -81 0
v -27 -83 0
v -28 -83 0
v -28 -82 0
v -27 -82 0
v -26 -83 0
v -27 -83 0
v -27 -82 0
v -26 -82 0
v -28 -84 0
v -29 -84 0
v -29 -83 0
v -28 -83 0
v -27 -84 0
v -28 -84 0
v -28 -83 0
v -27 -83 0
v -28 -85 0
v -29 -85 0
v -29 -84 0
v -28 -84 0
v -27 -85 0
v -28 -85 0
v -28 -84 0
v -27 -84 0
v -26 -85 0
v -27 -85 0
v -27 -84 0
v -26 -84 0
v -25 -85 0
v -26 -85 0
v -26 -84 0
v -25 -84 0
v 0 -85 0
v -1 -85 0
v -1 -84 0
v 0 -84 0
v -26 -86 0
v -27 -86 0
v -27 -85 0
v -26 -85 0
v -25 -86 0
v -26 -86 0
v -26 -85 0
v -25 -85 0
v 0 -86 0
v -1 -86 0
v -1 -85 0
v 0 -85 0
v -3 -88 0
v -4 -88 0
v -4 -87 0
v -3 -87 0
v -2 -88 0
v -3 -88 0
v -3 -87 0
v -2 -87 0
v -3 -89 0
v -4 -89 0
v -4 -88 0
v -3 -88 0
v -2 -89 0
v -3 -89 0
v -3 -88 0
v -2 -88 0
v -27 -91 0
v -28 -91 0
v -28 -90 0
v -27 -90 0
v -26 -91 0
v -27 -91 0
v -27 -90 0
v -26 -90 0
v -25 -91 0
v -26 -91 0
v -26 -90 0
v -25 -90 0
v -24 -91 0
v -25 -91 0
v -25 -90 0
v -24 -90 0
v -27 -92 0
v -28 -92 0
v -28 -91 0
v -27 -91 0
v -26 -92 0
v -27 -92 0
v -27 -91 0
v -26 -91 0
v -25 -92 0
v -26 -92 0
v -26 -91 0
v -25 -91 0
v -24 -92 0
v -25 -92 0
v -25 -91 0
v -24 -91 0
v -2 -92 0
v -3 -92 0
v -3 -91 0
v -2 -91 0
v -1 -92 0
v -2 -92 0
v -2 -91 0
v -1 -91 0
v 0 -92 0
v -1 -92 0
v -1 -91 0
v 0 -91 0
v -8 -93 0
v -9 -93 0
v -9 -92 0
v -8 -92 0
v -7 -93 0
v -8 -93 0
v -8 -92 0
v -7 -92 0
v -2 -93 0
v -3 -93 0
v -3 -92 0
v -2 -92 0
v -1 -93 0
v -2 -93 0
v -2 -92 0
v -1 -92 0
v 0 -93 0
v -1 -93 0
v -1 -92 0
v 0 -92 0
v -8 -94 0
v -9 -94 0
v -9 -93 0
v -8 -93 0
v -7 -94 0
v -8 -94 0
v -8 -93 0
v -7 -93 0
v -26 -95 0
v -27 -95 0
v -27 -94 0
v -26 -94 0
v -25 -95 0
v -26 -95 0
v -26 -94 0
v -25 -94 0
v -24 -95 0
v -25 -95 0
v -25 -94 0
v -24 -94 0
v -23 -95 0
v -24 -95 0
v -24 -94 0
v -23 -94 0
v -5 -95 0
v -6 -95 0
v -6 -94 0
v -5 -94 0
v -4 -95 0
v -5 -95 0
v -5 -94 0
v -4 -94 0
v -3 -95 0
v -4 -95 0
v -4 -94 0
v -3 -94 0
v -2 -95 0
v -3 -95 0
v -3 -94 0
v -2 -94 0
v -26 -96 0
v -27 -96 0
v -27 -95 0
v -26 -95 0
v -25 -96 0
v -26 -96 0
v -26 -95 0
v -25 -95 0
v -24 -96 0
v -25 -96 0
v -25 -95 0
v -24 -95 0
v -23 -96 0
v -24 -96 0
v -24 -95 0
v -23 -95 0
v -5 -96 0
v -6 -96 0
v -6 -95 0
v -5 -95 0
v -4 -96 0
v -5 -96 0
v -5 -95 0
v -4 -95 0
v -3 -96 0
v -4 -96 0
v -4 -95 0
v -3 -95 0
v -2 -96 0
v -3 -96 0
v -3 -95 0
v -2 -95 0
v -7 -97 0
v -8 -97 0
v -8 -96 0
v -7 -96 0
v -6 -97 0
v -7 -97 0
v -7 -96 0
v -6 -96 0
v -7 -98 0
v -8 -98 0
v -8 -97 0
v -7 -97 0
v -6 -98 0
v -7 -98 0
v -7 -97 0
v -6 -97 0
v -5 -98 0
v -6 -98 0
v -6 -97 0
v -5 -97 0
v -4 -98 0
v -5 -98 0
v -5 -97 0
v -4 -97 0
v -3 -98 0
v -4 -98 0
v -4 -97 0
v -3 -97 0
v -2 -98 0
v -3 -98 0
v -3 -97 0
v -2 -97 0
v -1 -98 0
v -2 -98 0
v -2 -97 0
v -1 -97 0
v 0 -98 0
v -1 -98 0
v -1 -97 0
v 0 -97 0
v -5 -99 0
v -6 -99 0
v -6 -98 0
v -5 -98 0
v -4 -99 0
v -5 -99 0
v -5 -98 0
v -4 -98 0
v -3 -99 0
v -4 -99 0
v -4 -98 0
v -3 -98 0
v -2 -99 0
v -3 -99 0
v -3 -98 0
v -2 -98 0
v -1 -99 0
v -2 -99 0
v -2 -98 0
v -1 -98 0
v 0 -99 0
v -1 -99 0
v -1 -98 0
v 0 -98 0

# Texture cooridinates (Count = 52)
vt 0.1249595 0.5278999
vt 0.1455216 0.5278999
vt 0.1455216 0.5554335
vt 0.1249595 0.5554335
vt 0.1041533 0.5278999
vt 0.1247154 0.5278999
vt 0.1247154 0.5554335
vt 0.1041533 0.5554335
vt 0.1249595 0.5001221
vt 0.1455216 0.5001221
vt 0.1455216 0.5276557
vt 0.1249595 0.5276557
vt 0.1041533 0.5001221
vt 0.1247154 0.5001221
vt 0.1247154 0.5276557
vt 0.1041533 0.5276557
vt 0.0625408 0.02789986
vt 0.0831029 0.02789986
vt 0.0831029 0.05543351
vt 0.0625408 0.05543351
vt 0.04173455 0.02789986
vt 0.06229666 0.02789986
vt 0.06229666 0.05543351
vt 0.04173455 0.05543351
vt 0.02092831 0.02789986
vt 0.04149041 0.02789986
vt 0.04149041 0.05543351
vt 0.02092831 0.05543351
vt 0.0001220703 0.02789986
vt 0.02068417 0.02789986
vt 0.02068417 0.05543351
vt 0.0001220703 0.05543351
vt 0.0625408 0.0001220703
vt 0.0831029 0.0001220703
vt 0.0831029 0.02765572
vt 0.0625408 0.02765572
vt 0.04173455 0.0001220703
vt 0.06229666 0.0001220703
vt 0.06229666 0.02765572
vt 0.04173455 0.02765572
vt 0.02092831 0.0001220703
vt 0.04149041 0.0001220703
vt 0.04149041 0.02765572
vt 0.02092831 0.02765572
vt 0.0001220703 0.0001220703
vt 0.02068417 0.0001220703
vt 0.02068417 0.02765572
vt 0.0001220703 0.02765572
vt 0.04173455 0.5834554
vt 0.06229666 0.5834554
vt 0.06229666 0.610989
vt 0.04173455 0.610989

# Normal
vn 0 0 -1

# Mesh description
g AtbangSanVicenteMemorial_mesh_0005

# Faces
f 1/1/1 2/2/1 3/3/1 4/4/1
f 5/5/1 6/6/1 7/7/1 8/8/1
f 9/1/1 10/2/1 11/3/1 12/4/1
f 13/5/1 14/6/1 15/7/1 16/8/1
f 17/9/1 18/10/1 19/11/1 20/12/1
f 21/13/1 22/14/1 23/15/1 24/16/1
f 25/9/1 26/10/1 27/11/1 28/12/1
f 29/13/1 30/14/1 31/15/1 32/16/1
f 33/17/1 34/18/1 35/19/1 36/20/1
f 37/21/1 38/22/1 39/23/1 40/24/1
f 41/25/1 42/26/1 43/27/1 44/28/1
f 45/29/1 46/30/1 47/31/1 48/32/1
f 49/17/1 50/18/1 51/19/1 52/20/1
f 53/21/1 54/22/1 55/23/1 56/24/1
f 57/25/1 58/26/1 59/27/1 60/28/1
f 61/29/1 62/30/1 63/31/1 64/32/1
f 65/33/1 66/34/1 67/35/1 68/36/1
f 69/37/1 70/38/1 71/39/1 72/40/1
f 73/41/1 74/42/1 75/43/1 76/44/1
f 77/45/1 78/46/1 79/47/1 80/48/1
f 81/33/1 82/34/1 83/35/1 84/36/1
f 85/37/1 86/38/1 87/39/1 88/40/1
f 89/41/1 90/42/1 91/43/1 92/44/1
f 93/45/1 94/46/1 95/47/1 96/48/1
f 97/17/1 98/18/1 99/19/1 100/20/1
f 101/21/1 102/22/1 103/23/1 104/24/1
f 105/25/1 106/26/1 107/27/1 108/28/1
f 109/29/1 110/30/1 111/31/1 112/32/1
f 113/33/1 114/34/1 115/35/1 116/36/1
f 117/37/1 118/38/1 119/39/1 120/40/1
f 121/41/1 122/42/1 123/43/1 124/44/1
f 125/45/1 126/46/1 127/47/1 128/48/1
f 129/17/1 130/18/1 131/19/1 132/20/1
f 133/21/1 134/22/1 135/23/1 136/24/1
f 137/25/1 138/26/1 139/27/1 140/28/1
f 141/29/1 142/30/1 143/31/1 144/32/1
f 145/33/1 146/34/1 147/35/1 148/36/1
f 149/37/1 150/38/1 151/39/1 152/40/1
f 153/41/1 154/42/1 155/43/1 156/44/1
f 157/45/1 158/46/1 159/47/1 160/48/1
f 161/1/1 162/2/1 163/3/1 164/4/1
f 165/5/1 166/6/1 167/7/1 168/8/1
f 169/21/1 170/22/1 171/23/1 172/24/1
f 173/25/1 174/26/1 175/27/1 176/28/1
f 177/29/1 178/30/1 179/31/1 180/32/1
f 181/9/1 182/10/1 183/11/1 184/12/1
f 185/13/1 186/14/1 187/15/1 188/16/1
f 189/37/1 190/38/1 191/39/1 192/40/1
f 193/41/1 194/42/1 195/43/1 196/44/1
f 197/45/1 198/46/1 199/47/1 200/48/1
f 201/17/1 202/18/1 203/19/1 204/20/1
f 205/21/1 206/22/1 207/23/1 208/24/1
f 209/25/1 210/26/1 211/27/1 212/28/1
f 213/29/1 214/30/1 215/31/1 216/32/1
f 217/1/1 218/2/1 219/3/1 220/4/1
f 221/5/1 222/6/1 223/7/1 224/8/1
f 225/33/1 226/34/1 227/35/1 228/36/1
f 229/37/1 230/38/1 231/39/1 232/40/1
f 233/41/1 234/42/1 235/43/1 236/44/1
f 237/45/1 238/46/1 239/47/1 240/48/1
f 241/9/1 242/10/1 243/11/1 244/12/1
f 245/13/1 246/14/1 247/15/1 248/16/1
f 249/1/1 250/2/1 251/3/1 252/4/1
f 253/5/1 254/6/1 255/7/1 256/8/1
f 257/9/1 258/10/1 259/11/1 260/12/1
f 261/13/1 262/14/1 263/15/1 264/16/1
f 265/17/1 266/18/1 267/19/1 268/20/1
f 269/21/1 270/22/1 271/23/1 272/24/1
f 273/25/1 274/26/1 275/27/1 276/28/1
f 277/29/1 278/30/1 279/31/1 280/32/1
f 281/33/1 282/34/1 283/35/1 284/36/1
f 285/37/1 286/38/1 287/39/1 288/40/1
f 289/41/1 290/42/1 291/43/1 292/44/1
f 293/45/1 294/46/1 295/47/1 296/48/1
f 297/1/1 298/2/1 299/3/1 300/4/1
f 301/5/1 302/6/1 303/7/1 304/8/1
f 305/9/1 306/10/1 307/11/1 308/12/1
f 309/13/1 310/14/1 311/15/1 312/16/1
f 313/17/1 314/18/1 315/19/1 316/20/1
f 317/21/1 318/22/1 319/23/1 320/24/1
f 321/25/1 322/26/1 323/27/1 324/28/1
f 325/29/1 326/30/1 327/31/1 328/32/1
f 329/33/1 330/34/1 331/35/1 332/36/1
f 333/37/1 334/38/1 335/39/1 336/40/1
f 337/41/1 338/42/1 339/43/1 340/44/1
f 341/45/1 342/46/1 343/47/1 344/48/1
f 345/17/1 346/18/1 347/19/1 348/20/1
f 349/21/1 350/22/1 351/23/1 352/24/1
f 353/25/1 354/26/1 355/27/1 356/28/1
f 357/29/1 358/30/1 359/31/1 360/32/1
f 361/33/1 362/34/1 363/35/1 364/36/1
f 365/37/1 366/38/1 367/39/1 368/40/1
f 369/41/1 370/42/1 371/43/1 372/44/1
f 373/45/1 374/46/1 375/47/1 376/48/1
f 377/17/1 378/18/1 379/19/1 380/20/1
f 381/21/1 382/22/1 383/23/1 384/24/1
f 385/25/1 386/26/1 387/27/1 388/28/1
f 389/33/1 390/34/1 391/35/1 392/36/1
f 393/37/1 394/38/1 395/39/1 396/40/1
f 397/41/1 398/42/1 399/43/1 400/44/1
f 401/17/1 402/18/1 403/19/1 404/20/1
f 405/21/1 406/22/1 407/23/1 408/24/1
f 409/25/1 410/26/1 411/27/1 412/28/1
f 413/29/1 414/30/1 415/31/1 416/32/1
f 417/17/1 418/18/1 419/19/1 420/20/1
f 421/21/1 422/22/1 423/23/1 424/24/1
f 425/25/1 426/26/1 427/27/1 428/28/1
f 429/29/1 430/30/1 431/31/1 432/32/1
f 433/33/1 434/34/1 435/35/1 436/36/1
f 437/37/1 438/38/1 439/39/1 440/40/1
f 441/41/1 442/42/1 443/43/1 444/44/1
f 445/45/1 446/46/1 447/47/1 448/48/1
f 449/33/1 450/34/1 451/35/1 452/36/1
f 453/37/1 454/38/1 455/39/1 456/40/1
f 457/41/1 458/42/1 459/43/1 460/44/1
f 461/45/1 462/46/1 463/47/1 464/48/1
f 465/17/1 466/18/1 467/19/1 468/20/1
f 469/21/1 470/22/1 471/23/1 472/24/1
f 473/25/1 474/26/1 475/27/1 476/28/1
f 477/29/1 478/30/1 479/31/1 480/32/1
f 481/33/1 482/34/1 483/35/1 484/36/1
f 485/37/1 486/38/1 487/39/1 488/40/1
f 489/41/1 490/42/1 491/43/1 492/44/1
f 493/45/1 494/46/1 495/47/1 496/48/1
f 497/17/1 498/18/1 499/19/1 500/20/1
f 501/21/1 502/22/1 503/23/1 504/24/1
f 505/25/1 506/26/1 507/27/1 508/28/1
f 509/29/1 510/30/1 511/31/1 512/32/1
f 513/33/1 514/34/1 515/35/1 516/36/1
f 517/37/1 518/38/1 519/39/1 520/40/1
f 521/41/1 522/42/1 523/43/1 524/44/1
f 525/45/1 526/46/1 527/47/1 528/48/1
f 529/17/1 530/18/1 531/19/1 532/20/1
f 533/21/1 534/22/1 535/23/1 536/24/1
f 537/25/1 538/26/1 539/27/1 540/28/1
f 541/29/1 542/30/1 543/31/1 544/32/1
f 545/17/1 546/18/1 547/19/1 548/20/1
f 549/21/1 550/22/1 551/23/1 552/24/1
f 553/25/1 554/26/1 555/27/1 556/28/1
f 557/29/1 558/30/1 559/31/1 560/32/1
f 561/33/1 562/34/1 563/35/1 564/36/1
f 565/37/1 566/38/1 567/39/1 568/40/1
f 569/41/1 570/42/1 571/43/1 572/44/1
f 573/45/1 574/46/1 575/47/1 576/48/1
f 577/33/1 578/34/1 579/35/1 580/36/1
f 581/37/1 582/38/1 583/39/1 584/40/1
f 585/41/1 586/42/1 587/43/1 588/44/1
f 589/45/1 590/46/1 591/47/1 592/48/1
f 593/17/1 594/18/1 595/19/1 596/20/1
f 597/21/1 598/22/1 599/23/1 600/24/1
f 601/25/1 602/26/1 603/27/1 604/28/1
f 605/29/1 606/30/1 607/31/1 608/32/1
f 609/33/1 610/34/1 611/35/1 612/36/1
f 613/37/1 614/38/1 615/39/1 616/40/1
f 617/41/1 618/42/1 619/43/1 620/44/1
f 621/45/1 622/46/1 623/47/1 624/48/1
f 625/1/1 626/2/1 627/3/1 628/4/1
f 629/5/1 630/6/1 631/7/1 632/8/1
f 633/9/1 634/10/1 635/11/1 636/12/1
f 637/13/1 638/14/1 639/15/1 640/16/1
f 641/1/1 642/2/1 643/3/1 644/4/1
f 645/5/1 646/6/1 647/7/1 648/8/1
f 649/9/1 650/10/1 651/11/1 652/12/1
f 653/13/1 654/14/1 655/15/1 656/16/1
f 657/49/1 658/50/1 659/51/1 660/52/1
f 661/49/1 662/50/1 663/51/1 664/52/1
f 665/49/1 666/50/1 667/51/1 668/52/1
f 669/49/1 670/50/1 671/51/1 672/52/1
f 673/49/1 674/50/1 675/51/1 676/52/1
f 677/49/1 678/50/1 679/51/1 680/52/1
f 681/49/1 682/50/1 683/51/1 684/52/1
f 685/49/1 686/50/1 687/51/1 688/52/1
f 689/49/1 690/50/1 691/51/1 692/52/1
f 693/49/1 694/50/1 695/51/1 696/52/1
f 697/49/1 698/50/1 699/51/1 700/52/1
f 701/1/1 702/2/1 703/3/1 704/4/1
f 705/5/1 706/6/1 707/7/1 708/8/1
f 709/9/1 710/10/1 711/11/1 712/12/1
f 713/13/1 714/14/1 715/15/1 716/16/1
f 717/1/1 718/2/1 719/3/1 720/4/1
f 721/5/1 722/6/1 723/7/1 724/8/1
f 725/9/1 726/10/1 727/11/1 728/12/1
f 729/13/1 730/14/1 731/15/1 732/16/1
f 733/1/1 734/2/1 735/3/1 736/4/1
f 737/5/1 738/6/1 739/7/1 740/8/1
f 741/1/1 742/2/1 743/3/1 744/4/1
f 745/9/1 746/10/1 747/11/1 748/12/1
f 749/13/1 750/14/1 751/15/1 752/16/1
f 753/9/1 754/10/1 755/11/1 756/12/1
f 757/1/1 758/2/1 759/3/1 760/4/1
f 761/5/1 762/6/1 763/7/1 764/8/1
f 765/9/1 766/10/1 767/11/1 768/12/1
f 769/13/1 770/14/1 771/15/1 772/16/1
f 773/17/1 774/18/1 775/19/1 776/20/1
f 777/21/1 778/22/1 779/23/1 780/24/1
f 781/25/1 782/26/1 783/27/1 784/28/1
f 785/29/1 786/30/1 787/31/1 788/32/1
f 789/33/1 790/34/1 791/35/1 792/36/1
f 793/37/1 794/38/1 795/39/1 796/40/1
f 797/41/1 798/42/1 799/43/1 800/44/1
f 801/45/1 802/46/1 803/47/1 804/48/1
f 805/17/1 806/18/1 807/19/1 808/20/1
f 809/21/1 810/22/1 811/23/1 812/24/1
f 813/25/1 814/26/1 815/27/1 816/28/1
f 817/1/1 818/2/1 819/3/1 820/4/1
f 821/5/1 822/6/1 823/7/1 824/8/1
f 825/33/1 826/34/1 827/35/1 828/36/1
f 829/37/1 830/38/1 831/39/1 832/40/1
f 833/41/1 834/42/1 835/43/1 836/44/1
f 837/9/1 838/10/1 839/11/1 840/12/1
f 841/13/1 842/14/1 843/15/1 844/16/1
f 845/17/1 846/18/1 847/19/1 848/20/1
f 849/21/1 850/22/1 851/23/1 852/24/1
f 853/25/1 854/26/1 855/27/1 856/28/1
f 857/29/1 858/30/1 859/31/1 860/32/1
f 861/17/1 862/18/1 863/19/1 864/20/1
f 865/21/1 866/22/1 867/23/1 868/24/1
f 869/25/1 870/26/1 871/27/1 872/28/1
f 873/29/1 874/30/1 875/31/1 876/32/1
f 877/33/1 878/34/1 879/35/1 880/36/1
f 881/37/1 882/38/1 883/39/1 884/40/1
f 885/41/1 886/42/1 887/43/1 888/44/1
f 889/45/1 890/46/1 891/47/1 892/48/1
f 893/33/1 894/34/1 895/35/1 896/36/1
f 897/37/1 898/38/1 899/39/1 900/40/1
f 901/41/1 902/42/1 903/43/1 904/44/1
f 905/45/1 906/46/1 907/47/1 908/48/1
f 909/1/1 910/2/1 911/3/1 912/4/1
f 913/5/1 914/6/1 915/7/1 916/8/1
f 917/9/1 918/10/1 919/11/1 920/12/1
f 921/13/1 922/14/1 923/15/1 924/16/1
f 925/17/1 926/18/1 927/19/1 928/20/1
f 929/21/1 930/22/1 931/23/1 932/24/1
f 933/25/1 934/26/1 935/27/1 936/28/1
f 937/29/1 938/30/1 939/31/1 940/32/1
f 941/1/1 942/2/1 943/3/1 944/4/1
f 945/5/1 946/6/1 947/7/1 948/8/1
f 949/33/1 950/34/1 951/35/1 952/36/1
f 953/37/1 954/38/1 955/39/1 956/40/1
f 957/41/1 958/42/1 959/43/1 960/44/1
f 961/45/1 962/46/1 963/47/1 964/48/1
f 965/9/1 966/10/1 967/11/1 968/12/1
f 969/13/1 970/14/1 971/15/1 972/16/1

