# Tiled2Unity generated file. Do not modify by hand.
# Wavefront file for 'UpperObrero_mesh_0005.obj'

# Vertices (Count = 996)
v -21 -2 0
v -22 -2 0
v -22 -1 0
v -21 -1 0
v -20 -2 0
v -21 -2 0
v -21 -1 0
v -20 -1 0
v -19 -2 0
v -20 -2 0
v -20 -1 0
v -19 -1 0
v -18 -2 0
v -19 -2 0
v -19 -1 0
v -18 -1 0
v -21 -3 0
v -22 -3 0
v -22 -2 0
v -21 -2 0
v -20 -3 0
v -21 -3 0
v -21 -2 0
v -20 -2 0
v -19 -3 0
v -20 -3 0
v -20 -2 0
v -19 -2 0
v -18 -3 0
v -19 -3 0
v -19 -2 0
v -18 -2 0
v -16 -3 0
v -17 -3 0
v -17 -2 0
v -16 -2 0
v -15 -3 0
v -16 -3 0
v -16 -2 0
v -15 -2 0
v -14 -3 0
v -15 -3 0
v -15 -2 0
v -14 -2 0
v -13 -3 0
v -14 -3 0
v -14 -2 0
v -13 -2 0
v -24 -4 0
v -25 -4 0
v -25 -3 0
v -24 -3 0
v -23 -4 0
v -24 -4 0
v -24 -3 0
v -23 -3 0
v -22 -4 0
v -23 -4 0
v -23 -3 0
v -22 -3 0
v -21 -4 0
v -22 -4 0
v -22 -3 0
v -21 -3 0
v -20 -4 0
v -21 -4 0
v -21 -3 0
v -20 -3 0
v -19 -4 0
v -20 -4 0
v -20 -3 0
v -19 -3 0
v -18 -4 0
v -19 -4 0
v -19 -3 0
v -18 -3 0
v -16 -4 0
v -17 -4 0
v -17 -3 0
v -16 -3 0
v -15 -4 0
v -16 -4 0
v -16 -3 0
v -15 -3 0
v -14 -4 0
v -15 -4 0
v -15 -3 0
v -14 -3 0
v -13 -4 0
v -14 -4 0
v -14 -3 0
v -13 -3 0
v -24 -5 0
v -25 -5 0
v -25 -4 0
v -24 -4 0
v -23 -5 0
v -24 -5 0
v -24 -4 0
v -23 -4 0
v -22 -5 0
v -23 -5 0
v -23 -4 0
v -22 -4 0
v -21 -5 0
v -22 -5 0
v -22 -4 0
v -21 -4 0
v -20 -5 0
v -21 -5 0
v -21 -4 0
v -20 -4 0
v -19 -5 0
v -20 -5 0
v -20 -4 0
v -19 -4 0
v -18 -5 0
v -19 -5 0
v -19 -4 0
v -18 -4 0
v -16 -5 0
v -17 -5 0
v -17 -4 0
v -16 -4 0
v -15 -5 0
v -16 -5 0
v -16 -4 0
v -15 -4 0
v -14 -5 0
v -15 -5 0
v -15 -4 0
v -14 -4 0
v -13 -5 0
v -14 -5 0
v -14 -4 0
v -13 -4 0
v -24 -6 0
v -25 -6 0
v -25 -5 0
v -24 -5 0
v -23 -6 0
v -24 -6 0
v -24 -5 0
v -23 -5 0
v -22 -6 0
v -23 -6 0
v -23 -5 0
v -22 -5 0
v -21 -6 0
v -22 -6 0
v -22 -5 0
v -21 -5 0
v -16 -6 0
v -17 -6 0
v -17 -5 0
v -16 -5 0
v -15 -6 0
v -16 -6 0
v -16 -5 0
v -15 -5 0
v -14 -6 0
v -15 -6 0
v -15 -5 0
v -14 -5 0
v -13 -6 0
v -14 -6 0
v -14 -5 0
v -13 -5 0
v -24 -7 0
v -25 -7 0
v -25 -6 0
v -24 -6 0
v -23 -7 0
v -24 -7 0
v -24 -6 0
v -23 -6 0
v -22 -7 0
v -23 -7 0
v -23 -6 0
v -22 -6 0
v -21 -7 0
v -22 -7 0
v -22 -6 0
v -21 -6 0
v -47 -9 0
v -48 -9 0
v -48 -8 0
v -47 -8 0
v -46 -9 0
v -47 -9 0
v -47 -8 0
v -46 -8 0
v -45 -9 0
v -46 -9 0
v -46 -8 0
v -45 -8 0
v -44 -9 0
v -45 -9 0
v -45 -8 0
v -44 -8 0
v -47 -10 0
v -48 -10 0
v -48 -9 0
v -47 -9 0
v -46 -10 0
v -47 -10 0
v -47 -9 0
v -46 -9 0
v -45 -10 0
v -46 -10 0
v -46 -9 0
v -45 -9 0
v -44 -10 0
v -45 -10 0
v -45 -9 0
v -44 -9 0
v -47 -11 0
v -48 -11 0
v -48 -10 0
v -47 -10 0
v -46 -11 0
v -47 -11 0
v -47 -10 0
v -46 -10 0
v -45 -11 0
v -46 -11 0
v -46 -10 0
v -45 -10 0
v -44 -11 0
v -45 -11 0
v -45 -10 0
v -44 -10 0
v -47 -12 0
v -48 -12 0
v -48 -11 0
v -47 -11 0
v -46 -12 0
v -47 -12 0
v -47 -11 0
v -46 -11 0
v -45 -12 0
v -46 -12 0
v -46 -11 0
v -45 -11 0
v -44 -12 0
v -45 -12 0
v -45 -11 0
v -44 -11 0
v -47 -13 0
v -48 -13 0
v -48 -12 0
v -47 -12 0
v -46 -13 0
v -47 -13 0
v -47 -12 0
v -46 -12 0
v -45 -13 0
v -46 -13 0
v -46 -12 0
v -45 -12 0
v -44 -13 0
v -45 -13 0
v -45 -12 0
v -44 -12 0
v -8 -13 0
v -9 -13 0
v -9 -12 0
v -8 -12 0
v -7 -13 0
v -8 -13 0
v -8 -12 0
v -7 -12 0
v -6 -13 0
v -7 -13 0
v -7 -12 0
v -6 -12 0
v -5 -13 0
v -6 -13 0
v -6 -12 0
v -5 -12 0
v -47 -14 0
v -48 -14 0
v -48 -13 0
v -47 -13 0
v -46 -14 0
v -47 -14 0
v -47 -13 0
v -46 -13 0
v -45 -14 0
v -46 -14 0
v -46 -13 0
v -45 -13 0
v -44 -14 0
v -45 -14 0
v -45 -13 0
v -44 -13 0
v -8 -14 0
v -9 -14 0
v -9 -13 0
v -8 -13 0
v -7 -14 0
v -8 -14 0
v -8 -13 0
v -7 -13 0
v -6 -14 0
v -7 -14 0
v -7 -13 0
v -6 -13 0
v -5 -14 0
v -6 -14 0
v -6 -13 0
v -5 -13 0
v -47 -15 0
v -48 -15 0
v -48 -14 0
v -47 -14 0
v -46 -15 0
v -47 -15 0
v -47 -14 0
v -46 -14 0
v -45 -15 0
v -46 -15 0
v -46 -14 0
v -45 -14 0
v -44 -15 0
v -45 -15 0
v -45 -14 0
v -44 -14 0
v -20 -15 0
v -21 -15 0
v -21 -14 0
v -20 -14 0
v -19 -15 0
v -20 -15 0
v -20 -14 0
v -19 -14 0
v -18 -15 0
v -19 -15 0
v -19 -14 0
v -18 -14 0
v -17 -15 0
v -18 -15 0
v -18 -14 0
v -17 -14 0
v -13 -15 0
v -14 -15 0
v -14 -14 0
v -13 -14 0
v -12 -15 0
v -13 -15 0
v -13 -14 0
v -12 -14 0
v -11 -15 0
v -12 -15 0
v -12 -14 0
v -11 -14 0
v -10 -15 0
v -11 -15 0
v -11 -14 0
v -10 -14 0
v -8 -15 0
v -9 -15 0
v -9 -14 0
v -8 -14 0
v -7 -15 0
v -8 -15 0
v -8 -14 0
v -7 -14 0
v -6 -15 0
v -7 -15 0
v -7 -14 0
v -6 -14 0
v -5 -15 0
v -6 -15 0
v -6 -14 0
v -5 -14 0
v -47 -16 0
v -48 -16 0
v -48 -15 0
v -47 -15 0
v -46 -16 0
v -47 -16 0
v -47 -15 0
v -46 -15 0
v -45 -16 0
v -46 -16 0
v -46 -15 0
v -45 -15 0
v -44 -16 0
v -45 -16 0
v -45 -15 0
v -44 -15 0
v -20 -16 0
v -21 -16 0
v -21 -15 0
v -20 -15 0
v -19 -16 0
v -20 -16 0
v -20 -15 0
v -19 -15 0
v -18 -16 0
v -19 -16 0
v -19 -15 0
v -18 -15 0
v -17 -16 0
v -18 -16 0
v -18 -15 0
v -17 -15 0
v -13 -16 0
v -14 -16 0
v -14 -15 0
v -13 -15 0
v -12 -16 0
v -13 -16 0
v -13 -15 0
v -12 -15 0
v -11 -16 0
v -12 -16 0
v -12 -15 0
v -11 -15 0
v -10 -16 0
v -11 -16 0
v -11 -15 0
v -10 -15 0
v -8 -16 0
v -9 -16 0
v -9 -15 0
v -8 -15 0
v -7 -16 0
v -8 -16 0
v -8 -15 0
v -7 -15 0
v -6 -16 0
v -7 -16 0
v -7 -15 0
v -6 -15 0
v -5 -16 0
v -6 -16 0
v -6 -15 0
v -5 -15 0
v -20 -17 0
v -21 -17 0
v -21 -16 0
v -20 -16 0
v -19 -17 0
v -20 -17 0
v -20 -16 0
v -19 -16 0
v -18 -17 0
v -19 -17 0
v -19 -16 0
v -18 -16 0
v -17 -17 0
v -18 -17 0
v -18 -16 0
v -17 -16 0
v -13 -17 0
v -14 -17 0
v -14 -16 0
v -13 -16 0
v -12 -17 0
v -13 -17 0
v -13 -16 0
v -12 -16 0
v -11 -17 0
v -12 -17 0
v -12 -16 0
v -11 -16 0
v -10 -17 0
v -11 -17 0
v -11 -16 0
v -10 -16 0
v -20 -18 0
v -21 -18 0
v -21 -17 0
v -20 -17 0
v -19 -18 0
v -20 -18 0
v -20 -17 0
v -19 -17 0
v -18 -18 0
v -19 -18 0
v -19 -17 0
v -18 -17 0
v -17 -18 0
v -18 -18 0
v -18 -17 0
v -17 -17 0
v -15 -18 0
v -16 -18 0
v -16 -17 0
v -15 -17 0
v -14 -18 0
v -15 -18 0
v -15 -17 0
v -14 -17 0
v -13 -18 0
v -14 -18 0
v -14 -17 0
v -13 -17 0
v -12 -18 0
v -13 -18 0
v -13 -17 0
v -12 -17 0
v -11 -18 0
v -12 -18 0
v -12 -17 0
v -11 -17 0
v -10 -18 0
v -11 -18 0
v -11 -17 0
v -10 -17 0
v -47 -19 0
v -48 -19 0
v -48 -18 0
v -47 -18 0
v -46 -19 0
v -47 -19 0
v -47 -18 0
v -46 -18 0
v -45 -19 0
v -46 -19 0
v -46 -18 0
v -45 -18 0
v -44 -19 0
v -45 -19 0
v -45 -18 0
v -44 -18 0
v -15 -19 0
v -16 -19 0
v -16 -18 0
v -15 -18 0
v -14 -19 0
v -15 -19 0
v -15 -18 0
v -14 -18 0
v -13 -19 0
v -14 -19 0
v -14 -18 0
v -13 -18 0
v -12 -19 0
v -13 -19 0
v -13 -18 0
v -12 -18 0
v -47 -20 0
v -48 -20 0
v -48 -19 0
v -47 -19 0
v -46 -20 0
v -47 -20 0
v -47 -19 0
v -46 -19 0
v -45 -20 0
v -46 -20 0
v -46 -19 0
v -45 -19 0
v -44 -20 0
v -45 -20 0
v -45 -19 0
v -44 -19 0
v -15 -20 0
v -16 -20 0
v -16 -19 0
v -15 -19 0
v -14 -20 0
v -15 -20 0
v -15 -19 0
v -14 -19 0
v -13 -20 0
v -14 -20 0
v -14 -19 0
v -13 -19 0
v -12 -20 0
v -13 -20 0
v -13 -19 0
v -12 -19 0
v -47 -21 0
v -48 -21 0
v -48 -20 0
v -47 -20 0
v -46 -21 0
v -47 -21 0
v -47 -20 0
v -46 -20 0
v -45 -21 0
v -46 -21 0
v -46 -20 0
v -45 -20 0
v -44 -21 0
v -45 -21 0
v -45 -20 0
v -44 -20 0
v -15 -21 0
v -16 -21 0
v -16 -20 0
v -15 -20 0
v -14 -21 0
v -15 -21 0
v -15 -20 0
v -14 -20 0
v -13 -21 0
v -14 -21 0
v -14 -20 0
v -13 -20 0
v -12 -21 0
v -13 -21 0
v -13 -20 0
v -12 -20 0
v -47 -22 0
v -48 -22 0
v -48 -21 0
v -47 -21 0
v -46 -22 0
v -47 -22 0
v -47 -21 0
v -46 -21 0
v -45 -22 0
v -46 -22 0
v -46 -21 0
v -45 -21 0
v -44 -22 0
v -45 -22 0
v -45 -21 0
v -44 -21 0
v -10 -22 0
v -11 -22 0
v -11 -21 0
v -10 -21 0
v -9 -22 0
v -10 -22 0
v -10 -21 0
v -9 -21 0
v -8 -22 0
v -9 -22 0
v -9 -21 0
v -8 -21 0
v -7 -22 0
v -8 -22 0
v -8 -21 0
v -7 -21 0
v -2 -22 0
v -3 -22 0
v -3 -21 0
v -2 -21 0
v -1 -22 0
v -2 -22 0
v -2 -21 0
v -1 -21 0
v 0 -22 0
v -1 -22 0
v -1 -21 0
v 0 -21 0
v -10 -23 0
v -11 -23 0
v -11 -22 0
v -10 -22 0
v -9 -23 0
v -10 -23 0
v -10 -22 0
v -9 -22 0
v -8 -23 0
v -9 -23 0
v -9 -22 0
v -8 -22 0
v -7 -23 0
v -8 -23 0
v -8 -22 0
v -7 -22 0
v -5 -23 0
v -6 -23 0
v -6 -22 0
v -5 -22 0
v -4 -23 0
v -5 -23 0
v -5 -22 0
v -4 -22 0
v -3 -23 0
v -4 -23 0
v -4 -22 0
v -3 -22 0
v -2 -23 0
v -3 -23 0
v -3 -22 0
v -2 -22 0
v -1 -23 0
v -2 -23 0
v -2 -22 0
v -1 -22 0
v 0 -23 0
v -1 -23 0
v -1 -22 0
v 0 -22 0
v -10 -24 0
v -11 -24 0
v -11 -23 0
v -10 -23 0
v -9 -24 0
v -10 -24 0
v -10 -23 0
v -9 -23 0
v -8 -24 0
v -9 -24 0
v -9 -23 0
v -8 -23 0
v -7 -24 0
v -8 -24 0
v -8 -23 0
v -7 -23 0
v -5 -24 0
v -6 -24 0
v -6 -23 0
v -5 -23 0
v -4 -24 0
v -5 -24 0
v -5 -23 0
v -4 -23 0
v -3 -24 0
v -4 -24 0
v -4 -23 0
v -3 -23 0
v -2 -24 0
v -3 -24 0
v -3 -23 0
v -2 -23 0
v -1 -24 0
v -2 -24 0
v -2 -23 0
v -1 -23 0
v 0 -24 0
v -1 -24 0
v -1 -23 0
v 0 -23 0
v -10 -25 0
v -11 -25 0
v -11 -24 0
v -10 -24 0
v -9 -25 0
v -10 -25 0
v -10 -24 0
v -9 -24 0
v -8 -25 0
v -9 -25 0
v -9 -24 0
v -8 -24 0
v -7 -25 0
v -8 -25 0
v -8 -24 0
v -7 -24 0
v -5 -25 0
v -6 -25 0
v -6 -24 0
v -5 -24 0
v -4 -25 0
v -5 -25 0
v -5 -24 0
v -4 -24 0
v -3 -25 0
v -4 -25 0
v -4 -24 0
v -3 -24 0
v -2 -25 0
v -3 -25 0
v -3 -24 0
v -2 -24 0
v -1 -25 0
v -2 -25 0
v -2 -24 0
v -1 -24 0
v 0 -25 0
v -1 -25 0
v -1 -24 0
v 0 -24 0
v -5 -26 0
v -6 -26 0
v -6 -25 0
v -5 -25 0
v -4 -26 0
v -5 -26 0
v -5 -25 0
v -4 -25 0
v -3 -26 0
v -4 -26 0
v -4 -25 0
v -3 -25 0
v -2 -26 0
v -3 -26 0
v -3 -25 0
v -2 -25 0
v -1 -26 0
v -2 -26 0
v -2 -25 0
v -1 -25 0
v 0 -26 0
v -1 -26 0
v -1 -25 0
v 0 -25 0
v -1 -27 0
v -2 -27 0
v -2 -26 0
v -1 -26 0
v 0 -27 0
v -1 -27 0
v -1 -26 0
v 0 -26 0
v -3 -28 0
v -4 -28 0
v -4 -27 0
v -3 -27 0
v -2 -28 0
v -3 -28 0
v -3 -27 0
v -2 -27 0
v -1 -28 0
v -2 -28 0
v -2 -27 0
v -1 -27 0
v 0 -28 0
v -1 -28 0
v -1 -27 0
v 0 -27 0
v -3 -29 0
v -4 -29 0
v -4 -28 0
v -3 -28 0
v -2 -29 0
v -3 -29 0
v -3 -28 0
v -2 -28 0
v -1 -29 0
v -2 -29 0
v -2 -28 0
v -1 -28 0
v 0 -29 0
v -1 -29 0
v -1 -28 0
v 0 -28 0
v -10 -30 0
v -11 -30 0
v -11 -29 0
v -10 -29 0
v -9 -30 0
v -10 -30 0
v -10 -29 0
v -9 -29 0
v -8 -30 0
v -9 -30 0
v -9 -29 0
v -8 -29 0
v -7 -30 0
v -8 -30 0
v -8 -29 0
v -7 -29 0
v -3 -30 0
v -4 -30 0
v -4 -29 0
v -3 -29 0
v -2 -30 0
v -3 -30 0
v -3 -29 0
v -2 -29 0
v -1 -30 0
v -2 -30 0
v -2 -29 0
v -1 -29 0
v 0 -30 0
v -1 -30 0
v -1 -29 0
v 0 -29 0
v -10 -31 0
v -11 -31 0
v -11 -30 0
v -10 -30 0
v -9 -31 0
v -10 -31 0
v -10 -30 0
v -9 -30 0
v -8 -31 0
v -9 -31 0
v -9 -30 0
v -8 -30 0
v -7 -31 0
v -8 -31 0
v -8 -30 0
v -7 -30 0
v -3 -31 0
v -4 -31 0
v -4 -30 0
v -3 -30 0
v -2 -31 0
v -3 -31 0
v -3 -30 0
v -2 -30 0
v -1 -31 0
v -2 -31 0
v -2 -30 0
v -1 -30 0
v 0 -31 0
v -1 -31 0
v -1 -30 0
v 0 -30 0
v -10 -32 0
v -11 -32 0
v -11 -31 0
v -10 -31 0
v -9 -32 0
v -10 -32 0
v -10 -31 0
v -9 -31 0
v -8 -32 0
v -9 -32 0
v -9 -31 0
v -8 -31 0
v -7 -32 0
v -8 -32 0
v -8 -31 0
v -7 -31 0
v -10 -33 0
v -11 -33 0
v -11 -32 0
v -10 -32 0
v -9 -33 0
v -10 -33 0
v -10 -32 0
v -9 -32 0
v -8 -33 0
v -9 -33 0
v -9 -32 0
v -8 -32 0
v -7 -33 0
v -8 -33 0
v -8 -32 0
v -7 -32 0
v -3 -34 0
v -4 -34 0
v -4 -33 0
v -3 -33 0
v -2 -34 0
v -3 -34 0
v -3 -33 0
v -2 -33 0
v -1 -34 0
v -2 -34 0
v -2 -33 0
v -1 -33 0
v 0 -34 0
v -1 -34 0
v -1 -33 0
v 0 -33 0
v -3 -35 0
v -4 -35 0
v -4 -34 0
v -3 -34 0
v -2 -35 0
v -3 -35 0
v -3 -34 0
v -2 -34 0
v -1 -35 0
v -2 -35 0
v -2 -34 0
v -1 -34 0
v 0 -35 0
v -1 -35 0
v -1 -34 0
v 0 -34 0
v -3 -36 0
v -4 -36 0
v -4 -35 0
v -3 -35 0
v -2 -36 0
v -3 -36 0
v -3 -35 0
v -2 -35 0
v -1 -36 0
v -2 -36 0
v -2 -35 0
v -1 -35 0
v 0 -36 0
v -1 -36 0
v -1 -35 0
v 0 -35 0
v -3 -37 0
v -4 -37 0
v -4 -36 0
v -3 -36 0
v -2 -37 0
v -3 -37 0
v -3 -36 0
v -2 -36 0
v -1 -37 0
v -2 -37 0
v -2 -36 0
v -1 -36 0
v 0 -37 0
v -1 -37 0
v -1 -36 0
v 0 -36 0

# Texture cooridinates (Count = 64)
vt 0.9572092 0.5556777
vt 0.9777713 0.5556777
vt 0.9777713 0.5832113
vt 0.9572092 0.5832113
vt 0.936403 0.5556777
vt 0.956965 0.5556777
vt 0.956965 0.5832113
vt 0.936403 0.5832113
vt 0.9155967 0.5556777
vt 0.9361588 0.5556777
vt 0.9361588 0.5832113
vt 0.9155967 0.5832113
vt 0.8947905 0.5556777
vt 0.9153526 0.5556777
vt 0.9153526 0.5832113
vt 0.8947905 0.5832113
vt 0.9572092 0.5278999
vt 0.9777713 0.5278999
vt 0.9777713 0.5554335
vt 0.9572092 0.5554335
vt 0.936403 0.5278999
vt 0.956965 0.5278999
vt 0.956965 0.5554335
vt 0.936403 0.5554335
vt 0.9155967 0.5278999
vt 0.9361588 0.5278999
vt 0.9361588 0.5554335
vt 0.9155967 0.5554335
vt 0.8947905 0.5278999
vt 0.9153526 0.5278999
vt 0.9153526 0.5554335
vt 0.8947905 0.5554335
vt 0.9572092 0.5001221
vt 0.9777713 0.5001221
vt 0.9777713 0.5276557
vt 0.9572092 0.5276557
vt 0.936403 0.5001221
vt 0.956965 0.5001221
vt 0.956965 0.5276557
vt 0.936403 0.5276557
vt 0.9155967 0.5001221
vt 0.9361588 0.5001221
vt 0.9361588 0.5276557
vt 0.9155967 0.5276557
vt 0.8947905 0.5001221
vt 0.9153526 0.5001221
vt 0.9153526 0.5276557
vt 0.8947905 0.5276557
vt 0.9572092 0.4723443
vt 0.9777713 0.4723443
vt 0.9777713 0.4998779
vt 0.9572092 0.4998779
vt 0.936403 0.4723443
vt 0.956965 0.4723443
vt 0.956965 0.4998779
vt 0.936403 0.4998779
vt 0.9155967 0.4723443
vt 0.9361588 0.4723443
vt 0.9361588 0.4998779
vt 0.9155967 0.4998779
vt 0.8947905 0.4723443
vt 0.9153526 0.4723443
vt 0.9153526 0.4998779
vt 0.8947905 0.4998779

# Normal
vn 0 0 -1

# Mesh description
g UpperObrero_mesh_0005

# Faces
f 1/1/1 2/2/1 3/3/1 4/4/1
f 5/5/1 6/6/1 7/7/1 8/8/1
f 9/9/1 10/10/1 11/11/1 12/12/1
f 13/13/1 14/14/1 15/15/1 16/16/1
f 17/17/1 18/18/1 19/19/1 20/20/1
f 21/21/1 22/22/1 23/23/1 24/24/1
f 25/25/1 26/26/1 27/27/1 28/28/1
f 29/29/1 30/30/1 31/31/1 32/32/1
f 33/1/1 34/2/1 35/3/1 36/4/1
f 37/5/1 38/6/1 39/7/1 40/8/1
f 41/9/1 42/10/1 43/11/1 44/12/1
f 45/13/1 46/14/1 47/15/1 48/16/1
f 49/1/1 50/2/1 51/3/1 52/4/1
f 53/5/1 54/6/1 55/7/1 56/8/1
f 57/9/1 58/10/1 59/11/1 60/12/1
f 61/33/1 62/34/1 63/35/1 64/36/1
f 65/37/1 66/38/1 67/39/1 68/40/1
f 69/41/1 70/42/1 71/43/1 72/44/1
f 73/45/1 74/46/1 75/47/1 76/48/1
f 77/17/1 78/18/1 79/19/1 80/20/1
f 81/21/1 82/22/1 83/23/1 84/24/1
f 85/25/1 86/26/1 87/27/1 88/28/1
f 89/29/1 90/30/1 91/31/1 92/32/1
f 93/17/1 94/18/1 95/19/1 96/20/1
f 97/21/1 98/22/1 99/23/1 100/24/1
f 101/25/1 102/26/1 103/27/1 104/28/1
f 105/49/1 106/50/1 107/51/1 108/52/1
f 109/53/1 110/54/1 111/55/1 112/56/1
f 113/57/1 114/58/1 115/59/1 116/60/1
f 117/61/1 118/62/1 119/63/1 120/64/1
f 121/33/1 122/34/1 123/35/1 124/36/1
f 125/37/1 126/38/1 127/39/1 128/40/1
f 129/41/1 130/42/1 131/43/1 132/44/1
f 133/45/1 134/46/1 135/47/1 136/48/1
f 137/33/1 138/34/1 139/35/1 140/36/1
f 141/37/1 142/38/1 143/39/1 144/40/1
f 145/41/1 146/42/1 147/43/1 148/44/1
f 149/45/1 150/46/1 151/47/1 152/48/1
f 153/49/1 154/50/1 155/51/1 156/52/1
f 157/53/1 158/54/1 159/55/1 160/56/1
f 161/57/1 162/58/1 163/59/1 164/60/1
f 165/61/1 166/62/1 167/63/1 168/64/1
f 169/49/1 170/50/1 171/51/1 172/52/1
f 173/53/1 174/54/1 175/55/1 176/56/1
f 177/57/1 178/58/1 179/59/1 180/60/1
f 181/61/1 182/62/1 183/63/1 184/64/1
f 185/1/1 186/2/1 187/3/1 188/4/1
f 189/5/1 190/6/1 191/7/1 192/8/1
f 193/9/1 194/10/1 195/11/1 196/12/1
f 197/13/1 198/14/1 199/15/1 200/16/1
f 201/17/1 202/18/1 203/19/1 204/20/1
f 205/21/1 206/22/1 207/23/1 208/24/1
f 209/25/1 210/26/1 211/27/1 212/28/1
f 213/29/1 214/30/1 215/31/1 216/32/1
f 217/33/1 218/34/1 219/35/1 220/36/1
f 221/37/1 222/38/1 223/39/1 224/40/1
f 225/41/1 226/42/1 227/43/1 228/44/1
f 229/45/1 230/46/1 231/47/1 232/48/1
f 233/49/1 234/50/1 235/51/1 236/52/1
f 237/53/1 238/54/1 239/55/1 240/56/1
f 241/57/1 242/58/1 243/59/1 244/60/1
f 245/61/1 246/62/1 247/63/1 248/64/1
f 249/1/1 250/2/1 251/3/1 252/4/1
f 253/5/1 254/6/1 255/7/1 256/8/1
f 257/9/1 258/10/1 259/11/1 260/12/1
f 261/13/1 262/14/1 263/15/1 264/16/1
f 265/1/1 266/2/1 267/3/1 268/4/1
f 269/5/1 270/6/1 271/7/1 272/8/1
f 273/9/1 274/10/1 275/11/1 276/12/1
f 277/13/1 278/14/1 279/15/1 280/16/1
f 281/17/1 282/18/1 283/19/1 284/20/1
f 285/21/1 286/22/1 287/23/1 288/24/1
f 289/25/1 290/26/1 291/27/1 292/28/1
f 293/29/1 294/30/1 295/31/1 296/32/1
f 297/17/1 298/18/1 299/19/1 300/20/1
f 301/21/1 302/22/1 303/23/1 304/24/1
f 305/25/1 306/26/1 307/27/1 308/28/1
f 309/29/1 310/30/1 311/31/1 312/32/1
f 313/33/1 314/34/1 315/35/1 316/36/1
f 317/37/1 318/38/1 319/39/1 320/40/1
f 321/41/1 322/42/1 323/43/1 324/44/1
f 325/45/1 326/46/1 327/47/1 328/48/1
f 329/1/1 330/2/1 331/3/1 332/4/1
f 333/5/1 334/6/1 335/7/1 336/8/1
f 337/9/1 338/10/1 339/11/1 340/12/1
f 341/13/1 342/14/1 343/15/1 344/16/1
f 345/1/1 346/2/1 347/3/1 348/4/1
f 349/5/1 350/6/1 351/7/1 352/8/1
f 353/9/1 354/10/1 355/11/1 356/12/1
f 357/13/1 358/14/1 359/15/1 360/16/1
f 361/33/1 362/34/1 363/35/1 364/36/1
f 365/37/1 366/38/1 367/39/1 368/40/1
f 369/41/1 370/42/1 371/43/1 372/44/1
f 373/45/1 374/46/1 375/47/1 376/48/1
f 377/49/1 378/50/1 379/51/1 380/52/1
f 381/53/1 382/54/1 383/55/1 384/56/1
f 385/57/1 386/58/1 387/59/1 388/60/1
f 389/61/1 390/62/1 391/63/1 392/64/1
f 393/17/1 394/18/1 395/19/1 396/20/1
f 397/21/1 398/22/1 399/23/1 400/24/1
f 401/25/1 402/26/1 403/27/1 404/28/1
f 405/29/1 406/30/1 407/31/1 408/32/1
f 409/17/1 410/18/1 411/19/1 412/20/1
f 413/21/1 414/22/1 415/23/1 416/24/1
f 417/25/1 418/26/1 419/27/1 420/28/1
f 421/29/1 422/30/1 423/31/1 424/32/1
f 425/49/1 426/50/1 427/51/1 428/52/1
f 429/53/1 430/54/1 431/55/1 432/56/1
f 433/57/1 434/58/1 435/59/1 436/60/1
f 437/61/1 438/62/1 439/63/1 440/64/1
f 441/33/1 442/34/1 443/35/1 444/36/1
f 445/37/1 446/38/1 447/39/1 448/40/1
f 449/41/1 450/42/1 451/43/1 452/44/1
f 453/45/1 454/46/1 455/47/1 456/48/1
f 457/33/1 458/34/1 459/35/1 460/36/1
f 461/37/1 462/38/1 463/39/1 464/40/1
f 465/41/1 466/42/1 467/43/1 468/44/1
f 469/45/1 470/46/1 471/47/1 472/48/1
f 473/49/1 474/50/1 475/51/1 476/52/1
f 477/53/1 478/54/1 479/55/1 480/56/1
f 481/57/1 482/58/1 483/59/1 484/60/1
f 485/61/1 486/62/1 487/63/1 488/64/1
f 489/1/1 490/2/1 491/3/1 492/4/1
f 493/5/1 494/6/1 495/7/1 496/8/1
f 497/9/1 498/10/1 499/11/1 500/12/1
f 501/13/1 502/14/1 503/15/1 504/16/1
f 505/57/1 506/58/1 507/59/1 508/60/1
f 509/61/1 510/62/1 511/63/1 512/64/1
f 513/1/1 514/2/1 515/3/1 516/4/1
f 517/5/1 518/6/1 519/7/1 520/8/1
f 521/9/1 522/10/1 523/11/1 524/12/1
f 525/13/1 526/14/1 527/15/1 528/16/1
f 529/17/1 530/18/1 531/19/1 532/20/1
f 533/21/1 534/22/1 535/23/1 536/24/1
f 537/25/1 538/26/1 539/27/1 540/28/1
f 541/29/1 542/30/1 543/31/1 544/32/1
f 545/17/1 546/18/1 547/19/1 548/20/1
f 549/21/1 550/22/1 551/23/1 552/24/1
f 553/25/1 554/26/1 555/27/1 556/28/1
f 557/29/1 558/30/1 559/31/1 560/32/1
f 561/33/1 562/34/1 563/35/1 564/36/1
f 565/37/1 566/38/1 567/39/1 568/40/1
f 569/41/1 570/42/1 571/43/1 572/44/1
f 573/45/1 574/46/1 575/47/1 576/48/1
f 577/33/1 578/34/1 579/35/1 580/36/1
f 581/37/1 582/38/1 583/39/1 584/40/1
f 585/41/1 586/42/1 587/43/1 588/44/1
f 589/45/1 590/46/1 591/47/1 592/48/1
f 593/49/1 594/50/1 595/51/1 596/52/1
f 597/53/1 598/54/1 599/55/1 600/56/1
f 601/57/1 602/58/1 603/59/1 604/60/1
f 605/61/1 606/62/1 607/63/1 608/64/1
f 609/49/1 610/50/1 611/51/1 612/52/1
f 613/53/1 614/54/1 615/55/1 616/56/1
f 617/57/1 618/58/1 619/59/1 620/60/1
f 621/61/1 622/62/1 623/63/1 624/64/1
f 625/1/1 626/2/1 627/3/1 628/4/1
f 629/5/1 630/6/1 631/7/1 632/8/1
f 633/9/1 634/10/1 635/11/1 636/12/1
f 637/13/1 638/14/1 639/15/1 640/16/1
f 641/1/1 642/2/1 643/3/1 644/4/1
f 645/5/1 646/6/1 647/7/1 648/8/1
f 649/9/1 650/10/1 651/11/1 652/12/1
f 653/17/1 654/18/1 655/19/1 656/20/1
f 657/21/1 658/22/1 659/23/1 660/24/1
f 661/25/1 662/26/1 663/27/1 664/28/1
f 665/29/1 666/30/1 667/31/1 668/32/1
f 669/1/1 670/2/1 671/3/1 672/4/1
f 673/5/1 674/6/1 675/7/1 676/8/1
f 677/9/1 678/10/1 679/11/1 680/12/1
f 681/17/1 682/18/1 683/19/1 684/20/1
f 685/21/1 686/22/1 687/23/1 688/24/1
f 689/25/1 690/26/1 691/27/1 692/28/1
f 693/33/1 694/34/1 695/35/1 696/36/1
f 697/37/1 698/38/1 699/39/1 700/40/1
f 701/41/1 702/42/1 703/43/1 704/44/1
f 705/45/1 706/46/1 707/47/1 708/48/1
f 709/17/1 710/18/1 711/19/1 712/20/1
f 713/21/1 714/22/1 715/23/1 716/24/1
f 717/25/1 718/26/1 719/27/1 720/28/1
f 721/33/1 722/34/1 723/35/1 724/36/1
f 725/37/1 726/38/1 727/39/1 728/40/1
f 729/41/1 730/42/1 731/43/1 732/44/1
f 733/49/1 734/50/1 735/51/1 736/52/1
f 737/53/1 738/54/1 739/55/1 740/56/1
f 741/57/1 742/58/1 743/59/1 744/60/1
f 745/61/1 746/62/1 747/63/1 748/64/1
f 749/33/1 750/34/1 751/35/1 752/36/1
f 753/37/1 754/38/1 755/39/1 756/40/1
f 757/41/1 758/42/1 759/43/1 760/44/1
f 761/49/1 762/50/1 763/51/1 764/52/1
f 765/53/1 766/54/1 767/55/1 768/56/1
f 769/57/1 770/58/1 771/59/1 772/60/1
f 773/49/1 774/50/1 775/51/1 776/52/1
f 777/53/1 778/54/1 779/55/1 780/56/1
f 781/57/1 782/58/1 783/59/1 784/60/1
f 785/61/1 786/62/1 787/63/1 788/64/1
f 789/33/1 790/34/1 791/35/1 792/36/1
f 793/37/1 794/38/1 795/39/1 796/40/1
f 797/49/1 798/50/1 799/51/1 800/52/1
f 801/53/1 802/54/1 803/55/1 804/56/1
f 805/1/1 806/2/1 807/3/1 808/4/1
f 809/5/1 810/6/1 811/7/1 812/8/1
f 813/9/1 814/10/1 815/11/1 816/12/1
f 817/13/1 818/14/1 819/15/1 820/16/1
f 821/17/1 822/18/1 823/19/1 824/20/1
f 825/21/1 826/22/1 827/23/1 828/24/1
f 829/25/1 830/26/1 831/27/1 832/28/1
f 833/29/1 834/30/1 835/31/1 836/32/1
f 837/1/1 838/2/1 839/3/1 840/4/1
f 841/5/1 842/6/1 843/7/1 844/8/1
f 845/9/1 846/10/1 847/11/1 848/12/1
f 849/13/1 850/14/1 851/15/1 852/16/1
f 853/33/1 854/34/1 855/35/1 856/36/1
f 857/37/1 858/38/1 859/39/1 860/40/1
f 861/41/1 862/42/1 863/43/1 864/44/1
f 865/45/1 866/46/1 867/47/1 868/48/1
f 869/17/1 870/18/1 871/19/1 872/20/1
f 873/21/1 874/22/1 875/23/1 876/24/1
f 877/25/1 878/26/1 879/27/1 880/28/1
f 881/29/1 882/30/1 883/31/1 884/32/1
f 885/49/1 886/50/1 887/51/1 888/52/1
f 889/53/1 890/54/1 891/55/1 892/56/1
f 893/57/1 894/58/1 895/59/1 896/60/1
f 897/61/1 898/62/1 899/63/1 900/64/1
f 901/33/1 902/34/1 903/35/1 904/36/1
f 905/37/1 906/38/1 907/39/1 908/40/1
f 909/41/1 910/42/1 911/43/1 912/44/1
f 913/45/1 914/46/1 915/47/1 916/48/1
f 917/49/1 918/50/1 919/51/1 920/52/1
f 921/53/1 922/54/1 923/55/1 924/56/1
f 925/57/1 926/58/1 927/59/1 928/60/1
f 929/61/1 930/62/1 931/63/1 932/64/1
f 933/1/1 934/2/1 935/3/1 936/4/1
f 937/5/1 938/6/1 939/7/1 940/8/1
f 941/9/1 942/10/1 943/11/1 944/12/1
f 945/13/1 946/14/1 947/15/1 948/16/1
f 949/17/1 950/18/1 951/19/1 952/20/1
f 953/21/1 954/22/1 955/23/1 956/24/1
f 957/25/1 958/26/1 959/27/1 960/28/1
f 961/29/1 962/30/1 963/31/1 964/32/1
f 965/33/1 966/34/1 967/35/1 968/36/1
f 969/37/1 970/38/1 971/39/1 972/40/1
f 973/41/1 974/42/1 975/43/1 976/44/1
f 977/45/1 978/46/1 979/47/1 980/48/1
f 981/49/1 982/50/1 983/51/1 984/52/1
f 985/53/1 986/54/1 987/55/1 988/56/1
f 989/57/1 990/58/1 991/59/1 992/60/1
f 993/61/1 994/62/1 995/63/1 996/64/1

