# Tiled2Unity generated file. Do not modify by hand.
# Wavefront file for 'MontillaBlvdLower_mesh_0003.obj'

# Vertices (Count = 440)
v -13 -3 0
v -14 -3 0
v -14 -2 0
v -13 -2 0
v -14 -3 0
v -15 -3 0
v -15 -2 0
v -14 -2 0
v -15 -3 0
v -16 -3 0
v -16 -2 0
v -15 -2 0
v -16 -3 0
v -17 -3 0
v -17 -2 0
v -16 -2 0
v -13 -4 0
v -14 -4 0
v -14 -3 0
v -13 -3 0
v -14 -4 0
v -15 -4 0
v -15 -3 0
v -14 -3 0
v -15 -4 0
v -16 -4 0
v -16 -3 0
v -15 -3 0
v -16 -4 0
v -17 -4 0
v -17 -3 0
v -16 -3 0
v -13 -5 0
v -14 -5 0
v -14 -4 0
v -13 -4 0
v -14 -5 0
v -15 -5 0
v -15 -4 0
v -14 -4 0
v -15 -5 0
v -16 -5 0
v -16 -4 0
v -15 -4 0
v -16 -5 0
v -17 -5 0
v -17 -4 0
v -16 -4 0
v -1 -6 0
v -2 -6 0
v -2 -5 0
v -1 -5 0
v -2 -6 0
v -3 -6 0
v -3 -5 0
v -2 -5 0
v -3 -6 0
v -4 -6 0
v -4 -5 0
v -3 -5 0
v -4 -6 0
v -5 -6 0
v -5 -5 0
v -4 -5 0
v -13 -6 0
v -14 -6 0
v -14 -5 0
v -13 -5 0
v -16 -6 0
v -17 -6 0
v -17 -5 0
v -16 -5 0
v -1 -7 0
v -2 -7 0
v -2 -6 0
v -1 -6 0
v -2 -7 0
v -3 -7 0
v -3 -6 0
v -2 -6 0
v -3 -7 0
v -4 -7 0
v -4 -6 0
v -3 -6 0
v -4 -7 0
v -5 -7 0
v -5 -6 0
v -4 -6 0
v -1 -8 0
v -2 -8 0
v -2 -7 0
v -1 -7 0
v -2 -8 0
v -3 -8 0
v -3 -7 0
v -2 -7 0
v -3 -8 0
v -4 -8 0
v -4 -7 0
v -3 -7 0
v -4 -8 0
v -5 -8 0
v -5 -7 0
v -4 -7 0
v -1 -9 0
v -2 -9 0
v -2 -8 0
v -1 -8 0
v -4 -9 0
v -5 -9 0
v -5 -8 0
v -4 -8 0
v -10 -21 0
v -11 -21 0
v -11 -20 0
v -10 -20 0
v -10 -22 0
v -11 -22 0
v -11 -21 0
v -10 -21 0
v -10 -23 0
v -11 -23 0
v -11 -22 0
v -10 -22 0
v -10 -24 0
v -11 -24 0
v -11 -23 0
v -10 -23 0
v -10 -25 0
v -11 -25 0
v -11 -24 0
v -10 -24 0
v -10 -26 0
v -11 -26 0
v -11 -25 0
v -10 -25 0
v -10 -27 0
v -11 -27 0
v -11 -26 0
v -10 -26 0
v -10 -28 0
v -11 -28 0
v -11 -27 0
v -10 -27 0
v -10 -29 0
v -11 -29 0
v -11 -28 0
v -10 -28 0
v -10 -30 0
v -11 -30 0
v -11 -29 0
v -10 -29 0
v -10 -31 0
v -11 -31 0
v -11 -30 0
v -10 -30 0
v -10 -32 0
v -11 -32 0
v -11 -31 0
v -10 -31 0
v -10 -33 0
v -11 -33 0
v -11 -32 0
v -10 -32 0
v -10 -34 0
v -11 -34 0
v -11 -33 0
v -10 -33 0
v -10 -35 0
v -11 -35 0
v -11 -34 0
v -10 -34 0
v -10 -36 0
v -11 -36 0
v -11 -35 0
v -10 -35 0
v -10 -37 0
v -11 -37 0
v -11 -36 0
v -10 -36 0
v -10 -38 0
v -11 -38 0
v -11 -37 0
v -10 -37 0
v -10 -39 0
v -11 -39 0
v -11 -38 0
v -10 -38 0
v -10 -40 0
v -11 -40 0
v -11 -39 0
v -10 -39 0
v -10 -41 0
v -11 -41 0
v -11 -40 0
v -10 -40 0
v -9 -42 0
v -10 -42 0
v -10 -41 0
v -9 -41 0
v -10 -42 0
v -11 -42 0
v -11 -41 0
v -10 -41 0
v -9 -43 0
v -10 -43 0
v -10 -42 0
v -9 -42 0
v -3 -45 0
v -4 -45 0
v -4 -44 0
v -3 -44 0
v -4 -45 0
v -5 -45 0
v -5 -44 0
v -4 -44 0
v -13 -46 0
v -14 -46 0
v -14 -45 0
v -13 -45 0
v -14 -46 0
v -15 -46 0
v -15 -45 0
v -14 -45 0
v -2 -49 0
v -3 -49 0
v -3 -48 0
v -2 -48 0
v -3 -49 0
v -4 -49 0
v -4 -48 0
v -3 -48 0
v -6 -50 0
v -7 -50 0
v -7 -49 0
v -6 -49 0
v -7 -50 0
v -8 -50 0
v -8 -49 0
v -7 -49 0
v -10 -51 0
v -11 -51 0
v -11 -50 0
v -10 -50 0
v -11 -51 0
v -12 -51 0
v -12 -50 0
v -11 -50 0
v -14 -51 0
v -15 -51 0
v -15 -50 0
v -14 -50 0
v -15 -51 0
v -16 -51 0
v -16 -50 0
v -15 -50 0
v -12 -52 0
v -13 -52 0
v -13 -51 0
v -12 -51 0
v -13 -52 0
v -14 -52 0
v -14 -51 0
v -13 -51 0
v -10 -53 0
v -11 -53 0
v -11 -52 0
v -10 -52 0
v -11 -53 0
v -12 -53 0
v -12 -52 0
v -11 -52 0
v -13 -86 0
v -14 -86 0
v -14 -85 0
v -13 -85 0
v -14 -86 0
v -15 -86 0
v -15 -85 0
v -14 -85 0
v -15 -86 0
v -16 -86 0
v -16 -85 0
v -15 -85 0
v -16 -86 0
v -17 -86 0
v -17 -85 0
v -16 -85 0
v -13 -87 0
v -14 -87 0
v -14 -86 0
v -13 -86 0
v -14 -87 0
v -15 -87 0
v -15 -86 0
v -14 -86 0
v -15 -87 0
v -16 -87 0
v -16 -86 0
v -15 -86 0
v -16 -87 0
v -17 -87 0
v -17 -86 0
v -16 -86 0
v -13 -88 0
v -14 -88 0
v -14 -87 0
v -13 -87 0
v -14 -88 0
v -15 -88 0
v -15 -87 0
v -14 -87 0
v -15 -88 0
v -16 -88 0
v -16 -87 0
v -15 -87 0
v -16 -88 0
v -17 -88 0
v -17 -87 0
v -16 -87 0
v -13 -89 0
v -14 -89 0
v -14 -88 0
v -13 -88 0
v -14 -89 0
v -15 -89 0
v -15 -88 0
v -14 -88 0
v -15 -89 0
v -16 -89 0
v -16 -88 0
v -15 -88 0
v -16 -89 0
v -17 -89 0
v -17 -88 0
v -16 -88 0
v -17 -89 0
v -18 -89 0
v -18 -88 0
v -17 -88 0
v -14 -90 0
v -15 -90 0
v -15 -89 0
v -14 -89 0
v -15 -90 0
v -16 -90 0
v -16 -89 0
v -15 -89 0
v -16 -90 0
v -17 -90 0
v -17 -89 0
v -16 -89 0
v -17 -90 0
v -18 -90 0
v -18 -89 0
v -17 -89 0
v -14 -91 0
v -15 -91 0
v -15 -90 0
v -14 -90 0
v -15 -91 0
v -16 -91 0
v -16 -90 0
v -15 -90 0
v -16 -91 0
v -17 -91 0
v -17 -90 0
v -16 -90 0
v -17 -91 0
v -18 -91 0
v -18 -90 0
v -17 -90 0
v -14 -92 0
v -15 -92 0
v -15 -91 0
v -14 -91 0
v -17 -92 0
v -18 -92 0
v -18 -91 0
v -17 -91 0
v -13 -105 0
v -14 -105 0
v -14 -104 0
v -13 -104 0
v -14 -105 0
v -15 -105 0
v -15 -104 0
v -14 -104 0
v -15 -105 0
v -16 -105 0
v -16 -104 0
v -15 -104 0
v -16 -105 0
v -17 -105 0
v -17 -104 0
v -16 -104 0
v -13 -106 0
v -14 -106 0
v -14 -105 0
v -13 -105 0
v -14 -106 0
v -15 -106 0
v -15 -105 0
v -14 -105 0
v -15 -106 0
v -16 -106 0
v -16 -105 0
v -15 -105 0
v -16 -106 0
v -17 -106 0
v -17 -105 0
v -16 -105 0
v -13 -107 0
v -14 -107 0
v -14 -106 0
v -13 -106 0
v -14 -107 0
v -15 -107 0
v -15 -106 0
v -14 -106 0
v -15 -107 0
v -16 -107 0
v -16 -106 0
v -15 -106 0
v -16 -107 0
v -17 -107 0
v -17 -106 0
v -16 -106 0
v -13 -108 0
v -14 -108 0
v -14 -107 0
v -13 -107 0
v -16 -112 0
v -17 -112 0
v -17 -111 0
v -16 -111 0
v -17 -112 0
v -18 -112 0
v -18 -111 0
v -17 -111 0

# Texture cooridinates (Count = 68)
vt 0.0001220703 0.08345538
vt 0.02068417 0.08345538
vt 0.02068417 0.110989
vt 0.0001220703 0.110989
vt 0.02092831 0.08345538
vt 0.04149041 0.08345538
vt 0.04149041 0.110989
vt 0.02092831 0.110989
vt 0.04173455 0.08345538
vt 0.06229666 0.08345538
vt 0.06229666 0.110989
vt 0.04173455 0.110989
vt 0.0625408 0.08345538
vt 0.0831029 0.08345538
vt 0.0831029 0.110989
vt 0.0625408 0.110989
vt 0.0001220703 0.05567765
vt 0.02068417 0.05567765
vt 0.02068417 0.08321124
vt 0.0001220703 0.08321124
vt 0.02092831 0.05567765
vt 0.04149041 0.05567765
vt 0.04149041 0.08321124
vt 0.02092831 0.08321124
vt 0.04173455 0.05567765
vt 0.06229666 0.05567765
vt 0.06229666 0.08321124
vt 0.04173455 0.08321124
vt 0.0625408 0.05567765
vt 0.0831029 0.05567765
vt 0.0831029 0.08321124
vt 0.0625408 0.08321124
vt 0.0001220703 0.02789986
vt 0.02068417 0.02789986
vt 0.02068417 0.05543351
vt 0.0001220703 0.05543351
vt 0.02092831 0.02789986
vt 0.04149041 0.02789986
vt 0.04149041 0.05543351
vt 0.02092831 0.05543351
vt 0.04173455 0.02789986
vt 0.06229666 0.02789986
vt 0.06229666 0.05543351
vt 0.04173455 0.05543351
vt 0.0625408 0.02789986
vt 0.0831029 0.02789986
vt 0.0831029 0.05543351
vt 0.0625408 0.05543351
vt 0.0001220703 0.0001220703
vt 0.02068417 0.0001220703
vt 0.02068417 0.02765572
vt 0.0001220703 0.02765572
vt 0.0625408 0.0001220703
vt 0.0831029 0.0001220703
vt 0.0831029 0.02765572
vt 0.0625408 0.02765572
vt 0.04173455 0.5834554
vt 0.06229666 0.5834554
vt 0.06229666 0.610989
vt 0.04173455 0.610989
vt 0.1041533 0.5278999
vt 0.1247154 0.5278999
vt 0.1247154 0.5554335
vt 0.1041533 0.5554335
vt 0.1249595 0.5278999
vt 0.1455216 0.5278999
vt 0.1455216 0.5554335
vt 0.1249595 0.5554335

# Normal
vn 0 0 -1

# Mesh description
g MontillaBlvdLower_mesh_0003

# Faces
f 1/1/1 2/2/1 3/3/1 4/4/1
f 5/5/1 6/6/1 7/7/1 8/8/1
f 9/9/1 10/10/1 11/11/1 12/12/1
f 13/13/1 14/14/1 15/15/1 16/16/1
f 17/17/1 18/18/1 19/19/1 20/20/1
f 21/21/1 22/22/1 23/23/1 24/24/1
f 25/25/1 26/26/1 27/27/1 28/28/1
f 29/29/1 30/30/1 31/31/1 32/32/1
f 33/33/1 34/34/1 35/35/1 36/36/1
f 37/37/1 38/38/1 39/39/1 40/40/1
f 41/41/1 42/42/1 43/43/1 44/44/1
f 45/45/1 46/46/1 47/47/1 48/48/1
f 49/1/1 50/2/1 51/3/1 52/4/1
f 53/5/1 54/6/1 55/7/1 56/8/1
f 57/9/1 58/10/1 59/11/1 60/12/1
f 61/13/1 62/14/1 63/15/1 64/16/1
f 65/49/1 66/50/1 67/51/1 68/52/1
f 69/53/1 70/54/1 71/55/1 72/56/1
f 73/17/1 74/18/1 75/19/1 76/20/1
f 77/21/1 78/22/1 79/23/1 80/24/1
f 81/25/1 82/26/1 83/27/1 84/28/1
f 85/29/1 86/30/1 87/31/1 88/32/1
f 89/33/1 90/34/1 91/35/1 92/36/1
f 93/37/1 94/38/1 95/39/1 96/40/1
f 97/41/1 98/42/1 99/43/1 100/44/1
f 101/45/1 102/46/1 103/47/1 104/48/1
f 105/49/1 106/50/1 107/51/1 108/52/1
f 109/53/1 110/54/1 111/55/1 112/56/1
f 113/57/1 114/58/1 115/59/1 116/60/1
f 117/57/1 118/58/1 119/59/1 120/60/1
f 121/57/1 122/58/1 123/59/1 124/60/1
f 125/57/1 126/58/1 127/59/1 128/60/1
f 129/57/1 130/58/1 131/59/1 132/60/1
f 133/57/1 134/58/1 135/59/1 136/60/1
f 137/57/1 138/58/1 139/59/1 140/60/1
f 141/57/1 142/58/1 143/59/1 144/60/1
f 145/57/1 146/58/1 147/59/1 148/60/1
f 149/57/1 150/58/1 151/59/1 152/60/1
f 153/57/1 154/58/1 155/59/1 156/60/1
f 157/57/1 158/58/1 159/59/1 160/60/1
f 161/57/1 162/58/1 163/59/1 164/60/1
f 165/57/1 166/58/1 167/59/1 168/60/1
f 169/57/1 170/58/1 171/59/1 172/60/1
f 173/57/1 174/58/1 175/59/1 176/60/1
f 177/57/1 178/58/1 179/59/1 180/60/1
f 181/57/1 182/58/1 183/59/1 184/60/1
f 185/57/1 186/58/1 187/59/1 188/60/1
f 189/57/1 190/58/1 191/59/1 192/60/1
f 193/57/1 194/58/1 195/59/1 196/60/1
f 197/57/1 198/58/1 199/59/1 200/60/1
f 201/57/1 202/58/1 203/59/1 204/60/1
f 205/57/1 206/58/1 207/59/1 208/60/1
f 209/61/1 210/62/1 211/63/1 212/64/1
f 213/65/1 214/66/1 215/67/1 216/68/1
f 217/61/1 218/62/1 219/63/1 220/64/1
f 221/65/1 222/66/1 223/67/1 224/68/1
f 225/61/1 226/62/1 227/63/1 228/64/1
f 229/65/1 230/66/1 231/67/1 232/68/1
f 233/61/1 234/62/1 235/63/1 236/64/1
f 237/65/1 238/66/1 239/67/1 240/68/1
f 241/61/1 242/62/1 243/63/1 244/64/1
f 245/65/1 246/66/1 247/67/1 248/68/1
f 249/61/1 250/62/1 251/63/1 252/64/1
f 253/65/1 254/66/1 255/67/1 256/68/1
f 257/61/1 258/62/1 259/63/1 260/64/1
f 261/65/1 262/66/1 263/67/1 264/68/1
f 265/61/1 266/62/1 267/63/1 268/64/1
f 269/65/1 270/66/1 271/67/1 272/68/1
f 273/1/1 274/2/1 275/3/1 276/4/1
f 277/5/1 278/6/1 279/7/1 280/8/1
f 281/9/1 282/10/1 283/11/1 284/12/1
f 285/13/1 286/14/1 287/15/1 288/16/1
f 289/17/1 290/18/1 291/19/1 292/20/1
f 293/21/1 294/22/1 295/23/1 296/24/1
f 297/25/1 298/26/1 299/27/1 300/28/1
f 301/29/1 302/30/1 303/31/1 304/32/1
f 305/33/1 306/34/1 307/35/1 308/36/1
f 309/37/1 310/38/1 311/39/1 312/40/1
f 313/41/1 314/42/1 315/43/1 316/44/1
f 317/45/1 318/46/1 319/47/1 320/48/1
f 321/49/1 322/50/1 323/51/1 324/52/1
f 325/1/1 326/2/1 327/3/1 328/4/1
f 329/5/1 330/6/1 331/7/1 332/8/1
f 333/9/1 334/10/1 335/11/1 336/12/1
f 337/13/1 338/14/1 339/15/1 340/16/1
f 341/17/1 342/18/1 343/19/1 344/20/1
f 345/21/1 346/22/1 347/23/1 348/24/1
f 349/25/1 350/26/1 351/27/1 352/28/1
f 353/29/1 354/30/1 355/31/1 356/32/1
f 357/33/1 358/34/1 359/35/1 360/36/1
f 361/37/1 362/38/1 363/39/1 364/40/1
f 365/41/1 366/42/1 367/43/1 368/44/1
f 369/45/1 370/46/1 371/47/1 372/48/1
f 373/49/1 374/50/1 375/51/1 376/52/1
f 377/53/1 378/54/1 379/55/1 380/56/1
f 381/1/1 382/2/1 383/3/1 384/4/1
f 385/5/1 386/6/1 387/7/1 388/8/1
f 389/9/1 390/10/1 391/11/1 392/12/1
f 393/13/1 394/14/1 395/15/1 396/16/1
f 397/17/1 398/18/1 399/19/1 400/20/1
f 401/21/1 402/22/1 403/23/1 404/24/1
f 405/25/1 406/26/1 407/27/1 408/28/1
f 409/29/1 410/30/1 411/31/1 412/32/1
f 413/33/1 414/34/1 415/35/1 416/36/1
f 417/37/1 418/38/1 419/39/1 420/40/1
f 421/41/1 422/42/1 423/43/1 424/44/1
f 425/45/1 426/46/1 427/47/1 428/48/1
f 429/49/1 430/50/1 431/51/1 432/52/1
f 433/57/1 434/58/1 435/59/1 436/60/1
f 437/57/1 438/58/1 439/59/1 440/60/1

