# Tiled2Unity generated file. Do not modify by hand.
# Wavefront file for 'MontillaBlvdLower_mesh_0003.obj'

# Vertices (Count = 364)
v -13 -3 0
v -14 -3 0
v -14 -2 0
v -13 -2 0
v -14 -3 0
v -15 -3 0
v -15 -2 0
v -14 -2 0
v -15 -3 0
v -16 -3 0
v -16 -2 0
v -15 -2 0
v -16 -3 0
v -17 -3 0
v -17 -2 0
v -16 -2 0
v -13 -4 0
v -14 -4 0
v -14 -3 0
v -13 -3 0
v -14 -4 0
v -15 -4 0
v -15 -3 0
v -14 -3 0
v -15 -4 0
v -16 -4 0
v -16 -3 0
v -15 -3 0
v -16 -4 0
v -17 -4 0
v -17 -3 0
v -16 -3 0
v -13 -5 0
v -14 -5 0
v -14 -4 0
v -13 -4 0
v -14 -5 0
v -15 -5 0
v -15 -4 0
v -14 -4 0
v -15 -5 0
v -16 -5 0
v -16 -4 0
v -15 -4 0
v -16 -5 0
v -17 -5 0
v -17 -4 0
v -16 -4 0
v -1 -6 0
v -2 -6 0
v -2 -5 0
v -1 -5 0
v -2 -6 0
v -3 -6 0
v -3 -5 0
v -2 -5 0
v -3 -6 0
v -4 -6 0
v -4 -5 0
v -3 -5 0
v -4 -6 0
v -5 -6 0
v -5 -5 0
v -4 -5 0
v -13 -6 0
v -14 -6 0
v -14 -5 0
v -13 -5 0
v -16 -6 0
v -17 -6 0
v -17 -5 0
v -16 -5 0
v -1 -7 0
v -2 -7 0
v -2 -6 0
v -1 -6 0
v -2 -7 0
v -3 -7 0
v -3 -6 0
v -2 -6 0
v -3 -7 0
v -4 -7 0
v -4 -6 0
v -3 -6 0
v -4 -7 0
v -5 -7 0
v -5 -6 0
v -4 -6 0
v -1 -8 0
v -2 -8 0
v -2 -7 0
v -1 -7 0
v -2 -8 0
v -3 -8 0
v -3 -7 0
v -2 -7 0
v -3 -8 0
v -4 -8 0
v -4 -7 0
v -3 -7 0
v -4 -8 0
v -5 -8 0
v -5 -7 0
v -4 -7 0
v -1 -9 0
v -2 -9 0
v -2 -8 0
v -1 -8 0
v -4 -9 0
v -5 -9 0
v -5 -8 0
v -4 -8 0
v -10 -40 0
v -11 -40 0
v -11 -39 0
v -10 -39 0
v -10 -41 0
v -11 -41 0
v -11 -40 0
v -10 -40 0
v -9 -42 0
v -10 -42 0
v -10 -41 0
v -9 -41 0
v -10 -42 0
v -11 -42 0
v -11 -41 0
v -10 -41 0
v -9 -43 0
v -10 -43 0
v -10 -42 0
v -9 -42 0
v -3 -45 0
v -4 -45 0
v -4 -44 0
v -3 -44 0
v -4 -45 0
v -5 -45 0
v -5 -44 0
v -4 -44 0
v -13 -46 0
v -14 -46 0
v -14 -45 0
v -13 -45 0
v -14 -46 0
v -15 -46 0
v -15 -45 0
v -14 -45 0
v -2 -49 0
v -3 -49 0
v -3 -48 0
v -2 -48 0
v -3 -49 0
v -4 -49 0
v -4 -48 0
v -3 -48 0
v -6 -50 0
v -7 -50 0
v -7 -49 0
v -6 -49 0
v -7 -50 0
v -8 -50 0
v -8 -49 0
v -7 -49 0
v -10 -51 0
v -11 -51 0
v -11 -50 0
v -10 -50 0
v -11 -51 0
v -12 -51 0
v -12 -50 0
v -11 -50 0
v -14 -51 0
v -15 -51 0
v -15 -50 0
v -14 -50 0
v -15 -51 0
v -16 -51 0
v -16 -50 0
v -15 -50 0
v -12 -52 0
v -13 -52 0
v -13 -51 0
v -12 -51 0
v -13 -52 0
v -14 -52 0
v -14 -51 0
v -13 -51 0
v -10 -53 0
v -11 -53 0
v -11 -52 0
v -10 -52 0
v -11 -53 0
v -12 -53 0
v -12 -52 0
v -11 -52 0
v -13 -86 0
v -14 -86 0
v -14 -85 0
v -13 -85 0
v -14 -86 0
v -15 -86 0
v -15 -85 0
v -14 -85 0
v -15 -86 0
v -16 -86 0
v -16 -85 0
v -15 -85 0
v -16 -86 0
v -17 -86 0
v -17 -85 0
v -16 -85 0
v -13 -87 0
v -14 -87 0
v -14 -86 0
v -13 -86 0
v -14 -87 0
v -15 -87 0
v -15 -86 0
v -14 -86 0
v -15 -87 0
v -16 -87 0
v -16 -86 0
v -15 -86 0
v -16 -87 0
v -17 -87 0
v -17 -86 0
v -16 -86 0
v -13 -88 0
v -14 -88 0
v -14 -87 0
v -13 -87 0
v -14 -88 0
v -15 -88 0
v -15 -87 0
v -14 -87 0
v -15 -88 0
v -16 -88 0
v -16 -87 0
v -15 -87 0
v -16 -88 0
v -17 -88 0
v -17 -87 0
v -16 -87 0
v -13 -89 0
v -14 -89 0
v -14 -88 0
v -13 -88 0
v -14 -89 0
v -15 -89 0
v -15 -88 0
v -14 -88 0
v -15 -89 0
v -16 -89 0
v -16 -88 0
v -15 -88 0
v -16 -89 0
v -17 -89 0
v -17 -88 0
v -16 -88 0
v -17 -89 0
v -18 -89 0
v -18 -88 0
v -17 -88 0
v -14 -90 0
v -15 -90 0
v -15 -89 0
v -14 -89 0
v -15 -90 0
v -16 -90 0
v -16 -89 0
v -15 -89 0
v -16 -90 0
v -17 -90 0
v -17 -89 0
v -16 -89 0
v -17 -90 0
v -18 -90 0
v -18 -89 0
v -17 -89 0
v -14 -91 0
v -15 -91 0
v -15 -90 0
v -14 -90 0
v -15 -91 0
v -16 -91 0
v -16 -90 0
v -15 -90 0
v -16 -91 0
v -17 -91 0
v -17 -90 0
v -16 -90 0
v -17 -91 0
v -18 -91 0
v -18 -90 0
v -17 -90 0
v -14 -92 0
v -15 -92 0
v -15 -91 0
v -14 -91 0
v -17 -92 0
v -18 -92 0
v -18 -91 0
v -17 -91 0
v -13 -105 0
v -14 -105 0
v -14 -104 0
v -13 -104 0
v -14 -105 0
v -15 -105 0
v -15 -104 0
v -14 -104 0
v -15 -105 0
v -16 -105 0
v -16 -104 0
v -15 -104 0
v -16 -105 0
v -17 -105 0
v -17 -104 0
v -16 -104 0
v -13 -106 0
v -14 -106 0
v -14 -105 0
v -13 -105 0
v -14 -106 0
v -15 -106 0
v -15 -105 0
v -14 -105 0
v -15 -106 0
v -16 -106 0
v -16 -105 0
v -15 -105 0
v -16 -106 0
v -17 -106 0
v -17 -105 0
v -16 -105 0
v -13 -107 0
v -14 -107 0
v -14 -106 0
v -13 -106 0
v -14 -107 0
v -15 -107 0
v -15 -106 0
v -14 -106 0
v -15 -107 0
v -16 -107 0
v -16 -106 0
v -15 -106 0
v -16 -107 0
v -17 -107 0
v -17 -106 0
v -16 -106 0
v -13 -108 0
v -14 -108 0
v -14 -107 0
v -13 -107 0
v -16 -112 0
v -17 -112 0
v -17 -111 0
v -16 -111 0
v -17 -112 0
v -18 -112 0
v -18 -111 0
v -17 -111 0

# Texture cooridinates (Count = 68)
vt 0.0001220703 0.08345538
vt 0.02068417 0.08345538
vt 0.02068417 0.110989
vt 0.0001220703 0.110989
vt 0.02092831 0.08345538
vt 0.04149041 0.08345538
vt 0.04149041 0.110989
vt 0.02092831 0.110989
vt 0.04173455 0.08345538
vt 0.06229666 0.08345538
vt 0.06229666 0.110989
vt 0.04173455 0.110989
vt 0.0625408 0.08345538
vt 0.0831029 0.08345538
vt 0.0831029 0.110989
vt 0.0625408 0.110989
vt 0.0001220703 0.05567765
vt 0.02068417 0.05567765
vt 0.02068417 0.08321124
vt 0.0001220703 0.08321124
vt 0.02092831 0.05567765
vt 0.04149041 0.05567765
vt 0.04149041 0.08321124
vt 0.02092831 0.08321124
vt 0.04173455 0.05567765
vt 0.06229666 0.05567765
vt 0.06229666 0.08321124
vt 0.04173455 0.08321124
vt 0.0625408 0.05567765
vt 0.0831029 0.05567765
vt 0.0831029 0.08321124
vt 0.0625408 0.08321124
vt 0.0001220703 0.02789986
vt 0.02068417 0.02789986
vt 0.02068417 0.05543351
vt 0.0001220703 0.05543351
vt 0.02092831 0.02789986
vt 0.04149041 0.02789986
vt 0.04149041 0.05543351
vt 0.02092831 0.05543351
vt 0.04173455 0.02789986
vt 0.06229666 0.02789986
vt 0.06229666 0.05543351
vt 0.04173455 0.05543351
vt 0.0625408 0.02789986
vt 0.0831029 0.02789986
vt 0.0831029 0.05543351
vt 0.0625408 0.05543351
vt 0.0001220703 0.0001220703
vt 0.02068417 0.0001220703
vt 0.02068417 0.02765572
vt 0.0001220703 0.02765572
vt 0.0625408 0.0001220703
vt 0.0831029 0.0001220703
vt 0.0831029 0.02765572
vt 0.0625408 0.02765572
vt 0.04173455 0.5834554
vt 0.06229666 0.5834554
vt 0.06229666 0.610989
vt 0.04173455 0.610989
vt 0.1041533 0.5278999
vt 0.1247154 0.5278999
vt 0.1247154 0.5554335
vt 0.1041533 0.5554335
vt 0.1249595 0.5278999
vt 0.1455216 0.5278999
vt 0.1455216 0.5554335
vt 0.1249595 0.5554335

# Normal
vn 0 0 -1

# Mesh description
g MontillaBlvdLower_mesh_0003

# Faces
f 1/1/1 2/2/1 3/3/1 4/4/1
f 5/5/1 6/6/1 7/7/1 8/8/1
f 9/9/1 10/10/1 11/11/1 12/12/1
f 13/13/1 14/14/1 15/15/1 16/16/1
f 17/17/1 18/18/1 19/19/1 20/20/1
f 21/21/1 22/22/1 23/23/1 24/24/1
f 25/25/1 26/26/1 27/27/1 28/28/1
f 29/29/1 30/30/1 31/31/1 32/32/1
f 33/33/1 34/34/1 35/35/1 36/36/1
f 37/37/1 38/38/1 39/39/1 40/40/1
f 41/41/1 42/42/1 43/43/1 44/44/1
f 45/45/1 46/46/1 47/47/1 48/48/1
f 49/1/1 50/2/1 51/3/1 52/4/1
f 53/5/1 54/6/1 55/7/1 56/8/1
f 57/9/1 58/10/1 59/11/1 60/12/1
f 61/13/1 62/14/1 63/15/1 64/16/1
f 65/49/1 66/50/1 67/51/1 68/52/1
f 69/53/1 70/54/1 71/55/1 72/56/1
f 73/17/1 74/18/1 75/19/1 76/20/1
f 77/21/1 78/22/1 79/23/1 80/24/1
f 81/25/1 82/26/1 83/27/1 84/28/1
f 85/29/1 86/30/1 87/31/1 88/32/1
f 89/33/1 90/34/1 91/35/1 92/36/1
f 93/37/1 94/38/1 95/39/1 96/40/1
f 97/41/1 98/42/1 99/43/1 100/44/1
f 101/45/1 102/46/1 103/47/1 104/48/1
f 105/49/1 106/50/1 107/51/1 108/52/1
f 109/53/1 110/54/1 111/55/1 112/56/1
f 113/57/1 114/58/1 115/59/1 116/60/1
f 117/57/1 118/58/1 119/59/1 120/60/1
f 121/57/1 122/58/1 123/59/1 124/60/1
f 125/57/1 126/58/1 127/59/1 128/60/1
f 129/57/1 130/58/1 131/59/1 132/60/1
f 133/61/1 134/62/1 135/63/1 136/64/1
f 137/65/1 138/66/1 139/67/1 140/68/1
f 141/61/1 142/62/1 143/63/1 144/64/1
f 145/65/1 146/66/1 147/67/1 148/68/1
f 149/61/1 150/62/1 151/63/1 152/64/1
f 153/65/1 154/66/1 155/67/1 156/68/1
f 157/61/1 158/62/1 159/63/1 160/64/1
f 161/65/1 162/66/1 163/67/1 164/68/1
f 165/61/1 166/62/1 167/63/1 168/64/1
f 169/65/1 170/66/1 171/67/1 172/68/1
f 173/61/1 174/62/1 175/63/1 176/64/1
f 177/65/1 178/66/1 179/67/1 180/68/1
f 181/61/1 182/62/1 183/63/1 184/64/1
f 185/65/1 186/66/1 187/67/1 188/68/1
f 189/61/1 190/62/1 191/63/1 192/64/1
f 193/65/1 194/66/1 195/67/1 196/68/1
f 197/1/1 198/2/1 199/3/1 200/4/1
f 201/5/1 202/6/1 203/7/1 204/8/1
f 205/9/1 206/10/1 207/11/1 208/12/1
f 209/13/1 210/14/1 211/15/1 212/16/1
f 213/17/1 214/18/1 215/19/1 216/20/1
f 217/21/1 218/22/1 219/23/1 220/24/1
f 221/25/1 222/26/1 223/27/1 224/28/1
f 225/29/1 226/30/1 227/31/1 228/32/1
f 229/33/1 230/34/1 231/35/1 232/36/1
f 233/37/1 234/38/1 235/39/1 236/40/1
f 237/41/1 238/42/1 239/43/1 240/44/1
f 241/45/1 242/46/1 243/47/1 244/48/1
f 245/49/1 246/50/1 247/51/1 248/52/1
f 249/1/1 250/2/1 251/3/1 252/4/1
f 253/5/1 254/6/1 255/7/1 256/8/1
f 257/9/1 258/10/1 259/11/1 260/12/1
f 261/13/1 262/14/1 263/15/1 264/16/1
f 265/17/1 266/18/1 267/19/1 268/20/1
f 269/21/1 270/22/1 271/23/1 272/24/1
f 273/25/1 274/26/1 275/27/1 276/28/1
f 277/29/1 278/30/1 279/31/1 280/32/1
f 281/33/1 282/34/1 283/35/1 284/36/1
f 285/37/1 286/38/1 287/39/1 288/40/1
f 289/41/1 290/42/1 291/43/1 292/44/1
f 293/45/1 294/46/1 295/47/1 296/48/1
f 297/49/1 298/50/1 299/51/1 300/52/1
f 301/53/1 302/54/1 303/55/1 304/56/1
f 305/1/1 306/2/1 307/3/1 308/4/1
f 309/5/1 310/6/1 311/7/1 312/8/1
f 313/9/1 314/10/1 315/11/1 316/12/1
f 317/13/1 318/14/1 319/15/1 320/16/1
f 321/17/1 322/18/1 323/19/1 324/20/1
f 325/21/1 326/22/1 327/23/1 328/24/1
f 329/25/1 330/26/1 331/27/1 332/28/1
f 333/29/1 334/30/1 335/31/1 336/32/1
f 337/33/1 338/34/1 339/35/1 340/36/1
f 341/37/1 342/38/1 343/39/1 344/40/1
f 345/41/1 346/42/1 347/43/1 348/44/1
f 349/45/1 350/46/1 351/47/1 352/48/1
f 353/49/1 354/50/1 355/51/1 356/52/1
f 357/57/1 358/58/1 359/59/1 360/60/1
f 361/57/1 362/58/1 363/59/1 364/60/1

