# Tiled2Unity generated file. Do not modify by hand.
# Wavefront file for 'MontillaBlvdLower_mesh_0005.obj'

# Vertices (Count = 444)
v -10 -14 0
v -11 -14 0
v -11 -13 0
v -10 -13 0
v -11 -14 0
v -12 -14 0
v -12 -13 0
v -11 -13 0
v -12 -14 0
v -13 -14 0
v -13 -13 0
v -12 -13 0
v -13 -14 0
v -14 -14 0
v -14 -13 0
v -13 -13 0
v -10 -15 0
v -11 -15 0
v -11 -14 0
v -10 -14 0
v -11 -15 0
v -12 -15 0
v -12 -14 0
v -11 -14 0
v -12 -15 0
v -13 -15 0
v -13 -14 0
v -12 -14 0
v -13 -15 0
v -14 -15 0
v -14 -14 0
v -13 -14 0
v -10 -16 0
v -11 -16 0
v -11 -15 0
v -10 -15 0
v -11 -16 0
v -12 -16 0
v -12 -15 0
v -11 -15 0
v -12 -16 0
v -13 -16 0
v -13 -15 0
v -12 -15 0
v -13 -16 0
v -14 -16 0
v -14 -15 0
v -13 -15 0
v -10 -17 0
v -11 -17 0
v -11 -16 0
v -10 -16 0
v -13 -17 0
v -14 -17 0
v -14 -16 0
v -13 -16 0
v -4 -22 0
v -5 -22 0
v -5 -21 0
v -4 -21 0
v -5 -22 0
v -6 -22 0
v -6 -21 0
v -5 -21 0
v -6 -22 0
v -7 -22 0
v -7 -21 0
v -6 -21 0
v -7 -22 0
v -8 -22 0
v -8 -21 0
v -7 -21 0
v -4 -23 0
v -5 -23 0
v -5 -22 0
v -4 -22 0
v -5 -23 0
v -6 -23 0
v -6 -22 0
v -5 -22 0
v -6 -23 0
v -7 -23 0
v -7 -22 0
v -6 -22 0
v -7 -23 0
v -8 -23 0
v -8 -22 0
v -7 -22 0
v -4 -24 0
v -5 -24 0
v -5 -23 0
v -4 -23 0
v -5 -24 0
v -6 -24 0
v -6 -23 0
v -5 -23 0
v -6 -24 0
v -7 -24 0
v -7 -23 0
v -6 -23 0
v -7 -24 0
v -8 -24 0
v -8 -23 0
v -7 -23 0
v -10 -24 0
v -11 -24 0
v -11 -23 0
v -10 -23 0
v -11 -24 0
v -12 -24 0
v -12 -23 0
v -11 -23 0
v -12 -24 0
v -13 -24 0
v -13 -23 0
v -12 -23 0
v -13 -24 0
v -14 -24 0
v -14 -23 0
v -13 -23 0
v -4 -25 0
v -5 -25 0
v -5 -24 0
v -4 -24 0
v -7 -25 0
v -8 -25 0
v -8 -24 0
v -7 -24 0
v -10 -25 0
v -11 -25 0
v -11 -24 0
v -10 -24 0
v -11 -25 0
v -12 -25 0
v -12 -24 0
v -11 -24 0
v -12 -25 0
v -13 -25 0
v -13 -24 0
v -12 -24 0
v -13 -25 0
v -14 -25 0
v -14 -24 0
v -13 -24 0
v -10 -26 0
v -11 -26 0
v -11 -25 0
v -10 -25 0
v -11 -26 0
v -12 -26 0
v -12 -25 0
v -11 -25 0
v -12 -26 0
v -13 -26 0
v -13 -25 0
v -12 -25 0
v -13 -26 0
v -14 -26 0
v -14 -25 0
v -13 -25 0
v -10 -27 0
v -11 -27 0
v -11 -26 0
v -10 -26 0
v -13 -27 0
v -14 -27 0
v -14 -26 0
v -13 -26 0
v -14 -27 0
v -15 -27 0
v -15 -26 0
v -14 -26 0
v -15 -27 0
v -16 -27 0
v -16 -26 0
v -15 -26 0
v -16 -27 0
v -17 -27 0
v -17 -26 0
v -16 -26 0
v -13 -28 0
v -14 -28 0
v -14 -27 0
v -13 -27 0
v -14 -28 0
v -15 -28 0
v -15 -27 0
v -14 -27 0
v -15 -28 0
v -16 -28 0
v -16 -27 0
v -15 -27 0
v -16 -28 0
v -17 -28 0
v -17 -27 0
v -16 -27 0
v -13 -29 0
v -14 -29 0
v -14 -28 0
v -13 -28 0
v -14 -29 0
v -15 -29 0
v -15 -28 0
v -14 -28 0
v -15 -29 0
v -16 -29 0
v -16 -28 0
v -15 -28 0
v -16 -29 0
v -17 -29 0
v -17 -28 0
v -16 -28 0
v -13 -30 0
v -14 -30 0
v -14 -29 0
v -13 -29 0
v -16 -30 0
v -17 -30 0
v -17 -29 0
v -16 -29 0
v -12 -83 0
v -13 -83 0
v -13 -82 0
v -12 -82 0
v -13 -83 0
v -14 -83 0
v -14 -82 0
v -13 -82 0
v -14 -83 0
v -15 -83 0
v -15 -82 0
v -14 -82 0
v -15 -83 0
v -16 -83 0
v -16 -82 0
v -15 -82 0
v -12 -84 0
v -13 -84 0
v -13 -83 0
v -12 -83 0
v -13 -84 0
v -14 -84 0
v -14 -83 0
v -13 -83 0
v -14 -84 0
v -15 -84 0
v -15 -83 0
v -14 -83 0
v -15 -84 0
v -16 -84 0
v -16 -83 0
v -15 -83 0
v -12 -85 0
v -13 -85 0
v -13 -84 0
v -12 -84 0
v -13 -85 0
v -14 -85 0
v -14 -84 0
v -13 -84 0
v -14 -85 0
v -15 -85 0
v -15 -84 0
v -14 -84 0
v -15 -85 0
v -16 -85 0
v -16 -84 0
v -15 -84 0
v -12 -86 0
v -13 -86 0
v -13 -85 0
v -12 -85 0
v -15 -86 0
v -16 -86 0
v -16 -85 0
v -15 -85 0
v -3 -89 0
v -4 -89 0
v -4 -88 0
v -3 -88 0
v -4 -89 0
v -5 -89 0
v -5 -88 0
v -4 -88 0
v -5 -89 0
v -6 -89 0
v -6 -88 0
v -5 -88 0
v -6 -89 0
v -7 -89 0
v -7 -88 0
v -6 -88 0
v -3 -90 0
v -4 -90 0
v -4 -89 0
v -3 -89 0
v -4 -90 0
v -5 -90 0
v -5 -89 0
v -4 -89 0
v -5 -90 0
v -6 -90 0
v -6 -89 0
v -5 -89 0
v -6 -90 0
v -7 -90 0
v -7 -89 0
v -6 -89 0
v -3 -91 0
v -4 -91 0
v -4 -90 0
v -3 -90 0
v -4 -91 0
v -5 -91 0
v -5 -90 0
v -4 -90 0
v -5 -91 0
v -6 -91 0
v -6 -90 0
v -5 -90 0
v -6 -91 0
v -7 -91 0
v -7 -90 0
v -6 -90 0
v -3 -92 0
v -4 -92 0
v -4 -91 0
v -3 -91 0
v -6 -92 0
v -7 -92 0
v -7 -91 0
v -6 -91 0
v -10 -106 0
v -11 -106 0
v -11 -105 0
v -10 -105 0
v -11 -106 0
v -12 -106 0
v -12 -105 0
v -11 -105 0
v -12 -106 0
v -13 -106 0
v -13 -105 0
v -12 -105 0
v -13 -106 0
v -14 -106 0
v -14 -105 0
v -13 -105 0
v -1 -107 0
v -2 -107 0
v -2 -106 0
v -1 -106 0
v -2 -107 0
v -3 -107 0
v -3 -106 0
v -2 -106 0
v -3 -107 0
v -4 -107 0
v -4 -106 0
v -3 -106 0
v -4 -107 0
v -5 -107 0
v -5 -106 0
v -4 -106 0
v -10 -107 0
v -11 -107 0
v -11 -106 0
v -10 -106 0
v -11 -107 0
v -12 -107 0
v -12 -106 0
v -11 -106 0
v -12 -107 0
v -13 -107 0
v -13 -106 0
v -12 -106 0
v -13 -107 0
v -14 -107 0
v -14 -106 0
v -13 -106 0
v -1 -108 0
v -2 -108 0
v -2 -107 0
v -1 -107 0
v -2 -108 0
v -3 -108 0
v -3 -107 0
v -2 -107 0
v -3 -108 0
v -4 -108 0
v -4 -107 0
v -3 -107 0
v -4 -108 0
v -5 -108 0
v -5 -107 0
v -4 -107 0
v -10 -108 0
v -11 -108 0
v -11 -107 0
v -10 -107 0
v -11 -108 0
v -12 -108 0
v -12 -107 0
v -11 -107 0
v -12 -108 0
v -13 -108 0
v -13 -107 0
v -12 -107 0
v -13 -108 0
v -14 -108 0
v -14 -107 0
v -13 -107 0
v -1 -109 0
v -2 -109 0
v -2 -108 0
v -1 -108 0
v -2 -109 0
v -3 -109 0
v -3 -108 0
v -2 -108 0
v -3 -109 0
v -4 -109 0
v -4 -108 0
v -3 -108 0
v -4 -109 0
v -5 -109 0
v -5 -108 0
v -4 -108 0
v -10 -109 0
v -11 -109 0
v -11 -108 0
v -10 -108 0
v -13 -109 0
v -14 -109 0
v -14 -108 0
v -13 -108 0
v -1 -110 0
v -2 -110 0
v -2 -109 0
v -1 -109 0
v -4 -110 0
v -5 -110 0
v -5 -109 0
v -4 -109 0

# Texture cooridinates (Count = 56)
vt 0.0001220703 0.08345538
vt 0.02068417 0.08345538
vt 0.02068417 0.110989
vt 0.0001220703 0.110989
vt 0.02092831 0.08345538
vt 0.04149041 0.08345538
vt 0.04149041 0.110989
vt 0.02092831 0.110989
vt 0.04173455 0.08345538
vt 0.06229666 0.08345538
vt 0.06229666 0.110989
vt 0.04173455 0.110989
vt 0.0625408 0.08345538
vt 0.0831029 0.08345538
vt 0.0831029 0.110989
vt 0.0625408 0.110989
vt 0.0001220703 0.05567765
vt 0.02068417 0.05567765
vt 0.02068417 0.08321124
vt 0.0001220703 0.08321124
vt 0.02092831 0.05567765
vt 0.04149041 0.05567765
vt 0.04149041 0.08321124
vt 0.02092831 0.08321124
vt 0.04173455 0.05567765
vt 0.06229666 0.05567765
vt 0.06229666 0.08321124
vt 0.04173455 0.08321124
vt 0.0625408 0.05567765
vt 0.0831029 0.05567765
vt 0.0831029 0.08321124
vt 0.0625408 0.08321124
vt 0.0001220703 0.02789986
vt 0.02068417 0.02789986
vt 0.02068417 0.05543351
vt 0.0001220703 0.05543351
vt 0.02092831 0.02789986
vt 0.04149041 0.02789986
vt 0.04149041 0.05543351
vt 0.02092831 0.05543351
vt 0.04173455 0.02789986
vt 0.06229666 0.02789986
vt 0.06229666 0.05543351
vt 0.04173455 0.05543351
vt 0.0625408 0.02789986
vt 0.0831029 0.02789986
vt 0.0831029 0.05543351
vt 0.0625408 0.05543351
vt 0.0001220703 0.0001220703
vt 0.02068417 0.0001220703
vt 0.02068417 0.02765572
vt 0.0001220703 0.02765572
vt 0.0625408 0.0001220703
vt 0.0831029 0.0001220703
vt 0.0831029 0.02765572
vt 0.0625408 0.02765572

# Normal
vn 0 0 -1

# Mesh description
g MontillaBlvdLower_mesh_0005

# Faces
f 1/1/1 2/2/1 3/3/1 4/4/1
f 5/5/1 6/6/1 7/7/1 8/8/1
f 9/9/1 10/10/1 11/11/1 12/12/1
f 13/13/1 14/14/1 15/15/1 16/16/1
f 17/17/1 18/18/1 19/19/1 20/20/1
f 21/21/1 22/22/1 23/23/1 24/24/1
f 25/25/1 26/26/1 27/27/1 28/28/1
f 29/29/1 30/30/1 31/31/1 32/32/1
f 33/33/1 34/34/1 35/35/1 36/36/1
f 37/37/1 38/38/1 39/39/1 40/40/1
f 41/41/1 42/42/1 43/43/1 44/44/1
f 45/45/1 46/46/1 47/47/1 48/48/1
f 49/49/1 50/50/1 51/51/1 52/52/1
f 53/53/1 54/54/1 55/55/1 56/56/1
f 57/1/1 58/2/1 59/3/1 60/4/1
f 61/5/1 62/6/1 63/7/1 64/8/1
f 65/9/1 66/10/1 67/11/1 68/12/1
f 69/13/1 70/14/1 71/15/1 72/16/1
f 73/17/1 74/18/1 75/19/1 76/20/1
f 77/21/1 78/22/1 79/23/1 80/24/1
f 81/25/1 82/26/1 83/27/1 84/28/1
f 85/29/1 86/30/1 87/31/1 88/32/1
f 89/33/1 90/34/1 91/35/1 92/36/1
f 93/37/1 94/38/1 95/39/1 96/40/1
f 97/41/1 98/42/1 99/43/1 100/44/1
f 101/45/1 102/46/1 103/47/1 104/48/1
f 105/1/1 106/2/1 107/3/1 108/4/1
f 109/5/1 110/6/1 111/7/1 112/8/1
f 113/9/1 114/10/1 115/11/1 116/12/1
f 117/13/1 118/14/1 119/15/1 120/16/1
f 121/49/1 122/50/1 123/51/1 124/52/1
f 125/53/1 126/54/1 127/55/1 128/56/1
f 129/17/1 130/18/1 131/19/1 132/20/1
f 133/21/1 134/22/1 135/23/1 136/24/1
f 137/25/1 138/26/1 139/27/1 140/28/1
f 141/29/1 142/30/1 143/31/1 144/32/1
f 145/33/1 146/34/1 147/35/1 148/36/1
f 149/37/1 150/38/1 151/39/1 152/40/1
f 153/41/1 154/42/1 155/43/1 156/44/1
f 157/45/1 158/46/1 159/47/1 160/48/1
f 161/49/1 162/50/1 163/51/1 164/52/1
f 165/1/1 166/2/1 167/3/1 168/4/1
f 169/5/1 170/6/1 171/7/1 172/8/1
f 173/9/1 174/10/1 175/11/1 176/12/1
f 177/13/1 178/14/1 179/15/1 180/16/1
f 181/17/1 182/18/1 183/19/1 184/20/1
f 185/21/1 186/22/1 187/23/1 188/24/1
f 189/25/1 190/26/1 191/27/1 192/28/1
f 193/29/1 194/30/1 195/31/1 196/32/1
f 197/33/1 198/34/1 199/35/1 200/36/1
f 201/37/1 202/38/1 203/39/1 204/40/1
f 205/41/1 206/42/1 207/43/1 208/44/1
f 209/45/1 210/46/1 211/47/1 212/48/1
f 213/49/1 214/50/1 215/51/1 216/52/1
f 217/53/1 218/54/1 219/55/1 220/56/1
f 221/1/1 222/2/1 223/3/1 224/4/1
f 225/5/1 226/6/1 227/7/1 228/8/1
f 229/9/1 230/10/1 231/11/1 232/12/1
f 233/13/1 234/14/1 235/15/1 236/16/1
f 237/17/1 238/18/1 239/19/1 240/20/1
f 241/21/1 242/22/1 243/23/1 244/24/1
f 245/25/1 246/26/1 247/27/1 248/28/1
f 249/29/1 250/30/1 251/31/1 252/32/1
f 253/33/1 254/34/1 255/35/1 256/36/1
f 257/37/1 258/38/1 259/39/1 260/40/1
f 261/41/1 262/42/1 263/43/1 264/44/1
f 265/45/1 266/46/1 267/47/1 268/48/1
f 269/49/1 270/50/1 271/51/1 272/52/1
f 273/53/1 274/54/1 275/55/1 276/56/1
f 277/1/1 278/2/1 279/3/1 280/4/1
f 281/5/1 282/6/1 283/7/1 284/8/1
f 285/9/1 286/10/1 287/11/1 288/12/1
f 289/13/1 290/14/1 291/15/1 292/16/1
f 293/17/1 294/18/1 295/19/1 296/20/1
f 297/21/1 298/22/1 299/23/1 300/24/1
f 301/25/1 302/26/1 303/27/1 304/28/1
f 305/29/1 306/30/1 307/31/1 308/32/1
f 309/33/1 310/34/1 311/35/1 312/36/1
f 313/37/1 314/38/1 315/39/1 316/40/1
f 317/41/1 318/42/1 319/43/1 320/44/1
f 321/45/1 322/46/1 323/47/1 324/48/1
f 325/49/1 326/50/1 327/51/1 328/52/1
f 329/53/1 330/54/1 331/55/1 332/56/1
f 333/1/1 334/2/1 335/3/1 336/4/1
f 337/5/1 338/6/1 339/7/1 340/8/1
f 341/9/1 342/10/1 343/11/1 344/12/1
f 345/13/1 346/14/1 347/15/1 348/16/1
f 349/1/1 350/2/1 351/3/1 352/4/1
f 353/5/1 354/6/1 355/7/1 356/8/1
f 357/9/1 358/10/1 359/11/1 360/12/1
f 361/13/1 362/14/1 363/15/1 364/16/1
f 365/17/1 366/18/1 367/19/1 368/20/1
f 369/21/1 370/22/1 371/23/1 372/24/1
f 373/25/1 374/26/1 375/27/1 376/28/1
f 377/29/1 378/30/1 379/31/1 380/32/1
f 381/17/1 382/18/1 383/19/1 384/20/1
f 385/21/1 386/22/1 387/23/1 388/24/1
f 389/25/1 390/26/1 391/27/1 392/28/1
f 393/29/1 394/30/1 395/31/1 396/32/1
f 397/33/1 398/34/1 399/35/1 400/36/1
f 401/37/1 402/38/1 403/39/1 404/40/1
f 405/41/1 406/42/1 407/43/1 408/44/1
f 409/45/1 410/46/1 411/47/1 412/48/1
f 413/33/1 414/34/1 415/35/1 416/36/1
f 417/37/1 418/38/1 419/39/1 420/40/1
f 421/41/1 422/42/1 423/43/1 424/44/1
f 425/45/1 426/46/1 427/47/1 428/48/1
f 429/49/1 430/50/1 431/51/1 432/52/1
f 433/53/1 434/54/1 435/55/1 436/56/1
f 437/49/1 438/50/1 439/51/1 440/52/1
f 441/53/1 442/54/1 443/55/1 444/56/1

